max v2;#N vpatcher 27 107 601 366;#P window setfont "Sans Serif" 9.;#P number 324 94 35 9 0 0 0 3 0 0 0 221 221 221 222 222 222 0 0 0;#P newex 367 94 143 196617 r /modres/menu;#B color 11;#P user ubumenu 367 116 124 196617 0 1 1 0;#X add;#X prefix_set 0 0 <none> 0;#P window linecount 3;#P message 181 108 104 196617 \; /modres/menu clear \, append -;#P window linecount 1;#P newex 43 180 86 196617 s /modres/menu;#B color 11;#P newex 43 131 69 196617 route symbol;#P newex 43 155 78 196617 prepend append;#P newex 43 47 93 196617 r /modres/listinit;#B color 11;#P newex 43 87 148 196617 t dump b;#P button 43 68 15 0;#N coll modreslist;#P newobj 43 108 112 196617 coll modreslist;#B color 5;#P connect 3 0 1 0;#P connect 1 0 2 0;#P connect 2 0 0 0;#P connect 0 0 5 0;#P connect 5 0 4 0;#P connect 4 0 6 0;#P connect 2 1 7 0;#P connect 9 0 8 0;#P connect 10 0 8 0;#P pop;