max v2;#N vpatcher 224 422 1356 866;#P window setfont "Sans Serif" 9.;#P newex 782 163 68 196617 prepend read;#P newex 782 142 51 196617 tosymbol;#P newex 782 93 62 196617 projectpath;#B color 6;#P button 782 72 15 0;#P newex 782 52 192 196617 r $1/modres/listinit;#B color 11;#P window linecount 2;#P message 920 264 162 196617 \; $1/modres/menu clear \, append -;#P window linecount 1;#P newex 782 336 99 196617 s $1/modres/menu;#B color 11;#P newex 782 287 69 196617 route symbol;#P newex 782 311 78 196617 prepend append;#P newex 782 243 148 196617 t dump b;#P button 782 224 15 0;#N coll modreslist 1;#P newobj 782 264 86 196617 coll modreslist 1;#B color 5;#P newex 782 120 220 196617 sprintf %sconfig/data/modres/modreslist.txt;#B color 5;#N coll modreslist 1;#P newobj 782 189 86 196617 coll modreslist 1;#B color 5;#N coll $1/modresedit2 1;#P newobj 479 367 113 196617 coll $1/modresedit2 1;#B color 5;#P window setfont Times 9.;#P newex 33 29 245 1310729 makeparam $1/modres/model $1 s -;#B color 13;#P window setfont "Sans Serif" 9.;#P comment 595 367 77 196617 modifiied amps;#P comment 595 342 142 196617 filtered \, normalized \, ordered;#N coll $1/modresedit 1;#P newobj 479 340 107 196617 coll $1/modresedit 1;#B color 5;#N coll $1/modres 1;#P newobj 479 317 90 196617 coll $1/modres 1;#B color 5;#P window setfont Times 9.;#P newex 61 81 262 1310729 makeparam $1/modres/maxsize $1 i 64 0 168 0;#B color 13;#P window setfont "Sans Serif" 9.;#P window linecount 7;#P message 469 167 223 196617 \; $1/modres/listinit bang \; $1/modres/model/init bang \; $1/modres/maxsize/init bang \; $1/modres/amp/init bang \; $1/modres/curve/init bang \; $1/modres/clip/init bang \;;#P window linecount 1;#P newex 469 143 169 196617 r $1/modres/init;#B color 11;#P window setfont Times 9.;#P flonum 255 307 35 9 0. 1. 3 20 0 0 0 221 221 221 222 222 222 0 0 0;#P flonum 181 306 35 9 -1. 1. 3 20 0 0 0 221 221 221 222 222 222 0 0 0;#P flonum 107 306 35 9 0. 0 1 20 0 0 0 221 221 221 222 222 222 0 0 0;#P newex 255 282 235 1310729 makeparam $1/modres/clip $1 f 1 0 1 1;#B color 13;#P window setfont "Sans Serif" 9.;#P comment 236 284 21 196617 clp;#P window setfont Times 9.;#P newex 181 256 243 1310729 makeparam $1/modres/curve $1 f 0 -1 1 1;#B color 13;#P window setfont "Sans Serif" 9.;#P comment 149 258 36 196617 curve;#P window setfont Times 9.;#P newex 107 230 241 1310729 makeparam $1/modres/amp $1 f 1 0 10 1;#B color 13;#P window setfont "Sans Serif" 9.;#P comment 81 232 26 196617 amp;#P newex 52 187 180 196617 r $1/modres/convert;#B color 11;#P button 33 237 15 0;#N vpatcher 44 55 1390 713;#P origin 0 1;#P window setfont "Sans Serif" 9.;#P window linecount 1;#P message 1030 198 14 196617 1;#P message 987 198 14 196617 1;#P newex 987 217 53 196617 bondo 2 1;#P button 783 592 15 0;#P newex 823 553 84 196617 pack 0 0.;#P message 823 573 69 196617 nsub \$1 2 \$2;#P number 823 535 35 9 0 0 0 3 0 0 0 221 221 221 222 222 222 0 0 0;#P message 879 472 39 196617 set 83;#P newex 823 493 84 196617 t b 1 f;#P newex 823 515 53 196617 accum;#P newex 783 449 90 196617 t b l b;#P newex 823 472 47 196617 zl iter 1;#N coll $1/modresedit2 1;#P newobj 823 592 164 196617 coll $1/modresedit2 1;#B color 5;#P newex 783 428 185 196617 r $1/amplistB;#B color 7;#P newex 1075 344 27 196617 t i i;#P newex 1076 262 61 196617 grab;#P button 783 371 15 0;#P newex 987 242 99 196617 t b length;#P newex 1031 443 40 196617 t b b b;#N coll $1/modresedit2 1;#P newobj 1127 377 164 196617 coll $1/modresedit2 1;#B color 5;#P newex 1180 515 136 196617 s $1/listC;#B color 7;#P newex 1180 493 67 196617 zl group 255;#P newex 1101 534 136 196617 s $1/listB;#B color 7;#P newex 1101 493 67 196617 zl group 255;#P newex 1024 555 137 196617 s $1/listA;#B color 7;#P newex 1024 493 67 196617 zl group 255;#P number 1076 282 51 9 0 0 0 3 0 0 0 221 221 221 222 222 222 0 0 0;#P number 1075 417 35 9 0 0 0 3 0 0 0 221 221 221 222 222 222 0 0 0;#P newex 1075 396 27 196617 + 1;#P newex 1075 437 62 196617 gate 3;#P newex 1075 375 34 196617 / 84.;#P newex 1075 321 27 196617 - 1;#P newex 987 300 99 196617 uzi;#P newex 823 332 84 196617 pack 0 0.;#P message 823 352 69 196617 nsub \$1 2 \$2;#P number 823 314 35 9 0 0 0 3 0 0 0 221 221 221 222 222 222 0 0 0;#P window linecount 0;#P message 879 251 38 196617 set -1;#P newex 823 272 84 196617 t b 1 f;#P window linecount 1;#P newex 823 294 53 196617 accum;#P newex 783 228 90 196617 t b l b;#P window linecount 0;#P newex 823 251 47 196617 zl iter 1;#P window linecount 1;#N coll $1/modresedit2 1;#P newobj 823 371 164 196617 coll $1/modresedit2 1;#B color 5;#P newex 783 207 185 196617 r $1/amplistA;#B color 7;#P button 520 45 15 0;#P window linecount 0;#P newex 539 70 42 196617 t write;#P newex 539 45 206 196617 r $1/modres/temp/write;#B color 11;#P button 280 45 15 0;#P newex 299 70 37 196617 t open;#P newex 299 45 206 196617 r $1/modres/temp/open;#B color 11;#P newex 233 68 44 196617 zl rot 1;#P newex 233 46 38 196617 zl join;#N coll $1/modresedit2 1;#P newobj 233 93 164 196617 coll $1/modresedit2 1;#B color 5;#N comlet clp;#P inlet 554 224 15 0;#N comlet curve;#P inlet 469 224 15 0;#N comlet amp;#P inlet 384 224 15 0;#P comment 570 224 21 196617 clp;#P comment 485 224 36 196617 curve;#P comment 400 224 26 196617 amp;#P window setfont Times 9.;#P flonum 554 243 35 9 0. 1. 3 20 0 0 0 221 221 221 222 222 222 0 0 0;#P flonum 469 243 35 9 -1. 1. 3 20 0 0 0 221 221 221 222 222 222 0 0 0;#P flonum 384 243 35 9 0. 0 1 20 0 0 0 221 221 221 222 222 222 0 0 0;#P window setfont "Sans Serif" 9.;#P newex 160 301 180 196617 pack 0. 0. 0.;#N vpatcher 919 541 1329 881;#N comlet clp;#P inlet 322 25 15 0;#N comlet curve;#P inlet 237 25 15 0;#N comlet amp;#P inlet 152 25 15 0;#P window setfont "Sans Serif" 9.;#P newex 55 124 176 196617 s $1/modres/convert;#B color 11;#P button 55 104 15 0;#P comment 44 287 50 196617 amps out;#P newex 152 70 181 196617 bondo 3 1;#P comment 338 26 21 196617 clp;#P comment 253 26 36 196617 curve;#P comment 168 26 26 196617 amp;#P window setfont Times 9.;#P flonum 322 45 35 9 0. 1. 3 20 0 0 0 221 221 221 222 222 222 0 0 0;#P flonum 237 44 35 9 -1. 1. 3 20 0 0 0 221 221 221 222 222 222 0 0 0;#P flonum 152 44 35 9 0. 0 1 20 0 0 0 221 221 221 222 222 222 0 0 0;#P newex 28 198 40 1310729 clip 0 1;#P newex 28 220 74 1310729 explinlog;#B color 6;#P newex 28 242 91 1310729 clip 0 1.;#P newex 28 176 60 1310729 * 1.;#N comlet amps out;#P outlet 28 285 15 0;#N comlet amps in;#P inlet 28 45 15 0;#P window setfont "Sans Serif" 9.;#P comment 45 47 44 196617 amps in;#P connect 1 0 3 0;#P connect 3 0 6 0;#P connect 6 0 5 0;#P connect 5 0 4 0;#P connect 4 0 2 0;#P connect 13 2 15 0;#P connect 13 0 15 0;#P connect 13 1 15 0;#P connect 15 0 16 0;#P connect 13 0 3 1;#P connect 13 1 5 1;#P connect 13 2 4 2;#P connect 17 0 7 0;#P connect 7 0 13 0;#P connect 18 0 8 0;#P connect 8 0 13 1;#P connect 19 0 9 0;#P connect 9 0 13 2;#P pop;#P newobj 245 271 348 196617 p modres-ampmodifier;#B color 6;#P newex 176 144 163 196617 s $1/modres/size;#B color 7;#P newex 1061 40 27 196617 - 2.;#P newex 1061 155 136 196617 s $1/listClen;#B color 7;#P number 1061 136 35 9 0 0 0 3 0 0 0 221 221 221 222 222 222 0 0 0;#P newex 1061 117 18 196617 t i;#P newex 1061 98 34 196617 + 0.5;#P newex 1061 79 56 196617 clip 0. 84.;#P newex 1061 60 35 196617 * 84.;#P newex 922 40 27 196617 - 1.;#P newex 922 155 136 196617 s $1/listBlen;#B color 7;#P number 922 136 35 9 0 0 0 3 0 0 0 221 221 221 222 222 222 0 0 0;#P newex 922 117 18 196617 t i;#P newex 922 98 34 196617 + 0.5;#P newex 922 79 56 196617 clip 0. 84.;#P newex 922 60 35 196617 * 84.;#P newex 783 155 136 196617 s $1/listAlen;#B color 7;#P number 783 136 35 9 0 0 0 3 0 0 0 221 221 221 222 222 222 0 0 0;#P newex 783 117 18 196617 t i;#P newex 783 98 34 196617 + 0.5;#P newex 783 79 56 196617 clip 0. 84.;#P newex 783 60 35 196617 * 84.;#P newex 380 332 62 196617 gate 3;#P newex 295 332 62 196617 gate 3;#P newex 520 506 136 196617 s $1/amplistCedit;#B color 7;#P newex 520 484 67 196617 zl group 255;#P newex 441 525 136 196617 s $1/amplistBedit;#B color 7;#P newex 441 484 67 196617 zl group 255;#P newex 364 546 137 196617 s $1/amplistAedit;#B color 7;#P newex 364 484 67 196617 zl group 255;#P message 658 245 17 196617 0.;#P message 694 245 17 196617 0.;#P message 730 245 17 196617 0.;#P newex 160 246 180 196617 unpack 0. 0. 0.;#P newex 210 332 62 196617 gate 3;#P inlet 20 21 15 0;#P newex 648 224 32 196617 sel 1;#P newex 648 204 33 196617 <= 0.;#P flonum 648 173 60 9 0 0 0 3 0 0 0 221 221 221 222 222 222 0 0 0;#P newex 684 224 32 196617 sel 1;#P newex 684 204 33 196617 <= 1.;#P newex 648 153 34 196617 / 84.;#P newex 720 224 32 196617 sel 1;#P newex 720 204 33 196617 <= 2.;#P newex 108 166 27 196617 t i i;#P message 648 269 43 196617 0. 0. 0.;#P message 684 288 43 196617 0. 0. 0.;#P message 720 269 43 196617 0. 0. 0.;#P newex 109 81 61 196617 grab;#P button 20 40 15 0;#P newex 20 60 188 196617 t b length clear;#P newex 64 338 40 196617 t b b b;#P newex 160 224 51 196617 zl slice 3;#N coll $1/modresedit 1;#P newobj 160 199 153 196617 coll $1/modresedit 1;#B color 5;#P newex 213 506 136 196617 s $1/listC;#B color 7;#P newex 213 484 67 196617 zl group 255;#P newex 134 525 136 196617 s $1/listB;#B color 7;#P newex 134 484 67 196617 zl group 255;#P newex 57 546 137 196617 s $1/listA;#B color 7;#P newex 57 484 67 196617 zl group 255;#P number 109 101 51 9 0 0 0 3 0 0 0 221 221 221 222 222 222 0 0 0;#P number 108 239 35 9 0 0 0 3 0 0 0 221 221 221 222 222 222 0 0 0;#P newex 108 218 27 196617 + 1;#P newex 108 332 62 196617 gate 3;#P newex 108 197 34 196617 / 84.;#P newex 108 143 27 196617 - 1;#P newex 20 122 99 196617 uzi;#P connect 31 0 17 0;#P connect 17 0 16 0;#P connect 16 0 0 0;#P connect 15 2 7 0;#P connect 3 0 7 0;#P connect 21 0 7 0;#P connect 7 0 8 0;#P connect 0 1 15 0;#P connect 0 2 1 0;#P connect 1 0 22 0;#P connect 22 1 2 0;#P connect 2 0 4 0;#P connect 4 0 5 0;#P connect 5 0 3 0;#P connect 16 1 18 0;#P connect 18 0 6 0;#P connect 6 0 0 1;#P connect 15 1 9 0;#P connect 3 1 9 0;#P connect 20 0 9 0;#P connect 9 0 10 0;#P connect 18 1 13 0;#P connect 22 0 13 0;#P connect 13 0 14 0;#P connect 14 0 33 0;#P connect 33 0 67 0;#P connect 67 0 3 1;#P connect 6 0 65 0;#P connect 15 0 11 0;#P connect 3 2 11 0;#P connect 19 0 11 0;#P connect 11 0 12 0;#P connect 67 0 78 0;#P connect 78 0 79 0;#P connect 79 0 77 0;#P connect 16 2 77 0;#P fasten 81 0 77 0 304 90 238 90;#P fasten 84 0 77 0 544 90 238 90;#P connect 33 1 66 0;#P connect 66 0 67 1;#P connect 13 1 78 1;#P connect 33 0 32 1;#P connect 5 0 43 0;#P connect 82 0 81 0;#P connect 80 0 81 0;#P connect 33 2 67 2;#P connect 66 0 43 1;#P connect 68 0 66 1;#P connect 15 2 37 0;#P connect 36 0 37 0;#P connect 43 0 37 0;#P connect 37 0 38 0;#P connect 74 0 68 0;#P connect 33 2 44 1;#P connect 15 1 39 0;#P connect 35 0 39 0;#P connect 43 1 39 0;#P connect 39 0 40 0;#P connect 75 0 69 0;#P connect 69 0 66 2;#P connect 15 0 41 0;#P connect 34 0 41 0;#P connect 43 2 41 0;#P connect 41 0 42 0;#P connect 83 0 84 0;#P connect 85 0 84 0;#P connect 76 0 70 0;#P connect 70 0 66 3;#P connect 6 0 25 0;#P connect 25 0 28 0;#P connect 28 0 29 0;#P connect 29 0 30 0;#P connect 30 0 21 0;#P connect 30 0 36 0;#P connect 28 0 26 0;#P connect 26 0 27 0;#P connect 27 0 20 0;#P connect 27 0 35 0;#P connect 28 0 23 0;#P connect 23 0 24 0;#P connect 24 0 19 0;#P connect 24 0 34 0;#P connect 28 0 45 0;#P connect 45 0 46 0;#P connect 46 0 47 0;#P connect 47 0 48 0;#P connect 48 0 49 0;#P connect 49 0 50 0;#P connect 86 0 89 0;#P connect 89 0 112 0;#P connect 115 0 118 0;#P connect 118 0 125 0;#P connect 89 1 88 0;#P connect 88 0 91 0;#P connect 91 0 90 0;#P connect 92 0 90 0;#P connect 90 0 93 0;#P connect 93 0 95 0;#P connect 95 0 94 0;#P connect 94 0 87 0;#P connect 118 1 117 0;#P connect 117 0 120 0;#P connect 121 0 119 0;#P connect 120 0 119 0;#P connect 119 0 122 0;#P connect 122 0 124 0;#P connect 124 0 123 0;#P connect 123 0 116 0;#P connect 91 1 90 1;#P connect 120 1 119 1;#P connect 89 2 92 0;#P connect 118 2 121 0;#P connect 91 2 95 1;#P connect 120 2 124 1;#P connect 28 0 57 0;#P connect 57 0 51 0;#P connect 51 0 52 0;#P connect 52 0 53 0;#P connect 53 0 54 0;#P connect 54 0 55 0;#P connect 55 0 56 0;#P fasten 112 0 127 0 788 393 974 393 974 189 992 189;#P connect 127 0 126 0;#P connect 126 0 111 0;#P connect 111 0 96 0;#P connect 99 0 103 0;#P connect 110 2 103 0;#P connect 103 0 104 0;#P fasten 125 0 128 0 788 616 982 616 982 193 1035 193;#P connect 128 0 126 1;#P connect 96 1 110 0;#P connect 28 0 64 0;#P connect 64 0 58 0;#P connect 58 0 59 0;#P connect 59 0 60 0;#P connect 60 0 61 0;#P connect 61 0 62 0;#P connect 62 0 63 0;#P connect 96 2 97 0;#P connect 97 0 114 0;#P connect 114 1 98 0;#P connect 98 0 100 0;#P connect 100 0 101 0;#P connect 101 0 99 0;#P connect 111 1 113 0;#P connect 113 0 102 0;#P connect 102 0 96 1;#P connect 99 1 105 0;#P connect 110 1 105 0;#P connect 105 0 106 0;#P connect 113 1 109 0;#P connect 114 0 109 0;#P connect 109 0 99 1;#P connect 99 2 107 0;#P connect 110 0 107 0;#P connect 107 0 108 0;#P pop;#P newobj 33 332 234 196617 p convert_to_list;#B color 6;#P number 61 102 35 9 0 0 1 3 0 0 0 221 221 221 222 222 222 0 0 0;#P newex 33 125 27 196617 64;#N vpatcher 302 118 630 601;#P window setfont "Sans Serif" 9.;#P window linecount 1;#P newex 125 185 164 196617 s $1/modres/modelsize;#B color 11;#N comlet;#P outlet 52 374 15 0;#P newex 52 327 30 196617 t b b;#N comlet number of filters (size of modres);#P inlet 57 45 15 0;#P message 72 373 102 196617 sort -1 4 \, renumber;#P newex 87 327 44 196617 zl rot 1;#P newex 87 306 38 196617 zl join;#P newex 57 220 91 196617 t i clear;#P newex 87 283 40 196617 grab 2;#N coll $1/modresedit 1;#P newobj 138 401 107 196617 coll $1/modresedit 1;#B color 5;#P newex 87 263 27 196617 - 1;#P number 57 200 35 9 0 0 0 3 0 0 0 221 221 221 222 222 222 0 0 0;#P newex 57 179 50 196617 minimum;#P newex 57 90 90 196617 t i b b;#P newex 57 242 40 196617 uzi 64;#P number 57 71 35 9 0 0 1 3 0 0 0 221 221 221 222 222 222 0 0 0;#P number 97 159 35 9 0 0 0 3 0 0 0 221 221 221 222 222 222 0 0 0;#P message 97 113 37 196617 length;#P newex 97 134 30 196617 grab;#P message 173 114 97 196617 sort 1 3 \, renumber;#N coll $1/modres 1;#P newobj 173 314 90 196617 coll $1/modres 1;#B color 5;#P window linecount 2;#P comment 73 41 130 196617 number of filters to choose (desired size of modres);#P connect 7 1 19 0;#P connect 19 0 20 0;#P connect 18 0 6 0;#P connect 6 0 8 0;#P connect 8 0 9 0;#P connect 9 0 10 0;#P connect 10 0 14 0;#P connect 14 0 7 0;#P connect 19 1 17 0;#P connect 7 2 11 0;#P connect 11 0 13 0;#P connect 13 0 15 0;#P connect 15 0 16 0;#P connect 8 1 4 0;#P connect 4 0 3 0;#P connect 3 0 5 0;#P connect 5 0 9 1;#P connect 13 1 15 1;#P connect 5 0 21 0;#P connect 16 0 12 0;#P connect 14 1 12 0;#P connect 17 0 12 0;#P connect 8 2 2 0;#P connect 13 2 1 0;#P fasten 3 1 1 0 122 154 178 154;#P connect 2 0 1 0;#P pop;#P newobj 33 149 98 196617 p modres-sizefilter;#B color 6;#P button 33 71 15 0;#N vpatcher 171 274 774 817;#P window setfont "Sans Serif" 9.;#P window linecount 1;#P newex 340 350 51 196617 tosymbol;#P newex 340 370 68 196617 prepend read;#P newex 340 273 30 196617 t b s;#P newex 340 330 186 196617 sprintf %sconfig/data/modres/%s.txt;#B color 5;#P newex 340 309 62 196617 projectpath;#B color 6;#N comlet model name;#P inlet 449 187 15 0;#P newex 449 389 48 196617 t b clear;#P window linecount 0;#P newex 449 209 57 196617 route -;#P window linecount 1;#P newex 46 368 39 196617 t b 2;#P newex 355 468 31 196617 t b 1;#P window linecount 0;#P newex 132 372 98 196617 gate 2;#P window linecount 1;#P message 220 393 69 196617 nsub \$1 4 \$2;#P newex 115 345 51 196617 pack 0 0.;#P message 132 393 83 196617 merge \$1 \$2 \$1;#P newex 134 309 42 196617 * 1.;#P newex 102 261 74 196617 unpack 0. 0. 0.;#P comment 62 434 30 196617 done;#P newex 355 489 193 196617 s $1/modres/normalize;#B color 11;#P button 31 49 15 0;#P newex 31 28 193 196617 r $1/modres/normalize;#B color 11;#P newex 61 195 27 196617 - 1;#P comment 75 179 54 196617 normalize;#P newex 102 285 59 196617 / 1.;#P newex 61 215 51 196617 t i i;#P window linecount 0;#P message 61 393 69 196617 nsub \$1 2 \$2;#P newex 61 345 51 196617 pack 0 0.;#P window linecount 1;#P newex 102 235 30 196617 grab;#P window linecount 0;#P newex 31 175 40 196617 uzi;#P number 31 156 35 9 0 0 0 3 0 0 0 221 221 221 222 222 222 0 0 0;#P message 31 116 37 196617 length;#P window linecount 1;#P newex 31 69 98 196617 t b b;#P flonum 151 192 52 9 0 0 0 3 0 0 0 221 221 221 222 222 222 0 0 0;#P newex 119 137 74 196617 unpack 0. 0. 0.;#P newex 31 135 54 196617 grab;#P newex 119 113 206 196617 grab 2;#P newex 151 171 52 196617 peak 0.;#P newex 119 91 84 196617 t dump 0;#N coll $1/modres 1;#P newobj 315 432 90 196617 coll $1/modres 1;#B color 5;#P window linecount 0;#P comment 464 187 59 196617 model name;#N comlet done;#P outlet 46 433 15 0;#P comment 144 76 50 196617 find peak;#P comment 177 286 81 196617 add "perceptability" index;#P connect 22 0 23 0;#P connect 23 0 11 0;#P connect 11 0 12 0;#P connect 12 0 8 0;#P connect 8 0 13 0;#P connect 13 0 14 0;#P connect 14 1 33 0;#P connect 33 0 2 0;#P connect 14 2 21 0;#P connect 21 0 18 0;#P connect 18 0 16 0;#P connect 16 0 17 0;#P connect 18 1 15 0;#P connect 15 0 26 0;#P connect 26 1 19 0;#P connect 19 0 16 1;#P connect 18 0 29 0;#P connect 11 1 5 0;#P connect 5 0 7 0;#P connect 7 0 9 0;#P connect 32 1 31 0;#P connect 33 1 31 0;#P connect 31 0 28 0;#P connect 19 0 27 0;#P connect 9 1 6 0;#P connect 6 0 10 0;#P connect 10 0 19 1;#P connect 27 0 29 1;#P connect 26 2 27 1;#P connect 5 1 6 1;#P connect 29 0 31 1;#P connect 31 1 30 0;#P connect 30 0 4 0;#P connect 28 0 4 0;#P connect 15 1 4 0;#P connect 7 2 4 0;#P connect 8 1 4 0;#P connect 17 0 4 0;#P connect 35 1 4 0;#P connect 40 0 4 0;#P connect 34 1 39 0;#P connect 39 0 37 0;#P connect 37 0 38 0;#P connect 38 0 41 0;#P connect 41 0 40 0;#P connect 35 0 32 0;#P connect 4 2 32 0;#P connect 32 0 24 0;#P connect 36 0 34 0;#P connect 34 0 35 0;#P connect 39 1 38 1;#P pop;#P newobj 33 50 88 196617 p read_normalize;#B color 6;#P newex 598 59 62 196617 prepend set;#P newex 598 38 146 196617 r $1/modres/model;#B color 11;#P number 406 59 35 9 0 0 0 3 0 0 0 221 221 221 222 222 222 0 0 0;#P newex 449 59 99 196617 r $1/modres/menu;#B color 11;#P newex 506 104 146 196617 s $1/modres/model;#B color 11;#P user ubumenu 449 81 124 196617 0 1 1 0;#X add -;#X add Castinet01;#X add Claves;#X add Clavesmix;#X add JapaneseBlock1;#X add LogD-Fa;#X add LogD-Si;#X add LogDrum1;#X add MarB-Do2;#X add MarB-Do7;#X add MarB-La4;#X add MarB-Lad5;#X add MarB-Si3;#X add MarB-Sol2;#X add MarB-Sol6;#X add Mogucho1;#X add Mogucho7;#X add Wood2;#X add Woodblock-La2;#X add Woodblock-La3;#X add Woodblock-Re4;#X add Woodblock-Si4;#X add AntiqueCymSingleE3;#X add BolJaponais-Sol3;#X add BolJaponais-Sol4;#X add BolTibet-Si2;#X add ChineseBowl4;#X add Clingui;#X add ClochedeVacheF3;#X add CloV-Do4;#X add CloV-Fa3;#X add CloV-Fad4;#X add CloV-Fad6;#X add CloV-Sol5;#X add Cowbell03lo;#X add Cymb1;#X add Cymb3;#X add CymbalBellCSL3;#X add CymbalGravemono;#X add GongBalinai2;#X add gongFsNormal;#X add GongT-Fad2;#X add GongT-Sol3;#X add HHclsdloose3;#X add LgGongNice;#X add p3forte-do;#X add PetitGong-Do4;#X add PlatoBrillante;#X add Ressort1-BagMetal;#X add Ressort2-BagMetal;#X add RideMed22BELLROCK;#X add RideMed22MIDROCK;#X add RinChinois-Mib3;#X add Steel-D1-Dod3-Re;#X add Steel-D1-Fa3-Re;#X add Steel-D1-La2-Le;#X add Steel-D2-Fad3;#X add Steel-D4-Do3;#X add Tamw_metStick;#X add Toupin4;#X add TrianglBL01;#X add TriSingleStroke1;#X add Vibra-Fad3;#X add Vibra-Re4;#X add BataUltraLow;#X add BongoHi2-1coup;#X add BongoHigh;#X add Boobam-A4-1coup;#X add Boobam-B3-1coup;#X add Boobam-E4-1coup;#X add Derb_Mute-Ouvert3;#X add Derb_SnapMute3;#X add DUMBECK2;#X add Tabla-DaMG;#X add Tabla-TeMD;#X add Tabla-TounMD;#X add TablaDa;#X add TablaDit;#X add TablaNa;#X add TimbHi-brd-ras3;#X add Tom-14p-1coup;#X add Tom-18p-1coup;#X add Zarb-MDAigu;#X add Zarb-MGMedOuvert;#X add Clsdtoneslp01;#X add HighUduMallet;#X add LowUduquickbend;#X add Opentopvase01;#X add Opentopvase02;#X add Podhit;#X add Pot1-1coup;#X add Pot3-1coup;#X add Pot5-1coup;#X add Pot6-1coup;#X add Sideslapvase01;#X add Udu_GraveFerme;#X add Udu_MDDoigt;#X add Udu_MDPaumClaque;#X prefix_set 0 0 <none> 0;#P comment 595 319 44 196617 original;#P connect 31 0 7 0;#P connect 7 0 8 0;#P connect 11 0 10 0;#P connect 8 0 10 0;#P connect 10 0 9 0;#P connect 9 0 13 0;#P connect 14 0 13 0;#P connect 13 0 12 0;#P connect 26 0 11 0;#P connect 16 0 21 0;#P connect 21 0 12 1;#P connect 18 0 22 0;#P connect 22 0 12 2;#P connect 20 0 23 0;#P connect 23 0 12 3;#P connect 4 0 1 0;#P connect 6 0 1 0;#P connect 3 0 1 0;#P connect 24 0 25 0;#P connect 1 1 2 0;#P connect 5 0 6 0;#P connect 42 0 43 0;#P connect 43 0 44 0;#P connect 44 0 34 0;#P connect 34 0 45 0;#P connect 45 0 46 0;#P connect 46 0 33 0;#P connect 33 2 36 0;#P connect 36 0 37 0;#P connect 37 0 35 0;#P connect 35 0 39 0;#P connect 39 0 38 0;#P connect 38 0 40 0;#P connect 37 1 41 0;#P pop;