max v2;#N vpatcher 241 232 1223 734;#P origin 0 -8;#P window setfont Times 9.;#P window linecount 1;#P newex 64 28 175 1310729 makeparam $1/noise $1 t 0 0 1;#B color 13;#P toggle 64 50 15 0;#P newex 64 71 31 1310729 gate~;#P newex 85 50 36 1310729 noise~;#P button 28 262 15 0;#P newex 28 240 39 1310729 route 0.;#P flonum 28 221 42 9 0 0 0 20 0 0 0 221 221 221 222 222 222 0 0 0;#P newex 28 199 201 1310729 makeparam $1/impulse $1 f 0 0. 1. 0;#B color 13;#P window setfont "Sans Serif" 9.;#P newex 58 437 145 196617 t_fxmetersend $1;#B color 4;#P newex 661 320 261 196617 makeswitch $1/sw $1 tape_switchstate;#B color 13;#P newex 661 363 31 196617 == 0;#P newex 661 402 50 196617 thispoly~;#B color 5;#P toggle 661 344 15 0;#P message 661 383 45 196617 mute \$1;#P window setfont Times 9.;#P newex 59 106 236 1310729 makeparam $1/invol $1 f 1 0. 25. 1;#B color 13;#P window setfont "Sans Serif" 9.;#P flonum 73 128 35 9 0 0 0 3 0 0 0 221 221 221 222 222 222 0 0 0;#P newex 14 128 55 196617 t_vol~ 20;#P window setfont Times 9.;#P newex 164 133 251 1310729 makeparam $1/gainscale $1 f 1 0. 25. 1;#B color 13;#P newex 419 206 243 1310729 makeparam $1/filter $1 i 127 0 127 1;#B color 13;#P newex 338 185 253 1310729 makeparam $1/ratescale $1 f 1 0. 999. 1;#B color 13;#P newex 238 161 238 1310729 makeparam $1/trsp $1 f 0 -48. 48. 1;#B color 13;#P button 676 104 15 0;#P window setfont "Sans Serif" 9.;#P newex 661 270 133 196617 s $1/spat/init;#B color 11;#P window setfont Times 9.;#P window linecount 11;#P message 676 126 237 1310729 \; $1/sw/init bang \; $1/noise/init bang \; $1/invol/init bang \; $1/gainscale/init bang \; $1/trsp/init bang \; $1/ratescale/init bang \; $1/filter/init bang \; $1/vol/init bang \; $1/modres/init bang \; $1/impulse/init bang \;;#P window setfont "Sans Serif" 9.;#P window linecount 1;#P newex 676 83 148 196617 moduleinit $1;#B color 13;#P flonum 66 408 35 9 0 0 0 3 0 0 0 221 221 221 222 222 222 0 0 0;#P newex 14 407 49 196617 t_vol~ 2;#P newex 53 383 355 196617 makeparam $1/vol $1 f 1 0. 2. 1 20;#B color 13;#P window setfont Times 9.;#N in~ 1;#P newobj 14 36 30 1310729 in~ 1;#P newex 14 60 40 1310729 t_dither;#N out~ 1;#P newobj 14 437 34 1310729 out~ 1;#P newex 99 237 123 1310729 r $1/listB;#B color 11;#P newex 88 161 123 1310729 r $1/listA;#B color 11;#P flonum 238 263 35 9 0 0 0 20 0 0 0 221 221 221 222 222 222 0 0 0;#P newex 238 281 94 1310729 expr pow(2\\\,($f1/12));#N comlet sig in;#P inlet 14 16 15 0;#P flonum 238 306 63 9 0 0 0 20 0 0 0 221 221 221 222 222 222 0 0 0;#P newex 522 263 45 1310729 loadbang;#P message 522 283 28 1310729 -0.2;#P number 419 227 35 9 0 127 3 20 0 0 0 221 221 221 222 222 222 0 0 0;#P newex 419 283 29 1310729 mtof;#P number 419 265 35 9 0 0 0 20 0 0 0 221 221 221 222 222 222 0 0 0;#P newex 419 245 95 1310729 scale 0 127 40 137;#P flonum 522 303 40 9 -0.2 0. 3 20 0 0 0 221 221 221 222 222 222 0 0 0;#P message 522 323 88 1310729 spectral-slope \$1;#P flonum 419 303 58 9 0 0 0 20 0 0 0 221 221 221 222 222 222 0 0 0;#P message 419 323 95 1310729 spectral-corner \$1;#P flonum 164 303 42 9 0 0 0 20 0 0 0 221 221 221 222 222 222 0 0 0;#P flonum 338 303 35 9 0 0 0 20 0 0 0 221 221 221 222 222 222 0 0 0;#P message 338 323 70 1310729 rate-scale \$1;#P message 164 324 69 1310729 gain-scale \$1;#P message 238 324 95 1310729 frequency-scale \$1;#N vpatcher 40 55 453 297;#P window setfont "Sans Serif" 9.;#P window linecount 1;#P message 111 95 87 196617 tellmeeverything;#P window linecount 0;#P message 219 95 87 196617 tellmeeverything;#N comlet listB;#P inlet 198 22 15 0;#P newex 198 69 74 196617 res-transform;#P comment 216 22 41 196617 listB;#P newex 90 167 118 196617 +~;#N comlet sig in;#P inlet 15 83 15 0;#N comlet messages;#P inlet 307 22 15 0;#P outlet 90 196 15 0;#N comlet listA;#P inlet 90 22 15 0;#P newex 198 116 63 196617 resonators~;#P newex 90 69 74 196617 res-transform;#P newex 90 116 63 196617 resonators~;#P comment 325 22 51 196617 messages;#P comment 108 22 41 196617 listA;#P comment 6 69 32 196617 sig in;#P connect 8 0 4 0;#P connect 6 0 4 0;#P connect 9 0 3 0;#P lcolor 13;#P connect 4 0 3 0;#P connect 15 0 3 0;#P connect 3 0 10 0;#P connect 10 0 7 0;#P connect 13 0 12 0;#P connect 8 0 12 0;#P connect 12 0 5 0;#P connect 14 0 5 0;#P connect 9 0 5 0;#P lcolor 13;#P connect 5 0 10 1;#P pop;#P newobj 14 348 161 1310729 p reson-AB;#B color 6;#P comment 774 396 85 1310729 arg 1 : module name \;;#P connect 18 0 25 0;#P connect 25 0 24 0;#P connect 24 0 37 0;#P fasten 51 0 37 0 69 98 19 98;#P fasten 48 1 1 0 62 297 19 297;#P connect 37 0 1 0;#P connect 1 0 27 0;#P connect 27 0 23 0;#P connect 46 0 47 0;#P connect 47 0 48 0;#P connect 48 0 49 0;#P connect 26 0 27 1;#P connect 28 0 27 1;#P connect 27 0 45 0;#P connect 38 0 37 1;#P connect 39 0 37 1;#P connect 53 0 52 0;#P connect 52 0 51 0;#P fasten 21 0 1 1 93 330 69 330;#P connect 27 1 28 0;#P connect 37 1 38 0;#P connect 50 0 51 1;#P fasten 22 0 1 2 104 292 119 292;#P connect 36 0 6 0;#P connect 6 0 3 0;#P fasten 9 0 1 3 527 343 169 343;#P fasten 7 0 1 3 424 343 169 343;#P fasten 2 0 1 3 243 343 169 343;#P fasten 3 0 1 3 169 343 169 343;#P fasten 4 0 1 3 343 343 169 343;#P connect 33 0 20 0;#P connect 20 0 19 0;#P connect 19 0 17 0;#P connect 17 0 2 0;#P connect 34 0 5 0;#P connect 5 0 4 0;#P connect 35 0 14 0;#P connect 14 0 11 0;#P connect 11 0 12 0;#P connect 12 0 13 0;#P connect 13 0 8 0;#P connect 8 0 7 0;#P connect 16 0 15 0;#P connect 15 0 10 0;#P connect 10 0 9 0;#P fasten 32 0 31 0 681 123 666 123;#P connect 44 0 41 0;#P connect 41 0 43 0;#P connect 43 0 40 0;#P connect 40 0 42 0;#P connect 29 0 32 0;#P connect 32 0 30 0;#P pop;