max v2;#N vpatcher 309 129 1110 533;#P hidden inlet 883 115 15 0;#P window setfont "Sans Serif" 9.;#P comment 0 1153 100 196617;#P button 787 43 15 0;#P window linecount 1;#P comment 805 43 39 196617 delete;#P button 787 23 15 0;#P comment 804 23 31 196617 build;#P hidden newex 811 90 133 196617 editorwindow /reson /tape;#B color 6;#N thispatcher;#Q end;#P hidden newobj 811 120 61 196617 thispatcher;#P hidden newex 787 64 137 196617 t_editlong-builder reson 3 2;#B color 6;#P window linecount 0;#P comment 0 1 100 196617;#P hidden connect 5 0 1 0;#P hidden fasten 2 0 3 0 816 141 955 141 955 86 816 86;#P hidden connect 3 0 2 0;#P hidden connect 1 0 2 0;#P hidden connect 7 0 1 1;#P pop;