max v2;#N vpatcher 211 136 1401 770;#P origin 0 -40;#P setbglock 1;#P window setfont "Sans Serif" 9.;#P window linecount 1;#P message 612 144 58 196617 writeagain;#P window setfont Times 9.;#P newex 612 123 84 1310729 pvar writemodellist;#P comment 467 77 33 1310729 list;#B frgb 0 0 200;#P comment 448 70 50 1310729 write model;#B frgb 0 0 200;#P button 496 72 15 13;#P objectname writemodellist;#P button 51 58 14 13;#P window setfont "Sans Serif" 9.;#P newex 204 249 214 196617 variedit $1/noise $1;#B color 11;#P window setfont Times 9.;#P newex 204 269 50 1310729 pvar noise;#P toggle 26 28 15 0;#P objectname noise;#P comment 19 16 34 1310729 /noise;#B frgb 0 0 200;#P window setfont "Sans Serif" 9.;#P newex 204 199 214 196617 variedit $1/impulse $1;#B color 11;#P window setfont Times 9.;#P newex 204 219 59 1310729 pvar impulse;#P comment 17 46 40 1310729 /impulse;#B frgb 0 0 200;#P flonum 20 58 31 9 0 0 64 20 0 0 0 221 221 221 222 222 222 0 0 0;#P objectname impulse;#P newex 688 223 115 1310729 r $1/amplistB;#B color 11;#P newex 524 223 115 1310729 r $1/amplistA;#B color 11;#P window setfont "Sans Serif" 9.;#P message 529 145 30 196617 open;#P window setfont Times 9.;#P newex 529 124 79 1310729 pvar editmodellist;#P comment 467 59 33 1310729 list;#B frgb 0 0 200;#P comment 452 52 50 1310729 edit model;#B frgb 0 0 200;#P button 496 54 15 15;#P objectname editmodellist;#N coll modreslist 1;#P newobj 529 164 74 1310729 coll modreslist 1;#B color 5;#P bpatcher 50 2 120 18 0 0 t_fxmeterh.mxt 0 $1;#P window setfont "Sans Serif" 9.;#P number 863 539 35 9 0 0 0 3 0 0 0 221 221 221 222 222 222 0 0 0;#P window setfont Times 9.;#P newex 863 519 16 1310729 t i;#P newex 863 478 33 1310729 / 255.;#P newex 863 438 37 1310729 unpack;#P newex 863 499 57 1310729 * 1.;#P window setfont "Sans Serif" 9.;#P number 910 463 35 9 0 0 0 3 0 0 0 221 221 221 222 222 222 0 0 0;#P window setfont Times 9.;#P newex 910 443 153 1310729 r $1/listAlen;#B color 11;#P user lcd 1 168 255 16 0 1 1 0 0;#P objectname mouseposA;#P newex 863 415 80 1310729 pvar mouseposA 2;#P window setfont "Sans Serif" 9.;#P number 863 459 35 9 0 0 0 3 0 0 0 221 221 221 222 222 222 0 0 0;#P user lcd 255 168 255 16 0 1 1 0 0;#P objectname mouseposB;#P message 21 445 87 196617 tellmeeverything;#P window setfont Times 9.;#P newex 21 425 101 1310729 pvar tellmeeverythingB;#P newex 21 463 153 1310729 s $1/listB;#B color 11;#P comment 268 77 32 1310729 infoB;#P button 255 77 13 12;#P objectname tellmeeverythingB;#P window setfont "Sans Serif" 9.;#P message 21 384 87 196617 tellmeeverything;#P window setfont Times 9.;#P newex 21 364 101 1310729 pvar tellmeeverythingA;#P newex 21 402 153 1310729 s $1/listA;#B color 11;#P number 255 90 18 9 0 0 8224 20 0 0 0 221 221 221 222 222 222 0 0 0;#P noclick;#P objectname lengthB1;#P number 1 90 18 9 0 0 8224 20 0 0 0 221 221 221 222 222 222 0 0 0;#P noclick;#P objectname lengthA1;#P comment 14 77 32 1310729 infoA;#P button 1 77 13 12;#P objectname tellmeeverythingA;#P window setfont "Sans Serif" 9.;#P newex 828 235 44 196617 del 100;#P window setfont Times 9.;#P newex 828 281 67 1310729 pvar opentemp;#P newex 828 303 175 1310729 s $1/modres/temp/open;#B color 11;#P newex 828 214 67 1310729 pvar writetemp;#P newex 828 255 175 1310729 s $1/modres/temp/write;#B color 11;#P comment 467 41 33 1310729 model;#B frgb 0 0 200;#P comment 452 33 50 1310729 open temp;#B frgb 0 0 200;#P comment 467 23 33 1310729 model;#B frgb 0 0 200;#P comment 452 16 50 1310729 write new;#B frgb 0 0 200;#P button 496 18 15 2;#P objectname writetemp;#P button 496 36 15 9;#P objectname opentemp;#P comment 318 19 30 1310729 curve;#B frgb 100 100 100;#P window setfont "Sans Serif" 9.;#P newex 204 300 214 196617 variedit $1/invol $1;#B color 11;#P window setfont Times 9.;#P newex 204 320 50 1310729 pvar invol;#P window setfont "Sans Serif" 9.;#P newex 204 351 214 196617 variedit $1/gainscale $1;#B color 11;#P window setfont Times 9.;#P newex 204 371 65 1310729 pvar gainscale;#P window setfont "Sans Serif" 9.;#P newex 204 402 214 196617 variedit $1/trsp $1;#B color 11;#P window setfont Times 9.;#P newex 204 422 44 1310729 pvar trsp;#P window setfont "Sans Serif" 9.;#P newex 204 453 214 196617 variedit $1/ratescale $1;#B color 11;#P window setfont Times 9.;#P newex 204 473 62 1310729 pvar ratescale;#P window setfont "Sans Serif" 9.;#P newex 204 504 214 196617 variedit $1/filter $1;#B color 11;#P window setfont Times 9.;#P newex 204 524 48 1310729 pvar filter;#P comment 71 24 29 1310729 /invol;#B frgb 0 0 200;#P flonum 100 23 34 9 0. 20. 3 20 0 0 0 221 221 221 222 222 222 0 0 0;#P objectname invol;#P comment 135 39 41 1310729 /ratescale;#B frgb 0 0 200;#P flonum 175 38 34 9 0. 999. 3 20 0 0 0 221 221 221 222 222 222 0 0 0;#P objectname ratescale;#P comment 57 39 49 1310729 /gainscale;#B frgb 0 0 200;#P comment 153 24 23 1310729 /trsp;#B frgb 0 0 200;#P comment 148 54 27 1310729 /filter;#B frgb 0 0 200;#P flonum 175 23 34 9 -48. 48. 3 20 0 0 0 221 221 221 222 222 222 0 0 0;#P objectname trsp;#P flonum 100 38 34 9 0. 20. 3 20 0 0 0 221 221 221 222 222 222 0 0 0;#P objectname gainscale;#P number 175 53 34 9 0 127 3 20 0 0 0 221 221 221 222 222 222 0 0 0;#P objectname filter;#P window setfont "Sans Serif" 10.;#P comment 298 38 20 196618 ->;#B frgb 100 100 200;#P window setfont Times 9.;#P newex 708 506 65 1310729 pvar curvedisp;#P newex 987 187 67 1310729 pvar modelsize;#P window setfont Tahoma 9.;#P number 426 37 28 9 0 252 8355 -22912 100 100 100 221 221 221 222 222 222 0 0 0;#P objectname modelsize;#P window setfont Times 9.;#P comment 363 38 63 1310729 unfiltered size;#B frgb 100 100 100;#P window setfont "Sans Serif" 9.;#P newex 987 166 120 196617 r $1/modres/modelsize;#B color 11;#P user multiSlider 314 29 33 33 0. 1. 32 2681 15 0 0 2 0 0 1;#M frgb 0 0 0;#M brgb 255 255 255;#M rgb2 127 127 127;#M rgb3 0 0 0;#M rgb4 37 52 91;#M rgb5 74 105 182;#M rgb6 112 158 18;#M rgb7 149 211 110;#M rgb8 187 9 201;#M rgb9 224 62 37;#M rgb10 7 114 128;#P noclick;#P objectname curvedisp;#P window setfont Times 9.;#P newex 708 486 63 1310729 curve_display;#B color 6;#P comment 175 4 66 1310729 /modres/model;#B frgb 0 0 200;#P newex 987 108 83 1310729 pvar modresmenu 2;#P window setfont "Sans Serif" 9.;#P newex 987 55 62 196617 prepend set;#P newex 987 34 146 196617 r $1/modres/model;#B color 11;#P newex 1004 87 161 196617 r $1/modres/menu;#B color 11;#P newex 987 133 146 196617 s $1/modres/model;#B color 11;#P window setfont Times 9.;#P user ubumenu 238 3 118 1310729 0 1 1 0;#X add;#X prefix_set 0 0 <none> 0;#P objectname modresmenu;#P window setfont "Sans Serif" 10.;#P number 425 50 28 10 0 252 8355 3 100 100 200 221 221 221 222 222 222 0 0 0;#P objectname modressize;#P comment 363 50 64 196618 curent size;#B frgb 100 100 200;#P window setfont Times 9.;#P newex 852 375 71 1310729 pvar modressize;#P window setfont "Sans Serif" 9.;#P newex 852 354 180 196617 r $1/modres/size;#B color 11;#P newex 479 500 208 196617 variedit $1/modres/clip $1;#B color 11;#P window setfont Times 9.;#P newex 479 520 71 1310729 pvar modresclip;#P window setfont "Sans Serif" 9.;#P newex 479 451 218 196617 variedit $1/modres/curve $1;#B color 11;#P window setfont Times 9.;#P newex 479 471 76 1310729 pvar modrescurve;#P window setfont "Sans Serif" 9.;#P newex 479 402 210 196617 variedit $1/modres/amp $1;#B color 11;#P window setfont Times 9.;#P newex 479 422 72 1310729 pvar modresamp;#P comment 210 53 53 1310729 /mdres/clip;#B frgb 0 0 200;#P flonum 269 53 30 9 0. 1. 3 20 0 0 0 221 221 221 222 222 222 0 0 0;#P objectname modresclip;#P comment 210 38 63 1310729 /modres/curve;#B frgb 0 0 200;#P flonum 269 38 30 9 -1. 1. 3 20 0 0 0 221 221 221 222 222 222 0 0 0;#P objectname modrescurve;#P comment 210 24 59 1310729 /modres/amp;#B frgb 0 0 200;#P flonum 269 23 30 9 0. 10. 3 20 0 0 0 221 221 221 222 222 222 0 0 0;#P objectname modresamp;#P number 423 21 28 9 0 168 3 20 0 0 0 221 221 221 222 222 222 0 0 0;#P objectname modresmaxsize;#P comment 351 21 74 1310729 /modres/maxsize;#B frgb 0 0 200;#P window setfont "Sans Serif" 9.;#P newex 479 353 229 196617 variedit $1/modres/maxsize $1;#B color 11;#P window setfont Times 9.;#P newex 479 373 87 1310729 pvar modresmaxsize;#P window setfont "Sans Serif" 9.;#P newex 707 110 41 196617 sel 1 0;#P newex 707 90 27 196617 > 0;#P message 707 148 147 196617 script respondtoclick amplistB;#P message 722 130 131 196617 script ignoreclick amplistB;#P newex 761 63 41 196617 sel 1 0;#P newex 761 43 27 196617 > 0;#P message 761 101 148 196617 script respondtoclick amplistA;#P message 776 83 132 196617 script ignoreclick amplistA;#N thispatcher;#Q end;#P newobj 761 173 61 196617 thispatcher;#P window setfont Times 9.;#P newex 618 94 65 1310729 pvar lengthB2;#P newex 551 94 65 1310729 pvar lengthB1;#P newex 551 72 153 1310729 r $1/listBlen;#B color 11;#P newex 672 47 65 1310729 pvar lengthA2;#P newex 605 47 65 1310729 pvar lengthA1;#P newex 605 25 153 1310729 r $1/listAlen;#B color 11;#P window setfont "Sans Serif" 9.;#P newex 204 555 214 196617 variedit $1/vol $1;#B color 11;#P window setfont Times 9.;#P newex 204 575 42 1310729 pvar vol;#P window setfont Times 18.;#N vpatcher 364 214 639 357;#P origin 0 53;#P window setfont "Sans Serif" 9.;#P window linecount 1;#P hidden newex 126 111 70 196617 bgcolor 0 0 0;#P window linecount 0;#P hidden newex 31 91 169 196617 r $1/more/editor;#B color 11;#N thispatcher;#Q end;#P hidden newobj 31 111 70 196617 thispatcher;#P hidden connect 1 0 0 0;#P pop;#P newobj 92 277 61 1310738 p more;#B color 6;#P window setfont Times 9.;#P comment 334 79 48 1310729 /amplistB;#B frgb 0 0 200;#P comment 80 79 48 1310729 /amplistA;#B frgb 0 0 200;#P newex 673 277 64 1310729 pvar amplistB;#P newex 642 246 40 1310729 t 1 l 0;#P newex 642 297 41 1310729 gate 1 1;#P newex 642 203 153 1310729 r $1/amplistBedit;#B color 11;#P newex 642 317 154 1310729 s $1/amplistB;#B color 11;#P newex 510 277 64 1310729 pvar amplistA;#P newex 479 246 40 1310729 t 1 l 0;#P newex 479 297 41 1310729 gate 1 1;#P newex 479 203 153 1310729 r $1/amplistAedit;#B color 11;#P newex 479 317 154 1310729 s $1/amplistA;#B color 11;#P comment 378 79 63 1310729 filters 84-167;#P comment 124 79 53 1310729 filters 0-83;#P comment 79 54 24 1310729 /vol;#B frgb 0 0 200;#P flonum 100 53 34 9 0. 2. 3 20 0 0 0 221 221 221 222 222 222 0 0 0;#P objectname vol;#P window setfont "Sans Serif" 9.;#P comment 22 210 117 196617 bpat bkgnd = 512 X 186;#P comment 22 229 119 196617 bpat editor = 514 X 188;#P user multiSlider 255 104 255 64 0. 1. 1 2937 47 0 0 2 0 0 1;#M frgb 9 111 255;#M brgb 222 222 222;#M rgb2 127 127 127;#M rgb3 0 0 0;#M rgb4 37 52 91;#M rgb5 74 105 182;#M rgb6 112 158 18;#M rgb7 149 211 110;#M rgb8 187 9 201;#M rgb9 224 62 37;#M rgb10 7 114 128;#P noclick;#P objectname amplistB;#P user multiSlider 273 90 237 14 0. 84. 1 2920 15 0 0 2 0 0 1;#M frgb 0 46 182;#M brgb 222 222 222;#M rgb2 127 127 127;#M rgb3 0 0 0;#M rgb4 37 52 91;#M rgb5 74 105 182;#M rgb6 112 158 18;#M rgb7 149 211 110;#M rgb8 187 9 201;#M rgb9 224 62 37;#M rgb10 7 114 128;#P noclick;#P objectname lengthB2;#P user multiSlider 19 90 237 14 0. 84. 1 2920 15 0 0 2 0 0 1;#M frgb 0 46 182;#M brgb 222 222 222;#M rgb2 127 127 127;#M rgb3 0 0 0;#M rgb4 37 52 91;#M rgb5 74 105 182;#M rgb6 112 158 18;#M rgb7 149 211 110;#M rgb8 187 9 201;#M rgb9 224 62 37;#M rgb10 7 114 128;#P noclick;#P objectname lengthA2;#P user multiSlider 1 104 255 64 0. 1. 64 2937 47 0 0 2 0 0 1;#M frgb 9 111 255;#M brgb 222 222 222;#M rgb2 127 127 127;#M rgb3 0 0 0;#M rgb4 37 52 91;#M rgb5 74 105 182;#M rgb6 112 158 18;#M rgb7 149 211 110;#M rgb8 187 9 201;#M rgb9 224 62 37;#M rgb10 7 114 128;#P noclick;#P objectname amplistA;#P bpatcher 0 0 512 186 0 0 bkgnd32.mxt 0 $1 0 1;#P background;#P objectname background;#P hidden connect 148 0 140 0;#P connect 113 0 114 0;#P connect 114 0 112 0;#P connect 118 0 119 0;#P connect 119 0 117 0;#P fasten 142 0 143 0 209 240 199 240 199 196 209 196;#P connect 143 0 142 0;#P fasten 146 0 147 0 209 290 199 290 199 246 209 246;#P connect 147 0 146 0;#P fasten 94 0 95 0 209 341 199 341 199 297 209 297;#P connect 95 0 94 0;#P fasten 92 0 93 0 209 392 199 392 199 348 209 348;#P connect 93 0 92 0;#P fasten 90 0 91 0 209 443 199 443 199 399 209 399;#P connect 91 0 90 0;#P fasten 88 0 89 0 209 494 199 494 199 450 209 450;#P connect 89 0 88 0;#P fasten 86 0 87 0 209 545 199 545 199 501 209 501;#P connect 87 0 86 0;#P fasten 24 0 25 0 209 596 199 596 199 552 209 552;#P connect 25 0 24 0;#P connect 138 0 14 0;#P connect 12 0 14 0;#P connect 14 2 13 0;#P connect 14 0 13 0;#P connect 13 0 11 0;#P fasten 41 0 42 0 484 394 474 394 474 350 484 350;#P connect 42 0 41 0;#P fasten 51 0 52 0 484 443 474 443 474 399 484 399;#P connect 52 0 51 0;#P fasten 53 0 54 0 484 492 474 492 474 448 484 448;#P connect 54 0 53 0;#P fasten 55 0 56 0 484 541 474 541 474 497 484 497;#P connect 56 0 55 0;#P connect 14 1 15 0;#P connect 15 0 13 1;#P connect 136 0 137 0;#P fasten 153 0 132 0 617 161 534 161;#P connect 137 0 132 0;#P connect 29 0 30 0;#P connect 26 0 27 0;#P connect 152 0 153 0;#P connect 29 0 31 0;#P connect 139 0 19 0;#P connect 17 0 19 0;#P connect 19 0 18 0;#P connect 19 2 18 0;#P connect 18 0 16 0;#P connect 26 0 28 0;#P connect 19 1 20 0;#P connect 20 0 18 1;#P connect 29 0 39 0;#P connect 39 0 40 0;#P connect 40 0 38 0;#P fasten 54 1 68 0 588 477 713 477;#P connect 68 0 74 0;#P connect 40 1 37 0;#P connect 26 0 35 0;#P connect 35 0 36 0;#P connect 36 0 34 0;#P connect 38 0 32 0;#P connect 37 0 32 0;#P connect 34 0 32 0;#P connect 33 0 32 0;#P connect 36 1 33 0;#P connect 104 0 107 0;#P connect 107 0 103 0;#P connect 106 0 105 0;#P connect 57 0 58 0;#P connect 122 1 127 0;#P connect 127 0 121 0;#P connect 121 0 128 0;#P connect 128 0 126 0;#P connect 126 0 129 0;#P connect 129 0 130 0;#P connect 124 0 125 0;#P connect 125 0 126 1;#P connect 64 0 65 0;#P connect 63 0 66 0;#P connect 65 0 66 0;#P fasten 66 1 62 0 1065 128 992 128;#P connect 70 0 73 0;#P pop;