max v2;#N vpatcher 570 84 1182 896;#P origin 0 -1;#P window setfont "Fixedwidth Serif" 10.;#P newex 327 679 112 1441802 scale 0. 1. 0 240;#P newex 194 680 112 1441802 scale 0. 1. 0 320;#P newex 337 656 34 1441802 gate;#P newex 192 656 34 1441802 gate;#P newex 192 723 166 1441802 s $1/deform/anchor/x;#P newex 361 623 82 1441802 r /salomon/y;#P newex 216 623 82 1441802 r /salomon/x;#P newex 375 720 166 1441802 s $1/deform/anchor/y;#P newex 259 144 46 1441802 !- 240;#P window setfont "Sans Serif" 9.;#P window linecount 6;#P message 306 390 236 196617 \; $1/deform/sw/init bang \; $1/deform/size/init bang \; $1/deform/anchor/x/init bang \; $1/deform/anchor/y/init bang \; $1/deform/feedback/init bang \;;#P window setfont "Fixedwidth Serif" 10.;#P window linecount 1;#P newex 306 359 219 1441802 moduleinit $1/deform;#P window setfont "Sans Serif" 9.;#P message 391 263 96 196617 $1/deform;#P window setfont "Fixedwidth Serif" 10.;#P newex 323 545 34 1441802 gate;#P newex 391 285 148 1441802 prepend store $1/deform;#N coll m_jmatrix 1;#P newobj 391 312 106 1441802 coll m_jmatrix 1;#P newex 38 599 100 1441802 s $1/deform/out;#P newex 347 521 106 1441802 r /movie/drawgpu;#P newex 241 219 256 1441802 makeparam $1/deform/size $1 i 100 1 300 1;#P newex 20 98 34 1441802 gate;#P newex 38 575 403 1441802 jit.matrix $1/deform 4 char 20 20 @interp 1;#P newex 259 116 280 1441802 makeparam $1/deform/anchor/y $1 i 120 0 240 1;#P newex 20 452 130 1441802 jit.streak @prob 0.5;#B color 5;#P newex 20 425 148 1441802 jit.matrix 4 char 40 40;#B color 7;#P newex 142 350 38 1441802 r dim;#P message 142 375 62 1441802 dim \$1 \$1;#P newex 20 398 133 1441802 jit.matrix 4 char 4 4;#B color 7;#P newex 45 538 110 1441802 jit.matrix blurry;#P window linecount 2;#P newex 247 489 256 1441802 makeparam $1/deform/feedback $1 f 0.2 0 1 1;#P window linecount 1;#P newex 20 482 199 1441802 jit.op @op max;#P newex 20 349 27 1441802 b;#P newex 20 374 110 1441802 jit.matrix blurry;#P newex 191 47 53 1441802 loadbang;#P newex 259 180 32 1441802 - 30;#P newex 201 180 32 1441802 - 40;#P newex 201 87 280 1441802 makeparam $1/deform/anchor/x $1 i 160 0 320 1;#P newex 45 515 212 1441802 jit.op @op *;#P message 69 296 253 1441802 clear \, dstdimstart \$1 \$3 \, dstdimend \$2 \$4;#P newex 195 244 34 1441802 + 20;#P newex 111 244 34 1441802 + 20;#P newex 69 273 137 1441802 pack 0 0 0 0;#P newex 69 155 27 1441802 b;#P newex 153 216 73 1441802 drunk 180 4;#P newex 69 216 73 1441802 drunk 260 4;#P newex 20 320 143 1441802 jit.matrix @usedstdim 1;#P message 191 68 128 1441802 read fuzz_circle.jpg;#P newex 44 68 106 1441802 r /movie/drawcpu;#P newex 20 127 130 1441802 jit.qt.movie 320 240;#P newex 20 25 184 1441802 makeparam $1/deform/sw $1 t 0;#P connect 0 0 29 0;#P fasten 3 0 1 0 196 122 25 122;#P connect 29 0 1 0;#P connect 1 0 4 0;#P fasten 11 0 4 0 74 316 25 316;#P connect 4 0 18 0;#P connect 18 0 17 0;#P fasten 23 0 22 0 147 395 25 395;#P connect 17 0 22 0;#P connect 22 0 25 0;#P connect 25 0 26 0;#P connect 26 0 19 0;#P connect 19 0 28 0;#P connect 35 0 28 0;#P connect 28 0 32 0;#P connect 2 0 29 1;#P connect 19 0 12 0;#P connect 12 0 21 0;#P fasten 1 0 7 0 25 150 74 150;#P connect 7 0 5 0;#P fasten 14 0 5 0 206 203 74 203;#P connect 5 0 8 0;#P connect 8 0 11 0;#P fasten 5 0 9 0 74 239 116 239;#P connect 9 0 8 1;#P connect 30 0 9 1;#P connect 24 0 23 0;#P fasten 7 1 6 0 91 186 158 186;#P fasten 15 0 6 0 264 209 158 209;#P connect 6 0 8 2;#P connect 16 0 3 0;#P connect 0 0 44 0;#P connect 46 0 43 0;#P connect 44 0 46 0;#P fasten 6 0 10 0 158 239 200 239;#P connect 10 0 8 3;#P connect 13 0 14 0;#P fasten 4 0 19 1 25 343 214 343;#P connect 41 0 44 1;#P connect 30 0 10 1;#P connect 20 0 12 1;#P connect 27 0 39 0;#P connect 39 0 15 0;#P connect 37 0 38 0;#P connect 0 0 35 0;#P connect 45 0 47 0;#P connect 0 0 45 0;#P connect 31 0 35 1;#P connect 42 0 45 1;#P connect 47 0 40 0;#P connect 16 0 36 0;#P connect 36 0 34 0;#P connect 34 0 33 0;#P pop;