max v2;#N vpatcher 428 334 962 659;#P origin -41 -77;#P button 52 29 15 0;#P window setfont "Sans Serif" 9.;#P newex 25 141 51 196617 zl slice 1;#P newex 25 74 54 196617 onebang 1;#P newex 39 207 27 196617 t b i;#P newex 9 161 27 196617 i;#P newex 56 231 152 196617 sprintf send /render.%ld/draw;#P newex 9 185 40 196617 uzi;#P message 25 96 40 196617 render;#N coll m_config 1;#P newobj 25 117 79 196617 coll m_config 1;#P comment 401 87 58 196617 power lfos;#P newex 393 68 99 196617 s /tapemovie/draw;#B color 12;#P inlet 25 25 15 0;#P window setfont "Sans Serif" 12.;#N vpatcher 30 89 358 217;#P window setfont "Sans Serif" 9.;#P newex 173 50 95 196617 r /movie/drawcpu;#P newex 50 50 95 196617 r /movie/drawgpu;#P newex 173 73 77 196617 s movie.Power;#P newex 50 72 109 196617 s movie.OpenGLPower;#P connect 2 0 0 0;#P connect 3 0 1 0;#P pop;#P newobj 277 155 87 196620 p old compat;#B color 6;#P window setfont "Sans Serif" 9.;#P newex 39 258 47 196617 forward;#B color 12;#P newex 301 89 95 196617 s /movie/drawcpu;#B color 12;#P newex 209 121 95 196617 s /movie/drawgpu;#B color 12;#P comment 208 139 136 196617 power OGL objects/modules;#P comment 301 107 115 196617 power cpu render chain;#P newex 25 48 381 196617 t b b b b b;#P connect 16 1 14 0;#P connect 14 0 12 0;#P connect 18 0 0 0;#P connect 7 0 0 0;#P connect 0 0 16 0;#P connect 16 0 11 0;#P connect 11 0 10 0;#P connect 10 0 17 0;#P connect 17 0 14 1;#P connect 12 2 15 0;#P connect 13 0 5 0;#P connect 15 0 5 0;#P connect 15 1 13 0;#P connect 0 2 3 0;#P connect 0 3 4 0;#P connect 0 4 8 0;#P pop;