max v2;#N vpatcher 96 112 633 522;#P origin 0 -1;#P window setfont "Sans Serif" 9.;#P window linecount 1;#P newex 23 364 220 196617 variedit $1/param6 $1;#B color 12;#P newex 23 345 68 196617 pvar param6;#P newex 23 319 220 196617 variedit $1/param5 $1;#B color 12;#P newex 23 300 68 196617 pvar param5;#P window setfont Times 9.;#P number 206 38 30 9 0 10 3 20 0 0 0 221 221 221 222 222 222 0 0 0;#P objectname param6;#P number 206 24 30 9 0 100 3 20 0 0 0 221 221 221 222 222 222 0 0 0;#P objectname param5;#P comment 173 24 38 1310729 param5;#P comment 173 38 38 1310729 param6;#P window setfont "Sans Serif" 9.;#P newex 23 275 220 196617 variedit $1/param4 $1;#B color 12;#P newex 23 256 68 196617 pvar param4;#P window setfont Times 9.;#P comment 30 38 38 1310729 param2;#P flonum 63 38 30 9 2. 10. 3 20 0 0 0 221 221 221 222 222 222 0 0 0;#P objectname param2;#P window setfont "Sans Serif" 9.;#P window linecount 2;#P comment 276 44 124 196617 arg 1 : module name \; arg 2 : show "more" 1/0;#P window setfont "Sans Serif" 18.;#P window linecount 1;#N vpatcher 294 149 795 509;#P window setfont "Sans Serif" 9.;#P newex 147 211 216 196617 variedit $1/param10 $1;#B color 12;#P newex 147 192 74 196617 pvar param10;#P newex 147 167 210 196617 variedit $1/param9 $1;#B color 12;#P newex 147 148 68 196617 pvar param9;#P newex 147 123 210 196617 variedit $1/param8 $1;#B color 12;#P newex 147 104 68 196617 pvar param8;#P newex 147 78 210 196617 variedit $1/param7 $1;#B color 12;#P newex 147 59 68 196617 pvar param7;#P window setfont Times 9.;#P number 55 66 30 9 0 10 3 20 0 0 0 221 221 221 222 222 222 0 0 0;#P objectname param10;#P number 55 52 30 9 0 10 3 20 0 0 0 221 221 221 222 222 222 0 0 0;#P objectname param9;#P comment 19 52 38 1310729 param9;#P comment 19 66 38 1310729 param10;#P number 55 38 30 9 0 10 3 20 0 0 0 221 221 221 222 222 222 0 0 0;#P objectname param8;#P number 55 24 30 9 0 10 3 20 0 0 0 221 221 221 222 222 222 0 0 0;#P objectname param7;#P comment 19 24 38 1310729 param7;#P comment 19 38 38 1310729 param8;#P window setfont "Sans Serif" 9.;#P message 370 171 33 196617 front;#P newex 370 152 112 196617 r $1/moreopen;#B color 11;#N thispatcher;#Q end;#P newobj 370 188 61 196617 thispatcher;#P newex 370 80 60 196617 loadmess 1;#P newex 370 120 57 196617 pvar panel;#P newex 370 100 60 196617 m_swcolor;#B color 5;#P user panel 0 0 105 342;#X brgb 207 123 126;#X frgb 105 45 47;#X border 1;#X rounded 0;#X shadow 1;#X done;#P objectname panel;#P comment 140 256 263 196617 arrange the size and look of this patcher as you please...;#P comment 141 32 136 196617 a variedit and pvar for each;#P fasten 18 0 17 0 152 97 144 97 144 57 152 57;#P connect 17 0 18 0;#P fasten 20 0 19 0 152 142 144 142 144 102 152 102;#P connect 19 0 20 0;#P fasten 22 0 21 0 152 186 144 186 144 146 152 146;#P connect 21 0 22 0;#P fasten 24 0 23 0 152 230 144 230 144 190 152 190;#P connect 23 0 24 0;#P connect 5 0 3 0;#P connect 3 0 4 0;#P connect 7 0 8 0;#P connect 8 0 6 0;#P pop;#P newobj 127 72 72 196626 p more;#B color 6;#P window setfont "Sans Serif" 9.;#P comment 276 27 100 196617 panel = 256 X 62;#P window setfont Times 9.;#P comment 30 24 38 1310729 param1;#P flonum 63 24 30 9 0. 10. 3 20 0 0 0 221 221 221 222 222 222 0 0 0;#P objectname param1;#P number 138 24 33 9 -100 10 3 20 0 0 0 221 221 221 222 222 222 0 0 0;#P objectname param3;#P comment 105 24 38 1310729 param3;#P number 138 38 33 9 0 1 3 20 0 0 0 221 221 221 222 222 222 0 0 0;#P objectname param4;#P window setfont "Sans Serif" 9.;#P newex 23 140 220 196617 variedit $1/param1 $1;#B color 12;#P newex 23 121 68 196617 pvar param1;#P newex 23 185 220 196617 variedit $1/param2 $1;#B color 12;#P newex 23 230 220 196617 variedit $1/param3 $1;#B color 12;#P newex 23 166 68 196617 pvar param2;#P newex 23 211 68 196617 pvar param3;#P comment 276 10 118 196617 <- name = "background";#P comment 252 143 227 196617 variedit [arg1 param name] [arg2 module name];#P window setfont Times 9.;#P comment 105 38 38 1310729 param4;#P bpatcher 0 0 256 62 0 0 bkgnd.mxt 2 $1 1;#N vpatcher 583 194 1167 686;#P origin 0 -5;#P window setfont "Sans Serif" 9.;#P newex 425 406 84 196617 colorchooser 0;#B color 5;#P newex 425 427 57 196617 pvar panel;#P comment 36 74 117 196617 bpat bkgnd = 256 X 62;#P window linecount 4;#P comment 39 227 187 196617 arg 1 : prefix name \; arg 2 : "more" button hide/show (0/1) \; arg 3 : color scheme choice (0 = movie \, 1 = tape \, 2 = camtrk \, 3 = conduite);#P window setfont Times 9.;#P window linecount 1;#P newex 318 55 18 1310729 t b;#P window setfont "Sans Serif" 9.;#P comment 373 27 176 196617 init and module param register write;#P comment 504 441 40 196617 switch;#P comment 480 285 66 196617 temp-preset;#P newex 462 219 79 196617 s $1/moreopen;#B color 11;#P newex 462 136 48 196617 loadbang;#P message 462 159 81 196617 brgb 0 200 180;#P user jsui 236 1 19 15 1 0 0 m_toggle.js off on;#P objectname sw;#P newex 462 197 20 196617 t b;#P newex 462 177 57 196617 pvar more;#P newex 323 148 48 196617 loadbang;#N thispatcher;#Q end;#P newobj 276 212 61 196617 thispatcher;#P message 366 191 84 196617 script hide more;#P message 276 191 89 196617 script show more;#P toggle 276 149 15 0;#P newex 276 167 41 196617 sel 1 0;#P message 292 149 21 196617 1;#P user jsui 23 1 30 15 1 0 0 jsui_textbutton.js more;#P objectname more;#P newex 279 385 50 196617 deferlow;#P window setfont Times 9.;#P newex 318 35 43 1310729 pvar init;#P message 1 1 19 1310729 init;#B color 12;#P objectname init;#P newex 314 253 48 1310729 pvar open;#P newex 414 253 50 1310729 pvar recall;#P newex 364 253 48 1310729 pvar store;#P message 1 32 13 1310729 R;#B color 7;#P objectname recall;#P message 1 18 13 1310729 S;#B color 2;#P objectname store;#P message 1 46 13 1310729 O;#B color 9;#P objectname open;#P window setfont "Sans Serif" 9.;#P window linecount 2;#P message 318 75 114 196617 \; $1/init bang \;;#P window linecount 1;#P message 279 406 142 196617 script sendtoback background;#P newex 358 362 77 196617 t b i;#N comlet bang for "send to back";#P outlet 279 425 15 0;#P newex 473 253 40 196617 r temp;#P window setfont "Sans Serif" 10.;#P comment 120 1 114 196618 $1;#B frgb 255 255 255;#P user panel 123 1 112 16;#X brgb 116 116 116;#X frgb 0 0 0;#X border 0;#X rounded 8;#X shadow 0;#X done;#P window setfont Times 9.;#P newex 314 282 111 1310729 storetemppath $1;#B color 6;#P window setfont "Sans Serif" 9.;#P newex 304 319 52 196617 pvar sw;#P newex 304 339 64 196617 vari $1/sw;#B color 5;#P user hint 2 46 15 60 "open temp preset text (qlist)" 750 100 0 65535 65535 52428 9 3 0 1 0 0 0;#P user hint 2 32 15 47 "recall temp preset" 750 100 0 65535 65535 52428 9 3 0 1 0 0 0;#P user hint 2 18 15 32 "store temp preset" 750 100 0 65535 65535 52428 9 3 0 1 0 0 0;#P user hint 2 1 21 15 "initialize this module" 750 100 0 65535 65535 52428 9 3 0 1 0 0 0;#P comment 274 129 178 196617 more parameters option (arg 2 \, 1/0);#P user panel 270 24 283 100;#X brgb 255 255 255;#X frgb 0 0 0;#X border 1;#X rounded 0;#X shadow 0;#X done;#P user panel 270 245 283 62;#X brgb 255 255 255;#X frgb 0 0 0;#X border 1;#X rounded 0;#X shadow 0;#X done;#P user panel 270 125 283 119;#X brgb 255 255 255;#X frgb 0 0 0;#X border 1;#X rounded 0;#X shadow 0;#X done;#P user panel 270 308 283 153;#X brgb 255 255 255;#X frgb 0 0 0;#X border 1;#X rounded 0;#X shadow 0;#X done;#P user panel 0 0 256 62;#X brgb 244 244 244;#X frgb 194 194 194;#X border 1;#X rounded 4;#X shadow 0;#X done;#P background;#P objectname panel;#P connect 30 0 32 0;#P connect 32 0 31 0;#P connect 31 0 33 0;#P connect 33 0 35 0;#P fasten 34 0 35 0 371 209 281 209;#P fasten 17 0 28 0 363 382 284 382;#P connect 28 0 18 0;#P connect 18 0 16 0;#P fasten 36 0 30 0 328 168 319 168 319 146 297 146;#P fasten 10 0 11 0 309 361 300 361 300 315 309 315;#P connect 11 0 10 0;#P connect 25 0 12 0;#P connect 27 0 46 0;#P connect 46 0 19 0;#P connect 10 1 17 0;#P connect 23 0 12 1;#P connect 15 0 12 1;#P fasten 31 1 34 0 296 187 371 187;#P connect 24 0 12 2;#P connect 17 1 50 0;#P connect 50 0 49 0;#P connect 41 0 40 0;#P connect 40 0 37 0;#P connect 37 0 38 0;#P connect 38 0 42 0;#P pop;#BP pop 0;#P objectname background;#P fasten 9 0 8 0 28 159 20 159 20 119 28 119;#P connect 8 0 9 0;#P fasten 7 0 5 0 28 204 20 204 20 164 28 164;#P connect 5 0 7 0;#P fasten 6 0 4 0 28 249 20 249 20 209 28 209;#P connect 4 0 6 0;#P fasten 21 0 20 0 28 294 20 294 20 254 28 254;#P connect 20 0 21 0;#P fasten 27 0 26 0 28 338 20 338 20 298 28 298;#P connect 26 0 27 0;#P fasten 29 0 28 0 28 383 20 383 20 343 28 343;#P connect 28 0 29 0;#P pop;