max v2;#N vpatcher 32 129 647 528;#P origin 0 -24;#P window setfont Times 9.;#P flonum 318 187 50 9 0 0 0 20 0 0 0 221 221 221 222 222 222 0 0 0;#P flonum 258 187 50 9 0 0 0 20 0 0 0 221 221 221 222 222 222 0 0 0;#P flonum 378 187 50 9 0 0 0 20 0 0 0 221 221 221 222 222 222 0 0 0;#P flonum 438 187 50 9 0 0 0 20 0 0 0 221 221 221 222 222 222 0 0 0;#N comlet R4;#P outlet 438 228 15 0;#N comlet L4;#P outlet 378 228 15 0;#N comlet R3;#P outlet 318 228 15 0;#N comlet L3;#P outlet 258 228 15 0;#N comlet R2;#P outlet 198 228 15 0;#N comlet L2;#P outlet 138 228 15 0;#N comlet R1;#P outlet 78 228 15 0;#P window setfont "Sans Serif" 9.;#P window linecount 1;#P comment 449 212 20 196617 R4;#P comment 389 212 19 196617 L4;#P comment 329 212 20 196617 R3;#P comment 269 212 19 196617 L3;#P comment 209 212 20 196617 R2;#P comment 149 212 19 196617 L2;#P comment 89 212 20 196617 R1;#N comlet L1;#P outlet 18 228 15 0;#P comment 29 212 19 196617 L1;#P window setfont Times 9.;#N vpatcher 642 64 1224 710;#N comlet R4;#P outlet 468 584 15 0;#N comlet L4;#P outlet 407 584 15 0;#N comlet R3;#P outlet 346 584 15 0;#N comlet L3;#P outlet 285 584 15 0;#N comlet R2;#P outlet 224 584 15 0;#N comlet L2;#P outlet 163 584 15 0;#N comlet R1;#P outlet 102 584 15 0;#P window setfont "Sans Serif" 9.;#P window linecount 1;#P comment 479 568 20 196617 R4;#P comment 418 568 19 196617 L4;#P comment 357 568 20 196617 R3;#P comment 296 568 19 196617 L3;#P comment 235 568 20 196617 R2;#P comment 174 568 19 196617 L2;#P comment 113 568 20 196617 R1;#N comlet L1;#P outlet 41 584 15 0;#P comment 52 568 19 196617 L1;#P number 86 384 43 9 0 0 0 3 0 0 0 221 221 221 222 222 222 0 0 0;#P newex 369 168 30 196617 t f 0;#P number 88 360 43 9 0 0 0 3 0 0 0 221 221 221 222 222 222 0 0 0;#P newex 57 359 27 196617 + 0;#P newex 328 197 42 196617 t f 180;#P newex 328 169 37 196617 abs 0.;#P newex 369 61 55 196617 clip -1. 1.;#P newex 328 149 51 196617 gate 2;#P newex 386 122 27 196617 + 1;#P newex 369 81 27 196617 t f f;#P newex 386 101 33 196617 >= 0.;#P flonum 369 43 35 9 0 0 0 3 0 0 0 221 221 221 222 222 222 0 0 0;#P window linecount 0;#P message 149 214 98 196617 define loudspeakers;#P newex 149 234 48 196617 print $2;#P newex 57 302 34 196617 + 0.5;#P flonum 468 538 50 9 0 0 0 3 0 0 0 221 221 221 222 222 222 0 0 0;#P flonum 407 538 50 9 0 0 0 3 0 0 0 221 221 221 222 222 222 0 0 0;#P flonum 346 538 50 9 0 0 0 3 0 0 0 221 221 221 222 222 222 0 0 0;#P flonum 285 538 50 9 0 0 0 3 0 0 0 221 221 221 222 222 222 0 0 0;#P flonum 224 538 50 9 0 0 0 3 0 0 0 221 221 221 222 222 222 0 0 0;#P flonum 163 538 50 9 0 0 0 3 0 0 0 221 221 221 222 222 222 0 0 0;#P flonum 102 538 50 9 0 0 0 3 0 0 0 221 221 221 222 222 222 0 0 0;#P flonum 41 538 50 9 0 0 0 3 0 0 0 221 221 221 222 222 222 0 0 0;#P comment 384 26 47 196617 distance;#P newex 57 383 27 196617 t b i;#P newex 13 403 20 196617 t b;#P newex 41 218 48 196617 loadbang;#P newex 214 298 40 196617 t b 0 f;#P number 121 402 35 9 0 100 3 3 0 0 0 221 221 221 222 222 222 0 0 0;#P newex 358 319 30 196617 !- 1.;#P newex 358 359 34 196617 + 0.5;#P newex 358 339 41 196617 * 100.;#P newex 328 298 40 196617 t b 1 f;#P newex 328 264 54 196617 split 0. 1.;#P newex 41 518 503 196617 route 0 1 2 3 4 5 6 7;#P comment 256 461 77 196617 actual distance;#P flonum 215 460 35 9 0 0 0 3 0 0 0 221 221 221 222 222 222 0 0 0;#P flonum 244 402 35 9 1. 0 1 3 0 0 0 221 221 221 222 222 222 0 0 0;#P number 161 459 35 9 0 0 0 3 0 0 0 221 221 221 222 222 222 0 0 0;#P comment 119 479 21 196617 ele;#P comment 68 479 21 196617 azi;#P button 41 239 15 0;#P window linecount 1;#P newex 41 259 274 196617 define_loudspeakers 2 23 -23 68 -68 112 -112 158 -158;#P number 57 324 43 9 0 0 0 3 0 0 0 221 221 221 222 222 222 0 0 0;#P number 109 459 44 9 0 0 0 3 0 0 0 221 221 221 222 222 222 0 0 0;#P number 58 459 43 9 0 0 0 3 0 0 0 221 221 221 222 222 222 0 0 0;#P window linecount 0;#P newex 41 429 78 196617 rvbap 0 0 1.;#P comment 99 325 32 196617 azi;#P comment 50 492 116 196617 actual panning direction;#P comment 157 402 57 196617 spreading;#P comment 160 479 83 196617 actual spreading;#P comment 280 402 47 196617 distance;#P inlet 369 25 15 0;#P inlet 57 282 15 0;#P connect 11 0 28 0;#P connect 27 0 12 0;#P connect 12 0 11 0;#P connect 11 0 7 0;#P connect 21 0 7 0;#P connect 29 0 7 0;#P connect 28 0 7 0;#P connect 7 0 19 0;#P connect 19 0 31 0;#P connect 31 0 55 0;#P connect 0 0 39 0;#P connect 39 0 10 0;#P connect 26 0 50 0;#P connect 10 0 50 0;#P connect 21 0 50 0;#P connect 50 0 29 0;#P connect 29 1 7 1;#P connect 7 1 8 0;#P connect 51 0 50 1;#P connect 29 1 53 0;#P connect 49 1 51 0;#P connect 52 1 51 0;#P connect 25 0 7 3;#P connect 19 1 32 0;#P connect 32 0 63 0;#P connect 16 0 7 4;#P connect 7 2 9 0;#P connect 26 1 25 0;#P connect 23 0 25 0;#P connect 12 0 41 0;#P connect 41 0 40 0;#P connect 7 3 15 0;#P connect 19 2 33 0;#P connect 33 0 64 0;#P connect 20 1 26 0;#P connect 7 4 17 0;#P connect 19 3 34 0;#P connect 34 0 65 0;#P connect 21 1 16 0;#P connect 26 2 16 0;#P connect 19 4 35 0;#P connect 35 0 66 0;#P connect 45 0 46 0;#P connect 46 0 48 0;#P connect 48 0 49 0;#P connect 49 0 20 0;#P connect 52 0 20 0;#P connect 20 0 21 0;#P connect 19 5 36 0;#P connect 36 0 67 0;#P connect 21 2 24 0;#P connect 24 0 22 0;#P connect 22 0 23 0;#P connect 1 0 42 0;#P connect 42 0 47 0;#P connect 47 0 44 0;#P connect 44 0 46 1;#P connect 46 1 52 0;#P connect 44 1 43 0;#P connect 43 0 45 0;#P connect 19 6 37 0;#P connect 37 0 68 0;#P connect 19 7 38 0;#P connect 38 0 69 0;#P pop;#P newobj 18 88 341 1310729 p rvbap8;#B color 6;#P window setfont Times 24.;#P window linecount 2;#P comment 247 318 135 1310744 based on vbap (rvbap);#B frgb 255 0 0;#N comlet rev;#P outlet 498 225 15 0;#P window setfont "Sans Serif" 9.;#P window linecount 1;#P comment 514 201 24 196617 rev;#P window setfont Times 9.;#P flonum 498 187 50 9 0 0 0 20 0 0 0 221 221 221 222 222 222 0 0 0;#N vpatcher 55 348 735 583;#P outlet 382 187 15 0;#P inlet 382 43 15 0;#P window setfont Times 9.;#P window linecount 1;#P newex 382 155 45 1310729 * 0.;#P outlet 332 187 15 0;#P inlet 332 43 15 0;#P newex 332 155 45 1310729 * 0.;#P outlet 282 187 15 0;#P inlet 282 43 15 0;#P newex 282 155 45 1310729 * 0.;#P outlet 232 187 15 0;#P inlet 232 43 15 0;#P newex 232 155 45 1310729 * 0.;#P outlet 483 187 15 0;#P inlet 483 43 15 0;#P newex 483 155 45 1310729 * 0.;#P window linecount 0;#P newex 518 56 114 1310729 t b f;#N comlet ctl;#P inlet 518 31 15 0;#P outlet 182 187 15 0;#P inlet 182 43 15 0;#P newex 182 155 45 1310729 * 0.;#P outlet 132 187 15 0;#P inlet 132 43 15 0;#P newex 132 155 45 1310729 * 0.;#P outlet 82 187 15 0;#P inlet 82 43 15 0;#P newex 82 155 45 1310729 * 0.;#P outlet 32 187 15 0;#P inlet 32 43 15 0;#P newex 32 155 45 1310729 * 0.;#P connect 13 0 0 0;#P lcolor 7;#P connect 1 0 0 0;#P connect 0 0 2 0;#P connect 13 1 0 1;#P lcolor 4;#P connect 13 0 3 0;#P lcolor 7;#P connect 4 0 3 0;#P connect 3 0 5 0;#P connect 13 1 3 1;#P lcolor 4;#P connect 13 0 6 0;#P lcolor 7;#P connect 7 0 6 0;#P connect 6 0 8 0;#P connect 13 1 6 1;#P lcolor 4;#P connect 13 0 9 0;#P lcolor 7;#P connect 10 0 9 0;#P connect 9 0 11 0;#P connect 13 1 9 1;#P lcolor 4;#P connect 13 0 17 0;#P lcolor 7;#P connect 18 0 17 0;#P connect 17 0 19 0;#P connect 13 1 17 1;#P lcolor 4;#P connect 13 0 20 0;#P lcolor 7;#P connect 21 0 20 0;#P connect 20 0 22 0;#P connect 13 1 20 1;#P lcolor 4;#P connect 13 0 23 0;#P lcolor 7;#P connect 24 0 23 0;#P connect 23 0 25 0;#P connect 13 1 23 1;#P lcolor 4;#P connect 13 0 26 0;#P lcolor 7;#P connect 27 0 26 0;#P connect 26 0 28 0;#P connect 13 1 26 1;#P lcolor 4;#P connect 15 0 14 0;#P connect 13 0 14 0;#P lcolor 7;#P connect 14 0 16 0;#P connect 12 0 13 0;#P connect 13 1 14 1;#P lcolor 4;#P pop;#P newobj 18 153 497 1310729 p level;#B color 6;#P flonum 78 187 50 9 0 0 0 20 0 0 0 221 221 221 222 222 222 0 0 0;#P flonum 18 187 50 9 0 0 0 20 0 0 0 221 221 221 222 222 222 0 0 0;#P flonum 138 187 50 9 0 0 0 20 0 0 0 221 221 221 222 222 222 0 0 0;#P flonum 198 187 50 9 0 0 0 20 0 0 0 221 221 221 222 222 222 0 0 0;#P window setfont "Sans Serif" 9.;#P window linecount 2;#P comment 114 324 107 196617 patch by Tom Mays contact@tommays.net;#P window setfont Times 24.;#P window linecount 1;#P comment 109 263 127 1310744 mspat8ctl;#P window setfont "Sans Serif" 9.;#P comment 68 299 213 196617 arg 1 : azimuth ofset in degrees (default = 0);#P window setfont Times 9.;#P comment 520 23 67 1310729 output level;#N comlet linear output level (amp);#P inlet 504 23 15 0;#P flonum 504 48 38 9 0 0 0 20 0 0 0 221 221 221 222 222 222 0 0 0;#P comment 410 23 43 1310729 presence;#N comlet presence;#P inlet 394 23 15 0;#P flonum 394 48 35 9 0. 1. 3 20 0 0 0 221 221 221 222 222 222 0 0 0;#P comment 33 23 16 1310729 az;#N comlet az;#P inlet 18 23 15 0;#P comment 365 23 22 1310729 dist;#N comlet dist;#P inlet 349 23 15 0;#N vpatcher 41 54 617 263;#P outlet 384 162 15 0;#P inlet 384 43 15 0;#P window setfont Times 9.;#P window linecount 1;#P newex 384 130 45 1310729 * 0.;#P outlet 334 162 15 0;#P inlet 334 43 15 0;#P newex 334 130 45 1310729 * 0.;#P outlet 284 162 15 0;#P inlet 284 43 15 0;#P newex 284 130 45 1310729 * 0.;#P outlet 234 162 15 0;#P inlet 234 43 15 0;#P newex 234 130 45 1310729 * 0.;#P window linecount 0;#P newex 444 71 92 1310729 t b f;#P inlet 444 43 15 0;#P outlet 182 162 15 0;#P inlet 182 43 15 0;#P newex 182 130 45 1310729 * 0.;#P outlet 132 162 15 0;#P inlet 132 43 15 0;#P newex 132 130 45 1310729 * 0.;#P outlet 82 162 15 0;#P inlet 82 43 15 0;#P newex 82 130 45 1310729 * 0.;#P outlet 32 162 15 0;#P inlet 32 43 15 0;#P newex 32 130 45 1310729 * 0.;#P connect 13 0 0 0;#P lcolor 7;#P connect 1 0 0 0;#P connect 0 0 2 0;#P connect 13 1 0 1;#P lcolor 4;#P connect 13 0 3 0;#P lcolor 7;#P connect 4 0 3 0;#P connect 3 0 5 0;#P connect 13 1 3 1;#P lcolor 4;#P connect 13 0 6 0;#P lcolor 7;#P connect 7 0 6 0;#P connect 6 0 8 0;#P connect 13 1 6 1;#P lcolor 4;#P connect 13 0 9 0;#P lcolor 7;#P connect 10 0 9 0;#P connect 9 0 11 0;#P connect 13 1 9 1;#P lcolor 4;#P connect 13 0 14 0;#P lcolor 7;#P connect 15 0 14 0;#P connect 14 0 16 0;#P connect 13 1 14 1;#P lcolor 4;#P connect 13 0 17 0;#P lcolor 7;#P connect 18 0 17 0;#P connect 17 0 19 0;#P connect 13 1 17 1;#P lcolor 4;#P connect 13 0 20 0;#P lcolor 7;#P connect 21 0 20 0;#P connect 20 0 22 0;#P connect 13 1 20 1;#P lcolor 4;#P connect 24 0 23 0;#P connect 13 0 23 0;#P lcolor 7;#P connect 23 0 25 0;#P connect 13 1 23 1;#P lcolor 4;#P connect 12 0 13 0;#P pop;#P newobj 18 122 388 1310729 p vol;#B color 6;#P flonum 394 97 35 9 0 0 0 20 0 0 0 221 221 221 222 222 222 0 0 0;#P newex 394 72 51 1310729 t_presence;#B color 6;#P window setfont "Sans Serif" 9.;#P number 18 48 43 9 0 0 0 3 0 0 0 221 221 221 222 222 222 0 0 0;#P window setfont Times 9.;#P flonum 349 48 35 9 0 0 0 20 0 0 0 221 221 221 222 222 222 0 0 0;#P connect 7 0 1 0;#P connect 1 0 27 0;#P connect 27 0 4 0;#P connect 4 0 22 0;#P connect 22 0 20 0;#P connect 20 0 29 0;#P connect 27 1 4 1;#P connect 4 1 22 1;#P connect 22 1 21 0;#P connect 21 0 37 0;#P connect 27 2 4 2;#P connect 4 2 22 2;#P connect 22 2 19 0;#P connect 19 0 38 0;#P connect 27 3 4 3;#P connect 4 3 22 3;#P connect 22 3 18 0;#P connect 18 0 39 0;#P connect 27 4 4 4;#P connect 4 4 22 4;#P connect 27 5 4 5;#P connect 22 4 46 0;#P connect 46 0 40 0;#P connect 4 5 22 5;#P connect 27 6 4 6;#P connect 22 5 47 0;#P connect 47 0 41 0;#P connect 4 6 22 6;#P connect 27 7 4 7;#P connect 5 0 0 0;#P connect 0 0 27 1;#P connect 22 6 45 0;#P connect 45 0 42 0;#P connect 10 0 9 0;#P connect 9 0 2 0;#P connect 2 0 3 0;#P connect 3 0 4 8;#P connect 4 7 22 7;#P connect 22 7 44 0;#P connect 44 0 43 0;#P fasten 2 1 22 8 440 121 455 121;#P connect 22 8 23 0;#P connect 23 0 25 0;#P connect 13 0 12 0;#P connect 12 0 22 9;#P pop;