max v2;#N vpatcher 32 129 647 528;#P origin 0 -24;#N comlet R4;#P outlet 438 231 15 0;#N comlet L4;#P outlet 378 231 15 0;#N comlet R3;#P outlet 318 231 15 0;#N comlet L3;#P outlet 258 231 15 0;#N comlet R2;#P outlet 198 231 15 0;#N comlet L2;#P outlet 138 231 15 0;#N comlet R1;#P outlet 78 231 15 0;#P window setfont "Sans Serif" 9.;#P window linecount 1;#P comment 449 215 20 196617 R4;#P comment 389 215 19 196617 L4;#P comment 329 215 20 196617 R3;#P comment 269 215 19 196617 L3;#P comment 209 215 20 196617 R2;#P comment 149 215 19 196617 L2;#P comment 89 215 20 196617 R1;#N comlet L1;#P outlet 18 231 15 0;#P comment 29 215 19 196617 L1;#P comment 371 267 101 196617 no output level input;#P window setfont Times 9.;#P flonum 318 187 50 9 0 0 0 20 0 0 0 221 221 221 222 222 222 0 0 0;#P flonum 258 187 50 9 0 0 0 20 0 0 0 221 221 221 222 222 222 0 0 0;#P flonum 378 187 50 9 0 0 0 20 0 0 0 221 221 221 222 222 222 0 0 0;#P flonum 438 187 50 9 0 0 0 20 0 0 0 221 221 221 222 222 222 0 0 0;#N vpatcher 642 64 1224 689;#P button 29 363 15 0;#P window setfont "Sans Serif" 9.;#P number 86 384 43 9 0 0 0 3 0 0 0 221 221 221 222 222 222 0 0 0;#P window linecount 1;#P newex 351 168 30 196617 t f 0;#P number 88 360 43 9 0 0 0 3 0 0 0 221 221 221 222 222 222 0 0 0;#P newex 57 359 27 196617 + 0;#P newex 310 197 42 196617 t f 180;#P newex 310 169 37 196617 abs 0.;#P newex 351 61 55 196617 clip -1. 1.;#P newex 310 149 51 196617 gate 2;#P newex 368 122 27 196617 + 1;#P newex 351 81 27 196617 t f f;#P newex 368 101 33 196617 >= 0.;#P flonum 351 43 35 9 0 0 0 3 0 0 0 221 221 221 222 222 222 0 0 0;#P window linecount 0;#P message 149 214 98 196617 define loudspeakers;#P newex 149 234 48 196617 print $2;#N comlet sp8 -135;#P outlet 468 571 15 0;#N comlet sp7 -90;#P outlet 407 571 15 0;#N comlet sp6 -45;#P outlet 346 571 15 0;#N comlet sp5 180;#P outlet 285 571 15 0;#N comlet sp4 135;#P outlet 224 571 15 0;#N comlet sp3 90;#P outlet 163 571 15 0;#N comlet sp2 45;#P outlet 102 571 15 0;#P comment 479 555 52 196617 sp8 -135;#P comment 418 555 46 196617 sp7 -90;#P comment 357 555 46 196617 sp6 -45;#P comment 296 555 47 196617 sp5 180;#P comment 235 555 47 196617 sp4 135;#P comment 174 555 41 196617 sp3 90;#P comment 113 555 41 196617 sp2 45;#P newex 57 302 34 196617 + 0.5;#P flonum 468 538 50 9 0 0 0 3 0 0 0 221 221 221 222 222 222 0 0 0;#P flonum 407 538 50 9 0 0 0 3 0 0 0 221 221 221 222 222 222 0 0 0;#P flonum 346 538 50 9 0 0 0 3 0 0 0 221 221 221 222 222 222 0 0 0;#P flonum 285 538 50 9 0 0 0 3 0 0 0 221 221 221 222 222 222 0 0 0;#P flonum 224 538 50 9 0 0 0 3 0 0 0 221 221 221 222 222 222 0 0 0;#P flonum 163 538 50 9 0 0 0 3 0 0 0 221 221 221 222 222 222 0 0 0;#P flonum 102 538 50 9 0 0 0 3 0 0 0 221 221 221 222 222 222 0 0 0;#P flonum 41 538 50 9 0 0 0 3 0 0 0 221 221 221 222 222 222 0 0 0;#P comment 366 26 47 196617 distance;#P newex 57 383 27 196617 t b i;#P newex 13 403 20 196617 t b;#P newex 41 218 48 196617 loadbang;#P newex 214 298 40 196617 t b 0 f;#P number 121 402 35 9 0 100 3 3 0 0 0 221 221 221 222 222 222 0 0 0;#P newex 340 319 30 196617 !- 1.;#P newex 340 359 34 196617 + 0.5;#P newex 340 339 41 196617 * 100.;#P newex 310 298 40 196617 t b 1 f;#P newex 310 264 54 196617 split 0. 1.;#P newex 41 518 503 196617 route 0 1 2 3 4 5 6 7;#P comment 256 461 77 196617 actual distance;#P flonum 215 460 35 9 0 0 0 3 0 0 0 221 221 221 222 222 222 0 0 0;#P flonum 244 402 35 9 1. 0 1 3 0 0 0 221 221 221 222 222 222 0 0 0;#P number 161 459 35 9 0 0 0 3 0 0 0 221 221 221 222 222 222 0 0 0;#P comment 119 479 21 196617 ele;#P comment 68 479 21 196617 azi;#P button 41 239 15 0;#P newex 41 259 257 196617 define_loudspeakers 2 0 45 90 135 180 -135 -90 -45;#P number 57 324 43 9 0 0 0 3 0 0 0 221 221 221 222 222 222 0 0 0;#P number 109 459 44 9 0 0 0 3 0 0 0 221 221 221 222 222 222 0 0 0;#P number 58 459 43 9 0 0 0 3 0 0 0 221 221 221 222 222 222 0 0 0;#P newex 41 429 78 196617 rvbap 0 0 1.;#P comment 99 325 32 196617 azi;#P comment 50 492 116 196617 actual panning direction;#P comment 157 402 57 196617 spreading;#P comment 160 479 83 196617 actual spreading;#P comment 280 402 47 196617 distance;#P inlet 351 25 15 0;#N comlet sp1 0;#P outlet 41 571 15 0;#P inlet 57 282 15 0;#P comment 52 555 35 196617 sp1 0;#P connect 13 0 30 0;#P connect 12 0 70 0;#P connect 29 0 14 0;#P connect 14 0 13 0;#P connect 23 0 9 0;#P connect 31 0 9 0;#P connect 30 0 9 0;#P connect 13 0 9 0;#P connect 9 0 21 0;#P connect 21 0 33 0;#P connect 33 0 2 0;#P connect 1 0 41 0;#P connect 41 0 12 0;#P connect 28 0 66 0;#P connect 12 0 66 0;#P connect 23 0 66 0;#P connect 66 0 31 0;#P connect 31 1 9 1;#P connect 9 1 10 0;#P connect 67 0 66 1;#P connect 31 1 69 0;#P connect 65 1 67 0;#P connect 68 1 67 0;#P connect 27 0 9 3;#P connect 21 1 34 0;#P connect 34 0 49 0;#P connect 18 0 9 4;#P connect 9 2 11 0;#P connect 28 1 27 0;#P connect 25 0 27 0;#P connect 14 0 57 0;#P connect 57 0 56 0;#P connect 9 3 17 0;#P connect 21 2 35 0;#P connect 35 0 50 0;#P connect 22 1 28 0;#P connect 9 4 19 0;#P connect 21 3 36 0;#P connect 36 0 51 0;#P connect 23 1 18 0;#P connect 28 2 18 0;#P connect 21 4 37 0;#P connect 37 0 52 0;#P connect 61 0 62 0;#P connect 62 0 64 0;#P connect 64 0 65 0;#P connect 65 0 22 0;#P connect 68 0 22 0;#P connect 22 0 23 0;#P connect 23 2 26 0;#P connect 26 0 24 0;#P connect 24 0 25 0;#P connect 21 5 38 0;#P connect 38 0 53 0;#P connect 3 0 58 0;#P connect 58 0 63 0;#P connect 63 0 60 0;#P connect 60 0 62 1;#P connect 62 1 68 0;#P connect 60 1 59 0;#P connect 59 0 61 0;#P connect 21 6 39 0;#P connect 39 0 54 0;#P connect 21 7 40 0;#P connect 40 0 55 0;#P pop;#P newobj 18 88 341 1310729 p rvbap8;#B color 6;#P window setfont Times 24.;#P window linecount 2;#P comment 247 318 135 1310744 based on vbap (rvbap);#B frgb 255 0 0;#N comlet rev;#P outlet 498 225 15 0;#P window setfont "Sans Serif" 9.;#P window linecount 1;#P comment 514 201 24 196617 rev;#P window setfont Times 9.;#P flonum 498 187 50 9 0 0 0 20 0 0 0 221 221 221 222 222 222 0 0 0;#P flonum 78 187 50 9 0 0 0 20 0 0 0 221 221 221 222 222 222 0 0 0;#P flonum 18 187 50 9 0 0 0 20 0 0 0 221 221 221 222 222 222 0 0 0;#P flonum 138 187 50 9 0 0 0 20 0 0 0 221 221 221 222 222 222 0 0 0;#P flonum 198 187 50 9 0 0 0 20 0 0 0 221 221 221 222 222 222 0 0 0;#P window setfont "Sans Serif" 9.;#P window linecount 2;#P comment 114 324 107 196617 patch by Tom Mays contact@tommays.net;#P window setfont Times 24.;#P window linecount 1;#P comment 109 263 127 1310744 mspat8ctl;#P window setfont "Sans Serif" 9.;#P comment 68 299 213 196617 arg 1 : azimuth ofset in degrees (default = 0);#P window setfont Times 9.;#P comment 410 23 43 1310729 presence;#N comlet presence;#P inlet 394 23 15 0;#P flonum 394 48 35 9 0. 1. 3 20 0 0 0 221 221 221 222 222 222 0 0 0;#P comment 33 23 16 1310729 az;#N comlet az;#P inlet 18 23 15 0;#P comment 365 23 22 1310729 dist;#N comlet dist;#P inlet 349 23 15 0;#N vpatcher 41 54 617 263;#P outlet 384 162 15 0;#P inlet 384 43 15 0;#P window setfont Times 9.;#P window linecount 1;#P newex 384 130 45 1310729 * 0.;#P outlet 334 162 15 0;#P inlet 334 43 15 0;#P newex 334 130 45 1310729 * 0.;#P outlet 284 162 15 0;#P inlet 284 43 15 0;#P newex 284 130 45 1310729 * 0.;#P outlet 234 162 15 0;#P inlet 234 43 15 0;#P newex 234 130 45 1310729 * 0.;#P window linecount 0;#P newex 444 71 92 1310729 t b f;#P inlet 444 43 15 0;#P outlet 182 162 15 0;#P inlet 182 43 15 0;#P newex 182 130 45 1310729 * 0.;#P outlet 132 162 15 0;#P inlet 132 43 15 0;#P newex 132 130 45 1310729 * 0.;#P outlet 82 162 15 0;#P inlet 82 43 15 0;#P newex 82 130 45 1310729 * 0.;#P outlet 32 162 15 0;#P inlet 32 43 15 0;#P newex 32 130 45 1310729 * 0.;#P connect 13 0 0 0;#P lcolor 7;#P connect 1 0 0 0;#P connect 0 0 2 0;#P connect 13 1 0 1;#P lcolor 4;#P connect 13 0 3 0;#P lcolor 7;#P connect 4 0 3 0;#P connect 3 0 5 0;#P connect 13 1 3 1;#P lcolor 4;#P connect 13 0 6 0;#P lcolor 7;#P connect 7 0 6 0;#P connect 6 0 8 0;#P connect 13 1 6 1;#P lcolor 4;#P connect 13 0 9 0;#P lcolor 7;#P connect 10 0 9 0;#P connect 9 0 11 0;#P connect 13 1 9 1;#P lcolor 4;#P connect 13 0 14 0;#P lcolor 7;#P connect 15 0 14 0;#P connect 14 0 16 0;#P connect 13 1 14 1;#P lcolor 4;#P connect 13 0 17 0;#P lcolor 7;#P connect 18 0 17 0;#P connect 17 0 19 0;#P connect 13 1 17 1;#P lcolor 4;#P connect 13 0 20 0;#P lcolor 7;#P connect 21 0 20 0;#P connect 20 0 22 0;#P connect 13 1 20 1;#P lcolor 4;#P connect 13 0 23 0;#P lcolor 7;#P connect 24 0 23 0;#P connect 23 0 25 0;#P connect 13 1 23 1;#P lcolor 4;#P connect 12 0 13 0;#P pop;#P newobj 18 122 388 1310729 p vol;#B color 6;#P flonum 394 97 35 9 0 0 0 20 0 0 0 221 221 221 222 222 222 0 0 0;#P newex 394 72 51 1310729 t_presence;#B color 6;#P window setfont "Sans Serif" 9.;#P number 18 48 43 9 0 0 0 3 0 0 0 221 221 221 222 222 222 0 0 0;#P window setfont Times 9.;#P flonum 349 48 35 9 0 0 0 20 0 0 0 221 221 221 222 222 222 0 0 0;#P connect 7 0 1 0;#P connect 1 0 23 0;#P connect 23 0 4 0;#P connect 4 0 17 0;#P connect 17 0 30 0;#P connect 23 1 4 1;#P connect 4 1 18 0;#P connect 18 0 38 0;#P connect 23 2 4 2;#P connect 4 2 16 0;#P connect 16 0 39 0;#P connect 23 3 4 3;#P connect 4 3 15 0;#P connect 15 0 40 0;#P connect 23 4 4 4;#P connect 23 5 4 5;#P connect 4 4 26 0;#P connect 26 0 41 0;#P connect 23 6 4 6;#P connect 4 5 27 0;#P connect 27 0 42 0;#P connect 23 7 4 7;#P connect 5 0 0 0;#P connect 0 0 23 1;#P connect 4 6 25 0;#P connect 25 0 43 0;#P connect 10 0 9 0;#P connect 9 0 2 0;#P connect 2 0 3 0;#P connect 3 0 4 8;#P connect 4 7 24 0;#P connect 24 0 44 0;#P connect 2 1 19 0;#P connect 19 0 21 0;#P pop;