max v2;#N vpatcher 2 379 636 571;#N comlet R4;#P inlet 439 27 15 0;#P window setfont "Sans Serif" 9.;#P comment 449 65 52 196617 R4;#P comment 390 65 46 196617 L4;#P comment 331 64 46 196617 R3;#P comment 270 65 47 196617 L3;#P comment 210 65 47 196617 R2;#P comment 151 65 41 196617 L2;#P comment 93 65 41 196617 R1;#P comment 35 64 35 196617 L1;#P window setfont Times 9.;#P newex 439 47 59 1310729 prepend $1 7;#P newex 379 47 59 1310729 prepend $1 6;#P newex 319 47 59 1310729 prepend $1 5;#P newex 259 47 59 1310729 prepend $1 4;#N comlet L4;#P inlet 379 27 15 0;#N comlet R3;#P inlet 319 27 15 0;#N comlet L3;#P inlet 259 27 15 0;#P comment 582 90 25 1310729 time;#P window setfont "Sans Serif" 9.;#P newex 19 116 69 196617 pack 0 0 0. 0;#P window setfont Times 9.;#P newex 500 47 59 1310729 prepend $1 8;#P window setfont "Sans Serif" 9.;#P comment 520 64 24 196617 rev;#P window setfont Times 9.;#P newex 199 47 59 1310729 prepend $1 3;#P newex 139 47 59 1310729 prepend $1 2;#P newex 79 47 59 1310729 prepend $1 1;#P newex 19 47 59 1310729 prepend $1 0;#P window setfont "Sans Serif" 9.;#P comment 117 120 237 196617 arg 1 : input number for local matrix (default = 0);#N comlet rev;#P inlet 500 27 15 0;#N comlet R2;#P inlet 199 27 15 0;#N comlet L2;#P inlet 139 27 15 0;#N comlet R1;#P inlet 79 27 15 0;#N comlet time;#P inlet 567 87 15 0;#N comlet L1;#P inlet 19 27 15 0;#P outlet 19 138 15 0;#P window setfont "Sans Serif" 18.;#P comment 149 139 159 196626 tolocalmatrix8;#P connect 2 0 9 0;#P fasten 12 0 15 0 204 94 24 94;#P fasten 11 0 15 0 144 94 24 94;#P fasten 10 0 15 0 84 94 24 94;#P connect 9 0 15 0;#P fasten 14 0 15 0 505 94 24 94;#P fasten 23 0 15 0 444 94 24 94;#P fasten 22 0 15 0 384 94 24 94;#P fasten 21 0 15 0 324 94 24 94;#P fasten 20 0 15 0 264 94 24 94;#P connect 15 0 1 0;#P fasten 3 0 15 3 572 110 81 110;#P connect 4 0 10 0;#P connect 5 0 11 0;#P connect 6 0 12 0;#P connect 17 0 20 0;#P connect 18 0 21 0;#P connect 19 0 22 0;#P connect 32 0 23 0;#P connect 7 0 14 0;#P pop;