max v2;#N vpatcher 25 159 662 435;#P origin 0 -2;#N comlet R4;#P inlet 174 35 15 0;#N comlet L4;#P inlet 152 35 15 0;#N comlet R3;#P inlet 130 35 15 0;#N comlet L3;#P inlet 108 35 15 0;#N comlet R2;#P inlet 86 35 15 0;#N comlet L2;#P inlet 64 35 15 0;#N comlet R1;#P inlet 42 35 15 0;#N comlet L1;#P inlet 20 35 15 0;#P window setfont "Sans Serif" 9.;#P window linecount 2;#P comment 416 207 107 196617 patch by Tom Mays contact@tommays.net;#N comlet central matrix connections list;#P inlet 286 57 15 0;#P window setfont Times 9.;#P window linecount 1;#P comment 103 225 292 1310729 arg 1 : matrix name (ex. mtrx) \;;#P newex 20 195 71 1310729 s $1~;#B color 11;#N vpatcher 77 158 950 501;#N comlet out7;#P inlet 769 91 15 0;#N comlet out9;#P inlet 805 91 15 0;#N comlet out8;#P inlet 787 91 15 0;#N comlet out4;#P inlet 715 91 15 0;#N comlet out3;#P inlet 697 91 15 0;#P window setfont Times 9.;#P window linecount 1;#P newex 433 60 40 1310729 t b f;#P newex 375 60 40 1310729 t b f;#P newex 433 230 55 1310729 pack 0 0 0. 0;#P newex 375 230 55 1310729 pack 0 0 0. 0;#N comlet out8 value;#P inlet 433 36 15 0;#N comlet out7 value;#P inlet 375 36 15 0;#P newex 201 60 40 1310729 t b f;#P newex 143 60 40 1310729 t b f;#P newex 201 230 55 1310729 pack 0 0 0. 0;#P newex 143 230 55 1310729 pack 0 0 0. 0;#N comlet out4 value;#P inlet 201 36 15 0;#N comlet out3 value;#P inlet 143 36 15 0;#P outlet 317 296 15 0;#N comlet time;#P inlet 602 36 15 0;#P window linecount 0;#P newex 602 60 16 1310729 t i;#P newex 549 60 40 1310729 t b f;#P newex 317 60 40 1310729 t b f;#P newex 259 60 40 1310729 t b f;#P newex 85 60 40 1310729 t b f;#P newex 27 60 40 1310729 t b f;#P newex 633 60 51 1310729 prepend set;#P newex 549 230 55 1310729 pack 0 0 0. 0;#P newex 317 230 55 1310729 pack 0 0 0. 0;#P newex 259 230 55 1310729 pack 0 0 0. 0;#P newex 85 230 55 1310729 pack 0 0 0. 0;#P newex 27 230 55 1310729 pack 0 0 0. 0;#N comlet rev value;#P inlet 549 36 15 0;#N comlet out6 value;#P inlet 317 36 15 0;#N comlet out5 value;#P inlet 259 36 15 0;#N comlet out2 value;#P inlet 85 36 15 0;#N comlet out1 value;#P inlet 27 36 15 0;#N comlet out6;#P inlet 751 91 15 0;#N comlet out5;#P inlet 733 91 15 0;#N comlet out2;#P inlet 679 91 15 0;#N comlet out1;#P inlet 661 91 15 0;#N comlet in;#P inlet 633 36 15 0;#P connect 5 0 16 0;#P connect 15 0 10 0;#P lcolor 3;#P connect 16 0 10 0;#P connect 1 0 10 1;#P lcolor 13;#P connect 16 1 10 2;#P connect 21 0 10 3;#P lcolor 1;#P connect 6 0 17 0;#P connect 15 0 11 0;#P lcolor 3;#P connect 17 0 11 0;#P connect 2 0 11 1;#P lcolor 13;#P connect 17 1 11 2;#P connect 21 0 11 3;#P lcolor 1;#P connect 24 0 28 0;#P connect 15 0 26 0;#P lcolor 3;#P connect 28 0 26 0;#P connect 36 0 26 1;#P lcolor 13;#P connect 28 1 26 2;#P connect 21 0 26 3;#P lcolor 1;#P connect 25 0 29 0;#P connect 15 0 27 0;#P lcolor 3;#P connect 29 0 27 0;#P connect 37 0 27 1;#P lcolor 13;#P connect 29 1 27 2;#P connect 21 0 27 3;#P lcolor 1;#P connect 7 0 18 0;#P connect 15 0 12 0;#P lcolor 3;#P connect 18 0 12 0;#P connect 3 0 12 1;#P lcolor 13;#P connect 18 1 12 2;#P connect 21 0 12 3;#P lcolor 1;#P connect 8 0 19 0;#P connect 15 0 13 0;#P lcolor 3;#P connect 19 0 13 0;#P connect 32 0 23 0;#P connect 33 0 23 0;#P connect 26 0 23 0;#P connect 27 0 23 0;#P connect 10 0 23 0;#P connect 11 0 23 0;#P connect 12 0 23 0;#P connect 13 0 23 0;#P connect 14 0 23 0;#P connect 4 0 13 1;#P lcolor 13;#P connect 19 1 13 2;#P connect 21 0 13 3;#P lcolor 1;#P connect 30 0 34 0;#P connect 15 0 32 0;#P lcolor 3;#P connect 34 0 32 0;#P connect 40 0 32 1;#P lcolor 13;#P connect 34 1 32 2;#P connect 21 0 32 3;#P lcolor 1;#P connect 31 0 35 0;#P connect 15 0 33 0;#P lcolor 3;#P connect 35 0 33 0;#P connect 38 0 33 1;#P lcolor 13;#P connect 35 1 33 2;#P connect 21 0 33 3;#P lcolor 1;#P connect 9 0 20 0;#P connect 15 0 14 0;#P lcolor 3;#P connect 20 0 14 0;#P connect 39 0 14 1;#P lcolor 13;#P connect 20 1 14 2;#P connect 21 0 14 3;#P lcolor 1;#P connect 22 0 21 0;#P connect 0 0 15 0;#P lcolor 13;#P pop;#P newobj 20 167 431 1310729 p mtrx~mess;#B color 6;#N vpatcher 72 259 589 651;#P window setfont Times 9.;#P window linecount 1;#P newex 314 69 55 1310729 prepend refer;#P newex 314 49 166 1310729 r $1/inputscoll;#B color 11;#P newex 313 114 55 1310729 prepend refer;#P newex 313 94 170 1310729 r $1/outputscoll;#B color 11;#N comlet out9;#P outlet 261 323 15 0;#N comlet out8;#P outlet 234 305 15 0;#N comlet out7;#P outlet 207 289 15 0;#N comlet out6;#P outlet 180 269 15 0;#N coll tape_matrixoutputs 1;#P newobj 261 302 108 1310729 coll tape_matrixoutputs 1;#B color 5;#N coll tape_matrixoutputs 1;#P newobj 234 283 108 1310729 coll tape_matrixoutputs 1;#B color 5;#N coll tape_matrixoutputs 1;#P newobj 207 264 108 1310729 coll tape_matrixoutputs 1;#B color 5;#N coll tape_matrixoutputs 1;#P newobj 180 243 108 1310729 coll tape_matrixoutputs 1;#B color 5;#N comlet out5;#P outlet 153 243 15 0;#P window linecount 0;#N coll tape_matrixoutputs 1;#P newobj 153 222 108 1310729 coll tape_matrixoutputs 1;#B color 5;#N comlet out4;#P outlet 126 224 15 0;#N comlet out3;#P outlet 99 206 15 0;#N comlet out2;#P outlet 72 190 15 0;#N comlet out1;#P outlet 45 172 15 0;#N comlet in;#P outlet 18 127 15 0;#N coll tape_matrixoutputs 1;#P newobj 126 203 108 1310729 coll tape_matrixoutputs 1;#B color 5;#N coll tape_matrixoutputs 1;#P newobj 99 184 108 1310729 coll tape_matrixoutputs 1;#B color 5;#N coll tape_matrixoutputs 1;#P newobj 72 165 108 1310729 coll tape_matrixoutputs 1;#B color 5;#N coll tape_matrixoutputs 1;#P newobj 45 146 108 1310729 coll tape_matrixoutputs 1;#B color 5;#N coll tape_matrixinputs 1;#P newobj 18 102 104 1310729 coll tape_matrixinputs 1;#B color 5;#N comlet multiplexed input/outputs names;#P inlet 18 29 15 0;#P window setfont "Sans Serif" 9.;#P newex 18 55 258 196617 unpack s s s s s s s s s s;#P connect 1 0 0 0;#P connect 0 0 2 0;#P connect 25 0 2 0;#P connect 2 0 7 0;#P connect 23 0 3 0;#P connect 0 1 3 0;#P connect 3 0 8 0;#P connect 23 0 4 0;#P connect 0 2 4 0;#P connect 4 0 9 0;#P connect 23 0 5 0;#P connect 0 3 5 0;#P connect 5 0 10 0;#P connect 23 0 6 0;#P connect 0 4 6 0;#P connect 6 0 11 0;#P connect 23 0 12 0;#P connect 0 5 12 0;#P connect 12 0 13 0;#P connect 23 0 14 0;#P connect 0 6 14 0;#P connect 14 0 18 0;#P connect 23 0 15 0;#P connect 0 7 15 0;#P connect 15 0 19 0;#P connect 23 0 16 0;#P connect 0 8 16 0;#P connect 16 0 20 0;#P connect 0 9 17 0;#P connect 23 0 17 0;#P connect 17 0 21 0;#P connect 22 0 23 0;#P connect 24 0 25 0;#P pop;#P newobj 240 142 210 1310729 p io_coll-lookup;#B color 6;#P window setfont "Sans Serif" 9.;#P message 324 97 267 196617 /adc1 /FL /FR /BL /BR /FL2 /FR2 /BL2 /BR2 /C /rev1;#N comlet rev;#P inlet 196 35 15 0;#P window setfont Times 9.;#P comment 233 35 25 1310729 time;#N comlet time;#P inlet 218 35 15 0;#P window setfont "Sans Serif" 18.;#P comment 144 192 180 196626 tocentralmatrix8;#P connect 11 0 6 0;#P connect 6 0 7 0;#P connect 12 0 6 1;#P connect 13 0 6 2;#P connect 14 0 6 3;#P connect 15 0 6 4;#P connect 16 0 6 5;#P connect 17 0 6 6;#P connect 18 0 6 7;#P connect 3 0 6 8;#P connect 1 0 6 9;#P fasten 4 0 5 0 329 122 245 122;#P fasten 9 0 5 0 291 107 245 107;#P connect 5 0 6 10;#P connect 5 1 6 11;#P connect 5 2 6 12;#P connect 5 3 6 13;#P connect 5 4 6 14;#P connect 5 5 6 15;#P connect 5 6 6 16;#P connect 5 7 6 17;#P connect 5 8 6 18;#P connect 5 9 6 19;#P pop;