max v2;#N vpatcher 52 166 480 511;#P window setfont Times 9.;#P window linecount 1;#P comment 53 19 36 1310729 (cents);#B frgb 66 66 66;#P window setfont "Sans Serif" 9.;#P newex 192 85 203 196617 variedit $1/trsp $1;#B color 11;#P window setfont Times 9.;#P newex 192 105 44 1310729 pvar trsp;#P number 55 32 37 9 -2400 2400 3 20 0 0 0 221 221 221 222 222 222 0 0 0;#P objectname trsp;#P comment 32 32 26 1310729 /trsp;#B frgb 0 0 200;#P flonum 127 39 32 9 0. 1. 3 20 0 0 0 221 221 221 222 222 222 0 0 0;#P objectname fb;#P number 127 24 37 9 0 0 0 20 0 0 0 221 221 221 222 222 222 0 0 0;#P objectname del;#P comment 182 32 24 1310729 /vol;#B frgb 0 0 200;#P comment 112 39 19 1310729 /fb;#B frgb 0 0 200;#P comment 108 24 22 1310729 /del;#B frgb 0 0 200;#P flonum 203 32 30 9 0. 2. 3 20 0 0 0 221 221 221 222 222 222 0 0 0;#P objectname vol;#P newex 191 182 61 1310729 speedlim 100;#P window setfont "Sans Serif" 9.;#P comment 15 108 117 196617 bpat bkgnd = 256 X 62;#P comment 15 127 119 196617 bpat editor = 258 X 64;#P newex 192 267 198 196617 variedit $1/vol $1;#B color 11;#P window setfont Times 9.;#P newex 192 287 42 1310729 pvar vol;#P window setfont "Sans Serif" 9.;#P newex 192 215 193 196617 variedit $1/fb $1;#B color 11;#P window setfont Times 9.;#P newex 192 235 37 1310729 pvar fb;#P window linecount 2;#P comment 81 73 82 1310729 arg 1 : prefix name \; arg 2 : max del time;#P window setfont "Sans Serif" 9.;#P window linecount 1;#P newex 191 142 197 196617 variedit $1/del $1;#B color 11;#P window setfont Times 9.;#P newex 191 162 40 1310729 pvar del;#P bpatcher 0 0 256 62 0 0 bkgnd.mxt 0 $1 0 1;#P objectname background;#P fasten 10 0 2 0 196 204 187 204 187 137 196 137;#P connect 2 0 1 0;#P connect 1 0 10 0;#P fasten 19 0 20 0 197 126 187 126 187 80 197 80;#P connect 20 0 19 0;#P fasten 4 0 5 0 197 256 187 256 187 210 197 210;#P connect 5 0 4 0;#P fasten 6 0 7 0 197 308 187 308 187 262 197 262;#P connect 7 0 6 0;#P pop;