max v2;#N vpatcher 473 88 1359 807;#P origin 0 -145;#P window setfont "Sans Serif" 9.;#P flonum 202 219 46 9 0 0 0 3 0 0 0 221 221 221 222 222 222 0 0 0;#P window linecount 1;#P newex 270 215 29 196617 t b f;#P flonum 270 196 46 9 0 0 0 3 0 0 0 221 221 221 222 222 222 0 0 0;#P newex 202 199 27 196617 + 0.;#P newex 270 175 179 196617 makeparam $1/bend $1 f 0 -48 48 1;#B color 13;#P flonum 80 74 35 9 0 0 0 3 0 0 0 221 221 221 222 222 222 0 0 0;#P newex 29 74 49 196617 t_vol~ 2;#P newex 84 50 300 196617 makeparam $1/invol $1 f 1 0. 2. 1 20;#B color 13;#P newex 202 177 40 196617 / 100.;#P window setfont Times 9.;#N vpatcher 30 89 252 336;#P window setfont "Sans Serif" 9.;#P newex 101 94 27 196617 / 2;#P newex 50 161 61 196617 pack 0. 0;#P newex 71 139 21 196617 t 0;#P newex 71 119 27 196617 del;#P newex 50 182 114 196617 s $1/vol;#B color 11;#P newex 50 73 61 196617 unpack 0. 0;#P newex 50 50 124 196617 r $1/wave;#B color 11;#P connect 0 0 1 0;#P connect 1 0 5 0;#P connect 4 0 5 0;#P connect 5 0 2 0;#P connect 6 0 3 0;#P connect 3 0 4 0;#P connect 1 1 6 0;#P connect 6 0 5 1;#P pop;#P newobj 31 596 52 1310729 p vol-wave;#B color 5;#P window setfont "Sans Serif" 9.;#P newex 120 291 329 196617 makeparam $1/del $1 f 0 0 $2 2;#B color 13;#P newex 119 110 330 196617 makeparam $1/fb $1 f 0 0 1. 1;#B color 13;#P newex 29 138 101 196617 t_feedback~ $1;#B color 6;#P newex 29 313 101 196617 t_del~ $1 $2;#B color 6;#P comment 260 159 133 196617 transposition in cents;#P flonum 202 158 58 9 0 0 0 3 0 0 0 221 221 221 222 222 222 0 0 0;#P newex 202 237 112 196617 expr pow(2.\\\,$f1/12);#P flonum 202 257 57 9 0 0 0 3 0 0 0 221 221 221 222 222 222 0 0 0;#P comment 259 258 102 196617 pitch scaling factor;#P newex 29 267 123 196617 pfft~ t_gizmo__ 2048 4;#P newex 102 441 145 196617 t_fxmetersend $1;#B color 4;#P window linecount 2;#P comment 655 294 198 196617 no longer need to send to module_register. happens in build.;#P button 655 111 15 0;#P window linecount 1;#P newex 631 326 133 196617 s $1/spat/init;#B color 11;#P newex 298 395 261 196617 makeswitch $1/sw $1 tape_switchstate;#B color 13;#P newex 298 438 31 196617 == 0;#P newex 298 477 50 196617 thispoly~;#B color 5;#P toggle 298 419 15 0;#P message 298 458 45 196617 mute \$1;#P newex 202 138 327 196617 makeparam $1/trsp $1 i 0 -4800 4800 1;#B color 13;#P flonum 80 391 35 9 0 0 0 3 0 0 0 221 221 221 222 222 222 0 0 0;#P newex 29 391 49 196617 t_vol~ 2;#P newex 68 362 300 196617 makeparam $1/vol $1 f 1 0. 2. 1 20;#B color 13;#P window setfont Times 9.;#P window linecount 2;#P message 542 644 120 1310729 \; $1/trsprand 0;#P message 253 644 265 1310729 \; $1/trsprand 1 -200 200 3000 5000 50 100;#P toggle 14 650 15 0;#P window linecount 1;#P newex 31 649 212 1310729 proc-randtransf $1/trsprand $1/trsp 2;#B color 6;#P window linecount 2;#P message 542 543 118 1310729 \; $1/volrand 0;#P message 253 543 265 1310729 \; $1/volrand 1 0.8 1. 3000 5000 50 100 1 4;#P toggle 14 549 15 0;#P window linecount 1;#P newex 31 548 213 1310729 proc-randtransf0 $1/volrand $1/vol 2;#B color 6;#P window linecount 2;#P message 542 612 113 1310729 \; $1/fbrand 0;#P message 253 612 251 1310729 \; $1/fbrand 1 0.1 0.5 3000 5000 50 100;#P toggle 14 618 15 0;#P window linecount 1;#P newex 31 617 198 1310729 proc-randtransf $1/fbrand $1/fb 2;#B color 6;#P window linecount 2;#P message 542 573 124 1310729 \; $1/waverand 0;#P message 253 573 257 1310729 \; $1/waverand 1 0.8 1. 6000 10000 50 75;#P toggle 14 576 15 0;#P window linecount 1;#P newex 31 576 220 1310729 proc-randtransf $1/waverand $1/wave 2;#B color 6;#P window linecount 2;#P message 542 513 116 1310729 \; $1/delrand 0;#P message 253 513 263 1310729 \; $1/delrand 1 1154 2308 4000 8000 25 50;#P toggle 14 516 15 0;#P window linecount 1;#P newex 31 516 201 1310729 proc-randtrans $1/delrand $1/del 2;#B color 6;#N out~ 1;#P newobj 29 441 56 1310729 out~ 1;#N in~ 1;#P newobj 29 29 29 1310729 in~ 1;#P newex 29 50 40 1310729 t_dither;#P window setfont "Sans Serif" 9.;#P newex 655 90 148 196617 moduleinit $1;#B color 13;#P window linecount 13;#P message 655 132 99 196617 \; $1/sw/init bang \; $1/delrand 0 \; $1/volrand 0 \; $1/waverand 0 \; $1/fbrand 0 \; $1/trsprand 0 \; $1/trsp/init bang \; $1/del/init bang \; $1/fb/init bang \; $1/bend/init bang \; $1/invol/init bang \; $1/vol/init bang \;;#P window setfont Times 10.;#P window linecount 2;#P comment 33 461 136 1310730 arg 1 : prefix name (ie. mod1) \; arg 2 : del time max;#P hidden connect 6 0 7 0;#P hidden connect 18 0 19 0;#P hidden connect 10 0 11 0;#P hidden connect 14 0 15 0;#P hidden connect 22 0 23 0;#P connect 4 0 3 0;#P connect 3 0 52 0;#P connect 52 0 46 0;#P connect 46 0 39 0;#P connect 39 0 45 0;#P connect 45 0 27 0;#P connect 27 0 5 0;#P connect 53 0 52 1;#P connect 51 0 52 1;#P connect 26 0 27 1;#P connect 28 0 27 1;#P fasten 45 0 46 1 34 341 614 341 614 100 79 100;#P connect 52 1 53 0;#P connect 27 1 28 0;#P fasten 27 0 38 0 34 424 107 424;#P connect 47 0 46 2;#P connect 48 0 45 1;#P connect 41 0 39 1;#P connect 29 0 43 0;#P connect 43 0 50 0;#P connect 57 0 55 0;#P connect 50 0 55 0;#P connect 55 0 58 0;#P connect 58 0 42 0;#P connect 42 0 41 0;#P connect 57 1 55 1;#P connect 54 0 56 0;#P connect 56 0 57 0;#P connect 34 0 31 0;#P connect 31 0 33 0;#P connect 33 0 30 0;#P connect 30 0 32 0;#P fasten 36 0 35 0 660 129 636 129;#P connect 2 0 36 0;#P connect 36 0 1 0;#P pop;