max v2;#N vpatcher 473 88 1343 712;#P origin 0 -145;#P window setfont "Sans Serif" 9.;#P window linecount 1;#P newex 144 122 40 196617 / 100.;#P window setfont Times 9.;#N vpatcher 30 89 252 336;#P window setfont "Sans Serif" 9.;#P newex 101 94 27 196617 / 2;#P newex 50 161 61 196617 pack 0. 0;#P newex 71 139 21 196617 t 0;#P newex 71 119 27 196617 del;#P newex 50 182 114 196617 s $1/vol;#B color 11;#P newex 50 73 61 196617 unpack 0. 0;#P newex 50 50 124 196617 r $1/wave;#B color 11;#P connect 0 0 1 0;#P connect 1 0 5 0;#P connect 4 0 5 0;#P connect 5 0 2 0;#P connect 6 0 3 0;#P connect 3 0 4 0;#P connect 1 1 6 0;#P connect 6 0 5 1;#P pop;#P newobj 33 513 52 1310729 p vol-wave;#B color 5;#P window setfont "Sans Serif" 9.;#P newex 122 208 329 196617 makeparam $1/del $1 f 0 0 $2 2;#B color 13;#P newex 121 55 330 196617 makeparam $1/fb $1 f 0 0 1. 1;#B color 13;#P newex 31 83 101 196617 t_feedback~ $1;#B color 6;#P newex 31 230 101 196617 t_del~ $1 $2;#B color 6;#P comment 202 104 133 196617 transposition in cents;#P flonum 144 103 58 9 0 0 0 3 0 0 0 221 221 221 222 222 222 0 0 0;#P newex 144 145 112 196617 expr pow(2.\\\,$f1/12);#P flonum 144 165 57 9 0 0 0 3 0 0 0 221 221 221 222 222 222 0 0 0;#P comment 201 166 102 196617 pitch scaling factor;#P newex 31 184 123 196617 pfft~ t_gizmo__ 2048 4;#P newex 104 358 145 196617 t_fxmetersend $1;#B color 4;#P window linecount 2;#P comment 567 220 198 196617 no longer need to send to module_register. happens in build.;#P button 567 52 15 0;#P window linecount 1;#P newex 543 252 133 196617 s $1/spat/init;#B color 11;#P newex 300 312 261 196617 makeswitch $1/sw $1 tape_switchstate;#B color 13;#P newex 300 355 31 196617 == 0;#P newex 300 394 50 196617 thispoly~;#B color 5;#P toggle 300 336 15 0;#P message 300 375 45 196617 mute \$1;#P newex 144 83 327 196617 makeparam $1/trsp $1 i 0 -4800 4800 1;#B color 13;#P flonum 82 308 35 9 0 0 0 3 0 0 0 221 221 221 222 222 222 0 0 0;#P newex 31 308 49 196617 t_vol~ 2;#P newex 70 279 300 196617 makeparam $1/vol $1 f 1 0. 2. 1 20;#B color 13;#P window setfont Times 9.;#P window linecount 2;#P message 544 561 120 1310729 \; $1/trsprand 0;#P message 255 561 265 1310729 \; $1/trsprand 1 -200 200 3000 5000 50 100;#P toggle 16 567 15 0;#P window linecount 1;#P newex 33 566 212 1310729 proc-randtransf $1/trsprand $1/trsp 2;#B color 6;#P window linecount 2;#P message 544 460 118 1310729 \; $1/volrand 0;#P message 255 460 265 1310729 \; $1/volrand 1 0.8 1. 3000 5000 50 100 1 4;#P toggle 16 466 15 0;#P window linecount 1;#P newex 33 465 213 1310729 proc-randtransf0 $1/volrand $1/vol 2;#B color 6;#P window linecount 2;#P message 544 529 113 1310729 \; $1/fbrand 0;#P message 255 529 251 1310729 \; $1/fbrand 1 0.1 0.5 3000 5000 50 100;#P toggle 16 535 15 0;#P window linecount 1;#P newex 33 534 198 1310729 proc-randtransf $1/fbrand $1/fb 2;#B color 6;#P window linecount 2;#P message 544 490 124 1310729 \; $1/waverand 0;#P message 255 490 257 1310729 \; $1/waverand 1 0.8 1. 6000 10000 50 75;#P toggle 16 493 15 0;#P window linecount 1;#P newex 33 493 220 1310729 proc-randtransf $1/waverand $1/wave 2;#B color 6;#P window linecount 2;#P message 544 430 116 1310729 \; $1/delrand 0;#P message 255 430 263 1310729 \; $1/delrand 1 1154 2308 4000 8000 25 50;#P toggle 16 433 15 0;#P window linecount 1;#P newex 33 433 201 1310729 proc-randtrans $1/delrand $1/del 2;#B color 6;#N out~ 1;#P newobj 31 358 56 1310729 out~ 1;#N in~ 1;#P newobj 31 35 29 1310729 in~ 1;#P newex 31 56 40 1310729 t_dither;#P window setfont "Sans Serif" 9.;#P newex 567 31 148 196617 moduleinit $1;#B color 13;#P window linecount 11;#P message 567 73 270 196617 \; $1/sw/init bang \; $1/delrand 0 \; $1/volrand 0 \; $1/waverand 0 \; $1/fbrand 0 \; $1/trsprand 0 \; $1/trsp/init bang \; $1/del/init bang \; $1/fb/init bang \; $1/vol/init bang \;;#P window setfont Times 10.;#P window linecount 2;#P comment 35 378 136 1310730 arg 1 : prefix name (ie. mod1) \; arg 2 : del time max;#P hidden connect 6 0 7 0;#P hidden connect 18 0 19 0;#P hidden connect 10 0 11 0;#P hidden connect 14 0 15 0;#P hidden connect 22 0 23 0;#P connect 4 0 3 0;#P connect 3 0 46 0;#P connect 46 0 39 0;#P connect 39 0 45 0;#P connect 45 0 27 0;#P connect 27 0 5 0;#P connect 26 0 27 1;#P connect 28 0 27 1;#P fasten 45 0 46 1 36 258 481 258 481 47 81 47;#P connect 27 1 28 0;#P fasten 27 0 38 0 36 341 109 341;#P connect 47 0 46 2;#P connect 48 0 45 1;#P connect 29 0 43 0;#P connect 43 0 50 0;#P connect 50 0 42 0;#P connect 42 0 41 0;#P connect 41 0 39 1;#P connect 34 0 31 0;#P connect 31 0 33 0;#P connect 33 0 30 0;#P connect 30 0 32 0;#P fasten 36 0 35 0 572 70 548 70;#P connect 2 0 36 0;#P connect 36 0 1 0;#P pop;