max v2;#N vpatcher 513 176 1025 296;#P window setfont "Sans Serif" 9.;#P newex 912 430 130 196617 s /cue-list/trignext_;#B color 12;#P newex 912 408 130 196617 r /cue-list/trignext;#B color 12;#P newex 960 162 50 196617 deferlow;#P newex 960 142 48 196617 loadbang;#P window setfont "Sans Serif" 12.;#N vpatcher 20 74 250 282;#P window setfont "Sans Serif" 9.;#P window linecount 1;#P newex 50 109 51 196617 tosymbol;#P newex 50 130 68 196617 prepend read;#P newex 50 50 62 196617 projectpath;#B color 6;#P window linecount 2;#P newex 50 71 113 196617 sprintf %sconfig/cue-sheet.txt;#P inlet 50 30 15 0;#P outlet 50 152 15 0;#P connect 1 0 3 0;#P connect 3 0 2 0;#P connect 2 0 5 0;#P connect 5 0 4 0;#P connect 4 0 0 0;#P pop;#P newobj 960 182 143 196620 p read_cue-sheet_file;#B color 6;#P window setfont "Sans Serif" 9.;#N coll conduite 1;#P newobj 960 211 75 196617 coll conduite 1;#B color 5;#P window setfont "Sans Serif" 14.;#N vpatcher 215 44 706 755;#P window setfont "Sans Serif" 9.;#P newex 670 449 132 196617 r /cue-list/newcuebutton;#B color 11;#P newex 695 501 118 196617 r /cue-list/newcuetxt;#B color 11;#P newex 670 555 134 196617 s /cue-list/fromnewcuetxt;#B color 12;#P newex 670 473 95 196617 pvar newcuebutton;#B color 14;#P newex 670 528 81 196617 pvar newcuetxt;#B color 14;#P newex 509 517 126 196617 s /cue-list/fromcellblock;#B color 12;#P newex 509 495 78 196617 pvar cellblockq;#B color 14;#P newex 509 473 113 196617 r /cue-list/tocellblock;#B color 12;#P newex 754 394 32 196617 sel 0;#P newex 504 27 93 196617 fixedsize 491 711;#B color 6;#N vpatcher 907 223 1245 425;#P window setfont "Sans Serif" 9.;#P newex 274 50 32 196617 sel 0;#P message 23 112 92 196617 frgb 147 147 147;#P message 150 108 80 196617 frgb 0 146 207;#N comlet from mouse up bang;#P inlet 23 62 15 0;#N comlet from right outlet;#P inlet 274 30 15 0;#N comlet from mouse down bang;#P inlet 150 58 15 0;#N comlet to panel;#P outlet 150 151 15 0;#P connect 3 0 5 0;#P connect 6 0 5 0;#P connect 1 0 4 0;#P connect 4 0 0 0;#P connect 5 0 0 0;#P connect 2 0 6 0;#P pop;#P newobj 518 239 104 196617 p updowncolors;#B color 6;#P newex 522 213 104 196617 pvar newcuebutton 4;#B color 14;#P newex 518 264 91 196617 pvar newcue-truc;#B color 14;#N vpatcher 907 223 1245 425;#P window setfont "Sans Serif" 9.;#P newex 274 50 32 196617 sel 0;#P message 23 112 92 196617 frgb 147 147 147;#P message 150 108 80 196617 frgb 0 146 207;#N comlet from mouse up bang;#P inlet 23 62 15 0;#N comlet from right outlet;#P inlet 274 30 15 0;#N comlet from mouse down bang;#P inlet 150 58 15 0;#N comlet to panel;#P outlet 150 151 15 0;#P connect 3 0 5 0;#P connect 6 0 5 0;#P connect 1 0 4 0;#P connect 4 0 0 0;#P connect 5 0 0 0;#P connect 2 0 6 0;#P pop;#P newobj 532 371 104 196617 p updowncolors;#B color 6;#P newex 532 345 183 196617 pvar reload-button 4;#B color 14;#P button 646 420 15 0;#P window linecount 2;#P message 502 416 114 196617 \; /cue-list/init bang \;;#P window linecount 1;#P newex 516 47 48 196617 loadbang;#P newex 530 66 67 196617 pvar nogrow;#B color 14;#P newex 569 120 57 196617 pvar grow;#B color 14;#P message 642 372 56 196617 frgb 0 0 0;#P message 701 372 86 196617 frgb 0 146 207;#P newex 642 395 62 196617 pvar reload;#B color 14;#P newex 504 8 178 196617 editorwindow /qmanager /tapemovie;#B color 6;#P hidden message 371 61 43 196617 nogrow;#P objectname nogrow;#P hidden message 324 61 33 196617 grow;#P objectname grow;#P message 516 102 170 196617 window flags nogrow \, window exec;#P button 516 84 15 0;#P button 569 140 15 0;#P message 569 158 160 196617 window flags grow \, window exec;#N thispatcher;#Q end;#P newobj 504 178 61 196617 thispatcher;#P newex 629 258 32 196617 sel 0;#P message 509 288 56 196617 frgb 0 0 0;#P message 568 288 86 196617 frgb 0 146 207;#P newex 568 314 88 196617 pvar newcuelabel;#B color 14;#P user textedit 6 680 230 705 32916 3 9;#P objectname newcuetxt;#P user jit.cellblock 1 2 491 681 3 9 8 15 47 22 0 1 1 0 1 0 1 0 0 0 0 0 255 255 255 0 0 0 0 0 0 255 255 255 0 0 0 247 247 247 0 0 0 1 2 0 0 0;#X row 0 layout 34 1 131 23 0 1 0 0 0 -1 -1 -1;#X row 1 layout 34 1 133 23 0 1 0 0 0 -1 -1 -1;#X row 2 layout 34 1 0 0 0 1 0 0 0 -1 -1 -1;#X row 3 layout 34 1 0 0 0 1 0 0 0 -1 -1 -1;#X row 4 layout 34 1 0 0 0 1 0 0 0 -1 -1 -1;#X row 6 layout 34 1 0 0 0 1 0 0 0 -1 -1 -1;#X row 8 layout 34 1 0 0 0 1 0 0 0 -1 -1 -1;#X row 9 layout 34 1 0 0 0 1 0 0 0 -1 -1 -1;#X row 11 layout 34 1 0 0 0 1 0 0 0 -1 -1 -1;#X row 12 layout 34 1 0 0 0 1 0 0 0 -1 -1 -1;#X row 13 layout 34 1 0 0 0 1 0 0 0 -1 -1 -1;#X row 14 layout 34 1 0 0 0 1 0 0 0 -1 -1 -1;#X row 15 layout 34 1 0 0 0 1 0 0 0 -1 -1 -1;#X row 16 layout 34 1 0 0 0 1 0 0 0 -1 -1 -1;#X row 18 layout 34 1 0 0 0 1 0 0 0 -1 -1 -1;#X row 20 layout 34 1 0 0 0 1 0 0 0 -1 -1 -1;#X row 23 layout 34 1 0 0 0 1 0 0 0 -1 -1 -1;#X row 29 layout 34 1 0 0 0 1 0 0 0 -1 -1 -1;#X row 39 layout 34 1 0 0 0 1 0 0 0 -1 -1 -1;#X row 54 layout 34 1 0 0 0 1 0 0 0 -1 -1 -1;#X row 73 layout 34 1 0 0 0 1 0 0 0 -1 -1 -1;#X row 93 layout 34 1 0 0 0 1 0 0 0 -1 -1 -1;#X row 116 layout 34 1 0 0 0 1 0 0 0 -1 -1 -1;#X row 142 layout 34 1 0 0 0 1 0 0 0 -1 -1 -1;#X row 165 layout 34 1 0 0 0 1 0 0 0 -1 -1 -1;#X row 188 layout 34 1 0 0 0 1 0 0 0 -1 -1 -1;#X row 211 layout 34 1 0 0 0 1 0 0 0 -1 -1 -1;#X row 232 layout 34 1 0 0 0 1 0 0 0 -1 -1 -1;#X row 249 layout 34 1 0 0 0 1 0 0 0 -1 -1 -1;#X row 265 layout 34 1 0 0 0 1 0 0 0 -1 -1 -1;#X row 277 layout 34 1 0 0 0 1 0 0 0 -1 -1 -1;#X row 290 layout 34 1 0 0 0 1 0 0 0 -1 -1 -1;#X row 301 layout 34 1 0 0 0 1 0 0 0 -1 -1 -1;#X row 313 layout 34 1 0 0 0 1 0 0 0 -1 -1 -1;#X row 325 layout 34 1 0 0 0 1 0 0 0 -1 -1 -1;#X row 334 layout 17 1 0 0 0 1 0 0 0 -1 -1 -1;#X row 347 layout 17 1 0 0 0 1 0 0 0 -1 -1 -1;#X row 359 layout 17 1 0 0 0 1 0 0 0 -1 -1 -1;#X row 372 layout 17 1 0 0 0 1 0 0 0 -1 -1 -1;#X row 385 layout 36 1 0 0 0 1 0 0 0 -1 -1 -1;#X row 399 layout 36 1 0 0 0 1 0 0 0 -1 -1 -1;#X row 412 layout 36 1 0 0 0 1 0 0 0 -1 -1 -1;#X row 423 layout 17 1 0 0 0 1 0 0 0 -1 -1 -1;#X row 435 layout 17 1 0 0 0 1 0 0 0 -1 -1 -1;#X row 448 layout 17 1 0 0 0 1 0 0 0 -1 -1 -1;#X row 459 layout 17 1 0 0 0 1 0 0 0 -1 -1 -1;#X row 471 layout 17 1 0 0 0 1 0 0 0 -1 -1 -1;#X row 482 layout 17 1 0 0 0 1 0 0 0 -1 -1 -1;#X row 494 layout 17 1 0 0 0 1 0 0 0 -1 -1 -1;#X row 506 layout 17 1 0 0 0 1 0 0 0 -1 -1 -1;#X row 518 layout 17 1 0 0 0 1 0 0 0 -1 -1 -1;#X row 531 layout 17 1 0 0 0 1 0 0 0 -1 -1 -1;#X row 545 layout 17 1 0 0 0 1 0 0 0 -1 -1 -1;#X row 557 layout 17 1 0 0 0 1 0 0 0 -1 -1 -1;#X row 570 layout 17 1 0 0 0 1 0 0 0 -1 -1 -1;#X row 585 layout 17 1 0 0 0 1 0 0 0 -1 -1 -1;#X row 601 layout 17 1 0 0 0 1 0 0 0 -1 -1 -1;#X row 617 layout 17 1 0 0 0 1 0 0 0 -1 -1 -1;#X row 633 layout 17 1 0 0 0 1 0 0 0 -1 -1 -1;#X row 650 layout 17 1 0 0 0 1 0 0 0 -1 -1 -1;#X row 659 layout 17 1 0 0 0 1 0 0 0 -1 -1 -1;#X row 666 layout 17 1 0 0 0 1 0 0 0 -1 -1 -1;#X row 679 layout 17 1 0 0 0 1 0 0 0 -1 -1 -1;#X row 693 layout 17 1 0 0 0 1 0 0 0 -1 -1 -1;#X row 704 layout 36 1 0 0 0 1 0 0 0 -1 -1 -1;#X row 715 layout 36 1 0 0 0 1 0 0 0 -1 -1 -1;#X row 727 layout 17 1 0 0 0 1 0 0 0 -1 -1 -1;#X row 735 layout 17 1 0 0 0 1 0 0 0 -1 -1 -1;#X row 744 layout 17 1 0 0 0 1 0 0 0 -1 -1 -1;#X row 752 layout 17 1 0 0 0 1 0 0 0 -1 -1 -1;#X row 758 layout 17 1 0 0 0 1 0 0 0 -1 -1 -1;#X row 765 layout 36 1 0 0 0 1 0 0 0 -1 -1 -1;#X row 773 layout 36 1 0 0 0 1 0 0 0 -1 -1 -1;#X row 779 layout 17 1 0 0 0 1 0 0 0 -1 -1 -1;#X row 787 layout 17 1 0 0 0 1 0 0 0 -1 -1 -1;#X row 795 layout 17 1 0 0 0 1 0 0 0 -1 -1 -1;#X row 802 layout 17 1 0 0 0 1 0 0 0 -1 -1 -1;#X row 812 layout 17 1 0 0 0 1 0 0 0 -1 -1 -1;#X row 822 layout 17 1 0 0 0 1 0 0 0 -1 -1 -1;#X row 829 layout 36 1 0 0 0 1 0 0 0 -1 -1 -1;#X row 835 layout 17 1 0 0 0 1 0 0 0 -1 -1 -1;#X row 837 layout 17 1 0 0 0 1 0 0 0 -1 -1 -1;#X row 836 layout 17 1 0 0 0 1 0 0 0 -1 -1 -1;#X row 830 layout 17 1 0 0 0 1 0 0 0 -1 -1 -1;#X row 821 layout 17 1 0 0 0 1 0 0 0 -1 -1 -1;#X row 811 layout 17 1 0 0 0 1 0 0 0 -1 -1 -1;#X row 798 layout 17 1 0 0 0 1 0 0 0 -1 -1 -1;#X row 785 layout 17 1 0 0 0 1 0 0 0 -1 -1 -1;#X row 767 layout 17 1 0 0 0 1 0 0 0 -1 -1 -1;#X row 747 layout 17 1 0 0 0 1 0 0 0 -1 -1 -1;#X row 724 layout 17 1 0 0 0 1 0 0 0 -1 -1 -1;#X row 706 layout 36 1 0 0 0 1 0 0 0 -1 -1 -1;#X row 686 layout 17 1 0 0 0 1 0 0 0 -1 -1 -1;#X row 669 layout 17 1 0 0 0 1 0 0 0 -1 -1 -1;#X row 655 layout 17 1 0 0 0 1 0 0 0 -1 -1 -1;#X row 639 layout 17 1 0 0 0 1 0 0 0 -1 -1 -1;#X row 621 layout 17 1 0 0 0 1 0 0 0 -1 -1 -1;#X row 605 layout 17 1 0 0 0 1 0 0 0 -1 -1 -1;#X row 592 layout 17 1 0 0 0 1 0 0 0 -1 -1 -1;#X row 580 layout 17 1 0 0 0 1 0 0 0 -1 -1 -1;#X row 565 layout 17 1 0 0 0 1 0 0 0 -1 -1 -1;#X row 548 layout 17 1 0 0 0 1 0 0 0 -1 -1 -1;#X row 527 layout 36 1 0 0 0 1 0 0 0 -1 -1 -1;#X row 505 layout 17 1 0 0 0 1 0 0 0 -1 -1 -1;#X row 480 layout 17 1 0 0 0 1 0 0 0 -1 -1 -1;#X row 456 layout 36 1 0 0 0 1 0 0 0 -1 -1 -1;#X row 431 layout 17 1 0 0 0 1 0 0 0 -1 -1 -1;#X row 407 layout 17 1 0 0 0 1 0 0 0 -1 -1 -1;#X row 384 layout 17 1 0 0 0 1 0 0 0 -1 -1 -1;#X row 355 layout 17 1 0 0 0 1 0 0 0 -1 -1 -1;#X row 328 layout 34 1 0 0 0 1 0 0 0 -1 -1 -1;#X row 303 layout 34 1 0 0 0 1 0 0 0 -1 -1 -1;#X row 279 layout 34 1 0 0 0 1 0 0 0 -1 -1 -1;#X row 257 layout 34 1 0 0 0 1 0 0 0 -1 -1 -1;#X row 239 layout 34 1 0 0 0 1 0 0 0 -1 -1 -1;#X row 217 layout 34 1 0 0 0 1 0 0 0 -1 -1 -1;#X row 201 layout 34 1 0 0 0 1 0 0 0 -1 -1 -1;#X row 180 layout 34 1 0 0 0 1 0 0 0 -1 -1 -1;#X row 162 layout 34 1 0 0 0 1 0 0 0 -1 -1 -1;#X row 143 layout 34 1 0 0 0 1 0 0 0 -1 -1 -1;#X row 126 layout 34 1 0 0 0 1 0 0 0 -1 -1 -1;#X row 111 layout 34 1 0 0 0 1 0 0 0 -1 -1 -1;#X row 94 layout 34 1 0 0 0 1 0 0 0 -1 -1 -1;#X row 90 layout 34 1 0 0 0 1 0 0 0 -1 -1 -1;#X row 67 layout 34 1 0 0 0 1 0 0 0 -1 -1 -1;#X row 45 layout 34 1 0 0 0 1 0 0 0 -1 -1 -1;#X row 22 layout 34 1 0 0 0 1 0 0 0 -1 -1 -1;#X row 59 layout 34 1 0 0 0 1 0 0 0 -1 -1 -1;#X row 100 layout 34 1 0 0 0 1 0 0 0 -1 -1 -1;#X row 147 layout 34 1 0 0 0 1 0 0 0 -1 -1 -1;#X row 189 layout 34 1 0 0 0 1 0 0 0 -1 -1 -1;#X row 223 layout 34 1 0 0 0 1 0 0 0 -1 -1 -1;#X row 273 layout 34 1 0 0 0 1 0 0 0 -1 -1 -1;#X row 295 layout 34 1 0 0 0 1 0 0 0 -1 -1 -1;#X row 312 layout 34 1 0 0 0 1 0 0 0 -1 -1 -1;#X row 330 layout 34 1 0 0 0 1 0 0 0 -1 -1 -1;#X row 349 layout 17 1 0 0 0 1 0 0 0 -1 -1 -1;#X row 368 layout 17 1 0 0 0 1 0 0 0 -1 -1 -1;#X row 390 layout 36 1 0 0 0 1 0 0 0 -1 -1 -1;#X row 439 layout 17 1 0 0 0 1 0 0 0 -1 -1 -1;#X row 466 layout 36 1 0 0 0 1 0 0 0 -1 -1 -1;#X row 495 layout 36 1 0 0 0 1 0 0 0 -1 -1 -1;#X row 525 layout 17 1 0 0 0 1 0 0 0 -1 -1 -1;#X row 554 layout 17 1 0 0 0 1 0 0 0 -1 -1 -1;#X row 583 layout 17 1 0 0 0 1 0 0 0 -1 -1 -1;#X row 614 layout 17 1 0 0 0 1 0 0 0 -1 -1 -1;#X row 632 layout 17 1 0 0 0 1 0 0 0 -1 -1 -1;#X row 668 layout 36 1 0 0 0 1 0 0 0 -1 -1 -1;#X row 701 layout 36 1 0 0 0 1 0 0 0 -1 -1 -1;#X row 733 layout 17 1 0 0 0 1 0 0 0 -1 -1 -1;#X row 800 layout 17 1 0 0 0 1 0 0 0 -1 -1 -1;#X row 832 layout 17 1 0 0 0 1 0 0 0 -1 -1 -1;#X row 865 layout 17 1 0 0 0 1 0 0 0 -1 -1 -1;#X row 898 layout 17 1 0 0 0 1 0 0 0 -1 -1 -1;#X row 929 layout 17 1 0 0 0 1 0 0 0 -1 -1 -1;#X row 944 layout 17 1 0 0 0 1 0 0 0 -1 -1 -1;#X row 962 layout 17 1 0 0 0 1 0 0 0 -1 -1 -1;#X row 980 layout 17 1 0 0 0 1 0 0 0 -1 -1 -1;#X row 995 layout 17 1 0 0 0 1 0 0 0 -1 -1 -1;#X row 1002 layout 17 1 0 0 0 1 0 0 0 -1 -1 -1;#X row 1003 layout 17 1 0 0 0 1 0 0 0 -1 -1 -1;#X row 992 layout 17 1 0 0 0 1 0 0 0 -1 -1 -1;#X row 978 layout 17 1 0 0 0 1 0 0 0 -1 -1 -1;#X row 951 layout 17 1 0 0 0 1 0 0 0 -1 -1 -1;#X row 916 layout 17 1 0 0 0 1 0 0 0 -1 -1 -1;#X row 883 layout 17 1 0 0 0 1 0 0 0 -1 -1 -1;#X row 844 layout 17 1 0 0 0 1 0 0 0 -1 -1 -1;#X row 808 layout 17 1 0 0 0 1 0 0 0 -1 -1 -1;#X row 738 layout 17 1 0 0 0 1 0 0 0 -1 -1 -1;#X row 708 layout 36 1 0 0 0 1 0 0 0 -1 -1 -1;#X row 647 layout 17 1 0 0 0 1 0 0 0 -1 -1 -1;#X row 615 layout 17 1 0 0 0 1 0 0 0 -1 -1 -1;#X row 584 layout 17 1 0 0 0 1 0 0 0 -1 -1 -1;#X row 529 layout 36 1 0 0 0 1 0 0 0 -1 -1 -1;#X row 481 layout 17 1 0 0 0 1 0 0 0 -1 -1 -1;#X row 428 layout 17 1 0 0 0 1 0 0 0 -1 -1 -1;#X row 396 layout 36 1 0 0 0 1 0 0 0 -1 -1 -1;#X row 375 layout 17 1 0 0 0 1 0 0 0 -1 -1 -1;#X row 350 layout 17 1 0 0 0 1 0 0 0 -1 -1 -1;#X row 322 layout 34 1 0 0 0 1 0 0 0 -1 -1 -1;#X row 293 layout 34 1 0 0 0 1 0 0 0 -1 -1 -1;#X row 261 layout 34 1 0 0 0 1 0 0 0 -1 -1 -1;#X row 230 layout 34 1 0 0 0 1 0 0 0 -1 -1 -1;#X row 205 layout 34 1 0 0 0 1 0 0 0 -1 -1 -1;#X row 179 layout 34 1 0 0 0 1 0 0 0 -1 -1 -1;#X row 152 layout 34 1 0 0 0 1 0 0 0 -1 -1 -1;#X row 122 layout 34 1 0 0 0 1 0 0 0 -1 -1 -1;#X row 91 layout 34 1 0 0 0 1 0 0 0 -1 -1 -1;#X row 32 layout 34 1 0 0 0 1 0 0 0 -1 -1 -1;#X row 5 layout 34 1 0 0 0 1 0 0 0 -1 -1 -1;#X row 47 layout 34 1 0 0 0 1 0 0 0 -1 -1 -1;#X row 76 layout 34 1 0 0 0 1 0 0 0 -1 -1 -1;#X row 98 layout 34 1 0 0 0 1 0 0 0 -1 -1 -1;#X row 115 layout 34 1 0 0 0 1 0 0 0 -1 -1 -1;#X row 133 layout 34 1 0 0 0 1 0 0 0 -1 -1 -1;#X row 175 layout 34 1 0 0 0 1 0 0 0 -1 -1 -1;#X row 202 layout 34 1 0 0 0 1 0 0 0 -1 -1 -1;#X row 233 layout 34 1 0 0 0 1 0 0 0 -1 -1 -1;#X row 258 layout 34 1 0 0 0 1 0 0 0 -1 -1 -1;#X row 323 layout 34 1 0 0 0 1 0 0 0 -1 -1 -1;#X row 348 layout 17 1 0 0 0 1 0 0 0 -1 -1 -1;#X row 374 layout 17 1 0 0 0 1 0 0 0 -1 -1 -1;#X row 402 layout 17 1 0 0 0 1 0 0 0 -1 -1 -1;#X row 464 layout 17 1 0 0 0 1 0 0 0 -1 -1 -1;#X row 498 layout 17 1 0 0 0 1 0 0 0 -1 -1 -1;#X row 537 layout 17 1 0 0 0 1 0 0 0 -1 -1 -1;#X row 575 layout 17 1 0 0 0 1 0 0 0 -1 -1 -1;#X row 616 layout 17 1 0 0 0 1 0 0 0 -1 -1 -1;#X row 716 layout 17 1 0 0 0 1 0 0 0 -1 -1 -1;#X row 761 layout 17 1 0 0 0 1 0 0 0 -1 -1 -1;#X row 806 layout 17 1 0 0 0 1 0 0 0 -1 -1 -1;#X row 849 layout 17 1 0 0 0 1 0 0 0 -1 -1 -1;#X row 895 layout 17 1 0 0 0 1 0 0 0 -1 -1 -1;#X row 925 layout 36 1 0 0 0 1 0 0 0 -1 -1 -1;#X row 963 layout 17 1 0 0 0 1 0 0 0 -1 -1 -1;#X row 1045 layout 17 1 0 0 0 1 0 0 0 -1 -1 -1;#X row 1087 layout 17 1 0 0 0 1 0 0 0 -1 -1 -1;#X row 1127 layout 17 1 0 0 0 1 0 0 0 -1 -1 -1;#X row 1165 layout 17 1 0 0 0 1 0 0 0 -1 -1 -1;#X row 1204 layout 17 1 0 0 0 1 0 0 0 -1 -1 -1;#X row 1235 layout 17 1 0 0 0 1 0 0 0 -1 -1 -1;#X row 1271 layout 17 1 0 0 0 1 0 0 0 -1 -1 -1;#X row 1302 layout 17 1 0 0 0 1 0 0 0 -1 -1 -1;#X row 1326 layout 17 1 0 0 0 1 0 0 0 -1 -1 -1;#X row 1346 layout 17 1 0 0 0 1 0 0 0 -1 -1 -1;#X row 1361 layout 17 1 0 0 0 1 0 0 0 -1 -1 -1;#X row 1370 layout 17 1 0 0 0 1 0 0 0 -1 -1 -1;#X row 1374 layout 17 1 0 0 0 1 0 0 0 -1 -1 -1;#X row 1375 layout 17 1 0 0 0 1 0 0 0 -1 -1 -1;#X row 1373 layout 17 1 0 0 0 1 0 0 0 -1 -1 -1;#X row 1366 layout 17 1 0 0 0 1 0 0 0 -1 -1 -1;#X row 1354 layout 36 1 0 0 0 1 0 0 0 -1 -1 -1;#X row 1341 layout 17 1 0 0 0 1 0 0 0 -1 -1 -1;#X row 1323 layout 17 1 0 0 0 1 0 0 0 -1 -1 -1;#X row 1305 layout 17 1 0 0 0 1 0 0 0 -1 -1 -1;#X row 1273 layout 17 1 0 0 0 1 0 0 0 -1 -1 -1;#X row 1237 layout 17 1 0 0 0 1 0 0 0 -1 -1 -1;#X row 1197 layout 17 1 0 0 0 1 0 0 0 -1 -1 -1;#X row 1157 layout 17 1 0 0 0 1 0 0 0 -1 -1 -1;#X row 1118 layout 17 1 0 0 0 1 0 0 0 -1 -1 -1;#X row 1080 layout 17 1 0 0 0 1 0 0 0 -1 -1 -1;#X row 1041 layout 17 1 0 0 0 1 0 0 0 -1 -1 -1;#X row 1000 layout 17 1 0 0 0 1 0 0 0 -1 -1 -1;#X row 958 layout 17 1 0 0 0 1 0 0 0 -1 -1 -1;#X row 914 layout 17 1 0 0 0 1 0 0 0 -1 -1 -1;#X row 873 layout 17 1 0 0 0 1 0 0 0 -1 -1 -1;#X row 799 layout 17 1 0 0 0 1 0 0 0 -1 -1 -1;#X row 759 layout 17 1 0 0 0 1 0 0 0 -1 -1 -1;#X row 719 layout 17 1 0 0 0 1 0 0 0 -1 -1 -1;#X row 636 layout 17 1 0 0 0 1 0 0 0 -1 -1 -1;#X row 602 layout 17 1 0 0 0 1 0 0 0 -1 -1 -1;#X row 563 layout 17 1 0 0 0 1 0 0 0 -1 -1 -1;#X row 523 layout 36 1 0 0 0 1 0 0 0 -1 -1 -1;#X row 442 layout 17 1 0 0 0 1 0 0 0 -1 -1 -1;#X row 406 layout 36 1 0 0 0 1 0 0 0 -1 -1 -1;#X row 371 layout 17 1 0 0 0 1 0 0 0 -1 -1 -1;#X row 337 layout 17 1 0 0 0 1 0 0 0 -1 -1 -1;#X row 263 layout 34 1 0 0 0 1 0 0 0 -1 -1 -1;#X row 224 layout 34 1 0 0 0 1 0 0 0 -1 -1 -1;#X row 155 layout 34 1 0 0 0 1 0 0 0 -1 -1 -1;#X row 120 layout 34 1 0 0 0 1 0 0 0 -1 -1 -1;#X row 83 layout 34 1 0 0 0 1 0 0 0 -1 -1 -1;#X row 46 layout 34 1 0 0 0 1 0 0 0 -1 -1 -1;#X row 7 layout 34 1 0 0 0 1 0 0 0 -1 -1 -1;#X row 33 layout 34 1 0 0 0 1 0 0 0 -1 -1 -1;#X row 66 layout 34 1 0 0 0 1 0 0 0 -1 -1 -1;#X row 106 layout 34 1 0 0 0 1 0 0 0 -1 -1 -1;#X row 213 layout 34 1 0 0 0 1 0 0 0 -1 -1 -1;#X row 247 layout 34 1 0 0 0 1 0 0 0 -1 -1 -1;#X row 287 layout 34 1 0 0 0 1 0 0 0 -1 -1 -1;#X row 360 layout 17 1 0 0 0 1 0 0 0 -1 -1 -1;#X row 387 layout 17 1 0 0 0 1 0 0 0 -1 -1 -1;#X row 440 layout 36 1 0 0 0 1 0 0 0 -1 -1 -1;#X row 470 layout 17 1 0 0 0 1 0 0 0 -1 -1 -1;#X row 665 layout 17 1 0 0 0 1 0 0 0 -1 -1 -1;#X row 718 layout 17 1 0 0 0 1 0 0 0 -1 -1 -1;#X row 775 layout 17 1 0 0 0 1 0 0 0 -1 -1 -1;#X row 860 layout 17 1 0 0 0 1 0 0 0 -1 -1 -1;#X row 926 layout 17 1 0 0 0 1 0 0 0 -1 -1 -1;#X row 993 layout 17 1 0 0 0 1 0 0 0 -1 -1 -1;#X row 1058 layout 17 1 0 0 0 1 0 0 0 -1 -1 -1;#X row 1162 layout 17 1 0 0 0 1 0 0 0 -1 -1 -1;#X row 1184 layout 17 1 0 0 0 1 0 0 0 -1 -1 -1;#X row 1234 layout 17 1 0 0 0 1 0 0 0 -1 -1 -1;#X row 1277 layout 17 1 0 0 0 1 0 0 0 -1 -1 -1;#X row 1316 layout 17 1 0 0 0 1 0 0 0 -1 -1 -1;#X row 1357 layout 17 1 0 0 0 1 0 0 0 -1 -1 -1;#X row 1398 layout 17 1 0 0 0 1 0 0 0 -1 -1 -1;#X row 1438 layout 17 1 0 0 0 1 0 0 0 -1 -1 -1;#X row 1472 layout 17 1 0 0 0 1 0 0 0 -1 -1 -1;#X row 1492 layout 17 1 0 0 0 1 0 0 0 -1 -1 -1;#X row 1515 layout 17 1 0 0 0 1 0 0 0 -1 -1 -1;#X row 1536 layout 17 1 0 0 0 1 0 0 0 -1 -1 -1;#X row 1559 layout 17 1 0 0 0 1 0 0 0 -1 -1 -1;#X row 1579 layout 17 1 0 0 0 1 0 0 0 -1 -1 -1;#X row 1596 layout 17 1 0 0 0 1 0 0 0 -1 -1 -1;#X row 1608 layout 17 1 0 0 0 1 0 0 0 -1 -1 -1;#X row 1615 layout 17 1 0 0 0 1 0 0 0 -1 -1 -1;#X row 1617 layout 17 1 0 0 0 1 0 0 0 -1 -1 -1;#X row 1616 layout 36 1 0 0 0 1 0 0 0 -1 -1 -1;#X row 1609 layout 17 1 0 0 0 1 0 0 0 -1 -1 -1;#X row 1597 layout 17 1 0 0 0 1 0 0 0 -1 -1 -1;#X row 1537 layout 17 1 0 0 0 1 0 0 0 -1 -1 -1;#X row 1508 layout 17 1 0 0 0 1 0 0 0 -1 -1 -1;#X row 1478 layout 17 1 0 0 0 1 0 0 0 -1 -1 -1;#X row 1395 layout 17 1 0 0 0 1 0 0 0 -1 -1 -1;#X row 1349 layout 17 1 0 0 0 1 0 0 0 -1 -1 -1;#X row 1255 layout 17 1 0 0 0 1 0 0 0 -1 -1 -1;#X row 1207 layout 17 1 0 0 0 1 0 0 0 -1 -1 -1;#X row 1116 layout 17 1 0 0 0 1 0 0 0 -1 -1 -1;#X row 1074 layout 17 1 0 0 0 1 0 0 0 -1 -1 -1;#X row 1027 layout 17 1 0 0 0 1 0 0 0 -1 -1 -1;#X row 985 layout 17 1 0 0 0 1 0 0 0 -1 -1 -1;#X row 941 layout 17 1 0 0 0 1 0 0 0 -1 -1 -1;#X row 899 layout 17 1 0 0 0 1 0 0 0 -1 -1 -1;#X row 874 layout 17 1 0 0 0 1 0 0 0 -1 -1 -1;#X row 754 layout 17 1 0 0 0 1 0 0 0 -1 -1 -1;#X row 628 layout 17 1 0 0 0 1 0 0 0 -1 -1 -1;#X row 567 layout 17 1 0 0 0 1 0 0 0 -1 -1 -1;#X row 441 layout 17 1 0 0 0 1 0 0 0 -1 -1 -1;#X row 379 layout 17 1 0 0 0 1 0 0 0 -1 -1 -1;#X row 278 layout 34 1 0 0 0 1 0 0 0 -1 -1 -1;#X row 226 layout 34 1 0 0 0 1 0 0 0 -1 -1 -1;#X row 172 layout 34 1 0 0 0 1 0 0 0 -1 -1 -1;#X row 58 layout 34 1 0 0 0 1 0 0 0 -1 -1 -1;#X row 65 layout 34 1 0 0 0 1 0 0 0 -1 -1 -1;#X row 101 layout 34 1 0 0 0 1 0 0 0 -1 -1 -1;#X row 123 layout 34 1 0 0 0 1 0 0 0 -1 -1 -1;#X row 178 layout 34 1 0 0 0 1 0 0 0 -1 -1 -1;#X row 254 layout 34 1 0 0 0 1 0 0 0 -1 -1 -1;#X row 294 layout 34 1 0 0 0 1 0 0 0 -1 -1 -1;#X row 380 layout 17 1 0 0 0 1 0 0 0 -1 -1 -1;#X row 546 layout 17 1 0 0 0 1 0 0 0 -1 -1 -1;#X row 613 layout 17 1 0 0 0 1 0 0 0 -1 -1 -1;#X row 772 layout 17 1 0 0 0 1 0 0 0 -1 -1 -1;#X row 781 layout 17 1 0 0 0 1 0 0 0 -1 -1 -1;#X row 888 layout 17 1 0 0 0 1 0 0 0 -1 -1 -1;#X row 982 layout 17 1 0 0 0 1 0 0 0 -1 -1 -1;#X row 1089 layout 17 1 0 0 0 1 0 0 0 -1 -1 -1;#X row 1189 layout 17 1 0 0 0 1 0 0 0 -1 -1 -1;#X row 1259 layout 17 1 0 0 0 1 0 0 0 -1 -1 -1;#X row 1333 layout 17 1 0 0 0 1 0 0 0 -1 -1 -1;#X row 1404 layout 17 1 0 0 0 1 0 0 0 -1 -1 -1;#X row 1468 layout 17 1 0 0 0 1 0 0 0 -1 -1 -1;#X row 1557 layout 17 1 0 0 0 1 0 0 0 -1 -1 -1;#X row 1624 layout 17 1 0 0 0 1 0 0 0 -1 -1 -1;#X row 1644 layout 17 1 0 0 0 1 0 0 0 -1 -1 -1;#X row 1640 layout 17 1 0 0 0 1 0 0 0 -1 -1 -1;#X row 1611 layout 17 1 0 0 0 1 0 0 0 -1 -1 -1;#X row 1574 layout 17 1 0 0 0 1 0 0 0 -1 -1 -1;#X row 1532 layout 17 1 0 0 0 1 0 0 0 -1 -1 -1;#X row 1482 layout 36 1 0 0 0 1 0 0 0 -1 -1 -1;#X row 1429 layout 17 1 0 0 0 1 0 0 0 -1 -1 -1;#X row 1372 layout 17 1 0 0 0 1 0 0 0 -1 -1 -1;#X row 1310 layout 17 1 0 0 0 1 0 0 0 -1 -1 -1;#X row 1243 layout 17 1 0 0 0 1 0 0 0 -1 -1 -1;#X row 1176 layout 17 1 0 0 0 1 0 0 0 -1 -1 -1;#X row 1102 layout 17 1 0 0 0 1 0 0 0 -1 -1 -1;#X row 1022 layout 17 1 0 0 0 1 0 0 0 -1 -1 -1;#X row 931 layout 36 1 0 0 0 1 0 0 0 -1 -1 -1;#X row 922 layout 36 1 0 0 0 1 0 0 0 -1 -1 -1;#X row 831 layout 17 1 0 0 0 1 0 0 0 -1 -1 -1;#X row 749 layout 17 1 0 0 0 1 0 0 0 -1 -1 -1;#X row 590 layout 17 1 0 0 0 1 0 0 0 -1 -1 -1;#X row 516 layout 17 1 0 0 0 1 0 0 0 -1 -1 -1;#X row 449 layout 36 1 0 0 0 1 0 0 0 -1 -1 -1;#X row 437 layout 17 1 0 0 0 1 0 0 0 -1 -1 -1;#X row 284 layout 34 1 0 0 0 1 0 0 0 -1 -1 -1;#X row 240 layout 34 1 0 0 0 1 0 0 0 -1 -1 -1;#X row 199 layout 34 1 0 0 0 1 0 0 0 -1 -1 -1;#X row 164 layout 34 1 0 0 0 1 0 0 0 -1 -1 -1;#X row 130 layout 34 1 0 0 0 1 0 0 0 -1 -1 -1;#X row 96 layout 34 1 0 0 0 1 0 0 0 -1 -1 -1;#X row 38 layout 34 1 0 0 0 1 0 0 0 -1 -1 -1;#X row 10 layout 34 1 0 0 0 1 0 0 0 -1 -1 -1;#X row 17 layout 34 1 0 0 0 1 0 0 0 -1 -1 -1;#X row 19 layout 34 1 0 0 0 1 0 0 0 -1 -1 -1;#X row 21 layout 34 1 0 0 0 1 0 0 0 -1 -1 -1;#X row 25 layout 34 1 0 0 0 1 0 0 0 -1 -1 -1;#X row 27 layout 34 1 0 0 0 1 0 0 0 -1 -1 -1;#X row 30 layout 34 1 0 0 0 1 0 0 0 -1 -1 -1;#X row 31 layout 34 1 0 0 0 1 0 0 0 -1 -1 -1;#X row 34 layout 34 1 0 0 0 1 0 0 0 -1 -1 -1;#X row 35 layout 34 1 0 0 0 1 0 0 0 -1 -1 -1;#X row 36 layout 34 1 0 0 0 1 0 0 0 -1 -1 -1;#X row 37 layout 34 1 0 0 0 1 0 0 0 -1 -1 -1;#X row 41 layout 34 1 0 0 0 1 0 0 0 -1 -1 -1;#X row 42 layout 34 1 0 0 0 1 0 0 0 -1 -1 -1;#X row 43 layout 34 1 0 0 0 1 0 0 0 -1 -1 -1;#X row 44 layout 34 1 0 0 0 1 0 0 0 -1 -1 -1;#X row 48 layout 34 1 0 0 0 1 0 0 0 -1 -1 -1;#X row 49 layout 34 1 0 0 0 1 0 0 0 -1 -1 -1;#X row 51 layout 34 1 0 0 0 1 0 0 0 -1 -1 -1;#X row 52 layout 34 1 0 0 0 1 0 0 0 -1 -1 -1;#X row 53 layout 34 1 0 0 0 1 0 0 0 -1 -1 -1;#X row 55 layout 34 1 0 0 0 1 0 0 0 -1 -1 -1;#X row 56 layout 34 1 0 0 0 1 0 0 0 -1 -1 -1;#X row 57 layout 34 1 0 0 0 1 0 0 0 -1 -1 -1;#X row 61 layout 34 1 0 0 0 1 0 0 0 -1 -1 -1;#X row 62 layout 34 1 0 0 0 1 0 0 0 -1 -1 -1;#X row 63 layout 34 1 0 0 0 1 0 0 0 -1 -1 -1;#X row 64 layout 34 1 0 0 0 1 0 0 0 -1 -1 -1;#X row 71 layout 34 1 0 0 0 1 0 0 0 -1 -1 -1;#X row 82 layout 34 1 0 0 0 1 0 0 0 -1 -1 -1;#X row 86 layout 34 1 0 0 0 1 0 0 0 -1 -1 -1;#X row 87 layout 34 1 0 0 0 1 0 0 0 -1 -1 -1;#X row 89 layout 34 1 0 0 0 1 0 0 0 -1 -1 -1;#X row 95 layout 34 1 0 0 0 1 0 0 0 -1 -1 -1;#X row 97 layout 34 1 0 0 0 1 0 0 0 -1 -1 -1;#X row 99 layout 34 1 0 0 0 1 0 0 0 -1 -1 -1;#X row 105 layout 34 1 0 0 0 1 0 0 0 -1 -1 -1;#X row 107 layout 34 1 0 0 0 1 0 0 0 -1 -1 -1;#X row 113 layout 34 1 0 0 0 1 0 0 0 -1 -1 -1;#X row 118 layout 34 1 0 0 0 1 0 0 0 -1 -1 -1;#X row 125 layout 34 1 0 0 0 1 0 0 0 -1 -1 -1;#X row 128 layout 34 1 0 0 0 1 0 0 0 -1 -1 -1;#X row 131 layout 34 1 0 0 0 1 0 0 0 -1 -1 -1;#X row 132 layout 34 1 0 0 0 1 0 0 0 -1 -1 -1;#X row 134 layout 34 1 0 0 0 1 0 0 0 -1 -1 -1;#X row 135 layout 34 1 0 0 0 1 0 0 0 -1 -1 -1;#X row 136 layout 34 1 0 0 0 1 0 0 0 -1 -1 -1;#X row 137 layout 34 1 0 0 0 1 0 0 0 -1 -1 -1;#X row 138 layout 34 1 0 0 0 1 0 0 0 -1 -1 -1;#X row 139 layout 34 1 0 0 0 1 0 0 0 -1 -1 -1;#X row 140 layout 34 1 0 0 0 1 0 0 0 -1 -1 -1;#X row 145 layout 34 1 0 0 0 1 0 0 0 -1 -1 -1;#X row 146 layout 34 1 0 0 0 1 0 0 0 -1 -1 -1;#X row 148 layout 34 1 0 0 0 1 0 0 0 -1 -1 -1;#X row 150 layout 34 1 0 0 0 1 0 0 0 -1 -1 -1;#X row 170 layout 34 1 0 0 0 1 0 0 0 -1 -1 -1;#X row 176 layout 34 1 0 0 0 1 0 0 0 -1 -1 -1;#X row 177 layout 34 1 0 0 0 1 0 0 0 -1 -1 -1;#X row 181 layout 34 1 0 0 0 1 0 0 0 -1 -1 -1;#X row 220 layout 34 1 0 0 0 1 0 0 0 -1 -1 -1;#X row 227 layout 34 1 0 0 0 1 0 0 0 -1 -1 -1;#X row 234 layout 34 1 0 0 0 1 0 0 0 -1 -1 -1;#X row 235 layout 34 1 0 0 0 1 0 0 0 -1 -1 -1;#X row 236 layout 34 1 0 0 0 1 0 0 0 -1 -1 -1;#X row 238 layout 34 1 0 0 0 1 0 0 0 -1 -1 -1;#X row 243 layout 34 1 0 0 0 1 0 0 0 -1 -1 -1;#X row 245 layout 34 1 0 0 0 1 0 0 0 -1 -1 -1;#X row 246 layout 34 1 0 0 0 1 0 0 0 -1 -1 -1;#X row 248 layout 34 1 0 0 0 1 0 0 0 -1 -1 -1;#X row 250 layout 34 1 0 0 0 1 0 0 0 -1 -1 -1;#X row 251 layout 34 1 0 0 0 1 0 0 0 -1 -1 -1;#X row 252 layout 34 1 0 0 0 1 0 0 0 -1 -1 -1;#X row 255 layout 34 1 0 0 0 1 0 0 0 -1 -1 -1;#X row 271 layout 34 1 0 0 0 1 0 0 0 -1 -1 -1;#X row 276 layout 34 1 0 0 0 1 0 0 0 -1 -1 -1;#X row 282 layout 34 1 0 0 0 1 0 0 0 -1 -1 -1;#X row 299 layout 34 1 0 0 0 1 0 0 0 -1 -1 -1;#X row 321 layout 34 1 0 0 0 1 0 0 0 -1 -1 -1;#X row 336 layout 36 1 0 0 0 1 0 0 0 -1 -1 -1;#X row 345 layout 36 1 0 0 0 1 0 0 0 -1 -1 -1;#X row 356 layout 36 1 0 0 0 1 0 0 0 -1 -1 -1;#X row 367 layout 36 1 0 0 0 1 0 0 0 -1 -1 -1;#X row 377 layout 36 1 0 0 0 1 0 0 0 -1 -1 -1;#X row 382 layout 36 1 0 0 0 1 0 0 0 -1 -1 -1;#X row 388 layout 36 1 0 0 0 1 0 0 0 -1 -1 -1;#X row 392 layout 36 1 0 0 0 1 0 0 0 -1 -1 -1;#X row 397 layout 36 1 0 0 0 1 0 0 0 -1 -1 -1;#X row 398 layout 36 1 0 0 0 1 0 0 0 -1 -1 -1;#X row 400 layout 36 1 0 0 0 1 0 0 0 -1 -1 -1;#X row 416 layout 36 1 0 0 0 1 0 0 0 -1 -1 -1;#X row 417 layout 36 1 0 0 0 1 0 0 0 -1 -1 -1;#X row 420 layout 36 1 0 0 0 1 0 0 0 -1 -1 -1;#X row 430 layout 36 1 0 0 0 1 0 0 0 -1 -1 -1;#X row 475 layout 36 1 0 0 0 1 0 0 0 -1 -1 -1;#X row 484 layout 36 1 0 0 0 1 0 0 0 -1 -1 -1;#X row 504 layout 36 1 0 0 0 1 0 0 0 -1 -1 -1;#X row 512 layout 36 1 0 0 0 1 0 0 0 -1 -1 -1;#X row 515 layout 36 1 0 0 0 1 0 0 0 -1 -1 -1;#X row 519 layout 36 1 0 0 0 1 0 0 0 -1 -1 -1;#X row 521 layout 36 1 0 0 0 1 0 0 0 -1 -1 -1;#X row 522 layout 36 1 0 0 0 1 0 0 0 -1 -1 -1;#X row 524 layout 36 1 0 0 0 1 0 0 0 -1 -1 -1;#X row 526 layout 36 1 0 0 0 1 0 0 0 -1 -1 -1;#X row 528 layout 36 1 0 0 0 1 0 0 0 -1 -1 -1;#X row 530 layout 36 1 0 0 0 1 0 0 0 -1 -1 -1;#X row 532 layout 36 1 0 0 0 1 0 0 0 -1 -1 -1;#X row 535 layout 36 1 0 0 0 1 0 0 0 -1 -1 -1;#X row 538 layout 36 1 0 0 0 1 0 0 0 -1 -1 -1;#X row 547 layout 36 1 0 0 0 1 0 0 0 -1 -1 -1;#X row 555 layout 36 1 0 0 0 1 0 0 0 -1 -1 -1;#X row 560 layout 36 1 0 0 0 1 0 0 0 -1 -1 -1;#X row 564 layout 36 1 0 0 0 1 0 0 0 -1 -1 -1;#X row 591 layout 36 1 0 0 0 1 0 0 0 -1 -1 -1;#X row 622 layout 36 1 0 0 0 1 0 0 0 -1 -1 -1;#X row 627 layout 36 1 0 0 0 1 0 0 0 -1 -1 -1;#X row 641 layout 36 1 0 0 0 1 0 0 0 -1 -1 -1;#X row 649 layout 36 1 0 0 0 1 0 0 0 -1 -1 -1;#X row 658 layout 36 1 0 0 0 1 0 0 0 -1 -1 -1;#X row 680 layout 36 1 0 0 0 1 0 0 0 -1 -1 -1;#X row 684 layout 36 1 0 0 0 1 0 0 0 -1 -1 -1;#X row 692 layout 36 1 0 0 0 1 0 0 0 -1 -1 -1;#X row 694 layout 36 1 0 0 0 1 0 0 0 -1 -1 -1;#X row 697 layout 36 1 0 0 0 1 0 0 0 -1 -1 -1;#X row 709 layout 36 1 0 0 0 1 0 0 0 -1 -1 -1;#X row 722 layout 36 1 0 0 0 1 0 0 0 -1 -1 -1;#X row 729 layout 36 1 0 0 0 1 0 0 0 -1 -1 -1;#X row 742 layout 36 1 0 0 0 1 0 0 0 -1 -1 -1;#X row 755 layout 36 1 0 0 0 1 0 0 0 -1 -1 -1;#X row 783 layout 36 1 0 0 0 1 0 0 0 -1 -1 -1;#X row 803 layout 36 1 0 0 0 1 0 0 0 -1 -1 -1;#X row 846 layout 36 1 0 0 0 1 0 0 0 -1 -1 -1;#X row 858 layout 36 1 0 0 0 1 0 0 0 -1 -1 -1;#X row 868 layout 36 1 0 0 0 1 0 0 0 -1 -1 -1;#X row 875 layout 36 1 0 0 0 1 0 0 0 -1 -1 -1;#X row 885 layout 36 1 0 0 0 1 0 0 0 -1 -1 -1;#X row 903 layout 36 1 0 0 0 1 0 0 0 -1 -1 -1;#X row 913 layout 36 1 0 0 0 1 0 0 0 -1 -1 -1;#X row 919 layout 36 1 0 0 0 1 0 0 0 -1 -1 -1;#X row 921 layout 36 1 0 0 0 1 0 0 0 -1 -1 -1;#X row 923 layout 36 1 0 0 0 1 0 0 0 -1 -1 -1;#X row 943 layout 36 1 0 0 0 1 0 0 0 -1 -1 -1;#X row 948 layout 36 1 0 0 0 1 0 0 0 -1 -1 -1;#X row 961 layout 36 1 0 0 0 1 0 0 0 -1 -1 -1;#X row 981 layout 36 1 0 0 0 1 0 0 0 -1 -1 -1;#X row 998 layout 36 1 0 0 0 1 0 0 0 -1 -1 -1;#X row 1013 layout 36 1 0 0 0 1 0 0 0 -1 -1 -1;#X row 1043 layout 36 1 0 0 0 1 0 0 0 -1 -1 -1;#X row 1084 layout 36 1 0 0 0 1 0 0 0 -1 -1 -1;#X row 1112 layout 36 1 0 0 0 1 0 0 0 -1 -1 -1;#X row 1153 layout 36 1 0 0 0 1 0 0 0 -1 -1 -1;#X row 1196 layout 36 1 0 0 0 1 0 0 0 -1 -1 -1;#X row 1214 layout 36 1 0 0 0 1 0 0 0 -1 -1 -1;#X row 1216 layout 36 1 0 0 0 1 0 0 0 -1 -1 -1;#X row 1225 layout 36 1 0 0 0 1 0 0 0 -1 -1 -1;#X row 1226 layout 36 1 0 0 0 1 0 0 0 -1 -1 -1;#X row 1227 layout 36 1 0 0 0 1 0 0 0 -1 -1 -1;#X row 1238 layout 36 1 0 0 0 1 0 0 0 -1 -1 -1;#X row 1258 layout 36 1 0 0 0 1 0 0 0 -1 -1 -1;#X row 1275 layout 36 1 0 0 0 1 0 0 0 -1 -1 -1;#X row 1303 layout 36 1 0 0 0 1 0 0 0 -1 -1 -1;#X row 1403 layout 36 1 0 0 0 1 0 0 0 -1 -1 -1;#X row 1527 layout 36 1 0 0 0 1 0 0 0 -1 -1 -1;#X row 1577 layout 36 1 0 0 0 1 0 0 0 -1 -1 -1;#X row 1651 layout 36 1 0 0 0 1 0 0 0 -1 -1 -1;#X row 1672 layout 36 1 0 0 0 1 0 0 0 -1 -1 -1;#X row 1680 layout 36 1 0 0 0 1 0 0 0 -1 -1 -1;#X row 1684 layout 36 1 0 0 0 1 0 0 0 -1 -1 -1;#X row 1692 layout 36 1 0 0 0 1 0 0 0 -1 -1 -1;#X row 1721 layout 36 1 0 0 0 1 0 0 0 -1 -1 -1;#X row 1741 layout 36 1 0 0 0 1 0 0 0 -1 -1 -1;#X row 1771 layout 36 1 0 0 0 1 0 0 0 -1 -1 -1;#X row 1811 layout 36 1 0 0 0 1 0 0 0 -1 -1 -1;#X row 1854 layout 36 1 0 0 0 1 0 0 0 -1 -1 -1;#X row 1900 layout 36 1 0 0 0 1 0 0 0 -1 -1 -1;#X row 1952 layout 36 1 0 0 0 1 0 0 0 -1 -1 -1;#X row 1987 layout 36 1 0 0 0 1 0 0 0 -1 -1 -1;#X row 2012 layout 36 1 0 0 0 1 0 0 0 -1 -1 -1;#X row 2016 layout 36 1 0 0 0 1 0 0 0 -1 -1 -1;#X row 2050 layout 36 1 0 0 0 1 0 0 0 -1 -1 -1;#X row 2083 layout 36 1 0 0 0 1 0 0 0 -1 -1 -1;#X row 2113 layout 36 1 0 0 0 1 0 0 0 -1 -1 -1;#X row 2148 layout 36 1 0 0 0 1 0 0 0 -1 -1 -1;#X row 2178 layout 36 1 0 0 0 1 0 0 0 -1 -1 -1;#X row 2209 layout 36 1 0 0 0 1 0 0 0 -1 -1 -1;#X row 2265 layout 36 1 0 0 0 1 0 0 0 -1 -1 -1;#X row 2291 layout 36 1 0 0 0 1 0 0 0 -1 -1 -1;#X row 2297 layout 36 1 0 0 0 1 0 0 0 -1 -1 -1;#X row 2320 layout 36 1 0 0 0 1 0 0 0 -1 -1 -1;#X row 2328 layout 36 1 0 0 0 1 0 0 0 -1 -1 -1;#X row 2348 layout 36 1 0 0 0 1 0 0 0 -1 -1 -1;#X row 2388 layout 36 1 0 0 0 1 0 0 0 -1 -1 -1;#X row 2415 layout 36 1 0 0 0 1 0 0 0 -1 -1 -1;#X row 2445 layout 36 1 0 0 0 1 0 0 0 -1 -1 -1;#X row 2477 layout 36 1 0 0 0 1 0 0 0 -1 -1 -1;#X row 2500 layout 36 1 0 0 0 1 0 0 0 -1 -1 -1;#X row 2533 layout 36 1 0 0 0 1 0 0 0 -1 -1 -1;#X row 2580 layout 36 1 0 0 0 1 0 0 0 -1 -1 -1;#X row 2604 layout 36 1 0 0 0 1 0 0 0 -1 -1 -1;#X row 2620 layout 36 1 0 0 0 1 0 0 0 -1 -1 -1;#X row 2621 layout 36 1 0 0 0 1 0 0 0 -1 -1 -1;#X row 2630 layout 36 1 0 0 0 1 0 0 0 -1 -1 -1;#X row 2654 layout 36 1 0 0 0 1 0 0 0 -1 -1 -1;#X row 2699 layout 36 1 0 0 0 1 0 0 0 -1 -1 -1;#X row 2746 layout 36 1 0 0 0 1 0 0 0 -1 -1 -1;#X row 2799 layout 36 1 0 0 0 1 0 0 0 -1 -1 -1;#X row 2808 layout 36 1 0 0 0 1 0 0 0 -1 -1 -1;#X row 2886 layout 36 1 0 0 0 1 0 0 0 -1 -1 -1;#X row 2952 layout 36 1 0 0 0 1 0 0 0 -1 -1 -1;#X row 2999 layout 36 1 0 0 0 1 0 0 0 -1 -1 -1;#X row 3004 layout 36 1 0 0 0 1 0 0 0 -1 -1 -1;#X row 3022 layout 36 1 0 0 0 1 0 0 0 -1 -1 -1;#X row 3033 layout 36 1 0 0 0 1 0 0 0 -1 -1 -1;#X row 3070 layout 36 1 0 0 0 1 0 0 0 -1 -1 -1;#X row 3102 layout 36 1 0 0 0 1 0 0 0 -1 -1 -1;#X row 3141 layout 36 1 0 0 0 1 0 0 0 -1 -1 -1;#X row 3178 layout 36 1 0 0 0 1 0 0 0 -1 -1 -1;#X row 3238 layout 36 1 0 0 0 1 0 0 0 -1 -1 -1;#X row 3290 layout 36 1 0 0 0 1 0 0 0 -1 -1 -1;#X row 3321 layout 36 1 0 0 0 1 0 0 0 -1 -1 -1;#X row 3347 layout 36 1 0 0 0 1 0 0 0 -1 -1 -1;#X row 3362 layout 36 1 0 0 0 1 0 0 0 -1 -1 -1;#X row 3365 layout 36 1 0 0 0 1 0 0 0 -1 -1 -1;#X row 24 layout 34 1 139 0 0 1 0 0 0 -1 -1 -1;#X row 26 layout 34 1 0 0 0 1 0 0 0 -1 -1 -1;#X row 28 layout 34 1 0 0 0 1 0 0 0 -1 -1 -1;#X row 40 layout 34 1 0 0 0 1 0 0 0 -1 -1 -1;#X row 50 layout 34 1 0 0 0 1 0 0 0 -1 -1 -1;#X row 60 layout 34 1 0 0 0 1 0 0 0 -1 -1 -1;#X row 68 layout 34 1 0 0 0 1 0 0 0 -1 -1 -1;#X row 69 layout 34 1 0 0 0 1 0 0 0 -1 -1 -1;#X row 70 layout 34 1 0 0 0 1 0 0 0 -1 -1 -1;#X row 72 layout 34 1 0 0 0 1 0 0 0 -1 -1 -1;#X row 74 layout 34 1 0 0 0 1 0 0 0 -1 -1 -1;#X row 75 layout 34 1 0 0 0 1 0 0 0 -1 -1 -1;#X row 77 layout 34 1 0 0 0 1 0 0 0 -1 -1 -1;#X row 78 layout 34 1 0 0 0 1 0 0 0 -1 -1 -1;#X row 79 layout 34 1 0 0 0 1 0 0 0 -1 -1 -1;#X row 80 layout 34 1 0 0 0 1 0 0 0 -1 -1 -1;#X row 81 layout 34 1 0 0 0 1 0 0 0 -1 -1 -1;#X row 84 layout 34 1 0 0 0 1 0 0 0 -1 -1 -1;#X row 85 layout 34 1 0 0 0 1 0 0 0 -1 -1 -1;#X row 88 layout 34 1 0 0 0 1 0 0 0 -1 -1 -1;#X row 92 layout 34 1 0 0 0 1 0 0 0 -1 -1 -1;#X row 102 layout 34 1 0 0 0 1 0 0 0 -1 -1 -1;#X row 103 layout 34 1 0 0 0 1 0 0 0 -1 -1 -1;#X row 104 layout 34 1 0 0 0 1 0 0 0 -1 -1 -1;#X row 108 layout 34 1 0 0 0 1 0 0 0 -1 -1 -1;#X row 109 layout 34 1 0 0 0 1 0 0 0 -1 -1 -1;#X row 110 layout 34 1 0 0 0 1 0 0 0 -1 -1 -1;#X row 112 layout 34 1 0 0 0 1 0 0 0 -1 -1 -1;#X row 114 layout 34 1 0 0 0 1 0 0 0 -1 -1 -1;#X row 117 layout 34 1 0 0 0 1 0 0 0 -1 -1 -1;#X row 119 layout 34 1 0 0 0 1 0 0 0 -1 -1 -1;#X row 121 layout 34 1 0 0 0 1 0 0 0 -1 -1 -1;#X row 124 layout 34 1 0 0 0 1 0 0 0 -1 -1 -1;#X row 127 layout 34 1 0 0 0 1 0 0 0 -1 -1 -1;#X row 129 layout 34 1 0 0 0 1 0 0 0 -1 -1 -1;#X row 141 layout 34 1 0 0 0 1 0 0 0 -1 -1 -1;#X row 144 layout 34 1 0 0 0 1 0 0 0 -1 -1 -1;#X row 149 layout 34 1 0 0 0 1 0 0 0 -1 -1 -1;#X row 151 layout 34 1 0 0 0 1 0 0 0 -1 -1 -1;#X row 153 layout 34 1 0 0 0 1 0 0 0 -1 -1 -1;#X row 154 layout 34 1 0 0 0 1 0 0 0 -1 -1 -1;#X row 156 layout 34 1 0 0 0 1 0 0 0 -1 -1 -1;#X row 157 layout 34 1 0 0 0 1 0 0 0 -1 -1 -1;#X row 158 layout 34 1 0 0 0 1 0 0 0 -1 -1 -1;#X row 159 layout 34 1 0 0 0 1 0 0 0 -1 -1 -1;#X row 160 layout 34 1 0 0 0 1 0 0 0 -1 -1 -1;#X row 161 layout 34 1 0 0 0 1 0 0 0 -1 -1 -1;#X row 163 layout 34 1 0 0 0 1 0 0 0 -1 -1 -1;#X row 166 layout 34 1 0 0 0 1 0 0 0 -1 -1 -1;#X row 167 layout 34 1 0 0 0 1 0 0 0 -1 -1 -1;#X row 168 layout 34 1 0 0 0 1 0 0 0 -1 -1 -1;#X row 169 layout 34 1 0 0 0 1 0 0 0 -1 -1 -1;#X row 171 layout 34 1 0 0 0 1 0 0 0 -1 -1 -1;#X row 173 layout 34 1 0 0 0 1 0 0 0 -1 -1 -1;#X row 174 layout 34 1 0 0 0 1 0 0 0 -1 -1 -1;#X row 182 layout 34 1 0 0 0 1 0 0 0 -1 -1 -1;#X row 183 layout 34 1 0 0 0 1 0 0 0 -1 -1 -1;#X row 184 layout 34 1 0 0 0 1 0 0 0 -1 -1 -1;#X row 185 layout 34 1 0 0 0 1 0 0 0 -1 -1 -1;#X row 186 layout 34 1 0 0 0 1 0 0 0 -1 -1 -1;#X row 187 layout 34 1 0 0 0 1 0 0 0 -1 -1 -1;#X row 190 layout 34 1 0 0 0 1 0 0 0 -1 -1 -1;#X row 191 layout 34 1 0 0 0 1 0 0 0 -1 -1 -1;#X row 192 layout 34 1 0 0 0 1 0 0 0 -1 -1 -1;#X row 193 layout 34 1 0 0 0 1 0 0 0 -1 -1 -1;#X row 194 layout 34 1 0 0 0 1 0 0 0 -1 -1 -1;#X row 195 layout 34 1 0 0 0 1 0 0 0 -1 -1 -1;#X row 196 layout 34 1 0 0 0 1 0 0 0 -1 -1 -1;#X row 197 layout 34 1 0 0 0 1 0 0 0 -1 -1 -1;#X row 198 layout 34 1 0 0 0 1 0 0 0 -1 -1 -1;#X row 200 layout 34 1 0 0 0 1 0 0 0 -1 -1 -1;#X row 203 layout 34 1 0 0 0 1 0 0 0 -1 -1 -1;#X row 204 layout 34 1 0 0 0 1 0 0 0 -1 -1 -1;#X row 206 layout 34 1 0 0 0 1 0 0 0 -1 -1 -1;#X row 207 layout 34 1 0 0 0 1 0 0 0 -1 -1 -1;#X row 208 layout 34 1 0 0 0 1 0 0 0 -1 -1 -1;#X row 209 layout 34 1 0 0 0 1 0 0 0 -1 -1 -1;#X row 210 layout 34 1 0 0 0 1 0 0 0 -1 -1 -1;#X row 212 layout 34 1 0 0 0 1 0 0 0 -1 -1 -1;#X row 214 layout 34 1 0 0 0 1 0 0 0 -1 -1 -1;#X row 215 layout 34 1 0 0 0 1 0 0 0 -1 -1 -1;#X row 216 layout 34 1 0 0 0 1 0 0 0 -1 -1 -1;#X row 218 layout 34 1 0 0 0 1 0 0 0 -1 -1 -1;#X row 219 layout 34 1 0 0 0 1 0 0 0 -1 -1 -1;#X row 221 layout 34 1 0 0 0 1 0 0 0 -1 -1 -1;#X row 222 layout 34 1 0 0 0 1 0 0 0 -1 -1 -1;#X row 225 layout 34 1 0 0 0 1 0 0 0 -1 -1 -1;#X row 228 layout 34 1 0 0 0 1 0 0 0 -1 -1 -1;#X row 229 layout 34 1 0 0 0 1 0 0 0 -1 -1 -1;#X row 231 layout 34 1 0 0 0 1 0 0 0 -1 -1 -1;#X row 237 layout 34 1 0 0 0 1 0 0 0 -1 -1 -1;#X row 241 layout 34 1 0 0 0 1 0 0 0 -1 -1 -1;#X row 242 layout 34 1 0 0 0 1 0 0 0 -1 -1 -1;#X row 244 layout 34 1 0 0 0 1 0 0 0 -1 -1 -1;#X row 253 layout 34 1 0 0 0 1 0 0 0 -1 -1 -1;#X row 256 layout 34 1 0 0 0 1 0 0 0 -1 -1 -1;#X row 259 layout 34 1 0 0 0 1 0 0 0 -1 -1 -1;#X row 260 layout 34 1 0 0 0 1 0 0 0 -1 -1 -1;#X row 262 layout 34 1 0 0 0 1 0 0 0 -1 -1 -1;#X row 264 layout 34 1 0 0 0 1 0 0 0 -1 -1 -1;#X row 266 layout 34 1 0 0 0 1 0 0 0 -1 -1 -1;#X row 267 layout 34 1 0 0 0 1 0 0 0 -1 -1 -1;#X row 268 layout 34 1 0 0 0 1 0 0 0 -1 -1 -1;#X row 269 layout 34 1 0 0 0 1 0 0 0 -1 -1 -1;#X row 270 layout 34 1 0 0 0 1 0 0 0 -1 -1 -1;#X row 272 layout 34 1 0 0 0 1 0 0 0 -1 -1 -1;#X row 274 layout 34 1 0 0 0 1 0 0 0 -1 -1 -1;#X row 275 layout 34 1 0 0 0 1 0 0 0 -1 -1 -1;#X row 280 layout 34 1 0 0 0 1 0 0 0 -1 -1 -1;#X row 281 layout 34 1 0 0 0 1 0 0 0 -1 -1 -1;#X row 283 layout 34 1 0 0 0 1 0 0 0 -1 -1 -1;#X row 285 layout 34 1 0 0 0 1 0 0 0 -1 -1 -1;#X row 286 layout 34 1 0 0 0 1 0 0 0 -1 -1 -1;#X row 288 layout 34 1 0 0 0 1 0 0 0 -1 -1 -1;#X row 289 layout 34 1 0 0 0 1 0 0 0 -1 -1 -1;#X row 291 layout 34 1 0 0 0 1 0 0 0 -1 -1 -1;#X row 292 layout 34 1 0 0 0 1 0 0 0 -1 -1 -1;#X row 296 layout 34 1 0 0 0 1 0 0 0 -1 -1 -1;#X row 297 layout 34 1 0 0 0 1 0 0 0 -1 -1 -1;#X row 298 layout 34 1 0 0 0 1 0 0 0 -1 -1 -1;#X row 300 layout 34 1 0 0 0 1 0 0 0 -1 -1 -1;#X row 302 layout 34 1 0 0 0 1 0 0 0 -1 -1 -1;#X row 304 layout 34 1 0 0 0 1 0 0 0 -1 -1 -1;#X row 305 layout 34 1 0 0 0 1 0 0 0 -1 -1 -1;#X row 306 layout 34 1 0 0 0 1 0 0 0 -1 -1 -1;#X row 307 layout 34 1 0 0 0 1 0 0 0 -1 -1 -1;#X row 308 layout 34 1 0 0 0 1 0 0 0 -1 -1 -1;#X row 309 layout 34 1 0 0 0 1 0 0 0 -1 -1 -1;#X row 310 layout 34 1 0 0 0 1 0 0 0 -1 -1 -1;#X row 311 layout 34 1 0 0 0 1 0 0 0 -1 -1 -1;#X row 314 layout 34 1 0 0 0 1 0 0 0 -1 -1 -1;#X row 315 layout 34 1 0 0 0 1 0 0 0 -1 -1 -1;#X row 316 layout 34 1 0 0 0 1 0 0 0 -1 -1 -1;#X row 317 layout 34 1 0 0 0 1 0 0 0 -1 -1 -1;#X row 318 layout 34 1 0 0 0 1 0 0 0 -1 -1 -1;#X row 319 layout 34 1 0 0 0 1 0 0 0 -1 -1 -1;#X row 320 layout 34 1 0 0 0 1 0 0 0 -1 -1 -1;#X row 324 layout 34 1 0 0 0 1 0 0 0 -1 -1 -1;#X row 326 layout 34 1 0 0 0 1 0 0 0 -1 -1 -1;#X row 327 layout 34 1 0 0 0 1 0 0 0 -1 -1 -1;#X row 329 layout 34 1 0 0 0 1 0 0 0 -1 -1 -1;#X col 0 layout 110 1 94 0 0 1 0 0 0 0 4 -1;#X col 6 layout 30 1 94 0 0 1 0 0 0 -1 -1 -1;#X col 5 layout 30 1 5 0 0 1 0 161 224 1 -1 -1;#X col 3 layout 20 1 0 0 0 1 0 0 0 1 -1 -1;#X col 2 layout 41 1 0 0 0 1 0 0 0 1 -1 -1;#X col 1 layout 187 1 83 22 0 1 0 0 0 -1 1 -1;#X col 4 layout 25 1 73 50 0 1 0 0 0 1 -1 -1;#X col 7 layout 31 1 94 0 0 1 102 187 128 -1 -1 -1;#P objectname cellblockq;#P user ubutton 234 682 61 20 0 2;#P objectname newcuebutton;#P window setfont "Sans Serif" 12.;#P comment 234 683 63 196620 new cue;#P objectname newcuelabel;#P user panel 232 683 60 19;#X brgb 255 255 255;#X frgb 147 147 147;#X border 1;#X rounded 0;#X shadow 0;#X done;#P objectname newcue-truc;#P user ubutton 295 683 122 20 0 2;#P objectname reload-button;#P comment 297 683 123 196620 refresh comments;#P objectname reload;#P user panel 294 683 125 19;#X brgb 255 255 255;#X frgb 0 146 207;#X border 1;#X rounded 0;#X shadow 0;#X done;#P objectname refresh-truc;#P connect 28 0 26 0;#P fasten 12 0 19 0 509 198 499 198 499 4 509 4;#P connect 19 0 33 0;#P connect 33 0 12 0;#P fasten 13 0 12 0 574 176 509 176;#P fasten 16 0 12 0 521 160 509 160;#P connect 31 0 10 0;#P connect 11 0 10 0;#P connect 35 0 36 0;#P connect 36 0 37 0;#P connect 25 0 15 0;#P connect 24 0 15 0;#P connect 15 0 16 0;#P connect 31 0 32 0;#P connect 32 0 30 0;#P connect 28 0 29 0;#P connect 31 1 32 1;#P connect 31 1 9 0;#P connect 9 0 8 0;#P connect 10 0 8 0;#P connect 23 0 14 0;#P connect 14 0 13 0;#P connect 28 1 29 1;#P connect 31 2 32 2;#P connect 28 2 29 2;#P connect 31 3 11 0;#P connect 34 0 22 0;#P connect 28 0 22 0;#P connect 22 0 20 0;#P fasten 21 0 20 0 706 391 647 391;#P connect 20 0 27 0;#P connect 42 0 39 0;#P connect 39 0 38 0;#P connect 41 0 38 0;#P connect 38 0 40 0;#P connect 28 1 21 0;#P connect 28 3 34 0;#P pop;#P newobj 751 166 149 196622 p cue-manager_edit;#B color 6;#N vpatcher 667 44 1385 831;#P window setfont "Sans Serif" 9.;#P window linecount 1;#P newex 152 216 112 196617 s /cue-list/newcuetxt;#B color 11;#P message 487 313 53 196617 readagain;#P message 543 313 58 196617 writeagain;#P message 519 397 74 196617 refer conduite;#P button 401 249 15 0;#P newex 512 723 138 196617 s /cue-list/refreshcellblock;#B color 12;#P window linecount 2;#P message 509 681 157 196617 \; /cue-list/refreshcellblock bang \;;#P window linecount 1;#P newex 299 731 156 196617 s /cue-list/init/done;#B color 12;#P newex 299 688 50 196617 deferlow;#B color 12;#P newex 356 649 44 196617 del 100;#P window linecount 4;#P message 356 671 138 196617 \; /cue-list/sw/init bang \; /cue-list/update bang \; /cue-list/tomenu 0 \;;#P window linecount 1;#N coll conduite 1;#P newobj 378 126 75 196617 coll conduite 1;#B color 5;#N coll conduite 1;#P newobj 561 340 75 196617 coll conduite 1;#B color 5;#P window linecount 0;#P newex 378 76 29 196617 gate;#P window linecount 3;#P message 356 606 162 196617 bang \; /cue-list/comment/display bang \; /cue-list/cellblock/outgate 1;#P window linecount 1;#P newex 356 583 44 196617 del 100;#P newex 356 531 38 196617 del 50;#P window linecount 2;#P message 356 552 172 196617 bang \; /cue-list/tocellblock refer conduite;#P window linecount 1;#P newex 378 313 50 196617 deferlow;#P newex 401 229 100 196617 r /cue-list/reorder;#B color 12;#P newex 401 271 152 196617 t b b b;#P message 432 313 52 196617 sort -1 1;#P window linecount 4;#P message 356 475 183 196617 bang \; /cue-list/cellblock/outgate 0 \; /cue-list/tocellblock mode selmode 1 \; /cue-list/refreshcellblock bang \;;#P window linecount 1;#P newex 42 94 134 196617 r /cue-list/fromnewcuetxt;#B color 12;#P newex 195 425 112 196617 s /cue-list/newcuetxt;#B color 11;#P comment 78 519 31 196617 build;#P newex 17 62 196 196617 t b b;#P button 17 44 15 0;#P newex 17 23 103 196617 r /cue-list/init;#B color 11;#P number 104 351 35 9 0 0 0 3 0 0 0 221 221 221 222 222 222 0 0 0;#P window linecount 0;#P newex 45 374 69 196617 t b 0 b;#P button 45 327 15 0;#P window linecount 1;#P newex 397 54 126 196617 r /cue-list/fromcellblock;#B color 12;#P newex 378 420 113 196617 s /cue-list/tocellblock;#B color 12;#P newex 378 155 138 196617 r /cue-list/refreshcellblock;#B color 12;#P window setfont "Sans Serif" 12.;#N vpatcher 5 71 818 881;#P origin 0 9;#P window setfont "Sans Serif" 9.;#P window linecount 1;#P newex 199 767 138 196617 s /cue-list/refreshcellblock;#B color 12;#P newex 125 248 540 196617 route 2 3 4 5 6 7;#P newex 83 39 52 196617 route 0 1;#P button 174 723 15 0;#P button 113 687 15 0;#P newex 632 659 51 196617 tosymbol;#P newex 632 683 75 196617 prepend delete;#P newex 9 410 156 196617 r /cue-list/cue/playwriteopen;#B color 9;#P newex 634 490 117 196617 r /cue-list/cue/erase;#B color 11;#P window linecount 0;#P newex 224 615 108 196617 r /cue-list/neworder;#B color 11;#P message 198 226 104 196617 slide10;#P window linecount 1;#P newex 198 202 62 196617 prepend set;#P newex 177 85 60 196617 t b i b;#P message 227 108 60 196617 start \, bang;#P newex 177 107 40 196617 uzi;#P message 177 133 30 196617 next;#P newex 198 179 69 196617 route symbol;#B color 15;#P newex 177 64 44 196617 zl nth 2;#N coll conduite 1;#P newobj 177 158 75 196617 coll conduite 1;#B color 5;#P inlet 83 20 15 0;#P outlet 249 696 15 0;#P newex 279 297 45 196617 t open b;#P newex 279 318 47 196617 pcontrol;#P newex 575 358 40 196617 t close;#P window linecount 0;#P newex 565 277 45 196617 t open b;#P newex 565 301 47 196617 pcontrol;#P newex 632 637 125 196617 sprintf %sevents/%s.txt;#P button 632 595 15 0;#P newex 632 616 62 196617 projectpath;#B color 3;#P newex 632 705 40 196617 fscopy;#P window linecount 1;#P newex 617 560 40 196617 t b b l;#P newex 617 438 36 196617 zl reg;#P newex 617 515 104 196617 sprintf remove %s 3;#N vpatcher 116 56 337 197;#P origin -8 -30;#N comlet yes;#P hidden outlet 128 328 15 0;#P window setfont "Sans Serif" 18.;#P window linecount 1;#P comment 16 8 177 196626 !!!!!! WARNING !!!!!!;#N comlet no;#P hidden outlet 265 328 15 0;#P window setfont "Sans Serif" 12.;#P comment 58 61 83 196620 YES OR NO ?;#P comment 8 41 204 196620 DO YOU WANT ERAZE THIS CUE ?;#P window setfont "Sans Serif" 9.;#P hidden message 101 88 160 196617 window flags grow \, window exec;#P hidden message 100 107 170 196617 window flags nogrow \, window exec;#P hidden inlet 498 63 15 0;#N comlet yes;#P hidden outlet 245 328 15 0;#P window linecount 0;#P hidden newex 245 236 41 196617 sel 0 1;#P hidden message 543 110 19 196617 -1;#P hidden button 498 82 15 0;#N thispatcher;#Q end;#P hidden newobj 498 141 61 196617 thispatcher;#P window linecount 1;#P comment 96 105 84 196617 NO;#P user radiogroup 78 87 18 32;#X size 2;#X offset 16;#X inactive 0;#X itemtype 0;#X flagmode 0;#X set 0;#X done;#P window linecount 0;#P comment 95 88 84 196617 YES;#P user panel -21 -1 243 143;#X brgb 248 0 0;#X frgb 0 0 0;#X border 1;#X rounded 0;#X shadow 0;#X done;#P hidden connect 6 0 2 0;#P hidden connect 5 0 10 0;#P hidden connect 7 0 16 0;#P hidden connect 7 1 16 0;#P hidden connect 2 0 7 0;#P hidden connect 7 0 8 0;#P hidden fasten 7 1 14 0 265 290 270 290;#P hidden connect 9 0 5 0;#P hidden connect 10 0 4 0;#P hidden connect 11 0 4 0;#P hidden connect 5 0 6 0;#P pop;#P newobj 581 334 83 196617 p delete this cue;#B color 14;#P button 153 558 15 0;#P window setfont "Sans Serif" 12.;#P window linecount 0;#N vpatcher 20 74 153 231;#P origin 0 -9;#P window setfont "Sans Serif" 9.;#P window linecount 1;#P message 234 257 14 196617 l;#P window linecount 0;#P message 214 257 14 196617 -;#P window setfont "Sans Serif" 12.;#P window linecount 1;#P comment 20 40 83 196620 YES OR NO ?;#P comment -1 21 134 196620 CUE IN Sequence ?;#P window setfont "Sans Serif" 9.;#P hidden message 62 68 160 196617 window flags grow \, window exec;#P hidden message 61 87 170 196617 window flags nogrow \, window exec;#P hidden inlet 490 44 15 0;#P hidden outlet 221 309 15 0;#P window linecount 0;#P hidden newex 237 217 41 196617 sel 1 0;#P hidden message 535 91 19 196617 -1;#P hidden button 490 63 15 0;#N thispatcher;#Q end;#P hidden newobj 490 122 61 196617 thispatcher;#P window linecount 1;#P comment 57 85 84 196617 NO;#P user radiogroup 39 67 18 32;#X size 2;#X offset 16;#X inactive 0;#X itemtype 0;#X flagmode 0;#X set -1;#X done;#P window linecount 0;#P comment 56 68 84 196617 YES;#P hidden connect 5 0 1 0;#P hidden connect 4 0 9 0;#P connect 6 0 13 0;#P connect 13 0 7 0;#P connect 14 0 7 0;#P connect 6 1 14 0;#P hidden connect 1 0 6 0;#P hidden connect 8 0 4 0;#P hidden connect 10 0 3 0;#P hidden connect 9 0 3 0;#P hidden connect 4 0 5 0;#P pop;#P newobj 384 395 131 196620 p Cue_in_sequenciel;#B color 6;#P window setfont "Sans Serif" 9.;#P window linecount 1;#P newex 358 293 27 196617 b 2;#P message 375 320 30 196617 open;#P comment 375 283 38 196617 open;#P newex 365 604 27 196617 t b l;#P newex 430 516 62 196617 prepend set;#P newex 365 572 40 196617 append;#P newex 365 516 36 196617 zl reg;#P newex 365 546 90 196617 sprintf nsub %s 3;#P newex 279 275 22 196617 b 1;#P newex 384 425 56 196617 t close b s;#P message 519 316 35 196617 write;#P newex 498 292 27 196617 b 2;#P newex 174 696 50 196617 deferlow;#P newex 174 745 80 196617 s /cue-list/init;#B color 12;#P newex 174 641 85 196617 t b l;#P newex 174 533 66 196617 t b s;#P newex 230 557 62 196617 prepend set;#P newex 174 617 40 196617 append;#P newex 174 558 49 196617 zl reg;#P newex 174 591 90 196617 sprintf nsub %s 2;#P newex 174 395 69 196617 route symbol;#P newex 174 374 154 196617 dialog Cue Position In Sequentiel;#P newex 208 315 22 196617 b 1;#P newex 51 554 29 196617 t 1 l;#P newex 423 292 27 196617 b 2;#P newex 50 494 36 196617 zl reg;#P newex 53 618 61 196617 forward;#B color 12;#P newex 51 532 101 196617 sprintf send %s/%s;#P message 440 319 29 196617 play;#P comment 440 282 38 196617 reload;#P connect 18 0 4 0;#P connect 5 0 4 0;#P connect 29 0 4 0;#P fasten 4 0 2 0 55 530 56 530;#P connect 2 0 6 0;#P connect 58 0 6 0;#P connect 6 0 3 0;#P connect 6 1 3 0;#P connect 55 0 4 1;#P connect 46 0 63 0;#P connect 63 2 64 0;#P connect 19 0 2 1;#P fasten 1 0 2 1 445 361 147 361;#P fasten 28 0 2 1 380 361 147 361;#P connect 14 0 31 0;#P connect 7 0 8 0;#P connect 8 0 9 0;#P connect 9 0 14 0;#P connect 14 0 11 0;#P connect 11 0 10 0;#P connect 10 0 12 0;#P connect 13 0 12 0;#P connect 12 0 15 0;#P connect 56 0 15 0;#P connect 35 0 17 0;#P connect 26 0 17 0;#P connect 61 0 17 0;#P connect 15 0 17 0;#P connect 17 0 62 0;#P connect 62 0 16 0;#P fasten 63 2 48 0 130 60 182 60;#P connect 48 0 53 0;#P connect 53 0 51 0;#P connect 51 0 50 0;#P fasten 52 0 47 0 232 154 182 154;#P connect 50 0 47 0;#P connect 47 1 49 0;#P connect 49 0 54 0;#P connect 54 0 55 0;#P fasten 51 1 55 0 197 129 281 129 281 220 203 220;#P connect 53 1 51 1;#P connect 64 0 7 0;#P connect 55 0 11 1;#P connect 53 2 52 0;#P connect 14 1 13 0;#P connect 26 1 45 0;#P connect 35 2 45 0;#P connect 15 1 45 0;#P connect 64 1 21 0;#P connect 21 0 44 0;#P connect 20 0 43 0;#P connect 44 0 43 0;#P connect 64 2 29 0;#P connect 20 1 23 0;#P connect 23 0 22 0;#P connect 22 0 24 0;#P connect 25 0 24 0;#P connect 24 0 26 0;#P connect 29 1 28 0;#P connect 44 1 30 0;#P connect 43 0 30 0;#P connect 30 0 20 0;#P connect 55 0 23 1;#P connect 64 3 5 0;#P connect 20 2 25 0;#P connect 5 1 1 0;#P connect 64 4 18 0;#P connect 18 1 19 0;#P connect 64 5 41 0;#P connect 41 0 40 0;#P fasten 42 0 40 0 580 378 560 378 560 298 570 298;#P connect 32 0 42 0;#P connect 41 1 32 0;#P connect 40 0 32 0;#P connect 32 1 34 0;#P connect 57 0 33 0;#P connect 34 0 33 0;#P connect 33 0 35 0;#P connect 35 1 38 0;#P connect 38 0 37 0;#P connect 37 0 39 0;#P connect 39 0 60 0;#P connect 60 0 59 0;#P connect 59 0 36 0;#P connect 55 0 34 1;#P connect 55 0 39 1;#P pop;#P newobj 378 98 107 196620 p open & reload;#B color 6;#P window setfont "Sans Serif" 9.;#P newex 203 115 113 196617 s /cue-list/tocellblock;#B color 12;#P window setfont "Sans Serif" 12.;#N vpatcher 10 384 378 702;#P window setfont "Sans Serif" 9.;#P message 206 199 101 196617 0 0 \, mode selmode 0;#P button 42 27 15 0;#P button 206 179 15 0;#P window linecount 0;#P newex 22 47 114 196617 t b 0;#P toggle 50 137 15 0;#P window linecount 1;#P newex 206 157 32 196617 sel 0;#P newex 50 109 40 196617 change;#P newex 50 164 32 196617 sel 1;#P message 22 69 67 196617 interval 100;#P newex 22 88 66 196617 modifiers;#P message 50 199 103 196617 0 0 \, mode selmode 1;#P inlet 22 27 15 0;#P outlet 206 261 15 0;#P connect 11 0 9 0;#P connect 1 0 9 0;#P connect 9 0 4 0;#P connect 4 0 3 0;#P connect 3 2 6 0;#P fasten 9 1 8 0 131 131 55 131;#P connect 6 0 8 0;#P connect 8 0 5 0;#P connect 5 0 2 0;#P fasten 8 0 7 0 55 154 211 154;#P connect 7 0 10 0;#P connect 10 0 12 0;#P connect 12 0 0 0;#P fasten 2 0 0 0 55 232 211 232;#P pop;#P newobj 203 87 113 196620 p key-interaction;#B color 6;#P window setfont "Sans Serif" 9.;#P newex 143 551 85 196617 t b l;#P newex 42 134 57 196617 route bang;#P window setfont "Sans Serif" 12.;#N vpatcher 288 180 769 721;#P window setfont "Sans Serif" 9.;#P window linecount 1;#P newex 246 195 73 196617 route int float;#P newex 284 227 64 196617 fromsymbol;#P button 39 26 15 0;#P button 112 175 15 0;#P window linecount 0;#P message 40 224 33 196617 dump;#P newex 246 173 40 196617 route l;#P button 54 174 15 0;#P newex 73 202 104 196617 t cue-sheet__EMPTY;#P newex 73 173 32 196617 sel 0;#P newex 73 143 114 196617 grab;#P inlet 18 27 15 0;#P newex 246 293 45 196617 rounder;#B color 6;#P newex 246 272 41 196617 * 100.;#P newex 246 152 44 196617 zl rot 1;#P newex 246 132 51 196617 zl ecils 4;#P newex 128 442 47 196617 zl group;#P newex 128 489 140 196617 s /events/fromqlistmanager;#B color 12;#P newex 128 418 84 196617 route symbol int;#P newex 18 54 403 196617 t dump length dump clear;#N coll ;#P newobj 128 395 85 196617 coll;#B color 5;#P newex 205 111 51 196617 zl slice 1;#P newex 246 316 120 196617 sprintf %i %s;#N coll conduite 1;#P newobj 205 82 75 196617 coll conduite 1;#B color 5;#P connect 20 0 4 0;#P connect 12 0 4 0;#P connect 14 0 16 0;#P connect 4 1 13 0;#P connect 13 0 14 0;#P connect 19 0 15 0;#P connect 14 0 15 0;#P connect 4 1 3 0;#P connect 18 0 3 0;#P fasten 4 3 3 0 416 363 133 363;#P connect 13 1 3 0;#P fasten 4 0 3 0 23 249 133 249;#P connect 1 0 3 0;#P connect 3 0 5 0;#P connect 5 0 7 0;#P connect 7 0 6 0;#P connect 15 0 6 0;#P connect 5 1 7 1;#P connect 4 2 0 0;#P fasten 0 0 2 0 210 105 210 105;#P connect 2 1 8 0;#P connect 8 0 9 0;#P connect 9 0 17 0;#P connect 17 0 22 0;#P connect 21 0 10 0;#P connect 22 0 10 0;#P connect 22 1 10 0;#P connect 10 0 11 0;#P connect 11 0 1 0;#P connect 22 2 21 0;#P fasten 0 1 1 1 231 105 361 105;#P pop;#P newobj 394 367 121 196620 p eventmotor_disp;#B color 7;#N vpatcher 499 44 833 748;#P origin -142 44;#P window setfont "Sans Serif" 9.;#P window linecount 1;#P newex 106 333 51 196617 tosymbol;#P newex 82 121 37 196617 pipe 1;#P newex 18 190 50 196617 deferlow;#P newex 106 355 68 196617 prepend read;#P newex 221 290 51 196617 tosymbol;#P newex 127 484 20 196617 t -;#P window linecount 0;#P newex 106 455 122 196617 route ** **comment**;#P newex 106 427 51 196617 route set;#P message 123 381 35 196617 line 1;#P newex 106 264 112 196617 t b s;#P newex 106 313 125 196617 sprintf %sevents/%s.txt;#P newex 106 290 62 196617 projectpath;#B color 5;#P newex 106 399 40 196617 text;#P button 18 209 15 0;#N comlet done;#P outlet 18 226 15 0;#P newex 106 538 38 196617 t b s;#P newex 49 438 50 196617 deferlow;#P newex 49 417 20 196617 t b;#P newex 49 459 50 196617 t resume;#P newex 82 180 37 196617 t next;#P newex 122 180 42 196617 t pause;#P number 82 103 35 9 0 0 0 3 0 0 0 221 221 221 222 222 222 0 0 0;#N coll conduite 1;#P newobj 82 83 83 196617 coll conduite 1;#B color 5;#P newex 82 150 50 196617 uzi;#P button 82 44 15 0;#P newex 82 63 111 196617 t length start;#P newex 106 236 78 196617 route symbol;#N coll conduite 1;#P newobj 82 210 83 196617 coll conduite 1;#B color 5;#N comlet to coll;#P outlet 106 653 15 0;#P inlet 82 25 15 0;#P newex 106 517 51 196617 tosymbol;#P newex 106 626 38 196617 zl join;#P button 106 559 15 0;#P newex 106 578 179 196617 zl reg;#P newex 106 601 90 196617 sprintf nsub %s 1;#P connect 11 1 32 0;#P connect 32 0 21 0;#P connect 21 0 20 0;#P connect 31 0 17 0;#P connect 17 0 18 0;#P connect 18 0 16 0;#P connect 5 0 10 0;#P connect 10 0 9 0;#P connect 9 0 12 0;#P connect 12 0 13 0;#P connect 13 0 33 0;#P fasten 16 0 11 0 54 481 43 481 43 143 87 143;#P fasten 14 0 11 0 127 200 176 200 176 146 87 146;#P connect 33 0 11 0;#P connect 11 0 15 0;#P connect 15 0 7 0;#P fasten 9 1 7 0 188 205 87 205;#P connect 7 1 8 0;#P connect 8 0 25 0;#P connect 25 0 23 0;#P connect 23 0 24 0;#P connect 24 0 34 0;#P connect 34 0 31 0;#P connect 31 0 22 0;#P connect 26 0 22 0;#P connect 22 0 27 0;#P connect 27 0 28 0;#P connect 29 0 4 0;#P connect 28 0 4 0;#P connect 4 0 19 0;#P connect 19 0 2 0;#P connect 2 0 1 0;#P connect 1 0 0 0;#P connect 0 0 3 0;#P connect 3 0 6 0;#P connect 11 2 14 0;#P fasten 22 1 26 0 126 420 162 420 162 377 128 377;#P connect 28 1 29 0;#P connect 28 2 29 0;#P connect 19 1 3 1;#P connect 25 1 30 0;#P connect 30 0 24 1;#P fasten 8 0 1 1 111 259 280 259;#P pop;#P newobj 378 200 193 196620 p comment et pos-> sequentiel;#B color 6;#P button 378 344 15 0;#P newex 89 481 110 196620 conduite_events;#B color 6;#P toggle 378 55 15 0;#P window setfont "Sans Serif" 9.;#P newex 378 33 143 196617 r /cue-list/cellblock/outgate;#B color 12;#P message 378 397 101 196617 0 0 \, mode selmode 0;#P newex 152 241 138 196617 s /cue-list/refreshcellblock;#B color 12;#P newex 89 154 58 196617 t s s 1;#P newex 89 229 29 196617 gate;#P newex 113 195 49 196617 t 0 clear;#N coll conduite 1;#P newobj 113 174 75 196617 coll conduite 1;#B color 5;#P button 378 181 15 0;#P newex 143 623 69 196617 route symbol;#P newex 117 306 36 196617 t s b;#P newex 117 286 127 196617 r /cue-list/loadcue/name;#B color 12;#P newex 30 265 127 196617 r /cue-list/newcue/name;#B color 11;#P newex 143 643 127 196617 s /cue-list/loadcue/name;#B color 12;#P newex 89 452 131 196617 sprintf script delete cue%i;#P newex 45 346 55 196617 uzi;#P message 45 518 33 196617 dump;#P newex 30 288 51 196617 t s b;#P window linecount 2;#P newex 143 518 131 196617 sprintf store %s " - " 999 - open play write erase;#P window linecount 1;#N counter 1 999999;#X flags 0 0;#P newobj 143 343 92 196617 counter 1 999999;#P window setfont "Sans Serif" 12.;#N vpatcher 45 554 995 878;#P origin 111 -19;#P window setfont "Sans Serif" 9.;#P newex 12 34 20 196617 t b;#P window linecount 1;#P newex 25 86 514 196617 t l l l l l;#P message 403 157 156 196617 set ** replace_for_comment \\\;;#N comlet text;#P inlet 576 18 15 0;#P window linecount 0;#P newex 12 133 30 196617 t b s;#P newex 12 112 115 196617 sprintf send %s/reload;#P newex 151 133 30 196617 t b s;#P newex 151 112 112 196617 sprintf send %s/write;#P newex 403 133 168 196617 t b s;#P newex 403 112 81 196617 sprintf send %s;#P newex 755 210 32 196617 * 20;#N comlet text;#P inlet 623 163 15 0;#P newex 576 134 30 196617 t b s;#P newex 606 208 27 196617 i;#N comlet to this patcher;#P outlet 624 280 15 0;#P newex 624 258 40 196617 t clear;#N comlet to this patcher;#P outlet 606 280 15 0;#N comlet text;#P inlet 25 56 15 0;#P window setfont "Sans Serif" 12.;#P newex 151 217 58 196620 forward;#B color 12;#P window setfont "Sans Serif" 9.;#P newex 606 233 309 196617 sprintf script new cue%ld newex 15 %ld 200 18000 qlistshell %s;#P connect 16 0 19 0;#P connect 18 0 14 0;#P connect 14 0 15 0;#P connect 2 0 18 0;#P connect 18 1 12 0;#P connect 12 0 13 0;#P fasten 15 0 1 0 17 213 156 213;#P fasten 15 1 1 0 37 208 156 208;#P fasten 13 0 1 0 156 195 156 195;#P fasten 13 1 1 0 176 195 156 195;#P fasten 17 0 1 0 408 200 156 200;#P fasten 11 1 1 0 566 204 156 204;#P connect 2 0 10 0;#P connect 18 3 10 0;#P connect 10 0 11 0;#P connect 11 0 17 0;#P connect 18 4 7 0;#P fasten 16 0 7 0 581 105 581 105;#P lcolor 15;#P fasten 7 0 6 0 581 188 611 188;#P connect 6 0 0 0;#P connect 0 0 3 0;#P connect 8 0 6 1;#P connect 0 0 4 0;#P connect 4 0 5 0;#P fasten 8 0 9 0 628 194 760 194;#P connect 9 0 0 1;#P fasten 7 1 0 2 601 156 909 156;#P pop;#P newobj 39 400 166 196620 p qlistmaker;#B color 6;#P window setfont "Sans Serif" 9.;#P message 143 572 58 196617 writeagain;#N coll conduite 1;#P newobj 143 596 163 196617 coll conduite 1;#B color 5;#P newex 42 114 56 196617 route text;#P window linecount 0;#P comment 60 329 64 196617 delete/build;#P connect 40 0 41 0;#P connect 41 0 42 0;#P connect 19 0 7 0;#P connect 12 0 7 0;#P fasten 7 0 4 0 35 396 44 396;#P lcolor 7;#P connect 45 0 1 0;#P connect 1 0 29 0;#P fasten 42 0 37 0 22 322 50 322;#P connect 37 0 9 0;#P connect 9 1 38 0;#P connect 38 0 8 0;#P connect 29 1 20 0;#P connect 20 2 19 0;#P connect 18 0 19 0;#P connect 9 2 10 0;#P connect 4 0 25 0;#P connect 10 0 25 0;#P connect 39 0 9 1;#P connect 38 1 9 1;#P connect 5 0 39 0;#P connect 20 0 19 1;#P connect 20 1 17 0;#P connect 17 0 18 0;#P connect 13 0 14 0;#P connect 14 0 4 1;#P connect 7 1 5 0;#P connect 14 1 5 0;#P fasten 7 0 6 0 35 509 148 509;#P lcolor 7;#P connect 6 0 30 0;#P connect 30 0 3 0;#P fasten 30 1 2 0 223 591 148 591;#P connect 3 0 2 0;#P connect 8 0 2 0;#P fasten 2 1 15 0 199 618 148 618;#P connect 15 0 11 0;#P connect 18 1 68 0;#P connect 19 0 21 0;#P connect 38 2 5 2;#P connect 5 0 4 2;#P connect 4 1 44 0;#P connect 42 1 31 0;#P connect 31 0 32 0;#P connect 59 0 60 0;#P connect 60 0 61 0;#P connect 2 3 46 0;#P connect 46 0 52 0;#P connect 52 0 51 0;#P connect 51 0 53 0;#P connect 53 0 54 0;#P connect 54 0 59 0;#P connect 59 0 58 0;#P connect 23 0 24 0;#P connect 24 0 55 0;#P connect 55 0 33 0;#P connect 33 0 57 0;#P connect 34 0 16 0;#P connect 16 0 27 0;#P connect 48 0 50 0;#P connect 50 0 26 0;#P connect 26 0 22 0;#P fasten 65 0 35 0 524 416 383 416;#P connect 22 0 35 0;#P connect 26 0 28 0;#P connect 36 0 55 1;#P connect 49 0 64 0;#P fasten 27 0 48 0 383 268 406 268;#P connect 64 0 48 0;#P connect 48 0 47 0;#P connect 48 1 67 0;#P connect 48 2 66 0;#P connect 67 0 56 0;#P connect 66 0 56 0;#P connect 27 1 56 0;#P fasten 47 0 56 0 437 333 566 333;#P pop;#P newobj 751 138 113 196622 p cue-manager;#B color 6;#P window setfont "Sans Serif" 9.;#P newex 769 481 44 196617 del 100;#P window setfont Times 9.;#P newex 769 502 68 1310729 s /cue-list/built;#B color 11;#P window setfont "Sans Serif" 9.;#P newex 769 460 48 196617 loadbang;#P window linecount 3;#P comment 820 462 80 196617 Must be present in module for build to happen !;#P user panel 766 457 136 65;#X brgb 255 0 0;#X frgb 0 0 0;#X border 1;#X rounded 0;#X shadow 0;#X done;#P window linecount 1;#P newex 766 422 130 196617 r /cue-list/prepnext;#B color 12;#P message 587 391 30 196617 none;#P newex 694 562 166 196617 s /cue-list/current_name;#B color 12;#P newex 780 103 100 196617 s /qmanager/editor;#B color 12;#P window setfont "Sans Serif" 10.;#P newex 502 663 145 196618 s /cue-list/nextcomment_;#B color 4;#P newex 174 508 159 196618 s /cue-list/onstagecomment_;#B color 4;#P newex 560 229 102 196618 s /cue-list/next_;#B color 4;#P newex 316 547 116 196618 s /cue-list/onstage_;#B color 4;#P window setfont "Sans Serif" 9.;#P newex 595 337 179 196617 r /cue-list/nextevent/menu/incdec;#B color 12;#P user incdec 576 338 15 15 0 0;#P newex 347 615 106 196617 s /cue-list/nextcue;#B color 12;#N vpatcher 907 223 1245 425;#P window setfont "Sans Serif" 9.;#P window linecount 1;#P message 12 139 93 196617 brgb 255 255 255;#P message 227 113 69 196617 brgb 150 0 0;#P window linecount 0;#P newex 274 50 32 196617 sel 0;#P message 23 112 92 196617 frgb 147 147 147;#P message 150 112 68 196617 frgb 207 0 0;#N comlet from mouse up bang;#P inlet 23 62 15 0;#N comlet from right outlet;#P inlet 274 30 15 0;#N comlet from mouse down bang;#P inlet 150 58 15 0;#N comlet to panel;#P outlet 150 160 15 0;#P connect 3 0 8 0;#P connect 6 0 5 0;#P connect 3 0 5 0;#P connect 1 0 4 0;#P connect 4 0 0 0;#P connect 5 0 0 0;#P connect 7 0 0 0;#P connect 8 0 0 0;#P connect 1 0 7 0;#P connect 2 0 6 0;#P pop;#P newobj 375 193 79 196617 p updowncolors;#B color 6;#P window linecount 2;#P newex 799 223 129 196617 makeswitch /cue-list/sw bogus bogus_switchstate 1;#P window setfont "Sans Serif" 10.;#P window linecount 1;#P newex 255 447 71 196618 pvar onstage;#B color 14;#P button 501 277 18 0;#P objectname trigger;#P window setfont "Sans Serif" 9.;#P newex 1051 62 41 196617 sel 0 1;#P message 1066 105 104 196617 script hide qmanager;#P message 1051 85 109 196617 script show qmanager;#P message 1051 38 75 196617 $2;#P newex 844 316 146 196617 r /cue-list/build;#B color 12;#P newex 545 169 93 196617 fixedsize 512 120;#B color 6;#P newex 545 149 180 196617 editorwindow /cue-list /tapemovie;#B color 6;#P newex 545 10 67 196617 pvar nogrow;#P newex 676 38 57 196617 pvar grow;#P window linecount 3;#P message 545 81 109 196617 window flags nogrow \, window flags noclose \, window exec;#P button 545 57 15 0;#P button 676 62 15 0;#P message 676 82 97 196617 window flags grow \, window flags close \, window exec;#P window linecount 1;#P hidden message 234 34 43 196617 nogrow;#P objectname nogrow;#P hidden message 201 34 33 196617 grow;#P objectname grow;#N thispatcher;#Q end;#P newobj 545 126 61 196617 thispatcher;#P button 361 383 15 0;#P message 361 405 42 196617 color 0;#P window setfont "Sans Serif" 10.;#P newex 361 423 109 196618 pvar text_nextevent;#B color 14;#P button 349 453 15 0;#P window setfont "Sans Serif" 9.;#P message 349 473 42 196617 color 0;#P window setfont "Sans Serif" 12.;#P user textedit 18 84 490 107 32896 3 12 replace_for_comment;#P objectname onstagecomment;#P window setfont "Sans Serif" 10.;#P newex 349 490 97 196618 pvar text_onstage;#B color 14;#P window setfont "Sans Serif" 9.;#P comment 19 65 107 196617 current event :;#P objectname text_onstage;#P comment 18 25 92 196617 next event :;#P objectname text_nextevent;#P user ubumenu 18 23 472 196617 0 1 1 2;#X setrgb 31 31 31 133 133 255 234 234 234 4 4 4 141 141 141 112 112 112;#X add ready;#X add slide02;#X add slide03;#X add slide04;#X add slide05;#X add slide06;#X add src-fft-reson;#X add slide07;#X add slide08;#X add slide09;#X add slide99;#X add end;#X prefix_set 0 0 <none> 0;#P objectname next;#P window setfont "Sans Serif" 14.;#P user ubumenu 18 63 472 196622 0 0 1 2;#X setrgb 31 31 31 239 91 102 234 234 234 4 4 4 141 141 141 112 112 112;#X add asdfff;#X prefix_set 0 0 <none> 0;#P objectname onstage;#P window setfont "Sans Serif" 9.;#P newex 203 320 32 196617 sel 1;#P newex 203 348 51 196617 zl reg;#P newex 203 245 44 196617 zl rot 2;#P window linecount 2;#P newex 292 307 49 196617 if $i1 < 1 then bang;#P number 292 286 35 9 0 0 0 3 0 0 0 221 221 221 222 222 222 0 0 0;#P window linecount 1;#P newex 292 265 39 196617 timer;#P message 337 264 87 196617 brgb 16 216 108;#P window linecount 2;#P message 278 339 50 196617 brgb 239 91 102;#P window linecount 1;#P newex 278 243 129 196617 sel play done;#P newex 278 218 51 196617 zl slice 1;#P newex 237 196 51 196617 zl slice 1;#P newex 203 173 72 196617 r /qlist/print;#B color 12;#P newex 203 401 46 196617 t l clear;#P newex 39 534 131 196617 s /cue-list/nextcomment;#B color 12;#P newex 40 465 64 196617 fromsymbol;#P newex 40 443 51 196617 zl ecils 2;#P newex 40 371 115 196617 t s clear;#P newex 55 486 62 196617 prepend set;#P newex 40 396 58 196617 sprintf %s;#N coll conduite 1;#P newobj 40 419 75 196617 coll conduite 1;#B color 5;#P window setfont "Sans Serif" 10.;#P newex 54 511 114 196618 pvar onstagecomment;#B color 14;#P window setfont "Sans Serif" 9.;#P message 780 38 74 196617 frgb 20 20 20;#P message 956 38 90 196617 text cue-manager;#P message 857 38 93 196617 brgb 133 133 255;#P newex 277 754 131 196617 s /cue-list/nextcomment;#B color 12;#P newex 71 256 69 196617 route symbol;#P newex 20 190 20 196617 t b;#P newex 20 170 149 196617 r /cue-list/comment/display;#B color 12;#P window linecount 2;#P newex 71 281 67 196617 sprintf send %s/comment;#P window linecount 1;#P newex 20 317 47 196617 forward;#P message 20 212 33 196617 dump;#P newex 20 250 51 196617 zl ecils 3;#N coll conduite 1;#P newobj 20 231 164 196617 coll conduite 1;#B color 5;#P newex 277 682 64 196617 fromsymbol;#P newex 468 737 32 196617 sel 0;#P newex 468 757 40 196617 t clear;#P newex 277 660 51 196617 zl ecils 2;#P user jsui 26 2 95 16 3 0 0 jsui_textbutton.js qmanager;#P objectname qmanager;#P newex 163 720 103 196617 s /qlistmanager/init;#B color 12;#P newex 799 257 77 196617 colorchooser 3;#B color 5;#P newex 799 278 57 196617 pvar panel;#P window setfont Times 9.;#P newex 799 336 18 1310729 t b;#P window setfont "Sans Serif" 9.;#P newex 780 62 77 196617 pvar qmanager;#B color 15;#P window setfont Times 9.;#P newex 799 316 43 1310729 pvar init;#P message 3 2 19 1310729 init;#B color 12;#P objectname init;#P window setfont "Sans Serif" 9.;#P window linecount 2;#P message 799 360 114 196617 \; /cue-list/init bang \;;#P window linecount 1;#P newex 697 215 52 196617 pvar sw;#P newex 697 235 98 196617 vari /cue-list/sw;#B color 5;#P newex 780 8 48 196617 loadbang;#B color 14;#P newex 40 557 140 196617 r /events/fromqlistmanager;#B color 12;#P newex 277 588 115 196617 t s clear;#P window setfont "Sans Serif" 10.;#P newex 476 337 93 196618 pvar next 2;#B color 14;#P window setfont "Sans Serif" 9.;#P newex 288 702 62 196617 prepend set;#P newex 277 613 58 196617 sprintf %s;#P user ubumenu 468 718 100 196617 0 1 1 0;#X add ready;#X add slide02;#X add slide03;#X add slide04;#X add slide05;#X add slide06;#X add src-fft-reson;#X add slide07;#X add slide08;#X add slide09;#X add slide99;#X add end;#X prefix_set 0 0 <none> 0;#P objectname dummy_menu;#N coll conduite 1;#P newobj 277 636 75 196617 coll conduite 1;#B color 5;#P window setfont "Sans Serif" 10.;#P newex 288 731 100 196618 pvar nextcomment;#B color 14;#P window setfont "Sans Serif" 9.;#P newex 37 720 105 196617 s /events/totextedit;#B color 12;#N vpatcher 10 59 421 487;#P origin -588 -379;#P window setfont "Sans Serif" 9.;#P window linecount 0;#P message 106 322 55 196617 append end;#P newex 164 219 27 196617 gate;#P newex 181 182 32 196617 != 59;#P newex 164 161 27 196617 t l i;#P window linecount 8;#P comment 38 122 100 196617 in case semiolon is still considered a character (which is the case when the patch is first loaded if the subpatcher with the text is not open.;#P window linecount 1;#P newex 164 242 27 196617 itoa;#P newex 164 139 27 196617 atoi;#P newex 20 338 27 196617 + 1;#N comlet combien in list;#P outlet 20 361 15 0;#P newex 20 317 27 196617 i;#P newex 20 50 154 196617 t b l;#N comlet to coll;#P outlet 164 361 15 0;#N comlet comment output;#P inlet 20 28 15 0;#P message 271 322 99 196617 clear \, append ready;#P newex 164 263 28 196617 t s b;#P newex 164 321 90 196617 sprintf append %s;#N counter;#X flags 0 0;#P newobj 182 284 66 196617 counter;#P newex 164 74 71 196617 t l b;#P newex 164 118 45 196617 zl iter 1;#P comment 140 162 23 196617 -->;#P connect 7 0 9 0;#P connect 9 0 10 0;#P lcolor 1;#P connect 10 0 12 0;#P connect 12 0 11 0;#P connect 3 0 10 1;#P fasten 9 0 19 0 25 240 111 240;#P lcolor 1;#P connect 9 1 2 0;#P connect 2 0 1 0;#P connect 1 0 13 0;#P connect 13 0 16 0;#P connect 17 0 18 0;#P connect 18 0 14 0;#P connect 14 0 5 0;#P connect 5 0 4 0;#P connect 4 0 8 0;#P fasten 6 0 8 0 276 346 169 346;#P fasten 19 0 8 0 111 346 169 346;#P connect 16 1 17 0;#P connect 16 0 18 1;#P connect 5 1 3 0;#P fasten 2 1 3 2 230 147 215 147;#P fasten 2 1 6 0 230 94 276 94;#P pop;#P newobj 40 638 98 196617 p qlistmanager2coll;#B color 4;#N coll /cue-list-list 1;#P newobj 57 609 128 196617 coll /cue-list-list 1;#B color 5;#N vpatcher 10 59 448 524;#P window setfont "Sans Serif" 9.;#P window linecount 0;#P message 91 367 65 196617 store end /cue-list;#P newex 166 220 27 196617 gate;#P newex 183 183 32 196617 != 59;#P newex 166 162 27 196617 t l i;#P window linecount 8;#P comment 40 123 100 196617 in case semiolon is still considered a character (which is the case when the patch is first loaded if the subpatcher with the text is not open.;#P window linecount 1;#P newex 166 243 27 196617 itoa;#P newex 166 140 27 196617 atoi;#P newex 22 341 27 196617 + 1;#N comlet combien in list;#P outlet 22 408 15 0;#P newex 22 320 27 196617 i;#P newex 22 51 154 196617 t b l;#N comlet to coll;#P outlet 166 408 15 0;#N comlet comment output;#P inlet 22 29 15 0;#P message 286 367 101 196617 clear \, store ready 0;#P newex 166 264 28 196617 t s b;#P newex 166 366 103 196617 sprintf store %s %ld;#N counter 1 999999;#X flags 0 0;#P newobj 184 285 97 196617 counter 1 999999;#P newex 166 75 70 196617 t l b;#P newex 166 119 45 196617 zl iter 1;#P comment 142 163 23 196617 -->;#P connect 7 0 9 0;#P connect 9 0 10 0;#P lcolor 1;#P connect 10 0 12 0;#P connect 12 0 11 0;#P connect 3 0 10 1;#P connect 12 0 19 0;#P connect 9 1 2 0;#P connect 2 0 1 0;#P connect 1 0 13 0;#P connect 13 0 16 0;#P connect 17 0 18 0;#P connect 18 0 14 0;#P connect 14 0 5 0;#P connect 5 0 4 0;#P fasten 6 0 8 0 291 397 171 397;#P connect 4 0 8 0;#P fasten 19 0 8 0 96 397 171 397;#P connect 16 1 17 0;#P connect 16 0 18 1;#P connect 5 1 3 0;#P connect 2 1 3 2;#P fasten 3 0 4 1 189 309 264 309;#P fasten 2 1 6 0 231 117 291 117;#P pop;#P newobj 55 581 98 196617 p qlistmanager2coll;#B color 4;#P newex 37 691 122 196617 r /cue-list/update;#B color 12;#P newex 773 719 61 196617 prepend set;#P newex 773 691 27 196617 + 1;#P number 773 672 35 9 0 0 0 3 0 0 0 221 221 221 222 222 222 0 0 0;#N coll /cue-list-list 1;#P newobj 773 650 104 196617 coll /cue-list-list 1;#B color 5;#P newex 644 672 45 196617 forward;#P newex 644 624 27 196617 t 1 l;#P newex 661 650 106 196617 sprintf send %s/play;#P newex 603 604 51 196617 route end;#P window linecount 2;#P newex 203 369 54 196617 sprintf append %s;#P button 512 436 15 0;#P window linecount 1;#P newex 649 413 27 196617 t b l;#P message 512 489 29 196617 next;#P newex 512 466 44 196617 onebang;#P newex 551 560 62 196617 route ready;#P newex 559 368 100 196617 route ready;#P newex 551 539 68 196617 route symbol;#P newex 666 436 65 196617 prepend goto;#P newex 603 581 27 196617 t l b;#N coll /cue-list-list 1;#P newobj 512 513 128 196617 coll /cue-list-list 1;#B color 5;#P message 559 391 27 196617 stop;#P comment 126 4 158 196617 <space bar to go to the next cue>;#P newex 512 413 130 196617 r /cue-list/trignext_;#B color 12;#P newex 501 313 144 196617 s /cue-list/trignext_;#B color 12;#P newex 40 665 123 196617 s /cue-list/tomenu;#B color 12;#P newex 773 740 123 196617 s /cue-list/tomenu;#B color 12;#P newex 468 193 137 196617 r /cue-list/tomenu;#B color 12;#P user textedit 18 38 490 60 32897 3 9;#P objectname nextcomment;#P window linecount 2;#P comment 4 123 227 196617 /cue-list : prefix name \; $2 : show/hide refresh and qmanager button;#P window setfont "Sans Serif" 10.;#P window linecount 1;#P comment 376 4 90 196618 /cue-list;#B frgb 240 240 240;#P user panel 376 3 90 16;#X brgb 64 64 64;#X frgb 0 0 0;#X border 0;#X rounded 8;#X shadow 0;#X done;#P window setfont "Sans Serif" 9.;#P newex 203 299 51 196617 zl slice 1;#P newex 203 274 51 196617 zl slice 1;#P newex 501 248 35 196617 sel 32;#P newex 501 226 40 196617 key;#P user ubutton 313 2 30 20 0 2;#P window setfont "Sans Serif" 14.;#P comment 315 2 29 196622 GO;#P objectname reload;#P user panel 312 2 33 19;#X brgb 255 255 255;#X frgb 147 147 147;#X border 1;#X rounded 0;#X shadow 0;#X done;#P user panel 0 0 497 111;#X brgb 203 255 173;#X frgb 40 75 32;#X border 1;#X rounded 4;#X shadow 1;#X done;#P objectname panel;#P window setfont "Sans Serif" 9.;#P newex 780 82 37 196617 t open;#P connect 73 0 74 0;#P connect 74 0 70 0;#P connect 70 0 68 0;#P connect 68 0 69 0;#P connect 69 0 71 0;#P fasten 72 0 71 0 76 313 25 313;#P fasten 39 0 43 0 42 712 42 712;#P connect 86 0 87 0;#P fasten 99 0 84 0 208 367 45 367;#P connect 84 0 82 0;#P connect 82 0 81 0;#P connect 81 0 85 0;#P connect 85 0 86 0;#P connect 51 0 42 0;#P fasten 42 1 15 0 130 660 45 660;#P connect 83 0 80 0;#P fasten 84 1 80 0 150 507 59 507;#P connect 86 0 83 0;#P connect 51 0 40 0;#P fasten 40 1 41 0 148 603 62 603;#P connect 68 1 75 0;#P connect 75 0 72 0;#P fasten 39 0 62 0 42 711 168 711;#P connect 84 1 137 0;#P connect 83 0 137 0;#P connect 89 0 98 0;#P connect 98 0 7 0;#P connect 7 1 8 0;#P connect 8 0 100 0;#P connect 100 0 99 0;#P connect 99 0 30 0;#P connect 30 0 88 0;#P fasten 89 0 90 0 208 191 242 191;#P connect 8 1 99 1;#P connect 88 0 129 0;#P fasten 93 0 129 0 283 422 260 422;#P fasten 94 0 129 0 342 425 260 425;#P connect 88 1 129 0;#P connect 46 1 50 0;#P connect 50 0 47 0;#P connect 47 0 45 0;#P connect 45 0 64 0;#P connect 64 0 67 0;#P connect 67 0 76 0;#P connect 90 1 91 0;#P connect 91 0 92 0;#P connect 92 0 93 0;#P connect 97 0 93 0;#P connect 67 0 48 0;#P fasten 65 0 44 0 473 778 424 778 424 728 293 728;#P connect 48 0 44 0;#P fasten 50 1 44 0 387 724 293 724;#P connect 92 0 95 0;#P connect 95 0 96 0;#P connect 96 0 97 0;#P hidden connect 131 0 2 0;#P connect 88 0 135 0;#P connect 93 0 135 0;#P connect 94 0 135 0;#P connect 88 1 135 0;#P connect 92 1 95 1;#P connect 92 1 94 0;#P connect 50 0 132 0;#P connect 88 0 108 0;#P connect 93 0 108 0;#P connect 94 0 108 0;#P connect 108 0 107 0;#P connect 107 0 105 0;#P connect 13 0 111 0;#P connect 49 1 111 0;#P connect 66 0 111 0;#P connect 111 0 110 0;#P connect 110 0 109 0;#P hidden connect 4 0 131 0;#P hidden connect 4 1 131 1;#P hidden connect 4 2 131 2;#P fasten 49 0 46 0 481 701 473 701;#P fasten 37 0 46 0 778 713 473 713;#P connect 13 0 46 0;#P connect 46 0 66 0;#P connect 66 0 65 0;#P fasten 13 0 49 0 473 224 481 224;#P lcolor 7;#P connect 133 0 49 0;#P connect 5 0 6 0;#P hidden connect 4 0 128 0;#P connect 6 0 128 0;#P connect 128 0 16 0;#P connect 65 0 138 0;#P connect 50 1 138 0;#P connect 48 0 138 0;#P connect 17 0 29 0;#P connect 19 0 26 0;#P connect 29 0 26 0;#P connect 26 0 27 0;#P connect 27 0 20 0;#P fasten 22 0 20 0 671 508 517 508;#P fasten 52 0 117 0 785 30 550 30;#P lcolor 2;#P connect 120 0 117 0;#P connect 117 0 118 0;#P fasten 122 0 112 0 550 190 539 190 539 123 550 123;#P connect 118 0 112 0;#P fasten 115 0 112 0 681 123 550 123;#P fasten 125 0 112 0 1056 123 550 123;#P fasten 126 0 112 0 1071 123 550 123;#P connect 112 0 121 0;#P connect 121 0 122 0;#P fasten 21 1 26 1 625 601 649 601 649 459 551 459;#P lcolor 7;#P fasten 28 0 26 1 654 448 551 448;#P connect 20 1 23 0;#P connect 23 0 25 0;#P connect 142 0 24 0;#P connect 49 1 24 0;#P connect 24 0 19 0;#P connect 13 0 136 0;#P connect 133 0 136 0;#P connect 49 0 133 0;#P connect 134 0 133 0;#P connect 24 0 141 0;#P connect 25 1 21 0;#P fasten 21 0 31 0 608 601 608 601;#P connect 31 1 33 0;#P connect 33 0 34 0;#P connect 32 0 34 0;#P connect 24 1 28 0;#P connect 33 1 32 0;#P connect 28 1 22 0;#P connect 119 0 116 0;#P connect 116 0 115 0;#P connect 24 1 140 0;#P connect 141 0 140 0;#P fasten 53 0 54 0 702 257 693 257 693 211 702 211;#P connect 54 0 53 0;#P connect 145 0 147 0;#P connect 147 0 146 0;#P fasten 33 1 35 0 666 645 778 645;#P connect 35 0 36 0;#P connect 36 0 37 0;#P connect 37 0 38 0;#P connect 38 0 14 0;#P fasten 52 0 79 0 785 34 785 34;#P fasten 78 0 58 0 961 57 785 57;#P fasten 77 0 58 0 862 57 785 57;#P fasten 79 0 58 0 785 57 785 57;#P connect 58 0 0 0;#P connect 0 0 139 0;#P connect 53 1 61 0;#P connect 61 0 60 0;#P connect 57 0 59 0;#P connect 59 0 55 0;#P fasten 123 0 55 0 849 355 804 355;#P fasten 52 0 77 0 785 34 862 34;#P connect 154 0 155 0;#P fasten 52 0 78 0 785 34 961 34;#P connect 152 0 153 0;#P connect 153 0 151 0;#P connect 151 0 150 0;#P fasten 52 0 124 0 785 34 1056 34;#P connect 124 0 127 0;#P connect 127 0 125 0;#P connect 127 1 126 0;#P pop;