max v2;#N vpatcher 424 188 569 660;#P origin -78 -46;#P window setfont "Sans Serif" 9.;#P window linecount 1;#N thispatcher;#Q end;#P hidden newobj 143 492 61 196617 thispatcher;#B color 12;#P hidden newex 143 454 116 196617 r /events/more/editor;#B color 12;#P hidden newex 4 -23 105 196617 r /events/totextedit;#B color 12;#P hidden newex 4 462 118 196617 s /events/fromtextedit;#B color 12;#P button 4 0 15 0;#P user textedit 4 20 126 452 32896 3 9;#P comment 21 5 84 196617 init events menu;#P user panel 0 18 129 438;#X brgb 255 148 148;#X frgb 255 55 55;#X border 0;#X rounded 5;#X shadow 0;#X done;#P background;#P hidden connect 5 0 3 0;#P connect 3 0 2 0;#P hidden connect 2 0 4 0;#P hidden connect 6 0 7 0;#P pop;