max v2;#N vpatcher 393 222 1052 788;#P origin 0 -47;#P window setfont "Sans Serif" 9.;#P newex 474 160 151 196617 moduleinit $1;#B color 13;#P newex 283 50 131 196617 r $1/reset;#B color 12;#P message 283 71 23 196617 0 0;#P newex 287 106 248 196617 makeparam $1/blackout $1 t 0;#B color 12;#P message 286 127 62 196617 blackout \$1;#P newex 14 119 42 196617 pack i i;#B color 12;#P number 56 84 35 9 0 0 0 3 0 0 0 221 221 221 222 222 222 0 0 0;#P number 14 84 35 9 0 0 0 3 0 0 0 221 221 221 222 222 222 0 0 0;#P newex 14 59 54 196617 unpack f f;#B color 12;#P newex 91 122 52 196617 route list;#B color 12;#P newex 47 478 146 196617 s $1/input;#B color 12;#P newex 215 328 248 196617 makeparam $1/print $1 t 0;#B color 12;#P newex 215 349 29 196617 gate;#P newex 215 369 101 196617 print $1/out-enttec;#B color 14;#P newex 454 74 77 196617 loadmess clear;#B color 15;#P window setfont "Sans Serif" 12.;#P user umenu 155 249 194 196659 1 64 269 1;#P objectname enttecmenu;#P window setfont "Sans Serif" 9.;#P newex 107 86 29 196617 gate;#P toggle 107 62 15 0;#P newex 107 29 334 196617 makeswitch $1/sw $1 common_switchstate 0;#B color 12;#P newex 143 162 248 196617 makeparam $1/function $1 s receive;#B color 12;#P newex 167 89 248 196617 makeparam $1/print $1 t 0;#B color 12;#P newex 167 118 29 196617 gate;#P newex 167 138 95 196617 print $1/in-enttec;#B color 14;#P newex 126 61 95 196617 r /tapemovie/dmx;#B color 12;#P newex 107 429 58 196617 i;#P newex 107 453 47 196617 forward;#B color 12;#P newex 107 406 30 196617 t b s;#P newex 107 385 100 196617 sprintf send /ch%ld;#P newex 107 314 52 196617 route 0;#P number 155 362 35 9 0 0 0 3 0 0 0 221 221 221 222 222 222 0 0 0;#P number 107 362 35 9 0 0 0 3 0 0 0 221 221 221 222 222 222 0 0 0;#P newex 107 338 58 196617 unpack 0 0;#P toggle 131 269 15 0;#P window linecount 7;#P message 474 186 153 196617 \; $1/sw/init bang \; $1/print/init bang \; $1/function/init bang \; $1/blackout/init bang \; $1/reset bang \; $1 menu \;;#P window linecount 1;#P newex 131 293 139 196617 s $1/connected;#B color 12;#P newex 22 166 88 196617 r $1;#B color 12;#P newex 168 226 130 196617 r $1/sw;#B color 12;#P newex 107 226 59 196617 dmxusbpro;#B color 5;#P message 152 201 126 196617 receive;#P newex 152 182 62 196617 prepend set;#P connect 30 0 31 0;#P connect 31 0 32 0;#P connect 32 0 34 0;#P connect 33 0 34 1;#P connect 2 0 29 0;#P connect 31 1 33 0;#P connect 23 0 30 0;#P connect 21 0 22 0;#P connect 22 0 23 0;#P connect 20 0 2 0;#P connect 37 0 2 0;#P connect 34 0 2 0;#P connect 30 1 2 0;#P fasten 24 1 2 0 344 275 354 275 354 226 354 220 112 220;#P fasten 4 0 2 0 27 223 112 223;#P connect 35 0 2 0;#P fasten 2 0 11 0 112 278 112 278;#P connect 11 0 8 0;#P connect 8 0 9 0;#P connect 9 0 12 0;#P connect 12 0 13 0;#P connect 13 0 15 0;#P connect 15 0 14 0;#P connect 13 1 14 0;#P connect 16 0 23 1;#P connect 2 1 7 0;#P connect 7 0 5 0;#P connect 20 0 0 0;#P connect 0 0 1 0;#P connect 25 0 24 0;#P connect 3 0 24 0;#P connect 2 2 24 0;#P connect 8 1 10 0;#P connect 10 0 15 1;#P connect 19 0 18 0;#P connect 18 0 17 0;#P connect 23 0 18 1;#P connect 28 0 27 0;#P connect 27 0 26 0;#P connect 11 0 27 1;#P connect 38 0 37 0;#P connect 36 0 35 0;#P connect 39 0 6 0;#P pop;