max v2;#N vpatcher 26 271 693 429;#P origin 0 -1;#P window setfont "Sans Serif" 9.;#P window linecount 1;#P newex 1066 96 205 196617 tm_editorbuilder /enttec /tapemovie 1 1 4;#B color 6;#P button 1079 69 15 0;#P comment 1097 69 39 196617 delete;#P button 1066 48 15 0;#P comment 1083 48 31 196617 build;#N thispatcher;#Q end;#P newobj 1066 118 61 196617 thispatcher;#P window linecount 0;#P comment 2376 1 100 196617;#P comment 1 1 100 196617;#P connect 4 0 7 0;#P connect 7 0 2 0;#P fasten 6 0 7 1 1084 90 1168 90;#P fasten 2 0 7 2 1071 140 1309 140 1309 92 1265 92;#P pop;