max v2;#N vpatcher 279 242 1310 708;#P button 308 130 15 0;#P window setfont "Sans Serif" 9.;#P window linecount 2;#P message 308 150 183 196617 \; /movie/gl/editor show $1;#P window linecount 1;#P newex 308 109 93 196617 r $1/more/editor;#P user panel 17 346 952 4;#X brgb 190 190 190;#X frgb 190 190 190;#X border 1;#X rounded 0;#X shadow 0;#X done;#P comment 156 168 41 196617 /shape;#P newex 21 407 248 196617 variedit $1/shape $1;#P window setfont Times 10.;#P user ubumenu 195 166 59 1310730 0 0 1 0;#X add sphere;#X add torus;#X add cylinder;#X add opencylinder;#X add cube;#X add opencube;#X add plane;#X add circle;#X prefix_set 0 0 <none> 0;#P objectname shape;#P window setfont "Sans Serif" 9.;#P newex 21 384 68 196617 pvar shape 2;#P user ubumenu 143 89 69 196617 0 0 1 0;#X add object_linear;#X add sphere_map;#X add eye_linear;#X prefix_set 0 0 <none> 0;#P objectname texmap;#P newex 503 165 234 196617 variedit $1/texmap $1;#P newex 503 142 67 196617 pvar texmap;#P comment 213 92 49 196617 /texmap;#P newex 769 235 209 196617 vari $1/blend $1;#B color 12;#P newex 769 215 57 196617 pvar blend;#B color 14;#P comment 218 113 39 196617 /blend;#P toggle 207 112 13 0;#P objectname blend;#P newex 687 215 67 196617 pvar lighting;#B color 14;#P newex 687 189 236 196617 variedit $1/lighting $1;#B color 12;#P comment 159 113 49 196617 /lighting;#P toggle 148 112 13 0;#P objectname lighting;#P message 301 5 33 196617 clear;#P user panel 2 126 254 4;#X brgb 190 190 190;#X frgb 190 190 190;#X border 1;#X rounded 0;#X shadow 0;#X done;#P newex 730 7 208 196617 variedit $1/dim/x $1;#B color 12;#P newex 730 34 60 196617 pvar dimx;#B color 14;#P comment 184 55 44 196617 /dim/y;#P number 149 54 34 9 0 2000 35 3 0 0 0 221 221 221 222 222 222 0 0 0;#P objectname dimy;#P window setfont "Sans Serif" 12.;#P newex 281 52 215 196620 m_inputmenugpu $1;#B color 6;#P window setfont "Sans Serif" 9.;#P newex 281 29 81 196617 pvar texture 2;#P window setfont Times 10.;#P user ubumenu 58 1 63 1310730 0 0 1 0;#X prefix_set 0 0 <none> 0;#P objectname texture;#P window setfont "Sans Serif" 9.;#P newex 511 8 204 196617 variedit $1/layer $1;#B color 12;#P newex 511 35 62 196617 pvar layer;#B color 14;#P comment 184 37 44 196617 /dim/x;#P number 149 36 34 9 0 2000 35 3 0 0 0 221 221 221 222 222 222 0 0 0;#P objectname dimx;#P comment 175 73 86 196617 /transformreset;#P newex 487 233 56 196617 pvar blue;#B color 14;#P newex 487 207 135 196617 variedit $1/color/blue $1;#B color 12;#P newex 348 233 63 196617 pvar green;#B color 14;#P newex 348 207 142 196617 variedit $1/color/green $1;#B color 12;#P newex 209 233 53 196617 pvar red;#B color 14;#P newex 209 207 132 196617 variedit $1/color/red $1;#B color 12;#P comment 104 19 38 196617 /alpha;#B frgb 50 50 50;#P flonum 105 29 34 9 0. 1. 8227 3 0 0 0 221 221 221 0 0 0 0 0 0;#P objectname alphanumb;#P flonum 81 29 34 9 0. 1. 8227 3 0 0 0 221 221 221 0 0 0 0 0 0;#P objectname blue;#P flonum 52 29 34 9 0. 1. 8227 3 0 0 0 221 221 221 0 0 0 0 0 0;#P objectname green;#P flonum 23 29 34 9 0. 1. 8227 3 0 0 0 221 221 221 33 33 33 0 0 0;#P objectname red;#P comment 79 19 38 196617 /blue;#B frgb 50 50 50;#P comment 48 19 45 196617 /green;#B frgb 9 9 9;#P comment 20 19 35 196617 /red;#B frgb 42 42 42;#P flonum 74 85 40 9 -360. 360. 8227 3 0 0 0 221 221 221 50 50 50 0 0 0;#P objectname roty;#P flonum 111 85 40 9 -360. 360. 8227 3 0 0 0 221 221 221 0 0 0 0 0 0;#P objectname rotz;#P flonum 37 85 40 9 -360. 360. 8227 3 33 33 33 221 221 221 9 9 9 0 0 0;#P objectname rotx;#P flonum 111 103 42 9 -10. 10. 8227 3 0 0 0 221 221 221 0 0 0 0 0 0;#P objectname scalez;#P flonum 74 103 42 9 -10. 10. 8227 3 9 9 9 221 221 221 33 33 33 0 0 0;#P objectname scaley;#P flonum 37 103 42 9 -10. 10. 8227 3 33 33 33 221 221 221 25 25 25 0 0 0;#P objectname scalex;#P flonum 109 67 41 9 -100. 100. 8227 3 0 0 0 221 221 221 0 0 0 0 0 0;#P objectname posz;#P flonum 72 67 41 9 -100. 100. 8227 3 0 0 0 221 221 221 0 0 0 0 0 0;#P objectname posy;#P comment 119 54 23 196617 /z;#B frgb 50 50 50;#P comment 90 54 24 196617 /y;#B frgb 9 9 9;#P comment 61 54 24 196617 /x;#B frgb 42 42 42;#P comment 2 86 34 196617 /rot;#B frgb 42 42 42;#P comment 2 104 43 196617 /scale;#B frgb 33 33 33;#P comment 2 67 35 196617 /pos;#B frgb 42 42 42;#P user panel 13 53 130 10;#X brgb 190 190 190;#X frgb 190 190 190;#X border 1;#X rounded 0;#X shadow 0;#X done;#P newex 16 232 84 196617 pvar alphanumb;#B color 14;#P newex 502 120 250 196617 variedit $1/transformreset $1;#B color 12;#P newex 502 93 108 196617 pvar transformreset;#B color 14;#P number 149 18 34 9 0 1999 35 3 0 0 0 221 221 221 222 222 222 0 0 0;#P objectname layer;#P newex 730 61 208 196617 variedit $1/dim/y $1;#B color 12;#P newex 730 88 60 196617 pvar dimy;#B color 14;#P newex 416 314 228 196617 variedit $1/rotxyz/z $1;#B color 12;#P newex 334 314 57 196617 pvar rotz;#B color 14;#P newex 416 292 229 196617 variedit $1/rotxyz/y $1;#B color 12;#P newex 334 292 58 196617 pvar roty;#B color 14;#P newex 416 270 229 196617 variedit $1/rotxyz/x $1;#B color 12;#P newex 334 270 58 196617 pvar rotx;#B color 14;#P newex 732 313 232 196617 variedit $1/scale/z $1;#B color 12;#P newex 650 313 66 196617 pvar scalez;#B color 14;#P newex 732 292 233 196617 variedit $1/scale/y $1;#B color 12;#P newex 650 292 67 196617 pvar scaley;#B color 14;#P newex 732 271 233 196617 variedit $1/scale/x $1;#B color 12;#P newex 650 271 67 196617 pvar scalex;#B color 14;#P newex 103 315 224 196617 variedit $1/pos/z $1;#B color 12;#P newex 21 313 58 196617 pvar posz;#B color 14;#P newex 103 292 225 196617 variedit $1/pos/y $1;#B color 12;#P newex 21 291 59 196617 pvar posy;#B color 14;#P newex 103 269 225 196617 variedit $1/pos/x $1;#B color 12;#P newex 21 269 59 196617 pvar posx;#B color 14;#P newex 142 232 61 196617 pvar alpha;#B color 14;#P comment 184 19 44 196617 /layer;#P newex 16 206 140 196617 variedit $1/color/alpha $1;#B color 12;#P user multiSlider 16 42 122 8 0. 1. 1 2936 47 0 0 2 0 0 0;#M frgb 0 0 0;#M brgb 255 255 255;#M rgb2 127 127 127;#M rgb3 0 0 0;#M rgb4 37 52 91;#M rgb5 74 105 182;#M rgb6 112 158 18;#M rgb7 149 211 110;#M rgb8 187 9 201;#M rgb9 224 62 37;#M rgb10 7 114 128;#P objectname alpha;#P number 149 71 28 9 0 2 35 3 0 0 0 221 221 221 222 222 222 0 0 0;#P objectname transformreset;#P user panel 1 61 140 8;#X brgb 190 190 190;#X frgb 190 190 190;#X border 1;#X rounded 0;#X shadow 0;#X done;#P user panel 2 69 35 55;#X brgb 190 190 190;#X frgb 190 190 190;#X border 0;#X rounded 0;#X shadow 0;#X done;#P flonum 35 67 41 9 -100. 100. 8227 3 0 0 0 221 221 221 33 33 33 0 0 0;#P objectname posx;#P user panel 145 18 17 109;#X brgb 255 255 255;#X frgb 190 190 190;#X border 0;#X rounded 0;#X shadow 0;#X done;#P user panel 141 18 17 109;#X brgb 190 190 190;#X frgb 190 190 190;#X border 1;#X rounded 0;#X shadow 0;#X done;#P bpatcher 1 0 256 186 0 0 bkgnd3.mxt 0 $1 1;#P objectname background;#P connect 34 0 8 0;#P connect 10 0 8 0;#P connect 8 0 34 0;#P connect 12 0 11 0;#P connect 14 0 13 0;#P connect 16 0 15 0;#P fasten 92 0 90 0 26 429 14 429 14 378 26 378;#P connect 90 1 92 0;#P connect 11 0 12 0;#P connect 13 0 14 0;#P connect 15 0 16 0;#P connect 8 2 10 0;#P connect 59 0 58 0;#P connect 58 0 59 0;#P fasten 71 0 70 0 286 79 277 79 277 25 286 25;#P connect 77 0 70 0;#P fasten 70 1 71 0 357 49 286 49;#P connect 95 0 97 0;#P connect 97 0 96 0;#P connect 24 0 23 0;#P connect 26 0 25 0;#P connect 28 0 27 0;#P connect 61 0 60 0;#P connect 60 0 61 0;#P connect 23 0 24 0;#P connect 25 0 26 0;#P connect 27 0 28 0;#P connect 63 0 62 0;#P connect 62 0 63 0;#P connect 33 0 32 0;#P connect 32 0 33 0;#P connect 88 0 87 0;#P connect 87 0 88 0;#P connect 67 0 68 0;#P connect 68 0 67 0;#P connect 18 0 17 0;#P connect 20 0 19 0;#P connect 22 0 21 0;#P connect 81 0 80 0;#P connect 80 0 81 0;#P connect 74 0 75 0;#P connect 75 0 74 0;#P connect 29 0 30 0;#P connect 30 0 29 0;#P connect 17 0 18 0;#P connect 19 0 20 0;#P connect 21 0 22 0;#P connect 85 0 84 0;#P connect 84 0 85 0;#P pop;