max v2;#N vpatcher 552 78 1091 310;#P origin -10 -3;#P window setfont "Sans Serif" 12.;#P window linecount 1;#P newex 15 31 207 196620 m_glgroup $1 $2;#B color 6;#P window setfont Helvetica 9.;#P comment 19 186 190 1376265 Tom Mays \, Olivier Pfeiffer & Renaud Rubiano;#B frgb 0 146 207;#P window linecount 2;#P comment 19 159 199 1376265 m_plane is a part of movie \, a part of tapemovie. contact@tapemovie.org;#P window setfont Helvetica 24.;#P window linecount 1;#P comment 19 100 81 1376280 m_grid;#B frgb 0 146 207;#P window setfont Helvetica 12.;#P window linecount 2;#P comment 19 127 263 1376268 $1 : prefix name \; $2 : name of the render associated \;;#P user panel 16 97 269 111;#X brgb 255 255 255;#X frgb 0 0 0;#X border 1;#X rounded 0;#X shadow 0;#X done;#P window setfont "Sans Serif" 9.;#P window linecount 1;#P newex 331 87 161 196617 print $1/dumpout;#P window setfont "Sans Serif" 12.;#N vpatcher 481 168 930 451;#P window setfont "Sans Serif" 9.;#P window linecount 0;#P newex 25 193 56 196617 pak dim i i;#P newex 71 167 351 196617 makeparam $1/dim/y $1 i 20 0 2000 1;#B color 11;#P newex 48 143 351 196617 makeparam $1/dim/x $1 i 20 0 2000 1;#B color 11;#P newex 12 105 73 196617 prepend shape;#P newex 12 85 158 196617 makeparam $1/shape $1 s plane;#B color 11;#P window linecount 4;#P message 182 78 105 196617 \; $1/shape/init bang \; $1/dim/x/init bang \; $1/dim/y/init bang \;;#P window linecount 1;#P newex 182 56 193 196617 r $1/properties/init;#B color 11;#P outlet 12 233 15 0;#P connect 3 0 4 0;#P connect 4 0 0 0;#P connect 7 0 0 0;#P connect 5 0 7 1;#P connect 6 0 7 2;#P connect 1 0 2 0;#P pop;#P newobj 225 31 87 196620 p proprieties;#B color 6;#P window setfont "Sans Serif" 9.;#P newex 15 64 326 196617 jit.gl.gridshape $2 @name $1 @automatic 0;#P newex 331 106 168 196617 moduleinit $1;#B color 11;#P window linecount 5;#P message 331 132 187 196617 \; $1/lighting/initval 1 \; $1/scale/x/initval 1 \; $1/gl_group/init bang \; $1/properties/init bang \;;#P fasten 3 0 2 0 230 58 20 58;#P connect 10 0 2 0;#P connect 2 1 4 0;#P connect 1 0 0 0;#P pop;