max v2;#N vpatcher 325 214 650 486;#P window setfont "Sans Serif" 9.;#P newex 21 198 248 196617 variedit $1/dest $1;#P newex 21 175 62 196617 pvar dest 2;#P comment 212 18 46 196617 /visible;#B frgb 0 0 222;#P toggle 201 17 13 0;#P objectname visible;#P message 45 153 33 196617 clear;#P newex 24 82 244 196617 variedit $1/visible $1;#B color 12;#P newex 24 109 64 196617 pvar visible;#B color 14;#P comment 118 34 41 196617 /dest;#B frgb 0 0 222;#P user ubumenu 155 32 100 196617 0 1 1 0;#X add;#X prefix_set 0 0 <none> 0;#P bpatcher 1 0 256 62 0 0 bkgnd.mxt 0 $1;#P objectname background;#P fasten 9 0 8 0 26 220 14 220 14 169 26 169;#P hidden connect 5 0 8 0;#P connect 8 1 9 0;#P connect 3 0 4 0;#P connect 4 0 3 0;#P pop;