max v2;#N vpatcher 549 126 1204 468;#P origin 0 -20;#P window setfont "Sans Serif" 9.;#P window linecount 1;#P newex 225 265 64 196617 speedlim 50;#B color 12;#N vpatcher 20 74 499 286;#P window setfont "Sans Serif" 9.;#P newex 120 71 323 196617 makeparam $1/dim/y $1 i 240 1 480 1;#B color 12;#P newex 97 52 323 196617 makeparam $1/dim/x $1 i 320 1 640 1;#B color 12;#P newex 74 94 56 196617 pak dim i i;#P newex 50 119 87 196617 jit.matrix 4 char;#P inlet 50 99 15 0;#P outlet 50 141 15 0;#P connect 1 0 2 0;#P connect 3 0 2 0;#P connect 2 0 0 0;#P connect 4 0 3 1;#P connect 5 0 3 2;#P pop;#P newobj 115 188 39 196617 p dims;#P newex 306 69 78 196617 sprintf %s/out;#P newex 306 90 62 196617 prepend set;#P newex 249 69 31 196617 t set;#P newex 249 48 67 196617 route <none>;#P newex 249 26 323 196617 makeparam $1/source $1 s <none>;#B color 12;#P newex 249 117 96 196617 receive;#B color 12;#P window setfont Helvetica 9.;#P comment 353 294 190 1376265 Tom Mays \, Olivier Pfeiffer & Renaud Rubiano;#B frgb 0 146 207;#P window linecount 2;#P comment 354 268 220 1376265 m_jnetsend is a part of movie \, a part of tapemovie. contact@tapemovie.org;#P window setfont Helvetica 24.;#P window linecount 1;#P comment 354 224 131 1376280 m_jnetsend;#B frgb 0 146 207;#P window setfont Helvetica 12.;#P comment 354 251 263 1376268 $1 : prefix name \;;#P user panel 351 221 269 91;#X brgb 255 255 255;#X frgb 0 0 0;#X border 1;#X rounded 0;#X shadow 0;#X done;#P window setfont "Sans Serif" 9.;#P newex 28 200 85 196617 r $1;#B color 11;#P newex 139 121 32 196617 sel 1;#P newex 302 207 36 196617 zl reg;#P newex 139 207 36 196617 zl reg;#P newex 115 260 104 196617 s $1/dumpout;#B color 13;#P newex 115 235 61 196617 jit.net.send;#P newex 328 187 67 196617 prepend port;#P newex 328 167 263 196617 makeparam $1/port $1 i 22222;#B color 12;#P newex 165 187 56 196617 prepend ip;#P newex 165 148 221 196617 makeparam $1/ip $1 s 127.0.0.1;#B color 12;#P newex 143 86 97 196617 r $1/in;#B color 13;#P newex 96 165 29 196617 gate;#P toggle 96 136 15 0;#P newex 23 65 203 196617 makeswitch $1/sw $1 movie_switchstate;#B color 11;#N comlet jitter stream in;#P inlet 115 86 15 0;#P newex 401 51 168 196617 moduleinit $1;#B color 11;#P window linecount 7;#P message 401 72 185 196617 \; $1/sw/init bang \; $1/source/init bang \; $1/dim/x/init bang \; $1/dim/y/init bang \; $1/ip/init bang \; $1/port/init bang \;;#P connect 3 0 4 0;#P connect 4 0 5 0;#P connect 29 0 5 1;#P connect 6 0 5 1;#P connect 2 0 5 1;#P connect 5 0 28 0;#P connect 28 0 11 0;#P connect 16 0 11 0;#P fasten 14 0 11 0 307 228 120 228;#P fasten 13 0 11 0 144 228 120 228;#P connect 11 0 12 0;#P fasten 4 0 15 0 101 103 144 103;#P lcolor 1;#P connect 15 0 13 0;#P connect 7 0 8 0;#P connect 8 0 13 1;#P connect 22 0 29 0;#P connect 23 0 24 0;#P connect 24 0 25 0;#P fasten 26 0 22 0 311 112 254 112;#P fasten 25 0 22 0 254 101 254 101;#P fasten 15 0 14 0 144 144 307 144;#P lcolor 15;#P fasten 24 1 27 0 311 64 311 64;#P connect 27 0 26 0;#P connect 9 0 10 0;#P connect 10 0 14 1;#P connect 1 0 0 0;#P pop;