max v2;#N vpatcher 192 44 1394 856;#P origin -122 -99;#P hidden user panel 1 127 254 4;#X brgb 190 190 190;#X frgb 190 190 190;#X border 1;#X rounded 0;#X shadow 0;#X done;#P button 307 262 15 0;#P window setfont "Sans Serif" 9.;#P window linecount 2;#P message 307 282 183 196617 \; /movie/gl/editor show $1;#P window linecount 1;#P newex 307 241 93 196617 r $1/more/editor;#P user panel 16 478 952 4;#X brgb 190 190 190;#X frgb 190 190 190;#X border 1;#X rounded 0;#X shadow 0;#X done;#P user ubumenu 142 89 69 196617 0 0 1 0;#X add object_linear;#X add sphere_map;#X add eye_linear;#X prefix_set 0 0 <none> 0;#P objectname texmap;#P newex 502 297 234 196617 variedit $1/texmap $1;#P newex 502 274 67 196617 pvar texmap;#P comment 212 92 49 196617 /texmap;#P newex 768 367 209 196617 vari $1/blend $1;#B color 12;#P newex 768 347 57 196617 pvar blend;#B color 14;#P comment 217 113 39 196617 /blend;#P toggle 206 112 13 0;#P objectname blend;#P newex 686 347 67 196617 pvar lighting;#B color 14;#P newex 686 321 236 196617 variedit $1/lighting $1;#B color 12;#P comment 158 113 49 196617 /lighting;#P toggle 147 112 13 0;#P objectname lighting;#P message 300 137 33 196617 clear;#P newex 729 139 208 196617 variedit $1/dim/x $1;#B color 12;#P newex 729 166 60 196617 pvar dimx;#B color 14;#P comment 183 55 44 196617 /dim/y;#P number 148 54 34 9 0 2000 35 3 0 0 0 221 221 221 222 222 222 0 0 0;#P objectname dimy;#P window setfont "Sans Serif" 12.;#P newex 280 184 215 196620 m_inputmenugpu $1;#B color 6;#P window setfont "Sans Serif" 9.;#P newex 280 161 81 196617 pvar texture 2;#P window setfont Times 10.;#P user ubumenu 57 1 63 1310730 0 0 1 0;#X add <none>;#X add /cam.1;#X add /noiz.1;#X add /rota.1;#X add /slide.1;#X add /sharpen.1;#X add /wobble.1;#X prefix_set 0 0 <none> 0;#P objectname texture;#P window setfont "Sans Serif" 9.;#P newex 510 140 204 196617 variedit $1/layer $1;#B color 12;#P newex 510 167 62 196617 pvar layer;#B color 14;#P comment 183 37 44 196617 /dim/x;#P number 148 36 34 9 0 2000 35 3 0 0 0 221 221 221 222 222 222 0 0 0;#P objectname dimx;#P comment 174 73 86 196617 /transformreset;#P newex 486 365 56 196617 pvar blue;#B color 14;#P newex 486 339 135 196617 variedit $1/color/blue $1;#B color 12;#P newex 347 365 63 196617 pvar green;#B color 14;#P newex 347 339 142 196617 variedit $1/color/green $1;#B color 12;#P newex 208 365 53 196617 pvar red;#B color 14;#P newex 208 339 132 196617 variedit $1/color/red $1;#B color 12;#P comment 103 19 38 196617 /alpha;#B frgb 50 50 50;#P flonum 104 29 34 9 0. 1. 8227 3 0 0 0 221 221 221 0 0 0 0 0 0;#P objectname alphanumb;#P flonum 80 29 34 9 0. 1. 8227 3 0 0 0 221 221 221 0 0 0 0 0 0;#P objectname blue[1];#P flonum 51 29 34 9 0. 1. 8227 3 0 0 0 221 221 221 0 0 0 0 0 0;#P objectname green[1];#P flonum 22 29 34 9 0. 1. 8227 3 0 0 0 221 221 221 33 33 33 0 0 0;#P objectname red[1];#P comment 78 19 38 196617 /blue;#B frgb 50 50 50;#P comment 47 19 45 196617 /green;#B frgb 9 9 9;#P comment 19 19 35 196617 /red;#B frgb 42 42 42;#P flonum 73 85 40 9 -360. 360. 8227 3 0 0 0 221 221 221 50 50 50 0 0 0;#P objectname roty;#P flonum 110 85 40 9 -360. 360. 8227 3 0 0 0 221 221 221 0 0 0 0 0 0;#P objectname rotz;#P flonum 36 85 40 9 -360. 360. 8227 3 33 33 33 221 221 221 9 9 9 0 0 0;#P objectname rotx;#P flonum 110 103 42 9 -10. 10. 8227 3 0 0 0 221 221 221 0 0 0 0 0 0;#P objectname scalez;#P flonum 73 103 42 9 -10. 10. 8227 3 9 9 9 221 221 221 33 33 33 0 0 0;#P objectname scaley;#P flonum 36 103 42 9 -10. 10. 8227 3 33 33 33 221 221 221 25 25 25 0 0 0;#P objectname scalex;#P flonum 108 67 41 9 -100. 100. 8227 3 0 0 0 221 221 221 0 0 0 0 0 0;#P objectname posz;#P flonum 71 67 41 9 -100. 100. 8227 3 0 0 0 221 221 221 0 0 0 0 0 0;#P objectname posy;#P comment 118 54 23 196617 /z;#B frgb 50 50 50;#P comment 89 54 24 196617 /y;#B frgb 9 9 9;#P comment 60 54 24 196617 /x;#B frgb 42 42 42;#P comment 1 86 34 196617 /rot;#B frgb 42 42 42;#P comment 1 104 43 196617 /scale;#B frgb 33 33 33;#P comment 1 67 35 196617 /pos;#B frgb 42 42 42;#P user panel 12 53 130 10;#X brgb 190 190 190;#X frgb 190 190 190;#X border 1;#X rounded 0;#X shadow 0;#X done;#P newex 15 364 84 196617 pvar alphanumb;#B color 14;#P newex 501 252 250 196617 variedit $1/transformreset $1;#B color 12;#P newex 501 225 108 196617 pvar transformreset;#B color 14;#P number 148 18 34 9 0 1999 35 3 0 0 0 221 221 221 222 222 222 0 0 0;#P objectname layer;#P newex 729 193 208 196617 variedit $1/dim/y $1;#B color 12;#P newex 729 220 60 196617 pvar dimy;#B color 14;#P newex 415 446 228 196617 variedit $1/rotxyz/z $1;#B color 12;#P newex 333 446 57 196617 pvar rotz;#B color 14;#P newex 415 424 229 196617 variedit $1/rotxyz/y $1;#B color 12;#P newex 333 424 58 196617 pvar roty;#B color 14;#P newex 415 402 229 196617 variedit $1/rotxyz/x $1;#B color 12;#P newex 333 402 58 196617 pvar rotx;#B color 14;#P newex 731 445 232 196617 variedit $1/scale/z $1;#B color 12;#P newex 649 445 66 196617 pvar scalez;#B color 14;#P newex 731 424 233 196617 variedit $1/scale/y $1;#B color 12;#P newex 649 424 67 196617 pvar scaley;#B color 14;#P newex 731 403 233 196617 variedit $1/scale/x $1;#B color 12;#P newex 649 403 67 196617 pvar scalex;#B color 14;#P newex 102 447 224 196617 variedit $1/pos/z $1;#B color 12;#P newex 20 445 58 196617 pvar posz;#B color 14;#P newex 102 424 225 196617 variedit $1/pos/y $1;#B color 12;#P newex 20 423 59 196617 pvar posy;#B color 14;#P newex 102 401 225 196617 variedit $1/pos/x $1;#B color 12;#P newex 20 401 59 196617 pvar posx;#B color 14;#P newex 141 364 61 196617 pvar alpha;#B color 14;#P comment 183 19 44 196617 /layer;#P newex 15 338 140 196617 variedit $1/color/alpha $1;#B color 12;#P user multiSlider 15 42 122 8 0. 1. 1 2936 47 0 0 2 0 0 0;#M frgb 0 0 0;#M brgb 255 255 255;#M rgb2 127 127 127;#M rgb3 0 0 0;#M rgb4 37 52 91;#M rgb5 74 105 182;#M rgb6 112 158 18;#M rgb7 149 211 110;#M rgb8 187 9 201;#M rgb9 224 62 37;#M rgb10 7 114 128;#P objectname alpha;#P number 148 71 28 9 0 2 35 3 0 0 0 221 221 221 222 222 222 0 0 0;#P objectname transformreset;#P user panel 0 61 140 8;#X brgb 190 190 190;#X frgb 190 190 190;#X border 1;#X rounded 0;#X shadow 0;#X done;#P user panel 1 69 35 55;#X brgb 190 190 190;#X frgb 190 190 190;#X border 0;#X rounded 0;#X shadow 0;#X done;#P flonum 34 67 41 9 -100. 100. 8227 3 0 0 0 221 221 221 33 33 33 0 0 0;#P objectname posx;#P user panel 144 18 17 109;#X brgb 255 255 255;#X frgb 190 190 190;#X border 0;#X rounded 0;#X shadow 0;#X done;#P user panel 140 18 17 109;#X brgb 190 190 190;#X frgb 190 190 190;#X border 1;#X rounded 0;#X shadow 0;#X done;#P newex 360 581 153 196617 variedit $1/blue $1;#B color 12;#P newex 362 560 52 196617 pvar blue;#P newex 194 581 160 196617 variedit $1/green $1;#B color 12;#P newex 194 560 59 196617 pvar green;#P newex 38 581 150 196617 variedit $1/red $1;#B color 12;#P newex 38 560 49 196617 pvar red;#P flonum 7 158 35 9 0. 100. 3 3 0 0 0 221 221 221 222 222 222 0 0 0;#P objectname largeur;#P comment 213 143 37 196617 /blue;#P flonum 178 141 35 9 0. 1. 3 3 0 0 0 0 0 255 222 222 222 0 0 0;#P objectname blue;#P comment 120 141 37 196617 /green;#P flonum 85 141 35 9 0 0 0 3 0 0 0 0 255 0 222 222 222 0 0 0;#P objectname green;#P comment 44 142 37 196617 /red;#P flonum 7 140 35 9 0. 1. 3 3 0 0 0 255 0 0 222 222 222 0 0 0;#P objectname red;#P comment 44 196 68 196617 /height/max;#P flonum 7 194 35 9 0 0 0 3 0 0 0 221 221 221 222 222 222 0 0 0;#P objectname fin;#P flonum 7 176 35 9 0 0 0 3 0 0 0 221 221 221 222 222 222 0 0 0;#P objectname orig;#P comment 44 178 65 196617 /height/min;#P newex 532 642 49 196617 pvar pos;#P newex 532 667 150 196617 variedit $1/pos $1;#B color 12;#P comment 44 214 31 196617 /pos;#P flonum 7 212 35 9 0 0 0 3 0 0 0 221 221 221 222 222 222 0 0 0;#P objectname pos;#P newex 532 601 46 196617 pvar fin;#P newex 532 558 52 196617 pvar orig;#P newex 532 621 187 196617 variedit $1/height/max $1;#B color 12;#P newex 532 578 184 196617 variedit $1/height/min $1;#B color 12;#P comment 165 176 73 196617 /length/min;#P comment 165 157 65 196617 /length;#P newex 728 621 187 196617 variedit $1/length/max $1;#B color 12;#P newex 728 601 58 196617 pvar Lmax;#P newex 728 578 184 196617 variedit $1/length/min $1;#B color 12;#P newex 728 558 50 196617 pvar Lmin;#P comment 44 232 68 196617 /damp;#P comment 165 214 46 196617 /damp;#P newex 532 712 158 196617 variedit $1/damp $1;#B color 12;#P newex 532 691 50 196617 pvar D2;#P newex 728 712 174 196617 variedit $1/link/damp #;#B color 12;#P newex 728 691 50 196617 pvar D;#P newex 728 667 169 196617 variedit $1/rigidity $1;#B color 12;#P newex 728 642 50 196617 pvar K;#P comment 165 231 50 196617 /rigidity;#P comment 165 195 65 196617 /length/max;#P newex 728 535 162 196617 variedit $1/length $1;#B color 12;#P flonum 131 174 35 9 0 0 0 3 0 0 0 221 221 221 222 222 222 0 0 0;#P objectname Lmin;#P flonum 131 155 35 9 0 0 0 3 0 0 0 221 221 221 222 222 222 0 0 0;#P objectname L;#P flonum 7 230 35 9 0 0 0 3 0 0 0 221 221 221 222 222 222 0 0 0;#P objectname D2;#P flonum 131 212 35 9 0. 1. 3 3 0 0 0 221 221 221 222 222 222 0 0 0;#P objectname D;#P flonum 131 230 35 9 0 0 0 3 0 0 0 221 221 221 222 222 222 0 0 0;#P objectname K;#P flonum 131 193 35 9 0 0 0 3 0 0 0 221 221 221 222 222 222 0 0 0;#P objectname Lmax;#P newex 38 532 156 196617 variedit $1/luma $1;#B color 12;#P newex 38 511 50 196617 pvar lum;#P comment 42 126 37 196617 /luma;#P flonum 7 124 35 9 0. 1. 3 3 0 0 0 221 221 221 222 222 222 0 0 0;#P objectname lum;#P newex 532 535 160 196617 variedit $1/width $1;#B color 12;#P comment 44 160 43 196617 /width;#P newex 728 508 50 196617 pvar L;#P newex 532 508 67 196617 pvar largeur;#P bpatcher 0 0 256 248 0 0 bkgnd4.mxt 0 $1 1;#P background;#P objectname background[1];#P connect 90 0 64 0;#P connect 66 0 64 0;#P connect 64 0 90 0;#P connect 68 0 67 0;#P connect 70 0 69 0;#P connect 72 0 71 0;#P connect 8 0 7 0;#P connect 7 0 8 0;#P connect 52 0 51 0;#P connect 51 0 52 0;#P connect 67 0 68 0;#P connect 69 0 70 0;#P connect 71 0 72 0;#P connect 64 2 66 0;#P connect 54 0 53 0;#P connect 53 0 54 0;#P connect 115 0 114 0;#P connect 114 0 115 0;#P fasten 127 0 126 0 285 211 276 211 276 157 285 157;#P connect 132 0 126 0;#P fasten 126 1 127 0 356 181 285 181;#P connect 146 0 148 0;#P connect 148 0 147 0;#P connect 80 0 79 0;#P connect 82 0 81 0;#P connect 84 0 83 0;#P connect 117 0 116 0;#P connect 116 0 117 0;#P connect 55 0 56 0;#P connect 56 0 55 0;#P connect 79 0 80 0;#P connect 81 0 82 0;#P connect 83 0 84 0;#P connect 119 0 118 0;#P connect 118 0 119 0;#P connect 89 0 88 0;#P connect 88 0 89 0;#P connect 143 0 142 0;#P connect 142 0 143 0;#P connect 123 0 124 0;#P connect 124 0 123 0;#P connect 4 0 1 0;#P connect 1 0 4 0;#P connect 32 0 34 0;#P connect 34 0 32 0;#P connect 33 0 35 0;#P connect 35 0 33 0;#P connect 38 0 39 0;#P connect 39 0 38 0;#P connect 23 0 22 0;#P connect 22 0 23 0;#P connect 74 0 73 0;#P connect 76 0 75 0;#P connect 78 0 77 0;#P connect 136 0 135 0;#P connect 135 0 136 0;#P connect 15 0 2 0;#P connect 2 0 15 0;#P connect 27 0 26 0;#P connect 26 0 27 0;#P connect 29 0 28 0;#P connect 28 0 29 0;#P connect 19 0 18 0;#P connect 18 0 19 0;#P connect 21 0 20 0;#P connect 20 0 21 0;#P connect 130 0 131 0;#P connect 131 0 130 0;#P connect 85 0 86 0;#P connect 86 0 85 0;#P connect 73 0 74 0;#P connect 75 0 76 0;#P connect 77 0 78 0;#P connect 140 0 139 0;#P connect 139 0 140 0;#P pop;