max v2;#N vpatcher 258 208 1420 896;#P window setfont "Sans Serif" 9.;#P newex 433 462 145 196617 varieditu /axes /mdl;#B color 12;#P newex 322 462 55 196617 pvar axes;#P comment 70 2 37 196617 /axes;#P toggle 105 2 13 0;#P objectname axes;#P newex 433 410 145 196617 varieditu /poly_mode/y /mdl;#B color 12;#P newex 322 410 93 196617 pvar poly_mode-y;#P newex 722 255 137 196617 sprintf set %s/more/editor;#P button 722 297 15 0;#P window linecount 2;#P message 722 317 183 196617 \; /movie/gl/editor show $1;#P window linecount 1;#P newex 722 276 44 196617 receive;#P comment 157 95 87 196617 / poly_mode/y;#P toggle 242 94 13 0;#P objectname poly_mode-y;#P window setfont "Sans Serif" 12.;#P newex 451 91 65 196620 tosymbol;#B color 6;#P window setfont "Sans Serif" 9.;#N thispatcher;#Q end;#P newobj 3 139 61 196617 thispatcher;#P inlet 306 70 15 0;#P newex 238 134 50 196617 deferlow;#P newex 524 137 94 196617 prepend setsymbol;#B color 12;#P newex 451 116 157 196617 varieditu /model /mdl;#B color 12;#P window setfont "Sans Serif" 12.;#N vpatcher 30 89 268 353;#P outlet 69 221 15 0;#P window setfont "Sans Serif" 9.;#P newex 69 111 127 196617 sprintf %smedia/models/;#P newex 69 198 40 196617 itoa;#P newex 19 175 60 196617 zl slice;#P newex 69 154 34 196617 zl len;#P newex 69 132 40 196617 atoi;#P newex 68 69 54 196617 onebang 1;#P newex 19 47 59 196617 t l b;#P newex 69 89 62 196617 projectpath;#B color 5;#P newex 19 154 40 196617 atoi;#P inlet 19 27 15 0;#P connect 0 0 3 0;#P connect 3 0 1 0;#P connect 1 0 7 0;#P connect 3 1 4 0;#P connect 4 0 2 0;#P connect 2 0 9 0;#P connect 9 0 5 0;#P connect 5 0 6 0;#P connect 6 0 7 1;#P connect 7 1 8 0;#P connect 8 0 10 0;#P pop;#P newobj 451 67 77 196620 p strippath;#B color 6;#N vpatcher 30 89 293 402;#P origin 0 -15;#P window setfont "Sans Serif" 9.;#P window linecount 0;#P newex 91 178 64 196617 sprintf %s_;#P window linecount 2;#P newex 50 138 39 196617 route symbol;#P window linecount 1;#P newex 50 87 46 196617 t dump l;#P newex 50 65 114 196617 sprintf refer %s/state;#P newex 50 254 47 196617 forward;#P window linecount 2;#P newex 91 210 42 196617 prepend send;#P newex 91 138 39 196617 route symbol;#P window linecount 1;#N coll /mdl.1/state;#P newobj 50 114 134 196617 coll;#B color 5;#P inlet 50 21 15 0;#P connect 0 0 5 0;#P connect 5 0 6 0;#P connect 6 1 1 0;#P connect 6 0 1 0;#P connect 1 0 7 0;#P fasten 7 1 4 0 84 191 55 191;#P connect 7 0 4 0;#P fasten 3 0 4 0 96 246 55 246;#P connect 1 1 2 0;#P connect 2 0 8 0;#P connect 8 0 3 0;#P pop;#P newobj 236 155 109 196620 p re-send values;#B color 7;#P window setfont "Sans Serif" 9.;#P comment 157 82 87 196617 / poly_mode/x;#P toggle 242 81 13 0;#P objectname poly_mode;#P newex 434 359 218 196617 varieditu /poly_mode/x /mdl;#B color 12;#P newex 323 359 82 196617 pvar poly_mode;#P newex 434 338 214 196617 varieditu /line_width /mdl;#B color 12;#P newex 323 338 81 196617 pvar line_width;#P comment 156 68 63 196617 /line_width;#P flonum 229 66 26 9 0. 1000. 35 3 0 0 0 221 221 221 222 222 222 0 0 0;#P objectname line_width;#P newex 434 296 190 196617 varieditu /facet /mdl;#B color 12;#P newex 323 296 57 196617 pvar facet;#P comment 157 41 87 196617 /facet;#P toggle 242 40 13 0;#P objectname facet;#P window setfont "Sans Serif" 12.;#N vpatcher 20 74 620 474;#P window setfont "Sans Serif" 9.;#P newex 395 104 135 196617 variedit $1/material_mode;#P newex 395 81 101 196617 pvar material_mode;#P number 459 59 21 9 0 0 32 3 0 0 0 221 221 221 222 222 222 0 0 0;#P objectname material_mode;#P comment 382 61 83 196617 /material_mode;#P comment 465 147 39 196617 /blend;#P comment 76 170 82 196617 /blendmode/dst;#P comment 76 152 83 196617 /blendmode/src;#P toggle 550 146 13 0;#P objectname blend;#P window setfont "Sans Serif" 10.;#P number 154 168 20 10 0 10 35 3 0 0 0 221 221 221 222 222 222 0 0 0;#P objectname blendmode-dst;#P number 154 151 20 10 0 10 35 3 0 0 0 221 221 221 222 222 222 0 0 0;#P objectname blendmode-src;#P window setfont "Sans Serif" 9.;#P newex 404 167 150 196617 vari $1/blend $1;#P newex 404 144 57 196617 pvar blend;#P newex 192 212 177 196617 vari $1/blendmode/dst;#P newex 192 166 177 196617 vari $1/blendmode/src;#P newex 192 189 99 196617 pvar blendmode-dst;#P newex 192 143 100 196617 pvar blendmode-src;#P toggle 158 319 13 0;#P objectname antialias;#P comment 74 320 54 196617 /antialias;#P comment 75 213 49 196617 /lighting;#P toggle 160 212 13 0;#P objectname lighting;#P number 118 50 30 9 0 1000 35 3 0 0 0 221 221 221 222 222 222 0 0 0;#P objectname layer;#P comment 50 50 40 196617 /layer;#P newex 79 363 122 196617 variedit $1/antialias $1;#P newex 79 340 72 196617 pvar antialias;#P newex 81 270 104 196617 variedit $1/lighting;#P newex 81 247 67 196617 pvar lighting;#P newex 57 110 107 196617 variedit $1/layer $1;#P newex 57 90 58 196617 pvar layer;#P connect 1 0 0 0;#P connect 0 0 1 0;#P connect 5 0 4 0;#P connect 4 0 5 0;#P connect 3 0 2 0;#P connect 2 0 3 0;#P connect 14 0 12 0;#P connect 12 0 14 0;#P connect 15 0 13 0;#P connect 13 0 15 0;#P connect 27 0 26 0;#P connect 26 0 27 0;#P connect 17 0 16 0;#P connect 16 0 17 0;#P pop;#P newobj 647 141 73 196620 p not used;#B color 6;#P window setfont "Sans Serif" 9.;#P newex 273 23 87 196617 r /mdl.1/tomenu;#B color 12;#P newex 273 43 188 196617 pvar model 2;#B color 14;#P user ubumenu 156 107 98 196617 0 1 1 0;#X add;#X prefix_set 0 1 <none> 2;#P objectname model;#P newex 434 274 243 196617 varieditu /smoothshading /mdl;#B color 12;#P newex 323 274 105 196617 pvar smooth_shading;#P comment 157 29 87 196617 /smooth_shading;#P toggle 242 28 13 0;#P objectname smooth_shading;#P newex 434 252 191 196617 varieditu /depth /mdl;#B color 12;#P newex 323 252 58 196617 pvar depth;#P comment 158 17 49 196617 /depth;#P toggle 242 16 13 0;#P objectname depth;#P number 234 52 21 9 0 0 32 3 0 0 0 221 221 221 222 222 222 0 0 0;#P objectname cull_face;#P newex 434 317 208 196617 varieditu /cull_face /mdl;#B color 12;#P newex 323 317 75 196617 pvar cull_face;#P comment 156 54 57 196617 /cull_face;#P comment 103 19 34 196617 /alpha;#B frgb 50 50 50;#P flonum 104 29 30 9 0. 1. 8227 3 0 0 0 221 221 221 0 0 0 0 0 0;#P objectname alphanumb;#P flonum 80 29 30 9 0. 1. 8227 3 0 0 0 221 221 221 0 0 0 0 0 0;#P objectname blue;#P flonum 51 29 30 9 0. 1. 8227 3 0 0 0 221 221 221 0 0 0 0 0 0;#P objectname green;#P flonum 22 29 30 9 0. 1. 8227 3 0 0 0 221 221 221 33 33 33 0 0 0;#P objectname red;#P comment 78 19 34 196617 /blue;#B frgb 50 50 50;#P comment 47 19 41 196617 /green;#B frgb 9 9 9;#P comment 19 19 31 196617 /red;#B frgb 42 42 42;#P flonum 89 89 30 9 -360. 360. 8227 3 0 0 0 221 221 221 50 50 50 0 0 0;#P objectname roty;#P flonum 118 89 30 9 -360. 360. 8227 3 0 0 0 221 221 221 0 0 0 0 0 0;#P objectname rotz;#P flonum 60 89 30 9 -360. 360. 8227 3 33 33 33 221 221 221 9 9 9 0 0 0;#P objectname rotx;#P flonum 118 107 30 9 -100. 100. 8227 3 0 0 0 221 221 221 0 0 0 0 0 0;#P objectname scalez;#P flonum 89 107 30 9 -100. 100. 8227 3 9 9 9 221 221 221 33 33 33 0 0 0;#P objectname scaley;#P flonum 60 107 30 9 -100. 100. 8227 3 33 33 33 221 221 221 25 25 25 0 0 0;#P objectname scalex;#P flonum 115 71 39 9 -100. 100. 35 3 0 0 0 255 255 255 255 255 255 0 0 0;#P objectname posz;#P flonum 78 71 39 9 -100. 100. 35 3 0 0 0 255 255 255 255 255 255 0 0 0;#P objectname posy;#P flonum 39 71 39 9 -100. 100. 35 3 0 0 0 255 255 255 255 255 255 0 0 0;#P objectname posx;#P comment 118 58 19 196617 /z;#B frgb 50 50 50;#P comment 89 58 20 196617 /y;#B frgb 9 9 9;#P comment 60 58 20 196617 /x;#B frgb 42 42 42;#P comment 1 90 30 196617 /rot;#B frgb 42 42 42;#P comment 1 108 39 196617 /scale;#B frgb 33 33 33;#P comment 1 71 31 196617 /pos;#B frgb 42 42 42;#P user panel 142 18 13 105;#X brgb 190 190 190;#X frgb 190 190 190;#X border 1;#X rounded 0;#X shadow 0;#X done;#P user panel 12 53 140 4;#X brgb 190 190 190;#X frgb 190 190 190;#X border 1;#X rounded 0;#X shadow 0;#X done;#P user multiSlider 15 42 126 8 0. 1. 1 2936 47 0 0 2 0 0 0;#M frgb 0 0 0;#M brgb 255 255 255;#M rgb2 127 127 127;#M rgb3 0 0 0;#M rgb4 37 52 91;#M rgb5 74 105 182;#M rgb6 112 158 18;#M rgb7 149 211 110;#M rgb8 187 9 201;#M rgb9 224 62 37;#M rgb10 7 114 128;#P objectname alpha;#P newex 674 217 52 196617 pvar blue;#P newex 674 191 309 196617 varieditu /color/blue /mdl;#B color 12;#P newex 451 217 59 196617 pvar green;#P newex 451 191 217 196617 varieditu /color/green /mdl;#B color 12;#P newex 238 217 49 196617 pvar red;#P newex 238 191 207 196617 varieditu /color/red /mdl;#B color 12;#P newex 15 216 80 196617 pvar alphanumb;#P newex 119 423 185 196617 varieditu /rotxyz/z /mdl;#B color 12;#P newex 37 423 53 196617 pvar rotz;#P newex 119 401 186 196617 varieditu /rotxyz/y /mdl;#B color 12;#P newex 37 401 54 196617 pvar roty;#P newex 119 379 186 196617 varieditu /rotxyz/x /mdl;#B color 12;#P newex 37 379 54 196617 pvar rotx;#P newex 119 359 194 196617 varieditu /scale/z /mdl;#B color 12;#P newex 37 359 62 196617 pvar scalez;#P newex 119 338 195 196617 varieditu /scale/y /mdl;#B color 12;#P newex 37 338 63 196617 pvar scaley;#P newex 119 317 195 196617 varieditu /scale/x /mdl;#B color 12;#P newex 37 317 63 196617 pvar scalex;#P newex 119 296 186 196617 varieditu /pos/z /mdl;#B color 12;#P newex 37 296 54 196617 pvar posz;#P newex 119 274 187 196617 varieditu /pos/y /mdl;#B color 12;#P newex 37 274 55 196617 pvar posy;#P newex 119 252 187 196617 varieditu /pos/x /mdl;#B color 12;#P newex 37 252 55 196617 pvar posx;#P newex 167 214 57 196617 pvar alpha;#P newex 15 190 215 196617 varieditu /color/alpha /mdl;#B color 12;#P bpatcher 0 0 257 125 0 0 m_bkgndu.mxt 0 mdl 1 /movie 2 1;#P objectname background;#P connect 0 0 88 0;#P connect 2 0 1 0;#P connect 21 0 1 0;#P connect 1 0 21 0;#P connect 4 0 3 0;#P connect 6 0 5 0;#P connect 8 0 7 0;#P connect 10 0 9 0;#P connect 12 0 11 0;#P connect 14 0 13 0;#P connect 16 0 15 0;#P connect 18 0 17 0;#P connect 20 0 19 0;#P connect 3 0 4 0;#P connect 5 0 6 0;#P connect 7 0 8 0;#P connect 9 0 10 0;#P connect 11 0 12 0;#P connect 13 0 14 0;#P connect 15 0 16 0;#P connect 17 0 18 0;#P connect 19 0 20 0;#P connect 0 1 1 2;#P connect 1 2 2 0;#P connect 0 1 8 2;#P connect 0 1 16 2;#P connect 0 1 18 2;#P connect 0 1 20 2;#P connect 86 0 82 0;#P connect 0 1 4 2;#P connect 0 1 6 2;#P connect 0 1 86 0;#P connect 23 0 22 0;#P connect 22 0 23 0;#P connect 0 1 10 2;#P connect 0 1 12 2;#P connect 0 1 14 2;#P connect 87 0 0 1;#P connect 85 0 67 0;#P connect 68 0 67 0;#P connect 97 0 96 0;#P connect 101 0 100 0;#P connect 61 0 60 0;#P connect 65 0 64 0;#P connect 73 0 72 0;#P connect 56 0 55 0;#P connect 77 0 76 0;#P connect 79 0 78 0;#P connect 0 1 22 2;#P connect 96 0 97 0;#P connect 100 0 101 0;#P connect 60 0 61 0;#P connect 64 0 65 0;#P connect 72 0 73 0;#P connect 55 0 56 0;#P connect 76 0 77 0;#P connect 78 0 79 0;#P connect 67 1 83 0;#P connect 83 0 89 0;#P connect 89 0 84 0;#P connect 25 0 24 0;#P connect 24 0 25 0;#P connect 0 1 97 2;#P connect 0 1 101 2;#P connect 84 1 85 0;#P connect 0 1 84 2;#P connect 0 1 61 2;#P connect 0 1 73 2;#P connect 0 1 56 2;#P connect 0 1 77 2;#P connect 0 1 79 2;#P connect 0 1 65 2;#P connect 0 1 24 2;#P connect 27 0 26 0;#P connect 26 0 27 0;#P connect 0 1 95 0;#P connect 95 0 92 0;#P connect 92 0 94 0;#P connect 94 0 93 0;#P connect 0 1 26 2;#P pop;