max v2;#N vpatcher 387 176 1549 864;#P window setfont "Sans Serif" 12.;#P newex 343 82 81 196620 jit.gl.sketch;#B color 7;#P window setfont "Sans Serif" 9.;#P newex 405 542 145 196617 varieditu /axes /mdl;#B color 12;#P newex 294 542 55 196617 pvar axes;#P comment 69 2 37 196617 /axes;#P toggle 104 2 13 0;#P objectname axes;#P newex 643 334 145 196617 varieditu /light/coef /mdlgrp;#B color 12;#P newex 643 356 73 196617 pvar lightcoef;#P comment 157 111 63 196617 /light/coef;#P newex 653 224 71 196617 editorwindow;#P button 579 101 15 0;#P newex 579 71 126 196617 r /mdlgrp.1/more/editor;#P window linecount 0;#P message 16 27 125 196617;#P objectname object-name;#P window linecount 1;#P newex 367 380 90 196617 pvar object-name;#P newex 367 358 151 196617 varieditu /objectname /mdlgrp;#B color 12;#P window linecount 2;#P message 579 124 177 196617 \; /movie/light/editor open \;;#P window linecount 1;#P newex 449 179 156 196617 varieditu /more/editor /mdlgrp;#N thispatcher;#Q end;#P newobj 3 139 61 196617 thispatcher;#P inlet 306 70 15 0;#P newex 238 134 50 196617 deferlow;#P window setfont "Sans Serif" 12.;#N vpatcher 30 89 293 402;#P origin 0 -15;#P window setfont "Sans Serif" 9.;#P window linecount 0;#P newex 91 178 64 196617 sprintf %s_;#P window linecount 2;#P newex 50 138 39 196617 route symbol;#P window linecount 1;#P newex 50 87 46 196617 t dump l;#P newex 50 65 114 196617 sprintf refer %s/state;#P newex 50 254 47 196617 forward;#P window linecount 2;#P newex 91 210 42 196617 prepend send;#P newex 91 138 39 196617 route symbol;#P window linecount 1;#N coll /mdlgrp.1/state;#P newobj 50 114 134 196617 coll;#B color 5;#P inlet 50 21 15 0;#P connect 0 0 5 0;#P connect 5 0 6 0;#P connect 6 1 1 0;#P connect 6 0 1 0;#P connect 1 0 7 0;#P fasten 7 1 4 0 84 191 55 191;#P connect 7 0 4 0;#P fasten 3 0 4 0 96 246 55 246;#P connect 1 1 2 0;#P connect 2 0 8 0;#P connect 8 0 3 0;#P pop;#P newobj 236 155 109 196620 p re-send values;#B color 7;#P window setfont "Sans Serif" 9.;#P newex 434 296 123 196617 varieditu /facet /mdlgrp;#B color 12;#P newex 323 296 57 196617 pvar facet;#P window setfont "Sans Serif" 12.;#N vpatcher 20 74 620 474;#P window setfont "Sans Serif" 9.;#P newex 395 104 135 196617 variedit $1/material_mode;#P newex 395 81 101 196617 pvar material_mode;#P number 459 59 21 9 0 0 32 3 0 0 0 221 221 221 222 222 222 0 0 0;#P objectname material_mode;#P comment 382 61 83 196617 /material_mode;#P comment 465 147 39 196617 /blend;#P comment 76 170 82 196617 /blendmode/dst;#P comment 76 152 83 196617 /blendmode/src;#P toggle 550 146 13 0;#P objectname blend;#P window setfont "Sans Serif" 10.;#P number 154 168 20 10 0 10 35 3 0 0 0 221 221 221 222 222 222 0 0 0;#P objectname blendmode-dst;#P number 154 151 20 10 0 10 35 3 0 0 0 221 221 221 222 222 222 0 0 0;#P objectname blendmode-src;#P window setfont "Sans Serif" 9.;#P newex 404 167 150 196617 vari $1/blend $1;#P newex 404 144 57 196617 pvar blend;#P newex 192 212 177 196617 vari $1/blendmode/dst;#P newex 192 166 177 196617 vari $1/blendmode/src;#P newex 192 189 99 196617 pvar blendmode-dst;#P newex 192 143 100 196617 pvar blendmode-src;#P toggle 158 319 13 0;#P objectname antialias;#P comment 74 320 54 196617 /antialias;#P comment 75 213 49 196617 /lighting;#P toggle 160 212 13 0;#P objectname lighting;#P number 118 50 30 9 0 1000 35 3 0 0 0 221 221 221 222 222 222 0 0 0;#P objectname layer;#P comment 50 50 40 196617 /layer;#P newex 79 363 122 196617 variedit $1/antialias $1;#P newex 79 340 72 196617 pvar antialias;#P newex 81 270 104 196617 variedit $1/lighting;#P newex 81 247 67 196617 pvar lighting;#P newex 57 110 107 196617 variedit $1/layer $1;#P newex 57 90 58 196617 pvar layer;#P connect 1 0 0 0;#P connect 0 0 1 0;#P connect 5 0 4 0;#P connect 4 0 5 0;#P connect 3 0 2 0;#P connect 2 0 3 0;#P connect 14 0 12 0;#P connect 12 0 14 0;#P connect 15 0 13 0;#P connect 13 0 15 0;#P connect 27 0 26 0;#P connect 26 0 27 0;#P connect 17 0 16 0;#P connect 16 0 17 0;#P pop;#P newobj 501 500 73 196620 p not used;#B color 6;#P window setfont "Sans Serif" 9.;#P newex 434 274 171 196617 varieditu /smooth_shading /mdlgrp;#B color 12;#P newex 323 274 105 196617 pvar smooth_shading;#P comment 157 29 87 196617 /smooth_shading;#P toggle 242 28 13 0;#P objectname smooth_shading;#P flonum 89 89 30 9 -360. 360. 8227 3 0 0 0 221 221 221 50 50 50 0 0 0;#P objectname roty;#P flonum 118 89 30 9 -360. 360. 8227 3 0 0 0 221 221 221 0 0 0 0 0 0;#P objectname rotz;#P flonum 60 89 30 9 -360. 360. 8227 3 33 33 33 221 221 221 9 9 9 0 0 0;#P objectname rotx;#P flonum 118 107 30 9 -100. 100. 8227 3 0 0 0 221 221 221 0 0 0 0 0 0;#P objectname scalez;#P flonum 89 107 30 9 -100. 100. 8227 3 9 9 9 221 221 221 33 33 33 0 0 0;#P objectname scaley;#P flonum 60 107 30 9 -100. 100. 8227 3 33 33 33 221 221 221 25 25 25 0 0 0;#P objectname scalex;#P flonum 115 71 39 9 -100. 100. 35 3 0 0 0 255 255 255 255 255 255 0 0 0;#P objectname posz;#P flonum 78 71 39 9 -100. 100. 35 3 0 0 0 255 255 255 255 255 255 0 0 0;#P objectname posy;#P flonum 39 71 39 9 -100. 100. 35 3 0 0 0 255 255 255 255 255 255 0 0 0;#P objectname posx;#P comment 118 58 19 196617 /z;#B frgb 50 50 50;#P comment 89 58 20 196617 /y;#B frgb 9 9 9;#P comment 60 58 20 196617 /x;#B frgb 42 42 42;#P comment 1 90 30 196617 /rot;#B frgb 42 42 42;#P comment 1 108 39 196617 /scale;#B frgb 33 33 33;#P comment 1 71 31 196617 /pos;#B frgb 42 42 42;#P user panel 142 18 13 105;#X brgb 190 190 190;#X frgb 190 190 190;#X border 1;#X rounded 0;#X shadow 0;#X done;#P user panel 12 53 140 4;#X brgb 190 190 190;#X frgb 190 190 190;#X border 1;#X rounded 0;#X shadow 0;#X done;#P newex 119 423 142 196617 varieditu /rotxyz/z /mdlgrp;#B color 12;#P newex 37 423 53 196617 pvar rotz;#P newex 119 401 143 196617 varieditu /rotxyz/y /mdlgrp;#B color 12;#P newex 37 401 54 196617 pvar roty;#P newex 119 379 143 196617 varieditu /rotxyz/x /mdlgrp;#B color 12;#P newex 37 379 54 196617 pvar rotx;#P newex 119 359 134 196617 varieditu /scale/z /mdlgrp;#B color 12;#P newex 37 359 62 196617 pvar scalez;#P newex 119 338 135 196617 varieditu /scale/y /mdlgrp;#B color 12;#P newex 37 338 63 196617 pvar scaley;#P newex 119 317 135 196617 varieditu /scale/x /mdlgrp;#B color 12;#P newex 37 317 63 196617 pvar scalex;#P newex 119 296 126 196617 varieditu /pos/z /mdlgrp;#B color 12;#P newex 37 296 54 196617 pvar posz;#P newex 119 274 127 196617 varieditu /pos/y /mdlgrp;#B color 12;#P newex 37 274 55 196617 pvar posy;#P newex 119 252 127 196617 varieditu /pos/x /mdlgrp;#B color 12;#P newex 37 252 55 196617 pvar posx;#P flonum 230 109 26 9 0. 1000. 35 3 0 0 0 221 221 221 222 222 222 0 0 0;#P objectname lightcoef;#P bpatcher 0 0 257 125 0 0 m_bkgndu.mxt 0 mdlgrp 1 /movie 2 1;#P objectname background;#P connect 0 0 47 0;#P connect 3 0 2 0;#P connect 5 0 4 0;#P connect 7 0 6 0;#P connect 9 0 8 0;#P connect 11 0 10 0;#P connect 13 0 12 0;#P connect 15 0 14 0;#P connect 17 0 16 0;#P connect 19 0 18 0;#P connect 2 0 3 0;#P connect 4 0 5 0;#P connect 6 0 7 0;#P connect 8 0 9 0;#P connect 10 0 11 0;#P connect 12 0 13 0;#P connect 14 0 15 0;#P connect 16 0 17 0;#P connect 18 0 19 0;#P connect 0 1 7 2;#P connect 0 1 3 2;#P connect 0 1 5 2;#P connect 0 1 9 2;#P connect 0 1 11 2;#P connect 0 1 13 2;#P connect 0 1 15 2;#P connect 0 1 17 2;#P connect 0 1 19 2;#P connect 45 0 44 0;#P connect 0 1 45 0;#P connect 46 0 0 1;#P connect 62 0 61 0;#P connect 40 0 39 0;#P connect 43 0 42 0;#P fasten 51 0 50 0 372 402 359 402 359 348 372 348;#P connect 50 0 51 0;#P connect 61 0 62 0;#P connect 39 0 40 0;#P connect 42 0 43 0;#P connect 0 1 50 2;#P connect 0 1 62 2;#P connect 0 1 43 2;#P connect 0 1 40 2;#P connect 0 1 48 2;#P connect 53 0 54 0;#P connect 54 0 49 0;#P fasten 57 0 58 0 648 380 636 380 636 329 648 329;#P connect 58 0 57 0;#P connect 0 1 58 2;#P pop;