max v2;#N vpatcher 82 507 649 758;#P origin -82 154;#P window setfont "Sans Serif" 9.;#P window linecount 1;#P newex 22 83 193 196617 s $1/matrix/out;#P window setfont Helvetica 9.;#P comment 22 192 190 1376265 Tom Mays \, Olivier Pfeiffer & Renaud Rubiano;#B frgb 0 146 207;#P window linecount 2;#P comment 22 165 204 1376265 m_mesh is a part of movie \, a part of tapemovie. contact@tapemovie.org;#P window setfont Helvetica 24.;#P window linecount 1;#P comment 22 106 101 1376280 m_mesh;#B frgb 0 146 207;#P window setfont Helvetica 12.;#P window linecount 2;#P comment 22 133 263 1376268 $1 : prefix name \; $2 : name of the render associated \;;#P user panel 19 103 269 111;#X brgb 255 255 255;#X frgb 0 0 0;#X border 1;#X rounded 0;#X shadow 0;#X done;#P window setfont "Sans Serif" 9.;#P window linecount 1;#P newex 320 96 161 196617 print $1/dumpout;#P window setfont "Sans Serif" 12.;#P newex 22 28 228 196620 m_glgroup $1 $2;#B color 6;#N vpatcher -12 59 820 449;#P origin 0 9;#P window setfont "Sans Serif" 9.;#P window linecount 1;#P newex 33 271 118 196617 jit.matrix 5 float32 2 2;#P window setfont Helvetica 9.;#P comment 52 336 158 1376265 fxw@wanadoo.fr;#B frgb 0 146 207;#P comment 52 326 177 1376265 thanks to Francois Weber for this patch...;#B frgb 0 146 207;#P window setfont "Sans Serif" 9.;#P window linecount 9;#P message 485 244 135 196617 \; $1/keystone/x1/init bang \; $1/keystone/y1/init bang \; $1/keystone/x2/init bang \; $1/keystone/y2/init bang \; $1/keystone/x3/init bang \; $1/keystone/y3/init bang \; $1/keystone/x4/init bang \; $1/keystone/y4/init bang \;;#P window linecount 1;#P newex 481 171 316 196617 makeparam $1/keystone/y4 $1 f -1 -1 1 1;#B color 12;#P newex 465 152 316 196617 makeparam $1/keystone/x4 $1 f -1 -1 1 1;#B color 12;#P newex 353 133 345 196617 makeparam $1/keystone/y3 $1 f -1 -1 1 1;#B color 12;#P newex 336 114 316 196617 makeparam $1/keystone/x3 $1 f 1 -1 1 1;#B color 12;#P newex 221 95 316 196617 makeparam $1/keystone/y2 $1 f 1 -1 1 1;#B color 12;#P newex 205 76 316 196617 makeparam $1/keystone/x2 $1 f 1 -1 1 1;#B color 12;#P newex 93 57 361 196617 makeparam $1/keystone/y1 $1 f 1 -1 1 1;#B color 12;#P newex 78 38 316 196617 makeparam $1/keystone/x1 $1 f -1 -1 1 1;#B color 12;#P newex 417 196 125 196617 pak 0 0 val 1. -1. 0. 0. 0.;#P newex 285 196 130 196617 pak 1 0 val -1. -1. 0. 1. 0.;#P newex 157 196 125 196617 pak 1 1 val -1. 1. 0. 1. 1.;#P newex 33 196 120 196617 pak 0 1 val 1. 1. 0. 0. 1.;#P newex 33 246 27 196617 t b l;#P newex 33 223 78 196617 prepend setcell;#P newex 33 299 177 196617 jit.matrix 5 float32 20 20 @interp 1;#P window setfont "Sans Serif" 12.;#N vpatcher 20 74 266 384;#P window setfont "Sans Serif" 9.;#P newex 50 50 121 196617 t b mesh;#P newex 108 198 27 196617 + 1;#P newex 91 219 27 196617 !-;#P newex 91 153 64 196617 fromsymbol;#P newex 91 133 40 196617 itoa;#P newex 50 113 51 196617 zl ecils 1;#P newex 50 92 40 196617 atoi;#P message 50 73 109 196617 $1;#N coll m_config 1;#P newobj 108 175 79 196617 coll m_config 1;#B color 5;#P inlet 50 30 15 0;#P outlet 91 241 15 0;#P connect 1 0 10 0;#P connect 10 0 3 0;#P connect 3 0 4 0;#P connect 4 0 5 0;#P connect 5 1 6 0;#P connect 6 0 7 0;#P connect 7 0 8 0;#P connect 8 0 0 0;#P fasten 10 1 2 0 166 172 113 172;#P connect 2 0 9 0;#P connect 9 0 8 1;#P pop;#P newobj 301 278 113 196620 p magically order;#B color 6;#P window setfont "Sans Serif" 9.;#P newex 301 303 156 196617 s $1/layer/initval;#B color 12;#P newex 301 256 48 196617 loadbang;#P window linecount 0;#P newex 485 221 158 196617 r $1/properties/init;#B color 12;#P outlet 33 325 15 0;#P fasten 11 0 6 0 422 218 38 218;#P fasten 10 0 6 0 290 218 38 218;#P fasten 9 0 6 0 162 218 38 218;#P fasten 8 0 6 0 38 218 38 218;#P connect 6 0 7 0;#P connect 7 0 23 0;#P connect 7 1 23 0;#P connect 23 0 5 0;#P connect 5 0 0 0;#P connect 12 0 8 3;#P connect 13 0 8 4;#P connect 14 0 9 3;#P connect 15 0 9 4;#P connect 2 0 4 0;#P connect 4 0 3 0;#P connect 16 0 10 3;#P connect 17 0 10 4;#P connect 18 0 11 3;#P connect 19 0 11 4;#P connect 1 0 20 0;#P pop;#P newobj 260 28 87 196620 p proprieties;#B color 6;#P window setfont "Sans Serif" 9.;#P newex 22 61 308 196617 jit.gl.mesh $2 @name $1 @automatic 0;#P newex 320 115 168 196617 moduleinit $1;#B color 11;#P window linecount 4;#P message 320 141 203 196617 \; $1/sw/init bang \; $1/gl_group/init bang \; $1/properties/init bang \;;#P connect 4 0 2 0;#P fasten 3 0 2 0 265 55 27 55;#P connect 2 0 11 0;#P connect 2 1 5 0;#P connect 1 0 0 0;#P pop;