max v2;#N vpatcher 286 44 1429 896;#P window setfont "Sans Serif" 9.;#P window linecount 1;#P newex 849 787 244 196617 variedit $1/y4 $1;#B color 12;#P newex 849 764 46 196617 pvar y4;#B color 14;#P newex 849 738 244 196617 variedit $1/y3 $1;#B color 12;#P newex 849 715 46 196617 pvar y3;#B color 14;#P newex 846 691 244 196617 variedit $1/y1 $1;#B color 12;#P newex 846 668 46 196617 pvar y1;#B color 14;#P newex 846 642 244 196617 variedit $1/y2 $1;#B color 12;#P newex 846 619 46 196617 pvar y2;#B color 14;#P flonum 137 215 37 9 0. 500. 35 3 0 0 0 221 221 221 222 222 222 0 0 0;#P objectname x2;#P flonum 77 215 37 9 0. 500. 35 3 0 0 0 221 221 221 222 222 222 0 0 0;#P objectname x1;#P comment 176 217 26 196617 /x2;#B frgb 0 0 222;#P comment 114 217 26 196617 /x1;#B frgb 0 0 222;#P flonum 77 167 37 9 0. 500. 35 3 0 0 0 221 221 221 222 222 222 0 0 0;#P objectname y3;#P flonum 137 167 37 9 0. 500. 35 3 0 0 0 221 221 221 222 222 222 0 0 0;#P objectname y4;#P comment 114 169 26 196617 /y3;#B frgb 0 0 222;#P comment 176 169 26 196617 /y4;#B frgb 0 0 222;#P newex 601 792 244 196617 variedit $1/x4 $1;#B color 12;#P newex 601 769 46 196617 pvar x4;#B color 14;#P newex 601 743 244 196617 variedit $1/x3 $1;#B color 12;#P newex 601 720 46 196617 pvar x3;#B color 14;#P flonum 77 183 37 9 0. 500. 35 3 0 0 0 221 221 221 222 222 222 0 0 0;#P objectname x3;#P flonum 137 183 37 9 0. 500. 35 3 0 0 0 221 221 221 222 222 222 0 0 0;#P objectname x4;#P comment 114 185 26 196617 /x3;#B frgb 0 0 222;#P comment 176 185 26 196617 /x4;#B frgb 0 0 222;#P newex 598 696 244 196617 variedit $1/x1 $1;#B color 12;#P newex 598 673 46 196617 pvar x1;#B color 14;#P newex 598 647 244 196617 variedit $1/x2 $1;#B color 12;#P newex 598 624 46 196617 pvar x2;#B color 14;#P flonum 137 199 37 9 0. 500. 35 3 0 0 0 221 221 221 222 222 222 0 0 0;#P objectname y2;#P flonum 77 199 37 9 0. 500. 35 3 0 0 0 221 221 221 222 222 222 0 0 0;#P objectname y1;#P comment 176 201 26 196617 /y2;#B frgb 0 0 222;#P comment 114 201 26 196617 /y1;#B frgb 0 0 222;#P toggle 2 184 15 0;#P objectname closedy;#P comment 17 185 56 196617 /closed/y;#B frgb 0 0 222;#P toggle 2 167 15 0;#P objectname closedx;#P comment 17 168 56 196617 /closed/x;#B frgb 0 0 222;#P newex 302 746 68 196617 pvar closedy;#B color 14;#P newex 271 677 68 196617 pvar closedx;#B color 14;#P newex 271 653 259 196617 variedit $1/closed/x $1;#B color 12;#P newex 302 721 259 196617 variedit $1/closed/y $1;#B color 12;#P button 301 124 15 0;#P window linecount 2;#P message 301 144 183 196617 \; /movie/gl/editor show $1;#P window linecount 1;#P newex 301 103 93 196617 r $1/more/editor;#P user panel 3 427 952 4;#X brgb 190 190 190;#X frgb 190 190 190;#X border 1;#X rounded 0;#X shadow 0;#X done;#P user ubumenu 142 90 69 196617 0 0 1 0;#X add object_linear;#X add sphere_map;#X add eye_linear;#X prefix_set 0 0 <none> 0;#P objectname texmap;#P newex 502 166 234 196617 variedit $1/texmap $1;#P newex 502 143 67 196617 pvar texmap;#P comment 212 93 49 196617 /texmap;#B frgb 0 0 222;#N vpatcher 10 59 392 335;#P window setfont "Sans Serif" 9.;#P newex 132 126 82 196617 prepend append;#P newex 78 126 44 196617 t clear;#P newex 78 104 64 196617 route clear;#P newex 78 75 133 196617 r /movie/tojmatrixmenus;#B color 12;#P newex 50 50 297 196617 variedit $1/mtrxctl/source $1;#B color 12;#P inlet 50 30 15 0;#P outlet 50 187 15 0;#P connect 1 0 2 0;#P connect 2 0 0 0;#P connect 5 0 0 0;#P connect 6 0 0 0;#P connect 3 0 4 0;#P connect 4 0 5 0;#P connect 4 1 6 0;#P pop;#P newobj 566 554 250 196617 p variedit $1/mtrxctl/source;#B color 12;#P newex 768 305 209 196617 vari $1/blend $1;#B color 12;#P newex 768 285 57 196617 pvar blend;#B color 14;#P comment 217 114 39 196617 /blend;#B frgb 0 0 222;#P toggle 206 113 13 0;#P objectname blend;#P newex 686 285 67 196617 pvar lighting;#B color 14;#P newex 686 259 236 196617 variedit $1/lighting $1;#B color 12;#P comment 158 114 49 196617 /lighting;#B frgb 0 0 222;#P toggle 147 113 13 0;#P objectname lighting;#P window setfont "Sans Serif" 14.;#P comment 4 130 65 196622 /mtrxctl;#B color 12;#P window setfont "Sans Serif" 9.;#P comment 208 153 44 196617 /dim/y;#B frgb 0 0 222;#P number 174 151 34 9 1 1024 35 3 0 0 0 221 221 221 222 222 222 0 0 0;#P objectname ctldimy;#P newex 560 503 272 196617 variedit $1/mtrxctl/dim/y $1;#B color 12;#P newex 560 527 68 196617 pvar ctldimy;#B color 14;#P message 300 6 33 196617 clear;#P newex 566 581 82 196617 pvar mtrxctl 2;#B color 14;#P user panel 1 127 254 4;#X brgb 190 190 190;#X frgb 190 190 190;#X border 1;#X rounded 0;#X shadow 0;#X done;#P newex 729 8 208 196617 variedit $1/dim/x $1;#B color 12;#P newex 729 35 60 196617 pvar dimx;#B color 14;#P newex 306 503 247 196617 variedit $1/mtrxctl/slidedown $1;#B color 12;#P newex 306 473 234 196617 variedit $1/mtrxctl/slideup $1;#B color 12;#P newex 306 527 82 196617 pvar slidedown;#B color 14;#P newex 306 450 69 196617 pvar slideup;#B color 14;#P flonum 77 151 37 9 0. 500. 35 3 0 0 0 221 221 221 222 222 222 0 0 0;#P objectname slidedown;#P flonum 77 133 37 9 0. 500. 35 3 0 0 0 221 221 221 222 222 222 0 0 0;#P objectname slideup;#P comment 114 153 64 196617 /slidedown;#B frgb 0 0 222;#P comment 114 135 51 196617 /slideup;#B frgb 0 0 222;#P toggle 2 150 15 0;#P objectname ctlshow;#P comment 183 56 44 196617 /dim/y;#B frgb 0 0 222;#P number 148 55 34 9 1 1024 35 3 0 0 0 221 221 221 222 222 222 0 0 0;#P objectname dimy;#P window setfont "Sans Serif" 12.;#P newex 280 53 215 196620 m_inputmenugpu $1;#B color 6;#P window setfont "Sans Serif" 9.;#P newex 280 30 81 196617 pvar texture 2;#P window setfont Times 10.;#P user ubumenu 57 2 63 1310730 0 0 1 0;#X add <none>;#X add /mov.1;#X add /render.1;#X add /thresh.1;#X prefix_set 0 0 <none> 0;#P objectname texture;#P window setfont "Sans Serif" 9.;#P comment 17 151 39 196617 /show;#B frgb 0 0 222;#P newex 16 547 267 196617 variedit $1/mtrxctl/show $1;#B color 12;#P newex 16 524 73 196617 pvar ctlshow;#B color 14;#P comment 208 135 44 196617 /dim/x;#B frgb 0 0 222;#P number 174 133 34 9 1 1024 35 3 0 0 0 221 221 221 222 222 222 0 0 0;#P objectname ctldimx;#P newex 560 473 272 196617 variedit $1/mtrxctl/dim/x $1;#B color 12;#P newex 560 450 66 196617 pvar ctldimx;#B color 14;#P newex 18 577 267 196617 variedit $1/mtrxctl/coeff $1;#B color 12;#P newex 18 601 75 196617 pvar zamount;#B color 14;#P newex 510 9 204 196617 variedit $1/layer $1;#B color 12;#P newex 510 36 62 196617 pvar layer;#B color 14;#P comment 183 38 44 196617 /dim/x;#B frgb 0 0 222;#P number 148 37 34 9 1 1024 35 3 0 0 0 221 221 221 222 222 222 0 0 0;#P objectname dimx;#P window setfont Times 10.;#P user ubumenu 143 231 66 1310730 0 0 1 0;#X add <none>;#X add /mov.1;#X prefix_set 0 0 <none> 0;#P objectname mtrxctl;#P window setfont "Sans Serif" 9.;#P comment 174 74 86 196617 /transformreset;#B frgb 0 0 222;#P newex 486 303 56 196617 pvar blue;#B color 14;#P newex 486 277 135 196617 variedit $1/color/blue $1;#B color 12;#P newex 347 303 63 196617 pvar green;#B color 14;#P newex 347 277 142 196617 variedit $1/color/green $1;#B color 12;#P newex 208 303 53 196617 pvar red;#B color 14;#P newex 208 277 132 196617 variedit $1/color/red $1;#B color 12;#P comment 103 20 38 196617 /alpha;#B frgb 50 50 222;#P flonum 104 30 34 9 0. 1. 8227 3 0 0 0 221 221 221 0 0 0 0 0 0;#P objectname alphanumb;#P flonum 80 30 34 9 0. 1. 8227 3 0 0 0 221 221 221 0 0 0 0 0 0;#P objectname blue;#P flonum 51 30 34 9 0. 1. 8227 3 0 0 0 221 221 221 0 0 0 0 0 0;#P objectname green;#P flonum 22 30 34 9 0. 1. 8227 3 0 0 0 221 221 221 33 33 33 0 0 0;#P objectname red;#P comment 78 20 38 196617 /blue;#B frgb 50 50 222;#P comment 47 20 45 196617 /green;#B frgb 9 9 222;#P comment 19 20 35 196617 /red;#B frgb 42 42 222;#P flonum 73 86 40 9 -360. 360. 8227 3 0 0 0 221 221 221 50 50 50 0 0 0;#P objectname roty;#P flonum 110 86 40 9 -360. 360. 8227 3 0 0 0 221 221 221 0 0 0 0 0 0;#P objectname rotz;#P flonum 36 86 40 9 -360. 360. 8227 3 33 33 33 221 221 221 9 9 9 0 0 0;#P objectname rotx;#P flonum 110 104 42 9 -10. 10. 8227 3 0 0 0 221 221 221 0 0 0 0 0 0;#P objectname scalez;#P flonum 73 104 42 9 -10. 10. 8227 3 9 9 9 221 221 221 33 33 33 0 0 0;#P objectname scaley;#P flonum 36 104 42 9 -10. 10. 8227 3 33 33 33 221 221 221 25 25 25 0 0 0;#P objectname scalex;#P flonum 108 68 41 9 -100. 100. 8227 3 0 0 0 221 221 221 0 0 0 0 0 0;#P objectname posz;#P flonum 71 68 41 9 -100. 100. 8227 3 0 0 0 221 221 221 0 0 0 0 0 0;#P objectname posy;#P comment 118 55 23 196617 /z;#B frgb 50 50 222;#P comment 89 55 24 196617 /y;#B frgb 9 9 222;#P comment 60 55 24 196617 /x;#B frgb 42 42 222;#P comment 1 87 34 196617 /rot;#B frgb 42 42 222;#P comment 1 105 43 196617 /scale;#B frgb 33 33 222;#P comment 1 68 35 196617 /pos;#B frgb 42 42 222;#P user panel 12 54 130 10;#X brgb 190 190 190;#X frgb 190 190 190;#X border 1;#X rounded 0;#X shadow 0;#X done;#P newex 15 302 84 196617 pvar alphanumb;#B color 14;#P newex 501 121 250 196617 variedit $1/transformreset $1;#B color 12;#P newex 501 94 108 196617 pvar transformreset;#B color 14;#P number 148 19 34 9 0 1999 35 3 0 0 0 221 221 221 222 222 222 0 0 0;#P objectname layer;#P newex 729 62 208 196617 variedit $1/dim/y $1;#B color 12;#P newex 729 89 60 196617 pvar dimy;#B color 14;#P newex 415 384 228 196617 variedit $1/rotxyz/z $1;#B color 12;#P newex 333 384 57 196617 pvar rotz;#B color 14;#P newex 415 362 229 196617 variedit $1/rotxyz/y $1;#B color 12;#P newex 333 362 58 196617 pvar roty;#B color 14;#P newex 415 340 229 196617 variedit $1/rotxyz/x $1;#B color 12;#P newex 333 340 58 196617 pvar rotx;#B color 14;#P newex 731 383 232 196617 variedit $1/scale/z $1;#B color 12;#P newex 649 383 66 196617 pvar scalez;#B color 14;#P newex 731 362 233 196617 variedit $1/scale/y $1;#B color 12;#P newex 649 362 67 196617 pvar scaley;#B color 14;#P newex 731 341 233 196617 variedit $1/scale/x $1;#B color 12;#P newex 649 341 67 196617 pvar scalex;#B color 14;#P newex 102 385 224 196617 variedit $1/pos/z $1;#B color 12;#P newex 20 383 58 196617 pvar posz;#B color 14;#P newex 102 362 225 196617 variedit $1/pos/y $1;#B color 12;#P newex 20 361 59 196617 pvar posy;#B color 14;#P newex 102 339 225 196617 variedit $1/pos/x $1;#B color 12;#P newex 20 339 59 196617 pvar posx;#B color 14;#P newex 141 302 61 196617 pvar alpha;#B color 14;#P comment 183 20 44 196617 /layer;#B frgb 0 0 222;#P newex 15 276 140 196617 variedit $1/color/alpha $1;#B color 12;#P user multiSlider 15 43 122 8 0. 1. 1 2936 47 0 0 2 0 0 0;#M frgb 0 0 0;#M brgb 255 255 255;#M rgb2 127 127 127;#M rgb3 0 0 0;#M rgb4 37 52 91;#M rgb5 74 105 182;#M rgb6 112 158 18;#M rgb7 149 211 110;#M rgb8 187 9 201;#M rgb9 224 62 37;#M rgb10 7 114 128;#P objectname alpha;#P flonum 2 208 37 9 0. 1. 35 3 0 0 0 221 221 221 222 222 222 0 0 0;#P objectname zamount;#P comment 39 209 39 196617 /coeff;#B frgb 0 0 222;#P number 148 72 28 9 0 2 35 3 0 0 0 221 221 221 222 222 222 0 0 0;#P objectname transformreset;#P user panel 0 62 140 8;#X brgb 190 190 190;#X frgb 190 190 190;#X border 1;#X rounded 0;#X shadow 0;#X done;#P user panel 1 70 35 55;#X brgb 190 190 190;#X frgb 190 190 190;#X border 0;#X rounded 0;#X shadow 0;#X done;#P flonum 34 68 41 9 -100. 100. 8227 3 0 0 0 221 221 221 33 33 33 0 0 0;#P objectname posx;#P user panel 144 19 17 109;#X brgb 255 255 255;#X frgb 190 190 190;#X border 0;#X rounded 0;#X shadow 0;#X done;#P user panel 140 19 17 109;#X brgb 190 190 190;#X frgb 190 190 190;#X border 1;#X rounded 0;#X shadow 0;#X done;#P comment 209 234 46 196617 /source;#P bpatcher 0 1 256 248 0 0 bkgnd4.mxt 0 $1 1;#P objectname background;#P connect 37 0 11 0;#P connect 13 0 11 0;#P connect 11 0 37 0;#P connect 80 0 79 0;#P connect 79 0 80 0;#P connect 73 0 74 0;#P connect 74 0 73 0;#P connect 15 0 14 0;#P connect 17 0 16 0;#P connect 19 0 18 0;#P connect 14 0 15 0;#P connect 16 0 17 0;#P connect 18 0 19 0;#P connect 11 2 13 0;#P connect 62 0 61 0;#P connect 61 0 62 0;#P fasten 125 0 124 0 276 701 260 701 260 640 276 640;#P connect 124 0 125 0;#P connect 100 0 83 0;#P fasten 84 0 83 0 285 80 276 80 276 26 285 26;#P fasten 83 1 84 0 356 50 285 50;#P connect 120 0 122 0;#P connect 122 0 121 0;#P fasten 126 0 123 0 307 771 298 771 298 717 307 717;#P connect 123 0 126 0;#P connect 94 0 92 0;#P connect 92 0 94 0;#P connect 93 0 95 0;#P connect 95 0 93 0;#P connect 27 0 26 0;#P connect 29 0 28 0;#P connect 31 0 30 0;#P connect 64 0 63 0;#P connect 63 0 64 0;#P connect 26 0 27 0;#P connect 28 0 29 0;#P connect 30 0 31 0;#P connect 66 0 65 0;#P connect 65 0 66 0;#P connect 36 0 35 0;#P connect 35 0 36 0;#P connect 117 0 116 0;#P connect 116 0 117 0;#P connect 71 0 72 0;#P connect 72 0 71 0;#P connect 76 0 75 0;#P connect 75 0 76 0;#P connect 101 0 102 0;#P connect 102 0 101 0;#P connect 99 1 114 0;#P connect 114 0 99 0;#P connect 100 0 99 0;#P connect 136 0 135 0;#P connect 135 0 136 0;#P connect 138 0 137 0;#P connect 137 0 138 0;#P connect 144 0 143 0;#P connect 143 0 144 0;#P connect 146 0 145 0;#P connect 145 0 146 0;#P connect 21 0 20 0;#P connect 23 0 22 0;#P connect 25 0 24 0;#P connect 109 0 108 0;#P connect 108 0 109 0;#P connect 96 0 97 0;#P connect 97 0 96 0;#P connect 32 0 33 0;#P connect 33 0 32 0;#P connect 20 0 21 0;#P connect 22 0 23 0;#P connect 24 0 25 0;#P connect 113 0 112 0;#P connect 112 0 113 0;#P connect 156 0 155 0;#P connect 155 0 156 0;#P connect 158 0 157 0;#P connect 157 0 158 0;#P connect 160 0 159 0;#P connect 159 0 160 0;#P connect 162 0 161 0;#P connect 161 0 162 0;#P pop;