max v2;#N vpatcher 62 68 1183 744;#P origin -94 -71;#P button 307 130 15 0;#P window setfont "Sans Serif" 9.;#P window linecount 2;#P message 307 150 183 196617 \; /movie/gl/editor show $1;#P window linecount 1;#P newex 307 109 93 196617 r $1/more/editor;#P user panel 16 346 952 4;#X brgb 190 190 190;#X frgb 190 190 190;#X border 1;#X rounded 0;#X shadow 0;#X done;#P user ubumenu 142 89 69 196617 0 0 1 0;#X add object_linear;#X add sphere_map;#X add eye_linear;#X prefix_set 0 0 <none> 0;#P objectname texmap;#P newex 502 165 234 196617 variedit $1/texmap $1;#P newex 502 142 67 196617 pvar texmap;#P comment 212 92 49 196617 /texmap;#P newex 768 235 209 196617 vari $1/blend $1;#B color 12;#P newex 768 215 57 196617 pvar blend;#B color 14;#P comment 217 111 39 196617 /blend;#P toggle 206 110 13 0;#P objectname blend;#P newex 686 215 67 196617 pvar lighting;#B color 14;#P newex 686 189 236 196617 variedit $1/lighting $1;#B color 12;#P comment 158 111 49 196617 /lighting;#P toggle 147 110 13 0;#P objectname lighting;#P message 300 5 33 196617 clear;#P newex 729 7 208 196617 variedit $1/dim/x $1;#B color 12;#P newex 729 34 60 196617 pvar dimx;#B color 14;#P comment 183 55 44 196617 /dim/y;#P number 148 54 34 9 0 2000 35 3 0 0 0 221 221 221 222 222 222 0 0 0;#P objectname dimy;#P window setfont "Sans Serif" 12.;#P newex 280 52 215 196620 m_inputmenugpu $1;#B color 6;#P window setfont "Sans Serif" 9.;#P newex 280 29 81 196617 pvar texture 2;#P window setfont Times 10.;#P user ubumenu 57 1 63 1310730 0 0 1 0;#X prefix_set 0 0 <none> 0;#P objectname texture;#P window setfont "Sans Serif" 9.;#P newex 510 8 204 196617 variedit $1/layer $1;#B color 12;#P newex 510 35 62 196617 pvar layer;#B color 14;#P comment 183 37 44 196617 /dim/x;#P number 148 36 34 9 0 2000 35 3 0 0 0 221 221 221 222 222 222 0 0 0;#P objectname dimx;#P comment 174 73 86 196617 /transformreset;#P newex 486 233 56 196617 pvar blue;#B color 14;#P newex 486 207 135 196617 variedit $1/color/blue $1;#B color 12;#P newex 347 233 63 196617 pvar green;#B color 14;#P newex 347 207 142 196617 variedit $1/color/green $1;#B color 12;#P newex 208 233 53 196617 pvar red;#B color 14;#P newex 208 207 132 196617 variedit $1/color/red $1;#B color 12;#P comment 103 19 38 196617 /alpha;#B frgb 50 50 50;#P flonum 104 29 34 9 0. 1. 8227 3 0 0 0 221 221 221 0 0 0 0 0 0;#P objectname alphanumb;#P flonum 80 29 34 9 0. 1. 8227 3 0 0 0 221 221 221 0 0 0 0 0 0;#P objectname blue;#P flonum 51 29 34 9 0. 1. 8227 3 0 0 0 221 221 221 0 0 0 0 0 0;#P objectname green;#P flonum 22 29 34 9 0. 1. 8227 3 0 0 0 221 221 221 33 33 33 0 0 0;#P objectname red;#P comment 78 19 38 196617 /blue;#B frgb 50 50 50;#P comment 47 19 45 196617 /green;#B frgb 9 9 9;#P comment 19 19 35 196617 /red;#B frgb 42 42 42;#P flonum 73 85 40 9 -360. 360. 8227 3 0 0 0 221 221 221 50 50 50 0 0 0;#P objectname roty;#P flonum 110 85 40 9 -360. 360. 8227 3 0 0 0 221 221 221 0 0 0 0 0 0;#P objectname rotz;#P flonum 36 85 40 9 -360. 360. 8227 3 33 33 33 221 221 221 9 9 9 0 0 0;#P objectname rotx;#P flonum 110 103 42 9 -10. 10. 8227 3 0 0 0 221 221 221 0 0 0 0 0 0;#P objectname scalez;#P flonum 73 103 42 9 -10. 10. 8227 3 9 9 9 221 221 221 33 33 33 0 0 0;#P objectname scaley;#P flonum 36 103 42 9 -10. 10. 8227 3 33 33 33 221 221 221 25 25 25 0 0 0;#P objectname scalex;#P flonum 108 67 41 9 -100. 100. 8227 3 0 0 0 221 221 221 0 0 0 0 0 0;#P objectname posz;#P flonum 71 67 41 9 -100. 100. 8227 3 0 0 0 221 221 221 0 0 0 0 0 0;#P objectname posy;#P comment 118 54 23 196617 /z;#B frgb 50 50 50;#P comment 89 54 24 196617 /y;#B frgb 9 9 9;#P comment 60 54 24 196617 /x;#B frgb 42 42 42;#P comment 1 86 34 196617 /rot;#B frgb 42 42 42;#P comment 1 104 43 196617 /scale;#B frgb 33 33 33;#P comment 1 67 35 196617 /pos;#B frgb 42 42 42;#P user panel 12 53 130 10;#X brgb 190 190 190;#X frgb 190 190 190;#X border 1;#X rounded 0;#X shadow 0;#X done;#P newex 15 232 84 196617 pvar alphanumb;#B color 14;#P newex 501 120 250 196617 variedit $1/transformreset $1;#B color 12;#P newex 501 93 108 196617 pvar transformreset;#B color 14;#P number 148 18 34 9 0 1999 35 3 0 0 0 221 221 221 222 222 222 0 0 0;#P objectname layer;#P newex 729 61 208 196617 variedit $1/dim/y $1;#B color 12;#P newex 729 88 60 196617 pvar dimy;#B color 14;#P newex 415 314 228 196617 variedit $1/rotxyz/z $1;#B color 12;#P newex 333 314 57 196617 pvar rotz;#B color 14;#P newex 415 292 229 196617 variedit $1/rotxyz/y $1;#B color 12;#P newex 333 292 58 196617 pvar roty;#B color 14;#P newex 415 270 229 196617 variedit $1/rotxyz/x $1;#B color 12;#P newex 333 270 58 196617 pvar rotx;#B color 14;#P newex 731 313 232 196617 variedit $1/scale/z $1;#B color 12;#P newex 649 313 66 196617 pvar scalez;#B color 14;#P newex 731 292 233 196617 variedit $1/scale/y $1;#B color 12;#P newex 649 292 67 196617 pvar scaley;#B color 14;#P newex 731 271 233 196617 variedit $1/scale/x $1;#B color 12;#P newex 649 271 67 196617 pvar scalex;#B color 14;#P newex 102 315 224 196617 variedit $1/pos/z $1;#B color 12;#P newex 20 313 58 196617 pvar posz;#B color 14;#P newex 102 292 225 196617 variedit $1/pos/y $1;#B color 12;#P newex 20 291 59 196617 pvar posy;#B color 14;#P newex 102 269 225 196617 variedit $1/pos/x $1;#B color 12;#P newex 20 269 59 196617 pvar posx;#B color 14;#P newex 141 232 61 196617 pvar alpha;#B color 14;#P comment 183 19 44 196617 /layer;#P newex 15 206 140 196617 variedit $1/color/alpha $1;#B color 12;#P user multiSlider 15 42 122 8 0. 1. 1 2936 47 0 0 2 0 0 0;#M frgb 0 0 0;#M brgb 255 255 255;#M rgb2 127 127 127;#M rgb3 0 0 0;#M rgb4 37 52 91;#M rgb5 74 105 182;#M rgb6 112 158 18;#M rgb7 149 211 110;#M rgb8 187 9 201;#M rgb9 224 62 37;#M rgb10 7 114 128;#P objectname alpha;#P number 148 71 28 9 0 2 35 3 0 0 0 221 221 221 222 222 222 0 0 0;#P objectname transformreset;#P user panel 0 61 140 8;#X brgb 190 190 190;#X frgb 190 190 190;#X border 1;#X rounded 0;#X shadow 0;#X done;#P user panel 1 69 35 55;#X brgb 190 190 190;#X frgb 190 190 190;#X border 0;#X rounded 0;#X shadow 0;#X done;#P flonum 34 67 41 9 -100. 100. 8227 3 0 0 0 221 221 221 33 33 33 0 0 0;#P objectname posx;#P user panel 144 18 17 109;#X brgb 255 255 255;#X frgb 190 190 190;#X border 0;#X rounded 0;#X shadow 0;#X done;#P user panel 140 18 17 106;#X brgb 190 190 190;#X frgb 190 190 190;#X border 1;#X rounded 0;#X shadow 0;#X done;#P bpatcher 0 0 256 124 0 0 bkgnd2.mxt 0 $1 1;#P objectname background;#P connect 34 0 8 0;#P connect 10 0 8 0;#P connect 8 0 34 0;#P connect 12 0 11 0;#P connect 14 0 13 0;#P connect 16 0 15 0;#P connect 11 0 12 0;#P connect 13 0 14 0;#P connect 15 0 16 0;#P connect 8 2 10 0;#P connect 59 0 58 0;#P connect 58 0 59 0;#P fasten 71 0 70 0 285 79 276 79 276 25 285 25;#P connect 76 0 70 0;#P fasten 70 1 71 0 356 49 285 49;#P connect 90 0 92 0;#P connect 92 0 91 0;#P connect 24 0 23 0;#P connect 26 0 25 0;#P connect 28 0 27 0;#P connect 61 0 60 0;#P connect 60 0 61 0;#P connect 23 0 24 0;#P connect 25 0 26 0;#P connect 27 0 28 0;#P connect 63 0 62 0;#P connect 62 0 63 0;#P connect 33 0 32 0;#P connect 32 0 33 0;#P connect 87 0 86 0;#P connect 86 0 87 0;#P connect 67 0 68 0;#P connect 68 0 67 0;#P connect 18 0 17 0;#P connect 20 0 19 0;#P connect 22 0 21 0;#P connect 80 0 79 0;#P connect 79 0 80 0;#P connect 74 0 75 0;#P connect 75 0 74 0;#P connect 29 0 30 0;#P connect 30 0 29 0;#P connect 17 0 18 0;#P connect 19 0 20 0;#P connect 21 0 22 0;#P connect 84 0 83 0;#P connect 83 0 84 0;#P pop;