max v2;#N vpatcher 351 306 999 558;#P origin -10 12;#P window setfont Helvetica 9.;#P comment 19 194 190 1376265 Tom Mays \, Olivier Pfeiffer & Renaud Rubiano;#B frgb 0 146 207;#P window linecount 2;#P comment 20 167 220 1376265 m_plane is a part of movie \, a part of tapemovie. contact@tapemovie.org;#P window setfont Helvetica 24.;#P window linecount 1;#P comment 20 108 99 1376280 m_plane;#B frgb 0 146 207;#P window setfont Helvetica 12.;#P window linecount 2;#P comment 20 135 263 1376268 $1 : prefix name \; $2 : name of the render associated \;;#P user panel 17 105 269 111;#X brgb 255 255 255;#X frgb 0 0 0;#X border 1;#X rounded 0;#X shadow 0;#X done;#P window setfont "Sans Serif" 12.;#P window linecount 1;#P newex 149 33 168 196620 m_glgroup $1 $2;#B color 6;#N vpatcher 213 76 913 463;#P window setfont "Sans Serif" 9.;#P window linecount 0;#P newex 238 272 128 196617 pak dim i i;#P newex 295 190 177 196617 r $1/dim;#B color 12;#P newex 356 241 309 196617 makeparam $1/dim/y $1 i 20 1 1024 1;#B color 12;#P newex 297 214 309 196617 makeparam $1/dim/x $1 i 20 1 1024 1;#B color 12;#P newex 137 38 303 196617 makeparam $1/transformreset $1 i 0 0 2;#B color 12;#P number 137 65 35 9 0 0 0 3 0 0 0 221 221 221 222 222 222 0 0 0;#P window linecount 2;#P message 137 91 55 196617 transform_reset \$1;#P window linecount 7;#P message 272 114 140 196617 \; $1/dim/x/init bang \; $1/dim/y/init bang \; $1/clientstorage/init bang \; $1/interp/init bang \; $1/transformreset/init bang \;;#P window linecount 1;#P newex 272 84 178 196617 r $1/properties/init;#B color 11;#P comment 67 280 75 196617 client_storage;#P window linecount 4;#P comment 67 294 405 196617 client_storage only affects behaviour under OS X. It is a flag which determines whether to use the image data from ordinary RAM \, or to copy the data to the graphics card. If continually sending image data \, performance is best if left on (the default). Otherwise \, if setting the image only once \, or infrequently \, it may be preferable to turn off;#P toggle 218 84 15 0;#P window linecount 1;#P message 218 102 52 196617 interp \$1;#P newex 218 64 261 196617 makeparam $1/interp $1 t 1 0 1;#B color 11;#P newex 28 18 293 196617 makeparam $1/clientstorage $1 t 1 0 1;#B color 11;#P toggle 28 38 15 0;#P message 28 56 90 196617 client_storage \$1;#P outlet 28 318 15 0;#P connect 3 0 2 0;#P connect 2 0 1 0;#P fasten 1 0 0 0 33 173 33 173;#P lcolor 1;#P fasten 5 0 0 0 223 275 33 275;#P lcolor 1;#P fasten 11 0 0 0 142 157 33 157;#P lcolor 1;#P connect 17 0 0 0;#P connect 13 0 12 0;#P connect 12 0 11 0;#P connect 4 0 6 0;#P connect 6 0 5 0;#P connect 9 0 10 0;#P connect 16 0 14 0;#P connect 14 0 17 1;#P connect 16 0 15 0;#P connect 15 0 17 2;#P pop;#P newobj 365 33 66 196620 p params;#B color 6;#P window setfont "Sans Serif" 9.;#P newex 415 108 138 196617 print $1/dumpout;#B color 13;#P newex 149 84 276 196617 jit.gl.videoplane $2 @name $1 @automatic 0;#P newex 298 132 168 196617 moduleinit $1;#B color 11;#P window linecount 5;#P message 298 158 127 196617 \; $1/scale/x/initval 1.33 \; $1/depth/initval 0 \; $1/gl_group/init bang \; $1/properties/init bang \;;#P window linecount 1;#P message 22 57 123 196617 argb;#P newex 10 33 138 196617 m_colormode $1;#B color 14;#P window setfont "Sans Serif" 12.;#N vpatcher 384 56 595 235;#P window setfont "Sans Serif" 9.;#P window linecount 1;#P newex 16 81 81 196617 excludeinstance;#P window linecount 0;#P newex 16 42 132 196617 t s plane;#P newex 104 89 27 196617 + 1;#P newex 87 113 27 196617 !-;#N coll m_config 1;#P newobj 104 66 79 196617 coll m_config 1;#B color 5;#P inlet 16 22 15 0;#P outlet 87 135 15 0;#P connect 1 0 5 0;#P connect 5 0 6 0;#P connect 6 1 3 0;#P connect 3 0 0 0;#P fasten 5 1 2 0 143 62 109 62;#P connect 2 0 4 0;#P connect 4 0 3 1;#P pop;#P newobj 433 180 113 196620 p magically order;#B color 6;#P window setfont "Sans Serif" 9.;#P newex 433 209 192 196617 s $1/layer/initval;#B color 12;#P newex 433 154 138 196617 loadmess $1;#P fasten 3 1 4 0 143 53 27 53;#P connect 10 0 7 0;#P fasten 3 0 7 0 15 76 154 76;#P fasten 9 0 7 0 370 74 154 74;#P fasten 6 0 5 0 303 153 303 153;#P connect 7 1 8 0;#P connect 0 0 2 0;#P connect 2 0 1 0;#P pop;