max v2;#N vpatcher 222 168 896 775;#P window setfont "Sans Serif" 9.;#P window linecount 1;#P newex 285 79 301 196617 variedit $1/navigate/sw $1;#B color 12;#P newex 285 100 50 196617 pvar nav;#P toggle 89 3 13 0;#P objectname nav;#P window setfont "Sans Serif" 14.;#N vpatcher 539 44 1074 573;#P origin 1140 -173;#P window setfont "Sans Serif" 9.;#P window linecount 0;#P newex 1180 104 156 196617 variedit $1/totexture/sw $1;#P newex 1180 78 115 196617 pvar $1/totexture/sw;#P toggle 298 86 15 0;#P objectname $1/totexture/sw;#P comment 313 88 78 196617 /totexture/sw;#B frgb 255 255 255;#P newex 571 717 206 196617 variedit $1/glreadback $1;#B color 12;#P newex 571 691 82 196617 pvar glreadback;#P user umenu 443 103 76 196647 1 64 119 1;#X add fbo;#X add rtt;#P objectname glreadback;#P comment 384 105 66 196617 /glreadback;#B frgb 255 255 255;#P newex 2013 242 131 196617 variedit $1/handle/sw $1;#P newex 2013 222 62 196617 pvar handle;#P comment 320 322 38 196617 /color;#B frgb 255 255 255;#P window setfont "Sans Serif" 12.;#P comment 272 310 41 196620 /mat;#B frgb 255 255 255;#P window setfont "Sans Serif" 9.;#P newex 571 663 206 196617 variedit $1/shininess $1;#B color 12;#P newex 571 637 76 196617 pvar Shininess;#P newex 2280 752 246 196617 variedit $1/mat/specular/alpha $1;#B color 12;#P newex 2038 752 241 196617 variedit $1/mat/specular/blue $1;#B color 12;#P newex 1539 752 238 196617 variedit $1/mat/specular/red $1;#B color 12;#P newex 1789 752 248 196617 variedit $1/mat/specular/green $1;#B color 12;#P newex 2038 729 77 196617 pvar specularb;#P newex 1789 729 77 196617 pvar specularg;#P newex 1539 729 77 196617 pvar specularr;#P newex 2280 729 74 196617 pvar speculara;#P newex 2280 704 247 196617 variedit $1/mat/emission/alpha $1;#B color 12;#P newex 2038 704 242 196617 variedit $1/mat/emission/blue $1;#B color 12;#P newex 1539 704 239 196617 variedit $1/mat/emission/red $1;#B color 12;#P newex 1789 704 249 196617 variedit $1/mat/emission/green $1;#B color 12;#P newex 2038 681 78 196617 pvar emissionb;#P newex 1789 681 78 196617 pvar emissiong;#P newex 1539 681 78 196617 pvar emissionr;#P newex 2280 681 78 196617 pvar emissiona;#P newex 2280 654 239 196617 variedit $1/mat/diffuse/alpha $1;#B color 12;#P newex 2038 654 234 196617 variedit $1/mat/diffuse/blue $1;#B color 12;#P newex 1539 654 231 196617 variedit $1/mat/diffuse/red $1;#B color 12;#P newex 1789 654 241 196617 variedit $1/mat/diffuse/green $1;#B color 12;#P newex 2038 631 70 196617 pvar diffuseb;#P newex 1789 631 70 196617 pvar diffuseg;#P newex 1539 631 70 196617 pvar diffuser;#P newex 2280 631 70 196617 pvar diffusea;#P newex 2280 606 243 196617 variedit $1/mat/ambient/alpha $1;#B color 12;#P newex 2038 606 238 196617 variedit $1/mat/ambient/blue $1;#B color 12;#P newex 1539 606 235 196617 variedit $1/mat/ambient/red $1;#B color 12;#P newex 1789 606 245 196617 variedit $1/mat/ambient/green $1;#B color 12;#P newex 2038 583 74 196617 pvar ambientb;#P newex 1789 583 74 196617 pvar ambientg;#P newex 1539 583 74 196617 pvar ambientr;#P flonum 359 393 40 9 0. 1. 8227 3 255 255 255 221 221 221 222 222 222 0 0 0;#P objectname specularr[1];#P flonum 485 393 40 9 0. 1. 8227 3 255 255 255 221 221 221 222 222 222 0 0 0;#P objectname speculara[1];#P flonum 443 393 40 9 0. 1. 8227 3 255 255 255 221 221 221 222 222 222 0 0 0;#P objectname specularb[1];#P flonum 401 393 40 9 0. 1. 8227 3 255 255 255 221 221 221 222 222 222 0 0 0;#P objectname specularg[1];#P comment 272 395 76 196617 /specular;#B frgb 255 255 255;#P flonum 359 375 40 9 0. 1. 8227 3 255 255 255 221 221 221 222 222 222 0 0 0;#P objectname emissionr;#P flonum 485 375 40 9 0. 1. 8227 3 255 255 255 221 221 221 222 222 222 0 0 0;#P objectname emissiona;#P flonum 443 375 40 9 0. 1. 8227 3 255 255 255 221 221 221 222 222 222 0 0 0;#P objectname emissionb;#P flonum 401 375 40 9 0. 1. 8227 3 255 255 255 221 221 221 222 222 222 0 0 0;#P objectname emissiong;#P comment 272 377 79 196617 /emission;#B frgb 255 255 255;#P flonum 359 357 40 9 0. 1. 8227 3 255 255 255 221 221 221 222 222 222 0 0 0;#P objectname diffuser[1];#P flonum 485 357 40 9 0. 1. 8227 3 255 255 255 221 221 221 222 222 222 0 0 0;#P objectname diffusea[1];#P flonum 443 357 40 9 0. 1. 8227 3 255 255 255 221 221 221 222 222 222 0 0 0;#P objectname diffuseb[1];#P flonum 401 357 40 9 0. 1. 8227 3 255 255 255 221 221 221 222 222 222 0 0 0;#P objectname diffuseg[1];#P comment 272 359 70 196617 /diffuse;#B frgb 255 255 255;#P flonum 359 339 40 9 0. 1. 8227 3 255 255 255 221 221 221 222 222 222 0 0 0;#P objectname ambientr[1];#P flonum 485 339 40 9 0. 1. 8227 3 255 255 255 221 221 221 222 222 222 0 0 0;#P objectname ambienta[1];#P flonum 443 339 40 9 0. 1. 8227 3 255 255 255 221 221 221 222 222 222 0 0 0;#P objectname ambientb[1];#P flonum 401 339 40 9 0. 1. 8227 3 255 255 255 221 221 221 222 222 222 0 0 0;#P objectname ambientg[1];#P comment 485 322 38 196617 /alpha;#B frgb 255 255 255;#P comment 443 322 38 196617 /blue;#B frgb 255 255 255;#P comment 401 322 38 196617 /green;#B frgb 255 255 255;#P comment 359 322 38 196617 /red;#B frgb 255 255 255;#P comment 272 341 74 196617 /ambient;#B frgb 255 255 255;#P newex 2280 583 74 196617 pvar ambienta;#P user panel 266 305 265 125;#X brgb 110 110 110;#X frgb 255 255 255;#X border 1;#X rounded 0;#X shadow 0;#X done;#P comment 349 11 43 196617 /angle;#B frgb 255 255 255;#P newex 1006 663 130 196617 variedit $1/light/type $1;#P newex 1006 637 80 196617 pvar light_type;#P newex 1006 611 136 196617 variedit $1/light/pos/z $1;#P newex 1006 585 86 196617 pvar light_pos_z;#P newex 792 611 137 196617 variedit $1/light/pos/y $1;#P newex 792 585 87 196617 pvar light_pos_y;#P newex 792 143 137 196617 variedit $1/camera/far $1;#P newex 792 117 48 196617 pvar far;#P flonum 181 71 40 9 -100. 100. 8227 3 255 255 255 221 221 221 222 222 222 0 0 0;#P objectname far;#P flonum 74 71 40 9 -100. 100. 8227 3 255 255 255 221 221 221 222 222 222 0 0 0;#P objectname lens;#P comment 149 73 30 196617 /far;#B frgb 255 255 255;#P comment 8 73 63 196617 /lens_angle;#B frgb 255 255 255;#P flonum 96 453 40 9 0. 1. 8227 3 255 255 255 221 221 221 222 222 222 0 0 0;#P objectname light_type;#P comment 113 455 62 196617 /light/type;#B frgb 255 255 255;#P flonum 94 364 40 9 0. 1. 8227 3 255 255 255 221 221 221 222 222 222 0 0 0;#P objectname global_ambientr;#P flonum 220 364 40 9 0. 1. 8227 3 255 255 255 221 221 221 222 222 222 0 0 0;#P objectname global_ambienta;#P flonum 178 364 40 9 0. 1. 8227 3 255 255 255 221 221 221 222 222 222 0 0 0;#P objectname global_ambientb;#P flonum 136 364 40 9 0. 1. 8227 3 255 255 255 221 221 221 222 222 222 0 0 0;#P objectname global_ambientg;#P comment 7 365 83 196617 /global_ambient;#B frgb 255 255 255;#P newex 571 611 137 196617 variedit $1/light/pos/x $1;#P newex 571 585 87 196617 pvar light_pos_x;#P flonum 92 401 40 9 0. 1. 8227 3 255 255 255 221 221 221 222 222 222 0 0 0;#P objectname light_pos_x;#P flonum 178 401 40 9 0. 1. 8227 3 255 255 255 221 221 221 222 222 222 0 0 0;#P objectname light_pos_z;#P flonum 136 401 40 9 0. 1. 8227 3 255 255 255 221 221 221 222 222 222 0 0 0;#P objectname light_pos_y;#P comment 7 404 77 196617 /position;#B frgb 255 255 255;#P newex 792 195 163 196617 variedit $1/erasecolor/green $1;#P newex 792 169 87 196617 pvar erasecolorg;#P newex 1225 195 161 196617 variedit $1/erasecolor/alpha $1;#P newex 1006 195 156 196617 variedit $1/erasecolor/blue $1;#P newex 1225 169 87 196617 pvar erasecolora;#P newex 1006 169 87 196617 pvar erasecolorb;#P newex 571 195 153 196617 variedit $1/erasecolor/red $1;#P newex 571 169 87 196617 pvar erasecolorr;#P flonum 94 115 40 9 0. 1. 8227 3 255 255 255 221 221 221 222 222 222 0 0 0;#P objectname erasecolora;#P newex 571 143 170 196617 variedit $1/camera/lens_angle $1;#P newex 571 117 52 196617 pvar lens;#P flonum 353 48 40 9 0. 100. 8227 3 255 255 255 221 221 221 222 222 222 0 0 0;#P objectname angle;#P newex 1584 191 127 196617 variedit $1/rot/angle $1;#P newex 1584 165 57 196617 pvar angle;#P newex 1006 91 122 196617 variedit $1/lookat/z $1;#P newex 792 91 123 196617 variedit $1/lookat/y $1;#P newex 571 91 123 196617 variedit $1/lookat/x $1;#P newex 1006 65 66 196617 pvar lookatz;#P newex 792 65 67 196617 pvar lookaty;#P newex 571 65 67 196617 pvar lookatx;#P newex 1006 39 128 196617 variedit $1/camera/z $1;#P newex 792 39 129 196617 variedit $1/camera/y $1;#P newex 571 39 129 196617 variedit $1/camera/x $1;#P newex 1006 13 57 196617 pvar camz;#P newex 792 13 58 196617 pvar camy;#P newex 571 13 58 196617 pvar camx;#P flonum 179 48 40 9 -100. 100. 8227 3 255 255 255 221 221 221 222 222 222 0 0 0;#P objectname lookaty;#P flonum 221 48 40 9 -100. 100. 8227 3 255 255 255 221 221 221 222 222 222 0 0 0;#P objectname lookatz;#P flonum 137 48 40 9 -100. 100. 8227 3 255 255 255 221 221 221 222 222 222 0 0 0;#P objectname lookatx;#P flonum 221 115 40 9 0. 1. 8227 3 255 255 255 221 221 221 222 222 222 0 0 0;#P objectname erasecolorb;#P flonum 179 115 40 9 0. 1. 8227 3 255 255 255 221 221 221 222 222 222 0 0 0;#P objectname erasecolorg;#P flonum 137 115 40 9 0. 1. 8227 3 255 255 255 221 221 221 222 222 222 0 0 0;#P objectname erasecolorr;#P flonum 221 30 40 9 -100. 100. 8227 3 255 255 255 221 221 221 222 222 222 0 0 0;#P objectname camz;#P flonum 179 30 40 9 -100. 100. 8227 3 255 255 255 221 221 221 222 222 222 0 0 0;#P objectname camy;#P flonum 137 30 40 9 -100. 100. 8227 3 255 255 255 221 221 221 222 222 222 0 0 0;#P objectname camx;#P comment 221 12 13 196617 Z;#B frgb 255 255 255;#P comment 179 12 14 196617 Y;#B frgb 255 255 255;#P comment 137 12 14 196617 X;#B frgb 255 255 255;#P comment 8 48 51 196617 /lookat;#B frgb 255 255 255;#P comment 8 115 65 196617 Erasecolor :;#B frgb 255 255 255;#P comment 8 30 51 196617 /camera;#B frgb 255 255 255;#P window setfont "Sans Serif" 12.;#P comment 8 8 75 196620 3D camera;#B frgb 255 255 255;#P user panel 2 1 264 140;#X brgb 110 110 110;#X frgb 255 255 255;#X border 1;#X rounded 0;#X shadow 0;#X done;#P window setfont "Sans Serif" 9.;#P newex 792 351 166 196617 variedit $1/color/coef $1 f 0 1 1;#P newex 792 325 76 196617 pvar colorcoef;#P flonum 180 281 40 9 0. 1. 8227 3 255 255 255 221 221 221 222 222 222 0 0 0;#P objectname colorcoef;#P comment 221 283 30 196617 /coef;#B frgb 255 255 255;#P newex 221 599 93 196617 r $1/more/editor;#B color 11;#P hidden message 471 141 43 196617 nogrow;#P objectname nogrow;#P hidden message 471 157 33 196617 grow;#P objectname grow;#P newex 309 552 48 196617 loadbang;#P newex 375 575 57 196617 pvar grow;#P newex 309 575 67 196617 pvar nogrow;#P newex 309 599 30 196617 t b s;#P newex 396 621 107 196617 prepend window flags;#P message 309 621 68 196617 window exec;#N thispatcher;#Q end;#P newobj 309 641 61 196617 thispatcher;#P newex 1225 559 177 196617 variedit $1/light/specular/alpha $1;#P newex 1006 559 172 196617 variedit $1/light/specular/blue $1;#P newex 571 559 169 196617 variedit $1/light/specular/red $1;#P newex 792 559 179 196617 variedit $1/light/specular/green $1;#P newex 1006 533 77 196617 pvar specularb;#P newex 792 533 77 196617 pvar specularg;#P newex 571 533 77 196617 pvar specularr;#P newex 1225 533 77 196617 pvar speculara;#P newex 1225 507 206 196617 variedit $1/light/global_ambient/alpha $1;#P newex 1006 507 201 196617 variedit $1/light/global_ambient/blue $1;#P newex 571 507 198 196617 variedit $1/light/global_ambient/red $1;#P newex 792 507 208 196617 variedit $1/light/global_ambient/green $1;#P newex 1006 481 106 196617 pvar global_ambientb;#P newex 792 481 106 196617 pvar global_ambientg;#P newex 571 481 106 196617 pvar global_ambientr;#P newex 1225 481 106 196617 pvar global_ambienta;#P newex 1225 455 170 196617 variedit $1/light/diffuse/alpha $1;#P newex 1006 455 165 196617 variedit $1/light/diffuse/blue $1;#P newex 571 455 162 196617 variedit $1/light/diffuse/red $1;#P newex 792 455 172 196617 variedit $1/light/diffuse/green $1;#P newex 1006 429 70 196617 pvar diffuseb;#P newex 792 429 70 196617 pvar diffuseg;#P newex 571 429 70 196617 pvar diffuser;#P newex 1225 429 70 196617 pvar diffusea;#P newex 1989 399 136 196617 variedit $1/fog/amount $1;#P newex 1851 399 119 196617 variedit $1/fog/end $1;#P newex 1584 451 134 196617 variedit $1/fog/inherit $1;#P newex 1989 347 127 196617 variedit $1/fog/alpha $1;#P newex 1719 399 127 196617 variedit $1/fog/start $1;#P newex 1851 347 122 196617 variedit $1/fog/blue $1;#P newex 1584 399 137 196617 variedit $1/fog/density $1;#P newex 1719 347 129 196617 variedit $1/fog/green $1;#P newex 1584 347 119 196617 variedit $1/fog/red $1;#P newex 1225 403 174 196617 variedit $1/light/ambient/alpha $1;#P newex 1006 403 169 196617 variedit $1/light/ambient/blue $1;#P newex 571 403 166 196617 variedit $1/light/ambient/red $1;#P newex 792 403 176 196617 variedit $1/light/ambient/green $1;#P newex 792 663 117 196617 variedit $1/lighting $1;#P window setfont "Sans Serif" 20.;#P comment 3 489 167 196628 $1;#P window setfont "Sans Serif" 9.;#P flonum 442 48 40 9 0. 100. 8227 3 255 255 255 221 221 221 222 222 222 0 0 0;#P objectname roty;#P newex 1851 243 118 196617 variedit $1/scale/z $1;#P newex 1719 243 119 196617 variedit $1/scale/y $1;#P newex 1584 243 119 196617 variedit $1/scale/x $1;#P newex 1851 217 62 196617 pvar scalez;#P newex 1719 217 63 196617 pvar scaley;#P newex 1584 217 63 196617 pvar scalex;#P newex 1851 503 128 196617 variedit $1/automatic $1;#P newex 1851 555 146 196617 variedit $1/enable $1 t 0 1 0;#P newex 1851 529 62 196617 pvar enable;#P newex 1719 503 122 196617 variedit $1/antialias $1;#P newex 1719 477 72 196617 pvar antialias;#P newex 1719 555 107 196617 variedit $1-layer $1;#P newex 1719 529 58 196617 pvar layer;#P newex 1584 529 116 196617 variedit $1/drawto $1;#P newex 1719 295 142 196617 variedit $1/depth $1;#P newex 1719 269 58 196617 pvar depth;#P newex 1584 295 137 196617 variedit $1/depth/clear $1;#P newex 1851 269 88 196617 pvar depthinherit;#P newex 1584 269 86 196617 pvar depth-clear;#P newex 571 351 143 196617 variedit $1/color/inherit $1;#P newex 571 325 87 196617 pvar colorinherit;#P newex 792 299 138 196617 variedit $1/color/green $1;#P newex 792 273 62 196617 pvar colorg;#P newex 1225 299 136 196617 variedit $1/color/alpha $1;#P newex 1006 299 131 196617 variedit $1/color/blue $1;#P newex 1225 273 62 196617 pvar colora;#P newex 1006 273 62 196617 pvar colorb;#P newex 571 299 128 196617 variedit $1/color/red $1;#P newex 571 273 62 196617 pvar colorr;#P newex 1006 247 107 196617 variedit $1/blend $1;#P newex 1006 221 57 196617 pvar blend;#P newex 792 247 133 196617 vari $1/blendmode/dst $1;#P newex 571 247 134 196617 vari $1/blendmode/src $1;#P newex 792 221 99 196617 pvar blendmode-dst;#P newex 571 221 100 196617 pvar blendmode-src;#P newex 1989 191 109 196617 variedit $1/rot/z $1;#P newex 1851 191 110 196617 variedit $1/rot/y $1;#P newex 1719 191 110 196617 variedit $1/rot/x $1;#P newex 1989 171 53 196617 pvar rotz;#P newex 1851 165 54 196617 pvar roty;#P newex 1719 165 54 196617 pvar rotx;#P newex 1851 139 110 196617 variedit $1/pos/z $1;#P newex 1719 139 111 196617 variedit $1/pos/y $1;#P newex 1584 139 111 196617 variedit $1/pos/x $1;#P number 485 486 35 9 0 200 8227 3 255 255 255 221 221 221 222 222 222 0 0 0;#P objectname layer;#P comment 485 469 40 196617 /layer;#B frgb 255 255 255;#P comment 471 440 48 196617 /drawto;#B frgb 255 255 255;#P newex 1584 503 56 196617 route text;#P newex 1584 477 66 196617 pvar drawto;#P user textedit 359 437 469 455 98436 3 9 $1;#P objectname drawto;#P newex 177 545 52 196617 s $1/init;#P user jsui 177 491 84 19 3 0 0 jsui_textbutton.js INIT;#P comment 7 192 89 196617 Mode destination:;#B frgb 255 255 255;#P user umenu 94 192 158 196647 1 64 208 1;#X add 0: zero;#X add 1: one;#X add 2: destination color;#X add 3: source color;#X add 4: one minus destination color;#X add 5: one minus source color;#X add 6: source alpha;#X add 7: one minus source alpha;#X add 8: destination alpha;#X add 9: one minus destination alpha;#X add 10: source alpha saturate;#P objectname blendmode-dst;#P newex 1851 477 78 196617 pvar automatic;#P newex 1225 663 126 196617 variedit $1/mat/auto $1;#P newex 1225 637 91 196617 pvar automaterial;#P newex 792 637 67 196617 pvar lighting;#P newex 1989 373 48 196617 pvar fog;#P newex 1584 425 78 196617 pvar foginherit;#P newex 1006 377 74 196617 pvar ambientb;#P newex 792 377 74 196617 pvar ambientg;#P newex 571 377 74 196617 pvar ambientr;#P newex 1851 373 63 196617 pvar fogend;#P newex 1719 373 71 196617 pvar fogstart;#P newex 1584 373 68 196617 pvar fogdens;#P newex 1989 321 53 196617 pvar foga;#P newex 1851 321 53 196617 pvar fogb;#P newex 1719 321 53 196617 pvar fogg;#P newex 1584 321 53 196617 pvar fogr;#P newex 1851 113 54 196617 pvar posz;#P newex 1719 113 55 196617 pvar posy;#P newex 1584 113 55 196617 pvar posx;#P comment 377 478 56 196617 /automatic;#B frgb 255 255 255;#P user radiogroup 359 476 73 32;#X size 1;#X offset 16;#X inactive 0;#X itemtype 1;#X flagmode 0;#X set 1;#X done;#P objectname automatic;#P comment 377 462 50 196617 /antialias;#B frgb 255 255 255;#P user radiogroup 359 460 73 32;#X size 1;#X offset 16;#X inactive 0;#X itemtype 1;#X flagmode 0;#X set 0;#X done;#P objectname antialias;#P comment 377 494 44 196617 /enable;#B frgb 255 255 255;#P user radiogroup 359 492 73 32;#X size 1;#X offset 16;#X inactive 0;#X itemtype 1;#X flagmode 0;#X set 0;#X done;#P objectname enable;#P comment 112 471 72 196617 /light/inherit;#B frgb 255 255 255;#P user radiogroup 94 469 73 32;#X size 1;#X offset 16;#X inactive 0;#X itemtype 1;#X flagmode 0;#X set 0;#X done;#P objectname materialinherit;#P comment 113 439 81 196617 /lighting;#B frgb 255 255 255;#P user radiogroup 94 437 73 32;#X size 1;#X offset 16;#X inactive 0;#X itemtype 1;#X flagmode 0;#X set 0;#X done;#P objectname lighting;#P flonum 94 381 40 9 0. 1. 8227 3 255 255 255 221 221 221 222 222 222 0 0 0;#P objectname specularr;#P flonum 220 381 40 9 0. 1. 8227 3 255 255 255 221 221 221 222 222 222 0 0 0;#P objectname speculara;#P flonum 178 381 40 9 0. 1. 8227 3 255 255 255 221 221 221 222 222 222 0 0 0;#P objectname specularb;#P flonum 136 381 40 9 0. 1. 8227 3 255 255 255 221 221 221 222 222 222 0 0 0;#P objectname specularg;#P comment 7 383 76 196617 /specular;#B frgb 255 255 255;#P flonum 94 345 40 9 0. 1. 8227 3 255 255 255 221 221 221 222 222 222 0 0 0;#P objectname diffuser;#P flonum 220 345 40 9 0. 1. 8227 3 255 255 255 221 221 221 222 222 222 0 0 0;#P objectname diffusea;#P flonum 178 345 40 9 0. 1. 8227 3 255 255 255 221 221 221 222 222 222 0 0 0;#P objectname diffuseb;#P flonum 136 345 40 9 0. 1. 8227 3 255 255 255 221 221 221 222 222 222 0 0 0;#P objectname diffuseg;#P comment 7 347 69 196617 /diffuse;#B frgb 255 255 255;#P flonum 94 327 40 9 0. 1. 8227 3 255 255 255 221 221 221 222 222 222 0 0 0;#P objectname ambientr;#P flonum 220 327 40 9 0. 1. 8227 3 255 255 255 221 221 221 222 222 222 0 0 0;#P objectname ambienta;#P flonum 178 327 40 9 0. 1. 8227 3 255 255 255 221 221 221 222 222 222 0 0 0;#P objectname ambientb;#P flonum 136 327 40 9 0. 1. 8227 3 255 255 255 221 221 221 222 222 222 0 0 0;#P objectname ambientg;#P comment 220 310 35 196617 Alpha;#B frgb 255 255 255;#P comment 178 310 29 196617 Blue;#B frgb 255 255 255;#P comment 136 310 36 196617 Green;#B frgb 255 255 255;#P comment 94 310 24 196617 Red;#B frgb 255 255 255;#P comment 7 329 74 196617 /ambient;#B frgb 255 255 255;#P window setfont "Sans Serif" 12.;#P comment 7 308 40 196620 /light;#B frgb 255 255 255;#P window setfont "Sans Serif" 9.;#P flonum 359 260 40 9 0. 1. 8227 3 255 255 255 221 221 221 222 222 222 0 0 0;#P objectname fogdens;#P flonum 485 260 40 9 0. 1. 8227 3 255 255 255 221 221 221 222 222 222 0 0 0;#P objectname fogamount;#P flonum 443 260 40 9 0. 0 8225 3 255 255 255 221 221 221 222 222 222 0 0 0;#P objectname fogend;#P flonum 401 260 40 9 0. 0 8225 3 255 255 255 221 221 221 222 222 222 0 0 0;#P objectname fogstart;#P comment 485 243 44 196617 /amount;#B frgb 255 255 255;#P comment 443 243 31 196617 /end;#B frgb 255 255 255;#P comment 401 243 34 196617 /start;#B frgb 255 255 255;#P comment 359 243 44 196617 /density;#B frgb 255 255 255;#P comment 374 284 66 196617 /inherit;#B frgb 255 255 255;#P user radiogroup 359 282 73 32;#X size 1;#X offset 16;#X inactive 0;#X itemtype 1;#X flagmode 0;#X set 0;#X done;#P objectname inherit_fog;#P flonum 359 219 40 9 0. 1. 8227 3 255 255 255 221 221 221 222 222 222 0 0 0;#P objectname fogr;#P flonum 485 219 40 9 0. 1. 8227 3 255 255 255 221 221 221 222 222 222 0 0 0;#P objectname foga;#P flonum 443 219 40 9 0. 1. 8227 3 255 255 255 221 221 221 222 222 222 0 0 0;#P objectname fogb;#P flonum 401 219 40 9 0. 1. 8227 3 255 255 255 221 221 221 222 222 222 0 0 0;#P objectname fogg;#P comment 485 202 35 196617 /alpha;#B frgb 255 255 255;#P comment 443 202 29 196617 /blue;#B frgb 255 255 255;#P comment 401 202 36 196617 /green;#B frgb 255 255 255;#P comment 359 202 31 196617 /red;#B frgb 255 255 255;#P window setfont "Sans Serif" 12.;#P comment 272 199 37 196620 /fog;#B frgb 255 255 255;#P window setfont "Sans Serif" 9.;#P comment 374 156 40 196617 /depth;#B frgb 255 255 255;#P user radiogroup 359 154 73 32;#X size 1;#X offset 16;#X inactive 0;#X itemtype 1;#X flagmode 0;#X set 0;#X done;#P objectname depth;#P comment 375 140 69 196617 /depth/clear;#B frgb 255 255 255;#P user radiogroup 360 138 73 32;#X size 1;#X offset 16;#X inactive 0;#X itemtype 1;#X flagmode 0;#X set 0;#X done;#P objectname depth-clear;#P comment 374 172 76 196617 /depth/inherit;#B frgb 255 255 255;#P user radiogroup 359 170 73 32;#X size 1;#X offset 16;#X inactive 0;#X itemtype 1;#X flagmode 0;#X set 0;#X done;#P objectname depthinherit;#P comment 109 281 46 196617 /inherit;#B frgb 255 255 255;#P user radiogroup 95 279 73 32;#X size 1;#X offset 16;#X inactive 0;#X itemtype 1;#X flagmode 0;#X set 0;#X done;#P objectname colorinherit;#P flonum 94 261 40 9 0. 1. 8227 3 255 255 255 221 221 221 222 222 222 0 0 0;#P objectname colorr;#P flonum 220 261 40 9 0. 1. 8227 3 255 255 255 221 221 221 222 222 222 0 0 0;#P objectname colora;#P flonum 178 261 40 9 0. 1. 8227 3 255 255 255 221 221 221 222 222 222 0 0 0;#P objectname colorb;#P comment 220 244 35 196617 /alpha;#B frgb 255 255 255;#P comment 178 244 34 196617 /blue;#B frgb 255 255 255;#P comment 136 244 41 196617 /green;#B frgb 255 255 255;#P comment 94 244 31 196617 /red;#B frgb 255 255 255;#P window setfont "Sans Serif" 12.;#P comment 7 242 47 196620 /color;#B frgb 255 255 255;#P comment 7 147 42 196620 Blend;#B frgb 255 255 255;#P window setfont "Sans Serif" 9.;#P comment 7 173 70 196617 Mode source:;#B frgb 255 255 255;#P comment 109 216 38 196617 Enable;#B frgb 255 255 255;#P user radiogroup 94 214 73 32;#X size 1;#X offset 16;#X inactive 0;#X itemtype 1;#X flagmode 0;#X set 1;#X done;#P objectname blend;#P user umenu 94 173 158 196647 1 64 189 1;#X add 0: zero;#X add 1: one;#X add 2: destination color;#X add 3: source color;#X add 4: one minus destination color;#X add 5: one minus source color;#X add 6: source alpha;#X add 7: one minus source alpha;#X add 8: destination alpha;#X add 9: one minus destination alpha;#X add 10: source alpha saturate;#P objectname blendmode-src;#P flonum 484 48 40 9 0. 100. 8227 3 255 255 255 221 221 221 222 222 222 0 0 0;#P objectname rotz;#P flonum 400 48 40 9 0. 100. 8227 3 255 255 255 221 221 221 222 222 222 0 0 0;#P objectname rotx;#P flonum 484 66 40 9 -10. 10. 8227 3 255 255 255 221 221 221 222 222 222 0 0 0;#P objectname scalez;#P flonum 442 66 40 9 -10. 10. 8227 3 255 255 255 221 221 221 222 222 222 0 0 0;#P objectname scaley;#P flonum 400 66 40 9 -10. 10. 8227 3 255 255 255 221 221 221 222 222 222 0 0 0;#P objectname scalex;#P flonum 484 30 40 9 -50. 50. 8227 3 255 255 255 221 221 221 222 222 222 0 0 0;#P objectname posz;#P flonum 442 30 40 9 -5. 5. 8227 3 255 255 255 221 221 221 222 222 222 0 0 0;#P objectname posy;#P flonum 400 30 40 9 -5. 5. 8227 3 255 255 255 221 221 221 222 222 222 0 0 0;#P objectname posx;#P comment 484 12 19 196617 /z;#B frgb 255 255 255;#P comment 442 12 20 196617 /y;#B frgb 255 255 255;#P comment 400 12 20 196617 /x;#B frgb 255 255 255;#P comment 271 48 43 196617 /rotate:;#B frgb 255 255 255;#P comment 271 66 38 196617 /scale:;#B frgb 255 255 255;#P comment 271 30 46 196617 /position;#B frgb 255 255 255;#P comment 320 202 34 196617 /color;#B frgb 255 255 255;#P user panel 1 141 265 95;#X brgb 110 110 110;#X frgb 255 255 255;#X border 1;#X rounded 0;#X shadow 0;#X done;#P user panel 266 128 265 64;#X brgb 110 110 110;#X frgb 255 255 255;#X border 1;#X rounded 0;#X shadow 0;#X done;#P user panel 266 192 265 112;#X brgb 110 110 110;#X frgb 255 255 255;#X border 1;#X rounded 0;#X shadow 0;#X done;#P user panel 266 431 265 80;#X brgb 110 110 110;#X frgb 255 255 255;#X border 1;#X rounded 0;#X shadow 0;#X done;#P user panel 1 302 265 117;#X brgb 110 110 110;#X frgb 255 255 255;#X border 1;#X rounded 0;#X shadow 0;#X done;#P user panel 265 1 264 126;#X brgb 110 110 110;#X frgb 255 255 255;#X border 1;#X rounded 0;#X shadow 0;#X done;#P flonum 136 261 40 9 0. 1. 8227 3 255 255 255 221 221 221 222 222 222 0 0 0;#P objectname colorg;#P user panel 1 236 265 66;#X brgb 110 110 110;#X frgb 255 255 255;#X border 1;#X rounded 0;#X shadow 0;#X done;#P newex 1225 377 74 196617 pvar ambienta;#P newex 1851 295 144 196617 variedit $1/depth/inherit $1;#P flonum 94 420 40 9 0. 255. 8227 3 255 255 255 221 221 221 222 222 222 0 0 0;#P objectname Shininess;#P window linecount 1;#P comment 7 422 57 196617 /shininess;#B frgb 255 255 255;#P user panel 0 419 265 70;#X brgb 110 110 110;#X frgb 255 255 255;#X border 1;#X rounded 0;#X shadow 0;#X done;#P hidden connect 119 0 120 0;#P connect 217 0 215 0;#P fasten 216 0 214 0 380 596 314 596;#P connect 215 0 214 0;#P connect 214 0 212 0;#P connect 212 0 211 0;#P fasten 213 0 211 0 401 639 314 639;#P connect 220 0 211 0;#P connect 214 1 213 0;#P connect 245 0 242 0;#P connect 242 0 245 0;#P connect 251 0 248 0;#P connect 248 0 251 0;#P connect 258 0 257 0;#P connect 257 0 258 0;#P connect 261 0 260 0;#P connect 260 0 261 0;#P connect 138 0 136 0;#P connect 136 0 138 0;#P connect 143 0 142 0;#P connect 142 0 143 0;#P connect 151 0 150 0;#P connect 150 0 151 0;#P connect 175 0 108 0;#P connect 108 0 175 0;#P connect 192 0 188 0;#P connect 188 0 192 0;#P connect 200 0 196 0;#P connect 196 0 200 0;#P connect 208 0 204 0;#P connect 204 0 208 0;#P connect 273 0 272 0;#P connect 272 0 273 0;#P connect 352 0 351 0;#P connect 351 0 352 0;#P connect 360 0 359 0;#P connect 359 0 360 0;#P connect 246 0 243 0;#P connect 243 0 246 0;#P connect 252 0 249 0;#P connect 249 0 252 0;#P connect 286 0 285 0;#P connect 285 0 286 0;#P connect 267 0 266 0;#P connect 266 0 267 0;#P connect 139 0 137 0;#P connect 137 0 139 0;#P connect 149 0 148 0;#P connect 148 0 149 0;#P connect 224 0 223 0;#P connect 223 0 224 0;#P connect 174 0 109 0;#P connect 109 0 174 0;#P connect 191 0 189 0;#P connect 189 0 191 0;#P connect 199 0 197 0;#P connect 197 0 199 0;#P connect 207 0 205 0;#P connect 205 0 207 0;#P connect 288 0 287 0;#P connect 287 0 288 0;#P connect 173 0 113 0;#P connect 113 0 173 0;#P connect 247 0 244 0;#P connect 244 0 247 0;#P connect 253 0 250 0;#P connect 250 0 253 0;#P connect 264 0 262 0;#P connect 262 0 264 0;#P connect 141 0 140 0;#P connect 140 0 141 0;#P connect 146 0 144 0;#P connect 144 0 146 0;#P connect 176 0 110 0;#P connect 110 0 176 0;#P connect 193 0 190 0;#P connect 190 0 193 0;#P connect 201 0 198 0;#P connect 198 0 201 0;#P connect 209 0 206 0;#P connect 206 0 209 0;#P connect 290 0 289 0;#P connect 289 0 290 0;#P connect 292 0 291 0;#P connect 291 0 292 0;#P connect 364 0 363 0;#P connect 363 0 364 0;#P connect 265 0 263 0;#P connect 263 0 265 0;#P connect 147 0 145 0;#P connect 145 0 147 0;#P connect 177 0 4 0;#P connect 4 0 177 0;#P connect 194 0 187 0;#P connect 187 0 194 0;#P connect 202 0 195 0;#P connect 195 0 202 0;#P connect 210 0 203 0;#P connect 203 0 210 0;#P connect 115 0 114 0;#P connect 114 0 115 0;#P connect 324 0 320 0;#P connect 320 0 324 0;#P connect 332 0 328 0;#P connect 328 0 332 0;#P connect 340 0 336 0;#P connect 336 0 340 0;#P connect 348 0 344 0;#P connect 344 0 348 0;#P connect 127 0 98 0;#P connect 98 0 127 0;#P connect 255 0 254 0;#P connect 254 0 255 0;#P connect 168 0 165 0;#P connect 165 0 168 0;#P connect 154 0 152 0;#P connect 152 0 154 0;#P connect 178 0 101 0;#P connect 101 0 178 0;#P connect 180 0 105 0;#P connect 105 0 180 0;#P connect 184 0 111 0;#P connect 111 0 184 0;#P connect 157 0 122 0;#P connect 122 0 123 0;#P connect 123 0 157 0;#P connect 128 0 99 0;#P connect 99 0 128 0;#P connect 133 0 130 0;#P connect 130 0 133 0;#P connect 169 0 166 0;#P connect 166 0 169 0;#P connect 156 0 155 0;#P connect 155 0 156 0;#P connect 179 0 102 0;#P connect 102 0 179 0;#P connect 106 0 182 0;#P connect 161 0 160 0;#P connect 160 0 161 0;#P connect 159 0 158 0;#P connect 158 0 159 0;#P connect 323 0 321 0;#P connect 321 0 323 0;#P connect 331 0 329 0;#P connect 329 0 331 0;#P connect 339 0 337 0;#P connect 337 0 339 0;#P connect 347 0 345 0;#P connect 345 0 347 0;#P connect 129 0 100 0;#P connect 100 0 129 0;#P connect 134 0 131 0;#P connect 131 0 134 0;#P connect 170 0 167 0;#P connect 167 0 170 0;#P connect 3 0 153 0;#P connect 153 0 3 0;#P connect 181 0 103 0;#P connect 103 0 181 0;#P connect 107 0 185 0;#P connect 164 0 116 0;#P connect 116 0 164 0;#P connect 163 0 162 0;#P connect 162 0 163 0;#P connect 135 0 132 0;#P connect 132 0 135 0;#P connect 183 0 104 0;#P connect 104 0 183 0;#P connect 112 0 186 0;#P connect 356 0 355 0;#P connect 355 0 356 0;#P connect 325 0 322 0;#P connect 322 0 325 0;#P connect 333 0 330 0;#P connect 330 0 333 0;#P connect 341 0 338 0;#P connect 338 0 341 0;#P connect 349 0 346 0;#P connect 346 0 349 0;#P connect 326 0 295 0;#P connect 295 0 326 0;#P connect 334 0 327 0;#P connect 327 0 334 0;#P connect 342 0 335 0;#P connect 335 0 342 0;#P connect 350 0 343 0;#P connect 343 0 350 0;#P pop;#P newobj 280 39 140 196622 p gl_group.edit $1;#B color 6;#P window setfont "Sans Serif" 9.;#P newex 45 573 241 196617 s $1/erasecolor/fromswatch;#B color 12;#P newex 45 524 228 196617 r $1/erasecolor/toswatch;#B color 12;#P newex 45 549 82 196617 pvar erasecolor;#P newex 31 472 264 196617 s $1/erasecolor/saturation;#B color 12;#P newex 31 448 80 196617 pvar saturation;#P user hslider 16 18 11 47 256 1 0 0;#P objectname saturation;#P user swatch 16 27 63 26;#P objectname erasecolor;#P window setfont Times 10.;#P comment 207 35 15 1310730 /z;#B frgb 0 0 222;#P comment 157 35 16 1310730 /y;#B frgb 0 0 222;#P window setfont "Sans Serif" 9.;#P newex 441 340 122 196617 variedit $1/lookat/z $1;#B color 12;#P newex 302 340 123 196617 variedit $1/lookat/y $1;#B color 12;#P newex 164 340 123 196617 variedit $1/lookat/x $1;#B color 12;#P newex 441 314 66 196617 pvar lookatz;#P newex 302 314 67 196617 pvar lookaty;#P newex 164 314 67 196617 pvar lookatx;#P newex 441 288 128 196617 variedit $1/camera/z $1;#B color 12;#P newex 302 288 129 196617 variedit $1/camera/y $1;#B color 12;#P newex 164 288 129 196617 variedit $1/camera/x $1;#B color 12;#P newex 441 262 57 196617 pvar camz;#P newex 302 262 58 196617 pvar camy;#P newex 164 262 58 196617 pvar camx;#P flonum 176 33 34 9 -100. 100. 8227 3 50 50 50 221 221 221 0 0 0 0 0 0;#P objectname lookaty;#P flonum 223 33 34 9 -100. 100. 8227 3 25 25 25 221 221 221 9 9 9 0 0 0;#P objectname lookatz;#P flonum 124 33 34 9 -100. 100. 8227 3 0 0 0 221 221 221 58 58 58 0 0 0;#P objectname lookatx;#P flonum 223 18 34 9 -100. 100. 8227 3 0 0 0 221 221 221 0 0 0 0 0 0;#P objectname camz;#P flonum 175 18 34 9 -100. 100. 8227 3 0 0 0 221 221 221 0 0 0 0 0 0;#P objectname camy;#P flonum 125 18 34 9 -100. 100. 8227 3 17 17 17 221 221 221 0 0 0 0 0 0;#P objectname camx;#P window setfont Times 10.;#P comment 207 20 15 1310730 /z;#B frgb 0 0 222;#P comment 157 20 16 1310730 /y;#B frgb 0 0 222;#P comment 80 35 46 1310730 /lookat/x;#B frgb 0 0 222;#P comment 80 20 48 1310730 /camera/x;#B frgb 0 0 222;#P comment 18 50 66 1310730 /erasecolor/red;#B frgb 0 0 222;#P comment 153 50 30 1310730 /blue;#B frgb 0 0 222;#P window setfont "Sans Serif" 9.;#P newex 329 601 265 196617 variedit $1/erasecolor/alpha $1;#B color 12;#P newex 329 576 87 196617 pvar erasecolora;#P flonum 226 50 30 9 0. 1. 8195 3 0 0 0 221 221 221 0 0 0 0 0 0;#P objectname erasecolora;#P newex 328 542 260 196617 variedit $1/erasecolor/blue $1;#B color 12;#P newex 328 485 267 196617 variedit $1/erasecolor/green $1;#B color 12;#P newex 328 431 264 196617 variedit $1/erasecolor/red $1;#B color 12;#P newex 328 517 87 196617 pvar erasecolorb;#P newex 328 463 87 196617 pvar erasecolorg;#P newex 328 406 87 196617 pvar erasecolorr;#P flonum 177 50 28 9 0. 1. 8227 3 0 0 0 221 221 221 0 0 0 0 0 0;#P objectname erasecolorb;#P flonum 78 50 28 9 0. 1. 8227 3 0 0 0 221 221 221 0 0 0 0 0 0;#P objectname erasecolorr;#P toggle 54 3 13 0;#P objectname test;#P window setfont Times 10.;#P comment 67 3 25 1310730 /test;#B frgb 0 0 222;#P comment 200 50 34 1310730 /alpha;#B frgb 0 0 222;#P window setfont "Sans Serif" 9.;#P newex 158 230 301 196617 variedit $1/test $1;#B color 12;#P newex 158 206 52 196617 pvar test;#P flonum 130 50 28 9 0. 1. 8227 3 0 0 0 221 221 221 0 0 0 0 0 0;#P objectname erasecolorg;#P window setfont Times 10.;#P comment 101 50 34 1310730 /green;#B frgb 0 0 222;#P comment 102 3 25 1310730 /nav;#B frgb 0 0 222;#P bpatcher 0 1 256 62 0 0 bkgnd.mxt 0 $1 1;#P objectname background;#P connect 48 0 49 0;#P connect 51 0 50 0;#P connect 50 0 52 0;#P connect 5 0 4 0;#P connect 4 0 5 0;#P connect 35 0 32 0;#P connect 32 0 35 0;#P connect 41 0 38 0;#P connect 38 0 41 0;#P fasten 55 0 56 0 290 124 280 124 280 75 290 75;#P connect 56 0 55 0;#P connect 36 0 33 0;#P connect 33 0 36 0;#P connect 42 0 39 0;#P connect 39 0 42 0;#P fasten 14 0 11 0 333 453 322 453 322 400 333 400;#P connect 11 0 14 0;#P fasten 15 0 12 0 333 505 321 505 321 457 333 457;#P connect 12 0 15 0;#P fasten 16 0 13 0 333 563 322 563 322 511 333 511;#P connect 13 0 16 0;#P fasten 19 0 18 0 334 623 323 623 323 570 334 570;#P connect 18 0 19 0;#P connect 37 0 34 0;#P connect 34 0 37 0;#P connect 43 0 40 0;#P connect 40 0 43 0;#P pop;