max v2;#N vpatcher 560 253 1104 485;#P origin 52 -100;#P window setfont "Sans Serif" 12.;#P window linecount 1;#P newex 7 30 207 196620 m_glgroup $1 $2;#B color 6;#P window setfont Helvetica 9.;#P comment 11 185 190 1376265 Tom Mays \, Olivier Pfeiffer & Renaud Rubiano;#B frgb 0 146 207;#P window linecount 2;#P comment 11 158 211 1376265 m_sketch is a part of movie \, a part of tapemovie. contact@tapemovie.org;#P window setfont Helvetica 24.;#P window linecount 1;#P comment 11 99 111 1376280 m_sketch;#B frgb 0 146 207;#P window setfont Helvetica 12.;#P window linecount 2;#P comment 11 126 263 1376268 $1 : prefix name \; $2 : name of the render associated \;;#P user panel 8 96 269 111;#X brgb 255 255 255;#X frgb 0 0 0;#X border 1;#X rounded 0;#X shadow 0;#X done;#P window setfont "Sans Serif" 9.;#P window linecount 1;#P newex 323 86 161 196617 print $1/dumpout;#P window setfont "Sans Serif" 12.;#N vpatcher 481 168 930 451;#P window setfont "Sans Serif" 9.;#P window linecount 0;#P newex 5 171 81 196617 pak dest_dim i i;#P newex 75 145 351 196617 makeparam $1/dest_dim/y $1 i 20 0 2000 1;#B color 11;#P newex 40 121 351 196617 makeparam $1/dest_dim/x $1 i 20 0 2000 1;#B color 11;#P window linecount 3;#P message 162 56 200 196617 \; $1/dest_dim/x/init bang \; $1/dest_dim/y/init bang \;;#P window linecount 1;#P newex 162 34 193 196617 r $1/properties/init;#B color 11;#P outlet 5 195 15 0;#P connect 5 0 0 0;#P connect 3 0 5 1;#P connect 4 0 5 2;#P connect 1 0 2 0;#P pop;#P newobj 217 30 87 196620 p proprieties;#B color 6;#P window setfont "Sans Serif" 9.;#P newex 7 63 326 196617 jit.gl.sketch $2 @name $1 @automatic 0;#P newex 323 105 168 196617 moduleinit $1;#B color 11;#P window linecount 4;#P message 323 131 187 196617 \; $1/scale/x/initval 1 \; $1/gl_group/init bang \; $1/properties/init bang \;;#P fasten 3 0 2 0 222 57 12 57;#P connect 10 0 2 0;#P connect 2 1 4 0;#P connect 1 0 0 0;#P pop;