max v2;#N vpatcher 322 190 901 506;#P origin -10 12;#P window setfont "Sans Serif" 9.;#P newex 149 65 154 196617 route lighting_enable poly_mode point_size line_width cull_face shininess matrixoutput;#P window setfont Helvetica 9.;#P window linecount 1;#P comment 19 263 190 1376265 Tom Mays \, Olivier Pfeiffer & Renaud Rubiano;#B frgb 0 146 207;#P window linecount 2;#P comment 20 236 198 1376265 m_text3d is a part of movie \, a part of tapemovie. contact@tapemovie.org;#P window setfont Helvetica 24.;#P window linecount 1;#P comment 20 177 107 1376280 m_text3d;#B frgb 0 146 207;#P window setfont Helvetica 12.;#P window linecount 2;#P comment 20 204 263 1376268 $1 : prefix name \; $2 : name of the render associated \;;#P user panel 17 174 269 111;#X brgb 255 255 255;#X frgb 0 0 0;#X border 1;#X rounded 0;#X shadow 0;#X done;#P window setfont "Sans Serif" 12.;#P window linecount 1;#P newex 149 33 168 196620 m_glgroup $1 $2;#B color 6;#N vpatcher 556 127 1323 501;#P origin 38 0;#P window setfont "Sans Serif" 9.;#P newex 430 203 80 196617 prepend symbol;#P user ubumenu 430 226 60 196617 0 1 1 0;#X add left;#X add center;#X add right;#X prefix_set 0 0 <none> 0;#P outlet 13 320 15 0;#P window linecount 0;#P newex 152 126 67 196617 prepend face;#P newex 152 87 260 196617 makeparam $1/face $1 s normal;#B color 11;#P message 63 110 29 196617 text;#P window linecount 8;#P message 515 232 176 196617 \; $1/plane/init bang \; $1/text/init bang \; $1/face/init bang \; $1/font/init bang \; $1/size/init bang \; $1/tracking/init bang \; $1/align/init bang \;;#P window linecount 1;#P newex 515 202 178 196617 r $1/properties/init;#B color 11;#P newex 63 166 65 196617 prepend text;#P newex 430 246 69 196617 prepend align;#P number 13 62 35 9 0 0 0 3 0 0 0 221 221 221 222 222 222 0 0 0;#P newex 430 178 296 196617 makeparam $1/align $1 s center;#B color 11;#P number 290 149 35 9 0 0 0 3 0 0 0 221 221 221 222 222 222 0 0 0;#P newex 290 168 65 196617 prepend size;#P newex 290 128 254 196617 makeparam $1/size $1 i 12 0 400 1;#B color 11;#P newex 63 85 57 196617 route none;#P newex 63 63 309 196617 makeparam $1/text $1 l @initlist none;#B color 11;#P newex 217 128 65 196617 prepend font;#P newex 217 106 252 196617 makeparam $1/font $1 s Geneva;#B color 11;#P newex 13 42 298 196617 makeparam $1/plane $1 i 0 0 100 1;#B color 11;#P message 13 80 45 196617 plane \$1;#P flonum 361 173 35 9 0 0 0 3 0 0 0 221 221 221 222 222 222 0 0 0;#P newex 361 153 305 196617 makeparam $1/tracking $1 f 1 -1000 1000 1;#B color 11;#P message 361 191 61 196617 tracking \$1;#P connect 4 0 13 0;#P connect 13 0 3 0;#P connect 15 0 21 0;#P connect 0 0 21 0;#P connect 10 0 21 0;#P connect 3 0 21 0;#P connect 6 0 21 0;#P connect 14 0 21 0;#P connect 20 0 21 0;#P connect 7 0 8 0;#P connect 8 0 18 0;#P connect 8 1 15 0;#P connect 18 0 15 0;#P connect 19 0 20 0;#P connect 5 0 6 0;#P connect 9 0 11 0;#P connect 11 0 10 0;#P connect 1 0 2 0;#P connect 2 0 0 0;#P connect 12 0 23 0;#P connect 23 0 22 0;#P connect 22 0 14 0;#P connect 16 0 17 0;#P pop;#P newobj 365 33 66 196620 p params;#B color 6;#P window setfont "Sans Serif" 9.;#P newex 415 177 138 196617 print $1/dumpout;#B color 13;#P newex 149 153 276 196617 jit.gl.text2d $2 @name $1 @automatic 0;#P newex 298 201 168 196617 moduleinit $1;#B color 11;#P window linecount 3;#P message 298 227 127 196617 \; $1/gl_group/init bang \; $1/properties/init bang \;;#P comment 72 68 76 196617 messages not understood by jit.gl.text2d;#P connect 6 0 12 0;#P fasten 5 0 3 0 370 142 154 142;#P fasten 12 7 3 0 294 123 154 123;#P fasten 2 0 1 0 303 222 303 222;#P connect 3 1 4 0;#P pop;