max v2;#N vpatcher 262 93 1314 871;#P window setfont "Sans Serif" 9.;#P window linecount 2;#P newex 40 165 91 196617 editmodulescripter /movie 700 90;#B color 3;#P window linecount 0;#P comment 0 1456 100 196617;#P button 510 39 15 0;#P window linecount 1;#P newex 527 39 118 196617 s /movie/output/delete;#B color 11;#P button 510 20 15 0;#P newex 527 20 112 196617 s /movie/output/build;#B color 11;#P window linecount 3;#P newex 30 117 89 196617 modulescripter /movie output 510 180;#B color 3;#P newex 20 70 89 196617 modulescripter /movie effect 320 180;#B color 3;#P newex 8 26 95 196617 modulescripter /movie source 150 160;#B color 3;#P button 699 38 15 0;#P window linecount 1;#P newex 716 38 138 196617 s /movie/editmodule/delete;#B color 11;#P button 699 19 15 0;#P newex 716 19 132 196617 s /movie/editmodule/build;#B color 11;#P button 320 39 15 0;#P newex 337 39 117 196617 s /movie/effect/delete;#B color 11;#P button 320 20 15 0;#P newex 337 20 111 196617 s /movie/effect/build;#B color 11;#P button 150 39 15 0;#P button 150 20 15 0;#N thispatcher;#Q end;#P newobj 8 202 61 196617 thispatcher;#P window linecount 0;#P comment 1 1 100 196617;#P window linecount 1;#P newex 167 39 120 196617 s /movie/source/delete;#B color 11;#P newex 167 20 114 196617 s /movie/source/build;#B color 11;#P window linecount 0;#P comment 0 16 100 196617;#P connect 17 0 4 0;#P connect 16 0 4 0;#P connect 23 0 4 0;#P connect 15 0 4 0;#P connect 5 0 1 0;#P connect 6 0 2 0;#P connect 8 0 7 0;#P connect 10 0 9 0;#P connect 19 0 18 0;#P connect 21 0 20 0;#P connect 12 0 11 0;#P connect 14 0 13 0;#P pop;