max v2;#N vpatcher 101 44 935 900;#P window setfont "Sans Serif" 9.;#P window linecount 1;#N vpatcher 20 74 239 334;#P button 66 160 15 0;#P window setfont "Sans Serif" 9.;#P window linecount 2;#P message 66 182 121 196617 \; /ch-config/editor front \;;#P window linecount 1;#P message 66 117 80 196617 frgb 0 146 207;#P message 51 97 93 196617 brgb 205 205 205;#P newex 51 74 20 196617 t b;#P newex 50 50 48 196617 loadbang;#P inlet 89 140 15 0;#P outlet 66 137 15 0;#P connect 2 0 3 0;#P connect 3 0 4 0;#P connect 3 0 5 0;#P connect 4 0 0 0;#P connect 5 0 0 0;#P connect 1 0 7 0;#P connect 7 0 6 0;#P pop;#P hidden newobj 425 4 60 196617 p;#P user jsui 29 3 93 17 0 0 0 jsui_roundedlabel.js configuration;#P objectname config;#P window setfont "Sans Serif" 14.;#N vpatcher 0 44 835 284;#P origin 0 -1;#P button 2 5 20 0;#P button 603 360 15 0;#P window setfont "Sans Serif" 9.;#P window linecount 1;#P newex 601 391 91 196617 s m-channels-edit;#B color 12;#P newex 535 319 113 196617 r /movie/channel/edit;#B color 12;#P window setfont "Sans Serif" 18.;#P comment 305 2 521 196626 Please put jmatrix effects before slab effects in a channel;#P objectname reload[1];#P window setfont "Sans Serif" 9.;#P window linecount 2;#P message 9 317 133 196617 \; /modules/total/build bang \;;#P window linecount 1;#N vpatcher 907 223 1245 425;#P window setfont "Sans Serif" 9.;#P newex 274 50 32 196617 sel 0;#P message 23 112 92 196617 frgb 147 147 147;#P message 150 108 80 196617 frgb 0 146 207;#N comlet from mouse up bang;#P inlet 23 62 15 0;#N comlet from right outlet;#P inlet 274 30 15 0;#N comlet from mouse down bang;#P inlet 150 58 15 0;#N comlet to panel;#P outlet 150 151 15 0;#P connect 3 0 5 0;#P connect 6 0 5 0;#P connect 1 0 4 0;#P connect 4 0 0 0;#P connect 5 0 0 0;#P connect 2 0 6 0;#P pop;#P newobj 28 287 79 196617 p updowncolors;#B color 6;#P window setfont "Sans Serif" 14.;#P comment 23 4 122 196622 rebuild channels;#P objectname reload;#P user panel 11 3 145 22;#X brgb 255 255 255;#X frgb 147 147 147;#X border 1;#X rounded 0;#X shadow 0;#X done;#P button 365 379 15 0;#P window setfont "Sans Serif" 9.;#P hidden newex 284 53 48 196617 loadbang;#P hidden newex 491 99 99 196617 r /ch-config/editor;#P hidden message 280 133 170 196617 window flags nogrow \, window exec;#P hidden message 278 102 157 196617 window flags grow \, window exec;#N thispatcher;#Q end;#P hidden newobj 473 154 61 196617 thispatcher;#P newex 410 510 27 196617 t b l;#P newex 410 533 65 196617 t writeagain;#P newex 536 344 21 196617 t 1;#B color 12;#P newex 565 663 106 196617 zl reg;#P window linecount 2;#P newex 661 632 166 196617 append none none none none none none none none none none none none;#P window linecount 1;#N coll m_channels 1;#P newobj 565 685 90 196617 coll m_channels 1;#B color 5;#P newex 661 613 72 196617 prepend store;#P newex 565 640 29 196617 gate;#P newex 565 611 24 196617 t 0;#P newex 565 556 106 196617 t b s 1 s;#P newex 535 479 40 196617 uzi;#P newex 535 449 96 196617 t b i 1;#N counter;#X flags 0 0;#P newobj 565 510 125 196617 counter;#P message 535 406 18 196617 ch;#N coll m_config 1;#P newobj 535 428 79 196617 coll m_config 1;#P newex 565 535 122 196617 sprintf /ch.%ld/modules;#P button 535 384 15 0;#P newex 441 449 82 196617 pvar cellblock 2;#B color 11;#P objectname receiveb[2];#N coll m_channels 1;#P newobj 565 584 90 196617 coll m_channels 1;#B color 5;#P newex 410 486 67 196617 prepend text;#P newex 223 422 94 196617 prepend setsymbol;#P window setfont "Sans Serif" 12.;#N vpatcher 436 227 1020 780;#P window setfont "Sans Serif" 9.;#P window linecount 0;#P message 371 450 55 196617 select 0 0;#P message 428 95 83 196617 choose an effect;#P newex 519 117 30 196617 t b s;#P objectname receiveb[1];#P outlet 376 491 15 0;#P inlet 85 16 15 0;#P newex 296 357 31 196617 t b 1;#P objectname receiveb[29];#N counter;#X flags 0 0;#P newobj 305 389 171 196617 counter;#P objectname receiveb[30];#P newex 274 387 27 196617 t b i;#P objectname receiveb[31];#P newex 274 414 73 196617 zl reg;#P objectname receiveb[32];#P newex 209 437 75 196617 gate;#P objectname receiveb[33];#P message 274 357 14 196617 0;#P window linecount 2;#P newex 274 323 58 196617 route matrix slab;#P objectname receiveb[34];#P newex 337 323 44 196617 prepend append;#P objectname receiveb[35];#P window linecount 1;#P newex 274 298 44 196617 zl nth 4;#P objectname receiveb[36];#P window linecount 2;#P newex 337 288 39 196617 route symbol;#P objectname receiveb[37];#P window linecount 1;#N coll m_effects 1;#P newobj 274 263 199 196617 coll m_effects 1;#B color 5;#P objectname receiveb[38];#P newex 273 159 56 196617 t dump b b;#P objectname receiveb[12];#P newex 98 285 27 196617 i;#P objectname receiveb[23];#P message 97 326 82 196617 enableitem \$1 0;#P newex 97 305 27 196617 + 3;#P objectname receiveb[22];#P newex 106 177 31 196617 t b 1;#P objectname receiveb[7];#N counter;#X flags 0 0;#P newobj 115 209 171 196617 counter;#P objectname receiveb[6];#P newex 84 207 27 196617 t b i;#P objectname receiveb[24];#P newex 84 234 73 196617 zl reg;#P objectname receiveb[25];#P newex 19 257 75 196617 gate;#P objectname receiveb[26];#P message 84 177 14 196617 0;#P window linecount 2;#P newex 84 143 55 196617 route slab matrix;#P objectname receiveb[27];#P newex 147 143 44 196617 prepend append;#P objectname receiveb[28];#P window linecount 1;#P message 287 84 80 196617 jmatrix effects;#P message 319 189 242 196617 enableitem 0 0 \, enableitem 2 0 \, append slab effects;#P button 84 35 15 0;#P newex 386 164 78 196617 prepend append;#P objectname receiveb[13];#P outlet 19 490 15 0;#P newex 84 118 44 196617 zl nth 4;#P objectname receiveb[9];#P window linecount 2;#P newex 147 108 39 196617 route symbol;#P objectname receiveb[8];#P window linecount 1;#P newex 84 54 463 196617 t dump b none clear;#P objectname receiveb[10];#N coll m_effects 1;#P newobj 84 83 199 196617 coll m_effects 1;#B color 5;#P objectname receiveb[11];#P fasten 14 1 12 0 106 229 24 229;#P lcolor 2;#P connect 34 1 4 0;#P connect 5 0 4 0;#P connect 7 0 4 0;#P fasten 27 0 4 0 214 472 24 472;#P fasten 18 0 4 0 102 348 24 348;#P connect 12 0 4 0;#P connect 32 0 6 0;#P connect 6 0 1 0;#P fasten 1 0 0 0 89 77 89 77;#P connect 0 0 3 0;#P connect 3 0 10 0;#P connect 10 0 11 0;#P connect 11 0 14 0;#P fasten 16 1 14 0 132 200 89 200;#P lcolor 7;#P connect 14 0 13 0;#P connect 13 0 12 1;#P connect 19 0 17 0;#P connect 17 0 18 0;#P connect 20 1 19 0;#P lcolor 2;#P connect 10 1 16 0;#P connect 16 0 15 0;#P connect 15 0 19 1;#P connect 0 1 2 0;#P connect 2 0 9 0;#P connect 9 0 13 1;#P fasten 29 1 27 0 296 409 214 409;#P lcolor 2;#P connect 1 1 15 3;#P connect 0 3 20 0;#P connect 20 0 21 0;#P connect 21 0 23 0;#P connect 23 0 25 0;#P connect 25 0 26 0;#P fasten 31 1 29 0 322 380 279 380;#P lcolor 7;#P connect 26 0 29 0;#P connect 29 0 28 0;#P connect 28 0 27 1;#P fasten 1 1 8 0 240 77 292 77;#P connect 25 1 31 0;#P connect 31 0 30 0;#P connect 20 2 7 0;#P connect 21 1 22 0;#P connect 22 0 24 0;#P connect 24 0 28 1;#P connect 21 3 36 0;#P connect 36 0 33 0;#P connect 35 0 5 0;#P fasten 8 0 5 0 292 121 391 121;#P connect 1 2 5 0;#P connect 34 0 35 0;#P connect 1 3 34 0;#P pop;#P newobj 322 422 90 196620 p MAKE MENU;#B color 6;#P window setfont "Sans Serif" 14.;#P user ubumenu 160 3 137 196622 0 1 1 0;#X setrgb 0 0 0 230 230 230 255 255 255 0 146 207 141 141 141 0 146 207;#X add choose an effect;#X add none;#X add jmatrix effects;#X add alpha;#X add blur-m;#X add brcosa-m;#X add composite-m;#X add croper;#X add crop-m;#X add framediff;#X add mask;#X add rota-m;#X add slide-m;#X add wake;#X add waves;#X add slab effects;#X add brcosa;#X add blur;#X add buf;#X add bus;#X add chromakey;#X add composite;#X add crop;#X add dilate;#X add edgeblend;#X add emboss;#X add gaussian;#X add keystone;#X add lumadisplace;#X add mix;#X add outline;#X add radial;#X add rota;#X add slide;#X add sharpen;#X add texture;#X add thresh;#X add wobble;#X prefix_set 0 0 <none> 0;#P objectname effectsmenu;#P window setfont "Sans Serif" 9.;#P newex 322 462 98 196617 pvar effectsmenu 2;#B color 11;#P objectname receiveb[1];#P newex 182 401 51 196617 zl ecils 1;#P message 441 428 89 196617 refer m_channels;#P user jit.cellblock 2 28 831 233 3 9 13 17 45 17 0 1 1 0 1 0 0 0 1 0 0 0 255 255 255 0 0 0 0 0 0 191 191 191 0 0 0 215 215 240 1 1 1 0 4 0 0 1;#X col 0 layout 76 1 5 0 0 1 0 87 176 -1 -1 -1;#X col 12 layout 63 1 121 0 0 1 130 245 226 -1 -1 -1;#X col 11 layout 63 1 94 0 0 1 0 0 0 -1 -1 -1;#X col 10 layout 63 1 94 0 0 1 0 0 0 -1 -1 -1;#X col 9 layout 63 1 94 0 0 1 0 0 0 -1 -1 -1;#X col 8 layout 63 1 53 24 0 1 0 0 33 -1 -1 -1;#X col 7 layout 63 1 5 0 0 1 0 0 129 -1 -1 -1;#X col 6 layout 63 1 94 0 0 1 0 0 0 -1 -1 -1;#X col 5 layout 63 1 0 0 63 1 0 63 0 -1 -1 -1;#X col 1 layout 63 1 26 49 0 1 0 0 0 -1 -1 -1;#X col 2 layout 63 1 10 49 0 1 0 0 0 -1 -1 -1;#X col 3 layout 63 1 94 0 0 1 0 0 0 -1 -1 -1;#X col 4 layout 63 1 29 74 0 1 0 48 29 -1 -1 -1;#P objectname cellblock;#P window linecount 5;#P comment 696 544 100 196617 remplit la ligne du channel s'il n'est pas présent dans le coll mchannels mais dans le coll config;#P user ubutton 12 3 142 23 0 2;#P hidden connect 0 0 38 0;#P hidden connect 37 0 35 0;#P hidden connect 0 0 37 0;#P hidden connect 0 1 37 1;#P hidden connect 0 2 37 2;#P connect 11 0 4 0;#P connect 4 1 8 0;#P hidden connect 33 0 31 0;#P connect 26 0 7 0;#P connect 34 0 7 0;#P connect 7 0 5 0;#P connect 8 0 5 0;#P connect 5 1 9 0;#P connect 9 0 28 0;#P connect 28 0 27 0;#P connect 26 0 3 0;#P connect 7 1 11 0;#P connect 3 0 11 0;#P connect 28 1 11 0;#P hidden connect 32 0 29 0;#P hidden connect 31 0 29 0;#P hidden connect 30 0 29 0;#P connect 26 0 12 0;#P connect 12 0 15 0;#P connect 15 0 14 0;#P connect 14 0 17 0;#P connect 17 0 18 0;#P connect 40 0 26 0;#P connect 17 1 18 1;#P connect 18 2 16 0;#P connect 16 0 13 0;#P connect 13 0 19 0;#P connect 19 1 10 0;#P connect 27 0 10 0;#P connect 10 0 20 0;#P connect 19 2 21 0;#P connect 20 0 21 0;#P connect 21 0 25 0;#P connect 25 0 23 0;#P connect 19 0 21 1;#P connect 42 0 41 0;#P hidden connect 43 0 42 0;#P connect 17 2 16 2;#P connect 19 3 22 0;#P connect 22 0 24 0;#P connect 24 0 25 1;#P connect 17 1 16 4;#P pop;#P hidden newobj 240 2 113 196622 p config editor;#P button 338 786 15 0;#P window setfont "Sans Serif" 9.;#P comment 356 786 39 196617 delete;#P button 272 786 15 0;#P comment 289 786 31 196617 build;#P hidden newex 272 815 108 196617 m_edit-builder ch 1 1;#B color 6;#P hidden newex 33 821 154 196617 editorwindow /ch /movie;#N thispatcher;#Q end;#P hidden newobj 33 846 61 196617 thispatcher;#B color 12;#P hidden newex 361 4 61 196617 pvar config;#P hidden fasten 1 0 2 0 38 869 28 869 28 815 38 815;#P hidden connect 2 0 1 0;#P hidden connect 3 0 1 0;#P hidden connect 5 0 3 0;#P hidden connect 10 0 0 0;#P hidden connect 7 0 3 1;#P hidden connect 0 0 10 0;#P pop;