max v2;#N vpatcher 496 227 1063 854;#P origin 24 0;#P window setfont "Sans Serif" 9.;#P window linecount 1;#P newex 380 433 44 196617 del 100;#P window setfont Times 9.;#P newex 380 454 85 1310729 s $1/built;#B color 11;#P window setfont "Sans Serif" 9.;#P newex 380 412 48 196617 loadbang;#P window linecount 3;#P comment 431 414 80 196617 Must be present in module for build to happen !;#P user panel 377 409 136 65;#X brgb 255 0 0;#X frgb 0 0 0;#X border 1;#X rounded 0;#X shadow 0;#X done;#P window linecount 1;#P newex 369 104 40 196617 t dump;#N thispatcher;#Q end;#P newobj 320 390 61 196617 thispatcher;#P window setfont "Sans Serif" 18.;#P comment 442 335 61 196626 BUILD;#P window setfont "Sans Serif" 9.;#P newex 335 369 197 196617 s $1/modules/built;#B color 12;#P window setfont "Sans Serif" 12.;#N vpatcher 164 213 586 749;#P origin 0 -59;#P window setfont "Sans Serif" 9.;#P window linecount 1;#P message 82 249 35 196617 /ch.2;#P window linecount 0;#P newex 56 57 45 196617 t b b;#P window linecount 1;#P newex 56 135 45 196617 onebang;#P newex 56 87 139 196617 r $1/modules/deleted;#B color 11;#N counter 1 12;#X flags 0 0;#P newobj 151 393 68 196617 counter 1 12;#P outlet 67 361 15 0;#P outlet 350 469 15 0;#P newex 56 403 57 196617 route none;#P newex 56 380 25 196617 iter;#P window setfont "Sans Serif" 12.;#P window linecount 2;#N vpatcher 530 44 1370 855;#P origin -19 27;#P window setfont "Sans Serif" 9.;#P window linecount 0;#P newex 47 222 92 196617 gate 2;#P newex 93 253 66 196617 sprintf %sm;#P objectname receiveb[3];#P button 593 356 15 0;#P newex 676 561 45 196617 onebang;#P newex 612 376 79 196617 t b b b;#P button 676 583 15 0;#P newex 676 604 139 196617 s $1/modules/deleted;#B color 11;#P newex 66 39 221 196617 t l 20;#P newex 66 60 25 196617 iter;#P newex 66 80 109 196617 route none (cpu) (gpu);#P inlet 66 17 15 0;#P outlet 165 781 15 0;#P newex 165 113 360 196617 t b s s;#P objectname receiveb[1];#P window setfont "Sans Serif" 18.;#P comment 534 108 105 196626 NUMEROTE;#P window setfont "Sans Serif" 9.;#P comment 54 403 75 196617 slab or matrix;#P window setfont "Sans Serif" 18.;#P comment 678 485 76 196626 DELETE;#P window setfont "Sans Serif" 9.;#P newex 11 446 21 196617 t 1;#P objectname receiveb[24];#P newex 50 446 21 196617 t 2;#P objectname receiveb[2];#P newex 11 422 89 196617 route slab matrix;#P newex 11 399 44 196617 zl nth 2;#P newex 612 356 139 196617 r $1/modules/delete;#B color 11;#P message 638 398 33 196617 dump;#P message 675 400 33 196617 clear;#P newex 631 337 150 196617 t b i;#P newex 631 486 36 196617 zl reg;#P newex 631 524 150 196617 sprintf $1/%s.%ld;#P newex 601 316 40 196617 uzi;#P newex 657 456 69 196617 route symbol;#P window linecount 2;#N coll $1/present 1;#P newobj 638 420 69 196617 coll $1/present 1;#B color 5;#P objectname receiveb[11];#P window linecount 1;#P newex 665 278 52 196617 zl join;#P newex 665 302 72 196617 prepend store;#P newex 665 231 52 196617 t b i;#P newex 665 254 36 196617 zl reg;#P newex 496 291 21 196617 t 1;#P number 626 271 35 9 0 0 0 3 0 0 0 221 221 221 222 222 222 0 0 0;#P newex 626 246 27 196617 + 1;#P button 496 272 15 0;#P newex 607 224 29 196617 t 0 i;#P newex 496 250 29 196617 gate;#P newex 607 160 80 196617 prepend symbol;#P newex 515 136 288 196617 t b s 1 s;#P window linecount 2;#N coll $1/present 1;#P newobj 607 190 69 196617 coll $1/present 1;#B color 5;#P objectname receiveb[29];#P window linecount 1;#P newex 340 161 51 196617 zl slice 1;#P objectname receiveb[14];#P newex 381 184 44 196617 zl nth 2;#P objectname receiveb[13];#N coll m_effects 1;#P newobj 340 139 84 196617 coll m_effects 1;#B color 5;#P objectname receiveb[12];#P window linecount 3;#P newex 631 554 40 196617 prepend script delete;#P window linecount 2;#P comment 285 160 54 196617 how many inputs?;#P window linecount 1;#P newex 11 475 92 196617 gate 2;#P newex 11 497 56 196617 append $2;#P window linecount 2;#P newex 93 499 45 196617 append $3 $4;#P window linecount 1;#P newex 175 448 288 196617 sprintf new $1/%s.%ld newex 20 %ld 300 9 %s $1/%s.%ld;#P button 298 372 15 0;#P message 298 398 20 196617 30;#P newex 277 422 53 196617 accum 20;#P newex 165 338 220 196617 zl reg;#P newex 165 751 75 196617 prepend script;#P connect 12 1 36 0;#P connect 36 0 37 0;#P connect 37 0 39 0;#P connect 39 0 8 0;#P connect 38 0 8 0;#P connect 8 0 7 0;#P connect 37 1 38 0;#P connect 45 0 48 0;#P connect 48 0 47 0;#P connect 47 0 46 0;#P connect 55 1 54 0;#P connect 5 0 8 1;#P connect 8 1 6 0;#P connect 46 3 43 0;#P connect 43 0 1 0;#P fasten 7 0 0 0 16 744 170 744;#P fasten 6 0 0 0 98 744 170 744;#P fasten 0 0 44 0 170 774 170 774;#P fasten 10 0 44 0 636 774 170 774;#P fasten 1 0 5 0 170 440 180 440;#P connect 21 0 5 1;#P connect 4 0 2 0;#P connect 48 1 2 0;#P connect 2 0 5 2;#P connect 15 0 4 0;#P connect 4 0 3 0;#P connect 3 0 2 1;#P connect 43 1 11 0;#P connect 11 0 13 0;#P connect 12 0 5 3;#P connect 43 2 1 1;#P connect 13 1 12 0;#P connect 43 2 5 4;#P connect 21 0 5 5;#P fasten 18 0 17 0 612 245 501 245;#P lcolor 10;#P fasten 15 2 17 0 704 157 501 157;#P lcolor 7;#P connect 17 0 19 0;#P connect 19 0 22 0;#P connect 43 2 15 0;#P connect 15 0 17 1;#P fasten 27 0 29 0 643 458 584 458 584 308 606 308;#P connect 15 1 16 0;#P connect 16 0 14 0;#P fasten 25 0 14 0 670 326 752 326 752 183 612 183;#P lcolor 15;#P connect 14 0 18 0;#P connect 53 0 51 0;#P connect 35 0 51 0;#P connect 18 1 20 0;#P fasten 22 0 21 0 501 310 565 310 571 267 631 267;#P connect 20 0 21 0;#P connect 29 2 32 0;#P connect 32 0 31 0;#P connect 31 0 30 0;#P connect 30 0 10 0;#P connect 51 1 34 0;#P connect 34 0 27 0;#P connect 33 0 27 0;#P connect 27 1 28 0;#P connect 28 0 31 1;#P connect 21 0 24 0;#P connect 24 0 23 0;#P connect 23 0 26 0;#P connect 26 0 25 0;#P fasten 27 3 33 0 700 453 718 453 718 396 680 396;#P connect 27 3 52 0;#P connect 51 0 52 0;#P connect 52 0 50 0;#P connect 50 0 49 0;#P connect 15 3 23 1;#P connect 24 1 26 1;#P connect 51 2 52 1;#P connect 32 1 30 1;#P pop;#P newobj 67 319 133 196620 p CREATE MODULES & MAKE CONNECTION;#B color 6;#P button 350 447 15 0;#P window setfont "Sans Serif" 9.;#P window linecount 1;#N counter 1 3;#X flags 0 0;#P newobj 56 426 304 196617 counter 1 3;#P newex 202 319 25 196617 iter;#P window linecount 2;#P newex 202 339 29 196617 route none;#P inlet 56 17 15 0;#P window linecount 3;#P message 158 246 133 196617 \; $1/modules/delete bang \;;#P window linecount 1;#P newex 56 293 229 196617 t l l l 1;#P message 56 248 21 196617 $1;#N coll m_channels 1;#P newobj 56 269 90 196617 coll m_channels 1;#B color 5;#P button 100 224 15 0;#P button 217 201 15 0;#P window linecount 0;#P newex 158 178 50 196617 deferlow;#P newex 56 178 50 196617 deferlow;#P newex 158 200 54 196617 onebang 1;#P newex 56 200 45 196617 onebang;#P newex 56 224 38 196617 del 10;#P newex 158 222 38 196617 del 10;#P button 56 37 15 0;#P newex 56 111 38 196617 del 10;#P button 158 157 15 0;#P comment 174 157 39 196617 delete;#P button 56 157 15 0;#P comment 70 157 31 196617 build;#P connect 18 0 5 0;#P connect 5 0 31 0;#P connect 29 0 4 0;#P connect 4 0 30 0;#P connect 30 0 1 0;#P connect 1 0 10 0;#P connect 10 0 8 0;#P connect 8 0 7 0;#P connect 7 0 15 0;#P connect 15 0 14 0;#P connect 32 0 14 0;#P connect 14 0 16 0;#P connect 16 0 24 0;#P connect 24 0 25 0;#P connect 25 0 21 0;#P connect 16 1 23 0;#P connect 23 0 27 0;#P connect 31 1 30 1;#P connect 9 0 8 1;#P connect 8 1 13 0;#P connect 19 0 28 0;#P connect 31 0 3 0;#P connect 3 0 11 0;#P connect 11 0 9 0;#P connect 9 0 6 0;#P connect 6 0 17 0;#P connect 16 3 28 3;#P connect 8 0 9 1;#P connect 16 2 20 0;#P connect 20 0 19 0;#P connect 9 1 12 0;#P connect 16 3 21 3;#P connect 21 3 22 0;#P connect 28 3 22 0;#P connect 22 0 26 0;#P pop;#P newobj 320 338 115 196620 p modules-builder;#B color 6;#P window setfont "Sans Serif" 9.;#P newex 320 315 188 196617 receive $1/modules/build;#B color 11;#P newex 362 274 27 196617 t b l;#P newex 362 297 47 196617 forward;#P window setfont "Sans Serif" 18.;#P comment 450 174 43 196626 INIT;#P window setfont "Sans Serif" 9.;#P newex 368 84 136 196617 r $1/init;#B color 11;#P newex 362 61 150 196617 t b i;#P newex 362 229 36 196617 zl reg;#P newex 362 252 150 196617 sprintf send $1/%s.%ld/init;#P newex 332 42 40 196617 uzi;#P newex 388 207 69 196617 route symbol;#P window linecount 2;#N coll $1/present 1;#P newobj 369 171 69 196617 coll $1/present 1;#B color 5;#P objectname receiveb[11];#P window linecount 1;#P newex 310 19 131 196617 r $1b/in;#B color 11;#P objectname receiveb;#P connect 11 0 12 0;#P connect 12 0 15 0;#P fasten 1 0 3 0 374 208 329 208 329 37 337 37;#P lcolor 15;#P fasten 12 1 13 0 430 364 340 364;#P connect 3 2 6 0;#P connect 6 0 5 0;#P connect 5 0 4 0;#P connect 4 0 10 0;#P connect 10 1 9 0;#P connect 10 0 9 0;#P connect 7 0 16 0;#P connect 16 0 1 0;#P connect 19 0 21 0;#P connect 21 0 20 0;#P connect 1 1 2 0;#P connect 2 0 5 1;#P connect 6 1 4 1;#P pop;