max v2;#N vpatcher 172 406 1006 694;#P origin -125 -251;#P window setfont "Sans Serif" 9.;#P window linecount 1;#P newex 601 188 67 196617 s /ch/editor;#B color 11;#P newex 601 64 152 196617 receive $1/modules/edit/build;#B color 11;#P button 601 84 15 0;#P newex 601 107 44 196617 del 150;#P button 752 127 15 0;#P comment 710 127 39 196617 delete;#P button 601 127 15 0;#P comment 615 127 31 196617 build;#P window setfont "Sans Serif" 12.;#N vpatcher 338 44 1312 787;#P origin 32 47;#P window setfont "Sans Serif" 9.;#P flonum 169 385 35 9 0 0 0 3 0 0 0 221 221 221 222 222 222 0 0 0;#P button 700 610 15 0;#N counter 1 2;#X flags 0 0;#P newobj 701 629 66 196617 counter 1 2;#P newex 725 596 34 196617 zl len;#P newex 780 545 25 196617 iter;#B color 12;#P newex 780 525 70 196617 t l 1;#B color 12;#N counter 1 12;#X flags 0 0;#P newobj 780 589 92 196617 counter 1 12;#P newex 780 567 57 196617 route none;#B color 12;#P button 785 660 15 0;#P number 84 488 35 9 0 0 0 3 0 0 0 221 221 221 222 222 222 0 0 0;#P newex 13 268 57 196617 route none;#P newex 13 245 25 196617 iter;#P newex 785 682 122 196617 s $1/modules/edit/built;#B color 12;#P window setfont "Sans Serif" 18.;#P comment 584 226 105 196626 NUMEROTE;#P window setfont "Sans Serif" 9.;#P newex 715 396 52 196617 zl join;#P newex 715 420 72 196617 prepend store;#P newex 715 349 52 196617 t b i;#P newex 715 372 36 196617 zl reg;#P newex 546 409 21 196617 t 1;#P number 676 389 35 9 0 0 0 3 0 0 0 221 221 221 222 222 222 0 0 0;#P newex 676 364 27 196617 + 1;#P button 546 390 15 0;#P newex 657 342 29 196617 t 0 i;#P newex 546 368 29 196617 gate;#P newex 657 278 80 196617 prepend symbol;#P newex 565 254 288 196617 t b s 1 s;#N coll $1/edit/present 1;#P newobj 657 308 114 196617 coll $1/edit/present 1;#B color 5;#P objectname receiveb[29];#P window setfont "Sans Serif" 12.;#N vpatcher 10 59 217 451;#P window setfont "Sans Serif" 9.;#P newex 90 302 27 196617 + 2;#P newex 90 282 38 196617 * 258;#P number 90 322 35 9 0 0 0 3 0 0 0 221 221 221 222 222 222 0 0 0;#P newex 91 219 63 196617 t i i;#P newex 124 260 30 196617 i;#P newex 50 50 54 196617 onebang 1;#P objectname receiveb[22];#P number 91 176 35 9 0 0 0 3 0 0 0 221 221 221 222 222 222 0 0 0;#P newex 91 156 64 196617 fromsymbol;#P newex 91 136 40 196617 itoa;#P newex 50 115 51 196617 zl ecils 1;#P newex 50 94 40 196617 atoi;#P message 50 72 86 196617 $1;#P newex 91 198 27 196617 - 1;#P message 91 260 14 196617 0;#P newex 91 238 43 196617 route 0;#P inlet 50 30 15 0;#P outlet 90 342 15 0;#P connect 1 0 11 0;#P connect 11 0 5 0;#P connect 5 0 6 0;#P connect 6 0 7 0;#P connect 12 0 15 0;#P connect 15 0 16 0;#P connect 3 0 16 0;#P connect 16 0 14 0;#P connect 14 0 0 0;#P connect 7 1 8 0;#P connect 8 0 9 0;#P connect 9 0 10 0;#P connect 10 0 4 0;#P connect 4 0 13 0;#P connect 13 0 2 0;#P connect 2 0 3 0;#P connect 2 1 12 0;#P connect 13 1 12 1;#P pop;#P newobj 73 592 64 196620 p offsetX;#B color 6;#P window setfont "Sans Serif" 9.;#P newex 314 104 151 196617 receive $1/modules/edit/built;#B color 11;#P newex 80 135 129 196617 s $1/modules/edit/delete;#B color 11;#P newex 13 644 45 196617 t b l;#N comlet delete;#P inlet 54 20 15 0;#N comlet build;#P inlet 27 20 15 0;#P message 512 149 20 196617 0;#P newex 459 123 163 196617 receive $1/modules/edit/deleted;#B color 11;#P message 459 148 45 196617 deleted.;#P message 397 127 54 196617 deleting...;#P message 314 127 33 196617 built.;#P message 212 127 53 196617 building...;#P newex 215 170 157 196617 print $1_editor;#P newex 73 572 48 196617 loadbang;#B color 14;#P button 57 115 15 0;#P button 13 138 15 0;#P newex 13 158 82 196617 t b 0;#P message 13 180 58 196617 symbol $1;#N coll m_channels 1;#P newobj 13 198 90 196617 coll m_channels 1;#B color 5;#P button 127 92 15 0;#P button 80 47 15 0;#P comment 98 47 39 196617 delete;#P button 13 47 15 0;#P comment 31 47 31 196617 build;#P newex 80 69 50 196617 deferlow;#P newex 13 69 50 196617 deferlow;#P newex 80 91 45 196617 onebang;#P newex 13 91 54 196617 onebang 1;#P newex 13 115 38 196617 del 10;#P newex 48 668 73 196617 prepend script;#P outlet 48 698 15 0;#P newex 13 621 310 196617 sprintf new $1/%s bpatcher %ld %ld 256 %ld 0 0 %s.edit $1/%s;#P newex 80 113 38 196617 del 10;#P window setfont "Sans Serif" 18.;#P comment 375 447 76 196626 DELETE;#P window setfont "Sans Serif" 9.;#P message 335 355 33 196617 dump;#P message 372 362 33 196617 clear;#P newex 328 305 150 196617 t b i;#P newex 328 448 36 196617 zl reg;#P newex 328 486 150 196617 sprintf $1/%s.%ld;#P newex 298 278 40 196617 uzi;#P newex 354 418 69 196617 route symbol;#N coll $1/edit/present 1;#P newobj 335 382 114 196617 coll $1/edit/present 1;#B color 5;#P objectname receiveb[11];#P newex 328 516 75 196617 prepend delete;#P newex 346 330 129 196617 r $1/modules/edit/delete;#B color 11;#P newex 13 536 90 196617 sprintf %s.%ld;#P newex 152 448 27 196617 i;#P newex 131 469 53 196617 accum 62;#P newex 169 364 44 196617 zl nth 3;#P objectname receiveb[2];#P number 169 424 35 9 0 0 0 3 0 0 0 221 221 221 222 222 222 0 0 0;#P newex 169 404 81 196617 expr $f1*62+1;#P newex 13 222 35 196617 t l 62;#P newex 90 266 193 196617 t b b s s;#P objectname receiveb[1];#P newex 182 313 51 196617 zl slice 1;#P objectname receiveb[14];#P newex 223 336 44 196617 zl nth 2;#P objectname receiveb[13];#N coll m_effects 1;#P newobj 182 291 84 196617 coll m_effects 1;#B color 5;#P objectname receiveb[12];#P newex 13 510 265 196617 zl reg;#P comment 782 508 121 196617 channel construit si vide;#P connect 51 0 34 0;#P connect 34 0 31 0;#P connect 31 0 29 0;#P connect 29 0 28 0;#P connect 28 0 41 0;#P connect 41 0 40 0;#P connect 40 0 39 0;#P connect 39 0 38 0;#P connect 38 0 6 0;#P connect 6 0 72 0;#P connect 72 0 73 0;#P connect 5 1 1 0;#P connect 1 0 12 0;#P connect 12 0 25 0;#P connect 25 0 53 0;#P connect 53 1 27 0;#P fasten 14 0 27 0 333 665 53 665;#P connect 27 0 26 0;#P fasten 50 0 26 0 517 691 53 691;#P connect 30 0 29 1;#P connect 29 1 42 0;#P connect 43 0 56 0;#P connect 56 0 25 1;#P connect 52 0 36 0;#P connect 36 0 32 0;#P connect 32 0 30 0;#P connect 30 0 24 0;#P connect 24 0 54 0;#P connect 10 0 74 0;#P connect 73 1 5 0;#P connect 64 0 12 1;#P connect 29 0 30 1;#P connect 30 1 37 0;#P connect 6 1 10 0;#P connect 5 1 10 0;#P connect 10 0 25 2;#P connect 53 0 11 0;#P connect 11 0 10 1;#P connect 3 1 9 0;#P connect 9 0 83 0;#P connect 83 0 7 0;#P connect 7 0 8 0;#P connect 8 0 11 1;#P connect 5 2 2 0;#P connect 2 0 4 0;#P connect 8 0 25 3;#P connect 29 0 45 0;#P connect 45 0 44 0;#P connect 46 0 44 0;#P connect 47 0 44 0;#P connect 48 0 44 0;#P connect 4 1 3 0;#P connect 3 0 25 4;#P connect 5 3 1 1;#P fasten 15 0 17 0 340 420 295 420 295 270 303 270;#P connect 12 0 25 5;#P connect 55 0 46 0;#P connect 17 2 20 0;#P connect 20 0 19 0;#P connect 19 0 18 0;#P connect 18 0 14 0;#P connect 13 0 22 0;#P connect 21 0 15 0;#P connect 22 0 15 0;#P connect 15 1 16 0;#P connect 16 0 19 1;#P fasten 15 3 21 0 442 415 455 415 455 358 377 358;#P connect 30 0 47 0;#P connect 49 0 48 0;#P connect 20 1 18 1;#P connect 49 0 50 0;#P fasten 58 2 60 0 754 275 551 275;#P lcolor 7;#P fasten 61 0 60 0 662 363 551 363;#P lcolor 10;#P connect 60 0 62 0;#P connect 62 0 65 0;#P connect 5 3 58 0;#P connect 58 0 60 1;#P connect 58 1 59 0;#P connect 59 0 57 0;#P fasten 68 0 57 0 720 444 802 444 802 301 662 301;#P lcolor 15;#P connect 57 0 61 0;#P connect 61 1 63 0;#P connect 63 0 64 0;#P fasten 65 0 64 0 551 428 615 428 621 385 681 385;#P connect 72 0 82 0;#P lcolor 1;#P connect 82 0 81 0;#P connect 64 0 67 0;#P connect 67 0 66 0;#P connect 66 0 69 0;#P connect 69 0 68 0;#P connect 6 0 80 0;#P lcolor 1;#P connect 58 3 66 1;#P connect 67 1 69 1;#P connect 80 0 81 4;#P connect 38 0 78 0;#P lcolor 1;#P connect 78 0 79 0;#P connect 79 0 76 0;#P connect 76 0 77 0;#P connect 77 3 75 0;#P connect 81 3 75 0;#P connect 75 0 71 0;#P connect 78 1 77 3;#P pop;#P newobj 601 149 161 196620 p m_edit-builder channels;#B color 6;#N vpatcher 799 133 1320 842;#P origin 0 46;#P window setfont "Sans Serif" 9.;#P window linecount 1;#P newex 20 58 30 196617 t b b;#B color 11;#P objectname receiveb[4];#P message 404 603 47 196617 m_mtrx;#P window setfont Times 9.;#N vpatcher 274 44 649 375;#P window setfont "Sans Serif" 9.;#P window linecount 1;#P newex 44 197 30 196617 t b s;#P newex 44 224 36 196617 zl reg;#P comment 121 34 98 196617 matrix prefix name;#P inlet 105 33 15 0;#P newex 105 81 108 196617 sprintf refer %sstate;#P newex 44 143 69 196617 route symbol;#P newex 72 166 69 196617 route symbol;#P outlet 44 282 15 0;#P button 44 70 15 0;#P newex 44 248 166 196617 sprintf store %s connect %s %s\\\;;#P message 44 90 31 196617 dump;#N coll m_mtrxstate 1;#P newobj 44 121 96 196617 coll empty 1;#B color 5;#P window linecount 2;#P comment 193 117 134 196617 arg 1 : matrix prefix name \; arg 2 : coll matrix name \;;#P connect 9 0 4 0;#P connect 4 0 2 0;#P fasten 8 0 1 0 110 114 49 114;#P connect 2 0 1 0;#P connect 1 0 7 0;#P connect 7 0 12 0;#P connect 12 0 11 0;#P connect 11 0 3 0;#P connect 3 0 5 0;#P connect 9 0 11 1;#P connect 1 1 6 0;#P connect 9 0 8 0;#P fasten 12 1 3 1 69 218 127 218;#P fasten 6 0 3 2 77 190 205 190;#P pop;#P newobj 404 622 90 1310729 p make-connect-qlist;#B color 6;#P window setfont "Sans Serif" 9.;#P newex 20 144 91 196617 storetemppath $1;#B color 6;#P inlet 20 35 15 0;#P inlet 60 71 15 0;#P inlet 100 122 15 0;#P window linecount 0;#P newex 327 624 72 196617 prepend store;#P newex 256 96 158 196617 r /movie/activeparams/request;#B color 12;#P message 241 119 33 196617 dump;#P newex 328 548 27 196617 t b l;#P newex 328 572 36 196617 zl reg;#P newex 328 529 62 196617 prepend set;#P newex 327 601 68 196617 append bogus;#P newex 364 452 72 196617 prepend refer;#P newex 328 503 69 196617 route symbol;#P newex 399 502 69 196617 route symbol;#P message 328 453 33 196617 dump;#N coll ;#P newobj 328 480 53 196617 coll;#B color 5;#P newex 411 255 48 196617 loadbang;#P message 411 277 14 196617 1;#P newex 364 431 87 196617 sprintf %s/state;#P newex 328 407 30 196617 t b s;#P newex 328 387 40 196617 itoa;#P newex 328 367 51 196617 zl ecils 3;#P newex 392 296 31 196617 == 0;#P newex 328 346 40 196617 atoi;#P newex 328 326 29 196617 gate;#P newex 347 274 57 196617 unpack s 0;#P newex 347 232 38 196617 zl join;#P newex 347 253 44 196617 zl rot 1;#P newex 372 210 69 196617 route symbol;#P message 347 169 33 196617 dump;#N coll $1/active 1;#P newobj 347 187 85 196617 coll $1/active 1;#B color 5;#P newex 226 269 49 196617 append 1;#P objectname receiveb[3];#P newex 226 248 72 196617 prepend store;#P objectname receiveb[2];#N coll $1/active 1;#P newobj 226 293 85 196617 coll $1/active 1;#B color 5;#P objectname receiveb[1];#P newex 226 61 27 196617 t b i;#P newex 226 204 36 196617 zl reg;#P newex 226 226 116 196617 sprintf $1/%s.%ld/sw;#P newex 196 34 40 196617 uzi;#P newex 258 174 69 196617 route symbol;#P window linecount 1;#N coll $1/present 1;#P newobj 239 138 118 196617 coll $1/present 1;#B color 5;#P objectname receiveb[11];#N coll $1/state 1;#P newobj 327 647 80 196617 coll $1/state 1;#B color 5;#P newex 60 96 191 196617 t b b b;#B color 11;#P objectname receiveb[5];#P window setfont "Sans Serif" 18.;#P window linecount 0;#P comment 16 166 120 196626 temp-preset;#P window setfont "Sans Serif" 12.;#P comment 158 338 153 196620 store params for all modules present in the channels \, actif or not.;#P connect 42 0 46 0;#P connect 46 0 43 0;#P connect 41 0 2 0;#P connect 46 1 2 0;#P connect 2 0 43 1;#P connect 40 0 43 2;#P fasten 4 0 6 0 244 176 185 176 185 30 201 30;#P lcolor 15;#P connect 6 2 9 0;#P connect 9 0 8 0;#P lcolor 7;#P connect 8 0 7 0;#P connect 7 0 11 0;#P connect 11 0 12 0;#P connect 12 0 10 0;#P connect 37 0 4 0;#P connect 2 1 37 0;#P connect 38 0 37 0;#P connect 5 0 8 1;#P connect 4 1 5 0;#P connect 35 0 33 0;#P connect 36 1 33 0;#P connect 33 0 39 0;#P connect 39 0 3 0;#P fasten 44 0 3 0 409 643 332 643;#P connect 21 0 19 0;#P connect 19 0 20 0;#P connect 20 0 22 0;#P connect 22 0 23 0;#P connect 23 0 24 0;#P connect 24 0 29 0;#P connect 29 0 28 0;#P fasten 32 0 28 0 369 474 333 474;#P connect 28 0 31 0;#P connect 31 1 34 0;#P connect 31 0 34 0;#P connect 34 0 36 0;#P connect 36 0 35 0;#P connect 9 1 7 1;#P connect 4 3 14 0;#P connect 14 0 13 0;#P connect 13 0 17 0;#P connect 17 0 16 0;#P connect 16 0 18 0;#P connect 18 0 19 1;#P connect 30 0 35 1;#P connect 24 1 25 0;#P connect 25 0 32 0;#P connect 13 1 15 0;#P connect 15 0 17 1;#P connect 18 1 21 0;#P connect 28 1 30 0;#P connect 2 2 45 0;#P connect 45 0 44 0;#P connect 27 0 26 0;#P connect 26 0 21 1;#P pop;#P newobj 471 247 151 196620 p temp store;#B color 6;#P window setfont "Sans Serif" 10.;#P comment 120 0 114 196618 $1;#B frgb 255 255 255;#P user panel 122 0 112 16;#X brgb 116 116 116;#X frgb 0 0 0;#X border 0;#X rounded 8;#X shadow 0;#X done;#P window setfont "Sans Serif" 9.;#P message 1 1 23 196617 init;#B color 12;#P objectname init;#P user hint 2 1 21 15 "initialize this module" 750 100 0 65535 65535 52428 9 3 0 1 0 0 0;#P user hint 1 43 14 57 "open temp preset text (qlist)" 750 100 0 65535 65535 52428 9 3 0 1 0 0 0;#P user hint 1 30 14 45 "recall temp preset" 750 100 0 65535 65535 52428 9 3 0 1 0 0 0;#P user hint 1 17 14 31 "store temp preset" 750 100 0 65535 65535 52428 9 3 0 1 0 0 0;#P message 1 30 14 196617 R;#B color 7;#P objectname recall;#P message 1 17 14 196617 S;#B color 2;#P objectname store;#P message 1 43 14 196617 O;#B color 9;#P objectname open;#P newex 462 112 114 196617 s $1/init;#B color 11;#P button 461 92 15 0;#P newex 461 69 49 196617 pvar init;#B color 11;#P newex 444 51 72 196617 r /movie/init;#B color 11;#P window linecount 2;#P newex 471 210 30 196617 pvar open;#P newex 611 212 33 196617 pvar recall;#P newex 541 210 32 196617 pvar store;#P window linecount 1;#P newex 402 178 195 196617 editorwindow $1 /movie;#B color 11;#N thispatcher;#Q end;#P newobj 402 207 61 196617 thispatcher;#P user panel 0 0 256 62;#X brgb 205 205 205;#X frgb 155 155 155;#X border 1;#X rounded 4;#X shadow 1;#X done;#P background;#P objectname panel;#P fasten 1 0 2 0 407 228 396 228 396 171 407 171;#P connect 2 0 1 0;#P connect 7 0 8 0;#P fasten 8 0 9 0 466 106 467 106;#P fasten 6 0 9 0 449 110 467 110;#P connect 5 0 20 0;#P connect 3 0 20 1;#P connect 28 0 27 0;#P connect 27 0 26 0;#P connect 26 0 23 0;#P connect 23 0 21 0;#P connect 21 0 29 0;#P connect 4 0 20 2;#P fasten 27 0 25 0 606 104 757 104;#P connect 25 0 21 1;#P pop;