max v2;#N vpatcher 426 113 977 510;#P hidden inlet 216 436 15 0;#P button 94 383 15 0;#P window setfont "Sans Serif" 9.;#P window linecount 1;#P comment 112 383 39 196617 delete;#P button 28 383 15 0;#P comment 45 383 31 196617 build;#P hidden newex 143 411 126 196617 editorwindow /mng /tape;#B color 6;#N thispatcher;#Q end;#P hidden newobj 143 441 61 196617 thispatcher;#P window linecount 0;#P comment 2376 0 100 196617;#P window linecount 1;#P hidden newex 28 411 103 196617 t_edit-builder mng 3;#B color 6;#P window linecount 0;#P comment 1 0 100 196617;#P hidden connect 6 0 1 0;#P hidden connect 8 0 1 1;#P hidden fasten 3 0 4 0 148 462 300 462 300 407 148 407;#P hidden connect 4 0 3 0;#P hidden fasten 1 0 3 0 33 436 148 436;#P pop;