max v2;#N vpatcher 82 178 549 415;#P origin 0 3;#P window setfont "Sans Serif" 9.;#P window linecount 1;#P newex 21 28 138 196617 receive~ $1/in~;#B color 4;#P newex 272 135 145 196617 send $1R/out~;#B color 4;#P window linecount 2;#P comment 130 170 107 196617 patch by Tom Mays contact@tommays.net;#P window linecount 1;#P newex 21 55 261 196617 poly~ t_munge_ 1 args $1 32653.060547;#B color 6;#P newex 21 135 144 196617 send $1L/out~;#B color 4;#P window linecount 2;#P comment 21 1 132 196617 arg 1 : module prefix name \; arg2 : max delay;#P connect 5 0 2 0;#P connect 2 0 1 0;#P connect 2 1 4 0;#P pop;