max v2;#N vpatcher 352 180 1386 837;#P origin -6 -10;#P window setfont Times 9.;#P newex 680 421 46 1310729 route text;#P window setfont "Sans Serif" 9.;#N thispatcher;#Q end;#P hidden newobj 0 199 61 196617 thispatcher;#P newex 680 457 239 196617 variedit $1/vol $1;#B color 11;#P window setfont Times 9.;#P newex 680 479 42 1310729 pvar vol;#P window setfont "Sans Serif" 9.;#P newex 678 377 248 196617 variedit $1/scale $1;#B color 11;#P window setfont Times 9.;#P newex 680 401 48 1310729 pvar scale;#P window setfont "Sans Serif" 9.;#P newex 678 328 267 196617 variedit $1/tempered $1;#B color 11;#P window setfont Times 9.;#P newex 678 348 63 1310729 pvar tempered;#P window setfont "Sans Serif" 9.;#P newex 678 277 238 196617 variedit $1/del $1;#B color 11;#P window setfont Times 9.;#P newex 678 297 40 1310729 pvar del;#P window setfont "Sans Serif" 9.;#P newex 678 226 260 196617 variedit $1/trspvar $1;#B color 11;#P window setfont Times 9.;#P newex 678 246 56 1310729 pvar trspvar;#P window setfont "Sans Serif" 9.;#P newex 678 175 244 196617 variedit $1/trsp $1;#B color 11;#P window setfont Times 9.;#P newex 678 195 44 1310729 pvar trsp;#P window setfont "Sans Serif" 9.;#P newex 678 124 259 196617 variedit $1/sizevar $1;#B color 11;#P window setfont Times 9.;#P newex 678 144 56 1310729 pvar sizevar;#P window setfont "Sans Serif" 9.;#P newex 678 73 243 196617 variedit $1/size $1;#B color 11;#P window setfont Times 9.;#P newex 678 93 44 1310729 pvar size;#P window setfont "Sans Serif" 9.;#P newex 678 22 260 196617 variedit $1/ratevar $1;#B color 11;#P window setfont Times 9.;#P newex 678 42 55 1310729 pvar ratevar;#P window setfont "Sans Serif" 9.;#P newex 307 583 244 196617 variedit $1/rate $1;#B color 11;#P window setfont Times 9.;#P newex 307 603 43 1310729 pvar rate;#P window setfont "Sans Serif" 9.;#P newex 307 532 269 196617 variedit $1/rand_gain $1;#B color 11;#P window setfont Times 9.;#P newex 307 552 67 1310729 pvar rand_gain;#P window setfont "Sans Serif" 9.;#P newex 307 481 243 196617 variedit $1/gain $1;#B color 11;#P window setfont Times 9.;#P newex 307 501 46 1310729 pvar gain;#P window setfont "Sans Serif" 9.;#P newex 307 430 284 196617 variedit $1/stereospread $1;#B color 11;#P window setfont Times 9.;#P newex 307 450 76 1310729 pvar stereospread;#P window setfont "Sans Serif" 9.;#P newex 307 379 265 196617 variedit $1/direction $1;#B color 11;#P window setfont Times 9.;#P newex 307 399 63 1310729 pvar direction;#P window setfont "Sans Serif" 9.;#P newex 307 328 260 196617 variedit $1/position $1;#B color 11;#P window setfont Times 9.;#P newex 307 348 62 1310729 pvar position;#P window setfont "Sans Serif" 9.;#P newex 307 277 268 196617 variedit $1/ramptime $1;#B color 11;#P window setfont Times 9.;#P newex 307 297 65 1310729 pvar ramptime;#P window setfont "Sans Serif" 9.;#P newex 307 226 259 196617 variedit $1/minsize $1;#B color 11;#P window setfont Times 9.;#P newex 307 246 59 1310729 pvar minsize;#P window setfont "Sans Serif" 9.;#P newex 307 175 254 196617 variedit $1/voices $1;#B color 11;#P window setfont Times 9.;#P newex 307 195 54 1310729 pvar voices;#P window setfont "Sans Serif" 9.;#P newex 307 124 273 196617 variedit $1/maxvoices $1;#B color 11;#P window setfont Times 9.;#P newex 307 144 70 1310729 pvar maxvoices;#P window setfont "Sans Serif" 9.;#P newex 307 73 255 196617 variedit $1/record $1;#B color 11;#P window setfont Times 9.;#P newex 307 93 52 1310729 pvar record;#P user textedit 123 148 228 163 32896 20 9 0 1 2 3 4;#P objectname scale;#P flonum 222 167 30 9 0. 2. 3 20 0 0 0 221 221 221 222 222 222 0 0 0;#P objectname vol;#P window setfont "Sans Serif" 9.;#P newex 307 22 253 196617 variedit $1/power $1;#B color 11;#P window setfont Times 9.;#P newex 307 42 52 1310729 pvar power;#P window linecount 2;#P comment 39 409 105 1310729 arg 1 : prefix name \; arg 2 : max del time (opt.);#P number 24 103 23 9 -1 1 3 20 0 0 0 221 221 221 222 222 222 0 0 0;#P objectname direction;#P window linecount 1;#P comment 199 167 24 1310729 /vol;#B frgb 0 0 200;#P comment 60 148 51 1310729 /rand_gain;#B frgb 0 0 200;#P comment 60 133 30 1310729 /gain;#B frgb 0 0 200;#P comment 227 149 32 1310729 /scale;#B frgb 0 0 200;#P comment 159 131 47 1310729 /tempered;#B frgb 0 0 200;#P comment 60 118 60 1310729 /stereospread;#B frgb 0 0 200;#P comment 60 103 47 1310729 /direction;#B frgb 0 0 200;#P comment 60 88 46 1310729 /position;#B frgb 0 0 200;#P comment 159 115 22 1310729 /del;#B frgb 0 0 200;#P comment 159 100 40 1310729 /trspvar;#B frgb 0 0 200;#P comment 159 85 26 1310729 /trsp;#B frgb 0 0 200;#P comment 159 70 40 1310729 /sizevar;#B frgb 0 0 200;#P comment 159 55 26 1310729 /size;#B frgb 0 0 200;#P comment 159 40 39 1310729 /ratevar;#B frgb 0 0 200;#P comment 159 25 25 1310729 /rate;#B frgb 0 0 200;#P comment 60 72 49 1310729 /ramptime;#B frgb 0 0 200;#P comment 60 57 43 1310729 /minsize;#B frgb 0 0 200;#P comment 60 42 38 1310729 /voices;#B frgb 0 0 200;#P comment 60 27 54 1310729 /maxvoices;#B frgb 0 0 200;#P comment 60 10 36 1310729 /record;#B frgb 0 0 200;#P flonum 24 148 30 9 0. 4. 3 20 0 0 0 221 221 221 222 222 222 0 0 0;#P objectname rand_gain;#P flonum 24 133 30 9 0. 4. 3 20 0 0 0 221 221 221 222 222 222 0 0 0;#P objectname gain;#P toggle 123 131 15 0;#P objectname tempered;#P flonum 24 88 32 9 -1. 1. 3 20 0 0 0 221 221 221 222 222 222 0 0 0;#P objectname position;#P number 24 118 27 9 0 100 3 20 0 0 0 221 221 221 222 222 222 0 0 0;#P objectname stereospread;#P number 123 100 31 9 0 100 3 20 0 0 0 221 221 221 222 222 222 0 0 0;#P objectname trspvar;#P flonum 123 85 35 9 0 0 0 20 0 0 0 221 221 221 222 222 222 0 0 0;#P objectname trsp;#P number 123 70 31 9 0 0 1 20 0 0 0 221 221 221 222 222 222 0 0 0;#P objectname sizevar;#P number 123 55 31 9 0 0 1 20 0 0 0 221 221 221 222 222 222 0 0 0;#P objectname size;#P number 123 40 31 9 0 0 1 20 0 0 0 221 221 221 222 222 222 0 0 0;#P objectname ratevar;#P number 123 25 31 9 0 0 1 20 0 0 0 221 221 221 222 222 222 0 0 0;#P objectname rate;#P number 123 115 35 9 0 0 1 20 0 0 0 221 221 221 222 222 222 0 0 0;#P objectname del;#P number 24 57 31 9 0 0 1 20 0 0 0 221 221 221 222 222 222 0 0 0;#P objectname minsize;#P number 24 72 31 9 0 0 1 20 0 0 0 221 221 221 222 222 222 0 0 0;#P objectname ramptime;#P number 24 27 26 9 0 100 3 20 0 0 0 221 221 221 222 222 222 0 0 0;#P objectname maxvoices;#P number 24 42 27 9 0 100 3 20 0 0 0 221 221 221 222 222 222 0 0 0;#P objectname voices;#P toggle 24 10 15 0;#P objectname record;#P bpatcher 0 0 256 186 0 0 bkgnd3.mxt 0 $1 0 1;#P objectname background;#P fasten 40 0 41 0 312 63 300 63 300 17 312 17;#P connect 41 0 40 0;#P fasten 44 0 45 0 312 114 300 114 300 68 312 68;#P connect 45 0 44 0;#P fasten 46 0 47 0 312 165 300 165 300 119 312 119;#P connect 47 0 46 0;#P fasten 48 0 49 0 312 216 300 216 300 170 312 170;#P connect 49 0 48 0;#P fasten 50 0 51 0 312 267 300 267 300 221 312 221;#P connect 51 0 50 0;#P fasten 52 0 53 0 312 318 300 318 300 272 312 272;#P connect 53 0 52 0;#P fasten 54 0 55 0 312 369 300 369 300 323 312 323;#P connect 55 0 54 0;#P fasten 56 0 57 0 312 420 300 420 300 374 312 374;#P connect 57 0 56 0;#P fasten 58 0 59 0 312 471 300 471 300 425 312 425;#P connect 59 0 58 0;#P fasten 60 0 61 0 312 522 300 522 300 476 312 476;#P connect 61 0 60 0;#P fasten 62 0 63 0 312 573 300 573 300 527 312 527;#P connect 63 0 62 0;#P fasten 64 0 65 0 312 624 300 624 300 578 312 578;#P connect 65 0 64 0;#P fasten 66 0 67 0 683 63 671 63 671 17 683 17;#P connect 67 0 66 0;#P fasten 68 0 69 0 683 114 671 114 671 68 683 68;#P connect 69 0 68 0;#P fasten 70 0 71 0 683 165 671 165 671 119 683 119;#P connect 71 0 70 0;#P fasten 72 0 73 0 683 216 671 216 671 170 683 170;#P connect 73 0 72 0;#P fasten 74 0 75 0 683 267 671 267 671 221 683 221;#P connect 75 0 74 0;#P fasten 76 0 77 0 683 318 671 318 671 272 683 272;#P connect 77 0 76 0;#P fasten 78 0 79 0 683 369 671 369 671 323 683 323;#P connect 79 0 78 0;#P fasten 85 0 81 0 685 443 673 443 673 374 683 374;#P fasten 81 1 80 0 802 397 685 397;#P connect 80 0 85 0;#P fasten 82 0 83 0 685 498 675 498 675 452 685 452;#P connect 83 0 82 0;#P pop;