max v2;#N vpatcher 8 46 548 649;#P origin -81 -154;#P window setfont Times 9.;#P comment 195 40 60 1310729 /channelstart;#P window setfont "Sans Serif" 9.;#P number 209 24 35 9 0 0 32 3 0 0 0 221 221 221 222 222 222 0 0 0;#P objectname channelstart;#P newex 315 169 90 196617 pvar channelstart;#P newex 315 146 140 196617 variedit $1/channelstart $1;#B color 5;#P newex 246 559 60 196617 pvar n-iris;#P newex 5 559 83 196617 pvar n-color-by;#P newex 245 497 85 196617 pvar n-color-gm;#P newex 5 497 82 196617 pvar n-color-rc;#P newex 7 415 59 196617 pvar n-pan;#P newex 241 415 58 196617 pvar n-tilt;#P newex 241 340 105 196617 pvar n-gobo1-change;#P newex 7 340 68 196617 pvar n-strob;#P newex 146 229 78 196617 pvar n-dimmer;#P newex 146 276 68 196617 pvar n-focus;#N thispatcher;#Q end;#P hidden newobj 0 199 61 196617 thispatcher;#P newex 246 536 145 196617 variedit $1/iris $1 i 0 100 1;#B color 5;#P newex 380 559 50 196617 pvar iris;#P newex 7 317 153 196617 variedit $1/strob $1 i 0 100 1;#B color 5;#P newex 149 340 58 196617 pvar strob;#P user multiSlider 129 168 91 15 0. 100. 1 2936 47 0 0 2 0 0 0;#M frgb 0 0 0;#M brgb 255 255 255;#M rgb2 127 127 127;#M rgb3 0 0 0;#M rgb4 37 52 91;#M rgb5 74 105 182;#M rgb6 112 158 18;#M rgb7 149 211 110;#M rgb8 187 9 201;#M rgb9 224 62 37;#M rgb10 7 114 128;#P objectname iris;#P user multiSlider 3 168 91 15 0. 100. 1 2936 47 0 0 2 0 0 0;#M frgb 0 0 0;#M brgb 255 255 255;#M rgb2 127 127 127;#M rgb3 0 0 0;#M rgb4 37 52 91;#M rgb5 74 105 182;#M rgb6 112 158 18;#M rgb7 149 211 110;#M rgb8 187 9 201;#M rgb9 224 62 37;#M rgb10 7 114 128;#P objectname color-by;#P user multiSlider 129 138 91 15 0. 100. 1 2936 47 0 0 2 0 0 0;#M frgb 0 0 0;#M brgb 255 255 255;#M rgb2 127 127 127;#M rgb3 0 0 0;#M rgb4 37 52 91;#M rgb5 74 105 182;#M rgb6 112 158 18;#M rgb7 149 211 110;#M rgb8 187 9 201;#M rgb9 224 62 37;#M rgb10 7 114 128;#P objectname color-gm;#P user multiSlider 3 138 91 15 0. 100. 1 2936 47 0 0 2 0 0 0;#M frgb 0 0 0;#M brgb 255 255 255;#M rgb2 127 127 127;#M rgb3 0 0 0;#M rgb4 37 52 91;#M rgb5 74 105 182;#M rgb6 112 158 18;#M rgb7 149 211 110;#M rgb8 187 9 201;#M rgb9 224 62 37;#M rgb10 7 114 128;#P objectname color-rc;#P user multiSlider 129 108 91 15 0. 100. 1 2936 47 0 0 2 0 0 0;#M frgb 0 0 0;#M brgb 255 255 255;#M rgb2 127 127 127;#M rgb3 0 0 0;#M rgb4 37 52 91;#M rgb5 74 105 182;#M rgb6 112 158 18;#M rgb7 149 211 110;#M rgb8 187 9 201;#M rgb9 224 62 37;#M rgb10 7 114 128;#P objectname tilt;#P user multiSlider 3 108 91 15 0. 100. 1 2936 47 0 0 2 0 0 0;#M frgb 0 0 0;#M brgb 255 255 255;#M rgb2 127 127 127;#M rgb3 0 0 0;#M rgb4 37 52 91;#M rgb5 74 105 182;#M rgb6 112 158 18;#M rgb7 149 211 110;#M rgb8 187 9 201;#M rgb9 224 62 37;#M rgb10 7 114 128;#P objectname pan;#P user multiSlider 129 78 91 15 0. 100. 1 2936 47 0 0 2 0 0 0;#M frgb 0 0 0;#M brgb 255 255 255;#M rgb2 127 127 127;#M rgb3 0 0 0;#M rgb4 37 52 91;#M rgb5 74 105 182;#M rgb6 112 158 18;#M rgb7 149 211 110;#M rgb8 187 9 201;#M rgb9 224 62 37;#M rgb10 7 114 128;#P objectname gobo1-change;#P user multiSlider 3 78 91 15 0. 100. 1 2936 47 0 0 2 0 0 0;#M frgb 0 0 0;#M brgb 255 255 255;#M rgb2 127 127 127;#M rgb3 0 0 0;#M rgb4 37 52 91;#M rgb5 74 105 182;#M rgb6 112 158 18;#M rgb7 149 211 110;#M rgb8 187 9 201;#M rgb9 224 62 37;#M rgb10 7 114 128;#P objectname strob;#P user multiSlider 54 19 91 15 0. 100. 1 2936 47 0 0 2 0 0 0;#M frgb 0 0 0;#M brgb 255 255 255;#M rgb2 127 127 127;#M rgb3 0 0 0;#M rgb4 37 52 91;#M rgb5 74 105 182;#M rgb6 112 158 18;#M rgb7 149 211 110;#M rgb8 187 9 201;#M rgb9 224 62 37;#M rgb10 7 114 128;#P objectname dimmer;#P user multiSlider 55 46 91 15 0. 100. 1 2936 47 0 0 2 0 0 0;#M frgb 0 0 0;#M brgb 255 255 255;#M rgb2 127 127 127;#M rgb3 0 0 0;#M rgb4 37 52 91;#M rgb5 74 105 182;#M rgb6 112 158 18;#M rgb7 149 211 110;#M rgb8 187 9 201;#M rgb9 224 62 37;#M rgb10 7 114 128;#P objectname focus;#P window setfont Times 9.;#P comment 129 156 38 1310729 /iris;#P comment 3 156 46 1310729 /color/by;#P comment 129 126 45 1310729 /color/gm;#P comment 3 126 38 1310729 /color/rc;#P comment 129 96 38 1310729 /tilt;#P comment 3 96 38 1310729 /pan;#P comment 129 66 65 1310729 /gobo1/change;#P comment 3 66 38 1310729 /strob;#P comment 54 7 38 1310729 /dimmer;#P comment 53 35 38 1310729 /focus;#P window setfont "Sans Serif" 9.;#P newex 5 536 169 196617 variedit $1/color/by $1 i 0 100 1;#B color 5;#P newex 163 559 73 196617 pvar color-by;#P newex 244 476 171 196617 variedit $1/color/gm $1 i 0 100 1;#B color 5;#P newex 404 497 75 196617 pvar color-gm;#P newex 5 476 168 196617 variedit $1/color/rc $1 i 0 100 1;#B color 5;#P newex 163 497 72 196617 pvar color-rc;#P newex 241 317 191 196617 variedit $1/gobo1/change $1 i 0 100 1;#B color 5;#P newex 421 340 95 196617 pvar gobo1-change;#P newex 241 391 143 196617 variedit $1/tilt $1 i 0 100 1;#B color 5;#P newex 373 415 48 196617 pvar tilt;#P newex 7 391 144 196617 variedit $1/pan $1 i 0 100 1;#B color 5;#P newex 141 415 49 196617 pvar pan;#P newex 146 206 118 196617 variedit $1/dimmer $1;#B color 5;#P newex 254 229 68 196617 pvar dimmer;#P newex 146 255 108 196617 variedit $1/focus $1;#B color 5;#P newex 244 276 58 196617 pvar focus;#P window setfont "Sans Serif" 20.;#N vpatcher 68 131 467 352;#P origin 3 -66;#P window setfont "Sans Serif" 9.;#P number 0 175 35 9 0 100 3 3 0 0 0 221 221 221 222 222 222 0 0 0;#P objectname reset;#P window setfont Times 9.;#P comment 34 175 47 1310729 /reset;#P window setfont "Sans Serif" 9.;#P number 0 157 35 9 0 100 3 3 0 0 0 221 221 221 222 222 222 0 0 0;#P objectname extrafocus;#P window setfont Times 9.;#P comment 34 157 47 1310729 /extrafocus;#P window setfont "Sans Serif" 9.;#P number 0 139 35 9 0 100 3 3 0 0 0 221 221 221 222 222 222 0 0 0;#P objectname colortemp;#P window setfont Times 9.;#P comment 34 139 47 1310729 /colortemp;#P window setfont "Sans Serif" 9.;#P number 197 121 35 9 0 100 3 3 0 0 0 221 221 221 222 222 222 0 0 0;#P objectname gobo2-rot;#P number 96 121 35 9 0 100 3 3 0 0 0 221 221 221 222 222 222 0 0 0;#P objectname gobo2-change;#P number 0 121 35 9 0 100 3 3 0 0 0 221 221 221 222 222 222 0 0 0;#P objectname gobo1-rot;#P window setfont Times 9.;#P comment 232 121 47 1310729 /gobo2/rot;#P comment 132 121 65 1310729 /gobo2/change;#P comment 34 121 47 1310729 /gobo1/rot;#P window setfont "Sans Serif" 9.;#P number 96 104 35 9 0 100 3 3 0 0 0 221 221 221 222 222 222 0 0 0;#P objectname frost-linear;#P number 0 103 35 9 0 100 3 3 0 0 0 221 221 221 222 222 222 0 0 0;#P objectname frost-prism;#P window setfont Times 9.;#P comment 34 104 53 1310729 /frost/prism;#P comment 132 105 53 1310729 /frost/linear;#P window setfont "Sans Serif" 9.;#P number 0 85 35 9 0 100 3 3 0 0 0 221 221 221 222 222 222 0 0 0;#P objectname framrot;#P window setfont Times 9.;#P comment 34 85 47 1310729 /framrot;#P window setfont "Sans Serif" 9.;#P number 293 67 35 9 0 100 3 3 0 0 0 221 221 221 222 222 222 0 0 0;#P objectname couteau4-b;#P number 197 67 35 9 0 100 3 3 0 0 0 221 221 221 222 222 222 0 0 0;#P objectname couteau4-a;#P number 96 67 35 9 0 100 3 3 0 0 0 221 221 221 222 222 222 0 0 0;#P objectname couteau3-b;#P number 0 67 35 9 0 100 3 3 0 0 0 221 221 221 222 222 222 0 0 0;#P objectname couteau3-a;#P window setfont Times 9.;#P comment 327 67 54 1310729 /couteau4/b;#P comment 232 67 53 1310729 /couteau4/a;#P comment 132 67 54 1310729 /couteau3/b;#P comment 34 67 53 1310729 /couteau3/a;#P window setfont "Sans Serif" 9.;#P number 293 49 35 9 0 100 3 3 0 0 0 221 221 221 222 222 222 0 0 0;#P objectname couteau2-b;#P number 197 49 35 9 0 100 3 3 0 0 0 221 221 221 222 222 222 0 0 0;#P objectname couteau2-a;#P number 96 49 35 9 0 100 3 3 0 0 0 221 221 221 222 222 222 0 0 0;#P objectname couteau1-b;#P number 0 49 35 9 0 100 3 3 0 0 0 221 221 221 222 222 222 0 0 0;#P objectname couteau1-a;#P number 96 31 35 9 0 100 3 3 0 0 0 221 221 221 222 222 222 0 0 0;#P objectname tiltfine;#P number 0 30 35 9 0 100 3 3 0 0 0 221 221 221 222 222 222 0 0 0;#P objectname panfine;#P window setfont Times 9.;#P comment 34 31 38 1310729 /panfine;#P window setfont "Sans Serif" 9.;#P number 0 12 35 9 0 100 3 3 0 0 0 221 221 221 222 222 222 0 0 0;#P objectname zoom;#P window setfont Times 9.;#P comment 34 13 38 1310729 /zoom;#P window setfont "Sans Serif" 9.;#P hidden newex 338 493 198 196617 variedit $1/gobo2/rot $1;#B color 5;#P hidden newex 338 474 79 196617 pvar gobo2-rot;#P hidden newex 338 448 214 196617 variedit $1/gobo2/change $1;#B color 5;#P hidden newex 338 429 95 196617 pvar gobo2-change;#P hidden newex 338 403 198 196617 variedit $1/gobo1/rot $1;#B color 5;#P hidden newex 338 384 79 196617 pvar gobo1-rot;#P hidden newex 338 358 201 196617 variedit $1/extrafocus $1;#B color 5;#P hidden newex 338 339 83 196617 pvar extrafocus;#P hidden newex 338 313 207 196617 variedit $1/frost/linear $1;#B color 5;#P hidden newex 338 294 88 196617 pvar frost-linear;#P hidden newex 338 268 207 196617 variedit $1/frost/prism $1;#B color 5;#P hidden newex 338 249 88 196617 pvar frost-prism;#P hidden newex 338 223 197 196617 variedit $1/colortemp $1;#B color 5;#P hidden newex 338 204 79 196617 pvar colortemp;#P hidden newex 338 177 188 196617 variedit $1/framrot $1;#B color 5;#P hidden newex 338 158 70 196617 pvar framrot;#P hidden newex 617 637 203 196617 variedit $1/couteau4/b $1;#B color 5;#P hidden newex 617 618 84 196617 pvar couteau4-b;#P hidden newex 617 597 203 196617 variedit $1/couteau4/a $1;#B color 5;#P hidden newex 617 578 84 196617 pvar couteau4-a;#P hidden newex 617 552 203 196617 variedit $1/couteau3/b $1;#B color 5;#P hidden newex 617 533 84 196617 pvar couteau3-b;#P hidden newex 617 507 203 196617 variedit $1/couteau3/a $1;#B color 5;#P hidden newex 617 488 84 196617 pvar couteau3-a;#P hidden newex 617 462 203 196617 variedit $1/couteau2/b $1;#B color 5;#P hidden newex 617 443 84 196617 pvar couteau2-b;#P hidden newex 617 417 203 196617 variedit $1/couteau2/a $1;#B color 5;#P hidden newex 617 398 84 196617 pvar couteau2-a;#P hidden newex 617 372 203 196617 variedit $1/couteau1/b $1;#B color 5;#P hidden newex 617 353 84 196617 pvar couteau1-b;#P hidden newex 617 327 203 196617 variedit $1/couteau1/a $1;#B color 5;#P hidden newex 617 308 84 196617 pvar couteau1-a;#P hidden newex 339 635 183 196617 variedit $1/tiltfine $1;#B color 5;#P hidden newex 339 616 65 196617 pvar tiltfine;#P hidden newex 339 586 184 196617 variedit $1/panfine $1;#B color 5;#P hidden newex 339 567 66 196617 pvar panfine;#P hidden newex 339 539 175 196617 variedit $1/zoom $1;#B color 5;#P hidden newex 339 520 57 196617 pvar zoom;#P window setfont Times 9.;#P comment 327 49 54 1310729 /couteau2/b;#P comment 232 49 53 1310729 /couteau2/a;#P comment 132 49 54 1310729 /couteau1/b;#P comment 34 49 53 1310729 /couteau1/a;#P comment 132 32 38 1310729 /tiltfine;#P window setfont "Sans Serif" 9.;#P hidden newex 409 58 100 196617 r $1/more/editor;#B color 11;#N thispatcher;#Q end;#P hidden newobj 409 85 70 196617 thispatcher;#P hidden connect 30 0 29 0;#P hidden connect 29 0 30 0;#P hidden connect 32 0 31 0;#P hidden connect 31 0 32 0;#P hidden connect 34 0 33 0;#P hidden connect 33 0 34 0;#P hidden connect 36 0 35 0;#P hidden connect 35 0 36 0;#P hidden connect 38 0 37 0;#P hidden connect 37 0 38 0;#P hidden connect 40 0 39 0;#P hidden connect 39 0 40 0;#P hidden connect 42 0 41 0;#P hidden connect 41 0 42 0;#P hidden connect 44 0 43 0;#P hidden connect 43 0 44 0;#P hidden connect 8 0 7 0;#P hidden connect 7 0 8 0;#P hidden connect 10 0 9 0;#P hidden connect 9 0 10 0;#P hidden connect 12 0 11 0;#P hidden connect 11 0 12 0;#P hidden connect 1 0 0 0;#P hidden connect 14 0 13 0;#P hidden connect 13 0 14 0;#P hidden connect 16 0 15 0;#P hidden connect 15 0 16 0;#P hidden connect 18 0 17 0;#P hidden connect 17 0 18 0;#P hidden connect 20 0 19 0;#P hidden connect 19 0 20 0;#P hidden connect 22 0 21 0;#P hidden connect 21 0 22 0;#P hidden connect 24 0 23 0;#P hidden connect 23 0 24 0;#P hidden connect 26 0 25 0;#P hidden connect 25 0 26 0;#P hidden connect 28 0 27 0;#P hidden connect 27 0 28 0;#P pop;#P newobj 271 21 78 196628 p more;#B color 6;#P window setfont "Sans Serif" 9.;#P flonum 219 168 35 9 0. 100. 8227 3 0 0 0 221 221 221 0 0 0 0 0 0;#P objectname n-iris;#P flonum 91 168 35 9 0. 100. 8227 3 0 0 0 221 221 221 0 0 0 0 0 0;#P objectname n-color-by;#P flonum 219 138 35 9 0. 100. 8227 3 0 0 0 221 221 221 0 0 0 0 0 0;#P objectname n-color-gm;#P flonum 91 138 35 9 0. 100. 8227 3 0 0 0 221 221 221 0 0 0 0 0 0;#P objectname n-color-rc;#P flonum 219 108 35 9 0. 100. 8227 3 0 0 0 221 221 221 0 0 0 0 0 0;#P objectname n-tilt;#P flonum 91 108 35 9 0. 100. 8227 3 0 0 0 221 221 221 0 0 0 0 0 0;#P objectname n-pan;#P flonum 219 78 35 9 0. 100. 8227 3 0 0 0 221 221 221 0 0 0 0 0 0;#P objectname n-gobo1-change;#P flonum 91 78 35 9 0. 100. 8227 3 0 0 0 221 221 221 0 0 0 0 0 0;#P objectname n-strob;#P flonum 144 19 35 9 0. 100. 8227 3 0 0 0 221 221 221 0 0 0 0 0 0;#P objectname n-dimmer;#P flonum 144 45 35 9 0. 100. 8227 3 0 0 0 221 221 221 0 0 0 0 0 0;#P objectname n-focus;#P bpatcher 0 0 256 186 0 0 bkgnd3.mxt 0 $1 1;#P objectname background;#P hidden connect 0 0 52 0;#P connect 22 0 23 0;#P connect 59 0 23 0;#P connect 23 0 59 0;#P connect 26 0 27 0;#P connect 61 0 27 0;#P connect 27 0 61 0;#P connect 55 0 49 0;#P connect 48 0 49 0;#P connect 49 0 55 0;#P connect 58 0 17 0;#P connect 16 0 17 0;#P connect 17 0 58 0;#P hidden connect 40 0 3 0;#P hidden connect 42 0 5 0;#P hidden connect 44 0 7 0;#P hidden connect 46 0 9 0;#P connect 17 2 16 0;#P hidden connect 39 0 2 0;#P hidden connect 38 0 1 0;#P connect 54 0 15 0;#P connect 14 0 15 0;#P connect 15 0 54 0;#P connect 53 0 13 0;#P connect 12 0 13 0;#P connect 13 0 53 0;#P connect 49 2 48 0;#P connect 23 2 22 0;#P connect 27 2 26 0;#P hidden connect 41 0 4 0;#P hidden connect 43 0 6 0;#P hidden connect 45 0 8 0;#P hidden connect 47 0 10 0;#P connect 56 0 21 0;#P connect 20 0 21 0;#P connect 21 0 56 0;#P connect 57 0 19 0;#P connect 18 0 19 0;#P connect 19 0 57 0;#P connect 13 2 12 0;#P connect 24 0 25 0;#P connect 60 0 25 0;#P connect 25 0 60 0;#P connect 50 0 51 0;#P connect 62 0 51 0;#P connect 51 0 62 0;#P connect 15 2 14 0;#P connect 64 0 63 0;#P connect 63 0 64 0;#P connect 19 2 18 0;#P connect 51 2 50 0;#P connect 25 2 24 0;#P connect 21 2 20 0;#P pop;