max v2;#N vpatcher 0 44 474 284;#P origin -203 -48;#P window setfont "Sans Serif" 9.;#P window linecount 1;#P newex 316 92 103 196617 r /lanbox/connected;#B color 12;#P newex 316 120 78 196617 pvar connected;#B color 14;#P newex 198 92 97 196617 r /lanbox/message;#B color 12;#P newex 198 120 72 196617 pvar message;#B color 14;#P newex 92 120 100 196617 s /lanbox/print/sw;#B color 12;#P newex 92 92 74 196617 pvar print-sw;#B color 14;#P comment 47 12 44 196617 window;#P toggle 22 1 15 0;#P objectname print-sw;#P window linecount 0;#P message 15 43 238 196617;#P objectname message;#P user led 237 18 17 17 1 150;#P objectname connected;#P window linecount 1;#P comment 189 20 54 196617 connected;#P comment 39 1 65 196617 print in max;#P bpatcher 0 0 258 64 0 0 bkgnd.mxt 0 /lanbox;#P objectname background;#P connect 7 0 8 0;#P connect 10 0 9 0;#P connect 12 0 11 0;#P pop;