max v2;#N vpatcher 26 271 742 435;#P origin -1 -21;#P window setfont "Sans Serif" 9.;#P window linecount 1;#P newex 1069 90 206 196617 tm_editorbuilder /lanbox /tapemovie 1 1 4;#B color 6;#P button 1082 63 15 0;#P comment 1100 63 39 196617 delete;#P button 1069 42 15 0;#P comment 1086 42 31 196617 build;#N thispatcher;#Q end;#P newobj 1069 112 61 196617 thispatcher;#P window linecount 0;#P comment 2377 21 100 196617;#P comment 2 21 100 196617;#P connect 4 0 7 0;#P connect 7 0 2 0;#P fasten 6 0 7 1 1087 84 1172 84;#P fasten 2 0 7 2 1074 134 1302 134 1302 86 1270 86;#P pop;