max v2;#N vpatcher 348 254 1173 854;#P origin 0 -67;#P window setfont "Sans Serif" 9.;#P window linecount 1;#P newex 42 51 111 196617 s $1/sw;#B color 12;#P newex 42 28 133 196617 r /lanbox/sw;#B color 12;#P newex 429 420 151 196617 moduleinit $1;#B color 13;#P window linecount 6;#P message 429 446 102 196617 \; $1/sw/init bang \; $1/nsock/init bang \; $1/cue/init bang \; $1/step/init bang \; $1/go/init bang \;;#P window linecount 1;#P newex 436 58 153 196617 makeparam $1/go $1 b 0 0 1 0;#P newex 406 39 166 196617 makeparam $1/step $1 i 0 0 99 1;#P newex 361 21 168 196617 makeparam $1/cue $1 i 0 0 999 1;#P newex 356 333 132 196617 makeparam $1/nsock $1 s;#P newex 33 294 40 196617 change;#P newex 477 146 97 196617 s /lanbox/message;#B color 12;#P newex 359 264 95 196617 r /tapemovie/dmx;#B color 12;#P newex 359 296 53 196617 s /lanbox;#B color 12;#P newex 620 108 100 196617 r /lanbox/print/sw;#B color 14;#P newex 620 165 71 196617 print LANBOX;#B color 5;#P newex 620 137 29 196617 gate;#P newex 477 114 62 196617 prepend set;#P newex 33 314 32 196617 sel 1;#P window linecount 3;#P newex 33 238 115 196617 makeswitch $1/sw /lanbox tapemovie_switchstate;#B color 12;#P window linecount 1;#P newex 548 81 53 196617 r /lanbox;#B color 12;#P window setfont "Sans Serif" 12.;#N vpatcher 695 189 1206 648;#P window setfont "Sans Serif" 9.;#P newex 290 97 50 196617 t 13 777;#P newex 70 115 115 196617 sprintf connect %s 777;#P newex 100 78 70 196617 route connect;#P message 96 379 14 196617 3;#P button 96 359 15 0;#P newex 96 335 114 196617 match 99 116 101 100;#P message 223 229 130 196617 connect 192.168.2.77 777;#P message 218 207 123 196617 config 192.168.1.77 777;#P message 172 208 32 196617 close;#P number 253 314 35 9 0 0 0 3 0 0 0 221 221 221 222 222 222 0 0 0;#P button 66 201 15 0;#P message 92 203 65 196617 55 55 55 13;#P newex 96 272 121 196617 nsock 192.168.1.77 777;#P comment 251 250 122 196617 connect = config + bang;#P newex 326 51 113 196617 match 112 97 115 115;#N comlet connected (bang);#P outlet 207 408 15 0;#P message 285 139 20 196617 13;#P message 360 96 14 196617 1;#P button 326 74 15 0;#P newex 341 138 29 196617 spell;#P newex 285 162 35 196617 thresh;#P newex 285 116 85 196617 dialog Password?;#N comlet data;#P outlet 67 410 15 0;#N comlet cmd;#P inlet 100 45 15 0;#P comment 116 324 100 196617 test cted;#N comlet data;#P inlet 241 39 15 0;#P connect 13 0 3 0;#P connect 23 0 24 0;#P connect 0 0 13 0;#P connect 23 1 13 0;#P connect 24 0 13 0;#P connect 5 0 13 0;#P connect 15 0 13 0;#P connect 17 0 13 0;#P connect 18 0 13 0;#P connect 19 0 13 0;#P connect 14 0 13 0;#P connect 13 0 20 0;#P connect 20 0 21 0;#P connect 21 0 22 0;#P connect 2 0 23 0;#P connect 13 1 10 0;#P connect 22 0 10 0;#P connect 13 1 16 0;#P connect 4 0 9 0;#P connect 25 0 9 0;#P connect 9 0 5 0;#P connect 6 0 5 0;#P connect 7 0 25 0;#P fasten 13 0 11 0 101 298 60 298 60 35 331 35;#P connect 11 0 7 0;#P connect 4 0 6 0;#P connect 25 1 6 0;#P connect 7 0 8 0;#P connect 8 0 4 1;#P pop;#P newobj 91 416 56 196620 p LCtcp;#B color 6;#P window setfont "Sans Serif" 9.;#P window linecount 2;#P comment 278 108 75 196617 Request lanBox type & version;#P window linecount 1;#P message 291 140 45 196617 0 5 0 0;#P comment 179 180 73 196617 77 = set ftype;#P newex 196 159 27 196617 t b i;#P number 115 169 35 9 1 64 195 3 0 0 0 221 221 221 222 222 222 0 0 0;#P user umenu 115 139 40 196647 1 64 155 0;#X add Layer;#X add A;#X add B;#X add C;#X add D;#X add E;#X add F;#X add G;#X add H;#P button 436 144 23 0;#P number 406 144 27 9 0 99 71 3 0 0 0 221 221 221 222 222 222 0 0 0;#P number 361 145 35 9 0 500 71 3 0 0 0 221 221 221 222 222 222 0 0 0;#P newex 361 172 27 196617 >> 8;#P newex 389 172 35 196617 & 255;#P window linecount 2;#P comment 366 109 72 196617 86 = "Go" <cuelist.step>;#P window linecount 1;#P newex 338 203 79 196617 pack 86 1 0 0 0;#P window setfont "Lucida Grande" 12.;#P comment 394 142 13 67108876 .;#P window setfont "Sans Serif" 9.;#P message 52 196 35 196617 101 0;#P newex 204 267 41 196617 lc+cmd;#P user umenu 196 137 58 196647 1 192 153 1;#X add Nofade;#X add FadeIn;#X add FadeOut;#X add CrossFade;#P window linecount 2;#P comment 188 107 72 196617 set fade type. 3=crossfade;#P window linecount 1;#P newex 184 200 62 196617 pack 77 1 3;#P newex 184 232 53 196617 t b b l b;#P window linecount 2;#P comment 20 107 69 196617 2. Keep alive \, set 8bit;#B color 14;#P button 28 195 15 0;#P toggle 28 142 15 0;#P window linecount 1;#P newex 28 168 69 196617 metro 10000;#P newex 115 202 41 196617 s layer;#B color 12;#P comment 499 312 65 196617 End Of Frame;#P newex 692 256 41 196617 r layer;#B color 12;#P newex 204 291 65 196617 zl group 250;#P newex 587 370 65 196617 zl group 250;#P window linecount 2;#P comment 87 327 223 196617 1. Connect to the LCX or LCE \; e.g. demo.lanbox.com or 192.168.1.77;#B color 14;#P user led 528 288 17 17 2 150;#P user umenu 575 194 58 196647 1 192 210 1;#X add 0.00s;#X add 0.05s;#X add 0.10s;#X add 0.15s;#X add 0.20s;#X add 0.25s;#X add 0.30s;#X add 0.35s;#X add 0.40s;#X add 0.45s;#X add 0.50s;#X add 0.55s;#X add 0.60s;#X add 0.65s;#X add 0.70s;#X add 0.75s;#X add 0.80s;#X add 0.85s;#X add 0.90s;#X add 0.95s;#X add 1.0s;#X add 1.1s;#X add 1.2s;#X add 1.3s;#X add 1.5s;#X add 1.6s;#X add 1.8s;#X add 2.0s;#X add 2.2s;#X add 2.4s;#X add 2.7s;#X add 3.0s;#X add 3.3s;#X add 3.6s;#X add 3.9s;#X add 4.3s;#X add 4.7s;#X add 5.1s;#X add 5.6s;#X add 6.2s;#X add 6.8s;#X add 7.5s;#X add 8.2s;#X add 9.1s;#X add 10s;#X add 11s;#X add 12s;#X add 13s;#X add 15s;#X add 16s;#X add 18s;#X add 20s;#X add 22s;#X add 24s;#X add 27s;#X add 30s;#X add 33s;#X add 36s;#X add 39s;#X add 43s;#X add 47s;#X add 51s;#X add 56s;#X add 1.0m;#X add 1.1m;#X add 1.2m;#X add 1.3m;#X add 1.5m;#X add 1.6m;#X add 1.8m;#X add 2.0m;#X add 2.2m;#X add 2.4m;#X add 2.7m;#X add 3.0m;#X add 3.3m;#X add 3.6m;#X add 3.9m;#X add 4.3m;#X add 4.7m;#X add 5.1m;#X add 5.6m;#X add 6.2m;#X add 6.8m;#X add 7.5m;#X add 8.2m;#X add 9.1m;#X add 10m;#X add 11m;#X add 12m;#X add 13m;#X add 15m;#P window linecount 1;#P newex 587 344 41 196617 lc+cmd;#P newex 548 234 64 196617 speedlim 35;#P newex 575 172 20 196617 t b;#P comment 638 196 97 196617 set fade time;#P comment 645 334 73 196617 78 = set ftime;#P newex 649 306 68 196617 pack 78 1 44;#P comment 571 288 68 196617 201 = set ch;#P newex 159 445 30 196617 == 3;#P newex 159 472 103 196617 s /lanbox/connected;#B color 12;#P number 197 446 35 9 0 0 0 3 0 0 0 221 221 221 222 222 222 0 0 0;#P window linecount 4;#P comment 246 430 79 196617 status: 0 (idle) - 1 (connecting) - 2 (connected) - 3 password ok;#P window linecount 1;#P message 91 377 131 196617 connect 192.168.1.77 777;#P message 250 377 55 196617 disconnect;#P window linecount 2;#P comment 157 498 147 196617 An OK response is 62 (">") An ERROR response is 63 ("?");#P window linecount 1;#P newex 587 306 59 196617 pack 201 1;#P newex 548 256 79 196617 t b b l b b b;#P window linecount 2;#P comment 115 109 48 196617 3. Select a layer;#B color 14;#P window setfont "Sans Serif" 20.;#P window linecount 1;#P comment 369 369 174 196628 LANBOX-SERVER;#P window setfont "Sans Serif" 9.;#P newex 98 288 74 196617 r /lanbox/init;#B color 12;#P message 141 348 88 196617 open 0 "Edit IP";#P fasten 12 0 29 0 164 467 11 467 11 137 33 137;#P connect 29 0 28 0;#P connect 28 0 30 0;#P connect 54 0 63 0;#P connect 63 0 55 0;#P connect 70 0 71 0;#P connect 28 0 37 0;#P connect 55 0 8 0;#P connect 8 0 52 0;#P fasten 7 0 52 0 255 403 96 403;#P connect 0 0 52 0;#P connect 46 0 47 0;#P connect 47 0 27 0;#P connect 64 0 52 1;#P connect 24 0 52 1;#P connect 23 0 52 1;#P connect 1 0 0 0;#P fasten 52 1 12 0 142 438 164 438;#P connect 12 0 11 0;#P connect 48 0 33 0;#P fasten 50 0 32 0 296 223 189 223;#P fasten 39 0 32 0 343 223 189 223;#P connect 33 0 32 0;#P fasten 37 0 32 0 57 223 189 223;#P connect 35 0 48 0;#P fasten 52 1 10 0 142 438 163 438 202 438;#P connect 32 2 36 0;#P connect 32 1 36 0;#P fasten 32 0 24 0 189 281;#P connect 36 0 24 0;#P fasten 47 0 33 1 120 191 157 191 157 197 215 197;#P connect 48 1 33 2;#P connect 55 1 7 0;#P fasten 45 0 39 0 441 195 343 195;#P fasten 47 0 39 1 120 191 157 191 157 197 360 197;#P connect 61 0 60 0;#P connect 65 0 43 0;#P connect 43 0 42 0;#P connect 42 0 39 2;#P connect 43 0 41 0;#P connect 41 0 39 3;#P connect 66 0 44 0;#P connect 44 0 39 4;#P connect 69 0 68 0;#P connect 67 0 45 0;#P connect 53 0 56 0;#P connect 56 0 62 0;#P connect 4 0 21 0;#P connect 53 0 18 0;#P connect 18 0 4 0;#P connect 53 0 17 0;#P connect 17 0 20 0;#P connect 4 3 5 0;#P fasten 4 4 19 0 605 328;#P fasten 4 1 19 0 566 326;#P fasten 4 2 19 0 579 324;#P connect 14 0 19 0;#P connect 5 0 19 0;#P fasten 4 0 23 0 553 353;#P connect 19 0 23 0;#P connect 59 0 57 0;#P connect 57 0 58 0;#P fasten 25 0 5 1 697 285 641 285;#P connect 53 0 57 1;#P fasten 4 5 14 0 618 281 654 281;#P fasten 25 0 14 1 697 285 683 285;#P fasten 20 0 14 2 580 224 712 224;#P pop;