max v2;#N vpatcher 251 84 1124 536;#P origin 0 -19;#P window setfont "Sans Serif" 9.;#P window linecount 1;#P newex 305 43 159 196617 r $2/windows/recall;#B color 11;#P newex 288 207 56 196617 t b b;#P newex 565 39 138 196617 r /tapemovie/shortcuts/sw;#B color 11;#P comment 335 73 36 196617 store;#P comment 415 74 66 196617 recallwindow;#P button 391 92 15 0;#N comlet recallwindow;#P inlet 400 72 15 0;#P button 653 247 15 0;#P newex 653 265 183 196617 s $1/exists;#B color 11;#P newex 653 227 183 196617 r $1/exists?;#B color 11;#P newex 269 342 48 196617 loadbang;#P message 269 366 197 196617 patcher $1/editor;#P newex 91 91 186 196617 s $1/editor/close;#B color 11;#P comment 79 162 64 196617 new message;#P newex 33 173 161 196617 r $2/windows;#B color 11;#P comment 337 173 64 196617 new message;#P newex 289 19 159 196617 r $2/windows/store;#B color 11;#P newex 288 185 168 196617 r $2/windows/recall;#B color 11;#P newex 636 79 48 196617 loadbang;#P message 796 144 17 196617 ct;#P message 756 144 14 196617 l;#P message 716 144 20 196617 tm;#P message 676 144 16 196617 m;#P message 636 144 14 196617 t;#P newex 636 190 130 196617 sprintf refer %s_windows;#P newex 636 122 212 196617 sel /tape /movie /tapemovie /light /camtrk;#P message 636 101 135 196617 $2;#P comment 441 322 254 196617 arg2 = environnement (ex /tape \, /tapemovie \, /movie;#P newex 492 116 131 196617 r $1/shortcut;#B color 11;#P newex 492 158 51 196617 zl ecils 1;#P newex 475 188 27 196617 sel;#P newex 492 137 40 196617 atoi;#P newex 475 87 47 196617 gate 1 1;#P newex 475 39 86 196617 r /shortcuts/sw;#B color 11;#P newex 512 63 40 196617 key;#N comlet store;#P inlet 320 72 15 0;#N comlet from thispatcher;#P inlet 81 192 15 0;#N comlet to thispatcher;#P outlet 23 397 15 0;#P button 311 92 15 0;#P message 81 362 68 196617 window exec;#P newex 81 311 87 196617 t b l stop;#P button 81 124 15 0;#P newex 158 362 103 196617 prepend window size;#P message 288 229 190 196617 symbol $1/window;#P newex 23 136 40 196617 t front;#P window linecount 2;#P newex 23 57 184 196617 route front open close storewindow recallwindow;#P window linecount 1;#P newex 23 35 163 196617 r $1/editor;#B color 11;#P newex 81 256 169 196617 prepend store $1/window;#N coll ;#P newobj 81 288 53 196617 coll;#B color 5;#P newex 81 232 55 196617 route size;#P newex 81 212 71 196617 route window;#P message 81 143 75 196617 window getsize;#P comment 441 309 100 196617 arg1 = module;#P connect 6 0 7 0;#P fasten 22 0 8 0 480 208 388 208 388 115 28 115;#P lcolor 7;#P connect 7 0 8 0;#P connect 7 1 8 0;#P connect 41 0 15 0;#P connect 10 0 15 0;#P connect 13 0 15 0;#P connect 8 0 15 0;#P connect 1 0 15 0;#P connect 38 0 15 0;#P connect 7 5 15 0;#P connect 14 0 11 0;#P connect 7 3 11 0;#P connect 11 0 1 0;#P connect 16 0 2 0;#P connect 2 0 3 0;#P connect 3 0 5 0;#P fasten 9 0 4 0 293 280 86 280;#P connect 5 0 4 0;#P fasten 28 0 4 0 641 286 86 286;#P connect 4 0 12 0;#P connect 12 0 13 0;#P connect 7 2 40 0;#P connect 12 1 10 0;#P connect 47 0 51 0;#P connect 7 4 51 0;#P connect 35 0 51 0;#P connect 51 0 9 0;#P connect 17 0 14 0;#P fasten 36 0 14 0 294 82 316 82;#P fasten 52 0 47 0 310 64 396 64;#P connect 46 0 47 0;#P fasten 50 0 20 0 570 59 480 59;#P connect 19 0 20 0;#P connect 20 0 22 0;#P connect 24 0 21 0;#P connect 21 0 23 0;#P fasten 23 1 22 1 538 181 497 181;#P connect 18 0 20 1;#P connect 34 0 26 0;#P connect 26 0 27 0;#P connect 27 0 29 0;#P connect 33 0 28 0;#P connect 32 0 28 0;#P connect 31 0 28 0;#P connect 30 0 28 0;#P connect 29 0 28 0;#P connect 43 0 45 0;#P connect 45 0 44 0;#P connect 27 1 30 0;#P connect 27 2 31 0;#P connect 27 3 32 0;#P connect 27 4 33 0;#P pop;