max v2;#N vpatcher 30 89 238 355;#P window setfont "Sans Serif" 9.;#P window linecount 1;#P comment 61 226 109 196617 contact@tommays.net;#P comment 61 213 100 196617 patch by Tom Mays;#P window linecount 0;#P message 50 190 128 196617;#P window linecount 1;#P newex 50 169 62 196617 prepend set;#P outlet 27 211 15 0;#P inlet 27 34 15 0;#P newex 27 145 99 196617 pack 0 0 0;#P number 115 123 35 9 0 0 0 3 0 0 0 221 221 221 222 222 222 0 0 0;#P number 71 124 35 9 0 0 0 3 0 0 0 221 221 221 222 222 222 0 0 0;#P number 27 123 35 9 0 0 0 3 0 0 0 221 221 221 222 222 222 0 0 0;#P newex 115 100 39 196617 !- 255;#P newex 71 100 39 196617 !- 255;#P newex 27 100 39 196617 !- 255;#P newex 27 78 98 196617 unpack 0 0 0;#P message 42 54 64 196617 84 103 126;#P connect 9 0 1 0;#P connect 0 0 1 0;#P connect 1 0 2 0;#P connect 2 0 5 0;#P connect 5 0 8 0;#P connect 8 0 10 0;#P connect 8 0 11 0;#P connect 11 0 12 0;#P connect 1 1 3 0;#P connect 3 0 6 0;#P connect 6 0 8 1;#P connect 1 2 4 0;#P connect 4 0 7 0;#P connect 7 0 8 2;#P pop;