max v2;#N vpatcher 10 59 1120 695;#P origin 0 -7;#P window setfont "Sans Serif" 9.;#P newex 685 546 167 196617 s /tapemovie/user/perf/get/done;#B color 12;#P newex 454 67 167 196617 r /tapemovie/user/perf/get/done;#B color 12;#P newex 454 47 141 196617 s /tapemovie/user/perf/get;#B color 12;#P newex 685 316 141 196617 r /tapemovie/user/perf/get;#B color 12;#P newex 454 25 115 196617 r /tapemovie/perf/set;#B color 12;#P newex 685 524 44 196617 del 100;#P newex 494 138 29 196617 t l 2;#P newex 454 138 29 196617 t l 1;#P newex 570 234 38 196617 gate 2;#P newex 598 258 167 196617 s /tapemovie/user/perf/set/done;#B color 12;#P newex 570 277 141 196617 s /tapemovie/perf/set/done;#B color 12;#P newex 714 66 141 196617 r /tapemovie/user/perf/set;#B color 12;#P newex 550 210 40 196617 t dump;#P newex 454 164 68 196617 prepend read;#P newex 454 112 256 196617 sprintf %stapemovie-lib/config/tm_performances.txt;#P newex 454 90 96 196617 v /tapemovie/path;#B color 14;#P window setfont "Sans Serif" 12.;#N vpatcher 10 59 343 310;#P window setfont "Sans Serif" 9.;#P newex 138 113 108 196617 prepend send preempt;#P newex 85 133 124 196617 prepend send refreshrate;#P newex 32 153 107 196617 prepend send interval;#P newex 32 67 169 196617 route interval refreshrate preempt;#P window setfont "Sans Serif" 12.;#P newex 15 194 58 196620 forward;#B color 12;#P window setfont "Sans Serif" 9.;#P newex 191 91 117 196617 sprintf send max set%s;#P newex 32 42 69 196617 route symbol;#P inlet 15 21 15 0;#P inlet 32 22 15 0;#P connect 6 0 4 0;#P connect 7 0 4 0;#P connect 8 0 4 0;#P connect 3 0 4 0;#P connect 1 0 4 0;#P connect 0 0 2 0;#P connect 2 1 5 0;#P connect 2 0 5 0;#P connect 5 0 6 0;#P connect 5 1 7 0;#P connect 5 2 8 0;#P connect 5 3 3 0;#P pop;#P newobj 454 210 58 196620 p 2 max;#B color 6;#P window setfont "Sans Serif" 9.;#N coll ;#P newobj 454 187 156 196617 coll;#B color 5;#P newex 714 112 264 196617 sprintf %stapemovie-lib/config/user_performances.txt;#P newex 714 90 96 196617 v /tapemovie/path;#B color 14;#P newex 514 475 165 196617 v /tapemovie/user/perf/preempt;#B color 14;#P newex 433 435 181 196617 v /tapemovie/user/perf/refreshrate;#B color 14;#P newex 352 394 179 196617 v /tapemovie/user/perf/pollthrottle;#B color 14;#P newex 287 350 164 196617 v /tapemovie/user/perf/interval;#B color 14;#P newex 239 310 146 196617 v /tapemovie/user/perf/slop;#B color 14;#P newex 191 268 151 196617 v /tapemovie/user/perf/sleep;#B color 14;#P newex 105 222 188 196617 v /tapemovie/user/perf/queuethrottle;#B color 14;#P newex 15 181 189 196617 v /tapemovie/user/perf/eventinterval;#B color 14;#P newex 732 523 73 196617 prepend write;#P newex 732 500 264 196617 sprintf %stapemovie-lib/config/user_performances.txt;#P newex 732 478 96 196617 v /tapemovie/path;#B color 14;#P newex 685 337 104 196617 t b b b;#P window linecount 9;#P message 779 361 284 196617 \; max checkpreempt /tapemovie/user/perf/preempt \; max getslop /tapemovie/user/perf/slop \; max getsleep /tapemovie/user/perf/sleep \; max getpollthrottle /tapemovie/user/perf/pollthrottle \; max getqueuethrottle /tapemovie/user/perf/queuethrottle \; max geteventinterval /tapemovie/user/perf/eventinterval \; max getrefreshrate /tapemovie/user/perf/refreshrate \; max sendinterval /tapemovie/user/perf/interval \;;#P window linecount 1;#N coll user_performances 1;#P newobj 9 580 126 196617 coll user_performances 1;#B color 5;#P newex 231 289 145 196617 r /tapemovie/user/perf/slop;#B color 12;#P newex 505 456 164 196617 r /tapemovie/user/perf/preempt;#B color 12;#P newex 426 413 180 196617 r /tapemovie/user/perf/refreshrate;#B color 12;#P newex 343 372 178 196617 r /tapemovie/user/perf/pollthrottle;#B color 12;#P newex 279 329 163 196617 r /tapemovie/user/perf/interval;#B color 12;#P newex 183 246 150 196617 r /tapemovie/user/perf/sleep;#B color 12;#P newex 96 201 187 196617 r /tapemovie/user/perf/queuethrottle;#B color 12;#P newex 9 159 188 196617 r /tapemovie/user/perf/eventinterval;#B color 12;#P newex 505 494 60 196617 t preempt l;#P newex 83 532 62 196617 prepend set;#P newex 9 554 40 196617 append;#P newex 9 532 72 196617 prepend store;#P newex 426 494 76 196617 t refreshrate l;#P newex 343 494 74 196617 t pollthrottle l;#P newex 279 494 59 196617 t interval l;#P newex 231 494 41 196617 t slop l;#P newex 183 494 46 196617 t sleep l;#P newex 96 494 83 196617 t queuethrottle l;#P newex 9 494 84 196617 t eventinterval l;#P button 434 25 15 0;#P connect 12 0 1 0;#P fasten 11 0 8 0 510 521 14 521;#P lcolor 13;#P fasten 7 0 8 0 431 521 14 521;#P lcolor 13;#P fasten 6 0 8 0 348 521 14 521;#P lcolor 13;#P fasten 5 0 8 0 284 521 14 521;#P lcolor 13;#P fasten 4 0 8 0 236 521 14 521;#P lcolor 13;#P fasten 3 0 8 0 188 521 14 521;#P lcolor 13;#P fasten 2 0 8 0 101 521 14 521;#P lcolor 13;#P fasten 1 0 8 0 14 521 14 521;#P lcolor 13;#P fasten 10 0 9 0 88 551 14 551;#P connect 8 0 9 0;#P fasten 25 0 20 0 737 575 14 575;#P connect 9 0 20 0;#P connect 12 0 26 0;#P fasten 11 1 10 0 560 521 88 521;#P lcolor 15;#P fasten 7 1 10 0 497 521 88 521;#P lcolor 15;#P fasten 6 1 10 0 412 521 88 521;#P lcolor 15;#P fasten 5 1 10 0 333 521 88 521;#P lcolor 15;#P fasten 4 1 10 0 267 521 88 521;#P lcolor 15;#P fasten 3 1 10 0 224 521 88 521;#P lcolor 15;#P fasten 2 1 10 0 174 521 88 521;#P lcolor 15;#P fasten 1 1 10 0 88 521 88 521;#P lcolor 15;#P connect 13 0 2 0;#P connect 13 0 27 0;#P connect 14 0 3 0;#P connect 14 0 28 0;#P connect 19 0 4 0;#P connect 19 0 29 0;#P connect 15 0 5 0;#P connect 15 0 30 0;#P connect 16 0 6 0;#P connect 16 0 31 0;#P connect 17 0 7 0;#P connect 17 0 32 0;#P connect 49 0 51 0;#P connect 0 0 51 0;#P connect 52 0 38 0;#P connect 38 0 39 0;#P fasten 39 0 46 0 459 134 459 134;#P connect 47 0 40 0;#P connect 46 0 40 0;#P connect 40 0 36 0;#P fasten 41 0 36 0 555 239 447 239 447 183 459 183;#P connect 36 0 37 0;#P fasten 35 0 47 0 719 134 499 134;#P connect 36 1 37 1;#P connect 18 0 11 0;#P connect 18 0 33 0;#P connect 36 2 41 0;#P connect 47 1 45 0;#P connect 46 1 45 0;#P connect 45 0 43 0;#P connect 36 3 45 1;#P connect 45 1 44 0;#P connect 50 0 22 0;#P connect 22 0 48 0;#P connect 48 0 53 0;#P connect 42 0 34 0;#P connect 34 0 35 0;#P connect 22 1 23 0;#P connect 23 0 24 0;#P connect 24 0 25 0;#P connect 22 2 21 0;#P pop;