max v2;#N vpatcher 651 288 1252 570;#P window setfont "Sans Serif" 9.;#P newex 425 99 84 196617 colorchooser $2;#B color 5;#P newex 425 120 57 196617 pvar panel;#P window linecount 3;#P comment 12 116 187 196617 arg 1 : prefix name \; arg 2 : color scheme choice (0 = movie \, 1 = tape \, 2 = camtrk \, 3 = conduite);#P toggle 230 37 15 0;#P window setfont Times 10.;#P window linecount 1;#P comment 6 1 115 1310730 $1;#P user panel 7 1 112 14;#X brgb 244 244 244;#X frgb 194 194 194;#X border 1;#X rounded 4;#X shadow 0;#X done;#P objectname panel;#P window setfont "Sans Serif" 9.;#P comment 223 216 40 196617 switch;#P newex 302 56 133 196617 t b i;#P newex 249 36 64 196617 vari $1/sw;#B color 5;#P comment 21 82 93 196617 panel = 128 X 62;#P user panel 0 0 128 62;#X brgb 255 255 255;#X frgb 198 198 198;#X border 1;#X rounded 4;#X shadow 0;#X done;#P background;#P connect 7 0 2 0;#P connect 2 1 3 0;#P connect 3 1 10 0;#P connect 10 0 9 0;#P pop;