max v2;#N vpatcher 9 116 1415 890;#P origin -15 -24;#P window setfont "Sans Serif" 9.;#P newex 1223 429 32 196617 print;#B color 6;#P window setfont Times 9.;#P newex 1213 248 18 1310729 t b;#P window setfont "Sans Serif" 9.;#P newex 1213 228 142 196617 r /tapemovie/bkgndumenufill;#B color 11;#N comlet input to menu;#P inlet 1362 418 15 0;#N comlet to thispatcher;#P outlet 1284 578 15 0;#P newex 1284 525 44 196617 del 200;#P window linecount 2;#P message 1284 546 86 196617 script sendtoback background;#P window linecount 1;#P newex 1284 504 20 196617 t b;#P message 1330 364 39 196617 /wii.1;#P message 1328 486 33 196617 clear;#N comlet name out;#P outlet 1348 455 15 0;#P message 1330 343 29 196617 mov;#P newex 1292 418 66 196617 pvar menu 2;#N vpatcher 400 157 1118 810;#P window setfont "Sans Serif" 9.;#P window linecount 1;#P newex 273 322 32 196617 print;#P message 619 173 70 196617 setcheck 195;#P message 609 153 64 196617 setcheck 62;#P message 600 132 70 196617 setcheck 165;#P newex 194 536 21 196617 t 0;#P button 226 294 15 0;#P newex 180 355 58 196617 t b b;#P window linecount 0;#P newex 180 375 27 196617 i;#P window linecount 1;#P message 180 418 30 196617 next;#P message 216 418 33 196617 start;#P newex 180 395 40 196617 uzi;#N coll ;#P newobj 180 442 53 196617 coll;#B color 5;#P newex 226 80 32 196617 del 1;#P newex 226 59 20 196617 t b;#P newex 226 39 159 196617 r $1/menuupdatesw;#B color 11;#P window linecount 0;#P message 436 477 33 196617 clear;#P window linecount 1;#P newex 232 518 27 196617 - 1;#P newex 194 516 32 196617 sel 0;#P newex 194 577 49 196617 zl rot -1;#P newex 194 556 48 196617 pack;#P message 331 399 30 196617 next;#P message 362 399 33 196617 start;#P newex 331 376 40 196617 uzi;#P number 331 357 35 9 0 0 0 3 0 0 0 221 221 221 222 222 222 0 0 0;#N coll ;#P newobj 331 336 53 196617 coll;#B color 5;#P message 212 602 85 196617 checkitem \$1 \$2;#P newex 549 405 135 196617 sprintf refer /%s/substate;#P button 395 531 15 0;#P newex 194 473 77 196617 sprintf %s/sw;#P message 585 111 49 196617 setcheck;#P window setfont Times 9.;#P user ubumenu 395 511 100 1310729 0 1 1 0;#X prefix_set 0 0 <none> 0;#P window setfont "Sans Serif" 9.;#N coll ;#P newobj 194 495 53 196617 coll;#B color 5;#P message 433 346 65 196617 refer empty;#N coll empty 1;#P newobj 612 208 66 196617 coll empty 1;#B color 5;#P message 393 140 44 196617 fshift.1;#P message 368 162 29 196617 mov;#P message 355 140 35 196617 fshift;#P newex 345 575 123 196617 substitute symbol append;#P newex 331 308 113 196617 t length clear s b;#P newex 331 283 40 196617 itoa;#P newex 288 283 40 196617 itoa;#P newex 288 227 53 196617 route 47;#P newex 288 206 68 196617 t l l;#P newex 288 261 53 196617 gate 2;#P newex 387 267 27 196617 + 1;#P newex 387 247 27 196617 > 0;#P newex 346 227 51 196617 zl sub 46;#P newex 288 186 40 196617 atoi;#P message 323 161 39 196617 /wii.1;#P message 308 140 41 196617 /fshift;#P newex 399 405 148 196617 sprintf refer /%s/submodules;#N coll ;#P newobj 331 439 53 196617 coll;#B color 5;#P newex 17 165 96 196617 t b s s b;#P button 17 393 15 0;#P window linecount 3;#P comment 303 76 209 196617 module "little" name without instance number for "instance" mode \, WITH instance number for "submodule" mode;#P outlet 31 601 15 0;#P window linecount 1;#P newex 520 69 75 196617 t b b;#P newex 520 111 43 196617 route 0;#P newex 45 367 38 196617 zl reg;#P newex 45 298 140 196617 t i clear;#P newex 45 391 112 196617 sprintf append /%s.%i;#P newex 45 340 40 196617 uzi;#P newex 45 278 51 196617 zl slice 1;#P number 45 321 35 9 0 0 0 3 0 0 0 221 221 221 222 222 222 0 0 0;#P message 520 91 107 196617 $1;#P message 101 186 70 196617 $3;#P message 221 206 43 196617 /movie;#P message 182 206 35 196617 /tape;#P message 114 206 62 196617 /tapemovie;#P newex 101 278 118 196617 sprintf refer %s_config;#P message 189 256 16 196617 m;#P message 145 256 14 196617 t;#P message 101 256 20 196617 tm;#P newex 101 233 142 196617 sel /tapemovie /tape /movie;#N coll tm_config;#P newobj 45 257 53 196617 coll;#B color 5;#N comlet loadbang;#P inlet 520 49 15 0;#N comlet module "little" name without instance number for "instance" mode \, WITH instance number for "submodule" mode;#P inlet 288 98 15 0;#P window linecount 0;#P comment 535 50 48 196617 loadbang;#P comment 125 64 100 196617 wait 1 ms to collect several bangs into one if necessary (preset recall);#P fasten 38 0 26 0 293 310 270 310 270 160 22 160;#P connect 26 0 25 0;#P connect 27 3 23 0;#P connect 56 1 23 0;#P connect 53 0 23 0;#P connect 49 0 23 0;#P connect 41 0 23 0;#P connect 40 1 23 0;#P fasten 25 0 23 0 22 416 36 416;#P fasten 18 0 23 0 50 416 36 416;#P connect 19 1 23 0;#P connect 9 0 4 0;#P connect 26 1 4 0;#P connect 4 0 16 0;#P connect 16 0 19 0;#P connect 19 0 15 0;#P connect 15 0 17 0;#P connect 17 0 20 0;#P connect 20 0 18 0;#P connect 26 2 20 1;#P connect 26 3 13 0;#P connect 10 0 5 0;#P connect 11 0 5 0;#P connect 12 0 5 0;#P connect 13 0 5 0;#P connect 5 0 6 0;#P connect 8 0 9 0;#P connect 7 0 9 0;#P connect 6 0 9 0;#P connect 5 1 7 0;#P connect 17 2 18 1;#P connect 73 0 72 0;#P connect 72 0 71 0;#P connect 71 0 68 0;#P connect 68 0 70 0;#P connect 28 0 67 0;#P connect 70 0 67 0;#P connect 69 0 67 0;#P connect 5 2 8 0;#P connect 67 1 50 0;#P connect 50 0 47 0;#P connect 52 0 47 0;#P connect 47 0 61 0;#P connect 61 0 74 0;#P connect 74 0 59 0;#P connect 61 1 59 0;#P connect 59 0 60 0;#P connect 55 0 71 1;#P connect 60 0 53 0;#P connect 72 1 69 0;#P connect 64 0 65 0;#P connect 65 0 66 0;#P connect 66 0 73 0;#P connect 68 2 62 0;#P connect 62 0 59 1;#P connect 38 0 78 0;#P connect 2 0 31 0;#P connect 30 0 31 0;#P connect 29 0 31 0;#P connect 43 0 31 0;#P connect 42 0 31 0;#P connect 44 0 31 0;#P fasten 21 1 31 0 558 135 293 135;#P connect 31 0 36 0;#P connect 36 0 37 0;#P connect 34 0 35 0;#P connect 35 0 38 0;#P connect 37 1 35 1;#P connect 37 0 35 1;#P connect 35 1 39 0;#P connect 39 0 40 0;#P connect 28 0 54 0;#P connect 46 0 54 0;#P connect 40 0 54 0;#P connect 54 0 55 0;#P connect 55 0 56 0;#P connect 56 0 58 0;#P connect 28 0 27 0;#P connect 46 0 27 0;#P connect 58 0 27 0;#P connect 57 0 27 0;#P connect 27 1 41 0;#P connect 36 1 32 0;#P connect 40 3 57 0;#P connect 32 1 33 0;#P connect 33 0 34 0;#P connect 56 1 48 0;#P connect 53 0 48 0;#P connect 49 0 48 0;#P connect 41 0 48 0;#P connect 40 1 48 0;#P connect 63 0 48 0;#P connect 48 0 51 0;#P connect 40 2 28 0;#P connect 40 3 46 0;#P connect 3 0 22 0;#P connect 22 0 14 0;#P connect 14 0 21 0;#P fasten 40 2 52 0 404 375 554 375;#P lcolor 2;#P connect 22 1 49 0;#P pop;#P newobj 1292 392 77 196617 p load menu;#B color 6;#P window linecount 3;#P comment 1175 365 117 196617 module "little" name without instance number and without slash;#P window linecount 1;#N vpatcher 10 59 249 246;#P window setfont "Sans Serif" 9.;#P message 65 88 84 196617 script hide more;#P message 50 106 89 196617 script show more;#P toggle 50 50 15 0;#P newex 50 68 41 196617 sel 1 0;#P inlet 50 30 15 0;#P outlet 50 126 15 0;#P connect 1 0 3 0;#P connect 3 0 2 0;#P connect 2 0 4 0;#P connect 4 0 0 0;#P connect 5 0 0 0;#P connect 2 1 5 0;#P pop;#P newobj 1073 303 94 196617 p show/hide_more;#B color 6;#N comlet module "little" name without instance number and without slash;#P inlet 1292 362 15 0;#P message 1209 287 50 196617 $4;#P message 1266 287 50 196617 $5;#P flonum 1209 307 35 9 0 0 0 3 0 0 0 221 221 221 222 222 222 0 0 0;#P flonum 1266 307 35 9 0 0 0 3 0 0 0 221 221 221 222 222 222 0 0 0;#P window setfont "Sans Serif" 14.;#N vpatcher 159 199 819 568;#P window setfont "Sans Serif" 9.;#P window linecount 0;#P newex 576 85 50 196617 clip 0. 4.;#P newex 460 85 56 196617 clip 0. 12.;#P newex 532 85 21 196617 t 1;#P flonum 576 108 35 9 0 0 0 3 0 0 0 221 221 221 222 222 222 0 0 0;#P newex 532 64 54 196617 split 0. 0.;#P newex 532 43 37 196617 abs 0.;#P newex 416 85 21 196617 t 1;#P flonum 460 108 35 9 0 0 0 3 0 0 0 221 221 221 222 222 222 0 0 0;#P newex 416 64 54 196617 split 0. 0.;#P newex 416 43 37 196617 abs 0.;#P newex 242 266 50 196617 deferlow;#P newex 242 244 20 196617 t b;#P window linecount 1;#P message 242 293 165 196617 script sendtoback backgroundpanel;#P newex 416 224 66 196617 bondo 2 1;#P number 416 204 35 9 0 0 0 3 0 0 0 221 221 221 222 222 222 0 0 0;#P number 532 201 35 9 0 0 0 3 0 0 0 221 221 221 222 222 222 0 0 0;#N vpatcher 10 59 192 206;#P window setfont "Sans Serif" 9.;#P newex 50 70 18 196617 t i;#P newex 50 50 34 196617 + 0.5;#P inlet 50 30 15 0;#P outlet 50 92 15 0;#P connect 1 0 2 0;#P connect 2 0 3 0;#P connect 3 0 0 0;#P pop;#P newobj 416 171 53 196617 p rounder;#B color 6;#N vpatcher 10 59 192 206;#P window setfont "Sans Serif" 9.;#P newex 50 70 18 196617 t i;#P newex 50 50 34 196617 + 0.5;#P inlet 50 30 15 0;#P outlet 50 92 15 0;#P connect 1 0 2 0;#P connect 2 0 3 0;#P connect 3 0 0 0;#P pop;#P newobj 532 171 53 196617 p rounder;#B color 6;#P message 132 293 104 196617 script move sw \$1 1;#P newex 97 260 30 196617 - 20;#P newex 58 260 36 196617 - 136;#P number 58 236 35 9 0 0 0 3 0 0 0 221 221 221 222 222 222 0 0 0;#P message 16 293 114 196617 script move menu \$1 1;#P newex 416 248 66 196617 swap;#P newex 532 149 41 196617 * 256.;#P newex 416 270 66 196617 pack 256 62;#P newex 416 149 35 196617 * 62.;#P flonum 416 129 35 9 0 0 0 3 0 0 0 221 221 221 222 222 222 0 0 0;#P flonum 532 129 35 9 0 0 0 3 0 0 0 221 221 221 222 222 222 0 0 0;#P message 416 292 164 196617 script size backgroundpanel \$1 \$2;#P inlet 416 23 15 0;#P inlet 532 23 15 0;#P outlet 16 324 15 0;#P connect 12 0 10 0;#P connect 20 0 0 0;#P connect 14 0 0 0;#P connect 3 0 0 0;#P connect 10 0 0 0;#P connect 15 0 11 0;#P connect 11 0 12 0;#P connect 11 0 13 0;#P connect 13 0 14 0;#P connect 7 0 21 0;#P connect 21 0 22 0;#P connect 22 0 20 0;#P connect 2 0 23 0;#P connect 23 0 24 0;#P connect 24 0 26 0;#P connect 26 0 5 0;#P connect 25 0 5 0;#P connect 5 0 6 0;#P connect 6 0 16 0;#P connect 16 0 18 0;#P connect 18 0 19 0;#P connect 19 0 9 0;#P connect 9 0 7 0;#P connect 7 0 3 0;#P connect 24 1 31 0;#P connect 31 0 25 0;#P connect 17 0 19 1;#P connect 19 1 9 1;#P connect 9 1 7 1;#P connect 1 0 27 0;#P connect 27 0 28 0;#P connect 28 0 30 0;#P connect 29 0 4 0;#P connect 30 0 4 0;#P connect 4 0 8 0;#P connect 8 0 15 0;#P connect 15 0 17 0;#P connect 28 1 32 0;#P connect 32 0 29 0;#P pop;#P newobj 1209 331 89 196622 p panelsize;#B color 6;#P window setfont Times 9.;#P user ubumenu 120 1 115 1310729 0 1 1 0;#X setrgb 92 122 84 240 255 240 234 234 234 4 4 4 141 141 141 112 112 112;#X prefix_set 0 0 <none> 0;#P objectname menu;#P window setfont "Sans Serif" 9.;#P newex 1081 217 102 196617 sprintf send %s/init;#P comment 1099 237 44 196617 $1/init;#P newex 1051 235 47 196617 forward;#B color 11;#P comment 1102 483 85 196617 $1/more/editor;#P newex 1120 447 143 196617 sprintf send %s/more/editor;#P window setfont "Sans Serif" 12.;#P comment 1051 149 234 196620 u for "universal";#P window setfont "Sans Serif" 9.;#P window linecount 7;#P comment 1051 57 326 196617 arg 1 : module "little" name without instance number for "instance" mode \, WITH instance number for "submodule" mode. (i.e. fshift for instance mode \, wii.1 for submodule mode \; arg 2 : "more" button hide/show (0/1) \; arg 3 : environment name (i.e. /tapemovie \, /tape \, /movie \, /cue-list) \; arg 4 : vertical background units (def = 1) \; arg 5 : horizontal background units (def = 1) \;;#P window setfont Times 9.;#P window linecount 1;#P newex 1051 210 18 1310729 t b;#P window setfont "Sans Serif" 9.;#P comment 1095 192 176 196617 init and module param register write;#P window linecount 2;#P comment 1219 544 37 196617 temp-preset;#P window linecount 1;#P newex 1051 480 47 196617 forward;#B color 11;#P newex 1051 261 48 196617 loadbang;#P message 1051 418 81 196617 brgb 0 200 180;#P newex 1051 456 40 196617 t front;#P newex 1051 436 57 196617 pvar more;#N thispatcher;#Q end;#P newobj 1073 375 61 196617 thispatcher;#P message 1073 285 21 196617 $2;#P user jsui 23 1 30 15 1 0 0 jsui_textbutton.js more;#P objectname more;#P window setfont Times 9.;#P newex 1051 190 43 1310729 pvar init;#P message 1 1 19 1310729 init;#B color 12;#P objectname init;#P newex 1051 512 48 1310729 pvar open;#P newex 1155 512 50 1310729 pvar recall;#P newex 1103 512 48 1310729 pvar store;#P message 1 32 13 1310729 R;#B color 7;#P objectname recall;#P message 1 18 13 1310729 S;#B color 2;#P objectname store;#P message 1 46 13 1310729 O;#B color 9;#P objectname open;#P newex 1051 541 167 1310729 storetemppathu;#B color 6;#P user hint 2 46 15 60 "open temp preset text (qlist)" 750 100 0 65535 65535 52428 9 3 0 1 0 0 0;#P user hint 2 32 15 47 "recall temp preset" 750 100 0 65535 65535 52428 9 3 0 1 0 0 0;#P user hint 2 18 15 32 "store temp preset" 750 100 0 65535 65535 52428 9 3 0 1 0 0 0;#P user hint 2 1 21 15 "initialize this module" 750 100 0 65535 65535 52428 9 3 0 1 0 0 0;#P user panel 0 0 256 62;#X brgb 255 255 255;#X frgb 198 198 198;#X border 1;#X rounded 4;#X shadow 0;#X done;#P background;#P objectname backgroundpanel;#P connect 13 0 24 0;#P connect 24 0 29 0;#P connect 31 0 29 0;#P connect 20 0 19 0;#P connect 19 0 17 0;#P connect 17 0 18 0;#P connect 18 0 21 0;#P fasten 27 0 21 0 1125 476 1056 476;#P connect 11 0 5 0;#P fasten 20 0 15 0 1056 282 1078 282;#P connect 15 0 39 0;#P fasten 33 0 16 0 1214 359 1078 359;#P connect 39 0 16 0;#P fasten 42 1 31 0 1353 441 1382 441 1382 213 1086 213;#P connect 9 0 5 1;#P connect 42 1 27 0;#P connect 10 0 5 2;#P connect 42 1 5 3;#P fasten 20 0 37 0 1056 282 1214 282;#P connect 37 0 35 0;#P connect 35 0 33 0;#P connect 52 0 53 0;#P connect 41 0 54 0;#P fasten 20 0 36 0 1056 282 1271 282;#P connect 36 0 34 0;#P connect 33 0 47 0;#P connect 47 0 49 0;#P connect 49 0 48 0;#P connect 48 0 50 0;#P connect 34 0 33 1;#P fasten 53 0 41 0 1218 270 1321 270 1321 386 1297 386;#P lcolor 7;#P connect 38 0 41 0;#P connect 43 0 41 0;#P connect 46 0 41 0;#P connect 41 0 42 0;#P connect 51 0 42 0;#P connect 45 0 42 0;#P connect 42 1 44 0;#P fasten 20 0 41 1 1056 282 1364 282;#P pop;