{
	"patcher" : 	{
		"fileversion" : 1,
		"rect" : [ 628.0, 165.0, 597.0, 480.0 ],
		"bgcolor" : [ 0.956863, 0.956863, 0.956863, 1.0 ],
		"bglocked" : 0,
		"defrect" : [ 628.0, 165.0, 597.0, 480.0 ],
		"openrect" : [ 0.0, 0.0, 0.0, 0.0 ],
		"openinpresentation" : 0,
		"default_fontsize" : 12.0,
		"default_fontface" : 0,
		"default_fontname" : "Arial",
		"gridonopen" : 0,
		"gridsize" : [ 15.0, 15.0 ],
		"gridsnaponopen" : 0,
		"toolbarvisible" : 1,
		"boxanimatetime" : 200,
		"imprint" : 0,
		"enablehscroll" : 1,
		"enablevscroll" : 1,
		"boxes" : [ 			{
				"box" : 				{
					"maxclass" : "message",
					"text" : "#1",
					"fontsize" : 9.0,
					"numinlets" : 2,
					"patching_rect" : [ 125.0, 1.0, 115.0, 15.0 ],
					"id" : "obj-32",
					"numoutlets" : 1,
					"outlettype" : [ "" ],
					"fontname" : "Arial",
					"ignoreclick" : 1
				}

			}
, 			{
				"box" : 				{
					"maxclass" : "toggle",
					"varname" : "sw",
					"numinlets" : 1,
					"patching_rect" : [ 295.0, 13.0, 15.0, 15.0 ],
					"id" : "obj-54",
					"numoutlets" : 1,
					"outlettype" : [ "int" ]
				}

			}
, 			{
				"box" : 				{
					"maxclass" : "message",
					"text" : "255 255 255",
					"fontsize" : 9.0,
					"numinlets" : 2,
					"patching_rect" : [ 392.0, 375.0, 61.0, 15.0 ],
					"id" : "obj-47",
					"numoutlets" : 1,
					"outlettype" : [ "" ],
					"fontname" : "Arial"
				}

			}
, 			{
				"box" : 				{
					"maxclass" : "newobj",
					"text" : "colorchooser5 #3",
					"fontsize" : 9.0,
					"numinlets" : 1,
					"patching_rect" : [ 375.0, 352.0, 80.0, 17.0 ],
					"id" : "obj-1",
					"numoutlets" : 1,
					"outlettype" : [ "" ],
					"fontname" : "Arial",
					"color" : [ 1.0, 0.890196, 0.090196, 1.0 ]
				}

			}
, 			{
				"box" : 				{
					"maxclass" : "newobj",
					"text" : "bgcolor",
					"fontsize" : 9.0,
					"numinlets" : 4,
					"patching_rect" : [ 375.0, 397.0, 59.5, 17.0 ],
					"id" : "obj-2",
					"numoutlets" : 0,
					"fontname" : "Arial"
				}

			}
, 			{
				"box" : 				{
					"maxclass" : "newobj",
					"text" : "pvar sw",
					"fontsize" : 9.0,
					"numinlets" : 1,
					"patching_rect" : [ 330.0, 307.0, 52.0, 17.0 ],
					"id" : "obj-36",
					"numoutlets" : 1,
					"outlettype" : [ "" ],
					"fontname" : "Arial"
				}

			}
, 			{
				"box" : 				{
					"maxclass" : "newobj",
					"text" : "vari #1/sw",
					"fontsize" : 9.0,
					"numinlets" : 1,
					"patching_rect" : [ 330.0, 327.0, 64.0, 17.0 ],
					"id" : "obj-7",
					"numoutlets" : 2,
					"outlettype" : [ "", "" ],
					"fontname" : "Arial",
					"color" : [ 1.0, 0.890196, 0.090196, 1.0 ]
				}

			}
, 			{
				"box" : 				{
					"maxclass" : "comment",
					"text" : "bpat bkgnd = 256 X 124",
					"fontsize" : 9.0,
					"numinlets" : 1,
					"patching_rect" : [ 64.0, 192.0, 117.0, 17.0 ],
					"id" : "obj-3",
					"numoutlets" : 0,
					"fontname" : "Arial"
				}

			}
, 			{
				"box" : 				{
					"maxclass" : "comment",
					"text" : "arg 1 : prefix name;\rarg 2 : \"more\" button hide/show (0/1);\rarg 3 : color scheme choice (0 = movie, 1 = tape, 2 = camtrk, 3 = conduite)",
					"linecount" : 4,
					"fontsize" : 9.0,
					"numinlets" : 1,
					"patching_rect" : [ 39.0, 227.0, 187.0, 48.0 ],
					"id" : "obj-4",
					"numoutlets" : 0,
					"fontname" : "Arial"
				}

			}
, 			{
				"box" : 				{
					"maxclass" : "newobj",
					"text" : "t b",
					"fontsize" : 9.0,
					"numinlets" : 1,
					"patching_rect" : [ 318.0, 55.0, 18.0, 15.0 ],
					"id" : "obj-5",
					"numoutlets" : 1,
					"outlettype" : [ "bang" ],
					"fontname" : "Times Roman"
				}

			}
, 			{
				"box" : 				{
					"maxclass" : "comment",
					"text" : "init and module param register write",
					"fontsize" : 9.0,
					"numinlets" : 1,
					"patching_rect" : [ 373.0, 27.0, 176.0, 17.0 ],
					"id" : "obj-6",
					"numoutlets" : 0,
					"fontname" : "Arial"
				}

			}
, 			{
				"box" : 				{
					"maxclass" : "comment",
					"text" : "temp-preset",
					"fontsize" : 9.0,
					"numinlets" : 1,
					"patching_rect" : [ 480.0, 285.0, 66.0, 17.0 ],
					"id" : "obj-8",
					"numoutlets" : 0,
					"fontname" : "Arial"
				}

			}
, 			{
				"box" : 				{
					"maxclass" : "newobj",
					"text" : "s #1/more/editor",
					"fontsize" : 9.0,
					"numinlets" : 1,
					"patching_rect" : [ 462.0, 219.0, 113.0, 17.0 ],
					"id" : "obj-9",
					"numoutlets" : 0,
					"fontname" : "Arial",
					"color" : [ 0.6, 0.6, 1.0, 1.0 ]
				}

			}
, 			{
				"box" : 				{
					"maxclass" : "newobj",
					"text" : "loadbang",
					"fontsize" : 9.0,
					"numinlets" : 1,
					"patching_rect" : [ 462.0, 136.0, 48.0, 17.0 ],
					"id" : "obj-10",
					"numoutlets" : 1,
					"outlettype" : [ "bang" ],
					"fontname" : "Arial"
				}

			}
, 			{
				"box" : 				{
					"maxclass" : "message",
					"text" : "brgb 0 200 180",
					"fontsize" : 9.0,
					"numinlets" : 2,
					"patching_rect" : [ 462.0, 159.0, 81.0, 15.0 ],
					"id" : "obj-11",
					"numoutlets" : 1,
					"outlettype" : [ "" ],
					"fontname" : "Arial"
				}

			}
, 			{
				"box" : 				{
					"maxclass" : "newobj",
					"text" : "t front",
					"fontsize" : 9.0,
					"numinlets" : 1,
					"patching_rect" : [ 462.0, 197.0, 40.0, 17.0 ],
					"id" : "obj-12",
					"numoutlets" : 1,
					"outlettype" : [ "front" ],
					"fontname" : "Arial"
				}

			}
, 			{
				"box" : 				{
					"maxclass" : "newobj",
					"text" : "pvar more",
					"fontsize" : 9.0,
					"numinlets" : 1,
					"patching_rect" : [ 462.0, 177.0, 57.0, 17.0 ],
					"id" : "obj-13",
					"numoutlets" : 1,
					"outlettype" : [ "" ],
					"fontname" : "Arial"
				}

			}
, 			{
				"box" : 				{
					"maxclass" : "newobj",
					"text" : "loadbang",
					"fontsize" : 9.0,
					"numinlets" : 1,
					"patching_rect" : [ 323.0, 148.0, 48.0, 17.0 ],
					"id" : "obj-14",
					"numoutlets" : 1,
					"outlettype" : [ "bang" ],
					"fontname" : "Arial"
				}

			}
, 			{
				"box" : 				{
					"maxclass" : "newobj",
					"text" : "thispatcher",
					"fontsize" : 9.0,
					"numinlets" : 1,
					"patching_rect" : [ 276.0, 212.0, 61.0, 17.0 ],
					"id" : "obj-15",
					"numoutlets" : 2,
					"outlettype" : [ "", "" ],
					"fontname" : "Arial",
					"save" : [ "#N", "thispatcher", ";", "#Q", "end", ";" ]
				}

			}
, 			{
				"box" : 				{
					"maxclass" : "message",
					"text" : "script hide more",
					"fontsize" : 9.0,
					"numinlets" : 2,
					"patching_rect" : [ 366.0, 191.0, 84.0, 15.0 ],
					"id" : "obj-16",
					"numoutlets" : 1,
					"outlettype" : [ "" ],
					"fontname" : "Arial"
				}

			}
, 			{
				"box" : 				{
					"maxclass" : "message",
					"text" : "script show more",
					"fontsize" : 9.0,
					"numinlets" : 2,
					"patching_rect" : [ 276.0, 191.0, 89.0, 15.0 ],
					"id" : "obj-17",
					"numoutlets" : 1,
					"outlettype" : [ "" ],
					"fontname" : "Arial"
				}

			}
, 			{
				"box" : 				{
					"maxclass" : "toggle",
					"numinlets" : 1,
					"patching_rect" : [ 276.0, 149.0, 15.0, 15.0 ],
					"id" : "obj-18",
					"numoutlets" : 1,
					"outlettype" : [ "int" ]
				}

			}
, 			{
				"box" : 				{
					"maxclass" : "newobj",
					"text" : "sel 1 0",
					"fontsize" : 9.0,
					"numinlets" : 1,
					"patching_rect" : [ 276.0, 167.0, 41.0, 17.0 ],
					"id" : "obj-19",
					"numoutlets" : 3,
					"outlettype" : [ "bang", "bang", "" ],
					"fontname" : "Arial"
				}

			}
, 			{
				"box" : 				{
					"maxclass" : "message",
					"text" : "#2",
					"fontsize" : 9.0,
					"numinlets" : 2,
					"patching_rect" : [ 292.0, 149.0, 21.0, 15.0 ],
					"id" : "obj-20",
					"numoutlets" : 1,
					"outlettype" : [ "" ],
					"fontname" : "Arial"
				}

			}
, 			{
				"box" : 				{
					"maxclass" : "jsui",
					"varname" : "more",
					"numinlets" : 1,
					"patching_rect" : [ 23.0, 1.0, 30.0, 15.0 ],
					"id" : "obj-21",
					"numoutlets" : 1,
					"filename" : "jsui_textbutton.js",
					"outlettype" : [ "" ],
					"jsarguments" : [ "more" ],
					"nofsaa" : 1
				}

			}
, 			{
				"box" : 				{
					"maxclass" : "newobj",
					"text" : "pvar init",
					"fontsize" : 9.0,
					"numinlets" : 1,
					"patching_rect" : [ 318.0, 35.0, 43.0, 15.0 ],
					"id" : "obj-22",
					"numoutlets" : 1,
					"outlettype" : [ "" ],
					"fontname" : "Times Roman"
				}

			}
, 			{
				"box" : 				{
					"maxclass" : "message",
					"varname" : "init",
					"text" : "init",
					"fontsize" : 9.0,
					"numinlets" : 2,
					"patching_rect" : [ 1.0, 1.0, 21.0, 13.0 ],
					"id" : "obj-23",
					"numoutlets" : 1,
					"bgcolor" : [ 0.4, 0.4, 0.8, 1.0 ],
					"outlettype" : [ "" ],
					"fontname" : "Times Roman"
				}

			}
, 			{
				"box" : 				{
					"maxclass" : "newobj",
					"text" : "pvar open",
					"fontsize" : 9.0,
					"numinlets" : 1,
					"patching_rect" : [ 314.0, 253.0, 48.0, 15.0 ],
					"id" : "obj-24",
					"numoutlets" : 1,
					"outlettype" : [ "" ],
					"fontname" : "Times Roman"
				}

			}
, 			{
				"box" : 				{
					"maxclass" : "newobj",
					"text" : "pvar recall",
					"fontsize" : 9.0,
					"numinlets" : 1,
					"patching_rect" : [ 414.0, 253.0, 50.0, 15.0 ],
					"id" : "obj-25",
					"numoutlets" : 1,
					"outlettype" : [ "" ],
					"fontname" : "Times Roman"
				}

			}
, 			{
				"box" : 				{
					"maxclass" : "newobj",
					"text" : "pvar store",
					"fontsize" : 9.0,
					"numinlets" : 1,
					"patching_rect" : [ 364.0, 253.0, 48.0, 15.0 ],
					"id" : "obj-26",
					"numoutlets" : 1,
					"outlettype" : [ "" ],
					"fontname" : "Times Roman"
				}

			}
, 			{
				"box" : 				{
					"maxclass" : "message",
					"varname" : "recall",
					"text" : "R",
					"fontsize" : 9.0,
					"numinlets" : 2,
					"patching_rect" : [ 1.0, 32.0, 17.0, 13.0 ],
					"id" : "obj-27",
					"numoutlets" : 1,
					"bgcolor" : [ 0.290196, 0.611765, 0.380392, 1.0 ],
					"outlettype" : [ "" ],
					"fontname" : "Times Roman"
				}

			}
, 			{
				"box" : 				{
					"maxclass" : "message",
					"varname" : "store",
					"text" : "S",
					"fontsize" : 9.0,
					"numinlets" : 2,
					"patching_rect" : [ 1.0, 18.0, 17.0, 13.0 ],
					"id" : "obj-28",
					"numoutlets" : 1,
					"bgcolor" : [ 1.0, 0.741176, 0.611765, 1.0 ],
					"outlettype" : [ "" ],
					"fontname" : "Times Roman"
				}

			}
, 			{
				"box" : 				{
					"maxclass" : "message",
					"varname" : "open",
					"text" : "O",
					"fontsize" : 9.0,
					"numinlets" : 2,
					"patching_rect" : [ 1.0, 46.0, 17.0, 13.0 ],
					"id" : "obj-29",
					"numoutlets" : 1,
					"bgcolor" : [ 0.611765, 0.701961, 1.0, 1.0 ],
					"outlettype" : [ "" ],
					"fontname" : "Times Roman"
				}

			}
, 			{
				"box" : 				{
					"maxclass" : "message",
					"text" : ";\r#1/init bang;\r",
					"linecount" : 2,
					"fontsize" : 9.0,
					"numinlets" : 2,
					"patching_rect" : [ 318.0, 75.0, 114.0, 25.0 ],
					"id" : "obj-30",
					"numoutlets" : 1,
					"outlettype" : [ "" ],
					"fontname" : "Arial"
				}

			}
, 			{
				"box" : 				{
					"maxclass" : "newobj",
					"text" : "storetemppath #1",
					"fontsize" : 9.0,
					"numinlets" : 3,
					"patching_rect" : [ 314.0, 282.0, 111.0, 15.0 ],
					"id" : "obj-34",
					"numoutlets" : 0,
					"fontname" : "Times Roman",
					"color" : [ 0.156863, 0.8, 0.54902, 1.0 ]
				}

			}
, 			{
				"box" : 				{
					"maxclass" : "hint",
					"hint" : "open temp preset text (qlist)",
					"numinlets" : 1,
					"patching_rect" : [ 2.0, 46.0, 13.0, 14.0 ],
					"id" : "obj-37",
					"numoutlets" : 0
				}

			}
, 			{
				"box" : 				{
					"maxclass" : "hint",
					"hint" : "recall temp preset",
					"numinlets" : 1,
					"patching_rect" : [ 2.0, 32.0, 13.0, 15.0 ],
					"id" : "obj-38",
					"numoutlets" : 0
				}

			}
, 			{
				"box" : 				{
					"maxclass" : "hint",
					"hint" : "store temp preset",
					"numinlets" : 1,
					"patching_rect" : [ 2.0, 18.0, 13.0, 14.0 ],
					"id" : "obj-39",
					"numoutlets" : 0
				}

			}
, 			{
				"box" : 				{
					"maxclass" : "hint",
					"hint" : "initialize this module",
					"numinlets" : 1,
					"patching_rect" : [ 2.0, 1.0, 19.0, 14.0 ],
					"id" : "obj-40",
					"numoutlets" : 0
				}

			}
, 			{
				"box" : 				{
					"maxclass" : "comment",
					"text" : "more parameters option (arg 2, 1/0)",
					"fontsize" : 9.0,
					"numinlets" : 1,
					"patching_rect" : [ 274.0, 129.0, 178.0, 17.0 ],
					"id" : "obj-41",
					"numoutlets" : 0,
					"fontname" : "Arial"
				}

			}
, 			{
				"box" : 				{
					"maxclass" : "panel",
					"numinlets" : 1,
					"patching_rect" : [ 0.0, 0.0, 256.0, 124.0 ],
					"border" : 1,
					"id" : "obj-42",
					"numoutlets" : 0,
					"rounded" : 0,
					"bgcolor" : [ 1.0, 1.0, 1.0, 0.0 ],
					"bordercolor" : [ 0.776471, 0.776471, 0.776471, 1.0 ]
				}

			}
 ],
		"lines" : [ 			{
				"patchline" : 				{
					"source" : [ "obj-7", 0 ],
					"destination" : [ "obj-36", 0 ],
					"hidden" : 0,
					"midpoints" : [ 339.5, 349.0, 326.0, 349.0, 326.0, 303.0, 339.5, 303.0 ]
				}

			}
, 			{
				"patchline" : 				{
					"source" : [ "obj-36", 0 ],
					"destination" : [ "obj-7", 0 ],
					"hidden" : 0,
					"midpoints" : [  ]
				}

			}
, 			{
				"patchline" : 				{
					"source" : [ "obj-47", 0 ],
					"destination" : [ "obj-2", 0 ],
					"hidden" : 0,
					"midpoints" : [  ]
				}

			}
, 			{
				"patchline" : 				{
					"source" : [ "obj-7", 1 ],
					"destination" : [ "obj-1", 0 ],
					"hidden" : 0,
					"midpoints" : [  ]
				}

			}
, 			{
				"patchline" : 				{
					"source" : [ "obj-1", 0 ],
					"destination" : [ "obj-2", 0 ],
					"hidden" : 0,
					"midpoints" : [  ]
				}

			}
, 			{
				"patchline" : 				{
					"source" : [ "obj-12", 0 ],
					"destination" : [ "obj-9", 0 ],
					"hidden" : 0,
					"midpoints" : [  ]
				}

			}
, 			{
				"patchline" : 				{
					"source" : [ "obj-13", 0 ],
					"destination" : [ "obj-12", 0 ],
					"hidden" : 0,
					"midpoints" : [  ]
				}

			}
, 			{
				"patchline" : 				{
					"source" : [ "obj-11", 0 ],
					"destination" : [ "obj-13", 0 ],
					"hidden" : 0,
					"midpoints" : [  ]
				}

			}
, 			{
				"patchline" : 				{
					"source" : [ "obj-10", 0 ],
					"destination" : [ "obj-11", 0 ],
					"hidden" : 0,
					"midpoints" : [  ]
				}

			}
, 			{
				"patchline" : 				{
					"source" : [ "obj-25", 0 ],
					"destination" : [ "obj-34", 2 ],
					"hidden" : 0,
					"midpoints" : [  ]
				}

			}
, 			{
				"patchline" : 				{
					"source" : [ "obj-19", 1 ],
					"destination" : [ "obj-16", 0 ],
					"hidden" : 0,
					"midpoints" : [ 296.5, 187.0, 375.5, 187.0 ]
				}

			}
, 			{
				"patchline" : 				{
					"source" : [ "obj-26", 0 ],
					"destination" : [ "obj-34", 1 ],
					"hidden" : 0,
					"midpoints" : [  ]
				}

			}
, 			{
				"patchline" : 				{
					"source" : [ "obj-5", 0 ],
					"destination" : [ "obj-30", 0 ],
					"hidden" : 0,
					"midpoints" : [  ]
				}

			}
, 			{
				"patchline" : 				{
					"source" : [ "obj-22", 0 ],
					"destination" : [ "obj-5", 0 ],
					"hidden" : 0,
					"midpoints" : [  ]
				}

			}
, 			{
				"patchline" : 				{
					"source" : [ "obj-24", 0 ],
					"destination" : [ "obj-34", 0 ],
					"hidden" : 0,
					"midpoints" : [  ]
				}

			}
, 			{
				"patchline" : 				{
					"source" : [ "obj-14", 0 ],
					"destination" : [ "obj-20", 0 ],
					"hidden" : 0,
					"midpoints" : [ 332.5, 168.0, 319.0, 168.0, 319.0, 146.0, 300.5, 146.0 ]
				}

			}
, 			{
				"patchline" : 				{
					"source" : [ "obj-17", 0 ],
					"destination" : [ "obj-15", 0 ],
					"hidden" : 0,
					"midpoints" : [  ]
				}

			}
, 			{
				"patchline" : 				{
					"source" : [ "obj-16", 0 ],
					"destination" : [ "obj-15", 0 ],
					"hidden" : 0,
					"midpoints" : [ 375.5, 209.0, 285.5, 209.0 ]
				}

			}
, 			{
				"patchline" : 				{
					"source" : [ "obj-19", 0 ],
					"destination" : [ "obj-17", 0 ],
					"hidden" : 0,
					"midpoints" : [  ]
				}

			}
, 			{
				"patchline" : 				{
					"source" : [ "obj-18", 0 ],
					"destination" : [ "obj-19", 0 ],
					"hidden" : 0,
					"midpoints" : [  ]
				}

			}
, 			{
				"patchline" : 				{
					"source" : [ "obj-20", 0 ],
					"destination" : [ "obj-18", 0 ],
					"hidden" : 0,
					"midpoints" : [  ]
				}

			}
 ]
	}

}
