max v2;#N vpatcher 0 44 610 796;#P origin 0 -34;#P window setfont "Sans Serif" 9.;#P newex 425 407 84 196617 colorchooser $3;#B color 5;#P newex 425 428 57 196617 pvar panel;#P comment 64 635 117 196617 bpat bkgnd = 256 X 558;#P window linecount 4;#P comment 31 696 187 196617 arg 1 : prefix name \; arg 2 : "more" button hide/show (0/1) \; arg 3 : color scheme choice (0 = movie \, 1 = tape \, 2 = camtrk \, 3 = conduite);#P window setfont Times 9.;#P window linecount 1;#P newex 318 56 18 1310729 t b;#P window setfont "Sans Serif" 9.;#P comment 373 28 176 196617 init and module param register write;#P comment 504 442 40 196617 switch;#P comment 480 286 66 196617 temp-preset;#P newex 462 220 112 196617 s $1/more/editor;#B color 11;#P newex 462 137 48 196617 loadbang;#P message 462 160 81 196617 brgb 0 200 180;#P newex 462 198 40 196617 t front;#P newex 462 178 57 196617 pvar more;#P window setfont Times 9.;#P newex 318 36 43 1310729 pvar init;#P newex 314 254 48 1310729 pvar open;#P newex 414 254 50 1310729 pvar recall;#P newex 364 254 48 1310729 pvar store;#P window setfont "Sans Serif" 9.;#P window linecount 2;#P message 318 76 114 196617 \; $1/init bang \;;#P window setfont "Sans Serif" 10.;#P window linecount 1;#P comment 121 2 114 196618 $1;#P user panel 123 2 112 16;#X brgb 116 116 116;#X frgb 0 0 0;#X border 0;#X rounded 8;#X shadow 0;#X done;#P objectname panel;#P window setfont Times 9.;#P newex 314 283 111 1310729 storetemppath $1;#B color 6;#P window setfont "Sans Serif" 9.;#P newex 423 367 50 196617 r $1/sw;#B color 5;#P user panel 0 0 256 620;#X brgb 255 255 255;#X frgb 198 198 198;#X border 1;#X rounded 0;#X shadow 0;#X done;#P background;#P connect 8 0 2 0;#P connect 9 0 18 0;#P connect 18 0 5 0;#P connect 6 0 2 1;#P connect 7 0 2 2;#P connect 1 0 22 0;#P connect 22 0 21 0;#P connect 13 0 12 0;#P connect 12 0 10 0;#P connect 10 0 11 0;#P connect 11 0 14 0;#P pop;