max v2;#N vpatcher 630 177 1336 782;#P origin 0 -5;#P window setfont "Sans Serif" 9.;#P window linecount 1;#P newex 425 407 84 196617 colorchooser $3;#B color 5;#P newex 425 428 57 196617 pvar panel;#P comment 353 500 117 196617 bpat bkgnd = 256 X 434;#P window linecount 4;#P comment 352 527 187 196617 arg 1 : prefix name \; arg 2 : "more" button hide/show (0/1) \; arg 3 : color scheme choice (0 = movie \, 1 = tape \, 2 = camtrk \, 3 = conduite);#P window setfont Times 9.;#P window linecount 1;#P newex 318 56 18 1310729 t b;#P window setfont "Sans Serif" 9.;#P comment 373 28 176 196617 init and module param register write;#P comment 504 442 40 196617 switch;#P comment 480 286 66 196617 temp-preset;#P newex 462 220 120 196617 s $1/more/editor;#B color 11;#P newex 462 137 48 196617 loadbang;#P message 462 160 81 196617 brgb 0 200 180;#P user jsui 236 2 19 15 1 0 0 m_toggle.js off on;#P objectname sw;#P newex 462 198 40 196617 t front;#P newex 462 178 57 196617 pvar more;#P newex 323 149 48 196617 loadbang;#N thispatcher;#Q end;#P newobj 276 213 61 196617 thispatcher;#P message 366 192 84 196617 script hide more;#P message 276 192 89 196617 script show more;#P toggle 276 150 15 0;#P newex 276 168 41 196617 sel 1 0;#P message 292 150 21 196617 $2;#P user jsui 23 2 30 15 1 0 0 jsui_textbutton.js more;#P objectname more;#P window setfont Times 9.;#P newex 318 36 43 1310729 pvar init;#P message 1 2 19 1310729 init;#B color 12;#P objectname init;#P newex 314 254 48 1310729 pvar open;#P newex 414 254 50 1310729 pvar recall;#P newex 364 254 48 1310729 pvar store;#P message 1 33 13 1310729 R;#B color 7;#P objectname recall;#P message 1 19 13 1310729 S;#B color 2;#P objectname store;#P message 1 47 13 1310729 O;#B color 9;#P objectname open;#P window setfont "Sans Serif" 9.;#P window linecount 2;#P message 318 76 114 196617 \; $1/init bang \;;#P window linecount 1;#P newex 358 363 77 196617 t b i;#P window setfont "Sans Serif" 10.;#P comment 121 2 114 196618 $1;#P user panel 123 2 112 16;#X brgb 116 116 116;#X frgb 0 0 0;#X border 0;#X rounded 8;#X shadow 0;#X done;#P objectname panel;#P window setfont Times 9.;#P newex 314 283 111 1310729 storetemppath $1;#B color 6;#P window setfont "Sans Serif" 9.;#P newex 304 320 52 196617 pvar sw;#P newex 304 340 64 196617 vari $1/sw;#B color 5;#P user hint 2 47 15 61 "open temp preset text (qlist)" 750 100 0 65535 65535 52428 9 3 0 1 0 0 0;#P user hint 2 33 15 48 "recall temp preset" 750 100 0 65535 65535 52428 9 3 0 1 0 0 0;#P user hint 2 19 15 33 "store temp preset" 750 100 0 65535 65535 52428 9 3 0 1 0 0 0;#P user hint 2 2 21 16 "initialize this module" 750 100 0 65535 65535 52428 9 3 0 1 0 0 0;#P comment 274 130 178 196617 more parameters option (arg 2 \, 1/0);#P user panel 0 0 256 434;#X brgb 255 255 255;#X frgb 198 198 198;#X border 1;#X rounded 4;#X shadow 0;#X done;#P background;#P connect 22 0 24 0;#P connect 24 0 23 0;#P connect 23 0 25 0;#P connect 25 0 27 0;#P fasten 26 0 27 0 371 210 281 210;#P fasten 28 0 22 0 328 169 319 169 319 147 297 147;#P fasten 6 0 7 0 309 362 300 362 300 316 309 316;#P connect 7 0 6 0;#P connect 18 0 8 0;#P connect 20 0 38 0;#P connect 38 0 12 0;#P connect 6 1 11 0;#P connect 16 0 8 1;#P fasten 23 1 26 0 296 188 371 188;#P connect 17 0 8 2;#P connect 11 1 42 0;#P connect 42 0 41 0;#P connect 33 0 32 0;#P connect 32 0 29 0;#P connect 29 0 30 0;#P connect 30 0 34 0;#P pop;