max v2;#N vpatcher 630 177 1256 749;#P origin 0 -7;#P window setfont "Sans Serif" 9.;#P window linecount 1;#P newex 425 408 84 196617 colorchooser $3;#B color 5;#P newex 425 429 57 196617 pvar panel;#P comment 45 453 117 196617 bpat bkgnd = 256 X 310;#P window linecount 4;#P comment 44 480 187 196617 arg 1 : prefix name \; arg 2 : "more" button hide/show (0/1) \; arg 3 : color scheme choice (0 = movie \, 1 = tape \, 2 = camtrk \, 3 = conduite);#P window setfont Times 9.;#P window linecount 1;#P newex 318 57 18 1310729 t b;#P window setfont "Sans Serif" 9.;#P comment 373 29 176 196617 init and module param register write;#P comment 504 443 40 196617 switch;#P comment 480 287 66 196617 temp-preset;#P newex 462 221 120 196617 s $1/more/editor;#B color 11;#P newex 462 138 48 196617 loadbang;#P message 462 161 81 196617 brgb 0 200 180;#P user jsui 236 3 19 15 1 0 0 m_toggle.js off on;#P objectname sw;#P newex 462 199 40 196617 t front;#P newex 462 179 57 196617 pvar more;#P newex 323 150 48 196617 loadbang;#N thispatcher;#Q end;#P newobj 276 214 61 196617 thispatcher;#P message 366 193 84 196617 script hide more;#P message 276 193 89 196617 script show more;#P toggle 276 151 15 0;#P newex 276 169 41 196617 sel 1 0;#P message 292 151 21 196617 $2;#P window setfont Times 9.;#P newex 318 37 43 1310729 pvar init;#P message 1 3 19 1310729 init;#B color 12;#P objectname init;#P newex 314 255 48 1310729 pvar open;#P newex 414 255 50 1310729 pvar recall;#P newex 364 255 48 1310729 pvar store;#P message 1 34 13 1310729 R;#B color 7;#P objectname recall;#P message 1 20 13 1310729 S;#B color 2;#P objectname store;#P message 1 48 13 1310729 O;#B color 9;#P objectname open;#P window setfont "Sans Serif" 9.;#P window linecount 2;#P message 318 77 114 196617 \; $1/init bang \;;#P window linecount 1;#P newex 358 364 77 196617 t b i;#P window setfont "Sans Serif" 10.;#P comment 121 3 114 196618 $1;#P user panel 123 3 112 16;#X brgb 116 116 116;#X frgb 0 0 0;#X border 0;#X rounded 8;#X shadow 0;#X done;#P objectname panel;#P window setfont Times 9.;#P newex 314 284 111 1310729 storetemppath $1;#B color 6;#P window setfont "Sans Serif" 9.;#P newex 304 321 52 196617 pvar sw;#P newex 304 341 64 196617 vari $1/sw;#B color 5;#P user hint 2 48 15 62 "open temp preset text (qlist)" 750 100 0 65535 65535 52428 9 3 0 1 0 0 0;#P user hint 2 34 15 49 "recall temp preset" 750 100 0 65535 65535 52428 9 3 0 1 0 0 0;#P user hint 2 20 15 34 "store temp preset" 750 100 0 65535 65535 52428 9 3 0 1 0 0 0;#P user hint 2 3 21 17 "initialize this module" 750 100 0 65535 65535 52428 9 3 0 1 0 0 0;#P comment 274 131 178 196617 more parameters option (arg 2 \, 1/0);#P user panel 0 1 256 434;#X brgb 255 255 255;#X frgb 198 198 198;#X border 1;#X rounded 4;#X shadow 0;#X done;#P background;#P connect 21 0 23 0;#P connect 23 0 22 0;#P connect 22 0 24 0;#P fasten 25 0 26 0 371 211 281 211;#P connect 24 0 26 0;#P fasten 27 0 21 0 328 170 319 170 319 148 297 148;#P fasten 6 0 7 0 309 363 300 363 300 317 309 317;#P connect 7 0 6 0;#P connect 18 0 8 0;#P connect 20 0 37 0;#P connect 37 0 12 0;#P connect 6 1 11 0;#P connect 16 0 8 1;#P fasten 22 1 25 0 296 189 371 189;#P connect 17 0 8 2;#P connect 11 1 41 0;#P connect 41 0 40 0;#P connect 32 0 31 0;#P connect 31 0 28 0;#P connect 28 0 29 0;#P connect 29 0 33 0;#P pop;