max v2;#N vpatcher 319 134 938 401;#P window setfont "Sans Serif" 9.;#P window linecount 1;#P newex 489 99 84 196617 colorchooser $2;#B color 5;#P newex 489 120 57 196617 pvar panel;#P window linecount 3;#P comment 43 134 187 196617 arg 1 : prefix name \; arg 2 : color scheme choice (0 = movie \, 1 = tape \, 2 = camtrk \, 3 = conduite);#P window linecount 1;#P comment 79 93 93 196617 panel = 256 X 62;#P toggle 294 37 15 0;#P comment 287 216 40 196617 switch;#P newex 366 56 133 196617 t b i;#P newex 313 36 63 196617 vari $1/sw;#B color 5;#P window setfont "Sans Serif" 10.;#P comment 123 1 115 196618 $1;#P user panel 123 1 112 16;#X brgb 116 116 116;#X frgb 0 0 0;#X border 0;#X rounded 8;#X shadow 0;#X done;#P objectname panel;#P user panel 0 0 256 62;#X brgb 255 255 255;#X frgb 198 198 198;#X border 1;#X rounded 0;#X shadow 0;#X done;#P background;#P connect 6 0 3 0;#P connect 3 1 4 0;#P connect 4 1 10 0;#P connect 10 0 9 0;#P pop;