max v2;#N vpatcher 389 380 955 795;#P origin -140 -281;#P user jsui 107 1 19 15 1 0 0 m_toggle.js off on;#P objectname sw;#P window setfont "Sans Serif" 9.;#P window linecount 1;#P newex 359 321 84 196617 colorchooser $3;#B color 5;#P newex 359 342 57 196617 pvar panel;#P comment 186 11 117 196617 bpat bkgnd = 128 X 62;#P window linecount 4;#P comment 5 67 187 196617 arg 1 : prefix name \; arg 2 : "more" button hide/show (0/1) \; arg 3 : color scheme choice (0 = movie \, 1 = tape \, 2 = camtrk \, 3 = conduite);#P window setfont Times 9.;#P window linecount 1;#P newex 252 90 18 1310729 t b;#P window setfont "Sans Serif" 9.;#P comment 307 62 176 196617 init and module param register write;#P comment 438 356 40 196617 switch;#P comment 414 200 66 196617 temp-preset;#P window setfont Times 9.;#P newex 252 70 43 1310729 pvar init;#P message 2 1 19 1310729 init;#B color 12;#P objectname init;#P newex 248 168 48 1310729 pvar open;#P newex 348 168 50 1310729 pvar recall;#P newex 298 168 48 1310729 pvar store;#P message 3 17 14 1310729 S;#B color 2;#P objectname store;#P message 3 45 14 1310729 O;#B color 9;#P objectname open;#P window setfont "Sans Serif" 9.;#P window linecount 2;#P message 252 110 114 196617 \; $1/init bang \;;#P window linecount 1;#P newex 292 277 77 196617 t b i;#P window setfont "Sans Serif" 10.;#P comment 20 1 83 196618 $1;#P user panel 22 1 82 15;#X brgb 116 116 116;#X frgb 0 0 0;#X border 0;#X rounded 8;#X shadow 0;#X done;#P objectname panel;#P window setfont Times 9.;#P newex 248 197 111 1310729 storetemppath $1;#B color 6;#P window setfont "Sans Serif" 9.;#P newex 238 234 52 196617 pvar sw;#P newex 238 254 64 196617 vari $1/sw;#B color 5;#P user hint 3 45 19 59 "open temp preset text (qlist)" 750 100 0 65535 65535 52428 9 3 0 1 0 0 0;#P user hint 3 19 18 33 "store temp preset" 750 100 0 65535 65535 52428 9 3 0 1 0 0 0;#P user hint 2 0 21 14 "initialize this module" 750 100 0 65535 65535 52428 9 3 0 1 0 0 0;#P window setfont Times 9.;#P message 3 31 14 1310729 R;#B color 7;#P objectname recall;#P user hint 3 31 18 44 "recall temp preset" 750 100 0 65535 65535 52428 9 3 0 1 0 0 0;#P user panel 0 0 128 62;#X brgb 255 255 255;#X frgb 198 198 198;#X border 1;#X rounded 4;#X shadow 0;#X done;#P fasten 6 0 7 0 243 276 234 276 234 230 243 230;#P connect 7 0 6 0;#P connect 17 0 8 0;#P connect 19 0 23 0;#P connect 23 0 12 0;#P connect 6 1 11 0;#P connect 15 0 8 1;#P connect 16 0 8 2;#P connect 11 1 27 0;#P connect 27 0 26 0;#P pop;