{
	"patcher" : 	{
		"fileversion" : 1,
		"rect" : [ 331.0, 257.0, 902.0, 527.0 ],
		"bgcolor" : [ 0.956863, 0.956863, 0.956863, 1.0 ],
		"bglocked" : 0,
		"defrect" : [ 331.0, 257.0, 902.0, 527.0 ],
		"openrect" : [ 0.0, 0.0, 0.0, 0.0 ],
		"openinpresentation" : 0,
		"default_fontsize" : 12.0,
		"default_fontface" : 0,
		"default_fontname" : "Arial",
		"gridonopen" : 0,
		"gridsize" : [ 15.0, 15.0 ],
		"gridsnaponopen" : 0,
		"toolbarvisible" : 1,
		"boxanimatetime" : 200,
		"imprint" : 0,
		"enablehscroll" : 1,
		"enablevscroll" : 1,
		"boxes" : [ 			{
				"box" : 				{
					"maxclass" : "message",
					"text" : "#1",
					"outlettype" : [ "" ],
					"patching_rect" : [ 381.0, 1.0, 115.0, 15.0 ],
					"id" : "obj-32",
					"fontname" : "Arial",
					"numinlets" : 2,
					"fontsize" : 9.0,
					"numoutlets" : 1,
					"ignoreclick" : 1
				}

			}
, 			{
				"box" : 				{
					"maxclass" : "toggle",
					"varname" : "sw",
					"outlettype" : [ "int" ],
					"patching_rect" : [ 496.0, 1.0, 15.0, 15.0 ],
					"id" : "obj-54",
					"numinlets" : 1,
					"numoutlets" : 1
				}

			}
, 			{
				"box" : 				{
					"maxclass" : "message",
					"text" : "255 255 255",
					"outlettype" : [ "" ],
					"patching_rect" : [ 648.0, 375.0, 61.0, 15.0 ],
					"id" : "obj-47",
					"fontname" : "Arial",
					"numinlets" : 2,
					"fontsize" : 9.0,
					"numoutlets" : 1
				}

			}
, 			{
				"box" : 				{
					"maxclass" : "newobj",
					"text" : "colorchooser5 #3",
					"outlettype" : [ "" ],
					"patching_rect" : [ 631.0, 352.0, 80.0, 17.0 ],
					"id" : "obj-2",
					"fontname" : "Arial",
					"numinlets" : 1,
					"color" : [ 1.0, 0.890196, 0.090196, 1.0 ],
					"fontsize" : 9.0,
					"numoutlets" : 1
				}

			}
, 			{
				"box" : 				{
					"maxclass" : "newobj",
					"text" : "bgcolor",
					"patching_rect" : [ 631.0, 397.0, 59.5, 17.0 ],
					"id" : "obj-3",
					"fontname" : "Arial",
					"numinlets" : 4,
					"fontsize" : 9.0,
					"numoutlets" : 0
				}

			}
, 			{
				"box" : 				{
					"maxclass" : "newobj",
					"text" : "pvar sw",
					"outlettype" : [ "" ],
					"patching_rect" : [ 586.0, 307.0, 52.0, 17.0 ],
					"id" : "obj-36",
					"fontname" : "Arial",
					"numinlets" : 1,
					"fontsize" : 9.0,
					"numoutlets" : 1
				}

			}
, 			{
				"box" : 				{
					"maxclass" : "newobj",
					"text" : "vari #1/sw",
					"outlettype" : [ "", "" ],
					"patching_rect" : [ 586.0, 327.0, 64.0, 17.0 ],
					"id" : "obj-37",
					"fontname" : "Arial",
					"numinlets" : 1,
					"color" : [ 1.0, 0.890196, 0.090196, 1.0 ],
					"fontsize" : 9.0,
					"numoutlets" : 2
				}

			}
, 			{
				"box" : 				{
					"maxclass" : "comment",
					"text" : "bpat bkgnd = 512 X 124",
					"patching_rect" : [ 27.0, 137.0, 117.0, 17.0 ],
					"id" : "obj-1",
					"fontname" : "Arial",
					"numinlets" : 1,
					"fontsize" : 9.0,
					"numoutlets" : 0
				}

			}
, 			{
				"box" : 				{
					"maxclass" : "comment",
					"text" : "arg 1 : prefix name;\rarg 2 : \"more\" button hide/show (0/1);\rarg 3 : color scheme choice (0 = movie, 1 = tape, 2 = camtrk, 3 = conduite)",
					"linecount" : 4,
					"patching_rect" : [ 26.0, 162.0, 187.0, 48.0 ],
					"id" : "obj-4",
					"fontname" : "Arial",
					"numinlets" : 1,
					"fontsize" : 9.0,
					"numoutlets" : 0
				}

			}
, 			{
				"box" : 				{
					"maxclass" : "newobj",
					"text" : "t b",
					"outlettype" : [ "bang" ],
					"patching_rect" : [ 588.0, 43.0, 18.0, 15.0 ],
					"id" : "obj-5",
					"fontname" : "Times Roman",
					"numinlets" : 1,
					"fontsize" : 9.0,
					"numoutlets" : 1
				}

			}
, 			{
				"box" : 				{
					"maxclass" : "comment",
					"text" : "init and module param register write",
					"patching_rect" : [ 643.0, 15.0, 176.0, 17.0 ],
					"id" : "obj-6",
					"fontname" : "Arial",
					"numinlets" : 1,
					"fontsize" : 9.0,
					"numoutlets" : 0
				}

			}
, 			{
				"box" : 				{
					"maxclass" : "comment",
					"text" : "temp-preset",
					"patching_rect" : [ 750.0, 273.0, 66.0, 17.0 ],
					"id" : "obj-8",
					"fontname" : "Arial",
					"numinlets" : 1,
					"fontsize" : 9.0,
					"numoutlets" : 0
				}

			}
, 			{
				"box" : 				{
					"maxclass" : "newobj",
					"text" : "s #1/more/editor",
					"patching_rect" : [ 732.0, 207.0, 116.0, 17.0 ],
					"id" : "obj-9",
					"fontname" : "Arial",
					"numinlets" : 1,
					"color" : [ 0.6, 0.6, 1.0, 1.0 ],
					"fontsize" : 9.0,
					"numoutlets" : 0
				}

			}
, 			{
				"box" : 				{
					"maxclass" : "newobj",
					"text" : "loadbang",
					"outlettype" : [ "bang" ],
					"patching_rect" : [ 732.0, 124.0, 48.0, 17.0 ],
					"id" : "obj-10",
					"fontname" : "Arial",
					"numinlets" : 1,
					"fontsize" : 9.0,
					"numoutlets" : 1
				}

			}
, 			{
				"box" : 				{
					"maxclass" : "message",
					"text" : "brgb 0 200 180",
					"outlettype" : [ "" ],
					"patching_rect" : [ 732.0, 147.0, 81.0, 15.0 ],
					"id" : "obj-11",
					"fontname" : "Arial",
					"numinlets" : 2,
					"fontsize" : 9.0,
					"numoutlets" : 1
				}

			}
, 			{
				"box" : 				{
					"maxclass" : "newobj",
					"text" : "t front",
					"outlettype" : [ "front" ],
					"patching_rect" : [ 732.0, 185.0, 40.0, 17.0 ],
					"id" : "obj-13",
					"fontname" : "Arial",
					"numinlets" : 1,
					"fontsize" : 9.0,
					"numoutlets" : 1
				}

			}
, 			{
				"box" : 				{
					"maxclass" : "newobj",
					"text" : "pvar more",
					"outlettype" : [ "" ],
					"patching_rect" : [ 732.0, 165.0, 57.0, 17.0 ],
					"id" : "obj-14",
					"fontname" : "Arial",
					"numinlets" : 1,
					"fontsize" : 9.0,
					"numoutlets" : 1
				}

			}
, 			{
				"box" : 				{
					"maxclass" : "newobj",
					"text" : "loadbang",
					"outlettype" : [ "bang" ],
					"patching_rect" : [ 593.0, 136.0, 48.0, 17.0 ],
					"id" : "obj-15",
					"fontname" : "Arial",
					"numinlets" : 1,
					"fontsize" : 9.0,
					"numoutlets" : 1
				}

			}
, 			{
				"box" : 				{
					"maxclass" : "newobj",
					"text" : "thispatcher",
					"outlettype" : [ "", "" ],
					"patching_rect" : [ 546.0, 200.0, 61.0, 17.0 ],
					"id" : "obj-16",
					"fontname" : "Arial",
					"numinlets" : 1,
					"fontsize" : 9.0,
					"numoutlets" : 2,
					"save" : [ "#N", "thispatcher", ";", "#Q", "end", ";" ]
				}

			}
, 			{
				"box" : 				{
					"maxclass" : "message",
					"text" : "script hide more",
					"outlettype" : [ "" ],
					"patching_rect" : [ 636.0, 179.0, 84.0, 15.0 ],
					"id" : "obj-17",
					"fontname" : "Arial",
					"numinlets" : 2,
					"fontsize" : 9.0,
					"numoutlets" : 1
				}

			}
, 			{
				"box" : 				{
					"maxclass" : "message",
					"text" : "script show more",
					"outlettype" : [ "" ],
					"patching_rect" : [ 546.0, 179.0, 89.0, 15.0 ],
					"id" : "obj-18",
					"fontname" : "Arial",
					"numinlets" : 2,
					"fontsize" : 9.0,
					"numoutlets" : 1
				}

			}
, 			{
				"box" : 				{
					"maxclass" : "toggle",
					"outlettype" : [ "int" ],
					"patching_rect" : [ 546.0, 137.0, 15.0, 15.0 ],
					"id" : "obj-19",
					"numinlets" : 1,
					"numoutlets" : 1
				}

			}
, 			{
				"box" : 				{
					"maxclass" : "newobj",
					"text" : "sel 1 0",
					"outlettype" : [ "bang", "bang", "" ],
					"patching_rect" : [ 546.0, 155.0, 41.0, 17.0 ],
					"id" : "obj-20",
					"fontname" : "Arial",
					"numinlets" : 1,
					"fontsize" : 9.0,
					"numoutlets" : 3
				}

			}
, 			{
				"box" : 				{
					"maxclass" : "message",
					"text" : "#2",
					"outlettype" : [ "" ],
					"patching_rect" : [ 562.0, 137.0, 21.0, 15.0 ],
					"id" : "obj-21",
					"fontname" : "Arial",
					"numinlets" : 2,
					"fontsize" : 9.0,
					"numoutlets" : 1
				}

			}
, 			{
				"box" : 				{
					"maxclass" : "jsui",
					"varname" : "more",
					"outlettype" : [ "" ],
					"nofsaa" : 1,
					"patching_rect" : [ 23.0, 1.0, 30.0, 15.0 ],
					"id" : "obj-22",
					"filename" : "jsui_textbutton.js",
					"numinlets" : 1,
					"numoutlets" : 1,
					"jsarguments" : [ "more" ]
				}

			}
, 			{
				"box" : 				{
					"maxclass" : "newobj",
					"text" : "pvar init",
					"outlettype" : [ "" ],
					"patching_rect" : [ 588.0, 23.0, 43.0, 15.0 ],
					"id" : "obj-23",
					"fontname" : "Times Roman",
					"numinlets" : 1,
					"fontsize" : 9.0,
					"numoutlets" : 1
				}

			}
, 			{
				"box" : 				{
					"maxclass" : "message",
					"varname" : "init",
					"text" : "init",
					"outlettype" : [ "" ],
					"patching_rect" : [ 1.0, 1.0, 21.0, 13.0 ],
					"bgcolor" : [ 0.4, 0.4, 0.8, 1.0 ],
					"id" : "obj-24",
					"fontname" : "Times Roman",
					"numinlets" : 2,
					"fontsize" : 9.0,
					"numoutlets" : 1
				}

			}
, 			{
				"box" : 				{
					"maxclass" : "newobj",
					"text" : "pvar open",
					"outlettype" : [ "" ],
					"patching_rect" : [ 584.0, 241.0, 48.0, 15.0 ],
					"id" : "obj-25",
					"fontname" : "Times Roman",
					"numinlets" : 1,
					"fontsize" : 9.0,
					"numoutlets" : 1
				}

			}
, 			{
				"box" : 				{
					"maxclass" : "newobj",
					"text" : "pvar recall",
					"outlettype" : [ "" ],
					"patching_rect" : [ 684.0, 241.0, 50.0, 15.0 ],
					"id" : "obj-26",
					"fontname" : "Times Roman",
					"numinlets" : 1,
					"fontsize" : 9.0,
					"numoutlets" : 1
				}

			}
, 			{
				"box" : 				{
					"maxclass" : "newobj",
					"text" : "pvar store",
					"outlettype" : [ "" ],
					"patching_rect" : [ 634.0, 241.0, 48.0, 15.0 ],
					"id" : "obj-27",
					"fontname" : "Times Roman",
					"numinlets" : 1,
					"fontsize" : 9.0,
					"numoutlets" : 1
				}

			}
, 			{
				"box" : 				{
					"maxclass" : "message",
					"varname" : "recall",
					"text" : "R",
					"outlettype" : [ "" ],
					"patching_rect" : [ 1.0, 32.0, 17.0, 13.0 ],
					"bgcolor" : [ 0.290196, 0.611765, 0.380392, 1.0 ],
					"id" : "obj-28",
					"fontname" : "Times Roman",
					"numinlets" : 2,
					"fontsize" : 9.0,
					"numoutlets" : 1
				}

			}
, 			{
				"box" : 				{
					"maxclass" : "message",
					"varname" : "store",
					"text" : "S",
					"outlettype" : [ "" ],
					"patching_rect" : [ 1.0, 18.0, 17.0, 13.0 ],
					"bgcolor" : [ 1.0, 0.741176, 0.611765, 1.0 ],
					"id" : "obj-29",
					"fontname" : "Times Roman",
					"numinlets" : 2,
					"fontsize" : 9.0,
					"numoutlets" : 1
				}

			}
, 			{
				"box" : 				{
					"maxclass" : "message",
					"varname" : "open",
					"text" : "O",
					"outlettype" : [ "" ],
					"patching_rect" : [ 1.0, 46.0, 17.0, 13.0 ],
					"bgcolor" : [ 0.611765, 0.701961, 1.0, 1.0 ],
					"id" : "obj-30",
					"fontname" : "Times Roman",
					"numinlets" : 2,
					"fontsize" : 9.0,
					"numoutlets" : 1
				}

			}
, 			{
				"box" : 				{
					"maxclass" : "message",
					"text" : ";\r#1/init bang;\r",
					"linecount" : 2,
					"outlettype" : [ "" ],
					"patching_rect" : [ 588.0, 63.0, 114.0, 25.0 ],
					"id" : "obj-31",
					"fontname" : "Arial",
					"numinlets" : 2,
					"fontsize" : 9.0,
					"numoutlets" : 1
				}

			}
, 			{
				"box" : 				{
					"maxclass" : "newobj",
					"text" : "storetempmap #1",
					"patching_rect" : [ 584.0, 270.0, 111.0, 15.0 ],
					"id" : "obj-35",
					"fontname" : "Times Roman",
					"numinlets" : 3,
					"color" : [ 0.156863, 0.8, 0.54902, 1.0 ],
					"fontsize" : 9.0,
					"numoutlets" : 0
				}

			}
, 			{
				"box" : 				{
					"maxclass" : "hint",
					"hint" : "open temp preset text (qlist)",
					"patching_rect" : [ 2.0, 46.0, 13.0, 14.0 ],
					"id" : "obj-38",
					"numinlets" : 1,
					"numoutlets" : 0
				}

			}
, 			{
				"box" : 				{
					"maxclass" : "hint",
					"hint" : "recall temp preset",
					"patching_rect" : [ 2.0, 32.0, 13.0, 15.0 ],
					"id" : "obj-39",
					"numinlets" : 1,
					"numoutlets" : 0
				}

			}
, 			{
				"box" : 				{
					"maxclass" : "hint",
					"hint" : "store temp preset",
					"patching_rect" : [ 2.0, 18.0, 13.0, 14.0 ],
					"id" : "obj-40",
					"numinlets" : 1,
					"numoutlets" : 0
				}

			}
, 			{
				"box" : 				{
					"maxclass" : "hint",
					"hint" : "initialize this module",
					"patching_rect" : [ 2.0, 1.0, 19.0, 14.0 ],
					"id" : "obj-41",
					"numinlets" : 1,
					"numoutlets" : 0
				}

			}
, 			{
				"box" : 				{
					"maxclass" : "comment",
					"text" : "more parameters option (arg 2, 1/0)",
					"patching_rect" : [ 544.0, 117.0, 178.0, 17.0 ],
					"id" : "obj-42",
					"fontname" : "Arial",
					"numinlets" : 1,
					"fontsize" : 9.0,
					"numoutlets" : 0
				}

			}
, 			{
				"box" : 				{
					"maxclass" : "panel",
					"patching_rect" : [ 0.0, 0.0, 512.0, 124.0 ],
					"bgcolor" : [ 1.0, 1.0, 1.0, 0.0 ],
					"border" : 1,
					"id" : "obj-43",
					"rounded" : 4,
					"bordercolor" : [ 0.776471, 0.776471, 0.776471, 1.0 ],
					"numinlets" : 1,
					"numoutlets" : 0
				}

			}
 ],
		"lines" : [ 			{
				"patchline" : 				{
					"source" : [ "obj-37", 0 ],
					"destination" : [ "obj-36", 0 ],
					"hidden" : 0,
					"midpoints" : [ 595.5, 349.0, 582.0, 349.0, 582.0, 303.0, 595.5, 303.0 ]
				}

			}
, 			{
				"patchline" : 				{
					"source" : [ "obj-36", 0 ],
					"destination" : [ "obj-37", 0 ],
					"hidden" : 0,
					"midpoints" : [  ]
				}

			}
, 			{
				"patchline" : 				{
					"source" : [ "obj-47", 0 ],
					"destination" : [ "obj-3", 0 ],
					"hidden" : 0,
					"midpoints" : [  ]
				}

			}
, 			{
				"patchline" : 				{
					"source" : [ "obj-37", 1 ],
					"destination" : [ "obj-2", 0 ],
					"hidden" : 0,
					"midpoints" : [  ]
				}

			}
, 			{
				"patchline" : 				{
					"source" : [ "obj-2", 0 ],
					"destination" : [ "obj-3", 0 ],
					"hidden" : 0,
					"midpoints" : [  ]
				}

			}
, 			{
				"patchline" : 				{
					"source" : [ "obj-13", 0 ],
					"destination" : [ "obj-9", 0 ],
					"hidden" : 0,
					"midpoints" : [  ]
				}

			}
, 			{
				"patchline" : 				{
					"source" : [ "obj-14", 0 ],
					"destination" : [ "obj-13", 0 ],
					"hidden" : 0,
					"midpoints" : [  ]
				}

			}
, 			{
				"patchline" : 				{
					"source" : [ "obj-11", 0 ],
					"destination" : [ "obj-14", 0 ],
					"hidden" : 0,
					"midpoints" : [  ]
				}

			}
, 			{
				"patchline" : 				{
					"source" : [ "obj-10", 0 ],
					"destination" : [ "obj-11", 0 ],
					"hidden" : 0,
					"midpoints" : [  ]
				}

			}
, 			{
				"patchline" : 				{
					"source" : [ "obj-26", 0 ],
					"destination" : [ "obj-35", 2 ],
					"hidden" : 0,
					"midpoints" : [  ]
				}

			}
, 			{
				"patchline" : 				{
					"source" : [ "obj-20", 1 ],
					"destination" : [ "obj-17", 0 ],
					"hidden" : 0,
					"midpoints" : [ 566.5, 175.0, 645.5, 175.0 ]
				}

			}
, 			{
				"patchline" : 				{
					"source" : [ "obj-27", 0 ],
					"destination" : [ "obj-35", 1 ],
					"hidden" : 0,
					"midpoints" : [  ]
				}

			}
, 			{
				"patchline" : 				{
					"source" : [ "obj-5", 0 ],
					"destination" : [ "obj-31", 0 ],
					"hidden" : 0,
					"midpoints" : [  ]
				}

			}
, 			{
				"patchline" : 				{
					"source" : [ "obj-23", 0 ],
					"destination" : [ "obj-5", 0 ],
					"hidden" : 0,
					"midpoints" : [  ]
				}

			}
, 			{
				"patchline" : 				{
					"source" : [ "obj-25", 0 ],
					"destination" : [ "obj-35", 0 ],
					"hidden" : 0,
					"midpoints" : [  ]
				}

			}
, 			{
				"patchline" : 				{
					"source" : [ "obj-15", 0 ],
					"destination" : [ "obj-21", 0 ],
					"hidden" : 0,
					"midpoints" : [ 602.5, 156.0, 589.0, 156.0, 589.0, 134.0, 570.5, 134.0 ]
				}

			}
, 			{
				"patchline" : 				{
					"source" : [ "obj-17", 0 ],
					"destination" : [ "obj-16", 0 ],
					"hidden" : 0,
					"midpoints" : [ 645.5, 197.0, 555.5, 197.0 ]
				}

			}
, 			{
				"patchline" : 				{
					"source" : [ "obj-18", 0 ],
					"destination" : [ "obj-16", 0 ],
					"hidden" : 0,
					"midpoints" : [  ]
				}

			}
, 			{
				"patchline" : 				{
					"source" : [ "obj-20", 0 ],
					"destination" : [ "obj-18", 0 ],
					"hidden" : 0,
					"midpoints" : [  ]
				}

			}
, 			{
				"patchline" : 				{
					"source" : [ "obj-19", 0 ],
					"destination" : [ "obj-20", 0 ],
					"hidden" : 0,
					"midpoints" : [  ]
				}

			}
, 			{
				"patchline" : 				{
					"source" : [ "obj-21", 0 ],
					"destination" : [ "obj-19", 0 ],
					"hidden" : 0,
					"midpoints" : [  ]
				}

			}
 ]
	}

}
