max v2;#N vpatcher 402 261 845 516;#P origin 37 19;#P window setfont "Sans Serif" 9.;#P window linecount 3;#P message 169 157 101 196617 border 1 \, shadow 1 \, brgb 219 150 150 \, frgb 146 50 50;#P window linecount 1;#P comment 46 73 46 196617 off color;#P message 79 111 265 196617 border 1 \, shadow 0 \, brgb 198 198 198 \, frgb 73 69 145;#P newex 22 48 32 196617 sel 0;#P message 22 87 277 196617 border 1 \, shadow 0 \, brgb 247 247 247 \, frgb 185 180 220;#P inlet 22 28 15 0;#P outlet 22 149 15 0;#P comment 192 73 46 196617 on color;#P connect 2 0 4 0;#P connect 4 0 3 0;#P connect 3 0 1 0;#P fasten 5 0 1 0 84 143 27 143;#P fasten 4 1 5 0 49 68 84 68;#P pop;