max v2;#N vpatcher 307 347 809 611;#P window setfont "Sans Serif" 9.;#P window linecount 1;#P hidden newex 166 560 91 196617 r /light/init/done;#B color 11;#P window linecount 2;#P hidden message 346 581 136 196617 ---------- initing light - please wait ----------;#P hidden message 166 581 156 196617 ---------- light initialisation is done ----------;#P window linecount 1;#P hidden newex 166 620 55 196617 print light;#B color 11;#P hidden button 388 310 15 0;#P hidden newex 388 289 71 196617 r /light/build;#B color 11;#P hidden newex 394 463 50 196617 del 1000;#P window setfont Times 9.;#P hidden newex 394 484 59 1310729 s /light/built;#B color 11;#P window setfont "Sans Serif" 9.;#P hidden newex 394 442 48 196617 loadbang;#P window linecount 3;#P hidden comment 445 444 80 196617 Must be present in module for build to happen !;#P hidden user panel 391 439 136 65;#X brgb 255 0 0;#X frgb 0 0 0;#X border 1;#X rounded 0;#X shadow 0;#X done;#P window linecount 1;#P hidden newex 189 503 93 196617 fixedsize 509 271;#B color 6;#P window linecount 2;#P hidden message 485 337 70 196617 \; /ch/init bang;#P window linecount 1;#P hidden newex 485 308 50 196617 del 1000;#P hidden newex 166 390 50 196617 del 1000;#P hidden newex 195 338 124 196617 s /light/storeallwindows;#B color 11;#P hidden newex 195 318 150 196617 r /tapemovie/storeallwindows;#B color 11;#P hidden message 269 47 252 196617 window flags grow \, window flags close \, window exec;#P hidden message 277 68 272 196617 window flags nogrow \, window flags noclose \, window exec;#P hidden message 293 416 33 196617 front;#N thispatcher;#Q end;#P hidden newobj 293 438 61 196617 thispatcher;#P hidden newex 293 393 44 196617 sel 194;#P hidden newex 293 372 40 196617 key;#P window setfont Times 9.;#N thispatcher;#Q end;#P hidden newobj 189 528 51 1310729 thispatcher;#P hidden button 14 466 15 0;#P window setfont "Sans Serif" 9.;#P hidden newex 14 485 108 196617 s yes_light_is_loaded;#B color 11;#P hidden newex 14 445 92 196617 r is_light_loaded?;#B color 11;#P hidden newex 189 482 155 196617 editorwindow /light /tapemovie;#B color 11;#P hidden newex 468 281 48 196617 loadbang;#P window linecount 2;#P hidden message 166 411 80 196617 \; /light/init bang;#P window setfont "Sans Serif" 14.;#P window linecount 1;#P hidden newex 15 321 158 196622 l_dimmer.edit /ch 0 1;#B color 1;#P hidden newex 15 348 102 196622 l_channel /ch;#B color 1;#P window setfont "Sans Serif" 9.;#P hidden newex 166 367 55 196617 r /ch/init;#B color 12;#P bpatcher 1 1 498 262 0 0 l_channel.edit.mxt 0 /ch 1 1;#P window setfont "Sans Serif" 14.;#P hidden newex 15 375 112 196622 l_patch-engine;#B color 1;#P objectname patch_file[3];#P hidden connect 8 0 10 0;#P hidden connect 10 0 9 0;#P hidden connect 2 0 20 0;#P hidden connect 20 0 5 0;#P hidden connect 34 0 32 0;#P hidden connect 33 0 31 0;#P hidden connect 32 0 31 0;#P hidden fasten 11 0 7 0 194 554 350 554 350 477 194 477;#P hidden connect 7 0 23 0;#P hidden connect 23 0 11 0;#P hidden connect 18 0 19 0;#P hidden fasten 6 0 16 0 473 418 326 410;#P hidden connect 12 0 13 0;#P hidden connect 13 0 15 0;#P hidden connect 16 0 14 0;#P hidden connect 17 0 14 0;#P hidden connect 15 0 14 0;#P hidden connect 30 0 33 0;#P hidden connect 29 0 30 0;#P hidden connect 26 0 28 0;#P hidden connect 28 0 27 0;#P hidden connect 30 0 21 0;#P hidden connect 21 0 22 0;#P pop;