max v2;#N vpatcher 5 44 550 643;#P window setfont "Sans Serif" 9.;#P window linecount 1;#P newex 49 458 130 196617 r $1/out/interface_list;#B color 12;#P newex 26 502 77 196617 pvar typeout 2;#B color 14;#P newex 26 425 179 196617 variedit $1/out/interface $1;#B color 12;#P comment 335 41 77 196617 /out/interface;#B frgb 0 0 200;#P user umenu 409 39 100 196647 1 64 55 0;#P objectname typeout;#P window setfont "Sans Serif" 18.;#P comment 294 218 128 196626 before save :;#P window setfont "Sans Serif" 9.;#P newex 9 268 200 196617 r $1/in/interface_list;#B color 12;#P comment 116 3 45 196617 /update;#B frgb 0 0 200;#P newex 9 316 71 196617 pvar typein 2;#B color 14;#P newex 25 294 173 196617 variedit $1/in/interface $1;#B color 12;#P newex 9 241 63 196617 pvar update;#B color 14;#P newex 9 222 168 196617 vari $1/update;#B color 12;#P button 158 2 15 0;#P objectname update;#P user umenu 409 20 100 196647 1 64 36 0;#P objectname typein;#P comment 335 21 71 196617 /in/interface;#B frgb 0 0 200;#P bpatcher 0 60 512 124 0 0 multimapsendu.edit.mxt 0 $1 /tapemovie;#P newex 21 382 142 196617 variedit $1/in/notelist/print;#B color 12;#P newex 21 356 83 196617 pvar printnotein;#B color 14;#P toggle 218 41 15 0;#P objectname printnotein;#P comment 231 43 90 196617 /print/notein/sw;#B frgb 0 0 200;#P comment 24 42 64 196617 /in/notelist;#B frgb 0 0 222;#P message 467 223 33 196617 clear;#P newex 303 441 58 196617 pvar notes;#B color 14;#P newex 303 421 62 196617 prepend set;#P user textedit 83 41 126 57 32897 3 9;#P objectname notes;#P newex 303 400 173 196617 r $1/in/notelist;#B color 12;#P bpatcher 0 0 512 62 0 0 bkgnd12.mxt 0 $1 1 3;#P objectname background;#P fasten 16 0 15 0 14 260 6 260 6 219 14 219;#P connect 15 0 16 0;#P connect 5 0 18 0;#P lcolor 1;#P connect 20 0 18 0;#P connect 17 0 18 0;#P fasten 10 0 9 0 26 403 15 403 15 353 26 353;#P connect 9 0 10 0;#P fasten 18 1 17 0 75 338 208 338 208 287 30 287;#P fasten 25 1 24 0 98 536 17 536 17 410 31 410;#P connect 5 0 25 0;#P lcolor 1;#P fasten 24 0 25 0 31 499 31 499;#P connect 26 0 25 0;#P connect 1 0 3 0;#P connect 3 0 4 0;#P connect 5 0 4 0;#P lcolor 1;#P pop;