max v2;#N vpatcher 464 344 766 676;#P hidden inlet 204 375 15 0;#P button 85 323 15 0;#P window setfont "Sans Serif" 9.;#P window linecount 1;#P comment 103 323 39 196617 delete;#P button 19 323 15 0;#P comment 36 323 31 196617 build;#P hidden newex 134 351 129 196617 editorwindow /vst2 /tape;#B color 6;#N thispatcher;#Q end;#P hidden newobj 134 381 61 196617 thispatcher;#P window linecount 0;#P comment 2376 0 100 196617;#P window linecount 1;#P hidden newex 19 351 106 196617 t_edit-builder vst2 2;#B color 6;#P window linecount 0;#P comment 1 0 100 196617;#P hidden connect 6 0 1 0;#P hidden connect 8 0 1 1;#P hidden fasten 3 0 4 0 139 402 267 402 267 347 139 347;#P hidden fasten 1 0 3 0 24 376 139 376;#P hidden connect 4 0 3 0;#P pop;