max v2;#N vpatcher 0 44 1430 824;#P window setfont "Sans Serif" 9.;#P window linecount 1;#P comment 978 256 333 196617 This have to be fixed because it's pretty buggy… I'm not the best UI guy;#P message 519 135 35 196617 write;#P newex 519 156 179 196617 s $1/file;#B color 12;#P newex 519 112 55 196617 pvar save;#B color 14;#P comment 39 18 31 196617 write;#B frgb 222 0 0;#P button 23 17 15 0;#P objectname save;#P newex 496 686 56 196617 route text;#P newex 187 687 56 196617 route text;#P newex 496 709 273 196617 s $1/nextcomment/from;#B color 12;#P newex 187 710 287 196617 s $1/onstagecomment/from;#B color 12;#P newex 187 641 259 196617 r $1/onstagecomment;#B color 12;#P newex 496 641 245 196617 r $1/nextcomment;#B color 12;#P newex 904 71 187 196617 variedit $1/step/ready $1;#B color 12;#P newex 612 359 62 196617 prepend set;#B color 12;#P newex 904 51 187 196617 variedit $1/autocue/time $1;#B color 12;#P newex 904 25 94 196617 pvar autocue/time;#B color 14;#P number 180 2 35 9 0 0 32 3 0 0 0 255 255 255 222 222 222 0 0 0;#P objectname autocue/time;#P comment 107 3 76 196617 /autocue/time;#B frgb 0 0 222;#P comment 214 3 34 196617 /loop;#B frgb 0 0 222;#P toggle 245 2 14 0;#P objectname loop;#P toggle 95 2 14 0;#P objectname autocue;#P comment 52 3 50 196617 /autocue;#B frgb 0 0 222;#P newex 712 113 187 196617 variedit $1/loop $1;#B color 12;#P newex 712 87 78 196617 pvar loop;#B color 14;#P newex 712 52 187 196617 variedit $1/autocue $1;#B color 12;#P newex 712 26 78 196617 pvar autocue;#B color 14;#P newex 1160 569 144 196617 variedit $1/edit/mode $1;#B color 12;#P newex 1029 569 83 196617 pvar editmode 2;#B color 14;#P newex 612 338 104 196617 r $1/next;#B color 12;#P newex 112 469 262 196617 variedit $1/step/current $1;#B color 12;#P newex 561 513 50 196617 deferlow;#B color 12;#P window linecount 6;#P message 502 482 53 196617 brgb 222 16 108 \, rgb3 222 16 108 \, frgb 255 255 255;#P window linecount 1;#P message 561 534 225 196617 brgb 16 216 108 \, rgb3 16 216 108 \, frgb 0 0 0;#P newex 561 471 101 196617 sprintf set %s/done;#B color 12;#P newex 561 492 14 196617 r;#B color 12;#P newex 399 326 129 196617 vari $1/step/next;#B color 12;#P newex 399 388 89 196617 pvar nextposition;#B color 14;#P newex 112 446 103 196617 pvar currentposition;#B color 14;#P window setfont "Sans Serif" 14.;#P number 19 80 67 14 0 0 32 3 0 0 0 255 255 255 222 222 222 0 0 0;#P objectname currentposition;#P number 19 43 67 14 0 0 32 3 0 0 0 255 255 255 222 222 222 0 0 0;#P objectname nextposition;#P window setfont "Sans Serif" 9.;#P newex 496 663 103 196617 pvar nextcomment 2;#B color 14;#P newex 187 664 108 196617 pvar onstagecomment;#B color 14;#P window setfont "Sans Serif" 14.;#P comment 22 101 35 196622 /go;#B frgb 181 1 5;#P objectname text_nextevent[2];#P comment 23 63 68 196622 /current;#B frgb 0 0 222;#P objectname text_nextevent[1];#P window setfont "Sans Serif" 9.;#P newex 384 474 78 196617 prepend append;#P newex 384 450 189 196617 t l clear b l;#P newex 384 427 102 196617 r $1/current;#B color 12;#P newex 384 587 68 196617 pvar onstage;#B color 14;#P newex 1131 502 187 196617 variedit $1/go $1;#B color 12;#P newex 1131 479 44 196617 pvar go;#B color 14;#P number 325 2 35 9 0 200 35 3 0 0 0 255 255 255 222 222 222 0 0 0;#P objectname shortcugo;#P newex 1095 48 187 196617 variedit $1/shortcut/go $1;#B color 12;#P newex 1095 22 78 196617 pvar shortcugo;#B color 14;#P comment 258 3 68 196617 /shortcut/go;#B frgb 0 0 222;#P newex 15 200 52 196617 r $1/init;#B color 12;#P message 16 239 33 196617 clear;#P newex 530 265 56 196617 route text;#P newex 493 350 114 196617 r $1/tosequence-menu;#B color 12;#P newex 493 385 111 196617 pvar sequence-menu 2;#B color 14;#P newex 594 405 222 196617 s $1/fromsequence-menu;#B color 12;#P message 519 71 30 196617 open;#P newex 519 49 60 196617 route front;#P newex 519 27 188 196617 r $1/more/editor;#B color 12;#N coll $1 1;#P newobj 519 91 149 196617 coll $1 1;#B color 5;#P newex 809 265 162 196617 s $1/edit/store;#B color 12;#P newex 809 241 58 196617 pvar store;#B color 14;#P newex 620 265 187 196617 vari $1/edit/position;#B color 12;#P newex 620 241 66 196617 pvar position;#B color 14;#P newex 530 218 238 196617 vari $1/edit/name;#B color 12;#P newex 338 269 180 196617 s $1/fromcue-menu;#B color 12;#P newex 285 222 167 196617 r $1/tocue-menu;#B color 12;#P newex 140 268 192 196617 s $1/fromfolder-menu;#B color 12;#P newex 79 225 179 196617 r $1/tofolder-menu;#B color 12;#P newex 702 157 144 196617 s $1/update;#B color 12;#P newex 530 241 68 196617 pvar cuetext;#B color 14;#P message 15 273 33 196617 clear;#P newex 285 247 63 196617 pvar files 2;#B color 14;#P newex 80 247 70 196617 pvar folder 2;#B color 14;#P comment 1233 203 40 196617 /store;#B frgb 0 0 222;#P button 1247 214 21 0;#P objectname store;#P window setfont "Sans Serif" 14.;#P comment 38 24 48 196622 /next;#B frgb 0 0 222;#P objectname text_nextevent;#P window setfont "Sans Serif" 12.;#P user textedit 88 94 508 123 32897 3 12;#P objectname onstagecomment;#P window setfont "Sans Serif" 14.;#P user ubumenu 88 19 420 196622 0 1 1 2;#X setrgb 31 31 31 133 133 255 234 234 234 4 4 4 141 141 141 112 112 112;#X prefix_set 0 0 <none> 0;#P objectname sequence-menu;#P number 1178 214 67 14 0 0 32 3 0 0 0 255 255 255 222 222 222 0 0 0;#P objectname position;#P window setfont "Sans Serif" 9.;#P user textedit 984 213 1174 236 32897 3 9;#P objectname cuetext;#P user ubumenu 881 219 100 196617 0 1 1 0;#X prefix_set 0 0 <none> 0;#P objectname files;#P user ubumenu 776 219 100 196617 0 1 1 0;#X prefix_set 0 0 <none> 0;#P objectname folder;#P user textedit 88 43 508 71 32897 3 9;#P objectname nextcomment;#P window setfont "Sans Serif" 14.;#P user ubumenu 88 73 420 196622 1 0 0 2;#X setrgb 0 0 0 16 216 108 255 255 255 4 4 4 16 216 108 16 207 108;#X prefix_set 0 0 <none> 0;#P objectname onstage;#P window setfont "Sans Serif" 9.;#P comment 1181 203 51 196617 /position;#B frgb 0 0 222;#P user panel 80 195 1278 121;#X brgb 191 191 191;#X frgb 0 0 0;#X border 1;#X rounded 0;#X shadow 0;#X done;#P window setfont "Sans Serif" 14.;#P number 1215 402 67 14 0 0 32 3 0 0 0 255 255 255 222 222 222 0 0 0;#P objectname currentpositionreal;#P number 1215 353 67 14 0 0 32 3 0 0 0 255 255 255 222 222 222 0 0 0;#P objectname nextpositionreal;#P window setfont "Sans Serif" 9.;#P newex 1020 359 166 196617 variedit $1/real-step/current $1;#B color 12;#P newex 1020 385 152 196617 variedit $1/real-step/next $1;#B color 12;#P newex 891 386 107 196617 pvar nextpositionreal;#B color 14;#P newex 891 359 121 196617 pvar currentpositionreal;#B color 14;#P window linecount 2;#P comment 885 424 367 196617 This have to be removed from cuesheet system \, it's a shame to have to give an index to each cue you want ot stock… Try to use dict maybe for the next time;#P user panel 884 331 446 122;#X brgb 191 191 191;#X frgb 0 0 0;#X border 1;#X rounded 0;#X shadow 0;#X done;#P window linecount 0;#P comment 52 27 100 196617;#P user ubutton 1 101 85 19 0 2;#P objectname go;#P user panel 1 101 85 21;#X brgb 255 255 255;#X frgb 147 147 147;#X border 1;#X rounded 0;#X shadow 0;#X done;#P bpatcher 0 0 512 124 0 0 bkgnd22.mxt 0 $1 1 3;#P connect 48 0 47 0;#P connect 27 0 25 0;#P lcolor 1;#P connect 30 0 25 0;#P fasten 73 0 65 0 117 494 106 494 106 439 117 439;#P connect 65 0 73 0;#P connect 25 1 31 0;#P connect 27 0 61 0;#P lcolor 1;#P connect 92 0 61 0;#P connect 61 0 95 0;#P connect 95 0 93 0;#P connect 47 0 26 0;#P lcolor 1;#P connect 27 0 26 0;#P lcolor 1;#P connect 32 0 26 0;#P connect 26 1 33 0;#P connect 56 0 57 0;#P connect 57 0 58 0;#P connect 47 0 55 0;#P connect 27 0 55 0;#P lcolor 1;#P connect 57 1 55 0;#P connect 71 0 55 0;#P connect 70 0 55 0;#P connect 58 0 55 0;#P fasten 66 0 67 0 404 410 391 410 391 322 404 322;#P fasten 44 0 67 0 498 415 384 415 384 318 404 318;#P connect 67 0 66 0;#P connect 27 0 44 0;#P lcolor 1;#P connect 67 0 44 0;#P connect 45 0 44 0;#P connect 89 0 44 0;#P connect 27 0 62 0;#P lcolor 1;#P connect 91 0 62 0;#P connect 62 0 96 0;#P connect 96 0 94 0;#P connect 57 2 71 0;#P connect 40 0 41 0;#P connect 41 0 42 0;#P connect 42 0 39 0;#P connect 99 0 101 0;#P connect 101 0 100 0;#P fasten 46 0 34 0 535 286 527 286 527 218 535 218;#P connect 34 0 28 0;#P connect 47 0 28 0;#P lcolor 1;#P connect 27 0 28 0;#P lcolor 1;#P connect 28 0 46 0;#P connect 57 3 69 0;#P connect 69 0 68 0;#P connect 68 0 72 0;#P connect 72 0 70 0;#P connect 48 0 70 0;#P connect 44 1 43 0;#P connect 74 0 89 0;#P connect 36 0 35 0;#P connect 35 0 36 0;#P fasten 99 0 29 0 524 132 707 132;#P connect 78 0 77 0;#P connect 77 0 78 0;#P connect 80 0 79 0;#P connect 79 0 80 0;#P connect 37 0 38 0;#P connect 9 0 6 0;#P connect 8 0 7 0;#P connect 88 0 87 0;#P connect 87 0 88 0;#P connect 6 0 9 0;#P connect 7 0 8 0;#P connect 76 0 75 0;#P connect 51 0 50 0;#P connect 50 0 51 0;#P connect 54 0 53 0;#P connect 53 0 54 0;#P connect 75 1 76 0;#P pop;