max v2;#N vpatcher 20 206 681 630;#P origin 0 -55;#P window setfont "Sans Serif" 9.;#P message 241 101 50 196617 readagain;#P window setfont "Sans Serif" 14.;#N vpatcher 20 74 508 328;#P window setfont "Sans Serif" 9.;#P message 67 112 22 196617 set;#P newex 66 90 43 196617 route 0;#P newex 50 139 27 196617 sel;#P newex 50 50 40 196617 key;#B color 5;#P newex 66 69 335 196617 makeparam $1/shortcut/go $1 i 32 0 200;#B color 11;#P newex 50 163 88 196617 s $1/go;#B color 12;#P connect 2 0 3 0;#P connect 3 0 0 0;#P connect 1 0 4 0;#P connect 4 0 5 0;#P connect 4 1 3 1;#P connect 5 0 3 1;#P pop;#P newobj 11 84 91 196622 p shortcuts;#B color 6;#P window linecount 2;#P comment 140 21 482 196622 YOU CAN PUT TIMES IN MILLISECONDES BETWEEN CUENAME IN A LIST of cues;#B frgb 222 0 0;#P window linecount 1;#P comment 140 3 386 196622 FOR ONE STEP \, YOU COULD HAVE MORE THAN ONE CUE;#B frgb 222 0 0;#N vpatcher 1024 62 1520 469;#P window setfont "Sans Serif" 9.;#P message 100 330 14 196617 0;#P newex 140 364 29 196617 gate;#B color 12;#P newex 218 368 62 196617 s /external;#B color 12;#P newex 206 336 186 196617 r $1/external/sw;#B color 12;#P newex 207 311 231 196617 prepend $1/tosequence-menu;#B color 12;#P newex 186 212 29 196617 gate;#P newex 186 185 238 196617 makeparam $1/step/ready $1 t 1;#B color 12;#P newex 17 276 42 196617 pack i i;#P newex 143 234 51 196617 tosymbol;#P message 143 170 23 196617 end;#P newex 143 256 90 196617 sprintf append %s;#N coll $1-steps 1;#P newobj 17 375 80 196617 coll $1-steps 1;#B color 5;#P newex 130 303 62 196617 prepend set;#P newex 17 172 69 196617 route symbol;#P newex 17 214 123 196617 t b l;#P newex 17 333 40 196617 append;#N counter;#X flags 0 0;#P newobj 17 235 83 196617 counter;#P newex 143 278 252 196617 s $1/tosequence-menu;#B color 12;#P button 17 81 15 0;#P newex 17 57 238 196617 r $1/sequence-menu/update;#B color 12;#P window setfont "Sans Serif" 14.;#P comment 45 80 194 196622 FILL-IN SEQUENCE-MENU;#P window setfont "Sans Serif" 9.;#P newex 29 125 238 196617 r $1/tocoll;#B color 12;#P newex 17 102 190 196617 t dump ready 0 clear;#N coll $1 1;#P newobj 17 148 137 196617 coll $1 1;#B color 5;#P connect 4 0 5 0;#P connect 5 0 1 0;#P connect 1 0 0 0;#P connect 2 0 0 0;#P connect 0 0 10 0;#P connect 18 0 9 0;#P connect 14 0 9 0;#P connect 10 0 9 0;#P connect 10 1 9 0;#P connect 9 0 7 0;#P connect 7 0 16 0;#P connect 11 0 8 0;#P connect 16 0 8 0;#P connect 1 3 12 0;#P connect 8 0 12 0;#P connect 23 0 12 0;#P connect 0 1 16 1;#P connect 1 2 7 2;#P connect 0 3 23 0;#P connect 9 1 11 0;#P connect 20 0 22 0;#P connect 0 3 14 0;#P connect 9 1 15 0;#P connect 15 0 13 0;#P connect 13 0 6 0;#P connect 1 3 6 0;#P connect 19 0 22 1;#P connect 17 0 18 0;#P connect 1 1 18 1;#P connect 13 0 19 0;#P connect 1 3 19 0;#P connect 22 0 21 0;#P pop;#P newobj 11 6 122 196622 p make step-file;#B color 6;#N vpatcher 20 74 617 650;#P window setfont "Sans Serif" 9.;#P window linecount 1;#P newex 370 498 68 196617 prepend send;#P newex 370 474 199 196617 makeparam $1/dest $1 s /events.1/play;#B color 12;#P newex 354 526 47 196617 forward;#B color 12;#P newex 342 355 101 196617 sprintf set %s/done;#P newex 342 378 14 196617 r;#P newex 170 127 27 196617 + 1;#P newex 21 59 159 196617 t l l;#P newex 170 150 38 196617 gate 2;#P newex 170 104 27 196617 > 1;#P newex 170 81 34 196617 zl len;#P newex 21 37 167 196617 r $1/current;#B color 12;#P newex 170 474 195 196617 route ready end;#B color 12;#P newex 198 326 50 196617 t b i stop;#P window linecount 0;#P newex 288 325 241 196617 t l l 10 stop;#P newex 198 301 90 196617 route int;#P message 324 230 14 196617 0;#P newex 242 438 34 196617 gate;#P newex 198 230 78 196617 t b i b;#P newex 198 278 44 196617 zl nth;#N counter 1 2;#X flags 0 0;#P newobj 198 208 137 196617 counter 1 2;#P newex 266 412 186 196617 del 10;#P newex 198 174 98 196617 t b 1 l;#P newex 198 255 98 196617 zl reg;#P comment 213 156 217 196617 if there is some integers \, they are wait times;#P connect 13 0 17 0;#P connect 17 1 14 0;#P connect 14 0 15 0;#P connect 15 0 18 0;#P connect 18 0 16 0;#P connect 16 0 12 0;#P lcolor 15;#P connect 10 0 12 0;#P lcolor 15;#P connect 17 0 16 1;#P connect 16 1 2 0;#P connect 2 0 4 0;#P fasten 7 0 4 0 247 462 190 462 190 194 203 194;#P connect 4 0 6 0;#P connect 6 0 1 0;#P connect 1 0 5 0;#P connect 5 0 9 0;#P connect 9 0 11 0;#P connect 6 1 5 1;#P connect 8 0 7 0;#P lcolor 2;#P connect 2 1 7 0;#P lcolor 2;#P connect 2 1 4 2;#P connect 11 0 3 0;#P lcolor 8;#P connect 11 2 3 0;#P lcolor 8;#P connect 6 2 3 0;#P lcolor 8;#P connect 19 0 3 0;#P lcolor 8;#P connect 10 3 3 0;#P lcolor 8;#P connect 3 0 7 1;#P connect 2 2 1 1;#P connect 9 1 10 0;#P connect 14 0 4 4;#P connect 4 3 8 0;#P connect 10 1 20 0;#P connect 20 0 19 0;#P connect 12 2 21 0;#P connect 23 0 21 0;#P connect 22 0 23 0;#P connect 11 1 3 1;#P lcolor 13;#P connect 10 2 3 1;#P lcolor 13;#P pop;#P newobj 11 58 204 196622 p PLAY CUE (or list of cues);#B color 6;#N vpatcher 122 44 1055 792;#P origin 0 -12;#P window setfont "Sans Serif" 9.;#P window linecount 1;#P newex 464 409 62 196617 s /external;#B color 12;#P window setfont "Sans Serif" 14.;#P window linecount 0;#N vpatcher 10 59 282 318;#P window setfont "Sans Serif" 9.;#P window linecount 1;#P newex 74 107 164 196617 r $1/go/interval;#B color 12;#P newex 2 55 87 196617 route 0 1. bang 1;#P newex 2 29 130 196617 r $1/go;#B color 12;#P outlet 84 213 15 0;#P window linecount 0;#P newex 40 157 21 196617 t 1;#P newex 84 186 54 196617 gate;#P newex 40 133 44 196617 del 200;#P newex 40 81 98 196617 t b 0 b;#P connect 5 0 6 0;#P connect 6 1 0 0;#P connect 6 2 0 0;#P connect 6 3 0 0;#P connect 0 0 1 0;#P connect 1 0 3 0;#P connect 7 0 1 1;#P connect 0 1 2 0;#P fasten 3 0 2 0 45 180 89 180;#P connect 2 0 4 0;#P connect 0 2 2 1;#P pop;#P newobj 6 41 75 196622 p iPad-go;#B color 6;#P window setfont "Sans Serif" 9.;#P window linecount 1;#P newex 656 110 30 196617 t b b;#P newex 602 110 30 196617 t b b;#P window linecount 0;#P newex 478 80 27 196617 i;#P window linecount 1;#P newex 481 131 237 196617 s $1/step/next;#B color 12;#P newex 548 249 126 196617 prepend $1/step/current;#P newex 497 353 155 196617 prepend $1/step/current/name;#P newex 588 73 32 196617 sel 1;#P newex 513 52 32 196617 sel 1;#P newex 547 50 331 196617 makeparam $1/step/next/dec $1 b;#B color 12;#P newex 518 32 331 196617 makeparam $1/step/next/inc $1 b;#B color 12;#P message 547 82 24 196617 dec;#P message 518 82 22 196617 inc;#P number 481 106 35 9 0 0 0 3 0 0 0 221 221 221 222 222 222 0 0 0;#P user incdec 518 106 15 15 0 0;#P newex 464 386 50 196617 deferlow;#B color 12;#P newex 464 315 141 196617 prepend $1/step/next/name;#P toggle 408 475 15 0;#P window setfont "Sans Serif" 14.;#P window linecount 0;#N vpatcher 10 59 484 277;#P window setfont "Sans Serif" 9.;#P window linecount 1;#P newex 196 125 127 196617 prepend $1/nextcomment;#B color 14;#P newex 16 125 141 196617 prepend $1/onstagecomment;#B color 14;#P outlet 16 174 15 0;#P window linecount 0;#P newex 50 77 62 196617 prepend set;#B color 14;#P window setfont "Sans Serif" 12.;#N vpatcher 295 370 526 777;#P origin -142 44;#P window setfont "Sans Serif" 9.;#P window linecount 1;#P newex 23 62 51 196617 zl slice 1;#P window linecount 0;#P newex 23 153 51 196617 tosymbol;#P newex 23 175 68 196617 prepend read;#P newex 138 110 51 196617 tosymbol;#P newex 44 304 20 196617 t -;#P newex 23 275 122 196617 route ** **comment**;#P newex 23 247 51 196617 route set;#P message 40 201 35 196617 line 1;#P newex 23 84 112 196617 t b s;#P newex 23 133 125 196617 sprintf %sevents/%s.txt;#P newex 23 110 62 196617 projectpath;#B color 5;#P newex 23 219 40 196617 text;#N comlet to coll;#P outlet 23 361 15 0;#P inlet 23 41 15 0;#P newex 23 337 51 196617 tosymbol;#P connect 1 0 14 0;#P connect 14 0 6 0;#P connect 6 0 4 0;#P connect 4 0 5 0;#P connect 5 0 13 0;#P connect 13 0 12 0;#P connect 7 0 3 0;#P connect 12 0 3 0;#P connect 3 0 8 0;#P connect 8 0 9 0;#P connect 10 0 0 0;#P connect 9 0 0 0;#P connect 0 0 2 0;#P fasten 3 1 7 0 43 240 79 240 79 197 45 197;#P connect 9 1 10 0;#P connect 9 2 10 0;#P connect 6 1 11 0;#P connect 11 0 5 1;#P pop;#P newobj 50 50 193 196620 p comment et pos-> sequentiel;#B color 6;#P window setfont "Sans Serif" 9.;#P newex 50 100 111 196617 s $1/onstagecomment;#B color 14;#P newex 249 79 62 196617 prepend set;#B color 14;#P newex 249 99 97 196617 s $1/nextcomment;#B color 14;#P window setfont "Sans Serif" 12.;#N vpatcher 295 370 535 787;#P origin -172 44;#P window setfont "Sans Serif" 9.;#P window linecount 1;#P newex 154 44 51 196617 zl slice 1;#P newex 0 48 81 196617 route ready end;#P window linecount 0;#P newex 53 142 51 196617 tosymbol;#P newex 53 164 68 196617 prepend read;#P newex 168 99 51 196617 tosymbol;#P newex 74 293 20 196617 t -;#P newex 53 264 122 196617 route ** **comment**;#P newex 53 236 51 196617 route set;#P message 70 190 35 196617 line 1;#P newex 53 73 112 196617 t b s;#P newex 53 122 125 196617 sprintf %sevents/%s.txt;#P newex 53 99 62 196617 projectpath;#B color 5;#P newex 53 208 40 196617 text;#N comlet to coll;#P outlet 53 387 15 0;#P inlet 0 26 15 0;#P newex 53 326 51 196617 tosymbol;#P connect 1 0 14 0;#P connect 15 0 6 0;#P connect 6 0 4 0;#P connect 4 0 5 0;#P connect 5 0 13 0;#P connect 13 0 12 0;#P connect 12 0 3 0;#P connect 7 0 3 0;#P connect 3 0 8 0;#P connect 8 0 9 0;#P connect 9 0 0 0;#P connect 10 0 0 0;#P connect 0 0 2 0;#P fasten 3 1 7 0 73 229 109 229 109 186 75 186;#P connect 9 2 10 0;#P connect 9 1 10 0;#P connect 14 2 15 0;#P connect 6 1 11 0;#P connect 11 0 5 1;#P pop;#P newobj 249 54 193 196620 p comment et pos-> sequentiel;#B color 6;#P inlet 249 34 15 0;#P inlet 50 30 15 0;#P connect 6 0 9 0;#P connect 9 0 8 0;#P connect 10 0 8 0;#P connect 0 0 6 0;#P connect 6 0 7 0;#P connect 7 0 5 0;#P connect 2 0 10 0;#P connect 1 0 2 0;#P connect 2 0 4 0;#P connect 4 0 3 0;#P pop;#P newobj 615 385 147 196622 p display comments;#B color 6;#P window setfont "Sans Serif" 9.;#P window linecount 1;#P newex 602 472 125 196617 r $1/nextcomment/from;#B color 14;#P newex 739 472 139 196617 r $1/onstagecomment/from;#B color 14;#P newex 333 275 96 196617 route ready end int;#P newex 175 50 331 196617 makeparam $1/step/next $1 i 0 0 0 1;#B color 12;#P newex 96 712 392 196617 makecontrol $1/end $1 b 0 0 /common;#P newex 157 327 27 196617 i;#P newex 157 350 204 196617 s $1/real-step/current;#B color 12;#P newex 219 639 204 196617 s $1/real-step/next;#B color 12;#P message 141 682 14 196617 1;#P newex 187 468 63 196617 route ready;#P window linecount 0;#P message 58 684 23 196617 end;#P window linecount 1;#P newex 26 632 27 196617 + 1;#P window linecount 0;#P message 26 685 29 196617 stop;#P newex 141 564 81 196617 route ready end;#P message 177 682 14 196617 0;#P window setfont "Sans Serif" 14.;#P comment 232 565 111 196622 WHAT's NEXT?;#P window setfont "Sans Serif" 9.;#P newex 26 654 161 196617 gate 2;#P newex 26 608 332 196617 makeparam $1/loop $1 t 0;#B color 12;#P newex 175 73 57 196617 route bang;#P newex 418 204 27 196617 i;#P newex 141 373 130 196617 zl reg;#P newex 141 538 68 196617 zl slice 1;#N coll $1-steps 1;#P newobj 141 517 235 196617 coll $1-steps 1;#B color 5;#P newex 211 588 204 196617 s $1/next;#B color 12;#P newex 418 227 204 196617 s $1/step/current;#B color 12;#P newex 216 546 204 196617 s $1/step/next;#B color 12;#P newex 141 470 30 196617 i;#P newex 141 491 27 196617 + 1;#P window setfont "Sans Serif" 14.;#P comment 295 69 167 196622 GO NEXT;#P comment 241 114 174 196622 CHOOSE THE NEXT STEP;#P comment 248 396 103 196622 PLAY CUE;#P window setfont "Sans Serif" 9.;#P newex 222 136 232 196617 t b i i;#P newex 141 131 29 196617 gate;#P newex 240 491 167 196617 s $1/current;#B color 12;#P newex 141 169 91 196617 onebang;#P newex 333 253 111 196617 zl slice 1;#P newex 141 396 103 196617 t b l b;#N coll $1-steps 1;#P newobj 333 164 318 196617 coll $1-steps 1;#B color 5;#P newex 141 12 380 196617 makeswitch $1/sw $1 common_switchstate;#B color 12;#P newex 430 594 177 196617 s $1/go;#B color 12;#P newex 430 572 51 196617 del;#P newex 471 522 413 196617 makeparam $1/autocue/time $1 i 500 0 0 1;#P newex 449 496 101 196617 sprintf set %s/done;#P newex 449 531 14 196617 r;#P newex 430 552 29 196617 gate;#P newex 430 442 219 196617 makeparam $1/autocue $1 t 0;#B color 12;#P comment 604 491 258 196617 modifier les commentaires des mémoires directyement via le module (avec on/off du mode (edit);#P connect 29 0 35 0;#P connect 35 0 30 0;#P connect 30 0 34 0;#P connect 30 0 36 0;#P connect 30 0 42 0;#P connect 8 0 14 0;#P connect 14 0 12 0;#P fasten 34 0 12 0 31 701 10 701 10 159 146 159;#P lcolor 2;#P connect 12 0 26 0;#P connect 26 0 10 0;#P connect 10 0 20 0;#P connect 20 0 19 0;#P fasten 32 0 24 0 182 704 20 704 20 514 146 514;#P connect 19 0 24 0;#P fasten 38 0 24 0 146 704 14 704 14 511 146 511;#P connect 24 0 25 0;#P connect 25 1 33 0;#P connect 33 0 38 0;#P connect 12 0 41 0;#P connect 41 0 40 0;#P connect 28 0 14 1;#P connect 65 0 14 1;#P connect 15 2 20 1;#P lcolor 1;#P connect 44 2 41 1;#P connect 43 0 28 0;#P connect 33 1 30 1;#P connect 30 1 32 0;#P connect 10 1 37 0;#P connect 36 0 23 0;#P connect 33 2 23 0;#P connect 24 1 21 0;#P connect 25 0 39 0;#P connect 28 1 15 0;#P connect 10 2 12 1;#P lcolor 2;#P connect 15 0 12 1;#P connect 37 1 13 0;#P connect 11 1 26 1;#P connect 15 1 9 0;#P connect 9 0 11 0;#P connect 11 0 44 0;#P connect 1 0 48 0;#P connect 12 0 27 0;#P connect 27 0 22 0;#P connect 1 0 2 0;#P connect 2 0 6 0;#P connect 6 0 7 0;#P connect 9 1 27 1;#P connect 11 1 4 0;#P connect 4 0 3 0;#P connect 3 0 2 1;#P connect 11 1 49 0;#P connect 47 0 50 0;#P connect 49 0 50 0;#P connect 59 0 50 0;#P connect 60 0 50 0;#P connect 50 0 66 0;#P connect 5 0 6 1;#P connect 64 1 62 0;#P connect 63 1 62 0;#P connect 62 0 52 0;#P connect 51 0 52 0;#P connect 52 0 61 0;#P connect 28 1 62 1;#P connect 37 1 59 0;#P connect 55 0 57 0;#P connect 63 0 53 0;#P connect 52 0 51 0;#P connect 54 0 51 0;#P connect 53 0 51 0;#P connect 64 0 54 0;#P connect 27 0 60 0;#P connect 56 0 58 0;#P connect 57 0 63 0;#P connect 37 1 47 0;#P connect 58 0 64 0;#P connect 11 1 47 1;#P pop;#P newobj 11 32 106 196622 p sequenceur;#B color 6;#P window setfont "Sans Serif" 12.;#N vpatcher 220 184 1090 833;#P window setfont "Sans Serif" 9.;#P window linecount 1;#P newex 312 412 68 196617 prepend write;#P newex 312 388 51 196617 tosymbol;#P newex 520 553 47 196617 forward;#B color 11;#P newex 520 525 113 196617 sprintf send /%s/done;#B color 11;#P newex 130 52 44 196617 receive;#B color 11;#P newex 130 32 107 196617 sprintf set /%s/read;#B color 11;#P newex 459 482 77 196617 onebang;#P message 639 432 58 196617 writeagain;#P newex 459 506 50 196617 deferlow;#P newex 539 385 209 196617 receive $1/file;#B color 11;#P newex 539 406 211 196617 route open write;#P message 539 432 30 196617 open;#N comlet to coll;#P inlet 510 413 15 0;#N coll $1 1;#P newobj 389 455 117 196617 coll $1 1;#B color 5;#P newex 432 30 48 196617 loadbang;#P message 432 51 218 196617 $1;#P newex 95 187 68 196617 prepend open;#P newex 95 207 54 196617 bytecount;#P newex 147 292 50 196617 deferlow;#P newex 95 292 50 196617 deferlow;#P newex 95 80 32 196617 del 1;#P button 95 59 15 0;#P newex 95 108 62 196617 projectpath;#B color 6;#P newex 389 338 36 196617 zl reg;#N comlet bang in;#P inlet 95 40 15 0;#P newex 95 324 62 196617 projectpath;#B color 6;#P newex 95 347 147 196617 sprintf %sconfig/data/%s.txt;#B color 5;#P newex 389 412 68 196617 prepend read;#P button 147 261 15 0;#P newex 389 388 51 196617 tosymbol;#P newex 389 362 147 196617 sprintf %sconfig/data/%s.txt;#B color 5;#P button 95 261 15 0;#P comment 22 262 73 196617 does not exist;#P newex 95 230 62 196617 sel -1;#P newex 95 165 51 196617 tosymbol;#P newex 95 144 147 196617 sprintf %sconfig/data/%s.txt;#B color 5;#P comment 162 261 38 196617 exists;#N comlet bang when finished reading data file;#P outlet 459 553 15 0;#P window linecount 5;#P comment 88 407 113 196617 read-tm_coll abstraction trying to read from events folder first then create if doesn't exist.;#P connect 34 0 17 0;#P connect 14 0 17 0;#P connect 17 0 18 0;#P connect 18 0 16 0;#P connect 16 0 3 0;#P connect 3 0 4 0;#P connect 4 0 22 0;#P connect 22 0 21 0;#P connect 21 0 5 0;#P connect 5 0 7 0;#P connect 7 0 19 0;#P connect 19 0 13 0;#P connect 13 0 12 0;#P fasten 23 0 33 0 437 70 409 70 409 28 135 28;#P connect 33 0 34 0;#P connect 5 1 10 0;#P connect 10 0 20 0;#P connect 23 0 3 1;#P lcolor 1;#P connect 23 0 12 1;#P lcolor 1;#P connect 12 0 37 0;#P connect 37 0 38 0;#P connect 20 0 15 0;#P connect 15 0 8 0;#P connect 8 0 9 0;#P connect 9 0 11 0;#P fasten 28 2 25 0 744 451 394 451;#P connect 38 0 25 0;#P fasten 31 0 25 0 644 451 394 451;#P connect 11 0 25 0;#P fasten 27 0 25 0 544 451 394 451;#P connect 26 0 25 0;#P fasten 16 0 15 1 100 133 420 133;#P connect 24 0 23 0;#P connect 25 2 32 0;#P connect 32 0 30 0;#P connect 30 0 1 0;#P connect 23 0 35 0;#P lcolor 1;#P connect 30 0 36 0;#P connect 35 0 36 0;#P connect 23 0 8 1;#P lcolor 1;#P fasten 17 0 32 1 100 76 531 76;#P lcolor 2;#P connect 29 0 28 0;#P connect 28 0 27 0;#P connect 28 1 31 0;#P pop;#P newobj 14 155 93 196620 p read tm-file;#B color 6;#P comment 112 165 505 196620 $1/step/next : bang : same behaviour as $1/go;#B frgb 248 41 0;#P comment 112 146 466 196620 $1/go : will play the cue which was specified by the $1/next message;#B frgb 248 41 0;#P window setfont "Sans Serif" 9.;#P newex 14 134 54 196617 onebang 1;#P window linecount 18;#P message 14 180 308 196617 \; $1/sw/init bang \; $1/dest/init bang \; $1/step/ready/init bang \; $1/update/folder-menu bang \; $1/autofill/sw/init bang \; $1/autofill/folder/init bang \; $1/sequence-menu/update bang \; $1/shortcut/go/init bang \; $1/step/next/init bang \; $1/step/next/inc/init bang \; $1/step/next/dec/init bang \; $1/end/init bang \; $1/loop/init bang \; $1/autocue/init bang \; $1/autocue/time/init bang \; $1/end/init bang \; control_register/store $1 \;;#P window linecount 1;#P newex 14 113 151 196617 moduleinit $1;#B color 11;#P window setfont "Sans Serif" 12.;#P comment 112 127 505 196620 $1/step/next : int (#1/next 1 is the way to start from the begin);#B frgb 248 41 0;#P window setfont "Sans Serif" 14.;#N vpatcher 100 44 824 761;#P window setfont "Sans Serif" 9.;#P window linecount 1;#P newex 115 98 252 196617 s $1/autofill/refresh;#B color 12;#P window linecount 0;#N vpatcher 10 59 207 226;#P window setfont "Sans Serif" 9.;#P newex 50 30 40 196617 t b b s;#P newex 50 101 36 196617 zl reg;#P newex 76 76 78 196617 sprintf %s/%s;#P inlet 76 56 15 0;#P inlet 50 10 15 0;#P outlet 50 123 15 0;#P connect 1 0 5 0;#P connect 5 0 4 0;#P connect 4 0 0 0;#P connect 5 1 3 0;#P connect 2 0 3 0;#P connect 3 0 4 1;#P connect 5 2 3 1;#P pop;#P newobj 102 506 54 196617 p combine;#P window linecount 1;#P newex 87 207 22 196617 b 1;#P newex 32 311 43 196617 t b 1;#P newex 65 487 47 196617 gate 2 1;#P newex 65 529 78 196617 regexp (.+).txt;#P newex 72 232 36 196617 zl reg;#P newex 87 186 235 196617 r $1/autofill/refresh;#B color 12;#P window linecount 0;#P newex 459 289 56 196617 route .svn;#P newex 437 22 176 196617 r $1/update/folder-menu;#B color 12;#P button 437 42 15 0;#P newex 437 60 62 196617 projectpath;#B color 6;#P newex 576 313 36 196617 zl reg;#P newex 576 333 62 196617 prepend set;#P message 529 101 103 196617 clear \, append <none>;#P newex 437 80 102 196617 t s b;#P newex 459 313 78 196617 prepend append;#P newex 459 268 51 196617 strippath;#P newex 477 220 27 196617 - 1;#P newex 447 188 40 196617 uzi;#P number 447 170 35 9 0 0 0 3 0 0 0 221 221 221 222 222 222 0 0 0;#P newex 527 263 74 196617 route populate;#P user ubumenu 437 243 100 196617 0 1 1 0;#X add pop;#X types fold fold;#X prefix_set 0 1 work:/Users/renaudrubiano/Documents/GITs/tapemovie/projects/cuesheet/events/ 0;#P newex 482 359 197 196617 s $1/autofill/folder/to;#B color 12;#P newex 437 122 51 196617 tosymbol;#P newex 437 143 76 196617 prepend prefix;#P window setfont Times 9.;#P newex 437 101 74 1310729 sprintf %sevents;#P window setfont "Sans Serif" 18.;#P comment 509 44 179 196626 List Events Folders;#P user panel 419 13 275 383;#X brgb 255 255 255;#X frgb 0 0 0;#X border 1;#X rounded 0;#X shadow 0;#X done;#P outlet 83 116 15 0;#P window setfont "Sans Serif" 9.;#P newex 43 93 50 196617 b 2;#P newex 43 137 266 196617 s $1/sequence-menu/update;#B color 12;#P newex 43 68 155 196617 sel 0 1;#P newex 32 261 50 196617 gate;#P newex 32 36 292 196617 makeparam $1/autofill/sw $1 t 0;#B color 12;#P newex 32 362 88 196617 sprintf %sevents;#P newex 32 336 62 196617 projectpath;#B color 6;#P newex 32 391 30 196617 t b s;#P newex 32 665 266 196617 s $1/sequence-menu/update;#B color 12;#P newex 52 640 188 196617 s $1/tocoll;#B color 12;#P newex 82 589 72 196617 prepend store;#P newex 102 459 67 196617 route append;#P newex 82 554 42 196617 sprintf %s %s;#N coll $1 1;#P newobj 52 612 137 196617 coll $1 1;#B color 5;#P message 52 460 33 196617 clear;#P newex 52 437 60 196617 route clear;#P newex 52 415 37 196617 folder;#P newex 129 311 207 196617 t b s 2;#P newex 129 362 108 196617 sprintf %sevents/%s;#P newex 32 286 107 196617 route <none>;#B color 12;#P newex 72 162 331 196617 makeparam $1/autofill/folder $1 s <none>;#B color 12;#P newex 129 336 62 196617 projectpath;#B color 6;#P window setfont "Sans Serif" 18.;#P comment 18 11 187 196626 auto fill-in cue-sheet;#P user panel 7 13 406 676;#X brgb 255 255 255;#X frgb 0 0 0;#X border 1;#X rounded 0;#X shadow 0;#X done;#P connect 19 0 20 0;#P connect 20 0 4 0;#P connect 4 0 50 0;#P connect 50 0 17 0;#P connect 17 0 18 0;#P fasten 5 0 16 0 134 384 37 384;#P connect 18 0 16 0;#P connect 16 0 15 0;#P connect 19 0 21 0;#P connect 21 0 23 0;#P connect 23 0 22 0;#P connect 16 1 7 0;#P connect 7 0 8 0;#P connect 8 0 9 0;#P connect 13 0 10 0;#P connect 9 0 10 0;#P connect 10 0 14 0;#P fasten 6 2 49 0 330 482 70 482;#P connect 50 1 49 0;#P connect 52 0 48 0;#P connect 49 0 48 0;#P fasten 3 0 47 0 77 205 77 205;#P connect 51 0 47 0;#P connect 47 0 20 1;#P connect 48 1 11 0;#P connect 11 0 13 0;#P connect 23 1 24 0;#P connect 46 0 51 0;#P connect 8 1 12 0;#P connect 12 0 49 1;#P connect 49 1 52 0;#P connect 48 1 11 1;#P connect 21 1 53 0;#P connect 4 1 6 0;#P connect 6 0 2 0;#P connect 2 0 5 0;#P connect 6 1 52 1;#P connect 6 1 5 1;#P connect 44 0 43 0;#P connect 43 0 42 0;#P connect 42 0 38 0;#P connect 38 0 27 0;#P connect 27 0 29 0;#P connect 29 0 28 0;#P fasten 35 0 31 0 482 240 442 240;#P connect 28 0 31 0;#P fasten 32 0 33 0 532 283 604 283 604 167 452 167;#P connect 33 0 34 0;#P connect 31 1 36 0;#P connect 36 0 45 0;#P connect 45 1 37 0;#P connect 34 2 35 0;#P connect 39 0 30 0;#P connect 37 0 30 0;#P connect 40 0 30 0;#P connect 31 2 32 0;#P connect 38 1 39 0;#P fasten 34 1 41 0 467 210 581 210;#P lcolor 4;#P connect 41 0 40 0;#P pop;#P newobj 241 64 69 196622 p autofill;#B color 6;#P connect 2 0 4 0;#P connect 4 0 7 0;#P connect 7 0 3 0;#P connect 4 1 3 0;#P connect 14 0 7 1;#P connect 0 0 14 0;#P pop;