max v2;#N vpatcher 24 110 1369 891;#P origin -37 -40;#P window setfont "Sans Serif" 9.;#P window linecount 1;#N vpatcher 10 59 344 297;#P window setfont "Sans Serif" 9.;#P newex 50 78 41 196617 sel 0 1;#P message 67 126 211 196617 script show playmenu \, script show playlabel;#P newex 50 50 133 196617 r /events/hideplayfunction;#P message 50 101 201 196617 script hide playmenu \, script hide playlabel;#P outlet 50 158 15 0;#P connect 2 0 4 0;#P connect 4 1 1 0;#P connect 1 0 0 0;#P connect 3 0 0 0;#P connect 4 0 3 0;#P pop;#P newobj 61 334 91 196617 p hideplayfunction;#N thispatcher;#Q end;#P newobj 61 359 61 196617 thispatcher;#P newex 186 373 50 196617 deferlow;#P newex 186 349 51 196617 loadmess;#P message 186 401 142 196617 script sendtoback background;#N thispatcher;#Q end;#P hidden newobj 2 135 61 196617 thispatcher;#P newex 613 365 50 196617 deferlow;#P window setfont "Sans Serif" 12.;#N vpatcher 30 89 313 470;#P origin 0 -15;#P window setfont "Sans Serif" 9.;#P window linecount 0;#P newex 50 275 50 196617 deferlow;#P outlet 50 300 15 0;#P newex 113 178 64 196617 sprintf %s_;#P window linecount 2;#P newex 72 138 39 196617 route symbol;#P window linecount 1;#P newex 50 87 54 196617 t b dump l;#P newex 50 65 114 196617 sprintf refer %s/state;#P newex 72 254 47 196617 forward;#P window linecount 2;#P newex 113 210 42 196617 prepend send;#P newex 113 138 39 196617 route symbol;#P window linecount 1;#N coll /events.1/state;#P newobj 72 114 134 196617 coll;#B color 5;#P inlet 50 21 15 0;#P connect 0 0 5 0;#P connect 5 0 6 0;#P connect 6 0 10 0;#P connect 10 0 9 0;#P connect 6 1 1 0;#P connect 6 2 1 0;#P connect 1 0 7 0;#P fasten 3 0 4 0 118 246 77 246;#P connect 7 0 4 0;#P fasten 7 1 4 0 106 191 77 191;#P connect 1 1 2 0;#P connect 2 0 8 0;#P connect 8 0 3 0;#P pop;#P newobj 613 394 109 196620 p re-send values;#B color 7;#P window setfont "Sans Serif" 9.;#P comment 113 3 31 196617 (ms);#B frgb 0 0 200;#P number 66 1 49 9 0 0 32 3 0 0 0 221 221 221 222 222 222 0 0 0;#P objectname interval;#P comment 19 3 52 196617 /interval;#B frgb 0 0 200;#P newex 862 312 70 196617 pvar interval;#P newex 862 291 194 196617 varieditu /interval $1;#B color 11;#P comment 291 19 57 196617 /localsend;#B frgb 0 0 200;#P toggle 343 18 15 0;#P objectname localsend;#P newex 862 257 75 196617 pvar localsend;#P newex 862 236 194 196617 varieditu /localsend $1;#B color 11;#P comment 187 3 70 196617 /oscsendname;#B frgb 0 0 200;#P newex 862 189 92 196617 pvar oscsendname;#P newex 884 211 56 196617 route text;#P window setfont Times 9.;#P user textedit 255 0 358 18 32896 20 9 /vdmx;#P objectname oscsendname;#P window setfont "Sans Serif" 9.;#P newex 862 168 191 196617 varieditu /oscsendname $1;#B color 11;#P button 117 13 27 6;#P objectname create;#P button 319 64 20 11;#P objectname save;#P window setfont Times 9.;#P comment 129 41 23 1310729 new;#P window setfont "Sans Serif" 9.;#P newex 862 70 83 196617 pvar customedit;#P button 117 89 13 7;#P objectname newfolder;#P window setfont Times 9.;#P comment 129 89 23 1310729 new;#P button 117 67 13 1;#P objectname customwrite;#P comment 129 67 29 1310729 write;#P button 117 54 13 11;#P objectname customedit;#P window setfont "Sans Serif" 9.;#P newex 862 110 91 196617 pvar customwrite;#P newex 862 130 192 196617 sendu /type/custom/write;#B color 12;#P newex 862 91 125 196617 sendu /type/custom/edit;#B color 12;#P window setfont Times 9.;#P comment 129 54 22 1310729 edit;#P window setfont "Sans Serif" 9.;#P newex 616 292 51 196617 tosymbol;#P newex 616 271 81 196617 route symbol;#P newex 616 135 51 196617 tosymbol;#P newex 616 114 69 196617 route symbol;#P button 498 107 13 0;#P objectname menuupdate;#P newex 392 311 189 196617 sendu /foldermenu/update;#B color 12;#P newex 407 290 168 196617 sendu /typemenu/update;#B color 12;#P message 31 216 33 196617 clear;#P newex 682 291 21 196617 t 1;#P newex 669 230 21 196617 t 0;#P newex 705 292 138 196617 s /tapemovie/shortcuts/sw;#B color 11;#P newex 675 156 21 196617 t 1;#P newex 662 73 21 196617 t 0;#P newex 698 157 138 196617 s /tapemovie/shortcuts/sw;#B color 11;#P button 117 41 13 7;#P objectname newtype;#P newex 616 177 120 196617 sendu /type;#B color 12;#P newex 616 53 72 196617 pvar newtype;#P newex 616 73 44 196617 del 100;#P newex 616 94 178 196617 dialog New type (nodelist file) name:;#P comment 26 40 36 196617 /type;#B frgb 0 0 200;#P newex 76 149 86 196617 pvar typemenu 2;#P newex 183 148 188 196617 fromtou /typemenu;#B color 12;#P window setfont "Sans Serif" 10.;#P user ubumenu 26 52 90 196618 0 1 1 0;#X setrgb 31 31 31 190 190 190 234 234 234 4 4 4 141 141 141 112 112 112;#X add empty;#X add tapemovie;#X add tape;#X add movie;#X add --- custom ---;#X add visca;#X prefix_set 0 0 <none> 0;#P objectname typemenu;#P window setfont "Sans Serif" 9.;#P newex 422 269 148 196617 sendu /menu/update;#B color 12;#P newex 392 247 86 196617 pvar menuupdate;#P newex 392 217 119 196617 sendu /create;#B color 12;#P newex 392 197 63 196617 pvar create;#P newex 392 152 55 196617 pvar save;#P newex 76 281 93 196617 pvar deletemenu 2;#P newex 182 281 195 196617 fromtou /deletemenu;#B color 12;#P newex 76 256 99 196617 pvar renamemenu 2;#P newex 76 232 83 196617 pvar editmenu 2;#P newex 182 198 187 196617 fromtou /playmenu;#B color 12;#P newex 76 198 85 196617 pvar playmenu 2;#P newex 182 256 201 196617 fromtou /renamemenu;#B color 12;#P newex 616 312 142 196617 sendu /subfolder;#B color 12;#P newex 616 210 79 196617 pvar newfolder;#P newex 182 175 195 196617 fromtou /foldermenu;#B color 12;#P newex 76 175 93 196617 pvar foldermenu 2;#P newex 616 230 44 196617 del 100;#P newex 616 251 161 196617 dialog New event subfolder name:;#P comment 26 76 58 196617 /subfolder;#B frgb 0 0 200;#P window setfont "Sans Serif" 10.;#P user ubumenu 26 87 90 196618 0 1 1 0;#X setrgb 31 31 31 190 190 190 234 234 234 4 4 4 141 141 141 112 112 112;#X add <none>;#X add visca;#X prefix_set 0 0 <none> 0;#P objectname foldermenu;#P window setfont "Sans Serif" 12.;#P comment 278 65 45 196620 /save;#B frgb 132 132 132;#P window setfont "Sans Serif" 9.;#P comment 432 108 70 196617 update menus;#B frgb 132 132 132;#P window setfont "Sans Serif" 18.;#P comment 46 13 76 196626 /create;#B frgb 132 132 132;#P comment 360 63 66 196626 delete;#B frgb 132 132 132;#P window setfont "Sans Serif" 10.;#P user ubumenu 360 87 151 196618 0 1 1 0;#X setrgb 31 31 31 255 100 75 234 234 234 4 4 4 141 141 141 112 112 112;#X add 10-;#X add 130-;#X add 140-;#X add 170-;#X add 180-;#X add 190-;#X add 200-;#X add 40-;#X add 80-;#X types TEXT;#X prefix_set 0 0 <none> 0;#P objectname deletemenu;#P window setfont "Sans Serif" 18.;#P comment 360 17 84 196626 /rename;#B frgb 132 132 132;#P window setfont "Sans Serif" 10.;#P user ubumenu 360 41 151 196618 0 1 1 0;#X setrgb 31 31 31 200 200 0 234 234 234 4 4 4 141 141 141 112 112 112;#X add 10-;#X add 130-;#X add 140-;#X add 170-;#X add 180-;#X add 190-;#X add 200-;#X add 40-;#X add 80-;#X types TEXT;#X prefix_set 0 0 <none> 0;#P objectname renamemenu;#P window setfont "Sans Serif" 18.;#P comment 162 60 53 196626 /edit;#B frgb 132 132 132;#P comment 162 12 55 196626 /play;#B frgb 132 132 132;#P objectname playlabel;#P window setfont "Sans Serif" 9.;#P newex 182 232 185 196617 fromtou /editmenu;#B color 12;#P window setfont "Sans Serif" 12.;#P user ubumenu 162 84 177 196620 0 1 1 0;#X setrgb 31 31 31 100 100 255 234 234 234 4 4 4 141 141 141 112 112 112;#X add 10-;#X add 130-;#X add 140-;#X add 170-;#X add 180-;#X add 190-;#X add 200-;#X add 40-;#X add 80-;#X types TEXT;#X prefix_set 0 0 <none> 0;#P objectname editmenu;#P window setfont "Sans Serif" 14.;#P user ubumenu 162 36 196 196622 0 1 1 0;#X setrgb 31 31 31 0 200 0 234 234 234 4 4 4 141 141 141 112 112 112;#X add 10-;#X add 130-;#X add 140-;#X add 170-;#X add 180-;#X add 190-;#X add 200-;#X add 40-;#X add 80-;#X types TEXT;#X prefix_set 0 0 <none> 0;#P objectname playmenu;#P window setfont "Sans Serif" 9.;#P newex 392 173 111 196617 sendu /save;#B color 12;#P bpatcher 0 0 512 124 0 0 bkgndu.mxt 0 events 0 /tapemovie 2 2;#P objectname background;#P connect 87 0 86 0;#P hidden connect 0 0 86 0;#P connect 91 0 90 0;#P connect 49 0 36 0;#P connect 35 0 36 0;#P connect 49 0 18 0;#P connect 19 0 18 0;#P connect 49 0 23 0;#P connect 24 0 23 0;#P connect 49 0 25 0;#P connect 4 0 25 0;#P connect 49 0 26 0;#P connect 22 0 26 0;#P connect 49 0 28 0;#P connect 27 0 28 0;#P connect 18 1 19 0;#P connect 23 1 24 0;#P connect 25 1 4 0;#P connect 26 1 22 0;#P connect 28 1 27 0;#P connect 36 1 35 0;#P connect 88 0 89 0;#P connect 89 0 87 0;#P connect 0 1 4 1;#P connect 0 1 24 1;#P connect 0 1 35 1;#P connect 0 1 19 1;#P connect 0 1 27 1;#P connect 0 1 22 1;#P connect 29 0 1 0;#P connect 30 0 31 0;#P connect 84 0 32 0;#P connect 32 0 51 0;#P connect 32 0 50 0;#P connect 32 0 33 0;#P connect 0 1 1 1;#P connect 0 1 31 1;#P connect 0 1 33 1;#P connect 0 1 50 1;#P connect 0 1 51 1;#P hidden connect 0 1 85 0;#P connect 85 0 84 0;#P connect 40 0 39 0;#P connect 39 0 38 0;#P connect 38 0 53 0;#P connect 53 0 54 0;#P connect 54 0 41 0;#P connect 20 0 17 0;#P connect 17 0 16 0;#P connect 16 0 55 0;#P connect 55 0 56 0;#P connect 56 0 21 0;#P connect 40 0 44 0;#P connect 20 0 47 0;#P connect 38 0 45 0;#P connect 16 0 48 0;#P connect 45 0 43 0;#P connect 44 0 43 0;#P connect 47 0 46 0;#P connect 48 0 46 0;#P connect 0 1 41 1;#P connect 0 1 21 1;#P connect 66 0 58 0;#P connect 60 0 59 0;#P connect 72 0 70 0;#P connect 49 0 73 0;#P connect 70 0 73 0;#P fasten 76 0 75 0 867 277 858 277 858 232 867 232;#P connect 75 0 76 0;#P fasten 80 0 79 0 867 332 858 332 858 287 867 287;#P connect 79 0 80 0;#P connect 73 0 72 0;#P connect 0 1 58 1;#P connect 0 1 70 2;#P connect 0 1 75 2;#P connect 0 1 79 2;#P connect 0 1 59 1;#P pop;