max v2;#N vpatcher 11 193 554 346;#P origin 1903 40;#P window setfont "Sans Serif" 9.;#P window linecount 1;#P newex 1065 90 228 196617 tm_editorbuilder /events /tapemovie 2 2 2;#B color 6;#P button 1078 63 15 0;#P comment 1096 63 39 196617 delete;#P button 1065 42 15 0;#P comment 1082 42 31 196617 build;#N thispatcher;#Q end;#P newobj 1065 112 61 196617 thispatcher;#P window linecount 0;#P comment 1 868 100 196617;#P connect 3 0 6 0;#P connect 6 0 1 0;#P fasten 5 0 6 1 1083 84 1179 84;#P fasten 1 0 6 2 1070 134 1308 134 1308 86 1288 86;#P pop;