max v2;#N vpatcher 40 71 982 574;#P window setfont "Sans Serif" 9.;#P window linecount 1;#P newex 41 231 145 196617 t_fxmetersend $1;#B color 4;#P window linecount 2;#P comment 621 271 198 196617 no longer need to send to module_register. happens in build.;#P window linecount 1;#P newex 103 85 252 196617 makeparam $1/noise/vol $1 f 0 0 1 2;#B color 13;#P flonum 118 116 35 9 0. 2. 3 3 0 0 0 221 221 221 222 222 222 0 0 0;#P newex 54 115 59 196617 t_vol~ 2;#B color 6;#P window setfont Times 9.;#P newex 54 85 36 1310729 noise~;#P window setfont "Sans Serif" 9.;#P newex 509 25 261 196617 makeswitch $1/sw $1 tape_switchstate;#B color 13;#P newex 509 68 31 196617 == 0;#P newex 509 107 50 196617 thispoly~;#B color 5;#P toggle 509 49 15 0;#P message 509 88 45 196617 mute \$1;#P button 748 395 15 0;#P newex 748 374 149 196617 r $1/presetwrite;#B color 11;#P comment 763 396 63 196617 write to disk;#P newex 212 233 217 196617 t_fftfilt_fillbins $1;#B color 6;#P newex 499 373 239 196617 makeparam $1/presetrecall $1 i -1 -1 9999;#B color 13;#P newex 64 175 252 196617 makeparam $1/vol $1 f 1 0 2 2;#B color 13;#P flonum 78 200 35 9 0. 2. 3 3 0 0 0 221 221 221 222 222 222 0 0 0;#P newex 25 199 49 196617 t_vol~ 2;#B color 6;#P button 622 80 15 0;#P newex 593 307 146 196617 s $1/spat/init;#B color 11;#P newex 622 58 148 196617 moduleinit $1;#B color 13;#P window linecount 13;#P message 622 103 263 196617 \; $1/sw/init bang \; $1/clear bang \; $1/tabsel/init bang \; $1/listA/init bang \; $1/listB/init bang \; $1/interp/init bang \; $1/presetrecall/init bang \; $1/fillbins/init bang \; $1/vol/init bang \; $1/noise/vol/init bang \; $1/spectrand/init bang \; $1/volrand 0 0.5 1 1000 3000 50 100 1 4 \;;#P window setfont Times 9.;#P window linecount 1;#N out~ 1;#P newobj 25 262 33 1310729 out~ 1;#P newex 25 59 40 1310729 t_dither;#N in~ 1;#P newobj 25 35 29 1310729 in~ 1;#P window setfont "Sans Serif" 9.;#P comment 5 447 229 196617 arg 1 : prefix name \;;#N vpatcher 41 88 1112 558;#P button 604 172 15 0;#P window setfont "Sans Serif" 9.;#P window linecount 1;#P newex 820 214 62 196617 projectpath;#B color 6;#P newex 820 279 73 196617 prepend write;#P newex 820 258 51 196617 tosymbol;#P newex 604 259 68 196617 prepend read;#P newex 604 238 51 196617 tosymbol;#P newex 604 193 62 196617 projectpath;#B color 6;#P number 475 96 35 9 -1 0 1 3 0 0 0 221 221 221 222 222 222 0 0 0;#P window linecount 0;#P newex 475 117 37 196617 sel -1;#P button 820 185 15 0;#N comlet write to disk;#P inlet 820 166 15 0;#P window linecount 1;#P comment 845 186 68 196617 write to disk;#P newex 820 237 198 196617 sprintf %sconfig/data/fftfilt-presets.txt;#P newex 604 217 198 196617 sprintf %sconfig/data/fftfilt-presets.txt;#P newex 604 149 48 196617 loadbang;#N comlet recall num;#P inlet 475 75 15 0;#N comlet remove num;#P inlet 332 30 15 0;#N comlet store num;#P inlet 59 24 15 0;#P window linecount 0;#P newex 59 64 34 196617 t b i;#P message 59 202 50 196617 sort 1 -1;#P newex 594 418 124 196617 s $1/listB;#B color 11;#P newex 459 418 124 196617 s $1/listA;#B color 11;#P newex 509 222 29 196617 t s 2;#P number 459 281 35 9 0 0 0 3 0 0 0 221 221 221 222 222 222 0 0 0;#P newex 440 222 29 196617 t s 1;#P newex 459 392 35 196617 gate 2;#P newex 509 201 65 196617 sprintf %ldB;#P newex 440 201 65 196617 sprintf %ldA;#P newex 440 180 79 196617 t i i;#P number 440 161 35 9 0 0 1 3 0 0 0 221 221 221 222 222 222 0 0 0;#P comment 388 161 63 196617 recall num;#P newex 234 142 118 196617 r $1/spectFun;#B color 11;#P newex 108 142 124 196617 r $1/spectFunB;#B color 11;#P newex 332 115 80 196617 prepend remove;#P newex 400 91 65 196617 sprintf %ldB;#P newex 332 91 65 196617 sprintf %ldA;#P newex 332 70 78 196617 t i i;#P number 332 51 35 9 1 0 65 3 0 0 0 221 221 221 222 222 222 0 0 0;#P comment 267 52 63 196617 remove num;#P newex 146 202 70 196617 prepend store;#P newex 209 115 65 196617 sprintf %ldA;#P newex 209 169 35 196617 zl join;#P newex 83 169 35 196617 zl join;#P newex 83 86 136 196617 t i i;#P newex 83 115 65 196617 sprintf %ldB;#P number 59 45 35 9 1 0 65 3 0 0 0 221 221 221 222 222 222 0 0 0;#N coll fftfilt-presets 1;#P newobj 332 349 103 196617 coll fftfilt-presets 1;#B color 5;#P comment 5 46 53 196617 store num;#P comment 508 75 50 196617 0 = reset;#P connect 31 0 3 0;#P connect 3 0 30 0;#P connect 30 0 29 0;#P connect 30 1 5 0;#P connect 5 0 4 0;#P connect 4 0 6 0;#P connect 16 0 6 1;#P connect 6 0 9 0;#P connect 7 0 9 0;#P connect 5 1 8 0;#P connect 8 0 7 0;#P connect 17 0 7 1;#P connect 32 0 11 0;#P connect 11 0 12 0;#P connect 12 0 13 0;#P connect 13 0 15 0;#P fasten 14 0 15 0 405 111 337 111;#P connect 9 0 2 0;#P connect 15 0 2 0;#P connect 24 0 2 0;#P connect 26 0 2 0;#P connect 29 0 2 0;#P connect 44 0 2 0;#P connect 46 0 2 0;#P connect 12 1 14 0;#P connect 40 1 19 0;#P connect 19 0 20 0;#P connect 20 0 21 0;#P connect 21 0 24 0;#P connect 26 1 25 0;#P connect 24 1 25 0;#P connect 25 0 23 0;#P connect 23 0 27 0;#P connect 33 0 41 0;#P connect 41 0 40 0;#P connect 2 0 23 1;#P connect 20 1 22 0;#P connect 22 0 26 0;#P fasten 23 1 28 0 489 413 599 413;#P connect 34 0 48 0;#P connect 48 0 42 0;#P connect 42 0 35 0;#P connect 35 0 43 0;#P connect 43 0 44 0;#P connect 38 0 39 0;#P connect 39 0 47 0;#P connect 47 0 36 0;#P connect 36 0 45 0;#P connect 45 0 46 0;#P pop;#P newobj 289 440 327 196617 p fftfilt-presets;#B color 6;#P newex 200 373 139 196617 r $1/presetstore;#B color 11;#P newex 345 373 149 196617 r $1/presetremove;#B color 11;#P number 499 405 35 9 -1 0 1 3 0 0 0 221 221 221 222 222 222 0 0 0;#P comment 510 392 63 196617 recall num;#P number 345 405 35 9 1 0 65 3 0 0 0 221 221 221 222 222 222 0 0 0;#P comment 352 392 63 196617 remove num;#P number 200 405 35 9 1 0 65 3 0 0 0 221 221 221 222 222 222 0 0 0;#P comment 209 392 53 196617 store num;#P comment 536 406 122 196617 0 = reset \, -1 = ignore;#P toggle 197 324 15 0;#P newex 212 323 278 196617 proc-randtransf0 $1/volrand $1/vol 2;#B color 6;#P comment 214 307 100 196617 volume with 0prob;#P comment 213 264 79 196617 random process;#P toggle 195 280 15 0;#P newex 212 279 217 196617 t_fftspectrand $1;#B color 6;#P newex 349 166 184 196617 buffer~ $1/EqFun2~;#B color 12;#P newex 349 146 184 196617 buffer~ $1/EqFun~;#B color 12;#P newex 25 147 247 196617 pfft~ t_fftfilt~ 1024 2 args $1;#B color 5;#P connect 20 0 21 0;#P connect 41 0 0 0;#P connect 21 0 0 0;#P connect 0 0 27 0;#P connect 27 0 22 0;#P connect 27 0 45 0;#P connect 40 0 41 0;#P connect 28 0 27 1;#P connect 29 0 27 1;#P connect 27 1 28 0;#P connect 43 0 41 1;#P connect 42 0 41 1;#P connect 41 1 42 0;#P connect 3 0 4 0;#P hidden connect 7 0 8 0;#P connect 17 0 11 0;#P connect 11 0 18 0;#P connect 16 0 13 0;#P connect 13 0 18 1;#P connect 30 0 15 0;#P connect 15 0 18 2;#P connect 39 0 36 0;#P connect 36 0 38 0;#P connect 38 0 35 0;#P connect 35 0 37 0;#P fasten 26 0 25 0 627 99 598 99;#P connect 34 0 18 3;#P connect 24 0 26 0;#P connect 26 0 23 0;#P connect 33 0 34 0;#P pop;