max v2;#N vpatcher 55 90 1063 518;#P origin 0 -57;#P window setfont "Sans Serif" 9.;#P window linecount 1;#P newex 698 113 193 196617 makeparam $1/listB $1 l @initlist clear;#B color 13;#P newex 698 157 40 196617 t clear;#P newex 698 136 60 196617 route clear;#P newex 537 157 40 196617 t clear;#P newex 537 136 60 196617 route clear;#P newex 537 84 194 196617 makeparam $1/listA $1 l @initlist clear;#B color 13;#P newex 748 235 40 196617 LtoTab;#B color 6;#P newex 606 268 37 196617 + 253;#P newex 587 235 87 196617 LtoTab;#B color 6;#P newex 167 157 250 196617 makeparam $1/interp $1 f 0 0 1 2;#B color 13;#P newex 308 222 190 196617 makeparam $1/tabsel $1 t;#B color 13;#P comment 779 311 102 196617 arg 1 : prefix name \;;#P button 903 23 15 0;#P number 223 257 49 9 0 0 0 3 0 0 0 221 221 221 222 222 222 0 0 0;#P newex 223 234 42 196617 zl nth 2;#P newex 291 201 27 196617 0;#P newex 291 181 45 196617 loadbang;#P newex 308 266 27 196617 + 1;#P toggle 308 247 15 0;#P number 308 286 35 9 0 0 0 3 0 0 0 221 221 221 222 222 222 0 0 0;#P newex 167 204 55 196617 pack 0. 20;#P newex 167 178 94 196617 route int float list;#P newex 167 234 30 196617 line~;#P newex 109 259 34 196617 !-~ 1.;#P newex 150 279 27 196617 *~;#P newex 92 279 27 196617 *~;#P newex 92 300 68 196617 +~;#P newex 235 124 142 196617 index~ $1/EqFun2~;#B color 8;#P newex 698 197 146 196617 buffer~ $1/EqFun2~;#B color 12;#P newex 453 318 144 196617 gate 2;#P newex 453 351 132 196617 peek~ $1/EqFun~;#B color 8;#P newex 607 30 103 196617 r $1/clear;#B color 11;#P flonum 917 139 58 9 0 0 0 3 0 0 0 221 221 221 222 222 222 0 0 0;#P newex 917 119 45 196617 * 1000.;#P newex 917 99 29 196617 !/ 1.;#P flonum 917 82 47 9 0 0 0 3 0 0 0 221 221 221 222 222 222 0 0 0;#P message 917 157 41 196617 size \$1;#P toggle 903 64 15 0;#P number 936 64 35 9 0 0 0 3 0 0 0 221 221 221 222 222 222 0 0 0;#P newex 903 43 53 196617 dspstate~;#P newex 53 341 27 196617 *~;#P newex 14 341 27 196617 *~;#P newex 92 124 136 196617 index~ $1/EqFun~;#B color 8;#P newex 587 351 138 196617 peek~ $1/EqFun2~;#B color 8;#P newex 537 197 140 196617 buffer~ $1/EqFun~;#B color 12;#P message 607 49 31 196617 clear;#P newex 587 294 87 196617 pack 0 0.;#P newex 14 380 49 196617 fftout~ 1;#P newex 14 53 89 196617 fftin~ 1;#P window linecount 2;#P comment 84 345 107 196617 <- this is how you do convolution filtering;#P window linecount 4;#P comment 207 41 123 196617 for a 1024 point fft \, the fft frames in fftpatcher will be made up of 512 freq bands;#P window linecount 1;#P comment 101 71 62 196617 frame index;#P comment 131 158 41 196617 0. to 1.;#P window setfont "Sans Serif" 18.;#P comment 779 275 99 196626 t_fftfilt~;#P window setfont "Sans Serif" 9.;#P comment 779 334 157 196617 prefix name: $1;#P connect 6 0 13 0;#P connect 13 0 7 0;#P connect 28 0 13 1;#P connect 6 1 14 0;#P connect 14 0 7 1;#P connect 28 0 14 1;#P connect 6 2 12 0;#P connect 12 0 29 0;#P connect 29 0 28 0;#P fasten 32 0 31 0 172 255 114 255;#P connect 31 0 29 1;#P fasten 27 0 30 0 240 149 155 149;#P lcolor 7;#P connect 30 0 28 1;#P connect 45 0 33 0;#P connect 33 1 34 0;#P connect 33 0 34 0;#P fasten 33 2 32 0 228 227 172 227;#P connect 34 0 32 0;#P connect 32 0 30 1;#P connect 33 2 40 0;#P connect 40 0 41 0;#P fasten 6 2 27 0 97 108 240 108;#P connect 38 0 39 0;#P fasten 39 0 36 0 296 243 313 243;#P connect 44 0 36 0;#P connect 36 0 37 0;#P connect 37 0 35 0;#P connect 35 0 25 0;#P connect 25 0 24 0;#P connect 49 0 50 0;#P connect 50 0 51 0;#P connect 18 0 10 0;#P connect 9 0 10 0;#P connect 51 0 10 0;#P connect 50 1 46 0;#P connect 47 0 8 0;#P connect 46 0 8 0;#P connect 8 0 25 1;#P connect 25 1 11 0;#P connect 48 0 47 0;#P connect 23 0 9 0;#P connect 48 1 8 1;#P connect 46 1 8 1;#P connect 54 0 52 0;#P connect 52 0 53 0;#P connect 18 0 26 0;#P connect 9 0 26 0;#P connect 53 0 26 0;#P connect 52 1 48 0;#P connect 42 0 15 0;#P connect 15 0 17 0;#P connect 15 1 19 0;#P connect 19 0 20 0;#P connect 20 0 21 0;#P connect 21 0 22 0;#P connect 22 0 18 0;#P connect 15 2 16 0;#P connect 16 0 20 1;#P pop;