max v2;#N vpatcher 692 312 1322 821;#P origin 0 -20;#P window setfont "Sans Serif" 9.;#P newex 21 365 214 196617 variedit $1/noise/vol $1;#B color 11;#P window setfont Times 9.;#P newex 21 385 63 1310729 pvar noisevol;#P comment 36 24 50 1310729 /noise/vol;#B frgb 0 0 200;#P flonum 36 37 30 9 0. 1. 3 20 0 0 0 221 221 221 222 222 222 0 0 0;#P objectname noisevol;#P number 219 29 30 9 -1 505 3 20 0 0 0 221 221 221 222 222 222 116 116 116;#P objectname maxbin;#P comment 326 19 75 1310729 recall -1 = ignore;#B frgb 100 100 100;#P message 244 59 26 1310729 clear;#B color 4;#P objectname clear;#P newex 362 252 47 1310729 pvar clear;#P window setfont "Sans Serif" 9.;#P message 456 209 17 196617 0.;#P message 293 209 17 196617 0.;#P window setfont Times 9.;#P newex 456 188 49 1310729 route clear;#P newex 293 188 49 1310729 route clear;#P newex 156 440 71 1310729 pvar presetstore;#P newex 156 461 153 1310729 s $1/presetstore;#B color 11;#P newex 375 438 80 1310729 pvar presetremove;#P newex 375 459 153 1310729 s $1/presetremove;#B color 11;#P newex 375 395 71 1310729 pvar presetwrite;#P newex 375 416 153 1310729 s $1/presetwrite;#B color 11;#P window setfont "Sans Serif" 9.;#P newex 156 395 214 196617 variedit $1/presetrecall $1;#B color 11;#P window setfont Times 9.;#P newex 156 415 73 1310729 pvar presetrecall;#P button 459 43 13 11;#P objectname presetwrite;#P comment 408 43 55 1310729 /presetwrite;#B frgb 100 100 100;#P window setfont "Sans Serif" 9.;#P newex 20 311 214 196617 variedit $1/vol $1;#B color 11;#P window setfont Times 9.;#P newex 20 331 42 1310729 pvar vol;#P toggle 129 6 14 0;#P objectname tabsel;#P window setfont "Sans Serif" 9.;#P newex 19 259 227 196617 variedit $1/interp $1;#B color 11;#P window setfont Times 9.;#P newex 19 279 52 1310729 pvar interp;#P flonum 129 23 35 9 0. 1. 3 20 0 0 0 221 221 221 222 222 222 0 0 0;#P objectname interp;#P comment 420 20 73 1310729 filter list presets;#P number 459 30 30 9 2 0 65 20 0 0 0 221 221 221 222 222 222 0 0 0;#P objectname presetremove;#P number 364 44 30 9 2 0 65 20 0 0 0 221 221 221 222 222 222 0 0 0;#P objectname presetstore;#P number 364 30 30 9 -1 9999 3 20 0 0 0 221 221 221 222 222 222 0 0 0;#P objectname presetrecall;#P comment 311 30 57 1310729 /presetrecall;#B frgb 0 0 200;#P comment 313 43 55 1310729 /presetstore;#B frgb 100 100 100;#P comment 399 30 64 1310729 /presetremove;#B frgb 100 100 100;#P comment 98 24 36 1310729 /interp;#B frgb 0 0 200;#P comment 96 7 36 1310729 /tabsel;#B frgb 0 0 200;#P comment 197 3 42 1310729 /fillbins;#B frgb 0 0 200;#P newex 515 331 55 1310729 pvar binvol;#P newex 448 331 58 1310729 pvar maxbin;#P newex 381 331 57 1310729 pvar minbin;#P window setfont "Sans Serif" 9.;#P newex 381 309 213 196617 variedit3iif $1/fillbins;#B color 11;#P window setfont Times 18.;#N vpatcher 364 214 640 358;#P window setfont "Sans Serif" 9.;#P window linecount 1;#P hidden newex 126 164 70 196617 bgcolor 0 0 0;#P window linecount 0;#P hidden newex 31 144 169 196617 r $1/more/editor;#B color 11;#N thispatcher;#Q end;#P hidden newobj 31 164 70 196617 thispatcher;#P bpatcher 1 1 258 126 0 0 t_fftfilt.editmore.mxt 0 $1;#P hidden connect 2 0 1 0;#P pop;#P newobj 166 140 61 1310738 p more;#B color 6;#P window setfont Times 9.;#P comment 273 63 32 1310729 /listB;#B frgb 0 0 200;#P comment 2 63 32 1310729 /listA;#B frgb 0 0 200;#P user multiSlider 256 74 255 48 0. 1. 253 2681 47 0 0 2 0 0 0;#M frgb 0 0 0;#M brgb 255 255 255;#M rgb2 127 127 127;#M rgb3 0 0 0;#M rgb4 37 52 91;#M rgb5 74 105 182;#M rgb6 112 158 18;#M rgb7 149 211 110;#M rgb8 187 9 201;#M rgb9 224 62 37;#M rgb10 7 114 128;#P objectname bins253;#P newex 456 231 61 1310729 pvar bins253;#P newex 425 156 40 1310729 t 1 l 0;#P newex 425 252 41 1310729 gate 1 1;#P newex 425 136 153 1310729 r $1/listB;#B color 11;#P newex 425 279 154 1310729 s $1/listB;#B color 11;#P newex 293 231 51 1310729 pvar bins0;#P newex 262 156 40 1310729 t 1 l 0;#P newex 262 252 41 1310729 gate 1 1;#P newex 262 136 153 1310729 r $1/listA;#B color 11;#P newex 262 279 154 1310729 s $1/listA;#B color 11;#P comment 305 63 151 1310729 bins 253-505 (10896 Hz - 21749 Hz);#P user multiSlider 2 74 255 48 0. 1. 253 2681 47 0 0 2 0 0 0;#M frgb 0 0 0;#M brgb 255 255 255;#M rgb2 127 127 127;#M rgb3 0 0 0;#M rgb4 37 52 91;#M rgb5 74 105 182;#M rgb6 112 158 18;#M rgb7 149 211 110;#M rgb8 187 9 201;#M rgb9 224 62 37;#M rgb10 7 114 128;#P objectname bins0;#P comment 34 63 121 1310729 bins 0-252 (0 Hz - 10853 Hz);#P window linecount 4;#P comment 251 6 46 1310729 min or max = -1 to disactivate;#B frgb 100 100 100;#P flonum 219 42 30 9 0. 1. 3 20 0 0 0 221 221 221 222 222 222 115 115 115;#P objectname binvol;#P window linecount 1;#P comment 182 42 38 1310729 bin vol;#P number 219 16 30 9 -1 505 3 20 0 0 0 221 221 221 222 222 222 116 116 116;#P objectname minbin;#P comment 182 16 40 1310729 min bin;#P comment 182 29 41 1310729 max bin;#P user panel 181 2 70 56;#X brgb 191 191 191;#X frgb 0 0 0;#X border 1;#X rounded 0;#X shadow 0;#X done;#P comment 107 41 24 1310729 /vol;#B frgb 0 0 200;#P flonum 129 40 30 9 0. 1. 3 20 0 0 0 221 221 221 222 222 222 0 0 0;#P objectname vol;#P window setfont "Sans Serif" 9.;#P comment 22 132 117 196617 bpat bkgnd = 512 X 124;#P comment 22 151 119 196617 bpat editor = 514 X 126;#P newex 19 209 227 196617 variedit $1/tabsel $1;#B color 11;#P window setfont Times 9.;#P newex 19 229 52 1310729 pvar tabsel;#P user panel 310 20 181 40;#X brgb 191 191 191;#X frgb 0 0 0;#X border 1;#X rounded 0;#X shadow 0;#X done;#P bpatcher 0 0 512 124 0 0 bkgnd22.mxt 0 $1 1 1;#P objectname background;#P fasten 2 0 3 0 24 250 14 250 14 206 24 206;#P connect 3 0 2 0;#P fasten 47 0 48 0 24 300 14 300 14 256 24 256;#P connect 48 0 47 0;#P fasten 50 0 51 0 25 352 15 352 15 308 25 308;#P connect 51 0 50 0;#P fasten 72 0 73 0 26 406 16 406 16 362 26 362;#P connect 73 0 72 0;#P fasten 54 0 55 0 161 436 151 436 151 392 161 392;#P connect 55 0 54 0;#P connect 61 0 60 0;#P connect 19 0 21 0;#P connect 21 2 20 0;#P connect 21 0 20 0;#P connect 66 0 18 0;#P connect 20 0 18 0;#P connect 21 1 62 0;#P connect 62 0 64 0;#P connect 62 1 22 0;#P connect 64 0 22 0;#P connect 22 0 20 1;#P connect 57 0 56 0;#P connect 59 0 58 0;#P connect 33 0 32 0;#P connect 32 0 33 0;#P connect 24 0 26 0;#P connect 26 0 25 0;#P connect 26 2 25 0;#P connect 25 0 23 0;#P connect 66 0 23 0;#P connect 34 0 32 1;#P connect 32 1 34 0;#P connect 26 1 63 0;#P connect 63 0 65 0;#P connect 63 1 27 0;#P connect 65 0 27 0;#P connect 27 0 25 1;#P connect 35 0 32 2;#P connect 32 2 35 0;#P pop;