max v2;#N vpatcher 388 64 1380 647;#P window setfont "Sans Serif" 9.;#P number 366 240 35 9 0 0 0 3 0 0 0 221 221 221 222 222 222 0 0 0;#P newex 764 297 180 196617 r $1/spectrand/init;#B color 11;#P newex 453 401 266 196617 makeparam $1/spectrand/splitpoint $1 i 64 0 127 1 20;#B color 13;#P newex 373 347 268 196617 makeparam $1/spectrand/drunkstep $1 i 32 0 128 1 20;#B color 13;#P newex 366 196 248 196617 makeparam $1/spectrand/lowcut $1 i 0 0 253 1 20;#B color 13;#P window linecount 2;#P message 735 85 82 196617 \; $1/spectrand 0;#P message 735 55 160 196617 \; $1/spectrand 1 100 3000 40 70;#P window linecount 1;#P newex 745 258 219 196617 s $1/spectrand/max%trans;#B color 11;#P newex 727 240 216 196617 s $1/spectrand/min%trans;#B color 11;#P newex 709 222 206 196617 s $1/spectrand/maxtime;#B color 11;#P newex 691 204 203 196617 s $1/spectrand/mintime;#B color 11;#P newex 673 186 180 196617 s $1/spectrand/sw;#B color 11;#P newex 673 145 121 196617 r $1/spectrand;#B color 11;#P message 23 192 39 196617 set \$1;#P newex 238 273 121 196617 s $1/tabsel;#B color 11;#P toggle 23 173 15 0;#P newex 23 153 121 196617 r $1/interp;#B color 11;#P newex 170 147 29 196617 t i 1;#P window linecount 9;#P message 764 320 179 196617 \; $1/spectrand/lowcut/init bang \; $1/spectrand/drunkstep/init bang \; $1/spectrand/splitpoint/init bang \; $1/spectrand/mintime/init bang \; $1/spectrand/maxtime/init bang \; $1/spectrand/min%trans/init bang \; $1/spectrand/max%trans/init bang \; $1/spectrand/sw/init bang \;;#P number 346 139 59 9 0 0 0 3 0 0 0 221 221 221 222 222 222 0 0 0;#P number 284 118 59 9 0 0 0 3 0 0 0 221 221 221 222 222 222 0 0 0;#P number 222 97 59 9 0 0 0 3 0 0 0 221 221 221 222 222 222 0 0 0;#P number 160 76 59 9 0 0 0 3 0 0 0 221 221 221 222 222 222 0 0 0;#P window linecount 1;#P newex 346 117 361 196617 makeparam $1/spectrand/max%trans $1 i 100 0 100 1 20;#B color 13;#P newex 284 96 358 196617 makeparam $1/spectrand/min%trans $1 i 50 0 100 1 20;#B color 13;#P newex 222 75 287 196617 makeparam $1/spectrand/maxtime $1 i 8000 0 99999 1 20;#B color 13;#P newex 160 54 284 196617 makeparam $1/spectrand/mintime $1 i 3000 0 99999 1 20;#B color 13;#P toggle 134 51 15 0;#P newex 134 31 281 196617 makeparam $1/spectrand/sw $1 t 0 0 1;#B color 13;#P newex 366 218 56 196617 clip 0 253;#P newex 230 344 27 196617 t i b;#P comment 381 183 75 196617 low cut 0-253;#P newex 255 394 20 196617 t b;#P newex 217 374 48 196617 split 0 0;#P newex 357 475 21 196617 t 1;#P newex 315 475 21 196617 t 0;#P newex 315 453 52 196617 split 0 63;#P newex 315 419 69 196617 drunk 128 32;#P newex 315 501 65 196617 zl group 253;#P newex 315 523 117 196617 s $1/listB;#B color 11;#P comment 453 388 134 196617 0/1 split point (out of 127);#P number 453 423 35 9 0 0 0 3 0 0 0 221 221 221 222 222 222 0 0 0;#P number 373 368 35 9 0 0 0 3 0 0 0 221 221 221 222 222 222 0 0 0;#P comment 268 192 80 196617 on/off indicator;#N comlet on/off indicator;#P outlet 252 191 15 0;#P newex 200 300 157 196617 r $1/spectrandtrig;#B color 11;#P newex 170 210 20 196617 t b;#P number 221 214 50 9 0 0 0 3 0 0 0 221 221 221 222 222 222 0 0 0;#P newex 170 190 61 196617 unpack;#P newex 170 170 92 196617 randtrans;#P newex 227 475 21 196617 t 1;#P newex 185 475 21 196617 t 0;#P newex 185 453 52 196617 split 0 63;#P newex 185 419 69 196617 drunk 128 32;#P newex 89 280 65 196617 pack 0. 4000;#P newex 89 374 123 196617 s $1/interp;#B color 11;#P toggle 170 231 15 0;#P newex 170 250 40 196617 t i b i;#P button 185 324 15 0;#P newex 185 344 43 196617 Uzi 253;#P newex 185 501 65 196617 zl group 253;#P newex 185 523 118 196617 s $1/listA;#B color 11;#P comment 390 334 136 196617 drunk step size (out of 128);#P window linecount 2;#P comment 733 119 173 196617 N.B. only [on/off] [time lo] [time hi] [% trans lo] [% trans hi];#P window linecount 1;#P newex 673 165 83 196617 unpack 0 0 0 0 0;#P connect 48 0 49 0;#P connect 49 0 51 0;#P fasten 7 0 10 0 175 270 94 270;#P connect 10 0 9 0;#P connect 36 0 37 0;#P fasten 17 0 10 1 226 276 149 276;#P lcolor 13;#P connect 38 0 42 0;#P fasten 37 0 47 0 139 116 175 116;#P connect 47 0 15 0;#P connect 15 0 16 0;#P connect 16 0 18 0;#P connect 18 0 8 0;#P connect 8 0 7 0;#P connect 47 1 15 1;#P connect 19 0 6 0;#P connect 7 1 6 0;#P connect 6 0 5 0;#P connect 32 0 11 0;#P connect 11 0 12 0;#P connect 12 0 13 0;#P connect 31 0 13 0;#P fasten 14 0 4 0 232 496 190 496;#P connect 13 0 4 0;#P connect 4 0 3 0;#P connect 47 1 15 2;#P fasten 42 0 15 3 165 105 214 105;#P connect 34 0 31 0;#P connect 16 1 17 0;#P connect 39 0 43 0;#P connect 43 0 15 4;#P connect 23 0 12 2;#P lcolor 13;#P connect 12 1 14 0;#P connect 5 2 34 0;#P fasten 44 0 15 5 289 138 240 138;#P connect 7 2 50 0;#P connect 22 0 11 2;#P lcolor 13;#P fasten 45 0 15 6 351 159 253 159;#P connect 15 1 20 0;#P connect 64 0 31 2;#P connect 31 1 32 0;#P connect 40 0 44 0;#P fasten 34 1 27 0 252 367 320 367;#P connect 27 0 28 0;#P connect 28 0 29 0;#P fasten 30 0 26 0 362 496 320 496;#P connect 29 0 26 0;#P connect 26 0 25 0;#P connect 41 0 45 0;#P connect 23 0 28 2;#P lcolor 13;#P connect 28 1 30 0;#P connect 60 0 35 0;#P connect 35 0 64 0;#P connect 61 0 22 0;#P connect 22 0 27 2;#P lcolor 13;#P connect 62 0 23 0;#P connect 52 0 0 0;#P connect 0 0 53 0;#P connect 0 1 54 0;#P connect 0 2 55 0;#P connect 0 3 56 0;#P connect 0 4 57 0;#P connect 63 0 46 0;#P pop;