max v2;#N vpatcher 490 70 1203 464;#P window setfont "Sans Serif" 9.;#P flonum 105 238 35 9 0 0 0 3 0 0 0 221 221 221 222 222 222 0 0 0;#P window linecount 1;#P newex 144 217 64 196617 snapshot~ 5;#P newex 144 237 242 196617 makecontrol $1/ctl $1 f 0. 1. /tape;#B color 13;#P newex 162 100 57 196617 pack 0. 20;#P newex 162 79 220 196617 makeparam $1/amp $1 f 0 0 1 1;#B color 13;#P newex 80 61 57 196617 pack 0. 20;#P newex 80 84 32 196617 line~;#P newex 26 223 27 196617 *~;#P newex 162 173 33 196617 !-~ 1;#P newex 162 148 41 196617 *~ 0.5;#P newex 80 191 27 196617 +~;#P newex 80 163 27 196617 *~;#P newex 162 121 32 196617 line~;#P newex 80 130 41 196617 *~ 0.5;#P newex 80 109 49 196617 cycle~ 1;#P newex 80 40 256 196617 makeparam $1/freq $1 f 0 -999. 999. 1;#B color 13;#P button 433 213 15 0;#P newex 411 318 133 196617 s $1/spat/init;#B color 11;#P newex 104 335 145 196617 t_fxmetersend $1;#B color 4;#P flonum 77 297 35 9 0 0 0 3 0 0 0 221 221 221 222 222 222 0 0 0;#P newex 26 297 49 196617 t_vol~ 2;#P newex 65 267 232 196617 makeparam $1/vol $1 f 1 0. 2. 1;#B color 13;#P comment 494 111 131 196617 arg 1 : module prefix name \;;#P window setfont Times 9.;#N out~ 1;#P newobj 26 335 33 1310729 out~ 1;#P window setfont "Sans Serif" 9.;#P newex 410 55 261 196617 makeswitch $1/sw $1 tape_switchstate;#B color 13;#P newex 410 98 31 196617 == 0;#P newex 410 137 50 196617 thispoly~;#B color 5;#P toggle 410 79 15 0;#P message 410 118 45 196617 mute \$1;#N in~ 1;#P newobj 26 40 31 196617 in~ 1;#P window linecount 5;#P message 433 236 173 196617 \; $1/sw/init bang \; $1/freq/init bang \; $1/amp/init bang \; $1/vol/init bang \;;#P window linecount 1;#P newex 433 191 148 196617 moduleinit $1;#B color 13;#P connect 2 0 24 0;#P connect 24 0 11 0;#P connect 11 0 8 0;#P connect 21 0 24 1;#P connect 10 0 11 1;#P connect 12 0 11 1;#P connect 11 1 12 0;#P connect 16 0 26 0;#P connect 26 0 25 0;#P connect 25 0 17 0;#P connect 17 0 18 0;#P connect 18 0 20 0;#P connect 20 0 21 0;#P connect 19 0 20 1;#P connect 23 0 21 1;#P fasten 11 0 13 0 31 322 109 322;#P connect 30 0 31 0;#P connect 21 0 30 0;#P connect 30 0 29 0;#P connect 27 0 28 0;#P connect 28 0 19 0;#P connect 19 0 22 0;#P connect 22 0 23 0;#P connect 7 0 4 0;#P connect 4 0 6 0;#P connect 6 0 3 0;#P connect 3 0 5 0;#P fasten 15 0 14 0 438 232 416 232;#P connect 0 0 15 0;#P connect 15 0 1 0;#P pop;