max v2;#N vpatcher 562 210 1449 742;#P origin 20 446;#P window setfont "Sans Serif" 9.;#P hidden newex 125 25 48 196617 loadbang;#P hidden newex 349 248 114 196617 autopattr @autoname 1;#X prestore flonum[11] 1 0 -0.64;#X prestore flonum[12] 1 0 0.32;#X prestore flonum[13] 1 0 0.;#X prestore flonum[14] 1 0 0.58;#X prestore flonum[15] 1 0 0.31;#X prestore flonum[16] 1 0 0.;#X prestore flonum[17] 1 0 -0.63;#X prestore flonum[18] 1 0 -0.35;#X prestore flonum[19] 1 0 0.;#X prestore flonum[20] 1 0 0.51;#X prestore flonum[21] 1 0 -0.32;#X prestore flonum[22] 1 0 0.;#X prestore toggle 1 0 1;#P objectname u809001285;#P hidden newex 349 227 67 196617 pattrstorage;#X client_rect 408 402 955 809;#X storage_rect 0 0 640 240;#P objectname u774001267;#P flonum 213 421 35 9 0 0 0 3 0 0 0 221 221 221 222 222 222 0 0 0;#P objectname flonum[22];#P flonum 181 421 35 9 0 0 0 3 0 0 0 221 221 221 222 222 222 0 0 0;#P objectname flonum[21];#P flonum 149 421 35 9 0 0 0 3 0 0 0 221 221 221 222 222 222 0 0 0;#P objectname flonum[20];#P newex 132 443 68 196617 pak 0. 0. 0.;#P flonum 211 359 35 9 0 0 0 3 0 0 0 221 221 221 222 222 222 0 0 0;#P objectname flonum[19];#P flonum 179 359 35 9 0 0 0 3 0 0 0 221 221 221 222 222 222 0 0 0;#P objectname flonum[18];#P flonum 147 359 35 9 0 0 0 3 0 0 0 221 221 221 222 222 222 0 0 0;#P objectname flonum[17];#P newex 130 381 68 196617 pak 0. 0. 0.;#P flonum 210 296 35 9 0 0 0 3 0 0 0 221 221 221 222 222 222 0 0 0;#P objectname flonum[16];#P flonum 178 296 35 9 0 0 0 3 0 0 0 221 221 221 222 222 222 0 0 0;#P objectname flonum[15];#P flonum 146 296 35 9 0 0 0 3 0 0 0 221 221 221 222 222 222 0 0 0;#P objectname flonum[14];#P newex 129 318 68 196617 pak 0. 0. 0.;#P flonum 210 218 35 9 0 0 0 3 0 0 0 221 221 221 222 222 222 0 0 0;#P objectname flonum[13];#P flonum 178 218 35 9 0 0 0 3 0 0 0 221 221 221 222 222 222 0 0 0;#P objectname flonum[12];#P flonum 146 218 35 9 0 0 0 3 0 0 0 221 221 221 222 222 222 0 0 0;#P objectname flonum[11];#P newex 129 240 68 196617 pak 0. 0. 0.;#P hidden button 125 47 15 0;#P hidden message 639 76 90 196617 read garbage.mov;#P hidden message 469 76 83 196617 read dishes.mov;#P hidden message 125 76 102 196617 read countdown.mov;#P hidden message 300 76 80 196617 read dozer.mov;#P newex 0 231 88 196617 jit.gl.render stiff;#P objectname jit.gl.render;#P toggle 0 22 15 0;#P objectname toggle;#P window linecount 2;#P newex 0 257 85 196617 jit.window stiff @floating 1;#P objectname jit.window;#P window linecount 1;#P newex 0 89 51 196617 qmetro 2;#P newex 0 186 58 196617 t b b erase;#P message 87 470 194 196617 texture movie4 \, position \$1 \$2 \$3 \, bang;#P message 101 403 194 196617 texture movie3 \, position \$1 \$2 \$3 \, bang;#P message 115 340 194 196617 texture movie2 \, position \$1 \$2 \$3 \, bang;#P message 129 265 194 196617 texture movie1 \, position \$1 \$2 \$3 \, bang;#P newex 87 215 53 196617 t b b b b;#P window linecount 2;#P newex 325 503 251 196617 jit.gl.videoplane stiff @depth_enable 1 @blend_enable 1 @automatic 0 @dim 2 2 @scale 0.5 0.5 0.5;#P objectname jit.gl.videoplane;#P window linecount 1;#P newex 639 123 105 196617 jit.qt.movie 320 240;#P objectname jit.qt.movie[3];#P newex 639 148 162 196617 jit.gl.texture stiff @name movie4;#P objectname jit.gl.texture[3];#P newex 469 150 162 196617 jit.gl.texture stiff @name movie3;#P objectname jit.gl.texture[2];#P newex 125 150 162 196617 jit.gl.texture stiff @name movie1;#P objectname jit.gl.texture[1];#P newex 300 149 162 196617 jit.gl.texture stiff @name movie2;#P objectname jit.gl.texture;#P newex 469 123 105 196617 jit.qt.movie 320 240;#P objectname jit.qt.movie[2];#P newex 125 123 105 196617 jit.qt.movie 320 240;#P objectname jit.qt.movie[1];#P newex 300 123 105 196617 jit.qt.movie 320 240;#P objectname jit.qt.movie;#P fasten 17 0 15 0 5 63 5 63;#P fasten 15 0 14 0 5 140 5 140;#P fasten 14 0 18 0 5 218 5 218;#P fasten 14 2 18 0 53 218 5 218;#P fasten 14 1 9 0 29 206 92 206;#P connect 36 0 13 0;#P connect 9 0 13 0;#P connect 32 0 12 0;#P connect 9 1 12 0;#P connect 28 0 11 0;#P connect 9 2 11 0;#P hidden connect 42 0 23 0;#P hidden fasten 23 0 20 0 130 69 130 69;#P fasten 15 0 1 0 5 114 130 114;#P hidden connect 20 0 1 0;#P connect 1 0 4 0;#P connect 25 0 24 0;#P connect 9 3 24 0;#P connect 24 0 10 0;#P connect 29 0 28 0;#P connect 33 0 32 0;#P connect 37 0 36 0;#P connect 26 0 24 1;#P connect 30 0 28 1;#P connect 34 0 32 1;#P connect 38 0 36 1;#P connect 27 0 24 2;#P connect 31 0 28 2;#P connect 35 0 32 2;#P connect 39 0 36 2;#P hidden fasten 23 0 19 0 130 69 305 69;#P fasten 15 0 0 0 5 114 305 114;#P hidden connect 19 0 0 0;#P connect 0 0 3 0;#P fasten 11 0 8 0 120 356 330 356;#P fasten 10 0 8 0 134 286 330 286;#P fasten 12 0 8 0 106 419 330 419;#P fasten 13 0 8 0 92 488 330 488;#P hidden fasten 23 0 21 0 130 69 474 69;#P fasten 15 0 2 0 5 114 474 114;#P hidden connect 21 0 2 0;#P connect 2 0 5 0;#P hidden fasten 23 0 22 0 130 69 644 69;#P fasten 15 0 7 0 5 114 644 114;#P hidden connect 22 0 7 0;#P connect 7 0 6 0;#P pop;