max v2;#N vpatcher 179 216 1232 851;#P origin 83 -91;#P window setfont "Sans Serif" 9.;#P newex 422 22 48 196617 loadbang;#P message 419 47 23 196617 0.5;#P window linecount 2;#P message 829 606 165 196617 outmtrx disconnect /ch.4 /plan.2 \; outmtrx connect /ch.4 /plan.4 \;;#P window linecount 1;#P newex 275 256 30 196617 t b b;#P message 943 122 14 196617 0;#P message 926 122 14 196617 1;#P message 782 123 14 196617 0;#P message 765 123 14 196617 1;#P message 673 123 14 196617 0;#P message 656 123 14 196617 1;#P message 553 119 14 196617 0;#P message 536 119 14 196617 1;#P window linecount 11;#P message 207 437 123 196617 \; /ch.3/buf.1/loop/sw 0 \; /ch.3/buf.1/play 1 \; /ch.3/buf.1/rec 1 \; /ch.3/buf.1/speed 1 \; /ch.3/buf.1/delay 0 \; /ch.4/buf.1/loop/sw 0 \; /ch.4/buf.1/play 1 \; /ch.4/buf.1/rec 1 \; /ch.4/buf.1/speed 1 \; /ch.4/buf.1/delay 0 \;;#P toggle 956 141 15 0;#P window linecount 1;#P newex 960 164 29 196617 gate;#P newex 960 37 102 196617 r /ch.4/buf.1/delay;#P newex 960 101 110 196617 if ($f1<$f2) then bang;#P toggle 803 142 15 0;#P toggle 686 142 15 0;#P newex 807 165 29 196617 gate;#P newex 691 165 29 196617 gate;#P toggle 575 142 15 0;#P newex 584 165 29 196617 gate;#P newex 807 38 102 196617 r /ch.3/buf.1/delay;#P newex 807 102 110 196617 if ($f1<$f2) then bang;#P newex 691 36 102 196617 r /ch.4/buf.1/delay;#P newex 691 100 110 196617 if ($f1<$f2) then bang;#P newex 574 37 102 196617 r /ch.3/buf.1/delay;#P newex 574 101 110 196617 if ($f1<$f2) then bang;#P flonum 628 63 35 9 0 0 0 3 0 0 0 221 221 221 222 222 222 0 0 0;#P flonum 901 287 35 9 0 0 0 3 0 0 0 221 221 221 222 222 222 0 0 0;#P newex 807 294 27 196617 f;#P newex 691 298 27 196617 f;#P newex 584 298 27 196617 f;#P newex 480 295 27 196617 f;#P newex 877 246 155 196617 r /ch.3/buf.1/loop/begin/delay;#P window linecount 6;#P message 807 322 120 196617 \; /plan.2/sw 0 \; /plan.4/sw 1 \; /ch.4/buf.1/speed -1 \; /ch.4/buf.1/delay \$1 \; /ch.4/buf.1/loop/sw 1 \;;#P message 691 425 120 196617 \; /plan.3/sw 0 \; /plan.1/sw 1 \; /ch.3/buf.1/speed -1 \; /ch.3/buf.1/delay \$1 \; /ch.3/buf.1/loop/sw 1 \;;#P message 583 529 120 196617 \; /plan.4/sw 0 \; /plan.2/sw 1 \; /ch.4/buf.1/speed -1 \; /ch.4/buf.1/delay \$1 \; /ch.4/buf.1/loop/sw 1 \;;#P message 480 631 120 196617 \; /plan.1/sw 0 \; /plan.3/sw 1 \; /ch.3/buf.1/speed -1 \; /ch.3/buf.1/delay \$1 \; /ch.3/buf.1/loop/sw 1 \;;#P window linecount 3;#P message 275 288 136 196617 \; /ch.3/buf.1/loop/end bang \; /ch.4/buf.1/loop/end bang \;;#P message 210 338 144 196617 \; /ch.3/buf.1/loop/begin bang \; /ch.4/buf.1/loop/begin bang \;;#P button 275 188 56 0;#P button 210 188 56 0;#P button 807 209 56 0;#P button 691 209 56 0;#P button 584 209 56 0;#P button 480 209 56 0;#P button 9 206 15 0;#P window linecount 1;#N qlist;#X append /ch.3/init bang \; /ch.4/init bang \; 50 \; /ch.3/sw 1 \; /ch.3/bus1 none \; /ch.3/bus2 none \; /ch.3/bus3;#X append none \; /ch.3/bus4 none \; /ch.3/modules buf crop thresh \; /ch.4/sw 1 \; /ch.4/bus1 none \; /ch.4/bus2 none;#X append \; /ch.4/bus3 none \; /ch.4/bus4 none \; /ch.4/modules buf crop thresh \; 250 \; /cam.1/preview 0 \; /cam.1/sw;#X append 1 \; /cam.1/quality 5 \; /cam.1/dim/x 640 \; /cam.1/dim/y 480 \; /cam.1/zoom/center/x 0.5 \; /cam.1/zoom/center/y 0.5 \; /cam.1/zoom/coeff;#X append 1. \; /cam.1/interp 1 \; /cam.1/status open \; /plan.1/sw 1 \; /plan.1/drawto movie \; /plan.1/crop/x1 0 \; /plan.1/crop/x2;#X append 1 \; /plan.1/crop/y1 0 \; /plan.1/crop/y2 1 \; /plan.1/clientstorage 1 \; /plan.1/interp 1 \; /plan.1/smoothshading 0 \; /plan.1/mesh;#X append 0 \; /plan.1/matrixoutput 0 \; /plan.1/transformreset 0 \; /plan.1/shininess 10. \; /plan.1/nudge 0.01 \; /plan.1/blend 1 \; /plan.1/blendmode/src;#X append 6 \; /plan.1/blendmode/dst 7 \; /plan.1/pos/x -1. \; /plan.1/pos/y 0 \; /plan.1/pos/z 0. \; /plan.1/rot/x 0. \; /plan.1/rot/y;#X append 0. \; /plan.1/rot/z 0. \; /plan.1/rot/angle 0. \; /plan.1/scale/x 0.3 \; /plan.1/scale/y 0.25 \; /plan.1/scale/z 1. \; /plan.1/color/red;#X append 1. \; /plan.1/color/green 1. \; /plan.1/color/blue 1. \; /plan.1/color/coef 1. \; /plan.1/color/alpha 1. \; /plan.1/layer 0 \; /plan.1/lighting;#X append 0 \; /plan.2/sw 1 \; /plan.2/drawto movie \; /plan.2/crop/x1 0. \; /plan.2/crop/x2 1. \; /plan.2/crop/y1 0. \; /plan.2/crop/y2;#X append 1. \; /plan.2/clientstorage 1 \; /plan.2/interp 1 \; /plan.2/smoothshading 0 \; /plan.2/mesh 0 \; /plan.2/matrixoutput 0 \; /plan.2/transformreset;#X append 0 \; /plan.2/shininess 10. \; /plan.2/nudge 0.01 \; /plan.2/blend 1 \; /plan.2/blendmode/src 6 \; /plan.2/blendmode/dst 7 \; /plan.2/pos/x;#X append -0.33 \; /plan.2/pos/y 0 \; /plan.2/pos/z 0. \; /plan.2/rot/x 0. \; /plan.2/rot/y 0. \; /plan.2/rot/z 0. \; /plan.2/rot/angle;#X append 0. \; /plan.2/scale/x 0.3 \; /plan.2/scale/y 0.25 \; /plan.2/scale/z 1. \; /plan.2/color/red 1. \; /plan.2/color/green 1. \; /plan.2/color/blue;#X append 1. \; /plan.2/color/coef 1. \; /plan.2/color/alpha 1. \; /plan.2/layer 0 \; /plan.2/lighting 0 \; /plan.3/sw 1 \; /plan.3/drawto;#X append movie \; /plan.3/crop/x1 0 \; /plan.3/crop/x2 1 \; /plan.3/crop/y1 0 \; /plan.3/crop/y2 1 \; /plan.3/clientstorage 1 \; /plan.3/interp;#X append 1 \; /plan.3/smoothshading 0 \; /plan.3/mesh 0 \; /plan.3/matrixoutput 0 \; /plan.3/transformreset 0 \; /plan.3/shininess 10. \; /plan.3/nudge;#X append 0.01 \; /plan.3/blend 1 \; /plan.3/blendmode/src 6 \; /plan.3/blendmode/dst 7 \; /plan.3/pos/x 0.33 \; /plan.3/pos/y 0 \; /plan.3/pos/z;#X append 0. \; /plan.3/rot/x 0. \; /plan.3/rot/y 0. \; /plan.3/rot/z 0. \; /plan.3/rot/angle 0. \; /plan.3/scale/x 0.3 \; /plan.3/scale/y;#X append 0.25 \; /plan.3/scale/z 1. \; /plan.3/color/red 1. \; /plan.3/color/green 1. \; /plan.3/color/blue 1. \; /plan.3/color/coef 1. \; /plan.3/color/alpha;#X append 1. \; /plan.3/layer 0 \; /plan.3/lighting 0 \; /plan.4/sw 1 \; /plan.4/drawto movie \; /plan.4/crop/x1 0. \; /plan.4/crop/x2;#X append 1. \; /plan.4/crop/y1 0. \; /plan.4/crop/y2 1. \; /plan.4/clientstorage 1 \; /plan.4/interp 1 \; /plan.4/smoothshading 0 \; /plan.4/mesh;#X append 0 \; /plan.4/matrixoutput 0 \; /plan.4/transformreset 0 \; /plan.4/shininess 10. \; /plan.4/nudge 0.01 \; /plan.4/blend 1 \; /plan.4/blendmode/src;#X append 6 \; /plan.4/blendmode/dst 7 \; /plan.4/pos/x 1. \; /plan.4/pos/y 0 \; /plan.4/pos/z 0. \; /plan.4/rot/x 0. \; /plan.4/rot/y;#X append 0. \; /plan.4/rot/z 0. \; /plan.4/rot/angle 0. \; /plan.4/scale/x 0.3 \; /plan.4/scale/y 0.25 \; /plan.4/scale/z 1. \; /plan.4/color/red;#X append 1. \; /plan.4/color/green 1. \; /plan.4/color/blue 1. \; /plan.4/color/coef 1. \; /plan.4/color/alpha 1. \; /plan.4/layer 0 \; /plan.4/lighting;#X append 0 \; /ch.3/buf.1/sw 1 \; /ch.3/buf.1/dim/x 640 \; /ch.3/buf.1/dim/y 480 \; /ch.3/buf.1/buf/max 8. \; /ch.3/buf.1/rec 1 \; /ch.3/buf.1/play;#X append 1 \; /ch.3/buf.1/speed 1. \; /ch.3/buf.1/delay 0. \; /ch.3/buf.1/speed/bang 0 \; /ch.3/buf.1/speed/endSpeed 0. \; /ch.3/buf.1/speed/time 0. \; /ch.3/buf.1/speed/curve;#X append 1. \; /ch.3/buf.1/speed/curve/mode exp \; /ch.3/buf.1/speed/curve/sym 1 \; /ch.3/buf.1/delay/bang 0 \; /ch.3/buf.1/delay/endDelay 0. \; /ch.3/buf.1/delay/time 0. \; /ch.3/buf.1/delay/curve;#X append 1. \; /ch.3/buf.1/delay/curve/mode exp \; /ch.3/buf.1/delay/curve/sym 1 \; /ch.3/buf.1/loop/sw 0 \; /ch.3/buf.1/loop/mode 0 \; /ch.3/buf.1/loop/autostart 0 \; /ch.3/buf.1/loop/begin/delay;#X append 0.01 \; /ch.3/buf.1/loop/end/delay 0.01 \; /ch.3/crop.1/sw 1 \; /ch.3/crop.1/srcdim/x1 0.65 \; /ch.3/crop.1/srcdim/x2 0.9 \; /ch.3/crop.1/srcdim/y1 0.1 \; /ch.3/crop.1/srcdim/y2;#X append 0.7 \; /ch.3/crop.1/dstdim/x1 0. \; /ch.3/crop.1/dstdim/x2 1. \; /ch.3/crop.1/dstdim/y1 0. \; /ch.3/crop.1/dstdim/y2 1. \; /ch.3/crop.1/interp 0 \; /ch.3/thresh.1/sw;#X append 1 \; /ch.3/thresh.1/threshold 0.33 \; /ch.3/thresh.1/fill/color/r 1. \; /ch.3/thresh.1/fill/color/g 1. \; /ch.3/thresh.1/fill/color/b 1. \; /ch.3/thresh.1/fill/color/a 1. \; /ch.3/thresh.1/fill/useText;#X append 0 \; /ch.3/thresh.1/out/color/r 0. \; /ch.3/thresh.1/out/color/g 0. \; /ch.3/thresh.1/out/color/b 0. \; /ch.3/thresh.1/out/color/a 0.3 \; /ch.3/thresh.1/reverse 1 \; /ch.4/buf.1/sw;#X append 1 \; /ch.4/buf.1/dim/x 640 \; /ch.4/buf.1/dim/y 480 \; /ch.4/buf.1/buf/max 8. \; /ch.4/buf.1/rec 1 \; /ch.4/buf.1/play 1 \; /ch.4/buf.1/speed;#X append 1. \; /ch.4/buf.1/delay 0. \; /ch.4/buf.1/speed/bang 0 \; /ch.4/buf.1/speed/endSpeed 0. \; /ch.4/buf.1/speed/time 0. \; /ch.4/buf.1/speed/curve 1. \; /ch.4/buf.1/speed/curve/mode;#X append exp \; /ch.4/buf.1/speed/curve/sym 1 \; /ch.4/buf.1/delay/bang 0 \; /ch.4/buf.1/delay/endDelay 0. \; /ch.4/buf.1/delay/time 0. \; /ch.4/buf.1/delay/curve 1. \; /ch.4/buf.1/delay/curve/mode;#X append exp \; /ch.4/buf.1/delay/curve/sym 1 \; /ch.4/buf.1/loop/sw 0 \; /ch.4/buf.1/loop/mode 0 \; /ch.4/buf.1/loop/autostart 0 \; /ch.4/buf.1/loop/begin/delay 0.01 \; /ch.4/buf.1/loop/end/delay;#X append 0.01 \; /ch.4/crop.1/sw 1 \; /ch.4/crop.1/srcdim/x1 0.65 \; /ch.4/crop.1/srcdim/x2 0.9 \; /ch.4/crop.1/srcdim/y1 0.1 \; /ch.4/crop.1/srcdim/y2 0.7 \; /ch.4/crop.1/dstdim/x1;#X append 0. \; /ch.4/crop.1/dstdim/x2 1. \; /ch.4/crop.1/dstdim/y1 0. \; /ch.4/crop.1/dstdim/y2 1. \; /ch.4/crop.1/interp 0 \; /ch.4/thresh.1/sw 1 \; /ch.4/thresh.1/threshold;#X append 0.33 \; /ch.4/thresh.1/fill/color/r 1. \; /ch.4/thresh.1/fill/color/g 1. \; /ch.4/thresh.1/fill/color/b 1. \; /ch.4/thresh.1/fill/color/a 1. \; /ch.4/thresh.1/fill/useText 0 \; /ch.4/thresh.1/out/color/r;#X append 0. \; /ch.4/thresh.1/out/color/g 0. \; /ch.4/thresh.1/out/color/b 0. \; /ch.4/thresh.1/out/color/a 0.3 \; /ch.4/thresh.1/reverse 1 \; inmtrx connect /cam.1 /ch.3a;#X append \; inmtrx connect /cam.1 /ch.4a \; outmtrx connect /ch.3 /plan.1 \; outmtrx connect /ch.4 /plan.2 \; outmtrx connect;#X append /ch.3 /plan.3 \; outmtrx connect /ch.4 /plan.4 \; /plan.5/sw 0 \; /plan.5/drawto movie \; /plan.5/crop/x1 0. \; /plan.5/crop/x2;#X append 1. \; /plan.5/crop/y1 0. \; /plan.5/crop/y2 1. \; /plan.5/clientstorage 1 \; /plan.5/interp 1 \; /plan.5/smoothshading 0 \; /plan.5/mesh;#X append 0 \; /plan.5/matrixoutput 0 \; /plan.5/transformreset 0 \; /plan.5/shininess 10. \; /plan.5/nudge 0.01 \; /plan.5/blend 1 \; /plan.5/blendmode/src;#X append 6 \; /plan.5/blendmode/dst 7 \; /plan.5/pos/x 0. \; /plan.5/pos/y 0. \; /plan.5/pos/z 0. \; /plan.5/rot/x 0. \; /plan.5/rot/y;#X append 0. \; /plan.5/rot/z 0. \; /plan.5/rot/angle 0. \; /plan.5/scale/x 1.33 \; /plan.5/scale/y 1. \; /plan.5/scale/z 1. \; /plan.5/color/red;#X append 1. \; /plan.5/color/green 1. \; /plan.5/color/blue 1. \; /plan.5/color/coef 1. \; /plan.5/color/alpha 1. \; /plan.5/layer 0 \; /plan.5/lighting;#X append 0 \; outmtrx connect /ch.3 /plan.5 \; /render/erasecolor/red 0.431373 \; /render/erasecolor/green 0.431373 \; /render/erasecolor/blue 0.431373 \;;#P newobj 9 229 40 196617 qlist;#N vpatcher 30 89 630 489;#P button 50 263 15 0;#P button 50 193 15 0;#P window setfont "Sans Serif" 9.;#P window linecount 0;#P newex 891 56 88 196617 r /buf/storetime;#N qlist;#X append /buf/storetime 1 \; /ch.2/buf.1/sw 1 \; /ch.2/buf.1/dim/x 640 \; /ch.2/buf.1/dim/y 480 \; /ch.2/buf.1/buf/max 8. \; /ch.2/buf.1/rec 1 \;;#X append /ch.2/buf.1/play 1 \; /ch.2/buf.1/speed 1. \; /ch.2/buf.1/delay 0. \; /ch.2/buf.1/speed/bang 0 \; /ch.2/buf.1/speed/endSpeed 0. \; /ch.2/buf.1/speed/time 0. \;;#X append /ch.2/buf.1/speed/curve 1. \; /ch.2/buf.1/speed/curve/mode exp \; /ch.2/buf.1/speed/curve/sym 1 \; /ch.2/buf.1/delay/bang 0 \; /ch.2/buf.1/delay/endDelay 0. \; /ch.2/buf.1/delay/time 0. \;;#X append /ch.2/buf.1/delay/curve 1. \; /ch.2/buf.1/delay/curve/mode exp \; /ch.2/buf.1/delay/curve/sym 1 \; /ch.2/buf.1/loop/sw 0 \; /ch.2/buf.1/loop/mode 1 \; /ch.2/buf.1/loop/autostart 2 \;;#X append /ch.2/buf.1/loop/begin/delay 0.88 \; /ch.2/buf.1/loop/end/delay 0.01 \; /ch.1/buf.1/sw 1 \; /ch.1/buf.1/dim/x 640 \; /ch.1/buf.1/dim/y 480 \; /ch.1/buf.1/buf/max 8. \;;#X append /ch.1/buf.1/rec 1 \; /ch.1/buf.1/play 1 \; /ch.1/buf.1/speed 1. \; /ch.1/buf.1/delay 0. \; /ch.1/buf.1/speed/bang 0 \; /ch.1/buf.1/speed/endSpeed 0. \;;#X append /ch.1/buf.1/speed/time 0. \; /ch.1/buf.1/speed/curve 1. \; /ch.1/buf.1/speed/curve/mode exp \; /ch.1/buf.1/speed/curve/sym 1 \; /ch.1/buf.1/delay/bang 0 \; /ch.1/buf.1/delay/endDelay 0. \;;#X append /ch.1/buf.1/delay/time 0. \; /ch.1/buf.1/delay/curve 1. \; /ch.1/buf.1/delay/curve/mode exp \; /ch.1/buf.1/delay/curve/sym 1 \; /ch.1/buf.1/loop/sw 0 \; /ch.1/buf.1/loop/mode 1 \;;#X append /ch.1/buf.1/loop/autostart 2 \; /ch.1/buf.1/loop/begin/delay 1.32 \; /ch.1/buf.1/loop/end/delay 0.45 \;;#P newobj 50 281 40 196617 qlist;#P window linecount 7;#P message 540 98 125 196617 \; /ch.1/buf.1/speed 0 \; /ch.2/buf.1/speed 0 \; /ch.1/buf.1/delay 0. \; /ch.2/buf.1/delay 0.85 \; /ch.1/buf.1/speed -0.5 \; /ch.2/buf.1/speed -0.5 \;;#P window linecount 2;#P message 1322 372 158 196617 \; /ch.2/buf.1/loop/end/delay \$1 \;;#P message 1230 414 158 196617 \; /ch.1/buf.1/loop/end/delay \$1 \;;#P message 938 412 166 196617 \; /ch.1/buf.1/loop/begin/delay \$1 \;;#P message 1173 77 160 196617 \; /ch.2/buf.1/loop/begin/delay 1 \;;#P button 1121 229 15 0;#P flonum 1342 306 35 9 0 0 0 3 0 0 0 221 221 221 222 222 222 0 0 0;#P flonum 1256 317 35 9 0 0 0 3 0 0 0 221 221 221 222 222 222 0 0 0;#P flonum 1049 299 35 9 0 0 0 3 0 0 0 221 221 221 222 222 222 0 0 0;#P flonum 900 299 35 9 0 0 0 3 0 0 0 221 221 221 222 222 222 0 0 0;#P flonum 1332 354 35 9 0 0 0 3 0 0 0 221 221 221 222 222 222 0 0 0;#P flonum 1242 395 35 9 0 0 0 3 0 0 0 221 221 221 222 222 222 0 0 0;#P flonum 1027 354 35 9 0 0 0 3 0 0 0 221 221 221 222 222 222 0 0 0;#P flonum 949 391 35 9 0 0 0 3 0 0 0 221 221 221 222 222 222 0 0 0;#P flonum 818 92 35 9 0 0 0 3 0 0 0 221 221 221 222 222 222 0 0 0;#P window linecount 1;#P newex 1318 225 29 196617 gate;#P newex 1224 223 29 196617 gate;#P newex 1009 225 29 196617 gate;#P newex 939 225 29 196617 gate;#P toggle 891 117 15 0;#P window linecount 2;#P message 1013 371 166 196617 \; /ch.2/buf.1/loop/begin/delay \$1 \;;#P window linecount 1;#P newex 1322 332 27 196617 + 0.;#P newex 1230 332 27 196617 + 0.;#P newex 1013 332 27 196617 + 0.;#P newex 823 168 29 196617 t b f;#P toggle 789 92 15 0;#P newex 789 168 29 196617 t b f;#P newex 938 332 27 196617 + 0.;#P user gswitch2 789 120 39 32 0 0;#P newex 1322 285 27 196617 f;#P newex 1230 285 27 196617 f;#P newex 1013 285 27 196617 f;#P newex 938 285 27 196617 f;#P newex 1222 132 147 196617 r /ch.1/buf.1/loop/end/delay;#P newex 1314 155 147 196617 r /ch.2/buf.1/loop/end/delay;#P newex 935 133 155 196617 r /ch.1/buf.1/loop/begin/delay;#P newex 1010 156 155 196617 r /ch.2/buf.1/loop/begin/delay;#P window linecount 4;#P message 98 384 136 196617 \; /ch.1/buf.1/loop/end bang \; /ch.2/buf.1/loop/end bang \; /buf/storetime 0 \;;#P window linecount 3;#P message 96 313 144 196617 \; /ch.1/buf.1/loop/begin bang \; /ch.2/buf.1/loop/begin bang \;;#P window linecount 1;#N qlist;#X append /cam.1/preview 0 \; /cam.1/sw 1 \; /cam.1/quality 5 \; /cam.1/dim/x 640 \; /cam.1/dim/y 480 \; /cam.1/zoom/center/x 0.5 \;;#X append /cam.1/zoom/center/y 0.5 \; /cam.1/zoom/coeff 1. \; /cam.1/interp 1 \; /cam.1/status open \; /plan.1/sw 1 \; /plan.1/drawto movie \;;#X append /plan.1/crop/x1 0. \; /plan.1/crop/x2 1. \; /plan.1/crop/y1 0. \; /plan.1/crop/y2 1. \; /plan.1/clientstorage 1 \; /plan.1/interp 1 \;;#X append /plan.1/smoothshading 0 \; /plan.1/mesh 0 \; /plan.1/matrixoutput 0 \; /plan.1/transformreset 0 \; /plan.1/shininess 10. \; /plan.1/nudge 0.01 \;;#X append /plan.1/blend 1 \; /plan.1/blendmode/src 6 \; /plan.1/blendmode/dst 7 \; /plan.1/pos/x -1. \; /plan.1/pos/y 0. \; /plan.1/pos/z 0. \;;#X append /plan.1/rot/x 0. \; /plan.1/rot/y 0. \; /plan.1/rot/z 0. \; /plan.1/rot/angle 0. \; /plan.1/scale/x 1.33 \; /plan.1/scale/y 1. \;;#X append /plan.1/scale/z 1. \; /plan.1/color/red 1. \; /plan.1/color/green 1. \; /plan.1/color/blue 1. \; /plan.1/color/coef 1. \; /plan.1/color/alpha 1. \;;#X append /plan.1/layer 0 \; /plan.1/lighting 0 \; /plan.2/sw 1 \; /plan.2/drawto movie \; /plan.2/crop/x1 0. \; /plan.2/crop/x2 1. \;;#X append /plan.2/crop/y1 0. \; /plan.2/crop/y2 1. \; /plan.2/clientstorage 1 \; /plan.2/interp 1 \; /plan.2/smoothshading 0 \; /plan.2/mesh 0 \;;#X append /plan.2/matrixoutput 0 \; /plan.2/transformreset 0 \; /plan.2/shininess 10. \; /plan.2/nudge 0.01 \; /plan.2/blend 1 \; /plan.2/blendmode/src 6 \;;#X append /plan.2/blendmode/dst 7 \; /plan.2/pos/x -0.33 \; /plan.2/pos/y 0. \; /plan.2/pos/z 0. \; /plan.2/rot/x 0. \; /plan.2/rot/y 0. \;;#X append /plan.2/rot/z 0. \; /plan.2/rot/angle 0. \; /plan.2/scale/x 1.33 \; /plan.2/scale/y 1. \; /plan.2/scale/z 1. \; /plan.2/color/red 1. \;;#X append /plan.2/color/green 1. \; /plan.2/color/blue 1. \; /plan.2/color/coef 1. \; /plan.2/color/alpha 1. \; /plan.2/layer 0 \; /plan.2/lighting 0 \;;#X append /plan.3/sw 1 \; /plan.3/drawto movie \; /plan.3/crop/x1 0. \; /plan.3/crop/x2 1. \; /plan.3/crop/y1 0. \; /plan.3/crop/y2 1. \;;#X append /plan.3/clientstorage 1 \; /plan.3/interp 1 \; /plan.3/smoothshading 0 \; /plan.3/mesh 0 \; /plan.3/matrixoutput 0 \; /plan.3/transformreset 0 \;;#X append /plan.3/shininess 10. \; /plan.3/nudge 0.01 \; /plan.3/blend 1 \; /plan.3/blendmode/src 6 \; /plan.3/blendmode/dst 7 \; /plan.3/pos/x 0.33 \;;#X append /plan.3/pos/y 0. \; /plan.3/pos/z 0. \; /plan.3/rot/x 0. \; /plan.3/rot/y 0. \; /plan.3/rot/z 0. \; /plan.3/rot/angle 0. \;;#X append /plan.3/scale/x 1.33 \; /plan.3/scale/y 1. \; /plan.3/scale/z 1. \; /plan.3/color/red 1. \; /plan.3/color/green 1. \; /plan.3/color/blue 1. \;;#X append /plan.3/color/coef 1. \; /plan.3/color/alpha 1. \; /plan.3/layer 0 \; /plan.3/lighting 0 \; /plan.4/sw 1 \; /plan.4/drawto movie \;;#X append /plan.4/crop/x1 0. \; /plan.4/crop/x2 1. \; /plan.4/crop/y1 0. \; /plan.4/crop/y2 1. \; /plan.4/clientstorage 1 \; /plan.4/interp 1 \;;#X append /plan.4/smoothshading 0 \; /plan.4/mesh 0 \; /plan.4/matrixoutput 0 \; /plan.4/transformreset 0 \; /plan.4/shininess 10. \; /plan.4/nudge 0.01 \;;#X append /plan.4/blend 1 \; /plan.4/blendmode/src 6 \; /plan.4/blendmode/dst 7 \; /plan.4/pos/x 1. \; /plan.4/pos/y 0. \; /plan.4/pos/z 0. \;;#X append /plan.4/rot/x 0. \; /plan.4/rot/y 0. \; /plan.4/rot/z 0. \; /plan.4/rot/angle 0. \; /plan.4/scale/x 1.33 \; /plan.4/scale/y 1. \;;#X append /plan.4/scale/z 1. \; /plan.4/color/red 1. \; /plan.4/color/green 1. \; /plan.4/color/blue 1. \; /plan.4/color/coef 1. \; /plan.4/color/alpha 1. \;;#X append /plan.4/layer 0 \; /plan.4/lighting 0 \; /ch.1/buf.1/sw 1 \; /ch.1/buf.1/dim/x 640 \; /ch.1/buf.1/dim/y 480 \; /ch.1/buf.1/buf/max 8. \;;#X append /ch.1/buf.1/rec 1 \; /ch.1/buf.1/play 1 \; /ch.1/buf.1/speed 1. \; /ch.1/buf.1/delay 0. \; /ch.1/buf.1/speed/bang 0 \; /ch.1/buf.1/speed/endSpeed 0. \;;#X append /ch.1/buf.1/speed/time 0. \; /ch.1/buf.1/speed/curve 1. \; /ch.1/buf.1/speed/curve/mode exp \; /ch.1/buf.1/speed/curve/sym 1 \; /ch.1/buf.1/delay/bang 0 \; /ch.1/buf.1/delay/endDelay 0. \;;#X append /ch.1/buf.1/delay/time 0. \; /ch.1/buf.1/delay/curve 1. \; /ch.1/buf.1/delay/curve/mode exp \; /ch.1/buf.1/delay/curve/sym 1 \; /ch.1/buf.1/loop/sw 0 \; /ch.1/buf.1/loop/mode 1 \;;#X append /ch.1/buf.1/loop/autostart 2 \; /ch.1/buf.1/loop/begin/delay 0.01 \; /ch.1/buf.1/loop/end/delay 0.01 \; /ch.2/buf.1/sw 1 \; /ch.2/buf.1/dim/x 640 \; /ch.2/buf.1/dim/y 480 \;;#X append /ch.2/buf.1/buf/max 8. \; /ch.2/buf.1/rec 1 \; /ch.2/buf.1/play 1 \; /ch.2/buf.1/speed 1. \; /ch.2/buf.1/delay 0. \; /ch.2/buf.1/speed/bang 0 \;;#X append /ch.2/buf.1/speed/endSpeed 0. \; /ch.2/buf.1/speed/time 0. \; /ch.2/buf.1/speed/curve 1. \; /ch.2/buf.1/speed/curve/mode exp \; /ch.2/buf.1/speed/curve/sym 1 \; /ch.2/buf.1/delay/bang 0 \;;#X append /ch.2/buf.1/delay/endDelay 0. \; /ch.2/buf.1/delay/time 0. \; /ch.2/buf.1/delay/curve 1. \; /ch.2/buf.1/delay/curve/mode exp \; /ch.2/buf.1/delay/curve/sym 1 \; /ch.2/buf.1/loop/sw 0 \;;#X append /ch.2/buf.1/loop/mode 1 \; /ch.2/buf.1/loop/autostart 2 \; /ch.2/buf.1/loop/begin/delay 0.01 \; /ch.2/buf.1/loop/end/delay 0.01 \; inmtrx connect /cam.1 /ch.1a \; inmtrx;#X append connect /cam.1 /ch.2a \; outmtrx connect /ch.1 /plan.1 \; outmtrx connect /ch.1 /plan.3 \; outmtrx connect /ch.2 /plan.2;#X append \; outmtrx connect /ch.2 /plan.4 \;;#P newobj 50 211 40 196617 qlist;#P flonum 343 210 35 9 0 0 0 3 0 0 0 221 221 221 222 222 222 0 0 0;#P newex 343 235 53 196617 t f f f f;#P newex 754 343 54 196617 pack 0. 0.;#P newex 478 343 54 196617 pack 0. 0.;#P window linecount 5;#P message 754 370 106 196617 \; /plan.4/crop/x1 \$2 \; /plan.4/crop/x2 \$1 \; /plan.4/crop/y1 0. \; /plan.4/crop/y2 1. \;;#P message 614 370 106 196617 \; /plan.3/crop/x1 0. \; /plan.3/crop/x2 \$1 \; /plan.3/crop/y1 0. \; /plan.3/crop/y2 1. \;;#P message 478 370 106 196617 \; /plan.2/crop/x1 \$2 \; /plan.2/crop/x2 \$1 \; /plan.2/crop/y1 0. \; /plan.2/crop/y2 1. \;;#P window linecount 1;#P newex 478 296 29 196617 * 2.;#P window linecount 5;#P message 343 370 106 196617 \; /plan.1/crop/x1 0. \; /plan.1/crop/x2 \$1 \; /plan.1/crop/y1 0. \; /plan.1/crop/y2 1. \;;#P number 959 92 35 9 0 0 0 3 0 0 0 221 221 221 222 222 222 0 0 0;#P window linecount 1;#P comment 959 76 100 196617 dŽcalage d'espace;#P user jit.pwindow 368 97 82 62 0 1 0 0 1 0;#P newex 369 74 55 196617 jit.matrix;#P newex 369 50 63 196617 r /ch.2/out;#P user jit.pwindow 280 97 82 62 0 1 0 0 1 0;#P newex 281 74 55 196617 jit.matrix;#P newex 281 50 63 196617 r /ch.1/out;#P window linecount 2;#P comment 781 65 100 196617 temps de traversŽ du buffer;#P window linecount 1;#P comment 343 197 100 196617 taille du crop;#P comment 50 178 100 196617 init;#P comment 50 248 100 196617 reinit buffer;#P connect 63 0 21 0;#P connect 64 0 61 0;#P connect 4 0 5 0;#P connect 5 0 6 0;#P connect 20 0 19 0;#P fasten 19 3 12 0 390 334 348 334;#P connect 7 0 8 0;#P connect 8 0 9 0;#P fasten 19 2 13 0 376 288 483 288;#P connect 13 0 17 0;#P connect 17 0 14 0;#P fasten 19 3 17 1 390 334 527 334;#P fasten 19 3 15 0 390 334 619 334;#P fasten 13 0 18 0 483 319 759 319;#P connect 18 0 16 0;#P connect 35 0 32 0;#P fasten 32 0 34 0 794 160 794 160;#P fasten 19 3 18 1 390 334 803 334;#P connect 46 0 32 1;#P fasten 32 1 36 0 823 160 828 160;#P connect 62 0 41 0;#P connect 28 0 51 0;#P connect 55 0 28 0;#P fasten 34 0 28 0 794 267 943 267;#P connect 28 0 33 0;#P connect 33 0 57 0;#P fasten 41 0 42 0 896 192 944 192;#P connect 33 0 47 0;#P connect 42 0 28 1;#P fasten 34 1 33 1 813 324 960 324;#P fasten 25 0 42 1 940 181 963 181;#P fasten 41 0 43 0 896 191 1014 191;#P connect 55 0 29 0;#P fasten 36 0 29 0 828 281 1018 281;#P connect 29 0 37 0;#P connect 37 0 40 0;#P connect 37 0 48 0;#P fasten 24 0 43 1 1015 181 1033 181;#P connect 43 0 29 1;#P fasten 36 1 37 1 847 314 1035 314;#P connect 29 0 52 0;#P fasten 41 0 44 0 896 192 1229 192;#P connect 55 0 30 0;#P fasten 34 0 30 0 794 204 1191 204 1191 272 1235 272;#P connect 30 0 38 0;#P connect 38 0 58 0;#P connect 38 0 49 0;#P fasten 27 0 44 1 1227 180 1248 180;#P connect 44 0 30 1;#P fasten 34 1 38 1 813 324 1252 324;#P connect 30 0 53 0;#P fasten 41 0 45 0 896 191 1323 191;#P connect 55 0 31 0;#P fasten 36 0 31 0 828 215 1207 215 1207 281 1327 281;#P connect 31 0 39 0;#P connect 39 0 59 0;#P connect 39 0 50 0;#P fasten 26 0 45 1 1319 181 1342 181;#P connect 45 0 31 1;#P fasten 36 1 39 1 847 314 1344 314;#P connect 31 0 54 0;#P pop;#P newobj -55 131 228 196617 p old - decalage loop - difficile ˆ mettre en place;#N vpatcher 30 89 630 489;#P origin 0 130;#P window setfont "Sans Serif" 9.;#P window linecount 0;#P newex 354 97 53 196617 t b b f b;#P newex 455 239 27 196617 + 0.;#P newex 455 204 27 196617 f;#P window linecount 3;#P message 455 394 120 196617 \; /ch.1/buf.1/loop/sw 1 \; /ch.2/buf.1/loop/sw 1 \;;#P message 455 134 120 196617 \; /ch.1/buf.1/loop/sw 0 \; /ch.2/buf.1/loop/sw 0 \;;#P window linecount 1;#P newex 723 183 35 196617 timer;#P newex 354 35 46 196617 / 1000.;#P window linecount 82;#P message 804 301 140 196617 \; /cam.1/preview 0 \; /cam.1/sw 1 \; /cam.1/quality 5 \; /cam.1/dim/x 640 \; /cam.1/dim/y 480 \; /cam.1/zoom/center/x 0.5 \; /cam.1/zoom/center/y 0.5 \; /cam.1/zoom/coeff 1. \; /cam.1/status open \; inmtrx connect /cam.1 /ch.1a \; inmtrx connect /cam.1 /ch.2a \; /plan.1/sw 1 \; /plan.1/drawto movie \; /plan.1/crop/x1 0. \; /plan.1/crop/x2 1. \; /plan.1/crop/y1 0. \; /plan.1/crop/y2 1. \; /plan.1/clientstorage 1 \; /plan.1/interp 1 \; /plan.1/smoothshading 0 \; /plan.1/mesh 0 \; /plan.1/matrixoutput 0 \; /plan.1/transformreset 0 \; /plan.1/shininess 10. \; /plan.1/nudge 0.01 \; /plan.1/blend 1 \; /plan.1/blendmode/src 6 \; /plan.1/blendmode/dst 7 \; /plan.1/pos/x -0.63 \; /plan.1/pos/y 0. \; /plan.1/pos/z 0. \; /plan.1/rot/x 0. \; /plan.1/rot/y 0. \; /plan.1/rot/z 0. \; /plan.1/rot/angle 0. \; /plan.1/scale/x 0.66 \; /plan.1/scale/y 0.5 \; /plan.1/scale/z 0.5 \; /plan.1/color/red 1. \; /plan.1/color/green 1. \; /plan.1/color/blue 1. \; /plan.1/color/coef 1. \; /plan.1/color/alpha 1. \; /plan.1/layer 0 \; /plan.1/lighting 0 \; /plan.2/sw 1 \; /plan.2/drawto movie \; /plan.2/crop/x1 0. \; /plan.2/crop/x2 1. \; /plan.2/crop/y1 0. \; /plan.2/crop/y2 1. \; /plan.2/clientstorage 1 \; /plan.2/interp 1 \; /plan.2/smoothshading 0 \; /plan.2/mesh 0 \; /plan.2/matrixoutput 0 \; /plan.2/transformreset 0 \; /plan.2/shininess 10. \; /plan.2/nudge 0.01 \; /plan.2/blend 1 \; /plan.2/blendmode/src 6 \; /plan.2/blendmode/dst 4 \; /plan.2/pos/x 0.58 \; /plan.2/pos/y 0. \; /plan.2/pos/z 0. \; /plan.2/rot/x 0. \; /plan.2/rot/y 0. \; /plan.2/rot/z 0. \; /plan.2/rot/angle 0. \; /plan.2/scale/x 0.66 \; /plan.2/scale/y 0.5 \; /plan.2/scale/z 0.5 \; /plan.2/color/red 1. \; /plan.2/color/green 1. \; /plan.2/color/blue 1. \; /plan.2/color/coef 1. \; /plan.2/color/alpha 1. \; /plan.2/layer 0 \; /plan.2/lighting 0 \;;#P window linecount 1;#P newex 455 271 102 196617 s /ch.1/buf.1/delay;#P newex 472 180 102 196617 r /ch.2/buf.1/delay;#P button 618 -80 76 0;#P button 454 -80 76 0;#P window linecount 5;#P message 618 36 125 196617 \; /ch.1/buf.1/loop/end bang \; /ch.2/buf.1/loop/end bang \;;#P message 454 38 133 196617 \; /ch.1/buf.1/loop/begin bang \; /ch.2/buf.1/loop/begin bang \;;#P number 354 10 35 9 0 0 0 3 0 0 0 221 221 221 222 222 222 0 0 0;#P window linecount 2;#P comment 353 -16 100 196617 delay de declenchement;#P number 723 210 35 9 0 0 0 3 0 0 0 221 221 221 222 222 222 0 0 0;#P window linecount 1;#P newex 723 113 131 196617 r /ch.1/buf.1/loop/report;#P newex 748 143 131 196617 r /ch.2/buf.1/loop/report;#P window linecount 57;#P message 968 -75 168 196617 \; /ch.2/buf.1/sw 1 \; /ch.2/buf.1/dim/x 640 \; /ch.2/buf.1/dim/y 480 \; /ch.2/buf.1/buf/max 8. \; /ch.2/buf.1/rec 1 \; /ch.2/buf.1/play 1 \; /ch.2/buf.1/speed 1. \; /ch.2/buf.1/delay 0.81 \; /ch.2/buf.1/speed/bang 0 \; /ch.2/buf.1/speed/endSpeed 0. \; /ch.2/buf.1/speed/time 0. \; /ch.2/buf.1/speed/curve 1. \; /ch.2/buf.1/speed/curve/mode exp \; /ch.2/buf.1/speed/curve/sym 1 \; /ch.2/buf.1/delay/bang 0 \; /ch.2/buf.1/delay/endDelay 0. \; /ch.2/buf.1/delay/time 0. \; /ch.2/buf.1/delay/curve 1. \; /ch.2/buf.1/delay/curve/mode exp \; /ch.2/buf.1/delay/curve/sym 1 \; /ch.2/buf.1/loop/sw 1 \; /ch.2/buf.1/loop/mode 1 \; /ch.2/buf.1/loop/autostart 1 \; /ch.2/buf.1/loop/begin/delay 0.01 \; /ch.2/buf.1/loop/end/delay 0.01 \; /ch.1/buf.1/sw 1 \; /ch.1/buf.1/dim/x 640 \; /ch.1/buf.1/dim/y 480 \; /ch.1/buf.1/buf/max 8. \; /ch.1/buf.1/rec 1 \; /ch.1/buf.1/play 1 \; /ch.1/buf.1/speed 1. \; /ch.1/buf.1/delay 0.81 \; /ch.1/buf.1/speed/bang 0 \; /ch.1/buf.1/speed/endSpeed 0. \; /ch.1/buf.1/speed/time 0. \; /ch.1/buf.1/speed/curve 1. \; /ch.1/buf.1/speed/curve/mode exp \; /ch.1/buf.1/speed/curve/sym 1 \; /ch.1/buf.1/delay/bang 0 \; /ch.1/buf.1/delay/endDelay 0. \; /ch.1/buf.1/delay/time 0. \; /ch.1/buf.1/delay/curve 1. \; /ch.1/buf.1/delay/curve/mode exp \; /ch.1/buf.1/delay/curve/sym 1 \; /ch.1/buf.1/loop/sw 1 \; /ch.1/buf.1/loop/mode 1 \; /ch.1/buf.1/loop/autostart 1 \; /ch.1/buf.1/loop/begin/delay 0.01 \; /ch.1/buf.1/loop/end/delay 0.01 \;;#P window linecount 9;#P message 790 -66 123 196617 \; /ch.1/buf.1/rec 1 \; /ch.1/buf.1/loop/sw 0 \; /ch.1/buf.1/delay 0 \; /ch.1/buf.1/speed 1 \; /ch.2/buf.1/rec 1 \; /ch.2/buf.1/loop/sw 0 \; /ch.2/buf.1/delay 0 \; /ch.2/buf.1/speed 1 \;;#P window linecount 1;#P newex 255 390 131 196617 r /ch.2/buf.1/loop/report;#P newex 237 356 131 196617 r /ch.1/buf.1/loop/report;#P newex 270 289 65 196617 s /plan.2/in;#P newex 132 289 65 196617 s /plan.1/in;#P newex 270 69 63 196617 r /ch.2/out;#P newex 132 69 63 196617 r /ch.1/out;#P newex 50 78 62 196617 r /qt.1/out;#P connect 1 0 3 0;#P connect 2 0 4 0;#P connect 13 0 21 0;#P connect 21 0 27 0;#P connect 16 0 14 0;#P fasten 27 3 23 0 401 124 460 124;#P fasten 27 1 25 0 373 193 460 193;#P connect 25 0 26 0;#P connect 26 0 19 0;#P fasten 27 0 24 0 359 317 460 317;#P connect 18 0 25 1;#P fasten 27 2 26 1 387 228 477 228;#P connect 17 0 15 0;#P connect 10 0 22 0;#P connect 22 0 11 0;#P connect 9 0 22 1;#P pop;#P newobj -55 109 203 196617 p old - presque fonctionnel mais pas adaptŽ;#N vpatcher 30 89 630 489;#P window setfont "Sans Serif" 9.;#P window linecount 0;#P newex 423 313 35 196617 timer;#P number 316 426 35 9 0 0 0 3 0 0 0 221 221 221 222 222 222 0 0 0;#P button 310 352 15 0;#P newex 311 389 34 196617 delay;#P newex 51 165 46 196617 / 1000.;#P newex 51 192 29 196617 t b f;#P newex 147 280 27 196617 f;#P newex 147 346 102 196617 s /ch.1/buf.1/delay;#P newex 147 312 27 196617 + 0.;#P newex 164 258 102 196617 r /ch.2/buf.1/delay;#P button 315 50 76 0;#P button 151 50 76 0;#P window linecount 5;#P message 315 166 125 196617 \; /ch.1/buf.1/loop/end bang \; /ch.2/buf.1/loop/end bang \;;#P message 151 168 133 196617 \; /ch.1/buf.1/loop/begin bang \; /ch.2/buf.1/loop/begin bang \;;#P number 51 140 35 9 0 0 0 3 0 0 0 221 221 221 222 222 222 0 0 0;#P window linecount 2;#P comment 50 114 100 196617 delay de declenchement;#P number 423 340 35 9 0 0 0 3 0 0 0 221 221 221 222 222 222 0 0 0;#P window linecount 1;#P newex 420 243 131 196617 r /ch.1/buf.1/loop/report;#P newex 448 273 131 196617 r /ch.2/buf.1/loop/report;#P connect 4 0 14 0;#P connect 14 0 13 0;#P fasten 13 0 12 0 56 267 152 267;#P connect 12 0 10 0;#P connect 10 0 11 0;#P connect 7 0 5 0;#P connect 9 0 12 1;#P fasten 13 1 10 1 75 303 169 303;#P connect 16 0 15 0;#P connect 8 0 6 0;#P connect 15 0 17 0;#P connect 1 0 18 0;#P connect 18 0 2 0;#P connect 0 0 18 1;#P pop;#P newobj -55 86 192 196617 p delay on buffer -> manque de precision;#N vpatcher 30 89 630 489;#P window setfont "Sans Serif" 9.;#P window linecount 1;#P newex 51 101 46 196617 / 1000.;#P newex 51 128 29 196617 t b f;#P newex 310 176 27 196617 f;#P newex 150 176 27 196617 f;#P newex 310 242 147 196617 s /ch.1/buf.1/loop/end/delay;#P newex 150 242 155 196617 s /ch.1/buf.1/loop/begin/delay;#P newex 310 208 27 196617 + 0.;#P newex 150 208 27 196617 + 0.;#P newex 310 145 147 196617 r /ch.2/buf.1/loop/end/delay;#P newex 150 145 155 196617 r /ch.2/buf.1/loop/begin/delay;#P number 51 76 35 9 0 0 0 3 0 0 0 221 221 221 222 222 222 0 0 0;#P window linecount 2;#P comment 50 50 100 196617 delay de declenchement;#P connect 1 0 11 0;#P connect 11 0 10 0;#P fasten 10 0 8 0 56 168 155 168;#P connect 8 0 4 0;#P connect 4 0 6 0;#P connect 2 0 8 1;#P fasten 10 1 4 1 75 199 172 199;#P fasten 10 0 9 0 56 168 315 168;#P connect 9 0 5 0;#P connect 5 0 7 0;#P connect 3 0 9 1;#P fasten 10 1 5 1 75 199 332 199;#P pop;#P newobj -55 61 143 196617 p delay on loop -> marche pas;#N vpatcher 30 89 630 489;#P button 352 50 76 0;#P button 188 50 76 0;#P window setfont "Sans Serif" 9.;#P number 188 296 35 9 0 0 0 3 0 0 0 221 221 221 222 222 222 0 0 0;#P window linecount 1;#P newex 188 263 34 196617 delay;#P window linecount 2;#P message 352 217 136 196617 \; /ch.1/buf.1/loop/end bang \;;#P window linecount 1;#P newex 352 183 46 196617 delay 0.;#P window linecount 2;#P message 368 137 136 196617 \; /ch.2/buf.1/loop/end bang \;;#P message 188 219 144 196617 \; /ch.1/buf.1/loop/begin bang \;;#P window linecount 1;#P newex 188 185 46 196617 delay 0.;#P window linecount 2;#P message 203 137 144 196617 \; /ch.2/buf.1/loop/begin bang \;;#P number 51 159 35 9 0 0 0 3 0 0 0 221 221 221 222 222 222 0 0 0;#P comment 50 133 100 196617 delay de declenchement;#P window linecount 3;#P comment 402 173 100 196617 ne pas utiliser delay l'ajouter ˆ la main sur l'enregistrement;#P connect 11 0 4 0;#P connect 4 0 5 0;#P connect 5 0 9 0;#P connect 9 0 10 0;#P connect 11 0 3 0;#P connect 8 0 9 1;#P fasten 2 0 4 1 56 178 229 178;#P connect 12 0 7 0;#P connect 7 0 8 0;#P connect 12 0 6 0;#P fasten 2 0 7 1 56 178 393 178;#P pop;#P newobj -55 37 85 196617 p vOldwith delay;#P comment 25 208 30 196617 init;#P comment 667 64 100 196617 delta declenchement;#P connect 8 0 7 0;#P connect 13 0 15 0;#P connect 14 0 53 0;#P connect 53 1 16 0;#P connect 56 0 55 0;#P connect 53 0 9 0;#P connect 42 0 9 0;#P connect 9 0 22 0;#P connect 22 0 17 0;#P fasten 21 0 22 1 882 279 502 279;#P connect 9 0 45 0;#P connect 10 0 46 0;#P connect 29 0 28 0;#P connect 46 0 35 0;#P connect 45 0 35 0;#P connect 23 0 18 0;#P connect 35 0 34 0;#P connect 34 0 10 0;#P connect 10 0 23 0;#P fasten 21 0 23 1 882 280 606 280;#P connect 28 0 34 1;#P connect 55 0 27 0;#P connect 10 0 47 0;#P connect 11 0 48 0;#P connect 27 0 28 1;#P connect 48 0 38 0;#P connect 47 0 38 0;#P connect 31 0 30 0;#P connect 38 0 36 0;#P connect 36 0 11 0;#P connect 11 0 24 0;#P connect 24 0 19 0;#P fasten 21 0 24 1 882 280 713 280;#P connect 30 0 36 1;#P connect 11 0 49 0;#P connect 12 0 50 0;#P connect 27 0 30 1;#P connect 50 0 39 0;#P connect 49 0 39 0;#P connect 33 0 32 0;#P connect 39 0 37 0;#P connect 37 0 12 0;#P connect 12 0 25 0;#P connect 25 0 20 0;#P fasten 21 0 25 1 882 278 829 278;#P connect 32 0 37 1;#P connect 21 0 26 0;#P connect 27 0 32 1;#P connect 12 0 51 0;#P connect 9 0 52 0;#P connect 52 0 43 0;#P connect 51 0 43 0;#P connect 41 0 40 0;#P connect 43 0 42 0;#P connect 40 0 42 1;#P connect 27 0 40 1;#P pop;