max v2;#N vpatcher 20 74 1014 645;#P window setfont "Sans Serif" 9.;#P window linecount 1;#P message 363 151 76 196617 /antialiasing 0;#P message 362 130 76 196617 /antialiasing 1;#P message 174 141 58 196617 /lighting 1;#P message 233 141 87 196617 /drawto movie.1;#P newex 334 175 42 196617 s /grid;#B color 12;#P message 345 112 54 196617 /init bang;#P window setfont "Sans Serif" 14.;#P newex 604 189 70 196622 m_u grid;#B color 6;#P window setfont "Sans Serif" 9.;#N vpatcher 581 90 1405 876;#P window setfont "Sans Serif" 9.;#P window linecount 1;#P newex 616 181 128 196617 sprintf /group.%ld;#P newex 414 716 283 196617 varieditu /off/rot/z /group;#B color 12;#P newex 414 653 284 196617 varieditu /off/rot/y /group;#B color 12;#P newex 414 590 284 196617 varieditu /off/rot/x /group;#B color 12;#P newex 414 527 292 196617 varieditu /off/scale/z /group;#B color 12;#P newex 414 464 293 196617 varieditu /off/scale/y /group;#B color 12;#P newex 414 401 293 196617 varieditu /off/scale/x /group;#B color 12;#P newex 414 338 284 196617 varieditu /off/pos/z /group;#B color 12;#P newex 414 275 285 196617 varieditu /off/pos/y /group;#B color 12;#P newex 414 212 285 196617 varieditu /off/pos/x /group;#B color 12;#P newex 546 44 48 196617 loadbang;#B color 5;#P newex 546 65 62 196617 projectpath;#B color 5;#P newex 546 89 170 196617 sprintf read %sconfig/m_group.txt;#B color 5;#N coll m_group 1;#P newobj 546 114 77 196617 coll m_group 1;#B color 5;#P newex 80 418 47 196617 forward;#B color 12;#P newex 80 273 194 196617 t b i i;#P window linecount 2;#P newex 264 321 71 196617 sprintf send /mdl/edit.%ld;#P newex 172 321 90 196617 sprintf setsymbol /mdl.%ld;#P window linecount 1;#P newex 234 229 27 196617 - 1;#P newex 50 205 194 196617 t 4 i;#P newex 234 251 29 196617 * 4;#P newex 172 297 72 196617 + 0;#P number 80 251 35 9 0 0 0 3 0 0 0 221 221 221 222 222 222 0 0 0;#P newex 50 229 40 196617 uzi;#P inlet 50 129 15 0;#P inlet 414 191 15 0;#P inlet 414 254 15 0;#P inlet 414 317 15 0;#P inlet 414 380 15 0;#P inlet 414 443 15 0;#P inlet 414 506 15 0;#P inlet 414 569 15 0;#P inlet 414 632 15 0;#P inlet 414 695 15 0;#P outlet 414 233 15 0;#P outlet 414 296 15 0;#P outlet 414 359 15 0;#P outlet 414 422 15 0;#P outlet 414 485 15 0;#P outlet 414 548 15 0;#P outlet 414 611 15 0;#P outlet 414 674 15 0;#P outlet 414 737 15 0;#P window setfont "Sans Serif" 20.;#P window linecount 0;#P comment 217 29 315 196628 add a new config file : m_group;#P connect 19 0 24 0;#P connect 24 0 20 0;#P connect 20 2 21 0;#P connect 21 0 28 0;#P connect 26 0 29 0;#P connect 27 0 29 0;#P connect 28 0 29 0;#P connect 28 1 22 0;#P connect 22 0 26 0;#P connect 24 1 25 0;#P connect 25 0 23 0;#P connect 23 0 22 1;#P connect 28 2 27 0;#P connect 18 0 34 0;#P connect 34 0 9 0;#P connect 17 0 35 0;#P connect 35 0 8 0;#P connect 16 0 36 0;#P connect 36 0 7 0;#P connect 15 0 37 0;#P connect 37 0 6 0;#P connect 14 0 38 0;#P connect 38 0 5 0;#P connect 13 0 39 0;#P connect 39 0 4 0;#P connect 12 0 40 0;#P connect 40 0 3 0;#P connect 11 0 41 0;#P connect 41 0 2 0;#P connect 10 0 42 0;#P connect 42 0 1 0;#P connect 33 0 32 0;#P connect 32 0 31 0;#P connect 31 0 30 0;#P connect 43 0 34 2;#P connect 43 0 35 2;#P connect 43 0 36 2;#P connect 43 0 40 2;#P connect 43 0 41 2;#P connect 43 0 42 2;#P connect 43 0 37 2;#P connect 43 0 38 2;#P connect 43 0 39 2;#P fasten 19 0 43 0 55 162 621 162;#P pop;#P newobj 549 281 83 196617 p;#P flonum 272 224 37 9 -360. 360. 35 3 0 0 0 221 221 221 255 255 255 0 0 0;#P objectname roty;#P flonum 310 224 37 9 -360. 360. 35 3 0 0 0 221 221 221 255 255 255 0 0 0;#P objectname rotz;#P flonum 233 224 37 9 -360. 360. 35 3 33 33 33 221 221 221 255 255 255 0 0 0;#P objectname rotx;#P flonum 310 242 37 9 -100. 100. 35 3 0 0 0 221 221 221 255 255 255 0 0 0;#P objectname scalez;#P flonum 272 242 37 9 -100. 100. 35 3 9 9 9 221 221 221 255 255 255 0 0 0;#P objectname scaley;#P flonum 233 242 37 9 -100. 100. 35 3 33 33 33 221 221 221 255 255 255 0 0 0;#P objectname scalex;#P flonum 309 206 39 9 -100. 100. 35 3 0 0 0 255 255 255 255 255 255 0 0 0;#P objectname posz;#P flonum 272 206 39 9 -100. 100. 35 3 0 0 0 255 255 255 255 255 255 0 0 0;#P objectname posy;#P flonum 233 206 39 9 -100. 100. 35 3 0 0 0 255 255 255 255 255 255 0 0 0;#P objectname posx;#P window setfont "Sans Serif" 14.;#P newex 651 47 137 196622 m_group /group.1;#B color 6;#P newex 651 152 137 196622 m_group /group.5;#B color 6;#P newex 651 126 137 196622 m_group /group.4;#B color 6;#P newex 651 100 137 196622 m_group /group.3;#B color 6;#P newex 651 74 137 196622 m_group /group.2;#B color 6;#P newex 793 151 146 196622 m_group /group.10;#B color 6;#P newex 793 125 137 196622 m_group /group.9;#B color 6;#P newex 793 99 137 196622 m_group /group.8;#B color 6;#P newex 793 73 137 196622 m_group /group.7;#B color 6;#P newex 793 47 137 196622 m_group /group.6;#B color 6;#P window setfont "Sans Serif" 9.;#P hidden newex 84 232 72 196617 r /mdl/edit.4;#P hidden newex 63 232 72 196617 r /mdl/edit.3;#P hidden newex 46 232 72 196617 r /mdl/edit.2;#P hidden newex 32 232 72 196617 r /mdl/edit.1;#P window setfont "Sans Serif" 20.;#P number 549 224 35 20 1 10 35 3 0 0 0 255 255 255 200 0 0 255 255 255;#P bpatcher 289 390 256 124 0 0 m_mdlu.edit.mxt 0;#P objectname /mdl/edit.4;#P bpatcher 33 390 256 124 0 0 m_mdlu.edit.mxt 0;#P objectname /mdl/edit.3;#P window setfont "Sans Serif" 9.;#P hidden message 129 83 14 196617 1;#P hidden newex 129 63 48 196617 loadbang;#B color 12;#P bpatcher 289 265 256 124 0 0 m_mdlu.edit.mxt 0 omv_chrono_40;#P objectname /mdl/edit.2;#P bpatcher 33 265 256 124 0 0 m_mdlu.edit.mxt 0;#P objectname /mdl/edit.1;#P window setfont "Sans Serif" 14.;#P newex 536 189 66 196622 m_u mdl;#B color 6;#P window setfont "Sans Serif" 9.;#P newex 129 169 40 196617 s /mdl;#B color 12;#P toggle 129 119 15 0;#P message 129 141 44 196617 _sw \$1;#P message 64 141 54 196617 /init bang;#P toggle 15 117 15 0;#P message 15 141 44 196617 /sw \$1;#P window setfont "Sans Serif" 20.;#P comment 475 225 75 196628 GROUP;#P window setfont "Sans Serif" 9.;#P newex 621 304 53 196617 pvar rotz;#P newex 612 325 54 196617 pvar roty;#P newex 603 346 54 196617 pvar rotx;#P newex 594 367 62 196617 pvar scalez;#P newex 585 388 63 196617 pvar scaley;#P newex 576 409 63 196617 pvar scalex;#P newex 567 430 54 196617 pvar posz;#P newex 558 451 55 196617 pvar posy;#P newex 549 472 55 196617 pvar posx;#P comment 282 95 133 196617 position turntable 25 5 -50;#P connect 12 0 11 0;#P hidden connect 25 0 18 0;#P hidden connect 27 0 22 0;#P hidden connect 20 0 21 0;#P hidden connect 21 0 15 0;#P connect 15 0 14 0;#P fasten 13 0 16 0 69 162 134 162;#P connect 14 0 16 0;#P fasten 11 0 16 0 20 162 134 162;#P connect 52 0 16 0;#P connect 53 0 16 0;#P hidden connect 26 0 19 0;#P hidden connect 28 0 23 0;#P connect 50 0 51 0;#P connect 54 0 51 0;#P connect 55 0 51 0;#P connect 24 0 48 0;#P connect 48 0 1 0;#P connect 1 0 48 1;#P connect 48 1 2 0;#P connect 2 0 48 2;#P connect 48 2 3 0;#P connect 3 0 48 3;#P connect 48 3 4 0;#P connect 4 0 48 4;#P connect 48 4 5 0;#P connect 5 0 48 5;#P connect 48 5 6 0;#P connect 6 0 48 6;#P connect 48 6 7 0;#P connect 7 0 48 7;#P connect 48 7 8 0;#P connect 8 0 48 8;#P connect 9 0 48 9;#P connect 48 8 9 0;#P pop;