max v2;#N vpatcher 70 103 1127 778;#P origin -626 8;#P window setfont "Sans Serif" 9.;#P newex 919 150 142 196617 variedit /light/master /light;#P window linecount 2;#P message 719 239 75 196617 \; patch init bang;#P window linecount 1;#P newex 739 170 38 196617 enttec;#P window linecount 2;#P message 645 28 74 196617 \; light/init bang;#P bpatcher 589 280 42 206 0 0 l_channel.edit.mxt 0 /ch30 /ch 30;#P bpatcher 547 280 42 206 0 0 l_channel.edit.mxt 0 /ch29 /ch 29;#P bpatcher 505 280 42 206 0 0 l_channel.edit.mxt 0 /ch28 /ch 28;#P bpatcher 463 280 42 206 0 0 l_channel.edit.mxt 0 /ch27 /ch 27;#P bpatcher 421 280 42 206 0 0 l_channel.edit.mxt 0 /ch26 /ch 26;#P bpatcher 379 280 42 206 0 0 l_channel.edit.mxt 0 /ch25 /ch 25;#P bpatcher 337 280 42 206 0 0 l_channel.edit.mxt 0 /ch24 /ch 24;#P bpatcher 295 280 42 206 0 0 l_channel.edit.mxt 0 /ch23 /ch 23;#P bpatcher 253 280 42 206 0 0 l_channel.edit.mxt 0 /ch22 /ch 22;#P bpatcher 211 280 42 206 0 0 l_channel.edit.mxt 0 /ch21 /ch 21;#P bpatcher 169 280 42 206 0 0 l_channel.edit.mxt 0 /ch20 /ch 20;#P bpatcher 127 280 42 206 0 0 l_channel.edit.mxt 0 /ch19 /ch 19;#P bpatcher 85 280 42 206 0 0 l_channel.edit.mxt 0 /ch18 /ch 18;#P bpatcher 43 280 42 206 0 0 l_channel.edit.mxt 0 /ch17 /ch 17;#P bpatcher 1 280 42 206 0 0 l_channel.edit.mxt 0 /ch16 /ch 16;#P bpatcher 589 70 42 206 0 0 l_channel.edit.mxt 0 /ch15 /ch 15;#P bpatcher 547 70 42 206 0 0 l_channel.edit.mxt 0 /ch14 /ch 14;#P bpatcher 505 70 42 206 0 0 l_channel.edit.mxt 0 /ch13 /ch 13;#P bpatcher 463 70 42 206 0 0 l_channel.edit.mxt 0 /ch12 /ch 12;#P bpatcher 421 70 42 206 0 0 l_channel.edit.mxt 0 /ch11 /ch 11;#P bpatcher 379 70 42 206 0 0 l_channel.edit.mxt 0 /ch10 /ch 10;#P bpatcher 337 70 42 206 0 0 l_channel.edit.mxt 0 /ch9 /ch 9;#P bpatcher 295 70 42 206 0 0 l_channel.edit.mxt 0 /ch8 /ch 8;#P bpatcher 253 70 42 206 0 0 l_channel.edit.mxt 0 /ch7 /ch 7;#P bpatcher 211 70 42 206 0 0 l_channel.edit.mxt 0 /ch6 /ch 6;#P bpatcher 169 70 42 206 0 0 l_channel.edit.mxt 0 /ch5 /ch 5;#P bpatcher 127 70 42 206 0 0 l_channel.edit.mxt 0 /ch4 /ch 4;#P bpatcher 85 70 42 206 0 0 l_channel.edit.mxt 0 /ch3 /ch 3;#P bpatcher 43 70 42 206 0 0 l_channel.edit.mxt 0 /ch2 /ch 2;#P bpatcher 1 70 42 206 0 0 l_channel.edit.mxt 0 /ch1 /ch 1;#P window linecount 1;#P newex 682 1073 108 196617 l_channel_ /ch30 /ch;#B color 13;#P newex 682 1054 108 196617 l_channel_ /ch29 /ch;#B color 13;#P newex 682 1035 108 196617 l_channel_ /ch28 /ch;#B color 13;#P newex 682 1016 108 196617 l_channel_ /ch27 /ch;#B color 13;#P newex 682 997 108 196617 l_channel_ /ch26 /ch;#B color 13;#P newex 682 978 108 196617 l_channel_ /ch25 /ch;#B color 13;#P newex 682 959 108 196617 l_channel_ /ch24 /ch;#B color 13;#P newex 682 940 108 196617 l_channel_ /ch23 /ch;#B color 13;#P newex 682 921 108 196617 l_channel_ /ch22 /ch;#B color 13;#P newex 682 902 108 196617 l_channel_ /ch21 /ch;#B color 13;#P newex 682 883 108 196617 l_channel_ /ch20 /ch;#B color 13;#P newex 682 864 108 196617 l_channel_ /ch19 /ch;#B color 13;#P newex 682 845 108 196617 l_channel_ /ch18 /ch;#B color 13;#P newex 538 824 108 196617 l_channel_ /ch17 /ch;#B color 13;#P newex 682 807 108 196617 l_channel_ /ch16 /ch;#B color 13;#P newex 682 788 108 196617 l_channel_ /ch15 /ch;#B color 13;#P newex 682 769 108 196617 l_channel_ /ch14 /ch;#B color 13;#P newex 682 750 108 196617 l_channel_ /ch13 /ch;#B color 13;#P newex 682 731 108 196617 l_channel_ /ch12 /ch;#B color 13;#P newex 682 712 108 196617 l_channel_ /ch11 /ch;#B color 13;#P newex 682 693 108 196617 l_channel_ /ch10 /ch;#B color 13;#P newex 682 674 102 196617 l_channel_ /ch9 /ch;#B color 13;#P newex 682 655 102 196617 l_channel_ /ch8 /ch;#B color 13;#P newex 682 636 102 196617 l_channel_ /ch7 /ch;#B color 13;#P newex 682 617 102 196617 l_channel_ /ch6 /ch;#B color 13;#P newex 682 598 102 196617 l_channel_ /ch5 /ch;#B color 13;#P newex 682 579 102 196617 l_channel_ /ch4 /ch;#B color 13;#P newex 682 560 102 196617 l_channel_ /ch3 /ch;#B color 13;#P newex 682 541 102 196617 l_channel_ /ch2 /ch;#B color 13;#P newex 682 522 102 196617 l_channel_ /ch1 /ch;#B color 13;#P bpatcher 257 1 256 62 0 0 bkgnd.mxt 0 /ch/dimmer 0;#P objectname background[1];#P hidden comment 163 33 46 196617 activity;#P hidden newex 966 870 94 196617 sprintf %sevents/;#N coll filepaths.coll 1;#P hidden newobj 966 914 96 196617 coll filepaths.coll 1;#B color 5;#P hidden newex 966 892 105 196617 prepend store events;#P hidden newex 915 804 48 196617 loadbang;#P hidden message 915 829 29 196617 path;#N thispatcher;#Q end;#P hidden newobj 915 848 61 196617 thispatcher;#P window setfont "Sans Serif" 18.;#N vpatcher 621 521 921 649;#P origin 76 121;#P window setfont "Sans Serif" 9.;#N thispatcher;#Q end;#P hidden newobj 294 91 61 196617 thispatcher;#P hidden newex 294 71 40 196617 t front;#P hidden newex 294 51 58 196617 r osc-open;#P hidden newex 13 157 62 196617 udpforward;#P hidden newex 13 130 130 196617 oscreceive osc_com /light;#P bpatcher 11 26 256 62 0 0 oscreceive.edit.mxt 0 osc_com;#P hidden connect 1 0 2 0;#P hidden connect 3 0 4 0;#P hidden connect 4 0 5 0;#P pop;#P hidden newobj 842 349 63 196626 p OSC;#B color 6;#P window setfont "Sans Serif" 9.;#P hidden newex 837 142 66 196617 pvar master;#P window setfont "Sans Serif" 18.;#N vpatcher 457 282 757 865;#P origin -146 288;#P window setfont "Sans Serif" 9.;#P window linecount 3;#P message 228 220 87 196617 open /dev/cu.usbserial-0000103D;#P window linecount 7;#P message 140 275 110 196617 \; master 100 \; light/sw 1 \; osc_com-sw 1 \; osc_com-port 44444 \; qlist-reload bang \; random_effect 0 \;;#P window linecount 1;#P newex 140 249 65 196617 r /light/init;#B color 12;#P message 157 197 32 196617 print;#P message 237 153 33 196617 close;#P newex 139 74 108 196617 sel 1;#P objectname iliketoscript3[4];#P toggle 139 55 15 0;#P newex 139 35 93 196617 r /ch/dimmer/sw;#B color 12;#P objectname iliketoscript3[3];#P message 139 105 166 196617 open /dev/cu.usbserial-ENQBGAFL;#P newex 139 223 46 196617 s enttec;#B color 12;#P objectname iliketoscript3[1];#P connect 2 0 3 0;#P connect 3 0 4 0;#P connect 4 0 1 0;#P fasten 6 0 0 0 162 217 144 217;#P fasten 5 0 0 0 242 175 144 175;#P connect 1 0 0 0;#P connect 7 0 8 0;#P connect 4 1 5 0;#P pop;#P hidden newobj 842 313 64 196626 p light;#B color 6;#P bpatcher 524 14 91 22 0 0 openbutton.mxt 0 save_patch "open the patch editor" 90;#P bpatcher 525 37 91 23 0 0 openbutton.mxt 0 patch "open the patch editor" 90;#P window setfont "Sans Serif" 9.;#P hidden newex 837 212 70 196617 pvar activity;#B color 12;#P objectname iliketoscript3[8];#P hidden newex 837 190 88 196617 r enttec_activity;#B color 12;#P objectname iliketoscript3[9];#P window setfont "Sans Serif" 12.;#P comment 629 410 59 196620 MASTER;#P window setfont "Sans Serif" 9.;#P hidden message 550 9 239 196617 window flags nogrow \, savewindow 1 \, window exec;#P hidden message 581 -16 158 196617 window flags grow \, window exec;#P hidden button 151 35 13 0;#P objectname activity;#P toggle 238 45 15 0;#P objectname print;#P hidden newex 835 39 56 196617 pvar print;#B color 12;#P objectname iliketoscript3[7];#P hidden newex 835 60 50 196617 s printer;#B color 12;#P objectname iliketoscript3[2];#P hidden newex 838 102 53 196617 pvar sw_;#B color 12;#P objectname iliketoscript3[6];#P user led 236 18 17 17 1 150;#P objectname sw_;#P hidden newex 836 80 65 196617 r enttec_sw;#B color 12;#P objectname iliketoscript3[5];#N thispatcher;#Q window flags grow close zoom nofloat;#Q window size 70 103 1127 778;#Q window title;#Q window exec;#Q savewindow 1;#Q end;#P hidden newobj 16 -18 61 196617 thispatcher;#P objectname iliketoscript2[1];#P window setfont "Sans Serif" 18.;#N vpatcher 92 592 1106 895;#P origin -1 286;#P window setfont "Sans Serif" 9.;#P window linecount 1;#P newex 360 4205 32 196617 print;#B color 12;#P objectname iliketoscript3[4];#P window setfont "Sans Serif" 18.;#P window linecount 0;#N vpatcher 779 44 1030 345;#P window setfont "Sans Serif" 9.;#P newex 132 62 102 196617 r save_patch/editor;#B color 12;#P newex 132 83 65 196617 t writeagain;#P newex 72 83 37 196617 t open;#P newex 72 41 75 196617 r patch/editor;#B color 12;#P button 36 58 15 0;#P newex 36 18 59 196617 r light/init;#B color 12;#P newex 93 202 73 196617 onebang;#P newex 76 132 62 196617 prepend set;#P newex 76 156 45 196617 prepend;#P newex 76 179 27 196617 t l b;#P message 36 83 33 196617 dump;#N coll light-patch;#P newobj 36 109 131 196617 coll light-patch;#P message 93 224 48 196617 init bang;#P newex 76 247 42 196617 s patch;#B color 12;#P connect 8 0 9 0;#P connect 9 0 3 0;#P fasten 12 0 2 0 137 104 41 104;#P fasten 11 0 2 0 77 104 41 104;#P fasten 3 0 2 0 41 103 41 103;#P connect 10 0 11 0;#P connect 2 1 6 0;#P fasten 2 0 5 0 41 152 81 152;#P connect 6 0 5 0;#P connect 5 0 4 0;#P connect 4 0 0 0;#P connect 1 0 0 0;#P connect 4 1 7 0;#P connect 7 0 1 0;#P connect 13 0 12 0;#P connect 2 3 7 1;#P pop;#P newobj 252 65 134 196626 p patch editor;#B color 6;#P window setfont "Sans Serif" 9.;#P window linecount 1;#P newex 450 4220 65 196617 s enttec_sw;#B color 12;#P objectname iliketoscript3[3];#P toggle 450 4199 15 0;#P newex 440 4144 46 196617 r enttec;#B color 12;#P objectname iliketoscript3[2];#P newex 315 4115 50 196617 r printer;#P objectname iliketoscript2[3];#P newex 315 4158 29 196617 gate;#P objectname iliketoscript2[1];#P toggle 315 4135 15 0;#N vpatcher 10 59 138 187;#P outlet 11 50 15 0;#P inlet 11 26 15 0;#P connect 0 0 1 0;#P pop;#P newobj 401 4123 37 196617 p thru;#P objectname iliketoscript3[1];#N vpatcher 10 59 138 187;#P outlet 11 50 15 0;#P inlet 11 26 15 0;#P connect 0 0 1 0;#P pop;#P newobj 751 4064 37 196617 p thru;#P objectname iliketoscript4;#N vpatcher 10 59 138 187;#P outlet 11 50 15 0;#P inlet 11 26 15 0;#P connect 0 0 1 0;#P pop;#P newobj 501 4064 37 196617 p thru;#P objectname iliketoscript3;#N vpatcher 10 59 138 187;#P outlet 11 50 15 0;#P inlet 11 26 15 0;#P connect 0 0 1 0;#P pop;#P newobj 251 4064 37 196617 p thru;#P objectname iliketoscript2;#N vpatcher 10 59 138 187;#P outlet 11 50 15 0;#P inlet 11 26 15 0;#P connect 0 0 1 0;#P pop;#P newobj 1 4064 37 196617 p thru;#P objectname iliketoscript1;#P newex 315 4182 55 196617 print light;#P objectname iliketoscript2[2];#P newex 401 4175 59 196617 dmxusbpro;#P objectname out;#N vpatcher 10 59 346 319;#P origin 0 141;#P window setfont "Sans Serif" 9.;#P window linecount 2;#P newex 80 96 14 196617 t b;#P window linecount 4;#P message 23 138 109 196617 ----------INIT---DONE--WARNING--NOTHING WAS CONNECTED-------;#B color 14;#P window linecount 1;#P newex 23 198 66 196617 print PATCH;#B color 14;#P window linecount 2;#P newex 117 89 29 196617 route 0;#P inlet 117 10 15 0;#P window linecount 0;#P newex 136 198 62 196617 route bogus;#P window linecount 1;#P newex 157 73 48 196617 loadbang;#P message 157 99 35 196617 bogus;#P newex 117 66 27 196617 sel;#P newex 134 37 69 196617 route custom;#P newex 134 10 88 196617 r patch-command;#P window linecount 4;#P newex 136 138 176 196617 sprintf %s --------PATCH DONE-----THE %i FIRST CHANNELS ARE CONNECTED TO THE %i FIRST DIMMERS---------;#P window linecount 1;#P newex 136 222 66 196617 print PATCH;#P connect 12 0 11 0;#P connect 11 0 10 0;#P lcolor 7;#P connect 9 0 12 0;#P connect 8 0 4 0;#P connect 4 0 9 0;#P connect 2 0 3 0;#P connect 3 0 4 1;#P connect 9 1 1 0;#P connect 5 0 1 0;#P connect 1 0 7 0;#P fasten 7 0 0 0 141 219 141 219;#P connect 6 0 5 0;#P fasten 3 0 1 1 139 63 224 63;#P fasten 3 0 1 2 139 63 307 63;#P pop;#P newobj 126 82 70 196617 p print_patch;#P newex 189 40 20 196617 t b;#P message 189 59 33 196617 front;#P newex 189 21 72 196617 r router-open;#P window linecount 3;#P newex 1122 196 122 196617 print THIS_CHANNEL_WAS'NT_IMPLEMENTED;#P objectname patch_dumpout;#P window linecount 1;#N vpatcher 460 253 805 552;#P origin 0 -15;#P window setfont "Sans Serif" 9.;#P window linecount 2;#P newex 50 160 218 196617 sprintf %s script connect router %i line-dmx%i 0;#P window linecount 0;#P newex 277 185 27 196617 i;#P outlet 277 210 15 0;#P window linecount 2;#P newex 277 149 20 196617 del 10;#P window linecount 0;#P newex 154 28 37 196617 zl rev;#P newex 12 96 33 196617 r see_connections;#P newex 12 220 29 196617 gate;#P newex 12 252 87 196617 print connections;#P window linecount 1;#P newex 241 98 49 196617 route int;#P message 89 117 14 196617 0;#P newex 50 93 49 196617 t b b;#P newex 50 73 48 196617 loadbang;#P newex 241 76 47 196617 zl iter 1;#P newex 50 193 62 196617 route bogus;#P message 50 117 35 196617 bogus;#P newex 154 53 51 196617 zl ecils 1;#P inlet 154 7 15 0;#P outlet 50 215 15 0;#P newex 154 82 27 196617 - 1;#P newex 241 120 27 196617 t b i;#P connect 14 0 13 0;#P connect 13 0 12 0;#P fasten 6 0 13 1 55 212 36 212;#P connect 8 0 9 0;#P connect 9 0 5 0;#P connect 5 0 19 0;#P fasten 0 0 19 0 246 148 55 148;#P connect 19 0 6 0;#P connect 6 0 2 0;#P connect 9 1 10 0;#P connect 3 0 15 0;#P connect 15 0 4 0;#P fasten 4 1 1 0 200 76 159 76;#P fasten 10 0 19 1 94 146 159 146;#P lcolor 7;#P connect 1 0 19 1;#P fasten 4 0 7 0 159 72 246 72;#P connect 7 0 11 0;#P connect 11 0 0 0;#P connect 0 1 19 2;#P fasten 10 0 19 2 94 143 263 143;#P lcolor 7;#P fasten 0 1 16 0 263 143 282 143;#P connect 16 0 18 0;#P connect 18 0 17 0;#P fasten 0 1 18 1 263 143 299 143;#P pop;#P newobj 56 54 58 196617 p scripting;#N vpatcher 464 301 1479 881;#P origin 579 151;#P window setfont "Sans Serif" 9.;#P window linecount 0;#P message 124 91 123 196617 script connect router 224 patch_dumpout 0;#P window linecount 1;#P message 674 91 99 196617 script delete router;#P window linecount 0;#P newex 1 42 55 196617 t b b b b;#P window linecount 2;#P message 1 91 120 196617 script connect light_receive 0 router 0;#P inlet 1 21 15 0;#P outlet 1 443 15 0;#P window linecount 21;#P message 255 93 395 196617 script new router newex 1 100 1221 196617 route /ch1 /ch2 /ch3 /ch4 /ch5 /ch6 /ch7 /ch8 /ch9 /ch10 /ch11 /ch12 /ch13 /ch14 /ch15 /ch16 /ch17 /ch18 /ch19 /ch20 /ch21 /ch22 /ch23 /ch24 /ch25 /ch26 /ch27 /ch28 /ch29 /ch30 /ch31 /ch32 /ch33 /ch34 /ch35 /ch36 /ch37 /ch38 /ch39 /ch40 /ch41 /ch42 /ch43 /ch44 /ch45 /ch46 /ch47 /ch48 /ch49 /ch50 /ch51 /ch52 /ch53 /ch54 /ch55 /ch56 /ch57 /ch58 /ch59 /ch60 /ch61 /ch62 /ch63 /ch64 /ch65 /ch66 /ch67 /ch68 /ch69 /ch70 /ch71 /ch72 /ch73 /ch74 /ch75 /ch76 /ch77 /ch78 /ch79 /ch80 /ch81 /ch82 /ch83 /ch84 /ch85 /ch86 /ch87 /ch88 /ch89 /ch90 /ch91 /ch92 /ch93 /ch94 /ch95 /ch96 /ch97 /ch98 /ch99 /ch100 /ch101 /ch102 /ch103 /ch104 /ch105 /ch106 /ch107 /ch108 /ch109 /ch110 /ch111 /ch112 /ch113 /ch114 /ch115 /ch116 /ch117 /ch118 /ch119 /ch120 /ch121 /ch122 /ch123 /ch124 /ch125 /ch126 /ch127 /ch128 /ch129 /ch130 /ch131 /ch132 /ch133 /ch134 /ch135 /ch136 /ch137 /ch138 /ch139 /ch140 /ch141 /ch142 /ch143 /ch144 /ch145 /ch146 /ch147 /ch148 /ch149 /ch150 /ch151 /ch152 /ch153 /ch154 /ch155 /ch156 /ch157 /ch158 /ch159 /ch160 /ch161 /ch162 /ch163 /ch164 /ch165 /ch166 /ch167 /ch168 /ch169 /ch170 /ch171 /ch172 /ch173 /ch174 /ch175 /ch176 /ch177 /ch178 /ch179 /ch180 /ch181 /ch182 /ch183 /ch184 /ch185 ch186 ch187 ch188 ch189 ch190 ch191 ch192 ch193 ch194 ch195 ch196 ch197 /ch198 /ch199 /ch200 /ch201 /ch202 /ch203 /ch204 /ch205 /ch206 /ch207 /ch208 /ch209 /ch210 /ch211 /ch212 /ch213 /ch214 /ch215 /ch216 /ch217 /ch218 /ch219 /ch220 /ch221 /ch222 /ch223 /ch224;#P connect 2 0 4 0;#P fasten 4 0 3 0 6 75 6 75;#P fasten 0 0 1 0 260 424 6 424;#P fasten 5 0 1 0 679 424 6 424;#P fasten 3 0 1 0 6 280 6 280;#P fasten 6 0 1 0 129 424 6 424;#P fasten 4 1 6 0 21 75 129 75;#P fasten 4 2 0 0 36 75 260 75;#P fasten 4 3 5 0 51 75 679 75;#P pop;#P newobj 151 54 33 196617 p init;#N thispatcher;#Q end;#P newobj 56 80 61 196617 thispatcher;#P newex 1 78 44 196617 r /light;#P objectname light_receive;#P newex 56 21 125 196617 route init;#P newex 56 1 42 196617 r patch;#P window setfont "Lucida Grande" 10.;#P window linecount 0;#P newex 1 216 150 67108874 prepend 1;#P objectname line-dmx1;#P newex 1 246 150 67108874 prepend 2;#P objectname line-dmx2;#P newex 1 276 150 67108874 prepend 3;#P objectname line-dmx3;#P newex 1 306 150 67108874 prepend 4;#P objectname line-dmx4;#P newex 1 336 150 67108874 prepend 5;#P objectname line-dmx5;#P newex 1 366 150 67108874 prepend 6;#P objectname line-dmx6;#P newex 1 396 150 67108874 prepend 7;#P objectname line-dmx7;#P newex 1 426 150 67108874 prepend 8;#P objectname line-dmx8;#P newex 1 456 150 67108874 prepend 9;#P objectname line-dmx9;#P newex 1 486 150 67108874 prepend 10;#P objectname line-dmx10;#P newex 1 516 150 67108874 prepend 11;#P objectname line-dmx11;#P newex 1 546 150 67108874 prepend 12;#P objectname line-dmx12;#P newex 1 576 150 67108874 prepend 13;#P objectname line-dmx13;#P newex 1 606 150 67108874 prepend 14;#P objectname line-dmx14;#P newex 1 636 150 67108874 prepend 15;#P objectname line-dmx15;#P newex 1 666 150 67108874 prepend 16;#P objectname line-dmx16;#P newex 1 696 150 67108874 prepend 17;#P objectname line-dmx17;#P newex 1 726 150 67108874 prepend 18;#P objectname line-dmx18;#P newex 1 756 150 67108874 prepend 19;#P objectname line-dmx19;#P newex 1 786 150 67108874 prepend 20;#P objectname line-dmx20;#P newex 1 816 150 67108874 prepend 21;#P objectname line-dmx21;#P newex 1 846 150 67108874 prepend 22;#P objectname line-dmx22;#P newex 1 876 150 67108874 prepend 23;#P objectname line-dmx23;#P newex 1 906 150 67108874 prepend 24;#P objectname line-dmx24;#P newex 1 936 150 67108874 prepend 25;#P objectname line-dmx25;#P newex 1 966 150 67108874 prepend 26;#P objectname line-dmx26;#P newex 1 996 150 67108874 prepend 27;#P objectname line-dmx27;#P newex 1 1026 150 67108874 prepend 28;#P objectname line-dmx28;#P newex 1 1056 150 67108874 prepend 29;#P objectname line-dmx29;#P newex 1 1086 150 67108874 prepend 30;#P objectname line-dmx30;#P newex 1 1116 150 67108874 prepend 31;#P objectname line-dmx31;#P newex 1 1146 150 67108874 prepend 32;#P objectname line-dmx32;#P newex 1 1176 150 67108874 prepend 33;#P objectname line-dmx33;#P newex 1 1206 150 67108874 prepend 34;#P objectname line-dmx34;#P newex 1 1236 150 67108874 prepend 35;#P objectname line-dmx35;#P newex 1 1266 150 67108874 prepend 36;#P objectname line-dmx36;#P newex 1 1296 150 67108874 prepend 37;#P objectname line-dmx37;#P newex 1 1326 150 67108874 prepend 38;#P objectname line-dmx38;#P newex 1 1356 150 67108874 prepend 39;#P objectname line-dmx39;#P newex 1 1386 150 67108874 prepend 40;#P objectname line-dmx40;#P newex 1 1416 150 67108874 prepend 41;#P objectname line-dmx41;#P newex 1 1446 150 67108874 prepend 42;#P objectname line-dmx42;#P newex 1 1476 150 67108874 prepend 43;#P objectname line-dmx43;#P newex 1 1506 150 67108874 prepend 44;#P objectname line-dmx44;#P newex 1 1536 150 67108874 prepend 45;#P objectname line-dmx45;#P newex 1 1566 150 67108874 prepend 46;#P objectname line-dmx46;#P newex 1 1596 150 67108874 prepend 47;#P objectname line-dmx47;#P newex 1 1626 150 67108874 prepend 48;#P objectname line-dmx48;#P newex 1 1656 150 67108874 prepend 49;#P objectname line-dmx49;#P newex 1 1686 150 67108874 prepend 50;#P objectname line-dmx50;#P newex 1 1716 150 67108874 prepend 51;#P objectname line-dmx51;#P newex 1 1746 150 67108874 prepend 52;#P objectname line-dmx52;#P newex 1 1776 150 67108874 prepend 53;#P objectname line-dmx53;#P newex 1 1806 150 67108874 prepend 54;#P objectname line-dmx54;#P newex 1 1836 150 67108874 prepend 55;#P objectname line-dmx55;#P newex 1 1866 150 67108874 prepend 56;#P objectname line-dmx56;#P newex 1 1896 150 67108874 prepend 57;#P objectname line-dmx57;#P newex 1 1926 150 67108874 prepend 58;#P objectname line-dmx58;#P newex 1 1956 150 67108874 prepend 59;#P objectname line-dmx59;#P newex 1 1986 150 67108874 prepend 60;#P objectname line-dmx60;#P newex 1 2016 150 67108874 prepend 61;#P objectname line-dmx61;#P newex 1 2046 150 67108874 prepend 62;#P objectname line-dmx62;#P newex 1 2076 150 67108874 prepend 63;#P objectname line-dmx63;#P newex 1 2106 150 67108874 prepend 64;#P objectname line-dmx64;#P newex 1 2136 150 67108874 prepend 65;#P objectname line-dmx65;#P newex 1 2166 150 67108874 prepend 66;#P objectname line-dmx66;#P newex 1 2196 150 67108874 prepend 67;#P objectname line-dmx67;#P newex 1 2226 150 67108874 prepend 68;#P objectname line-dmx68;#P newex 1 2256 150 67108874 prepend 69;#P objectname line-dmx69;#P newex 1 2286 150 67108874 prepend 70;#P objectname line-dmx70;#P newex 1 2316 150 67108874 prepend 71;#P objectname line-dmx71;#P newex 1 2346 150 67108874 prepend 72;#P objectname line-dmx72;#P newex 1 2376 150 67108874 prepend 73;#P objectname line-dmx73;#P newex 1 2406 150 67108874 prepend 74;#P objectname line-dmx74;#P newex 1 2436 150 67108874 prepend 75;#P objectname line-dmx75;#P newex 1 2466 150 67108874 prepend 76;#P objectname line-dmx76;#P newex 1 2496 150 67108874 prepend 77;#P objectname line-dmx77;#P newex 1 2526 150 67108874 prepend 78;#P objectname line-dmx78;#P newex 1 2556 150 67108874 prepend 79;#P objectname line-dmx79;#P newex 1 2586 150 67108874 prepend 80;#P objectname line-dmx80;#P newex 1 2616 150 67108874 prepend 81;#P objectname line-dmx81;#P newex 1 2646 150 67108874 prepend 82;#P objectname line-dmx82;#P newex 1 2676 150 67108874 prepend 83;#P objectname line-dmx83;#P newex 1 2706 150 67108874 prepend 84;#P objectname line-dmx84;#P newex 1 2736 150 67108874 prepend 85;#P objectname line-dmx85;#P newex 1 2766 150 67108874 prepend 86;#P objectname line-dmx86;#P newex 1 2796 150 67108874 prepend 87;#P objectname line-dmx87;#P newex 1 2826 150 67108874 prepend 88;#P objectname line-dmx88;#P newex 1 2856 150 67108874 prepend 89;#P objectname line-dmx89;#P newex 1 2886 150 67108874 prepend 90;#P objectname line-dmx90;#P newex 1 2916 150 67108874 prepend 91;#P objectname line-dmx91;#P newex 1 2946 150 67108874 prepend 92;#P objectname line-dmx92;#P newex 1 2976 150 67108874 prepend 93;#P objectname line-dmx93;#P newex 1 3006 150 67108874 prepend 94;#P objectname line-dmx94;#P newex 1 3036 150 67108874 prepend 95;#P objectname line-dmx95;#P newex 1 3066 150 67108874 prepend 96;#P objectname line-dmx96;#P newex 1 3096 150 67108874 prepend 97;#P objectname line-dmx97;#P newex 1 3126 150 67108874 prepend 98;#P objectname line-dmx98;#P newex 1 3156 150 67108874 prepend 99;#P objectname line-dmx99;#P newex 1 3186 150 67108874 prepend 100;#P objectname line-dmx100;#P newex 1 3216 150 67108874 prepend 101;#P objectname line-dmx101;#P newex 1 3246 150 67108874 prepend 102;#P objectname line-dmx102;#P newex 1 3276 150 67108874 prepend 103;#P objectname line-dmx103;#P newex 1 3306 150 67108874 prepend 104;#P objectname line-dmx104;#P newex 1 3336 150 67108874 prepend 105;#P objectname line-dmx105;#P newex 1 3366 150 67108874 prepend 106;#P objectname line-dmx106;#P newex 1 3396 150 67108874 prepend 107;#P objectname line-dmx107;#P newex 1 3426 150 67108874 prepend 108;#P objectname line-dmx108;#P newex 1 3456 150 67108874 prepend 109;#P objectname line-dmx109;#P newex 1 3486 150 67108874 prepend 110;#P objectname line-dmx110;#P newex 1 3516 150 67108874 prepend 111;#P objectname line-dmx111;#P newex 1 3546 150 67108874 prepend 112;#P objectname line-dmx112;#P newex 1 3576 150 67108874 prepend 113;#P objectname line-dmx113;#P newex 1 3606 150 67108874 prepend 114;#P objectname line-dmx114;#P newex 1 3636 150 67108874 prepend 115;#P objectname line-dmx115;#P newex 1 3666 150 67108874 prepend 116;#P objectname line-dmx116;#P newex 1 3696 150 67108874 prepend 117;#P objectname line-dmx117;#P newex 1 3726 150 67108874 prepend 118;#P objectname line-dmx118;#P newex 1 3756 150 67108874 prepend 119;#P objectname line-dmx119;#P newex 1 3786 150 67108874 prepend 120;#P objectname line-dmx120;#P newex 1 3816 150 67108874 prepend 121;#P objectname line-dmx121;#P newex 1 3846 150 67108874 prepend 122;#P objectname line-dmx122;#P newex 1 3876 150 67108874 prepend 123;#P objectname line-dmx123;#P newex 1 3906 150 67108874 prepend 124;#P objectname line-dmx124;#P newex 1 3936 150 67108874 prepend 125;#P objectname line-dmx125;#P newex 1 3966 150 67108874 prepend 126;#P objectname line-dmx126;#P newex 1 3996 150 67108874 prepend 127;#P objectname line-dmx127;#P newex 1 4026 150 67108874 prepend 128;#P objectname line-dmx128;#P newex 251 216 150 67108874 prepend 129;#P objectname line-dmx129;#P newex 251 246 150 67108874 prepend 130;#P objectname line-dmx130;#P newex 251 276 150 67108874 prepend 131;#P objectname line-dmx131;#P newex 251 306 150 67108874 prepend 132;#P objectname line-dmx132;#P newex 251 336 150 67108874 prepend 133;#P objectname line-dmx133;#P newex 251 366 150 67108874 prepend 134;#P objectname line-dmx134;#P newex 251 396 150 67108874 prepend 135;#P objectname line-dmx135;#P newex 251 426 150 67108874 prepend 136;#P objectname line-dmx136;#P newex 251 456 150 67108874 prepend 137;#P objectname line-dmx137;#P newex 251 486 150 67108874 prepend 138;#P objectname line-dmx138;#P newex 251 516 150 67108874 prepend 139;#P objectname line-dmx139;#P newex 251 546 150 67108874 prepend 140;#P objectname line-dmx140;#P newex 251 576 150 67108874 prepend 141;#P objectname line-dmx141;#P newex 251 606 150 67108874 prepend 142;#P objectname line-dmx142;#P newex 251 636 150 67108874 prepend 143;#P objectname line-dmx143;#P newex 251 666 150 67108874 prepend 144;#P objectname line-dmx144;#P newex 251 696 150 67108874 prepend 145;#P objectname line-dmx145;#P newex 251 726 150 67108874 prepend 146;#P objectname line-dmx146;#P newex 251 756 150 67108874 prepend 147;#P objectname line-dmx147;#P newex 251 786 150 67108874 prepend 148;#P objectname line-dmx148;#P newex 251 816 150 67108874 prepend 149;#P objectname line-dmx149;#P newex 251 846 150 67108874 prepend 150;#P objectname line-dmx150;#P newex 251 876 150 67108874 prepend 151;#P objectname line-dmx151;#P newex 251 906 150 67108874 prepend 152;#P objectname line-dmx152;#P newex 251 936 150 67108874 prepend 153;#P objectname line-dmx153;#P newex 251 966 150 67108874 prepend 154;#P objectname line-dmx154;#P newex 251 996 150 67108874 prepend 155;#P objectname line-dmx155;#P newex 251 1026 150 67108874 prepend 156;#P objectname line-dmx156;#P newex 251 1056 150 67108874 prepend 157;#P objectname line-dmx157;#P newex 251 1086 150 67108874 prepend 158;#P objectname line-dmx158;#P newex 251 1116 150 67108874 prepend 159;#P objectname line-dmx159;#P newex 251 1146 150 67108874 prepend 160;#P objectname line-dmx160;#P newex 251 1176 150 67108874 prepend 161;#P objectname line-dmx161;#P newex 251 1206 150 67108874 prepend 162;#P objectname line-dmx162;#P newex 251 1236 150 67108874 prepend 163;#P objectname line-dmx163;#P newex 251 1266 150 67108874 prepend 164;#P objectname line-dmx164;#P newex 251 1296 150 67108874 prepend 165;#P objectname line-dmx165;#P newex 251 1326 150 67108874 prepend 166;#P objectname line-dmx166;#P newex 251 1356 150 67108874 prepend 167;#P objectname line-dmx167;#P newex 251 1386 150 67108874 prepend 168;#P objectname line-dmx168;#P newex 251 1416 150 67108874 prepend 169;#P objectname line-dmx169;#P newex 251 1446 150 67108874 prepend 170;#P objectname line-dmx170;#P newex 251 1476 150 67108874 prepend 171;#P objectname line-dmx171;#P newex 251 1506 150 67108874 prepend 172;#P objectname line-dmx172;#P newex 251 1536 150 67108874 prepend 173;#P objectname line-dmx173;#P newex 251 1566 150 67108874 prepend 174;#P objectname line-dmx174;#P newex 251 1596 150 67108874 prepend 175;#P objectname line-dmx175;#P newex 251 1626 150 67108874 prepend 176;#P objectname line-dmx176;#P newex 251 1656 150 67108874 prepend 177;#P objectname line-dmx177;#P newex 251 1686 150 67108874 prepend 178;#P objectname line-dmx178;#P newex 251 1716 150 67108874 prepend 179;#P objectname line-dmx179;#P newex 251 1746 150 67108874 prepend 180;#P objectname line-dmx180;#P newex 251 1776 150 67108874 prepend 181;#P objectname line-dmx181;#P newex 251 1806 150 67108874 prepend 182;#P objectname line-dmx182;#P newex 251 1836 150 67108874 prepend 183;#P objectname line-dmx183;#P newex 251 1866 150 67108874 prepend 184;#P objectname line-dmx184;#P newex 251 1896 150 67108874 prepend 185;#P objectname line-dmx185;#P newex 251 1926 150 67108874 prepend 186;#P objectname line-dmx186;#P newex 251 1956 150 67108874 prepend 187;#P objectname line-dmx187;#P newex 251 1986 150 67108874 prepend 188;#P objectname line-dmx188;#P newex 251 2016 150 67108874 prepend 189;#P objectname line-dmx189;#P newex 251 2046 150 67108874 prepend 190;#P objectname line-dmx190;#P newex 251 2076 150 67108874 prepend 191;#P objectname line-dmx191;#P newex 251 2106 150 67108874 prepend 192;#P objectname line-dmx192;#P newex 251 2136 150 67108874 prepend 193;#P objectname line-dmx193;#P newex 251 2166 150 67108874 prepend 194;#P objectname line-dmx194;#P newex 251 2196 150 67108874 prepend 195;#P objectname line-dmx195;#P newex 251 2226 150 67108874 prepend 196;#P objectname line-dmx196;#P newex 251 2256 150 67108874 prepend 197;#P objectname line-dmx197;#P newex 251 2286 150 67108874 prepend 198;#P objectname line-dmx198;#P newex 251 2316 150 67108874 prepend 199;#P objectname line-dmx199;#P newex 251 2346 150 67108874 prepend 200;#P objectname line-dmx200;#P newex 251 2376 150 67108874 prepend 201;#P objectname line-dmx201;#P newex 251 2406 150 67108874 prepend 202;#P objectname line-dmx202;#P newex 251 2436 150 67108874 prepend 203;#P objectname line-dmx203;#P newex 251 2466 150 67108874 prepend 204;#P objectname line-dmx204;#P newex 251 2496 150 67108874 prepend 205;#P objectname line-dmx205;#P newex 251 2526 150 67108874 prepend 206;#P objectname line-dmx206;#P newex 251 2556 150 67108874 prepend 207;#P objectname line-dmx207;#P newex 251 2586 150 67108874 prepend 208;#P objectname line-dmx208;#P newex 251 2616 150 67108874 prepend 209;#P objectname line-dmx209;#P newex 251 2646 150 67108874 prepend 210;#P objectname line-dmx210;#P newex 251 2676 150 67108874 prepend 211;#P objectname line-dmx211;#P newex 251 2706 150 67108874 prepend 212;#P objectname line-dmx212;#P newex 251 2736 150 67108874 prepend 213;#P objectname line-dmx213;#P newex 251 2766 150 67108874 prepend 214;#P objectname line-dmx214;#P newex 251 2796 150 67108874 prepend 215;#P objectname line-dmx215;#P newex 251 2826 150 67108874 prepend 216;#P objectname line-dmx216;#P newex 251 2856 150 67108874 prepend 217;#P objectname line-dmx217;#P newex 251 2886 150 67108874 prepend 218;#P objectname line-dmx218;#P newex 251 2916 150 67108874 prepend 219;#P objectname line-dmx219;#P newex 251 2946 150 67108874 prepend 220;#P objectname line-dmx220;#P newex 251 2976 150 67108874 prepend 221;#P objectname line-dmx221;#P newex 251 3006 150 67108874 prepend 222;#P objectname line-dmx222;#P newex 251 3036 150 67108874 prepend 223;#P objectname line-dmx223;#P newex 251 3066 150 67108874 prepend 224;#P objectname line-dmx224;#P newex 251 3096 150 67108874 prepend 225;#P objectname line-dmx225;#P newex 251 3126 150 67108874 prepend 226;#P objectname line-dmx226;#P newex 251 3156 150 67108874 prepend 227;#P objectname line-dmx227;#P newex 251 3186 150 67108874 prepend 228;#P objectname line-dmx228;#P newex 251 3216 150 67108874 prepend 229;#P objectname line-dmx229;#P newex 251 3246 150 67108874 prepend 230;#P objectname line-dmx230;#P newex 251 3276 150 67108874 prepend 231;#P objectname line-dmx231;#P newex 251 3306 150 67108874 prepend 232;#P objectname line-dmx232;#P newex 251 3336 150 67108874 prepend 233;#P objectname line-dmx233;#P newex 251 3366 150 67108874 prepend 234;#P objectname line-dmx234;#P newex 251 3396 150 67108874 prepend 235;#P objectname line-dmx235;#P newex 251 3426 150 67108874 prepend 236;#P objectname line-dmx236;#P newex 251 3456 150 67108874 prepend 237;#P objectname line-dmx237;#P newex 251 3486 150 67108874 prepend 238;#P objectname line-dmx238;#P newex 251 3516 150 67108874 prepend 239;#P objectname line-dmx239;#P newex 251 3546 150 67108874 prepend 240;#P objectname line-dmx240;#P newex 251 3576 150 67108874 prepend 241;#P objectname line-dmx241;#P newex 251 3606 150 67108874 prepend 242;#P objectname line-dmx242;#P newex 251 3636 150 67108874 prepend 243;#P objectname line-dmx243;#P newex 251 3666 150 67108874 prepend 244;#P objectname line-dmx244;#P newex 251 3696 150 67108874 prepend 245;#P objectname line-dmx245;#P newex 251 3726 150 67108874 prepend 246;#P objectname line-dmx246;#P newex 251 3756 150 67108874 prepend 247;#P objectname line-dmx247;#P newex 251 3786 150 67108874 prepend 248;#P objectname line-dmx248;#P newex 251 3816 150 67108874 prepend 249;#P objectname line-dmx249;#P newex 251 3846 150 67108874 prepend 250;#P objectname line-dmx250;#P newex 251 3876 150 67108874 prepend 251;#P objectname line-dmx251;#P newex 251 3906 150 67108874 prepend 252;#P objectname line-dmx252;#P newex 251 3936 150 67108874 prepend 253;#P objectname line-dmx253;#P newex 251 3966 150 67108874 prepend 254;#P objectname line-dmx254;#P newex 251 3996 150 67108874 prepend 255;#P objectname line-dmx255;#P newex 251 4026 150 67108874 prepend 256;#P objectname line-dmx256;#P newex 501 216 150 67108874 prepend 257;#P objectname line-dmx257;#P newex 501 246 150 67108874 prepend 258;#P objectname line-dmx258;#P newex 501 276 150 67108874 prepend 259;#P objectname line-dmx259;#P newex 501 306 150 67108874 prepend 260;#P objectname line-dmx260;#P newex 501 336 150 67108874 prepend 261;#P objectname line-dmx261;#P newex 501 366 150 67108874 prepend 262;#P objectname line-dmx262;#P newex 501 396 150 67108874 prepend 263;#P objectname line-dmx263;#P newex 501 426 150 67108874 prepend 264;#P objectname line-dmx264;#P newex 501 456 150 67108874 prepend 265;#P objectname line-dmx265;#P newex 501 486 150 67108874 prepend 266;#P objectname line-dmx266;#P newex 501 516 150 67108874 prepend 267;#P objectname line-dmx267;#P newex 501 546 150 67108874 prepend 268;#P objectname line-dmx268;#P newex 501 576 150 67108874 prepend 269;#P objectname line-dmx269;#P newex 501 606 150 67108874 prepend 270;#P objectname line-dmx270;#P newex 501 636 150 67108874 prepend 271;#P objectname line-dmx271;#P newex 501 666 150 67108874 prepend 272;#P objectname line-dmx272;#P newex 501 696 150 67108874 prepend 273;#P objectname line-dmx273;#P newex 501 726 150 67108874 prepend 274;#P objectname line-dmx274;#P newex 501 756 150 67108874 prepend 275;#P objectname line-dmx275;#P newex 501 786 150 67108874 prepend 276;#P objectname line-dmx276;#P newex 501 816 150 67108874 prepend 277;#P objectname line-dmx277;#P newex 501 846 150 67108874 prepend 278;#P objectname line-dmx278;#P newex 501 876 150 67108874 prepend 279;#P objectname line-dmx279;#P newex 501 906 150 67108874 prepend 280;#P objectname line-dmx280;#P newex 501 936 150 67108874 prepend 281;#P objectname line-dmx281;#P newex 501 966 150 67108874 prepend 282;#P objectname line-dmx282;#P newex 501 996 150 67108874 prepend 283;#P objectname line-dmx283;#P newex 501 1026 150 67108874 prepend 284;#P objectname line-dmx284;#P newex 501 1056 150 67108874 prepend 285;#P objectname line-dmx285;#P newex 501 1086 150 67108874 prepend 286;#P objectname line-dmx286;#P newex 501 1116 150 67108874 prepend 287;#P objectname line-dmx287;#P newex 501 1146 150 67108874 prepend 288;#P objectname line-dmx288;#P newex 501 1176 150 67108874 prepend 289;#P objectname line-dmx289;#P newex 501 1206 150 67108874 prepend 290;#P objectname line-dmx290;#P newex 501 1236 150 67108874 prepend 291;#P objectname line-dmx291;#P newex 501 1266 150 67108874 prepend 292;#P objectname line-dmx292;#P newex 501 1296 150 67108874 prepend 293;#P objectname line-dmx293;#P newex 501 1326 150 67108874 prepend 294;#P objectname line-dmx294;#P newex 501 1356 150 67108874 prepend 295;#P objectname line-dmx295;#P newex 501 1386 150 67108874 prepend 296;#P objectname line-dmx296;#P newex 501 1416 150 67108874 prepend 297;#P objectname line-dmx297;#P newex 501 1446 150 67108874 prepend 298;#P objectname line-dmx298;#P newex 501 1476 150 67108874 prepend 299;#P objectname line-dmx299;#P newex 501 1506 150 67108874 prepend 300;#P objectname line-dmx300;#P newex 501 1536 150 67108874 prepend 301;#P objectname line-dmx301;#P newex 501 1566 150 67108874 prepend 302;#P objectname line-dmx302;#P newex 501 1596 150 67108874 prepend 303;#P objectname line-dmx303;#P newex 501 1626 150 67108874 prepend 304;#P objectname line-dmx304;#P newex 501 1656 150 67108874 prepend 305;#P objectname line-dmx305;#P newex 501 1686 150 67108874 prepend 306;#P objectname line-dmx306;#P newex 501 1716 150 67108874 prepend 307;#P objectname line-dmx307;#P newex 501 1746 150 67108874 prepend 308;#P objectname line-dmx308;#P newex 501 1776 150 67108874 prepend 309;#P objectname line-dmx309;#P newex 501 1806 150 67108874 prepend 310;#P objectname line-dmx310;#P newex 501 1836 150 67108874 prepend 311;#P objectname line-dmx311;#P newex 501 1866 150 67108874 prepend 312;#P objectname line-dmx312;#P newex 501 1896 150 67108874 prepend 313;#P objectname line-dmx313;#P newex 501 1926 150 67108874 prepend 314;#P objectname line-dmx314;#P newex 501 1956 150 67108874 prepend 315;#P objectname line-dmx315;#P newex 501 1986 150 67108874 prepend 316;#P objectname line-dmx316;#P newex 501 2016 150 67108874 prepend 317;#P objectname line-dmx317;#P newex 501 2046 150 67108874 prepend 318;#P objectname line-dmx318;#P newex 501 2076 150 67108874 prepend 319;#P objectname line-dmx319;#P newex 501 2106 150 67108874 prepend 320;#P objectname line-dmx320;#P newex 501 2136 150 67108874 prepend 321;#P objectname line-dmx321;#P newex 501 2166 150 67108874 prepend 322;#P objectname line-dmx322;#P newex 501 2196 150 67108874 prepend 323;#P objectname line-dmx323;#P newex 501 2226 150 67108874 prepend 324;#P objectname line-dmx324;#P newex 501 2256 150 67108874 prepend 325;#P objectname line-dmx325;#P newex 501 2286 150 67108874 prepend 326;#P objectname line-dmx326;#P newex 501 2316 150 67108874 prepend 327;#P objectname line-dmx327;#P newex 501 2346 150 67108874 prepend 328;#P objectname line-dmx328;#P newex 501 2376 150 67108874 prepend 329;#P objectname line-dmx329;#P newex 501 2406 150 67108874 prepend 330;#P objectname line-dmx330;#P newex 501 2436 150 67108874 prepend 331;#P objectname line-dmx331;#P newex 501 2466 150 67108874 prepend 332;#P objectname line-dmx332;#P newex 501 2496 150 67108874 prepend 333;#P objectname line-dmx333;#P newex 501 2526 150 67108874 prepend 334;#P objectname line-dmx334;#P newex 501 2556 150 67108874 prepend 335;#P objectname line-dmx335;#P newex 501 2586 150 67108874 prepend 336;#P objectname line-dmx336;#P newex 501 2616 150 67108874 prepend 337;#P objectname line-dmx337;#P newex 501 2646 150 67108874 prepend 338;#P objectname line-dmx338;#P newex 501 2676 150 67108874 prepend 339;#P objectname line-dmx339;#P newex 501 2706 150 67108874 prepend 340;#P objectname line-dmx340;#P newex 501 2736 150 67108874 prepend 341;#P objectname line-dmx341;#P newex 501 2766 150 67108874 prepend 342;#P objectname line-dmx342;#P newex 501 2796 150 67108874 prepend 343;#P objectname line-dmx343;#P newex 501 2826 150 67108874 prepend 344;#P objectname line-dmx344;#P newex 501 2856 150 67108874 prepend 345;#P objectname line-dmx345;#P newex 501 2886 150 67108874 prepend 346;#P objectname line-dmx346;#P newex 501 2916 150 67108874 prepend 347;#P objectname line-dmx347;#P newex 501 2946 150 67108874 prepend 348;#P objectname line-dmx348;#P newex 501 2976 150 67108874 prepend 349;#P objectname line-dmx349;#P newex 501 3006 150 67108874 prepend 350;#P objectname line-dmx350;#P newex 501 3036 150 67108874 prepend 351;#P objectname line-dmx351;#P newex 501 3066 150 67108874 prepend 352;#P objectname line-dmx352;#P newex 501 3096 150 67108874 prepend 353;#P objectname line-dmx353;#P newex 501 3126 150 67108874 prepend 354;#P objectname line-dmx354;#P newex 501 3156 150 67108874 prepend 355;#P objectname line-dmx355;#P newex 501 3186 150 67108874 prepend 356;#P objectname line-dmx356;#P newex 501 3216 150 67108874 prepend 357;#P objectname line-dmx357;#P newex 501 3246 150 67108874 prepend 358;#P objectname line-dmx358;#P newex 501 3276 150 67108874 prepend 359;#P objectname line-dmx359;#P newex 501 3306 150 67108874 prepend 360;#P objectname line-dmx360;#P newex 501 3336 150 67108874 prepend 361;#P objectname line-dmx361;#P newex 501 3366 150 67108874 prepend 362;#P objectname line-dmx362;#P newex 501 3396 150 67108874 prepend 363;#P objectname line-dmx363;#P newex 501 3426 150 67108874 prepend 364;#P objectname line-dmx364;#P newex 501 3456 150 67108874 prepend 365;#P objectname line-dmx365;#P newex 501 3486 150 67108874 prepend 366;#P objectname line-dmx366;#P newex 501 3516 150 67108874 prepend 367;#P objectname line-dmx367;#P newex 501 3546 150 67108874 prepend 368;#P objectname line-dmx368;#P newex 501 3576 150 67108874 prepend 369;#P objectname line-dmx369;#P newex 501 3606 150 67108874 prepend 370;#P objectname line-dmx370;#P newex 501 3636 150 67108874 prepend 371;#P objectname line-dmx371;#P newex 501 3666 150 67108874 prepend 372;#P objectname line-dmx372;#P newex 501 3696 150 67108874 prepend 373;#P objectname line-dmx373;#P newex 501 3726 150 67108874 prepend 374;#P objectname line-dmx374;#P newex 501 3756 150 67108874 prepend 375;#P objectname line-dmx375;#P newex 501 3786 150 67108874 prepend 376;#P objectname line-dmx376;#P newex 501 3816 150 67108874 prepend 377;#P objectname line-dmx377;#P newex 501 3846 150 67108874 prepend 378;#P objectname line-dmx378;#P newex 501 3876 150 67108874 prepend 379;#P objectname line-dmx379;#P newex 501 3906 150 67108874 prepend 380;#P objectname line-dmx380;#P newex 501 3936 150 67108874 prepend 381;#P objectname line-dmx381;#P newex 501 3966 150 67108874 prepend 382;#P objectname line-dmx382;#P newex 501 3996 150 67108874 prepend 383;#P objectname line-dmx383;#P newex 501 4026 150 67108874 prepend 384;#P objectname line-dmx384;#P newex 751 215 150 67108874 prepend 385;#P objectname line-dmx385;#P newex 751 245 150 67108874 prepend 386;#P objectname line-dmx386;#P newex 751 275 150 67108874 prepend 387;#P objectname line-dmx387;#P newex 751 305 150 67108874 prepend 388;#P objectname line-dmx388;#P newex 751 335 150 67108874 prepend 389;#P objectname line-dmx389;#P newex 751 365 150 67108874 prepend 390;#P objectname line-dmx390;#P newex 751 395 150 67108874 prepend 391;#P objectname line-dmx391;#P newex 751 425 150 67108874 prepend 392;#P objectname line-dmx392;#P newex 751 455 150 67108874 prepend 393;#P objectname line-dmx393;#P newex 751 485 150 67108874 prepend 394;#P objectname line-dmx394;#P newex 751 515 150 67108874 prepend 395;#P objectname line-dmx395;#P newex 751 545 150 67108874 prepend 396;#P objectname line-dmx396;#P newex 751 575 150 67108874 prepend 397;#P objectname line-dmx397;#P newex 751 605 150 67108874 prepend 398;#P objectname line-dmx398;#P newex 751 635 150 67108874 prepend 399;#P objectname line-dmx399;#P newex 751 665 150 67108874 prepend 400;#P objectname line-dmx400;#P newex 751 695 150 67108874 prepend 401;#P objectname line-dmx401;#P newex 751 725 150 67108874 prepend 402;#P objectname line-dmx402;#P newex 751 755 150 67108874 prepend 403;#P objectname line-dmx403;#P newex 751 785 150 67108874 prepend 404;#P objectname line-dmx404;#P newex 751 815 150 67108874 prepend 405;#P objectname line-dmx405;#P newex 751 845 150 67108874 prepend 406;#P objectname line-dmx406;#P newex 751 875 150 67108874 prepend 407;#P objectname line-dmx407;#P newex 751 905 150 67108874 prepend 408;#P objectname line-dmx408;#P newex 751 935 150 67108874 prepend 409;#P objectname line-dmx409;#P newex 751 965 150 67108874 prepend 410;#P objectname line-dmx410;#P newex 751 995 150 67108874 prepend 411;#P objectname line-dmx411;#P newex 751 1025 150 67108874 prepend 412;#P objectname line-dmx412;#P newex 751 1055 150 67108874 prepend 413;#P objectname line-dmx413;#P newex 751 1085 150 67108874 prepend 414;#P objectname line-dmx414;#P newex 751 1115 150 67108874 prepend 415;#P objectname line-dmx415;#P newex 751 1145 150 67108874 prepend 416;#P objectname line-dmx416;#P newex 751 1175 150 67108874 prepend 417;#P objectname line-dmx417;#P newex 751 1205 150 67108874 prepend 418;#P objectname line-dmx418;#P newex 751 1235 150 67108874 prepend 419;#P objectname line-dmx419;#P newex 751 1265 150 67108874 prepend 420;#P objectname line-dmx420;#P newex 751 1295 150 67108874 prepend 421;#P objectname line-dmx421;#P newex 751 1325 150 67108874 prepend 422;#P objectname line-dmx422;#P newex 751 1355 150 67108874 prepend 423;#P objectname line-dmx423;#P newex 751 1385 150 67108874 prepend 424;#P objectname line-dmx424;#P newex 751 1415 150 67108874 prepend 425;#P objectname line-dmx425;#P newex 751 1445 150 67108874 prepend 426;#P objectname line-dmx426;#P newex 751 1475 150 67108874 prepend 427;#P objectname line-dmx427;#P newex 751 1505 150 67108874 prepend 428;#P objectname line-dmx428;#P newex 751 1535 150 67108874 prepend 429;#P objectname line-dmx429;#P newex 751 1565 150 67108874 prepend 430;#P objectname line-dmx430;#P newex 751 1595 150 67108874 prepend 431;#P objectname line-dmx431;#P newex 751 1625 150 67108874 prepend 432;#P objectname line-dmx432;#P newex 751 1655 150 67108874 prepend 433;#P objectname line-dmx433;#P newex 751 1685 150 67108874 prepend 434;#P objectname line-dmx434;#P newex 751 1715 150 67108874 prepend 435;#P objectname line-dmx435;#P newex 751 1745 150 67108874 prepend 436;#P objectname line-dmx436;#P newex 751 1775 150 67108874 prepend 437;#P objectname line-dmx437;#P newex 751 1805 150 67108874 prepend 438;#P objectname line-dmx438;#P newex 751 1835 150 67108874 prepend 439;#P objectname line-dmx439;#P newex 751 1865 150 67108874 prepend 440;#P objectname line-dmx440;#P newex 751 1895 150 67108874 prepend 441;#P objectname line-dmx441;#P newex 751 1925 150 67108874 prepend 442;#P objectname line-dmx442;#P newex 751 1955 150 67108874 prepend 443;#P objectname line-dmx443;#P newex 751 1985 150 67108874 prepend 444;#P objectname line-dmx444;#P newex 751 2015 150 67108874 prepend 445;#P objectname line-dmx445;#P newex 751 2045 150 67108874 prepend 446;#P objectname line-dmx446;#P newex 751 2075 150 67108874 prepend 447;#P objectname line-dmx447;#P newex 751 2105 150 67108874 prepend 448;#P objectname line-dmx448;#P newex 751 2135 150 67108874 prepend 449;#P objectname line-dmx449;#P newex 751 2165 150 67108874 prepend 450;#P objectname line-dmx450;#P newex 751 2195 150 67108874 prepend 451;#P objectname line-dmx451;#P newex 751 2225 150 67108874 prepend 452;#P objectname line-dmx452;#P newex 751 2255 150 67108874 prepend 453;#P objectname line-dmx453;#P newex 751 2285 150 67108874 prepend 454;#P objectname line-dmx454;#P newex 751 2315 150 67108874 prepend 455;#P objectname line-dmx455;#P newex 751 2345 150 67108874 prepend 456;#P objectname line-dmx456;#P newex 751 2375 150 67108874 prepend 457;#P objectname line-dmx457;#P newex 751 2405 150 67108874 prepend 458;#P objectname line-dmx458;#P newex 751 2435 150 67108874 prepend 459;#P objectname line-dmx459;#P newex 751 2465 150 67108874 prepend 460;#P objectname line-dmx460;#P newex 751 2495 150 67108874 prepend 461;#P objectname line-dmx461;#P newex 751 2525 150 67108874 prepend 462;#P objectname line-dmx462;#P newex 751 2555 150 67108874 prepend 463;#P objectname line-dmx463;#P newex 751 2585 150 67108874 prepend 464;#P objectname line-dmx464;#P newex 751 2615 150 67108874 prepend 465;#P objectname line-dmx465;#P newex 751 2645 150 67108874 prepend 466;#P objectname line-dmx466;#P newex 751 2675 150 67108874 prepend 467;#P objectname line-dmx467;#P newex 751 2705 150 67108874 prepend 468;#P objectname line-dmx468;#P newex 751 2735 150 67108874 prepend 469;#P objectname line-dmx469;#P newex 751 2765 150 67108874 prepend 470;#P objectname line-dmx470;#P newex 751 2795 150 67108874 prepend 471;#P objectname line-dmx471;#P newex 751 2825 150 67108874 prepend 472;#P objectname line-dmx472;#P newex 751 2855 150 67108874 prepend 473;#P objectname line-dmx473;#P newex 751 2885 150 67108874 prepend 474;#P objectname line-dmx474;#P newex 751 2915 150 67108874 prepend 475;#P objectname line-dmx475;#P newex 751 2945 150 67108874 prepend 476;#P objectname line-dmx476;#P newex 751 2975 150 67108874 prepend 477;#P objectname line-dmx477;#P newex 751 3005 150 67108874 prepend 478;#P objectname line-dmx478;#P newex 751 3035 150 67108874 prepend 479;#P objectname line-dmx479;#P newex 751 3065 150 67108874 prepend 480;#P objectname line-dmx480;#P newex 751 3095 150 67108874 prepend 481;#P objectname line-dmx481;#P newex 751 3125 150 67108874 prepend 482;#P objectname line-dmx482;#P newex 751 3155 150 67108874 prepend 483;#P objectname line-dmx483;#P newex 751 3185 150 67108874 prepend 484;#P objectname line-dmx484;#P newex 751 3215 150 67108874 prepend 485;#P objectname line-dmx485;#P newex 751 3245 150 67108874 prepend 486;#P objectname line-dmx486;#P newex 751 3275 150 67108874 prepend 487;#P objectname line-dmx487;#P newex 751 3305 150 67108874 prepend 488;#P objectname line-dmx488;#P newex 751 3335 150 67108874 prepend 489;#P objectname line-dmx489;#P newex 751 3365 150 67108874 prepend 490;#P objectname line-dmx490;#P newex 751 3395 150 67108874 prepend 491;#P objectname line-dmx491;#P newex 751 3425 150 67108874 prepend 492;#P objectname line-dmx492;#P newex 751 3455 150 67108874 prepend 493;#P objectname line-dmx493;#P newex 751 3485 150 67108874 prepend 494;#P objectname line-dmx494;#P newex 751 3515 150 67108874 prepend 495;#P objectname line-dmx495;#P newex 751 3545 150 67108874 prepend 496;#P objectname line-dmx496;#P newex 751 3575 150 67108874 prepend 497;#P objectname line-dmx497;#P newex 751 3605 150 67108874 prepend 498;#P objectname line-dmx498;#P newex 751 3635 150 67108874 prepend 499;#P objectname line-dmx499;#P newex 751 3665 150 67108874 prepend 500;#P objectname line-dmx500;#P newex 751 3695 150 67108874 prepend 501;#P objectname line-dmx501;#P newex 751 3725 150 67108874 prepend 502;#P objectname line-dmx502;#P newex 751 3755 150 67108874 prepend 503;#P objectname line-dmx503;#P newex 751 3785 150 67108874 prepend 504;#P objectname line-dmx504;#P newex 751 3815 150 67108874 prepend 505;#P objectname line-dmx505;#P newex 751 3845 150 67108874 prepend 506;#P objectname line-dmx506;#P newex 751 3875 150 67108874 prepend 507;#P objectname line-dmx507;#P newex 751 3905 150 67108874 prepend 508;#P objectname line-dmx508;#P newex 751 3935 150 67108874 prepend 509;#P objectname line-dmx509;#P newex 751 3965 150 67108874 prepend 510;#P objectname line-dmx510;#P newex 751 3995 150 67108874 prepend 511;#P objectname line-dmx511;#P newex 751 4025 150 67108874 prepend 512;#P objectname line-dmx512;#P window setfont "Sans Serif" 9.;#P newex 1 100 1221 196617 route /ch1 /ch2 /ch3 /ch4 /ch5 /ch6 /ch7 /ch8 /ch9 /ch10 /ch11 /ch12 /ch13 /ch14 /ch15 /ch16 /ch17 /ch18 /ch19 /ch20 /ch21 /ch22 /ch23 /ch24 /ch25 /ch26 /ch27 /ch28 /ch29 /ch30 /ch31 /ch32 /ch33 /ch34 /ch35 /ch36 /ch37 /ch38 /ch39 /ch40 /ch41 /ch42 /ch43 /ch44 /ch45 /ch46 /ch47 /ch48 /ch49 /ch50 /ch51 /ch52 /ch53 /ch54 /ch55 /ch56 /ch57 /ch58 /ch59 /ch60 /ch61 /ch62 /ch63 /ch64 /ch65 /ch66 /ch67 /ch68 /ch69 /ch70 /ch71 /ch72 /ch73 /ch74 /ch75 /ch76 /ch77 /ch78 /ch79 /ch80 /ch81 /ch82 /ch83 /ch84 /ch85 /ch86 /ch87 /ch88 /ch89 /ch90 /ch91 /ch92 /ch93 /ch94 /ch95 /ch96 /ch97 /ch98 /ch99 /ch100 /ch101 /ch102 /ch103 /ch104 /ch105 /ch106 /ch107 /ch108 /ch109 /ch110 /ch111 /ch112 /ch113 /ch114 /ch115 /ch116 /ch117 /ch118 /ch119 /ch120 /ch121 /ch122 /ch123 /ch124 /ch125 /ch126 /ch127 /ch128 /ch129 /ch130 /ch131 /ch132 /ch133 /ch134 /ch135 /ch136 /ch137 /ch138 /ch139 /ch140 /ch141 /ch142 /ch143 /ch144 /ch145 /ch146 /ch147 /ch148 /ch149 /ch150 /ch151 /ch152 /ch153 /ch154 /ch155 /ch156 /ch157 /ch158 /ch159 /ch160 /ch161 /ch162 /ch163 /ch164 /ch165 /ch166 /ch167 /ch168 /ch169 /ch170 /ch171 /ch172 /ch173 /ch174 /ch175 /ch176 /ch177 /ch178 /ch179 /ch180 /ch181 /ch182 /ch183 /ch184 /ch185 ch186 ch187 ch188 ch189 ch190 ch191 ch192 ch193 ch194 ch195 ch196 ch197 /ch198 /ch199 /ch200 /ch201 /ch202 /ch203 /ch204 /ch205 /ch206 /ch207 /ch208 /ch209 /ch210 /ch211 /ch212 /ch213 /ch214 /ch215 /ch216 /ch217 /ch218 /ch219 /ch220 /ch221 /ch222 /ch223 /ch224;#P objectname router;#P connect 515 0 0 0;#P connect 0 2 476 0;#P connect 0 0 416 0;#P connect 0 1 404 0;#P connect 512 0 526 0;#P connect 511 0 526 0;#P connect 510 0 526 0;#P connect 509 0 526 0;#P connect 508 0 526 0;#P connect 507 0 526 0;#P connect 506 0 526 0;#P connect 505 0 526 0;#P connect 504 0 526 0;#P connect 503 0 526 0;#P connect 502 0 526 0;#P connect 501 0 526 0;#P connect 500 0 526 0;#P connect 499 0 526 0;#P connect 498 0 526 0;#P connect 497 0 526 0;#P connect 496 0 526 0;#P connect 495 0 526 0;#P connect 494 0 526 0;#P connect 493 0 526 0;#P connect 492 0 526 0;#P connect 491 0 526 0;#P connect 490 0 526 0;#P connect 489 0 526 0;#P connect 488 0 526 0;#P connect 487 0 526 0;#P connect 486 0 526 0;#P connect 485 0 526 0;#P connect 484 0 526 0;#P connect 483 0 526 0;#P connect 482 0 526 0;#P connect 481 0 526 0;#P connect 480 0 526 0;#P connect 479 0 526 0;#P connect 478 0 526 0;#P connect 477 0 526 0;#P connect 476 0 526 0;#P connect 475 0 526 0;#P connect 474 0 526 0;#P connect 473 0 526 0;#P connect 472 0 526 0;#P connect 471 0 526 0;#P connect 470 0 526 0;#P connect 469 0 526 0;#P connect 468 0 526 0;#P connect 467 0 526 0;#P connect 466 0 526 0;#P connect 465 0 526 0;#P connect 464 0 526 0;#P connect 463 0 526 0;#P connect 462 0 526 0;#P connect 461 0 526 0;#P connect 460 0 526 0;#P connect 459 0 526 0;#P connect 458 0 526 0;#P connect 457 0 526 0;#P connect 456 0 526 0;#P connect 455 0 526 0;#P connect 454 0 526 0;#P connect 453 0 526 0;#P connect 452 0 526 0;#P connect 451 0 526 0;#P connect 450 0 526 0;#P connect 449 0 526 0;#P connect 448 0 526 0;#P connect 447 0 526 0;#P connect 446 0 526 0;#P connect 445 0 526 0;#P connect 444 0 526 0;#P connect 443 0 526 0;#P connect 442 0 526 0;#P connect 441 0 526 0;#P connect 440 0 526 0;#P connect 439 0 526 0;#P connect 438 0 526 0;#P connect 437 0 526 0;#P connect 436 0 526 0;#P connect 435 0 526 0;#P connect 434 0 526 0;#P connect 433 0 526 0;#P connect 432 0 526 0;#P connect 431 0 526 0;#P connect 430 0 526 0;#P connect 429 0 526 0;#P connect 428 0 526 0;#P connect 427 0 526 0;#P connect 426 0 526 0;#P connect 425 0 526 0;#P connect 424 0 526 0;#P connect 423 0 526 0;#P connect 422 0 526 0;#P connect 421 0 526 0;#P connect 420 0 526 0;#P connect 419 0 526 0;#P connect 418 0 526 0;#P connect 417 0 526 0;#P connect 416 0 526 0;#P connect 415 0 526 0;#P connect 414 0 526 0;#P connect 413 0 526 0;#P connect 412 0 526 0;#P connect 411 0 526 0;#P connect 410 0 526 0;#P connect 409 0 526 0;#P connect 408 0 526 0;#P connect 407 0 526 0;#P connect 406 0 526 0;#P connect 405 0 526 0;#P connect 404 0 526 0;#P connect 403 0 526 0;#P connect 402 0 526 0;#P connect 401 0 526 0;#P connect 400 0 526 0;#P connect 399 0 526 0;#P connect 398 0 526 0;#P connect 397 0 526 0;#P connect 396 0 526 0;#P connect 395 0 526 0;#P connect 394 0 526 0;#P connect 393 0 526 0;#P connect 392 0 526 0;#P connect 391 0 526 0;#P connect 390 0 526 0;#P connect 389 0 526 0;#P connect 388 0 526 0;#P connect 387 0 526 0;#P connect 386 0 526 0;#P connect 385 0 526 0;#P fasten 513 0 514 0 61 19 61 19;#P lcolor 7;#P fasten 514 1 518 0 176 46 61 46;#P fasten 517 0 516 0 156 76 61 76;#P fasten 521 0 516 0 194 76 61 76;#P connect 518 0 516 0;#P connect 518 1 523 0;#P fasten 514 0 517 0 61 41 156 41;#P lcolor 15;#P connect 520 0 522 0;#P connect 522 0 521 0;#P connect 384 0 527 0;#P connect 383 0 527 0;#P connect 382 0 527 0;#P connect 381 0 527 0;#P connect 380 0 527 0;#P connect 379 0 527 0;#P connect 378 0 527 0;#P connect 377 0 527 0;#P connect 376 0 527 0;#P connect 375 0 527 0;#P connect 374 0 527 0;#P connect 373 0 527 0;#P connect 372 0 527 0;#P connect 371 0 527 0;#P connect 370 0 527 0;#P connect 369 0 527 0;#P connect 368 0 527 0;#P connect 367 0 527 0;#P connect 366 0 527 0;#P connect 365 0 527 0;#P connect 364 0 527 0;#P connect 363 0 527 0;#P connect 362 0 527 0;#P connect 361 0 527 0;#P connect 360 0 527 0;#P connect 359 0 527 0;#P connect 358 0 527 0;#P connect 357 0 527 0;#P connect 356 0 527 0;#P connect 355 0 527 0;#P connect 354 0 527 0;#P connect 353 0 527 0;#P connect 352 0 527 0;#P connect 351 0 527 0;#P connect 350 0 527 0;#P connect 349 0 527 0;#P connect 348 0 527 0;#P connect 347 0 527 0;#P connect 346 0 527 0;#P connect 345 0 527 0;#P connect 344 0 527 0;#P connect 343 0 527 0;#P connect 342 0 527 0;#P connect 341 0 527 0;#P connect 340 0 527 0;#P connect 339 0 527 0;#P connect 338 0 527 0;#P connect 337 0 527 0;#P connect 336 0 527 0;#P connect 335 0 527 0;#P connect 334 0 527 0;#P connect 333 0 527 0;#P connect 332 0 527 0;#P connect 331 0 527 0;#P connect 330 0 527 0;#P connect 329 0 527 0;#P connect 328 0 527 0;#P connect 327 0 527 0;#P connect 326 0 527 0;#P connect 325 0 527 0;#P connect 324 0 527 0;#P connect 323 0 527 0;#P connect 322 0 527 0;#P connect 321 0 527 0;#P connect 320 0 527 0;#P connect 319 0 527 0;#P connect 318 0 527 0;#P connect 317 0 527 0;#P connect 316 0 527 0;#P connect 315 0 527 0;#P connect 314 0 527 0;#P connect 313 0 527 0;#P connect 312 0 527 0;#P connect 311 0 527 0;#P connect 310 0 527 0;#P connect 309 0 527 0;#P connect 308 0 527 0;#P connect 307 0 527 0;#P connect 306 0 527 0;#P connect 305 0 527 0;#P connect 304 0 527 0;#P connect 303 0 527 0;#P connect 302 0 527 0;#P connect 301 0 527 0;#P connect 300 0 527 0;#P connect 299 0 527 0;#P connect 298 0 527 0;#P connect 297 0 527 0;#P connect 296 0 527 0;#P connect 295 0 527 0;#P connect 294 0 527 0;#P connect 293 0 527 0;#P connect 292 0 527 0;#P connect 291 0 527 0;#P connect 290 0 527 0;#P connect 289 0 527 0;#P connect 288 0 527 0;#P connect 287 0 527 0;#P connect 286 0 527 0;#P connect 285 0 527 0;#P connect 284 0 527 0;#P connect 283 0 527 0;#P connect 282 0 527 0;#P connect 281 0 527 0;#P connect 280 0 527 0;#P connect 279 0 527 0;#P connect 278 0 527 0;#P connect 277 0 527 0;#P connect 276 0 527 0;#P connect 275 0 527 0;#P connect 274 0 527 0;#P connect 273 0 527 0;#P connect 272 0 527 0;#P connect 271 0 527 0;#P connect 270 0 527 0;#P connect 269 0 527 0;#P connect 268 0 527 0;#P connect 267 0 527 0;#P connect 266 0 527 0;#P connect 265 0 527 0;#P connect 264 0 527 0;#P connect 263 0 527 0;#P connect 262 0 527 0;#P connect 261 0 527 0;#P connect 260 0 527 0;#P connect 259 0 527 0;#P connect 258 0 527 0;#P connect 257 0 527 0;#P connect 533 0 531 0;#P connect 531 0 532 0;#P connect 532 0 525 0;#P fasten 530 0 532 1 406 4149 339 4149;#P connect 524 0 538 0;#P fasten 526 0 530 0 6 4102 406 4102;#P fasten 527 0 530 0 256 4102 406 4102;#P fasten 528 0 530 0 506 4102 406 4102;#P fasten 529 0 530 0 756 4102 406 4102;#P fasten 534 0 524 0 445 4168 406 4168;#P connect 530 0 524 0;#P connect 524 1 535 0;#P connect 535 0 536 0;#P connect 256 0 528 0;#P connect 255 0 528 0;#P connect 254 0 528 0;#P connect 253 0 528 0;#P connect 252 0 528 0;#P connect 251 0 528 0;#P connect 250 0 528 0;#P connect 249 0 528 0;#P connect 248 0 528 0;#P connect 247 0 528 0;#P connect 246 0 528 0;#P connect 245 0 528 0;#P connect 244 0 528 0;#P connect 243 0 528 0;#P connect 242 0 528 0;#P connect 241 0 528 0;#P connect 240 0 528 0;#P connect 239 0 528 0;#P connect 238 0 528 0;#P connect 237 0 528 0;#P connect 236 0 528 0;#P connect 235 0 528 0;#P connect 234 0 528 0;#P connect 233 0 528 0;#P connect 232 0 528 0;#P connect 231 0 528 0;#P connect 230 0 528 0;#P connect 229 0 528 0;#P connect 228 0 528 0;#P connect 227 0 528 0;#P connect 226 0 528 0;#P connect 225 0 528 0;#P connect 224 0 528 0;#P connect 223 0 528 0;#P connect 222 0 528 0;#P connect 221 0 528 0;#P connect 220 0 528 0;#P connect 219 0 528 0;#P connect 218 0 528 0;#P connect 217 0 528 0;#P connect 216 0 528 0;#P connect 215 0 528 0;#P connect 214 0 528 0;#P connect 213 0 528 0;#P connect 212 0 528 0;#P connect 211 0 528 0;#P connect 210 0 528 0;#P connect 209 0 528 0;#P connect 208 0 528 0;#P connect 207 0 528 0;#P connect 206 0 528 0;#P connect 205 0 528 0;#P connect 204 0 528 0;#P connect 203 0 528 0;#P connect 202 0 528 0;#P connect 201 0 528 0;#P connect 200 0 528 0;#P connect 199 0 528 0;#P connect 198 0 528 0;#P connect 197 0 528 0;#P connect 196 0 528 0;#P connect 195 0 528 0;#P connect 194 0 528 0;#P connect 193 0 528 0;#P connect 192 0 528 0;#P connect 191 0 528 0;#P connect 190 0 528 0;#P connect 189 0 528 0;#P connect 188 0 528 0;#P connect 187 0 528 0;#P connect 186 0 528 0;#P connect 185 0 528 0;#P connect 184 0 528 0;#P connect 183 0 528 0;#P connect 182 0 528 0;#P connect 181 0 528 0;#P connect 180 0 528 0;#P connect 179 0 528 0;#P connect 178 0 528 0;#P connect 177 0 528 0;#P connect 176 0 528 0;#P connect 175 0 528 0;#P connect 174 0 528 0;#P connect 173 0 528 0;#P connect 172 0 528 0;#P connect 171 0 528 0;#P connect 170 0 528 0;#P connect 169 0 528 0;#P connect 168 0 528 0;#P connect 167 0 528 0;#P connect 166 0 528 0;#P connect 165 0 528 0;#P connect 164 0 528 0;#P connect 163 0 528 0;#P connect 162 0 528 0;#P connect 161 0 528 0;#P connect 160 0 528 0;#P connect 159 0 528 0;#P connect 158 0 528 0;#P connect 157 0 528 0;#P connect 156 0 528 0;#P connect 155 0 528 0;#P connect 154 0 528 0;#P connect 153 0 528 0;#P connect 152 0 528 0;#P connect 151 0 528 0;#P connect 150 0 528 0;#P connect 149 0 528 0;#P connect 148 0 528 0;#P connect 147 0 528 0;#P connect 146 0 528 0;#P connect 145 0 528 0;#P connect 144 0 528 0;#P connect 143 0 528 0;#P connect 142 0 528 0;#P connect 141 0 528 0;#P connect 140 0 528 0;#P connect 139 0 528 0;#P connect 138 0 528 0;#P connect 137 0 528 0;#P connect 136 0 528 0;#P connect 135 0 528 0;#P connect 134 0 528 0;#P connect 133 0 528 0;#P connect 132 0 528 0;#P connect 131 0 528 0;#P connect 130 0 528 0;#P connect 129 0 528 0;#P connect 128 0 529 0;#P connect 127 0 529 0;#P connect 126 0 529 0;#P connect 125 0 529 0;#P connect 124 0 529 0;#P connect 123 0 529 0;#P connect 122 0 529 0;#P connect 121 0 529 0;#P connect 120 0 529 0;#P connect 119 0 529 0;#P connect 118 0 529 0;#P connect 117 0 529 0;#P connect 116 0 529 0;#P connect 115 0 529 0;#P connect 114 0 529 0;#P connect 113 0 529 0;#P connect 112 0 529 0;#P connect 111 0 529 0;#P connect 110 0 529 0;#P connect 109 0 529 0;#P connect 108 0 529 0;#P connect 107 0 529 0;#P connect 106 0 529 0;#P connect 105 0 529 0;#P connect 104 0 529 0;#P connect 103 0 529 0;#P connect 102 0 529 0;#P connect 101 0 529 0;#P connect 100 0 529 0;#P connect 99 0 529 0;#P connect 98 0 529 0;#P connect 97 0 529 0;#P connect 96 0 529 0;#P connect 95 0 529 0;#P connect 94 0 529 0;#P connect 93 0 529 0;#P connect 92 0 529 0;#P connect 91 0 529 0;#P connect 90 0 529 0;#P connect 89 0 529 0;#P connect 88 0 529 0;#P connect 87 0 529 0;#P connect 86 0 529 0;#P connect 85 0 529 0;#P connect 84 0 529 0;#P connect 83 0 529 0;#P connect 82 0 529 0;#P connect 81 0 529 0;#P connect 80 0 529 0;#P connect 79 0 529 0;#P connect 78 0 529 0;#P connect 77 0 529 0;#P connect 76 0 529 0;#P connect 75 0 529 0;#P connect 74 0 529 0;#P connect 73 0 529 0;#P connect 72 0 529 0;#P connect 71 0 529 0;#P connect 70 0 529 0;#P connect 69 0 529 0;#P connect 68 0 529 0;#P connect 67 0 529 0;#P connect 66 0 529 0;#P connect 65 0 529 0;#P connect 64 0 529 0;#P connect 63 0 529 0;#P connect 62 0 529 0;#P connect 61 0 529 0;#P connect 60 0 529 0;#P connect 59 0 529 0;#P connect 58 0 529 0;#P connect 57 0 529 0;#P connect 56 0 529 0;#P connect 55 0 529 0;#P connect 54 0 529 0;#P connect 53 0 529 0;#P connect 52 0 529 0;#P connect 51 0 529 0;#P connect 50 0 529 0;#P connect 49 0 529 0;#P connect 48 0 529 0;#P connect 47 0 529 0;#P connect 46 0 529 0;#P connect 45 0 529 0;#P connect 44 0 529 0;#P connect 43 0 529 0;#P connect 42 0 529 0;#P connect 41 0 529 0;#P connect 40 0 529 0;#P connect 39 0 529 0;#P connect 38 0 529 0;#P connect 37 0 529 0;#P connect 36 0 529 0;#P connect 35 0 529 0;#P connect 34 0 529 0;#P connect 33 0 529 0;#P connect 32 0 529 0;#P connect 31 0 529 0;#P connect 30 0 529 0;#P connect 29 0 529 0;#P connect 28 0 529 0;#P connect 27 0 529 0;#P connect 26 0 529 0;#P connect 25 0 529 0;#P connect 24 0 529 0;#P connect 23 0 529 0;#P connect 22 0 529 0;#P connect 21 0 529 0;#P connect 20 0 529 0;#P connect 19 0 529 0;#P connect 18 0 529 0;#P connect 17 0 529 0;#P connect 16 0 529 0;#P connect 15 0 529 0;#P connect 14 0 529 0;#P connect 13 0 529 0;#P connect 12 0 529 0;#P connect 11 0 529 0;#P connect 10 0 529 0;#P connect 9 0 529 0;#P connect 8 0 529 0;#P connect 7 0 529 0;#P connect 6 0 529 0;#P connect 5 0 529 0;#P connect 4 0 529 0;#P connect 3 0 529 0;#P connect 2 0 529 0;#P connect 1 0 529 0;#P connect 0 224 519 0;#P pop;#P hidden newobj 842 241 142 196626 p patch_router;#B color 6;#P objectname patch_file[3];#P window setfont "Sans Serif" 9.;#P comment 206 46 32 196617 print;#P user multiSlider 634 70 50 336 0. 100. 1 2937 47 0 0 2 0 0 0;#M frgb 0 0 0;#M brgb 255 255 255;#M rgb2 127 127 127;#M rgb3 0 0 0;#M rgb4 37 52 91;#M rgb5 74 105 182;#M rgb6 112 158 18;#M rgb7 149 211 110;#M rgb8 187 9 201;#M rgb9 224 62 37;#M rgb10 7 114 128;#P objectname master;#P bpatcher 0 1 256 62 0 0 bkgnd.mxt 0 /ch 0;#P objectname background;#P hidden connect 13 0 4 0;#P hidden connect 12 0 4 0;#P hidden connect 0 0 4 0;#P hidden connect 9 0 8 0;#P connect 93 2 20 0;#P hidden connect 15 0 16 0;#P hidden connect 5 0 7 0;#P hidden connect 24 0 23 0;#P hidden connect 23 0 22 0;#P connect 20 0 93 0;#P hidden connect 22 1 27 0;#P hidden connect 27 0 25 0;#P hidden connect 25 0 26 0;#P pop;