max v2;#N vpatcher 19 53 706 433;#P window setfont "Sans Serif" 9.;#P window linecount 1;#P newex 26 168 275 196617 s $1/updatetriggerpoints;#B color 12;#P number 161 50 72 9 0 0 0 3 0 0 0 221 221 221 222 222 222 0 0 0;#P objectname StartPoint;#P comment 36 69 124 196617 /Transport/Speed;#B frgb 0 0 222;#P comment 36 53 124 196617 /Transport/StartPoint;#B frgb 0 0 222;#P flonum 162 67 35 9 0. 5. 3 3 0 0 0 221 221 221 222 222 222 0 0 0;#P objectname speed;#P window setfont "Sans Serif" 12.;#P user ubumenu 37 90 211 196620 0 1 1 0;#X add /Transport/Play;#X add /Transport/Stop;#X add /Transport/Pause;#X add /Transport/Next;#X add /Transport/Rewind;#X add /Transport/Loop;#X prefix_set 0 0 <none> 0;#P objectname transport;#P window setfont "Sans Serif" 9.;#P newex 26 146 122 196617 pvar updatetriggerpoints;#B color 14;#P button 20 32 16 0;#P objectname updatetriggerpoints;#P user ubumenu 38 32 216 196617 0 1 1 0;#X add;#X prefix_set 0 0 <none> 0;#P objectname trigegerpoints;#P comment 17 18 124 196617 send to localhost to 7002;#B frgb 222 0 0;#P comment 167 18 84 196617 listen port 9998;#B frgb 222 0 0;#P toggle 100 2 15 0;#P objectname print;#P comment 63 3 38 196617 /print;#P bpatcher 0 0 256 124 0 0 bkgnd2.mxt 0 $1 0;#P objectname background[1];#P newex 313 326 230 196617 s $1/transport;#B color 12;#P newex 332 251 275 196617 variedit $1/speed $1;#B color 12;#P newex 313 276 59 196617 pvar speed;#B color 14;#P newex 332 201 275 196617 variedit $1/startpoint $1;#B color 12;#P newex 313 126 117 196617 r $1/triggerpoints/list;#B color 12;#P newex 313 176 121 196617 s $1/triggerpoints/play;#B color 12;#P newex 313 151 107 196617 pvar trigegerpoints 2;#B color 14;#P newex 313 226 81 196617 pvar StartPoint;#B color 14;#P newex 313 301 86 196617 pvar transport 2;#B color 14;#P newex 313 101 56 196617 pvar print;#B color 14;#P newex 332 76 217 196617 variedit $1/print $1;#B color 12;#P connect 18 0 24 0;#P connect 0 0 1 0;#P connect 6 0 4 0;#P connect 4 1 5 0;#P connect 7 0 3 0;#P connect 9 0 8 0;#P connect 2 0 10 0;#P connect 1 0 0 0;#P connect 3 0 7 0;#P connect 8 0 9 0;#P pop;