max v2;#N vpatcher 10 59 610 459;#P window setfont "Sans Serif" 9.;#P window linecount 1;#P newex 1076 110 247 196617 tm_editorbuilder /minuit /tapemovie 2 1 1;#B color 6;#P button 1089 83 15 0;#P comment 1107 83 39 196617 delete;#P button 1076 62 15 0;#P comment 1093 62 31 196617 build;#N thispatcher;#Q end;#P newobj 1076 132 61 196617 thispatcher;#P window linecount 0;#P comment 2384 8 100 196617;#P comment 9 8 100 196617;#P connect 4 0 7 0;#P connect 7 0 2 0;#P fasten 6 0 7 1 1094 104 1199 104;#P fasten 2 0 7 2 1081 154 1323 154 1323 106 1317 106;#P pop;