max v2;#N vpatcher 10 44 269 307;#P window setfont "Sans Serif" 10.;#P window linecount 2;#P hidden message 71 90 107 196618 \; /engine/editor open;#P hidden message 67 113 107 196618 \; /events/editor open;#P hidden message 63 144 113 196618 \; /mapper/editor open;#P window setfont "Sans Serif" 9.;#P hidden message 68 61 116 196617 \; /tapemovie/build bang \;;#P window setfont "Sans Serif" 12.;#P window linecount 1;#P comment 159 182 56 196620 shutter;#B frgb 255 255 255;#P window setfont "Sans Serif" 9.;#P hidden newex 663 294 111 196617 pvar enttec-connected;#B color 14;#P hidden newex 406 188 73 196617 pvar closebox;#B color 14;#P user multiSlider 92 99 139 21 0. 255. 1 2920 47 0 0 2 0 0 0;#M frgb 85 126 195;#M brgb 255 255 255;#M rgb2 127 127 127;#M rgb3 0 0 0;#M rgb4 37 52 91;#M rgb5 74 105 182;#M rgb6 112 158 18;#M rgb7 149 211 110;#M rgb8 187 9 201;#M rgb9 224 62 37;#M rgb10 7 114 128;#P objectname dmx-val;#P hidden newex 387 351 64 196617 pvar record;#B color 14;#P hidden newex 270 413 72 196617 pvar dmx-val;#B color 14;#P hidden newex 369 414 91 196617 pvar dmx-channel;#B color 14;#P window setfont "Sans Serif" 14.;#P comment 147 19 64 196622 v 1.41.0;#B frgb 255 255 255;#P number 191 155 40 14 0 255 103 3 0 0 0 255 255 255 222 222 222 50 50 50;#P objectname hostd;#P comment 180 159 15 196622 .;#B frgb 255 255 255;#P number 139 155 40 14 0 255 103 3 0 0 0 255 255 255 222 222 222 50 50 50;#P objectname hostc;#P comment 130 159 15 196622 .;#B frgb 255 255 255;#P number 90 155 40 14 0 255 103 3 0 0 0 255 255 255 222 222 222 50 50 50;#P objectname hostb;#P comment 80 159 15 196622 .;#B frgb 255 255 255;#P number 40 155 40 14 0 255 103 3 0 0 0 255 255 255 222 222 222 50 50 50;#P objectname hosta;#P window setfont "Sans Serif" 10.;#P number 181 134 51 10 0 45000 103 3 0 0 0 255 255 255 222 222 222 50 50 50;#P objectname port;#P window setfont "Sans Serif" 9.;#P hidden newex 620 834 248 196617 variedit /pjlink.1/shutter /pjlink.1;#B color 5;#P hidden newex 620 815 67 196617 pvar shutter;#P hidden message 933 767 37 196617 select;#P hidden number 933 786 35 9 0 0 0 3 0 0 0 221 221 221 222 222 222 0 0 0;#P hidden newex 881 747 62 196617 pvar port 2;#P hidden message 881 728 37 196617 select;#P hidden message 804 730 37 196617 select;#P hidden message 727 730 37 196617 select;#P hidden message 650 730 37 196617 select;#P hidden newex 593 344 130 196617 r /pjlink.1/host;#B color 11;#P hidden newex 546 797 130 196617 s /pjlink.1/host;#B color 11;#P hidden newex 824 707 67 196617 pvar hostd 2;#P hidden newex 747 707 67 196617 pvar hostc 2;#P hidden newex 670 707 67 196617 pvar hostb 2;#P hidden newex 824 668 62 196617 prepend set;#P hidden newex 747 668 62 196617 prepend set;#P hidden newex 670 668 62 196617 prepend set;#P hidden newex 593 668 62 196617 prepend set;#P hidden newex 593 707 67 196617 pvar hosta 2;#P hidden newex 546 775 241 196617 sprintf %ld.%ld.%ld.%ld;#P hidden newex 546 754 241 196617 bondo 4 1;#P hidden newex 747 603 51 196617 zl ecils 1;#P hidden newex 670 603 51 196617 zl ecils 1;#P hidden newex 824 647 64 196617 fromsymbol;#P hidden newex 824 626 40 196617 itoa;#P hidden number 824 560 35 9 0 0 0 3 0 0 0 221 221 221 222 222 222 0 0 0;#P hidden newex 824 539 27 196617 !-;#P hidden number 702 559 35 9 0 0 0 3 0 0 0 221 221 221 222 222 222 0 0 0;#P hidden newex 702 538 27 196617 !-;#P hidden newex 593 603 51 196617 zl ecils 1;#P hidden newex 747 647 64 196617 fromsymbol;#P hidden newex 747 626 40 196617 itoa;#P hidden number 841 509 35 9 0 0 0 3 0 0 0 221 221 221 222 222 222 0 0 0;#P hidden newex 747 581 87 196617 zl slice;#P hidden newex 670 647 64 196617 fromsymbol;#P hidden newex 670 626 40 196617 itoa;#P hidden number 719 509 35 9 0 0 0 3 0 0 0 221 221 221 222 222 222 0 0 0;#P hidden newex 670 580 42 196617 zl slice;#P hidden newex 593 647 64 196617 fromsymbol;#P hidden newex 593 626 40 196617 itoa;#P hidden newex 593 407 67 196617 t l l;#P hidden newex 593 365 124 196617 t s b;#P hidden number 625 509 35 9 0 0 0 3 0 0 0 221 221 221 222 222 222 0 0 0;#P hidden newex 650 480 86 196617 unpack 0 0 0;#P hidden message 707 434 70 196617 mode group 3;#P hidden newex 593 579 42 196617 zl slice;#P hidden newex 650 459 55 196617 zl group 3;#P hidden newex 650 429 51 196617 zl sub 46;#P hidden newex 593 386 40 196617 atoi;#P hidden newex 546 858 284 196617 variedit /pjlink.1/port /pjlink.1;#B color 5;#P hidden newex 546 839 53 196617 pvar port;#P window setfont "Sans Serif" 14.;#P comment 5 128 121 196622 PJ LINK OUTPUT;#P comment 19 156 19 196622 IP;#B frgb 255 255 255;#P window setfont "Sans Serif" 10.;#P comment 155 134 31 196618 port;#B frgb 255 255 255;#P window setfont "Sans Serif" 9.;#P window linecount 2;#P hidden message 625 107 116 196617 \; /tapemovie/build bang \;;#P window linecount 1;#P hidden newex 663 269 111 196617 r /enttec.1/connected;#B color 12;#P window setfont "Sans Serif" 14.;#N vpatcher 760 442 1148 797;#P window setfont "Sans Serif" 9.;#P window linecount 1;#P newex 116 213 71 196617 prepend set 1;#P outlet 116 290 15 0;#P newex 116 185 44 196617 receive;#P newex 116 162 62 196617 prepend set;#P newex 277 267 62 196617 prepend set;#P newex 277 243 64 196617 fromsymbol;#P newex 236 200 51 196617 zl slice 3;#P newex 277 221 40 196617 itoa;#P newex 236 178 40 196617 atoi;#P window setfont "Sans Serif" 10.;#P newex 45 81 73 196618 prepend send;#P window setfont "Sans Serif" 9.;#P newex 45 107 47 196617 forward;#P window setfont "Sans Serif" 10.;#P newex 144 58 84 196618 sprintf /ch%ld;#P window setfont "Sans Serif" 9.;#P window linecount 2;#P newex 144 129 102 196617 vari /mapper.1/source;#P inlet 144 32 15 0;#P inlet 27 32 15 0;#P outlet 277 290 15 0;#P fasten 4 0 6 0 149 77 50 77;#P connect 3 1 6 0;#P fasten 6 0 5 0 50 103 50 103;#P fasten 1 0 5 0 32 102 50 102;#P fasten 4 0 12 0 149 119 121 119;#P connect 12 0 13 0;#P connect 13 0 15 0;#P connect 15 0 14 0;#P connect 2 0 4 0;#P fasten 4 0 3 0 149 103 149 103;#P connect 3 1 7 0;#P connect 7 0 9 0;#P connect 9 1 8 0;#P connect 8 0 10 0;#P connect 10 0 11 0;#P connect 11 0 0 0;#P pop;#P hidden newobj 270 382 109 196622 p dmx-channel;#B color 6;#P window setfont "Sans Serif" 9.;#P hidden newex 442 304 88 196617 bgcolor 50 50 50;#P window setfont "Sans Serif" 10.;#P hidden newex 543 60 51 196618 loadbang;#P window setfont "Sans Serif" 9.;#P hidden message 543 86 76 196617 enableitem 0 0;#P window setfont "Sans Serif" 10.;#P hidden newex 468 84 66 196618 prepend set;#P hidden newex 553 141 31 196618 t 0 l;#P window setfont "Sans Serif" 9.;#P hidden newex 470 115 93 196617 pvar configmenu 2;#B color 14;#P hidden newex 451 150 89 196617 pvar ininitmenu 2;#B color 14;#P hidden newex 530 235 72 196617 pvar redpanel;#B color 14;#P window setfont "Sans Serif" 14.;#N vpatcher 744 262 949 447;#P window setfont "Sans Serif" 9.;#P message 50 96 75 196617 brgb 80 80 80;#P message 67 75 81 196617 brgb 180 30 30;#P window setfont "Sans Serif" 10.;#P newex 50 50 44 196618 sel 0 1;#P inlet 50 30 15 0;#P outlet 50 116 15 0;#P connect 1 0 2 0;#P connect 2 0 4 0;#P connect 4 0 0 0;#P connect 3 0 0 0;#P connect 2 1 3 0;#P pop;#P hidden newobj 530 205 85 196622 p redpanel;#B color 6;#P window setfont "Sans Serif" 9.;#P comment 6 40 134 196617 copyleft : Renaud Rubiano;#B frgb 255 255 255;#P window setfont Times 9.;#N vpatcher 254 68 476 301;#N comlet to thispatcher;#P outlet 31 190 15 0;#N comlet from toggle;#P inlet 16 106 15 0;#N comlet to toggle;#P outlet 16 72 15 0;#P window setfont Times 9.;#P newex 16 52 18 1310729 t 1;#P newex 16 31 43 1310729 loadbang;#P newex 16 124 40 1310729 sel 1 0;#P window setfont "Sans Serif" 9.;#P message 31 146 158 196617 window flags close \, window exec;#P message 16 164 168 196617 window flags noclose \, window exec;#P connect 3 0 4 0;#P connect 4 0 5 0;#P connect 6 0 2 0;#P connect 2 0 0 0;#P connect 2 1 1 0;#P connect 0 0 7 0;#P connect 1 0 7 0;#P pop;#P hidden newobj 406 210 50 1310729 p closebox;#B color 6;#P hidden toggle 216 23 15 0;#P objectname closebox;#P window setfont "Sans Serif" 10.;#P hidden newex 446 264 202 196618 editorwindow /instruments /tapemovie;#B color 6;#N thispatcher;#Q end;#P hidden newobj 446 240 66 196618 thispatcher;#P window setfont "Sans Serif" 9.;#P comment 6 52 225 196617 software based on tapemovie - didascalie.net;#B frgb 0 147 203;#P window setfont Helvetica 14.;#N vpatcher 648 262 1053 748;#P origin 175 0;#P window setfont "Sans Serif" 9.;#P window linecount 2;#P newex 67 84 222 196617 sel init edit-config write-config edit-shortcuts write-shortcuts;#P window setfont "Sans Serif" 24.;#P window linecount 1;#P comment 173 192 197 196632 project manager;#B frgb 0 124 206;#P window setfont "Sans Serif" 9.;#P window linecount 2;#P message 25 256 214 196617 \; /tapemovie/chooseprojectwindow/open bang;#P outlet 195 164 15 0;#P inlet 67 62 15 0;#P button 25 382 15 0;#P window linecount 1;#P message 25 355 37 196617 config;#P bpatcher 25 411 330 22 0 0 tm_configeditormenu.mxt 1;#P newex 163 45 163 196617 editorwindow /engine /tapemovie;#B color 6;#N thispatcher;#Q end;#P newobj 163 65 61 196617 thispatcher;#P user led 195 142 17 17 0 150;#P button 25 89 15 0;#P toggle 298 123 15 0;#P newex 25 40 48 196617 loadbang;#N vpatcher 480 57 1437 335;#P button 490 30 15 0;#P window setfont "Sans Serif" 9.;#P window linecount 1;#P newex 43 58 34 196617 b 2;#P message 68 124 22 196617 set;#P inlet 796 34 15 0;#P outlet 796 218 15 0;#P outlet 301 217 15 0;#P outlet 181 216 15 0;#P newex 796 150 123 196617 var /tapemovie/verbose;#P newex 301 150 120 196617 r /tapemovie/init/state;#P newex 181 150 110 196617 r /tapemovie/building;#P outlet 43 215 15 0;#P newex 43 185 62 196617 prepend set;#P newex 43 150 132 196617 r /tapemovie/projectname;#P inlet 598 34 15 0;#P inlet 460 34 15 0;#P inlet 341 34 15 0;#P inlet 251 34 15 0;#P inlet 142 34 15 0;#P inlet 43 34 15 0;#P newex 638 90 149 196617 s /tapemovie/shortcuts/reset;#P newex 598 63 50 196617 t write b;#P newex 460 63 37 196617 t open;#P newex 460 90 170 196617 s /tapemovie/tm_shortcuts/editor;#P newex 341 90 88 196617 s tm_init2/write;#P newex 251 90 83 196617 s tm_init2/open;#P newex 142 90 97 196617 s /tapemovie/build;#P window linecount 0;#P newex 43 90 95 196617 s /tapemovie/path;#P connect 8 0 25 0;#P connect 25 0 0 0;#P connect 14 0 15 0;#P connect 24 0 16 0;#P connect 15 0 16 0;#P connect 25 1 24 0;#P connect 9 0 1 0;#P connect 17 0 20 0;#P connect 10 0 2 0;#P connect 18 0 21 0;#P connect 11 0 3 0;#P connect 12 0 5 0;#P connect 26 0 5 0;#P connect 5 0 4 0;#P connect 6 0 4 0;#P connect 13 0 6 0;#P connect 6 1 7 0;#P connect 23 0 19 0;#P connect 19 0 22 0;#P pop;#P newobj 25 121 266 196617 p tapemovie.control;#P comment 316 125 46 196617 verbose;#P user textedit 25 229 296 252 32897 3 9 /projects/dmx-pjlink;#P newex 220 141 85 196617 tapemovie.model;#B color 6;#P window setfont "Sans Serif" 24.;#P comment 177 350 188 196632 config manager;#B frgb 0 124 206;#P user panel 16 343 358 106;#X brgb 255 255 255;#X frgb 0 0 0;#X border 1;#X rounded 0;#X shadow 0;#X done;#P user panel 16 185 358 106;#X brgb 255 255 255;#X frgb 0 0 0;#X border 1;#X rounded 0;#X shadow 0;#X done;#P connect 7 0 9 0;#P connect 9 0 6 0;#P connect 6 0 4 0;#P connect 7 0 14 0;#P connect 14 0 15 0;#P connect 15 0 13 0;#P connect 16 0 20 0;#P connect 20 0 6 1;#P connect 20 1 6 2;#P connect 20 2 6 3;#P fasten 11 0 12 0 168 85 159 85 159 42 168 42;#P connect 12 0 11 0;#P connect 20 3 6 4;#P connect 6 2 10 0;#P fasten 6 1 10 0 115 141 200 141;#P connect 10 0 17 0;#P connect 20 4 6 5;#P connect 8 0 6 6;#P connect 6 3 8 0;#P pop;#P hidden newobj 530 175 84 1376270 p engine;#B color 6;#P window setfont "Sans Serif" 10.;#P window linecount 2;#P hidden message 387 378 124 196618 \; /events.1/name config \;;#P window setfont "Sans Serif" 14.;#P number 44 99 46 14 0 512 103 3 0 0 0 255 255 255 222 222 222 50 50 50;#P objectname dmx-channel;#P window linecount 1;#P comment 4 69 84 196622 DMX INPUT;#P window setfont "Sans Serif" 10.;#P comment 1 99 47 196618 channel;#B frgb 255 255 255;#P window setfont "Sans Serif" 24.;#P comment 9 9 128 196632 PJ Link All;#B frgb 255 255 255;#P user panel 1 6 236 60;#X brgb 80 80 80;#X frgb 255 255 255;#X border 1;#X rounded 14;#X shadow 0;#X done;#P objectname redpanel;#P window setfont "Sans Serif" 12.;#P comment 71 214 91 196620 record config;#B frgb 255 42 47;#P user ubutton 59 211 117 25 0 0;#P objectname record;#P user panel 59 211 117 24;#X brgb 214 214 214;#X frgb 255 255 255;#X border 1;#X rounded 14;#X shadow 0;#X done;#P objectname redpanel[1];#P window setfont "Sans Serif" 10.;#P comment 144 75 72 196618 DMXUSBPRO;#B frgb 255 255 255;#P user led 215 74 17 17 1 150;#P objectname enttec-connected;#P user ubutton 212 72 23 20 0 0;#P objectname ubutt;#P user led 214 182 17 17 2 150;#P objectname shutter;#P user ubutton 211 180 23 20 0 0;#P objectname ubutt[1];#P user panel 1 65 236 60;#X brgb 80 80 80;#X frgb 255 255 255;#X border 1;#X rounded 14;#X shadow 0;#X done;#P objectname redpanel[2];#P user panel 2 124 236 79;#X brgb 80 80 80;#X frgb 255 255 255;#X border 1;#X rounded 14;#X shadow 0;#X done;#P objectname redpanel[3];#P user panel 2 202 236 42;#X brgb 80 80 80;#X frgb 255 255 255;#X border 1;#X rounded 14;#X shadow 0;#X done;#P objectname redpanel[4];#P hidden connect 100 0 33 0;#P hidden connect 33 0 100 0;#P hidden connect 99 0 33 1;#P hidden connect 33 1 99 0;#P hidden connect 101 0 16 0;#P hidden fasten 22 0 103 0 411 235 395 235 395 185 411 185;#P hidden connect 103 0 22 0;#P hidden fasten 20 0 19 0 451 286 440 286 440 236 451 236;#P hidden connect 22 1 19 0;#P hidden fasten 19 0 20 0 451 262 451 262;#P hidden connect 28 0 29 0;#P hidden connect 30 0 27 0;#P hidden connect 29 0 27 0;#P hidden connect 28 1 17 0;#P hidden connect 26 1 17 0;#P hidden connect 17 0 24 0;#P hidden connect 24 0 25 0;#P hidden connect 31 0 30 0;#P hidden connect 72 0 69 0;#P hidden connect 71 0 69 0;#P connect 69 0 70 0;#P connect 70 0 79 0;#P fasten 40 0 39 0 551 877 543 877 543 837 551 837;#P connect 39 0 40 0;#P hidden connect 27 1 28 0;#P hidden connect 80 0 48 0;#P hidden connect 48 0 41 0;#P hidden connect 41 0 49 0;#P hidden connect 49 0 44 0;#P hidden connect 44 0 60 0;#P hidden connect 60 0 50 0;#P hidden connect 50 0 51 0;#P hidden connect 51 0 72 0;#P hidden connect 72 0 71 0;#P hidden fasten 89 0 88 0 625 853 617 853 617 813 625 813;#P hidden connect 88 0 89 0;#P hidden connect 73 0 69 1;#P hidden connect 76 0 69 1;#P hidden connect 69 1 70 1;#P hidden connect 31 0 35 0;#P hidden connect 46 0 47 0;#P hidden connect 47 0 44 1;#P hidden connect 49 1 42 0;#P hidden connect 45 0 43 0;#P hidden connect 42 0 43 0;#P hidden connect 43 0 46 0;#P hidden connect 71 1 81 0;#P hidden connect 34 0 104 0;#P hidden connect 44 1 52 0;#P hidden connect 52 0 67 0;#P hidden connect 67 0 54 0;#P hidden connect 54 0 55 0;#P hidden connect 55 0 73 0;#P hidden connect 73 0 76 0;#P hidden connect 81 0 76 0;#P hidden connect 74 0 69 2;#P hidden connect 77 0 69 2;#P hidden connect 69 2 70 2;#P hidden connect 47 0 61 0;#P hidden connect 61 0 62 0;#P hidden connect 62 0 52 1;#P hidden connect 48 1 45 0;#P hidden connect 46 1 53 0;#P hidden connect 53 0 61 1;#P hidden connect 76 1 82 0;#P hidden connect 52 1 56 0;#P hidden connect 56 0 68 0;#P hidden connect 68 0 58 0;#P hidden connect 58 0 59 0;#P hidden connect 59 0 74 0;#P hidden connect 74 0 77 0;#P hidden connect 82 0 77 0;#P hidden connect 75 0 69 3;#P hidden connect 78 0 69 3;#P hidden connect 69 3 70 3;#P hidden connect 77 1 83 0;#P hidden connect 53 0 63 0;#P hidden connect 63 0 64 0;#P hidden connect 64 0 56 1;#P hidden connect 56 1 65 0;#P hidden connect 65 0 66 0;#P hidden connect 66 0 75 0;#P hidden connect 75 0 78 0;#P hidden connect 83 0 78 0;#P hidden connect 46 2 57 0;#P hidden connect 57 0 63 1;#P hidden connect 78 1 84 0;#P hidden connect 84 0 85 0;#P hidden connect 85 1 87 0;#P hidden connect 87 0 86 0;#P pop;