max v2;#N vpatcher 102 148 1002 707;#P window setfont "Sans Serif" 12.;#P window linecount 1;#P newex 354 39 237 196620 t_posxytoazdist $1;#B color 6;#P window setfont Times 9.;#P newex 714 185 53 1310729 r $1/height;#B color 11;#P window setfont "Sans Serif" 9.;#P newex 21 36 276 196617 makeparam $1/crcfrq $1 f 0 0 0 2;#B color 13;#P newex 550 105 294 196617 makeparam $1/grain $1 i $2 5 500;#B color 13;#P newex 206 86 316 196617 makeparam $1/out $1 f -127 -127 18 1 $2;#B color 13;#P window setfont Times 9.;#P newex 206 107 95 1310729 expr pow(10\\\,($f1/20));#P window setfont "Sans Serif" 9.;#P newex 169 130 298 196617 makeparam $1/pres $1 f 1 0 1 1 $2;#B color 13;#P newex 132 152 307 196617 makeparam $1/center $1 f 0 0 1 1 $2;#B color 13;#P newex 58 200 310 196617 makeparam $1/dist $1 f 1 -1.42 1.42 1 $2;#B color 13;#P newex 21 223 287 196617 makeparam $1/az $1 f 0 0 0 1 $2;#B color 13;#P window linecount 2;#P comment 522 485 107 196617 patch by Tom Mays contact@tommays.net;#P window setfont Times 9.;#P message 70 410 191 1310729 \; $1/azrand 1 0 360 1000 3000 50 100;#P toggle 52 385 15 0;#P window setfont "Sans Serif" 9.;#P window linecount 1;#P newex 70 385 138 196617 t_spat-azrand $1;#B color 6;#P window setfont Times 9.;#P window linecount 2;#P message 70 440 97 1310729 \; $1/azrand 0;#P window setfont Times 24.;#P window linecount 1;#P comment 524 363 123 1310744 mspat41ctlr;#N comlet transition time in ms;#P outlet 337 335 15 0;#N comlet rev;#P outlet 121 335 15 0;#P window setfont "Sans Serif" 9.;#P comment 121 350 24 196617 rev;#N comlet C;#P outlet 101 335 15 0;#N comlet BR;#P outlet 81 335 15 0;#N comlet BL;#P outlet 61 335 15 0;#N comlet FR;#P outlet 41 335 15 0;#N comlet FL;#P outlet 21 335 15 0;#P comment 101 350 14 196617 C;#P comment 81 350 18 196617 BR;#P comment 60 350 18 196617 BL;#P comment 39 350 18 196617 FR;#P comment 18 350 18 196617 FL;#P window setfont Times 9.;#P flonum 132 245 35 9 0 0 0 20 0 0 0 221 221 221 222 222 222 0 0 0;#P flonum 206 245 35 9 0 0 0 20 0 0 0 221 221 221 222 222 222 0 0 0;#P newex 591 128 23 1310729 t 50;#P newex 591 149 127 1310729 s $1/grain;#B color 11;#P newex 550 126 32 1310729 sel 0;#P number 337 317 38 9 0 0 0 20 0 0 0 221 221 221 222 222 222 0 0 0;#P window linecount 2;#P comment 356 333 45 1310729 transition time in ms;#P flonum 58 245 35 9 0 0 0 20 0 0 0 221 221 221 222 222 222 0 0 0;#P flonum 21 245 35 9 0 0 0 20 0 0 0 221 221 221 222 222 222 0 0 0;#P flonum 169 245 35 9 0 0 0 20 0 0 0 221 221 221 222 222 222 0 0 0;#P number 550 149 30 9 0 0 0 20 0 0 0 221 221 221 222 222 222 0 0 0;#P window linecount 1;#P newex 21 301 111 1310729 t_mspat41ctl 0 $3;#B color 5;#P window setfont Times 12.;#P newex 21 61 183 1310732 poly~ t_spatrot_ 1 args $1;#B color 5;#P window setfont Times 9.;#P window linecount 9;#P message 511 236 139 1310729 \; $1/az/init bang \; $1/dist/init bang \; $1/crcfrq/init bang \; $1/center/init bang \; $1/pres/init bang \; $1/out/init bang \; $1/grain/init bang \; $1/azrand 0 \;;#P window linecount 1;#P newex 511 205 136 1310729 r $1/spat/init;#B color 11;#P window linecount 3;#P comment 444 413 287 1310729 arg 1 : module name (ie. pan1) \; arg 2 : min grain time (ex. 50) \; arg 3 : azimuth offset in degrees (default = 0 \, which places 0 deg in front) \;;#P window setfont "Sans Serif" 9.;#P window linecount 1;#P comment 444 460 248 196617 mpan4 ctl with receives \, to connect to local matrix~;#P window setfont Times 9.;#P comment 302 108 63 1310729 dB output level;#P connect 44 0 5 0;#P connect 5 0 37 0;#P connect 37 0 9 0;#P connect 9 0 6 0;#P connect 6 0 23 0;#P connect 6 1 24 0;#P connect 10 0 6 1;#P connect 33 0 34 0;#P connect 38 0 10 0;#P connect 6 2 25 0;#P connect 17 0 6 2;#P connect 6 3 26 0;#P connect 8 0 6 3;#P connect 6 4 27 0;#P connect 16 0 6 4;#P connect 6 5 29 0;#P connect 39 0 17 0;#P connect 40 0 8 0;#P connect 42 0 41 0;#P connect 41 0 16 0;#P connect 7 0 37 1;#P lcolor 1;#P connect 37 1 12 0;#P connect 38 1 12 0;#P connect 42 1 12 0;#P connect 39 1 12 0;#P connect 40 1 12 0;#P connect 12 0 30 0;#P connect 7 0 38 1;#P lcolor 1;#P connect 7 0 39 1;#P lcolor 1;#P connect 7 0 40 1;#P lcolor 1;#P connect 3 0 4 0;#P connect 7 0 42 1;#P lcolor 1;#P connect 43 0 13 0;#P connect 13 1 7 0;#P connect 13 0 15 0;#P connect 15 0 14 0;#P pop;