max v2;#N vpatcher 319 71 933 433;#P origin 0 -4;#P window setfont "Sans Serif" 9.;#P window linecount 2;#P comment 436 228 107 196617 patch by Tom Mays contact@tommays.net;#P window setfont Times 24.;#P window linecount 1;#P comment 416 134 127 1310744 mspat41ctl;#P window setfont Times 9.;#N vpatcher 577 60 1019 278;#P window setfont "Sans Serif" 9.;#P window linecount 1;#P message 189 67 42 196617 set 0 1;#P window setfont Times 9.;#P newex 169 40 45 1310729 loadbang;#P window setfont "Sans Serif" 9.;#P message 145 67 42 196617 set 1 1;#P window setfont Times 9.;#P window linecount 0;#P newex 347 62 16 1310729 t f;#P inlet 347 43 15 0;#P outlet 82 162 15 0;#P newex 82 105 45 1310729 bondo 2 1;#P inlet 82 43 15 0;#P newex 82 130 45 1310729 * 1.;#P outlet 32 162 15 0;#P newex 32 105 45 1310729 bondo 2 1;#P inlet 32 43 15 0;#P newex 32 130 45 1310729 * 1.;#P connect 1 0 2 0;#P connect 10 0 2 0;#P connect 2 0 0 0;#P connect 0 0 3 0;#P connect 9 0 2 1;#P connect 2 1 0 1;#P connect 5 0 6 0;#P connect 12 0 6 0;#P connect 6 0 4 0;#P connect 4 0 7 0;#P connect 9 0 6 1;#P connect 6 1 4 1;#P connect 11 0 10 0;#P connect 11 0 12 0;#P connect 8 0 9 0;#P pop;#P newobj 180 85 62 1310729 p vol2;#B color 6;#N comlet rev;#P outlet 341 313 15 0;#P window setfont "Sans Serif" 9.;#P comment 357 289 24 196617 rev;#P window setfont Times 9.;#P flonum 341 275 50 9 0 0 0 20 0 0 0 221 221 221 222 222 222 0 0 0;#N comlet C;#P outlet 276 313 15 0;#N comlet BR;#P outlet 211 313 15 0;#N comlet BL;#P outlet 146 313 15 0;#N comlet FR;#P outlet 81 313 15 0;#P window setfont "Sans Serif" 9.;#P comment 373 183 213 196617 arg 1 : azimuth ofset in degrees (default = 0);#P window setfont Times 9.;#P comment 356 21 85 1310729 output vol (0. to 1.);#N comlet output vol (0. to 1.);#P inlet 340 21 15 0;#P flonum 340 40 38 9 0. 0 1 20 0 0 0 221 221 221 222 222 222 0 0 0;#N vpatcher 46 302 647 531;#P outlet 482 187 15 0;#P window setfont Times 9.;#P window linecount 1;#P newex 482 130 45 1310729 bondo 2 1;#P inlet 482 43 15 0;#P newex 482 155 45 1310729 * 0.;#P outlet 432 187 15 0;#P newex 432 130 45 1310729 bondo 2 1;#P inlet 432 43 15 0;#P newex 432 155 45 1310729 * 0.;#P window linecount 0;#P newex 517 56 16 1310729 t f;#N comlet ctl;#P inlet 517 31 15 0;#P outlet 182 187 15 0;#P newex 182 130 45 1310729 bondo 2 1;#P inlet 182 43 15 0;#P newex 182 155 45 1310729 * 0.;#P outlet 132 187 15 0;#P newex 132 130 45 1310729 bondo 2 1;#P inlet 132 43 15 0;#P newex 132 155 45 1310729 * 0.;#P outlet 82 187 15 0;#P newex 82 130 45 1310729 bondo 2 1;#P inlet 82 43 15 0;#P newex 82 155 45 1310729 * 0.;#P outlet 32 187 15 0;#P newex 32 130 45 1310729 bondo 2 1;#P inlet 32 43 15 0;#P newex 32 155 45 1310729 * 0.;#P connect 1 0 2 0;#P connect 2 0 0 0;#P connect 0 0 3 0;#P connect 17 0 2 1;#P connect 2 1 0 1;#P connect 5 0 6 0;#P connect 6 0 4 0;#P connect 4 0 7 0;#P connect 17 0 6 1;#P connect 6 1 4 1;#P connect 9 0 10 0;#P connect 10 0 8 0;#P connect 8 0 11 0;#P connect 17 0 10 1;#P connect 10 1 8 1;#P connect 13 0 14 0;#P connect 14 0 12 0;#P connect 12 0 15 0;#P connect 17 0 14 1;#P connect 14 1 12 1;#P connect 19 0 20 0;#P connect 20 0 18 0;#P connect 18 0 21 0;#P connect 17 0 20 1;#P connect 20 1 18 1;#P connect 23 0 24 0;#P connect 24 0 22 0;#P connect 22 0 25 0;#P connect 16 0 17 0;#P connect 17 0 24 1;#P connect 24 1 22 1;#P pop;#P newobj 16 249 338 1310729 p level;#B color 6;#P comment 292 21 43 1310729 presence;#N comlet presence;#P inlet 276 21 15 0;#P flonum 276 40 35 9 0. 1. 3 20 0 0 0 221 221 221 222 222 222 0 0 0;#P newex 276 61 51 1310729 t_presence;#B color 6;#N comlet FL;#P outlet 16 313 15 0;#P window setfont "Sans Serif" 9.;#P comment 292 289 14 196617 C;#P window setfont Times 9.;#P flonum 276 275 50 9 0 0 0 20 0 0 0 221 221 221 222 222 222 0 0 0;#P flonum 180 106 50 9 0 0 0 20 0 0 0 221 221 221 222 222 222 0 0 0;#P comment 196 21 67 1310729 center (0. to 1.);#N comlet center;#P inlet 180 21 15 0;#P flonum 180 40 35 9 0. 1. 3 20 0 0 0 221 221 221 222 222 222 0 0 0;#P newex 180 63 40 1310729 t_xto2c;#B color 6;#N vpatcher 41 54 483 272;#P window setfont Times 9.;#P window linecount 1;#P newex 241 35 45 1310729 loadbang;#P window setfont "Sans Serif" 9.;#P message 241 57 42 196617 set 0 1;#P window setfont Times 9.;#P window linecount 0;#P newex 347 62 16 1310729 t f;#P inlet 347 43 15 0;#P outlet 182 162 15 0;#P newex 182 105 45 1310729 bondo 2 1;#P inlet 182 43 15 0;#P newex 182 130 45 1310729 * 1.;#P outlet 132 162 15 0;#P newex 132 105 45 1310729 bondo 2 1;#P inlet 132 43 15 0;#P newex 132 130 45 1310729 * 1.;#P outlet 82 162 15 0;#P newex 82 105 45 1310729 bondo 2 1;#P inlet 82 43 15 0;#P newex 82 130 45 1310729 * 1.;#P outlet 32 162 15 0;#P newex 32 105 45 1310729 bondo 2 1;#P inlet 32 43 15 0;#P newex 32 130 45 1310729 * 1.;#P connect 18 0 2 0;#P connect 1 0 2 0;#P connect 2 0 0 0;#P connect 0 0 3 0;#P connect 17 0 2 1;#P connect 2 1 0 1;#P connect 18 0 6 0;#P connect 5 0 6 0;#P connect 6 0 4 0;#P connect 4 0 7 0;#P connect 17 0 6 1;#P connect 6 1 4 1;#P connect 18 0 10 0;#P connect 9 0 10 0;#P connect 10 0 8 0;#P connect 8 0 11 0;#P connect 17 0 10 1;#P connect 10 1 8 1;#P connect 13 0 14 0;#P connect 18 0 14 0;#P connect 14 0 12 0;#P connect 12 0 15 0;#P connect 17 0 14 1;#P connect 14 1 12 1;#P connect 19 0 18 0;#P connect 16 0 17 0;#P pop;#P newobj 16 223 174 1310729 p vol (def-1);#B color 6;#P window setfont "Sans Serif" 9.;#P comment 227 289 18 196617 BR;#P comment 161 289 18 196617 BL;#P comment 95 289 18 196617 FR;#P comment 29 289 18 196617 FL;#P window setfont Times 9.;#P comment 31 21 16 1310729 az;#N comlet az;#P inlet 16 21 15 0;#P comment 157 21 22 1310729 dist;#N comlet dist;#P inlet 141 21 15 0;#P flonum 81 275 50 9 0 0 0 20 0 0 0 221 221 221 222 222 222 0 0 0;#P flonum 16 275 50 9 0 0 0 20 0 0 0 221 221 221 222 222 222 0 0 0;#P flonum 16 40 35 9 0 0 0 20 0 0 0 221 221 221 222 222 222 0 0 0;#P flonum 141 40 35 9 0 0 0 20 0 0 0 221 221 221 222 222 222 0 0 0;#P newex 16 64 135 1310729 t_azdisttoxy $1;#B color 6;#P newex 16 87 135 1310729 t_xyto4c;#B color 6;#P flonum 146 275 50 9 0 0 0 20 0 0 0 221 221 221 222 222 222 0 0 0;#P flonum 211 275 50 9 0 0 0 20 0 0 0 221 221 221 222 222 222 0 0 0;#P connect 10 0 5 0;#P connect 5 0 3 0;#P connect 3 0 2 0;#P connect 2 0 16 0;#P connect 16 0 29 0;#P connect 29 0 6 0;#P connect 6 0 24 0;#P connect 2 1 16 1;#P connect 16 1 29 1;#P connect 29 1 7 0;#P connect 7 0 34 0;#P connect 2 2 16 2;#P connect 16 2 29 2;#P connect 2 3 16 3;#P connect 8 0 4 0;#P connect 4 0 3 1;#P connect 3 1 2 1;#P connect 29 2 1 0;#P connect 1 0 35 0;#P connect 16 3 29 3;#P connect 19 0 18 0;#P connect 18 0 17 0;#P connect 17 0 41 0;#P connect 41 0 21 0;#P connect 21 0 16 4;#P connect 17 1 41 1;#P connect 29 3 0 0;#P connect 0 0 36 0;#P fasten 25 0 41 2 281 81 237 81;#P connect 41 1 29 4;#P connect 27 0 26 0;#P connect 26 0 25 0;#P connect 29 4 22 0;#P connect 22 0 37 0;#P fasten 25 1 29 5 322 234 291 234;#P connect 31 0 30 0;#P connect 30 0 29 6;#P connect 29 5 38 0;#P connect 38 0 40 0;#P pop;