max v2;#N vpatcher 479 98 1288 729;#P window setfont Times 9.;#P window linecount 1;#P comment 87 169 18 1310729 dB;#B frgb 0 0 200;#P comment 208 169 18 1310729 dB;#B frgb 0 0 200;#P comment 229 19 13 1310729 c;#B frgb 0 0 200;#P comment 108 19 13 1310729 c;#B frgb 0 0 200;#P comment 164 17 29 1310729 right;#B frgb 0 0 200;#P comment 45 17 21 1310729 left;#B frgb 0 0 200;#P comment 141 108 19 1310729 /az;#B frgb 0 0 200;#P user multiSlider 228 29 12 80 0. 1. 1 2681 47 0 0 2 0 0 0;#M frgb 0 0 0;#M brgb 255 255 255;#M rgb2 127 127 127;#M rgb3 0 0 0;#M rgb4 37 52 91;#M rgb5 74 105 182;#M rgb6 112 158 18;#M rgb7 149 211 110;#M rgb8 187 9 201;#M rgb9 224 62 37;#M rgb10 7 114 128;#P objectname centersliderR;#P comment 170 132 36 1310729 /center;#B frgb 0 0 200;#P flonum 170 143 28 9 0. 1. 35 20 0 0 0 221 221 221 222 222 222 0 0 0;#P objectname centerR;#P comment 199 108 34 1310729 /crcfrq;#B frgb 0 0 200;#P flonum 199 119 28 9 0 0 32 20 0 0 0 221 221 221 222 222 222 0 0 0;#P objectname crcfrqR;#P user pictslider 136 29 80 80 0 0 0 0 SliderDefaultKnob.pct 1 SliderDefaultBkgnd.pct 1 2163 0 3342286 -3276750 1. 1.;#P objectname azdistsliderR;#P comment 181 157 23 1310729 /out;#B frgb 0 0 200;#P flonum 181 168 28 9 -127. 18. 35 20 0 0 0 221 221 221 222 222 222 0 0 0;#P objectname outR;#P flonum 134 119 35 9 0 0 32 20 0 0 0 221 221 221 222 222 222 0 0 0;#P objectname azR;#P comment 150 157 29 1310729 /pres;#B frgb 0 0 200;#P flonum 150 168 28 9 0. 1. 35 20 0 0 0 221 221 221 222 222 222 0 0 0;#P objectname presR;#P comment 170 108 25 1310729 /dist;#B frgb 0 0 200;#P flonum 170 119 28 9 0. 1.42 35 20 0 0 0 221 221 221 222 222 222 0 0 0;#P objectname distR;#P newex 599 474 51 1310729 prepend set;#P newex 616 343 46 1310729 r $1/R/azc;#B color 11;#P newex 644 387 26 1310729 defer;#P newex 599 387 26 1310729 defer;#P newex 644 367 48 1310729 r $1/R/dist;#B color 11;#P newex 599 323 42 1310729 r $1/R/az;#B color 11;#P newex 599 454 100 1310729 pack;#P flonum 644 408 35 9 0 0 0 20 0 0 0 221 221 221 222 222 222 0 0 0;#P flonum 599 408 35 9 0 0 0 20 0 0 0 221 221 221 222 222 222 0 0 0;#N vpatcher 493 44 768 341;#P window setfont "Sans Serif" 9.;#P flonum 124 35 35 9 0 0 0 3 0 0 0 221 221 221 222 222 222 0 0 0;#P flonum 33 36 35 9 0 0 0 3 0 0 0 221 221 221 222 222 222 0 0 0;#P window setfont Times 9.;#P newex 19 55 104 1310729 bondo 2 1;#P number 113 222 35 9 0 0 0 20 0 0 0 221 221 221 222 222 222 0 0 0;#P number 19 222 35 9 0 0 0 20 0 0 0 221 221 221 222 222 222 0 0 0;#P comment 129 240 32 1310729 y (int);#N comlet y (int);#P outlet 113 240 15 0;#P comment 35 240 32 1310729 x (int);#N comlet x (int);#P outlet 19 240 15 0;#P newex 113 198 16 1310729 t i;#P newex 19 197 16 1310729 t i;#N comlet [distance float];#P inlet 113 16 15 0;#P comment 128 16 62 1310729 [distance float];#P window setfont "Fixedwidth Serif" 9.;#P newex 113 102 32 1441801 + 90.;#P window setfont Times 9.;#P newex 19 79 104 1310729 fswap 0.;#P window setfont "Sans Serif" 9.;#P newex 19 148 104 196617 poltocar;#B color 5;#P window setfont "Fixedwidth Serif" 9.;#P newex 113 125 128 1441801 expr ($f1/180)*3.1415927;#P window setfont Times 9.;#P newex 113 173 28 1310729 * 50.;#P newex 19 173 28 1310729 * 50.;#N comlet [az degrees float];#P inlet 19 16 15 0;#P comment 34 16 62 1310729 [degrees float];#P connect 1 0 18 0;#P connect 18 0 6 0;#P connect 6 0 5 0;#P connect 5 0 2 0;#P connect 2 0 10 0;#P connect 10 0 16 0;#P connect 16 0 12 0;#P connect 1 0 19 0;#P connect 9 0 18 1;#P connect 18 1 6 1;#P connect 6 1 7 0;#P connect 7 0 4 0;#P connect 4 0 5 1;#P connect 5 1 3 0;#P connect 3 0 11 0;#P connect 11 0 17 0;#P connect 17 0 14 0;#P connect 9 0 20 0;#P pop;#P newobj 599 431 100 1310729 p convert_poltocar;#B color 6;#P comment 662 344 78 1310729 from crcfrq module;#P newex 599 510 85 1310729 pvar azdistsliderR 2;#B color 14;#N vpatcher 345 168 607 528;#P window setfont Times 9.;#P flonum 16 285 43 9 0 0 0 20 0 0 0 221 221 221 222 222 222 0 0 0;#P window setfont "Sans Serif" 9.;#P newex 16 106 32 196617 * -1.;#P window setfont Times 9.;#P newex 16 161 45 1310729 fswap 0.;#P window setfont "Sans Serif" 9.;#P flonum 127 130 68 9 0 0 0 3 0 0 0 221 221 221 222 222 222 0 0 0;#P newex 127 85 32 196617 / 50.;#P flonum 16 130 68 9 0 0 0 3 0 0 0 221 221 221 222 222 222 0 0 0;#P newex 16 85 32 196617 / 50.;#N comlet dist;#P outlet 142 310 15 0;#P window setfont Times 9.;#P number 127 51 35 9 0 0 0 20 0 0 0 221 221 221 222 222 222 0 0 0;#P number 16 50 35 9 0 0 0 20 0 0 0 221 221 221 222 222 222 0 0 0;#N comlet az;#P outlet 16 312 15 0;#N comlet y (0-200);#P inlet 127 29 15 0;#N comlet x (0-200);#P inlet 16 29 15 0;#P window setfont "Fixedwidth Serif" 9.;#P newex 16 236 118 1441801 expr 180.*$f1/3.141593;#P window setfont Times 9.;#P newex 16 203 45 1310729 fswap 0.;#P flonum 142 290 43 9 0 0 0 20 0 0 0 221 221 221 222 222 222 0 0 0;#P newex 16 182 45 1310729 cartopol;#B color 5;#P connect 4 0 7 0;#P connect 7 0 10 0;#P connect 10 0 15 0;#P connect 15 0 11 0;#P connect 11 0 14 0;#P connect 14 0 0 0;#P connect 0 0 2 0;#P connect 2 0 3 0;#P connect 3 0 16 0;#P connect 16 0 6 0;#P connect 13 0 14 1;#P connect 14 1 0 1;#P connect 0 1 2 1;#P connect 5 0 8 0;#P connect 8 0 12 0;#P connect 12 0 13 0;#P fasten 2 1 1 0 56 227 147 227;#P connect 1 0 9 0;#P pop;#P newobj 599 546 86 1310729 p convert_cartopol;#B color 6;#P newex 675 570 49 1310729 s $1/R/dist;#B color 11;#P newex 599 570 43 1310729 s $1/R/az;#B color 11;#P newex 386 396 114 1310729 variedit $1/R/pres $1 f 0 1 1;#B color 6;#P newex 318 396 51 1310729 pvar presR;#B color 14;#P newex 386 346 125 1310729 variedit $1/R/dist $1 f 0 1.42 1;#B color 6;#P newex 386 323 106 1310729 variedit $1/R/az $1 i 0 0 1;#B color 6;#P newex 318 514 58 1310729 pvar centerR;#B color 14;#P newex 386 514 121 1310729 variedit $1/R/center $1 f 0 1 1;#B color 6;#P newex 496 535 79 1310729 pvar centersliderR;#P newex 318 372 56 1310729 pvar crcfrqR;#B color 14;#P newex 386 372 119 1310729 variedit $1/R/crcfrq $1 f 0 0 1;#B color 6;#P newex 318 346 49 1310729 pvar distR;#B color 14;#P newex 318 323 43 1310729 pvar azR;#B color 14;#P newex 318 420 47 1310729 pvar outR;#B color 14;#P newex 386 420 128 1310729 variedit $1/R/out $1 f -127 18 1;#B color 6;#P window setfont "Sans Serif" 9.;#P comment 144 223 117 196617 bpat bkgnd = 256 X 186;#P comment 144 242 119 196617 bpat editor = 258 X 188;#P window setfont Times 20.;#P comment 3 2 43 1310740 spat;#B frgb 0 0 200;#P window setfont Times 9.;#P newex 598 176 51 1310729 prepend set;#P newex 615 45 45 1310729 r $1/L/azc;#B color 11;#P newex 643 89 26 1310729 defer;#P newex 598 89 26 1310729 defer;#P newex 643 69 47 1310729 r $1/L/dist;#B color 11;#P newex 598 25 41 1310729 r $1/L/az;#B color 11;#P newex 598 156 100 1310729 pack;#P flonum 643 110 35 9 0 0 0 20 0 0 0 221 221 221 222 222 222 0 0 0;#P flonum 598 110 35 9 0 0 0 20 0 0 0 221 221 221 222 222 222 0 0 0;#N vpatcher 493 44 768 341;#P window setfont "Sans Serif" 9.;#P flonum 124 35 35 9 0 0 0 3 0 0 0 221 221 221 222 222 222 0 0 0;#P flonum 33 36 35 9 0 0 0 3 0 0 0 221 221 221 222 222 222 0 0 0;#P window setfont Times 9.;#P newex 19 55 104 1310729 bondo 2 1;#P number 113 222 35 9 0 0 0 20 0 0 0 221 221 221 222 222 222 0 0 0;#P number 19 222 35 9 0 0 0 20 0 0 0 221 221 221 222 222 222 0 0 0;#P comment 129 240 32 1310729 y (int);#N comlet y (int);#P outlet 113 240 15 0;#P comment 35 240 32 1310729 x (int);#N comlet x (int);#P outlet 19 240 15 0;#P newex 113 198 16 1310729 t i;#P newex 19 197 16 1310729 t i;#N comlet [distance float];#P inlet 113 16 15 0;#P comment 128 16 62 1310729 [distance float];#P window setfont "Fixedwidth Serif" 9.;#P newex 113 102 32 1441801 + 90.;#P window setfont Times 9.;#P newex 19 79 104 1310729 fswap 0.;#P window setfont "Sans Serif" 9.;#P newex 19 148 104 196617 poltocar;#B color 5;#P window setfont "Fixedwidth Serif" 9.;#P newex 113 125 128 1441801 expr ($f1/180)*3.1415927;#P window setfont Times 9.;#P newex 113 173 28 1310729 * 50.;#P newex 19 173 28 1310729 * 50.;#N comlet [az degrees float];#P inlet 19 16 15 0;#P comment 34 16 62 1310729 [degrees float];#P connect 1 0 18 0;#P connect 18 0 6 0;#P connect 6 0 5 0;#P connect 5 0 2 0;#P connect 2 0 10 0;#P connect 10 0 16 0;#P connect 16 0 12 0;#P connect 1 0 19 0;#P connect 9 0 18 1;#P connect 18 1 6 1;#P connect 6 1 7 0;#P connect 7 0 4 0;#P connect 4 0 5 1;#P connect 5 1 3 0;#P connect 3 0 11 0;#P connect 11 0 17 0;#P connect 17 0 14 0;#P connect 9 0 20 0;#P pop;#P newobj 598 133 100 1310729 p convert_poltocar;#B color 6;#P comment 660 46 78 1310729 from crcfrq module;#P newex 598 212 86 1310729 pvar azdistsliderL 2;#B color 14;#N vpatcher 345 168 607 528;#P window setfont Times 9.;#P flonum 16 285 43 9 0 0 0 20 0 0 0 221 221 221 222 222 222 0 0 0;#P window setfont "Sans Serif" 9.;#P newex 16 106 32 196617 * -1.;#P window setfont Times 9.;#P newex 16 161 45 1310729 fswap 0.;#P window setfont "Sans Serif" 9.;#P flonum 127 130 68 9 0 0 0 3 0 0 0 221 221 221 222 222 222 0 0 0;#P newex 127 85 32 196617 / 50.;#P flonum 16 130 68 9 0 0 0 3 0 0 0 221 221 221 222 222 222 0 0 0;#P newex 16 85 32 196617 / 50.;#N comlet dist;#P outlet 142 310 15 0;#P window setfont Times 9.;#P number 127 51 35 9 0 0 0 20 0 0 0 221 221 221 222 222 222 0 0 0;#P number 16 50 35 9 0 0 0 20 0 0 0 221 221 221 222 222 222 0 0 0;#N comlet az;#P outlet 16 312 15 0;#N comlet y (0-200);#P inlet 127 29 15 0;#N comlet x (0-200);#P inlet 16 29 15 0;#P window setfont "Fixedwidth Serif" 9.;#P newex 16 236 118 1441801 expr 180.*$f1/3.141593;#P window setfont Times 9.;#P newex 16 203 45 1310729 fswap 0.;#P flonum 142 290 43 9 0 0 0 20 0 0 0 221 221 221 222 222 222 0 0 0;#P newex 16 182 45 1310729 cartopol;#B color 5;#P connect 4 0 7 0;#P connect 7 0 10 0;#P connect 10 0 15 0;#P connect 15 0 11 0;#P connect 11 0 14 0;#P connect 14 0 0 0;#P connect 0 0 2 0;#P connect 2 0 3 0;#P connect 3 0 16 0;#P connect 16 0 6 0;#P connect 13 0 14 1;#P connect 14 1 0 1;#P connect 0 1 2 1;#P connect 5 0 8 0;#P connect 8 0 12 0;#P connect 12 0 13 0;#P fasten 2 1 1 0 56 227 147 227;#P connect 1 0 9 0;#P pop;#P newobj 598 248 86 1310729 p convert_cartopol;#B color 6;#P newex 674 272 48 1310729 s $1/L/dist;#B color 11;#P newex 598 272 42 1310729 s $1/L/az;#B color 11;#P newex 385 98 87 1310729 variedit $1/L/pres $1;#B color 6;#P newex 317 98 50 1310729 pvar presL;#B color 14;#P newex 385 48 85 1310729 variedit $1/L/dist $1;#B color 6;#P newex 385 25 79 1310729 variedit $1/L/az $1;#B color 6;#P newex 317 216 57 1310729 pvar centerL;#B color 14;#P newex 385 216 94 1310729 variedit $1/L/center $1;#B color 6;#P newex 469 236 78 1310729 pvar centersliderL;#P user multiSlider 107 29 12 80 0. 1. 1 2681 47 0 0 2 0 0 0;#M frgb 0 0 0;#M brgb 255 255 255;#M rgb2 127 127 127;#M rgb3 0 0 0;#M rgb4 37 52 91;#M rgb5 74 105 182;#M rgb6 112 158 18;#M rgb7 149 211 110;#M rgb8 187 9 201;#M rgb9 224 62 37;#M rgb10 7 114 128;#P objectname centersliderL;#P comment 49 132 36 1310729 /center;#B frgb 0 0 200;#P flonum 49 143 28 9 0. 1. 35 20 0 0 0 221 221 221 222 222 222 0 0 0;#P objectname centerL;#P newex 317 74 55 1310729 pvar crcfrqL;#B color 14;#P newex 385 74 92 1310729 variedit $1/L/crcfrq $1;#B color 6;#P comment 78 108 34 1310729 /crcfrq;#B frgb 0 0 200;#P flonum 78 119 28 9 0 0 32 20 0 0 0 221 221 221 222 222 222 0 0 0;#P objectname crcfrqL;#P user pictslider 15 29 80 80 0 0 0 0 SliderDefaultKnob.pct 1 SliderDefaultBkgnd.pct 1 2163 0 3342286 -3276750 1. 1.;#P objectname azdistsliderL;#P newex 317 48 48 1310729 pvar distL;#B color 14;#P newex 317 25 42 1310729 pvar azL;#B color 14;#P newex 317 122 46 1310729 pvar outL;#B color 14;#P newex 385 122 83 1310729 variedit $1/L/out $1;#B color 6;#P comment 60 157 23 1310729 /out;#B frgb 0 0 200;#P flonum 60 168 28 9 -127. 18. 35 20 0 0 0 221 221 221 222 222 222 0 0 0;#P objectname outL;#P flonum 13 119 35 9 0 0 32 20 0 0 0 221 221 221 222 222 222 0 0 0;#P objectname azL;#P comment 29 157 29 1310729 /pres;#B frgb 0 0 200;#P flonum 29 168 28 9 0. 1. 35 20 0 0 0 221 221 221 222 222 222 0 0 0;#P objectname presL;#P comment 49 108 25 1310729 /dist;#B frgb 0 0 200;#P flonum 49 119 28 9 0. 1.42 35 20 0 0 0 221 221 221 222 222 222 0 0 0;#P objectname distL;#P comment 20 108 19 1310729 /az;#B frgb 0 0 200;#P window setfont "Sans Serif" 9.;#N thispatcher;#Q end;#P newobj 0 229 61 196617 thispatcher;#P bpatcher 0 0 256 186 0 0 bkgnd3-.mxt 0 $1 1;#P objectname background;#P connect 25 0 12 0;#P connect 26 0 13 0;#P connect 17 0 18 0;#P connect 28 0 27 0;#P connect 10 0 11 0;#P connect 23 0 24 0;#P connect 56 0 49 0;#P connect 57 0 50 0;#P connect 51 0 52 0;#P connect 59 0 58 0;#P connect 47 0 48 0;#P connect 54 0 55 0;#P connect 12 0 25 0;#P connect 13 0 26 0;#P connect 18 0 17 0;#P connect 27 0 28 0;#P connect 11 0 10 0;#P connect 24 0 23 0;#P connect 22 0 23 0;#P connect 49 0 56 0;#P connect 50 0 57 0;#P connect 52 0 51 0;#P connect 58 0 59 0;#P connect 48 0 47 0;#P connect 53 0 54 0;#P connect 55 0 54 0;#P connect 23 2 22 0;#P connect 54 2 53 0;#P connect 42 0 40 0;#P connect 38 0 40 0;#P connect 40 0 35 0;#P connect 35 0 34 0;#P connect 34 0 37 0;#P connect 37 0 43 0;#P connect 43 0 32 0;#P connect 32 0 31 0;#P connect 31 0 29 0;#P connect 73 0 71 0;#P connect 69 0 71 0;#P connect 71 0 66 0;#P connect 66 0 65 0;#P connect 65 0 68 0;#P connect 68 0 74 0;#P connect 74 0 63 0;#P connect 63 0 62 0;#P connect 62 0 60 0;#P connect 39 0 41 0;#P connect 41 0 36 0;#P connect 70 0 72 0;#P connect 72 0 67 0;#P connect 32 1 31 1;#P connect 31 1 30 0;#P connect 63 1 62 1;#P connect 62 1 61 0;#P connect 36 0 34 1;#P connect 34 1 37 1;#P connect 67 0 65 1;#P connect 65 1 68 1;#P pop;