max v2;#N vpatcher 301 44 1410 853;#P origin 0 -16;#P window setfont "Sans Serif" 9.;#P window linecount 1;#P hidden message 525 248 33 196617 clear;#P hidden button 486 249 15 0;#P window linecount 2;#P message 912 616 117 196617 \; /movie/init/reset bang;#P message 912 675 117 196617 \; /movie/buildreset bang;#P message 912 645 136 196617 \; /tapemovie/buildreset bang;#P window setfont "Sans Serif" 20.;#P window linecount 1;#P comment 635 303 127 196628 Project Path;#B frgb 111 92 111;#P window setfont "Sans Serif" 9.;#P comment 626 340 119 196617 Path du projet;#B frgb 111 92 111;#P newex 494 334 135 196617 v /tapemovie/project/path;#B color 14;#P newex 494 357 62 196617 prepend set;#P window linecount 0;#P message 494 386 313 196617;#P button 494 315 15 0;#P window setfont "Sans Serif" 18.;#P window linecount 1;#P comment 890 369 200 196626 ACCES PAR MODULES;#B frgb 0 66 222;#P toggle 928 458 15 0;#P window setfont "Sans Serif" 9.;#P newex 928 479 129 196617 s /random.1/external/sw;#P toggle 927 400 15 0;#P newex 927 421 85 196617 s /random.1_sw;#P window setfont "Sans Serif" 18.;#P comment 66 646 425 196626 WHO IS HERE?;#B frgb 0 66 222;#P window setfont "Sans Serif" 9.;#P message 511 666 82 196617 refer attributes;#P user jit.cellblock 511 701 794 787 3 9 1 1 100 17 0 1 1 0 1 0 0 0 1 0 0 0 255 255 255 0 0 0 0 0 0 191 191 191 0 0 0 215 215 240 1 1 1 0 4 0 0 1;#X col 0 layout 100 0 0 0 0 1 241 242 241 -1 -1 -1;#X col 1 layout 182 0 0 0 0 1 241 242 241 -1 -1 -1;#P hidden newex 372 753 84 196617 t b s;#P hidden newex 372 777 134 196617 zl reg;#P hidden newex 372 800 84 196617 sprintf /%s/%s;#P window setfont "Sans Serif" 14.;#N vpatcher 30 89 790 741;#P window setfont "Sans Serif" 12.;#P window linecount 1;#P comment 565 410 80 196620 submodules;#P window setfont "Sans Serif" 9.;#P newex 510 484 31 196617 t b 0;#P newex 510 518 36 196617 zl reg;#P newex 510 539 173 196617 sprintf %s.%ld/%s;#P newex 510 342 62 196617 t s s s;#P newex 510 458 47 196617 zl iter 1;#P newex 510 433 72 196617 route symbol;#P button 471 89 15 0;#P button 515 89 15 0;#P newex 579 147 142 196617 sprintf refer %s_submodules;#N coll m_submodules;#P newobj 510 411 53 196617 coll;#B color 5;#P window setfont "Sans Serif" 10.;#P comment 515 202 52 196618 x_config;#P window setfont "Sans Serif" 9.;#P newex 102 567 29 196617 thru;#P newex 102 595 78 196617 prepend append;#P newex 502 115 27 196617 t t t;#P newex 458 115 36 196617 t m m;#P newex 458 66 98 196617 sel movie tape;#P window setfont "Sans Serif" 12.;#P window linecount 2;#P comment 564 262 87 196620 numérote les instances;#P window setfont "Sans Serif" 9.;#P window linecount 1;#P newex 458 147 118 196617 sprintf refer %s_config;#P newex 510 297 172 196617 t b i;#P newex 562 364 78 196617 sprintf %s.%ld;#P newex 510 319 51 196617 zl reg;#P newex 480 275 40 196617 uzi;#P newex 480 255 18 196617 t i;#P newex 458 235 32 196617 sel 0;#P newex 509 220 69 196617 route symbol;#P window setfont "Sans Serif" 10.;#P window linecount 2;#P comment 341 230 117 196618 verifie s'il le nombre d'instance n'est pas 0;#P window setfont "Sans Serif" 9.;#P window linecount 1;#P newex 458 169 46 196617 t dump l;#N coll m_config;#P newobj 458 195 53 196617 coll;#B color 5;#P newex 228 360 61 196617 t s 0;#P newex 109 362 31 196617 t s 1;#P newex 83 437 29 196617 gate;#P window setfont "Sans Serif" 12.;#P window linecount 2;#P comment 10 481 87 196620 numérote les instances;#P window setfont "Sans Serif" 9.;#P window linecount 1;#P newex 72 149 27 196617 t i b;#P newex 89 173 38 196617 zl reg;#P newex 50 127 32 196617 sel 0;#P newex 89 216 30 196617 t s s;#P newex 156 313 21 196617 t 1;#P newex 109 313 21 196617 t 2;#P newex 109 339 129 196617 gate 2;#P newex 109 292 57 196617 sel plugins;#P newex 109 270 51 196617 zl slice 1;#N coll tm_modules 1;#P newobj 109 248 92 196617 coll tm_modules 1;#B color 5;#P newex 102 409 78 196617 t b i;#P newex 102 486 78 196617 sprintf %s.%ld;#P newex 102 462 51 196617 zl reg;#P newex 72 386 40 196617 uzi;#P newex 100 94 69 196617 route symbol;#P newex 50 48 351 196617 t dump clear;#N coll tm_config 1;#P newobj 50 69 161 196617 coll tm_config 1;#B color 5;#P window setfont "Sans Serif" 12.;#P window linecount 3;#P comment 174 270 174 196620 les plugins ne peuvent avoir qu'une instance et ne sont donc pas numérotés;#P window setfont "Sans Serif" 10.;#P window linecount 2;#P comment 130 173 117 196618 verifie s'il le nombre d'instance n'est pas 0;#P inlet 50 28 15 0;#P outlet 102 617 15 0;#P connect 1 0 5 0;#P connect 5 0 4 0;#P connect 4 0 18 0;#P connect 18 1 20 0;#P connect 20 0 7 0;#P connect 23 1 22 0;#P connect 24 1 22 0;#P connect 20 1 19 0;#P connect 19 0 17 0;#P connect 4 1 6 0;#P connect 7 2 10 0;#P connect 10 0 22 1;#P connect 22 0 8 0;#P connect 8 0 9 0;#P connect 9 0 41 0;#P fasten 50 0 41 0 515 564 107 564;#P lcolor 2;#P connect 33 0 41 0;#P connect 41 0 40 0;#P connect 40 0 0 0;#P connect 5 1 0 0;#P connect 17 1 11 0;#P connect 11 0 12 0;#P connect 12 0 13 0;#P connect 13 0 15 0;#P fasten 16 0 14 0 161 334 114 334;#P connect 15 0 14 0;#P connect 14 0 23 0;#P connect 6 0 19 1;#P connect 23 0 8 1;#P connect 13 1 16 0;#P connect 10 1 9 1;#P fasten 17 0 14 1 94 240 233 240;#P lcolor 2;#P connect 14 1 24 0;#P connect 24 0 37 0;#P connect 46 0 38 0;#P connect 37 0 38 0;#P connect 38 0 35 0;#P connect 39 0 35 0;#P connect 35 0 26 0;#P fasten 26 1 25 0 499 192 463 192;#P fasten 26 0 25 0 463 192 463 192;#P connect 25 0 29 0;#P connect 29 1 30 0;#P connect 30 0 31 0;#P connect 45 0 39 0;#P connect 37 1 39 0;#P connect 25 1 28 0;#P connect 31 2 34 0;#P connect 34 0 32 0;#P connect 32 0 49 0;#P connect 44 0 43 0;#P connect 49 0 43 0;#P connect 43 0 47 0;#P connect 47 1 48 0;#P connect 47 0 48 0;#P connect 48 0 52 0;#P connect 52 0 51 0;#P connect 51 0 50 0;#P connect 49 1 51 1;#P connect 28 0 32 1;#P connect 49 2 33 0;#P connect 38 1 44 0;#P connect 39 1 44 0;#P connect 34 1 50 1;#P connect 34 1 33 1;#P fasten 48 0 50 2 515 480 623 480;#P pop;#P hidden newobj 23 672 137 196622 p get_all_modules;#B color 6;#P window setfont "Sans Serif" 18.;#P user ubumenu 299 702 156 196626 0 1 1 0;#X prefix_set 0 0 <none> 0;#P user ubumenu 23 702 258 196626 0 1 1 0;#X add;#X prefix_set 0 0 <none> 0;#P window setfont "Sans Serif" 12.;#N vpatcher 690 151 1262 673;#P origin 0 1;#P window setfont "Sans Serif" 9.;#P window linecount 0;#P newex 359 358 69 196617 route symbol;#N coll ;#T flags 1 0;#T store i integer;#T store f decimal;#T store l array;#T store m enum;#T store t boolean;#T store a anything;#T store n none;#T store b none;#T store s string;#P newobj 359 333 53 196617 coll;#N vpatcher 20 74 620 474;#P inlet 52 34 15 0;#P window setfont "Sans Serif" 9.;#P window linecount 0;#P newex 48 62 195 196617 t s s 1;#P window linecount 1;#P newex 178 232 38 196617 gate 2;#B color 12;#P newex 327 243 56 196617 unpack s s;#B color 12;#P newex 326 263 78 196617 sprintf %s/%s;#B color 12;#P window setfont "Sans Serif" 12.;#N vpatcher 20 74 215 396;#P window setfont "Sans Serif" 9.;#P window linecount 0;#P newex 85 228 66 196617 zl slice 1;#P newex 36 258 21 196617 t 2;#P newex 36 76 54 196617 t l zlclear;#P newex 36 237 39 196617 zl sub;#P newex 65 208 36 196617 zl reg;#P newex 36 105 66 196617 zl slice 1;#P newex 36 180 68 196617 t s b zlclear;#P window linecount 2;#P newex 36 35 119 196617 regexp (\\\\/) @substitute " ";#P window linecount 1;#P newex 36 129 81 196617 excludeinstance;#N coll m_submodules 1;#P newobj 36 156 103 196617 coll m_submodules 1;#B color 5;#P inlet 36 15 15 0;#P outlet 36 280 15 0;#P connect 1 0 4 0;#P connect 4 0 9 0;#P connect 9 0 6 0;#P connect 6 0 3 0;#P connect 3 0 2 0;#P connect 2 0 5 0;#P connect 5 2 8 0;#P connect 5 0 8 0;#P connect 8 0 10 0;#P connect 10 0 0 0;#P connect 9 1 7 0;#P connect 5 1 7 0;#P connect 7 0 8 1;#P connect 6 1 11 0;#P connect 11 0 7 1;#P pop;#P newobj 130 98 86 196620 p submodule?;#P window setfont "Sans Serif" 9.;#P newex 48 155 174 196617 zl slice 1;#P window linecount 2;#P newex 48 93 79 196617 regexp (\\\\/) @substitute " ";#P outlet 324 327 15 0;#P outlet 281 326 15 0;#P connect 9 0 8 0;#P connect 8 0 2 0;#P connect 2 0 3 0;#P connect 8 1 4 0;#P connect 8 2 7 0;#P connect 4 0 7 0;#P connect 3 0 7 1;#P connect 4 0 3 1;#P connect 8 2 3 1;#P connect 7 0 0 0;#P connect 5 0 1 0;#P connect 6 0 5 0;#P connect 7 1 6 0;#P connect 6 1 5 1;#P pop;#P newobj 292 85 120 196617 p;#P window linecount 1;#P comment 109 189 156 196617 IL FAUT TRIER LES SUBMODULES;#P window linecount 0;#P newex 15 285 354 196617 t l l l l l;#P newex 15 310 44 196617 zl nth 5;#P newex 187 310 44 196617 zl nth 4;#P newex 101 310 44 196617 zl nth 3;#P newex 273 310 44 196617 zl nth 2;#P newex 359 310 44 196617 zl nth 1;#P newex 15 44 293 196617 t s s clear;#P window linecount 1;#N coll attributes 1;#P newobj 15 478 83 196617 coll attributes 1;#P inlet 15 26 15 0;#P newex 433 163 120 196617 sprintf refer /%s/state;#N coll ;#P newobj 433 256 53 196617 coll;#B color 5;#N coll ;#P newobj 15 256 53 196617 coll;#B color 5;#P newex 298 163 132 196617 sprintf refer /%s/params;#P newex 433 308 69 196617 route symbol;#P newex 433 337 72 196617 prepend value;#P newex 15 448 72 196617 prepend store;#P newex 359 385 68 196617 prepend type;#P window linecount 2;#P newex 273 337 74 196617 prepend default_value;#P window linecount 1;#P newex 101 369 73 196617 prepend range;#P newex 101 337 83 196617 sprintf %ld-%ld;#P newex 15 337 85 196617 prepend dynamic;#P connect 12 0 14 0;#P connect 14 0 9 0;#P fasten 8 0 9 0 303 225 20 225;#P lcolor 8;#P connect 9 0 20 0;#P connect 20 0 19 0;#P connect 19 0 0 0;#P fasten 4 0 5 0 364 435 20 435;#P connect 0 0 5 0;#P fasten 2 0 5 0 106 422 20 422;#P fasten 3 0 5 0 278 428 20 428;#P fasten 6 0 5 0 438 440 20 440;#P connect 14 2 13 0;#P connect 5 0 13 0;#P connect 20 1 17 0;#P connect 17 0 1 0;#P connect 1 0 2 0;#P connect 18 0 1 1;#P connect 20 2 18 0;#P connect 20 3 16 0;#P connect 16 0 3 0;#P connect 14 1 22 0;#P connect 22 0 8 0;#P connect 22 1 8 0;#P connect 20 4 15 0;#P connect 15 0 23 0;#P connect 23 0 24 0;#P connect 24 1 4 0;#P connect 24 0 4 0;#P connect 22 1 11 0;#P connect 22 0 11 0;#P connect 11 0 10 0;#P fasten 14 0 10 0 20 242 438 242;#P lcolor 15;#P connect 10 0 7 0;#P connect 7 0 6 0;#P connect 7 1 6 0;#P pop;#P hidden newobj 372 823 132 196620 p get_all_attributes;#B color 6;#N vpatcher 906 165 1208 634;#P origin -36 0;#P window setfont "Sans Serif" 9.;#P newex 12 56 48 196617 t s clear;#P window linecount 1;#P newex 174 262 27 196617 + 2;#P window linecount 0;#P newex 92 253 40 196617 atoi;#P newex 92 292 92 196617 zl slice;#P newex 174 235 34 196617 zl len;#P newex 174 211 40 196617 atoi;#P newex 174 340 40 196617 itoa;#P newex 174 393 78 196617 prepend append;#P newex 92 151 69 196617 route symbol;#N coll /mapper.2/params;#P newobj 12 131 254 196617 coll;#B color 5;#P newex 12 108 52 196617 t dump l l;#P newex 12 86 130 196617 sprintf refer /%s/params;#P outlet 174 416 15 0;#P inlet 12 28 15 0;#P connect 0 0 13 0;#P connect 13 0 2 0;#P connect 2 0 3 0;#P connect 3 1 4 0;#P connect 3 0 4 0;#P connect 4 1 5 0;#P connect 5 0 11 0;#P connect 11 0 10 0;#P connect 13 0 8 0;#P connect 8 0 9 0;#P connect 9 0 12 0;#P connect 12 0 10 1;#P connect 10 1 7 0;#P connect 7 0 6 0;#P connect 6 0 1 0;#P connect 13 1 1 0;#P pop;#P hidden newobj 147 749 115 196620 p get_all_params;#B color 6;#P window setfont "Sans Serif" 9.;#P hidden newex 23 639 48 196617 loadbang;#P user panel 2 641 856 4;#X brgb 0 0 0;#X frgb 0 0 0;#X border 0;#X rounded 0;#X shadow 0;#X done;#P window setfont "Sans Serif" 14.;#N vpatcher 20 74 1234 264;#P origin 0 9;#P window setfont "Sans Serif" 9.;#P message 1049 130 71 196617;#P window linecount 1;#P newex 1049 88 62 196617 prepend set;#P newex 1049 61 139 196617 v /tapemovie/perf/preempt;#B color 14;#P window linecount 0;#P message 892 130 71 196617;#P newex 892 88 62 196617 prepend set;#P message 737 130 68 196617;#P newex 737 88 62 196617 prepend set;#P message 597 130 65 196617;#P newex 597 88 62 196617 prepend set;#P message 474 130 62 196617;#P newex 474 88 62 196617 prepend set;#P message 345 130 62 196617;#P newex 345 88 62 196617 prepend set;#P message 180 130 68 196617;#P newex 180 88 62 196617 prepend set;#P message 12 130 62 196617;#P newex 12 88 62 196617 prepend set;#P button 12 37 15 0;#P newex 892 61 155 196617 v /tapemovie/perf/refreshrate;#B color 14;#P newex 737 61 153 196617 v /tapemovie/perf/pollthrottle;#B color 14;#P newex 597 61 138 196617 v /tapemovie/perf/interval;#B color 14;#P newex 474 61 120 196617 v /tapemovie/perf/slop;#B color 14;#P newex 345 61 125 196617 v /tapemovie/perf/sleep;#B color 14;#P newex 180 61 162 196617 v /tapemovie/perf/queuethrottle;#B color 14;#P newex 12 61 163 196617 v /tapemovie/perf/eventinterval;#B color 14;#P inlet 22 108 15 0;#P inlet 12 17 15 0;#P connect 0 0 9 0;#P connect 9 0 2 0;#P connect 2 0 10 0;#P connect 1 0 11 0;#P connect 10 0 11 0;#P fasten 9 0 3 0 17 56 185 56;#P connect 3 0 12 0;#P fasten 1 0 13 0 27 126 185 126;#P connect 12 0 13 0;#P fasten 9 0 4 0 17 56 350 56;#P connect 4 0 14 0;#P fasten 1 0 15 0 27 126 350 126;#P connect 14 0 15 0;#P fasten 9 0 5 0 17 56 479 56;#P connect 5 0 16 0;#P fasten 1 0 17 0 27 126 479 126;#P connect 16 0 17 0;#P fasten 9 0 6 0 17 56 602 56;#P connect 6 0 18 0;#P fasten 1 0 19 0 27 126 602 126;#P connect 18 0 19 0;#P fasten 9 0 7 0 17 56 742 56;#P connect 7 0 20 0;#P fasten 1 0 21 0 27 126 742 126;#P connect 20 0 21 0;#P fasten 9 0 8 0 17 56 897 56;#P connect 8 0 22 0;#P fasten 1 0 23 0 27 126 897 126;#P connect 22 0 23 0;#P fasten 9 0 24 0 17 56 1054 56;#P connect 24 0 25 0;#P connect 25 0 26 0;#P fasten 1 0 26 0 27 126 1054 126;#P pop;#P newobj 553 101 177 196622 p performances options;#B color 6;#N vpatcher 15 287 1435 470;#P origin 0 9;#P window setfont "Sans Serif" 9.;#P message 1235 130 71 196617;#P window linecount 1;#P newex 1235 88 62 196617 prepend set;#P newex 1235 61 165 196617 v /tapemovie/user/perf/preempt;#B color 14;#P window linecount 0;#P message 1049 130 71 196617;#P newex 1049 88 62 196617 prepend set;#P message 868 130 68 196617;#P newex 868 88 62 196617 prepend set;#P message 700 130 65 196617;#P newex 700 88 62 196617 prepend set;#P message 550 130 62 196617;#P newex 550 88 62 196617 prepend set;#P message 396 130 62 196617;#P newex 396 88 62 196617 prepend set;#P message 205 130 68 196617;#P newex 205 88 62 196617 prepend set;#P message 12 130 62 196617;#P newex 12 88 62 196617 prepend set;#P button 12 37 15 0;#P newex 1049 61 181 196617 v /tapemovie/user/perf/refreshrate;#B color 14;#P newex 868 61 179 196617 v /tapemovie/user/perf/pollthrottle;#B color 14;#P newex 700 61 164 196617 v /tapemovie/user/perf/interval;#B color 14;#P newex 550 61 146 196617 v /tapemovie/user/perf/slop;#B color 14;#P newex 396 61 151 196617 v /tapemovie/user/perf/sleep;#B color 14;#P newex 205 61 188 196617 v /tapemovie/user/perf/queuethrottle;#B color 14;#P newex 12 61 189 196617 v /tapemovie/user/perf/eventinterval;#B color 14;#P inlet 22 108 15 0;#P inlet 12 17 15 0;#P connect 0 0 9 0;#P connect 9 0 2 0;#P connect 2 0 10 0;#P connect 1 0 11 0;#P connect 10 0 11 0;#P fasten 9 0 3 0 17 56 210 56;#P connect 3 0 12 0;#P fasten 1 0 13 0 27 126 210 126;#P connect 12 0 13 0;#P fasten 9 0 4 0 17 56 401 56;#P connect 4 0 14 0;#P fasten 1 0 15 0 27 126 401 126;#P connect 14 0 15 0;#P fasten 9 0 5 0 17 56 555 56;#P connect 5 0 16 0;#P fasten 1 0 17 0 27 126 555 126;#P connect 16 0 17 0;#P fasten 9 0 6 0 17 56 705 56;#P connect 6 0 18 0;#P fasten 1 0 19 0 27 126 705 126;#P connect 18 0 19 0;#P fasten 9 0 7 0 17 56 873 56;#P connect 7 0 20 0;#P fasten 1 0 21 0 27 126 873 126;#P connect 20 0 21 0;#P fasten 9 0 8 0 17 56 1054 56;#P connect 8 0 22 0;#P fasten 1 0 23 0 27 126 1054 126;#P connect 22 0 23 0;#P fasten 9 0 24 0 17 56 1240 56;#P connect 24 0 25 0;#P connect 25 0 26 0;#P fasten 1 0 26 0 27 126 1240 126;#P pop;#P newobj 17 568 177 196622 p performances options;#B color 6;#P user panel 878 46 6 759;#X brgb 0 0 0;#X frgb 0 0 0;#X border 0;#X rounded 0;#X shadow 0;#X done;#P user panel 2 531 856 4;#X brgb 0 0 0;#X frgb 0 0 0;#X border 0;#X rounded 0;#X shadow 0;#X done;#P window setfont "Sans Serif" 18.;#P comment 10 537 425 196626 INFORMATION RELATIVES A L'UTILISATEUR;#B frgb 0 66 222;#P toggle 759 153 15 0;#P toggle 759 116 15 0;#P toggle 759 78 15 0;#P button 734 40 15 0;#P window setfont "Sans Serif" 9.;#P newex 759 134 94 196617 v /movie/verbose;#B color 14;#P newex 759 97 86 196617 v /tape/verbose;#B color 14;#P newex 759 59 113 196617 v /tapemovie/verbose;#B color 14;#P window setfont "Sans Serif" 12.;#N vpatcher 10 59 643 526;#P pop;#P newobj 905 179 119 196620 p custom mapping;#B color 6;#N vpatcher 355 405 988 872;#P window setfont "Sans Serif" 9.;#P window linecount 1;#N coll $1/params;#P newobj 223 177 81 196617 coll $1/params;#P window linecount 0;#N coll $1/state;#P newobj 223 131 71 196617 coll $1/state;#P pop;#P newobj 905 123 98 196620 p value access;#B color 6;#P window setfont "Sans Serif" 20.;#P comment 414 303 37 196628 OS;#B frgb 111 92 111;#P window setfont "Sans Serif" 9.;#P comment 364 364 98 196617 windows \, macintosh;#B frgb 111 92 111;#P comment 79 460 98 196617 patch \, application;#B frgb 111 92 111;#P window setfont "Sans Serif" 20.;#P comment 78 406 97 196628 Runtime?;#B frgb 111 92 111;#P comment 129 304 157 196628 Project Version;#B frgb 111 92 111;#P comment 482 151 201 196628 default-project Path;#B frgb 111 92 111;#P comment 623 58 52 196628 Path;#B frgb 111 92 111;#P comment 274 155 160 196628 Version number;#B frgb 111 92 111;#P comment 116 155 67 196628 Name;#B frgb 111 92 111;#P comment 352 58 97 196628 Runtime?;#B frgb 111 92 111;#P comment 170 58 37 196628 OS;#B frgb 111 92 111;#P window setfont "Sans Serif" 18.;#P comment 10 280 425 196626 INFORMATION RELATIVES AU PROJET;#B frgb 0 66 222;#P window setfont "Sans Serif" 9.;#P window linecount 0;#P message 13 487 166 196617;#P window linecount 1;#P newex 13 458 62 196617 prepend set;#P button 13 416 15 0;#P newex 13 435 136 196617 v /tapemovie/project/type;#B color 14;#P window linecount 2;#P comment 537 201 203 196617 Path du default-project utilisé comme projet par défaut (copie vers un nouveau);#B frgb 111 92 111;#P window linecount 1;#P comment 476 40 119 196617 Path du patch tapemovie;#B frgb 111 92 111;#P comment 73 245 291 196617 On peux changer le nom de l'application sur un build;#B frgb 111 92 111;#P comment 257 61 98 196617 patch \, application;#B frgb 111 92 111;#P comment 29 61 98 196617 windows \, macintosh;#B frgb 111 92 111;#P window linecount 0;#P message 236 129 203 196617;#P window linecount 1;#P newex 236 104 62 196617 prepend set;#P button 236 61 15 0;#P newex 236 83 97 196617 v /tapemovie/type;#B color 14;#P window linecount 0;#P message 11 129 203 196617;#P window linecount 1;#P newex 11 104 62 196617 prepend set;#P button 11 61 15 0;#P newex 11 83 87 196617 v /tapemovie/os;#B color 14;#P window linecount 0;#P message 298 386 157 196617;#P window linecount 1;#P newex 298 360 62 196617 prepend set;#P button 298 313 15 0;#P newex 298 335 126 196617 v /tapemovie/project/os;#B color 14;#P window linecount 0;#P message 11 227 175 196617;#P window linecount 1;#P newex 11 204 62 196617 prepend set;#P button 11 159 15 0;#P newex 11 182 115 196617 v /tapemovie/appname;#B color 14;#P window setfont "Sans Serif" 12.;#N vpatcher 10 59 643 526;#P window setfont "Sans Serif" 18.;#P window linecount 3;#P comment 259 78 312 196626 <--- 2 :Envoyer le noeud à partir duquel on veut envoyer (scale envoie scale/x scale/y et scale/z);#P window setfont "Sans Serif" 9.;#P window linecount 1;#P newex 50 246 27 196617 t b l;#P newex 67 343 68 196617 prepend send;#P message 151 128 106 196617 /tllslo.1/plane/scale;#P message 141 105 97 196617 /tllslo.1/plane/rot;#P message 125 86 98 196617 /tllslo.1/plane/pos;#P window setfont "Sans Serif" 10.;#P newex 67 378 47 196618 forward;#B color 12;#P window setfont "Sans Serif" 9.;#P newex 50 319 51 196617 zl reg;#P newex 50 194 51 196617 zl slice 1;#P number 117 192 35 9 0 0 0 3 0 0 0 221 221 221 222 222 222 0 0 0;#P newex 50 220 77 196617 changeinstance;#B color 14;#P message 89 69 100 196617 /tllslo.1/crop/edge;#P message 50 50 100 196617 /tllslo.1/crop/crop;#P newex 50 162 44 196617 getnode;#B color 14;#P window setfont "Sans Serif" 18.;#P comment 157 187 365 196626 <--- 1 : Donner vers qui on veut envoyer;#P connect 2 0 1 0;#P connect 3 0 1 0;#P connect 9 0 1 0;#P connect 10 0 1 0;#P connect 11 0 1 0;#P connect 1 0 6 0;#P connect 6 0 4 0;#P connect 4 0 13 0;#P connect 13 0 7 0;#P connect 13 1 12 0;#P connect 7 0 8 0;#P connect 12 0 8 0;#P connect 6 1 7 1;#P connect 5 0 4 1;#P pop;#P newobj 905 275 106 196620 p swap instance;#B color 6;#P window setfont "Sans Serif" 9.;#P hidden message 453 245 22 196617 set;#P comment 631 180 224 196617 should be /tapemovie/info/defaultproject/path;#B color 14;#P comment 560 85 110 196617 /tapemovie/info/path;#B color 14;#P window linecount 0;#P message 463 129 250 196617;#P window linecount 1;#P newex 463 104 62 196617 prepend set;#P button 463 61 15 0;#P newex 463 83 96 196617 v /tapemovie/path;#B color 14;#P window linecount 0;#P message 464 227 413 196617;#P window linecount 1;#P newex 464 204 62 196617 prepend set;#P button 464 159 15 0;#P newex 464 182 166 196617 v /tapemovie/defaultproject/path;#B color 14;#P hidden newex 15 26 48 196617 loadbang;#P window linecount 0;#P message 236 227 175 196617;#P window linecount 1;#P newex 236 204 62 196617 prepend set;#P window linecount 0;#P message 13 386 141 196617;#P window linecount 1;#P newex 13 360 62 196617 prepend set;#P button 236 159 15 0;#P newex 236 182 111 196617 v /tapemovie/version;#B color 14;#P button 13 313 15 0;#P newex 13 335 150 196617 v /tapemovie/project/version;#B color 14;#P user panel 2 267 856 4;#X brgb 0 0 0;#X frgb 0 0 0;#X border 0;#X rounded 0;#X shadow 0;#X done;#P window setfont "Sans Serif" 18.;#P comment 15 22 425 196626 INFORMATION RELATIVES A L'ENVIRONNEMENT;#B frgb 0 66 222;#P hidden connect 10 0 32 0;#P connect 32 0 31 0;#P connect 31 0 33 0;#P hidden connect 21 0 34 0;#P connect 33 0 34 0;#P hidden connect 10 0 24 0;#P connect 24 0 23 0;#P connect 23 0 25 0;#P hidden connect 21 0 26 0;#P connect 25 0 26 0;#P hidden connect 10 0 3 0;#P connect 3 0 2 0;#P connect 2 0 6 0;#P hidden connect 21 0 7 0;#P connect 6 0 7 0;#P hidden connect 10 0 45 0;#P connect 45 0 44 0;#P connect 44 0 46 0;#P hidden connect 21 0 47 0;#P connect 46 0 47 0;#P hidden connect 10 0 72 0;#P hidden fasten 75 0 80 0 28 664 28 664;#P hidden connect 102 0 78 0;#P hidden connect 80 0 78 0;#P hidden connect 78 1 76 0;#P hidden connect 21 0 72 1;#P hidden connect 10 0 36 0;#P connect 36 0 35 0;#P connect 35 0 37 0;#P hidden connect 21 0 38 0;#P connect 37 0 38 0;#P hidden connect 10 0 5 0;#P connect 5 0 4 0;#P connect 4 0 8 0;#P hidden connect 21 0 9 0;#P connect 8 0 9 0;#P hidden connect 10 0 28 0;#P connect 28 0 27 0;#P connect 27 0 29 0;#P hidden connect 21 0 30 0;#P connect 29 0 30 0;#P hidden connect 76 0 79 0;#P hidden connect 79 1 83 0;#P hidden connect 83 0 82 0;#P hidden connect 82 0 81 0;#P hidden connect 81 0 77 0;#P hidden connect 83 1 81 1;#P hidden connect 10 0 16 0;#P connect 16 0 15 0;#P connect 15 0 17 0;#P hidden connect 21 0 18 0;#P connect 17 0 18 0;#P hidden connect 10 0 12 0;#P connect 12 0 11 0;#P connect 11 0 13 0;#P hidden connect 21 0 14 0;#P connect 13 0 14 0;#P hidden connect 21 0 101 0;#P hidden connect 10 0 92 0;#P connect 92 0 95 0;#P connect 95 0 94 0;#P hidden connect 21 0 93 0;#P connect 94 0 93 0;#P hidden fasten 78 1 82 1 152 742 501 742;#P hidden fasten 75 0 85 0 28 662 516 662;#P connect 85 0 84 0;#P hidden connect 101 0 102 0;#P hidden connect 21 0 73 0;#P hidden connect 10 0 73 0;#P hidden connect 10 0 65 0;#P connect 65 0 62 0;#P connect 62 0 66 0;#P connect 65 0 63 0;#P connect 63 0 67 0;#P connect 65 0 64 0;#P connect 64 0 68 0;#P connect 88 0 87 0;#P connect 90 0 89 0;#P pop;