max v2;#N vpatcher 425 44 1138 713;#P origin 0 -39;#P window setfont "Sans Serif" 9.;#P newex 128 516 68 196617 prepend send;#P newex 128 494 269 196617 makeparam $1/port $1 s /serial.1;#B color 12;#P newex 21 540 47 196617 forward;#B color 12;#P window setfont "Sans Serif" 14.;#N vpatcher 591 246 1135 631;#P origin 49 -271;#P window setfont "Sans Serif" 9.;#P newex 224 247 27 196617 + 2;#P number 384 300 35 9 0 0 0 3 0 0 0 221 221 221 222 222 222 0 0 0;#P number 384 265 35 9 0 0 16 3 0 0 0 221 221 221 222 222 222 0 0 0;#P newex 224 220 31 196617 == 0;#P newex 224 197 300 196617 makeparam $1/slowshutter/sw $1 t 0;#B color 12;#P newex 224 278 60 196617 prepend 90;#P newex 87 155 300 196617 makeparam $1/gain $1 m 1 0 16 1;#B color 12;#P newex 6 26 294 196617 makeparam $1/mode $1 m 1 0 8 0;#B color 12;#P newex 151 176 300 196617 makeparam $1/iris $1 m 11 0 14 1;#B color 12;#P newex 22 132 301 196617 makeparam $1/shutter $1 m 6 0 21 1;#B color 12;#P window setfont "Sans Serif" 14.;#N vpatcher 288 146 453 522;#P outlet 95 315 15 0;#P window setfont "Sans Serif" 9.;#P newex 95 289 54 196617 zl group 4;#P newex 49 232 31 196617 * 16;#P newex 11 254 27 196617 -;#P newex 49 207 30 196617 / 16;#P newex 49 159 35 196617 * 256;#P newex 11 181 27 196617 -;#P newex 49 134 35 196617 / 256;#P newex 39 85 43 196617 * 4096;#P newex 11 109 27 196617 -;#P newex 39 60 42 196617 / 4096;#P inlet 11 23 15 0;#P connect 0 0 2 0;#P connect 2 0 5 0;#P connect 5 0 8 0;#P connect 3 0 2 1;#P connect 6 0 5 1;#P connect 9 0 8 1;#P connect 0 0 1 0;#P connect 1 0 3 0;#P connect 2 0 4 0;#P connect 4 0 6 0;#P connect 5 0 7 0;#P connect 7 0 9 0;#P fasten 8 0 10 0 16 278 100 278;#P fasten 1 0 10 0 44 81 100 81;#P fasten 4 0 10 0 54 155 100 155;#P fasten 7 0 10 0 54 229 100 229;#P connect 10 0 11 0;#P pop;#P newobj 87 177 54 196622 p 4dig;#B color 6;#P window setfont "Sans Serif" 9.;#P newex 87 214 58 196617 prepend 76;#P window setfont "Sans Serif" 14.;#N vpatcher 288 146 453 522;#P outlet 95 315 15 0;#P window setfont "Sans Serif" 9.;#P newex 95 289 54 196617 zl group 4;#P newex 49 232 31 196617 * 16;#P newex 11 254 27 196617 -;#P newex 49 207 30 196617 / 16;#P newex 49 159 35 196617 * 256;#P newex 11 181 27 196617 -;#P newex 49 134 35 196617 / 256;#P newex 39 85 43 196617 * 4096;#P newex 11 109 27 196617 -;#P newex 39 60 42 196617 / 4096;#P inlet 11 23 15 0;#P connect 0 0 2 0;#P connect 2 0 5 0;#P connect 5 0 8 0;#P connect 3 0 2 1;#P connect 6 0 5 1;#P connect 9 0 8 1;#P connect 0 0 1 0;#P connect 1 0 3 0;#P connect 2 0 4 0;#P connect 4 0 6 0;#P connect 5 0 7 0;#P connect 7 0 9 0;#P fasten 8 0 10 0 16 278 100 278;#P fasten 1 0 10 0 44 81 100 81;#P fasten 4 0 10 0 54 155 100 155;#P fasten 7 0 10 0 54 229 100 229;#P connect 10 0 11 0;#P pop;#P newobj 22 156 54 196622 p 4dig;#B color 6;#P window setfont "Sans Serif" 9.;#P newex 22 193 59 196617 prepend 74;#P window setfont "Sans Serif" 14.;#N vpatcher 288 146 453 522;#P outlet 95 315 15 0;#P window setfont "Sans Serif" 9.;#P newex 95 289 54 196617 zl group 4;#P newex 49 232 31 196617 * 16;#P newex 11 254 27 196617 -;#P newex 49 207 30 196617 / 16;#P newex 49 159 35 196617 * 256;#P newex 11 181 27 196617 -;#P newex 49 134 35 196617 / 256;#P newex 39 85 43 196617 * 4096;#P newex 11 109 27 196617 -;#P newex 39 60 42 196617 / 4096;#P inlet 11 23 15 0;#P connect 0 0 2 0;#P connect 2 0 5 0;#P connect 5 0 8 0;#P connect 3 0 2 1;#P connect 6 0 5 1;#P connect 9 0 8 1;#P connect 0 0 1 0;#P connect 1 0 3 0;#P connect 2 0 4 0;#P connect 4 0 6 0;#P connect 5 0 7 0;#P connect 7 0 9 0;#P fasten 7 0 10 0 54 229 100 229;#P fasten 4 0 10 0 54 155 100 155;#P fasten 1 0 10 0 44 81 100 81;#P fasten 8 0 10 0 16 278 100 278;#P connect 10 0 11 0;#P pop;#P newobj 151 204 54 196622 p 4dig;#B color 6;#P window setfont "Sans Serif" 9.;#P newex 151 235 58 196617 prepend 75;#P outlet 6 330 15 0;#P newex 6 47 157 196617 sel 0 1 2 3 4;#P newex 122 71 27 196617 13;#P newex 93 71 27 196617 11;#P newex 64 71 27 196617 10;#P newex 6 71 27 196617 0;#P newex 6 103 58 196617 prepend 57;#P newex 35 71 27 196617 3;#P connect 16 0 6 0;#P connect 6 0 2 0;#P fasten 5 0 1 0 127 95 11 95;#P fasten 4 0 1 0 98 95 11 95;#P fasten 3 0 1 0 69 95 11 95;#P fasten 0 0 1 0 40 95 11 95;#P fasten 2 0 1 0 11 95 11 95;#P fasten 18 0 7 0 229 312 11 312;#P connect 1 0 7 0;#P fasten 8 0 7 0 156 291 11 291;#P fasten 12 0 7 0 92 280 11 280;#P fasten 10 0 7 0 27 270 11 270;#P connect 14 0 11 0;#P connect 11 0 10 0;#P connect 6 1 0 0;#P connect 6 2 3 0;#P connect 17 0 13 0;#P connect 13 0 12 0;#P connect 6 3 4 0;#P connect 6 4 5 0;#P connect 15 0 9 0;#P connect 9 0 8 0;#P connect 19 0 20 0;#P connect 20 0 23 0;#P connect 23 0 18 0;#P connect 21 0 22 0;#P pop 1;#P newobj 166 348 90 196622 p exposure;#B color 6;#N vpatcher 789 131 1256 359;#P origin 21 115;#P window setfont "Sans Serif" 9.;#P newex 217 87 205 196617 r $1/whitebalance/trig;#B color 12;#P message 218 131 29 196617 16 5;#P newex 218 108 22 196617 b 1;#P newex 13 57 294 196617 makeparam $1/whitebalance $1 i 0 0 5 0;#B color 12;#P newex 13 90 60 196617 prepend 53;#P outlet 13 172 15 0;#P connect 2 0 1 0;#P fasten 4 0 0 0 223 153 18 153;#P connect 1 0 0 0;#P connect 5 0 3 0;#P connect 3 0 4 0;#P pop;#P newobj 151 318 121 196622 p White-Balance;#B color 6;#N vpatcher 912 521 1454 720;#P origin 21 95;#P outlet 13 140 15 0;#P window setfont "Sans Serif" 9.;#P newex 124 53 383 196617 makeparam $1/focus/near $1 i 36864 4096 49152 1;#B color 12;#P window setfont "Sans Serif" 12.;#N vpatcher 288 146 454 516;#P outlet 85 309 15 0;#P window setfont "Sans Serif" 9.;#P newex 85 285 54 196617 zl group 4;#P newex 48 233 31 196617 * 16;#P newex 10 255 27 196617 -;#P newex 48 208 30 196617 / 16;#P newex 48 160 35 196617 * 256;#P newex 10 182 27 196617 -;#P newex 48 135 35 196617 / 256;#P newex 38 86 43 196617 * 4096;#P newex 10 110 27 196617 -;#P newex 38 61 42 196617 / 4096;#P inlet 10 22 15 0;#P connect 0 0 2 0;#P connect 2 0 5 0;#P connect 5 0 8 0;#P connect 3 0 2 1;#P connect 6 0 5 1;#P connect 9 0 8 1;#P fasten 0 0 1 0 15 49 43 49;#P connect 1 0 3 0;#P connect 2 0 4 0;#P connect 4 0 6 0;#P connect 5 0 7 0;#P connect 7 0 9 0;#P fasten 8 0 10 0 15 279 90 279;#P fasten 1 0 10 0 43 82 90 82;#P fasten 4 0 10 0 53 156 90 156;#P fasten 7 0 10 0 53 230 90 230;#P connect 10 0 11 0;#P pop;#P newobj 124 81 51 196620 p 4dig;#B color 6;#P window setfont "Sans Serif" 9.;#P newex 124 110 60 196617 prepend 40;#P newex 13 31 345 196617 makeparam $1/focus/value $1 i 4096 0 28672 1;#B color 12;#P window setfont "Sans Serif" 12.;#N vpatcher 288 146 454 516;#P outlet 85 309 15 0;#P window setfont "Sans Serif" 9.;#P newex 85 285 54 196617 zl group 4;#P newex 48 233 31 196617 * 16;#P newex 10 255 27 196617 -;#P newex 48 208 30 196617 / 16;#P newex 48 160 35 196617 * 256;#P newex 10 182 27 196617 -;#P newex 48 135 35 196617 / 256;#P newex 38 86 43 196617 * 4096;#P newex 10 110 27 196617 -;#P newex 38 61 42 196617 / 4096;#P inlet 10 22 15 0;#P connect 0 0 2 0;#P connect 2 0 5 0;#P connect 5 0 8 0;#P connect 3 0 2 1;#P connect 6 0 5 1;#P connect 9 0 8 1;#P fasten 0 0 1 0 15 49 43 49;#P connect 1 0 3 0;#P connect 2 0 4 0;#P connect 4 0 6 0;#P connect 5 0 7 0;#P connect 7 0 9 0;#P fasten 7 0 10 0 53 230 90 230;#P fasten 4 0 10 0 53 156 90 156;#P fasten 1 0 10 0 43 82 90 82;#P fasten 8 0 10 0 15 279 90 279;#P connect 10 0 11 0;#P pop;#P newobj 13 81 51 196620 p 4dig;#B color 6;#P window setfont "Sans Serif" 9.;#P newex 13 110 58 196617 prepend 72;#P connect 2 0 1 0;#P connect 1 0 0 0;#P fasten 3 0 6 0 129 133 18 133;#P connect 0 0 6 0;#P connect 5 0 4 0;#P connect 4 0 3 0;#P pop;#P newobj 129 287 62 196622 p focus;#B color 6;#P toggle 96 80 15 0;#N vpatcher 629 325 952 510;#P origin 21 95;#P window setfont "Sans Serif" 9.;#P newex 17 32 271 196617 makeparam $1/stabilizer/sw $1 t 0;#B color 12;#P newex 17 56 29 196617 == 0;#P newex 17 79 27 196617 + 2;#P outlet 17 127 15 0;#P newex 17 103 60 196617 prepend 52;#P connect 4 0 3 0;#P connect 3 0 2 0;#P connect 2 0 0 0;#P fasten 0 0 1 0 22 123 22 123;#P pop;#P newobj 106 256 81 196622 p stabilize;#B color 6;#N vpatcher 69 536 698 867;#P origin 21 95;#P window setfont "Sans Serif" 9.;#P newex 251 179 338 196617 makeparam $1/zoom/ $1 i 0 0 16384;#B color 12;#P newex 251 209 78 196617 prepend 70 0 0;#P newex 128 124 31 196617 + 48;#P newex 95 124 31 196617 + 32;#P newex 95 76 286 196617 makeparam $1/zoom/tele $1 i 0 0 7 1;#B color 12;#P message 58 68 14 196617 0;#P newex 58 46 197 196617 r $1/zoom/stop;#B color 12;#P message 221 179 14 196617 1;#P message 174 178 14 196617 0;#P newex 174 209 60 196617 prepend 54;#P newex 174 151 104 196617 sel combine separate;#P newex 174 127 338 196617 makeparam $1/zoom/mode $1 s separate;#B color 12;#P newex 17 21 271 196617 makeparam $1/zoom/digital/sw $1 t 0;#B color 12;#P newex 17 45 29 196617 == 0;#P newex 17 68 27 196617 + 2;#P outlet 17 277 15 0;#P newex 128 100 288 196617 makeparam $1/zoom/wide $1 i 0 0 7 1;#B color 12;#P newex 17 209 52 196617 prepend 6;#P connect 5 0 4 0;#P connect 4 0 3 0;#P connect 15 0 0 0;#P connect 14 0 0 0;#P fasten 12 0 0 0 63 95 22 95;#P connect 3 0 0 0;#P fasten 16 0 2 0 256 259 22 259;#P fasten 8 0 2 0 179 245 22 245;#P fasten 0 0 2 0 22 241 22 241;#P connect 11 0 12 0;#P connect 13 0 14 0;#P connect 1 0 15 0;#P connect 6 0 7 0;#P connect 7 0 9 0;#P connect 10 0 8 0;#P connect 9 0 8 0;#P connect 7 1 10 0;#P connect 17 0 16 0;#P pop;#P newobj 87 226 61 196622 p zoom;#B color 6;#P window setfont "Sans Serif" 9.;#P newex 43 68 346 196617 makeswitch $1/sw $1 common_switchstate 1;#B color 12;#P newex 43 98 29 196617 == 0;#P newex 43 143 52 196617 prepend 0;#P newex 43 120 27 196617 + 2;#P window linecount 12;#P message 456 164 153 196617 \; $1/port/init bang \; $1/sw/init bang \; $1/zoom/digital/sw/init bang \; $1/zoom/mode/init bang \; $1/color/init bang \; $1/stabilizer/sw/init bang \; $1/color/init bang \; $1/mode/init bang \; $1/gain/init bang \; $1/shutter/init bang \; $1/iris/init bang \;;#P window setfont "Sans Serif" 14.;#P window linecount 1;#N vpatcher 375 459 795 633;#P window setfont "Sans Serif" 9.;#P window linecount 0;#P newex 22 56 99 196617 sel 0 1;#P newex 22 30 309 196617 makeparam $1/color $1 t 1;#P outlet 22 117 15 0;#P window linecount 1;#P message 66 84 31 196617 99 0;#P message 22 84 31 196617 99 4;#P connect 3 0 4 0;#P connect 4 0 0 0;#P fasten 1 0 2 0 71 108 27 108;#P fasten 0 0 2 0 27 108 27 108;#P connect 4 1 1 0;#P pop;#P newobj 70 195 59 196622 p color;#B color 6;#N vpatcher 375 459 765 590;#P window setfont "Sans Serif" 9.;#P newex 268 30 88 196617 r $1/mem/reset;#P newex 10 30 90 196617 r $1/mem/recall;#P newex 133 30 78 196617 r $1/mem/set;#P comment 64 60 36 196617 recall;#P comment 191 60 22 196617 set;#P message 10 60 52 196617 63 2 \$1;#P message 133 60 52 196617 63 1 \$1;#P comment 121 85 73 196617 memory 0 - 5;#P message 268 60 52 196617 63 0 \$1;#P comment 325 60 34 196617 reset;#P outlet 10 87 15 0;#P connect 9 0 5 0;#P fasten 5 0 0 0 15 81 15 81;#P fasten 4 0 0 0 138 81 15 81;#P fasten 2 0 0 0 273 81 15 81;#P connect 8 0 4 0;#P connect 10 0 2 0;#P pop;#P newobj 55 165 78 196622 p memory;#B color 6;#P window setfont "Sans Serif" 9.;#P newex 456 140 50 196617 deferlow;#P newex 456 105 207 196617 t b b;#P newex 225 113 81 196617 excludeinstance;#P newex 296 139 27 196617 i;#P newex 225 89 150 196617 loadmess $1;#B color 5;#P newex 456 77 207 196617 moduleinit $1;#B color 12;#P newex 21 432 61 196617 prepend 1 4;#P newex 21 495 59 196617 append 255;#P newex 296 164 35 196617 + 128;#P newex 296 189 60 196617 prepend set;#P newex 21 474 64 196617 prepend 129;#P message 21 46 73 196617 136 48 1 255;#P newex 21 24 215 196617 r $1/init/address;#P connect 0 0 1 0;#P fasten 25 0 6 0 171 381 26 381;#P fasten 24 0 6 0 156 349 26 349;#P fasten 23 0 6 0 134 319 26 319;#P fasten 21 0 6 0 111 304 26 304;#P fasten 20 0 6 0 92 289 26 289;#P fasten 17 0 6 0 48 244 26 244;#P fasten 1 0 6 0 26 194 26 194;#P fasten 14 0 6 0 75 273 26 273;#P fasten 13 0 6 0 60 258 26 258;#P fasten 6 0 2 0 26 461 26 461;#P fasten 3 0 2 0 301 391 26 391;#P connect 2 0 5 0;#P connect 5 0 26 0;#P fasten 28 0 26 0 133 536 26 536;#P connect 22 0 18 0;#P connect 19 0 18 0;#P connect 18 0 16 0;#P connect 16 0 17 0;#P connect 27 0 28 0;#P fasten 8 0 10 0 230 109 230 109;#P connect 10 1 9 0;#P fasten 11 1 9 0 658 134 301 134;#P lcolor 2;#P fasten 9 0 4 0 301 160 301 160;#P fasten 4 0 3 0 301 188;#P connect 7 0 11 0;#P connect 11 0 12 0;#P connect 12 0 15 0;#P pop;