max v2;#N vpatcher 114 63 1320 833;#P origin -20 -136;#P window setfont "Sans Serif" 10.;#P user ubumenu 104 243 68 196618 0 1 1 0;#X setrgb 255 255 255 248 53 0 140 140 140 4 4 4 141 141 141 112 112 112;#X add 0;#X add 1;#X add 2;#X add 3;#X add 4;#X add 5;#X prefix_set 0 0 <none> 0;#X pattrmode 1;#P objectname picEx[2];#P user ubumenu 104 261 68 196618 0 1 1 0;#X setrgb 255 255 255 66 66 66 140 140 140 4 4 4 141 141 141 112 112 112;#X add 0;#X add 1;#X add 2;#X add 3;#X add 4;#X add 5;#X prefix_set 0 0 <none> 0;#X pattrmode 1;#P objectname picEx[1];#P window setfont "Sans Serif" 9.;#P window linecount 1;#P hidden newex 104 430 90 196617 s $1/mem/recall;#P hidden newex 118 408 78 196617 s $1/mem/set;#P hidden newex 907 453 129 196617 sprintf append /serial.%ld;#P hidden newex 953 390 78 196617 prepend append;#P hidden newex 907 360 102 196617 t serial <none> clear;#P hidden newex 907 335 167 196617 r $1/init;#B color 12;#N coll tm_config 1;#P hidden newobj 907 422 83 196617 coll tm_config 1;#B color 5;#P comment 2 285 35 196617 /port;#B frgb 0 0 222;#P user ubumenu 32 283 100 196617 0 1 1 0;#X setrgb 31 31 31 255 255 255 234 234 234 4 4 4 141 141 141 112 112 112;#X add;#X prefix_set 0 0 <none> 0;#P objectname port;#P hidden newex 907 548 62 196617 pvar port 2;#P hidden newex 907 523 243 196617 variedit $1/port $1;#B color 12;#P hidden newex 335 791 74 196617 pvar pan;#P hidden newex 335 771 243 196617 variedit $1/pan $1;#B color 12;#P hidden newex 335 841 73 196617 pvar tilt;#P hidden newex 335 821 129 196617 variedit $1/tilt $1;#B color 12;#P hidden newex 335 683 74 196617 pvar panspeed;#P hidden newex 335 663 243 196617 variedit $1/pan/speed $1;#B color 12;#P hidden newex 335 733 73 196617 pvar tiltspeed;#P hidden newex 335 713 129 196617 variedit $1/tilt/speed $1;#B color 12;#P hidden newex 335 591 67 196617 pvar shutter;#P hidden newex 335 571 243 196617 variedit $1/shutter $1;#B color 12;#P hidden newex 335 539 57 196617 pvar iris;#P hidden newex 335 519 244 196617 variedit $1/iris $1;#B color 12;#P hidden newex 335 487 57 196617 pvar gain;#P hidden newex 335 467 243 196617 variedit $1/gain $1;#B color 12;#P hidden newex 335 435 57 196617 pvar mode;#P hidden newex 335 415 243 196617 variedit $1/mode $1;#B color 12;#P comment 4 211 39 196617 /mode;#B frgb 0 0 222;#P comment 4 265 49 196617 /iris;#B frgb 0 0 222;#P comment 4 246 49 196617 /shutter;#B frgb 0 0 222;#P comment 4 228 34 196617 /gain;#B frgb 0 0 222;#P message 207 316 45 196617 onepush;#B color 13;#P objectname whitepush;#P comment 114 317 97 196617 /whitebalance/trig;#B frgb 0 0 222;#P comment 114 300 74 196617 /whitebalance;#B frgb 0 0 222;#P comment 7 65 40 196617 /value;#B frgb 0 0 222;#P toggle 236 280 15 0;#P objectname freeze;#P comment 183 281 45 196617 /freeze;#B frgb 0 0 222;#P hidden newex 611 554 70 196617 pvar freeze;#P hidden newex 611 533 213 196617 variedit $1/freeze $1;#B color 12;#P hidden newex 611 449 70 196617 pvar reverse;#P hidden newex 611 428 213 196617 variedit $1/reverse $1;#B color 12;#P toggle 236 246 15 0;#P objectname reverse;#P comment 183 247 52 196617 /reverse;#B frgb 0 0 222;#P comment 159 211 24 196617 /fx;#B frgb 0 0 222;#P hidden newex 611 395 74 196617 pvar backlight;#P hidden newex 611 374 213 196617 variedit $1/backlight $1;#B color 12;#P toggle 236 229 15 0;#P objectname backlight;#P comment 183 230 56 196617 /backlight;#B frgb 0 0 222;#P toggle 236 263 15 0;#P objectname ir;#P comment 183 264 22 196617 /ir;#B frgb 0 0 222;#P hidden newex 611 502 42 196617 pvar ir;#P hidden newex 611 481 213 196617 variedit $1/ir $1;#B color 12;#P comment 2 148 40 196617 /near;#B frgb 0 0 222;#P comment 2 167 40 196617 /value;#B frgb 0 0 222;#P hidden newex 411 226 104 196617 pvar focusnearslider;#P hidden newex 323 224 78 196617 pvar focusnear;#P hidden newex 343 379 88 196617 pvar focusvalue;#P hidden newex 323 173 82 196617 pvar focusvalue;#P hidden newex 323 249 251 196617 variedit $1/focus/near $1;#B color 12;#P window setfont "Sans Serif" 12.;#N vpatcher 9 364 218 561;#P outlet 44 157 15 0;#P window setfont "Sans Serif" 9.;#P comment 8 29 34 196617 Focus;#P inlet 80 29 15 0;#P inlet 44 29 15 0;#P newex 44 109 42 196617 / 1000;#P newex 80 63 41 196617 - 4095;#P newex 44 87 46 196617 *;#P newex 44 131 42 196617 + 4096;#P comment 99 29 83 196617 Focus Near Limit;#P connect 5 0 2 0;#P connect 2 0 4 0;#P connect 4 0 1 0;#P connect 1 0 8 0;#P connect 6 0 3 0;#P connect 3 0 2 1;#P pop;#P hidden newobj 343 352 100 196620 p slider2num;#B color 6;#P window setfont "Sans Serif" 9.;#P hidden newex 323 192 246 196617 variedit $1/focus/value $1;#B color 12;#P comment 102 149 77 196617 (4096-49152);#B frgb 255 255 255;#P user multiSlider 38 147 161 15 4096. 49152. 1 2664 47 0 0 2 0 0 1;#M frgb 255 255 255;#M brgb 204 85 28;#M rgb2 127 127 127;#M rgb3 0 0 0;#M rgb4 37 52 91;#M rgb5 74 105 182;#M rgb6 112 158 18;#M rgb7 149 211 110;#M rgb8 187 9 201;#M rgb9 224 62 37;#M rgb10 7 114 128;#P objectname focusnearslider;#P number 200 147 50 9 4096 49152 163 3 0 0 0 255 255 255 222 222 222 0 0 0;#P objectname focusnear;#P number 200 164 50 9 0 28672 163 3 0 0 0 255 255 255 222 222 222 0 0 0;#P objectname focusvalue;#P comment 121 88 61 196617 /auto/sens;#B frgb 0 0 222;#P comment 105 130 55 196617 /speed;#B frgb 0 0 222;#P hidden newex 610 117 102 196617 pvar focusvarispeed;#P hidden newex 610 139 257 196617 variedit $1/focus/speed $1;#B color 12;#P comment 6 128 55 196617 /variable;#B frgb 0 0 222;#P comment 5 110 55 196617 /standard;#B frgb 0 0 222;#P hidden newex 326 63 92 196617 pvar focusnearfar;#P hidden newex 326 85 267 196617 variedit $1/focus/standard $1;#B color 12;#P hidden newex 326 116 107 196617 pvar focusnearmenu2;#P hidden newex 326 138 265 196617 variedit $1/focus/variable $1;#B color 12;#P toggle 104 87 15 0;#P objectname focusswitch;#P comment 71 88 35 196617 /auto;#B frgb 0 0 222;#P hidden newex 326 10 88 196617 pvar focusswitch;#P hidden newex 326 32 270 196617 variedit $1/focus/auto $1;#B color 12;#P window setfont "Sans Serif" 18.;#P comment 2 84 67 196626 /focus;#B frgb 0 0 222;#P comment 17 13 67 196626 /zoom;#B frgb 0 0 222;#P toggle 73 44 15 0;#P objectname zoomtype;#P window setfont "Sans Serif" 9.;#P hidden newex 1118 419 76 196617 pvar zoomstop;#P hidden newex 1118 441 271 196617 s $1/zoom/speed/stop;#B color 12;#P window setfont "Sans Serif" 12.;#N vpatcher 10 59 466 437;#P outlet 29 307 15 0;#P outlet 10 308 15 0;#P window setfont "Sans Serif" 9.;#P message 220 205 40 196617 28627;#P message 176 205 40 196617 16384;#P newex 176 182 98 196617 sel 0 1;#P newex 176 161 206 196617 r $1/zoom/digital/sw;#B color 12;#P newex 176 227 67 196617 prepend max;#P newex 301 57 54 196617 r $1dumbi;#P newex 50 50 166 196617 r $1/zoom/mode;#B color 12;#P newex 121 70 113 196617 r $1/zoom/digital/sw;#P newex 330 114 70 196617 prepend set 1;#P newex 301 92 39 196617 unpack;#N vpatcher 686 179 1073 508;#P outlet 154 234 15 0;#P window setfont "Sans Serif" 9.;#P newex 154 187 70 196617 prepend set 1;#P newex 41 186 61 196617 prepend set;#P message 278 105 55 196617 set 28627;#P message 217 105 55 196617 set 16384;#P newex 185 99 27 196617 + 1;#P newex 168 72 27 196617 t b i;#P newex 185 131 48 196617 switch 2;#P inlet 168 39 15 0;#P outlet 41 234 15 0;#P message 74 102 39 196617 16384;#P message 115 102 16 196617 0;#P newex 50 72 27 196617 t b i;#P newex 41 108 27 196617 + 1;#P newex 41 142 48 196617 switch 2;#P inlet 50 39 15 0;#P comment 127 24 75 196617 D-Zoom Off/On;#P comment 20 24 100 196617 Tele = 0 Wide =1;#P fasten 5 1 4 0 72 98 46 98;#P connect 4 0 3 0;#P connect 3 0 15 0;#P connect 15 0 8 0;#P connect 2 0 5 0;#P fasten 7 0 3 1 79 130 65 130;#P fasten 5 0 7 0 55 95 79 95;#P fasten 10 0 7 0 190 155 138 155 138 78 79 78;#P fasten 6 0 3 2 120 134 84 134;#P fasten 5 0 6 0 55 95 120 95;#P fasten 3 0 16 0 46 171 159 171;#P connect 16 0 17 0;#P connect 9 0 11 0;#P connect 11 1 12 0;#P connect 12 0 10 0;#P connect 13 0 10 1;#P connect 11 0 13 0;#P connect 14 0 10 2;#P connect 11 0 14 0;#P pop;#P newobj 50 97 81 196617 p zoomMinMax;#P connect 5 0 11 0;#P connect 0 0 11 0;#P connect 6 0 11 0;#P connect 0 1 12 0;#P connect 2 0 12 0;#P connect 4 0 0 0;#P fasten 3 0 0 1 126 95 126 95;#P connect 7 0 8 0;#P connect 8 0 9 0;#P connect 9 0 6 0;#P connect 10 0 6 0;#P connect 8 1 10 0;#P connect 5 0 1 0;#P fasten 1 1 2 0 335 114 335 114;#P pop;#P hidden newobj 1026 276 53 196620 p zoom;#B color 6;#P window setfont "Sans Serif" 9.;#P hidden comment 1030 231 38 196617 no init;#B frgb 222 0 0;#P hidden newex 1118 365 66 196617 pvar zoomOI;#P hidden newex 1118 387 271 196617 variedit $1/zoom/digital/sw $1;#B color 12;#P comment 91 21 63 196617 /digital/sw;#B frgb 0 0 222;#P comment 17 45 60 196617 /speed/sw;#B frgb 0 0 222;#P comment 108 109 39 196617 /mode;#B frgb 0 0 222;#P comment 91 45 41 196617 /speed;#B frgb 0 0 222;#P hidden newex 1211 312 83 196617 pvar zoomslider;#P hidden newex 1118 312 81 196617 pvar zoomvalue;#P hidden newex 1118 334 271 196617 variedit $1/zoom $1;#B color 12;#P hidden newex 1118 206 101 196617 pvar zoom_telewide;#P hidden newex 1118 228 270 196617 variedit $1/zoom/mode $1;#B color 12;#P hidden newex 1118 100 48 196617 pvar IDn;#P hidden newex 1118 122 270 196617 variedit $1/id $1;#B color 12;#P hidden newex 1118 45 62 196617 pvar power;#P hidden newex 1118 67 270 196617 variedit $1/sw $1;#B color 12;#P hidden newex 752 786 57 196617 pvar reset;#P hidden newex 752 807 95 196617 s $1-pan.tilt.reset;#P hidden newex 642 780 71 196617 pvar homebut;#P hidden newex 642 806 94 196617 s $1-pan.tilt.home;#P hidden newex 343 329 84 196617 pvar focusslider;#P hidden newex 759 89 139 196617 s $1-resetfocus;#B color 12;#P hidden newex 759 68 88 196617 pvar resetfocus;#P message 189 122 60 196617 reset focus;#B color 13;#P objectname resetfocus;#P hidden newex 152 543 53 196617 pvar actu;#P hidden newex 612 68 88 196617 pvar focusstop;#P hidden newex 612 89 137 196617 s $1-focus.stop;#B color 12;#P hidden newex 611 630 79 196617 pvar whitepush;#P hidden newex 611 651 165 196617 s $1/whitebalance/trig;#B color 12;#P hidden newex 601 235 101 196617 s $1-onepush;#P hidden newex 601 216 69 196617 pvar onepush;#P hidden newex 716 216 67 196617 pvar infinity;#P hidden newex 716 235 107 196617 s $1-infinity;#P hidden newex 152 577 129 196617 vari $1-actualizeGSI $1 b;#P hidden newex 611 604 48 196617 pvar WB;#P hidden newex 606 35 73 196617 pvar AFsens t;#P hidden newex 606 16 273 196617 variedit $1/focus/auto/sens $1;#B color 12;#P hidden newex 610 335 58 196617 pvar picEx;#P hidden newex 611 584 243 196617 variedit $1/whitebalance $1;#B color 12;#P message 90 226 51 196617 Actualize;#B color 13;#P objectname actu;#P window setfont "Sans Serif" 12.;#N vpatcher 27 550 320 798;#P window setfont "Sans Serif" 9.;#P newex 38 60 27 196617 t b i;#P number 55 100 46 9 0 0 0 3 0 0 0 221 221 221 222 222 222 0 0 0;#P comment 141 203 100 196617 Out to numSlider;#P outlet 143 184 15 0;#P newex 143 157 61 196617 prepend set;#P outlet 93 184 15 0;#P newex 93 129 49 196617 minimum;#P comment 141 43 86 196617 Focus Near Limit;#P inlet 124 43 15 0;#P inlet 38 41 15 0;#P comment 3 43 31 196617 Focus;#P comment 24 205 100 196617 Out to slider position;#P connect 2 0 11 0;#P fasten 5 0 10 0 98 157 43 157 43 96 60 96;#P connect 11 1 10 0;#P fasten 11 0 5 0 43 84 111 84 111 120 98 120;#P fasten 3 0 5 0 129 120 98 120;#P connect 5 0 6 0;#P fasten 10 0 5 1 60 124 137 124;#P connect 5 0 7 0;#P connect 7 0 8 0;#P pop;#P hidden newobj 343 273 96 196620 p minNLFocus;#B color 6;#N vpatcher 32 176 318 391;#P window setfont "Sans Serif" 9.;#P newex 41 150 71 196617 prepend set 1;#P newex 41 105 43 196617 * 1000;#P newex 74 56 27 196617 t b i;#P outlet 41 174 15 0;#P newex 41 127 60 196617 / 1.;#P newex 91 83 41 196617 - 4095;#P newex 41 83 41 196617 - 4095;#P comment 91 34 81 196617 Focus Near Limit;#P inlet 74 34 15 0;#P inlet 41 34 15 0;#P comment 7 34 31 196617 Focus;#P comment 114 154 146 196617 Slider Position \, range 0-1000;#P fasten 9 0 5 0 79 78 46 78;#P connect 2 0 5 0;#P connect 5 0 10 0;#P connect 10 0 7 0;#P connect 7 0 11 0;#P connect 11 0 8 0;#P connect 3 0 9 0;#P connect 9 1 6 0;#P connect 6 0 7 1;#P pop;#P hidden newobj 343 303 110 196620 p focussliderPos;#B color 6;#P window setfont "Sans Serif" 9.;#P hidden newex 610 313 153 196617 variedit $1/fx $1;#B color 12;#P number 50 263 35 9 0 15 99 3 0 0 0 255 255 255 222 222 222 0 0 0;#P objectname iris;#P number 50 245 35 9 0 15 99 3 66 66 66 255 255 255 222 222 222 0 0 0;#P objectname shutter;#P number 50 227 35 9 0 7 99 3 0 0 0 255 255 255 222 222 222 0 0 0;#P objectname gain;#P user ubumenu 194 297 58 196617 0 1 1 0;#X add Auto;#X add Indoor;#X add Outdoor;#X add One Push;#X add WB;#X add ATW;#X add Manual;#X prefix_set 0 0 <none> 0;#X pattrmode 1;#P objectname WB;#P user ubumenu 50 208 91 196617 0 1 1 0;#X setrgb 255 255 255 121 45 45 216 152 147 4 4 4 141 141 141 112 112 112;#X add FullAuto;#X add Manual;#X add ShutterPriority;#X add Iris Priority;#X add Gain Priority;#X add Bright;#X add Shutter Auto;#X add Iris Auto;#X add Gain Auto;#X prefix_set 0 0 <none> 0;#X pattrmode 1;#P objectname mode;#P window setfont "Sans Serif" 10.;#P user ubumenu 183 210 68 196618 0 1 1 0;#X setrgb 255 255 255 66 66 66 140 140 140 4 4 4 141 141 141 112 112 112;#X add <none>;#X add pastel;#X add neg.art;#X add sepia;#X add B&W;#X add solarize;#X add mosaic;#X add slim;#X add stretch;#X prefix_set 0 0 <none> 0;#X pattrmode 1;#P objectname picEx;#P user multiSlider 46 63 162 15 0. 28672. 1 2664 47 0 0 2 0 0 1;#M frgb 255 255 255;#M brgb 106 151 255;#M rgb2 127 127 127;#M rgb3 0 0 0;#M rgb4 37 52 91;#M rgb5 74 105 182;#M rgb6 112 158 18;#M rgb7 149 211 110;#M rgb8 187 9 201;#M rgb9 224 62 37;#M rgb10 7 114 128;#P objectname zoomslider;#P window setfont "Sans Serif" 9.;#P user ubumenu 177 87 72 196617 0 1 1 0;#X add AF Sens high;#X add AF Sens low;#X prefix_set 0 0 <none> 0;#X pattrmode 1;#P objectname AFsens;#P message 122 182 41 196617 Infinity;#P objectname infinity;#P message 165 182 85 196617 One Push Trigger;#P objectname onepush;#P number 141 128 35 9 0 7 3 3 0 0 0 221 221 221 222 222 222 0 0 0;#P objectname focusvarispeed;#P user ubumenu 60 126 40 196617 0 1 1 0;#X add Far;#X add Near;#X prefix_set 0 0 <none> 0;#X pattrmode 1;#P objectname focusnearmenu2;#P user ubumenu 60 108 40 196617 0 1 1 0;#X add Far;#X add Near;#X prefix_set 0 0 <none> 0;#X pattrmode 1;#P objectname focusnearfar;#P message 218 105 30 196617 Stop;#B color 13;#P objectname focusstop;#P message 221 43 30 196617 Stop;#B color 13;#P objectname zoomstop;#P number 128 43 29 9 0 7 35 3 0 0 0 255 255 255 222 222 222 0 0 0;#P objectname zoomspeed;#P user ubumenu 151 105 42 196617 0 1 1 0;#X setrgb 31 31 31 255 255 255 234 234 234 4 4 4 141 141 141 112 112 112;#X add Tele;#X add Wide;#X prefix_set 0 0 <none> 0;#X pattrmode 1;#P objectname zoom_telewide;#P user ubumenu 151 19 100 196617 0 1 1 0;#X setrgb 255 255 255 128 0 0 234 234 234 4 4 4 141 141 141 112 112 112;#X add D-Zoom off;#X add D-Zoom on;#X prefix_set 0 0 <none> 0;#X pattrmode 1;#P objectname zoomOI;#P user panel 2 330 254 4;#X brgb 223 223 223;#X frgb 116 116 116;#X border 1;#X rounded 5;#X shadow 0;#X done;#P hidden newex 1118 154 77 196617 pvar zoomtype;#P hidden newex 1118 176 270 196617 variedit $1/zoom/speed/sw $1;#B color 12;#P hidden newex 1118 259 82 196617 pvar zoomspeed;#P hidden newex 1118 281 271 196617 variedit $1/zoom/speed $1;#B color 12;#P comment 158 45 66 196617 /speed/stop;#B frgb 0 0 222;#P number 209 63 42 9 0 16384 35 3 0 0 0 255 255 255 222 222 222 0 0 0;#P objectname zoomvalue;#P comment 102 165 67 196617 (4096-near);#B frgb 255 255 255;#P user multiSlider 38 164 161 15 0. 1000. 1 2664 47 0 0 2 0 0 1;#M frgb 255 255 255;#M brgb 204 85 28;#M rgb2 127 127 127;#M rgb3 0 0 0;#M rgb4 37 52 91;#M rgb5 74 105 182;#M rgb6 112 158 18;#M rgb7 149 211 110;#M rgb8 187 9 201;#M rgb9 224 62 37;#M rgb10 7 114 128;#P objectname focusslider;#P user panel 2 84 251 120;#X brgb 255 255 255;#X frgb 116 116 116;#X border 1;#X rounded 5;#X shadow 0;#X done;#P bpatcher 1 0 256 372 0 0 bkgnd6.mxt 0 $1;#P hidden newex 168 479 88 196617 s $1/mem/reset;#P hidden connect 158 0 157 0;#P hidden connect 159 0 156 0;#P hidden connect 48 0 39 0;#P hidden fasten 97 0 100 0 328 214 317 214 317 166 328 166;#P hidden connect 32 1 100 0;#P hidden connect 100 0 97 0;#P hidden fasten 99 0 102 0 328 271 319 271 319 220 328 220;#P hidden fasten 103 0 99 0 416 245 328 245;#P hidden connect 102 0 99 0;#P hidden fasten 79 0 80 0 331 55 319 55 319 5 331 5;#P hidden connect 80 0 79 0;#P hidden fasten 85 0 86 0 331 108 319 108 319 58 331 58;#P hidden connect 86 0 85 0;#P hidden fasten 83 0 84 0 331 161 319 161 319 111 331 111;#P hidden connect 84 0 83 0;#P hidden fasten 132 0 131 0 340 458 328 458 328 412 340 412;#P hidden connect 131 0 132 0;#P hidden fasten 134 0 133 0 340 510 328 510 328 464 340 464;#P hidden connect 133 0 134 0;#P hidden fasten 136 0 135 0 340 562 328 562 328 516 340 516;#P hidden connect 135 0 136 0;#P hidden fasten 138 0 137 0 340 614 328 614 328 568 340 568;#P hidden connect 137 0 138 0;#P hidden fasten 142 0 141 0 340 706 328 706 328 660 340 660;#P hidden connect 141 0 142 0;#P hidden fasten 140 0 139 0 340 756 328 756 328 710 340 710;#P hidden connect 139 0 140 0;#P hidden fasten 146 0 145 0 340 814 328 814 328 768 340 768;#P hidden connect 145 0 146 0;#P hidden fasten 144 0 143 0 340 864 328 864 328 818 340 818;#P hidden connect 143 0 144 0;#P hidden connect 97 1 32 0;#P hidden connect 32 0 31 0;#P hidden connect 31 0 52 0;#P hidden connect 52 0 98 0;#P hidden connect 98 0 101 0;#P hidden fasten 99 2 103 0 568 275 576 275 576 223 416 223;#P hidden connect 99 1 32 1;#P hidden connect 99 1 98 1;#P hidden connect 99 1 31 1;#P hidden connect 42 0 43 0;#P hidden connect 37 0 36 0;#P hidden connect 36 0 37 0;#P hidden fasten 89 0 90 0 615 162 603 162 603 112 615 112;#P hidden connect 90 0 89 0;#P hidden fasten 35 0 30 0 615 358 604 358 604 310 615 310;#P hidden connect 30 0 35 0;#P hidden fasten 113 0 112 0 616 418 607 418 607 368 610 368 616 368;#P hidden connect 112 0 113 0;#P hidden fasten 118 0 117 0 616 472 607 472 607 422 610 422 616 422;#P hidden connect 117 0 118 0;#P hidden fasten 107 0 106 0 616 525 607 525 607 475 610 475 616 475;#P hidden connect 106 0 107 0;#P hidden fasten 120 0 119 0 616 577 607 577 607 527 610 527 616 527;#P hidden connect 119 0 120 0;#P hidden fasten 38 0 34 0 616 627 604 627 604 581 616 581;#P hidden connect 34 0 38 0;#P hidden connect 45 0 44 0;#P hidden connect 47 0 46 0;#P hidden connect 54 0 53 0;#P hidden connect 41 0 40 0;#P hidden connect 56 0 55 0;#P hidden connect 50 0 51 0;#P hidden connect 152 0 153 0;#P hidden connect 153 0 151 0;#P hidden connect 151 0 155 0;#P hidden fasten 148 1 147 0 964 576 899 576 899 516 912 516;#P hidden connect 153 2 148 0;#P hidden connect 154 0 148 0;#P hidden connect 155 0 148 0;#P hidden connect 147 0 148 0;#P hidden connect 153 1 154 0;#P hidden fasten 57 0 58 0 1123 90 1111 90 1111 40 1123 40;#P hidden connect 58 0 57 0;#P hidden fasten 59 0 60 0 1123 145 1111 145 1111 95 1123 95;#P hidden connect 60 0 59 0;#P hidden fasten 9 0 10 0 1123 199 1111 199 1111 149 1123 149;#P hidden connect 10 0 9 0;#P hidden fasten 61 0 62 0 1123 251 1111 251 1111 201 1123 201;#P hidden connect 62 0 61 0;#P hidden fasten 7 0 8 0 1123 304 1111 304 1111 254 1123 254;#P hidden connect 8 0 7 0;#P hidden fasten 63 0 64 0 1123 357 1111 357 1111 307 1123 307;#P hidden connect 73 0 64 0;#P hidden connect 64 0 63 0;#P hidden fasten 65 0 63 0 1216 331 1123 331;#P hidden fasten 70 0 71 0 1123 410 1111 410 1111 360 1123 360;#P hidden connect 71 0 70 0;#P hidden connect 75 0 74 0;#P hidden fasten 63 2 65 0 1383 355 1394 355 1394 306 1216 306;#P hidden connect 73 1 65 0;#P pop;