max v2;#N vpatcher 580 153 987 494;#P origin 0 -21;#N comlet center Y;#P inlet 274 95 15 0;#N comlet center X;#P inlet 70 162 15 0;#N comlet croper size;#P inlet 31 162 15 0;#P window setfont "Sans Serif" 9.;#P message 154 57 14 196617 0;#P newex 154 96 27 196617 + 1;#P toggle 154 76 15 0;#P newex 154 119 130 196617 gate 2;#P newex 154 142 29 196617 thru;#P newex 274 214 52 196617 + 0.;#P newex 30 228 27 196617 + 0.;#P newex 274 262 99 196617 s $1/crop/top;#P newex 154 262 108 196617 s $1/crop/bottom;#P newex 30 262 107 196617 s $1/crop/right;#P newex 10 304 79 196617 s $1/crop/left;#P newex 274 180 30 196617 !- 1.;#P newex 154 37 48 196617 loadbang;#B color 9;#P connect 14 0 2 0;#P connect 14 0 6 0;#P connect 6 0 3 0;#P connect 13 0 6 1;#P connect 0 0 12 0;#P connect 12 0 10 0;#P connect 10 0 11 0;#P connect 11 0 9 0;#P connect 9 0 8 0;#P connect 8 0 4 0;#P connect 1 0 4 0;#P connect 15 0 9 1;#P connect 9 1 1 0;#P connect 1 0 7 0;#P connect 8 0 7 0;#P connect 7 0 5 0;#P connect 13 0 7 1;#P pop;