max v2;#N vpatcher 392 83 1315 814;#P window setfont "Sans Serif" 9.;#P window linecount 2;#P newex 575 482 261 196617 sprintf ** ---------------------------------------- %s ----------------------------------------;#N comlet raw param out;#P outlet 629 671 15 0;#P window linecount 1;#P message 461 628 18 196617 \\\;;#P newex 445 565 47 196617 t b set b;#P newex 482 649 75 196617 prepend append;#P window linecount 0;#P message 482 628 216 196617;#P window linecount 1;#P message 133 224 65 196617 refer empty;#P newex 256 146 144 196617 sprintf refer %s/switchstate;#P newex 182 115 64 196617 t s b dump s;#P newex 422 430 56 196617 t s dump s;#N coll empty 1;#P newobj 671 85 66 196617 coll empty 1;#B color 5;#P message 600 86 65 196617 refer empty;#P button 525 42 15 0;#P newex 525 61 161 196617 t b b set;#P newex 445 512 65 196617 route symbol;#P newex 445 601 75 196617 prepend append;#P newex 445 544 35 196617 t b l;#P newex 483 544 65 196617 route symbol;#N coll empty;#P newobj 445 482 125 196617 coll;#B color 5;#P newex 47 226 51 196617 zl ecils 4;#P newex 45 448 36 196617 zl reg;#P newex 25 418 30 196617 t s b;#N coll empty;#P newobj 11 391 53 196617 coll;#B color 5;#P newex 31 370 110 196617 sprintf refer %s/data;#P newex 11 345 70 196617 t dump s;#P newex 11 302 29 196617 gate;#P newex 47 205 41 196617 t l 0;#P newex 88 272 21 196617 t 1;#P newex 88 251 109 196617 match 47 109 97 112;#P newex 30 169 27 196617 t l l;#P newex 11 323 40 196617 itoa;#P newex 218 322 46 196617 t dump l;#N coll empty;#P newobj 218 398 110 196617 coll;#B color 5;#P newex 254 365 114 196617 sprintf refer %s/state;#P newex 254 343 40 196617 itoa;#P newex 218 288 51 196617 zl ecils 3;#P newex 218 264 40 196617 atoi;#P newex 218 218 32 196617 sel 1;#P newex 218 241 46 196617 zl reg;#P newex 277 200 69 196617 route symbol;#P newex 218 198 27 196617 > 0;#N coll empty;#P newobj 218 178 188 196617 coll;#B color 5;#P newex 525 318 40 196617 itoa;#P newex 525 288 51 196617 zl ecils 3;#P newex 525 267 40 196617 atoi;#P newex 570 217 31 196617 == 1;#P newex 525 197 55 196617 unpack s 0;#P newex 525 245 29 196617 gate;#P comment 669 347 109 196617 contact@tommays.net;#P comment 669 334 100 196617 patch by Tom Mays;#P window linecount 2;#P comment 641 299 167 196617 arg 1 : name of coll containing switchstate info \;;#N comlet bang to trigger;#P inlet 525 23 15 0;#N comlet to text;#P outlet 482 671 15 0;#P window linecount 1;#P newex 468 453 114 196617 sprintf refer %s/state;#P newex 525 152 35 196617 zl join;#P newex 525 173 42 196617 zl rot 1;#P newex 550 129 65 196617 route symbol;#P message 525 86 31 196617 dump;#N coll $1 1;#P newobj 525 106 192 196617 coll $1 1;#B color 5;#P connect 31 0 33 0;#P connect 32 1 33 0;#P connect 33 0 28 0;#P connect 50 0 34 0;#P connect 28 0 34 0;#P connect 47 0 36 0;#P lcolor 1;#P connect 35 0 36 0;#P connect 34 0 36 0;#P connect 52 0 36 0;#P lcolor 1;#P connect 36 1 37 0;#P fasten 23 0 29 0 223 313 205 313 205 155 35 155;#P connect 29 0 33 1;#P connect 34 1 35 0;#P connect 37 1 38 0;#P connect 29 1 32 0;#P connect 32 0 39 0;#P connect 34 1 38 1;#P connect 39 1 30 0;#P connect 30 0 31 0;#P connect 50 1 52 0;#P fasten 49 0 50 0 427 452 417 452 417 109 187 109;#P connect 47 0 17 0;#P lcolor 1;#P connect 50 2 17 0;#P connect 51 0 17 0;#P connect 17 0 18 0;#P connect 18 0 21 0;#P connect 21 0 20 0;#P connect 20 0 22 0;#P connect 22 0 23 0;#P connect 23 0 27 0;#P connect 47 0 26 0;#P lcolor 1;#P connect 27 0 26 0;#P connect 25 0 26 0;#P connect 19 0 20 1;#P connect 27 1 24 0;#P connect 24 0 25 0;#P connect 50 3 51 0;#P connect 17 1 19 0;#P connect 16 0 49 0;#P connect 47 0 40 0;#P lcolor 1;#P connect 5 0 40 0;#P connect 49 1 40 0;#P connect 40 0 44 0;#P fasten 36 0 44 0 16 505 450 505;#P lcolor 7;#P connect 26 0 44 0;#P fasten 58 0 42 0 580 536 450 536;#P connect 44 1 42 0;#P connect 44 0 42 0;#P connect 42 0 55 0;#P connect 42 1 43 0;#P connect 38 0 43 0;#P connect 41 0 43 0;#P connect 55 0 56 0;#P connect 49 2 5 0;#P connect 45 2 53 0;#P connect 43 0 53 0;#P connect 55 2 53 0;#P connect 55 1 53 0;#P connect 53 0 54 0;#P connect 56 0 54 0;#P connect 54 0 6 0;#P connect 40 1 41 0;#P connect 37 0 41 0;#P lcolor 6;#P connect 26 1 41 0;#P lcolor 13;#P connect 7 0 46 0;#P connect 46 0 45 0;#P connect 45 0 1 0;#P connect 1 0 0 0;#P connect 0 0 4 0;#P connect 4 0 3 0;#P connect 3 0 12 0;#P connect 13 0 11 0;#P connect 11 0 14 0;#P connect 14 0 15 0;#P connect 15 0 16 0;#P connect 12 0 11 1;#P connect 0 1 2 0;#P connect 2 0 4 1;#P connect 12 1 13 0;#P connect 49 2 58 0;#P connect 45 1 47 0;#P fasten 53 0 57 0 487 645 634 645;#P pop;