max v2;#N vpatcher 118 303 1185 741;#P window setfont "Sans Serif" 9.;#P window linecount 1;#P newex 758 253 62 196617 projectpath;#B color 6;#P newex 508 162 62 196617 projectpath;#B color 6;#P window setfont Times 9.;#P newex 758 319 57 1310729 prepend read;#P newex 758 299 47 1310729 tosymbol;#P newex 508 262 61 1310729 prepend write;#P newex 508 242 47 1310729 tosymbol;#P newex 521 35 69 1310729 pvar storeactive;#P window setfont "Sans Serif" 9.;#P newex 567 78 50 196617 deferlow;#P window setfont Times 9.;#P newex 508 222 146 1310729 sprintf %sconfig/temp/%s-temp.txt;#P newex 521 57 18 1310729 t b;#N comlet pvar store;#P inlet 480 59 15 0;#P newex 480 82 67 1310729 t b b b;#P button 536 108 15 0;#P window setfont "Sans Serif" 9.;#P window linecount 3;#P comment 567 97 116 196617 read again without qlist trigger to remove path from qlist name;#P window linecount 1;#P newex 796 164 51 196617 zl slice 1;#P newex 796 188 40 196617 itoa;#P newex 796 144 85 196617 substitute 47 45;#P newex 796 124 40 196617 atoi;#P window setfont Times 9.;#P newex 758 85 48 1310729 t b b;#P newex 758 278 146 1310729 sprintf %sconfig/temp/%s-temp.txt;#P newex 960 60 18 1310729 t b;#P message 796 106 56 1310729 $1;#P newex 758 61 45 1310729 loadbang;#P comment 2 36 105 1310729 $2;#P comment 2 24 105 1310729 $1;#P window setfont "Sans Serif" 9.;#P comment 6 184 109 196617 contact@tommays.net;#P comment 6 171 100 196617 patch by Tom Mays;#P window setfont Times 9.;#P newex 272 320 35 1310729 t read b;#P newex 272 299 75 1310729 pvar recallarchive;#P message 40 86 28 1310729 recall;#B color 7;#P objectname recallarchive;#P comment 7 73 95 1310729 ---- archive presets ----;#P newex 135 193 74 1310729 pvar writearchive;#P message 12 86 27 1310729 write;#B color 13;#P objectname writearchive;#P newex 223 182 79 1310729 activeparams $2 1;#B color 6;#P message 11 58 28 1310729 store;#B color 2;#P objectname storeactive;#P message 69 58 28 1310729 open;#B color 9;#P objectname openactive;#P window setfont Times 18.;#P comment 1 5 109 1310738 active params;#P window setfont Times 9.;#P window linecount 2;#P comment 1 123 229 1310729 arg 1 : x_activeparams prefix name (i.e. activeparams) \; arg 2 : switch coll name (i.e. /x/switchstate) \;;#P window linecount 1;#P newex 960 36 71 1310729 pvar recallactive;#P newex 238 373 41 1310729 onebang;#P newex 237 231 69 1310729 pvar openactive;#P message 40 58 28 1310729 recall;#B color 7;#P objectname recallactive;#P button 208 232 15 0;#N qlist;#P newobj 208 349 40 1310729 qlist;#P comment 7 45 95 1310729 ------ temp preset -------;#P user panel 1 1 107 107;#X brgb 235 235 235;#X frgb 198 198 198;#X border 1;#X rounded 4;#X shadow 2;#X done;#P background;#P fasten 6 0 3 0 243 394 198 394 198 226 213 226;#P fasten 12 0 2 0 228 256 213 256;#P connect 14 0 2 0;#P fasten 18 0 2 0 277 342 213 342;#P lcolor 1;#P fasten 5 0 2 0 242 256 213 256;#P connect 3 0 2 0;#P fasten 41 0 2 0 513 287 213 287;#P fasten 43 0 2 0 763 345 213 345;#P lcolor 4;#P connect 33 0 12 0;#P connect 2 2 6 0;#P fasten 25 0 6 1 965 352 274 352;#P fasten 18 1 6 1 302 352 274 352;#P connect 17 0 18 0;#P fasten 36 0 34 0 526 78 485 78;#P connect 35 0 34 0;#P connect 34 1 44 0;#P connect 44 0 37 0;#P connect 37 0 40 0;#P connect 40 0 41 0;#P connect 39 0 36 0;#P connect 34 2 33 0;#P connect 34 0 38 0;#P connect 30 0 37 1;#P fasten 25 0 27 0 965 81 763 81;#P connect 23 0 27 0;#P connect 38 0 27 0;#P connect 27 0 45 0;#P connect 45 0 26 0;#P connect 26 0 42 0;#P connect 42 0 43 0;#P connect 27 1 24 0;#P connect 24 0 28 0;#P connect 28 0 29 0;#P connect 29 0 31 0;#P fasten 29 1 30 0 876 184 801 184;#P fasten 31 1 30 0 842 184 801 184;#P connect 30 0 26 1;#P connect 7 0 25 0;#P pop;