max v2;#N vpatcher 10 249 614 397;#P origin -56 -31;#P window setfont "Sans Serif" 9.;#P window linecount 1;#P newex 169 59 322 196617 tm_storeactivepath.mxt $1 $2 bogusactive bogusactive bogusactive;#B color 6;#P window setfont Times 9.;#P newex 325 26 69 1310729 pvar openactive;#P newex 403 26 74 1310729 pvar writearchive;#P newex 169 26 69 1310729 pvar storeactive;#P newex 481 26 75 1310729 pvar recallarchive;#P newex 247 26 71 1310729 pvar recallactive;#P comment 16 15 100 1310729 sw : $2;#B frgb 60 100 255;#P comment 28 34 37 1310729 presets;#P message 88 30 28 1310729 recall;#B color 7;#P objectname recallarchive;#P comment 28 27 38 1310729 archive;#P message 60 30 27 1310729 write;#B color 13;#P objectname writearchive;#P message 3 2 14 1310729 S;#B color 2;#P objectname storeactive;#P message 3 30 14 1310729 O;#B color 9;#P objectname openactive;#P window setfont Times 14.;#P comment 26 0 85 1310734 active params;#P window setfont Times 9.;#P message 3 16 14 1310729 R;#B color 7;#P objectname recallactive;#P user panel 0 0 119 48;#X brgb 235 235 235;#X frgb 128 128 128;#X border 1;#X rounded 4;#X shadow 2;#X done;#P window setfont "Sans Serif" 9.;#P comment 11 89 109 196617 contact@tommays.net;#P comment 11 76 100 196617 patch by Tom Mays;#P window setfont Times 9.;#P window linecount 2;#P comment 209 91 231 1310729 arg 1 : activeparams prefix name (i.e. activeparams) \; arg 2 : switch coll name (i.e. switchstate) \;;#P connect 15 0 18 0;#P connect 13 0 18 1;#P connect 17 0 18 2;#P connect 16 0 18 3;#P connect 14 0 18 4;#P pop;