max v2;#N vpatcher 80 48 588 518;#P window setfont "Sans Serif" 9.;#P window linecount 1;#P newex 74 295 36 196617 zl reg;#P newex 12 269 65 196617 route symbol;#P message 12 338 18 196617 \\\;;#P newex 12 364 75 196617 prepend append;#P newex 12 317 35 196617 t b l;#P newex 50 317 65 196617 route symbol;#P newex 50 174 111 196617 zl reg;#P newex 180 299 27 196617 t l l;#P newex 50 195 110 196617 sprintf refer %s/data;#P newex 50 246 34 196617 t s b;#N coll ;#P newobj 12 220 125 196617 coll;#B color 5;#P newex 12 149 48 196617 t dump b;#P newex 12 128 109 196617 match 47 109 97 112;#P comment 319 347 109 196617 contact@tommays.net;#P comment 319 334 100 196617 patch by Tom Mays;#P number 236 257 35 9 0 0 0 3 0 0 0 221 221 221 222 222 222 0 0 0;#P message 381 218 14 196617 3;#P message 366 218 14 196617 5;#P newex 366 197 40 196617 sel 0 1;#P newex 366 144 45 196617 loadbang;#P message 366 166 21 196617 $2;#P window linecount 4;#P comment 271 33 167 196617 arg 1 : name of coll containing mute or switch state info \; arg 2 : 0 for mute state detecting \, 1 for switch state detecting.;#N comlet bang to trigger;#P inlet 214 36 15 0;#N comlet to comment or message box;#P outlet 197 428 15 0;#P window linecount 1;#P newex 226 366 87 196617 sprintf %s/state;#P newex 197 346 39 196617 t b s;#P newex 197 403 77 196617 makeqlistnoset;#B color 6;#P newex 197 326 27 196617 itoa;#P newex 197 275 49 196617 zl ecils 5;#P newex 259 202 29 196617 == 0;#P newex 197 254 27 196617 atoi;#P newex 197 234 27 196617 gate;#P newex 214 180 55 196617 unpack s 0;#P newex 214 138 35 196617 zl join;#P newex 214 159 42 196617 zl rot 1;#P newex 239 116 65 196617 route symbol;#P message 214 75 31 196617 dump;#N coll $1 1;#P newobj 214 93 132 196617 coll $1 1;#B color 5;#P fasten 30 0 25 0 185 321 174 321 174 120 17 120;#P connect 25 0 26 0;#P connect 26 0 27 0;#P connect 29 0 27 0;#P connect 27 0 36 0;#P connect 36 0 33 0;#P connect 36 1 33 0;#P connect 33 0 35 0;#P fasten 37 0 34 0 79 358 17 358;#P connect 35 0 34 0;#P fasten 33 1 34 0 42 358 17 358;#P fasten 32 0 34 0 55 358 17 358;#P connect 26 1 31 0;#P connect 31 0 29 0;#P connect 27 1 28 0;#P connect 28 0 32 0;#P connect 28 1 37 0;#P connect 12 1 37 1;#P lcolor 2;#P connect 12 1 31 1;#P lcolor 2;#P connect 9 0 30 0;#P connect 8 0 6 0;#P connect 6 0 7 0;#P connect 7 0 9 0;#P connect 30 1 10 0;#P connect 10 0 12 0;#P connect 12 0 11 0;#P fasten 34 0 14 0 17 424 202 424;#P connect 11 0 14 0;#P connect 15 0 1 0;#P connect 1 0 0 0;#P connect 0 0 4 0;#P connect 4 0 3 0;#P connect 3 0 5 0;#P connect 5 0 6 1;#P connect 12 1 13 0;#P connect 20 0 22 0;#P connect 21 0 22 0;#P connect 22 0 9 1;#P connect 0 1 2 0;#P connect 2 0 4 1;#P connect 5 1 8 0;#P fasten 13 0 11 1 231 393 269 393;#P connect 17 0 8 1;#P connect 18 0 17 0;#P connect 17 0 19 0;#P connect 19 0 20 0;#P connect 19 1 21 0;#P pop;