max v2;#N vpatcher 248 74 1146 742;#P window setfont "Sans Serif" 9.;#P window linecount 2;#P newex 578 483 261 196617 sprintf ** ---------------------------------------- %s ----------------------------------------;#P window linecount 1;#P message 133 224 65 196617 refer empty;#P newex 256 146 144 196617 sprintf refer %s/switchstate;#P newex 182 115 64 196617 t s b dump s;#P newex 422 430 56 196617 t s dump s;#P newex 506 375 51 196617 zl ecils 5;#P newex 506 354 40 196617 atoi;#P newex 506 332 29 196617 gate;#N coll empty 1;#P newobj 671 85 66 196617 coll empty 1;#B color 5;#P message 600 86 65 196617 refer empty;#P button 525 42 15 0;#P newex 525 61 85 196617 t b b;#P newex 445 512 65 196617 route symbol;#P message 445 565 18 196617 \\\;;#P newex 445 601 75 196617 prepend append;#P newex 445 544 35 196617 t b l;#P newex 483 544 65 196617 route symbol;#N coll ;#P newobj 445 482 125 196617 coll;#B color 5;#P newex 47 226 51 196617 zl ecils 4;#P newex 45 448 36 196617 zl reg;#P newex 25 418 30 196617 t s b;#N coll ;#P newobj 11 391 53 196617 coll;#B color 5;#P newex 31 370 110 196617 sprintf refer %s/data;#P newex 11 345 70 196617 t dump s;#P newex 11 302 29 196617 gate;#P newex 47 205 41 196617 t l 0;#P newex 88 272 21 196617 t 1;#P newex 88 251 109 196617 match 47 109 97 112;#P newex 30 169 27 196617 t l l;#P newex 11 323 40 196617 itoa;#P newex 218 322 46 196617 t dump l;#N coll ;#P newobj 218 398 110 196617 coll;#B color 5;#P newex 254 365 114 196617 sprintf refer %s/state;#P newex 254 343 40 196617 itoa;#P newex 218 288 51 196617 zl ecils 3;#P newex 218 264 40 196617 atoi;#P newex 218 218 32 196617 sel 1;#P newex 218 239 36 196617 zl reg;#P newex 277 200 69 196617 route symbol;#P newex 218 198 27 196617 > 0;#N coll ;#P newobj 218 178 188 196617 coll;#B color 5;#P newex 445 405 40 196617 itoa;#P newex 445 375 51 196617 zl ecils 3;#P newex 445 354 40 196617 atoi;#P newex 525 284 55 196617 unpack s 0;#P newex 490 304 31 196617 == 1;#P newex 570 304 29 196617 == 0;#P newex 445 284 55 196617 unpack s 0;#P newex 445 332 29 196617 gate;#P newex 635 160 31 196617 t s 0;#P newex 491 256 44 196617 gate 2;#P newex 592 226 21 196617 t 1;#P newex 689 226 21 196617 t 2;#P newex 689 206 136 196617 match 47 109 117 116 101;#P newex 592 206 94 196617 match 47 115 119;#P newex 635 182 40 196617 atoi;#P comment 669 347 109 196617 contact@tommays.net;#P comment 669 334 100 196617 patch by Tom Mays;#P window linecount 2;#P comment 640 296 167 196617 arg 1 : name of coll containing mute or switch state info \;;#N comlet bang to trigger;#P inlet 525 23 15 0;#N comlet to qlist;#P outlet 445 625 15 0;#P window linecount 1;#P newex 468 453 114 196617 sprintf refer %s/state;#P newex 525 152 35 196617 zl join;#P newex 525 173 42 196617 zl rot 1;#P newex 550 129 65 196617 route symbol;#P message 525 86 31 196617 dump;#N coll $1 1;#P newobj 525 106 192 196617 coll $1 1;#B color 5;#P connect 41 1 42 0;#P connect 40 0 42 0;#P connect 42 0 37 0;#P connect 37 0 43 0;#P connect 63 0 43 0;#P connect 57 0 45 0;#P lcolor 1;#P connect 65 0 45 0;#P lcolor 1;#P connect 43 0 45 0;#P connect 44 0 45 0;#P connect 45 1 46 0;#P fasten 32 0 38 0 223 313 205 313 205 155 35 155;#P connect 38 0 42 1;#P connect 43 1 44 0;#P connect 46 1 47 0;#P connect 38 1 41 0;#P connect 41 0 48 0;#P connect 43 1 47 1;#P connect 48 1 39 0;#P connect 39 0 40 0;#P connect 63 1 65 0;#P fasten 62 0 63 0 427 452 417 452 417 109 187 109;#P connect 57 0 26 0;#P lcolor 1;#P connect 63 2 26 0;#P connect 64 0 26 0;#P connect 26 0 27 0;#P connect 27 0 30 0;#P connect 30 0 29 0;#P connect 29 0 31 0;#P connect 31 0 32 0;#P connect 32 0 36 0;#P connect 34 0 35 0;#P connect 36 0 35 0;#P connect 57 0 35 0;#P lcolor 1;#P connect 28 0 29 1;#P connect 36 1 33 0;#P connect 33 0 34 0;#P connect 63 3 64 0;#P connect 26 1 28 0;#P connect 25 0 62 0;#P connect 16 0 19 0;#P connect 21 0 18 0;#P connect 18 0 23 0;#P connect 23 0 24 0;#P fasten 61 0 25 0 511 399 450 399;#P connect 24 0 25 0;#P connect 5 0 49 0;#P connect 62 1 49 0;#P connect 49 0 54 0;#P connect 35 0 54 0;#P fasten 45 0 54 0 16 505 450 505;#P lcolor 7;#P fasten 66 0 51 0 583 536 450 536;#P connect 54 0 51 0;#P connect 54 1 51 0;#P connect 51 0 53 0;#P connect 47 0 52 0;#P connect 53 0 52 0;#P connect 51 1 52 0;#P connect 50 0 52 0;#P connect 52 0 6 0;#P connect 19 0 18 1;#P connect 62 2 5 0;#P connect 49 1 50 0;#P connect 35 1 50 0;#P lcolor 13;#P connect 46 0 50 0;#P lcolor 6;#P connect 19 1 21 0;#P connect 17 1 16 0;#P lcolor 1;#P connect 14 0 16 0;#P connect 15 0 16 0;#P connect 20 0 59 0;#P connect 59 0 60 0;#P connect 60 0 61 0;#P connect 7 0 56 0;#P connect 56 0 55 0;#P connect 55 0 1 0;#P connect 1 0 0 0;#P connect 0 0 4 0;#P connect 4 0 3 0;#P connect 3 0 16 1;#P connect 16 1 22 0;#P connect 22 0 59 1;#P connect 0 1 2 0;#P connect 2 0 4 1;#P connect 22 1 20 0;#P connect 62 2 66 0;#P connect 11 0 12 0;#P connect 12 0 15 0;#P connect 55 1 57 0;#P connect 2 0 17 0;#P connect 17 0 11 0;#P connect 11 0 13 0;#P connect 13 0 14 0;#P pop;