max v2;#N vpatcher 274 78 680 414;#P window setfont "Sans Serif" 9.;#P window linecount 1;#P comment 213 251 109 196617 contact@tommays.net;#P comment 213 238 100 196617 patch by Tom Mays;#P newex 50 143 65 196617 route symbol;#P message 50 189 18 196617 \\\;;#P newex 50 247 75 196617 prepend append;#P newex 50 168 35 196617 t b l;#P newex 88 168 65 196617 route symbol;#P outlet 50 287 15 0;#P newex 50 52 289 196617 b;#P message 329 97 22 196617 set;#P button 50 34 15 0;#N comlet bang to create message box;#P inlet 50 15 15 0;#P message 50 93 31 196617 dump;#N coll $1 1;#P newobj 50 120 125 196617 coll $1 1;#B color 5;#P window linecount 2;#P comment 180 116 134 196617 arg 1 : coll name for variable values;#P connect 3 0 4 0;#P connect 4 0 6 0;#P connect 6 0 2 0;#P connect 2 0 1 0;#P connect 1 0 12 0;#P connect 12 1 9 0;#P connect 12 0 9 0;#P connect 9 0 11 0;#P connect 8 0 10 0;#P connect 9 1 10 0;#P connect 11 0 10 0;#P connect 10 0 7 0;#P fasten 5 0 7 0 334 274 55 274;#P connect 1 1 8 0;#P connect 6 1 5 0;#P pop;