max v2;#N vpatcher 54 44 1324 894;#P origin -414 -853;#P window setfont Times 9.;#P window linecount 1;#P newex 786 153 47 1310729 tosymbol;#P newex 786 217 57 1310729 prepend read;#P newex 786 197 47 1310729 tosymbol;#P window setfont "Sans Serif" 9.;#P newex 1097 678 30 196617 r //;#P newex 1098 640 32 196617 r **;#P window setfont "Sans Serif" 14.;#N vpatcher 10 59 610 459;#P inlet 61 36 15 0;#P window setfont "Sans Serif" 9.;#P newex 301 263 45 196617 rounder;#P newex 301 243 41 196617 * 100.;#P newex 301 164 60 196617 unpack s 0.;#P newex 301 193 34 196617 sel @;#P newex 301 219 27 196617 f;#P newex 152 166 44 196617 zl rot 1;#P newex 152 146 51 196617 zl ecils 2;#P newex 133 340 47 196617 zl group;#P newex 133 364 140 196617 s /events/fromqlistmanager;#B color 12;#P newex 133 316 84 196617 route symbol int;#P newex 60 60 122 196617 t dump length dump clear;#N coll ;#P newobj 133 285 85 196617 coll;#P newex 111 125 51 196617 zl slice 1;#P newex 146 254 73 196617 sprintf %i %s;#N coll conduite 1;#P newobj 111 101 75 196617 coll conduite 1;#B color 5;#P connect 15 0 4 0;#P connect 4 2 0 0;#P fasten 0 0 2 0 116 123 116 123;#P connect 4 3 3 0;#P connect 4 1 3 0;#P connect 4 0 3 0;#P connect 1 0 3 0;#P connect 3 0 5 0;#P connect 5 0 7 0;#P connect 7 0 6 0;#P connect 14 0 1 0;#P connect 2 1 8 0;#P connect 8 0 9 0;#P connect 5 1 7 1;#P fasten 0 1 1 1 137 122 214 122;#P connect 9 0 12 0;#P connect 12 0 11 0;#P connect 11 0 10 0;#P connect 10 0 13 0;#P connect 13 0 14 0;#P fasten 12 1 10 1 356 213 323 213;#P pop;#P newobj 796 528 143 196622 p eventmotor_disp;#B color 7;#P button 496 150 15 0;#P button 553 103 15 0;#P button 629 78 15 0;#P window setfont "Sans Serif" 9.;#P newex 553 123 38 196617 del 50;#P newex 629 95 32 196617 del 1;#P newex 719 79 44 196617 del 100;#P button 482 35 15 0;#P newex 1143 646 86 196617 r **comment**;#B color 12;#P hidden newex 434 120 32 196617 sel 0;#P hidden newex 298 121 32 196617 sel 0;#P newex 1216 349 95 196617 pvar newcuebutton;#B color 14;#N vpatcher 757 45 1082 758;#P origin -142 44;#P window setfont "Sans Serif" 9.;#P window linecount 1;#P newex 127 462 20 196617 t -;#P window linecount 0;#P newex 106 433 122 196617 route ** **comment**;#P newex 106 405 51 196617 route set;#P message 123 358 35 196617 line 1;#P newex 106 264 112 196617 t b s;#P newex 106 332 112 196617 sprintf read %s%s.txt;#N coll filepaths.txt 1;#P newobj 106 308 94 196617 coll filepaths.txt 1;#B color 5;#P message 106 286 40 196617 events;#P newex 106 377 40 196617 text;#P button 18 192 15 0;#N comlet done;#P outlet 18 213 15 0;#P newex 106 516 30 196617 t b s;#P newex 49 416 32 196617 del 1;#P newex 49 395 20 196617 t b;#P newex 49 437 50 196617 t resume;#P newex 82 180 37 196617 t next;#P newex 122 180 42 196617 t pause;#P number 82 124 35 9 0 0 0 3 0 0 0 221 221 221 222 222 222 0 0 0;#N coll conduite 1;#P newobj 82 100 83 196617 coll conduite 1;#B color 5;#P newex 82 150 50 196617 uzi;#P button 82 51 15 0;#P newex 82 76 111 196617 t length start;#P newex 106 236 78 196617 route symbol;#N coll conduite 1;#P newobj 82 210 83 196617 coll conduite 1;#B color 5;#N comlet to coll;#P outlet 106 650 15 0;#P inlet 82 27 15 0;#P newex 106 495 51 196617 tosymbol;#P newex 126 601 62 196617 prepend set;#P newex 106 625 40 196617 append;#P button 106 537 15 0;#P newex 106 556 133 196617 zl reg;#P newex 106 579 90 196617 sprintf nsub %s 1;#P connect 12 1 22 0;#P connect 22 0 21 0;#P connect 23 0 18 0;#P connect 18 0 19 0;#P connect 19 0 17 0;#P connect 6 0 11 0;#P connect 11 0 10 0;#P connect 10 0 13 0;#P connect 13 0 14 0;#P fasten 17 0 12 0 54 458 43 458 43 143 87 143;#P fasten 15 0 12 0 127 200 176 200 176 146 87 146;#P connect 14 0 12 0;#P connect 12 0 16 0;#P connect 16 0 8 0;#P fasten 10 1 8 0 188 205 87 205;#P connect 8 1 9 0;#P connect 9 0 27 0;#P connect 27 0 24 0;#P connect 24 0 25 0;#P connect 25 0 26 0;#P connect 26 0 23 0;#P connect 28 0 23 0;#P connect 23 0 29 0;#P connect 29 0 30 0;#P connect 31 0 5 0;#P connect 30 0 5 0;#P connect 5 0 20 0;#P connect 20 0 2 0;#P connect 2 0 1 0;#P connect 1 0 0 0;#P connect 0 0 3 0;#P connect 4 0 3 0;#P connect 3 0 7 0;#P connect 12 2 15 0;#P fasten 23 1 28 0 126 398 163 398 163 354 128 354;#P connect 20 1 4 0;#P connect 30 1 31 0;#P connect 30 2 31 0;#P connect 27 1 26 1;#P fasten 9 0 1 1 111 259 234 259;#P pop;#P newobj 630 277 146 196617 p comment et pos-> sequentiel;#B color 6;#P newex 262 681 38 196617 del 10;#P message 371 702 23 196617 0 0;#P newex 327 671 30 196617 t b b;#P button 288 646 15 0;#P newex 153 663 21 196617 t 1;#P number 107 318 35 9 0 0 1 3 0 0 0 221 221 221 222 222 222 0 0 0;#P number 59 319 35 9 0 0 1 3 0 0 0 221 221 221 222 222 222 0 0 0;#P newex 59 344 58 196617 pack 0 0;#P message 59 366 79 196617 col \$2 width \$1;#P newex 125 498 114 196617 t b 0;#P message 276 708 81 196617 mode selmode 0;#P toggle 153 612 15 0;#P newex 248 627 32 196617 sel 0;#P newex 153 584 40 196617 change;#P newex 153 639 32 196617 sel 1;#P message 125 538 67 196617 interval 100;#P newex 125 562 66 196617 modifiers;#P message 153 692 90 196617 mode selmode \$1;#P user ubutton 231 118 61 20 0 2;#P objectname newcuebutton;#P message 304 205 56 196617 frgb 0 0 0;#P message 363 205 86 196617 frgb 0 146 207;#P newex 304 231 90 196617 pvar reorderlabel;#B color 14;#P message 117 205 56 196617 frgb 0 0 0;#P message 176 205 86 196617 frgb 0 146 207;#P newex 176 231 88 196617 pvar newcuelabel;#B color 14;#P window setfont "Sans Serif" 12.;#P comment 230 118 63 196620 new cue;#P objectname newcuelabel;#P window setfont "Sans Serif" 9.;#P window linecount 2;#P message 305 266 71 196617 \; $1/init bang \;;#P button 751 464 15 0;#P window linecount 1;#P newex 1034 502 58 196617 pvar stage;#B color 14;#P window linecount 2;#P message 644 305 87 196617 \; $0/reorder bang;#P window linecount 1;#P message 934 255 14 196617 0;#P window setfont "Sans Serif" 12.;#P newex 981 377 110 196620 conduite_events;#B color 6;#P button 236 333 15 0;#P window setfont "Sans Serif" 9.;#P newex 236 356 52 196617 s $1/init;#P message 567 586 104 196617 Atmospheres_00;#P newex 567 562 62 196617 prepend set;#P newex 543 424 40 196617 t b i b;#P message 592 472 60 196617 start \, bang;#P newex 543 471 40 196617 uzi;#P message 543 495 30 196617 next;#P newex 567 539 69 196617 route symbol;#B color 15;#P newex 543 402 44 196617 zl nth 2;#N coll conduite 1;#P newobj 543 518 75 196617 coll conduite 1;#B color 5;#P newex 510 414 29 196617 gate;#P toggle 510 320 15 0;#P newex 510 298 115 196617 r $0/cellblock/outgate;#B color 12;#P window setfont "Sans Serif" 12.;#P window linecount 2;#N vpatcher 426 61 1207 585;#P origin -118 0;#P window setfont "Sans Serif" 9.;#P window linecount 1;#P newex 472 380 27 196617 t b l;#P newex 522 300 62 196617 prepend set;#P newex 472 356 40 196617 append;#P newex 472 300 36 196617 zl reg;#P newex 472 330 90 196617 sprintf nsub %s 3;#P newex 330 72 22 196617 b 1;#P newex 491 209 30 196617 t b s;#P newex 491 183 69 196617 route symbol;#P newex 490 159 114 196617 dialog Cue in sequentiel;#P message 494 94 29 196617 play;#P newex 473 70 27 196617 b 2;#P newex 233 446 50 196617 del 1000;#P newex 233 477 110 196617 s $0/refreshcellblock;#B color 12;#P newex 281 425 27 196617 t b l;#P outlet 298 451 15 0;#P newex 265 199 30 196617 t b s;#P newex 331 345 62 196617 prepend set;#P newex 281 401 40 196617 append;#P newex 281 345 36 196617 zl reg;#P newex 281 375 90 196617 sprintf nsub %s 2;#P newex 265 173 69 196617 route symbol;#P newex 264 149 154 196617 dialog Cue Position In Sequentiel;#P newex 277 72 22 196617 b 1;#P inlet 324 226 15 0;#P newex 158 338 29 196617 t 1 l;#P newex 173 68 27 196617 b 2;#P newex 398 70 27 196617 b 2;#P newex 157 278 36 196617 zl reg;#P newex 175 401 61 196617 forward;#B color 12;#P newex 158 316 101 196617 sprintf send %s/%s;#P message 190 93 30 196617 open;#P message 415 97 38 196617 reload;#P comment 415 60 38 196617 reload;#P newex 173 36 461 196617 route 0 1 2 3 4 5;#P inlet 173 16 15 0;#P window linecount 0;#P comment 185 56 48 196617 nom;#P connect 25 0 8 0;#P connect 10 0 8 0;#P connect 9 0 8 0;#P fasten 8 0 6 0 162 314 163 314;#P connect 6 0 11 0;#P connect 1 0 2 0;#P connect 2 1 10 0;#P connect 11 0 7 0;#P connect 11 1 7 0;#P connect 12 0 8 1;#P connect 10 1 5 0;#P connect 35 0 24 0;#P connect 22 0 24 0;#P connect 24 0 23 0;#P connect 26 0 6 1;#P fasten 4 0 6 1 420 145 254 145;#P fasten 5 0 6 1 195 145 254 145;#P connect 13 0 14 0;#P connect 14 0 15 0;#P connect 15 0 20 0;#P connect 2 2 13 0;#P connect 20 0 17 0;#P connect 17 0 16 0;#P connect 16 0 18 0;#P connect 19 0 18 0;#P connect 18 0 22 0;#P connect 35 1 21 0;#P connect 22 1 21 0;#P connect 12 0 17 1;#P connect 2 3 30 0;#P connect 20 1 19 0;#P connect 2 4 9 0;#P connect 9 1 4 0;#P connect 29 0 32 0;#P connect 32 0 31 0;#P connect 31 0 33 0;#P connect 34 0 33 0;#P connect 33 0 35 0;#P connect 2 5 25 0;#P connect 30 0 27 0;#P connect 27 0 28 0;#P connect 28 0 29 0;#P connect 25 1 26 0;#P connect 12 0 32 1;#P connect 29 1 34 0;#P pop;#P newobj 510 605 67 196620 p open & reload;#B color 7;#P window setfont "Sans Serif" 9.;#P window linecount 1;#P newex 529 321 94 196617 r $0/cellblock;#B color 12;#P newex 529 378 78 196617 pvar cellblockq;#B color 14;#P message 630 343 103 196617 0 0 \, mode selmode 0;#N vpatcher 248 340 431 527;#P outlet 6 133 15 0;#P window setfont "Sans Serif" 9.;#P window linecount 1;#P message 20 99 53 196617 readagain;#P newex 20 76 38 196617 del 30;#P outlet 90 133 15 0;#P window linecount 0;#P newex 20 30 110 196617 r $0/reorder;#B color 12;#P newex 20 53 81 196617 t b writeagain b;#P message 90 77 52 196617 sort -1 1;#P connect 4 0 6 0;#P connect 2 0 1 0;#P connect 1 0 4 0;#P connect 4 0 5 0;#P connect 1 2 0 0;#P fasten 5 0 3 0 25 118 95 118;#P fasten 1 1 3 0 60 95 95 95;#P connect 0 0 3 0;#P pop;#P newobj 790 290 53 196617 p reorder;#B color 6;#P window linecount 2;#P message 629 114 87 196617 \; $0/reorder bang;#P window linecount 1;#P newex 1051 451 110 196617 s $0/refreshcellblock;#B color 12;#P newex 630 236 110 196617 r $0/refreshcellblock;#B color 12;#P window linecount 3;#P message 496 188 70 196617 \; $0/cellblock/outgate 1;#P window linecount 1;#P newex 496 168 50 196617 del 1000;#P newex 822 351 45 196617 onebang;#P number 1022 313 35 9 0 0 0 3 0 0 0 221 221 221 222 222 222 0 0 0;#P newex 1190 419 53 196617 t s b s 1;#P newex 1168 494 21 196617 t 1;#P newex 1168 471 44 196617 del 100;#P newex 1168 526 29 196617 gate;#P newex 1195 494 21 196617 t 0;#N coll conduite 1;#P newobj 1218 443 75 196617 coll conduite 1;#B color 5;#P button 630 258 15 0;#P button 948 444 15 0;#P newex 940 422 29 196617 thru;#P user textedit 1 113 225 138 32916 3 9;#P objectname newcuetxt;#P window linecount 2;#P newex 774 377 42 196617 route symbol;#P window linecount 1;#P newex 934 162 53 196617 closebang;#P newex 1189 251 30 196617 t s b;#P newex 1189 229 157 196617 r $0/loadcue/name;#B color 12;#P newex 961 229 157 196617 r $0/newcue/name;#B color 12;#P newex 774 419 157 196617 s $0/loadcue/name;#B color 12;#P window linecount 3;#P newex 822 374 58 196617 s $0/counter/reset;#B color 12;#P window linecount 1;#P newex 1042 180 159 196617 r $0/counter/reset;#B color 12;#P window linecount 4;#P message 461 235 146 196617 \; $0/cellblock/outgate 0 \; $0/cellblock mode selmode 1 \; $0/refreshcellblock bang \;;#P window linecount 1;#P newex 934 206 27 196617 b 2;#P newex 981 350 131 196617 sprintf script delete cue%i;#P newex 951 330 40 196617 uzi;#P message 719 140 33 196617 dump;#P message 934 185 33 196617 clear;#P newex 961 251 30 196617 t s b;#P newex 1190 376 81 196617 pvar newcuetxt;#B color 14;#P newex 482 14 103 196617 r $1/init;#B color 11;#P newex 940 401 191 196617 sprintf store %s " - " 999 - reload play;#N counter 1 999999;#X flags 0 0;#P newobj 981 278 123 196617 counter 1 999999;#P newex 482 53 392 196617 b 6;#P window setfont "Sans Serif" 12.;#N vpatcher 116 463 1134 844;#P origin 111 -19;#P window setfont "Sans Serif" 9.;#P window linecount 1;#P newex 67 113 66 196617 t l l l l l;#P message 456 220 84 196617 set ** - \\\; 1 \\\;;#N comlet text;#P inlet 892 39 15 0;#P window linecount 0;#P newex 61 214 30 196617 t b s;#P newex 61 178 115 196617 sprintf send %s/reload;#P newex 216 212 30 196617 t b s;#P newex 216 178 112 196617 sprintf send %s/write;#P newex 456 197 30 196617 t b s;#P newex 456 178 81 196617 sprintf send %s;#P newex 792 168 32 196617 * 20;#N comlet text;#P inlet 660 121 15 0;#P newex 613 92 30 196617 t b s;#P newex 643 166 27 196617 i;#N comlet to this patcher;#P outlet 661 238 15 0;#P newex 661 216 40 196617 t clear;#N comlet to this patcher;#P outlet 643 238 15 0;#N comlet text;#P inlet 357 43 15 0;#P newex 316 296 47 196617 forward;#P newex 643 191 309 196617 sprintf script new cue%ld newex 15 %ld 133 18000 qlistshell %s;#P fasten 16 0 14 0 897 70 66 70;#P lcolor 15;#P connect 18 0 14 0;#P connect 14 0 15 0;#P connect 2 0 18 0;#P connect 18 1 12 0;#P connect 12 0 13 0;#P connect 15 0 1 0;#P connect 15 1 1 0;#P connect 13 0 1 0;#P connect 13 1 1 0;#P connect 17 0 1 0;#P connect 11 1 1 0;#P connect 18 3 10 0;#P connect 2 0 10 0;#P connect 10 0 11 0;#P connect 11 0 17 0;#P connect 18 4 7 0;#P fasten 16 0 7 0 897 73 618 73;#P lcolor 15;#P fasten 7 0 6 0 618 146 648 146;#P connect 6 0 0 0;#P connect 0 0 3 0;#P connect 8 0 6 1;#P connect 0 0 4 0;#P connect 4 0 5 0;#P fasten 8 0 9 0 665 152 797 152;#P connect 9 0 0 1;#P fasten 7 1 0 2 638 114 946 114;#P pop;#P newobj 1115 350 85 196620 p qlistmaker;#B color 6;#P window setfont "Sans Serif" 9.;#P message 786 81 43 196617 project;#N coll filepaths 1;#P newobj 786 128 77 196617 coll filepaths 1;#B color 5;#P newex 786 175 145 196617 sprintf %sconfig/conduite.txt;#P message 655 208 58 196617 writeagain;#P window linecount 3;#P message 553 145 135 196617 \; $0/cellblock/outgate 0 \; $0/cellblock refer conduite;#P window linecount 1;#N coll conduite 1;#P newobj 774 329 75 196617 coll conduite 1;#B color 5;#P user jit.cellblock 1 1 433 109 3 9 1 1 47 22 0 1 1 0 1 0 1 0 1 0 0 0 255 255 255 0 0 0 0 0 0 255 255 255 0 0 0 247 247 247 0 0 0 1 2 0 0 0;#X col 0 layout 111 1 94 0 0 1 0 0 0 0 4 -1;#X col 5 layout 27 1 5 0 0 1 0 161 224 1 -1 -1;#X col 3 layout 13 1 0 0 0 1 0 0 0 1 -1 -1;#X col 2 layout 43 1 0 0 0 1 0 0 0 1 -1 -1;#X col 1 layout 188 1 83 22 0 1 0 0 0 -1 1 -1;#X col 4 layout 34 1 73 50 0 1 0 0 0 1 -1 -1;#P objectname cellblockq;#P newex 1168 549 147 196617 s $0/newcue/name;#B color 12;#P newex 1190 397 56 196617 route text;#P hidden user ubutton 369 118 61 20 0 2;#P window setfont "Sans Serif" 12.;#P hidden comment 370 118 57 196620 reorder;#P objectname reorderlabel;#P hidden connect 91 0 4 0;#P connect 93 0 92 0;#P connect 92 0 91 0;#P connect 94 0 92 1;#P hidden connect 81 0 77 0;#P hidden connect 102 0 77 0;#P connect 12 5 90 0;#P connect 90 0 84 0;#P connect 84 0 83 0;#P connect 83 2 86 0;#P connect 86 0 88 0;#P connect 90 1 88 0;#P connect 88 0 85 0;#P connect 85 0 95 0;#P connect 95 0 82 0;#P hidden connect 81 1 76 0;#P connect 76 0 75 0;#P connect 77 0 75 0;#P connect 67 0 66 0;#P connect 88 0 87 0;#P connect 97 0 99 0;#P connect 99 0 89 0;#P connect 87 0 96 0;#P hidden connect 81 3 102 0;#P hidden connect 1 0 80 0;#P hidden connect 103 0 80 0;#P connect 79 0 78 0;#P connect 80 0 78 0;#P hidden connect 1 0 73 0;#P connect 96 0 97 0;#P hidden connect 1 1 79 0;#P connect 97 1 98 0;#P hidden connect 1 3 103 0;#P connect 12 0 23 0;#P connect 15 0 105 0;#P connect 105 0 12 0;#P connect 108 0 111 0;#P connect 111 0 44 0;#P connect 44 0 45 0;#P connect 54 0 55 0;#P connect 55 0 56 0;#P connect 56 0 53 0;#P connect 82 0 51 0;#P connect 52 0 51 0;#P fasten 50 0 51 0 635 364 534 364;#P connect 98 0 51 0;#P connect 89 0 51 0;#P connect 51 0 56 1;#P fasten 51 0 58 0 534 398 548 398;#P connect 58 0 63 0;#P connect 63 0 61 0;#P connect 61 0 60 0;#P connect 60 0 57 0;#P fasten 62 0 57 0 597 514 548 514;#P connect 107 0 110 0;#P connect 110 0 108 0;#P connect 108 0 6 0;#P connect 57 1 59 0;#P connect 59 0 64 0;#P connect 64 0 65 0;#P fasten 61 1 65 0 563 491 647 491 647 580 572 580;#P connect 65 0 53 1;#P connect 63 1 61 1;#P connect 63 2 62 0;#P connect 106 0 109 0;#P connect 109 0 107 0;#P connect 107 0 48 0;#P connect 46 0 35 0;#P connect 35 0 100 0;#P connect 100 0 50 0;#P connect 100 0 70 0;#P fasten 34 0 7 0 953 467 627 467 627 205 660 205;#P lcolor 15;#P connect 12 3 106 0;#P connect 106 0 19 0;#P connect 49 0 72 0;#P fasten 19 0 5 0 724 228 779 228;#P connect 116 0 5 0;#P fasten 33 0 5 0 945 454 757 454 757 321 779 321;#P connect 100 1 5 0;#P fasten 7 0 5 0 660 228 779 228;#P connect 49 1 5 0;#P fasten 53 0 5 0 515 649 754 649 754 314 779 314;#P connect 5 1 31 0;#P connect 31 0 26 0;#P connect 12 4 10 0;#P connect 10 0 9 0;#P connect 9 0 117 0;#P connect 117 0 8 0;#P connect 8 0 115 0;#P connect 115 0 116 0;#P connect 72 0 112 0;#P connect 5 2 43 0;#P connect 43 0 25 0;#P connect 12 5 43 1;#P connect 12 5 18 0;#P connect 30 0 18 0;#P connect 18 0 22 0;#P connect 22 0 69 0;#P fasten 17 0 14 0 966 301 945 301;#P lcolor 7;#P connect 14 0 33 0;#P connect 33 0 34 0;#P connect 22 1 20 0;#P connect 27 0 17 0;#P connect 17 1 13 0;#P fasten 29 1 13 0 1214 272 986 272;#P fasten 13 0 20 1 986 311 986 311;#P connect 69 0 20 1;#P connect 20 2 21 0;#P fasten 11 0 68 0 1120 374 986 374;#P connect 21 0 68 0;#P connect 13 0 42 0;#P connect 24 0 13 2;#P connect 41 0 47 0;#P fasten 17 0 11 0 966 301 1120 301;#P lcolor 7;#P fasten 13 0 11 1 986 307 1157 307;#P connect 41 1 39 0;#P connect 39 0 40 0;#P connect 37 0 38 0;#P connect 40 0 38 0;#P connect 41 3 38 0;#P connect 38 0 3 0;#P connect 41 0 38 1;#P connect 28 0 29 0;#P connect 29 0 11 2;#P connect 101 0 16 0;#P connect 11 1 16 0;#P connect 16 0 2 0;#P fasten 2 0 41 0 1195 417 1195 417;#P connect 36 0 37 0;#P fasten 41 2 36 0 1223 439 1223 439;#P pop;