max v2;#N vpatcher 370 108 863 819;#P window setfont "Sans Serif" 9.;#N vpatcher 907 223 1245 425;#P window setfont "Sans Serif" 9.;#P newex 274 50 32 196617 sel 0;#P message 23 112 92 196617 frgb 147 147 147;#P message 150 108 80 196617 frgb 0 146 207;#N comlet from mouse up bang;#P inlet 23 62 15 0;#N comlet from right outlet;#P inlet 274 30 15 0;#N comlet from mouse down bang;#P inlet 150 58 15 0;#N comlet to panel;#P outlet 150 151 15 0;#P connect 6 0 5 0;#P connect 3 0 5 0;#P connect 1 0 4 0;#P connect 5 0 0 0;#P connect 4 0 0 0;#P connect 2 0 6 0;#P pop;#P hidden newobj 360 717 79 196617 p updowncolors;#B color 6;#N vpatcher 907 223 1245 425;#P window setfont "Sans Serif" 9.;#P window linecount 0;#P newex 274 50 32 196617 sel 0;#P message 23 112 92 196617 frgb 147 147 147;#P message 150 108 80 196617 frgb 0 146 207;#N comlet from mouse up bang;#P inlet 23 62 15 0;#N comlet from right outlet;#P inlet 274 30 15 0;#N comlet from mouse down bang;#P inlet 150 58 15 0;#N comlet to panel;#P outlet 150 151 15 0;#P connect 3 0 5 0;#P connect 6 0 5 0;#P connect 1 0 4 0;#P connect 4 0 0 0;#P connect 5 0 0 0;#P connect 2 0 6 0;#P pop;#P hidden newobj 236 719 79 196617 p updowncolors;#B color 6;#P button 1294 149 15 0;#P newex 1294 243 51 196617 tosymbol;#P newex 1294 268 68 196617 prepend read;#P newex 1294 196 62 196617 projectpath;#B color 6;#N vpatcher 10 59 610 459;#P outlet 154 65 15 0;#P inlet 155 39 15 0;#P connect 0 0 1 0;#P pop;#P newobj 1448 488 37 196617 p thru;#P newex 1156 387 38 196617 del 50;#P window linecount 2;#P message 1171 435 91 196617 \; $0/reorder bang \;;#P window linecount 1;#P message 1762 558 58 196617 writeagain;#P newex 480 735 37 196617 t open;#P newex 819 26 178 196617 editorwindow /qmanager /tapemovie;#B color 6;#P message 663 191 160 196617 window flags close \, window exec;#P hidden message 370 62 43 196617 nogrow;#P hidden message 337 62 33 196617 grow;#P message 665 148 170 196617 window flags nogrow \, window exec;#P button 665 129 15 0;#P button 718 107 15 0;#P message 718 127 160 196617 window flags grow \, window exec;#P inlet 916 86 15 0;#N thispatcher;#Q end;#P newobj 916 107 61 196617 thispatcher;#P button 514 176 15 0;#P number 595 184 35 9 0 0 1 3 0 0 0 221 221 221 222 222 222 0 0 0;#P number 547 185 35 9 0 0 1 3 0 0 0 221 221 221 222 222 222 0 0 0;#P newex 547 210 58 196617 pack 0 0;#P message 547 232 88 196617 row \$2 height \$1;#P newex 1605 744 30 196617 r //;#P newex 1606 706 32 196617 r **;#P window setfont "Sans Serif" 14.;#N vpatcher 10 59 466 481;#P button 105 30 15 0;#P inlet 61 36 15 0;#P window setfont "Sans Serif" 9.;#P newex 301 263 45 196617 rounder;#P newex 301 243 41 196617 * 100.;#P newex 301 164 60 196617 unpack s 0.;#P newex 301 193 31 196617 sel s;#P newex 301 219 27 196617 f;#P newex 152 166 44 196617 zl rot 1;#P newex 152 146 51 196617 zl ecils 3;#P newex 133 340 47 196617 zl group;#P newex 133 364 140 196617 s /events/fromqlistmanager;#B color 12;#P newex 133 316 84 196617 route symbol int;#P newex 60 60 122 196617 t dump length dump clear;#N coll ;#P newobj 133 285 85 196617 coll;#P newex 111 125 51 196617 zl slice 1;#P newex 146 254 73 196617 sprintf %i %s;#N coll conduite 1;#P newobj 111 101 75 196617 coll conduite 1;#B color 5;#P connect 15 0 4 0;#P connect 16 0 4 0;#P connect 4 2 0 0;#P fasten 0 0 2 0 116 123 116 123;#P connect 1 0 3 0;#P connect 4 0 3 0;#P connect 4 1 3 0;#P connect 4 3 3 0;#P connect 3 0 5 0;#P connect 5 0 7 0;#P connect 7 0 6 0;#P connect 14 0 1 0;#P connect 2 1 8 0;#P connect 8 0 9 0;#P connect 5 1 7 1;#P fasten 0 1 1 1 137 122 214 122;#P connect 9 0 12 0;#P connect 12 0 11 0;#P connect 11 0 10 0;#P connect 10 0 13 0;#P connect 13 0 14 0;#P fasten 12 1 10 1 356 213 323 213;#P pop;#P newobj 1304 594 143 196622 p eventmotor_disp;#B color 7;#P button 1004 216 15 0;#P button 1061 169 15 0;#P button 1137 144 15 0;#P window setfont "Sans Serif" 9.;#P newex 1061 189 38 196617 del 50;#P newex 1137 161 32 196617 del 1;#P newex 1227 145 44 196617 del 100;#P button 990 101 15 0;#P newex 1651 712 86 196617 r **comment**;#B color 12;#P newex 434 740 32 196617 sel 0;#P hidden newex 302 686 32 196617 sel 0;#P newex 1724 415 95 196617 pvar newcuebutton;#B color 14;#N vpatcher 757 45 1082 758;#P origin -142 44;#P window setfont "Sans Serif" 9.;#P window linecount 1;#P newex 127 462 20 196617 t -;#P window linecount 0;#P newex 106 433 122 196617 route ** **comment**;#P newex 106 405 51 196617 route set;#P message 123 358 35 196617 line 1;#P newex 106 264 112 196617 t b s;#P newex 106 332 112 196617 sprintf read %s%s.txt;#N coll filepaths 1;#P newobj 106 308 98 196617 coll filepaths 1;#B color 5;#P message 106 286 40 196617 events;#P newex 106 377 40 196617 text;#P button 18 192 15 0;#N comlet done;#P outlet 18 213 15 0;#P newex 106 516 30 196617 t b s;#P newex 49 416 32 196617 del 1;#P newex 49 395 20 196617 t b;#P newex 49 437 50 196617 t resume;#P newex 82 180 37 196617 t next;#P newex 122 180 42 196617 t pause;#P number 82 124 35 9 0 0 0 3 0 0 0 221 221 221 222 222 222 0 0 0;#N coll conduite 1;#P newobj 82 100 83 196617 coll conduite 1;#B color 5;#P newex 82 150 50 196617 uzi;#P button 82 51 15 0;#P newex 82 76 111 196617 t length start;#P newex 106 236 78 196617 route symbol;#N coll conduite 1;#P newobj 82 210 83 196617 coll conduite 1;#B color 5;#N comlet to coll;#P outlet 106 650 15 0;#P inlet 82 27 15 0;#P newex 106 495 51 196617 tosymbol;#P newex 126 601 62 196617 prepend set;#P newex 106 625 40 196617 append;#P button 106 537 15 0;#P newex 106 556 133 196617 zl reg;#P newex 106 579 90 196617 sprintf nsub %s 1;#P connect 12 1 22 0;#P connect 22 0 21 0;#P connect 23 0 18 0;#P connect 18 0 19 0;#P connect 19 0 17 0;#P connect 6 0 11 0;#P connect 11 0 10 0;#P connect 10 0 13 0;#P connect 13 0 14 0;#P connect 14 0 12 0;#P fasten 15 0 12 0 127 200 176 200 176 146 87 146;#P fasten 17 0 12 0 54 458 43 458 43 143 87 143;#P connect 12 0 16 0;#P fasten 10 1 8 0 188 205 87 205;#P connect 16 0 8 0;#P connect 8 1 9 0;#P connect 9 0 27 0;#P connect 27 0 24 0;#P connect 24 0 25 0;#P connect 25 0 26 0;#P connect 28 0 23 0;#P connect 26 0 23 0;#P connect 23 0 29 0;#P connect 29 0 30 0;#P connect 30 0 5 0;#P connect 31 0 5 0;#P connect 5 0 20 0;#P connect 20 0 2 0;#P connect 2 0 1 0;#P connect 1 0 0 0;#P connect 4 0 3 0;#P connect 0 0 3 0;#P connect 3 0 7 0;#P connect 12 2 15 0;#P fasten 23 1 28 0 126 398 163 398 163 354 128 354;#P connect 20 1 4 0;#P connect 30 2 31 0;#P connect 30 1 31 0;#P connect 27 1 26 1;#P fasten 9 0 1 1 111 259 234 259;#P pop;#P newobj 1138 343 146 196617 p comment et pos-> sequentiel;#B color 6;#P newex 770 747 32 196617 del 5;#P message 879 768 35 196617 -1 -1;#P newex 835 737 30 196617 t b b;#P button 796 712 15 0;#P newex 661 729 21 196617 t 1;#P number 602 108 35 9 0 0 1 3 0 0 0 221 221 221 222 222 222 0 0 0;#P number 554 109 35 9 0 0 1 3 0 0 0 221 221 221 222 222 222 0 0 0;#P newex 554 134 58 196617 pack 0 0;#P message 554 156 79 196617 col \$2 width \$1;#P newex 633 564 114 196617 t b 0;#P message 784 774 81 196617 mode selmode 0;#P toggle 661 678 15 0;#P newex 756 693 32 196617 sel 0;#P newex 661 650 40 196617 change;#P newex 661 705 32 196617 sel 1;#P hidden message 395 581 67 196617 interval 100;#P newex 633 628 66 196617 modifiers;#P message 661 758 90 196617 mode selmode \$1;#P user ubutton 235 686 61 20 0 2;#P objectname newcuebutton;#P message 812 271 56 196617 frgb 0 0 0;#P message 871 271 86 196617 frgb 0 146 207;#P newex 812 297 92 196617 pvar conduitelabel;#B color 14;#P message 625 271 56 196617 frgb 0 0 0;#P message 684 271 86 196617 frgb 0 146 207;#P newex 684 297 88 196617 pvar newcuelabel;#B color 14;#P window setfont "Sans Serif" 12.;#P comment 234 686 63 196620 new cue;#P objectname newcuelabel;#P button 1259 530 15 0;#P window setfont "Sans Serif" 9.;#P newex 1542 568 58 196617 pvar stage;#B color 14;#P window linecount 2;#P message 1195 368 91 196617 \; $0/reorder bang \;;#P window linecount 1;#P message 1442 321 14 196617 0;#P window setfont "Sans Serif" 12.;#P newex 1489 443 110 196620 conduite_events;#B color 6;#P button 744 399 15 0;#P window setfont "Sans Serif" 9.;#P newex 744 422 52 196617 s $1/init;#P message 1075 652 104 196617 allumage_total;#P newex 1075 628 62 196617 prepend set;#P newex 1051 490 40 196617 t b i b;#P message 1100 538 60 196617 start \, bang;#P newex 1051 537 40 196617 uzi;#P message 1051 561 30 196617 next;#P newex 1075 605 69 196617 route symbol;#B color 15;#P newex 1051 468 44 196617 zl nth 2;#N coll conduite 1;#P newobj 1051 584 75 196617 coll conduite 1;#B color 5;#P newex 1018 480 29 196617 gate;#P toggle 1018 386 15 0;#P newex 1018 364 115 196617 r $0/cellblock/outgate;#B color 12;#P window setfont "Sans Serif" 12.;#P window linecount 2;#N vpatcher 598 226 1383 902;#P origin -118 2;#P button 258 246 15 0;#P window setfont "Sans Serif" 9.;#P newex 243 464 65 196617 t writeagain;#P button 489 156 15 0;#N vpatcher 20 74 164 202;#P origin 0 -9;#P window setfont "Sans Serif" 9.;#P window linecount 1;#P message 234 257 14 196617 s;#P window linecount 0;#P message 214 257 14 196617 -;#P window setfont "Sans Serif" 12.;#P window linecount 1;#P comment 20 40 83 196620 YES OR NO ?;#P comment -1 21 134 196620 CUE IN SEQUENTIEL ?;#P window setfont "Sans Serif" 9.;#P hidden message 62 68 160 196617 window flags grow \, window exec;#P hidden message 61 87 170 196617 window flags nogrow \, window exec;#P hidden inlet 490 44 15 0;#P hidden outlet 221 309 15 0;#P window linecount 0;#P hidden newex 237 217 41 196617 sel 1 0;#P hidden message 535 91 19 196617 -1;#P hidden button 490 63 15 0;#P hidden message 377 89 33 196617 front;#N thispatcher;#Q end;#P hidden newobj 490 122 61 196617 thispatcher;#P window linecount 1;#P comment 57 85 84 196617 NO;#P user radiogroup 39 67 18 32;#X size 2;#X offset 16;#X inactive 0;#X itemtype 0;#X flagmode 0;#X set -1;#X done;#P window linecount 0;#P comment 56 68 84 196617 YES;#P hidden connect 6 0 1 0;#P hidden connect 5 0 10 0;#P connect 7 0 14 0;#P connect 15 0 8 0;#P connect 14 0 8 0;#P connect 7 1 15 0;#P hidden connect 1 0 7 0;#P hidden connect 5 0 4 0;#P hidden connect 9 0 5 0;#P hidden connect 4 0 3 0;#P hidden connect 10 0 3 0;#P hidden connect 11 0 3 0;#P hidden connect 5 0 6 0;#P pop;#P newobj 491 184 94 196617 p Cue in sequenciel;#P outlet 674 290 15 0;#P outlet 693 290 15 0;#P window linecount 1;#P newex 465 75 27 196617 b 2;#P message 482 102 30 196617 open;#P comment 482 65 38 196617 open;#P newex 472 378 27 196617 t b l;#P newex 522 298 62 196617 prepend set;#P newex 472 354 40 196617 append;#P newex 472 298 36 196617 zl reg;#P newex 472 328 90 196617 sprintf nsub %s 3;#P newex 330 70 22 196617 b 1;#P newex 491 207 30 196617 t b s;#P message 626 98 29 196617 play;#P newex 605 74 27 196617 b 2;#P newex 233 444 50 196617 del 1000;#P newex 233 492 110 196617 s $0/refreshcellblock;#B color 12;#P newex 281 423 27 196617 t b l;#P outlet 297 539 15 0;#P newex 281 315 30 196617 t b s;#P newex 331 343 62 196617 prepend set;#P newex 281 399 40 196617 append;#P newex 281 343 36 196617 zl reg;#P newex 281 373 90 196617 sprintf nsub %s 2;#P newex 265 171 69 196617 route symbol;#P newex 264 147 154 196617 dialog Cue Position In Sequentiel;#P newex 277 70 22 196617 b 1;#P inlet 718 173 15 0;#P newex 158 336 29 196617 t 1 l;#P newex 173 66 27 196617 b 2;#P newex 530 74 27 196617 b 2;#P newex 157 276 36 196617 zl reg;#P newex 175 399 61 196617 forward;#B color 12;#P newex 158 314 101 196617 sprintf send %s/%s;#P message 190 91 30 196617 open;#P message 547 101 38 196617 reload;#P comment 547 64 38 196617 reload;#P newex 173 34 532 196617 route 0 1 2 3 4 5 6;#P inlet 173 14 15 0;#P window linecount 0;#P comment 185 54 48 196617 nom;#P connect 36 0 8 0;#P connect 9 0 8 0;#P connect 10 0 8 0;#P connect 25 0 8 0;#P fasten 8 0 6 0 162 312 163 312;#P connect 6 0 11 0;#P connect 1 0 2 0;#P connect 11 1 7 0;#P connect 11 0 7 0;#P connect 12 0 8 1;#P connect 10 1 5 0;#P connect 33 0 24 0;#P connect 22 0 24 0;#P connect 24 0 23 0;#P connect 24 0 41 0;#P fasten 35 0 6 1 487 143 254 143;#P fasten 5 0 6 1 195 143 254 143;#P fasten 4 0 6 1 552 143 254 143;#P connect 26 0 6 1;#P connect 20 0 42 0;#P connect 13 0 14 0;#P connect 14 0 15 0;#P connect 2 2 13 0;#P connect 15 0 20 0;#P connect 20 0 17 0;#P connect 17 0 16 0;#P connect 19 0 18 0;#P connect 16 0 18 0;#P connect 18 0 22 0;#P connect 33 1 21 0;#P connect 22 1 21 0;#P connect 41 0 21 0;#P connect 12 0 17 1;#P connect 2 3 28 0;#P connect 20 1 19 0;#P connect 2 4 36 0;#P connect 27 0 30 0;#P connect 30 0 29 0;#P connect 32 0 31 0;#P connect 29 0 31 0;#P connect 31 0 33 0;#P connect 36 1 35 0;#P connect 40 0 39 0;#P connect 28 0 39 0;#P connect 39 0 27 0;#P connect 12 0 30 1;#P connect 27 1 32 0;#P connect 2 5 9 0;#P connect 9 1 4 0;#P connect 2 6 25 0;#P connect 25 1 26 0;#P connect 36 0 38 0;#P connect 36 1 37 0;#P pop;#P newobj 1018 671 67 196620 p open & reload;#B color 7;#P window setfont "Sans Serif" 9.;#P window linecount 1;#P newex 1037 387 94 196617 r $0/cellblock;#B color 12;#P newex 1037 444 78 196617 pvar cellblockq;#B color 14;#P message 1138 409 103 196617 0 0 \, mode selmode 0;#N vpatcher 248 340 431 527;#P outlet 6 133 15 0;#P window setfont "Sans Serif" 9.;#P window linecount 1;#P message 20 99 53 196617 readagain;#P newex 20 76 38 196617 del 30;#P outlet 90 133 15 0;#P window linecount 0;#P newex 20 30 110 196617 r $0/reorder;#B color 12;#P newex 20 53 81 196617 t b writeagain b;#P message 90 77 52 196617 sort -1 1;#P connect 4 0 6 0;#P connect 2 0 1 0;#P connect 1 0 4 0;#P connect 4 0 5 0;#P connect 1 2 0 0;#P connect 0 0 3 0;#P fasten 1 1 3 0 60 95 95 95;#P fasten 5 0 3 0 25 118 95 118;#P pop;#P newobj 1298 361 53 196617 p reorder;#B color 6;#P window linecount 2;#P message 1137 180 87 196617 \; $0/reorder bang;#P window linecount 1;#P newex 1559 517 110 196617 s $0/refreshcellblock;#B color 12;#P newex 1138 302 110 196617 r $0/refreshcellblock;#B color 12;#P window linecount 3;#P message 1004 254 70 196617 \; $0/cellblock/outgate 1;#P window linecount 1;#P newex 1004 234 50 196617 del 1000;#P newex 1330 417 45 196617 onebang;#P number 1530 379 35 9 0 0 0 3 0 0 0 221 221 221 222 222 222 0 0 0;#P newex 1698 485 53 196617 t s b s 1;#P newex 1676 560 21 196617 t 1;#P newex 1676 537 44 196617 del 100;#P newex 1676 592 29 196617 gate;#P newex 1703 560 21 196617 t 0;#N coll conduite 1;#P newobj 1726 509 75 196617 coll conduite 1;#B color 5;#P button 1138 324 15 0;#P button 1456 510 15 0;#P user textedit 5 681 229 706 32916 3 9;#P objectname newcuetxt;#P window linecount 2;#P newex 1282 443 42 196617 route symbol;#P window linecount 1;#P newex 1477 153 53 196617 closebang;#P newex 1697 317 30 196617 t s b;#P newex 1697 295 157 196617 r $0/loadcue/name;#B color 12;#P newex 1469 295 157 196617 r $0/newcue/name;#B color 12;#P newex 1282 485 157 196617 s $0/loadcue/name;#B color 12;#P window linecount 3;#P newex 1330 440 58 196617 s $0/counter/reset;#B color 12;#P window linecount 1;#P newex 1550 246 159 196617 r $0/counter/reset;#B color 12;#P window linecount 4;#P message 969 301 146 196617 \; $0/cellblock/outgate 0 \; $0/cellblock mode selmode 1 \; $0/refreshcellblock bang \;;#P window linecount 1;#P newex 1442 272 27 196617 b 2;#P newex 1489 416 131 196617 sprintf script delete cue%i;#P newex 1459 396 40 196617 uzi;#P message 1227 206 33 196617 dump;#P message 1442 251 33 196617 clear;#P newex 1469 317 30 196617 t s b;#P newex 1698 442 81 196617 pvar newcuetxt;#B color 14;#P newex 990 80 103 196617 r $1/init;#B color 11;#P newex 1448 467 214 196617 sprintf store %s " - " 999 - open reload play;#N counter 1 999999;#X flags 0 0;#P newobj 1489 344 123 196617 counter 1 999999;#P newex 990 119 392 196617 b 6;#P window setfont "Sans Serif" 12.;#N vpatcher 116 463 1134 844;#P origin 111 -19;#P window setfont "Sans Serif" 9.;#P window linecount 1;#P newex 67 113 66 196617 t l l l l l;#P message 456 220 84 196617 set ** - \\\; 1 \\\;;#N comlet text;#P inlet 892 39 15 0;#P window linecount 0;#P newex 61 214 30 196617 t b s;#P newex 61 178 115 196617 sprintf send %s/reload;#P newex 216 212 30 196617 t b s;#P newex 216 178 112 196617 sprintf send %s/write;#P newex 456 197 30 196617 t b s;#P newex 456 178 81 196617 sprintf send %s;#P newex 792 168 32 196617 * 20;#N comlet text;#P inlet 660 121 15 0;#P newex 613 92 30 196617 t b s;#P newex 643 166 27 196617 i;#N comlet to this patcher;#P outlet 661 238 15 0;#P newex 661 216 40 196617 t clear;#N comlet to this patcher;#P outlet 643 238 15 0;#N comlet text;#P inlet 357 43 15 0;#P newex 316 296 47 196617 forward;#P newex 643 191 309 196617 sprintf script new cue%ld newex 15 %ld 133 18000 qlistshell %s;#P fasten 16 0 14 0 897 70 66 70;#P lcolor 15;#P connect 18 0 14 0;#P connect 14 0 15 0;#P connect 2 0 18 0;#P connect 18 1 12 0;#P connect 12 0 13 0;#P connect 11 1 1 0;#P connect 17 0 1 0;#P connect 13 1 1 0;#P connect 13 0 1 0;#P connect 15 1 1 0;#P connect 15 0 1 0;#P connect 2 0 10 0;#P connect 18 3 10 0;#P connect 10 0 11 0;#P connect 11 0 17 0;#P fasten 16 0 7 0 897 73 618 73;#P lcolor 15;#P connect 18 4 7 0;#P fasten 7 0 6 0 618 146 648 146;#P connect 6 0 0 0;#P connect 0 0 3 0;#P connect 8 0 6 1;#P connect 0 0 4 0;#P connect 4 0 5 0;#P fasten 8 0 9 0 665 152 797 152;#P connect 9 0 0 1;#P fasten 7 1 0 2 638 114 946 114;#P pop;#P newobj 1623 416 85 196620 p qlistmaker;#B color 6;#P window setfont "Sans Serif" 9.;#P newex 1294 219 145 196617 sprintf %sconfig/conduite.txt;#P message 1181 273 58 196617 writeagain;#P window linecount 3;#P message 1061 211 135 196617 \; $0/cellblock/outgate 0 \; $0/cellblock refer conduite;#P window linecount 1;#N coll conduite 1;#P newobj 1282 395 75 196617 coll conduite 1;#B color 5;#P newex 1676 615 147 196617 s $0/newcue/name;#B color 12;#P newex 1698 463 56 196617 route text;#P user ubutton 359 686 61 20 0 2;#P window setfont "Sans Serif" 12.;#P comment 361 686 57 196620 conduite;#P objectname conduitelabel;#P user panel 232 686 60 19;#X brgb 255 255 255;#X frgb 147 147 147;#X border 1;#X rounded 0;#X shadow 0;#X done;#P user jit.cellblock 0 0 490 679 3 9 1 1 47 22 0 1 1 0 1 0 1 0 0 0 0 0 255 255 255 0 0 0 0 0 0 255 255 255 0 0 0 247 247 247 0 0 0 1 2 0 0 0;#X row 0 layout 17 1 131 23 0 1 0 0 0 -1 -1 -1;#X row 96 layout 17 1 0 0 0 1 0 0 0 -1 -1 -1;#X row 130 layout 17 1 0 0 0 1 0 0 0 -1 -1 -1;#X row 164 layout 17 1 0 0 0 1 0 0 0 -1 -1 -1;#X row 199 layout 17 1 0 0 0 1 0 0 0 -1 -1 -1;#X row 240 layout 17 1 0 0 0 1 0 0 0 -1 -1 -1;#X row 284 layout 17 1 0 0 0 1 0 0 0 -1 -1 -1;#X row 437 layout 17 1 0 0 0 1 0 0 0 -1 -1 -1;#X row 449 layout 17 1 0 0 0 1 0 0 0 -1 -1 -1;#X row 516 layout 17 1 0 0 0 1 0 0 0 -1 -1 -1;#X row 590 layout 17 1 0 0 0 1 0 0 0 -1 -1 -1;#X row 749 layout 17 1 0 0 0 1 0 0 0 -1 -1 -1;#X row 831 layout 17 1 0 0 0 1 0 0 0 -1 -1 -1;#X row 922 layout 17 1 0 0 0 1 0 0 0 -1 -1 -1;#X row 931 layout 17 1 0 0 0 1 0 0 0 -1 -1 -1;#X row 1022 layout 17 1 0 0 0 1 0 0 0 -1 -1 -1;#X row 1102 layout 17 1 0 0 0 1 0 0 0 -1 -1 -1;#X row 1176 layout 17 1 0 0 0 1 0 0 0 -1 -1 -1;#X row 1243 layout 17 1 0 0 0 1 0 0 0 -1 -1 -1;#X row 1310 layout 17 1 0 0 0 1 0 0 0 -1 -1 -1;#X row 1372 layout 17 1 0 0 0 1 0 0 0 -1 -1 -1;#X row 1429 layout 17 1 0 0 0 1 0 0 0 -1 -1 -1;#X row 1482 layout 17 1 0 0 0 1 0 0 0 -1 -1 -1;#X row 1532 layout 17 1 0 0 0 1 0 0 0 -1 -1 -1;#X row 1574 layout 17 1 0 0 0 1 0 0 0 -1 -1 -1;#X row 1611 layout 17 1 0 0 0 1 0 0 0 -1 -1 -1;#X row 1640 layout 17 1 0 0 0 1 0 0 0 -1 -1 -1;#X row 1644 layout 17 1 0 0 0 1 0 0 0 -1 -1 -1;#X row 1624 layout 17 1 0 0 0 1 0 0 0 -1 -1 -1;#X row 1557 layout 17 1 0 0 0 1 0 0 0 -1 -1 -1;#X row 1468 layout 17 1 0 0 0 1 0 0 0 -1 -1 -1;#X row 1404 layout 17 1 0 0 0 1 0 0 0 -1 -1 -1;#X row 1333 layout 17 1 0 0 0 1 0 0 0 -1 -1 -1;#X row 1259 layout 17 1 0 0 0 1 0 0 0 -1 -1 -1;#X row 1189 layout 17 1 0 0 0 1 0 0 0 -1 -1 -1;#X row 1089 layout 17 1 0 0 0 1 0 0 0 -1 -1 -1;#X row 982 layout 17 1 0 0 0 1 0 0 0 -1 -1 -1;#X row 888 layout 17 1 0 0 0 1 0 0 0 -1 -1 -1;#X row 781 layout 17 1 0 0 0 1 0 0 0 -1 -1 -1;#X row 772 layout 17 1 0 0 0 1 0 0 0 -1 -1 -1;#X row 613 layout 17 1 0 0 0 1 0 0 0 -1 -1 -1;#X row 546 layout 17 1 0 0 0 1 0 0 0 -1 -1 -1;#X row 380 layout 17 1 0 0 0 1 0 0 0 -1 -1 -1;#X row 294 layout 17 1 0 0 0 1 0 0 0 -1 -1 -1;#X row 254 layout 17 1 0 0 0 1 0 0 0 -1 -1 -1;#X row 178 layout 17 1 0 0 0 1 0 0 0 -1 -1 -1;#X row 123 layout 17 1 0 0 0 1 0 0 0 -1 -1 -1;#X row 101 layout 17 1 0 0 0 1 0 0 0 -1 -1 -1;#X row 65 layout 17 1 0 0 0 1 0 0 0 -1 -1 -1;#X row 58 layout 17 1 0 0 0 1 0 0 0 -1 -1 -1;#X row 172 layout 17 1 0 0 0 1 0 0 0 -1 -1 -1;#X row 226 layout 17 1 0 0 0 1 0 0 0 -1 -1 -1;#X row 278 layout 17 1 0 0 0 1 0 0 0 -1 -1 -1;#X row 379 layout 17 1 0 0 0 1 0 0 0 -1 -1 -1;#X row 441 layout 17 1 0 0 0 1 0 0 0 -1 -1 -1;#X row 567 layout 17 1 0 0 0 1 0 0 0 -1 -1 -1;#X row 628 layout 17 1 0 0 0 1 0 0 0 -1 -1 -1;#X row 754 layout 17 1 0 0 0 1 0 0 0 -1 -1 -1;#X row 874 layout 17 1 0 0 0 1 0 0 0 -1 -1 -1;#X row 899 layout 17 1 0 0 0 1 0 0 0 -1 -1 -1;#X row 941 layout 17 1 0 0 0 1 0 0 0 -1 -1 -1;#X row 985 layout 17 1 0 0 0 1 0 0 0 -1 -1 -1;#X row 1027 layout 17 1 0 0 0 1 0 0 0 -1 -1 -1;#X row 1074 layout 17 1 0 0 0 1 0 0 0 -1 -1 -1;#X row 1116 layout 17 1 0 0 0 1 0 0 0 -1 -1 -1;#X row 1207 layout 17 1 0 0 0 1 0 0 0 -1 -1 -1;#X row 1255 layout 17 1 0 0 0 1 0 0 0 -1 -1 -1;#X row 1349 layout 17 1 0 0 0 1 0 0 0 -1 -1 -1;#X row 1395 layout 17 1 0 0 0 1 0 0 0 -1 -1 -1;#X row 1478 layout 17 1 0 0 0 1 0 0 0 -1 -1 -1;#X row 1508 layout 17 1 0 0 0 1 0 0 0 -1 -1 -1;#X row 1537 layout 17 1 0 0 0 1 0 0 0 -1 -1 -1;#X row 1597 layout 17 1 0 0 0 1 0 0 0 -1 -1 -1;#X row 1609 layout 17 1 0 0 0 1 0 0 0 -1 -1 -1;#X row 1616 layout 17 1 0 0 0 1 0 0 0 -1 -1 -1;#X row 1617 layout 17 1 0 0 0 1 0 0 0 -1 -1 -1;#X row 1615 layout 17 1 0 0 0 1 0 0 0 -1 -1 -1;#X row 1608 layout 17 1 0 0 0 1 0 0 0 -1 -1 -1;#X row 1596 layout 17 1 0 0 0 1 0 0 0 -1 -1 -1;#X row 1579 layout 17 1 0 0 0 1 0 0 0 -1 -1 -1;#X row 1559 layout 17 1 0 0 0 1 0 0 0 -1 -1 -1;#X row 1536 layout 17 1 0 0 0 1 0 0 0 -1 -1 -1;#X row 1515 layout 17 1 0 0 0 1 0 0 0 -1 -1 -1;#X row 1492 layout 17 1 0 0 0 1 0 0 0 -1 -1 -1;#X row 1472 layout 17 1 0 0 0 1 0 0 0 -1 -1 -1;#X row 1438 layout 17 1 0 0 0 1 0 0 0 -1 -1 -1;#X row 1398 layout 17 1 0 0 0 1 0 0 0 -1 -1 -1;#X row 1357 layout 17 1 0 0 0 1 0 0 0 -1 -1 -1;#X row 1316 layout 17 1 0 0 0 1 0 0 0 -1 -1 -1;#X row 1277 layout 17 1 0 0 0 1 0 0 0 -1 -1 -1;#X row 1234 layout 17 1 0 0 0 1 0 0 0 -1 -1 -1;#X row 1184 layout 17 1 0 0 0 1 0 0 0 -1 -1 -1;#X row 1162 layout 17 1 0 0 0 1 0 0 0 -1 -1 -1;#X row 1058 layout 17 1 0 0 0 1 0 0 0 -1 -1 -1;#X row 993 layout 17 1 0 0 0 1 0 0 0 -1 -1 -1;#X row 926 layout 17 1 0 0 0 1 0 0 0 -1 -1 -1;#X row 860 layout 17 1 0 0 0 1 0 0 0 -1 -1 -1;#X row 775 layout 17 1 0 0 0 1 0 0 0 -1 -1 -1;#X row 718 layout 17 1 0 0 0 1 0 0 0 -1 -1 -1;#X row 665 layout 17 1 0 0 0 1 0 0 0 -1 -1 -1;#X row 470 layout 17 1 0 0 0 1 0 0 0 -1 -1 -1;#X row 440 layout 17 1 0 0 0 1 0 0 0 -1 -1 -1;#X row 387 layout 17 1 0 0 0 1 0 0 0 -1 -1 -1;#X row 360 layout 17 1 0 0 0 1 0 0 0 -1 -1 -1;#X row 287 layout 17 1 0 0 0 1 0 0 0 -1 -1 -1;#X row 247 layout 17 1 0 0 0 1 0 0 0 -1 -1 -1;#X row 213 layout 17 1 0 0 0 1 0 0 0 -1 -1 -1;#X row 106 layout 17 1 0 0 0 1 0 0 0 -1 -1 -1;#X row 66 layout 17 1 0 0 0 1 0 0 0 -1 -1 -1;#X row 33 layout 17 1 0 0 0 1 0 0 0 -1 -1 -1;#X row 7 layout 17 1 0 0 0 1 0 0 0 -1 -1 -1;#X row 46 layout 17 1 0 0 0 1 0 0 0 -1 -1 -1;#X row 83 layout 17 1 0 0 0 1 0 0 0 -1 -1 -1;#X row 120 layout 17 1 0 0 0 1 0 0 0 -1 -1 -1;#X row 155 layout 17 1 0 0 0 1 0 0 0 -1 -1 -1;#X row 224 layout 17 1 0 0 0 1 0 0 0 -1 -1 -1;#X row 263 layout 17 1 0 0 0 1 0 0 0 -1 -1 -1;#X row 337 layout 17 1 0 0 0 1 0 0 0 -1 -1 -1;#X row 371 layout 17 1 0 0 0 1 0 0 0 -1 -1 -1;#X row 406 layout 17 1 0 0 0 1 0 0 0 -1 -1 -1;#X row 442 layout 17 1 0 0 0 1 0 0 0 -1 -1 -1;#X row 523 layout 17 1 0 0 0 1 0 0 0 -1 -1 -1;#X row 563 layout 17 1 0 0 0 1 0 0 0 -1 -1 -1;#X row 602 layout 17 1 0 0 0 1 0 0 0 -1 -1 -1;#X row 636 layout 17 1 0 0 0 1 0 0 0 -1 -1 -1;#X row 719 layout 17 1 0 0 0 1 0 0 0 -1 -1 -1;#X row 759 layout 17 1 0 0 0 1 0 0 0 -1 -1 -1;#X row 799 layout 17 1 0 0 0 1 0 0 0 -1 -1 -1;#X row 873 layout 17 1 0 0 0 1 0 0 0 -1 -1 -1;#X row 914 layout 17 1 0 0 0 1 0 0 0 -1 -1 -1;#X row 958 layout 17 1 0 0 0 1 0 0 0 -1 -1 -1;#X row 1000 layout 17 1 0 0 0 1 0 0 0 -1 -1 -1;#X row 1041 layout 17 1 0 0 0 1 0 0 0 -1 -1 -1;#X row 1080 layout 17 1 0 0 0 1 0 0 0 -1 -1 -1;#X row 1118 layout 17 1 0 0 0 1 0 0 0 -1 -1 -1;#X row 1157 layout 17 1 0 0 0 1 0 0 0 -1 -1 -1;#X row 1197 layout 17 1 0 0 0 1 0 0 0 -1 -1 -1;#X row 1237 layout 17 1 0 0 0 1 0 0 0 -1 -1 -1;#X row 1273 layout 17 1 0 0 0 1 0 0 0 -1 -1 -1;#X row 1305 layout 17 1 0 0 0 1 0 0 0 -1 -1 -1;#X row 1323 layout 17 1 0 0 0 1 0 0 0 -1 -1 -1;#X row 1341 layout 17 1 0 0 0 1 0 0 0 -1 -1 -1;#X row 1354 layout 17 1 0 0 0 1 0 0 0 -1 -1 -1;#X row 1366 layout 17 1 0 0 0 1 0 0 0 -1 -1 -1;#X row 1373 layout 17 1 0 0 0 1 0 0 0 -1 -1 -1;#X row 1375 layout 17 1 0 0 0 1 0 0 0 -1 -1 -1;#X row 1374 layout 17 1 0 0 0 1 0 0 0 -1 -1 -1;#X row 1370 layout 17 1 0 0 0 1 0 0 0 -1 -1 -1;#X row 1361 layout 17 1 0 0 0 1 0 0 0 -1 -1 -1;#X row 1346 layout 17 1 0 0 0 1 0 0 0 -1 -1 -1;#X row 1326 layout 17 1 0 0 0 1 0 0 0 -1 -1 -1;#X row 1302 layout 17 1 0 0 0 1 0 0 0 -1 -1 -1;#X row 1271 layout 17 1 0 0 0 1 0 0 0 -1 -1 -1;#X row 1235 layout 17 1 0 0 0 1 0 0 0 -1 -1 -1;#X row 1204 layout 17 1 0 0 0 1 0 0 0 -1 -1 -1;#X row 1165 layout 17 1 0 0 0 1 0 0 0 -1 -1 -1;#X row 1127 layout 17 1 0 0 0 1 0 0 0 -1 -1 -1;#X row 1087 layout 17 1 0 0 0 1 0 0 0 -1 -1 -1;#X row 1045 layout 17 1 0 0 0 1 0 0 0 -1 -1 -1;#X row 963 layout 17 1 0 0 0 1 0 0 0 -1 -1 -1;#X row 925 layout 17 1 0 0 0 1 0 0 0 -1 -1 -1;#X row 895 layout 17 1 0 0 0 1 0 0 0 -1 -1 -1;#X row 849 layout 17 1 0 0 0 1 0 0 0 -1 -1 -1;#X row 806 layout 17 1 0 0 0 1 0 0 0 -1 -1 -1;#X row 761 layout 17 1 0 0 0 1 0 0 0 -1 -1 -1;#X row 716 layout 17 1 0 0 0 1 0 0 0 -1 -1 -1;#X row 616 layout 17 1 0 0 0 1 0 0 0 -1 -1 -1;#X row 575 layout 17 1 0 0 0 1 0 0 0 -1 -1 -1;#X row 537 layout 17 1 0 0 0 1 0 0 0 -1 -1 -1;#X row 498 layout 17 1 0 0 0 1 0 0 0 -1 -1 -1;#X row 464 layout 17 1 0 0 0 1 0 0 0 -1 -1 -1;#X row 402 layout 17 1 0 0 0 1 0 0 0 -1 -1 -1;#X row 374 layout 17 1 0 0 0 1 0 0 0 -1 -1 -1;#X row 348 layout 17 1 0 0 0 1 0 0 0 -1 -1 -1;#X row 323 layout 17 1 0 0 0 1 0 0 0 -1 -1 -1;#X row 258 layout 17 1 0 0 0 1 0 0 0 -1 -1 -1;#X row 233 layout 17 1 0 0 0 1 0 0 0 -1 -1 -1;#X row 202 layout 17 1 0 0 0 1 0 0 0 -1 -1 -1;#X row 175 layout 17 1 0 0 0 1 0 0 0 -1 -1 -1;#X row 133 layout 17 1 0 0 0 1 0 0 0 -1 -1 -1;#X row 115 layout 17 1 0 0 0 1 0 0 0 -1 -1 -1;#X row 98 layout 17 1 0 0 0 1 0 0 0 -1 -1 -1;#X row 76 layout 17 1 0 0 0 1 0 0 0 -1 -1 -1;#X row 47 layout 17 1 0 0 0 1 0 0 0 -1 -1 -1;#X row 5 layout 17 1 0 0 0 1 0 0 0 -1 -1 -1;#X row 32 layout 17 1 0 0 0 1 0 0 0 -1 -1 -1;#X row 91 layout 17 1 0 0 0 1 0 0 0 -1 -1 -1;#X row 122 layout 17 1 0 0 0 1 0 0 0 -1 -1 -1;#X row 152 layout 17 1 0 0 0 1 0 0 0 -1 -1 -1;#X row 179 layout 17 1 0 0 0 1 0 0 0 -1 -1 -1;#X row 205 layout 17 1 0 0 0 1 0 0 0 -1 -1 -1;#X row 230 layout 17 1 0 0 0 1 0 0 0 -1 -1 -1;#X row 261 layout 17 1 0 0 0 1 0 0 0 -1 -1 -1;#X row 293 layout 17 1 0 0 0 1 0 0 0 -1 -1 -1;#X row 322 layout 17 1 0 0 0 1 0 0 0 -1 -1 -1;#X row 350 layout 17 1 0 0 0 1 0 0 0 -1 -1 -1;#X row 375 layout 17 1 0 0 0 1 0 0 0 -1 -1 -1;#X row 396 layout 17 1 0 0 0 1 0 0 0 -1 -1 -1;#X row 428 layout 17 1 0 0 0 1 0 0 0 -1 -1 -1;#X row 481 layout 17 1 0 0 0 1 0 0 0 -1 -1 -1;#X row 529 layout 17 1 0 0 0 1 0 0 0 -1 -1 -1;#X row 584 layout 17 1 0 0 0 1 0 0 0 -1 -1 -1;#X row 615 layout 17 1 0 0 0 1 0 0 0 -1 -1 -1;#X row 647 layout 17 1 0 0 0 1 0 0 0 -1 -1 -1;#X row 708 layout 17 1 0 0 0 1 0 0 0 -1 -1 -1;#X row 738 layout 17 1 0 0 0 1 0 0 0 -1 -1 -1;#X row 808 layout 17 1 0 0 0 1 0 0 0 -1 -1 -1;#X row 844 layout 17 1 0 0 0 1 0 0 0 -1 -1 -1;#X row 883 layout 17 1 0 0 0 1 0 0 0 -1 -1 -1;#X row 916 layout 17 1 0 0 0 1 0 0 0 -1 -1 -1;#X row 951 layout 17 1 0 0 0 1 0 0 0 -1 -1 -1;#X row 978 layout 17 1 0 0 0 1 0 0 0 -1 -1 -1;#X row 992 layout 17 1 0 0 0 1 0 0 0 -1 -1 -1;#X row 1003 layout 17 1 0 0 0 1 0 0 0 -1 -1 -1;#X row 1002 layout 17 1 0 0 0 1 0 0 0 -1 -1 -1;#X row 995 layout 17 1 0 0 0 1 0 0 0 -1 -1 -1;#X row 980 layout 17 1 0 0 0 1 0 0 0 -1 -1 -1;#X row 962 layout 17 1 0 0 0 1 0 0 0 -1 -1 -1;#X row 944 layout 17 1 0 0 0 1 0 0 0 -1 -1 -1;#X row 929 layout 17 1 0 0 0 1 0 0 0 -1 -1 -1;#X row 898 layout 17 1 0 0 0 1 0 0 0 -1 -1 -1;#X row 865 layout 17 1 0 0 0 1 0 0 0 -1 -1 -1;#X row 832 layout 17 1 0 0 0 1 0 0 0 -1 -1 -1;#X row 800 layout 17 1 0 0 0 1 0 0 0 -1 -1 -1;#X row 733 layout 17 1 0 0 0 1 0 0 0 -1 -1 -1;#X row 701 layout 17 1 0 0 0 1 0 0 0 -1 -1 -1;#X row 668 layout 17 1 0 0 0 1 0 0 0 -1 -1 -1;#X row 632 layout 17 1 0 0 0 1 0 0 0 -1 -1 -1;#X row 614 layout 17 1 0 0 0 1 0 0 0 -1 -1 -1;#X row 583 layout 17 1 0 0 0 1 0 0 0 -1 -1 -1;#X row 554 layout 17 1 0 0 0 1 0 0 0 -1 -1 -1;#X row 525 layout 17 1 0 0 0 1 0 0 0 -1 -1 -1;#X row 495 layout 17 1 0 0 0 1 0 0 0 -1 -1 -1;#X row 466 layout 17 1 0 0 0 1 0 0 0 -1 -1 -1;#X row 439 layout 17 1 0 0 0 1 0 0 0 -1 -1 -1;#X row 390 layout 17 1 0 0 0 1 0 0 0 -1 -1 -1;#X row 368 layout 17 1 0 0 0 1 0 0 0 -1 -1 -1;#X row 349 layout 17 1 0 0 0 1 0 0 0 -1 -1 -1;#X row 330 layout 17 1 0 0 0 1 0 0 0 -1 -1 -1;#X row 312 layout 17 1 0 0 0 1 0 0 0 -1 -1 -1;#X row 295 layout 17 1 0 0 0 1 0 0 0 -1 -1 -1;#X row 273 layout 17 1 0 0 0 1 0 0 0 -1 -1 -1;#X row 223 layout 17 1 0 0 0 1 0 0 0 -1 -1 -1;#X row 189 layout 17 1 0 0 0 1 0 0 0 -1 -1 -1;#X row 147 layout 17 1 0 0 0 1 0 0 0 -1 -1 -1;#X row 100 layout 17 1 0 0 0 1 0 0 0 -1 -1 -1;#X row 59 layout 17 1 0 0 0 1 0 0 0 -1 -1 -1;#X row 22 layout 17 1 0 0 0 1 0 0 0 -1 -1 -1;#X row 45 layout 17 1 0 0 0 1 0 0 0 -1 -1 -1;#X row 67 layout 17 1 0 0 0 1 0 0 0 -1 -1 -1;#X row 90 layout 17 1 0 0 0 1 0 0 0 -1 -1 -1;#X row 94 layout 17 1 0 0 0 1 0 0 0 -1 -1 -1;#X row 111 layout 17 1 0 0 0 1 0 0 0 -1 -1 -1;#X row 126 layout 17 1 0 0 0 1 0 0 0 -1 -1 -1;#X row 143 layout 17 1 0 0 0 1 0 0 0 -1 -1 -1;#X row 162 layout 17 1 0 0 0 1 0 0 0 -1 -1 -1;#X row 180 layout 17 1 0 0 0 1 0 0 0 -1 -1 -1;#X row 201 layout 17 1 0 0 0 1 0 0 0 -1 -1 -1;#X row 217 layout 17 1 0 0 0 1 0 0 0 -1 -1 -1;#X row 239 layout 17 1 0 0 0 1 0 0 0 -1 -1 -1;#X row 257 layout 17 1 0 0 0 1 0 0 0 -1 -1 -1;#X row 279 layout 17 1 0 0 0 1 0 0 0 -1 -1 -1;#X row 303 layout 17 1 0 0 0 1 0 0 0 -1 -1 -1;#X row 328 layout 17 1 0 0 0 1 0 0 0 -1 -1 -1;#X row 355 layout 17 1 0 0 0 1 0 0 0 -1 -1 -1;#X row 384 layout 17 1 0 0 0 1 0 0 0 -1 -1 -1;#X row 407 layout 17 1 0 0 0 1 0 0 0 -1 -1 -1;#X row 431 layout 17 1 0 0 0 1 0 0 0 -1 -1 -1;#X row 456 layout 17 1 0 0 0 1 0 0 0 -1 -1 -1;#X row 480 layout 17 1 0 0 0 1 0 0 0 -1 -1 -1;#X row 505 layout 17 1 0 0 0 1 0 0 0 -1 -1 -1;#X row 527 layout 17 1 0 0 0 1 0 0 0 -1 -1 -1;#X row 548 layout 17 1 0 0 0 1 0 0 0 -1 -1 -1;#X row 565 layout 17 1 0 0 0 1 0 0 0 -1 -1 -1;#X row 580 layout 17 1 0 0 0 1 0 0 0 -1 -1 -1;#X row 592 layout 17 1 0 0 0 1 0 0 0 -1 -1 -1;#X row 605 layout 17 1 0 0 0 1 0 0 0 -1 -1 -1;#X row 621 layout 17 1 0 0 0 1 0 0 0 -1 -1 -1;#X row 639 layout 17 1 0 0 0 1 0 0 0 -1 -1 -1;#X row 655 layout 17 1 0 0 0 1 0 0 0 -1 -1 -1;#X row 669 layout 17 1 0 0 0 1 0 0 0 -1 -1 -1;#X row 686 layout 17 1 0 0 0 1 0 0 0 -1 -1 -1;#X row 706 layout 17 1 0 0 0 1 0 0 0 -1 -1 -1;#X row 724 layout 17 1 0 0 0 1 0 0 0 -1 -1 -1;#X row 747 layout 17 1 0 0 0 1 0 0 0 -1 -1 -1;#X row 767 layout 17 1 0 0 0 1 0 0 0 -1 -1 -1;#X row 785 layout 17 1 0 0 0 1 0 0 0 -1 -1 -1;#X row 798 layout 17 1 0 0 0 1 0 0 0 -1 -1 -1;#X row 811 layout 17 1 0 0 0 1 0 0 0 -1 -1 -1;#X row 821 layout 17 1 0 0 0 1 0 0 0 -1 -1 -1;#X row 830 layout 17 1 0 0 0 1 0 0 0 -1 -1 -1;#X row 836 layout 17 1 0 0 0 1 0 0 0 -1 -1 -1;#X row 837 layout 17 1 0 0 0 1 0 0 0 -1 -1 -1;#X row 835 layout 17 1 0 0 0 1 0 0 0 -1 -1 -1;#X row 829 layout 17 1 0 0 0 1 0 0 0 -1 -1 -1;#X row 822 layout 17 1 0 0 0 1 0 0 0 -1 -1 -1;#X row 812 layout 17 1 0 0 0 1 0 0 0 -1 -1 -1;#X row 802 layout 17 1 0 0 0 1 0 0 0 -1 -1 -1;#X row 795 layout 17 1 0 0 0 1 0 0 0 -1 -1 -1;#X row 787 layout 17 1 0 0 0 1 0 0 0 -1 -1 -1;#X row 779 layout 17 1 0 0 0 1 0 0 0 -1 -1 -1;#X row 773 layout 17 1 0 0 0 1 0 0 0 -1 -1 -1;#X row 765 layout 17 1 0 0 0 1 0 0 0 -1 -1 -1;#X row 758 layout 17 1 0 0 0 1 0 0 0 -1 -1 -1;#X row 752 layout 17 1 0 0 0 1 0 0 0 -1 -1 -1;#X row 744 layout 17 1 0 0 0 1 0 0 0 -1 -1 -1;#X row 735 layout 17 1 0 0 0 1 0 0 0 -1 -1 -1;#X row 727 layout 17 1 0 0 0 1 0 0 0 -1 -1 -1;#X row 715 layout 17 1 0 0 0 1 0 0 0 -1 -1 -1;#X row 704 layout 17 1 0 0 0 1 0 0 0 -1 -1 -1;#X row 693 layout 17 1 0 0 0 1 0 0 0 -1 -1 -1;#X row 679 layout 17 1 0 0 0 1 0 0 0 -1 -1 -1;#X row 666 layout 17 1 0 0 0 1 0 0 0 -1 -1 -1;#X row 659 layout 17 1 0 0 0 1 0 0 0 -1 -1 -1;#X row 650 layout 17 1 0 0 0 1 0 0 0 -1 -1 -1;#X row 633 layout 17 1 0 0 0 1 0 0 0 -1 -1 -1;#X row 617 layout 17 1 0 0 0 1 0 0 0 -1 -1 -1;#X row 601 layout 17 1 0 0 0 1 0 0 0 -1 -1 -1;#X row 585 layout 17 1 0 0 0 1 0 0 0 -1 -1 -1;#X row 570 layout 17 1 0 0 0 1 0 0 0 -1 -1 -1;#X row 557 layout 17 1 0 0 0 1 0 0 0 -1 -1 -1;#X row 545 layout 17 1 0 0 0 1 0 0 0 -1 -1 -1;#X row 531 layout 17 1 0 0 0 1 0 0 0 -1 -1 -1;#X row 518 layout 17 1 0 0 0 1 0 0 0 -1 -1 -1;#X row 506 layout 17 1 0 0 0 1 0 0 0 -1 -1 -1;#X row 494 layout 17 1 0 0 0 1 0 0 0 -1 -1 -1;#X row 482 layout 17 1 0 0 0 1 0 0 0 -1 -1 -1;#X row 471 layout 17 1 0 0 0 1 0 0 0 -1 -1 -1;#X row 459 layout 17 1 0 0 0 1 0 0 0 -1 -1 -1;#X row 448 layout 17 1 0 0 0 1 0 0 0 -1 -1 -1;#X row 435 layout 17 1 0 0 0 1 0 0 0 -1 -1 -1;#X row 423 layout 17 1 0 0 0 1 0 0 0 -1 -1 -1;#X row 412 layout 17 1 0 0 0 1 0 0 0 -1 -1 -1;#X row 399 layout 17 1 0 0 0 1 0 0 0 -1 -1 -1;#X row 385 layout 17 1 0 0 0 1 0 0 0 -1 -1 -1;#X row 372 layout 17 1 0 0 0 1 0 0 0 -1 -1 -1;#X row 359 layout 17 1 0 0 0 1 0 0 0 -1 -1 -1;#X row 347 layout 17 1 0 0 0 1 0 0 0 -1 -1 -1;#X row 334 layout 17 1 0 0 0 1 0 0 0 -1 -1 -1;#X row 325 layout 17 1 0 0 0 1 0 0 0 -1 -1 -1;#X row 313 layout 17 1 0 0 0 1 0 0 0 -1 -1 -1;#X row 301 layout 17 1 0 0 0 1 0 0 0 -1 -1 -1;#X row 290 layout 17 1 0 0 0 1 0 0 0 -1 -1 -1;#X row 277 layout 17 1 0 0 0 1 0 0 0 -1 -1 -1;#X row 265 layout 17 1 0 0 0 1 0 0 0 -1 -1 -1;#X row 249 layout 17 1 0 0 0 1 0 0 0 -1 -1 -1;#X row 232 layout 17 1 0 0 0 1 0 0 0 -1 -1 -1;#X row 211 layout 17 1 0 0 0 1 0 0 0 -1 -1 -1;#X row 188 layout 17 1 0 0 0 1 0 0 0 -1 -1 -1;#X row 165 layout 17 1 0 0 0 1 0 0 0 -1 -1 -1;#X row 142 layout 17 1 0 0 0 1 0 0 0 -1 -1 -1;#X row 116 layout 17 1 0 0 0 1 0 0 0 -1 -1 -1;#X row 93 layout 17 1 0 0 0 1 0 0 0 -1 -1 -1;#X row 73 layout 17 1 0 0 0 1 0 0 0 -1 -1 -1;#X row 54 layout 17 1 0 0 0 1 0 0 0 -1 -1 -1;#X row 39 layout 17 1 0 0 0 1 0 0 0 -1 -1 -1;#X row 29 layout 17 1 0 0 0 1 0 0 0 -1 -1 -1;#X row 23 layout 17 1 0 0 0 1 0 0 0 -1 -1 -1;#X row 20 layout 17 1 0 0 0 1 0 0 0 -1 -1 -1;#X row 18 layout 17 1 0 0 0 1 0 0 0 -1 -1 -1;#X row 16 layout 17 1 0 0 0 1 0 0 0 -1 -1 -1;#X row 15 layout 17 1 0 0 0 1 0 0 0 -1 -1 -1;#X row 14 layout 17 1 0 0 0 1 0 0 0 -1 -1 -1;#X row 13 layout 17 1 0 0 0 1 0 0 0 -1 -1 -1;#X row 12 layout 17 1 0 0 0 1 0 0 0 -1 -1 -1;#X row 11 layout 17 1 0 0 0 1 0 0 0 -1 -1 -1;#X row 9 layout 17 1 0 0 0 1 0 0 0 -1 -1 -1;#X row 8 layout 17 1 0 0 0 1 0 0 0 -1 -1 -1;#X row 6 layout 17 1 0 0 0 1 0 0 0 -1 -1 -1;#X row 4 layout 17 1 0 0 0 1 0 0 0 -1 -1 -1;#X row 3 layout 17 1 0 0 0 1 0 0 0 -1 -1 -1;#X row 2 layout 17 1 0 0 0 1 0 0 0 -1 -1 -1;#X row 1 layout 17 1 133 23 0 1 0 0 0 -1 -1 -1;#X col 0 layout 73 1 94 0 0 1 0 0 0 0 4 -1;#X col 4 layout 25 1 73 50 0 1 0 0 0 1 -1 -1;#X col 1 layout 248 1 83 22 0 1 0 0 0 -1 1 -1;#X col 2 layout 43 1 0 0 0 1 0 0 0 1 -1 -1;#X col 3 layout 23 1 0 0 0 1 0 0 0 1 -1 -1;#X col 5 layout 37 1 5 0 0 1 0 161 224 1 -1 -1;#X col 6 layout 25 1 94 0 0 1 0 0 0 -1 -1 -1;#P objectname cellblockq;#P user panel 358 687 64 19;#X brgb 255 255 255;#X frgb 147 147 147;#X border 1;#X rounded 0;#X shadow 0;#X done;#P hidden connect 113 0 1 0;#P hidden connect 89 0 1 0;#P hidden connect 137 0 2 0;#P hidden connect 79 0 137 0;#P hidden connect 79 1 137 1;#P hidden connect 79 3 100 0;#P hidden connect 79 2 137 2;#P hidden connect 138 0 0 0;#P hidden connect 4 0 138 0;#P hidden connect 4 1 138 1;#P hidden connect 88 0 82 0;#P hidden connect 4 2 138 2;#P hidden connect 4 3 101 0;#P hidden connect 4 0 128 0;#P connect 116 0 117 0;#P connect 117 0 115 0;#P connect 115 0 114 0;#P connect 114 0 113 0;#P connect 91 0 90 0;#P connect 90 0 89 0;#P connect 116 0 114 1;#P connect 92 0 90 1;#P hidden connect 79 0 75 0;#P hidden connect 100 0 75 0;#P connect 12 5 88 0;#P hidden connect 82 0 81 0;#P connect 81 2 84 0;#P connect 88 1 86 0;#P connect 84 0 86 0;#P connect 86 0 83 0;#P connect 83 0 93 0;#P connect 93 0 80 0;#P connect 119 0 122 0;#P hidden connect 125 0 122 0;#P connect 122 0 123 0;#P hidden connect 79 1 74 0;#P connect 75 0 73 0;#P connect 74 0 73 0;#P hidden connect 124 0 121 0;#P connect 121 0 120 0;#P connect 66 0 65 0;#P connect 86 0 85 0;#P connect 95 0 97 0;#P connect 97 0 87 0;#P connect 85 0 94 0;#P hidden connect 4 0 78 0;#P hidden connect 101 0 78 0;#P connect 77 0 76 0;#P connect 78 0 76 0;#P connect 118 0 127 0;#P connect 94 0 95 0;#P hidden connect 4 1 77 0;#P connect 95 1 96 0;#P connect 127 0 118 0;#P connect 123 0 118 0;#P connect 120 0 118 0;#P connect 119 0 118 0;#P connect 126 0 118 0;#P connect 12 0 23 0;#P connect 15 0 103 0;#P connect 103 0 12 0;#P connect 106 0 109 0;#P connect 109 0 43 0;#P connect 43 0 44 0;#P connect 53 0 54 0;#P connect 54 0 55 0;#P connect 55 0 52 0;#P connect 87 0 50 0;#P connect 96 0 50 0;#P fasten 49 0 50 0 1143 430 1042 430;#P connect 51 0 50 0;#P connect 80 0 50 0;#P connect 50 0 55 1;#P fasten 50 0 57 0 1042 464 1056 464;#P connect 57 0 62 0;#P connect 62 0 60 0;#P connect 60 0 59 0;#P fasten 61 0 56 0 1105 580 1056 580;#P connect 59 0 56 0;#P connect 105 0 108 0;#P connect 108 0 106 0;#P connect 106 0 8 0;#P connect 56 1 58 0;#P connect 58 0 63 0;#P fasten 60 1 64 0 1071 557 1155 557 1155 646 1080 646;#P connect 63 0 64 0;#P connect 64 0 52 1;#P connect 62 1 60 1;#P connect 62 2 61 0;#P connect 104 0 107 0;#P connect 107 0 105 0;#P connect 105 0 47 0;#P connect 45 0 34 0;#P connect 34 0 98 0;#P connect 98 0 49 0;#P connect 98 0 131 0;#P connect 131 0 130 0;#P fasten 33 0 9 0 1461 533 1135 533 1135 271 1186 271;#P lcolor 15;#P connect 98 0 69 0;#P connect 12 3 104 0;#P connect 104 0 19 0;#P connect 48 0 71 0;#P connect 132 0 7 0;#P fasten 52 0 7 0 1023 715 1262 715 1262 380 1287 380;#P connect 48 1 7 0;#P connect 19 0 7 0;#P connect 9 0 7 0;#P connect 98 1 7 0;#P connect 128 0 7 0;#P connect 134 0 7 0;#P connect 7 1 31 0;#P connect 31 0 26 0;#P connect 12 4 136 0;#P connect 136 0 133 0;#P connect 133 0 10 0;#P connect 10 0 135 0;#P connect 135 0 134 0;#P connect 71 0 110 0;#P connect 7 2 42 0;#P connect 42 0 25 0;#P connect 12 5 42 1;#P connect 12 5 18 0;#P connect 18 0 22 0;#P connect 22 0 68 0;#P fasten 17 0 14 0 1474 367 1453 367;#P lcolor 7;#P connect 14 0 132 0;#P connect 132 0 33 0;#P connect 22 1 20 0;#P connect 27 0 17 0;#P fasten 29 1 13 0 1722 338 1494 338;#P connect 17 1 13 0;#P fasten 13 0 20 1 1494 377 1494 377;#P connect 68 0 20 1;#P connect 20 2 21 0;#P connect 21 0 67 0;#P fasten 11 0 67 0 1628 440 1494 440;#P connect 13 0 41 0;#P connect 24 0 13 2;#P connect 40 0 46 0;#P fasten 17 0 11 0 1474 367 1628 367;#P lcolor 7;#P fasten 13 0 11 1 1494 373 1665 373;#P connect 40 1 38 0;#P connect 38 0 39 0;#P connect 40 3 37 0;#P connect 39 0 37 0;#P connect 36 0 37 0;#P connect 37 0 6 0;#P connect 40 0 37 1;#P connect 28 0 29 0;#P connect 29 0 11 2;#P connect 11 1 16 0;#P connect 99 0 16 0;#P connect 16 0 5 0;#P fasten 5 0 40 0 1703 483 1703 483;#P connect 35 0 36 0;#P connect 129 0 35 0;#P fasten 40 2 35 0 1731 505 1731 505;#P connect 40 1 129 0;#P pop;