max v2;#N vpatcher 135 92 821 522;#P origin 0 -4;#P window setfont Times 9.;#P window linecount 1;#P newex 39 62 18 1310729 t 1;#P newex 39 41 50 1310729 route bang;#N comlet from flonum (send on UP);#P inlet 39 17 15 0;#P newex 64 17 145 1310729 r $1/play;#B color 11;#P window setfont "Sans Serif" 9.;#P newex 363 141 62 196617 projectpath;#B color 6;#P newex 238 141 62 196617 projectpath;#B color 6;#P window setfont Times 9.;#P newex 76 365 105 1310729 s $1/done;#B color 11;#P newex 363 249 61 1310729 prepend write;#P newex 363 229 47 1310729 tosymbol;#P newex 238 249 57 1310729 prepend read;#P newex 238 229 47 1310729 tosymbol;#P newex 529 69 119 1310729 r $1/write;#B color 11;#P message 535 179 29 1310729 open;#P newex 535 159 119 1310729 r $1/open;#B color 11;#P newex 238 68 27 1310729 t b b;#P newex 238 209 102 1310729 sprintf %sconfig/%s.txt;#P message 512 48 78 1310729 $1;#P newex 363 209 102 1310729 sprintf %sconfig/%s.txt;#P newex 33 385 62 1310729 s $1/sw;#B color 11;#P newex 123 113 18 1310729 t 0;#P newex 123 93 93 1310729 r $1/stop;#B color 11;#P newex 255 320 145 1310729 r $1/print;#B color 11;#P newex 92 206 96 1310729 r $1;#B color 11;#P newex 295 40 88 1310729 r /qlist/reload;#B color 11;#P button 238 93 15 0;#N comlet reload;#P inlet 458 23 15 0;#P newex 77 260 27 1310729 t 0 b;#P newex 30 313 50 1310729 t stopped 0;#P newex 30 292 27 1310729 gate;#P newex 152 260 27 1310729 t 1 f;#P newex 37 113 18 1310729 t 0;#P message 169 320 35 1310729 play \$1;#P message 94 320 26 1310729 done;#P newex 94 346 105 1310729 print $1;#P message 124 320 23 1310729 read;#P newex 363 92 144 1310729 route write;#N comlet messages to qlist;#P inlet 363 74 15 0;#P newex 238 40 43 1310729 loadbang;#P message 12 158 31 1310729 set \$1;#N comlet num box (float) for play tempo;#P outlet 12 176 15 0;#N qlist;#P newobj 79 228 40 1310729 qlist;#B color 5;#P newex 37 93 27 1310729 del 1;#P flonum 79 116 35 9 0 0 64 20 0 0 0 221 221 221 222 222 222 0 0 0;#P newex 79 143 83 1310729 sel 0.;#P message 125 167 98 1310729 rewind \, bang \, tempo \$1;#P window linecount 2;#P message 79 168 37 1310729 stop \, rewind;#P comment 263 366 182 1310729 arg 1 : qlist file name \; arg 2 : general qlist name for stop (ex. "qlist");#P window setfont "Sans Serif" 9.;#P window linecount 1;#P comment 473 23 35 196617 reload;#P fasten 5 0 9 0 84 138 17 138;#P connect 17 0 9 0;#P connect 28 0 9 0;#P connect 9 0 8 0;#P connect 21 0 19 0;#P connect 18 0 19 0;#P connect 20 1 19 0;#P connect 19 0 20 0;#P connect 21 0 29 0;#P connect 20 1 29 0;#P connect 18 0 29 0;#P fasten 7 1 6 0 99 250 71 250 71 89 42 89;#P lcolor 7;#P connect 6 0 17 0;#P connect 44 0 46 0;#P connect 45 0 46 0;#P connect 46 0 47 0;#P connect 27 0 19 1;#P fasten 4 0 19 1 84 164 52 164;#P connect 21 1 41 0;#P connect 7 1 21 0;#P connect 46 1 5 0;#P fasten 47 0 5 0 44 82 84 82;#P connect 5 0 4 0;#P connect 27 0 2 0;#P connect 4 0 2 0;#P connect 40 0 7 0;#P connect 38 0 7 0;#P fasten 35 0 7 0 540 199 84 199;#P fasten 3 0 7 0 130 199 84 199;#P connect 2 0 7 0;#P fasten 12 1 7 0 502 199 84 199;#P connect 25 0 7 0;#P connect 21 1 15 0;#P fasten 20 0 14 0 35 338 99 338;#P fasten 13 0 14 0 129 338 99 338;#P fasten 16 0 14 0 174 338 99 338;#P connect 15 0 14 0;#P fasten 26 0 14 0 260 342 99 342;#P connect 27 0 28 0;#P fasten 7 2 13 0 114 305 129 305;#P connect 4 1 3 0;#P connect 4 1 18 0;#P connect 18 1 16 0;#P connect 22 0 33 0;#P connect 24 0 33 0;#P connect 10 0 33 0;#P connect 33 0 23 0;#P connect 23 0 42 0;#P connect 42 0 32 0;#P connect 32 0 37 0;#P connect 37 0 38 0;#P fasten 31 0 32 1 517 69 335 69;#P connect 11 0 12 0;#P connect 12 0 43 0;#P connect 36 0 43 0;#P connect 43 0 30 0;#P connect 30 0 39 0;#P connect 39 0 40 0;#P connect 31 0 30 1;#P connect 33 1 31 0;#P connect 34 0 35 0;#P pop;