max v2;#N vpatcher 784 79 1369 427;#P origin 0 -32;#P window setfont "Sans Serif" 9.;#P hidden newex 90 195 20 196617 t b;#P hidden newex 62 221 20 196617 t b;#P window setfont Times 9.;#P hidden newex 41 80 65 1310729 r $1/play/stop;#B color 11;#P window setfont "Sans Serif" 9.;#P hidden newex 25 269 56 196617 s $1/play;#P hidden newex 104 173 65 196617 s $1/reload;#P hidden newex 62 243 57 196617 s $1/open;#P hidden newex 90 217 62 196617 s $1/write;#N vpatcher 993 327 1356 612;#P origin 0 -19;#P window setfont "Sans Serif" 9.;#P newex 199 195 57 196617 route bang;#P newex 198 119 48 196617 t s clear;#P message 118 192 33 196617 clear;#P window linecount 1;#P newex 118 168 75 196617 r /events/init;#B color 12;#P window linecount 0;#P newex 198 225 62 196617 prepend set;#P newex 198 168 64 196617 fromsymbol;#P newex 198 98 51 196617 tosymbol;#P newex 198 75 56 196617 route text;#P window linecount 1;#P newex 19 101 170 196617 makeparam $1/comment /events s;#B color 12;#P newex 198 145 141 196617 variedit $1/comment events;#P inlet 198 15 15 0;#P outlet 198 249 15 0;#P connect 8 0 9 0;#P connect 1 0 4 0;#P connect 4 0 5 0;#P connect 5 0 10 0;#P connect 10 0 2 0;#P fasten 2 1 6 0 268 165 203 165;#P connect 11 1 7 0;#P fasten 9 0 0 0 123 245 203 245;#P connect 7 0 0 0;#P connect 10 1 0 0;#P connect 6 0 11 0;#P pop;#P newobj 279 74 30 196617 p;#P newex 202 74 74 196617 pvar comment;#P window setfont "Sans Serif" 10.;#P user textedit 128 0 236 62 295060 3 10 no comment;#P objectname comment;#P window setfont "Sans Serif" 9.;#P comment 22 111 260 196617 bpat bkgnd = 128 X 62 ou 236 X 62 with the comments;#P window linecount 3;#P hidden comment 22 135 187 196617 arg 1 : prefix name \; arg 2 : color scheme choice (0 = movie \, 1 = tape \, 2 = camtrk \, 3 = conduite);#P window setfont Times 9.;#P window linecount 1;#N thispatcher;#Q end;#P newobj 146 74 53 1310729 thispatcher;#P hidden inlet 276 47 15 0;#P comment 77 47 31 1310729 reload;#P button 104 47 13 7;#P newex 124 74 18 1310729 t 1;#P button 10 30 15 6;#P comment 7 17 63 1310729 trig/tempotrig;#P window setfont Times 10.;#P flonum 25 30 31 10 0. 0 65 20 0 0 0 40 204 140 222 222 222 0 0 0;#P window setfont Times 9.;#P message 90 29 27 1310729 open;#B color 9;#P message 248 196 27 1310729 write;#B color 4;#P bpatcher 0 0 128 62 0 0 bkgnd15-.mxt 0 $1 $2;#P objectname background;#P hidden connect 9 0 5 0;#P hidden connect 20 0 3 0;#P hidden connect 6 0 19 0;#P hidden connect 3 0 19 0;#P hidden connect 2 0 21 0;#P hidden connect 21 0 17 0;#P hidden connect 1 0 22 0;#P hidden connect 22 0 16 0;#P hidden connect 7 0 18 0;#P hidden connect 5 0 6 0;#P hidden connect 0 0 10 0;#P connect 15 0 14 0;#P connect 14 0 15 0;#P pop;