max v2;#N vpatcher 63 44 1415 855;#P origin -420 -860;#P window setfont "Sans Serif" 9.;#P window linecount 1;#N vpatcher 328 128 653 841;#P origin -142 44;#P window setfont "Sans Serif" 9.;#P window linecount 1;#P newex 127 462 20 196617 t -;#P window linecount 0;#P newex 106 433 105 196617 route **comment**;#P newex 106 405 51 196617 route set;#P message 123 358 35 196617 line 1;#P newex 106 264 112 196617 t b s;#P newex 106 332 112 196617 sprintf read %s%s.txt;#N coll filepaths.txt;#P newobj 106 308 85 196617 coll filepaths.txt;#B color 5;#P message 106 286 40 196617 events;#P newex 106 377 40 196617 text;#P button 18 192 15 0;#N comlet done;#P outlet 18 213 15 0;#P newex 106 516 30 196617 t b s;#P newex 49 416 32 196617 del 1;#P newex 49 395 20 196617 t b;#P newex 49 437 50 196617 t resume;#P newex 82 180 37 196617 t next;#P newex 122 180 42 196617 t pause;#P number 82 124 35 9 0 0 0 3 0 0 0 221 221 221 222 222 222 0 0 0;#N coll conduite 1;#P newobj 82 100 83 196617 coll conduite 1;#B color 5;#P newex 82 150 50 196617 uzi;#P button 82 51 15 0;#P newex 82 76 111 196617 t length start;#P newex 106 236 78 196617 route symbol;#N coll conduite 1;#P newobj 82 210 83 196617 coll conduite 1;#B color 5;#N comlet to coll;#P outlet 106 650 15 0;#P inlet 82 27 15 0;#P newex 106 495 51 196617 tosymbol;#P newex 126 601 62 196617 prepend set;#P newex 106 625 40 196617 append;#P button 106 537 15 0;#P newex 106 556 133 196617 zl reg;#P newex 106 579 90 196617 sprintf nsub %s 1;#P connect 12 1 22 0;#P connect 22 0 21 0;#P connect 23 0 18 0;#P connect 18 0 19 0;#P connect 19 0 17 0;#P connect 6 0 11 0;#P connect 11 0 10 0;#P connect 10 0 13 0;#P connect 13 0 14 0;#P connect 14 0 12 0;#P fasten 15 0 12 0 127 200 176 200 176 146 87 146;#P fasten 17 0 12 0 54 458 43 458 43 143 87 143;#P connect 12 0 16 0;#P fasten 10 1 8 0 188 205 87 205;#P connect 16 0 8 0;#P connect 8 1 9 0;#P connect 9 0 27 0;#P connect 27 0 24 0;#P connect 24 0 25 0;#P connect 25 0 26 0;#P connect 28 0 23 0;#P connect 26 0 23 0;#P connect 23 0 29 0;#P connect 29 0 30 0;#P connect 30 0 5 0;#P connect 31 0 5 0;#P connect 5 0 20 0;#P connect 20 0 2 0;#P connect 2 0 1 0;#P connect 1 0 0 0;#P connect 4 0 3 0;#P connect 0 0 3 0;#P connect 3 0 7 0;#P connect 12 2 15 0;#P fasten 23 1 28 0 126 398 163 398 163 354 128 354;#P connect 20 1 4 0;#P connect 30 1 31 0;#P connect 27 1 26 1;#P fasten 9 0 1 1 111 259 234 259;#P pop;#P newobj 610 244 146 196617 p comment et pos-> sequentiel;#B color 6;#P newex 1050 666 86 196617 r **comment**;#B color 12;#P newex 1256 260 40 196617 t clear;#P button 1205 323 15 0;#P hidden newex 394 143 32 196617 sel 0;#P hidden newex 258 142 32 196617 sel 0;#P newex 1205 303 95 196617 pvar newcuebutton;#B color 14;#P comment 1024 518 39 196617 delete;#P comment 966 518 31 196617 build;#P button 1062 517 15 0;#P button 950 516 15 0;#P window setfont "Sans Serif" 12.;#P newex 950 541 122 196620 t_qlistshell-builder;#B color 6;#P newex 950 574 110 196620 conduite_events;#B color 6;#P window setfont "Sans Serif" 9.;#P newex 1169 201 69 196617 route symbol;#B color 12;#N coll conduite 1;#P newobj 1149 181 75 196617 coll conduite 1;#B color 5;#P newex 632 265 125 196617 r $0/reorder;#B color 12;#P button 623 286 15 0;#P button 1017 172 15 0;#P newex 457 23 103 196617 r $1/init;#B color 12;#P button 457 43 15 0;#P newex 823 546 51 196617 zl ecils 2;#P newex 241 646 38 196617 del 10;#P message 261 625 23 196617 0 0;#P newex 241 605 30 196617 t b b;#P button 241 586 15 0;#P newex 457 61 297 196617 t b b b;#P newex 131 600 21 196617 t 1;#P number 85 255 35 9 0 4 3 3 0 0 0 221 221 221 222 222 222 0 0 0;#P number 37 256 35 9 0 0 1 3 0 0 0 221 221 221 222 222 222 0 0 0;#P newex 37 281 58 196617 pack 0 0;#P message 37 303 79 196617 col \$2 width \$1;#P newex 823 577 49 196617 route int;#P newex 103 435 20 196617 t b;#P message 241 667 81 196617 mode selmode 0;#P newex 194 477 21 196617 t 0;#P toggle 131 549 15 0;#P newex 241 565 32 196617 sel 0;#P newex 131 521 40 196617 change;#P newex 131 576 32 196617 sel 1;#P message 103 459 67 196617 interval 100;#P newex 103 477 66 196617 modifiers;#P message 131 629 90 196617 mode selmode \$1;#P user ubutton 230 118 61 20 0 2;#P objectname newcuebutton;#P hidden message 283 166 56 196617 frgb 0 0 0;#P hidden message 343 165 86 196617 frgb 0 146 207;#P hidden newex 313 190 90 196617 pvar reorderlabel;#P hidden message 133 167 56 196617 frgb 0 0 0;#P hidden message 193 166 86 196617 frgb 0 146 207;#P hidden newex 161 190 88 196617 pvar newcuelabel;#P window setfont "Sans Serif" 12.;#P comment 229 118 63 196620 new cue;#P objectname newcuelabel;#P window setfont "Sans Serif" 9.;#P window linecount 2;#P message 368 210 71 196617 \; $1/init bang \;;#P window linecount 1;#P newex 804 722 47 196617 zl group;#P newex 804 746 140 196617 s /events/fromqlistmanager;#B color 12;#P newex 804 698 84 196617 route symbol int;#P button 731 434 15 0;#P newex 731 451 122 196617 t dump length dump clear;#N coll ;#P newobj 804 676 85 196617 coll;#B color 5;#P newex 782 516 51 196617 zl slice 1;#P newex 804 634 73 196617 sprintf %i %s;#N coll conduite 1;#P newobj 782 492 75 196617 coll conduite 1;#B color 5;#P newex 1014 472 58 196617 pvar stage;#P button 214 270 15 0;#P newex 214 293 52 196617 s $1/init;#P message 547 556 104 196617 oso_init;#P newex 547 532 62 196617 prepend set;#P newex 523 394 40 196617 t b i b;#P message 572 442 60 196617 start \, bang;#P newex 523 441 40 196617 uzi;#P message 523 465 30 196617 next;#P newex 547 509 69 196617 route symbol;#B color 15;#P newex 523 372 44 196617 zl nth 2;#N coll conduite 1;#P newobj 523 488 82 196617 coll conduite 1;#B color 5;#P newex 490 384 29 196617 gate;#P toggle 490 290 15 0;#P newex 490 268 115 196617 r $0/cellblock/outgate;#B color 12;#P window setfont "Sans Serif" 12.;#P window linecount 2;#N vpatcher 17 226 798 750;#P origin -118 0;#P window setfont "Sans Serif" 9.;#P window linecount 1;#P message 494 94 29 196617 play;#P newex 473 70 27 196617 b 2;#P newex 233 446 50 196617 del 1000;#P newex 233 477 110 196617 s $0/refreshcellblock;#P newex 281 425 27 196617 t b l;#P outlet 298 451 15 0;#P newex 265 199 30 196617 t b s;#P newex 331 345 62 196617 prepend set;#P newex 281 401 40 196617 append;#P newex 281 345 36 196617 zl reg;#P newex 281 375 90 196617 sprintf nsub %s 2;#P newex 265 173 69 196617 route symbol;#P newex 264 149 154 196617 dialog Cue Position In Sequentiel;#P newex 277 72 22 196617 b 1;#P inlet 324 226 15 0;#P newex 158 338 29 196617 t 1 l;#P newex 173 68 27 196617 b 2;#P newex 398 70 27 196617 b 2;#P newex 157 278 36 196617 zl reg;#P newex 175 401 61 196617 forward;#P newex 158 316 101 196617 sprintf send %s/%s;#P message 190 93 30 196617 open;#P message 415 97 38 196617 reload;#P comment 414 54 38 196617 reload;#P newex 96 29 479 196617 route 0 1 2 3 4;#P inlet 96 9 15 0;#P window linecount 0;#P comment 185 56 48 196617 nom;#P connect 1 0 2 0;#P connect 25 0 8 0;#P connect 10 0 8 0;#P connect 9 0 8 0;#P fasten 8 0 6 0 162 314 163 314;#P connect 6 0 11 0;#P connect 2 1 10 0;#P connect 11 0 7 0;#P connect 11 1 7 0;#P connect 12 0 8 1;#P connect 10 1 5 0;#P connect 22 0 24 0;#P connect 24 0 23 0;#P connect 26 0 6 1;#P fasten 4 0 6 1 420 145 254 145;#P fasten 5 0 6 1 195 145 254 145;#P connect 13 0 14 0;#P connect 14 0 15 0;#P connect 15 0 20 0;#P connect 2 2 13 0;#P connect 20 0 17 0;#P connect 17 0 16 0;#P connect 16 0 18 0;#P connect 19 0 18 0;#P connect 18 0 22 0;#P connect 22 1 21 0;#P connect 12 0 17 1;#P connect 20 1 19 0;#P connect 2 3 9 0;#P connect 9 1 4 0;#P connect 2 4 25 0;#P connect 25 1 26 0;#P pop;#P newobj 490 575 67 196620 p open & reload;#B color 7;#P window setfont "Sans Serif" 9.;#P window linecount 1;#P newex 509 291 94 196617 r $0/cellblock;#B color 12;#P newex 509 348 78 196617 pvar cellblockq;#B color 14;#P message 610 324 103 196617 0 0 \, mode selmode 0;#N vpatcher 29 357 471 535;#P inlet 156 34 15 0;#P outlet 156 119 15 0;#P window setfont "Sans Serif" 9.;#P window linecount 1;#P newex 156 83 38 196617 del 30;#P outlet 226 119 15 0;#P window linecount 0;#P newex 156 60 81 196617 t b writeagain b;#P message 226 84 52 196617 sort -1 1;#P connect 5 0 1 0;#P connect 1 0 3 0;#P connect 3 0 4 0;#P connect 1 2 0 0;#P fasten 1 1 2 0 196 102 231 102;#P connect 0 0 2 0;#P pop;#P newobj 623 304 53 196617 p reorder;#B color 6;#P window linecount 2;#P message 570 104 87 196617 \; $0/reorder bang;#P window linecount 1;#P newex 1031 432 110 196617 s $0/refreshcellblock;#P newex 610 206 110 196617 r $0/refreshcellblock;#B color 12;#P window linecount 3;#P message 468 179 70 196617 \; $0/cellblock/outgate 1;#P window linecount 1;#P newex 468 156 50 196617 del 1000;#P newex 1170 400 53 196617 t s b s 1;#P newex 1148 475 21 196617 t 1;#P newex 1148 452 44 196617 del 100;#P newex 1148 507 29 196617 gate;#P newex 1175 475 21 196617 t 0;#N coll conduite 1;#P newobj 1198 424 75 196617 coll conduite 1;#B color 5;#P button 610 226 15 0;#P button 928 414 15 0;#P newex 920 392 29 196617 thru;#P user textedit 0 113 224 138 32916 3 9 anewcue;#P objectname newcuetxt;#P newex 1169 221 30 196617 t s b;#P newex 941 199 157 196617 r $0/newcue/name;#B color 12;#P window linecount 4;#P message 313 316 146 196617 \; $0/cellblock/outgate 0 \; $0/cellblock mode selmode 1 \; $0/refreshcellblock bang \;;#P window linecount 1;#P message 699 110 33 196617 dump;#P newex 941 221 30 196617 t s b;#P newex 1170 357 81 196617 pvar newcuetxt;#B color 14;#P newex 920 371 183 196617 sprintf store %s " - " 999 reload play;#P newex 457 81 574 196617 b 6;#P window setfont "Sans Serif" 12.;#N vpatcher 14 44 671 403;#P origin 111 -19;#P window setfont "Sans Serif" 9.;#P newex 67 113 66 196617 t l l l l l;#P message 456 220 138 196617 set **comment** - \\\; 1 \\\;;#P newex 67 214 30 196617 t b s;#P newex 67 178 115 196617 sprintf send %s/reload;#P newex 216 212 30 196617 t b s;#P newex 216 178 112 196617 sprintf send %s/write;#P newex 456 197 30 196617 t b s;#P newex 456 178 81 196617 sprintf send %s;#N comlet text name to create new qlistshell;#P inlet 67 57 15 0;#P newex 316 296 47 196617 forward;#P connect 1 0 9 0;#P connect 9 0 6 0;#P connect 6 0 7 0;#P connect 9 1 4 0;#P connect 4 0 5 0;#P connect 7 0 0 0;#P connect 7 1 0 0;#P connect 5 0 0 0;#P connect 5 1 0 0;#P connect 8 0 0 0;#P connect 3 1 0 0;#P connect 1 0 2 0;#P connect 9 3 2 0;#P connect 2 0 3 0;#P connect 3 0 8 0;#P pop;#P newobj 1095 290 85 196620 p qlistmaker;#B color 6;#P window setfont "Sans Serif" 9.;#P message 1149 123 37 196617 config;#N coll filepaths.txt;#P newobj 1149 141 85 196617 coll filepaths.txt;#B color 5;#P newex 1149 161 135 196617 sprintf read %sconduite.txt;#P message 635 178 58 196617 writeagain;#P window linecount 3;#P message 533 134 135 196617 \; $0/cellblock/outgate 0 \; $0/cellblock refer conduite;#P window linecount 1;#N coll conduite 1;#P newobj 764 299 75 196617 coll conduite 1;#B color 5;#P user jit.cellblock 0 1 432 109 3 9 5 28 47 22 0 1 1 0 1 0 1 0 0 0 0 0 255 255 255 0 0 0 0 0 0 255 255 255 0 0 0 247 247 247 0 0 0 1 1 0 0 0;#X col 0 layout 120 1 94 0 0 1 0 0 0 0 4 -1;#X col 5 layout 38 1 5 0 0 1 0 161 224 1 -1 -1;#X col 3 layout 35 1 0 0 0 1 0 0 0 1 -1 -1;#X col 2 layout 30 1 0 0 0 1 0 0 0 1 -1 -1;#X col 1 layout 200 1 83 22 0 1 0 0 0 -1 1 -1;#X col 4 layout 33 1 73 50 0 1 0 0 0 1 -1 -1;#P objectname cellblockq;#P newex 1148 530 147 196617 s $0/newcue/name;#B color 12;#P newex 1170 378 56 196617 route text;#P user ubutton 368 118 61 20 0 2;#P window setfont "Sans Serif" 12.;#P comment 369 118 57 196620 reorder;#P objectname reorderlabel;#P window setfont "Sans Serif" 9.;#P comment 1032 172 71 196617 counter reset;#P window linecount 3;#P comment 389 652 148 196617 scan qlists for comment line \; add comments to conduite coll \; build qlists \;;#P hidden connect 86 0 6 0;#P connect 88 0 87 0;#P connect 87 0 86 0;#P connect 89 0 87 1;#P connect 91 1 84 0;#P connect 84 0 77 0;#P connect 77 0 76 0;#P connect 82 0 79 0;#P connect 76 2 79 0;#P connect 79 0 81 0;#P connect 81 0 78 0;#P connect 78 0 90 0;#P connect 90 0 75 0;#P hidden connect 111 0 70 0;#P hidden connect 74 0 70 0;#P hidden connect 69 0 68 0;#P hidden connect 70 0 68 0;#P hidden connect 74 1 69 0;#P connect 91 2 82 0;#P connect 55 0 54 0;#P connect 81 0 80 0;#P connect 80 0 92 0;#P connect 92 0 93 0;#P connect 93 0 95 0;#P connect 95 0 83 0;#P hidden connect 74 3 111 0;#P connect 93 1 94 0;#P hidden connect 3 0 73 0;#P hidden connect 112 0 73 0;#P hidden connect 72 0 71 0;#P hidden connect 73 0 71 0;#P fasten 14 0 19 0 462 305 318 305;#P hidden connect 3 1 72 0;#P hidden connect 3 0 66 0;#P hidden connect 3 3 112 0;#P connect 98 0 97 0;#P connect 97 0 91 0;#P connect 91 0 14 0;#P connect 14 0 32 0;#P connect 32 0 33 0;#P connect 42 0 43 0;#P connect 43 0 44 0;#P connect 44 0 41 0;#P connect 75 0 39 0;#P connect 40 0 39 0;#P fasten 38 0 39 0 615 343 514 343;#P connect 94 0 39 0;#P connect 83 0 39 0;#P connect 39 0 44 1;#P fasten 39 0 46 0 514 368 528 368;#P connect 46 0 51 0;#P connect 51 0 49 0;#P connect 49 0 48 0;#P connect 48 0 45 0;#P fasten 50 0 45 0 577 484 528 484;#P connect 14 1 8 0;#P connect 45 1 47 0;#P connect 47 0 52 0;#P connect 52 0 53 0;#P fasten 49 1 53 0 543 461 627 461 627 550 552 550;#P connect 53 0 41 1;#P connect 51 1 49 1;#P connect 14 2 36 0;#P connect 51 2 50 0;#P connect 34 0 25 0;#P connect 25 0 116 0;#P connect 116 0 38 0;#P connect 116 0 100 0;#P connect 101 0 100 0;#P connect 100 0 37 0;#P fasten 24 0 9 0 933 431 607 431 607 175 640 175;#P lcolor 15;#P connect 14 3 18 0;#P connect 37 0 62 0;#P connect 62 0 61 0;#P connect 116 1 7 0;#P fasten 23 0 7 0 925 424 737 424 737 291 769 291;#P fasten 41 0 7 0 495 619 726 619 726 284 769 284;#P connect 37 1 7 0;#P fasten 18 0 7 0 704 198 769 198;#P fasten 9 0 7 0 640 198 769 198;#P connect 61 2 57 0;#P fasten 57 0 59 0 787 514 787 514;#P fasten 85 0 58 0 828 614 809 614;#P connect 58 0 60 0;#P connect 61 0 60 0;#P connect 61 1 60 0;#P connect 61 3 60 0;#P connect 60 0 63 0;#P connect 63 0 65 0;#P connect 59 1 96 0;#P connect 96 0 85 0;#P connect 63 1 65 1;#P fasten 57 1 58 1 808 512 872 512;#P fasten 17 0 15 0 946 271 925 271;#P lcolor 7;#P connect 15 0 23 0;#P connect 23 0 24 0;#P connect 20 0 17 0;#P connect 106 0 105 0;#P connect 105 0 104 0;#P connect 14 5 99 0;#P connect 31 0 35 0;#P connect 107 0 105 1;#P fasten 17 0 13 0 946 271 1100 271;#P lcolor 7;#P connect 31 1 29 0;#P connect 29 0 30 0;#P connect 27 0 28 0;#P connect 30 0 28 0;#P connect 31 3 28 0;#P connect 28 0 5 0;#P connect 14 4 12 0;#P connect 12 0 11 0;#P connect 11 0 10 0;#P connect 10 0 102 0;#P connect 31 0 28 1;#P connect 102 1 103 0;#P connect 103 0 21 0;#P connect 113 0 16 0;#P connect 16 0 4 0;#P fasten 4 0 31 0 1175 398 1175 398;#P connect 26 0 27 0;#P fasten 31 2 26 0 1203 420 1203 420;#P connect 110 0 113 0;#P pop;