max v2;#N vpatcher 3 44 1391 778;#P origin -139 -387;#P window setfont "Sans Serif" 9.;#P newex 26 216 79 196617 r dim_command;#B color 15;#P button 460 238 15 0;#P newex 1108 296 40 196617 t s b s;#P newex 1086 371 21 196617 t 1;#P newex 1086 348 44 196617 del 100;#P newex 1086 403 29 196617 gate;#P newex 1113 371 21 196617 t 0;#N coll conduite.txt;#P newobj 1138 317 83 196617 coll conduite.txt;#P newex 482 231 110 196617 r $0/reorder;#B color 12;#P newex 116 501 72 196617 s $0/reorder;#P button 8 211 15 0;#P newex 8 240 185 196617 t dump 1 -1 0 length 1 clear;#P newex 116 472 31 196617 t b 0;#P newex 116 450 32 196617 sel 1;#P button 80 389 15 0;#P newex 136 386 27 196617 - 1;#N counter 0 3;#X flags 0 0;#P newobj 80 412 66 196617 counter 0 3;#P newex 201 367 78 196617 prepend append;#P user ubumenu 201 454 100 196617 0 1 1 0;#X add aa;#X add this;#X add bb;#X add cc;#X add dd;#X add ee;#X prefix_set 0 0 <none> 0;#P newex 201 346 78 196617 route symbol;#P toggle 116 616 15 0;#P newex 257 649 29 196617 gate;#P newex 257 676 30 196617 t b b;#P number 136 366 35 9 0 0 0 3 0 0 0 221 221 221 222 222 222 0 0 0;#P newex 136 342 29 196617 gate;#P newex 416 455 51 196617 tosymbol;#P newex 416 482 62 196617 prepend set;#P newex 366 538 40 196617 append;#P button 366 455 15 0;#P newex 366 482 36 196617 zl reg;#P newex 366 512 90 196617 sprintf nsub %s 1;#N coll conduite.txt;#P newobj 8 280 83 196617 coll conduite.txt;#P newex 366 427 46 196617 r ****;#B color 12;#P message 263 582 68 196617 rewind \, next;#P newex 246 480 112 196617 t b s;#P newex 246 554 112 196617 sprintf read %s%s.txt;#N coll filepaths.txt;#P newobj 246 530 85 196617 coll filepaths.txt;#P message 246 508 40 196617 events;#N qlist;#X append **** \;;#P newobj 246 602 40 196617 qlist;#P newex 484 255 119 196617 t readagain writeagain b;#P button 818 344 15 0;#P newex 858 295 29 196617 thru;#P user textedit 73 170 293 194 32916 3 9;#P objectname newcuetxt;#P message 665 673 90 196617 prems;#P newex 664 651 62 196617 prepend set;#P window linecount 2;#P newex 692 254 42 196617 route symbol;#B color 12;#P window linecount 1;#P newex 636 531 40 196617 t b i b;#P message 688 561 60 196617 start \, bang;#P newex 639 560 40 196617 uzi;#P message 640 584 30 196617 next;#P newex 664 628 69 196617 route symbol;#B color 15;#P newex 583 534 44 196617 zl nth 2;#N coll conduite.txt;#P newobj 640 607 83 196617 coll conduite.txt;#P window setfont "Sans Serif" 12.;#N vpatcher 290 364 1071 888;#P origin -118 0;#P toggle 59 344 15 0;#P window setfont "Sans Serif" 9.;#P window linecount 1;#P message 109 319 14 196617 0;#P window linecount 0;#P message 94 319 14 196617 1;#P window linecount 1;#P newex 98 369 29 196617 gate;#P newex 78 403 72 196617 s $0/reorder;#P newex 158 338 27 196617 t b l;#P newex 173 100 27 196617 b 2;#P newex 248 100 27 196617 b 2;#P newex 323 100 27 196617 b 2;#P newex 398 98 27 196617 b 2;#P newex 157 278 36 196617 zl reg;#P newex 175 401 61 196617 forward;#P newex 158 316 101 196617 sprintf send %s/%s;#P message 190 125 30 196617 open;#P message 415 125 38 196617 reload;#P message 340 125 45 196617 position;#P window linecount 0;#P message 265 125 50 196617 comment;#P window linecount 1;#P comment 415 88 38 196617 reload;#P comment 337 88 45 196617 position;#P comment 261 88 50 196617 comment;#P newex 173 36 310 196617 route 0 1 2 3;#P inlet 623 44 15 0;#P inlet 173 16 15 0;#P window linecount 0;#P comment 185 88 48 196617 nom;#P connect 22 0 23 0;#P connect 21 0 23 0;#P connect 20 0 19 0;#P connect 22 0 20 0;#P connect 21 0 20 0;#P connect 15 1 22 0;#P connect 18 0 20 1;#P connect 14 0 13 0;#P connect 15 0 13 0;#P connect 16 0 13 0;#P connect 17 0 13 0;#P fasten 13 0 11 0 162 314 163 314;#P connect 11 0 18 0;#P connect 1 0 3 0;#P connect 3 0 17 0;#P connect 18 0 12 0;#P connect 18 1 12 0;#P connect 2 0 13 1;#P connect 17 1 10 0;#P connect 3 1 16 0;#P fasten 10 0 11 1 195 145 254 145;#P fasten 7 0 11 1 270 145 254 145;#P fasten 8 0 11 1 345 145 254 145;#P fasten 9 0 11 1 420 145 254 145;#P connect 16 1 7 0;#P connect 3 2 15 0;#P connect 15 1 8 0;#P connect 3 3 14 0;#P connect 14 1 9 0;#P pop;#P newobj 489 572 103 196620 p open & reload;#B color 7;#P window setfont "Sans Serif" 9.;#P message 426 655 90 196617 mode selmode \$1;#P newex 451 632 21 196617 t 5;#P newex 426 632 21 196617 t 1;#P newex 426 601 79 196617 sel 0 1 2 3 4;#P newex 426 578 40 196617 change;#P newex 426 556 51 196617 zl slice 1;#P newex 426 676 29 196617 thru;#P newex 489 477 134 196617 r $0/cellblock;#B color 12;#P window linecount 2;#P newex 489 510 48 196617 pvar cellblock;#B color 14;#P window linecount 1;#P newex 857 40 53 196617 closebang;#P newex 1107 128 30 196617 t s b;#P newex 1107 106 157 196617 r $0/loadcue/name;#B color 12;#P newex 879 106 157 196617 r $0/newcue/name;#B color 12;#P newex 692 296 157 196617 s $0/loadcue/name;#B color 12;#P window linecount 3;#P newex 740 251 58 196617 s $0/counter/reset;#P window linecount 1;#P newex 926 128 159 196617 r $0/counter/reset;#B color 12;#P window linecount 6;#P message 440 135 46 196617 \; $0/cellblock mode selmode 1;#P window linecount 1;#P message 629 135 52 196617 sort -1 1;#P message 235 265 26 196617 prev;#P message 209 265 25 196617 next;#P newex 209 242 62 196617 sel 28 29;#P newex 209 222 40 196617 key;#P newex 857 84 22 196617 b 2;#P newex 899 227 131 196617 sprintf script delete cue%i;#P newex 869 207 40 196617 uzi;#P message 566 135 33 196617 dump;#P message 857 63 33 196617 clear;#P newex 879 128 30 196617 t s b;#P newex 1108 253 81 196617 pvar newcuetxt;#B color 14;#P newex 440 87 48 196617 loadbang;#P newex 858 273 168 196617 sprintf store %s " - " - reload;#N counter;#X flags 0 0;#P newobj 899 155 48 196617 counter;#P newex 440 110 328 196617 b 6;#N vpatcher 10 59 610 459;#P window setfont "Sans Serif" 9.;#P number 256 221 35 9 0 0 0 3 0 0 0 221 221 221 222 222 222 0 0 0;#P newex 256 198 74 196617 route populate;#P newex 207 270 62 196617 prepend set;#N counter;#X flags 0 0;#P newobj 64 108 66 196617 counter;#P toggle 63 50 15 0;#P newex 63 73 58 196617 metro 100;#P newex 207 297 48 196617 append s;#P newex 122 160 40 196617 t 1 b s;#P newex 198 218 40 196617 itoa;#P newex 198 197 51 196617 zl ecils 4;#P newex 198 177 40 196617 atoi;#P newex 198 157 51 196617 strippath;#P newex 153 93 69 196617 route symbol;#P message 153 50 40 196617 events;#N coll filepaths.txt;#P newobj 153 69 85 196617 coll filepaths.txt;#B color 5;#P newex 153 115 76 196617 prepend prefix;#P user ubumenu 153 137 100 196617 0 1 1 0;#X add .svn;#X prefix_set 0 1 work:/STOCK/tape-movie/M-463/MOVIE/events/ 0;#P newex 137 249 101 196617 sprintf send %s/%s;#P message 122 138 29 196617 play;#P message 90 138 30 196617 open;#P message 50 138 38 196617 reload;#P newex 122 275 47 196617 forward;#P outlet 207 319 15 0;#P connect 18 0 17 0;#P connect 17 0 19 0;#P connect 2 0 15 0;#P connect 3 0 15 0;#P connect 4 0 15 0;#P connect 5 0 1 0;#P connect 15 0 1 0;#P connect 14 0 5 0;#P connect 15 1 5 0;#P connect 9 0 8 0;#P connect 8 0 10 0;#P connect 10 0 7 0;#P connect 19 0 6 0;#P connect 7 0 6 0;#P connect 6 1 11 0;#P connect 11 0 12 0;#P connect 12 0 13 0;#P connect 13 0 14 0;#P connect 14 0 20 0;#P connect 6 0 16 0;#P connect 20 0 16 0;#P connect 16 0 0 0;#P fasten 15 2 5 1 157 242 233 242;#P connect 6 2 21 0;#P connect 21 0 22 0;#P pop;#P newobj 209 283 110 196617 p convert old projects;#P window setfont "Sans Serif" 12.;#N vpatcher 20 74 605 813;#P origin 908 30;#P window setfont "Sans Serif" 9.;#P newex 464 35 92 196617 r /events/editors;#N thispatcher;#Q end;#P newobj 440 55 61 196617 thispatcher;#P inlet 440 21 15 0;#P newex 15 30 133 147456009 qlistshell prems;#P newex 15 60 133 147456009 qlistshell deuz;#P objectname cue2;#P newex 15 90 133 147456009 qlistshell tres;#P objectname cue3;#P newex 15 30 133 147456009 qlistshell sdf;#P objectname cue1;#P connect 4 0 5 0;#P connect 6 0 5 0;#P pop;#P newobj 899 249 62 196620 p events;#B color 7;#N vpatcher 116 463 1134 844;#P origin 111 -19;#N comlet text;#P inlet 892 39 15 0;#P window setfont "Sans Serif" 9.;#P newex 61 214 30 196617 t b s;#P newex 61 178 141 196617 sprintf send %s/qlist/reload;#P newex 216 212 30 196617 t b s;#P newex 216 178 112 196617 sprintf send %s/write;#P message 357 218 68 196617 set **** \\\;;#P newex 357 197 30 196617 t b s;#P newex 357 178 81 196617 sprintf send %s;#P newex 792 168 32 196617 * 30;#N comlet text;#P inlet 660 121 15 0;#P newex 613 92 30 196617 t b s;#P newex 643 166 27 196617 i;#N comlet to this patcher;#P outlet 661 238 15 0;#P newex 661 216 40 196617 t clear;#N comlet to this patcher;#P outlet 643 238 15 0;#N comlet text;#P inlet 357 43 15 0;#P newex 357 259 47 196617 forward;#P newex 643 191 309 196617 sprintf script new cue%ld newex 15 %ld 133 18000 qlistshell %s;#P fasten 2 0 15 0 362 82 66 82;#P fasten 17 0 15 0 897 70 66 70;#P lcolor 15;#P connect 15 0 16 0;#P fasten 2 0 13 0 362 82 221 82;#P connect 13 0 14 0;#P connect 2 0 10 0;#P connect 10 0 11 0;#P connect 11 0 12 0;#P connect 11 1 1 0;#P connect 12 0 1 0;#P connect 14 1 1 0;#P connect 14 0 1 0;#P connect 16 1 1 0;#P connect 16 0 1 0;#P fasten 17 0 7 0 897 73 618 73;#P lcolor 15;#P fasten 2 0 7 0 362 82 618 82;#P fasten 7 0 6 0 618 146 648 146;#P connect 6 0 0 0;#P connect 0 0 3 0;#P connect 8 0 6 1;#P connect 0 0 4 0;#P connect 4 0 5 0;#P fasten 8 0 9 0 665 152 797 152;#P connect 9 0 0 1;#P fasten 7 1 0 2 638 114 946 114;#P pop;#P newobj 1033 227 85 196620 p qlistmaker;#B color 6;#P window setfont "Sans Serif" 9.;#P message 692 135 37 196617 config;#P window linecount 2;#N coll filepaths.txt;#P newobj 692 155 62 196617 coll filepaths.txt;#B color 5;#P newex 692 189 78 196617 sprintf read %sconduite.txt;#P window linecount 1;#P message 503 204 58 196617 writeagain;#P window linecount 6;#P message 503 135 57 196617 \; $0/cellblock refer conduite.txt;#P window linecount 1;#N coll conduite.txt;#P newobj 692 227 83 196617 coll conduite.txt;#P user jit.cellblock 1 41 432 141 3 9 4 3 5 20 0 1 1 0 1 0 1 0 1 0 0 0 255 255 255 0 0 0 0 0 0 255 255 255 0 0 0 255 255 255 0 0 0 1 1 0 0 0;#X col 0 layout 150 1 94 0 0 1 0 0 0 0 4 -1;#X col 4 layout 40 1 73 50 0 1 0 0 0 1 -1 -1;#X col 1 layout 200 1 83 22 0 1 0 0 0 -1 1 -1;#X col 2 layout 30 1 0 0 0 1 0 0 0 1 -1 -1;#X col 3 layout 35 1 0 0 0 1 0 0 0 1 -1 -1;#X col 5 layout 38 1 5 0 0 1 0 161 224 1 -1 -1;#P objectname cellblock;#P newex 1086 426 147 196617 s $0/newcue/name;#B color 12;#P newex 1108 274 56 196617 route text;#P user ubutton 25 174 44 15 0 2;#P objectname newcue;#P comment 24 174 44 196617 New Cue;#P user jit.cellblock 1 1 431 44 3 9 4 2 5 20 0 1 1 0 0 0 0 0 0 0 0 0 255 255 255 0 0 0 0 0 0 255 255 255 0 0 0 196 102 105 0 0 0 1 1 0 0 0;#X row 0 layout 0 0 196 102 105 0 222 168 174 -1 -1 -1;#X row 1 layout 0 0 196 102 105 0 147 214 149 -1 -1 -1;#X col 0 layout 150 0 196 102 105 1 0 0 0 0 4 -1;#X col 5 layout 38 1 5 0 0 1 0 161 224 1 -1 -1;#X col 3 layout 35 1 0 0 0 1 0 0 0 1 -1 -1;#X col 2 layout 30 1 0 0 0 1 0 0 0 1 -1 -1;#X col 1 layout 200 1 83 22 0 1 0 0 0 -1 1 -1;#X col 4 layout 40 1 73 50 0 1 0 0 0 1 -1 -1;#P objectname cellblock[1];#P hidden connect 101 0 0 0;#P connect 91 0 90 0;#P connect 90 4 70 0;#P connect 90 0 70 0;#P connect 70 3 87 0;#P fasten 79 0 87 0 262 701 63 701 63 374 85 374;#P connect 87 0 85 0;#P connect 85 2 88 0;#P connect 88 0 89 0;#P connect 89 0 92 0;#P connect 90 1 81 0;#P connect 89 1 81 0;#P connect 90 2 85 3;#P connect 90 3 77 0;#P connect 90 5 77 0;#P connect 77 0 78 0;#P connect 78 0 86 0;#P connect 86 0 85 4;#P connect 70 0 77 1;#P connect 70 1 82 0;#P connect 82 0 84 0;#P connect 84 0 83 0;#P connect 90 6 83 0;#P fasten 85 0 83 0 85 445 206 445;#P connect 26 0 27 0;#P connect 27 0 28 0;#P connect 27 1 29 0;#P connect 83 1 67 0;#P connect 67 0 64 0;#P connect 64 0 65 0;#P connect 65 0 66 0;#P connect 68 0 63 0;#P connect 66 0 63 0;#P fasten 81 0 80 0 121 640 262 640;#P connect 80 0 79 0;#P fasten 79 1 68 0 282 698 338 698 338 578 268 578;#P connect 63 2 80 1;#P connect 67 1 66 1;#P connect 69 0 73 0;#P connect 73 0 72 0;#P connect 72 0 71 0;#P connect 75 0 74 0;#P connect 71 0 74 0;#P fasten 83 1 72 1 251 476 397 476;#P connect 69 0 76 0;#P connect 76 0 75 0;#P connect 39 0 42 0;#P connect 42 0 43 0;#P connect 43 0 44 0;#P connect 44 1 45 0;#P connect 44 4 45 0;#P connect 44 3 45 0;#P connect 44 0 45 0;#P connect 46 0 47 0;#P connect 45 0 47 0;#P connect 47 0 41 0;#P connect 18 0 15 0;#P connect 15 0 31 0;#P connect 44 2 46 0;#P connect 93 0 62 0;#P connect 100 0 62 0;#P connect 40 0 39 0;#P fasten 41 0 39 0 431 700 766 700 766 502 494 502;#P connect 39 0 48 0;#P connect 15 1 7 0;#P connect 61 0 8 0;#P connect 15 2 22 0;#P connect 58 0 48 1;#P connect 39 0 50 0;#P connect 62 2 30 0;#P connect 15 3 30 0;#P connect 50 0 55 0;#P connect 55 0 53 0;#P connect 53 0 52 0;#P connect 52 0 49 0;#P connect 54 0 49 0;#P connect 49 1 51 0;#P connect 51 0 57 0;#P connect 53 1 58 0;#P connect 57 0 58 0;#P connect 55 1 53 1;#P connect 55 2 54 0;#P connect 15 4 11 0;#P connect 11 0 10 0;#P connect 10 0 9 0;#P fasten 60 0 6 0 863 331 675 331 675 225 697 225;#P connect 62 0 6 0;#P connect 62 1 6 0;#P fasten 30 0 6 0 634 224 697 224;#P fasten 8 0 6 0 508 224 697 224;#P connect 9 0 6 0;#P fasten 22 0 6 0 571 224 697 224;#P connect 74 0 6 0;#P connect 6 1 56 0;#P connect 56 0 34 0;#P connect 6 2 33 0;#P connect 60 0 61 0;#P connect 38 0 21 0;#P connect 21 0 25 0;#P connect 37 0 17 0;#P fasten 20 0 17 0 884 178 863 178;#P lcolor 7;#P connect 17 0 60 0;#P connect 25 1 23 0;#P connect 35 0 20 0;#P connect 20 1 16 0;#P fasten 37 1 16 0 1132 149 904 149;#P fasten 16 0 23 1 904 188 904 188;#P connect 23 2 24 0;#P connect 24 0 13 0;#P fasten 12 0 13 0 1038 246 904 246;#P connect 32 0 16 3;#P connect 25 0 16 3;#P fasten 20 0 12 0 884 178 1038 178;#P lcolor 7;#P fasten 16 0 12 1 904 184 1075 184;#P connect 99 1 97 0;#P connect 97 0 98 0;#P connect 98 0 96 0;#P connect 95 0 96 0;#P connect 96 0 4 0;#P connect 99 0 96 1;#P connect 36 0 37 0;#P connect 37 0 12 2;#P connect 12 1 19 0;#P connect 19 0 3 0;#P fasten 3 0 99 0 1113 294 1113 294;#P connect 94 0 95 0;#P connect 99 2 94 0;#P pop;