max v2;#N vpatcher -2 44 1396 839;#P origin -64 -297;#P window setfont "Sans Serif" 9.;#P newex 573 188 72 196617 r $0/reorder;#P newex 290 455 72 196617 s $0/reorder;#P button 182 165 15 0;#P newex 182 194 185 196617 t dump 1 -1 0 length 1 clear;#P newex 290 426 31 196617 t b 0;#P newex 290 404 32 196617 sel 1;#P button 254 343 15 0;#P newex 310 340 27 196617 - 1;#N counter 0 3;#X flags 0 0;#P newobj 254 366 66 196617 counter 0 3;#P newex 438 321 78 196617 prepend append;#P user ubumenu 438 408 100 196617 0 1 1 0;#X add aaa;#X add bbb;#X add ccc;#X add ddd;#X prefix_set 0 0 <none> 0;#P newex 438 300 78 196617 route symbol;#P toggle 290 570 15 0;#P newex 494 603 29 196617 gate;#P newex 494 630 30 196617 t b b;#P number 310 320 35 9 0 0 0 3 0 0 0 221 221 221 222 222 222 0 0 0;#P newex 310 296 29 196617 gate;#P window linecount 2;#P message 521 722 93 196617 \; /qlist/reload bang;#P window linecount 1;#P newex 708 409 51 196617 tosymbol;#P newex 708 436 62 196617 prepend set;#P newex 658 492 40 196617 append;#P button 658 409 15 0;#P newex 658 436 36 196617 zl reg;#P newex 658 466 90 196617 sprintf nsub %s 1;#N coll conduite.txt;#P newobj 182 261 83 196617 coll conduite.txt;#P newex 658 381 46 196617 r ****;#P message 500 536 68 196617 rewind \, next;#P newex 483 434 112 196617 t b s;#P newex 483 508 112 196617 sprintf read %s%s.txt;#N coll filepaths.txt;#P newobj 483 484 85 196617 coll filepaths.txt;#P message 483 462 40 196617 events;#N qlist;#X append **** dddcomment \;;#P newobj 483 556 40 196617 qlist;#P newex 575 212 119 196617 t readagain writeagain b;#P button 911 339 15 0;#P newex 1120 348 32 196617 print;#P newex 948 332 29 196617 thru;#P user textedit 72 124 292 148 32916 3 9;#P objectname newcuetxt;#P message 1131 572 90 196617 ccc;#P newex 1130 550 62 196617 prepend set;#P window linecount 2;#P newex 783 211 42 196617 route symbol;#B color 12;#P window linecount 1;#P newex 1102 430 40 196617 t b i b;#P message 1154 460 60 196617 start \, bang;#P newex 1105 459 40 196617 uzi;#P message 1106 483 30 196617 next;#P newex 1130 527 69 196617 route symbol;#B color 15;#P newex 1049 433 44 196617 zl nth 2;#N coll conduite.txt;#P newobj 1106 506 83 196617 coll conduite.txt;#N vpatcher 403 114 1184 638;#P origin -118 0;#P window setfont "Sans Serif" 9.;#P window linecount 1;#P newex 158 338 27 196617 t b l;#P newex 173 100 27 196617 b 2;#P newex 248 100 27 196617 b 2;#P newex 323 100 27 196617 b 2;#P newex 398 98 27 196617 b 2;#P newex 473 100 27 196617 b 2;#P newex 157 278 36 196617 zl reg;#P newex 181 406 47 196617 forward;#P newex 158 316 101 196617 sprintf send %s/%s;#P message 190 125 30 196617 open;#P message 490 125 38 196617 reload;#P message 415 125 30 196617 open;#P message 340 125 45 196617 position;#P window linecount 0;#P message 265 125 50 196617 comment;#P window linecount 1;#P comment 503 88 38 196617 reload;#P comment 420 88 30 196617 open;#P comment 337 88 45 196617 position;#P comment 261 88 50 196617 comment;#P newex 173 36 385 196617 route 0 1 2 3 4;#P inlet 623 44 15 0;#P inlet 173 16 15 0;#P window linecount 0;#P comment 185 88 48 196617 nom;#P connect 20 0 15 0;#P connect 19 0 15 0;#P connect 18 0 15 0;#P connect 16 0 15 0;#P connect 17 0 15 0;#P fasten 15 0 13 0 162 314 163 314;#P connect 13 0 21 0;#P connect 1 0 3 0;#P connect 3 0 20 0;#P connect 21 0 14 0;#P connect 21 1 14 0;#P connect 2 0 15 1;#P connect 20 1 12 0;#P connect 3 1 19 0;#P fasten 11 0 13 1 495 145 254 145;#P fasten 10 0 13 1 420 145 254 145;#P fasten 9 0 13 1 345 145 254 145;#P fasten 8 0 13 1 270 145 254 145;#P fasten 12 0 13 1 195 145 254 145;#P connect 19 1 8 0;#P connect 3 2 18 0;#P connect 18 1 9 0;#P connect 3 3 17 0;#P connect 17 1 10 0;#P connect 3 4 16 0;#P connect 16 1 11 0;#P pop;#P newobj 955 479 80 196617 p open & reload;#P message 892 554 90 196617 mode selmode \$1;#P newex 917 531 21 196617 t 5;#P newex 892 531 21 196617 t 1;#P newex 892 500 79 196617 sel 0 1 2 3 4;#P newex 892 477 40 196617 change;#P newex 892 455 51 196617 zl slice 1;#P newex 892 575 29 196617 thru;#P newex 955 376 134 196617 r $0/cellblock;#B color 12;#P window linecount 2;#P newex 955 409 48 196617 pvar cellblock;#P window linecount 1;#P newex 947 77 53 196617 closebang;#P newex 1179 165 30 196617 t s b;#P newex 1179 143 157 196617 r $0/loadcue/name;#B color 12;#P newex 969 143 157 196617 r $0/newcue/name;#B color 12;#P newex 783 253 157 196617 s $0/loadcue/name;#B color 12;#P window linecount 3;#P newex 831 208 58 196617 s $0/counter/reset;#P window linecount 1;#P newex 1016 165 159 196617 r $0/counter/reset;#B color 12;#P window linecount 6;#P message 531 92 46 196617 \; $0/cellblock mode selmode 1;#P window linecount 1;#P message 720 92 43 196617 sort -1;#P message 82 413 26 196617 prev;#P message 56 413 25 196617 next;#P newex 56 390 62 196617 sel 28 29;#P newex 56 370 40 196617 key;#P newex 947 121 22 196617 b 2;#P newex 989 264 131 196617 sprintf script delete cue%i;#P newex 959 244 40 196617 uzi;#P message 657 92 33 196617 dump;#P message 947 100 33 196617 clear;#P newex 969 165 30 196617 t s b;#P newex 1179 288 81 196617 pvar newcuetxt;#P newex 531 44 48 196617 loadbang;#P newex 948 310 168 196617 sprintf store %s " - " - edit reload;#N counter;#X flags 0 0;#P newobj 989 192 48 196617 counter;#P newex 531 67 328 196617 b 6;#N vpatcher 10 59 610 459;#P window setfont "Sans Serif" 9.;#P number 256 221 35 9 0 0 0 3 0 0 0 221 221 221 222 222 222 0 0 0;#P newex 256 198 74 196617 route populate;#P newex 207 270 62 196617 prepend set;#N counter;#X flags 0 0;#P newobj 64 108 66 196617 counter;#P toggle 63 50 15 0;#P newex 63 73 58 196617 metro 100;#P newex 207 297 48 196617 append s;#P newex 122 160 40 196617 t 1 b s;#P newex 198 218 40 196617 itoa;#P newex 198 197 51 196617 zl ecils 4;#P newex 198 177 40 196617 atoi;#P newex 198 157 51 196617 strippath;#P newex 153 93 69 196617 route symbol;#P message 153 50 40 196617 events;#N coll filepaths.txt;#P newobj 153 69 85 196617 coll filepaths.txt;#B color 5;#P newex 153 115 76 196617 prepend prefix;#P user ubumenu 153 137 100 196617 0 1 1 0;#X add .svn;#X add dos.txt;#X add tres.txt;#X add unio.txt;#X prefix_set 0 1 work:/STOCK/tape-movie/M-463/MOVIE/events/ 0;#P newex 137 249 101 196617 sprintf send %s/%s;#P message 122 138 29 196617 play;#P message 90 138 30 196617 open;#P message 50 138 38 196617 reload;#P newex 122 275 47 196617 forward;#P outlet 207 319 15 0;#P connect 18 0 17 0;#P connect 17 0 19 0;#P connect 4 0 15 0;#P connect 3 0 15 0;#P connect 2 0 15 0;#P connect 15 0 1 0;#P connect 5 0 1 0;#P connect 14 0 5 0;#P connect 15 1 5 0;#P connect 9 0 8 0;#P connect 8 0 10 0;#P connect 10 0 7 0;#P connect 7 0 6 0;#P connect 19 0 6 0;#P connect 6 1 11 0;#P connect 11 0 12 0;#P connect 12 0 13 0;#P connect 13 0 14 0;#P connect 14 0 20 0;#P connect 20 0 16 0;#P connect 6 0 16 0;#P connect 16 0 0 0;#P fasten 15 2 5 1 157 242 233 242;#P connect 6 2 21 0;#P connect 21 0 22 0;#P pop;#P newobj 57 578 110 196617 p convert old projects;#N vpatcher 20 74 605 813;#P origin 908 30;#P window setfont "Sans Serif" 9.;#P newex 464 35 92 196617 r /events/editors;#N thispatcher;#Q end;#P newobj 440 55 61 196617 thispatcher;#P inlet 440 21 15 0;#P newex 15 120 133 147456009 qlistshell aaa;#P newex 15 150 133 147456009 qlistshell bbb;#P objectname cue5;#P newex 15 180 133 147456009 qlistshell ccc;#P objectname cue6;#P newex 15 210 133 147456009 qlistshell ddd;#P objectname cue7;#P newex 15 30 133 147456009 qlistshell aaa;#P objectname cue1;#P newex 15 60 133 147456009 qlistshell bbb;#P objectname cue2;#P newex 15 90 133 147456009 qlistshell ccc;#P objectname cue3;#P newex 15 120 133 147456009 qlistshell ddd;#P objectname cue4;#P connect 10 0 9 0;#P connect 8 0 9 0;#P pop;#P newobj 989 286 48 196617 p events;#N vpatcher 116 463 1134 844;#P origin 111 -19;#N comlet text;#P inlet 892 39 15 0;#P window setfont "Sans Serif" 9.;#P newex 61 214 30 196617 t b s;#P newex 61 178 141 196617 sprintf send %s/qlist/reload;#P newex 216 212 30 196617 t b s;#P newex 216 178 112 196617 sprintf send %s/write;#P message 357 218 68 196617 set **** \\\;;#P newex 357 197 30 196617 t b s;#P newex 357 178 81 196617 sprintf send %s;#P newex 792 168 32 196617 * 30;#N comlet text;#P inlet 660 121 15 0;#P newex 613 92 30 196617 t b s;#P newex 643 166 27 196617 i;#N comlet to this patcher;#P outlet 661 238 15 0;#P newex 661 216 40 196617 t clear;#N comlet to this patcher;#P outlet 643 238 15 0;#N comlet text;#P inlet 357 43 15 0;#P newex 357 259 47 196617 forward;#P newex 643 191 309 196617 sprintf script new cue%ld newex 15 %ld 133 18000 qlistshell %s;#P fasten 2 0 15 0 362 82 66 82;#P fasten 17 0 15 0 897 70 66 70;#P lcolor 15;#P connect 15 0 16 0;#P fasten 2 0 13 0 362 82 221 82;#P connect 13 0 14 0;#P connect 2 0 10 0;#P connect 10 0 11 0;#P connect 11 0 12 0;#P connect 16 0 1 0;#P connect 16 1 1 0;#P connect 14 0 1 0;#P connect 14 1 1 0;#P connect 12 0 1 0;#P connect 11 1 1 0;#P fasten 2 0 7 0 362 82 618 82;#P fasten 17 0 7 0 897 73 618 73;#P lcolor 15;#P fasten 7 0 6 0 618 146 648 146;#P connect 6 0 0 0;#P connect 0 0 3 0;#P connect 8 0 6 1;#P connect 0 0 4 0;#P connect 4 0 5 0;#P fasten 8 0 9 0 665 152 797 152;#P connect 9 0 0 1;#P fasten 7 1 0 2 638 114 946 114;#P pop;#P newobj 1123 264 66 196617 p qlistmaker;#P message 783 92 37 196617 config;#P window linecount 2;#N coll filepaths.txt;#P newobj 783 112 62 196617 coll filepaths.txt;#B color 5;#P newex 783 146 78 196617 sprintf read %sconduite.txt;#P window linecount 1;#P message 594 161 58 196617 writeagain;#P window linecount 5;#P message 594 92 54 196617 \; $0/cellblock refer conduite.txt;#P window linecount 1;#N coll conduite.txt;#P newobj 783 184 83 196617 coll conduite.txt;#P user jit.cellblock 0 21 469 120 3 9 5 4 5 20 0 1 1 0 1 0 1 0 1 0 0 0 255 255 255 0 0 0 0 0 0 255 255 255 0 0 0 255 255 255 0 0 0 1 1 0 0 0;#X col 0 layout 150 1 94 0 0 1 0 0 0 0 4 -1;#X col 5 layout 38 1 5 0 0 1 0 161 224 1 -1 -1;#X col 3 layout 30 1 0 0 0 1 0 0 0 1 -1 -1;#X col 2 layout 30 1 0 0 0 1 0 0 0 1 -1 -1;#X col 1 layout 200 1 83 22 0 1 0 0 0 -1 1 -1;#X col 4 layout 40 1 73 50 0 1 0 0 0 1 -1 -1;#P objectname cellblock;#P newex 1179 342 99 196617 s $0/newcue/name;#P newex 1179 316 56 196617 route text;#P newex 1287 288 69 196617 route symbol;#P newex 1287 267 77 196617 dialog New Cue;#P newex 1221 244 76 196617 pvar newcue 2;#P user ubutton 24 128 44 15 0 2;#P objectname newcue;#P comment 23 128 44 196617 New Cue;#P connect 28 0 29 0;#P connect 29 0 30 0;#P connect 29 1 31 0;#P connect 95 0 94 0;#P connect 94 0 73 0;#P connect 94 4 73 0;#P fasten 83 0 91 0 499 655 205 655 205 328 259 328;#P connect 73 3 91 0;#P connect 91 0 89 0;#P connect 89 2 92 0;#P connect 92 0 93 0;#P connect 93 0 96 0;#P connect 93 1 85 0;#P connect 94 1 85 0;#P connect 94 2 89 3;#P connect 94 5 81 0;#P connect 94 3 81 0;#P connect 81 0 82 0;#P connect 82 0 90 0;#P connect 90 0 89 4;#P connect 73 0 81 1;#P connect 73 1 86 0;#P connect 86 0 88 0;#P fasten 89 0 87 0 259 399 443 399;#P connect 94 6 87 0;#P connect 88 0 87 0;#P connect 87 1 70 0;#P connect 70 0 67 0;#P connect 67 0 68 0;#P connect 68 0 69 0;#P connect 69 0 66 0;#P connect 71 0 66 0;#P fasten 85 0 84 0 295 594 499 594;#P connect 84 0 83 0;#P fasten 83 1 71 0 519 652 575 652 575 532 505 532;#P connect 66 2 84 1;#P connect 20 0 17 0;#P connect 17 0 33 0;#P connect 97 0 65 0;#P connect 70 1 69 1;#P connect 17 1 9 0;#P connect 64 0 10 0;#P connect 17 2 24 0;#P connect 72 0 76 0;#P connect 76 0 75 0;#P connect 75 0 74 0;#P connect 74 0 77 0;#P connect 78 0 77 0;#P connect 87 1 75 1;#P connect 72 0 79 0;#P connect 79 0 78 0;#P connect 17 3 32 0;#P connect 65 2 32 0;#P connect 17 4 13 0;#P connect 13 0 12 0;#P connect 12 0 11 0;#P connect 74 0 8 0;#P connect 77 0 8 0;#P fasten 62 0 8 0 953 358 766 358 766 182 788 182;#P fasten 24 0 8 0 662 181 788 181;#P connect 11 0 8 0;#P fasten 10 0 8 0 599 181 788 181;#P fasten 32 0 8 0 725 181 788 181;#P connect 65 1 8 0;#P connect 65 0 8 0;#P connect 8 1 58 0;#P connect 58 0 36 0;#P connect 8 2 35 0;#P connect 41 0 44 0;#P connect 44 0 45 0;#P connect 45 0 46 0;#P connect 46 0 47 0;#P connect 46 3 47 0;#P connect 46 4 47 0;#P connect 47 0 49 0;#P connect 48 0 49 0;#P connect 49 0 43 0;#P connect 62 0 64 0;#P connect 46 2 48 0;#P connect 46 1 48 0;#P connect 40 0 23 0;#P connect 23 0 27 0;#P connect 39 0 19 0;#P fasten 22 0 19 0 974 215 953 215;#P lcolor 7;#P connect 19 0 62 0;#P fasten 43 0 41 0 897 599 1232 599 1232 401 960 401;#P connect 42 0 41 0;#P connect 41 0 50 0;#P connect 27 1 25 0;#P connect 37 0 22 0;#P fasten 39 1 18 0 1204 186 994 186;#P connect 22 1 18 0;#P fasten 18 0 25 1 994 225 994 225;#P connect 25 2 26 0;#P fasten 14 0 15 0 1128 283 994 283;#P connect 26 0 15 0;#P connect 27 0 18 3;#P connect 34 0 18 3;#P connect 60 0 50 1;#P connect 41 0 52 0;#P connect 52 0 57 0;#P connect 57 0 55 0;#P connect 55 0 54 0;#P connect 56 0 51 0;#P connect 54 0 51 0;#P connect 5 0 63 0;#P fasten 22 0 14 0 974 215 1128 215;#P lcolor 7;#P connect 51 1 53 0;#P connect 53 0 59 0;#P connect 59 0 60 0;#P connect 55 1 60 0;#P connect 57 1 55 1;#P fasten 18 0 14 1 994 221 1156 221;#P connect 57 2 56 0;#P connect 38 0 39 0;#P connect 39 0 14 2;#P connect 14 1 21 0;#P connect 21 0 5 0;#P connect 4 0 6 0;#P connect 5 0 6 0;#P connect 2 1 3 0;#P connect 3 0 4 0;#P pop;