max v2;#N vpatcher 74 93 721 550;#P origin 0 -4;#P window setfont Times 9.;#P newex 54 408 116 1310729 s $1/read/done;#B color 11;#P window linecount 2;#P comment 503 270 94 1310729 version that reads only in tapemovie-lib;#P window linecount 3;#P comment 245 143 150 1310729 version that reads first in project then in tapemovie-lib. This file should ONLY be read in tapemovie-lib;#P window setfont "Sans Serif" 9.;#P window linecount 1;#N vpatcher 756 70 1236 382;#N comlet file name w/o .txt;#P inlet 396 33 15 0;#N comlet path out as symbol;#P outlet 170 178 15 0;#P button 88 52 15 0;#N comlet project path in;#P inlet 88 33 15 0;#P window setfont "Sans Serif" 9.;#P newex 88 79 75 196617 tapemoviepath;#B color 6;#P newex 88 102 190 196617 sprintf %stapemovie-lib/config/%s.txt;#B color 5;#P newex 88 190 68 196617 prepend read;#P newex 88 143 51 196617 tosymbol;#N comlet to coll;#P outlet 88 254 15 0;#P connect 5 0 6 0;#P connect 6 0 4 0;#P connect 4 0 3 0;#P connect 3 0 1 0;#P connect 1 0 2 0;#P connect 2 0 0 0;#P connect 1 0 7 0;#P connect 8 0 3 1;#P pop;#P newobj 519 294 58 196617 p read-file;#B color 6;#P newex 410 167 36 196617 zl reg;#P newex 410 130 20 196617 t b;#N vpatcher 756 70 1351 449;#P window setfont "Sans Serif" 9.;#P window linecount 1;#P newex 88 177 68 196617 prepend open;#P newex 88 197 54 196617 bytecount;#P button 140 251 15 0;#P button 88 251 15 0;#P comment 15 252 73 196617 does not exist;#P newex 88 220 62 196617 sel -1;#P comment 155 251 38 196617 exists;#N comlet file name w/o .txt;#P inlet 396 33 15 0;#N comlet path out as symbol;#P outlet 464 197 15 0;#P button 88 52 15 0;#P window linecount 0;#P newex 88 71 62 196617 projectpath;#B color 6;#P newex 382 112 36 196617 zl reg;#N comlet project path in;#P inlet 88 33 15 0;#P newex 88 282 75 196617 tapemoviepath;#B color 6;#P newex 88 305 190 196617 sprintf %stapemovie-lib/config/%s.txt;#B color 5;#P newex 382 209 68 196617 prepend read;#P newex 382 162 51 196617 tosymbol;#P newex 382 136 122 196617 sprintf %sconfig/%s.txt;#B color 5;#P newex 88 128 51 196617 tosymbol;#P newex 88 107 122 196617 sprintf %sconfig/%s.txt;#B color 5;#N comlet to coll;#P outlet 382 273 15 0;#P connect 8 0 11 0;#P connect 11 0 10 0;#P connect 10 0 1 0;#P connect 1 0 2 0;#P connect 2 0 20 0;#P connect 20 0 19 0;#P connect 19 0 15 0;#P connect 15 0 17 0;#P connect 17 0 7 0;#P connect 7 0 6 0;#P connect 15 1 18 0;#P connect 13 0 1 1;#P connect 13 0 6 1;#P connect 18 0 9 0;#P connect 9 0 3 0;#P connect 3 0 4 0;#P connect 6 0 4 0;#P connect 4 0 5 0;#P connect 5 0 0 0;#P fasten 10 0 9 1 93 96 413 96;#P connect 4 0 12 0;#P connect 13 0 3 1;#P pop;#P newobj 238 126 58 196617 p read-file;#B color 6;#P window setfont Times 9.;#P newex 39 62 18 1310729 t 1;#P newex 39 41 50 1310729 route bang;#N comlet from flonum (send on UP);#P inlet 39 17 15 0;#P newex 64 17 145 1310729 r $1/play;#B color 11;#P newex 76 365 105 1310729 s $1/done;#B color 11;#P newex 385 225 61 1310729 prepend write;#P newex 385 205 47 1310729 tosymbol;#P newex 492 98 119 1310729 r $1/write;#B color 11;#P message 492 179 29 1310729 open;#P newex 492 159 119 1310729 r $1/open;#B color 11;#P newex 238 73 58 1310729 t b b;#P message 286 98 98 1310729 $1;#P newex 33 385 62 1310729 s $1/sw;#B color 11;#P newex 123 113 18 1310729 t 0;#P newex 123 93 93 1310729 r $1/stop;#B color 11;#P newex 255 320 145 1310729 r $1/print;#B color 11;#P newex 92 204 96 1310729 r $1;#B color 11;#P newex 298 27 88 1310729 r /qlist/reload;#B color 11;#P button 238 98 15 0;#N comlet reload;#P inlet 458 27 15 0;#P newex 77 255 27 1310729 t 0 b;#P newex 30 313 50 1310729 t stopped 0;#P newex 30 292 27 1310729 gate;#P newex 152 260 27 1310729 t 1 f;#P newex 37 113 18 1310729 t 0;#P message 169 320 35 1310729 play \$1;#P message 94 320 26 1310729 done;#P newex 94 346 105 1310729 print $1;#P message 138 306 23 1310729 read;#P newex 410 98 50 1310729 route write;#N comlet messages to qlist;#P inlet 410 73 15 0;#P newex 238 27 43 1310729 loadbang;#P message 12 158 31 1310729 set \$1;#N comlet num box (float) for play tempo;#P outlet 12 176 15 0;#N qlist;#P newobj 79 228 40 1310729 qlist;#B color 5;#P newex 37 93 27 1310729 del 1;#P flonum 79 116 35 9 0 0 64 20 0 0 0 221 221 221 222 222 222 0 0 0;#P newex 79 143 83 1310729 sel 0.;#P message 125 167 98 1310729 rewind \, bang \, tempo \$1;#P window linecount 2;#P message 79 168 37 1310729 stop \, rewind;#P comment 263 366 182 1310729 arg 1 : qlist file name \; arg 2 : general qlist name for stop (ex. "qlist");#P window setfont "Sans Serif" 9.;#P window linecount 1;#P comment 473 27 35 196617 reload;#P fasten 5 0 9 0 84 138 17 138;#P connect 17 0 9 0;#P connect 28 0 9 0;#P connect 9 0 8 0;#P connect 21 0 19 0;#P connect 18 0 19 0;#P connect 20 1 19 0;#P connect 19 0 20 0;#P connect 21 0 29 0;#P connect 20 1 29 0;#P connect 18 0 29 0;#P fasten 7 1 6 0 99 250 71 250 71 89 42 89;#P lcolor 7;#P connect 6 0 17 0;#P connect 38 0 40 0;#P connect 39 0 40 0;#P connect 40 0 41 0;#P connect 27 0 19 1;#P fasten 4 0 19 1 84 164 52 164;#P connect 7 2 48 0;#P connect 21 1 37 0;#P connect 7 1 21 0;#P connect 40 1 5 0;#P fasten 41 0 5 0 44 82 84 82;#P connect 5 0 4 0;#P connect 27 0 2 0;#P connect 4 0 2 0;#P connect 36 0 7 0;#P fasten 33 0 7 0 497 199 84 199;#P fasten 3 0 7 0 130 199 84 199;#P connect 2 0 7 0;#P fasten 12 1 7 0 455 199 84 199;#P connect 25 0 7 0;#P fasten 42 0 7 0 243 224 84 224;#P connect 21 1 15 0;#P fasten 20 0 14 0 35 338 99 338;#P fasten 13 0 14 0 143 338 99 338;#P fasten 16 0 14 0 174 338 99 338;#P connect 15 0 14 0;#P fasten 26 0 14 0 260 342 99 342;#P connect 27 0 28 0;#P connect 4 1 3 0;#P fasten 7 2 13 0 114 305 143 305;#P connect 4 1 18 0;#P connect 18 1 16 0;#P connect 10 0 31 0;#P connect 22 0 31 0;#P connect 24 0 31 0;#P connect 31 0 23 0;#P connect 23 0 42 0;#P connect 31 1 30 0;#P connect 30 0 42 1;#P connect 44 0 35 0;#P connect 35 0 36 0;#P connect 11 0 12 0;#P connect 34 0 43 0;#P connect 12 0 43 0;#P connect 43 0 44 0;#P connect 42 1 44 1;#P connect 32 0 33 0;#P pop;