max v2;#N vpatcher 264 51 652 450;#P window setfont "Sans Serif" 9.;#P window linecount 1;#P message 102 317 55 196617 append end;#P newex 160 214 27 196617 gate;#P newex 177 177 32 196617 != 59;#P newex 160 156 27 196617 t l i;#P window linecount 8;#P comment 34 117 100 196617 in case semiolon is still considered a character (which is the case when the patch is first loaded if the subpatcher with the text is not open.;#P window linecount 1;#P newex 160 237 27 196617 itoa;#P newex 160 134 27 196617 atoi;#P newex 16 333 27 196617 + 1;#N comlet combien in list;#P outlet 16 356 15 0;#P newex 16 312 27 196617 i;#P newex 16 45 154 196617 t b l;#N comlet to coll;#P outlet 160 356 15 0;#N comlet comment output;#P inlet 16 23 15 0;#P message 267 317 98 196617 clear \, append ready;#P newex 160 258 28 196617 t s b;#P newex 160 316 90 196617 sprintf append %s;#N counter;#X flags 0 0;#P newobj 178 279 66 196617 counter;#P newex 160 69 71 196617 t l b;#P newex 160 113 45 196617 zl iter 1;#P newex 160 91 54 196617 route text;#P comment 136 157 23 196617 -->;#P connect 8 0 10 0;#P connect 10 0 11 0;#P lcolor 1;#P connect 11 0 13 0;#P connect 13 0 12 0;#P connect 4 0 11 1;#P fasten 10 0 20 0 21 235 107 235;#P lcolor 1;#P connect 10 1 3 0;#P connect 3 0 1 0;#P connect 1 0 2 0;#P connect 2 0 14 0;#P connect 14 0 17 0;#P connect 18 0 19 0;#P connect 19 0 15 0;#P connect 15 0 6 0;#P connect 6 0 5 0;#P fasten 20 0 9 0 107 341 165 341;#P fasten 7 0 9 0 272 341 165 341;#P connect 5 0 9 0;#P connect 17 1 18 0;#P connect 17 0 19 1;#P connect 6 1 4 0;#P fasten 3 1 4 2 226 142 211 142;#P fasten 3 1 7 0 226 111 272 111;#P pop;