max v2;#N vpatcher 472 63 879 510;#P window setfont "Sans Serif" 9.;#P window linecount 1;#P message 84 360 65 196617 store end \$1;#P newex 159 213 27 196617 gate;#P newex 176 176 32 196617 != 59;#P newex 159 155 27 196617 t l i;#P window linecount 8;#P comment 33 116 100 196617 in case semiolon is still considered a character (which is the case when the patch is first loaded if the subpatcher with the text is not open.;#P window linecount 1;#P newex 159 236 27 196617 itoa;#P newex 159 133 27 196617 atoi;#P newex 15 334 27 196617 + 1;#N comlet combien in list;#P outlet 15 401 15 0;#P newex 15 313 27 196617 i;#P newex 15 44 154 196617 t b l;#N comlet to coll;#P outlet 159 401 15 0;#N comlet comment output;#P inlet 15 22 15 0;#P message 279 360 101 196617 clear \, store ready 0;#P newex 159 257 28 196617 t s b;#P newex 159 359 103 196617 sprintf store %s %ld;#N counter 1 999999;#X flags 0 0;#P newobj 177 278 97 196617 counter 1 999999;#P newex 159 68 70 196617 t l b;#P newex 159 112 45 196617 zl iter 1;#P newex 159 90 54 196617 route text;#P comment 135 156 23 196617 -->;#P connect 8 0 10 0;#P connect 10 0 11 0;#P lcolor 1;#P connect 11 0 13 0;#P connect 13 0 12 0;#P connect 4 0 11 1;#P connect 13 0 20 0;#P connect 10 1 3 0;#P connect 3 0 1 0;#P connect 1 0 2 0;#P connect 2 0 14 0;#P connect 14 0 17 0;#P connect 18 0 19 0;#P connect 19 0 15 0;#P connect 15 0 6 0;#P connect 6 0 5 0;#P fasten 20 0 9 0 89 390 164 390;#P connect 5 0 9 0;#P fasten 7 0 9 0 284 390 164 390;#P connect 17 1 18 0;#P connect 17 0 19 1;#P connect 6 1 4 0;#P connect 3 1 4 2;#P fasten 4 0 5 1 182 302 257 302;#P fasten 3 1 7 0 224 110 284 110;#P pop;