max v2;#N vpatcher 628 170 1235 667;#P origin -39 -57;#P window setfont Helvetica 9.;#P window linecount 1;#P comment 8 461 190 1376265 Tom Mays \, Olivier Pfeiffer & Renaud Rubiano;#B frgb 0 146 207;#P window linecount 2;#P comment 9 437 220 1376265 m_brcosa is a part of movie \, a part of tapemovie. contact@tapemovie.org;#P window setfont Helvetica 24.;#P window linecount 1;#P comment 9 382 114 1376280 m_brcosa;#B frgb 0 146 207;#P window setfont Helvetica 12.;#P window linecount 2;#P comment 9 409 263 1376268 $1 : prefix name \; $2 : name of the render associated \;;#P user panel 6 379 269 96;#X brgb 255 255 255;#X frgb 0 0 0;#X border 1;#X rounded 0;#X shadow 0;#X done;#P window setfont "Sans Serif" 9.;#P window linecount 1;#P message 326 289 87 196617 param bypass \$1;#P newex 326 250 255 196617 makeparam $1/bypass $1 t 0;#B color 12;#P newex 146 123 255 196617 r $1/negativ;#B color 1;#P newex 163 233 27 196617 t b i;#P message 146 206 19 196617 -1;#P message 168 206 14 196617 1;#P newex 146 184 32 196617 sel 1;#P newex 146 145 255 196617 makeparam $1/neg $1 t 0;#B color 12;#P newex 110 255 80 196617 * 1.;#P newex 33 51 276 196617 r $1/black_white;#B color 1;#P newex 33 134 27 196617 t b i;#P newex 33 113 31 196617 == 0;#P newex 33 74 276 196617 makeparam $1/bw $1 t 0;#B color 12;#P newex 6 163 29 196617 * 1.;#P window setfont "Sans Serif" 14.;#P newex 6 347 190 196622 m_slab $1 brcosa2.jxs $2;#B color 6;#P window setfont "Sans Serif" 9.;#P newex 6 26 283 196617 makeparam $1/sa $1 f 1 -20 20 1;#B color 12;#P newex 110 101 284 196617 makeparam $1/co $1 f 1 -20 20 1;#B color 12;#P newex 223 229 284 196617 makeparam $1/br $1 f 1 -20 20 1;#B color 12;#P message 223 275 103 196617 param brightness \$1;#P message 110 297 94 196617 param contrast \$1;#P message 6 297 102 196617 param saturation \$1;#P newex 6 325 147 196617 s $1;#B color 12;#P newex 307 337 168 196617 moduleinit $1;#B color 11;#P window linecount 9;#P message 307 360 172 196617 \; $1/sw/init bang \; $1/bypass/init bang \; $1/source/init bang \; $1/br/init bang \; $1/co/init bang \; $1/sa/init bang \; $1/neg/init bang \; $1/bw/init bang \;;#P connect 8 0 10 0;#P connect 13 0 10 0;#P connect 10 0 3 0;#P fasten 23 0 2 0 331 322 11 322;#P fasten 5 0 2 0 228 318 11 318;#P fasten 4 0 2 0 115 318 11 318;#P fasten 3 0 2 0 11 318 11 318;#P connect 13 1 10 1;#P connect 14 0 11 0;#P connect 11 0 12 0;#P connect 12 0 13 0;#P connect 7 0 15 0;#P connect 20 0 15 0;#P connect 15 0 4 0;#P connect 21 0 16 0;#P connect 16 0 17 0;#P connect 17 0 19 0;#P connect 18 0 20 0;#P connect 19 0 20 0;#P connect 17 1 18 0;#P connect 20 1 15 1;#P connect 6 0 5 0;#P connect 1 0 0 0;#P connect 22 0 23 0;#P pop;