max v2;#N vpatcher 226 321 578 766;#P window setfont "Sans Serif" 9.;#N vpatcher 410 152 913 401;#P window setfont "Sans Serif" 9.;#P newex 50 50 41 196617 sel 0 1;#P message 21 77 226 196617 show br \, show co \, show sa \, show neg \, show bw;#P message 109 125 201 196617 hide br \, hide co \, hide sa \, hide neg \, hide bw;#P newex 59 180 75 196617 prepend script;#P inlet 50 30 15 0;#P outlet 59 202 15 0;#P connect 5 0 4 0;#P connect 1 0 5 0;#P connect 4 0 2 0;#P connect 3 0 2 0;#P connect 2 0 0 0;#P connect 5 1 3 0;#P pop;#P newobj 251 373 65 196617 p show/hide;#N thispatcher;#Q end;#P newobj 178 397 61 196617 thispatcher;#P newex 27 359 194 196617 variedit $1/bypass $1;#B color 12;#P newex 27 337 65 196617 pvar bypass;#P comment 215 20 42 196617 /bypass;#B frgb 0 0 200;#P toggle 231 32 15 0;#P objectname bypass;#P window setfont Times 9.;#P comment 112 48 34 1310729 (satur);#B frgb 100 100 100;#P comment 70 48 47 1310729 (contrast);#B frgb 100 100 100;#P comment 28 48 40 1310729 (bright);#B frgb 100 100 100;#P comment 188 48 34 1310729 (b&w);#B frgb 100 100 100;#P comment 144 48 49 1310729 (negative);#B frgb 100 100 100;#P window setfont "Sans Serif" 9.;#P comment 190 20 29 196617 /bw;#B frgb 0 0 200;#P comment 154 20 31 196617 /neg;#B frgb 0 0 200;#P toggle 193 32 15 0;#P objectname bw;#P toggle 159 32 15 0;#P objectname neg;#P newex 27 272 194 196617 variedit $1/neg;#B color 12;#P newex 27 250 49 196617 pvar neg;#P newex 27 316 195 196617 variedit $1/bw;#B color 12;#P newex 27 294 47 196617 pvar bw;#P newex 27 228 194 196617 variedit $1/sa $1;#B color 12;#P newex 27 184 194 196617 variedit $1/co $1;#B color 12;#P newex 27 140 194 196617 variedit $1/br $1;#B color 12;#P newex 27 206 44 196617 pvar sa;#P newex 27 162 44 196617 pvar co;#P newex 27 118 44 196617 pvar br;#P flonum 113 32 33 9 -500. 500. 35 3 0 0 0 221 221 221 222 222 222 0 0 0;#P objectname sa;#P flonum 72 32 33 9 -100. 100. 35 3 0 0 0 221 221 221 222 222 222 0 0 0;#P objectname co;#P flonum 31 32 33 9 0. 500. 35 3 0 0 0 221 221 221 222 222 222 0 0 0;#P objectname br;#P comment 113 20 24 196617 /sa;#B frgb 0 0 200;#P comment 72 20 24 196617 /co;#B frgb 0 0 200;#P comment 31 20 24 196617 /br;#B frgb 0 0 200;#P window setfont "Sans Serif" 12.;#P newex 176 108 133 196620 m_inputmenugpu $1;#B color 6;#P window setfont "Sans Serif" 9.;#P newex 176 85 77 196617 pvar texture 2;#P window setfont Times 10.;#P user ubumenu 63 1 59 1310730 0 0 1 0;#X add <none>;#X add /mov.1;#X add /mov.2;#X add /cam.1;#X add /pict.1;#X add /pict.2;#X add /noiz.1;#X add /brcosa.1;#X add /blur.1;#X add /chromakey.1;#X add /composite.1;#X add /crop.1;#X add /slide.1;#X add /tllslo.1;#X add /tllslo.2;#X add /tllslo.3;#X add /tllslo.4;#X add /tllslo.5;#X prefix_set 0 0 <none> 0;#P objectname texture;#P bpatcher 0 0 256 62 0 0 bkgnd.mxt 0 $1 0;#P objectname background;#P connect 13 0 10 0;#P connect 10 0 13 0;#P connect 14 0 11 0;#P fasten 11 0 14 0 32 189 32 189;#P connect 15 0 12 0;#P connect 12 0 15 0;#P connect 19 0 18 0;#P connect 18 0 19 0;#P connect 17 0 16 0;#P connect 16 0 17 0;#P connect 32 0 31 0;#P connect 31 0 32 0;#P fasten 3 0 2 0 181 135 172 135 172 81 181 81;#P fasten 2 1 3 0 248 105 181 105;#P connect 34 0 33 0;#P connect 32 1 34 0;#P pop;