max v2;#N vpatcher 612 105 1320 515;#P origin -1 0;#P window setfont "Sans Serif" 9.;#P newex 21 198 73 196617 pvar source 2;#B color 14;#P window setfont "Sans Serif" 12.;#P newex 21 171 133 196620 m_inputmenucpu $1;#B color 6;#P window setfont "Sans Serif" 9.;#P message 266 163 14 196617 3;#P newex 266 186 71 196617 pvar menuu 2;#P newex 327 310 60 196617 pvar linked;#P newex 327 210 36 196617 zl reg;#P newex 266 139 110 196617 r $1/init;#B color 12;#P user ubumenu 66 2 55 196617 0 1 1 0;#X add none;#X add /mov.1;#X add /mov.2;#X add /mov.3;#X add /mov.4;#X add /cam.1;#X add /pict.1;#X add /pict.2;#X add /pict.3;#X add /pict.4;#X add /noiz.1;#X prefix_set 0 0 <none> 0;#P objectname source;#P newex 518 201 61 196617 s $1/delay;#P newex 518 158 149 196617 variedit $1/internal/delay $1;#P button 483 257 15 0;#P button 405 257 15 0;#P button 327 257 15 0;#P message 483 276 77 196617 offset -1 -438;#P message 405 276 77 196617 offset -2 -263;#P message 327 276 66 196617 offset 0 -19;#P newex 327 232 245 196617 route speed delay loop;#P user umenu 18 42 75 196647 1 64 58 1;#X add speed;#X add delay;#X add loop;#P objectname menuu;#P bpatcher 2 61 252 92 0 -19 m_bufcrc.edit.linked.mxt 0 $1;#P objectname linked;#P number 218 24 35 9 0 0 0 3 0 0 0 221 221 221 222 222 222 0 0 0;#P objectname dimy;#P flonum 142 42 35 9 0 0 0 3 0 0 0 221 221 221 222 222 222 0 0 0;#P objectname delay;#P flonum 83 23 35 9 0 0 0 3 0 0 0 221 221 221 222 222 222 0 0 0;#P objectname speed;#P number 218 43 35 9 0 16 66 3 0 0 0 221 221 221 222 222 222 0 0 0;#P objectname bufmax;#P number 153 23 35 9 0 0 0 3 0 0 0 221 221 221 222 222 222 0 0 0;#P objectname dimx;#P toggle 37 21 15 0;#P objectname rec;#P toggle 49 4 15 0;#P objectname play;#P window setfont Times 9.;#P comment 177 45 52 1310729 /buf/max;#P comment 111 42 44 1310729 /delay;#P comment 50 25 44 1310729 /speed;#P comment 187 24 44 1310729 /dim/y;#P comment 120 23 44 1310729 /dim/x;#P comment 17 22 38 1310729 /rec;#P comment 23 3 38 1310729 /play;#P window setfont "Sans Serif" 9.;#P newex 132 347 123 196617 variedit $1/buf/max $1;#B color 6;#P newex 61 347 67 196617 pvar bufmax;#B color 12;#P newex 518 179 58 196617 pvar delay;#B color 12;#P newex 517 131 109 196617 variedit $1/speed $1;#B color 6;#P newex 446 131 59 196617 pvar speed;#B color 12;#P newex 132 302 112 196617 variedit $1/dim/y $1;#B color 6;#P newex 61 302 56 196617 pvar dimy;#B color 12;#P newex 132 281 112 196617 variedit $1/dim/x $1;#B color 6;#P newex 61 281 56 196617 pvar dimx;#B color 12;#P newex 517 103 99 196617 variedit $1/rec $1;#B color 6;#P newex 446 103 49 196617 pvar rec;#B color 12;#P newex 517 76 103 196617 variedit $1/play $1;#B color 6;#P newex 446 76 53 196617 pvar play;#B color 12;#P newex 441 45 68 196617 pvar compile;#B color 12;#P newex 521 45 118 196617 variedit $1/compile $1;#B color 6;#P bpatcher 0 0 256 156 0 0 bkgnd2.5.mxt 0 $1;#P objectname background;#P connect 48 1 47 0;#P connect 47 0 48 0;#P connect 8 0 7 0;#P connect 10 0 9 0;#P connect 15 0 14 0;#P connect 7 0 8 0;#P connect 9 0 10 0;#P connect 14 0 15 0;#P connect 42 0 46 0;#P connect 46 0 45 0;#P connect 45 1 43 0;#P connect 43 0 32 0;#P connect 32 0 36 0;#P connect 36 0 33 0;#P connect 33 0 44 0;#P connect 34 0 44 0;#P connect 35 0 44 0;#P connect 32 1 37 0;#P connect 37 0 34 0;#P connect 1 0 2 0;#P connect 4 0 3 0;#P connect 6 0 5 0;#P connect 12 0 11 0;#P connect 32 2 38 0;#P connect 38 0 35 0;#P connect 3 0 4 0;#P connect 5 0 6 0;#P connect 11 0 12 0;#P connect 39 0 13 0;#P connect 13 0 40 0;#P connect 2 0 1 0;#P pop;