max v2;#N vpatcher 520 352 1385 880;#P window setfont "Sans Serif" 10.;#P comment 14 20 32 196618 /rec;#B frgb 222 0 0;#P toggle 40 18 19 0;#P objectname rec;#P window setfont "Sans Serif" 9.;#P hidden newex 18 191 73 196617 pvar source 2;#P user ubumenu 52 1 68 196617 0 1 1 0;#X prefix_set 0 0 <none> 0;#P objectname source;#P hidden newex 100 191 175 196617 m_inputmenugpu $1;#P hidden newex 207 242 94 196617 prepend setsymbol;#P hidden newex 492 78 94 196617 prepend setsymbol;#B color 12;#P hidden newex 600 79 32 196617 print;#B color 12;#P comment 172 93 39 196617 /mode;#B frgb 0 0 222;#P number 111 103 35 9 0 0 0 3 0 0 0 221 221 221 222 222 222 0 0 0;#P objectname frameplaycurrentnumber;#P hidden newex 304 21 49 196617 pvar rec;#B color 14;#P hidden newex 304 49 66 196617 pvar mode 2;#B color 14;#P hidden newex 426 51 191 196617 variedit $1/mode $1;#B color 12;#P user ubumenu 212 91 43 196617 0 1 1 0;#X add loop;#X add delay;#X prefix_set 0 0 <none> 0;#P objectname mode;#P hidden newex 234 160 62 196617 prepend set;#B color 12;#P flonum 105 36 35 9 -1. 64. 3 3 0 0 0 221 221 221 222 222 222 0 0 0;#P objectname looprecfixednum;#P hidden newex 574 191 35 196617 * 25.;#B color 12;#P hidden newex 426 191 34 196617 / 25.;#B color 12;#P hidden newex 304 192 108 196617 pvar looprecfixednum;#B color 14;#P hidden newex 304 147 58 196617 pvar delay;#B color 14;#P hidden newex 304 100 59 196617 pvar speed;#B color 14;#P hidden newex 138 328 147 196617 r $1/loop/rec;#B color 6;#N vpatcher 651 154 1505 521;#P origin -4 3;#P window setfont "Sans Serif" 9.;#P window linecount 0;#P newex 3 126 27 196617 i;#B color 12;#P newex 55 166 34 196617 / 25.;#B color 12;#P newex 38 204 67 196617 prepend max;#P newex 291 154 54 196617 pak set i i;#B color 12;#P newex 488 92 35 196617 * 25.;#B color 12;#P newex 55 284 62 196617 prepend set;#B color 12;#P newex 55 261 34 196617 / 25.;#B color 12;#P newex 1 100 32 196617 sel 0;#B color 12;#P newex 33 125 67 196617 prepend max;#P newex 668 195 62 196617 prepend set;#B color 12;#P newex 120 208 71 196617 prepend set 1;#B color 12;#P newex 24 31 118 196617 r $1/record/count;#B color 12;#P newex 535 139 143 196617 vari $1/play/frame;#B color 12;#P message 216 108 48 196617 set 0 \$1;#P newex 401 116 122 196617 variedit $1/loop/out $1;#B color 12;#P newex 256 61 119 196617 vari edit $1/loop/in $1;#B color 12;#P message 267 110 43 196617 size \$1;#P newex 105 106 106 196617 prepend setminmax 0;#P inlet 401 96 15 0;#P inlet 256 41 15 0;#P inlet 1 80 15 0;#P inlet 535 94 15 0;#P inlet 488 72 15 0;#P outlet 216 231 15 0;#P outlet 5 178 15 0;#P outlet 105 234 15 0;#P outlet 55 306 15 0;#P outlet 33 162 15 0;#P outlet 668 217 15 0;#P window linecount 1;#P newex 480 149 39 196617 !- $3;#B color 12;#P connect 9 0 22 0;#P connect 22 0 29 0;#P connect 18 0 5 0;#P connect 18 0 29 1;#P connect 21 0 2 0;#P connect 28 0 27 0;#P connect 29 0 28 0;#P connect 17 1 23 0;#P connect 23 0 24 0;#P connect 24 0 3 0;#P connect 27 0 3 0;#P connect 29 0 12 0;#P connect 12 0 4 0;#P connect 19 0 4 0;#P connect 17 1 19 0;#P connect 29 0 16 0;#P connect 16 0 6 0;#P connect 13 0 6 0;#P connect 26 0 6 0;#P connect 10 0 14 0;#P connect 29 0 13 0;#P connect 14 1 26 1;#P connect 0 0 26 2;#P connect 11 0 15 0;#P connect 15 1 0 0;#P connect 7 0 25 0;#P connect 8 0 17 0;#P connect 25 0 17 0;#P connect 17 1 20 0;#P connect 20 0 1 0;#P pop;#P hidden newobj 138 372 629 196617 p;#B color 6;#P hidden newex 384 433 162 196617 pvar frameplaycurrentnumbersec;#B color 14;#P hidden newex 507 396 114 196617 pvar frameplaycurrent;#B color 14;#P hidden newex 292 345 164 196617 pvar loopinout 2;#B color 14;#P hidden newex 138 405 76 196617 pvar reclenght;#B color 14;#P hidden newex 304 291 94 196617 pvar loopautostart;#B color 14;#P hidden newex 426 289 227 196617 vari $1/loop/autostart;#B color 12;#P hidden newex 304 263 66 196617 pvar looplay;#B color 14;#P hidden newex 426 262 204 196617 vari $1/loop/play;#B color 12;#P hidden newex 304 215 90 196617 pvar looprecfixed;#B color 14;#P hidden newex 426 215 262 196617 variedit $1/loop/record/fixed $1;#B color 12;#P hidden newex 304 169 67 196617 pvar looprec;#B color 14;#P flonum 74 103 36 9 0 0. 2 3 0 0 0 221 221 221 222 222 222 0 0 0;#P objectname frameplaycurrentnumbersec;#P comment 21 50 106 196617 /loop/in & /loop/out;#B frgb 0 0 222;#P comment 159 55 82 196617 /loop/autostart;#B frgb 222 0 0;#P toggle 239 53 15 0;#P objectname loopautostart;#P flonum 213 77 42 9 0 0 128 3 0 0 0 221 221 221 222 222 222 0 0 0;#P hidden newex 264 76 34 196617 / 25.;#B color 12;#P hidden number 259 61 35 9 0 0 128 3 0 0 0 221 221 221 222 222 222 0 0 0;#P objectname reclenght;#P comment 21 37 84 196617 /loop/rec/fixed;#B frgb 0 0 222;#P hidden comment 94 128 40 196617 /speed;#B frgb 222 0 0;#P hidden flonum 63 128 35 9 0 0 128 3 0 0 0 221 221 221 222 222 222 0 0 0;#P objectname speed;#P hidden newex 426 97 219 196617 variedit $1/speed $1;#B color 12;#P hidden newex 426 147 218 196617 variedit $1/delay $1;#B color 12;#P comment 177 110 40 196617 /delay;#B frgb 0 0 222;#P number 220 108 35 9 0 0 0 3 0 0 0 221 221 221 222 222 222 0 0 0;#P objectname delay;#P number 142 36 35 9 0 0 0 3 0 0 0 221 221 221 222 222 222 0 0 0;#P objectname looprecfixed;#P comment 2 105 108 196617 /loop/frame;#B frgb 0 0 222;#P comment 149 79 64 196617 /rec/lenght;#B frgb 0 0 222;#P user rslider 1 62 146 20 2 1 0 0 0;#P objectname loopinout;#P user multiSlider 1 84 146 17 0. 0. 1 2680 47 0 0 2 0 0 0;#M frgb 0 0 0;#M brgb 255 255 255;#M rgb2 127 127 127;#M rgb3 0 0 0;#M rgb4 37 52 91;#M rgb5 74 105 182;#M rgb6 112 158 18;#M rgb7 149 211 110;#M rgb8 187 9 201;#M rgb9 224 62 37;#M rgb10 7 114 128;#P objectname frameplaycurrent;#P comment 183 38 55 196617 /loop/play;#B frgb 0 0 222;#P toggle 239 36 15 0;#P objectname looplay;#P comment 62 21 63 196617 /loop/mode;#B frgb 0 0 222;#P hidden newex 426 169 200 196617 vari $1/loop/record;#B color 12;#P comment 188 18 55 196617 /loop/rec;#B frgb 0 0 222;#P toggle 239 18 15 0;#P objectname looprec;#P user ubumenu 122 18 67 196617 0 1 1 0;#X add normal;#X add reverse;#X add palindrome;#X prefix_set 0 0 <none> 0;#P objectname loopmode;#P hidden newex 261 459 147 196617 pvar frameplaycurrentnumber;#B color 14;#P hidden newex 426 22 191 196617 vari $1/record;#B color 12;#P bpatcher 0 0 256 124 0 0 bkgnd2.mxt 0 $1 0;#P hidden newex 304 241 84 196617 pvar loopmode 2;#B color 14;#P hidden newex 426 243 241 196617 variedit $1/loop/mode $1;#P hidden connect 60 0 62 0;#P hidden connect 62 1 60 0;#P hidden connect 43 0 42 0;#P hidden connect 42 0 38 0;#P hidden connect 0 1 59 0;#P hidden connect 25 0 26 0;#P hidden connect 47 0 50 0;#P hidden fasten 42 5 4 0 758 453 266 453;#P lcolor 15;#P hidden connect 42 1 4 0;#P hidden connect 24 0 25 0;#P hidden fasten 42 4 39 0 635 405 789 405 789 327 297 327;#P lcolor 8;#P hidden connect 39 0 42 1;#P hidden connect 3 0 54 0;#P hidden connect 58 0 53 0;#P hidden connect 20 0 44 0;#P hidden connect 19 0 45 0;#P hidden connect 8 0 31 0;#P hidden connect 50 0 46 0;#P hidden connect 32 0 33 0;#P hidden connect 59 0 1 0;#P hidden connect 34 0 35 0;#P hidden connect 36 0 37 0;#P hidden connect 54 0 3 0;#P hidden connect 53 1 52 0;#P hidden connect 44 0 20 0;#P hidden connect 45 0 19 0;#P hidden connect 31 0 8 0;#P hidden connect 32 1 47 0;#P hidden connect 33 0 32 0;#P hidden connect 48 0 32 0;#P hidden connect 1 1 0 0;#P hidden connect 35 0 34 0;#P hidden connect 37 0 36 0;#P hidden connect 39 1 42 2;#P hidden connect 52 1 58 0;#P hidden connect 42 3 40 0;#P hidden connect 46 0 48 0;#P hidden connect 41 0 42 3;#P hidden fasten 40 0 42 4 512 425 781 425 781 359 759 359;#P lcolor 2;#P hidden fasten 4 0 42 4 266 484 799 484 799 352 759 352;#P lcolor 13;#P pop;