max v2;#N vpatcher 424 214 1243 725;#P origin 23 7;#P button 523 128 15 0;#P window setfont "Sans Serif" 9.;#P newex 290 354 109 196617 r /movie/drawgpu;#B color 12;#P newex 290 383 158 196617 jit.gl.texture movie.1 @name $1;#B color 5;#P objectname qtmovie[4];#P newex 328 93 95 196617 sprintf set %s/out;#P newex 328 116 44 196617 receive;#B color 12;#P newex 328 70 243 196617 makeparam $1/source $1 s <none>;#B color 12;#P newex 226 72 95 196617 r /movie/drawcpu;#B color 12;#P window setfont "Sans Serif" 14.;#N vpatcher 178 213 1344 856;#P origin -197 0;#P window setfont "Sans Serif" 9.;#P window linecount 1;#P newex 370 254 51 196617 zl slice 1;#B color 12;#P newex 951 104 182 196617 s $1/loop/end/delay/initval;#B color 12;#P newex 951 62 180 196617 r $1/maxframes;#B color 12;#P window linecount 0;#P newex 621 441 33 196617 - 0.1;#P window linecount 1;#P newex 636 389 34 196617 == 0.;#P newex 636 364 27 196617 t f f;#P newex 755 313 139 196617 r $1/maxframes;#B color 12;#P newex 636 344 144 196617 if $f1 > $f2 then $f2 else $f1;#P newex 653 292 168 196617 r /framemotor/real;#B color 12;#P window linecount 0;#P newex 290 134 51 196617 zl slice 1;#P newex 849 360 27 196617 + 1;#P button 303 342 15 0;#P newex 303 367 182 196617 s $1/loop/report;#B color 12;#P window linecount 1;#P message 764 526 14 196617 0;#P window linecount 0;#P message 779 526 14 196617 1;#P button 1 127 15 0;#P window linecount 1;#P newex 1 177 154 196617 s $1/speed;#B color 12;#P window linecount 0;#P newex 55 125 154 196617 r $1/speed;#B color 12;#P newex 1 153 139 196617 if ($f2 == 0) then 1 else $f2;#P newex 764 566 154 196617 s $1/speed;#B color 12;#P message 243 484 14 196617 0;#P window linecount 1;#P newex 227 539 154 196617 s $1/speed;#B color 12;#P window linecount 0;#P newex 873 413 144 196617 s $1/rec;#B color 12;#P newex 794 527 154 196617 s $1/speed;#B color 12;#P newex 794 503 34 196617 * -1.;#P window linecount 1;#P newex 811 458 154 196617 r $1/speed;#B color 12;#P window linecount 0;#P newex 794 480 27 196617 f;#P newex 764 413 40 196617 gate 3;#P window linecount 1;#P newex 849 333 290 196617 makeparam $1/loop/autostart $1 i 1 0 2;#B color 12;#P window linecount 0;#P newex 1 342 27 196617 + 1;#P newex 243 516 166 196617 s $1/loop/sw;#B color 12;#P newex 243 367 40 196617 gate 3;#P window linecount 1;#P newex 779 546 166 196617 s $1/loop/sw;#B color 12;#P window linecount 0;#P newex 794 347 53 196617 t 1 0 b b;#P window linecount 1;#P newex 836 435 206 196617 s $1/loop/begin/delay;#B color 12;#P window linecount 0;#P newex 604 592 198 196617 s $1/loop/end/delay;#B color 12;#P message 836 413 31 196617 0.1;#P newex 604 519 27 196617 f;#P newex 621 322 40 196617 / 25.;#P newex 640 271 154 196617 r $1/speed;#B color 12;#P newex 621 300 29 196617 * 0.;#N counter;#X flags 0 0;#P newobj 621 245 112 196617 counter;#P button 692 198 15 0;#P window linecount 1;#P newex 692 171 176 196617 r $1/framebang;#B color 12;#P window linecount 0;#P newex 621 223 81 196617 gate;#P window linecount 1;#P newex 649 198 32 196617 t 0 0;#P window linecount 0;#P message 621 198 14 196617 1;#P window linecount 1;#P newex 794 141 163 196617 r $1/loop/end;#B color 12;#P window linecount 0;#P newex 621 141 171 196617 r $1/loop/begin;#B color 12;#P newex 258 464 61 196617 s $1/delay;#B color 12;#P newex 258 434 317 196617 if $f1 > 0 then $f3 else $f2;#P newex 273 413 62 196617 s $1/speed;#B color 12;#P newex 273 388 34 196617 * -1.;#P newex 1 318 271 196617 makeparam $1/loop/mode $1 i 2 0 2;#B color 12;#P newex 273 342 27 196617 f;#P newex 273 317 32 196617 sel 1;#P newex 370 231 154 196617 r $1/speed;#B color 12;#P newex 273 283 303 196617 if ($f2 > 0 && $f1 > $f3) || ($f2 < 0 && $f1 < $f4) then 1 else 0;#P newex 273 260 27 196617 f;#P button 273 234 15 0;#P newex 273 206 37 196617 sel -1;#P window linecount 1;#P newex 564 104 312 196617 makeparam $1/loop/begin/delay $1 f 0.01 0 16 1;#B color 12;#P window linecount 0;#P newex 411 83 347 196617 makeparam $1/loop/end/delay $1 f 0.01 0 16 1;#B color 12;#P newex 273 183 212 196617 if ($f1<=$f2 && $f1>=$f3) then $f1 else -1;#P newex 121 102 144 196617 s $1/rec;#B color 12;#P message 121 81 14 196617 0;#P newex 121 56 32 196617 sel 1;#P newex 290 113 194 196617 r $1/internal/delay;#B color 12;#P newex 273 156 27 196617 f;#P newex 273 93 29 196617 gate;#P button 292 71 15 0;#P newex 292 49 176 196617 r $1/framebang;#B color 12;#P newex 273 25 244 196617 makeparam $1/loop/sw $1 t 0;#B color 12;#P comment 824 293 100 196617 < ---- disconnected;#P fasten 7 0 58 0 126 76 6 76;#P connect 58 0 55 0;#P connect 55 0 57 0;#P connect 20 0 44 0;#P fasten 1 0 7 0 278 49 126 49;#P connect 7 0 8 0;#P connect 8 0 9 0;#P fasten 56 0 55 1 60 147 135 147;#P fasten 53 0 52 0 248 509 232 509;#P fasten 44 0 42 0 6 361 248 361;#P connect 42 0 53 0;#P connect 53 0 43 0;#P connect 42 1 23 0;#P connect 23 0 24 0;#P connect 1 0 4 0;#P connect 4 0 5 0;#P connect 5 0 10 0;#P connect 10 0 13 0;#P connect 13 0 14 0;#P connect 14 0 15 0;#P connect 15 0 16 0;#P connect 16 0 18 0;#P connect 18 0 19 0;#P connect 19 0 42 1;#P connect 42 2 21 0;#P connect 21 0 22 0;#P connect 6 0 64 0;#P connect 64 0 5 1;#P fasten 5 0 15 1 278 174 269 174 269 282 295 282;#P connect 73 0 19 1;#P connect 2 0 3 0;#P connect 3 0 4 1;#P connect 18 0 62 0;#P connect 62 0 61 0;#P connect 17 0 73 0;#P connect 73 0 16 1;#P connect 11 0 10 1;#P connect 11 0 23 1;#P connect 11 0 16 2;#P connect 12 0 10 2;#P connect 12 0 16 3;#P connect 12 0 23 2;#P fasten 40 2 36 0 827 410 609 410;#P lcolor 15;#P connect 36 0 38 0;#P connect 25 0 27 0;#P connect 28 0 29 0;#P connect 27 0 29 0;#P connect 29 0 32 0;#P connect 32 0 33 0;#P connect 33 0 35 0;#P connect 35 0 70 0;#P connect 70 0 36 1;#P connect 35 0 66 0;#P connect 66 0 68 0;#P connect 68 0 69 0;#P connect 34 0 33 1;#P fasten 26 0 28 0 799 165 654 165;#P connect 67 0 69 1;#P connect 28 1 32 2;#P connect 30 0 31 0;#P connect 31 0 29 1;#P fasten 63 0 46 0 854 407 769 407;#P lcolor 7;#P connect 46 0 60 0;#P connect 60 0 54 0;#P connect 67 0 66 1;#P fasten 49 0 59 0 799 523 784 523;#P lcolor 7;#P connect 46 1 59 0;#P connect 59 0 41 0;#P connect 26 0 40 0;#P connect 40 0 46 1;#P lcolor 2;#P connect 46 2 47 0;#P connect 47 0 49 0;#P connect 49 0 50 0;#P fasten 48 0 47 1 816 475 816 475;#P connect 40 3 37 0;#P connect 37 0 39 0;#P connect 45 0 63 0;#P fasten 40 1 51 0 813 387 878 387;#P lcolor 13;#P connect 71 0 72 0;#P pop;#P newobj 32 242 54 196622 p loop;#B color 4;#N vpatcher 200 217 1153 919;#P origin 0 186;#P window setfont "Sans Serif" 9.;#P newex 89 649 174 196617 s $1/speed/reset;#B color 12;#P newex 154 581 62 196617 prepend set;#P message 154 603 17 196617 0.;#P newex 97 580 30 196617 t b b;#P newex 227 617 144 196617 s $1/speed;#B color 12;#P user gswitch2 198 529 39 32 0 0;#P newex 215 495 323 196617 if ($f1<=$f2 && $f1>=$f3) || ($f1>=$f2 && $f1<=$f3) then 1 else 0;#P newex 198 463 27 196617 t f f;#P newex 610 342 67 196617 prepend sym;#P newex 610 320 305 196617 makeparam $1/speed/curve/sym $1 i 1 0 2 0;#B color 12;#P newex 348 347 257 196617 makeparam $1/speed/curve $1 f 1.;#B color 12;#P newex 591 294 294 196617 makeparam $1/speed/curve/mode $1 s exp;#B color 12;#P newex 318 299 272 196617 makeparam $1/speed/endSpeed $1 f 0.;#B color 12;#P newex 288 274 27 196617 f;#P newex 305 252 144 196617 r $1/speed;#B color 12;#P newex 258 221 251 196617 makeparam $1/speed/time $1 f 0.;#B color 12;#P newex 198 428 161 196617 lp.scampf map 0. 10. 1. 0. pow 1.;#P message 584 109 17 196617 1.;#P newex 584 133 34 196617 / 25.;#P newex 584 81 29 196617 t b f;#P flonum 584 55 35 9 0 0 0 3 0 0 0 221 221 221 222 222 222 0 0 0;#P newex 584 16 180 196617 r /framemotor/fps;#B color 12;#P newex 234 194 40 196617 + 0.04;#P newex 198 193 27 196617 f;#P newex 198 164 29 196617 gate;#P newex 198 122 27 196617 t i b;#P button 245 97 15 0;#P newex 245 75 84 196617 r $1/framebang;#P toggle 198 70 15 0;#P newex 7 131 170 196617 s $1/speed/bang;#B color 12;#P newex 108 79 40 196617 t b 0 0;#P newex 198 43 248 196617 makeparam $1/speed/bang $1 t 0;#B color 12;#P newex 108 21 253 196617 makeparam $1/speed/reset $1 b 0;#B color 12;#P fasten 2 2 3 0 143 113 12 113;#P connect 29 0 32 0;#P connect 27 0 29 0;#P connect 0 0 2 0;#P fasten 20 0 31 0 323 354 159 354;#P connect 29 1 30 0;#P connect 31 0 30 0;#P connect 1 0 4 0;#P connect 4 0 7 0;#P connect 7 0 8 0;#P connect 8 0 9 0;#P connect 9 0 16 0;#P fasten 21 0 16 0 596 388 203 388;#P fasten 24 0 16 0 615 388 203 388;#P connect 16 0 25 0;#P connect 26 0 27 0;#P fasten 2 1 9 1 128 186 220 186;#P connect 10 0 9 1;#P connect 25 1 26 0;#P connect 6 0 8 1;#P fasten 25 0 27 1 203 522 232 522;#P connect 27 1 28 0;#P connect 30 0 28 0;#P fasten 2 1 16 1 128 404 233 404;#P connect 9 0 10 0;#P connect 5 0 6 0;#P connect 17 0 16 2;#P connect 14 0 10 1;#P connect 7 1 19 0;#P connect 19 0 16 3;#P connect 18 0 19 1;#P connect 20 0 16 4;#P connect 22 0 16 5;#P fasten 19 0 26 1 293 417 376 417;#P fasten 20 0 26 2 323 406 532 406;#P connect 12 0 13 0;#P connect 13 0 15 0;#P connect 15 0 14 0;#P connect 13 1 14 1;#P connect 23 0 24 0;#P pop;#P newobj 32 217 86 196622 p goSpeed;#B color 4;#N vpatcher 223 65 1128 864;#P origin -54 0;#P window setfont "Sans Serif" 9.;#P newex 298 289 51 196617 zl slice 1;#P newex 82 675 91 196617 s $1/delay/reset;#B color 12;#P newex 147 607 62 196617 prepend set;#P message 147 629 17 196617 0.;#P newex 90 606 30 196617 t b b;#P newex 220 673 61 196617 s $1/delay;#B color 12;#P user gswitch2 191 555 39 32 1 0;#P newex 208 521 323 196617 if ($f1<=$f2 && $f1>=$f3) || ($f1>=$f2 && $f1<=$f3) then 1 else 0;#P newex 191 489 27 196617 t f f;#P newex 603 368 67 196617 prepend sym;#P window linecount 1;#P newex 603 346 222 196617 makeparam $1/delay/curve/sym $1 i 1 0 2 0;#B color 12;#P newex 341 373 174 196617 makeparam $1/delay/curve $1 f 1.;#B color 12;#P newex 584 320 211 196617 makeparam $1/delay/curve/mode $1 s exp;#B color 12;#P newex 311 325 188 196617 makeparam $1/delay/endDelay $1 f 0.;#B color 12;#P window linecount 0;#P newex 281 313 27 196617 f;#P newex 298 266 102 196617 r $1/internal/delay;#P newex 251 247 168 196617 makeparam $1/delay/time $1 f 0.;#B color 12;#P newex 191 454 161 196617 lp.scampf map 0. 10. 1. 0. pow 1.;#P message 577 120 17 196617 1.;#P newex 577 144 34 196617 / 25.;#P newex 577 92 29 196617 t b f;#P flonum 577 66 35 9 0 0 0 3 0 0 0 221 221 221 222 222 222 0 0 0;#P newex 577 42 98 196617 r /framemotor/fps;#B color 12;#P newex 227 220 40 196617 + 0.04;#P newex 191 219 27 196617 f;#P newex 191 190 29 196617 gate;#P newex 191 148 27 196617 t i b;#P button 238 123 15 0;#P newex 238 101 84 196617 r $1/framebang;#B color 12;#P toggle 191 96 15 0;#P newex 0 157 87 196617 s $1/delay/bang;#B color 12;#P newex 101 105 40 196617 t b 0 0;#P window linecount 1;#P newex 191 69 165 196617 makeparam $1/delay/bang $1 t 0;#B color 12;#P window linecount 0;#P newex 101 47 170 196617 makeparam $1/delay/reset $1 b 0;#B color 12;#P fasten 2 2 3 0 136 139 5 139;#P connect 29 0 32 0;#P connect 27 0 29 0;#P connect 0 0 2 0;#P fasten 20 0 31 0 316 380 152 380;#P connect 31 0 30 0;#P connect 29 1 30 0;#P connect 1 0 4 0;#P connect 4 0 7 0;#P connect 7 0 8 0;#P connect 8 0 9 0;#P connect 9 0 16 0;#P fasten 21 0 16 0 589 414 196 414;#P fasten 24 0 16 0 608 414 196 414;#P connect 16 0 25 0;#P connect 26 0 27 0;#P fasten 2 1 9 1 121 212 213 212;#P connect 10 0 9 1;#P connect 25 1 26 0;#P connect 6 0 8 1;#P fasten 25 0 27 1 196 548 225 548;#P connect 27 1 28 0;#P connect 30 0 28 0;#P fasten 2 1 16 1 121 430 226 430;#P connect 9 0 10 0;#P connect 5 0 6 0;#P connect 17 0 16 2;#P connect 14 0 10 1;#P connect 7 1 19 0;#P connect 19 0 16 3;#P connect 18 0 33 0;#P connect 33 0 19 1;#P connect 20 0 16 4;#P connect 22 0 16 5;#P fasten 19 0 26 1 286 443 369 443;#P fasten 20 0 26 2 316 432 525 432;#P connect 11 0 12 0;#P connect 12 0 13 0;#P connect 13 0 15 0;#P connect 15 0 14 0;#P connect 13 1 14 1;#P connect 23 0 24 0;#P pop;#P newobj 32 192 84 196622 p goFrame;#B color 4;#N vpatcher 441 289 1055 777;#P window setfont "Sans Serif" 9.;#P newex 397 171 177 196617 r $1/buf/max;#B color 12;#P newex 260 231 131 196617 if $f1<0. then $f2 else $f1;#P newex 260 202 131 196617 if $f1>$f2 then 0. else $f1;#P flonum 234 393 35 9 0 0 0 3 0 0 0 221 221 221 222 222 222 0 0 0;#P newex 234 367 34 196617 / 25.;#P newex 234 340 36 196617 + 0.;#P newex 127 299 34 196617 * -1.;#P newex 127 273 27 196617 - 1.;#P newex 98 30 153 196617 r $1/rec;#B color 12;#P user gswitch2 98 232 39 32 0 0;#P flonum 319 280 35 9 0 0 0 3 0 0 0 221 221 221 222 222 222 0 0 0;#P newex 319 259 98 196617 r /framemotor/fps;#B color 12;#P newex 260 305 35 196617 * 25.;#P flonum 260 180 35 9 0 0 0 3 0 0 0 221 221 221 222 222 222 0 0 0;#P newex 260 141 250 196617 variedit $1/internal/delay $1;#B color 12;#P newex 127 201 27 196617 f;#P newex 127 139 30 196617 t b b;#P flonum 238 88 35 9 0 0 0 3 0 0 0 221 221 221 222 222 222 0 0 0;#P newex 238 64 241 196617 makeparam $1/speed $1 f 1;#B color 12;#P button 127 74 18 0;#P newex 127 50 185 196617 r $1/framebang;#B color 12;#P connect 12 0 11 0;#P connect 0 0 1 0;#P connect 1 0 4 0;#P fasten 3 0 5 0 243 189 132 189;#P lcolor 7;#P connect 4 0 5 0;#P connect 5 0 11 1;#P connect 11 1 13 0;#P connect 13 0 14 0;#P fasten 14 0 15 0 132 325 239 325;#P fasten 11 0 15 0 103 325 239 325;#P connect 15 0 16 0;#P connect 16 0 17 0;#P connect 2 0 3 0;#P connect 10 0 16 1;#P fasten 17 0 6 0 239 428 529 428 529 131 265 131;#P fasten 4 1 7 0 152 174 265 174;#P lcolor 2;#P connect 6 0 7 0;#P fasten 7 0 18 0 265 198 265 198;#P connect 18 0 19 0;#P connect 19 0 8 0;#P connect 8 0 15 1;#P connect 10 0 8 1;#P connect 9 0 10 0;#P fasten 20 0 18 1 402 195 386 195;#P fasten 20 0 19 1 402 230 386 230;#P pop;#P newobj 32 167 68 196622 p speed;#B color 4;#P window setfont "Sans Serif" 9.;#P newex 207 114 29 196617 gate;#P newex 141 86 32 196617 t 1;#P newex 105 86 32 196617 sel 0;#N vpatcher 20 74 229 215;#P window setfont "Sans Serif" 9.;#P message 37 58 124 196617 jit_matrix dummymatrix;#P outlet 37 80 15 0;#P inlet 37 36 15 0;#P connect 0 0 2 0;#P connect 2 0 1 0;#P pop;#P newobj 226 93 13 196617 p;#P newex 193 48 180 196617 r $1/record;#B color 12;#P user gswitch 193 148 41 32 1 0;#N comlet in;#P inlet 255 109 15 0;#P window linecount 27;#P message 523 151 246 196617 \; $1/sw/init bang \; $1/source/init bang \; $1/dim/x/init bang \; $1/dim/y/init bang \; $1/buf/max/init bang \; $1/rec/init bang \; $1/play/init bang \; $1/speed/init bang \; $1/delay/init bang \; $1/speed/bang/init bang \; $1/speed/endSpeed/init bang \; $1/speed/time/init bang \; $1/speed/curve/init bang \; $1/speed/curve/mode/init bang \; $1/speed/curve/sym/init bang \; $1/delay/bang/init bang \; $1/delay/endDelay/init bang \; $1/delay/time/init bang \; $1/delay/curve/init bang \; $1/delay/curve/mode/init bang \; $1/delay/curve/sym/init bang \; $1/loop/sw/init bang \; $1/loop/mode/init bang \; $1/loop/autostart/init bang \; $1/loop/begin/delay/init bang \; $1/loop/end/delay/init bang \;;#P window linecount 1;#P newex 193 246 122 196617 s $1/framebang;#B color 12;#P newex 523 104 123 196617 moduleinit $1;#B color 12;#P outlet 317 298 15 0;#P newex 317 249 98 196617 js circularbuffer.js;#P newex 164 298 149 196617 s $1/out;#B color 12;#P user gswitch2 164 194 39 32 1 0;#P toggle 13 115 15 0;#P newex 13 28 346 196617 makeswitch $1/sw $1 movie_switchstate;#B color 12;#P window setfont "Sans Serif" 12.;#N vpatcher 115 518 1027 899;#P origin 2 -55;#P window setfont "Sans Serif" 9.;#P newex 230 113 133 196617 variedit $1/internal/delay;#P message 621 263 56 196617 dim \$1 \$2;#P newex 621 227 67 196617 pak 320 240;#P newex 652 212 154 196617 makeparam $1/dim/y $1 i 480;#B color 12;#P newex 621 194 154 196617 makeparam $1/dim/x $1 i 640;#B color 12;#P newex 230 181 35 196617 * 25.;#P newex 230 146 27 196617 f;#P button 491 230 15 0;#P message 491 263 44 196617 compile;#P newex 491 193 110 196617 r $1-compile;#B color 12;#P flonum 68 69 35 9 0 0 0 3 0 0 0 221 221 221 222 222 222 0 0 0;#P newex 68 46 102 196617 r /framemotor/real;#B color 12;#P newex 28 22 217 196617 makeparam $1/buf/max $1 f 1 0.01 16 0;#B color 12;#P newex 28 94 50 196617 * 25.;#P newex 28 116 113 196617 s $1/maxframes;#B color 12;#P newex 148 165 44 196617 del 100;#P button 170 121 15 0;#P newex 28 164 40 196617 change;#P newex 148 144 20 196617 t b;#P number 148 230 35 9 0 0 64 3 0 0 0 221 221 221 222 222 222 0 0 0;#P newex 381 189 77 196617 sel 0;#P newex 295 189 66 196617 sel 0;#P button 381 230 15 0;#P button 448 230 15 0;#P button 295 230 15 0;#P button 351 230 15 0;#P message 381 263 65 196617 stop_record;#P message 448 263 40 196617 record;#P message 295 263 54 196617 stop_play;#P message 351 263 29 196617 play;#P newex 381 165 130 196617 makeparam $1/rec $1 t 1;#B color 12;#P newex 295 146 219 196617 makeparam $1/play $1 t 1;#B color 12;#P flonum 230 230 35 9 0 0 0 3 0 0 0 221 221 221 222 222 222 0 0 0;#P newex 148 69 173 196617 r $1-clear;#B color 12;#P newex 230 90 181 196617 makeparam $1/delay $1 f 0. 0. 16. 1;#B color 12;#P message 230 263 49 196617 delay \$1;#P newex 28 142 114 196617 r $1/maxframes;#B color 12;#P message 148 263 76 196617 maxframes \$1;#P outlet 295 352 15 0;#P connect 26 0 25 0;#P connect 25 0 24 0;#P connect 2 0 21 0;#P connect 27 0 28 0;#P connect 5 0 20 0;#P connect 22 0 20 0;#P connect 20 0 23 0;#P fasten 21 0 19 0 33 221 153 221;#P lcolor 15;#P connect 23 0 19 0;#P connect 19 0 1 0;#P connect 4 0 38 0;#P connect 38 1 32 0;#P connect 32 0 33 0;#P connect 33 0 6 0;#P connect 6 0 3 0;#P connect 7 0 17 0;#P connect 17 0 14 0;#P connect 14 0 10 0;#P fasten 30 0 0 0 496 319 300 319;#P fasten 12 0 0 0 386 319 300 319;#P fasten 11 0 0 0 453 319 300 319;#P fasten 10 0 0 0 300 319 300 319;#P fasten 9 0 0 0 356 319 300 319;#P fasten 3 0 0 0 235 319 300 319;#P fasten 1 0 0 0 153 319 300 319;#P fasten 37 0 0 0 626 319 300 319;#P fasten 17 1 13 0 356 229 356 229;#P connect 13 0 9 0;#P connect 8 0 18 0;#P connect 18 0 16 0;#P connect 16 0 12 0;#P fasten 18 1 15 0 453 222 453 222;#P connect 15 0 11 0;#P connect 29 0 31 0;#P connect 31 0 30 0;#P connect 34 0 36 0;#P connect 36 0 37 0;#P connect 35 0 36 1;#P pop;#P newobj 317 194 138 196620 p params $1;#B color 8;#P connect 1 0 2 0;#P connect 2 0 14 0;#P connect 14 0 15 0;#P fasten 2 0 3 0 18 147 169 147;#P fasten 3 0 4 0 169 256 169 256;#P lcolor 13;#P fasten 5 0 4 0 322 289 169 289;#P lcolor 13;#P connect 15 0 11 0;#P connect 12 0 11 0;#P connect 11 0 3 1;#P connect 3 1 8 0;#P connect 2 0 16 0;#P connect 16 0 11 1;#P connect 23 0 11 2;#P connect 10 0 11 2;#P connect 21 0 13 0;#P connect 13 0 16 1;#P connect 3 0 25 0;#P connect 5 0 25 0;#P connect 26 0 25 0;#P connect 0 0 5 0;#P fasten 3 1 5 0 198 233 322 233;#P lcolor 2;#P fasten 3 0 6 0 169 283 322 283;#P lcolor 2;#P fasten 5 0 6 0 322 278 322 278;#P connect 22 0 24 0;#P connect 24 0 23 0;#P connect 7 0 27 0;#P connect 27 0 9 0;#P pop;