max v2;#N vpatcher 512 65 1372 486;#P origin 482 68;#P window setfont "Sans Serif" 9.;#P newex 319 336 55 196617 jit.matrix;#P newex 319 315 237 196617 r $1/slab/out;#B color 12;#P window setfont Helvetica 9.;#P comment 397 294 190 1376265 Tom Mays \, Olivier Pfeiffer & Renaud Rubiano;#B frgb 0 146 207;#P window linecount 2;#P comment 398 270 220 1376265 m_chromakey is a part of movie \, a part of tapemovie. contact@tapemovie.org;#P window setfont Helvetica 24.;#P window linecount 1;#P comment 398 215 160 1376280 m_chromakey;#B frgb 0 146 207;#P window setfont Helvetica 12.;#P window linecount 2;#P comment 398 242 263 1376268 $1 : prefix name \; $2 : name of the render associated \;;#P user panel 395 212 269 96;#X brgb 255 255 255;#X frgb 0 0 0;#X border 1;#X rounded 0;#X shadow 0;#X done;#P window setfont "Sans Serif" 9.;#P window linecount 1;#P newex 34 358 295 196617 gate;#P newex 34 381 74 196617 s $1_preview;#B color 12;#P newex 34 335 237 196617 makeparam $1/preview $1 t 0;#B color 12;#P window setfont "Sans Serif" 14.;#P newex 34 264 273 196622 m_slab2 $1 co.chromakey.jxs $2;#B color 6;#P window setfont "Sans Serif" 9.;#P newex 435 134 284 196617 makeparam $1/color/alpha $1 f 1 0 1 1;#B color 12;#P newex 378 116 279 196617 makeparam $1/color/blue $1 f 1 0 1 1;#B color 12;#P newex 321 98 286 196617 makeparam $1/color/green $1 f 1 0 1 1;#B color 12;#P newex 264 80 276 196617 makeparam $1/color/red $1 f 1 0 1 1;#B color 12;#P newex 207 62 289 196617 makeparam $1/binary $1 f 1. 0 1 1;#B color 12;#P newex 150 44 288 196617 makeparam $1/invert $1 t 0;#B color 12;#P newex 93 26 279 196617 makeparam $1/fade $1 f 0. 0 1 1;#B color 12;#P newex 207 191 238 196617 pak color 0. 0. 0. 0.;#P message 207 161 54 196617 binary \$1;#P message 150 161 53 196617 invert \$1;#P message 93 161 44 196617 fade \$1;#P message 36 161 37 196617 tol \$1;#P newex 36 8 278 196617 makeparam $1/tol $1 f 0.3 0 1 1;#B color 12;#P newex 36 216 76 196617 prepend param;#P newex 672 160 168 196617 moduleinit $1;#B color 11;#P window linecount 13;#P message 672 187 169 196617 \; $1/sw/init bang \; $1/source/init bang \; $1/source2/init bang \; $1/tol/init bang \; $1/fade/init bang \; $1/invert/init bang \; $1/binary/init bang \; $1/color/red/init bang \; $1/color/green/init bang \; $1/color/blue/init bang \; $1/color/alpha/init bang \; $1/preview/init bang \;;#P window linecount 1;#P newex 36 242 247 196617 s $1;#B color 12;#P connect 18 0 20 0;#P connect 20 0 19 0;#P connect 4 0 5 0;#P fasten 9 0 3 0 212 211 41 211;#P fasten 7 0 3 0 155 189 41 189;#P fasten 8 0 3 0 212 189 41 189;#P fasten 6 0 3 0 98 189 41 189;#P fasten 5 0 3 0 41 189 41 189;#P connect 3 0 0 0;#P connect 10 0 6 0;#P connect 11 0 7 0;#P connect 12 0 8 0;#P connect 13 0 9 1;#P connect 26 0 27 0;#P connect 27 0 20 1;#P connect 14 0 9 2;#P connect 15 0 9 3;#P connect 16 0 9 4;#P connect 2 0 1 0;#P pop;