max v2;#N vpatcher 289 325 1153 749;#P origin -89 -227;#P window setfont "Sans Serif" 9.;#P window linecount 1;#P newex 742 311 29 196617 gate;#P newex 608 311 29 196617 gate;#P newex 474 311 29 196617 gate;#P newex 340 311 29 196617 gate;#P newex 206 311 29 196617 gate;#P newex 72 311 29 196617 gate;#N qlist;#X append $1/sw/init bang \; $1.1/shoot 0 \; $1.2/shoot 0 \; $1.3/shoot 0 \; $1.4/shoot 0 \; $1.5/shoot 0 \;;#X append $1.6/shoot 0 \; $1.1/shoot/auto 0 \; $1.2/shoot/auto 0 \; $1.3/shoot/auto 0 \; $1.4/shoot/auto 0 \; $1.5/shoot/auto 0 \;;#X append $1.6/shoot/auto 0 \; $1.1/time/in/init bang \; $1.2/time/in/init bang \; $1.3/time/in/init bang \; $1.4/time/in/init bang \; $1.5/time/in/init bang \;;#X append $1.6/time/in/init bang \; $1.1/time/wait/init bang \; $1.2/time/wait/init bang \; $1.3/time/wait/init bang \; $1.4/time/wait/init bang \; $1.5/time/wait/init bang \;;#X append $1.6/time/wait/init bang \; $1.1/time/out/init bang \; $1.2/time/out/init bang \; $1.3/time/out/init bang \; $1.4/time/out/init bang \; $1.5/time/out/init bang \;;#X append $1.6/time/out/init bang \; $1.1/alpha_max/init bang \; $1.2/alpha_max/init bang \; $1.3/alpha_max/init bang \; $1.4/alpha_max/init bang \; $1.5/alpha_max/init bang \;;#X append $1.6/alpha_max/init bang \;;#P newobj 573 103 40 196617 qlist;#P button 591 53 15 0;#P newex 591 31 168 196617 moduleinit $1;#B color 11;#N vpatcher 118 168 1321 525;#P origin 0 -295;#P inlet 926 50 15 0;#P window setfont "Sans Serif" 9.;#P window linecount 2;#P message 926 86 250 196617 store $1.1 $1.1 \, store $1.2 $1.2 \, store $1.3 $1.3 \, store $1.4 $1.4 \, store $1.5 $1.5 \, store $1.6 $1.6 \,;#P window linecount 1;#N coll textures;#P newobj 926 121 68 196617 coll textures;#P newex 32 284 453 196617 b 7;#P newex 32 248 96 196617 receive;#B color 12;#P inlet 16 248 15 0;#P outlet 32 305 15 0;#P outlet 105 305 15 0;#P outlet 178 305 15 0;#P outlet 251 305 15 0;#P outlet 324 305 15 0;#P outlet 397 305 15 0;#P outlet 470 305 15 0;#P window linecount 0;#P newex 934 231 69 196617 route symbol;#N coll m_textures 1;#P newobj 933 212 91 196617 coll m_textures 1;#B color 5;#P newex 877 210 51 196617 t texture;#P newex 877 189 67 196617 route <none>;#P newex 934 252 82 196617 prepend texture;#P newex 877 168 300 196617 makeparam $1/source.6 $1 s <none>;#B color 12;#P newex 787 207 69 196617 route symbol;#N coll m_textures 1;#P newobj 787 186 91 196617 coll m_textures 1;#B color 5;#P newex 730 186 51 196617 t texture;#P newex 730 165 67 196617 route <none>;#P newex 787 228 82 196617 prepend texture;#P newex 730 144 300 196617 makeparam $1/source.5 $1 s <none>;#B color 12;#P newex 640 183 69 196617 route symbol;#N coll m_textures 1;#P newobj 640 162 91 196617 coll m_textures 1;#B color 5;#P newex 583 162 51 196617 t texture;#P newex 583 141 67 196617 route <none>;#P newex 640 204 82 196617 prepend texture;#P newex 583 120 300 196617 makeparam $1/source.4 $1 s <none>;#B color 12;#P newex 493 159 69 196617 route symbol;#N coll m_textures 1;#P newobj 493 138 91 196617 coll m_textures 1;#B color 5;#P newex 436 138 51 196617 t texture;#P newex 436 117 67 196617 route <none>;#P newex 493 180 82 196617 prepend texture;#P newex 436 96 300 196617 makeparam $1/source.3 $1 s <none>;#B color 12;#P newex 346 135 69 196617 route symbol;#N coll m_textures 1;#P newobj 346 114 91 196617 coll m_textures 1;#B color 5;#P newex 289 114 51 196617 t texture;#P newex 289 93 67 196617 route <none>;#P newex 346 156 82 196617 prepend texture;#P newex 289 72 300 196617 makeparam $1/source.2 $1 s <none>;#B color 12;#P newex 202 80 78 196617 sprintf %s/out;#P newex 123 101 69 196617 route symbol;#N coll m_textures 1;#P newobj 123 80 91 196617 coll m_textures 1;#B color 5;#P newex 202 101 62 196617 prepend set;#P newex 32 80 31 196617 t set;#P newex 66 80 51 196617 t texture;#P newex 66 53 67 196617 route <none>;#P newex 123 122 82 196617 prepend texture;#P newex 66 32 323 196617 makeparam $1/source.1 $1 s <none>;#B color 12;#P connect 2 0 4 0;#P connect 5 0 47 0;#P connect 4 0 47 0;#P connect 46 0 48 0;#P connect 47 0 48 0;#P connect 48 0 45 0;#P connect 0 0 2 0;#P connect 2 0 3 0;#P connect 48 1 44 0;#P connect 1 0 44 0;#P connect 3 0 44 0;#P connect 2 1 6 0;#P connect 6 0 7 0;#P connect 7 0 1 0;#P connect 48 2 43 0;#P connect 10 0 43 0;#P connect 12 0 43 0;#P fasten 2 1 8 0 128 75 207 75;#P connect 8 0 5 0;#P connect 48 3 42 0;#P connect 18 0 42 0;#P connect 16 0 42 0;#P connect 9 0 11 0;#P connect 11 0 12 0;#P connect 48 4 41 0;#P connect 22 0 41 0;#P connect 24 0 41 0;#P connect 11 1 13 0;#P connect 13 0 14 0;#P connect 14 0 10 0;#P connect 48 5 40 0;#P connect 30 0 40 0;#P connect 28 0 40 0;#P connect 15 0 17 0;#P connect 17 0 18 0;#P connect 48 6 39 0;#P connect 34 0 39 0;#P connect 36 0 39 0;#P connect 17 1 19 0;#P connect 19 0 20 0;#P connect 20 0 16 0;#P connect 21 0 23 0;#P connect 23 0 24 0;#P connect 23 1 25 0;#P connect 25 0 26 0;#P connect 26 0 22 0;#P connect 27 0 29 0;#P connect 29 0 30 0;#P connect 29 1 31 0;#P connect 31 0 32 0;#P connect 32 0 28 0;#P connect 33 0 35 0;#P connect 35 0 36 0;#P connect 51 0 50 0;#P connect 50 0 49 0;#P connect 35 1 37 0;#P connect 37 0 38 0;#P connect 38 0 34 0;#P pop;#P newobj 8 41 390 196617 p;#P newex 386 61 147 196617 jit.gl.slab $2;#P newex 323 79 147 196617 jit.gl.slab $2;#P newex 260 97 147 196617 jit.gl.slab $2;#P newex 197 115 147 196617 jit.gl.slab $2;#P newex 134 133 147 196617 jit.gl.slab $2;#P window linecount 2;#P newex 722 359 113 196617 jit.gl.texture $2 @name $1.6;#P newex 588 359 113 196617 jit.gl.texture $2 @name $1.5;#P newex 454 359 113 196617 jit.gl.texture $2 @name $1.4;#P newex 320 359 113 196617 jit.gl.texture $2 @name $1.3;#P newex 186 359 113 196617 jit.gl.texture $2 @name $1.2;#P newex 52 359 113 196617 jit.gl.texture $2 @name $1.1;#P window linecount 1;#P newex 71 152 214 196617 jit.gl.slab $2;#N comlet out;#P outlet 8 150 15 0;#N comlet in;#P inlet 8 18 15 0;#P newex 618 186 207 196617 m_autofade $1.6 $1 plan;#P newex 618 164 207 196617 m_autofade $1.5 $1 plan;#P newex 618 142 207 196617 m_autofade $1.4 $1 plan;#P newex 618 122 207 196617 m_autofade $1.3 $1 plan;#P newex 618 99 207 196617 m_autofade $1.2 $1 plan;#P newex 618 77 207 196617 m_autofade $1.1 $1 plan;#P newex 722 282 27 196617 !- 1;#P newex 588 282 27 196617 !- 1;#P newex 454 282 27 196617 !- 1;#P newex 320 282 27 196617 !- 1;#P newex 186 282 27 196617 !- 1;#P newex 52 282 27 196617 !- 1;#P toggle 22 228 15 0;#P newex 22 205 303 196617 makeswitch $1/sw $1 movie_switchstate;#B color 12;#P newex 722 227 115 196617 r $1.6/shoot;#B color 12;#P newex 588 227 115 196617 r $1.5/shoot;#B color 12;#P newex 454 227 115 196617 r $1.4/shoot;#B color 12;#P newex 320 227 115 196617 r $1.3/shoot;#B color 12;#P newex 186 227 115 196617 r $1.2/shoot;#B color 12;#P newex 52 227 115 196617 r $1.1/shoot;#B color 12;#P toggle 722 261 15 0;#P newex 722 334 29 196617 gate;#P toggle 588 261 15 0;#P newex 588 334 29 196617 gate;#P toggle 454 261 15 0;#P newex 454 334 29 196617 gate;#P toggle 320 261 15 0;#P newex 320 334 29 196617 gate;#P toggle 186 261 15 0;#P newex 186 334 29 196617 gate;#P toggle 52 261 15 0;#P newex 52 334 29 196617 gate;#P connect 32 0 46 0;#P connect 46 0 33 0;#P connect 18 0 19 0;#P connect 12 0 1 0;#P connect 1 0 20 0;#P connect 20 0 0 0;#P connect 0 0 35 0;#P connect 46 1 34 0;#P connect 50 0 0 1;#P fasten 19 0 50 0 27 306 77 306;#P lcolor 7;#P connect 34 0 50 1;#P connect 46 2 41 0;#P connect 13 0 3 0;#P connect 3 0 21 0;#P connect 21 0 2 0;#P connect 2 0 36 0;#P connect 46 3 42 0;#P connect 51 0 2 1;#P fasten 19 0 51 0 27 306 211 306;#P lcolor 7;#P connect 41 0 51 1;#P connect 46 4 43 0;#P connect 14 0 5 0;#P connect 5 0 22 0;#P connect 22 0 4 0;#P connect 4 0 37 0;#P connect 46 5 44 0;#P connect 52 0 4 1;#P fasten 19 0 52 0 27 306 345 306;#P lcolor 7;#P connect 42 0 52 1;#P connect 46 6 45 0;#P connect 48 0 46 1;#P connect 15 0 7 0;#P connect 7 0 23 0;#P connect 23 0 6 0;#P connect 6 0 38 0;#P connect 53 0 6 1;#P fasten 19 0 53 0 27 306 479 306;#P lcolor 7;#P connect 43 0 53 1;#P connect 48 0 49 0;#P connect 16 0 9 0;#P connect 9 0 24 0;#P connect 24 0 8 0;#P connect 8 0 39 0;#P connect 47 0 48 0;#P connect 54 0 8 1;#P fasten 19 0 54 0 27 306 613 306;#P lcolor 7;#P connect 44 0 54 1;#P connect 17 0 11 0;#P connect 11 0 25 0;#P connect 25 0 10 0;#P connect 10 0 40 0;#P connect 55 0 10 1;#P fasten 19 0 55 0 27 306 747 306;#P lcolor 7;#P connect 45 0 55 1;#P pop;