max v2;#N vpatcher 105 520 644 833;#P window setfont "Sans Serif" 9.;#P comment 16 45 61 196617 /source2;#P newex 92 72 88 196617 pvar texture-2 2;#P window setfont "Sans Serif" 12.;#P newex 12 96 141 196620 m_inputmenugpu2 $1;#B color 6;#P window setfont "Sans Serif" 9.;#P newex 12 73 77 196617 pvar texture 2;#P window setfont Times 10.;#P user ubumenu 63 1 59 1310730 0 0 1 0;#X add none;#X add /ch.1;#X add /ch.2;#X add /ch.3;#X add /ch.4;#X prefix_set 0 0 <none> 0;#P objectname texture;#P window setfont "Sans Serif" 9.;#P newex 23 264 207 196617 variedit $1/amount $1;#B color 12;#P newex 23 241 73 196617 pvar AMOUNT;#P flonum 218 22 35 9 -1. 1. 3 3 0 0 0 221 221 221 222 222 222 0 0 0;#P objectname AMOUNT;#P comment 168 23 48 196617 /amount;#P window setfont Times 10.;#P user ubumenu 64 42 59 1310730 0 0 1 0;#X add none;#X add /ch.1;#X add /ch.2;#X add /ch.3;#X add /ch.4;#X add /ch.5;#X add /ch.6;#X add /ch.7;#X add /ch.8;#X add /noiz.1;#X add /pict.1;#X add /pict.2;#X add /cam.1;#X add /cam.2;#X add /cam.3;#X add /cam.4;#X add /mov.1;#X add /mov.2;#X add /mov.3;#X add /mov.4;#X prefix_set 0 0 <none> 0;#P objectname texture-2;#P window setfont "Sans Serif" 9.;#P flonum 466 47 35 9 -1. 1. 3 3 0 0 0 221 221 221 222 222 222 0 0 0;#P objectname alpha;#P flonum 340 74 35 9 -1. 1. 3 3 0 0 0 221 221 221 222 222 222 0 0 0;#P objectname blue;#P flonum 340 58 35 9 -1. 1. 3 3 0 0 0 221 221 221 222 222 222 0 0 0;#P objectname green;#P flonum 340 42 35 9 -1. 1. 3 3 0 0 0 221 221 221 222 222 222 0 0 0;#P objectname red;#P comment 395 48 77 196617 /amount/alpha;#P comment 269 75 69 196617 /amount/blue;#P comment 269 59 79 196617 /amount/green;#P user ubumenu 184 41 70 196617 0 1 1 0;#X add additive;#X add average;#X add brightlight;#X add burn;#X add darken;#X add difference;#X add dodge;#X add exclude;#X add freeze;#X add glow;#X add hardlight;#X add heat;#X add inverse;#X add lighten;#X add multiply;#X add negate;#X add overlay;#X add reflect;#X add screen;#X add softlight;#X add stamp;#X add subtractive;#X prefix_set 0 0 <none> 0;#X pattrmode 1;#P objectname composite;#P newex 149 150 52 196617 pvar blue;#P newex 149 201 88 196617 pvar composite 2;#P newex 149 126 59 196617 pvar green;#P newex 149 102 49 196617 pvar red;#P newex 149 174 57 196617 pvar alpha;#P newex 149 225 237 196617 variedit $1/composite $1;#B color 12;#P newex 232 174 215 196617 variedit $1/alpha $1;#B color 12;#P newex 232 150 210 196617 variedit $1/blue $1;#B color 12;#P newex 232 126 217 196617 variedit $1/green $1;#B color 12;#P newex 232 102 207 196617 variedit $1/red $1;#B color 12;#P comment 127 43 61 196617 /composite;#P comment 269 43 69 196617 /amount/red;#P bpatcher 0 0 256 62 0 0 bkgnd.mxt 0 $1;#P objectname background;#P fasten 28 0 27 0 17 123 8 123 8 69 17 69;#P fasten 27 1 28 0 84 93 17 93;#P fasten 25 0 24 0 28 285 20 285 20 233 28 233;#P connect 24 0 25 0;#P connect 28 1 29 0;#P connect 29 1 28 1;#P connect 3 0 9 0;#P connect 4 0 10 0;#P connect 5 0 12 0;#P connect 6 0 8 0;#P fasten 7 0 11 0 154 244 141 244 141 222 141 198 154 198;#P connect 11 1 7 0;#P connect 9 0 3 0;#P connect 10 0 4 0;#P connect 12 0 5 0;#P connect 8 0 6 0;#P pop;