max v2;#N vpatcher 629 379 1000 628;#P window setfont "Sans Serif" 12.;#P window linecount 1;#P newex 169 114 133 196620 m_inputmenugpu $1;#B color 6;#P window setfont "Sans Serif" 9.;#P newex 169 91 77 196617 pvar texture 2;#P window setfont Times 10.;#P user ubumenu 63 0 59 1310730 0 0 1 0;#X add none;#X add /ch.1;#X add /ch.2;#X add /ch.3;#X add /ch.4;#X prefix_set 0 0 <none> 0;#P objectname texture;#P window setfont "Sans Serif" 9.;#P flonum 109 42 33 9 0. 500. 35 3 0 0 0 221 221 221 222 222 222 0 0 0;#P objectname width;#P comment 107 29 39 196617 WIDTH;#P newex 25 173 262 196617 variedit $1/width $1;#B color 12;#P newex 25 151 59 196617 pvar width;#P bpatcher 0 -1 256 62 0 0 bkgnd.mxt 0 $1;#P objectname background;#P connect 2 0 1 0;#P connect 1 0 2 0;#P fasten 7 0 6 0 174 141 165 141 165 87 174 87;#P fasten 6 1 7 0 241 111 174 111;#P pop;