max v2;#N vpatcher 529 339 871 546;#P origin -9 -87;#P window setfont "Sans Serif" 9.;#P message 102 91 33 196617 clear;#P toggle 117 46 15 0;#P objectname freez;#P window setfont "Sans Serif" 12.;#P newex 168 112 133 196620 m_inputmenugpu $1;#B color 6;#P window setfont "Sans Serif" 9.;#P newex 168 89 77 196617 pvar texture 2;#P window setfont Times 10.;#P user ubumenu 62 1 59 1310730 0 0 1 0;#X prefix_set 0 0 <none> 0;#P objectname texture;#P window setfont "Sans Serif" 9.;#P comment 111 31 39 196617 /freez;#P newex 13 130 146 196617 variedit $1/freez $1;#P newex 13 108 58 196617 pvar freez;#P bpatcher 0 0 256 62 0 0 bkgnd.mxt 0 $1;#P objectname background;#P fasten 2 0 1 0 18 152 9 152 9 102 18 102;#P connect 1 0 2 0;#P connect 8 0 5 0;#P fasten 6 0 5 0 173 139 164 139 164 85 173 85;#P fasten 5 1 6 0 240 109 173 109;#P pop;