max v2;#N vpatcher 643 259 1419 692;#P origin 482 159;#P window setfont "Sans Serif" 9.;#P window linecount 1;#P newex 505 340 122 196617 s $1/slab/process/out2;#B color 12;#P newex 246 309 269 196617 jit.gl.slab $2 @file m_freez.jxs;#P newex 246 341 116 196617 s $1/slab/process/out;#B color 12;#P newex 284 260 223 196617 r $1/slab/process/in;#B color 12;#P newex 247 261 31 196617 == 0;#P newex 247 284 47 196617 gate 1 1;#P window setfont Helvetica 9.;#P comment 10 211 190 1376265 Tom Mays \, Olivier Pfeiffer & Renaud Rubiano;#B frgb 0 146 207;#P window linecount 2;#P comment 11 187 220 1376265 m_freez is a part of movie \, a part of tapemovie. contact@tapemovie.org;#P window setfont Helvetica 24.;#P window linecount 1;#P comment 11 132 99 1376280 m_freez;#B frgb 0 146 207;#P window setfont Helvetica 12.;#P window linecount 2;#P comment 11 159 263 1376268 $1 : prefix name \; $2 : name of the render associated \;;#P user panel 8 129 269 96;#X brgb 255 255 255;#X frgb 0 0 0;#X border 1;#X rounded 0;#X shadow 0;#X done;#P window setfont "Sans Serif" 14.;#P window linecount 1;#P newex 8 100 353 196622 m_slab $1 m_freez.jxs $2;#B color 6;#P window setfont "Sans Serif" 9.;#P newex 9 28 334 196617 makeparam $1/freez $1 t 0;#B color 11;#P message 9 70 81 196617 param freez \$1;#P newex 285 132 168 196617 moduleinit $1;#B color 11;#P window linecount 4;#P message 285 157 131 196617 \; $1/sw/init bang \; $1/source/init bang \; $1/freez/init bang \;;#P connect 3 0 2 0;#P connect 10 0 14 0;#P connect 2 0 14 0;#P connect 14 0 13 0;#P connect 3 0 11 0;#P connect 11 0 10 0;#P connect 12 0 10 1;#P connect 1 0 0 0;#P connect 14 1 15 0;#P pop;