max v2;#N vpatcher 617 240 962 481;#P window setfont "Sans Serif" 12.;#P window linecount 1;#P newex 147 96 133 196620 m_inputmenugpu $1;#B color 6;#P window setfont "Sans Serif" 9.;#P newex 147 73 77 196617 pvar texture 2;#P window setfont Times 10.;#P user ubumenu 63 1 59 1310730 0 0 1 0;#X add none;#X add /ch.1;#X add /ch.2;#X add /ch.3;#X add /ch.4;#X prefix_set 0 0 <none> 0;#P objectname texture;#P window setfont "Sans Serif" 9.;#P comment 20 2 46 196617 /source;#P newex 19 185 235 196617 variedit $1/width/y $1;#P newex 19 163 70 196617 pvar width-y;#P flonum 141 46 33 9 0. 500. 35 3 0 0 0 221 221 221 222 222 222 0 0 0;#P objectname width-y;#P comment 134 33 53 196617 /width/y;#P newex 19 132 235 196617 variedit $1/width/x $1;#P newex 19 110 70 196617 pvar width-x;#P flonum 72 46 33 9 0. 500. 35 3 0 0 0 221 221 221 222 222 222 0 0 0;#P objectname width-x;#P comment 65 33 53 196617 /width/x;#P bpatcher 0 0 256 62 0 0 bkgnd.mxt 0 $1 0;#P objectname background;#P fasten 4 0 3 0 24 150 24 154 15 154 15 107 24 107;#P connect 3 0 4 0;#P fasten 8 0 7 0 24 203 24 207 15 207 15 160 24 160;#P connect 7 0 8 0;#P fasten 12 0 11 0 152 123 143 123 143 69 152 69;#P fasten 11 1 12 0 219 93 152 93;#P pop;