max v2;#N vpatcher 460 327 1030 615;#P origin 492 142;#P window setfont Helvetica 9.;#P window linecount 1;#P comment 7 250 190 1376265 Tom Mays \, Olivier Pfeiffer & Renaud Rubiano;#B frgb 0 146 207;#P window linecount 2;#P comment 8 226 220 1376265 m_gaussian is a part of movie \, a part of tapemovie. contact@tapemovie.org;#P window setfont Helvetica 24.;#P window linecount 1;#P comment 8 171 136 1376280 m_gaussian;#B frgb 0 146 207;#P window setfont Helvetica 12.;#P window linecount 2;#P comment 8 198 263 1376268 $1 : prefix name \; $2 : name of the render associated \;;#P user panel 5 168 269 96;#X brgb 255 255 255;#X frgb 0 0 0;#X border 1;#X rounded 0;#X shadow 0;#X done;#P window setfont "Sans Serif" 14.;#P window linecount 1;#P newex 5 139 314 196622 m_slab $1 cf.gaussian.2p.jxs $2;#B color 6;#P window setfont "Sans Serif" 9.;#P newex 8 67 98 196617 pak 0. 0.;#P newex 96 44 354 196617 makeparam $1/width/y $1 f 0 -10 10 1;#B color 11;#P newex 8 23 357 196617 makeparam $1/width/x $1 f 0 -10 10 1;#B color 11;#P newex 294 172 168 196617 moduleinit $1;#B color 11;#P window linecount 5;#P message 294 191 240 196617 \; $1/sw/init bang \; $1/source/init bang \; $1/width/x/init bang \; $1/width/y/init bang \;;#P window linecount 1;#P message 8 95 96 196617 param width \$1 \$2;#P newex 8 117 133 196617 s $1;#B color 12;#P connect 4 0 6 0;#P connect 6 0 1 0;#P fasten 1 0 0 0 13 113 13 113;#P connect 5 0 6 1;#P connect 3 0 2 0;#P pop;