max v2;#N vpatcher 521 223 1447 821;#P origin 499 56;#P window setfont "Sans Serif" 9.;#P newex 17 458 116 196617 s $1/slab/process/out;#P newex 122 443 216 196617 s $1/slab/process/out2;#P newex 26 418 304 196617 jit.gl.slab $2 @type float32 @dim 640 480 @file afterkey.cg.jxs;#P newex 26 394 209 196617 r $1/slab/process/in;#P newex 390 503 115 196617 prepend param blur3_5;#P newex 389 481 273 196617 makeparam $1/aa/fine $1;#P newex 363 432 291 196617 makeparam $1/aa/bypass $1 t 1;#P newex 363 454 110 196617 prepend param bypass;#P newex 377 339 252 196617 makeparam $1/aa/coef $1 f 0 1 0 10 1;#P newex 377 365 98 196617 prepend param coef;#P window setfont Helvetica 9.;#P comment 25 565 190 1376265 Tom Mays \, Olivier Pfeiffer & Renaud Rubiano;#B frgb 0 146 207;#P window linecount 2;#P comment 26 541 220 1376265 m_keystone is a part of movie \, a part of tapemovie. contact@tapemovie.org;#P window setfont Helvetica 24.;#P window linecount 1;#P comment 26 486 140 1376280 m_keystone;#B frgb 0 146 207;#P window setfont Helvetica 12.;#P window linecount 2;#P comment 26 513 263 1376268 $1 : prefix name \; $2 : name of the render associated \;;#P user panel 23 483 269 96;#X brgb 255 255 255;#X frgb 0 0 0;#X border 1;#X rounded 0;#X shadow 0;#X done;#P window setfont "Sans Serif" 14.;#P window linecount 1;#P newex 24 368 348 196622 m_slab $1 keystone.jxs $2;#B color 6;#P window setfont "Sans Serif" 9.;#P newex 602 265 283 196617 makeparam $1/outcolor/alpha $1 f 0. 0. 1. 1;#P newex 581 246 278 196617 makeparam $1/outcolor/blue $1 f 0. 0. 1. 1;#P newex 560 225 285 196617 makeparam $1/outcolor/green $1 f 0. 0. 1. 1;#P newex 539 204 275 196617 makeparam $1/outcolor/red $1 f 0. 0. 1. 1;#P newex 180 102 378 196617 makeparam $1/bottom-right/y $1 f 0. -1. 1. 1.;#P newex 63 61 372 196617 makeparam $1/bottom-left/y $1 f 0. -1. 1. 1.;#P newex 141 82 378 196617 makeparam $1/bottom-right/x $1 f 0. -1. 1. 1.;#P newex 24 41 372 196617 makeparam $1/bottom-left/x $1 f 0. -1. 1. 1.;#P newex 415 185 378 196617 makeparam $1/top-right/y $1 f 0. -1. 1. 1.;#P newex 299 143 372 196617 makeparam $1/top-left/y $1 f 0. -1. 1. 1.;#P newex 376 165 378 196617 makeparam $1/top-right/x $1 f 0. -1. 1. 1.;#P newex 260 123 372 196617 makeparam $1/top-left/x $1 f 0. -1. 1. 1.;#P newex 539 284 73 196617 pak 0. 0. 0. 0.;#P newex 539 305 117 196617 prepend param outColor;#P newex 141 267 49 196617 pak 0. 0.;#P newex 376 305 114 196617 prepend param coeffBD;#P newex 24 267 49 196617 pak 0. 0.;#P newex 260 305 114 196617 prepend param coeffBG;#P newex 376 267 49 196617 pak 0. 0.;#P newex 141 305 114 196617 prepend param coeffHD;#P newex 260 267 49 196617 pak 0. 0.;#P newex 24 305 114 196617 prepend param coeffHG;#P window linecount 2;#P comment 188 338 179 196617 arg 1 : prefix name \; arg 2 : name of the render associated;#P window linecount 1;#P newex 679 331 168 196617 moduleinit $1;#B color 11;#P window linecount 18;#P message 679 352 191 196617 \; $1/sw/init bang \; $1/aa/bypass/init bang \; $1/aa/fine/init bang \; $1/aa/coef/init bang \; $1/source/init bang \; $1/top-left/x/init bang \; $1/top-left/y/init bang \; $1/top-right/x/init bang \; $1/top-right/y/init bang \; $1/bottom-left/x/init bang \; $1/bottom-left/y/init bang \; $1/bottom-right/x/init bang \; $1/bottom-right/y/init bang \; $1/outcolor/red/init bang \; $1/outcolor/green/init bang \; $1/outcolor/blue/init bang \; $1/outcolor/alpha/init bang \;;#P window linecount 1;#P newex 24 343 156 196617 s $1;#P connect 39 0 41 0;#P connect 18 0 9 0;#P connect 9 0 4 0;#P connect 34 0 0 0;#P fasten 12 0 0 0 544 332 29 332;#P fasten 10 0 0 0 381 332 29 332;#P fasten 8 0 0 0 265 332 29 332;#P fasten 6 0 0 0 146 332 29 332;#P fasten 4 0 0 0 29 332 29 332;#P connect 34 0 39 0;#P connect 37 0 39 0;#P connect 32 0 39 0;#P connect 38 0 39 0;#P connect 20 0 9 1;#P connect 39 1 40 0;#P connect 19 0 11 0;#P connect 11 0 6 0;#P connect 21 0 11 1;#P connect 14 0 5 0;#P connect 5 0 8 0;#P connect 16 0 5 1;#P connect 35 0 34 0;#P connect 15 0 7 0;#P connect 7 0 10 0;#P connect 33 0 32 0;#P connect 36 0 37 0;#P connect 17 0 7 1;#P connect 22 0 13 0;#P connect 13 0 12 0;#P connect 23 0 13 1;#P connect 24 0 13 2;#P connect 25 0 13 3;#P connect 2 0 1 0;#P pop;