max v2;#N vpatcher 403 313 896 813;#P origin -4 3;#P window setfont "Sans Serif" 9.;#P newex 130 401 185 196617 variedit $1/aa/fine $1;#P newex 48 401 61 196617 pvar aafine;#P toggle 41 102 15 0;#P objectname aabypass[1];#P comment 6 104 33 196617 /fine;#B frgb 0 0 222;#P user multiSlider 88 104 167 14 0. 10. 1 2680 47 0 0 2 0 0 0;#M frgb 0 0 0;#M brgb 255 255 255;#M rgb2 127 127 127;#M rgb3 0 0 0;#M rgb4 37 52 91;#M rgb5 74 105 182;#M rgb6 112 158 18;#M rgb7 149 211 110;#M rgb8 187 9 201;#M rgb9 224 62 37;#M rgb10 7 114 128;#P objectname aacoef;#P window setfont "Sans Serif" 12.;#P comment 6 82 88 196620 /aa;#B frgb 0 0 222;#P toggle 238 87 15 0;#P objectname aabypass;#P window setfont "Sans Serif" 9.;#P comment 190 88 47 196617 /bypass;#B frgb 0 0 222;#P comment 95 93 31 196617 /coef;#B frgb 0 0 222;#P message 316 45 33 196617 clear;#P window setfont "Sans Serif" 12.;#P newex 307 92 133 196620 m_inputmenugpu $1;#B color 6;#P window setfont "Sans Serif" 9.;#P newex 307 69 77 196617 pvar texture 2;#P window setfont Times 10.;#P user ubumenu 64 -2 59 1310730 0 0 1 0;#X prefix_set 0 0 <none> 0;#P objectname texture;#P window setfont "Sans Serif" 9.;#P newex 130 379 199 196617 variedit $1/aa/bypass $1;#P newex 48 379 75 196617 pvar aabypass;#P newex 130 355 187 196617 variedit $1/aa/coef $1;#P newex 48 355 63 196617 pvar aacoef;#P newex 106 304 222 196617 variedit $1/bottom-right/y $1;#P newex 49 304 50 196617 pvar bry;#P newex 105 282 222 196617 variedit $1/bottom-right/x $1;#P newex 48 282 50 196617 pvar brx;#P newex 105 261 216 196617 variedit $1/bottom-left/y $1;#P newex 48 261 48 196617 pvar bly;#P newex 105 237 216 196617 variedit $1/bottom-left/x $1;#P newex 48 237 48 196617 pvar blx;#P newex 105 214 205 196617 variedit $1/top-right/y $1;#P newex 48 214 49 196617 pvar try;#P newex 104 192 205 196617 variedit $1/top-right/x $1;#P newex 47 192 49 196617 pvar trx;#P newex 104 171 199 196617 variedit $1/top-left/y $1;#P newex 47 171 47 196617 pvar tly;#P newex 104 147 199 196617 variedit $1/top-left/x $1;#P newex 47 147 47 196617 pvar tlx;#P flonum 217 63 35 9 0 0 0 3 0 0 0 221 221 221 222 222 222 0 0 0;#P objectname bry;#P comment 197 63 31 196617 /y;#B frgb 0 0 222;#P flonum 157 63 35 9 0 0 0 3 0 0 0 221 221 221 222 222 222 0 0 0;#P objectname brx;#P comment 138 63 31 196617 /x;#B frgb 0 0 222;#P flonum 93 63 35 9 0 0 0 3 0 0 0 221 221 221 222 222 222 0 0 0;#P objectname bly;#P comment 75 63 31 196617 /y;#B frgb 0 0 222;#P flonum 34 63 35 9 0 0 0 3 0 0 0 221 221 221 222 222 222 0 0 0;#P objectname blx;#P window setfont "Sans Serif" 12.;#P comment 127 48 95 196620 /bottom-right;#B frgb 0 0 222;#P comment 18 48 88 196620 /bottom-left;#B frgb 0 0 222;#P window setfont "Sans Serif" 9.;#P comment 15 63 31 196617 /x;#B frgb 0 0 222;#P flonum 217 30 35 9 0 0 0 3 0 0 0 221 221 221 222 222 222 0 0 0;#P objectname try;#P comment 197 30 31 196617 /y;#B frgb 0 0 222;#P flonum 157 30 35 9 0 0 0 3 0 0 0 221 221 221 222 222 222 0 0 0;#P objectname trx;#P comment 138 30 31 196617 /x;#B frgb 0 0 222;#P flonum 93 30 35 9 0 0 0 3 0 0 0 221 221 221 222 222 222 0 0 0;#P objectname tly;#P comment 75 30 31 196617 /y;#B frgb 0 0 222;#P flonum 34 30 35 9 0 0 0 3 0 0 0 221 221 221 222 222 222 0 0 0;#P objectname tlx;#P window setfont "Sans Serif" 12.;#P comment 127 15 71 196620 /top-right;#B frgb 0 0 222;#P comment 18 15 64 196620 /top-left;#B frgb 0 0 222;#P window setfont "Sans Serif" 9.;#P comment 15 30 31 196617 /x;#B frgb 0 0 222;#P user panel 2 80 253 4;#X brgb 0 0 0;#X frgb 0 0 0;#X border 1;#X rounded 0;#X shadow 0;#X done;#P bpatcher 1 -3 256 124 0 0 bkgnd2.mxt 0 $1 0;#P objectname background;#P connect 23 0 22 0;#P connect 25 0 24 0;#P connect 27 0 26 0;#P connect 29 0 28 0;#P connect 31 0 30 0;#P connect 33 0 32 0;#P connect 35 0 34 0;#P connect 39 2 38 0;#P connect 41 0 40 0;#P connect 54 0 53 0;#P connect 37 0 36 0;#P connect 22 0 23 0;#P connect 24 0 25 0;#P connect 26 0 27 0;#P connect 28 0 29 0;#P connect 30 0 31 0;#P connect 32 0 33 0;#P connect 34 0 35 0;#P connect 36 0 37 0;#P connect 38 0 39 0;#P connect 40 0 41 0;#P connect 53 0 54 0;#P connect 45 0 43 0;#P fasten 44 0 43 0 312 119 303 119 303 65 312 65;#P fasten 43 1 44 0 379 89 312 89;#P pop;