max v2;#N vpatcher 469 48 791 415;#P window setfont "Sans Serif" 12.;#P window linecount 1;#P newex 169 112 133 196620 m_inputmenugpu $1;#B color 6;#P window setfont "Sans Serif" 9.;#P newex 169 89 77 196617 pvar texture 2;#P window setfont Times 10.;#P user ubumenu 63 1 59 1310730 0 0 1 0;#X add none;#X add /ch.1;#X add /ch.2;#X add /ch.3;#X add /ch.4;#X prefix_set 0 0 <none> 0;#P objectname texture;#P window setfont "Sans Serif" 9.;#P comment 194 29 55 196617 /offset/y;#P comment 139 29 60 196617 /offset/x;#P comment 85 29 46 196617 /amp/y;#P flonum 205 44 33 9 -20. 20. 35 3 0 0 0 221 221 221 222 222 222 0 0 0;#P objectname offsety;#P newex 29 280 163 196617 variedit $1/offset/y $1;#P newex 29 257 67 196617 pvar offsety;#P newex 29 227 163 196617 variedit $1/offset/x $1;#P newex 29 175 150 196617 variedit $1/amp/y $1;#P newex 29 126 150 196617 variedit $1/amp/x $1;#P newex 29 204 61 196617 pvar offset;#P newex 29 153 58 196617 pvar ampy;#P newex 29 104 58 196617 pvar ampx;#P flonum 148 44 33 9 -20. 20. 35 3 0 0 0 221 221 221 222 222 222 0 0 0;#P objectname offset;#P flonum 91 44 33 9 -20. 20. 35 3 0 0 0 221 221 221 222 222 222 0 0 0;#P objectname ampy;#P flonum 34 44 33 9 -20. 20. 35 3 0 0 0 221 221 221 222 222 222 0 0 0;#P objectname ampx;#P comment 30 29 46 196617 /amp/x;#P bpatcher 0 0 256 62 0 0 bkgnd.mxt 0 $1;#P objectname background;#P fasten 8 0 5 0 34 144 34 148 25 148 25 101 34 101;#P connect 5 0 8 0;#P fasten 9 0 6 0 34 191 34 196 23 196 23 152 34 152;#P fasten 6 0 9 0 34 172 34 172;#P fasten 10 0 7 0 34 244 34 248 24 248 24 199 34 199;#P connect 7 0 10 0;#P fasten 12 0 11 0 34 297 34 301 24 301 24 252 34 252;#P connect 11 0 12 0;#P fasten 19 0 18 0 174 139 165 139 165 85 174 85;#P fasten 18 1 19 0 241 109 174 109;#P pop;