max v2;#N vpatcher 301 390 913 745;#P origin -23 17;#P window setfont "Sans Serif" 14.;#P window linecount 1;#P newex 9 215 311 196622 m_slab $1 td.lumadisplace.jxs $2;#B color 6;#P window setfont "Sans Serif" 9.;#P newex 182 132 97 196617 pak 0. 0.;#B color 13;#P newex 269 90 264 196617 makeparam $1/offset/y $1 f 0 -10 10 1;#B color 11;#P flonum 269 109 35 9 0 0 0 3 0 0 0 221 221 221 222 222 222 0 0 0;#P newex 11 132 97 196617 pak 0. 0.;#B color 13;#P newex 98 44 198 196617 makeparam $1/amp/y $1 f 0.1 -10 10 1;#B color 11;#P flonum 98 109 35 9 0 0 0 3 0 0 0 221 221 221 222 222 222 0 0 0;#P newex 11 191 312 196617 s $1;#P newex 182 69 264 196617 makeparam $1/offset/x $1 f 0 -10 10 1;#B color 11;#P newex 11 19 267 196617 makeparam $1/amp/x $1 f 0.1 -10 10 1;#B color 11;#P flonum 182 109 35 9 0 0 0 3 0 0 0 221 221 221 222 222 222 0 0 0;#P message 182 155 102 196617 param offset \$1 \$2;#P flonum 11 109 35 9 0 0 0 3 0 0 0 221 221 221 222 222 222 0 0 0;#P message 11 155 113 196617 param amp \$1 \$2 0. 1.;#P newex 328 200 168 196617 moduleinit $1;#B color 11;#P window linecount 7;#P message 328 221 204 196617 \; $1/sw/init bang \; $1/source/init bang \; $1/amp/x/init bang \; $1/amp/y/init bang \; $1/offset/x/init bang \; $1/offset/y/init bang \;;#P connect 6 0 3 0;#P connect 3 0 11 0;#P connect 11 0 2 0;#P fasten 2 0 8 0 16 180 16 180;#P fasten 4 0 8 0 187 180 16 180;#P connect 10 0 9 0;#P connect 9 0 11 1;#P connect 7 0 5 0;#P connect 5 0 14 0;#P connect 14 0 4 0;#P connect 13 0 12 0;#P connect 12 0 14 1;#P connect 1 0 0 0;#P pop;