max v2;#N vpatcher 467 126 973 370;#P origin -20 44;#P window setfont Helvetica 9.;#P comment 11 203 190 1376265 Tom Mays \, Olivier Pfeiffer & Renaud Rubiano;#B frgb 0 146 207;#P window linecount 2;#P comment 12 179 253 1376265 m_blur is a part of movie \, a part of tapemovie. contact@tapemovie.org;#P window setfont Helvetica 24.;#P window linecount 1;#P comment 12 124 98 1376280 m_mask;#B frgb 0 146 207;#P window setfont Helvetica 12.;#P window linecount 2;#P comment 12 151 263 1376268 $1 : prefix name \; $2 : name of the render associated \;;#P user panel 9 121 269 96;#X brgb 255 255 255;#X frgb 0 0 0;#X border 1;#X rounded 0;#X shadow 0;#X done;#P window setfont "Sans Serif" 14.;#P window linecount 1;#P newex 10 93 264 196622 m_slab2 $1 co.pack.jxs movie.1;#B color 6;#P window setfont "Sans Serif" 9.;#P newex 10 25 377 196617 makeparam $1/width $1 f 0 0 1000 1;#B color 12;#P newex 292 105 168 196617 moduleinit $1;#B color 11;#P window linecount 5;#P message 292 143 176 196617 \; $1/sw/init bang \; $1/source/init bang \; $1/source2/init bang \; $1/width/init bang \;;#P window linecount 1;#P message 10 46 81 196617 param width \$1;#P newex 10 67 248 196617 s $1;#B color 12;#P connect 4 0 1 0;#P fasten 1 0 0 0 15 64 15 64;#P connect 3 0 2 0;#P pop;