max v2;#N vpatcher 490 300 1116 761;#P origin -20 37;#P window setfont Helvetica 9.;#P window linecount 1;#P comment 27 412 190 1376265 Tom Mays \, Olivier Pfeiffer & Renaud Rubiano;#B frgb 0 146 207;#P window linecount 2;#P comment 28 388 220 1376265 m_op is a part of movie \, a part of tapemovie. contact@tapemovie.org;#P window setfont Helvetica 24.;#P window linecount 1;#P comment 28 333 99 1376280 m_op;#B frgb 0 146 207;#P window setfont Helvetica 12.;#P window linecount 2;#P comment 28 360 263 1376268 $1 : prefix name \; $2 : name of the render associated \;;#P user panel 25 330 269 96;#X brgb 255 255 255;#X frgb 0 0 0;#X border 1;#X rounded 0;#X shadow 0;#X done;#P window setfont "Sans Serif" 14.;#P window linecount 1;#P newex 27 304 353 196622 m_slab2 $1 op.min.jxs $2;#B color 6;#P window setfont "Sans Serif" 9.;#P newex 290 246 120 196617 prepend param outoffset;#P newex 262 208 120 196617 prepend param in2offset;#P newex 248 170 114 196617 prepend param inoffset;#P newex 234 132 116 196617 prepend param outscale;#P newex 213 94 116 196617 prepend param in2scale;#P newex 197 56 110 196617 prepend param inscale;#P button 27 63 15 0;#P message 27 85 43 196617 dispose;#P newex 27 38 57 196617 route pass;#P newex 290 227 270 196617 makeparam $1/out/offset $1 f 0 -10 10 1;#B color 12;#P newex 262 189 270 196617 makeparam $1/in2/offset $1 f 0 -10 10 1;#B color 12;#P newex 248 151 264 196617 makeparam $1/in/offset $1 f 0 -10 10 1;#B color 12;#P newex 234 113 266 196617 makeparam $1/out/scale $1 f 1 -10 10 1;#B color 12;#P newex 213 75 266 196617 makeparam $1/in2/scale $1 f 1 -10 10 1;#B color 12;#P newex 197 37 260 196617 makeparam $1/in/scale $1 f 1 -10 10 1;#B color 12;#P newex 27 16 267 196617 makeparam $1/operator $1 m pass;#B color 12;#P newex 74 66 111 196617 sprintf read op.%s.jxs;#P newex 397 277 168 196617 moduleinit $1;#B color 11;#P window linecount 11;#P message 397 299 200 196617 \; $1/sw/init bang \; $1/source/init bang \; $1/source2/init bang \; $1/operator/init bang \; $1/in/scale/init bang \; $1/in2/scale/init bang \; $1/out/scale/init bang \; $1/in/offset/init bang \; $1/in2/offset/init bang \; $1/out/offset/init bang \;;#P window linecount 1;#P newex 27 274 248 196617 s $1;#P connect 4 0 11 0;#P connect 11 0 13 0;#P connect 13 0 12 0;#P fasten 14 0 0 0 202 173 32 173;#P fasten 15 0 0 0 218 192 32 192;#P fasten 16 0 0 0 239 211 32 211;#P fasten 17 0 0 0 253 230 32 230;#P fasten 18 0 0 0 267 249 32 249;#P fasten 19 0 0 0 295 265 32 265;#P connect 12 0 0 0;#P fasten 3 0 0 0 79 146 32 146;#P connect 11 1 3 0;#P connect 5 0 14 0;#P connect 6 0 15 0;#P connect 7 0 16 0;#P connect 8 0 17 0;#P connect 9 0 18 0;#P connect 10 0 19 0;#P connect 2 0 1 0;#P pop;