max v2;#N vpatcher 414 186 1036 396;#P window setfont "Sans Serif" 12.;#P window linecount 1;#P newex 169 112 133 196620 m_inputmenugpu $1;#B color 6;#P window setfont "Sans Serif" 9.;#P newex 169 89 77 196617 pvar texture 2;#P window setfont Times 10.;#P user ubumenu 63 1 59 1310730 0 0 1 0;#X add none;#X add /ch.1;#X add /ch.2;#X add /ch.3;#X add /ch.4;#X prefix_set 0 0 <none> 0;#P objectname texture;#P window setfont "Sans Serif" 9.;#P newex 404 84 197 196617 variedit $1/k2/pow;#B color 12;#P newex 404 61 193 196617 variedit $1/k2/val;#B color 12;#P newex 404 39 197 196617 variedit $1/k1/pow;#B color 12;#P newex 404 16 193 196617 variedit $1/k1/val;#B color 12;#P newex 352 39 50 196617 pvar k1p;#P newex 352 84 50 196617 pvar k2p;#P newex 352 61 45 196617 pvar k2;#P newex 352 16 45 196617 pvar k1;#P comment 134 40 77 196617 /k2/puissance;#P flonum 92 40 35 9 0 0 0 3 0 0 0 221 221 221 222 222 222 0 0 0;#P objectname k2;#P number 213 40 35 9 0 0 0 3 0 0 0 221 221 221 222 222 222 0 0 0;#P objectname k2p;#P comment 48 40 48 196617 /k2/val;#P comment 134 21 77 196617 /k1/puissance;#P flonum 92 21 35 9 0 0 0 3 0 0 0 221 221 221 222 222 222 0 0 0;#P objectname k1;#P number 213 21 35 9 0 0 0 3 0 0 0 221 221 221 222 222 222 0 0 0;#P objectname k1p;#P comment 48 21 48 196617 /k1/val;#P bpatcher 0 0 256 62 0 0 bkgnd.mxt 0 $1;#P objectname background;#P fasten 19 0 18 0 174 139 165 139 165 85 174 85;#P fasten 18 1 19 0 241 109 174 109;#P connect 13 0 9 0;#P connect 14 0 12 0;#P connect 15 0 10 0;#P connect 16 0 11 0;#P connect 9 0 13 0;#P connect 12 0 14 0;#P connect 10 0 15 0;#P connect 11 0 16 0;#P pop;