max v2;#N vpatcher 59 277 405 498;#P window setfont "Sans Serif" 12.;#P window linecount 1;#P newex 169 112 133 196620 m_inputmenugpu $1;#B color 6;#P window setfont "Sans Serif" 9.;#P newex 169 89 77 196617 pvar texture 2;#P window setfont Times 10.;#P user ubumenu 63 1 59 1310730 0 0 1 0;#X add none;#X add /ch.1;#X add /ch.2;#X add /ch.3;#X add /ch.4;#X prefix_set 0 0 <none> 0;#P objectname texture;#P window setfont "Sans Serif" 9.;#P newex 22 156 155 196617 variedit $1/width $1;#P newex 22 134 59 196617 pvar width;#P flonum 106 44 33 9 0. 500. 35 3 0 0 0 221 221 221 222 222 222 0 0 0;#P objectname width;#P comment 104 31 39 196617 WIDTH;#P bpatcher 0 0 256 62 0 0 bkgnd.mxt 0 $1;#P objectname background;#P fasten 4 0 3 0 27 174 27 178 18 178 18 131 27 131;#P connect 3 0 4 0;#P fasten 7 0 6 0 174 139 165 139 165 85 174 85;#P fasten 6 1 7 0 241 109 174 109;#P pop;