max v2;#N vpatcher 29 312 466 724;#P window setfont "Sans Serif" 12.;#P window linecount 1;#P newex 272 85 133 196620 m_inputmenugpu $1;#B color 6;#P window setfont "Sans Serif" 9.;#P newex 272 62 77 196617 pvar texture 2;#P window setfont Times 10.;#P user ubumenu 63 1 59 1310730 0 0 1 0;#X add none;#X add /ch.1;#X add /ch.2;#X add /ch.3;#X add /ch.4;#X prefix_set 0 0 <none> 0;#P objectname texture;#P window setfont "Sans Serif" 9.;#P comment 102 47 57 196617 /center/y;#P comment 20 28 47 196617 /freq/x;#P flonum 156 45 29 9 0 0 32 3 0 0 0 221 221 221 222 222 222 0 0 0;#P objectname centery;#P flonum 156 26 29 9 0 0 32 3 0 0 0 221 221 221 222 222 222 0 0 0;#P objectname centerx;#P flonum 226 45 29 9 0 0 32 3 0 0 0 221 221 221 222 222 222 0 0 0;#P objectname phase;#P flonum 226 26 29 9 0 0 32 3 0 0 0 221 221 221 222 222 222 0 0 0;#P objectname amp;#P flonum 62 45 29 9 0 0 32 3 0 0 0 221 221 221 222 222 222 0 0 0;#P objectname freqy;#P flonum 64 26 29 9 0 0 32 3 0 0 0 221 221 221 222 222 222 0 0 0;#P objectname freqx;#P comment 104 28 57 196617 /center/x;#P newex 18 361 260 196617 variedit $1/center/y $1;#P newex 18 339 69 196617 pvar centery;#P newex 17 309 260 196617 variedit $1/center/x $1;#P newex 17 287 69 196617 pvar centerx;#P newex 16 256 250 196617 variedit $1/phase $1;#P newex 16 234 59 196617 pvar phase;#P comment 188 47 41 196617 /phase;#P comment 194 28 34 196617 /amp;#P newex 16 203 243 196617 variedit $1/amp $1;#P newex 16 181 52 196617 pvar amp;#P newex 16 151 250 196617 variedit $1/freq/y $1;#P newex 16 129 59 196617 pvar freqy;#P comment 20 47 47 196617 /freq/y;#P newex 15 101 250 196617 variedit $1/freq/x $1;#P newex 15 79 59 196617 pvar freqx;#P bpatcher 1 0 256 62 0 0 bkgnd.mxt 0 $1;#P objectname background;#P fasten 2 0 1 0 20 119 20 123 11 123 11 76 20 76;#P connect 1 0 2 0;#P fasten 5 0 4 0 21 169 21 173 12 173 12 126 21 126;#P connect 4 0 5 0;#P fasten 7 0 6 0 21 221 21 225 12 225 12 178 21 178;#P connect 6 0 7 0;#P fasten 11 0 10 0 21 274 21 278 12 278 12 231 21 231;#P connect 10 0 11 0;#P fasten 13 0 12 0 22 327 22 331 13 331 13 284 22 284;#P connect 12 0 13 0;#P fasten 15 0 14 0 23 379 23 383 14 383 14 336 23 336;#P connect 14 0 15 0;#P fasten 27 0 26 0 277 112 268 112 268 58 277 58;#P fasten 26 1 27 0 344 82 277 82;#P pop;