max v2;#N vpatcher 462 211 1128 568;#P origin -20 17;#P window setfont Helvetica 9.;#P window linecount 1;#P comment 15 321 190 1376265 Tom Mays \, Olivier Pfeiffer & Renaud Rubiano;#B frgb 0 146 207;#P window linecount 2;#P comment 16 297 220 1376265 m_sinefold is a part of movie \, a part of tapemovie. contact@tapemovie.org;#P window setfont Helvetica 24.;#P window linecount 1;#P comment 16 242 124 1376280 m_sinefold;#B frgb 0 146 207;#P window setfont Helvetica 12.;#P window linecount 2;#P comment 16 269 263 1376268 $1 : prefix name \; $2 : name of the render associated \;;#P user panel 13 239 269 96;#X brgb 255 255 255;#X frgb 0 0 0;#X border 1;#X rounded 0;#X shadow 0;#X done;#P window setfont "Sans Serif" 9.;#P window linecount 1;#P newex 328 118 316 196617 makeparam $1/damp $1 f 0. -100 100 1;#B color 11;#P newex 245 99 316 196617 makeparam $1/phase $1 f 0. -100 100 1;#B color 11;#P newex 223 80 316 196617 makeparam $1/center/y $1 f 0.5 -100 100 1;#B color 11;#P newex 166 61 316 196617 makeparam $1/center/x $1 f 0.5 -100 100 1;#B color 11;#P newex 149 42 306 196617 makeparam $1/freq/y $1 f 100 -100 100 1;#B color 11;#P window setfont "Sans Serif" 14.;#P newex 13 210 353 196622 m_slab $1 td.sinefold.jxs $2;#B color 6;#P window setfont "Sans Serif" 9.;#P message 328 144 79 196617 param damp \$1;#P message 245 144 81 196617 param phase \$1;#P newex 166 110 67 196617 pak 0. 0.;#P window linecount 2;#P message 166 144 72 196617 param center \$1 \$2 0. 1.;#P window linecount 1;#P newex 92 110 67 196617 pak 0. 0.;#P newex 14 188 270 196617 s $1;#P newex 14 4 290 196617 makeparam $1/amp $1 f 0.1 -100 100 1;#B color 11;#P newex 92 23 306 196617 makeparam $1/freq/x $1 f 100 -100 100 1;#B color 11;#P message 14 144 74 196617 param amp \$1;#P window linecount 2;#P message 92 144 62 196617 param freq \$1 \$2 0. 1.;#P window linecount 1;#P newex 384 179 168 196617 moduleinit $1;#B color 11;#P window linecount 10;#P message 384 202 183 196617 \; $1/sw/init bang \; $1/source/init bang \; $1/amp/init bang \; $1/freq/x/init bang \; $1/freq/y/init bang \; $1/center/x/init bang \; $1/center/y/init bang \; $1/phase/init bang \; $1/damp/init bang \;;#P connect 5 0 3 0;#P fasten 11 0 6 0 333 184 19 184;#P fasten 10 0 6 0 250 182 19 182;#P fasten 8 0 6 0 171 179 19 179;#P fasten 2 0 6 0 97 179 19 179;#P fasten 3 0 6 0 19 173 19 173;#P connect 4 0 7 0;#P connect 7 0 2 0;#P connect 13 0 7 1;#P connect 14 0 9 0;#P connect 9 0 8 0;#P connect 15 0 9 1;#P connect 16 0 10 0;#P connect 17 0 11 0;#P connect 1 0 0 0;#P pop;