max v2;#N vpatcher 617 240 962 481;#P window setfont "Sans Serif" 9.;#P user ubumenu 48 1 73 196617 0 1 1 0;#X prefix_set 0 0 <none> 0;#P objectname texture;#P newex 29 194 128 196617 variedit $1/slidedown $1;#P newex 29 145 115 196617 variedit $1/slideup $1;#P newex 29 172 78 196617 pvar slidedown;#P newex 29 123 65 196617 pvar slideup;#P flonum 140 44 33 9 0. 500. 35 3 0 0 0 221 221 221 222 222 222 0 0 0;#P objectname slidedown;#P flonum 84 44 33 9 0. 500. 35 3 0 0 0 221 221 221 222 222 222 0 0 0;#P objectname slideup;#P comment 131 31 60 196617 /slidedown;#P comment 81 31 47 196617 /slideup;#P bpatcher 0 0 256 62 0 0 bkgnd.mxt 0 $1 0;#P objectname background;#P window setfont "Sans Serif" 12.;#P newex 150 97 133 196620 m_inputmenugpu $1;#B color 6;#P window setfont "Sans Serif" 9.;#P newex 150 74 77 196617 pvar texture 2;#P fasten 9 0 7 0 34 163 34 167 25 167 25 120 34 120;#P connect 7 0 9 0;#P fasten 10 0 8 0 34 210 34 215 23 215 23 171 34 171;#P fasten 8 0 10 0 34 191 34 191;#P fasten 1 0 0 0 155 124 146 124 146 70 155 70;#P fasten 0 1 1 0 222 94 155 94;#P pop;