max v2;#N vpatcher 15 350 485 860;#P origin -1 0;#P toggle 61 36 15 0;#P objectname bypass;#P window setfont "Sans Serif" 9.;#P window linecount 1;#P comment 18 37 51 196617 /bypass;#B frgb 222 0 0;#P comment 147 21 52 196617 /source2;#B frgb 0 0 222;#P message 393 131 33 196617 clear;#P newex 355 50 88 196617 pvar texture-2 2;#P window setfont "Sans Serif" 12.;#P newex 271 73 141 196620 m_inputmenugpu2 $1;#B color 6;#P window setfont "Sans Serif" 9.;#P newex 271 50 77 196617 pvar texture 2;#P window setfont Times 10.;#P user ubumenu 196 20 59 1310730 0 0 1 0;#X prefix_set 0 0 <none> 0;#P objectname texture-2;#P user ubumenu 64 0 59 1310730 0 0 1 0;#X prefix_set 0 0 <none> 0;#P objectname texture;#P window setfont "Sans Serif" 9.;#P comment 4 92 36 196617 /fade;#B frgb 0 0 222;#P newex 132 330 152 196617 variedit $1/fade;#B color 12;#P newex 31 330 53 196617 pvar fade;#P flonum 4 105 50 9 0 0 0 3 0 0 0 221 221 221 222 222 222 0 0 0;#P objectname fade;#P toggle 240 37 15 0;#P objectname reverse;#P comment 190 38 51 196617 /reverse;#B frgb 0 0 222;#P newex 132 161 169 196617 variedit $1/reverse;#B color 12;#P newex 31 161 70 196617 pvar reverse;#P newex 132 440 205 196617 variedit $1/out/color/alpha;#B color 12;#P newex 132 418 200 196617 variedit $1/out/color/blue;#B color 12;#P newex 132 395 207 196617 variedit $1/out/color/green;#B color 12;#P newex 132 373 197 196617 variedit $1/out/color/red;#B color 12;#P newex 132 301 188 196617 variedit $1/bypass;#B color 12;#P newex 132 265 204 196617 variedit $1/fill/color/alpha;#B color 12;#P newex 132 244 199 196617 variedit $1/fill/color/blue;#B color 12;#P newex 132 221 206 196617 variedit $1/fill/color/green;#B color 12;#P newex 132 197 196 196617 variedit $1/fill/color/red;#B color 12;#P newex 132 140 175 196617 variedit $1/threshold;#B color 12;#P flonum 113 19 35 9 0. 1. 3 3 0 0 0 221 221 221 222 222 222 0 0 0;#P objectname threshold;#P flonum 106 106 35 9 0. 1. 3 3 0 0 0 221 221 221 222 222 222 0 0 0;#P objectname outa;#P flonum 106 88 35 9 0. 1. 3 3 0 0 0 221 221 221 222 222 222 0 0 0;#P objectname outb;#P flonum 106 70 35 9 0. 1. 3 3 0 0 0 221 221 221 222 222 222 0 0 0;#P objectname outg;#P flonum 106 53 35 9 0. 1. 3 3 0 0 0 221 221 221 222 222 222 0 0 0;#P objectname outr;#P flonum 219 107 35 9 0. 1. 3 3 0 0 0 221 221 221 222 222 222 0 0 0;#P objectname filla;#P flonum 220 89 35 9 0. 1. 3 3 0 0 0 221 221 221 222 222 222 0 0 0;#P objectname fillb;#P flonum 220 71 35 9 0. 1. 3 3 0 0 0 221 221 221 222 222 222 0 0 0;#P objectname fillg;#P flonum 220 54 35 9 0. 1. 3 3 0 0 0 221 221 221 222 222 222 0 0 0;#P objectname fillr;#P comment 83 106 23 196617 /a;#B frgb 0 0 222;#P comment 83 88 23 196617 /b;#B frgb 0 0 222;#P comment 83 70 23 196617 /g;#B frgb 0 0 222;#P comment 29 53 55 196617 /out/color;#B frgb 0 0 222;#P comment 83 53 23 196617 /r;#B frgb 0 0 222;#P comment 199 107 23 196617 /a;#B frgb 0 0 222;#P comment 199 89 23 196617 /b;#B frgb 0 0 222;#P comment 199 71 23 196617 /g;#B frgb 0 0 222;#P comment 145 54 55 196617 /fill/color;#B frgb 0 0 222;#P comment 58 20 65 196617 /threshold;#B frgb 0 0 222;#P comment 199 54 23 196617 /r;#B frgb 0 0 222;#P newex 31 301 65 196617 pvar bypass;#P newex 31 440 53 196617 pvar outa;#P newex 31 418 53 196617 pvar outb;#P newex 31 395 53 196617 pvar outg;#P newex 31 373 53 196617 pvar outr;#P newex 31 265 52 196617 pvar filla;#P newex 31 244 52 196617 pvar fillb;#P newex 31 221 52 196617 pvar fillg;#P newex 31 197 52 196617 pvar fillr;#P newex 31 140 76 196617 pvar threshold;#P bpatcher 1 0 257 125 0 0 bkgnd2.mxt 0 $1;#P objectname background;#P connect 31 0 1 0;#P connect 42 0 41 0;#P connect 32 0 2 0;#P connect 33 0 3 0;#P connect 34 0 4 0;#P connect 35 0 5 0;#P connect 36 0 10 0;#P connect 47 0 46 0;#P connect 37 0 6 0;#P connect 38 0 7 0;#P connect 39 0 8 0;#P connect 40 0 9 0;#P connect 1 0 31 0;#P connect 41 0 42 0;#P connect 2 0 32 0;#P connect 3 0 33 0;#P connect 4 0 34 0;#P connect 5 0 35 0;#P connect 10 0 36 0;#P connect 46 0 47 0;#P connect 6 0 37 0;#P connect 7 0 38 0;#P connect 8 0 39 0;#P connect 9 0 40 0;#P connect 54 0 51 0;#P fasten 52 0 51 0 276 100 267 100 267 46 276 46;#P connect 51 1 52 0;#P connect 52 1 53 0;#P connect 54 0 53 0;#P connect 53 1 52 1;#P pop;