max v2;#N vpatcher 2 99 1187 740;#P origin 0 6;#P window setfont "Sans Serif" 9.;#P window linecount 1;#P newex 633 34 151 196617 moduleinit $1;#B color 13;#P newex 307 176 76 196617 r $1/repeteur;#P newex 158 105 76 196617 s $1/repeteur;#P newex 58 158 153 196617 s $1/activity;#B color 5;#P newex 49 131 72 196617 OSC-route /1;#P newex 958 104 88 196617 sprintf set 1 /%i;#P newex 1054 105 43 196617 + 9000;#P newex 958 29 48 196617 loadbang;#P newex 1054 126 180 196617 s $1/port/initval;#B color 11;#P newex 958 69 50 196617 stripnum;#B color 11;#P message 958 49 21 196617 $1;#P button 585 83 15 0;#N qlist;#X append $1/pitch/init bang \; $1/roll/init bang \; $1/yaw/init bang \; $1/accel/init bang \; $1/x/init bang \; $1/y/init bang \;;#X append $1/z/init bang \; $1/Up/init bang \; $1/Down/init bang \; $1/Left/init bang \; $1/Right/init bang \; $1/A/init bang \;;#X append $1/B/init bang \; $1/Minus/init bang \; $1/Home/init bang \; $1/Plus/init bang \; $1/1/init bang \; $1/2/init bang \;;#X append $1/nc/pitch/init bang \; $1/nc/roll/init bang \; $1/nc/yaw/init bang \; $1/nc/accel/init bang \; $1/nc/x/init bang \; $1/nc/y/init bang \;;#X append $1/nc/z/init bang \; $1/nc/C/init bang \; $1/nc/Z/init bang \; $1/nc/joy/x/init bang \; $1/nc/joy/y/init bang \; $1/nc/joy/dist/init bang \;;#X append $1/nc/joy/az/init bang \; $1/nc/joy/ntc/init bang \; $1/nc/joy/ctr/init bang \; control_register/store $1 \;;#P newobj 585 104 40 196617 qlist;#P window linecount 3;#P message 633 77 108 196617 \; $1/sw/init bang \; $1/port/init bang;#P button 633 56 15 0;#P window linecount 1;#P newex 296 86 254 196617 makeparam $1/port $1 i 9000 9000 9999;#B color 11;#P number 296 108 59 9 0 0 0 3 0 0 0 221 221 221 222 222 222 0 0 0;#P newex 49 82 29 196617 gate;#P toggle 296 57 15 0;#P newex 296 37 299 196617 makeswitch $1/sw $1 common_switchstate 0;#B color 11;#P newex 214 247 293 196617 makecontrol $1/z $1 f 0 1 /common;#B color 13;#P newex 156 267 294 196617 makecontrol $1/y $1 f 0 1 /common;#B color 13;#P newex 98 287 294 196617 makecontrol $1/x $1 f 0 1 /common;#B color 13;#P newex 223 328 196 196617 makecontrol $1/accel $1 f 0 1 /common;#B color 13;#P newex 165 347 192 196617 makecontrol $1/yaw $1 f 0 1 /common;#B color 13;#P newex 107 366 189 196617 makecontrol $1/roll $1 f 0 1 /common;#B color 13;#P newex 49 385 195 196617 makecontrol $1/pitch $1 f 0 1 /common;#B color 13;#P newex 290 496 293 196617 makecontrol $1/2 $1 i 0 1 /common;#B color 13;#P newex 262 515 293 196617 makecontrol $1/1 $1 i 0 1 /common;#B color 13;#P newex 234 535 306 196617 makecontrol $1/Plus $1 i 0 1 /common;#B color 13;#P newex 206 554 311 196617 makecontrol $1/Home $1 i 0 1 /common;#B color 13;#P newex 178 574 313 196617 makecontrol $1/Minus $1 i 0 1 /common;#B color 13;#P newex 150 594 293 196617 makecontrol $1/B $1 i 0 1 /common;#B color 13;#P newex 122 615 294 196617 makecontrol $1/A $1 i 0 1 /common;#B color 13;#P newex 94 636 310 196617 makecontrol $1/Right $1 i 0 1 /common;#B color 13;#P newex 66 659 305 196617 makecontrol $1/Left $1 i 0 1 /common;#B color 13;#P newex 38 680 311 196617 makecontrol $1/Down $1 i 0 1 /common;#B color 13;#P newex 10 701 298 196617 makecontrol $1/Up $1 i 0 1 /common;#B color 13;#P newex 1046 261 362 196617 makecontrol $1/nc/Z $1 f 0 1 /common;#B color 13;#P newex 1008 284 363 196617 makecontrol $1/nc/C $1 f 0 1 /common;#B color 13;#P newex 1008 239 86 196617 OSC-route /C /Z;#P newex 964 481 362 196617 makecontrol $1/nc/z $1 f 0 1 /common;#B color 13;#P newex 906 500 363 196617 makecontrol $1/nc/y $1 f 0 1 /common;#B color 13;#P newex 848 519 363 196617 makecontrol $1/nc/x $1 f 0 1 /common;#B color 13;#P newex 789 538 380 196617 makecontrol $1/nc/accel $1 f 0 1 /common;#B color 13;#P newex 731 557 376 196617 makecontrol $1/nc/yaw $1 f 0 1 /common;#B color 13;#P newex 673 576 373 196617 makecontrol $1/nc/roll $1 f 0 1 /common;#B color 13;#P newex 615 595 379 196617 makecontrol $1/nc/pitch $1 f 0 1 /common;#B color 13;#P newex 951 312 229 196617 makecontrol $1/nc/joy/ctr $1 f 0 1 /common;#B color 13;#P newex 893 331 229 196617 makecontrol $1/nc/joy/ntc $1 f 0 1 /common;#B color 13;#P newex 835 350 388 196617 makecontrol $1/nc/joy/az $1 f 0 1 /common;#B color 13;#P newex 777 369 395 196617 makecontrol $1/nc/joy/dist $1 f 0 1 /common;#B color 13;#P newex 719 388 384 196617 makecontrol $1/nc/joy/y $1 f 0 1 /common;#B color 13;#P newex 661 407 384 196617 makecontrol $1/nc/joy/x $1 f 0 1 /common;#B color 13;#P newex 848 461 127 196617 unpack 0. 0. 0.;#P newex 615 461 184 196617 unpack 0. 0. 0. 0.;#P newex 615 433 108 196617 OSC-route /pry /xyz;#N vpatcher 59 269 835 775;#P window setfont "Sans Serif" 9.;#P window linecount 0;#P newex 273 211 40 196617 + 360.;#P flonum 192 237 58 9 0 0 0 3 0 0 0 221 221 221 222 222 222 0 0 0;#P newex 192 191 91 196617 split 0. 180.;#N comlet /center;#P outlet 359 458 15 0;#P comment 374 458 45 196617 /center;#P newex 359 428 40 196617 change;#P newex 359 403 33 196617 < 0.2;#N comlet /notch;#P outlet 280 458 15 0;#P comment 295 458 40 196617 /notch;#N comlet /az;#P outlet 192 458 15 0;#P comment 207 458 24 196617 /az;#N comlet /dist;#P outlet 126 458 15 0;#P comment 141 458 33 196617 /dist;#N comlet /y;#P outlet 71 458 15 0;#P comment 86 458 20 196617 /y;#N comlet /x;#P outlet 17 458 15 0;#N comlet /joy in;#P inlet 17 26 15 0;#P newex 280 398 40 196617 change;#P newex 222 356 48 196617 split 0 0;#P newex 222 336 68 196617 t i i;#P newex 222 316 39 196617 > 0.85;#P newex 280 373 29 196617 gate;#P newex 299 351 27 196617 + 1;#P newex 334 330 27 196617 + 8;#P newex 17 47 64 196617 unpack 0. 0.;#N vpatcher 30 89 194 332;#N comlet float in;#P inlet 70 38 15 0;#N comlet int out;#P outlet 34 198 15 0;#P window setfont "Sans Serif" 9.;#P newex 70 148 31 196617 - 0.5;#P newex 70 61 27 196617 t f f;#P newex 87 101 27 196617 + 1;#P newex 34 126 46 196617 gate 2;#P newex 87 81 27 196617 < 0.;#P newex 34 176 18 196617 t i;#P newex 34 148 32 196617 + 0.5;#P connect 4 0 3 0;#P connect 3 0 0 0;#P connect 0 0 1 0;#P fasten 6 0 1 0 75 170 39 170;#P connect 1 0 7 0;#P connect 8 0 5 0;#P connect 5 0 3 1;#P connect 3 1 6 0;#P connect 5 1 2 0;#P connect 2 0 4 0;#P pop;#P newobj 318 215 53 196617 p rounder;#P newex 334 309 29 196617 gate;#P newex 299 309 29 196617 gate;#P newex 370 282 27 196617 < 0;#P newex 335 282 30 196617 >= 0;#P newex 318 258 27 196617 t i i;#P newex 318 236 27 196617 % 8;#P newex 318 194 34 196617 / 45.;#P newex 318 163 140 196617 expr ($f1/ 3.141593)*180.;#P newex 222 142 106 196617 cartopol;#P newex 318 119 106 196617 expr -1.*($f1*2-1.);#P newex 222 120 77 196617 expr $f1*2-1.;#P newex 222 98 106 196617 fswap 1.;#P window linecount 1;#P comment 32 458 20 196617 /x;#P connect 22 0 14 0;#P connect 14 0 23 0;#P connect 14 1 25 0;#P fasten 4 0 27 0 227 166 131 166;#P connect 5 0 36 0;#P connect 38 0 37 0;#P connect 36 0 37 0;#P connect 37 0 29 0;#P connect 14 0 1 0;#P connect 1 0 2 0;#P connect 2 0 4 0;#P connect 4 0 18 0;#P connect 18 0 19 0;#P connect 19 0 20 0;#P connect 36 1 38 0;#P connect 19 1 17 0;#P connect 17 0 21 0;#P connect 20 0 21 0;#P connect 21 0 31 0;#P connect 9 0 11 0;#P connect 11 0 16 0;#P connect 15 0 16 0;#P connect 16 0 17 1;#P connect 14 1 1 1;#P connect 1 1 3 0;#P connect 3 0 4 1;#P connect 4 1 5 0;#P connect 5 0 6 0;#P connect 6 0 13 0;#P connect 13 0 7 0;#P connect 7 0 8 0;#P connect 8 0 11 1;#P connect 10 0 12 0;#P connect 12 0 15 0;#P connect 8 1 9 0;#P connect 8 0 12 1;#P connect 4 0 32 0;#P lcolor 2;#P connect 32 0 33 0;#P connect 33 0 35 0;#P connect 8 1 10 0;#P pop;#P newobj 661 239 301 196617 p /joy;#B color 6;#P newex 615 213 150 196617 OSC-route /accel /joy /button;#P newex 10 472 326 196617 OSC-route /Up /Down /Left /Right /A /B /Minus /Home /Plus /1 /2;#P newex 98 226 127 196617 unpack 0. 0. 0.;#P newex 49 308 184 196617 unpack 0. 0. 0. 0.;#P newex 49 206 108 196617 OSC-route /pry /xyz;#P newex 49 180 187 196617 OSC-route /button /accel /nunchuk /ir;#P newex 49 105 80 196617 OSC-route /wii;#P window linecount 2;#P comment 214 23 73 196617 <-- select receiving port;#P window linecount 1;#P newex 68 33 67 196617 prepend port;#P window setfont "Sans Serif" 18.;#P user ubumenu 138 22 75 196626 0 1 1 0;#X setrgb 31 31 31 75 255 149 234 234 234 4 4 4 141 141 141 112 112 112;#X add 9000;#X add 9001;#X add 9002;#X add 9003;#X add 9004;#X add 9005;#X add 9006;#X add 9007;#X add 9008;#X add 9009;#X prefix_set 0 0 <none> 0;#X pattrmode 1;#P window setfont "Sans Serif" 9.;#P newex 68 53 59 196617 udpreceive;#P comment 5 98 42 196617 all data;#P window setfont "Sans Serif" 18.;#P comment 687 128 197 196626 use with OSCulator;#P fasten 7 0 11 0 54 202 15 202;#P connect 11 0 33 0;#P connect 11 1 34 0;#P fasten 52 0 53 0 301 75 54 75;#P connect 53 0 6 0;#P connect 6 0 66 0;#P fasten 65 0 66 0 963 128 54 128;#P connect 66 0 7 0;#P fasten 7 1 8 0 98 203 54 203;#P connect 8 0 9 0;#P connect 9 0 44 0;#P connect 66 0 67 0;#P connect 11 2 35 0;#P connect 54 0 4 0;#P hidden connect 3 1 4 0;#P connect 4 0 2 0;#P connect 2 0 53 1;#P connect 11 3 36 0;#P connect 8 1 10 0;#P connect 10 0 48 0;#P connect 9 1 45 0;#P connect 11 4 37 0;#P connect 11 5 38 0;#P connect 10 1 49 0;#P connect 53 0 68 0;#P connect 9 2 46 0;#P connect 11 6 39 0;#P connect 11 7 40 0;#P connect 10 2 50 0;#P connect 9 3 47 0;#P connect 11 8 41 0;#P connect 11 9 42 0;#P connect 11 10 43 0;#P connect 51 0 52 0;#P connect 55 0 54 0;#P fasten 56 0 59 0 638 74 590 74;#P connect 59 0 58 0;#P fasten 7 2 12 0 142 200 620 200;#P connect 12 0 14 0;#P connect 14 0 15 0;#P connect 15 0 23 0;#P connect 70 0 56 0;#P connect 56 0 57 0;#P connect 12 1 13 0;#P connect 13 0 17 0;#P connect 15 1 24 0;#P connect 13 1 18 0;#P connect 15 2 25 0;#P connect 13 2 19 0;#P connect 15 3 26 0;#P connect 13 3 20 0;#P fasten 14 1 16 0 669 455 853 455;#P connect 16 0 27 0;#P connect 13 4 21 0;#P connect 16 1 28 0;#P connect 13 5 22 0;#P connect 63 0 60 0;#P connect 60 0 61 0;#P connect 61 0 65 0;#P connect 16 2 29 0;#P fasten 12 2 30 0 712 234 1013 234;#P connect 30 0 31 0;#P connect 30 1 32 0;#P fasten 61 0 64 0 963 95 1059 95;#P connect 64 0 62 0;#P pop;