max v2;#N vpatcher 202 393 494 571;#P bpatcher 33 27 142 19 0 0 openbutton.mxt 0 $1/map "wiimote basic mapping editors" 142;#P window setfont "Sans Serif" 9.;#N vpatcher 319 184 1369 804;#P bpatcher 514 525 512 62 0 0 multimapsend.edit.mxt 0 $1/2/map 3;#P bpatcher 514 462 512 62 0 0 multimapsend.edit.mxt 0 $1/1/map 3;#P bpatcher 1 525 512 62 0 0 multimapsend.edit.mxt 0 $1/Plus/map 3;#P bpatcher 1 462 512 62 0 0 multimapsend.edit.mxt 0 $1/Minus/map 3;#P bpatcher 514 399 512 62 0 0 multimapsend.edit.mxt 0 $1/Home/map 3;#P bpatcher 514 336 512 62 0 0 multimapsend.edit.mxt 0 $1/B/map 3;#P bpatcher 514 273 512 62 0 0 multimapsend.edit.mxt 0 $1/A/map 3;#P bpatcher 514 210 512 62 0 0 multimapsend.edit.mxt 0 $1/Right/map 3;#P bpatcher 514 147 512 62 0 0 multimapsend.edit.mxt 0 $1/Left/map 3;#P bpatcher 514 84 512 62 0 0 multimapsend.edit.mxt 0 $1/Down/map 3;#P bpatcher 514 21 512 62 0 0 multimapsend.edit.mxt 0 $1/Up/map 3;#P bpatcher 1 399 512 62 0 0 multimapsend.edit.mxt 0 $1/z/map 3;#P bpatcher 1 336 512 62 0 0 multimapsend.edit.mxt 0 $1/y/map 3;#P bpatcher 1 273 512 62 0 0 multimapsend.edit.mxt 0 $1/x/map 3;#P bpatcher 1 210 512 62 0 0 multimapsend.edit.mxt 0 $1/accel/map 3;#P bpatcher 1 147 512 62 0 0 multimapsend.edit.mxt 0 $1/yaw/map 3;#P bpatcher 1 84 512 62 0 0 multimapsend.edit.mxt 0 $1/roll/map 3;#P window setfont "Sans Serif" 9.;#P hidden newex 1041 47 99 196617 fixedsize 1050 620;#B color 6;#N thispatcher;#Q end;#P hidden newobj 1041 68 61 196617 thispatcher;#P hidden newex 1041 27 166 196617 editorwindow $1/map /tapemovie;#B color 11;#P bpatcher 1 21 512 62 0 0 multimapsend.edit.mxt 0 $1/pitch/map 3;#P window setfont "Sans Serif" 14.;#P comment 1 1 254 196622 $1/map;#P hidden fasten 3 0 2 0 1046 89 1038 89 1038 22 1046 22;#P hidden connect 2 0 4 0;#P hidden connect 4 0 3 0;#P pop;#P hidden newobj 183 111 81 196617 p wii client map;#P hidden newex 20 127 70 196617 pvar activity;#P hidden newex 20 101 145 196617 r $1/activity;#B color 5;#P window setfont Times 9.;#P comment 196 23 40 1310729 activity;#P button 207 36 15 0;#P objectname activity;#P bpatcher 0 0 256 62 0 0 bkgnd.mxt 0 $1 0 3;#P objectname background;#P hidden connect 3 0 4 0;#P pop;