max v2;#N vpatcher 224 64 1210 743;#P origin 0 20;#P window setfont "Sans Serif" 9.;#P window linecount 1;#P newex 567 27 151 196617 moduleinit $1;#B color 13;#P window linecount 2;#P message 567 124 108 196617 \; $1/port/init bang;#P window linecount 1;#P newex 315 371 29 196617 gate;#B color 13;#P newex 356 370 29 196617 gate;#B color 13;#P newex 387 371 29 196617 gate;#B color 13;#P newex 418 372 29 196617 gate;#B color 13;#P newex 449 373 29 196617 gate;#B color 13;#P newex 480 374 29 196617 gate;#B color 13;#P newex 511 375 29 196617 gate;#B color 13;#P newex 542 376 29 196617 gate;#B color 13;#P newex 573 377 29 196617 gate;#B color 13;#P newex 604 378 29 196617 gate;#B color 13;#P newex 635 379 29 196617 gate;#B color 13;#P newex 28 302 29 196617 gate;#B color 13;#P newex 83 301 29 196617 gate;#B color 13;#P newex 138 300 29 196617 gate;#B color 13;#P newex 193 299 29 196617 gate;#B color 13;#P toggle 40 45 15 0;#P newex 200 106 29 196617 gate;#B color 13;#P newex 134 84 29 196617 gate;#B color 13;#P newex 84 77 29 196617 gate;#B color 13;#P newex 40 17 394 196617 makeswitch $1/sw $1 common_switchstate;#B color 12;#P newex 644 352 183 196617 r $1/2-;#B color 12;#P newex 616 334 183 196617 r $1/1-;#B color 12;#P newex 588 315 196 196617 r $1/Plus-;#B color 12;#P newex 560 297 201 196617 r $1/Home-;#B color 12;#P newex 532 279 203 196617 r $1/Minus-;#B color 12;#P newex 504 260 183 196617 r $1/B-;#B color 12;#P newex 476 243 184 196617 r $1/A-;#B color 12;#P newex 448 225 200 196617 r $1/Right-;#B color 12;#P newex 420 206 195 196617 r $1/Left-;#B color 12;#P newex 392 188 201 196617 r $1/Down-;#B color 12;#P newex 364 168 188 196617 r $1/Up-;#B color 12;#P newex 209 247 166 196617 r $1/accel-;#B color 12;#P newex 151 226 162 196617 r $1/yaw-;#B color 12;#P newex 93 205 159 196617 r $1/roll-;#B color 12;#P newex 35 185 165 196617 r $1/pitch-;#B color 12;#P newex 219 85 192 196617 r $1/z-;#B color 12;#P newex 153 61 193 196617 r $1/y-;#B color 12;#P newex 103 42 193 196617 r $1/x-;#B color 12;#P button 519 77 15 0;#N qlist;#X append $1/pitch/init bang \; $1/roll/init bang \; $1/yaw/init bang \; $1/accel/init bang \; $1/x/init bang \; $1/y/init bang \;;#X append $1/z/init bang \; $1/Up/init bang \; $1/Down/init bang \; $1/Left/init bang \; $1/Right/init bang \; $1/A/init bang \;;#X append $1/B/init bang \; $1/Minus/init bang \; $1/Home/init bang \; $1/Plus/init bang \; $1/1/init bang \; $1/2/init bang \;;#X append module_register/store $1 \; control_register/store $1 \;;#P newobj 519 98 40 196617 qlist;#P window linecount 2;#P message 567 71 108 196617 \; $1/sw/init bang \;;#P button 567 50 15 0;#P window setfont Times 9.;#P window linecount 1;#P newex 724 83 130 1310729 s $1/init;#B color 11;#P newex 724 60 75 1310729 r /tapemovie/init;#B color 11;#P window setfont "Sans Serif" 9.;#P newex 200 127 293 196617 makecontrol $1/z $1 f 0 1 /common;#B color 5;#P newex 134 146 294 196617 makecontrol $1/y $1 f 0 1 /common;#B color 5;#P newex 84 164 294 196617 makecontrol $1/x $1 f 0 1 /common;#B color 5;#P newex 209 329 196 196617 makecontrol $1/accel $1 f 0 1 /common;#B color 5;#P newex 151 348 192 196617 makecontrol $1/yaw $1 f 0 1 /common;#B color 5;#P newex 93 367 189 196617 makecontrol $1/roll $1 f 0 1 /common;#B color 5;#P newex 35 386 195 196617 makecontrol $1/pitch $1 f 0 1 /common;#B color 5;#P newex 644 411 293 196617 makecontrol $1/2 $1 i 0 1 /common;#B color 5;#P newex 616 430 293 196617 makecontrol $1/1 $1 i 0 1 /common;#B color 5;#P newex 588 450 306 196617 makecontrol $1/Plus $1 i 0 1 /common;#B color 5;#P newex 560 469 311 196617 makecontrol $1/Home $1 i 0 1 /common;#B color 5;#P newex 532 489 313 196617 makecontrol $1/Minus $1 i 0 1 /common;#B color 5;#P newex 504 509 293 196617 makecontrol $1/B $1 i 0 1 /common;#B color 5;#P newex 476 530 294 196617 makecontrol $1/A $1 i 0 1 /common;#B color 5;#P newex 448 551 310 196617 makecontrol $1/Right $1 i 0 1 /common;#B color 5;#P newex 420 574 305 196617 makecontrol $1/Left $1 i 0 1 /common;#B color 5;#P newex 392 595 311 196617 makecontrol $1/Down $1 i 0 1 /common;#B color 5;#P newex 364 616 298 196617 makecontrol $1/Up $1 i 0 1 /common;#B color 5;#P window setfont "Sans Serif" 18.;#P comment 717 143 197 196626 use with wii serveur...;#P connect 47 0 51 0;#P connect 51 0 12 0;#P connect 43 0 47 0;#P connect 28 0 51 1;#P connect 47 0 50 0;#P connect 47 0 44 0;#P connect 44 0 16 0;#P connect 50 0 13 0;#P connect 29 0 50 1;#P connect 25 0 44 1;#P connect 47 0 45 0;#P connect 45 0 17 0;#P connect 47 0 49 0;#P connect 49 0 14 0;#P connect 26 0 45 1;#P connect 30 0 49 1;#P connect 47 0 48 0;#P connect 47 0 46 0;#P connect 46 0 18 0;#P connect 48 0 15 0;#P connect 31 0 48 1;#P connect 27 0 46 1;#P connect 47 0 62 0;#P connect 32 0 62 1;#P connect 47 0 61 0;#P connect 62 0 1 0;#P connect 33 0 61 1;#P connect 47 0 60 0;#P connect 61 0 2 0;#P connect 34 0 60 1;#P connect 47 0 59 0;#P connect 60 0 3 0;#P connect 35 0 59 1;#P connect 59 0 4 0;#P connect 47 0 58 0;#P connect 36 0 58 1;#P connect 58 0 5 0;#P connect 47 0 57 0;#P connect 37 0 57 1;#P connect 57 0 6 0;#P connect 47 0 56 0;#P fasten 21 0 24 0 572 68 524 68;#P connect 24 0 23 0;#P connect 38 0 56 1;#P connect 56 0 7 0;#P connect 47 0 55 0;#P connect 55 0 8 0;#P connect 39 0 55 1;#P connect 64 0 21 0;#P connect 21 0 22 0;#P connect 47 0 54 0;#P connect 54 0 9 0;#P connect 40 0 54 1;#P connect 47 0 53 0;#P connect 53 0 10 0;#P connect 41 0 53 1;#P connect 47 0 52 0;#P connect 52 0 11 0;#P connect 42 0 52 1;#P connect 19 0 20 0;#P pop;