max v2;#N vpatcher 241 425 1192 649;#P window setfont "Sans Serif" 9.;#P comment 225 37 265 196617 Turn on individual controller mappings below separately.;#B frgb 200 0 0;#P comment 225 24 212 196617 Main switch must be on to activate wii input.;#B frgb 200 0 0;#P bpatcher 0 61 512 124 0 0 multimapsendu.edit.mxt 0 $1 /tapemovie;#P window setfont Times 9.;#P comment 166 11 40 1310729 activity;#P button 176 23 15 0;#P objectname activity;#P window setfont "Sans Serif" 9.;#P number 76 23 41 9 9000 9999 3 3 0 0 0 221 221 221 222 222 222 0 0 0;#P objectname port;#P comment 76 11 29 196617 port;#P bpatcher 0 0 512 62 0 0 bkgnd12.mxt 0 $1 0 3;#P objectname background;#P newex 562 130 70 196617 pvar activity;#P newex 562 104 145 196617 r $1/activity;#B color 5;#P newex 562 47 219 196617 variedit $1/port $1;#B color 12;#P newex 574 70 53 196617 pvar port;#P connect 0 0 1 0;#P connect 2 0 3 0;#P connect 1 0 0 0;#P pop;