max v2;#N vpatcher 65 271 345 399;#P button 78 119 15 0;#P window setfont "Sans Serif" 9.;#P window linecount 1;#P comment 96 119 39 196617 delete;#P button 13 119 15 0;#P comment 30 119 31 196617 build;#P hidden newex 196 150 159 196617 editorwindow /wii-c /tapemovie;#B color 6;#N thispatcher;#Q end;#P hidden newobj 196 180 61 196617 thispatcher;#P hidden newex 13 148 153 196617 tm_edit-builder wii-c 1 1 2000;#B color 6;#P window linecount 0;#P comment 2376 22 100 196617;#P comment 1 1 100 196617;#P hidden connect 6 0 2 0;#P hidden connect 8 0 2 1;#P hidden fasten 3 0 4 0 201 201 390 201 390 146 201 146;#P hidden fasten 2 0 3 0 18 175 201 175;#P hidden connect 4 0 3 0;#P pop;