max v2;#N vpatcher 114 54 985 854;#P origin -10 -43;#P window setfont "Sans Serif" 9.;#P newex 636 115 151 196617 moduleinit $1;#B color 13;#P button 48 62 15 0;#P button 28 63 15 0;#P message 41 103 57 196617 disconnect;#P message 27 82 44 196617 connect;#P newex 307 675 158 196617 control $1-orientation $1 i 0 1;#P newex 211 696 158 196617 control $1-z $1 f 0 1;#P newex 115 717 158 196617 control $1-y $1 f 0 1;#P newex 19 738 158 196617 control $1-x $1 f 0 1;#P newex 333 90 136 196617 r $1-getcalibration;#B color 12;#P newex 255 88 122 196617 r $1-getbattery;#B color 12;#P message 255 115 58 196617 getbattery;#P newex 249 239 70 196617 s $1-battery;#P newex 249 184 122 196617 route battery calibration;#P newex 33 43 132 196617 r $1-disconnect;#B color 12;#P window linecount 4;#P message 636 138 90 196617 \; $1/sw/init bang \; $1-disconnect \; $1-freq 50 \;;#P window linecount 1;#P newex 143 89 102 196617 r $1-freq;#B color 12;#P newex 19 21 119 196617 r $1-connect;#B color 12;#P newex 101 65 212 196617 makeswitch $1/sw $1 common_switchstate;#B color 12;#P message 333 115 72 196617 getcalibration;#P outlet 0 206 15 0;#P newex 19 206 216 196617 route motion ir buttons;#P newex 19 182 69 196617 route remote;#P newex 101 115 52 196617 metro 50;#P toggle 101 90 15 0;#P newex 19 156 240 196617 aka.wiiremote;#B color 5;#P newex 305 212 84 196617 s $1-calibration;#P toggle 645 341 15 0;#P comment 660 343 38 196617 plus;#P toggle 596 341 15 0;#P comment 611 343 38 196617 up;#P toggle 547 341 15 0;#P comment 562 343 38 196617 down;#P toggle 498 341 15 0;#P comment 513 343 38 196617 right;#P toggle 449 341 15 0;#P comment 464 343 38 196617 left;#P toggle 400 341 13 0;#P comment 415 343 38 196617 home;#P toggle 351 341 15 0;#P comment 366 343 38 196617 minus;#P toggle 302 341 15 0;#P comment 317 343 38 196617 A;#P toggle 253 341 15 0;#P comment 268 343 38 196617 B;#P toggle 204 341 15 0;#P comment 219 343 38 196617 1;#P toggle 155 341 15 0;#P comment 170 343 38 196617 2;#P newex 645 362 135 196617 control $1-plus $1 t 0 1;#P newex 596 383 135 196617 control $1-up $1 t 0 1;#P newex 547 404 135 196617 control $1-down $1 t 0 1;#P newex 498 425 135 196617 control $1-right $1 t 0 1;#P newex 449 446 158 196617 control $1-left $1 t 0 1;#P newex 400 467 158 196617 control $1-home $1 t 0 1;#P newex 351 488 158 196617 control $1-minus $1 t 0 1;#P newex 302 509 158 196617 control $1-A $1 t 0 1;#P newex 253 530 158 196617 control $1-B $1 t 0 1;#P newex 204 551 158 196617 control $1-1 $1 t 0 1;#P newex 155 572 158 196617 control $1-2 $1 t 0 1;#P newex 155 259 45 196617 & 8095;#P newex 155 285 40 196617 change;#P newex 645 314 45 196617 & 4096;#P newex 596 314 45 196617 & 2048;#P newex 547 314 45 196617 & 1024;#P newex 498 314 39 196617 & 512;#P newex 449 314 39 196617 & 256;#P newex 400 314 39 196617 & 128;#P newex 351 314 33 196617 & 16;#P newex 302 314 27 196617 & 8;#P newex 253 314 27 196617 & 4;#P newex 204 314 27 196617 & 2;#P newex 155 314 27 196617 & 1;#P user umenu 346 639 89 196645 3 64 655 0;#X add Front side is up.;#X add Right side is up.;#X add Back side is up.;#X add Left side is up.;#P number 19 639 35 9 0 0 0 3 0 0 0 221 221 221 222 222 222 0 0 0;#P number 115 639 35 9 0 0 0 3 0 0 0 221 221 221 222 222 222 0 0 0;#P number 211 639 35 9 0 0 0 3 0 0 0 221 221 221 222 222 222 0 0 0;#P number 307 639 35 9 0 0 0 3 0 0 0 221 221 221 222 222 222 0 0 0;#P comment 34 574 100 196617 motion sensor data;#P comment 25 622 78 196617 accelaration-X;#P comment 313 622 100 196617 orientation;#P comment 217 622 93 196617 accelaration-Z;#P comment 121 622 77 196617 accelaration-Y;#P newex 19 601 299 196617 unpack 0 0 0 0;#P connect 61 0 63 0;#P connect 69 0 58 0;#P connect 66 0 58 0;#P fasten 72 0 58 0 260 143 24 143;#P fasten 64 0 58 0 338 143 24 143;#P fasten 60 0 58 0 106 143 24 143;#P connect 80 0 58 0;#P connect 79 0 58 0;#P connect 58 0 61 0;#P connect 61 0 62 0;#P connect 62 0 0 0;#P connect 0 0 9 0;#P connect 9 0 75 0;#P connect 81 0 79 0;#P connect 66 0 81 0;#P connect 82 0 80 0;#P connect 69 0 82 0;#P connect 65 0 59 0;#P connect 59 0 60 0;#P connect 0 1 8 0;#P connect 8 0 76 0;#P connect 67 0 60 1;#P connect 62 2 23 0;#P connect 23 0 22 0;#P fasten 22 0 11 0 160 308 160 308;#P connect 11 0 36 0;#P connect 36 0 24 0;#P fasten 22 0 12 0 160 308 209 308;#P connect 12 0 38 0;#P connect 38 0 25 0;#P connect 0 2 7 0;#P connect 7 0 77 0;#P connect 58 1 70 0;#P connect 70 0 71 0;#P fasten 22 0 13 0 160 308 258 308;#P connect 13 0 40 0;#P connect 40 0 26 0;#P connect 73 0 72 0;#P fasten 22 0 14 0 160 308 307 308;#P connect 14 0 42 0;#P connect 42 0 27 0;#P connect 70 1 57 0;#P connect 0 3 6 0;#P connect 6 0 78 0;#P connect 74 0 64 0;#P hidden fasten 0 3 10 0 312 634 351 634;#P fasten 22 0 15 0 160 308 356 308;#P connect 15 0 44 0;#P connect 44 0 28 0;#P fasten 22 0 16 0 160 308 405 308;#P connect 16 0 46 0;#P connect 46 0 29 0;#P fasten 22 0 17 0 160 308 454 308;#P connect 17 0 48 0;#P connect 48 0 30 0;#P fasten 22 0 18 0 160 308 503 308;#P connect 18 0 50 0;#P connect 50 0 31 0;#P fasten 22 0 19 0 160 308 552 308;#P connect 19 0 52 0;#P connect 52 0 32 0;#P fasten 22 0 20 0 160 308 601 308;#P connect 20 0 54 0;#P connect 54 0 33 0;#P connect 83 0 68 0;#P fasten 22 0 21 0 160 308 650 308;#P connect 21 0 56 0;#P connect 56 0 34 0;#P pop;