max v2;#N vpatcher 216 44 993 885;#P origin 8 83;#P window setfont "Sans Serif" 9.;#P newex 509 441 41 196617 touchin;#P newex 374 152 151 196617 moduleinit $1;#B color 13;#P window setfont "Sans Serif" 18.;#N qlist;#X append $1/sw/init bang \; $1/type/out/init bang \; $1/channel/out/init bang \; $1/cc.1proc/init bang \; $1/cc.2proc/init bang \; $1/cc.3proc/init bang \;;#X append $1/cc.4proc/init bang \; $1/cc.5proc/init bang \; $1/cc.6proc/init bang \; $1/cc.7proc/init bang \; $1/cc.8proc/init bang \; $1/cc.9proc/init bang \;;#X append $1/cc.10proc/init bang \; $1/cc.11proc/init bang \; $1/cc.12proc/init bang \; $1/cc.13proc/init bang \; $1/cc.14proc/init bang \; $1/cc.15proc/init bang \;;#X append $1/cc.16proc/init bang \; $1/cc.17proc/init bang \; $1/cc.18proc/init bang \; $1/cc.19proc/init bang \; $1/cc.20proc/init bang \; $1/cc.21proc/init bang \;;#X append $1/cc.22proc/init bang \; $1/cc.23proc/init bang \; $1/cc.24proc/init bang \; $1/cc.25proc/init bang \; $1/cc.26proc/init bang \; $1/cc.27proc/init bang \;;#X append $1/cc.28proc/init bang \; $1/cc.29proc/init bang \; $1/cc.30proc/init bang \; $1/cc.31proc/init bang \; $1/cc.32proc/init bang \; $1/cc.33proc/init bang \;;#X append $1/cc.34proc/init bang \; $1/cc.35proc/init bang \; $1/cc.36proc/init bang \; $1/cc.37proc/init bang \; $1/cc.38proc/init bang \; $1/cc.39proc/init bang \;;#X append $1/cc.40proc/init bang \; $1/cc.41proc/init bang \; $1/cc.42proc/init bang \; $1/cc.43proc/init bang \; $1/cc.44proc/init bang \; control_register/store $1 \;;#P newobj 374 200 47 196626 qlist;#B color 13;#P window setfont "Sans Serif" 9.;#P newex 386 325 49 196617 zl rot -1;#P newex 386 349 58 196617 unpack 0 0;#P newex 386 302 241 196617 r $1/out/ctl/list;#B color 13;#P newex 492 358 194 196617 makeparam $1/channel/out $1 i 1 1 16;#B color 12;#P newex 374 380 126 196617 ctlout;#P button 374 174 15 0;#P newex 14 800 268 196617 midictl_rec $1/cc.44 $1 44 $2;#P newex 14 782 268 196617 midictl_rec $1/cc.43 $1 43 $2;#P newex 14 763 268 196617 midictl_rec $1/cc.42 $1 42 $2;#P newex 14 745 268 196617 midictl_rec $1/cc.41 $1 41 $2;#P newex 14 727 268 196617 midictl_rec $1/cc.40 $1 40 $2;#P newex 14 709 268 196617 midictl_rec $1/cc.39 $1 39 $2;#P newex 14 691 268 196617 midictl_rec $1/cc.38 $1 38 $2;#P newex 14 673 268 196617 midictl_rec $1/cc.37 $1 37 $2;#P newex 14 654 268 196617 midictl_rec $1/cc.36 $1 36 $2;#P newex 14 636 268 196617 midictl_rec $1/cc.35 $1 35 $2;#P newex 14 618 268 196617 midictl_rec $1/cc.34 $1 34 $2;#P newex 374 280 194 196617 makeparam $1/type/out $1 m BCF2000;#B color 13;#P button 528 66 15 0;#P newex 528 116 118 196617 s $1/typeinterface/out;#B color 12;#P newex 528 84 45 196617 midiinfo;#B color 5;#P newex 14 600 268 196617 midictl_rec $1/cc.33 $1 33 $2;#P newex 14 581 268 196617 midictl_rec $1/cc.32 $1 32 $2;#P newex 14 563 268 196617 midictl_rec $1/cc.31 $1 31 $2;#P newex 14 545 268 196617 midictl_rec $1/cc.30 $1 30 $2;#P newex 14 527 268 196617 midictl_rec $1/cc.29 $1 29 $2;#P newex 14 509 268 196617 midictl_rec $1/cc.28 $1 28 $2;#P newex 14 491 268 196617 midictl_rec $1/cc.27 $1 27 $2;#P newex 14 473 268 196617 midictl_rec $1/cc.26 $1 26 $2;#P newex 14 455 268 196617 midictl_rec $1/cc.25 $1 25 $2;#P newex 14 436 268 196617 midictl_rec $1/cc.24 $1 24 $2;#P newex 14 418 268 196617 midictl_rec $1/cc.23 $1 23 $2;#P newex 14 400 268 196617 midictl_rec $1/cc.22 $1 22 $2;#P newex 14 384 268 196617 midictl_rec $1/cc.21 $1 21 $2;#P newex 14 364 268 196617 midictl_rec $1/cc.20 $1 20 $2;#P newex 14 346 268 196617 midictl_rec $1/cc.19 $1 19 $2;#P newex 14 328 268 196617 midictl_rec $1/cc.18 $1 18 $2;#P newex 14 310 268 196617 midictl_rec $1/cc.17 $1 17 $2;#P newex 579 598 68 196617 prepend send;#P newex 374 647 47 196617 forward;#B color 12;#P newex 579 563 159 196617 makeparam $1/sendto $1 s none;#P newex 374 591 111 196617 pack 60 60 i;#P newex 374 465 49 196617 t b i;#P newex 374 494 108 196617 i;#P newex 396 564 27 196617 i;#P button 396 539 15 0;#P newex 374 517 32 196617 sel 0;#P newex 374 441 40 196617 notein;#P comment 607 71 122 196617 arg3 = midi channel;#P comment 608 48 122 196617 arg2 = switchstate name;#P window setfont "Lucida Grande" 9.;#P newex 540 203 85 67108873 s $1/init;#B color 11;#P newex 540 180 94 67108873 r /tapemovie/init;#B color 11;#P window setfont "Sans Serif" 9.;#P newex 374 116 138 196617 s $1/typeinterface/in;#B color 12;#P newex 374 245 221 196617 makeswitch $1/sw $1 common_switchstate 0;#B color 13;#P message 374 66 60 196617 controllers;#P newex 374 24 196 196617 r $1/update;#B color 12;#P newex 374 84 45 196617 midiinfo;#B color 5;#P newex 374 415 254 196617 makeparam $1/type/in $1 m BCF2000;#B color 13;#P newex 14 292 268 196617 midictl_rec $1/cc.16 $1 16 $2;#P newex 14 274 268 196617 midictl_rec $1/cc.15 $1 15 $2;#P newex 14 256 268 196617 midictl_rec $1/cc.14 $1 14 $2;#P newex 14 238 268 196617 midictl_rec $1/cc.13 $1 13 $2;#P newex 14 220 268 196617 midictl_rec $1/cc.12 $1 12 $2;#P newex 14 202 268 196617 midictl_rec $1/cc.11 $1 11 $2;#P newex 14 184 268 196617 midictl_rec $1/cc.10 $1 10 $2;#P newex 14 166 256 196617 midictl_rec $1/cc.9 $1 9 $2;#P newex 14 147 256 196617 midictl_rec $1/cc.8 $1 8 $2;#P newex 14 129 256 196617 midictl_rec $1/cc.7 $1 7 $2;#P newex 14 111 256 196617 midictl_rec $1/cc.6 $1 6 $2;#P newex 14 93 256 196617 midictl_rec $1/cc.5 $1 5 $2;#P newex 14 75 256 196617 midictl_rec $1/cc.4 $1 4 $2;#P newex 14 57 256 196617 midictl_rec $1/cc.3 $1 3 $2;#P newex 14 39 256 196617 midictl_rec $1/cc.2 $1 2 $2;#P newex 14 21 256 196617 midictl_rec $1/cc.1 $1 1 $2;#P comment 607 29 100 196617 arg1 = module name;#P connect 19 0 20 0;#P connect 20 0 18 0;#P connect 18 0 22 0;#P connect 76 0 69 0;#P connect 69 0 75 0;#P connect 73 0 70 0;#P connect 57 0 70 0;#P connect 17 0 27 0;#P connect 27 0 32 0;#P connect 32 0 31 0;#P connect 31 0 28 0;#P connect 30 0 33 0;#P connect 36 0 35 0;#P connect 33 0 35 0;#P connect 72 0 74 0;#P connect 74 0 73 0;#P connect 28 1 29 0;#P connect 29 0 30 0;#P connect 32 1 30 1;#P connect 27 1 33 1;#P connect 73 1 70 1;#P fasten 27 1 31 1 394 462 477 462;#P connect 77 0 33 2;#P connect 71 0 70 2;#P fasten 17 0 77 0 379 436 514 436;#P fasten 19 0 56 0 379 53 533 53;#P connect 56 0 54 0;#P connect 54 0 55 0;#P connect 23 0 24 0;#P connect 34 0 36 0;#P pop;