max v2;#N vpatcher 7 88 1095 790;#P window setfont Times 9.;#P comment 212 66 48 1310729 aftertouch;#P window setfont "Sans Serif" 9.;#P number 222 80 35 9 0 0 0 3 0 0 0 221 221 221 222 222 222 0 0 0;#P newex 458 102 42 196617 touchin;#P message 627 136 33 196617 clear;#P newex 560 152 54 196617 pvar ctlin;#B color 13;#P newex 560 131 62 196617 prepend set;#P window setfont Times 9.;#P comment 203 397 26 1310729 ctlin;#P user textedit 202 407 244 423 32897 20 9;#P objectname ctlin;#P comment 181 69 35 1310729 notein;#P window setfont "Sans Serif" 9.;#P message 527 209 33 196617 clear;#P newex 460 225 58 196617 pvar notes;#B color 13;#P newex 460 204 62 196617 prepend set;#P window setfont Times 9.;#P user textedit 168 79 223 95 32897 20 9;#P objectname notes;#P window setfont "Sans Serif" 9.;#P newex 414 157 29 196617 gate;#P newex 414 180 101 196617 print $1/note/print;#P newex 416 128 48 196617 pack 0 0;#P newex 492 124 48 196617 pack 0 0;#P newex 416 84 40 196617 notein;#P window setfont "Sans Serif" 14.;#N vpatcher 250 604 782 746;#P origin -135 -200;#P bpatcher 0 0 512 124 0 0 multimapsendu.edit.mxt 0 $1 /tapemovie;#P window setfont "Sans Serif" 9.;#P hidden newex 556 82 93 196617 r $1/more/editor;#B color 12;#N thispatcher;#Q end;#P hidden newobj 556 102 70 196617 thispatcher;#P hidden fasten 1 0 0 0 561 97 561 97;#P pop;#P newobj 273 138 59 196622 p more;#B color 6;#P window setfont Times 9.;#P comment 196 22 41 1310729 /print/sw;#B frgb 0 0 200;#P comment 78 16 37 1310729 /update;#B frgb 0 0 200;#P comment 64 2 56 1310729 menu update;#B color 12;#P comment 127 81 38 1310729 /sendto;#B frgb 0 0 200;#P window setfont "Sans Serif" 9.;#P comment 146 396 41 196617 /cc.44;#B frgb 0 0 200;#P comment 105 396 41 196617 /cc.43;#B frgb 0 0 200;#P comment 64 396 41 196617 /cc.42;#B frgb 0 0 200;#P comment 23 396 41 196617 /cc.41;#B frgb 0 0 200;#P comment 187 360 41 196617 /cc.40;#B frgb 0 0 200;#P comment 146 360 41 196617 /cc.39;#B frgb 0 0 200;#P comment 105 360 41 196617 /cc.38;#B frgb 0 0 200;#P comment 64 360 41 196617 /cc.37;#B frgb 0 0 200;#P comment 23 360 41 196617 /cc.36;#B frgb 0 0 200;#P comment 187 323 41 196617 /cc.35;#B frgb 0 0 200;#P comment 146 323 41 196617 /cc.34;#B frgb 0 0 200;#P comment 105 323 41 196617 /cc.33;#B frgb 0 0 200;#P comment 64 323 41 196617 /cc.32;#B frgb 0 0 200;#P comment 23 323 41 196617 /cc.31;#B frgb 0 0 200;#P comment 187 286 41 196617 /cc.30;#B frgb 0 0 200;#P comment 146 286 41 196617 /cc.29;#B frgb 0 0 200;#P comment 105 286 41 196617 /cc.28;#B frgb 0 0 200;#P comment 64 286 41 196617 /cc.27;#B frgb 0 0 200;#P comment 23 286 41 196617 /cc.26;#B frgb 0 0 200;#P comment 187 249 41 196617 /cc.25;#B frgb 0 0 200;#P comment 146 249 41 196617 /cc.24;#B frgb 0 0 200;#P comment 105 249 41 196617 /cc.23;#B frgb 0 0 200;#P comment 64 249 41 196617 /cc.22;#B frgb 0 0 200;#P comment 23 249 41 196617 /cc.21;#B frgb 0 0 200;#P comment 187 212 41 196617 /cc.20;#B frgb 0 0 200;#P comment 146 212 41 196617 /cc.19;#B frgb 0 0 200;#P comment 105 212 41 196617 /cc.18;#B frgb 0 0 200;#P comment 64 212 41 196617 /cc.17;#B frgb 0 0 200;#P comment 23 212 41 196617 /cc.16;#B frgb 0 0 200;#P comment 187 175 41 196617 /cc.15;#B frgb 0 0 200;#P comment 146 175 41 196617 /cc.14;#B frgb 0 0 200;#P comment 105 174 41 196617 /cc.13;#B frgb 0 0 200;#P comment 64 174 41 196617 /cc.12;#B frgb 0 0 200;#P comment 23 174 41 196617 /cc.11;#B frgb 0 0 200;#P comment 187 137 41 196617 /cc.10;#B frgb 0 0 200;#P comment 146 137 35 196617 /cc.9;#B frgb 0 0 200;#P comment 105 137 35 196617 /cc.8;#B frgb 0 0 200;#P comment 64 137 35 196617 /cc.7;#B frgb 0 0 200;#P comment 23 137 35 196617 /cc.6;#B frgb 0 0 200;#P comment 187 100 35 196617 /cc.5;#B frgb 0 0 200;#P comment 146 100 35 196617 /cc.4;#B frgb 0 0 200;#P comment 105 100 35 196617 /cc.3;#B frgb 0 0 200;#P comment 64 100 35 196617 /cc.2;#B frgb 0 0 200;#P comment 23 100 35 196617 /cc.1;#B frgb 0 0 200;#P message 1720 1010 93 196617 brgb 221 221 221;#P message 1733 1037 93 196617 brgb 158 178 198;#P message 1737 1139 112 196617 send $1/cc.44/midicc;#P newex 1726 1111 133 196617 pvar $1/cc.44/ccchoose 2;#P newex 1733 1089 78 196617 pvar $1/cc.44;#P newex 1746 1062 76 196617 vari $1/cc.44;#P message 1520 1011 93 196617 brgb 221 221 221;#P message 1533 1038 93 196617 brgb 158 178 198;#P message 1537 1140 112 196617 send $1/cc.43/midicc;#P newex 1526 1112 133 196617 pvar $1/cc.43/ccchoose 2;#P newex 1533 1090 78 196617 pvar $1/cc.43;#P newex 1546 1063 76 196617 vari $1/cc.43;#P message 1320 1012 93 196617 brgb 221 221 221;#P message 1333 1039 93 196617 brgb 158 178 198;#P message 1349 1140 112 196617 send $1/cc.42/midicc;#P newex 1326 1113 133 196617 pvar $1/cc.42/ccchoose 2;#P newex 1333 1091 78 196617 pvar $1/cc.42;#P newex 1346 1064 76 196617 vari $1/cc.42;#P message 1120 1013 93 196617 brgb 221 221 221;#P message 1133 1040 93 196617 brgb 158 178 198;#P message 1137 1142 112 196617 send $1/cc.41/midicc;#P newex 1126 1114 133 196617 pvar $1/cc.41/ccchoose 2;#P newex 1133 1092 78 196617 pvar $1/cc.41;#P newex 1146 1065 76 196617 vari $1/cc.41;#P message 2371 791 93 196617 brgb 221 221 221;#P message 2384 818 93 196617 brgb 158 178 198;#P message 2388 920 112 196617 send $1/cc.40/midicc;#P newex 2377 892 133 196617 pvar $1/cc.40/ccchoose 2;#P newex 2384 870 78 196617 pvar $1/cc.40;#P newex 2397 843 76 196617 vari $1/cc.40;#P message 2171 792 93 196617 brgb 221 221 221;#P message 2184 819 93 196617 brgb 158 178 198;#P message 2188 921 112 196617 send $1/cc.39/midicc;#P newex 2177 893 133 196617 pvar $1/cc.39/ccchoose 2;#P newex 2184 871 78 196617 pvar $1/cc.39;#P newex 2197 844 76 196617 vari $1/cc.39;#P message 1971 793 93 196617 brgb 221 221 221;#P message 1984 820 93 196617 brgb 158 178 198;#P message 1988 922 112 196617 send $1/cc.38/midicc;#P newex 1977 894 133 196617 pvar $1/cc.38/ccchoose 2;#P newex 1984 872 78 196617 pvar $1/cc.38;#P newex 1997 845 76 196617 vari $1/cc.38;#P message 1771 794 93 196617 brgb 221 221 221;#P message 1784 821 93 196617 brgb 158 178 198;#P message 1788 923 112 196617 send $1/cc.37/midicc;#P newex 1777 895 133 196617 pvar $1/cc.37/ccchoose 2;#P newex 1784 873 78 196617 pvar $1/cc.37;#P newex 1797 846 76 196617 vari $1/cc.37;#P user ubutton 146 408 35 15 0 0;#P objectname $1/cc.44/ccchoose;#P number 146 408 35 9 0 0 160 3 0 0 0 221 221 221 222 222 222 0 0 0;#P objectname $1/cc.44;#P user ubutton 105 408 35 15 0 0;#P objectname $1/cc.43/ccchoose;#P number 105 408 35 9 0 0 160 3 0 0 0 221 221 221 222 222 222 0 0 0;#P objectname $1/cc.43;#P user ubutton 64 408 35 15 0 0;#P objectname $1/cc.42/ccchoose;#P number 64 408 35 9 0 0 160 3 0 0 0 221 221 221 222 222 222 0 0 0;#P objectname $1/cc.42;#P user ubutton 23 408 35 15 0 0;#P objectname $1/cc.41/ccchoose;#P number 23 408 35 9 0 0 160 3 0 0 0 221 221 221 222 222 222 0 0 0;#P objectname $1/cc.41;#P user ubutton 187 372 35 15 0 0;#P objectname $1/cc.40/ccchoose;#P number 187 372 35 9 0 0 160 3 0 0 0 221 221 221 222 222 222 0 0 0;#P objectname $1/cc.40;#P user ubutton 146 372 35 15 0 0;#P objectname $1/cc.39/ccchoose;#P number 146 372 35 9 0 0 160 3 0 0 0 221 221 221 222 222 222 0 0 0;#P objectname $1/cc.39;#P user ubutton 105 372 35 15 0 0;#P objectname $1/cc.38/ccchoose;#P number 105 372 35 9 0 0 160 3 0 0 0 221 221 221 222 222 222 0 0 0;#P objectname $1/cc.38;#P user ubutton 64 372 35 15 0 0;#P objectname $1/cc.37/ccchoose;#P number 64 372 35 9 0 0 160 3 0 0 0 221 221 221 222 222 222 0 0 0;#P objectname $1/cc.37;#P user ubutton 23 372 35 15 0 0;#P objectname $1/cc.36/ccchoose;#P number 23 372 35 9 0 0 160 3 0 0 0 221 221 221 222 222 222 0 0 0;#P objectname $1/cc.36;#P message 1548 793 93 196617 brgb 221 221 221;#P message 1561 820 93 196617 brgb 158 178 198;#P message 1565 922 112 196617 send $1/cc.36/midicc;#P newex 1558 893 133 196617 pvar $1/cc.36/ccchoose 2;#P newex 1561 872 78 196617 pvar $1/cc.36;#P newex 1574 845 76 196617 vari $1/cc.36;#P message 1388 794 93 196617 brgb 221 221 221;#P message 1401 821 93 196617 brgb 158 178 198;#P message 1405 923 112 196617 send $1/cc.35/midicc;#P newex 1400 893 133 196617 pvar $1/cc.35/ccchoose 2;#P newex 1401 873 78 196617 pvar $1/cc.35;#P newex 1414 846 76 196617 vari $1/cc.35;#P message 1188 795 93 196617 brgb 221 221 221;#P message 1201 822 93 196617 brgb 158 178 198;#P message 1205 924 112 196617 send $1/cc.34/midicc;#P newex 1190 897 133 196617 pvar $1/cc.34/ccchoose 2;#P newex 1201 874 78 196617 pvar $1/cc.34;#P newex 1214 847 76 196617 vari $1/cc.34;#P message 988 796 93 196617 brgb 221 221 221;#P message 1001 823 93 196617 brgb 158 178 198;#P message 1005 925 112 196617 send $1/cc.33/midicc;#P newex 994 897 133 196617 pvar $1/cc.33/ccchoose 2;#P newex 1001 875 78 196617 pvar $1/cc.33;#P newex 1014 848 76 196617 vari $1/cc.33;#P message 788 797 93 196617 brgb 221 221 221;#P message 801 824 93 196617 brgb 158 178 198;#P message 817 925 112 196617 send $1/cc.32/midicc;#P newex 794 898 133 196617 pvar $1/cc.32/ccchoose 2;#P newex 801 876 78 196617 pvar $1/cc.32;#P newex 814 849 76 196617 vari $1/cc.32;#P message 588 798 93 196617 brgb 221 221 221;#P message 601 825 93 196617 brgb 158 178 198;#P message 605 927 112 196617 send $1/cc.31/midicc;#P newex 594 899 133 196617 pvar $1/cc.31/ccchoose 2;#P newex 601 877 78 196617 pvar $1/cc.31;#P newex 614 850 76 196617 vari $1/cc.31;#P message 2376 603 93 196617 brgb 221 221 221;#P message 2389 630 93 196617 brgb 158 178 198;#P message 2393 732 112 196617 send $1/cc.30/midicc;#P newex 2382 704 133 196617 pvar $1/cc.30/ccchoose 2;#P newex 2389 682 78 196617 pvar $1/cc.30;#P newex 2402 655 76 196617 vari $1/cc.30;#P message 2176 604 93 196617 brgb 221 221 221;#P message 2189 631 93 196617 brgb 158 178 198;#P message 2193 733 112 196617 send $1/cc.29/midicc;#P newex 2182 705 133 196617 pvar $1/cc.29/ccchoose 2;#P newex 2189 683 78 196617 pvar $1/cc.29;#P newex 2202 656 76 196617 vari $1/cc.29;#P message 1976 605 93 196617 brgb 221 221 221;#P message 1989 632 93 196617 brgb 158 178 198;#P message 1993 734 112 196617 send $1/cc.28/midicc;#P newex 1982 706 133 196617 pvar $1/cc.28/ccchoose 2;#P newex 1989 684 78 196617 pvar $1/cc.28;#P newex 2002 657 76 196617 vari $1/cc.28;#P message 1776 606 93 196617 brgb 221 221 221;#P message 1789 633 93 196617 brgb 158 178 198;#P message 1793 735 112 196617 send $1/cc.27/midicc;#P newex 1782 707 133 196617 pvar $1/cc.27/ccchoose 2;#P newex 1789 685 78 196617 pvar $1/cc.27;#P newex 1802 658 76 196617 vari $1/cc.27;#P message 1576 607 93 196617 brgb 221 221 221;#P message 1589 634 93 196617 brgb 158 178 198;#P message 1593 736 112 196617 send $1/cc.26/midicc;#P newex 1582 708 133 196617 pvar $1/cc.26/ccchoose 2;#P newex 1589 686 78 196617 pvar $1/cc.26;#P newex 1602 659 76 196617 vari $1/cc.26;#P message 1391 607 93 196617 brgb 221 221 221;#P message 1404 634 93 196617 brgb 158 178 198;#P message 1408 736 112 196617 send $1/cc.25/midicc;#P newex 1397 708 133 196617 pvar $1/cc.25/ccchoose 2;#P newex 1404 686 78 196617 pvar $1/cc.25;#P newex 1417 659 76 196617 vari $1/cc.25;#P message 1191 608 93 196617 brgb 221 221 221;#P message 1204 635 93 196617 brgb 158 178 198;#P message 1208 737 112 196617 send $1/cc.24/midicc;#P newex 1197 709 133 196617 pvar $1/cc.24/ccchoose 2;#P newex 1204 687 78 196617 pvar $1/cc.24;#P newex 1217 660 76 196617 vari $1/cc.24;#P message 991 609 93 196617 brgb 221 221 221;#P message 1004 636 93 196617 brgb 158 178 198;#P message 1008 738 112 196617 send $1/cc.23/midicc;#P newex 997 710 133 196617 pvar $1/cc.23/ccchoose 2;#P newex 1004 688 78 196617 pvar $1/cc.23;#P newex 1017 661 76 196617 vari $1/cc.23;#P message 791 610 93 196617 brgb 221 221 221;#P message 804 637 93 196617 brgb 158 178 198;#P message 808 739 112 196617 send $1/cc.22/midicc;#P newex 797 711 133 196617 pvar $1/cc.22/ccchoose 2;#P newex 804 689 78 196617 pvar $1/cc.22;#P newex 817 662 76 196617 vari $1/cc.22;#P message 591 611 93 196617 brgb 221 221 221;#P message 604 638 93 196617 brgb 158 178 198;#P message 608 740 112 196617 send $1/cc.21/midicc;#P newex 597 712 133 196617 pvar $1/cc.21/ccchoose 2;#P newex 604 690 78 196617 pvar $1/cc.21;#P newex 617 663 76 196617 vari $1/cc.21;#P message 2379 416 93 196617 brgb 221 221 221;#P message 2392 443 93 196617 brgb 158 178 198;#P message 2396 545 112 196617 send $1/cc.20/midicc;#P newex 2385 517 133 196617 pvar $1/cc.20/ccchoose 2;#P newex 2392 495 78 196617 pvar $1/cc.20;#P newex 2405 468 76 196617 vari $1/cc.20;#P message 2179 417 93 196617 brgb 221 221 221;#P message 2192 444 93 196617 brgb 158 178 198;#P message 2196 546 112 196617 send $1/cc.19/midicc;#P newex 2185 518 133 196617 pvar $1/cc.19/ccchoose 2;#P newex 2192 496 78 196617 pvar $1/cc.19;#P newex 2205 469 76 196617 vari $1/cc.19;#P message 1979 418 93 196617 brgb 221 221 221;#P message 1992 445 93 196617 brgb 158 178 198;#P message 1996 547 112 196617 send $1/cc.18/midicc;#P newex 1985 519 133 196617 pvar $1/cc.18/ccchoose 2;#P newex 1992 497 78 196617 pvar $1/cc.18;#P newex 2005 470 76 196617 vari $1/cc.18;#P message 1779 419 93 196617 brgb 221 221 221;#P message 1792 446 93 196617 brgb 158 178 198;#P message 1796 548 112 196617 send $1/cc.17/midicc;#P newex 1785 520 133 196617 pvar $1/cc.17/ccchoose 2;#P newex 1792 498 78 196617 pvar $1/cc.17;#P newex 1805 471 76 196617 vari $1/cc.17;#P message 1579 420 93 196617 brgb 221 221 221;#P message 1592 447 93 196617 brgb 158 178 198;#P message 1596 549 112 196617 send $1/cc.16/midicc;#P newex 1585 521 133 196617 pvar $1/cc.16/ccchoose 2;#P newex 1592 499 78 196617 pvar $1/cc.16;#P newex 1605 472 76 196617 vari $1/cc.16;#P message 1394 420 93 196617 brgb 221 221 221;#P message 1407 447 93 196617 brgb 158 178 198;#P message 1411 549 112 196617 send $1/cc.15/midicc;#P newex 1400 521 133 196617 pvar $1/cc.15/ccchoose 2;#P newex 1407 499 78 196617 pvar $1/cc.15;#P newex 1420 472 76 196617 vari $1/cc.15;#P message 1194 421 93 196617 brgb 221 221 221;#P message 1207 448 93 196617 brgb 158 178 198;#P message 1211 550 112 196617 send $1/cc.14/midicc;#P newex 1200 522 133 196617 pvar $1/cc.14/ccchoose 2;#P newex 1207 500 78 196617 pvar $1/cc.14;#P newex 1220 473 76 196617 vari $1/cc.14;#P message 994 422 93 196617 brgb 221 221 221;#P message 1007 449 93 196617 brgb 158 178 198;#P message 1011 551 112 196617 send $1/cc.13/midicc;#P newex 998 524 133 196617 pvar $1/cc.13/ccchoose 2;#P newex 1007 501 78 196617 pvar $1/cc.13;#P newex 1020 474 76 196617 vari $1/cc.13;#P message 794 423 93 196617 brgb 221 221 221;#P message 807 450 93 196617 brgb 158 178 198;#P message 811 552 112 196617 send $1/cc.12/midicc;#P newex 800 524 133 196617 pvar $1/cc.12/ccchoose 2;#P newex 807 502 78 196617 pvar $1/cc.12;#P newex 820 475 76 196617 vari $1/cc.12;#P message 594 424 93 196617 brgb 221 221 221;#P message 607 451 93 196617 brgb 158 178 198;#P message 611 553 112 196617 send $1/cc.11/midicc;#P newex 600 525 133 196617 pvar $1/cc.11/ccchoose 2;#P newex 607 503 78 196617 pvar $1/cc.11;#P newex 620 476 76 196617 vari $1/cc.11;#P message 2382 229 93 196617 brgb 221 221 221;#P message 2395 256 93 196617 brgb 158 178 198;#P message 2399 358 112 196617 send $1/cc.10/midicc;#P newex 2388 330 133 196617 pvar $1/cc.10/ccchoose 2;#P newex 2395 308 78 196617 pvar $1/cc.10;#P newex 2408 281 76 196617 vari $1/cc.10;#P message 2182 230 93 196617 brgb 221 221 221;#P message 2195 257 93 196617 brgb 158 178 198;#P message 2199 359 106 196617 send $1/cc.9/midicc;#P newex 2188 331 127 196617 pvar $1/cc.9/ccchoose 2;#P newex 2195 309 72 196617 pvar $1/cc.9;#P newex 2208 282 70 196617 vari $1/cc.9;#P message 1982 231 93 196617 brgb 221 221 221;#P message 1995 258 93 196617 brgb 158 178 198;#P message 1999 360 106 196617 send $1/cc.8/midicc;#P newex 1988 332 127 196617 pvar $1/cc.8/ccchoose 2;#P newex 1995 310 72 196617 pvar $1/cc.8;#P newex 2008 283 70 196617 vari $1/cc.8;#P message 1782 232 93 196617 brgb 221 221 221;#P message 1795 259 93 196617 brgb 158 178 198;#P message 1799 361 106 196617 send $1/cc.7/midicc;#P newex 1788 333 127 196617 pvar $1/cc.7/ccchoose 2;#P newex 1795 311 72 196617 pvar $1/cc.7;#P newex 1808 284 70 196617 vari $1/cc.7;#P message 1582 233 93 196617 brgb 221 221 221;#P message 1595 260 93 196617 brgb 158 178 198;#P message 1599 362 106 196617 send $1/cc.6/midicc;#P newex 1588 334 127 196617 pvar $1/cc.6/ccchoose 2;#P newex 1595 312 72 196617 pvar $1/cc.6;#P newex 1608 285 70 196617 vari $1/cc.6;#P message 1397 233 93 196617 brgb 221 221 221;#P message 1410 260 93 196617 brgb 158 178 198;#P message 1414 362 106 196617 send $1/cc.5/midicc;#P newex 1403 334 127 196617 pvar $1/cc.5/ccchoose 2;#P newex 1410 312 72 196617 pvar $1/cc.5;#P newex 1423 285 70 196617 vari $1/cc.5;#P message 1197 234 93 196617 brgb 221 221 221;#P message 1210 261 93 196617 brgb 158 178 198;#P message 1214 363 106 196617 send $1/cc.4/midicc;#P newex 1203 335 127 196617 pvar $1/cc.4/ccchoose 2;#P newex 1210 313 72 196617 pvar $1/cc.4;#P newex 1223 286 70 196617 vari $1/cc.4;#P message 997 235 93 196617 brgb 221 221 221;#P message 1010 262 93 196617 brgb 158 178 198;#P message 1014 364 106 196617 send $1/cc.3/midicc;#P newex 1003 336 127 196617 pvar $1/cc.3/ccchoose 2;#P newex 1010 314 72 196617 pvar $1/cc.3;#P newex 1023 287 70 196617 vari $1/cc.3;#P message 797 236 93 196617 brgb 221 221 221;#P message 810 263 93 196617 brgb 158 178 198;#P message 814 365 106 196617 send $1/cc.2/midicc;#P newex 803 337 127 196617 pvar $1/cc.2/ccchoose 2;#P newex 810 315 72 196617 pvar $1/cc.2;#P newex 823 288 70 196617 vari $1/cc.2;#P user ubutton 187 335 35 15 0 0;#P objectname $1/cc.35/ccchoose;#P number 187 335 35 9 0 0 160 3 0 0 0 221 221 221 222 222 222 0 0 0;#P objectname $1/cc.35;#P user ubutton 146 335 35 15 0 0;#P objectname $1/cc.34/ccchoose;#P number 146 335 35 9 0 0 160 3 0 0 0 221 221 221 222 222 222 0 0 0;#P objectname $1/cc.34;#P user ubutton 105 335 35 15 0 0;#P objectname $1/cc.33/ccchoose;#P number 105 335 35 9 0 0 160 3 0 0 0 221 221 221 222 222 222 0 0 0;#P objectname $1/cc.33;#P user ubutton 64 335 35 15 0 0;#P objectname $1/cc.32/ccchoose;#P number 64 335 35 9 0 0 160 3 0 0 0 221 221 221 222 222 222 0 0 0;#P objectname $1/cc.32;#P user ubutton 23 335 35 15 0 0;#P objectname $1/cc.31/ccchoose;#P number 23 335 35 9 0 0 160 3 0 0 0 221 221 221 222 222 222 0 0 0;#P objectname $1/cc.31;#P user ubutton 187 298 35 15 0 0;#P objectname $1/cc.30/ccchoose;#P number 187 298 35 9 0 0 160 3 0 0 0 221 221 221 222 222 222 0 0 0;#P objectname $1/cc.30;#P user ubutton 146 298 35 15 0 0;#P objectname $1/cc.29/ccchoose;#P number 146 298 35 9 0 0 160 3 0 0 0 221 221 221 222 222 222 0 0 0;#P objectname $1/cc.29;#P user ubutton 105 298 35 15 0 0;#P objectname $1/cc.28/ccchoose;#P number 105 298 35 9 0 0 160 3 0 0 0 221 221 221 222 222 222 0 0 0;#P objectname $1/cc.28;#P user ubutton 64 298 35 15 0 0;#P objectname $1/cc.27/ccchoose;#P number 64 298 35 9 0 0 160 3 0 0 0 221 221 221 222 222 222 0 0 0;#P objectname $1/cc.27;#P user ubutton 23 298 35 15 0 0;#P objectname $1/cc.26/ccchoose;#P number 23 298 35 9 0 0 160 3 0 0 0 221 221 221 222 222 222 0 0 0;#P objectname $1/cc.26;#P user ubutton 187 261 35 15 0 0;#P objectname $1/cc.25/ccchoose;#P number 187 261 35 9 0 0 160 3 0 0 0 221 221 221 222 222 222 0 0 0;#P objectname $1/cc.25;#P user ubutton 146 261 35 15 0 0;#P objectname $1/cc.24/ccchoose;#P number 146 261 35 9 0 0 160 3 0 0 0 221 221 221 222 222 222 0 0 0;#P objectname $1/cc.24;#P user ubutton 105 261 35 15 0 0;#P objectname $1/cc.23/ccchoose;#P number 105 261 35 9 0 0 160 3 0 0 0 221 221 221 222 222 222 0 0 0;#P objectname $1/cc.23;#P user ubutton 64 261 35 15 0 0;#P objectname $1/cc.22/ccchoose;#P number 64 261 35 9 0 0 160 3 0 0 0 221 221 221 222 222 222 0 0 0;#P objectname $1/cc.22;#P user ubutton 23 261 35 15 0 0;#P objectname $1/cc.21/ccchoose;#P number 23 261 35 9 0 0 160 3 0 0 0 221 221 221 222 222 222 0 0 0;#P objectname $1/cc.21;#P user ubutton 187 224 35 15 0 0;#P objectname $1/cc.20/ccchoose;#P number 187 224 35 9 0 0 160 3 0 0 0 221 221 221 222 222 222 0 0 0;#P objectname $1/cc.20;#P user ubutton 146 224 35 15 0 0;#P objectname $1/cc.19/ccchoose;#P number 146 224 35 9 0 0 160 3 0 0 0 221 221 221 222 222 222 0 0 0;#P objectname $1/cc.19;#P user ubutton 105 224 35 15 0 0;#P objectname $1/cc.18/ccchoose;#P number 105 224 35 9 0 0 160 3 0 0 0 221 221 221 222 222 222 0 0 0;#P objectname $1/cc.18;#P user ubutton 64 224 35 15 0 0;#P objectname $1/cc.17/ccchoose;#P number 64 224 35 9 0 0 160 3 0 0 0 221 221 221 222 222 222 0 0 0;#P objectname $1/cc.17;#P user ubutton 23 224 35 15 0 0;#P objectname $1/cc.16/ccchoose;#P number 23 224 35 9 0 0 160 3 0 0 0 221 221 221 222 222 222 0 0 0;#P objectname $1/cc.16;#P user ubutton 187 187 35 15 0 0;#P objectname $1/cc.15/ccchoose;#P number 187 187 35 9 0 0 160 3 0 0 0 221 221 221 222 222 222 0 0 0;#P objectname $1/cc.15;#P user ubutton 146 187 35 15 0 0;#P objectname $1/cc.14/ccchoose;#P number 146 187 35 9 0 0 160 3 0 0 0 221 221 221 222 222 222 0 0 0;#P objectname $1/cc.14;#P user ubutton 105 187 35 15 0 0;#P objectname $1/cc.13/ccchoose;#P number 105 187 35 9 0 0 160 3 0 0 0 221 221 221 222 222 222 0 0 0;#P objectname $1/cc.13;#P user ubutton 64 187 35 15 0 0;#P objectname $1/cc.12/ccchoose;#P number 64 187 35 9 0 0 160 3 0 0 0 221 221 221 222 222 222 0 0 0;#P objectname $1/cc.12;#P user ubutton 23 187 35 15 0 0;#P objectname $1/cc.11/ccchoose;#P number 23 187 35 9 0 0 160 3 0 0 0 221 221 221 222 222 222 0 0 0;#P objectname $1/cc.11;#P user ubutton 187 150 35 15 0 0;#P objectname $1/cc.10/ccchoose;#P number 187 150 35 9 0 0 160 3 0 0 0 221 221 221 222 222 222 0 0 0;#P objectname $1/cc.10;#P user ubutton 146 150 35 15 0 0;#P objectname $1/cc.9/ccchoose;#P number 146 150 35 9 0 0 160 3 0 0 0 221 221 221 222 222 222 0 0 0;#P objectname $1/cc.9;#P user ubutton 105 150 35 15 0 0;#P objectname $1/cc.8/ccchoose;#P number 105 150 35 9 0 0 160 3 0 0 0 221 221 221 222 222 222 0 0 0;#P objectname $1/cc.8;#P user ubutton 64 150 35 15 0 0;#P objectname $1/cc.7/ccchoose;#P number 64 150 35 9 0 0 160 3 0 0 0 221 221 221 222 222 222 0 0 0;#P objectname $1/cc.7;#P user ubutton 23 150 35 15 0 0;#P objectname $1/cc.6/ccchoose;#P number 23 150 35 9 0 0 160 3 0 0 0 221 221 221 222 222 222 0 0 0;#P objectname $1/cc.6;#P user ubutton 187 113 35 15 0 0;#P objectname $1/cc.5/ccchoose;#P number 187 113 35 9 0 0 160 3 0 0 0 221 221 221 222 222 222 0 0 0;#P objectname $1/cc.5;#P user ubutton 146 113 35 15 0 0;#P objectname $1/cc.4/ccchoose;#P number 146 113 35 9 0 0 160 3 0 0 0 221 221 221 222 222 222 0 0 0;#P objectname $1/cc.4;#P user ubutton 105 113 35 15 0 0;#P objectname $1/cc.3/ccchoose;#P number 105 113 35 9 0 0 160 3 0 0 0 221 221 221 222 222 222 0 0 0;#P objectname $1/cc.3;#P user ubutton 64 113 35 15 0 0;#P objectname $1/cc.2/ccchoose;#P number 64 113 35 9 0 0 160 3 0 0 0 221 221 221 222 222 222 0 0 0;#P objectname $1/cc.2;#P newex 523 157 29 196617 gate;#P newex 295 205 92 196617 vari $1/print/sw;#B color 5;#P toggle 236 21 15 0;#P objectname $1/print/sw;#P newex 294 184 94 196617 pvar $1/print/sw;#P newex 523 180 94 196617 print $1/ctl/print;#P newex 586 90 77 196617 pvar typeout 2;#B color 13;#P newex 586 68 91 196617 vari $1/type/out;#B color 5;#P window setfont Times 9.;#P comment 135 51 45 1310729 /type/out;#B frgb 0 0 200;#P window setfont "Sans Serif" 9.;#P newex 270 36 118 196617 r $1/typeinterface/out;#B color 12;#P user umenu 36 50 100 196647 1 64 66 0;#P objectname typeout;#P newex 298 445 145 196617 s $1/sendto/init;#B color 11;#P newex 298 424 163 196617 route bang;#P newex 298 402 56 196617 route text;#P newex 298 379 57 196617 pvar name;#B color 13;#P newex 298 356 131 196617 vari $1/sendto;#B color 5;#P window setfont Times 9.;#P comment 23 69 80 1310729 notein destination;#B color 12;#P user textedit 23 79 127 95 32896 20 9 none;#P objectname name;#P window setfont "Sans Serif" 9.;#P message 597 237 93 196617 brgb 221 221 221;#P message 610 264 93 196617 brgb 158 178 198;#P newex 270 14 112 196617 r $1/typeinterface/in;#B color 12;#P newex 431 44 71 196617 pvar typein 2;#B color 13;#P newex 431 22 85 196617 vari $1/type/in;#B color 5;#P newex 527 41 63 196617 pvar update;#B color 13;#P newex 527 22 80 196617 vari $1/update;#B color 5;#P button 63 15 15 0;#P objectname update;#P user umenu 36 32 100 196647 1 64 48 0;#P objectname typein;#P window setfont Times 9.;#P comment 136 35 41 1310729 /type/in;#B frgb 0 0 200;#P window setfont "Sans Serif" 9.;#P window linecount 2;#P comment 283 236 107 196617 patch by Tom Mays contact@tommays.net;#P window linecount 4;#P comment 271 79 141 196617 arg 1 : module name \; arg 2: color scheme choice (0=movie \, 1=tape \, 2=camtrk \, 3=conduite);#P window linecount 1;#P comment 270 36 100 196617 panel = 256 X 62;#P comment 270 61 118 196617 <- name = "background";#P message 678 1099 45 196617 send //;#P message 614 366 106 196617 send $1/cc.1/midicc;#P newex 749 1160 47 196617 forward;#P newex 603 338 127 196617 pvar $1/cc.1/ccchoose 2;#P user ubutton 23 113 35 15 0 0;#P objectname $1/cc.1/ccchoose;#P newex 610 316 72 196617 pvar $1/cc.1;#P newex 623 289 70 196617 vari $1/cc.1;#P number 23 113 35 9 0 0 160 3 0 0 0 221 221 221 222 222 222 0 0 0;#P objectname $1/cc.1;#P number 497 378 35 9 0 0 8352 3 0 0 0 221 221 221 222 222 222 0 0 0;#P newex 492 80 40 196617 ctlin;#P bpatcher 0 0 256 434 0 0 bkgnd7.mxt 0 $1 1 3;#P objectname background;#P hidden connect 443 0 16 0;#P hidden connect 22 0 16 0;#P hidden connect 443 0 32 0;#P hidden connect 33 0 32 0;#P hidden connect 450 0 451 0;#P fasten 40 0 38 0 300 225 288 225 288 181 299 181;#P connect 38 0 40 0;#P fasten 30 1 27 0 456 471 286 471 286 351 303 351;#P connect 27 0 28 0;#P connect 28 0 29 0;#P connect 29 0 30 0;#P connect 30 0 31 0;#P connect 38 0 439 0;#P connect 439 0 438 0;#P connect 21 1 435 0;#P connect 435 0 437 0;#P fasten 21 1 20 0 497 66 426 66 426 15 436 15;#P connect 20 0 21 0;#P connect 437 0 439 1;#P connect 435 1 437 1;#P connect 21 1 450 0;#P connect 437 0 441 0;#P connect 443 0 442 0;#P connect 441 0 442 0;#P connect 21 1 1 0;#P connect 1 0 436 0;#P hidden connect 1 1 2 0;#P connect 38 0 41 0;#P connect 41 0 37 0;#P fasten 19 0 18 0 532 60 524 60 524 19 532 19;#P connect 18 0 19 0;#P connect 1 1 436 1;#P connect 436 0 41 1;#P connect 436 0 447 0;#P connect 447 0 448 0;#P connect 449 0 448 0;#P fasten 36 1 35 0 658 112 581 112 581 61 591 61;#P connect 35 0 36 0;#P fasten 286 0 289 0 599 920 580 920 580 793 593 793;#P fasten 226 0 229 0 602 733 583 733 583 606 596 606;#P fasten 166 0 169 0 605 546 586 546 586 419 599 419;#P fasten 7 0 24 0 608 359 587 359 587 232 602 232;#P fasten 286 1 288 0 722 921 720 921 720 817 606 817;#P fasten 284 0 285 0 619 872 606 872;#P fasten 289 0 285 0 593 872 606 872;#P connect 288 0 285 0;#P fasten 226 1 228 0 725 734 723 734 723 630 609 630;#P fasten 224 0 225 0 622 685 609 685;#P connect 228 0 225 0;#P fasten 229 0 225 0 596 685 609 685;#P fasten 286 1 287 0 722 921 610 921;#P fasten 166 1 168 0 728 547 726 547 726 443 612 443;#P fasten 164 0 165 0 625 498 612 498;#P fasten 169 0 165 0 599 498 612 498;#P connect 168 0 165 0;#P fasten 226 1 227 0 725 734 613 734;#P fasten 7 1 23 0 725 360 729 360 729 256 615 256;#P fasten 24 0 5 0 602 311 615 311;#P connect 23 0 5 0;#P fasten 4 0 5 0 628 311 615 311;#P fasten 166 1 167 0 728 547 616 547;#P fasten 7 1 9 0 725 360 619 360;#P connect 220 0 10 0;#P connect 358 0 10 0;#P connect 214 0 10 0;#P connect 352 0 10 0;#P connect 208 0 10 0;#P connect 346 0 10 0;#P connect 202 0 10 0;#P connect 340 0 10 0;#P connect 382 0 10 0;#P connect 136 0 10 0;#P connect 256 0 10 0;#P connect 316 0 10 0;#P connect 376 0 10 0;#P connect 190 0 10 0;#P connect 310 0 10 0;#P connect 370 0 10 0;#P connect 184 0 10 0;#P connect 304 0 10 0;#P connect 364 0 10 0;#P connect 178 0 10 0;#P connect 298 0 10 0;#P connect 172 0 10 0;#P connect 292 0 10 0;#P fasten 7 0 10 0 608 519 683 519;#P lcolor 15;#P connect 112 0 10 0;#P connect 118 0 10 0;#P connect 124 0 10 0;#P connect 130 0 10 0;#P connect 142 0 10 0;#P connect 148 0 10 0;#P connect 154 0 10 0;#P connect 160 0 10 0;#P connect 166 0 10 0;#P connect 196 0 10 0;#P connect 226 0 10 0;#P connect 232 0 10 0;#P connect 238 0 10 0;#P connect 244 0 10 0;#P connect 250 0 10 0;#P connect 262 0 10 0;#P connect 268 0 10 0;#P connect 274 0 10 0;#P connect 280 0 10 0;#P connect 286 0 10 0;#P connect 365 0 8 0;#P connect 371 0 8 0;#P connect 377 0 8 0;#P connect 383 0 8 0;#P connect 341 0 8 0;#P connect 347 0 8 0;#P connect 353 0 8 0;#P connect 359 0 8 0;#P hidden connect 2 0 8 0;#P lcolor 13;#P fasten 10 0 8 0 683 1124 754 1124;#P lcolor 13;#P fasten 9 0 8 0 619 1142 754 1142;#P lcolor 13;#P connect 227 0 8 0;#P connect 167 0 8 0;#P connect 233 0 8 0;#P connect 173 0 8 0;#P connect 113 0 8 0;#P connect 239 0 8 0;#P connect 179 0 8 0;#P connect 119 0 8 0;#P connect 245 0 8 0;#P connect 185 0 8 0;#P connect 125 0 8 0;#P connect 251 0 8 0;#P connect 191 0 8 0;#P connect 131 0 8 0;#P connect 257 0 8 0;#P connect 197 0 8 0;#P connect 137 0 8 0;#P connect 263 0 8 0;#P connect 203 0 8 0;#P connect 143 0 8 0;#P connect 269 0 8 0;#P connect 209 0 8 0;#P connect 149 0 8 0;#P connect 275 0 8 0;#P connect 215 0 8 0;#P connect 155 0 8 0;#P connect 281 0 8 0;#P connect 221 0 8 0;#P connect 161 0 8 0;#P connect 287 0 8 0;#P connect 293 0 8 0;#P connect 299 0 8 0;#P connect 305 0 8 0;#P connect 311 0 8 0;#P connect 317 0 8 0;#P fasten 292 0 295 0 799 919 780 919 780 792 793 792;#P fasten 232 0 235 0 802 732 783 732 783 605 796 605;#P fasten 172 0 175 0 805 545 786 545 786 418 799 418;#P fasten 112 0 115 0 808 358 789 358 789 231 802 231;#P fasten 292 1 294 0 922 920 920 920 920 816 806 816;#P fasten 295 0 291 0 793 871 806 871;#P connect 294 0 291 0;#P fasten 290 0 291 0 819 871 806 871;#P fasten 232 1 234 0 925 733 923 733 923 629 809 629;#P fasten 230 0 231 0 822 684 809 684;#P connect 234 0 231 0;#P fasten 235 0 231 0 796 684 809 684;#P fasten 172 1 174 0 928 546 926 546 926 442 812 442;#P fasten 175 0 171 0 799 497 812 497;#P connect 174 0 171 0;#P fasten 170 0 171 0 825 497 812 497;#P fasten 232 1 233 0 925 733 813 733;#P fasten 112 1 114 0 925 359 929 359 929 255 815 255;#P fasten 110 0 111 0 828 310 815 310;#P fasten 115 0 111 0 802 310 815 310;#P connect 114 0 111 0;#P fasten 172 1 173 0 928 546 816 546;#P fasten 112 1 113 0 925 359 819 359;#P fasten 292 1 293 0 922 920 822 920;#P fasten 298 0 301 0 999 918 980 918 980 791 993 791;#P fasten 238 0 241 0 1002 731 983 731 983 604 996 604;#P fasten 178 0 181 0 1003 544 986 544 986 417 999 417;#P fasten 118 0 121 0 1008 357 989 357 989 230 1002 230;#P fasten 298 1 300 0 1122 919 1120 919 1120 815 1006 815;#P fasten 296 0 297 0 1019 870 1006 870;#P connect 300 0 297 0;#P fasten 301 0 297 0 993 870 1006 870;#P fasten 238 1 240 0 1125 732 1123 732 1123 628 1009 628;#P fasten 241 0 237 0 996 683 1009 683;#P connect 240 0 237 0;#P fasten 236 0 237 0 1022 683 1009 683;#P fasten 298 1 299 0 1122 919 1010 919;#P fasten 178 1 180 0 1126 545 1126 545 1126 441 1012 441;#P fasten 176 0 177 0 1025 496 1012 496;#P connect 180 0 177 0;#P fasten 181 0 177 0 999 496 1012 496;#P fasten 238 1 239 0 1125 732 1013 732;#P fasten 118 1 120 0 1125 358 1129 358 1129 254 1015 254;#P connect 120 0 117 0;#P fasten 121 0 117 0 1002 309 1015 309;#P fasten 116 0 117 0 1028 309 1015 309;#P fasten 178 1 179 0 1126 545 1016 545;#P fasten 118 1 119 0 1125 358 1019 358;#P fasten 364 0 367 0 1131 1135 1112 1135 1112 1008 1125 1008;#P fasten 364 1 366 0 1254 1136 1252 1136 1252 1032 1138 1032;#P fasten 367 0 363 0 1125 1087 1138 1087;#P connect 366 0 363 0;#P fasten 362 0 363 0 1151 1087 1138 1087;#P fasten 364 1 365 0 1254 1136 1142 1136;#P fasten 304 0 307 0 1195 917 1180 917 1180 790 1193 790;#P fasten 244 0 247 0 1202 730 1183 730 1183 603 1196 603;#P fasten 184 0 187 0 1205 543 1186 543 1186 416 1199 416;#P fasten 124 0 127 0 1208 356 1189 356 1189 229 1202 229;#P fasten 304 1 306 0 1318 918 1320 918 1320 814 1206 814;#P fasten 307 0 303 0 1193 869 1206 869;#P connect 306 0 303 0;#P fasten 302 0 303 0 1219 869 1206 869;#P fasten 244 1 246 0 1325 731 1323 731 1323 627 1209 627;#P fasten 242 0 243 0 1222 682 1209 682;#P connect 246 0 243 0;#P fasten 247 0 243 0 1196 682 1209 682;#P fasten 304 1 305 0 1318 918 1210 918;#P fasten 184 1 186 0 1328 544 1326 544 1326 440 1212 440;#P fasten 182 0 183 0 1225 495 1212 495;#P fasten 187 0 183 0 1199 495 1212 495;#P connect 186 0 183 0;#P fasten 244 1 245 0 1325 731 1213 731;#P fasten 124 1 126 0 1325 357 1329 357 1329 253 1215 253;#P fasten 122 0 123 0 1228 308 1215 308;#P fasten 127 0 123 0 1202 308 1215 308;#P connect 126 0 123 0;#P fasten 184 1 185 0 1328 544 1216 544;#P fasten 124 1 125 0 1325 357 1219 357;#P fasten 370 0 373 0 1331 1134 1312 1134 1312 1007 1325 1007;#P fasten 370 1 372 0 1454 1135 1452 1135 1452 1031 1338 1031;#P fasten 368 0 369 0 1351 1086 1338 1086;#P fasten 373 0 369 0 1325 1086 1338 1086;#P connect 372 0 369 0;#P fasten 370 1 371 0 1454 1135 1354 1135;#P fasten 310 0 313 0 1405 916 1380 916 1380 789 1393 789;#P fasten 250 0 253 0 1402 729 1383 729 1383 602 1396 602;#P fasten 190 0 193 0 1405 542 1386 542 1386 415 1399 415;#P fasten 130 0 133 0 1408 355 1389 355 1389 228 1402 228;#P fasten 310 1 312 0 1528 917 1520 917 1520 813 1406 813;#P fasten 308 0 309 0 1419 868 1406 868;#P connect 312 0 309 0;#P fasten 313 0 309 0 1393 868 1406 868;#P fasten 250 1 252 0 1525 730 1523 730 1523 626 1409 626;#P fasten 253 0 249 0 1396 681 1409 681;#P connect 252 0 249 0;#P fasten 248 0 249 0 1422 681 1409 681;#P fasten 310 1 311 0 1528 917 1410 917;#P fasten 190 1 192 0 1528 543 1526 543 1526 439 1412 439;#P connect 192 0 189 0;#P fasten 193 0 189 0 1399 494 1412 494;#P fasten 188 0 189 0 1425 494 1412 494;#P fasten 250 1 251 0 1525 730 1413 730;#P fasten 130 1 132 0 1525 356 1529 356 1529 252 1415 252;#P fasten 128 0 129 0 1428 307 1415 307;#P connect 132 0 129 0;#P fasten 133 0 129 0 1402 307 1415 307;#P fasten 190 1 191 0 1528 543 1416 543;#P fasten 130 1 131 0 1525 356 1419 356;#P fasten 376 0 379 0 1531 1133 1512 1133 1512 1006 1525 1006;#P fasten 376 1 378 0 1654 1134 1652 1134 1652 1030 1538 1030;#P connect 378 0 375 0;#P fasten 379 0 375 0 1525 1085 1538 1085;#P fasten 374 0 375 0 1551 1085 1538 1085;#P fasten 376 1 377 0 1654 1134 1542 1134;#P fasten 316 0 319 0 1563 915 1540 915 1540 788 1553 788;#P fasten 316 1 318 0 1686 916 1680 916 1680 812 1566 812;#P connect 318 0 315 0;#P fasten 319 0 315 0 1553 867 1566 867;#P fasten 314 0 315 0 1579 867 1566 867;#P fasten 316 1 317 0 1686 916 1570 916;#P fasten 256 0 259 0 1587 729 1568 729 1568 602 1581 602;#P fasten 196 0 199 0 1590 542 1571 542 1571 415 1584 415;#P fasten 136 0 139 0 1593 355 1574 355 1574 228 1587 228;#P fasten 256 1 258 0 1710 730 1708 730 1708 626 1594 626;#P fasten 254 0 255 0 1607 681 1594 681;#P connect 258 0 255 0;#P fasten 259 0 255 0 1581 681 1594 681;#P fasten 196 1 198 0 1713 543 1711 543 1711 439 1597 439;#P fasten 194 0 195 0 1610 494 1597 494;#P fasten 199 0 195 0 1584 494 1597 494;#P connect 198 0 195 0;#P fasten 256 1 257 0 1710 730 1598 730;#P fasten 136 1 138 0 1710 356 1714 356 1714 252 1600 252;#P fasten 134 0 135 0 1613 307 1600 307;#P fasten 139 0 135 0 1587 307 1600 307;#P connect 138 0 135 0;#P fasten 196 1 197 0 1713 543 1601 543;#P fasten 136 1 137 0 1710 356 1604 356;#P fasten 382 0 385 0 1731 1132 1712 1132 1712 1005 1725 1005;#P fasten 382 1 384 0 1854 1133 1852 1133 1852 1029 1738 1029;#P fasten 380 0 381 0 1751 1084 1738 1084;#P fasten 385 0 381 0 1725 1084 1738 1084;#P connect 384 0 381 0;#P fasten 382 1 383 0 1854 1133 1742 1133;#P fasten 340 0 343 0 1782 916 1763 916 1763 789 1776 789;#P fasten 262 0 265 0 1787 728 1768 728 1768 601 1781 601;#P fasten 202 0 205 0 1790 541 1771 541 1771 414 1784 414;#P fasten 142 0 145 0 1793 354 1774 354 1774 227 1787 227;#P fasten 340 1 342 0 1905 917 1903 917 1903 813 1789 813;#P fasten 343 0 339 0 1776 868 1789 868;#P connect 342 0 339 0;#P fasten 338 0 339 0 1802 868 1789 868;#P fasten 340 1 341 0 1905 917 1793 917;#P fasten 262 1 264 0 1910 729 1908 729 1908 625 1794 625;#P fasten 265 0 261 0 1781 680 1794 680;#P connect 264 0 261 0;#P fasten 260 0 261 0 1807 680 1794 680;#P fasten 202 1 204 0 1913 542 1911 542 1911 438 1797 438;#P connect 204 0 201 0;#P fasten 205 0 201 0 1784 493 1797 493;#P fasten 200 0 201 0 1810 493 1797 493;#P fasten 262 1 263 0 1910 729 1798 729;#P fasten 142 1 144 0 1910 355 1914 355 1914 251 1800 251;#P fasten 140 0 141 0 1813 306 1800 306;#P connect 144 0 141 0;#P fasten 145 0 141 0 1787 306 1800 306;#P fasten 202 1 203 0 1913 542 1801 542;#P fasten 142 1 143 0 1910 355 1804 355;#P fasten 346 0 349 0 1982 915 1963 915 1963 788 1976 788;#P fasten 268 0 271 0 1987 727 1968 727 1968 600 1981 600;#P fasten 208 0 211 0 1990 540 1971 540 1971 413 1984 413;#P fasten 148 0 151 0 1993 353 1974 353 1974 226 1987 226;#P fasten 346 1 348 0 2105 916 2103 916 2103 812 1989 812;#P connect 348 0 345 0;#P fasten 349 0 345 0 1976 867 1989 867;#P fasten 344 0 345 0 2002 867 1989 867;#P fasten 346 1 347 0 2105 916 1993 916;#P fasten 268 1 270 0 2110 728 2108 728 2108 624 1994 624;#P fasten 266 0 267 0 2007 679 1994 679;#P connect 270 0 267 0;#P fasten 271 0 267 0 1981 679 1994 679;#P fasten 208 1 210 0 2113 541 2111 541 2111 437 1997 437;#P fasten 206 0 207 0 2010 492 1997 492;#P fasten 211 0 207 0 1984 492 1997 492;#P connect 210 0 207 0;#P fasten 268 1 269 0 2110 728 1998 728;#P fasten 148 1 150 0 2110 354 2114 354 2114 250 2000 250;#P fasten 151 0 147 0 1987 305 2000 305;#P connect 150 0 147 0;#P fasten 146 0 147 0 2013 305 2000 305;#P fasten 208 1 209 0 2113 541 2001 541;#P fasten 148 1 149 0 2110 354 2004 354;#P fasten 352 0 355 0 2182 914 2163 914 2163 787 2176 787;#P fasten 274 0 277 0 2187 726 2168 726 2168 599 2181 599;#P fasten 214 0 217 0 2190 539 2171 539 2171 412 2184 412;#P fasten 154 0 157 0 2193 352 2174 352 2174 225 2187 225;#P fasten 352 1 354 0 2305 915 2303 915 2303 811 2189 811;#P fasten 350 0 351 0 2202 866 2189 866;#P fasten 355 0 351 0 2176 866 2189 866;#P connect 354 0 351 0;#P fasten 352 1 353 0 2305 915 2193 915;#P fasten 274 1 276 0 2310 727 2308 727 2308 623 2194 623;#P fasten 277 0 273 0 2181 678 2194 678;#P connect 276 0 273 0;#P fasten 272 0 273 0 2207 678 2194 678;#P fasten 214 1 216 0 2313 540 2311 540 2311 436 2197 436;#P connect 216 0 213 0;#P fasten 217 0 213 0 2184 491 2197 491;#P fasten 212 0 213 0 2210 491 2197 491;#P fasten 274 1 275 0 2310 727 2198 727;#P fasten 154 1 156 0 2310 353 2314 353 2314 249 2200 249;#P fasten 152 0 153 0 2213 304 2200 304;#P connect 156 0 153 0;#P fasten 157 0 153 0 2187 304 2200 304;#P fasten 214 1 215 0 2313 540 2201 540;#P fasten 154 1 155 0 2310 353 2204 353;#P fasten 358 0 361 0 2382 913 2363 913 2363 786 2376 786;#P fasten 280 0 283 0 2387 725 2368 725 2368 598 2381 598;#P fasten 220 0 223 0 2390 538 2371 538 2371 411 2384 411;#P fasten 160 0 163 0 2393 351 2374 351 2374 224 2387 224;#P fasten 358 1 360 0 2505 914 2503 914 2503 810 2389 810;#P connect 360 0 357 0;#P fasten 361 0 357 0 2376 865 2389 865;#P fasten 356 0 357 0 2402 865 2389 865;#P fasten 358 1 359 0 2505 914 2393 914;#P fasten 280 1 282 0 2510 726 2508 726 2508 622 2394 622;#P fasten 278 0 279 0 2407 677 2394 677;#P connect 282 0 279 0;#P fasten 283 0 279 0 2381 677 2394 677;#P fasten 220 1 222 0 2513 539 2511 539 2511 435 2397 435;#P fasten 218 0 219 0 2410 490 2397 490;#P fasten 223 0 219 0 2384 490 2397 490;#P connect 222 0 219 0;#P fasten 280 1 281 0 2510 726 2398 726;#P fasten 160 1 162 0 2516 352 2514 352 2514 248 2400 248;#P fasten 163 0 159 0 2387 303 2400 303;#P connect 162 0 159 0;#P fasten 158 0 159 0 2413 303 2400 303;#P fasten 220 1 221 0 2513 539 2401 539;#P fasten 160 1 161 0 2516 352 2404 352;#P pop;