max v2;#N vpatcher 94 44 1243 818;#P window setfont Times 9.;#P window linecount 1;#P newex 925 662 58 1310729 pack voice 0;#P newex 925 635 18 1310729 t b;#P newex 925 687 79 1310729 print $1-releasing;#P newex 791 631 18 1310729 t b;#P newex 806 681 74 1310729 print $1-playing;#P newex 806 658 58 1310729 pack voice 0;#P window setfont "Sans Serif" 9.;#P number 854 636 35 9 0 0 0 3 0 0 0 221 221 221 222 222 222 0 0 0;#P newex 873 574 48 196617 loadbang;#N out 1;#P newobj 187 730 33 196617 out 1;#P newex 890 433 60 196617 loadmess 0;#P message 800 548 47 196617 mute \$1;#P newex 800 525 31 196617 == 0;#P newex 854 613 50 196617 thispoly~;#P newex 370 183 67 196617 pvar channel;#B color 13;#P newex 361 206 90 196617 pvar bendinterval;#B color 13;#P newex 149 223 66 196617 pvar sustain;#B color 13;#P newex 169 203 67 196617 pvar release;#B color 13;#P newex 62 223 71 196617 pvar velocity;#B color 13;#P newex 77 203 62 196617 pvar attack;#B color 13;#P newex 92 183 60 196617 pvar decay;#B color 13;#P newex 240 223 88 196617 pvar freqmultcar;#B color 13;#P newex 253 203 91 196617 pvar freqmultmod;#B color 13;#P newex 269 183 95 196617 pvar modindexcoef;#B color 13;#P newex 11 155 362 196617 unpack 0 0 0 0 0 0 0. 0. 0. 0. 0;#P newex 863 335 31 196617 t 0 b;#P newex 863 315 250 196617 r $1/allnotesrelease;#B color 11;#P message 875 274 23 196617 0 0;#P newex 436 580 111 196617 pack 0. 0;#P window setfont Times 9.;#P newex 436 495 111 1310729 t l 20;#P newex 436 453 230 1310729 r $1/modindexcoefch;#B color 11;#P newex 47 379 65 1310729 t l 20;#P window setfont "Sans Serif" 9.;#N vpatcher 670 417 1115 776;#P window setfont Times 9.;#P flonum 23 293 35 9 0 0 0 20 0 0 0 221 221 221 222 222 222 0 0 0;#P window linecount 0;#P newex 23 269 79 1310729 scale 0. 1. 0. 1.;#P flonum 154 215 35 9 0 0 0 20 0 0 0 221 221 221 222 222 222 0 0 0;#P flonum 23 251 35 9 0 0 0 20 0 0 0 221 221 221 222 222 222 0 0 0;#P newex 23 229 33 1310729 / 127.;#N comlet mod index coef;#P inlet 136 23 15 0;#P comment 152 23 67 1310729 mod index coef;#N comlet mod index coef adjust + ch;#P inlet 23 23 15 0;#P window linecount 2;#P comment 39 23 67 1310729 mod index coef adjust + ch;#P window linecount 1;#P newex 120 75 27 1310729 i;#P newex 120 95 62 1310729 expr $s2[$i1];#B color 5;#P message 172 76 290 1310729 symbol $1/modindexcoefchtab;#P newex 136 47 46 1310729 t b f b;#N comlet modindexcoef;#P outlet 23 314 15 0;#N comlet channel;#P inlet 367 23 15 0;#P number 367 46 35 9 0 0 0 20 0 0 0 221 221 221 222 222 222 0 0 0;#P window linecount 2;#P comment 58 200 67 1310729 mod coef adjust 0-127;#P number 23 204 35 9 0 127 35 20 0 0 0 221 221 221 222 222 222 0 0 0;#P window linecount 1;#P newex 23 173 27 1310729 gate;#P newex 23 121 44 1310729 unpack;#P newex 57 147 27 1310729 ==;#P comment 384 23 40 1310729 channel;#P connect 14 0 2 0;#P connect 1 0 3 0;#P connect 3 0 4 0;#P fasten 11 0 4 0 125 195 28 195;#P connect 4 0 17 0;#P connect 17 0 18 0;#P connect 18 0 20 0;#P connect 20 0 21 0;#P connect 21 0 8 0;#P connect 2 0 3 1;#P connect 2 1 1 0;#P connect 19 0 20 3;#P connect 6 0 1 1;#P connect 9 0 12 0;#P connect 12 0 11 0;#P connect 16 0 9 0;#P connect 6 0 12 1;#P connect 9 1 19 0;#P connect 9 2 10 0;#P connect 10 0 11 1;#P connect 7 0 6 0;#P pop;#P newobj 436 560 69 196617 p modcoefadj;#B color 6;#P newex 436 601 32 196617 line~;#P window linecount 2;#P comment 786 372 38 196617 amp release;#P window linecount 1;#P newex 47 503 51 196617 pack 0. 0;#P number 303 432 35 9 0 0 0 3 0 0 0 221 221 221 222 222 222 0 0 0;#P objectname channel;#P window setfont Times 9.;#P comment 306 419 40 1310729 channel;#P window setfont "Sans Serif" 9.;#P comment 54 437 69 196617 bend interval;#P flonum 62 449 37 9 0 0 0 3 0 0 0 221 221 221 222 222 222 0 0 0;#P objectname bendinterval;#P window setfont Times 9.;#P newex 47 359 163 1310729 r $1/bendch;#B color 11;#P window setfont "Sans Serif" 9.;#N vpatcher 334 66 784 484;#P window setfont Times 9.;#P window linecount 1;#P newex 120 75 27 1310729 i;#P newex 120 95 62 1310729 expr $s2[$i1];#B color 5;#P message 172 76 206 1310729 symbol $1/bendchtab;#P newex 136 47 46 1310729 t b f b;#N comlet bend freq mult value;#P outlet 73 361 15 0;#N comlet bend interval (pitch float);#P inlet 136 27 15 0;#P window setfont "Sans Serif" 9.;#P comment 152 27 69 196617 bend interval;#N comlet bendch;#P inlet 23 27 15 0;#N comlet channel;#P inlet 367 27 15 0;#P number 367 46 35 9 0 0 0 3 0 0 0 221 221 221 222 222 222 0 0 0;#P flonum 154 200 37 9 0 0 0 3 0 0 0 221 221 221 222 222 222 0 0 0;#P objectname bendenvinterval;#P newex 73 299 91 196617 * 0.;#P flonum 73 279 56 9 0 0 0 3 0 0 0 221 221 221 222 222 222 0 0 0;#P newex 73 259 27 196617 - 1.;#P newex 23 238 24 196617 t 1.;#P comment 58 200 62 196617 bend 0-127;#P number 23 200 35 9 0 127 35 3 0 0 0 221 221 221 222 222 222 0 0 0;#P newex 23 218 60 196617 split 64 64;#P newex 73 238 40 196617 / 63.5;#P window setfont Times 9.;#P newex 23 173 27 1310729 gate;#P newex 23 127 44 1310729 unpack;#P newex 57 147 27 1310729 ==;#P comment 384 27 40 1310729 channel;#P window setfont "Sans Serif" 9.;#P flonum 73 341 35 9 0 0 0 3 0 0 0 221 221 221 222 222 222 0 0 0;#P newex 73 319 110 196617 expr pow(2\\\,$f1/12);#P window linecount 0;#P comment 39 27 40 196617 bendch;#P connect 18 0 5 0;#P connect 4 0 6 0;#P fasten 24 0 9 0 125 195 28 195;#P connect 6 0 9 0;#P connect 9 0 8 0;#P connect 8 0 11 0;#P connect 5 0 6 1;#P connect 5 1 4 0;#P connect 8 1 7 0;#P connect 7 0 12 0;#P fasten 11 0 12 0 28 257 78 257;#P connect 12 0 13 0;#P connect 13 0 14 0;#P connect 14 0 1 0;#P connect 1 0 2 0;#P connect 2 0 21 0;#P connect 16 0 4 1;#P connect 22 0 25 0;#P connect 25 0 24 0;#P connect 20 0 22 0;#P connect 16 0 25 1;#P connect 22 1 15 0;#P connect 15 0 14 1;#P connect 22 2 23 0;#P connect 23 0 24 1;#P connect 17 0 16 0;#P pop;#P newobj 47 473 40 196617 p bend;#B color 6;#P newex 11 189 41 196617 * 0.01;#P newex 372 351 135 196617 *~;#P newex 372 331 29 196617 sig~;#P newex 707 105 20 196617 t b;#P newex 11 87 50 196617 gate 2;#P newex 144 59 27 196617 + 1;#P newex 110 59 31 196617 == 0;#P newex 63 59 44 196617 zl nth 2;#P newex 11 56 27 196617 t l l;#P newex 47 523 41 196617 line~ 1;#B color 5;#P newex 11 554 46 196617 *~;#P newex 11 498 29 196617 sig~;#P comment 746 212 43 196617 release;#P window linecount 2;#P comment 585 408 82 196617 amp + modindex envelope;#P window linecount 1;#P comment 426 269 64 196617 freqmultmod;#P newex 103 130 62 196617 pvar active;#B color 13;#P comment 609 205 42 196617 sustain;#P number 651 204 35 9 0 0 0 3 0 0 0 221 221 221 222 222 222 0 0 0;#P objectname sustain;#P number 739 387 43 9 0 0 0 3 0 0 0 221 221 221 222 222 222 0 0 0;#P objectname release;#P comment 656 345 36 196617 decay;#P number 655 358 43 9 0 0 0 3 0 0 0 221 221 221 222 222 222 0 0 0;#P objectname decay;#P comment 593 295 38 196617 attack;#P comment 465 524 71 196617 modindexcoef;#P number 592 308 43 9 0 0 0 3 0 0 0 221 221 221 222 222 222 0 0 0;#P objectname attack;#P flonum 465 538 35 9 0 0 0 3 0 0 0 221 221 221 222 222 222 0 0 0;#P objectname modindexcoef;#P newex 389 621 57 196617 *~;#P flonum 391 268 35 9 0 0 0 3 0 0 0 221 221 221 222 222 222 0 0 0;#P objectname freqmultmod;#P flonum 30 330 35 9 0 0 0 3 0 0 0 221 221 221 222 222 222 0 0 0;#P objectname freqmultcar;#P newex 372 311 29 196617 * 1.;#P newex 11 349 29 196617 * 1.;#P newex 389 437 42 196617 curve~;#B color 5;#P newex 372 642 27 196617 *~;#P newex 372 371 59 196617 cycle~ 440;#P newex 634 243 27 196617 * 1.;#P newex 707 408 74 196617 pack 0. 0 -0.5;#P newex 571 159 62 196617 maximum 1;#P newex 651 222 40 196617 / 127.;#P newex 571 390 118 196617 pack 0. 0 -0.5 0. 0 -0.5;#P newex 828 446 21 196617 t 0;#P newex 828 420 27 196617 del;#P newex 28 686 42 196617 curve~;#B color 5;#P newex 854 253 31 196617 t 0 b;#P newex 854 233 230 196617 r $1/allnotesoff;#B color 11;#P comment 606 141 44 196617 velocity;#P newex 11 660 40 196617 cycle~;#P newex 11 110 103 196617 t l 0 1;#P toggle 854 462 15 0;#P objectname active;#N in 1;#P newobj 11 22 25 196617 in 1;#N out~ 1;#P newobj 11 730 35 196617 out~ 1;#P number 571 140 35 9 0 0 0 3 0 0 0 221 221 221 222 222 222 0 0 0;#P objectname velocity;#P newex 571 217 38 196617 / 127.;#P newex 11 708 27 196617 *~;#P newex 11 246 29 196617 mtof;#P flonum 11 227 35 9 0 0 0 3 0 0 0 221 221 221 222 222 222 0 0 0;#P flonum 11 267 48 9 0 0 0 3 0 0 0 221 221 221 222 222 222 0 0 0;#P comment 36 24 135 196617 [pitch midicents] [velocity];#P window linecount 2;#P comment 869 463 57 196617 Žtat (actif \, inactif);#P window linecount 1;#P comment 16 317 64 196617 freqmultcar;#P connect 10 0 49 0;#P fasten 52 0 53 0 149 81 16 81;#P connect 53 0 12 0;#P connect 12 0 75 0;#P connect 75 0 57 0;#P connect 57 0 4 0;#P connect 4 0 5 0;#P connect 5 0 3 0;#P connect 3 0 28 0;#P connect 28 0 46 0;#P connect 46 0 47 0;#P connect 47 0 13 0;#P connect 13 0 6 0;#P connect 6 0 9 0;#P fasten 23 0 17 0 712 681 33 681;#P lcolor 13;#P fasten 20 0 17 0 576 681 33 681;#P lcolor 13;#P connect 17 0 6 1;#P connect 30 0 28 1;#P connect 26 0 13 1;#P connect 59 0 68 0;#P connect 68 0 58 0;#P connect 58 0 64 0;#P connect 64 0 48 0;#P connect 48 0 47 1;#P connect 49 0 53 1;#P connect 75 1 81 0;#P connect 60 0 58 1;#P connect 49 1 50 0;#P connect 75 2 80 0;#P connect 63 0 58 2;#P connect 12 1 64 1;#P lcolor 15;#P fasten 68 1 64 1 107 406 93 406;#P lcolor 15;#P connect 75 3 79 0;#P connect 12 2 42 0;#P connect 50 0 51 0;#P connect 51 0 52 0;#P connect 75 4 83 0;#P connect 75 5 82 0;#P connect 75 6 78 0;#P connect 75 7 77 0;#P connect 75 8 76 0;#P connect 75 9 84 0;#P connect 75 10 85 0;#P fasten 3 0 29 0 16 298 377 298;#P connect 29 0 55 0;#P connect 55 0 56 0;#P connect 56 0 25 0;#P connect 25 0 26 0;#P fasten 20 0 27 0 576 428 394 428;#P lcolor 5;#P fasten 23 0 27 0 712 432 394 432;#P lcolor 5;#P connect 27 0 32 0;#P connect 32 0 26 1;#P connect 31 0 29 1;#P connect 69 0 70 0;#P connect 70 0 67 0;#P connect 67 0 71 0;#P connect 71 0 66 0;#P connect 66 0 32 1;#P connect 33 0 67 1;#P connect 63 0 67 2;#P fasten 48 0 56 1 52 545 232 545 232 261 502 261;#P lcolor 7;#P connect 70 1 71 1;#P connect 12 1 71 1;#P lcolor 15;#P connect 8 0 22 0;#P connect 22 0 7 0;#P connect 7 0 20 0;#P connect 34 0 20 1;#P fasten 7 0 24 0 576 238 639 238;#P connect 24 0 20 3;#P connect 40 0 21 0;#P connect 21 0 24 1;#P connect 37 0 20 4;#P connect 53 1 54 0;#P connect 54 0 23 0;#P connect 74 1 23 0;#P connect 72 0 23 0;#P lcolor 7;#P connect 39 0 23 1;#P lcolor 5;#P connect 3 0 95 0;#P connect 11 0 87 0;#P connect 87 0 88 0;#P connect 95 0 93 0;#P fasten 54 0 18 0 712 161 833 161;#P connect 18 0 19 0;#P fasten 39 0 18 1 744 404 850 404;#P lcolor 5;#P connect 15 0 16 0;#P fasten 89 0 11 0 895 456 859 456;#P connect 16 0 11 0;#P lcolor 7;#P connect 19 0 11 0;#P connect 74 0 11 0;#P connect 91 0 86 0;#P connect 11 0 86 0;#P connect 88 0 86 0;#P connect 86 0 92 0;#P connect 92 0 93 1;#P connect 73 0 74 0;#P connect 16 1 72 0;#P connect 54 0 97 0;#P connect 97 0 98 0;#P connect 92 0 98 1;#P pop;