max v2;#N vpatcher 108 476 388 768;#P hidden inlet 218 334 15 0;#P button 75 284 15 0;#P window setfont "Sans Serif" 9.;#P window linecount 1;#P comment 93 284 39 196617 delete;#P button 9 284 15 0;#P comment 26 284 31 196617 build;#P hidden newex 145 312 133 196617 editorwindow /synth /tape;#B color 6;#N thispatcher;#Q end;#P hidden newobj 145 342 61 196617 thispatcher;#P window linecount 0;#P comment 2376 0 100 196617;#P window linecount 1;#P hidden newex 9 312 110 196617 t_edit-builder synth 2;#B color 6;#P window linecount 0;#P comment 1 0 100 196617;#P hidden connect 6 0 1 0;#P hidden connect 8 0 1 1;#P hidden fasten 3 0 4 0 150 363 295 363 295 308 150 308;#P hidden connect 4 0 3 0;#P hidden fasten 1 0 3 0 14 337 150 337;#P pop;