max v2;#N vpatcher 159 101 1096 715;#P origin -51 102;#P window setfont "Sans Serif" 9.;#P window linecount 2;#P message 659 278 183 196617 \; $1/channel 1 \;;#P window linecount 1;#P newex 99 463 145 196617 t_fxmetersend $1;#B color 4;#P window setfont Times 9.;#P newex 274 340 120 1310729 s $1_busy;#B color 11;#P window setfont "Sans Serif" 9.;#P newex 73 352 41 196617 *~ 0.1;#P flonum 125 420 35 9 0 0 0 3 0 0 0 221 221 221 222 222 222 0 0 0;#P newex 73 420 49 196617 t_vol~ 2;#P newex 112 394 351 196617 makeparam $1/vol $1 f 1 0. 2. 1 20;#B color 13;#P newex 18 229 29 196617 gate;#P newex 18 21 261 196617 makeswitch $1/sw $1 tape_switchstate;#B color 13;#P button 659 68 15 0;#P newex 627 232 165 196617 s $1/spat/init;#B color 11;#P newex 659 39 148 196617 moduleinit $1;#B color 13;#P window linecount 7;#P message 659 96 204 196617 \; $1/sw/init bang \; $1/steal 1 \; $1/polyphony 16 \; $1/vol/init bang \; $1/allnotesoff bang \; module_register $1 \;;#P number 135 247 35 9 0 0 64 3 0 0 0 221 221 221 222 222 222 0 0 0;#P window setfont Times 9.;#P window linecount 1;#P message 135 266 41 1310729 open \$1;#P window setfont "Sans Serif" 9.;#P comment 77 144 152 196617 convert float pitch to midicents;#P window setfont Times 9.;#P newex 37 182 44 1310729 zl join;#P newex 37 162 16 1310729 t i;#P newex 37 142 35 1310729 * 100.;#P newex 37 122 44 1310729 zl slice 1;#P toggle 37 79 15 0;#P newex 37 100 36 1310729 gate;#P newex 37 55 53 1310729 dspstate~;#P newex 448 189 35 1310729 unpack;#P number 483 223 35 9 0 0 0 20 0 0 0 221 221 221 222 222 222 0 0 0;#P newex 448 166 45 1310729 t l 100;#P newex 63 78 45 1310729 r $1/note;#B color 11;#P newex 448 144 66 1310729 r $1/showbusy;#B color 11;#P toggle 448 227 15 0;#P newex 448 246 45 1310729 metro;#P message 448 266 49 1310729 busymap 1;#P message 215 265 38 1310729 steal \$1;#P newex 37 204 76 1310729 prepend midinote;#P message 99 266 34 1310729 open 1;#P number 305 248 35 9 0 32 3 20 0 0 0 221 221 221 222 222 222 0 0 0;#P newex 305 227 71 1310729 r $1/polyphony;#B color 11;#P toggle 215 247 15 0;#P newex 215 226 46 1310729 r $1/steal;#B color 11;#P newex 56 227 46 1310729 r $1/poly;#B color 11;#P message 305 266 45 1310729 voices \$1;#P comment 341 248 50 1310729 also resets;#P window setfont "Sans Serif" 9.;#P comment 377 46 132 196617 arg 1 : module prefix name \;;#P message 514 416 20 196617 64;#P window setfont Times 9.;#P newex 514 546 153 1310729 s $1/modindexcoefch;#B color 11;#P window setfont "Sans Serif" 9.;#P newex 514 525 48 196617 pack 0 1;#P user hslider 514 503 18 128 128 1 0 0;#P window setfont Times 9.;#P newex 514 478 118 1310729 s $1/bendch;#B color 11;#P window setfont "Sans Serif" 9.;#P newex 514 457 48 196617 pack 0 1;#P user hslider 514 435 18 128 128 1 0 0;#P window setfont Times 9.;#P newex 331 525 40 1310729 zl rot -1;#N vtable 128 30 89 240 256 4 128 $1/modindexcoefchtab;#P newobj 331 545 180 1310729 table $1/modindexcoefchtab;#B color 4;#P newex 331 505 152 1310729 r $1/modindexcoefch;#B color 11;#P newex 330 457 40 1310729 zl rot -1;#N vtable 128 20 74 230 241 4 128 $1/bendchtab;#P newobj 330 477 145 1310729 table $1/bendchtab;#B color 4;#P newex 330 437 117 1310729 r $1/bendch;#B color 11;#P window setfont "Sans Serif" 9.;#P window linecount 2;#P comment 438 331 107 196617 patch by Tom Mays contact@tommays.net;#P window linecount 1;#P newex 73 499 156 196617 send $1/out~;#B color 4;#P newex 73 317 211 196617 poly~ t_synth_ 16 args $1;#B color 6;#P connect 49 0 50 0;#P connect 35 0 37 0;#P connect 37 0 36 0;#P connect 36 0 38 0;#P connect 38 0 39 0;#P connect 39 0 40 0;#P connect 40 0 41 0;#P connect 41 0 25 0;#P connect 25 0 50 1;#P connect 31 0 36 1;#P connect 38 1 41 1;#P connect 50 0 0 0;#P connect 24 0 0 0;#P connect 43 0 0 0;#P connect 26 0 0 0;#P connect 18 0 0 0;#P connect 19 0 0 0;#P connect 27 0 0 0;#P connect 0 0 54 0;#P connect 54 0 52 0;#P connect 52 0 1 0;#P connect 52 0 56 0;#P connect 53 0 52 1;#P connect 51 0 52 1;#P connect 52 1 53 0;#P connect 44 0 43 0;#P connect 20 0 21 0;#P connect 21 0 26 0;#P connect 0 1 55 0;#P connect 22 0 23 0;#P connect 23 0 18 0;#P connect 3 0 5 0;#P connect 5 0 4 0;#P connect 6 0 8 0;#P connect 8 0 7 0;#P connect 30 0 32 0;#P connect 32 0 34 0;#P connect 34 0 29 0;#P connect 29 0 28 0;#P connect 28 0 27 0;#P connect 32 1 33 0;#P connect 34 1 33 0;#P connect 33 0 28 1;#P connect 15 0 9 0;#P connect 9 0 10 0;#P connect 10 0 11 0;#P connect 12 0 13 0;#P connect 13 0 14 0;#P fasten 48 0 47 0 664 89 632 89;#P connect 46 0 48 0;#P connect 48 0 45 0;#P pop;