max v2;#N vpatcher 498 163 1285 753;#P origin 9 71;#P window setfont "Sans Serif" 9.;#P message 235 110 20 196617 lfo;#P message 193 110 40 196617 brcosa;#P message 159 110 23 196617 adc;#N vpatcher 30 89 630 489;#P window setfont "Sans Serif" 9.;#P window linecount 4;#P message 194 189 348 196617 </table><div id="tm_footer"> cr <h3>About tapemovie</h3> <p>tapemovie is an environment for realtime audio and video .<br>Tom mays - Olivier Pfeiffer - Renaud Rubiano. cr <br>produced by didascalie.net cr <br> cr <a href="http://tapemovie.org/">tapemovie.org</a>. </p> </body> </html>;#P inlet 50 30 15 0;#P outlet 50 151 15 0;#P window linecount 5;#P message 50 50 396 196617 </table><div id="tm_footer"> cr tapemovie and tapemovie.org is copyright © 2008-2010 by the contributing authors. cr <br> cr The software \, documentation \, and other distributed materials are licensed under the terms of the GNU LGPL. More information is available from the Free Software Foundation. cr <br> cr This site is generously hosted by <a href="http://didascalie.net/">didascalie.net </a>.</body> </html>;#P connect 2 0 0 0;#P connect 0 0 1 0;#P pop;#P newobj 269 330 46 196617 p footer;#P window setfont "Sans Serif" 14.;#P comment 49 39 694 196622 BUILD NECESSAIRE - (se base sur le fichier $1/params rempli à l'init);#P comment 308 113 282 196622 /tapemovie-lib/documentation/modules;#B frgb 0 0 222;#P window setfont "Sans Serif" 12.;#N vpatcher 495 181 1162 892;#P window setfont "Sans Serif" 9.;#P window linecount 0;#P newex 248 569 54 196617 zl_change;#P newex 334 369 81 196617 excludeinstance;#P newex 248 547 81 196617 excludeinstance;#P window setfont "Sans Serif" 12.;#P comment 303 395 80 196620 submodules;#P window setfont "Sans Serif" 9.;#P newex 248 469 31 196617 t b 0;#P newex 248 503 36 196617 zl reg;#P newex 248 524 173 196617 sprintf %s.%ld/%s;#P newex 248 327 62 196617 t s s s;#P newex 248 443 47 196617 zl iter 1;#P newex 248 418 72 196617 route symbol;#P button 209 74 15 0;#P button 253 74 15 0;#P newex 317 132 142 196617 sprintf refer %s_submodules;#N coll t_submodules;#P newobj 248 396 53 196617 coll;#B color 5;#P window setfont "Sans Serif" 10.;#P comment 253 187 52 196618 x_config;#P window setfont "Sans Serif" 9.;#P newex 240 100 27 196617 t t t;#P newex 196 100 36 196617 t m m;#P newex 196 51 98 196617 sel movie tape;#P window setfont "Sans Serif" 12.;#P window linecount 2;#P comment 302 247 87 196620 numérote les instances;#P window setfont "Sans Serif" 9.;#P window linecount 1;#P newex 196 132 118 196617 sprintf refer %s_config;#P newex 248 282 172 196617 t b i;#P newex 300 349 78 196617 sprintf %s.%ld;#P newex 248 304 51 196617 zl reg;#P newex 218 260 40 196617 uzi;#P newex 218 240 18 196617 t i;#P newex 196 220 32 196617 sel 0;#P newex 247 205 69 196617 route symbol;#P window setfont "Sans Serif" 10.;#P window linecount 2;#P comment 79 215 117 196618 verifie s'il le nombre d'instance n'est pas 0;#P window setfont "Sans Serif" 9.;#P window linecount 1;#P newex 196 154 46 196617 t dump l;#N coll t_config;#P newobj 196 180 53 196617 coll;#B color 5;#P inlet 196 31 15 0;#P outlet 334 392 15 0;#P outlet 248 594 15 0;#P connect 2 0 15 0;#P connect 15 0 16 0;#P connect 22 0 16 0;#P connect 17 0 13 0;#P connect 16 0 13 0;#P connect 13 0 4 0;#P fasten 4 0 3 0 201 177 201 177;#P fasten 4 1 3 0 237 177 201 177;#P connect 3 0 7 0;#P connect 7 1 8 0;#P connect 8 0 9 0;#P connect 15 1 17 0;#P connect 21 0 17 0;#P connect 3 1 6 0;#P connect 9 2 12 0;#P connect 12 0 10 0;#P connect 10 0 25 0;#P connect 25 0 19 0;#P connect 20 0 19 0;#P connect 19 0 23 0;#P connect 23 0 24 0;#P connect 23 1 24 0;#P connect 24 0 28 0;#P connect 28 0 27 0;#P connect 27 0 26 0;#P connect 26 0 30 0;#P connect 30 0 32 0;#P connect 32 0 0 0;#P connect 25 1 27 1;#P connect 6 0 10 1;#P connect 24 0 11 0;#P connect 25 2 11 0;#P connect 17 1 20 0;#P connect 16 1 20 0;#P connect 12 1 26 1;#P connect 11 0 31 0;#P connect 31 0 1 0;#P connect 12 1 11 1;#P fasten 24 0 26 2 253 465 361 465;#P pop;#P newobj 534 274 122 196620 p todo sumbodules;#B color 6;#N vpatcher 411 144 848 489;#P window setfont "Sans Serif" 9.;#P window linecount 0;#N coll modules 1;#P newobj 42 265 74 196617 coll modules 1;#P inlet 12 24 15 0;#P newex 339 73 71 196617 append -1 -1;#P newex 104 213 50 196617 t resume;#P newex 104 192 44 196617 del 300;#P newex 12 44 338 196617 t b length start sort;#P newex 12 106 119 196617 i;#P newex 42 169 73 196617 t next pause b;#P newex 12 140 40 196617 uzi;#P newex 121 80 158 196617 grab;#P outlet 63 309 15 0;#P window linecount 1;#P newex 63 287 69 196617 route symbol;#P connect 10 0 6 0;#P connect 6 0 5 0;#P connect 5 0 3 0;#P fasten 8 0 3 0 109 236 170 236 170 135 17 135;#P fasten 4 1 3 0 78 240 174 240 174 131 17 131;#P connect 3 2 4 0;#P fasten 4 0 11 0 47 225 47 225;#P fasten 9 0 11 0 344 257 47 257;#P fasten 6 2 11 0 235 245 47 245;#P fasten 2 1 11 0 274 251 47 251;#P connect 11 1 0 0;#P connect 0 0 1 0;#P connect 4 2 7 0;#P connect 7 0 8 0;#P connect 6 1 2 0;#P connect 2 0 5 1;#P connect 6 3 9 0;#P pop;#P newobj 17 60 278 196620 p dump all modulesone by one (delay 300ms);#B color 6;#P window setfont "Sans Serif" 9.;#P window linecount 3;#P message 287 162 307 196617 <!DOCTYPE html PUBLIC "-//W3C//DTD HTML 4.01 Transitional//EN>" cr <html> cr <head> cr <meta http-equiv="content-type" content="text/html\\\;charset=ISO-8859-1"> cr <title>;#P button 17 25 30 0;#P window setfont "Sans Serif" 12.;#P window linecount 1;#N vpatcher 334 267 547 581;#P window setfont "Sans Serif" 9.;#P newex 19 85 146 196617 t l l 2;#P newex 127 244 40 196617 itoa;#P newex 86 216 51 196617 zl slice 1;#P newex 87 193 99 196617 gate 2;#P newex 87 164 21 196617 t 1;#P newex 87 139 38 196617 sel 47;#P newex 87 115 51 196617 zl slice 1;#P newex 19 61 40 196617 atoi;#P inlet 19 41 15 0;#P outlet 127 266 15 0;#P connect 1 0 2 0;#P connect 2 0 9 0;#P connect 6 0 7 0;#P connect 9 1 3 0;#P connect 3 0 4 0;#P connect 4 0 5 0;#P fasten 9 2 6 0 160 186 92 186;#P connect 5 0 6 0;#P connect 7 1 8 0;#P fasten 6 1 8 0 181 239 132 239;#P connect 8 0 0 0;#P fasten 9 0 6 1 24 112 12 112 12 30 181 30;#P lcolor 2;#P pop;#P newobj 17 110 101 196620 p remove slash;#B color 6;#P window setfont "Sans Serif" 9.;#P newex 17 88 81 196617 excludeinstance;#P window setfont "Sans Serif" 12.;#N vpatcher 403 265 1234 722;#P origin 0 3;#P window setfont "Sans Serif" 9.;#P window linecount 8;#P message 673 73 134 196617 <table> cr <h3>Controllers</h3> <table> <tr class="tableHeading2"> <td> Name </td> <td> Type </td> <td> Default Value </td> <td> Range </td> <td> Ramp Enabled </td> <td> Description </td> </tr> cr;#P window linecount 1;#N coll dummy 1;#P newobj 306 149 70 196617 coll dummy 1;#B color 5;#P newex 458 81 72 196617 prepend refer;#P newex 532 286 51 196617 tosymbol;#P newex 28 170 144 196617 t b l;#P newex 448 284 25 196617 t no;#P newex 475 284 33 196617 t yes;#P newex 448 260 64 196617 sel 0 1;#P newex 162 193 80 196617 unpack s f f f i;#P newex 28 230 94 196617 zl reg;#P window linecount 3;#P newex 28 344 518 196617 sprintf <tr> <td class="instructionName"> %s </td> <td class="instructionType"> %s </td> <td class="instructionDefault"> %f </td> <td class="instructionRange"> %f %f </td> <td class="instructionRamp"> %s </td> <td class="instructionDescription"> %s </td> </tr>;#B color 5;#P window linecount 2;#P newex 112 194 41 196617 route symbol;#P window linecount 1;#P newex 28 49 656 196617 t dump s dummy b;#P newex 243 77 143 196617 sprintf refer /%s.1/controls;#N coll /lfo.1/controls 1;#P newobj 28 148 263 196617 coll params 1;#B color 5;#P inlet 28 22 15 0;#P outlet 28 413 15 0;#P window linecount 0;#P comment 586 287 123 196617 description du paramètre;#P connect 2 0 5 0;#P fasten 15 0 3 0 463 137 33 137;#P fasten 4 0 3 0 248 122 33 122;#P connect 5 0 3 0;#P connect 3 0 13 0;#P connect 13 0 8 0;#P connect 8 0 7 0;#P connect 7 0 1 0;#P fasten 17 0 1 0 678 405 33 405;#P connect 3 1 6 0;#P connect 6 0 8 1;#P connect 9 0 7 1;#P connect 13 1 9 0;#P connect 9 1 7 2;#P connect 5 1 4 0;#P connect 9 2 7 3;#P connect 9 3 7 4;#P connect 9 4 10 0;#P connect 10 0 12 0;#P connect 11 0 7 5;#P connect 12 0 7 5;#P connect 5 2 15 0;#P connect 10 1 11 0;#P connect 14 0 7 6;#P connect 5 3 17 0;#P pop;#P newobj 125 261 87 196620 p controllers;#B color 6;#P window setfont "Sans Serif" 9.;#P newex 17 135 339 196617 t b s s s s b clear;#P newex 17 176 64 196617 zl reg;#P newex 17 156 44 196617 del 100;#P newex 17 304 262 196617 t b s b;#P newex 17 330 96 196617 v /tapemovie/path;#B color 14;#P window linecount 3;#P newex 17 358 136 196617 sprintf write %stapemovie-lib/documentation/modules/%s.html;#P window setfont "Sans Serif" 12.;#P window linecount 1;#N vpatcher 403 265 1216 711;#P origin 28 0;#P window setfont "Sans Serif" 9.;#P message 353 212 141 196617 "description is not available";#P newex 353 190 48 196617 loadbang;#P message 645 71 135 196617 <h3>Parameters</h3> <table> <tr class="tableHeading2"> <td> Name </td> <td> Type </td> <td> Default Value </td> <td> Range </td> <td> Ramp Enabled </td> <td> Description </td> </tr> cr;#P window linecount 1;#N coll dummy 1;#P newobj 381 154 70 196617 coll dummy 1;#B color 5;#P newex 430 73 72 196617 prepend refer;#P newex 353 240 51 196617 tosymbol;#P newex 0 138 144 196617 t b l;#P newex 270 238 25 196617 t no;#P newex 297 238 33 196617 t yes;#P newex 270 214 64 196617 sel 0 1;#P newex 134 168 80 196617 unpack s f f f i;#P newex 0 205 94 196617 zl reg;#P window linecount 4;#P newex 0 289 338 196617 sprintf <tr> <td class="instructionName"> %s </td> <td class="instructionType"> %s </td> <td class="instructionDefault"> %f </td> <td class="instructionRange"> %f %f </td> <td class="instructionRamp"> %s </td> <td class="instructionDescription"> %s </td> </tr>;#B color 5;#P window linecount 2;#P newex 84 169 41 196617 route symbol;#P window linecount 1;#P newex 0 47 656 196617 t dump s dummy b;#P newex 215 72 139 196617 sprintf refer /%s.1/params;#N coll /lfo.1/params 1;#P newobj 0 110 263 196617 coll params 1;#B color 5;#P inlet 0 25 15 0;#P outlet 0 393 15 0;#P window linecount 0;#P comment 408 241 123 196617 description du paramètre;#P connect 2 0 5 0;#P fasten 4 0 3 0 220 98 5 98;#P fasten 15 0 3 0 435 105 5 105;#P connect 5 0 3 0;#P connect 3 0 13 0;#P connect 13 0 8 0;#P connect 8 0 7 0;#P connect 7 0 1 0;#P connect 17 0 1 0;#P connect 9 0 7 1;#P connect 3 1 6 0;#P connect 6 0 8 1;#P connect 9 1 7 2;#P connect 13 1 9 0;#P connect 9 2 7 3;#P connect 5 1 4 0;#P connect 9 3 7 4;#P connect 9 4 10 0;#P connect 10 0 12 0;#P connect 11 0 7 5;#P connect 12 0 7 5;#P connect 10 1 11 0;#P connect 14 0 7 6;#P connect 18 0 19 0;#P connect 19 0 14 0;#P connect 5 2 15 0;#P connect 5 3 17 0;#P pop;#P newobj 179 234 92 196620 p parameters;#B color 6;#N vpatcher 392 148 1188 630;#P origin 0 17;#P window setfont "Sans Serif" 9.;#P window linecount 1;#P newex 635 266 51 196617 zl slice 1;#P newex 587 243 51 196617 zl slice 1;#P newex 514 244 51 196617 zl slice 1;#P newex 566 288 51 196617 zl slice 1;#P newex 525 267 51 196617 zl slice 1;#P newex 455 291 21 196617 t 0;#P newex 455 265 51 196617 zl slice 1;#P message 149 29 20 196617 lfo;#P newex 453 225 40 196617 gate 3;#P comment 132 313 67 196617 group;#P message 107 29 33 196617 plane;#P window linecount 0;#P message 65 29 23 196617 adc;#P window linecount 1;#P comment 36 334 52 196617 page title;#P comment 682 332 40 196617 outputs;#P comment 585 332 40 196617 inputs;#P comment 88 334 67 196617 module name;#P comment 232 331 60 196617 description;#P newex 286 227 51 196617 tosymbol;#P message 467 159 29 196617 tape;#P message 358 159 37 196617 movie;#P window linecount 0;#P message 208 157 46 196617 common;#P window linecount 1;#P newex 286 203 51 196617 zl slice 1;#P newex 381 125 40 196617 t l b 3;#P newex 286 125 40 196617 t l b 2;#P newex 191 132 40 196617 t l b 1;#P newex 385 206 51 196617 tosymbol;#P newex 286 180 109 196617 zl ecils 1;#N coll t_modules 1;#P newobj 381 103 84 196617 coll t_modules 1;#B color 5;#N coll m_modules 1;#P newobj 286 103 88 196617 coll m_modules 1;#B color 5;#N coll tm_modules 1;#P newobj 191 103 92 196617 coll tm_modules 1;#B color 5;#P window linecount 5;#P newex 33 349 696 196617 sprintf %s </title> cr <link href="../styles/tapemovie.css" rel="stylesheet" type="text/css"> cr </head> cr <body> cr <div id="header"> cr <img src="../styles/tm.png" width="90" height="90"> cr <h1> tapemovie </h1> cr <h2> environnement for real-time intermedia </h2> cr <h3><a href="../modules/">Index of Modules</a> | <a href="http://tapemovie.org/" target="blank">tapemovie.org</a></h3> cr </div> <div id=titlebar> %s : a %s module</div><br> cr <div id=module-description>%s</div> cr <br> cr <p> Module Type: %s <br> cr Number of inputs : %ld <br> cr Number of outputs: %ld cr <p/>;#P window linecount 1;#P newex 33 52 104 196617 t s s s;#P inlet 33 28 15 0;#P outlet 33 429 15 0;#P window linecount 0;#P comment 322 332 30 196617 type;#P connect 27 0 3 0;#P connect 24 0 3 0;#P connect 23 0 3 0;#P connect 2 0 3 0;#P connect 3 0 4 0;#P connect 4 0 1 0;#P connect 3 1 4 1;#P fasten 3 2 5 0 132 84 196 84;#P connect 5 0 10 0;#P connect 10 1 14 0;#P connect 16 0 4 2;#P connect 15 0 4 2;#P connect 14 0 4 2;#P fasten 3 2 6 0 132 84 291 84;#P connect 6 0 11 0;#P connect 12 0 8 0;#P lcolor 2;#P connect 11 0 8 0;#P connect 10 0 8 0;#P lcolor 2;#P connect 8 0 13 0;#P connect 13 0 17 0;#P connect 11 1 15 0;#P connect 9 0 4 3;#P fasten 3 2 7 0 132 84 386 84;#P connect 7 0 12 0;#P connect 8 1 9 0;#P connect 12 2 26 0;#P connect 11 2 26 0;#P connect 10 2 26 0;#P connect 26 0 28 0;#P connect 28 0 29 0;#P connect 12 1 16 0;#P connect 13 1 26 1;#P connect 17 0 4 4;#P connect 26 1 32 0;#P connect 32 1 30 0;#P connect 30 1 31 0;#P connect 26 2 33 0;#P connect 29 0 4 5;#P connect 33 0 4 5;#P connect 30 0 4 5;#P connect 33 1 34 0;#P connect 29 0 4 6;#P connect 34 0 4 6;#P connect 31 0 4 6;#P pop;#P newobj 233 206 101 196620 p configuration;#B color 6;#P window setfont "Sans Serif" 9.;#P newex 268 447 40 196617 text;#P window setfont "Sans Serif" 14.;#P comment 49 20 694 196622 Un bang lance la construction de la documentation pour tous les modules existants dans le projet.;#P window setfont "Sans Serif" 18.;#P comment 284 91 403 196626 Les fichiers sont enregistrés dans le dossier;#P connect 14 0 16 0;#P connect 16 0 12 0;#P connect 12 0 13 0;#P connect 23 0 10 0;#P connect 22 0 10 0;#P connect 21 0 10 0;#P connect 13 0 10 0;#P connect 10 0 8 0;#P connect 8 0 9 0;#P connect 9 0 7 0;#P connect 7 0 6 0;#P connect 6 0 5 0;#P connect 10 1 9 1;#P connect 10 2 11 0;#P connect 7 1 5 1;#P connect 10 3 4 0;#P connect 10 4 3 0;#P connect 20 0 2 0;#P connect 10 6 2 0;#P connect 5 0 2 0;#P connect 15 0 2 0;#P connect 4 0 2 0;#P connect 3 0 2 0;#P connect 11 0 2 0;#P connect 7 2 20 0;#P connect 10 5 15 0;#P pop;