max v2;#N vpatcher 0 44 1005 752;#P origin -53 -67;#P button 201 23 15 0;#P window setfont "Sans Serif" 9.;#P window linecount 1;#P newex 220 21 173 196617 s /tapemovie/shortcuts/editor/init;#B color 12;#P message 18 68 182 196617 tapemovie \, tape \, movie \, light \, camtrk;#P newex 18 47 304 196617 t b clear;#P newex 18 22 173 196617 r /tapemovie/shortcuts/editor/init;#B color 12;#P newex 119 133 58 196617 checkexist;#B color 6;#P newex 119 201 78 196617 prepend append;#P newex 119 181 118 196617 gate;#P newex 119 155 21 196617 t 1;#P newex 18 89 213 196617 t s s 0;#P newex 119 111 29 196617 thru;#P message 309 540 40 196617 <none>;#P newex 223 505 97 196617 t s s b;#P newex 317 308 134 196617 sprintf refer %s_shortcuts;#P newex 223 460 51 196617 zl slice 1;#P newex 266 565 69 196617 route symbol;#P newex 223 482 40 196617 itoa;#P newex 223 435 51 196617 zl ecils 7;#P newex 223 415 40 196617 atoi;#N coll tm_shortcuts;#P newobj 266 540 34 196617 coll;#P newex 309 399 96 196617 pvar cellblockname;#B color 15;#P user jit.cellblock 571 93 932 494 3 9 2 11 80 16 0 1 1 1 1 0 0 0 1 0 0 0 255 255 255 0 0 0 0 0 0 191 191 191 0 0 0 215 215 240 1 1 1 0 4 0 0 1;#X row 0 layout 16 1 25 60 33 1 0 0 0 -1 -1 -1;#X col 0 layout 267 1 94 0 0 1 0 0 0 -1 -1 -1;#X col 2 layout 37 1 211 23 0 1 0 0 0 -1 -1 -1;#X col 1 layout 56 1 212 23 0 1 0 0 0 -1 -1 -1;#P objectname cellblockname;#P message 309 378 112 196617 refer shortcuts-editor;#P user ubumenu 570 71 100 196617 0 1 1 0;#X add tapemovie;#X add movie;#X prefix_set 0 0 <none> 0;#P objectname choice;#P newex 119 224 71 196617 pvar choice 2;#P window linecount 2;#P newex 266 591 42 196617 prepend set;#P window linecount 1;#P newex 223 629 40 196617 append;#P window linecount 2;#P newex 223 544 41 196617 prepend store;#P newex 223 376 41 196617 route symbol;#P window linecount 1;#N coll shortcuts-editor;#P newobj 223 660 104 196617 coll shortcuts-editor;#P newex 423 378 79 196617 r dim_command;#B color 15;#P newex 180 330 348 196617 t dump l clear;#P message 340 269 17 196617 ct;#P message 300 269 14 196617 l;#P message 260 269 20 196617 tm;#P message 220 269 16 196617 m;#P message 180 269 14 196617 t;#P newex 180 309 130 196617 sprintf refer %s_windows;#P newex 180 245 212 196617 sel tape movie tapemovie light camtrk;#N coll tm_windows;#P newobj 180 354 140 196617 coll;#P comment 338 94 229 196617 shortcuts (enregistrer des configs de shortcuts);#P comment 338 73 229 196617 workspaces (enregistrer des configs de fenêtres);#P connect 37 0 38 0;#P connect 38 0 39 0;#P connect 39 0 32 0;#P connect 32 1 31 0;#P connect 31 0 36 0;#P connect 36 0 33 0;#P connect 33 0 34 0;#P connect 32 2 34 0;#P connect 34 0 35 0;#P connect 35 0 17 0;#P fasten 38 1 17 0 317 222 124 222;#P fasten 17 1 3 0 185 243 185 243;#P connect 3 0 5 0;#P connect 5 0 4 0;#P connect 7 0 4 0;#P connect 9 0 4 0;#P connect 6 0 4 0;#P connect 8 0 4 0;#P connect 4 0 10 0;#P connect 10 1 2 0;#P connect 10 0 2 0;#P connect 41 0 40 0;#P connect 3 1 6 0;#P connect 2 1 13 0;#P connect 13 0 23 0;#P connect 23 0 24 0;#P connect 24 0 27 0;#P connect 27 1 25 0;#P connect 25 0 29 0;#P connect 29 0 14 0;#P connect 14 0 15 0;#P connect 16 0 15 0;#P fasten 10 2 12 0 523 649 228 649;#P connect 15 0 12 0;#P fasten 32 0 34 1 23 176 232 176;#P lcolor 7;#P connect 3 2 7 0;#P connect 28 0 22 0;#P connect 29 1 22 0;#P connect 22 0 26 0;#P connect 26 0 16 0;#P fasten 30 0 16 0 314 558 340 558 340 587 276 587 271 591;#P connect 3 3 8 0;#P connect 2 3 19 0;#P connect 11 0 21 0;#P connect 19 0 21 0;#P connect 29 2 30 0;#P connect 5 0 28 0;#P connect 6 0 28 0;#P connect 7 0 28 0;#P connect 8 0 28 0;#P connect 9 0 28 0;#P connect 3 4 9 0;#P pop;