max v2;#N vpatcher 30 89 681 756;#P origin 0 9;#P window setfont "Sans Serif" 9.;#P newex 441 272 167 196617 r $1;#B color 12;#P message 365 273 74 196617 enable \$1;#P newex 365 296 233 196617 jit.gl.sketch $2;#P newex 66 72 141 196617 t b s;#P newex 66 115 141 196617 sprintf %smedia/matrix/%s;#P newex 66 94 62 196617 projectpath;#B color 5;#P newex 169 455 85 196617 r $1/tex_offset;#B color 12;#P newex 132 341 46 196617 sel read;#P newex 124 535 27 196617 t b l;#P newex 162 409 27 196617 t b l;#P flonum 184 494 35 9 0 0 0 3 0 0 0 221 221 221 222 222 222 0 0 0;#P flonum 169 476 35 9 0 0 0 3 0 0 0 221 221 221 222 222 222 0 0 0;#P newex 124 514 121 196617 pak 0. 0. 0. 0. 0. 0. 0. 0.;#P flonum 222 358 35 9 0 0 0 3 0 0 0 221 221 221 222 222 222 0 0 0;#P flonum 207 340 35 9 0 0 0 3 0 0 0 221 221 221 222 222 222 0 0 0;#P newex 162 386 121 196617 pak 1. 1. 1. 1. 1. 1. 1. 1.;#P newex 87 435 102 196617 jit.op @op * @val 1.;#P newex 87 568 64 196617 jit.op @op +;#P newex 87 593 251 196617 jit.matrix $1 @adapt 1;#P toggle 87 232 15 0;#P newex 66 143 36 196617 t b l;#P newex 66 166 36 196617 zl reg;#P newex 87 253 41 196617 sel 1 0;#P message 102 282 74 196617 dim 1 1 \, clear;#P newex 87 210 267 196617 makeswitch $1/sw $1 movie_switchstate;#B color 12;#P newex 66 190 68 196617 prepend read;#P newex 9 50 67 196617 route none;#P newex 149 140 160 196617 r $1/init;#B color 12;#P window linecount 3;#P message 149 162 161 196617 \; $1/sw/init bang \; $1/matrix/init bang \;;#P window linecount 1;#P newex 9 27 208 196617 makeparam $1/matrix $1 s none;#B color 12;#P newex 87 319 55 196617 jit.matrix;#B color 5;#P connect 1 0 4 0;#P connect 4 1 27 0;#P connect 27 0 25 0;#P connect 25 0 26 0;#P connect 26 0 10 0;#P connect 10 0 9 0;#P connect 9 0 5 0;#P connect 6 0 11 0;#P connect 11 0 8 0;#P connect 8 0 0 0;#P fasten 5 0 0 0 71 309 92 309;#P lcolor 7;#P fasten 23 0 0 0 137 364 83 364 83 315 92 315;#P lcolor 5;#P fasten 22 0 0 0 129 560 294 560 294 309 92 309;#P lcolor 2;#P fasten 21 0 0 0 167 429 284 429 284 314 92 314;#P lcolor 6;#P connect 0 0 14 0;#P connect 14 0 13 0;#P connect 13 0 12 0;#P fasten 7 0 12 0 107 301 347 301 347 588 92 588;#P lcolor 13;#P connect 10 1 9 1;#P connect 8 1 7 0;#P fasten 4 0 7 0 14 276 107 276;#P lcolor 15;#P connect 18 0 22 0;#P connect 0 1 23 0;#P connect 22 1 13 1;#P connect 3 0 2 0;#P connect 15 0 21 0;#P connect 24 0 19 0;#P connect 19 0 18 3;#P connect 21 1 14 1;#P connect 20 0 18 4;#P connect 27 1 26 1;#P connect 16 0 15 3;#P connect 17 0 15 4;#P fasten 11 0 29 0 92 249 370 249;#P connect 29 0 28 0;#P fasten 30 0 28 0 446 292 370 292;#P pop;