max v2;#N vpatcher 789 325 1288 537;#P origin -121 -286;#P window setfont "Sans Serif" 9.;#P window linecount 1;#P newex 41 90 66 196617 pvar drawto;#P comment 57 29 39 196617 /name;#P message 115 110 40 196617 <none>;#P newex 115 90 57 196617 route bang;#P newex 115 70 56 196617 route text;#P button 97 28 16 0;#P newex 115 128 282 196617 variedit $1/name $1;#P user textedit 112 28 255 45 32896 3 9 <none>;#P objectname drawto;#P bpatcher 0 0 256 62 0 0 bkgnd.mxt 0 $1;#P objectname background;#P connect 2 0 8 0;#P hidden connect 3 0 1 0;#P connect 8 0 4 0;#P connect 4 0 5 0;#P connect 5 0 6 0;#P connect 5 1 2 0;#P connect 6 0 2 0;#P pop;