max v2;#N vpatcher 38 57 954 739;#P origin -115 -149;#P window setfont "Sans Serif" 9.;#P window linecount 1;#P newex 419 609 72 196617 pvar moon7 2;#P newex 419 585 54 196617 pak set i i;#P newex 343 584 69 196617 pvar moony7;#P newex 343 532 69 196617 pvar moonx7;#P newex 343 562 131 196617 variedit /moon.7/y /moon;#B color 12;#P newex 343 509 128 196617 variedit /moon7/x /moon;#B color 12;#P newex 254 608 72 196617 pvar moon6 2;#P newex 254 584 54 196617 pak set i i;#P newex 178 583 69 196617 pvar moony6;#P newex 178 531 69 196617 pvar moonx6;#P newex 178 561 131 196617 variedit /moon.6/y /moon;#B color 12;#P newex 178 508 131 196617 variedit /moon.6/x /moon;#B color 12;#P newex 89 607 72 196617 pvar moon5 2;#P newex 89 583 54 196617 pak set i i;#P newex 13 582 69 196617 pvar moony5;#P newex 13 530 69 196617 pvar moonx5;#P newex 13 560 131 196617 variedit /moon.5/y /moon;#B color 12;#P newex 13 507 131 196617 variedit /moon.5/x /moon;#B color 12;#P newex 492 468 72 196617 pvar moon4 2;#P newex 492 444 54 196617 pak set i i;#P newex 414 442 69 196617 pvar moony4;#P newex 414 390 69 196617 pvar moonx1;#P newex 414 420 131 196617 variedit /moon.4/y /moon;#B color 12;#P newex 413 365 131 196617 variedit /moon.4/x /moon;#B color 12;#P number 485 106 23 9 0 20 3 3 0 0 0 221 221 221 222 222 222 0 0 0;#P objectname moony7;#P number 461 106 23 9 0 20 3 3 0 0 0 221 221 221 222 222 222 0 0 0;#P objectname moonx7;#P user pictslider 461 54 46 51 4 4 4 4 SliderDefaultKnob.pct 1 SliderDefaultBkgnd.pct 1 2163 0 1310720 20 1. 1.;#P objectname moon7;#P number 437 106 23 9 0 20 3 3 0 0 0 221 221 221 222 222 222 0 0 0;#P objectname moony6;#P number 413 106 23 9 0 20 3 3 0 0 0 221 221 221 222 222 222 0 0 0;#P objectname moonx6;#P user pictslider 413 54 46 51 4 4 4 4 SliderDefaultKnob.pct 1 SliderDefaultBkgnd.pct 1 2163 0 1310720 20 1. 1.;#P objectname moon6;#P number 389 106 23 9 0 20 3 3 0 0 0 221 221 221 222 222 222 0 0 0;#P objectname moony5;#P number 365 106 23 9 0 20 3 3 0 0 0 221 221 221 222 222 222 0 0 0;#P objectname moonx5;#P user pictslider 365 54 46 51 4 4 4 4 SliderDefaultKnob.pct 1 SliderDefaultBkgnd.pct 1 2163 0 1310720 20 1. 1.;#P objectname moon5;#P number 341 106 23 9 0 20 3 3 0 0 0 221 221 221 222 222 222 0 0 0;#P objectname moony4;#P number 317 106 23 9 0 20 3 3 0 0 0 221 221 221 222 222 222 0 0 0;#P objectname moonx4;#P user pictslider 317 54 46 51 4 4 4 4 SliderDefaultKnob.pct 1 SliderDefaultBkgnd.pct 1 2163 0 1310720 20 1. 1.;#P objectname moon4;#P comment 117 105 20 196617 y2;#P comment 82 105 20 196617 x2;#P comment 48 105 20 196617 y1;#P comment 13 105 20 196617 x1;#P comment 116 57 20 196617 y4;#P comment 85 57 20 196617 x4;#P comment 46 57 20 196617 y3;#P newex 748 259 46 196617 pvar y4;#P newex 748 235 128 196617 variedit /moon/y4 /moon;#B color 12;#P newex 748 212 46 196617 pvar x4;#P newex 748 188 128 196617 variedit /moon/x4 /moon;#B color 12;#P newex 604 259 46 196617 pvar y3;#P newex 604 235 128 196617 variedit /moon/y3 /moon;#B color 12;#P newex 604 212 46 196617 pvar x3;#P newex 604 188 128 196617 variedit /moon/x3 /moon;#B color 12;#P newex 460 259 46 196617 pvar y2;#P newex 460 235 128 196617 variedit /moon/y2 /moon;#B color 12;#P newex 460 212 46 196617 pvar x2;#P newex 460 188 128 196617 variedit /moon/x2 /moon;#B color 12;#P newex 316 259 46 196617 pvar y1;#P newex 316 235 128 196617 variedit /moon/y1 /moon;#B color 12;#P newex 316 212 46 196617 pvar x1;#P newex 316 188 139 196617 variedit /moon/x1 /moon;#B color 12;#P flonum 110 71 35 9 0. 1. 3 3 0 0 0 221 221 221 222 222 222 0 0 0;#P objectname y4;#P flonum 77 71 35 9 0. 1. 3 3 0 0 0 221 221 221 222 222 222 0 0 0;#P objectname x4;#P flonum 41 71 35 9 0. 1. 3 3 0 0 0 221 221 221 222 222 222 0 0 0;#P objectname y3;#P flonum 8 71 35 9 0. 1. 3 3 0 0 0 221 221 221 222 222 222 0 0 0;#P objectname x3;#P flonum 110 88 35 9 0. 1. 3 3 0 0 0 221 221 221 222 222 222 0 0 0;#P objectname y2;#P flonum 77 88 35 9 0. 1. 3 3 0 0 0 221 221 221 222 222 222 0 0 0;#P objectname x2;#P flonum 41 88 35 9 0. 1. 3 3 0 0 0 221 221 221 222 222 222 0 0 0;#P objectname y1;#P flonum 8 88 35 9 0. 1. 3 3 0 0 0 221 221 221 222 222 222 0 0 0;#P objectname x1;#P flonum 477 36 35 9 0 0 0 3 0 0 0 221 221 221 222 222 222 0 0 0;#P objectname ooeffb;#P comment 425 37 60 196617 /b/coeff;#P flonum 386 36 35 9 -10. 10. 3 3 0 0 0 221 221 221 222 222 222 0 0 0;#P objectname coeffa;#P comment 334 37 60 196617 /a/coeff;#P newex 11 297 62 196617 pvar coeffa;#P newex 11 273 161 196617 variedit /moon/a/coeff /moon;#B color 12;#P newex 11 341 62 196617 pvar ooeffb;#P newex 11 317 161 196617 variedit /moon/b/coeff /moon;#B color 12;#P flonum 445 25 35 9 0. 1. 3 3 0 0 0 221 221 221 222 222 222 0 0 0;#P objectname xfade;#P comment 390 26 60 196617 /xfade;#P newex 10 250 59 196617 pvar xfade;#P newex 10 226 152 196617 variedit /moon/xfade /moon;#B color 12;#P newex 357 474 72 196617 pvar moon3 2;#P newex 357 450 54 196617 pak set i i;#P newex 278 449 69 196617 pvar moony3;#P newex 278 397 69 196617 pvar moonx3;#P newex 278 427 131 196617 variedit /moon.3/y /moon;#B color 12;#P newex 278 374 131 196617 variedit /moon.3/x /moon;#B color 12;#P newex 221 475 72 196617 pvar moon2 2;#P newex 221 451 54 196617 pak set i i;#P newex 146 451 69 196617 pvar moony2;#P newex 146 399 69 196617 pvar moonx2;#P newex 146 429 131 196617 variedit /moon.2/y /moon;#B color 12;#P newex 146 376 131 196617 variedit /moon.2/x /moon;#B color 12;#P number 293 106 23 9 0 20 3 3 0 0 0 221 221 221 222 222 222 0 0 0;#P objectname moony3;#P number 269 106 23 9 0 20 3 3 0 0 0 221 221 221 222 222 222 0 0 0;#P objectname moonx3;#P user pictslider 269 54 46 51 4 4 4 4 SliderDefaultKnob.pct 1 SliderDefaultBkgnd.pct 1 2163 0 1310720 20 1. 1.;#P objectname moon3;#P number 243 106 23 9 0 20 3 3 0 0 0 221 221 221 222 222 222 0 0 0;#P objectname moony2;#P number 217 106 23 9 0 20 3 3 0 0 0 221 221 221 222 222 222 0 0 0;#P objectname moonx2;#P user pictslider 217 54 50 49 4 4 4 4 SliderDefaultKnob.pct 1 SliderDefaultBkgnd.pct 1 2163 0 1310720 20 1. 1.;#P objectname moon2;#P newex 81 477 72 196617 pvar moon1 2;#P newex 81 453 54 196617 pak set i i;#P newex 8 452 69 196617 pvar moony1;#P newex 8 400 69 196617 pvar moonx1;#P newex 8 430 131 196617 variedit /moon.1/y /moon;#B color 12;#P newex 7 375 131 196617 variedit /moon.1/x /moon;#B color 12;#P number 188 106 27 9 0 20 3 3 0 0 0 221 221 221 222 222 222 0 0 0;#P objectname moony1;#P number 161 106 27 9 0 20 3 3 0 0 0 221 221 221 222 222 222 0 0 0;#P objectname moonx1;#P user pictslider 161 54 54 50 4 4 4 4 SliderDefaultKnob.pct 1 SliderDefaultBkgnd.pct 1 2163 0 1310720 20 1. 1.;#P objectname moon1;#P comment 26 4 60 196617 /slideup;#P flonum 79 19 35 9 0. 500. 3 3 0 0 0 221 221 221 222 222 222 0 0 0;#P objectname slidedown;#P flonum 79 3 35 9 0. 500. 3 3 0 0 0 221 221 221 222 222 222 0 0 0;#P objectname slideup;#P newex 10 205 78 196617 pvar slidedown;#P newex 10 163 65 196617 pvar slideup;#P newex 10 184 269 196617 variedit /moon/slidedown /moon;#B color 12;#P newex 10 139 256 196617 variedit /moon/slideup /moon;#B color 12;#P comment 26 20 60 196617 /slidedown;#P comment 13 58 20 196617 x3;#P bpatcher 0 0 512 124 0 0 bkgnd22.mxt 0 /moon;#P objectname background;#P connect 15 0 13 0;#P connect 13 0 15 0;#P connect 16 0 14 0;#P connect 14 0 16 0;#P connect 5 0 3 0;#P connect 3 0 5 0;#P connect 6 0 4 0;#P connect 4 0 6 0;#P connect 38 0 37 0;#P connect 37 0 38 0;#P connect 44 0 43 0;#P connect 43 0 44 0;#P connect 42 0 41 0;#P connect 41 0 42 0;#P connect 100 0 98 0;#P connect 98 0 100 0;#P connect 101 0 99 0;#P connect 99 0 101 0;#P connect 17 0 18 0;#P connect 102 0 103 0;#P connect 13 1 17 1;#P connect 98 1 102 1;#P connect 14 1 17 2;#P connect 99 1 102 2;#P connect 27 0 25 0;#P connect 25 0 27 0;#P connect 28 0 26 0;#P connect 26 0 28 0;#P hidden connect 10 0 11 0;#P connect 106 0 104 0;#P connect 104 0 106 0;#P connect 107 0 105 0;#P connect 105 0 107 0;#P hidden connect 10 1 12 0;#P hidden connect 19 0 20 0;#P connect 29 0 30 0;#P hidden connect 19 1 21 0;#P connect 25 1 29 1;#P connect 108 0 109 0;#P connect 26 1 29 2;#P hidden connect 22 0 23 0;#P connect 104 1 108 1;#P connect 33 0 31 0;#P connect 31 0 33 0;#P connect 34 0 32 0;#P connect 32 0 34 0;#P hidden connect 22 1 24 0;#P connect 105 1 108 2;#P connect 58 0 57 0;#P connect 57 0 58 0;#P connect 60 0 59 0;#P connect 59 0 60 0;#P hidden connect 80 0 81 0;#P hidden connect 80 1 82 0;#P connect 112 0 110 0;#P connect 110 0 112 0;#P connect 113 0 111 0;#P connect 111 0 113 0;#P connect 35 0 36 0;#P hidden connect 83 0 84 0;#P connect 31 1 35 1;#P hidden connect 83 1 85 0;#P connect 32 1 35 2;#P hidden connect 86 0 87 0;#P connect 94 0 92 0;#P connect 92 0 94 0;#P connect 95 0 93 0;#P connect 93 0 95 0;#P connect 114 0 115 0;#P hidden connect 86 1 88 0;#P connect 110 1 114 1;#P connect 62 0 61 0;#P connect 61 0 62 0;#P connect 64 0 63 0;#P connect 63 0 64 0;#P hidden connect 89 0 90 0;#P connect 111 1 114 2;#P hidden connect 89 1 91 0;#P connect 96 0 97 0;#P connect 92 1 96 1;#P connect 93 1 96 2;#P connect 66 0 65 0;#P connect 65 0 66 0;#P connect 68 0 67 0;#P connect 67 0 68 0;#P connect 70 0 69 0;#P connect 69 0 70 0;#P connect 72 0 71 0;#P connect 71 0 72 0;#P pop;