max v2;#N vpatcher 307 44 787 686;#P origin 0 -2;#P window setfont Times 9.;#P newex 222 463 81 1310729 print $1/timerout_;#B color 9;#P newex 348 259 18 1310729 t 0;#P newex 279 238 45 1310729 loadbang;#P window setfont "Sans Serif" 9.;#P number 222 441 49 9 0 0 0 3 0 0 0 221 221 221 222 222 222 0 0 0;#P window setfont Times 9.;#P newex 223 419 30 1310729 timer;#P button 230 397 15 0;#P newex 140 408 27 1310729 i;#P newex 89 407 48 1310729 sel 1;#P newex 214 321 18 1310729 t 0;#P newex 214 293 27 1310729 del 1;#P newex 214 263 27 1310729 t b 1;#P button 260 280 15 0;#P window setfont "Sans Serif" 9.;#P number 151 388 35 9 0 0 0 3 0 0 0 221 221 221 222 222 222 0 0 0;#P button 139 471 15 0;#N comlet default temporal resolution;#P inlet 314 319 15 0;#P window setfont Times 9.;#P flonum 27 536 68 9 0 0 0 20 0 0 0 221 221 221 222 222 222 0 0 0;#P window setfont "Sans Serif" 9.;#P number 279 342 35 9 0 0 0 3 0 0 0 221 221 221 222 222 222 0 0 0;#P window setfont Times 9.;#P window linecount 2;#P comment 336 282 78 1310729 default temporal resolution (i.e. 50);#P window linecount 1;#P newex 181 89 27 1310729 i;#P newex 279 320 27 1310729 50;#P newex 279 259 27 1310729 del 1;#P window setfont "Sans Serif" 9.;#P message 279 279 57 196617 $2;#P window setfont Times 9.;#P newex 279 297 27 1310729 sel 0;#P window linecount 2;#P comment 240 501 171 1310729 arg 1 : prefix name \; arg 2 : default temporal resolution (i.e. 50);#P window linecount 1;#P newex 264 217 109 1310729 s $1/rotfrq;#B color 9;#P window setfont "Sans Serif" 9.;#P number 316 100 35 9 0 0 0 3 0 0 0 221 221 221 222 222 222 0 0 0;#P outlet 27 601 15 0;#P window setfont Times 9.;#P newex 332 185 27 1310729 t b 1;#P newex 332 163 108 1310729 r $1/init;#B color 9;#P newex 183 164 18 1310729 t 1;#P newex 183 189 18 1310729 t 0;#P toggle 110 214 15 0;#P newex 110 232 27 1310729 gate;#P newex 264 79 40 1310729 t 0 1 l;#P newex 38 428 18 1310729 t 1;#P newex 38 408 27 1310729 del 1;#P toggle 69 408 15 0;#P toggle 27 471 15 0;#P newex 69 361 27 1310729 t 1 b;#P newex 115 361 79 1310729 t 0 stop 0 1;#P newex 69 339 102 1310729 sel 1 0;#P newex 207 144 27 1310729 != 0.;#P newex 207 164 27 1310729 sel 0;#P newex 69 37 113 1310729 r $1/rotfrq;#B color 9;#P newex 294 129 42 1310729 unpack 0;#P newex 294 149 31 1310729 / 360.;#P newex 264 54 115 1310729 r $1/rotangle;#B color 9;#P flonum 138 264 57 9 0 0 0 20 0 0 0 221 221 221 222 222 222 0 0 0;#P newex 27 489 52 1310729 gate;#P toggle 69 321 15 0;#P newex 69 427 59 1310729 selector~;#P newex 14 134 35 1310729 begin~;#B color 4;#P newex 110 252 18 1310729 t 0;#P newex 85 184 52 1310729 edge~;#P number 119 115 46 9 0 0 0 20 0 0 0 221 221 221 222 222 222 0 0 0;#P newex 27 572 152 1310729 pack 0. 0;#P flonum 69 115 35 9 0 0 0 20 0 0 0 221 221 221 222 222 222 0 0 0;#P newex 69 83 110 1310729 unpack 0. 0 0;#P newex 69 62 179 1310729 t l 0 b 0;#P number 169 115 35 9 0 0 0 20 0 0 0 221 221 221 222 222 222 0 0 0;#P newex 69 163 60 1310729 line~ 1;#P newex 27 512 39 1310729 * 360.;#P flonum 69 471 68 9 0 0 0 20 0 0 0 221 221 221 222 222 222 0 0 0;#P newex 69 450 81 1310729 snapshot~;#P newex 69 282 79 1310729 phasor~ 1000;#P comment 183 38 155 1310729 [freq in hz] [time] [temporal resolution];#P fasten 26 0 28 0 120 383 32 383;#P lcolor 13;#P connect 31 0 28 0;#P connect 28 0 17 0;#P connect 17 0 4 0;#P connect 4 0 50 0;#P connect 50 0 10 0;#P connect 10 0 39 0;#P connect 26 1 30 0;#P connect 27 1 30 0;#P connect 30 0 31 0;#P connect 22 0 7 0;#P connect 7 0 8 0;#P connect 8 0 9 0;#P fasten 64 0 9 0 353 279 448 279 448 27 58 27 58 111 74 111;#P connect 9 0 5 0;#P fasten 14 0 5 0 19 157 74 157;#P connect 5 0 1 0;#P fasten 23 1 16 0 229 315 74 315;#P lcolor 1;#P connect 13 0 16 0;#P connect 57 0 16 0;#P connect 55 1 16 0;#P connect 16 0 25 0;#P connect 25 0 27 0;#P connect 26 2 29 0;#P connect 27 0 29 0;#P connect 29 0 15 0;#P connect 15 0 2 0;#P connect 2 0 3 0;#P connect 3 0 17 1;#P connect 5 0 12 0;#P connect 29 0 58 0;#P connect 36 0 34 0;#P lcolor 5;#P fasten 35 0 34 0 188 210 115 210;#P lcolor 5;#P fasten 32 1 34 0 284 210 115 210;#P lcolor 5;#P fasten 38 1 34 0 354 210 115 210;#P lcolor 5;#P connect 34 0 33 0;#P connect 33 0 13 0;#P connect 25 1 26 0;#P fasten 1 0 15 1 74 308 123 308;#P connect 8 1 11 0;#P fasten 7 1 11 0 130 106 124 106;#P connect 11 0 5 1;#P connect 12 1 33 1;#P connect 38 0 33 1;#P lcolor 14;#P connect 20 0 18 0;#P connect 18 0 1 1;#P fasten 2 0 52 0 74 469 144 469;#P connect 58 0 59 0;#P connect 58 1 2 1;#P connect 59 0 2 1;#P fasten 6 0 53 0 174 152 156 152;#P connect 53 0 59 1;#P connect 8 2 6 0;#P connect 47 0 6 0;#P connect 6 0 10 1;#P fasten 49 0 47 0 284 362 255 362 255 85 186 85;#P connect 7 2 47 0;#P connect 38 0 47 0;#P fasten 23 0 36 0 212 183 203 183 203 161 188 161;#P fasten 23 1 35 0 229 186 188 186;#P connect 9 0 24 0;#P connect 24 0 23 0;#P connect 54 0 55 0;#P connect 55 0 56 0;#P connect 56 0 57 0;#P connect 61 0 62 0;#P connect 62 0 65 0;#P connect 60 0 61 0;#P connect 12 1 60 0;#P connect 60 0 61 1;#P connect 45 0 54 0;#P connect 19 0 32 0;#P connect 32 0 41 0;#P connect 63 0 45 0;#P connect 45 0 44 0;#P connect 44 0 43 0;#P connect 43 0 46 0;#P connect 46 0 49 0;#P connect 43 1 49 0;#P fasten 51 0 49 0 319 339 284 339;#P connect 40 0 21 0;#P connect 32 2 21 0;#P connect 21 0 20 0;#P connect 37 0 38 0;#P pop;