max v2;#N vpatcher 9 70 238 320;#P window setfont Times 9.;#P window linecount 1;#P newex 71 142 33 1310729 gate 2;#P newex 19 74 35 1310729 gateab;#P outlet 19 182 15 0;#P comment 18 208 136 1310729 arg 1 : perform jitvns test on/off);#P inlet 44 54 15 0;#P newex 19 33 57 1310729 loadmess $1;#P window setfont "Sans Serif" 9.;#P newex 94 164 30 196617 v.jit;#P newex 123 92 73 196617 testjitvns 1 2;#B color 5;#P connect 2 0 6 0;#P connect 6 0 5 0;#P connect 1 0 5 0;#P connect 7 0 5 0;#P connect 3 0 6 1;#P connect 0 1 7 0;#P connect 0 0 7 0;#P connect 6 1 7 1;#P connect 7 1 1 0;#P connect 6 1 0 0;#P pop;