max v2;#N vpatcher 273 56 561 318;#P window setfont "Sans Serif" 9.;#P window linecount 1;#P newex 56 145 87 196617 gate 2;#P newex 38 75 39 196617 gateab;#B color 5;#P outlet 38 194 15 0;#P window setfont Times 9.;#P comment 26 220 136 1310729 arg 1 : perform jitvns test on/off);#N comlet stream in;#P inlet 67 54 15 0;#P newex 38 30 57 1310729 loadmess $1;#P window setfont "Sans Serif" 9.;#P newex 56 167 60 196617 jit.softVNS;#P newex 175 93 73 196617 testjitvns 1 2;#B color 5;#P connect 2 0 6 0;#P connect 1 0 5 0;#P connect 6 0 5 0;#P fasten 7 1 5 0 138 188 43 188;#P connect 0 0 7 0;#P connect 0 1 7 0;#P connect 7 0 1 0;#P connect 3 0 6 1;#P connect 6 1 7 1;#P connect 6 1 0 0;#P pop;