max v2;#N vpatcher 415 45 1433 794;#P origin 38 452;#P window setfont "Sans Serif" 9.;#P newex 762 109 48 196617 loadbang;#B color 12;#P window setfont "Sans Serif" 24.;#P comment 781 486 24 196632 5;#P comment 781 440 24 196632 4;#P comment 781 397 24 196632 3;#P comment 780 352 24 196632 2;#P window setfont "Sans Serif" 9.;#P newex 598 138 71 196617 s /cam.1/out;#B color 12;#P user jit.pwindow 467 208 82 62 0 1 0 0 1 0;#P window linecount 2;#P message 813 360 51 196617 \; $1/sw 1;#P window linecount 1;#P newex 299 292 330 196617 makeswitch $1/sw $1 movie_switchstate;#B color 12;#P newex 505 313 184 196617 moduleinit $1;#B color 12;#P window linecount 2;#P message 812 397 95 196617 \; $1/source /cam.1;#P window linecount 1;#P message 768 140 106 196617 store /cam.1 /cam.1;#N coll m_textures 1;#P newobj 789 181 91 196617 coll m_textures 1;#B color 12;#P window setfont "Sans Serif" 14.;#N vpatcher 495 424 977 799;#P window setfont "Sans Serif" 9.;#P window linecount 0;#P newex 89 199 29 196617 gate;#P newex 23 28 207 196617 r $1/settexture;#B color 11;#P newex 134 254 29 196617 gate;#P newex 117 169 31 196617 == 0;#P message 23 295 213 196617 jit_gl_texture /cam.1;#P window linecount 1;#P newex 173 207 22 196617 b 1;#B color 12;#P window linecount 0;#P message 74 234 213 196617 jit_gl_texture /cam.1;#P window linecount 1;#P newex 108 72 69 196617 route symbol;#P newex 260 137 78 196617 sprintf %s/out;#P newex 165 158 69 196617 route symbol;#N coll m_textures 1;#P newobj 165 137 91 196617 coll m_textures 1;#B color 5;#P newex 260 158 62 196617 prepend set;#P newex 74 137 31 196617 t set;#P newex 108 97 67 196617 route <none>;#P newex 165 179 130 196617 prepend set jit_gl_texture;#P newex 108 48 170 196617 makeparam $1/source $1 s <none>;#B color 12;#P newex 260 207 44 196617 receive;#B color 12;#P inlet 117 143 15 0;#P outlet 23 322 15 0;#P outlet 75 258 15 0;#P connect 7 0 15 0;#P connect 5 0 15 0;#P connect 18 0 15 0;#P connect 17 0 15 0;#P connect 15 0 1 0;#P connect 6 0 7 0;#P connect 7 0 13 0;#P connect 19 0 13 0;#P connect 5 0 13 0;#P connect 18 0 13 0;#P connect 13 0 0 0;#P connect 2 0 19 0;#P connect 4 0 12 0;#P connect 12 0 6 0;#P connect 12 1 6 0;#P connect 14 0 19 1;#P connect 2 0 16 0;#P connect 16 0 17 0;#P connect 14 0 17 1;#P connect 6 1 9 0;#P connect 9 0 10 0;#P connect 10 0 5 0;#P connect 3 0 14 0;#P fasten 6 1 11 0 170 132 265 132;#P connect 11 0 8 0;#P fasten 8 0 3 0 265 202 265 202;#P connect 7 0 3 0;#P pop;#P newobj 249 315 94 196622 p source;#B color 6;#P window setfont "Sans Serif" 18.;#N vpatcher 729 505 1197 773;#P inlet 28 164 15 0;#P window setfont "Sans Serif" 9.;#P newex 28 192 27 196617 t b l;#P objectname jit.gl.videoplane[1];#P newex 105 67 27 196617 + 1;#P objectname jit.gl.videoplane[23];#P newex 50 50 38 196617 gate 1;#P objectname jit.gl.videoplane[17];#P newex 81 172 27 196617 t l b;#P objectname jit.gl.videoplane[11];#P newex 79 147 82 196617 prepend capture;#P objectname jit.gl.videoplane[5];#N counter 2 26;#X flags 0 0;#P newobj 50 100 68 196617 counter 2 26;#P objectname jit.gl.videoplane[4];#P newex 79 126 86 196617 sprintf /lala.%ld;#P objectname jit.gl.videoplane[3];#P newex 81 230 334 196617 jit.gl.videoplane $2 @scale 1.33 1 1 @transform_reset 1 @automatic 0;#B color 5;#P objectname jit.gl.videoplane;#P inlet 50 30 15 0;#P inlet 78 30 15 0;#P inlet 105 47 15 0;#P outlet 50 169 15 0;#P outlet 115 174 15 0;#P connect 13 0 12 0;#P connect 4 0 10 0;#P connect 10 0 7 0;#P connect 7 0 1 0;#P connect 3 0 10 1;#P connect 7 0 6 0;#P connect 6 0 8 0;#P connect 8 0 9 0;#P connect 12 1 5 0;#P connect 9 1 5 0;#P connect 9 0 5 0;#P connect 12 0 5 0;#P connect 2 0 11 0;#P connect 11 0 7 4;#P connect 8 0 0 0;#P pop;#P newobj 80 382 212 196626 p record;#B color 6;#P window setfont "Sans Serif" 20.;#N vpatcher 749 400 1349 800;#P origin 0 20;#P window setfont "Sans Serif" 9.;#P newex 50 11 134 196617 makeparam $1/play $1 t 1;#B color 12;#P newex 50 75 27 196617 i;#P objectname jit.gl.videoplane[14];#P newex 62 252 36 196617 zl reg;#P objectname jit.gl.videoplane[22];#P newex 67 226 131 196617 t l b l;#P objectname jit.gl.videoplane[21];#P newex 92 300 100 196617 sprintf send %s/sw;#P objectname jit.gl.videoplane[15];#P newex 62 327 47 196617 forward;#P objectname jit.gl.videoplane[18];#P newex 62 278 29 196617 t 0 l;#P objectname jit.gl.videoplane[20];#P window setfont "Sans Serif" 18.;#N vpatcher 249 436 668 778;#P window setfont "Sans Serif" 9.;#P window linecount 1;#P newex 215 161 27 196617 - 1;#P newex 160 75 27 196617 + 1;#P window linecount 0;#P newex 215 184 62 196617 t b i;#P newex 215 207 84 196617 i;#P newex 215 227 62 196617 +;#P newex 77 136 148 196617 if $i1>0 then $i1 else out2 $i1;#P objectname jit.gl.videoplane[2];#P newex 9 134 27 196617 i;#P newex 9 99 78 196617 route 1;#P objectname jit.gl.videoplane[1];#P inlet 52 36 15 0;#P newex 9 68 53 196617 -;#P objectname jit.gl.videoplane[15];#P inlet 160 36 15 0;#P inlet 9 36 15 0;#P outlet 9 285 15 0;#P window setfont "Sans Serif" 18.;#P comment 89 102 303 196626 At least 1 frame of delay needed;#P connect 2 0 4 0;#P connect 4 0 6 0;#P connect 6 0 7 0;#P connect 9 0 1 0;#P connect 8 0 1 0;#P connect 7 0 1 0;#P connect 12 0 7 1;#P lcolor 1;#P connect 5 0 4 1;#P connect 6 1 8 0;#P connect 3 0 12 0;#P lcolor 1;#P connect 8 1 13 0;#P connect 13 0 11 0;#P connect 11 0 10 0;#P connect 10 0 9 0;#P connect 11 1 9 1;#P connect 12 0 10 1;#P lcolor 1;#P pop;#P newobj 50 132 242 196626 p N - x;#B color 6;#P window setfont "Sans Serif" 9.;#P newex 50 32 38 196617 gate 1;#P objectname jit.gl.videoplane[12];#P newex 217 276 100 196617 sprintf send %s/sw;#P objectname jit.gl.videoplane[8];#P newex 202 303 47 196617 forward;#P objectname jit.gl.videoplane[1];#P newex 50 186 27 196617 t b i;#P objectname jit.gl.videoplane[16];#P newex 187 254 40 196617 t l 1 l;#P objectname jit.gl.videoplane[19];#P newex 67 206 86 196617 sprintf /lala.%ld;#P objectname jit.gl.videoplane[9];#P newex 187 326 113 196617 prepend jit_gl_texture;#P objectname jit.gl.videoplane[7];#P inlet 67 55 15 0;#P inlet 96 34 15 0;#P inlet 223 70 15 0;#P inlet 252 70 15 0;#P outlet 50 370 15 0;#P connect 19 0 11 0;#P connect 11 0 18 0;#P connect 18 0 12 0;#P connect 12 0 8 0;#P connect 8 0 0 0;#P connect 5 0 0 0;#P connect 16 1 17 0;#P connect 17 0 13 0;#P connect 15 0 14 0;#P connect 13 0 14 0;#P connect 4 0 18 1;#P connect 8 1 6 0;#P connect 6 0 16 0;#P connect 3 0 11 1;#P connect 16 0 17 1;#P connect 13 1 15 0;#P connect 2 0 12 1;#P connect 16 2 7 0;#P connect 7 0 5 0;#P connect 10 0 9 0;#P connect 7 1 9 0;#P connect 7 2 10 0;#P connect 1 0 12 2;#P pop;#P newobj 81 449 196 196628 p play;#B color 6;#P window setfont "Sans Serif" 9.;#P newex 199 292 95 196617 r /movie/drawcpu;#B color 12;#P newex 306 370 171 196617 makeparam $1/size $1 i 1 1 500 1;#B color 12;#P newex 205 416 177 196617 makeparam $1/delay $1 i 1 1 500 1;#B color 12;#P newex 210 659 58 196617 pvar delay;#P newex 210 678 108 196617 variedit $1/delay $1;#B color 12;#P newex 210 621 52 196617 pvar size;#P newex 210 640 102 196617 variedit $1/size $1;#B color 12;#P newex 69 158 95 196617 s /movie/drawcpu;#B color 12;#P newex 497 124 95 196617 r /movie/drawcpu;#B color 12;#P newex 497 168 155 196617 jit.gl.texture $2 @name /cam.1;#B color 12;#P newex 497 146 98 196617 jit.qt.grab 640 480;#B color 5;#P message 818 497 30 196617 open;#P window linecount 7;#P message 505 342 203 196617 \; $1/sw/init bang \; $1/source/init bang \; $1/record/init bang \; $1/play/init bang \; $1/size/init bang \; $1/delay/init bang \;;#P window linecount 1;#P newex 21 659 53 196617 pvar play;#P newex 21 678 103 196617 variedit $1/play $1;#B color 12;#P newex 21 621 64 196617 pvar record;#P newex 21 640 114 196617 variedit $1/record $1;#B color 12;#P newex 147 271 145 196617 makeparam $1/record $1 t 1;#B color 12;#P message 194 120 44 196617 max \$1;#P window linecount 2;#P message 822 574 103 196617 \; jitter glreadback fbo;#P message 822 528 102 196617 \; jitter glreadback rtt;#P window setfont "Sans Serif" 24.;#P window linecount 1;#P comment 333 188 100 196632 DELAY;#P number 254 189 76 24 1 136 3 3 0 0 0 221 221 221 222 222 222 0 0 0;#P objectname delay;#P comment 333 66 100 196632 SIZE;#P number 254 69 66 24 1 500 3 3 0 0 0 221 221 221 222 222 222 0 0 0;#P objectname size;#P toggle 254 152 26 0;#P objectname play;#P comment 333 150 100 196632 PLAY;#P window setfont "Sans Serif" 9.;#N vpatcher 69 493 304 621;#P window setfont "Sans Serif" 9.;#P newex 103 50 29 196617 gate;#P objectname jit.gl.videoplane[22];#P newex 55 82 40 196617 print a;#P objectname jit.gl.videoplane[15];#P newex 50 61 29 196617 gate;#P objectname jit.gl.videoplane[21];#P newex 106 88 40 196617 print b;#P objectname jit.gl.videoplane[20];#P inlet 50 18 15 0;#P inlet 122 30 15 0;#P inlet 69 41 15 0;#P connect 2 0 4 0;#P connect 4 0 5 0;#P connect 0 0 4 1;#P connect 2 0 6 0;#P connect 6 0 3 0;#P connect 1 0 6 1;#P pop;#P newobj 17 534 62 196617 p print;#P toggle 20 507 15 0;#P objectname toggle[1];#P toggle 254 111 26 0;#P objectname record;#P user jit.fpsgui 4 268 60 196617 0;#P newex 81 501 326 196617 jit.gl.videoplane $2 @scale 1.33 1 1 @automatic 0 @position -1 -1 -2;#P objectname jit.gl.videoplane[13];#P button 21 85 54 0;#P number 43 33 35 9 0 0 0 3 0 0 0 221 221 221 222 222 222 0 0 0;#P newex 230 346 113 196617 zl reg;#P objectname jit.gl.videoplane[10];#P newex 199 315 40 196617 t b b b;#P objectname jit.gl.videoplane[6];#P window setfont "Sans Serif" 18.;#P newex 294 451 360 196626 poly~ m_texture-poly 300 args /lala $2;#B color 5;#P objectname jit.gl.texture[4];#P window setfont "Sans Serif" 9.;#P newex 3 201 231 196617 jit.gl.render $2 @automatic 0 @camera 0 0 2.41;#P objectname jit.gl.render;#P toggle 820 450 15 0;#P objectname toggle;#P newex 3 227 128 196617 jit.window $2 @floating 1;#P objectname jit.window;#P newex 3 59 57 196617 qmetro 40;#P newex 3 156 58 196617 t b b erase;#P window setfont "Sans Serif" 24.;#P comment 333 109 100 196632 RECORD;#P comment 710 378 24 196632 1;#P fasten 5 0 3 0 825 33 8 33;#P fasten 3 0 2 0 8 110 8 110;#P connect 11 0 2 0;#P fasten 2 0 6 0 8 188 8 188;#P fasten 2 2 6 0 56 188 8 188;#P connect 6 0 13 0;#P connect 15 0 16 0;#P connect 27 0 28 0;#P connect 28 0 27 0;#P connect 29 0 30 0;#P connect 30 0 29 0;#P connect 44 0 16 1;#P connect 10 0 3 1;#P connect 2 1 36 0;#P connect 45 1 16 2;#P connect 9 0 45 0;#P connect 45 0 44 0;#P connect 46 0 12 0;#P connect 44 0 12 0;#P connect 8 0 44 1;#P connect 26 0 45 1;#P connect 19 0 25 0;#P connect 43 0 8 0;#P connect 41 0 44 2;#P connect 37 0 38 0;#P connect 38 0 37 0;#P connect 39 0 40 0;#P connect 40 0 39 0;#P connect 8 1 45 2;#P connect 8 2 9 0;#P connect 51 0 46 0;#P connect 25 0 21 0;#P connect 42 0 44 3;#P connect 42 0 45 3;#P connect 46 1 9 1;#P connect 33 0 53 0;#P connect 32 0 33 0;#P connect 35 0 33 0;#P connect 33 0 34 0;#P connect 50 0 31 0;#P connect 33 0 54 0;#P connect 59 0 48 0;#P connect 48 0 47 0;#P pop;