max v2;#N vpatcher 302 99 1386 788;#P user jit.pwindow 564 446 82 62 0 1 0 0 1 0;#P window setfont "Sans Serif" 9.;#P window linecount 1;#P newex 684 277 48 196617 loadbang;#P newex 223 163 56 196617 s v_rmain;#P newex 188 99 51 196617 qmetro 2;#P user jit.fpsgui 145 158 60 196617 0;#P newex 217 289 30 196617 t b b;#P newex 100 328 56 196617 r v_rmain;#P newex 237 367 283 196617 jit.gl.videoplane test @rotatexyz 0 180 0 @scale 1 1.001 1.;#P objectname jit.gl.videoplane;#P newex 100 367 86 196617 jit.gl.render test;#P objectname jit.gl.render;#P newex 237 334 215 196617 jit.gl.texture test @name feed @dim 320 240;#P objectname jit.gl.texture;#P newex 217 270 48 196617 loadbang;#P message 217 308 81 196617 usetexture feed;#P newex 188 125 134 196617 t b erase b to_texture b b b;#P toggle 188 82 15 0;#P newex 280 200 255 196617 jit.gl.gridshape test @shape opencube @poly_mode 1 1;#P newex 133 495 189 196617 jit.window test @size 320 240 @fsaa 1;#P newex 328 174 84 196617 jit.gl.handle test;#P button 167 99 15 0;#N counter 0 359;#X flags 0 0;#P newobj 392 131 74 196617 counter 0 359;#P newex 328 155 126 196617 pak rotatexyz 10. 0. -10.;#P number 250 93 35 9 0 0 0 3 0 0 0 221 221 221 222 222 222 0 0 0;#P newex 133 541 108 196617 jit.qt.record 320 240;#P message 264 541 122 196617 write ttest.mov 25. jpeg;#P window linecount 2;#P comment 643 231 149 196617 this is needed to write the opengl back into a matrix;#P window linecount 1;#P newex 684 337 149 196617 jit.gl.sketch test @automatic 0;#P message 684 296 148 196617 glreadpixels grab 0 0 320 240;#P newex 653 377 152 196617 jit.matrix grab 4 char 320 240;#P newex 637 280 30 196617 t b b;#P newex 565 418 303 196617 jit.matrix @usesrcdim 1 @srcdimstart 0 239 @srcdimend 319 0;#P message 264 561 29 196617 stop;#P connect 23 0 21 0;#P connect 18 0 21 0;#P connect 0 0 8 0;#P connect 7 0 8 0;#P connect 1 0 8 0;#P connect 17 0 25 0;#P connect 16 0 26 0;#P connect 12 0 17 0;#P connect 26 0 17 0;#P connect 19 0 24 0;#P connect 24 0 18 0;#P connect 17 3 27 0;#P connect 17 4 27 0;#P connect 17 1 27 0;#P connect 9 0 26 1;#P connect 24 1 20 0;#P connect 20 0 22 0;#P connect 13 0 15 0;#P connect 17 5 15 0;#P connect 10 0 13 0;#P connect 17 6 11 0;#P connect 11 0 10 2;#P connect 3 0 1 0;#P connect 1 0 29 0;#P connect 17 2 2 0;#P connect 2 0 3 0;#P connect 28 0 4 0;#P connect 2 1 5 0;#P connect 4 0 5 0;#P pop;