max v2;#N vpatcher 746 238 912 387;#P origin 0 -14;#P window setfont "Sans Serif" 12.;#P window linecount 1;#N vpatcher 359 80 807 696;#P origin 0 15;#P window setfont "Sans Serif" 9.;#P window linecount 1;#P newex 37 277 244 196617 makeparam /movie/render2texture/sw /movie t 0;#B color 12;#P toggle 7 79 15 0;#P window linecount 2;#P message 159 241 186 196617 \; /movie/render2texture/sw/init bang \;;#P window linecount 1;#P newex 7 56 244 196617 makeparam /movie/render2texture/sw /movie t 0;#B color 12;#P newex 7 103 29 196617 gate;#P newex 250 60 143 196617 unpack i i;#P newex 250 166 64 196617 prepend dim;#P newex 383 85 27 196617 - 1;#P newex 221 85 27 196617 - 1;#P newex 250 85 128 196617 pak 640 480;#P newex 174 194 104 196617 pak srcdimend 639 0;#P newex 281 194 112 196617 pak srcdimstart 0 479;#P window linecount 4;#P message 260 108 103 196617 \; /out.1/fullscreen 0 \; /out.1/size/x \$1 \; /out.1/size/y \$2 \;;#P window linecount 1;#P newex 26 77 118 196617 r /movie/drawglrecord;#B color 12;#P newex 53 116 48 196617 loadbang;#B color 5;#P newex 53 170 167 196617 jit.gl.sketch movie.1 @automatic 0;#P message 53 142 157 196617 glreadpixels grab 0 0 \$1 \$2 480;#P newex 7 194 152 196617 jit.matrix grab 4 char 640 480;#P newex 7 124 44 196617 t b b;#P newex 7 219 303 196617 jit.matrix @usesrcdim 1 @srcdimstart 0 479 @srcdimend 639 0;#P user ubumenu 250 40 100 196617 0 1 1 0;#X add 320 240;#X add 640 480;#X add 1024 768;#X prefix_set 0 0 <none> 0;#P newex 117 553 208 196617 print -------movie_recorder-------------;#B color 5;#P newex 37 300 216 196617 sel 1 0;#P window linecount 0;#P newex 7 553 108 196617 jit.qt.record 640 480;#B color 5;#P window linecount 1;#P newex 118 389 62 196617 projectpath;#B color 5;#P window linecount 0;#P newex 118 507 49 196617 tosymbol;#P newex 131 423 63 196617 unpack 0 0 0;#P newex 200 423 75 196617 unpack 0 0 0;#P message 281 523 29 196617 stop;#P newex 37 329 172 196617 t b b b;#P message 183 352 27 196617 date;#P message 211 352 28 196617 time;#P newex 183 374 40 196617 date;#P newex 118 450 141 196617 sprintf %smedia/movies/records/%d.%d.%d.%d.%d.%d.mov;#P newex 37 527 221 196617 pack write s 25. photojpeg max 600;#P connect 31 0 33 0;#P connect 33 0 30 0;#P connect 30 0 16 0;#P fasten 28 0 17 0 255 190 12 190;#P lcolor 2;#P connect 16 0 17 0;#P connect 17 0 15 0;#P fasten 23 0 15 0 286 215 12 215;#P fasten 24 0 15 0 179 215 12 215;#P connect 15 0 11 0;#P fasten 6 0 11 0 286 546 12 546;#P fasten 0 0 11 0 42 546 12 546;#P connect 21 0 30 1;#P connect 34 0 12 0;#P connect 12 0 5 0;#P connect 5 0 0 0;#P connect 25 0 18 0;#P lcolor 2;#P connect 20 0 18 0;#P connect 18 0 19 0;#P fasten 16 1 19 0 46 162 58 162;#P connect 9 0 0 1;#P connect 11 1 13 0;#P connect 5 1 10 0;#P connect 10 0 1 0;#P connect 1 0 9 0;#P fasten 2 0 8 0 188 418 136 418;#P connect 8 2 1 1;#P connect 8 0 1 2;#P connect 8 1 1 3;#P connect 5 2 4 0;#P connect 4 0 2 0;#P fasten 3 0 2 0 216 370 188 370;#P fasten 2 1 7 0 203 394 205 394;#P connect 7 0 1 4;#P connect 5 2 3 0;#P connect 29 0 26 0;#P connect 26 0 24 1;#P lcolor 1;#P connect 7 1 1 5;#P connect 7 2 1 6;#P connect 14 0 29 0;#P connect 29 0 25 0;#P connect 25 0 28 0;#P lcolor 2;#P connect 25 0 22 0;#P lcolor 2;#P fasten 12 1 6 0 145 324 286 324;#P connect 29 1 25 1;#P connect 29 1 27 0;#P connect 27 0 23 2;#P lcolor 1;#P pop;#P newobj 48 74 89 196620 p gl-recorder;#B color 6;#P window setfont "Sans Serif" 9.;#P hidden newex 71 31 213 196617 variedit /movie/render2texture/sw /movie;#P toggle 50 31 17 0;#P comment 15 33 40 196617 record;#P hidden connect 2 0 1 0;#P hidden connect 1 0 2 0;#P pop;