max v2;#N vpatcher 37 181 1026 1014;#P origin -14 0;#P window setfont "Sans Serif" 12.;#P window linecount 1;#P comment 32 417 16 196620 2;#B color 12;#P comment 32 384 16 196620 1;#B color 12;#P window setfont "Sans Serif" 9.;#P window linecount 4;#P comment 0 323 344 196617 In the second \, we see an exact mirror of our window view (plus the invisible planes that only appear in the peephole) \, and since the peephole essentially rotates with our camera (i.e. transform_reset 2) \, it's easy to see the correct representation.;#P window linecount 3;#P comment 0 279 344 196617 In the first \, though \, the reason it looks off is because the "peephole" is not rotating with us. So it is showing our current window view \, but the plane on which it is displayed is not always perpendicular to our line of sight;#P window linecount 2;#P message 51 379 225 196617 reset \, drawobject fb_plane 0 \, transform_reset 0 \, position 0. 0. 0. \, scale 1 1 1 \, layer 0;#P message 51 412 238 196617 reset \, drawobject fb_plane 0 \, transform_reset 2 \, position -0.65 0.55 0. \, scale 0.3 0.4 0.3 \, layer 1;#P window setfont "Sans Serif" 12.;#P comment 291 565 262 196620 THE OBJECT WITH THE HIGHER LAYER WILL RENDER IN FRONT OF THE OTHER ONE;#B color 12;#P comment 291 526 288 196620 CHANGE LAYER (TO RIGHT AND ABOVE) TO CHANGE VIDEOPLANE FRONT/BACK RENDERING;#B color 12;#P window linecount 1;#P comment 476 280 372 196620 CHANGE DRAW ORDER TO CONTROL FRONT/BACK RENDERING;#B color 12;#P window setfont "Sans Serif" 9.;#P message 483 300 352 196617 reset \, drawobject floory 0 \, drawobject ol_plane 0 \, drawobject ol2_plane 0;#P comment 712 412 208 196617 2c. add texture to videoplane name fb_plane;#P comment 626 390 125 196617 2b. instantiate as texture;#P comment 802 571 38 196617 floory;#P newex 467 388 157 196617 jit.gl.texture test @name fb_tex;#P comment 632 367 111 196617 2a. capture videoplanes;#P comment 596 481 163 196617 1.populate videoplanes with image;#P number 365 417 35 9 0 0 0 3 0 0 0 221 221 221 222 222 222 0 0 0;#P message 365 440 49 196617 layer \$1;#P number 716 539 35 9 0 0 0 3 0 0 0 221 221 221 222 222 222 0 0 0;#P message 716 562 49 196617 layer \$1;#N vpatcher 25 70 278 263;#P window setfont "Sans Serif" 9.;#P flonum 165 59 35 9 0 0 0 3 0 0 0 221 221 221 222 222 222 0 0 0;#P newex 69 86 106 196617 jit.op @op > @val 0.3;#P newex 69 115 85 196617 jit.pack;#P newex 51 50 85 196617 jit.unpack;#P inlet 51 30 15 0;#P outlet 69 139 15 0;#P connect 1 0 2 0;#P connect 2 1 4 0;#P connect 4 0 3 0;#P connect 3 0 0 0;#P connect 2 1 3 1;#P connect 2 2 3 2;#P connect 2 3 3 3;#P connect 5 0 4 1;#P pop;#P newobj 585 566 103 196617 p extractFakeAlpha;#P comment 366 213 74 196617 0. initialize;#P button 349 212 15 0;#P newex 349 185 206 196617 jit.window test @size 640 480 @pos 10 50;#P newex 349 232 48 196617 loadbang;#P newex 396 137 79 196617 z.glNav2 test 3;#P message 400 234 29 196617 reset;#P window setfont "Sans Serif" 10.;#P window linecount 2;#P message 585 497 115 196618 importmovie chilis.jpg \, bang;#P window setfont "Sans Serif" 9.;#P window linecount 3;#P newex 696 586 237 196617 jit.gl.videoplane test @automatic 1 @name floory @blend_enable 1 @position 0. -0.5 0.5 @rotate 90 1 0 0 0 @layer 1;#P window linecount 1;#P message 483 322 359 196617 reset \, drawobject ol2_plane 0 \, drawobject ol_plane 0 \, drawobject floory 0;#P window linecount 2;#P newex 585 668 247 196617 jit.gl.videoplane test @automatic 0 @name ol2_plane @blend_enable 1 @position 0.75 0.55;#P flonum 396 91 35 9 0 0 0 3 0 0 0 221 221 221 222 222 222 0 0 0;#P window linecount 1;#N vpatcher 53 128 196 272;#P window setfont "Sans Serif" 9.;#P newex 41 99 41 196617 s draw;#P newex 17 52 58 196617 t b b erase;#P inlet 17 32 15 0;#P outlet 17 83 15 0;#P connect 1 0 2 0;#P connect 2 0 0 0;#P fasten 2 2 0 0 70 75 22 75;#P connect 2 1 3 0;#P pop;#P newobj 349 137 42 196617 p Draw;#P toggle 349 89 15 0;#P newex 349 112 57 196617 qmetro 33;#P newex 349 162 194 196617 jit.gl.render test @erase_color 0 0 0 1;#P comment 443 412 21 196617 FB;#P window linecount 2;#P newex 467 411 243 196617 jit.gl.videoplane test @texture fb_tex @automatic 0 @name fb_plane @position 0 0 -1.5;#P window linecount 1;#P newex 585 537 63 196617 jit.matrix;#P window linecount 2;#P newex 608 634 227 196617 jit.gl.videoplane test @automatic 0 @name ol_plane @blend_enable 1 @position 1 0 0.5;#P window linecount 1;#P comment 563 639 21 196617 OL;#P comment 502 460 128 196617 3.draw fb_plane to screen;#P message 349 459 150 196617 reset \, drawobject fb_plane 0;#P newex 349 253 246 196617 t b b b;#P message 467 345 352 196617 reset \, drawobject ol_plane 0 \, drawobject ol2_plane 0 \, drawobject floory 0;#P newex 349 479 129 196617 jit.gl.sketch test @layer 0;#P newex 467 365 163 196617 jit.gl.sketch test @capture fb_tex;#P comment 0 260 336 196617 The grabbed texture is rendered correctly in both of these scenarios;#P connect 14 0 13 0;#P connect 13 0 15 0;#P fasten 22 0 12 0 401 159 354 159;#P connect 15 0 12 0;#P connect 25 0 23 0;#P fasten 21 0 4 0 405 252 354 252;#P connect 23 0 4 0;#P connect 4 0 5 0;#P fasten 43 0 2 0 56 444 354 444;#P fasten 42 0 2 0 56 444 354 444;#P connect 30 0 2 0;#P connect 5 0 2 0;#P connect 31 0 30 0;#P connect 16 0 13 1;#P connect 4 1 3 0;#P connect 38 0 1 0;#P connect 18 0 1 0;#P connect 3 0 1 0;#P connect 4 2 20 0;#P connect 20 0 9 0;#P connect 9 0 27 0;#P connect 27 0 17 0;#P connect 27 0 8 0;#P connect 28 0 19 0;#P fasten 9 0 19 0 590 560 701 560;#P connect 29 0 28 0;#P pop;