max v2;#N vpatcher 323 80 899 453;#P window setfont "Sans Serif" 9.;#P window linecount 2;#P comment 316 45 173 196617 arg 1 : matrix name \; arg 2 : environment name (i.e. tape);#N comlet matrix data out for affected zone;#P outlet 20 122 15 0;#P window linecount 1;#P newex 20 92 48 196617 t s s;#P newex 242 144 27 196617 + 1;#P newex 140 246 55 196617 pack 0 0;#P newex 140 180 100 196617 t b i b;#P newex 140 216 40 196617 i;#P newex 140 141 28 196617 t i 2;#P newex 252 254 135 196617 s $1/textyoffset+;#B color 11;#P number 269 194 35 9 0 0 0 3 0 0 0 221 221 221 222 222 222 0 0 0;#P newex 252 234 112 196617 * 1;#P newex 252 214 27 196617 i;#P newex 269 173 128 196617 r $1/textyoffset;#B color 11;#P newex 379 329 107 196617 s $1/textmute;#B color 11;#P newex 289 329 86 196617 s $1/text;#B color 11;#P newex 242 293 118 196617 gate 4;#P newex 58 118 133 196617 unpack s s 0 0;#N coll $2_matrix;#P newobj 58 67 108 196617 coll $2_matrix;#B color 5;#P newex 172 329 111 196617 s $1/texterase;#B color 11;#P comment 218 113 87 196617 change dB value;#N comlet to coll;#P inlet 58 45 15 0;#P connect 3 0 18 0;#P connect 18 0 19 0;#P connect 0 0 3 0;#P connect 18 1 4 0;#P connect 4 2 13 0;#P connect 13 0 15 0;#P connect 15 0 14 0;#P connect 14 0 16 0;#P fasten 3 1 14 1 95 92 175 92;#P connect 5 0 2 0;#P connect 15 1 16 1;#P fasten 4 3 17 0 186 139 247 139;#P lcolor 13;#P connect 17 0 5 0;#P fasten 15 2 9 0 235 205 257 205;#P lcolor 7;#P connect 9 0 10 0;#P connect 10 0 12 0;#P connect 8 0 11 0;#P connect 11 0 9 1;#P connect 5 2 6 0;#P fasten 16 0 5 1 145 279 355 279;#P lcolor 13;#P fasten 13 1 10 1 163 169 359 169;#P lcolor 13;#P connect 5 3 7 0;#P pop;