max v2;#N vpatcher 82 55 441 514;#P window setfont "Sans Serif" 9.;#P window linecount 2;#P comment 76 395 173 196617 arg 1 : matrix name \; arg 2 : environment name (i.e. tape);#N comlet zone number if inactive;#P outlet 31 312 15 0;#P window linecount 4;#P comment 46 312 43 196617 zone number if inactive;#P window linecount 1;#P newex 31 264 130 196617 i;#P newex 179 248 27 196617 i;#P newex 196 147 42 196617 zl nth 3;#N comlet value if active;#P outlet 179 348 15 0;#P window linecount 2;#P comment 195 348 45 196617 value if active;#N comlet zone number if active;#P outlet 98 312 15 0;#P window linecount 4;#P comment 113 312 37 196617 zone number if active;#N comlet current state if active;#P outlet 230 312 15 0;#P window linecount 1;#P newex 98 219 143 196617 t b b i;#N comlet zone number;#P inlet 68 41 15 0;#P newex 68 155 40 196617 sel 0 1;#P newex 98 242 44 196617 i;#P newex 68 80 74 196617 t i i;#P newex 68 133 42 196617 zl nth 4;#N coll $2_matrix;#P newobj 68 105 139 196617 coll $2_matrix;#B color 5;#P window linecount 2;#P comment 247 312 65 196617 current state if active;#P comment 85 41 39 196617 zone number;#P connect 6 1 16 0;#P connect 16 0 18 0;#P connect 7 0 4 0;#P connect 4 0 2 0;#P connect 2 0 3 0;#P connect 3 0 6 0;#P connect 6 2 8 0;#P connect 8 0 5 0;#P connect 5 0 11 0;#P connect 4 1 5 1;#P fasten 4 1 16 1 137 165 156 165;#P connect 8 1 15 0;#P connect 15 0 13 0;#P connect 2 0 14 0;#P connect 14 0 15 1;#P connect 8 2 9 0;#P pop;