max v2;#N vpatcher 82 55 437 458;#P inlet 68 70 15 0;#P window setfont "Sans Serif" 9.;#P window linecount 3;#P comment 204 89 100 196617 check_valueD (for Data in directly (without coll lookup);#N comlet zone number if inactive;#P outlet 31 312 15 0;#P window linecount 4;#P comment 46 312 43 196617 zone number if inactive;#P window linecount 1;#P newex 31 264 130 196617 i;#P newex 179 248 27 196617 i;#P newex 196 147 42 196617 zl nth 3;#N comlet value if active;#P outlet 179 348 15 0;#P window linecount 2;#P comment 195 348 45 196617 value if active;#N comlet zone number if active;#P outlet 98 312 15 0;#P window linecount 4;#P comment 113 312 37 196617 zone number if active;#N comlet current state if active;#P outlet 230 312 15 0;#P window linecount 1;#P newex 98 219 143 196617 t b b i;#N comlet zone number;#P inlet 132 41 15 0;#P newex 68 155 40 196617 sel 0 1;#P newex 98 242 44 196617 i;#P newex 68 133 42 196617 zl nth 4;#P window linecount 2;#P comment 247 312 65 196617 current state if active;#P comment 148 38 39 196617 zone number;#P comment 84 66 52 196617 connection data;#P connect 5 1 15 0;#P connect 15 0 17 0;#P connect 19 0 3 0;#P connect 3 0 5 0;#P connect 5 2 7 0;#P connect 7 0 4 0;#P connect 4 0 10 0;#P connect 6 0 4 1;#P fasten 6 0 15 1 137 160 156 160;#P connect 7 1 14 0;#P connect 14 0 12 0;#P connect 19 0 13 0;#P connect 13 0 14 1;#P connect 7 2 8 0;#P pop;