max v2;#N vpatcher 86 198 918 645;#P window setfont "Sans Serif" 9.;#P window linecount 2;#P comment 554 343 173 196617 arg 1 : matrix name \; arg 2 : environment name (i.e. tape);#P window linecount 1;#P newex 367 335 27 196617 t 20;#P number 367 356 35 9 0 0 0 3 0 0 0 221 221 221 222 222 222 0 0 0;#P newex 150 375 227 196617 zl join;#P newex 626 279 90 196617 s $1/showcursor;#B color 11;#P newex 626 258 29 196617 == 0;#P newex 654 38 49 196617 r $1/xy;#B color 11;#N comlet matrix data out for affected zone;#P outlet 150 396 15 0;#P comment 166 397 158 196617 matrix data out for affected zone;#P newex 532 162 27 196617 t 0 i;#P newex 488 140 129 196617 check_active $1 $2;#B color 6;#P number 329 244 37 9 -127 18 3 3 0 0 0 221 221 221 222 222 222 0 0 0;#P newex 329 266 122 196617 editvalue;#B color 6;#P newex 357 140 113 196617 check_value $1 $2;#B color 6;#P newex 226 235 39 196617 state;#B color 6;#P newex 255 209 50 196617 toggle+ 2;#B color 6;#P newex 167 180 129 196617 check_active $1 $2;#B color 6;#P newex 21 235 42 196617 connect;#B color 6;#P newex 21 180 127 196617 check_active $1 $2;#B color 6;#P newex 79 235 55 196617 disconnect;#B color 6;#P newex 329 299 142 196617 change_value $1 $2;#B color 6;#P newex 21 299 136 196617 change_state $1 $2;#B color 6;#P number 488 67 35 9 0 0 0 3 0 0 0 221 221 221 222 222 222 0 0 0;#N comlet zone number to make 0;#P inlet 488 41 15 0;#P window linecount 3;#P comment 430 41 56 196617 zone number to make 0 dB;#P window linecount 1;#P newex 699 155 62 196617 first-thru 0;#B color 6;#P number 665 196 35 9 0 0 0 3 0 0 0 221 221 221 222 222 222 0 0 0;#P newex 467 168 21 196617 t 1;#P newex 329 219 28 196617 !- 0;#P newex 596 86 27 196617 0;#N comlet bang to close mouse-to-value gate;#P inlet 596 41 15 0;#P newex 665 176 44 196617 -;#P newex 718 128 30 196617 sel 1;#P toggle 665 112 15 0;#P newex 665 155 27 196617 gate;#P number 682 80 35 9 0 0 0 3 0 0 0 221 221 221 222 222 222 0 0 0;#P newex 654 59 38 196617 unpack;#N comlet zone number to edit value;#P inlet 357 41 15 0;#P number 357 67 35 9 0 0 0 3 0 0 0 221 221 221 222 222 222 0 0 0;#P window linecount 2;#P comment 295 41 61 196617 zone number to edit value;#P window linecount 3;#P comment 182 30 83 196617 zone number to mute/unmute (toggle);#N comlet zone number to on/off (toggle);#P inlet 21 41 15 0;#P number 21 67 35 9 0 0 0 3 0 0 0 221 221 221 222 222 222 0 0 0;#N comlet zone number to mute/unmute (toggle);#P inlet 167 41 15 0;#P number 167 67 35 9 0 0 0 3 0 0 0 221 221 221 222 222 222 0 0 0;#P comment 36 30 61 196617 zone number to on/off (toggle);#P window linecount 4;#P comment 542 41 53 196617 bang to close mouse-to-value gate;#P window linecount 2;#P comment 652 220 63 196617 adjust value with mouse;#P connect 6 0 5 0;#P connect 5 0 29 0;#P connect 29 0 30 0;#P connect 33 0 26 0;#P connect 30 0 26 0;#P connect 28 0 26 0;#P connect 29 1 28 0;#P connect 26 0 44 0;#P connect 27 0 44 0;#P connect 44 0 40 0;#P connect 4 0 3 0;#P connect 3 0 31 0;#P connect 31 1 33 0;#P connect 31 2 32 0;#P connect 32 0 33 1;#P fasten 21 0 19 0 670 214 334 214;#P lcolor 5;#P connect 19 0 36 0;#P fasten 38 0 36 0 537 240 334 240;#P lcolor 13;#P connect 36 0 35 0;#P connect 28 1 27 0;#P connect 35 0 27 0;#P connect 34 2 19 1;#P connect 10 0 9 0;#P connect 9 0 34 0;#P connect 26 0 46 0;#P connect 27 0 46 0;#P connect 46 0 45 0;#P connect 45 0 44 1;#P connect 34 1 35 1;#P connect 38 1 35 1;#P fasten 37 2 35 2 611 261 446 261;#P connect 34 3 35 2;#P connect 34 3 20 0;#P connect 24 0 25 0;#P connect 25 0 37 0;#P connect 37 1 38 0;#P connect 17 0 18 0;#P connect 14 0 42 0;#P connect 42 0 43 0;#P connect 41 0 11 0;#P fasten 20 0 14 0 472 193 647 193 647 108 670 108;#P lcolor 7;#P fasten 18 0 14 0 601 107 670 107;#P connect 14 0 13 0;#P connect 13 0 16 0;#P connect 16 0 21 0;#P connect 11 1 12 0;#P connect 12 0 13 1;#P connect 12 0 22 0;#P connect 22 0 16 1;#P connect 14 0 15 0;#P connect 15 0 22 1;#P pop;