max v2;#N vpatcher 22 218 397 467;#N comlet to change_value;#P outlet 276 205 15 0;#P window setfont "Sans Serif" 9.;#P window linecount 1;#P newex 276 152 68 196617 erase_value-;#B color 6;#N comlet new state;#P inlet 244 116 15 0;#P newex 145 151 110 196617 pack nsub 0 4 0;#N comlet new val;#P inlet 204 82 15 0;#N comlet to change_state;#P outlet 32 205 15 0;#P newex 32 50 156 196617 t i b i;#N comlet zone number;#P inlet 32 24 15 0;#P newex 105 117 110 196617 pack nsub 0 3 0;#P connect 1 0 2 0;#P connect 5 0 3 0;#P connect 0 0 3 0;#P connect 2 0 3 0;#P connect 2 1 0 0;#P connect 2 2 0 1;#P connect 2 1 5 0;#P connect 2 2 5 1;#P connect 4 0 0 3;#P connect 6 0 5 3;#P fasten 2 2 7 0 183 73 281 73;#P connect 7 0 8 0;#P pop;