max v2;#N vpatcher 40 55 437 254;#N comlet to change_value;#P outlet 251 143 15 0;#P window setfont "Sans Serif" 9.;#P window linecount 1;#P newex 251 99 68 196617 erase_value-;#B color 6;#N comlet to change_state;#P outlet 34 143 15 0;#P newex 34 64 156 196617 t i b i;#N comlet zone number;#P inlet 34 38 15 0;#P newex 158 99 78 196617 pack nsub 0 4 1;#P newex 60 99 95 196617 pack nsub 0 3 -127;#P connect 2 0 3 0;#P connect 0 0 4 0;#P connect 3 0 4 0;#P connect 1 0 4 0;#P connect 3 1 0 0;#P connect 3 2 0 1;#P connect 3 1 1 0;#P connect 3 2 1 1;#P connect 3 2 5 0;#P connect 5 0 6 0;#P pop;