max v2;#N vpatcher 40 54 429 290;#N comlet current state;#P inlet 270 60 15 0;#P window setfont "Sans Serif" 9.;#P window linecount 2;#P comment 286 60 40 196617 current state;#N comlet value;#P inlet 34 29 15 0;#P window linecount 1;#P comment 50 30 32 196617 value;#P newex 34 125 27 196617 i;#P newex 250 122 30 196617 i;#P newex 250 142 88 196617 erase_value;#B color 6;#N comlet to change_value;#P outlet 34 185 15 0;#P newex 34 73 227 196617 t b b f b;#N comlet zone number;#P inlet 130 27 15 0;#P newex 106 123 83 196617 pack nsub 0 3 0.;#P comment 146 28 64 196617 zone number;#P connect 9 0 3 0;#P connect 3 0 7 0;#P fasten 1 0 4 0 111 172 39 172;#P connect 7 0 4 0;#P fasten 5 0 4 0 255 172 39 172;#P connect 2 0 7 1;#P connect 3 1 1 0;#P connect 2 0 1 1;#P connect 3 2 1 3;#P connect 3 3 6 0;#P connect 6 0 5 0;#P connect 11 0 6 1;#P fasten 2 0 5 1 135 52 333 52;#P pop;