max v2;#N vpatcher 40 55 355 300;#N comlet state;#P inlet 38 41 15 0;#P window setfont "Sans Serif" 9.;#P newex 38 131 78 196617 pack nsub 0 4 0;#P newex 38 67 76 196617 t b b b i;#P newex 135 131 27 196617 i;#N comlet to coll;#P outlet 135 190 15 0;#N comlet zone number;#P inlet 209 41 15 0;#P newex 187 131 78 196617 pack nsub 0 4 0;#P comment 197 152 33 196617 erase;#P connect 7 0 5 0;#P connect 5 0 6 0;#P connect 2 0 6 1;#P connect 5 3 6 3;#P connect 5 1 4 0;#P connect 4 0 3 0;#P connect 6 0 3 0;#P connect 1 0 3 0;#P connect 2 0 4 1;#P connect 5 2 1 0;#P connect 2 0 1 1;#P pop;