max v2;#N vpatcher 47 53 421 606;#P window setfont "Sans Serif" 9.;#P window linecount 2;#P comment 132 496 173 196617 arg 1 : matrix name \; arg 2 : environment name (i.e. tape);#P window linecount 1;#P newex 48 365 40 196617 b 3;#P window linecount 3;#P comment 65 452 59 196617 connection number data;#N comlet connection number data;#P outlet 48 462 15 0;#N comlet zone number;#P outlet 148 462 15 0;#N comlet connection [source] [destination];#P inlet 49 32 15 0;#P window linecount 1;#P newex 148 394 27 196617 i;#P newex 79 181 27 196617 - 1;#P message 17 129 33 196617 pause;#P newex 48 418 187 196617 zl reg;#P newex 180 341 30 196617 sel 1;#P newex 180 320 27 196617 &&;#P newex 114 230 122 196617 t s s 0 s;#P newex 151 285 29 196617 == 2;#P newex 114 285 29 196617 == 1;#P newex 151 265 34 196617 zl sub;#P newex 114 265 34 196617 zl sub;#P message 144 182 35 196617 goto 0;#P number 68 130 35 9 0 0 0 3 0 0 0 221 221 221 222 222 222 0 0 0;#P message 68 92 35 196617 length;#P newex 68 110 47 196617 grab;#P newex 49 66 201 196617 t b b s;#P newex 239 230 54 196617 unpack s s;#P newex 49 153 40 196617 Uzi;#P message 114 182 28 196617 next;#N coll $2_matrix;#P newobj 114 208 125 196617 coll $2_matrix;#B color 5;#P comment 66 32 155 196617 connection [source] [destination];#P window linecount 2;#P comment 164 452 47 196617 zone number;#P fasten 26 2 19 0 83 385 113 385 113 339 11 339 11 126 22 126;#P lcolor 13;#P fasten 17 0 26 0 185 360 53 360;#P connect 26 0 18 0;#P connect 18 0 24 0;#P connect 22 0 6 0;#P connect 19 0 4 0;#P connect 6 0 4 0;#P fasten 6 1 8 0 149 88 73 88;#P connect 8 0 7 0;#P connect 7 0 9 0;#P fasten 9 0 4 1 73 149 84 149;#P connect 4 2 20 0;#P connect 4 0 3 0;#P fasten 7 1 2 0 110 204 119 204;#P connect 3 0 2 0;#P connect 10 0 2 0;#P connect 2 0 15 0;#P connect 15 0 11 0;#P connect 11 0 13 0;#P fasten 5 0 11 1 244 253 143 253;#P lcolor 13;#P connect 6 1 10 0;#P fasten 26 1 21 0 68 390 153 390;#P connect 21 0 23 0;#P connect 15 1 12 0;#P connect 12 0 14 0;#P fasten 20 0 21 1 84 334 170 334;#P fasten 5 1 12 1 288 259 180 259;#P lcolor 13;#P connect 15 2 16 0;#P connect 13 0 16 0;#P connect 16 0 17 0;#P connect 14 0 16 1;#P connect 15 2 16 1;#P connect 15 3 18 1;#P connect 6 2 5 0;#P pop;