max v2;#N vpatcher 487 166 1219 484;#P window setfont "Sans Serif" 9.;#P window linecount 1;#P newex 218 263 89 196617 s $1/com;#B color 11;#P newex 338 62 103 196617 r $1/zonesize;#B color 11;#P newex 560 62 119 196617 r $1/bkgndcolor+;#B color 11;#P newex 444 62 112 196617 r $1/gridcolor+;#B color 11;#P newex 128 62 93 196617 r $1/mouse;#B color 11;#P newex 43 62 77 196617 r $1/xy;#B color 11;#P newex 227 62 106 196617 r $1/interface;#B color 11;#N comlet update;#P outlet 63 250 15 0;#P comment 79 250 35 196617 update;#N comlet zone number clicked in;#P outlet 348 250 15 0;#P comment 231 250 45 196617 lcd_com;#P comment 144 46 55 196617 lcd_mouse;#P comment 59 46 39 196617 lcd_xy;#P comment 243 46 65 196617 lcd_interface;#P window linecount 2;#P comment 339 36 80 196617 zone size (x y in pixels);#P window linecount 1;#P comment 576 46 84 196617 background color;#P comment 460 46 52 196617 grid color;#N comlet [zone] [x offset] [y offset] [font num] [font size] [text...;#P inlet 512 170 15 0;#P window linecount 2;#P comment 527 170 144 196617 [zone] [x offset] [y offset] [font num] [font size] [text...;#P window linecount 1;#N vpatcher 174 184 1385 827;#P window setfont "Sans Serif" 9.;#P window linecount 1;#P newex 835 438 27 196617 + 1;#P newex 767 341 27 196617 - 2;#P newex 767 321 27 196617 / 2;#P newex 807 405 27 196617 - 2;#P comment 663 91 229 196617 Erase with paintrect to be compatible with max5;#P newex 685 513 89 196617 prepend paintrect;#P newex 735 438 42 196617 -;#P newex 785 438 32 196617 +;#P newex 685 490 311 196617 pack 0 0 0 0 0 0 0;#P newex 685 343 32 196617 + 0.5;#P comment 696 128 44 196617 x offset;#P comment 774 129 44 196617 y offset;#P number 1145 443 35 9 0 0 0 3 0 0 0 221 221 221 222 222 222 0 0 0;#P comment 1151 430 13 196617 b;#P number 1092 443 35 9 0 0 0 3 0 0 0 221 221 221 222 222 222 0 0 0;#P comment 1098 430 13 196617 g;#P number 1039 443 35 9 0 0 0 3 0 0 0 221 221 221 222 222 222 0 0 0;#P comment 1045 430 13 196617 r;#P newex 685 226 40 196617 split;#P newex 735 405 27 196617 +;#P newex 685 405 27 196617 +;#P newex 609 109 565 196617 unpack 0 0 0 0 0 0 0 0;#P newex 609 88 49 196617 zl slice 8;#P newex 735 378 27 196617 *;#P newex 685 378 27 196617 *;#P newex 829 240 55 196617 unpack 0 0;#P newex 685 321 78 196617 * 1.;#P newex 685 300 35 196617 - 0.;#P newex 685 279 61 196617 t f i i;#P newex 685 258 27 196617 / 1.;#P newex 753 240 45 196617 unpack 0;#P window linecount 0;#P newex 22 39 62 196617 route erase;#P newex 98 343 32 196617 + 0.5;#P comment 109 128 44 196617 x offset;#P comment 187 129 44 196617 y offset;#P number 558 443 35 9 0 0 0 3 0 0 0 221 221 221 222 222 222 0 0 0;#P comment 564 430 13 196617 b;#P number 505 443 35 9 0 0 0 3 0 0 0 221 221 221 222 222 222 0 0 0;#P comment 511 430 13 196617 g;#P number 452 443 35 9 0 0 0 3 0 0 0 221 221 221 222 222 222 0 0 0;#P comment 458 430 13 196617 r;#P newex 452 465 117 196617 pack 0 0 0;#P newex 452 540 65 196617 prepend frgb;#P message 227 542 55 196617 penmode 0;#N comlet lcd_com;#P outlet 141 587 15 0;#P comment 158 588 45 196617 lcd_com;#N comlet [zone] [font num] [font size] [x offset] [y offset] [text...;#P inlet 22 22 15 0;#N comlet max zone number;#P inlet 336 182 15 0;#N comlet from detect - zone size (x y in pixels);#P inlet 242 182 15 0;#P comment 257 182 71 196617 zone size (x y in pixels);#N comlet [columns] [rows];#P inlet 166 182 15 0;#P comment 182 182 50 196617 [columns] [rows];#P newex 98 226 40 196617 split;#P newex 148 405 27 196617 +;#P newex 98 405 27 196617 +;#P newex 22 109 565 196617 unpack 0 0 0 0 0 0 0 0;#P newex 37 499 34 196617 zl reg;#P newex 22 88 49 196617 zl slice 8;#P comment 358 429 44 196617 fontnum;#P number 352 442 35 9 0 0 0 3 0 0 0 221 221 221 222 222 222 0 0 0;#P newex 141 499 27 196617 i;#P newex 141 520 53 196617 pack;#P number 399 442 35 9 0 0 0 3 0 0 0 221 221 221 222 222 222 0 0 0;#P newex 184 499 27 196617 i;#P newex 141 542 64 196617 prepend font;#P newex 37 542 71 196617 prepend write;#P newex 98 448 182 196617 t b b b b l;#P newex 98 427 50 196617 pack;#P newex 297 542 79 196617 prepend moveto;#P newex 148 378 27 196617 *;#P newex 98 378 27 196617 *;#P newex 242 240 55 196617 unpack 0 0;#P newex 98 321 78 196617 * 1.;#P newex 98 300 35 196617 - 0.;#P newex 98 279 61 196617 t f i i;#P newex 98 258 27 196617 / 1.;#P newex 166 240 45 196617 unpack 0;#P comment 405 429 44 196617 fontsize;#P comment 318 144 38 196617 max zone number;#P comment 43 24 265 196617 [zone] [font num] [font size] [x offset] [y offset] [text...;#P connect 33 0 48 0;#P connect 48 1 22 0;#P connect 22 0 24 0;#P connect 13 0 23 0;#P connect 23 0 14 0;#P connect 22 1 23 1;#P fasten 24 0 27 0 27 218 103 218;#P lcolor 5;#P connect 27 0 4 0;#P connect 4 0 5 0;#P connect 5 0 6 0;#P connect 6 0 7 0;#P connect 7 0 47 0;#P connect 47 0 9 0;#P connect 9 0 25 0;#P connect 25 0 12 0;#P connect 12 0 13 0;#P connect 3 0 4 1;#P fasten 8 0 9 1 247 370 120 370;#P lcolor 6;#P fasten 24 1 25 1 106 198 142 198 142 402 120 402;#P lcolor 7;#P connect 5 1 6 1;#P fasten 32 0 27 2 341 217 133 217;#P lcolor 13;#P connect 26 0 12 1;#P connect 13 1 19 0;#P connect 19 0 18 0;#P connect 18 0 15 0;#P connect 37 0 35 0;#P connect 15 0 35 0;#P connect 11 0 35 0;#P connect 14 0 35 0;#P connect 36 0 35 0;#P fasten 74 0 35 0 690 577 146 577;#P connect 5 2 10 0;#P connect 10 0 26 0;#P connect 20 0 19 1;#P fasten 8 1 10 1 292 374 170 374;#P lcolor 6;#P fasten 24 2 26 1 185 175 236 175 236 401 170 401;#P lcolor 5;#P connect 29 0 3 0;#P connect 3 0 7 1;#P connect 13 2 16 0;#P connect 16 0 18 1;#P connect 17 0 16 1;#P connect 13 3 36 0;#P connect 31 0 8 0;#P connect 13 4 11 0;#P fasten 24 3 20 0 264 142 357 142;#P fasten 24 4 17 0 343 135 404 135;#P fasten 24 5 40 0 422 278 457 278;#P connect 40 0 38 0;#P connect 38 0 37 0;#P fasten 24 6 42 0 501 278 510 278;#P connect 42 0 38 1;#P fasten 24 7 44 0 580 278 563 278;#P connect 44 0 38 2;#P fasten 48 0 57 0 27 72 614 72;#P connect 57 0 58 0;#P fasten 58 0 61 0 614 218 690 218;#P lcolor 5;#P connect 61 0 50 0;#P connect 50 0 51 0;#P connect 51 0 52 0;#P connect 52 0 53 0;#P connect 53 0 70 0;#P connect 70 0 55 0;#P connect 55 0 59 0;#P connect 59 0 71 0;#P connect 71 0 74 0;#P connect 49 0 50 1;#P fasten 54 0 55 1 834 370 707 370;#P lcolor 6;#P fasten 58 1 59 1 693 198 729 198 729 402 707 402;#P lcolor 7;#P connect 51 1 52 1;#P connect 32 0 61 2;#P connect 51 2 56 0;#P connect 56 0 60 0;#P connect 60 0 73 0;#P connect 73 0 71 1;#P fasten 54 1 56 1 879 374 757 374;#P lcolor 6;#P fasten 58 2 60 1 772 175 823 175 823 401 757 401;#P lcolor 5;#P connect 29 0 49 0;#P connect 49 0 53 1;#P connect 58 2 77 0;#P connect 77 0 78 0;#P connect 78 0 73 1;#P connect 59 0 72 0;#P connect 72 0 71 2;#P connect 54 0 76 0;#P connect 76 0 72 1;#P connect 31 0 54 0;#P connect 60 0 79 0;#P connect 79 0 71 3;#P connect 63 0 71 4;#P connect 65 0 71 5;#P connect 67 0 71 6;#P fasten 58 5 63 0 1009 278 1044 278;#P fasten 58 6 65 0 1088 278 1097 278;#P fasten 58 7 67 0 1167 278 1150 278;#P pop;#P newobj 232 219 73 196617 p text;#B color 6;#P number 348 217 35 9 0 0 0 3 0 0 0 221 221 221 222 222 222 0 0 0;#N vpatcher 67 51 507 504;#N comlet max zone number;#P outlet 377 342 15 0;#N comlet zone size (x y in pixels);#P outlet 338 73 15 0;#N comlet [columns] [rows];#P outlet 164 142 15 0;#P window setfont "Sans Serif" 9.;#P newex 33 124 27 196617 t l l;#N comlet [columns] [rows];#P inlet 216 33 15 0;#N comlet zone number clicked in;#P outlet 102 380 15 0;#N comlet lcd_mouse;#P inlet 122 33 15 0;#P comment 138 33 55 196617 lcd_mouse;#N comlet lcd_xy;#P inlet 36 33 15 0;#N comlet from grid - zone size (x y in pixels);#P inlet 318 33 15 0;#P newex 199 307 27 196617 - 1;#P newex 199 288 27 196617 *;#P newex 232 340 40 196617 split;#P number 232 364 35 9 0 0 0 3 0 0 0 221 221 221 222 222 222 0 0 0;#P newex 232 300 50 196617 +;#P newex 272 279 27 196617 *;#P newex 272 234 27 196617 /;#P newex 232 234 27 196617 /;#P number 272 186 35 9 0 0 0 3 0 0 0 221 221 221 222 222 222 0 0 0;#P number 232 186 35 9 0 0 0 3 0 0 0 221 221 221 222 222 222 0 0 0;#P newex 232 164 50 196617 unpack;#P number 73 192 35 9 0 0 0 3 0 0 0 221 221 221 222 222 222 0 0 0;#P number 33 192 35 9 0 0 0 3 0 0 0 221 221 221 222 222 222 0 0 0;#P number 358 192 35 9 0 0 0 3 0 0 0 221 221 221 222 222 222 0 0 0;#P number 318 192 35 9 0 0 0 3 0 0 0 221 221 221 222 222 222 0 0 0;#P newex 318 170 50 196617 unpack;#P newex 33 170 50 196617 unpack;#P message 261 138 14 196617 0;#P newex 232 138 27 196617 t l b;#P newex 232 118 27 196617 gate;#P toggle 122 56 15 0;#P comment 336 33 71 196617 zone size (x y in pixels);#P comment 52 33 39 196617 lcd_xy;#P comment 250 382 50 196617 zone number clicked in;#P comment 232 33 50 196617 [columns] [rows];#P comment 366 299 38 196617 max zone number;#P connect 31 0 32 0;#P connect 32 0 9 0;#P connect 9 0 13 0;#P connect 9 1 14 0;#P connect 22 0 30 0;#P connect 29 0 5 0;#P connect 32 1 33 0;#P fasten 13 0 24 0 38 273 204 273;#P lcolor 13;#P connect 24 0 25 0;#P fasten 14 0 24 1 78 281 221 281;#P connect 5 0 6 0;#P connect 8 0 6 0;#P connect 6 0 7 0;#P connect 7 0 15 0;#P connect 15 0 16 0;#P connect 16 0 18 0;#P connect 18 0 21 0;#P connect 21 0 23 0;#P connect 23 0 22 0;#P fasten 27 0 6 1 41 80 254 80;#P lcolor 7;#P fasten 11 0 18 1 323 217 254 217;#P lcolor 5;#P connect 7 1 8 0;#P connect 25 0 23 2;#P connect 15 1 17 0;#P connect 17 0 19 0;#P connect 19 0 20 0;#P connect 20 0 21 1;#P fasten 12 0 19 1 363 224 294 224;#P lcolor 6;#P fasten 13 0 20 1 38 273 294 273;#P lcolor 13;#P connect 26 0 10 0;#P connect 10 0 11 0;#P connect 26 0 34 0;#P connect 10 1 12 0;#P connect 25 0 35 0;#P pop;#P newobj 232 170 73 196617 p detect;#B color 6;#N vpatcher 557 70 1179 657;#P window setfont "Sans Serif" 9.;#P message 32 428 73 196617 \; $1/showcursor 1;#N comlet update chain;#P outlet 16 125 15 0;#P newex 16 100 45 196617 b;#P message 495 467 73 196617 brgb \$1 \$2 \$3;#P comment 511 392 84 196617 background color;#N comlet background color;#P inlet 495 392 15 0;#P number 452 434 35 9 0 0 0 3 0 0 0 221 221 221 222 222 222 0 0 0;#P number 415 434 35 9 0 0 0 3 0 0 0 221 221 221 222 222 222 0 0 0;#P number 378 434 35 9 0 0 0 3 0 0 0 221 221 221 222 222 222 0 0 0;#P comment 394 392 52 196617 grid color;#P newex 378 411 84 196617 unpack 0 0 0;#N comlet grid color rgb;#P inlet 378 392 15 0;#N comlet zone size (x y in pixels);#P outlet 274 100 15 0;#P newex 234 123 34 196617 zl reg;#N comlet [columns] [rows];#P outlet 202 274 15 0;#N comlet lcd_com;#P outlet 51 543 15 0;#N comlet lcd_interface;#P inlet 51 25 15 0;#N comlet zone size (x y in pixels);#P inlet 258 25 15 0;#P newex 180 307 38 196617 unpack;#P newex 104 307 38 196617 unpack;#P newex 104 286 86 196617 t l l;#P newex 104 247 86 196617 pack;#P comment 389 338 32 196617 horiz max;#P newex 134 447 36 196617 t i i;#P newex 237 447 36 196617 t b i;#P newex 285 339 27 196617 *;#P newex 237 426 40 196617 *;#P newex 237 405 27 196617 - 1;#P newex 207 364 40 196617 t b i;#P newex 207 384 40 196617 Uzi;#P newex 207 344 27 196617 + 1;#P comment 178 377 29 196617 draw horiz;#P newex 237 487 92 196617 pack 0 0 0 0 0 0 0;#P newex 360 339 27 196617 *;#P message 51 476 49 196617 clear \, border 0 \, local 0 \, getsize;#P newex 134 426 41 196617 *;#P newex 134 405 27 196617 - 1;#P newex 104 364 40 196617 t b i;#P newex 104 384 40 196617 Uzi;#P newex 134 512 99 196617 prepend linesegment;#P newex 134 487 92 196617 pack 0 0 0 0 0 0 0;#P newex 104 344 27 196617 + 1;#P number 180 227 35 9 0 0 0 3 0 0 0 221 221 221 222 222 222 0 0 0;#P number 104 228 35 9 0 0 0 3 0 0 0 221 221 221 222 222 222 0 0 0;#P newex 180 207 27 196617 /;#P newex 104 100 140 196617 t l b;#P newex 104 207 27 196617 /;#P number 274 167 35 9 0 0 0 3 0 0 0 221 221 221 222 222 222 0 0 0;#P number 234 167 35 9 0 0 0 3 0 0 0 221 221 221 222 222 222 0 0 0;#P newex 234 145 50 196617 unpack;#P number 144 167 35 9 0 0 0 3 0 0 0 221 221 221 222 222 222 0 0 0;#P number 104 167 35 9 0 0 0 3 0 0 0 221 221 221 222 222 222 0 0 0;#P newex 104 145 50 196617 unpack;#P newex 51 45 117 196617 route update size;#P comment 276 25 71 196617 zone size (x y in pixels);#P comment 60 378 45 196617 draw vertical;#P comment 313 339 44 196617 vertical max;#P comment 67 25 68 196617 lcd_interface;#P comment 68 544 45 196617 lcd_com;#P comment 217 274 50 196617 [columns] [rows];#P comment 8 141 37 196617 update thru;#P connect 7 0 58 0;#P connect 58 0 59 0;#P fasten 58 1 60 0 56 264 37 264;#P connect 44 0 7 0;#P connect 58 1 26 0;#P fasten 57 0 45 0 500 537 56 537;#P connect 26 0 45 0;#P fasten 21 0 45 0 139 537 56 537;#P connect 7 1 15 0;#P connect 15 0 8 0;#P connect 8 0 9 0;#P connect 9 0 14 0;#P connect 14 0 17 0;#P connect 17 0 39 0;#P connect 39 0 40 0;#P connect 40 0 41 0;#P connect 41 0 19 0;#P connect 19 0 23 0;#P connect 23 0 22 0;#P fasten 12 0 14 1 239 194 126 194;#P lcolor 5;#P connect 23 1 22 1;#P connect 22 2 24 0;#P connect 24 0 25 0;#P connect 25 0 37 0;#P connect 37 0 20 0;#P connect 28 0 21 0;#P connect 20 0 21 0;#P connect 8 1 10 0;#P connect 37 1 20 2;#P fasten 12 0 25 1 239 194 170 194;#P lcolor 5;#P fasten 27 0 20 3 365 481 178 481;#P lcolor 7;#P connect 10 0 16 0;#P connect 16 0 18 0;#P connect 18 0 39 1;#P connect 40 1 42 0;#P connect 52 0 20 4;#P fasten 13 0 16 1 279 201 202 201;#P lcolor 6;#P connect 53 0 20 5;#P connect 39 0 46 0;#P fasten 41 1 30 0 137 338 212 338;#P connect 30 0 32 0;#P connect 32 0 31 0;#P connect 54 0 20 6;#P connect 15 1 47 0;#P connect 47 0 11 0;#P connect 11 0 12 0;#P connect 32 1 31 1;#P connect 31 2 33 0;#P connect 33 0 34 0;#P connect 34 0 36 0;#P connect 36 0 28 0;#P connect 36 1 28 1;#P connect 43 0 47 1;#P fasten 35 0 28 2 290 476 268 476;#P lcolor 13;#P fasten 13 0 34 1 279 201 272 201;#P lcolor 6;#P connect 43 0 48 0;#P connect 11 1 13 0;#P connect 36 1 28 3;#P fasten 42 0 35 0 185 333 290 333;#P lcolor 13;#P connect 52 0 28 4;#P fasten 12 0 35 1 239 194 307 194;#P lcolor 5;#P connect 53 0 28 5;#P connect 54 0 28 6;#P fasten 42 1 27 0 213 328 365 328;#P lcolor 7;#P fasten 13 0 27 1 279 201 382 201;#P lcolor 6;#P connect 49 0 50 0;#P connect 50 0 52 0;#P connect 50 1 53 0;#P connect 50 2 54 0;#P connect 55 0 57 0;#P pop;#P newobj 232 112 73 196617 p grid;#B color 6;#P window linecount 3;#P comment 384 217 60 196617 zone number clicked in;#P connect 1 0 16 0;#P fasten 1 1 23 0 258 148 223 148;#P connect 4 0 23 0;#P connect 17 0 1 0;#P connect 18 0 2 0;#P fasten 6 0 4 0 517 196 237 196;#P lcolor 13;#P connect 22 0 1 1;#P connect 19 0 2 1;#P connect 2 1 4 1;#P connect 20 0 1 2;#P connect 1 2 2 2;#P connect 2 2 4 2;#P connect 21 0 1 3;#P connect 1 3 2 3;#P connect 2 3 4 3;#P connect 2 0 3 0;#P connect 3 0 14 0;#P pop;