max v2;#N vpatcher 40 55 623 507;#P button 37 306 15 0;#P button 37 105 15 0;#P window setfont "Sans Serif" 9.;#P newex 37 277 27 196617 t b i;#P newex 20 154 21 196617 t 1;#P newex 212 277 27 196617 t b i;#N comlet to inputs comment and outputs comment;#P outlet 211 124 15 0;#P button 211 56 15 0;#P newex 443 330 70 196617 prepend refer;#P newex 443 309 110 196617 r $1/outputscoll;#B color 11;#P newex 329 330 70 196617 prepend refer;#P newex 329 309 110 196617 r $1/inputscoll;#B color 11;#P newex 211 99 31 196617 t b 0;#P newex 211 35 138 196617 r $1/inoutcoll/reset;#B color 11;#N comlet to inputs comment and outputs comment;#P outlet 37 125 15 0;#N comlet from outputs comment;#P inlet 212 196 15 0;#N comlet from inputs comment;#P inlet 37 196 15 0;#P newex 229 404 83 196617 s $1/outs;#B color 11;#P newex 54 404 75 196617 s $1/ins;#B color 11;#P window linecount 2;#P newex 212 242 75 196617 textlist-to-coll $1;#B color 6;#P window linecount 1;#N coll ;#P newobj 277 379 53 196617 coll;#B color 5;#P window linecount 2;#P newex 37 242 75 196617 textlist-to-coll $1;#B color 6;#P window linecount 1;#N coll ;#P newobj 102 379 53 196617 coll;#B color 5;#P fasten 19 0 18 0 42 300 15 300 15 149 25 149;#P connect 17 0 20 0;#P connect 20 0 8 0;#P connect 6 0 1 0;#P connect 1 0 19 0;#P connect 19 0 21 0;#P connect 19 1 4 0;#P fasten 18 0 1 1 25 175 107 175;#P lcolor 7;#P fasten 10 1 1 1 237 150 107 150;#P lcolor 5;#P connect 12 0 0 0;#P connect 1 1 0 0;#P connect 9 0 15 0;#P connect 15 0 10 0;#P connect 10 0 16 0;#P connect 7 0 3 0;#P connect 3 0 17 0;#P connect 17 1 5 0;#P fasten 10 1 3 1 237 150 282 150;#P lcolor 5;#P fasten 18 0 3 1 25 181 282 181;#P lcolor 7;#P connect 14 0 2 0;#P connect 3 1 2 0;#P connect 11 0 12 0;#P connect 13 0 14 0;#P pop;