max v2;#N vpatcher 40 55 505 249;#N comlet commands;#P outlet 171 150 15 0;#P window setfont "Sans Serif" 9.;#P newex 171 107 82 196617 r $1/com;#B color 11;#P newex 27 53 74 196617 s $1/xy;#B color 11;#N comlet xy;#P inlet 27 30 15 0;#P newex 113 53 92 196617 s $1/idlexy;#B color 11;#N comlet idle xy;#P inlet 113 30 15 0;#P newex 221 53 92 196617 s $1/mouse;#B color 11;#N comlet mouse;#P inlet 221 30 15 0;#P newex 332 53 103 196617 s $1/interface;#B color 11;#N comlet dump;#P inlet 332 30 15 0;#P connect 6 0 7 0;#P connect 4 0 5 0;#P connect 8 0 9 0;#P connect 2 0 3 0;#P connect 0 0 1 0;#P pop;