max v2;#N vpatcher 274 78 674 461;#P outlet 33 327 15 0;#P window setfont "Sans Serif" 9.;#P window linecount 1;#P newex 50 71 289 196617 b;#P message 329 301 35 196617 set \\\;;#P button 50 53 15 0;#N comlet bang to create message box;#P inlet 50 34 15 0;#P newex 33 277 49 196617 zl slice 3;#P newex 33 298 268 196617 sprintf append $1 connect %s %s %ld\\\;;#P newex 109 228 58 196617 &&;#P newex 157 206 29 196617 == 2;#P newex 33 256 27 196617 gate;#P newex 109 206 45 196617 != -127.;#P newex 67 183 101 196617 unpack s s 0. 0;#P newex 50 141 61 196617 prepend list;#P newex 50 162 27 196617 t l l;#P message 50 102 31 196617 dump;#N coll $2;#P newobj 50 120 115 196617 coll $2;#B color 5;#P window linecount 2;#P comment 180 116 134 196617 arg 1 : matrix prefix name \; arg 2 : coll matrix name \;;#P connect 9 0 7 0;#P connect 7 0 11 0;#P connect 11 0 10 0;#P fasten 14 0 16 0 334 321 38 321;#P connect 10 0 16 0;#P connect 12 0 13 0;#P connect 13 0 15 0;#P connect 15 0 2 0;#P connect 2 0 1 0;#P connect 1 0 4 0;#P connect 4 0 3 0;#P connect 3 0 7 1;#P connect 3 1 5 0;#P connect 5 2 6 0;#P connect 6 0 9 0;#P connect 5 3 8 0;#P connect 8 0 9 1;#P connect 15 1 14 0;#P pop;