max v2;#N vpatcher 134 110 532 557;#P window setfont "Sans Serif" 9.;#P window linecount 1;#P newex 40 49 34 196617 defer;#P newex 40 25 172 196617 r $1/matrixreset;#B color 11;#P message 301 331 31 196617 clear;#P newex 77 304 28 196617 t b s;#N counter;#X flags 0 0;#P newobj 233 330 66 196617 counter;#N coll $2_matrixoutputs 1;#P newobj 40 153 152 196617 coll $2_matrixoutputs 1;#B color 5;#P newex 40 173 40 196617 t b i;#P newex 40 214 27 196617 b;#P newex 40 194 40 196617 Uzi;#P newex 52 361 90 196617 pack 0 s s -127 1;#P newex 77 283 65 196617 route symbol;#P message 40 240 31 196617 dump;#P newex 40 115 179 196617 b;#P button 40 73 15 0;#P message 40 135 35 196617 length;#P newex 218 283 65 196617 route symbol;#P message 179 240 28 196617 next;#P message 209 240 35 196617 goto 0;#N coll $2_matrixoutputs 1;#P newobj 179 261 136 196617 coll $2_matrixoutputs 1;#B color 5;#N coll $2_matrixinputs 1;#P newobj 40 261 130 196617 coll $2_matrixinputs 1;#B color 5;#N coll $2_matrix;#P newobj 52 385 126 196617 coll $2_matrix;#B color 5;#P connect 19 0 20 0;#P connect 20 0 7 0;#P connect 7 0 8 0;#P connect 8 0 6 0;#P connect 6 0 15 0;#P connect 15 0 14 0;#P connect 14 0 12 0;#P connect 12 0 13 0;#P connect 13 0 9 0;#P connect 9 0 1 0;#P connect 16 0 11 0;#P fasten 18 0 0 0 306 381 57 381;#P connect 11 0 0 0;#P connect 14 1 12 1;#P connect 17 1 11 1;#P connect 1 1 10 0;#P connect 10 0 17 0;#P connect 5 0 11 2;#P connect 13 1 4 0;#P connect 3 0 2 0;#P connect 4 0 2 0;#P connect 8 1 3 0;#P connect 2 1 5 0;#P fasten 17 0 16 0 82 324 238 324;#P connect 8 1 16 2;#P connect 8 1 18 0;#P pop;