max v2;#N vpatcher 40 55 351 338;#N comlet index;#P outlet 137 236 15 0;#N comlet bang;#P inlet 61 28 15 0;#P window setfont "Sans Serif" 9.;#P number 137 215 35 9 0 0 0 3 0 0 0 221 221 221 222 222 222 0 0 0;#P newex 146 84 70 196617 prepend refer;#P newex 146 63 131 196617 r $1/matrixcoll;#B color 11;#N coll ;#P newobj 109 110 108 196617 coll;#B color 5;#P message 17 144 41 196617 resume;#P newex 91 195 42 196617 del $2;#P newex 137 195 27 196617 - 1;#P message 104 143 33 196617 pause;#P newex 91 169 102 196617 t b i b;#P newex 61 142 40 196617 Uzi;#P newex 61 49 40 196617 b;#P message 91 69 35 196617 length;#P newex 91 87 28 196617 grab;#P connect 7 0 8 0;#P connect 13 0 2 0;#P connect 8 0 3 0;#P connect 5 0 3 0;#P connect 2 0 3 0;#P connect 2 1 1 0;#P connect 1 0 0 0;#P connect 0 0 3 1;#P connect 3 2 4 0;#P connect 4 0 7 0;#P connect 4 2 5 0;#P connect 11 0 9 0;#P connect 0 1 9 0;#P connect 4 1 6 0;#P connect 6 0 12 0;#P connect 12 0 14 0;#P connect 10 0 11 0;#P pop;