max v2;#N vpatcher 40 55 325 250;#P window setfont "Sans Serif" 9.;#P window linecount 1;#P newex 52 61 55 196617 t i b i;#N comlet zone number;#P inlet 52 38 15 0;#N comlet to change_state;#P outlet 52 143 15 0;#N comlet state;#P inlet 140 38 15 0;#P newex 74 99 78 196617 pack nsub 0 4 0;#P connect 3 0 4 0;#P connect 4 0 2 0;#P connect 0 0 2 0;#P connect 4 1 0 0;#P connect 4 2 0 1;#P connect 1 0 0 3;#P pop;