max v2;#N vpatcher 40 55 1137 332;#P window setfont "Sans Serif" 9.;#P newex 802 199 73 196617 prepend erase;#P newex 802 179 146 196617 zl join;#P newex 960 125 109 196617 r $1/bkgndcolor+;#B color 11;#P newex 946 107 110 196617 r $1/textfontsize;#B color 11;#P newex 932 89 110 196617 r $1/textfontnum;#B color 11;#P newex 918 71 113 196617 r $1/textyoffset+;#B color 11;#P newex 904 53 107 196617 r $1/textxoffset;#B color 11;#P newex 802 83 49 196617 zl slice 1;#P newex 802 157 105 196617 pack 0 0 0 0 0 0 0 0;#P newex 802 48 99 196617 r $1/texterase;#B color 11;#P outlet 264 230 15 0;#P newex 543 179 146 196617 zl join;#P newex 688 125 116 196617 r $1/textoffcolor+;#B color 11;#P newex 674 107 110 196617 r $1/textfontsize;#B color 11;#P newex 660 89 110 196617 r $1/textfontnum;#B color 11;#P newex 646 71 113 196617 r $1/textyoffset+;#B color 11;#P newex 632 53 107 196617 r $1/textxoffset;#B color 11;#P newex 543 83 49 196617 zl slice 1;#P newex 543 157 105 196617 pack 0 0 0 0 0 0 0 0;#P newex 543 48 87 196617 r $1/textoff;#B color 11;#P newex 264 179 146 196617 zl join;#P newex 17 179 146 196617 zl join;#P newex 418 125 125 196617 r $1/textmutecolor+;#B color 11;#P newex 404 107 110 196617 r $1/textfontsize;#B color 11;#P newex 390 89 110 196617 r $1/textfontnum;#B color 11;#P newex 376 71 113 196617 r $1/textyoffset+;#B color 11;#P newex 362 53 107 196617 r $1/textxoffset;#B color 11;#P newex 264 83 49 196617 zl slice 1;#P newex 264 157 105 196617 pack 0 0 0 0 0 0 0 0;#P newex 264 48 96 196617 r $1/textmute;#B color 11;#P newex 162 125 103 196617 r $1/textcolor+;#B color 11;#P newex 148 107 110 196617 r $1/textfontsize;#B color 11;#P newex 134 89 110 196617 r $1/textfontnum;#B color 11;#P newex 120 71 113 196617 r $1/textyoffset+;#B color 11;#P newex 106 53 107 196617 r $1/textxoffset;#B color 11;#P newex 17 83 49 196617 zl slice 1;#P newex 17 157 105 196617 pack 0 0 0 0 0 0 0 0;#P newex 17 48 74 196617 r $1/text;#B color 11;#P comment 173 31 159 196617 textfont = [font num] [font size];#P comment 173 16 159 196617 textoffset = [x offset] [y offset];#P connect 2 0 4 0;#P connect 4 0 3 0;#P connect 3 0 18 0;#P connect 5 0 3 1;#P connect 6 0 3 2;#P connect 7 0 3 3;#P connect 8 0 3 4;#P connect 9 0 3 5;#P connect 4 1 18 1;#P connect 10 0 12 0;#P connect 12 0 11 0;#P connect 11 0 19 0;#P connect 19 0 29 0;#P connect 18 0 29 0;#P connect 28 0 29 0;#P connect 39 0 29 0;#P connect 13 0 11 1;#P connect 14 0 11 2;#P connect 15 0 11 3;#P connect 16 0 11 4;#P connect 17 0 11 5;#P connect 12 1 19 1;#P connect 20 0 22 0;#P connect 22 0 21 0;#P connect 21 0 28 0;#P connect 23 0 21 1;#P connect 24 0 21 2;#P connect 25 0 21 3;#P connect 26 0 21 4;#P connect 27 0 21 5;#P connect 22 1 28 1;#P connect 30 0 32 0;#P connect 32 0 31 0;#P connect 31 0 38 0;#P connect 38 0 39 0;#P connect 33 0 31 1;#P connect 34 0 31 2;#P connect 35 0 31 3;#P connect 36 0 31 4;#P connect 37 0 31 5;#P connect 32 1 38 1;#P pop;