max v2;#N vpatcher 97 102 542 465;#P window setfont "Sans Serif" 9.;#P window linecount 2;#P comment 98 301 173 196617 arg 1 : matrix name \; arg 2 : environment name (i.e. tape);#P window linecount 1;#P newex 340 230 69 196617 prepend ramp;#N comlet connection data;#P inlet 20 29 15 0;#P newex 20 258 84 196617 s $1~;#B color 11;#P newex 20 230 58 196617 pack 0 0 0.;#P newex 211 191 21 196617 t 0;#P flonum 196 214 57 9 0 0 0 3 0 0 0 221 221 221 222 222 222 0 0 0;#P number 260 138 35 9 0 0 0 3 0 0 0 221 221 221 222 222 222 0 0 0;#P newex 181 164 40 196617 gate 3;#P flonum 180 138 57 9 0 0 0 3 0 0 0 221 221 221 222 222 222 0 0 0;#P newex 180 119 114 196617 expr pow(10\\\,$f1/20);#P newex 100 119 78 196617 prepend symbol;#P newex 20 119 78 196617 prepend symbol;#P number 100 200 35 9 0 0 0 3 0 0 0 221 221 221 222 222 222 0 0 0;#P number 20 200 35 9 0 0 0 3 0 0 0 221 221 221 222 222 222 0 0 0;#P window linecount 3;#N coll $2_matrixinputs 1;#P newobj 20 138 63 196617 coll $2_matrixinputs 1;#B color 5;#N coll $2_matrixoutputs 1;#P newobj 100 138 62 196617 coll $2_matrixoutputs 1;#B color 5;#P window linecount 1;#P newex 20 92 333 196617 unpack s s f i i;#P connect 15 0 0 0;#P connect 0 0 5 0;#P connect 5 0 2 0;#P connect 2 0 3 0;#P connect 3 0 13 0;#P connect 13 0 14 0;#P fasten 16 0 14 0 345 254 25 254;#P connect 4 0 13 1;#P connect 11 0 13 2;#P connect 0 1 6 0;#P connect 6 0 1 0;#P connect 1 0 4 0;#P connect 0 2 7 0;#P connect 7 0 8 0;#P connect 10 0 9 0;#P connect 9 1 11 0;#P connect 12 0 11 0;#P connect 8 0 9 1;#P connect 9 0 12 0;#P connect 9 2 12 0;#P connect 0 3 10 0;#P connect 0 4 16 0;#P pop;