max v2;#N vpatcher 479 141 861 610;#P origin -241 3;#P window setfont "Sans Serif" 9.;#P window linecount 8;#P message 215 156 137 196617 \; /oscsend.1/sw 1 \; /oscsend.1/port 44000 \; /oscsend.1/host 127.0.0.1 \; /oscsend.1/alias <none> \; /oscreceive.1/sw 1 \; /oscreceive.1/port 44000 \; /oscreceive.1/print 1 \;;#P window linecount 1;#P newex 22 90 203 196617 t 1 b;#P newex 22 110 58 196617 metro 100;#N counter;#X flags 0 0;#P newobj 22 132 66 196617 counter;#P window linecount 2;#P message 22 156 187 196617 \; /oscsend.1 test de projet sans build \$1;#P bpatcher 21 369 257 63 0 0 tm_udpreceiver.edit.mxt 0 /oscreceive.1;#P objectname oscreceive.1[1];#P bpatcher 21 304 257 63 0 0 tm_udpsender.edit.mxt 0 /oscsend.1;#P objectname oscsend.1[1];#P window setfont Times 9.;#P window linecount 1;#P newex 33 222 160 1310729 tm_udpsender /oscsend.1 /common;#P objectname oscsend.1;#P newex 33 262 160 1310729 tm_udpreceiver /oscreceive.1 /common;#P objectname oscreceive.1;#N vpatcher 254 68 476 301;#N comlet to thispatcher;#P outlet 31 190 15 0;#N comlet from toggle;#P inlet 16 106 15 0;#N comlet to toggle;#P outlet 16 72 15 0;#P window setfont Times 9.;#P newex 16 52 18 1310729 t 1;#P newex 16 31 43 1310729 loadbang;#P newex 16 124 40 1310729 sel 1 0;#P window setfont "Sans Serif" 9.;#P message 31 146 158 196617 window flags close \, window exec;#P message 16 164 168 196617 window flags noclose \, window exec;#P connect 3 0 4 0;#P connect 4 0 5 0;#P connect 6 0 2 0;#P connect 2 0 0 0;#P connect 2 1 1 0;#P connect 1 0 7 0;#P connect 0 0 7 0;#P pop;#P hidden newobj 32 -1 50 1310729 p closebox;#B color 6;#P toggle 9 1 15 0;#P comment 25 1 74 1310729 inhibit close box;#P button 22 71 15 0;#P window setfont "Sans Serif" 9.;#P newex 22 50 99 196617 r /instruments/init;#B color 9;#P hidden newex 106 4 189 196617 editorwindow /instruments /tapemovie;#B color 6;#N thispatcher;#Q end;#P hidden newobj 106 24 61 196617 thispatcher;#P hidden connect 6 0 5 0;#P connect 2 0 3 0;#P connect 3 0 14 0;#P connect 14 0 13 0;#P connect 13 0 12 0;#P connect 12 0 11 0;#P hidden connect 5 0 6 0;#P hidden fasten 0 0 1 0 111 44 102 44 102 1 111 1;#P hidden connect 1 0 0 0;#P hidden connect 6 1 0 0;#P connect 14 1 15 0;#P pop;