max v2;#N vpatcher 401 44 952 365;#P origin 0 -5;#P window setfont Times 9.;#P window linecount 1;#P comment 159 35 43 1310729 /subsend;#B frgb 0 0 200;#P window setfont "Sans Serif" 9.;#P newex 200 230 192 196617 variedit $1/subsend $1;#B color 11;#P window setfont Times 9.;#P newex 92 231 66 1310729 pvar subsend 2;#P window setfont "Sans Serif" 9.;#P newex 92 210 142 196617 r $1/subsend/tomenu;#B color 4;#P user ubumenu 199 33 47 196617 0 1 1 0;#X add none;#X add sub.1;#X add sub.2;#X prefix_set 0 0 <none> 0;#P objectname subsend;#P window setfont Times 9.;#P flonum 119 34 37 9 0 0 0 20 0 0 0 221 221 221 222 222 222 0 0 0;#P objectname subvol;#P comment 83 34 39 1310729 /subvol;#B frgb 0 0 200;#P window setfont "Sans Serif" 9.;#P newex 183 146 192 196617 variedit $1/subvol $1;#B color 11;#P window setfont Times 9.;#P newex 183 166 55 1310729 pvar subvol;#P flonum 44 34 37 9 0 0 0 20 0 0 0 221 221 221 222 222 222 0 0 0;#P objectname vol;#P window setfont "Sans Serif" 9.;#P comment 15 108 117 196617 bpat bkgnd = 256 X 62;#P comment 15 127 119 196617 bpat editor = 258 X 64;#P window setfont Times 9.;#P comment 81 73 82 1310729 arg 1 : prefix name;#P comment 21 34 24 1310729 /vol;#B frgb 0 0 200;#P window setfont "Sans Serif" 9.;#P newex 183 91 192 196617 variedit $1/vol $1;#B color 11;#P window setfont Times 9.;#P newex 183 111 42 1310729 pvar vol;#P bpatcher 0 0 256 62 0 0 bkgnd.mxt 0 $1 0 1;#P objectname background;#P connect 13 0 14 0;#P connect 15 0 14 0;#P fasten 1 0 2 0 188 133 180 133 180 85 188 85;#P connect 2 0 1 0;#P fasten 8 0 9 0 188 188 180 188 180 140 188 140;#P connect 9 0 8 0;#P connect 14 1 15 0;#P pop;