max v2;#N vpatcher 81 374 1078 859;#P origin 0 -3;#P window setfont "Sans Serif" 9.;#P comment 42 163 198 196617 no longer need to send to module_register. happens in build.;#P window linecount 1;#P newex 607 295 102 196617 s $1/subsend;#B color 13;#P message 394 222 73 196617 /#1none/in~;#P newex 589 252 142 196617 r $1/subsend/tomenu;#B color 4;#P newex 812 320 110 196617 s $1/subsend/tomenu;#B color 4;#P flonum 335 134 35 9 0. 2. 3 3 0 0 0 221 221 221 222 222 222 0 0 0;#P newex 284 134 49 196617 t_vol~ 2;#B color 6;#P newex 394 134 172 196617 makeparam $1/subsend $1 m sub.1;#B color 13;#P newex 323 108 210 196617 makeparam $1/subvol $1 f 1 0 1 2;#B color 13;#P message 394 177 73 196617 $1none;#P newex 394 202 101 196617 sprintf set /%s/in~;#P newex 394 154 90 196617 route none;#P user ubumenu 589 273 47 196617 0 1 1 0;#X add none;#X add sub.1;#X add sub.2;#X prefix_set 0 0 <none> 0;#P message 853 300 93 196617 clear \, append none;#P newex 812 274 117 196617 sprintf append subb.%ld;#P newex 812 250 40 196617 uzi;#P newex 759 210 21 196617 t 0;#P button 778 66 15 0;#P number 812 231 35 9 0 0 0 3 0 0 0 221 221 221 222 222 222 0 0 0;#P newex 793 158 29 196617 t 0 i;#P newex 759 190 29 196617 gate;#P newex 778 87 57 196617 t b b 1 b;#P message 793 111 65 196617 symbol subb;#N coll t_config 1;#P newobj 793 134 82 196617 coll t_config 1;#B color 5;#P newex 284 225 72 196617 send~ $1none;#B color 4;#P newex 357 302 60 196617 loadmess 1;#P newex 253 105 35 196617 gate~;#P newex 292 253 260 196617 makeparam $1/vol $1 f 1 0 2 2;#B color 13;#P newex 253 21 271 196617 makeswitch $1/sw $1 tape_switchstate 1;#B color 13;#P toggle 253 42 15 0;#P newex 292 302 59 196617 r /dac/vol;#B color 11;#P flonum 304 327 35 9 0. 2. 3 3 0 0 0 221 221 221 222 222 222 0 0 0;#P newex 253 327 49 196617 t_vol~ 2;#B color 6;#P button 26 50 15 0;#P window linecount 7;#P message 44 72 144 196617 \; $1/sw/init bang \; $1/vol/init bang \; $1/subvol/init bang \; $1/subsend/init bang \; $1/filt/init bang \; $1/del/init bang \;;#P window linecount 1;#P newex 26 29 125 196617 moduleinit $1;#B color 13;#P newex 253 379 151 196617 t_delmin $1/del 1000;#B color 5;#P newex 253 356 137 196617 t_filter1 $1/filt;#B color 5;#P newex 253 402 325 196617 t_peakmeter~ $1;#B color 5;#P flonum 304 276 35 9 0. 2. 3 3 0 0 0 221 221 221 222 222 222 0 0 0;#P newex 253 276 49 196617 t_vol~ 2;#B color 6;#P newex 278 80 118 196617 receive~ $1/in~;#B color 4;#P number 26 254 35 9 0 0 0 3 0 0 0 221 221 221 222 222 222 0 0 0;#P newex 26 232 40 196617 change;#P message 26 192 78 196617 $1;#P newex 26 211 50 196617 stripnum;#B color 6;#P message 26 276 39 196617 set \$1;#P newex 232 435 40 196617 dac~ 1;#P window linecount 2;#P comment 31 305 180 196617 arg 1 : module prefix name (use name with ".#" for instance number \;;#P comment 31 341 107 196617 patch by Tom Mays contact@tommays.net;#P connect 14 0 16 0;#P connect 16 0 5 0;#P connect 5 0 4 0;#P connect 4 0 6 0;#P connect 6 0 7 0;#P connect 7 0 3 0;#P connect 16 0 15 0;#P fasten 3 0 2 0 31 297 237 297;#P connect 11 0 2 0;#P connect 21 0 20 0;#P connect 20 0 23 0;#P connect 23 0 9 0;#P connect 9 0 17 0;#P connect 17 0 12 0;#P connect 12 0 13 0;#P connect 13 0 11 0;#P connect 8 0 23 1;#P connect 23 0 43 0;#P connect 39 0 25 0;#P connect 43 0 25 0;#P connect 22 0 9 1;#P connect 10 0 9 1;#P connect 19 0 17 1;#P connect 18 0 17 1;#P connect 9 1 10 0;#P connect 24 0 18 0;#P connect 17 1 18 0;#P connect 44 0 43 1;#P connect 41 0 43 1;#P connect 43 1 44 0;#P connect 42 0 38 0;#P connect 38 0 40 0;#P connect 40 0 39 0;#P fasten 38 1 39 0 479 198 399 198;#P connect 39 0 47 0;#P fasten 20 0 11 1 258 74 573 74;#P connect 46 0 37 0;#P connect 37 1 48 0;#P connect 30 0 29 0;#P connect 28 2 29 0;#P connect 29 0 33 0;#P connect 16 0 32 0;#P lcolor 7;#P connect 32 0 28 0;#P connect 28 0 29 1;#P connect 28 1 27 0;#P connect 27 0 26 0;#P connect 26 0 30 0;#P connect 30 1 31 0;#P connect 33 0 31 0;#P connect 31 0 34 0;#P connect 34 2 35 0;#P connect 35 0 45 0;#P connect 36 0 45 0;#P connect 28 3 36 0;#P pop;