max v2;#N vpatcher 80 171 762 466;#P hidden inlet 216 313 15 0;#P window setfont "Sans Serif" 9.;#P comment 3213 0 100 196617;#P button 83 257 15 0;#P window linecount 1;#P comment 101 257 39 196617 delete;#P button 17 257 15 0;#P comment 34 257 31 196617 build;#P hidden newex 143 287 128 196617 editorwindow /subb /tape;#B color 6;#N thispatcher;#Q end;#P hidden newobj 143 317 61 196617 thispatcher;#P hidden newex 17 287 120 196617 t_editdac-builder subb 1;#B color 6;#P window linecount 0;#P comment 1 0 100 196617;#P hidden connect 5 0 1 0;#P hidden connect 7 0 1 1;#P hidden fasten 2 0 3 0 148 338 291 338 291 283 148 283;#P hidden connect 3 0 2 0;#P hidden fasten 1 0 2 0 22 312 148 312;#P pop;