max v2;#N vpatcher 62 186 720 578;#P window setfont "Sans Serif" 9.;#P comment 135 146 163 196617 no longer need to send to module_register. happens in build.;#P number 31 286 35 9 0 0 0 3 0 0 0 221 221 221 222 222 222 0 0 0;#P window linecount 1;#P newex 31 179 87 196617 t b i;#P newex 31 264 87 196617 + 1;#P number 31 245 35 9 0 0 0 3 0 0 0 221 221 221 222 222 222 0 0 0;#P message 31 201 60 196617 symbol dac;#N coll t_config 1;#P newobj 31 223 75 196617 coll t_config 1;#B color 5;#P newex 430 161 60 196617 loadmess 1;#P newex 301 105 35 196617 gate~;#P newex 365 112 260 196617 makeparam $1/vol $1 f 1 0 2 2;#B color 13;#P newex 301 32 271 196617 makeswitch $1/sw $1 tape_switchstate 1;#B color 13;#P toggle 301 53 15 0;#P newex 365 161 59 196617 r /dac/vol;#B color 11;#P flonum 377 186 35 9 0. 2. 3 3 0 0 0 221 221 221 222 222 222 0 0 0;#P newex 326 186 49 196617 t_vol~ 2;#B color 6;#P button 31 50 15 0;#P window linecount 5;#P message 136 76 144 196617 \; $1/sw/init bang \; $1/vol/init bang \; $1/filt/init bang \; $1/del/init bang \;;#P window linecount 1;#P newex 31 29 125 196617 moduleinit $1;#B color 13;#P newex 326 238 151 196617 t_delmin $1/del 1000;#B color 5;#P newex 326 215 137 196617 t_filter1 $1/filt;#B color 5;#P newex 326 261 240 196617 t_peakmeter~ $1;#B color 5;#P flonum 377 135 35 9 0. 2. 3 3 0 0 0 221 221 221 222 222 222 0 0 0;#P newex 326 135 49 196617 t_vol~ 2;#B color 6;#P newex 326 80 118 196617 receive~ $1/in~;#B color 4;#P number 31 151 35 9 0 0 0 3 0 0 0 221 221 221 222 222 222 0 0 0;#P newex 31 126 40 196617 change;#P message 31 81 78 196617 $1;#P newex 31 101 50 196617 stripnum;#B color 6;#P message 31 305 39 196617 set \$1;#P newex 326 342 40 196617 dac~ 1;#P window linecount 2;#P comment 403 295 180 196617 arg 1 : module prefix name (use name with ".#" for instance number \;;#P comment 403 331 107 196617 patch by Tom Mays contact@tommays.net;#P connect 14 0 16 0;#P connect 16 0 5 0;#P connect 5 0 4 0;#P connect 4 0 6 0;#P connect 6 0 7 0;#P connect 7 0 29 0;#P connect 29 0 26 0;#P connect 26 0 25 0;#P connect 25 0 27 0;#P connect 27 0 28 0;#P connect 28 0 30 0;#P connect 30 0 3 0;#P connect 29 1 28 1;#P connect 16 0 15 0;#P connect 21 0 20 0;#P connect 20 0 23 0;#P connect 8 0 23 1;#P connect 23 0 9 0;#P connect 9 0 17 0;#P connect 17 0 12 0;#P connect 12 0 13 0;#P connect 13 0 11 0;#P connect 11 0 2 0;#P fasten 3 0 2 0 36 326 331 326;#P connect 10 0 9 1;#P connect 22 0 9 1;#P connect 18 0 17 1;#P connect 19 0 17 1;#P connect 9 1 10 0;#P connect 17 1 18 0;#P connect 24 0 18 0;#P fasten 20 0 11 1 306 74 561 74;#P pop;