max v2;#N vpatcher 80 171 1151 441;#P window setfont "Sans Serif" 9.;#P window linecount 1;#N thispatcher;#Q end;#P hidden newobj 1062 102 61 196617 thispatcher;#P hidden newex 1062 81 170 196617 tm_editorbuilder /subb /tape 4 1 4;#B color 6;#P hidden inlet 1240 81 15 0;#P button 1062 59 15 0;#P comment 1080 59 39 196617 delete;#P button 1062 41 15 0;#P comment 1079 41 31 196617 build;#P window linecount 0;#P comment 3213 0 100 196617;#P comment 1 0 100 196617;#P hidden connect 3 0 7 0;#P hidden connect 7 0 8 0;#P hidden connect 5 0 7 1;#P hidden fasten 8 0 7 2 1067 123 1235 123 1235 77 1227 77;#P pop;