max v2;#N vpatcher 527 291 1017 746;#P window setfont "Sans Serif" 9.;#P window linecount 1;#P newex 16 148 50 196617 deferlow;#P newex 16 167 147 196617 s $1/init/done;#B color 11;#P newex 68 329 162 196617 s $1/from/sw;#P newex 68 307 162 196617 r $1/sw;#P window linecount 2;#P message 286 32 98 196617 \; $1/init bang;#P window linecount 4;#P message 315 88 117 196617 \; $1/sw/init bang \; $1/from/init bang \; $1/to/init bang \;;#P window linecount 1;#P newex 68 281 289 196617 makeswitch $1/sw $1 /common_switchstate 0;#B color 5;#P button 68 99 15 0;#N qlist;#X append $1/from/port 44014 \; $1/to/port 44015 \; $1/to/host 127.0.0.1 \; $1/afol/amp/init bang \; $1/afol/ampdB/init bang \; $1/pt/pitch/init bang \;;#X append $1/pt/rawpitch/init bang \; $1/pt/ampdB/init bang \; $1/pt/rawampdB/init bang \; $1/ngate/onofftrig/init bang \; module_register/store $1 \; control_register/store $1 \;;#P newobj 68 121 40 196617 qlist;#B color 14;#P window setfont "Sans Serif" 18.;#N vpatcher 310 111 920 480;#P origin 0 65;#P window setfont "Sans Serif" 9.;#P newex 26 300 533 196617 makecontrol $1/ngate/onofftrig $1 l 0 1 /common;#B color 5;#P newex 26 279 434 196617 rsr /ngate/onofftrig $1/sw;#B color 11;#P newex 26 257 530 196617 makecontrol $1/pt/rawampdB $1 f 0 1 /common;#B color 5;#P newex 26 236 426 196617 rsr /pt/rawampdB $1/sw;#B color 11;#P newex 26 214 512 196617 makecontrol $1/pt/ampdB $1 f 0 1 /common;#B color 5;#P newex 26 193 408 196617 rsr /pt/ampdB $1/sw;#B color 11;#P newex 26 172 523 196617 makecontrol $1/pt/rawpitch $1 f 0 1 /common;#B color 5;#P newex 26 151 419 196617 rsr /pt/rawpitch $1/sw;#B color 11;#P newex 26 129 505 196617 makecontrol $1/pt/pitch $1 f 0 1 /common;#B color 5;#P newex 26 108 401 196617 rsr /pt/pitch $1/sw;#B color 11;#P newex 26 84 520 196617 makecontrol $1/afol/ampdB $1 f 0 1 /common;#B color 5;#P newex 26 63 416 196617 rsr /afol/ampdB $1/sw;#B color 11;#P newex 26 42 509 196617 makecontrol $1/afol/amp $1 f 0 1 /common;#B color 5;#P newex 26 21 418 196617 rsr /afol/amp $1/sw;#B color 11;#P connect 0 0 1 0;#P connect 2 0 3 0;#P connect 4 0 5 0;#P connect 6 0 7 0;#P connect 8 0 9 0;#P connect 10 0 11 0;#P connect 12 0 13 0;#P pop;#P newobj 68 203 145 196626 p makecontrols;#B color 6;#P window setfont "Sans Serif" 9.;#P newex 68 36 164 196617 r $1/init;#B color 11;#P window setfont "Sans Serif" 12.;#P newex 68 391 321 196620 udpsender- $1/to $1;#B color 6;#P button 68 57 15 0;#P newex 68 361 321 196620 udpreceiver- $1/from $1;#B color 6;#P window setfont "Sans Serif" 9.;#P comment 108 123 182 196617 <- this used to be ctc-initsequence.txt;#P connect 2 0 14 0;#P connect 14 0 13 0;#P connect 4 0 2 0;#P connect 2 0 7 0;#P connect 7 0 6 0;#P connect 11 0 12 0;#P fasten 2 0 9 0 73 80 320 80;#P pop;