max v2;#N vpatcher 162 199 716 476;#P origin 0 -21;#P window setfont "Sans Serif" 9.;#P window linecount 1;#P newex 1065 149 237 196617 tm_editorbuilder /sndanal /tapemovie 4 2 2 1000;#B color 6;#P button 1078 122 15 0;#P comment 1096 122 39 196617 delete;#P button 1065 101 15 0;#P comment 1082 101 31 196617 build;#N thispatcher;#Q end;#P newobj 1065 171 61 196617 thispatcher;#P window linecount 0;#P comment 2376 21 100 196617;#P comment 1 21 100 196617;#P connect 4 0 7 0;#P connect 7 0 2 0;#P fasten 6 0 7 1 1083 143 1183 143;#P fasten 2 0 7 2 1070 193 1334 193 1334 145 1296 145;#P pop;