max v2;#N vpatcher 391 333 983 626;#P origin 0 -47;#P window setfont "Sans Serif" 9.;#P window linecount 1;#P newex 31 67 40 196617 change;#P newex 129 169 151 196617 moduleinit $1;#B color 13;#P number 12 138 35 9 0 0 0 3 0 0 0 221 221 221 222 222 222 0 0 0;#P newex 354 87 43 196617 route 0;#P newex 31 44 208 196617 makeparam $1/status $1 f 0 0 1 1;#B color 12;#P newex 12 91 29 196617 gate;#P newex 300 47 208 196617 makeparam $1/max $1 i 255 0 255 0;#B color 12;#P newex 228 27 208 196617 makeparam $1/min $1 i 0 0 255 0;#B color 12;#P window linecount 6;#P message 129 193 163 196617 \; $1/sw/init bang \; $1/channel/init bang \; $1/min/init bang \; $1/max/init bang \; $1/status/init bang \;;#P window linecount 1;#P newex 354 67 208 196617 makeparam $1/channel $1 i 0 0 0 0;#B color 12;#P newex 12 116 370 196617 scale 0. 1. 0 255;#P newex 387 116 62 196617 prepend set;#P newex 12 206 95 196617 s /tapemovie/dmx;#B color 12;#P newex 12 178 45 196617 prepend;#P newex 12 25 208 196617 makeparam $1/sw $1 t 1;#B color 12;#P comment 402 91 66 196617 DMX channel;#P connect 1 0 10 0;#P connect 10 0 5 0;#P connect 5 0 13 0;#P connect 13 0 2 0;#P fasten 4 0 2 0 392 162 17 162;#P connect 2 0 3 0;#P connect 11 0 15 0;#P connect 15 0 10 1;#P connect 14 0 7 0;#P connect 8 0 5 3;#P connect 9 0 5 4;#P connect 6 0 12 0;#P connect 12 1 4 0;#P pop;