max v2;#N vpatcher 1 46 278 409;#P window setfont "Sans Serif" 9.;#P window linecount 1;#P comment 129 34 44 196617 /status;#P window setfont "Sans Serif" 20.;#P flonum 172 24 55 20 0 0 8228 3 0 0 0 221 221 221 0 0 0 0 0 0;#P objectname shutter;#P window setfont "Sans Serif" 9.;#P comment 21 5 49 196617 /channel;#P number 66 3 35 9 0 0 32 3 0 0 0 221 221 221 222 222 222 0 0 0;#P objectname channel;#P comment 31 44 30 196617 /max;#P comment 31 26 30 196617 /min;#P newex 11 309 67 196617 pvar channel;#P newex 11 287 208 196617 variedit $1/channel $1;#B color 12;#P newex 12 255 50 196617 pvar max;#P newex 12 233 208 196617 variedit $1/max $1;#B color 12;#P newex 11 198 50 196617 pvar min;#P newex 11 176 208 196617 variedit $1/min $1;#B color 12;#P number 66 42 35 9 0 255 35 3 0 0 0 221 221 221 222 222 222 0 0 0;#P objectname max;#P number 66 24 35 9 0 255 35 3 0 0 0 221 221 221 222 222 222 0 0 0;#P objectname min;#P newex 9 121 208 196617 variedit $1/status $1;#B color 12;#P newex 10 141 67 196617 pvar shutter;#P bpatcher 0 0 256 62 0 0 bkgnd.mxt 0 $1 0 3;#P objectname background;#P fasten 1 0 2 0 15 164 5 164 5 115 14 115;#P connect 2 0 1 0;#P fasten 6 0 5 0 16 221 5 221 5 171 16 171;#P connect 5 0 6 0;#P fasten 10 0 9 0 16 332 5 332 5 282 16 282;#P connect 9 0 10 0;#P fasten 8 0 7 0 17 278 6 278 6 228 17 228;#P connect 7 0 8 0;#P pop;