max v2;#N vpatcher 496 236 1398 882;#P origin 0 -41;#P window setfont "Sans Serif" 9.;#P newex 374 189 405 196617 jit.gl.gridshape $2 @blend_enable 1 @color 1 0 0 1 @scale 0.02 0.02 0.02 @dim 8 8;#B color 12;#P newex 19 412 145 196617 s $1/mtrxctl/warp/sw;#B color 12;#P newex 257 481 138 196617 s $1/mtrxctl/warp/y;#B color 12;#P newex 57 497 138 196617 s $1/mtrxctl/warp/x;#B color 12;#P newex 124 30 189 196617 editorwindow /instruments /tapemovie;#B color 6;#N thispatcher;#Q end;#P newobj 124 50 61 196617 thispatcher;#P newex 263 429 76 196617 r /wacom.1/y;#B color 12;#P newex 264 452 138 196617 s /tllslo.1/mtrxctl/warp/y;#B color 12;#P newex 67 435 76 196617 r /wacom.1/x;#B color 12;#P newex 68 458 138 196617 s /tllslo.1/mtrxctl/warp/x;#B color 12;#P newex 40 374 129 196617 r /wacom.1/button/press;#B color 12;#P toggle 338 363 15 0;#P newex 41 397 145 196617 s /tllslo.1/mtrxctl/warp/sw;#B color 12;#P flonum 384 82 35 9 0 0 0 3 0 0 0 221 221 221 222 222 222 0 0 0;#P newex 435 367 108 196617 tm_wacom /wacom.1;#B color 12;#P number 37 213 35 9 0 0 0 3 0 0 0 221 221 221 222 222 222 0 0 0;#P newex 207 361 47 196617 forward;#B color 12;#P newex 207 334 198 196617 sprintf send /tllslo.%ld/mtrxctl/warp/y;#P newex 9 258 97 196617 pvar warpselection;#B color 14;#P newex 65 339 47 196617 forward;#B color 12;#P newex 65 312 198 196617 sprintf send /tllslo.%ld/mtrxctl/warp/x;#P newex 9 312 47 196617 forward;#B color 12;#P newex 9 285 205 196617 sprintf send /tllslo.%ld/mtrxctl/warp/sw;#P newex 217 285 129 196617 r /wacom.1/button/press;#B color 12;#P newex 267 312 76 196617 r /wacom.1/x;#B color 12;#P newex 409 334 76 196617 r /wacom.1/y;#B color 12;#P newex 403 282 47 196617 forward;#B color 12;#P newex 403 255 198 196617 sprintf send /tllslo.%ld/mtrxctl/warp/y;#P comment 55 181 48 196617 /tllslo.5;#B frgb 0 0 222;#P comment 55 165 48 196617 /tllslo.4;#B frgb 0 0 222;#P comment 55 149 48 196617 /tllslo.3;#B frgb 0 0 222;#P comment 55 133 48 196617 /tllslo.2;#B frgb 0 0 222;#P newex 205 179 97 196617 pvar warpselection;#B color 14;#P newex 261 260 47 196617 forward;#B color 12;#P newex 261 233 198 196617 sprintf send /tllslo.%ld/mtrxctl/warp/x;#P newex 205 233 47 196617 forward;#B color 12;#P newex 205 206 205 196617 sprintf send /tllslo.%ld/mtrxctl/warp/sw;#P user radiogroup 38 99 18 96;#X size 6;#X offset 16;#X inactive 0;#X itemtype 0;#X flagmode 0;#X set 5;#X done;#P objectname warpselection;#P newex 413 206 129 196617 r /wacom.1/button/press;#B color 12;#P newex 463 233 76 196617 r /wacom.1/x;#B color 12;#P newex 605 255 76 196617 r /wacom.1/y;#B color 12;#P button 44 66 15 0;#N qlist;#X append /nurbs.1/sw 1 \; /nurbs.1/drawto out.1 \; /nurbs.1/enable 1 \; /nurbs.1/color/red 1. \; /nurbs.1/color/green 1. \; /nurbs.1/color/blue 1. \;;#X append /nurbs.1/color/alpha 1. \; /nurbs.1/pos/x 0. \; /nurbs.1/pos/y 0. \; /nurbs.1/pos/z 0. \; /nurbs.1/rotxyz/x 0 \; /nurbs.1/rotxyz/y 0 \;;#X append /nurbs.1/rotxyz/z 0 \; /nurbs.1/scale/x 1.33 \; /nurbs.1/scale/y 1. \; /nurbs.1/scale/z 1. \; /nurbs.1/layer 0 \; /nurbs.1/blend 1 \;;#X append /nurbs.1/blendmode/src 6 \; /nurbs.1/blendmode/dst 7 \; /nurbs.1/lighting 1 \; /nurbs.1/antialias 0 \; /nurbs.1/automatic 0 \; /nurbs.1/bangded 1 \;;#X append /nurbs.1/depth 1 \; /nurbs.1/smoothshading 1 \; /nurbs.1/poly_mode/x 0 \; /nurbs.1/poly_mode/y 0 \; /nurbs.1/point_size 1. \; /nurbs.1/line_width 1. \;;#X append /nurbs.1/cull_face 0 \; /nurbs.1/dest_dim/x 640 \; /nurbs.1/dest_dim/y 480 \; /nurbs.1/shininess 16. \; /nurbs.1/texmap object_linear \; /nurbs.1/matrixoutput 0 \;;#X append /nurbs.1/transformreset 0 \; /nurbs.1/axes 0 \; /nurbs.1/source /thresh.1 \; /nurbs.1/dim/x 150 \; /nurbs.1/dim/y 150 \; /nurbs.1/x1 -1. \;;#X append /nurbs.1/x2 1. \; /nurbs.1/x3 -1. \; /nurbs.1/x4 1. \; /nurbs.1/y1 -1. \; /nurbs.1/y2 -1. \; /nurbs.1/y3 1. \;;#X append /nurbs.1/y4 1. \; /nurbs.1/mtrxctl/source <none> \; /nurbs.1/mtrxctl/coeff 1. \; /nurbs.1/mtrxctl/list 0 \; /nurbs.1/mtrxctl/dim/x 33 \; /nurbs.1/mtrxctl/dim/y 33 \;;#X append /nurbs.1/mtrxctl/slideup 15. \; /nurbs.1/mtrxctl/slidedown 15. \; /nurbs.1/mtrxctl/show 0 \; /nurbs.1/closed/x 0 \; /nurbs.1/closed/y 0 \; /mov.1/sw 1 \;;#X append /mov.1/read CourVersJar.mov \; /mov.1/play 1 \; /mov.1/rate 1. \; /mov.1/autostart 0 \; /mov.1/dim/x 640 \; /mov.1/dim/y 480 \;;#X append /mov.1/time 3289 \; /mov.1/loop 2 \; /mov.1/loop/in 3270 \; /mov.1/loop/out 3270 \; /mov.1/highquality 0 \; /mov.1/singlefield 1 \;;#X append /mov.1/deinterlace 1 \; /mov.1/interp 0 \; /mov.1/preview 0 \; /mov.1/vol 1. \; /mov.1/loadram 1 \; /out.1/pos/x 0 \;;#X append /out.1/pos/y 320 \; /out.1/sw 1 \; /out.1/depthbuffer 1 \; /out.1/doublebuffer 1 \; /out.1/mode auto \; /out.1/colormode argb \;;#X append /out.1/size/x 320 \; /out.1/size/y 240 \; /out.1/sync 0 \; /out.1/interp 0 \; /out.1/fsaa 1 \; /out.1/floating 0 \;;#X append /out.1/border 1 \; /out.1/fsmenubar 1 \; /out.1/fullscreen 0 \; /framemotor/fps 30 \; /render.1/sw 1 \; /render.1/sync 0 \;;#X append /render.1/antialias 0 \; /render.1/ortho 0 \; /render.1/depth 1 \; /render.1/quality 1 \; /render.1/camera/near_clip 0.01 \; /render.1/camera/far_clip 250. \;;#X append /render.1/camera/lens_angle 50. \; /render.1/source <none> \; /render.1/blend 1 \; /render.1/blendmode/src 6 \; /render.1/blendmode/dst 7 \; /render.1/color/red 0.5 \;;#X append /render.1/color/green 0.5 \; /render.1/color/blue 0.5 \; /render.1/color/alpha 1. \; /render.1/erasecolor/red 0. \; /render.1/erasecolor/green 0. \; /render.1/erasecolor/blue 0. \;;#X append /render.1/erasecolor/alpha 1. \; /render.1/rot/angle 0. \; /render.1/rot/x 0. \; /render.1/rot/y 0. \; /render.1/rot/z 0. \; /render.1/pos/x 0. \;;#X append /render.1/pos/y 0. \; /render.1/pos/z 0. \; /render.1/light/ambient/red 0. \; /render.1/light/ambient/green 0. \; /render.1/light/ambient/blue 0. \; /render.1/light/ambient/alpha 1. \;;#X append /render.1/light/diffuse/red 1. \; /render.1/light/diffuse/green 1. \; /render.1/light/diffuse/blue 1. \; /render.1/light/diffuse/alpha 1. \; /render.1/light/specular/red 1. \; /render.1/light/specular/green 1. \;;#X append /render.1/light/specular/blue 1. \; /render.1/light/specular/alpha 1. \; /render.1/light/global_ambient/red 0.2 \; /render.1/light/global_ambient/green 0.2 \; /render.1/light/global_ambient/blue 0.2 \; /render.1/light/global_ambient/alpha 1. \;;#X append /render.1/light/pos/x 1. \; /render.1/light/pos/y 1. \; /render.1/light/pos/z 1. \; /render.1/light/type 0. \; /render.1/automatic 1 \; /render.1/glreadback fbo \;;#X append /render.1/totexture/sw 0 \; /render.1/camera/x 0. \; /render.1/camera/z 2. \; /render.1/camera/y 0. \; /render.1/lookat/x 0. \; /render.1/lookat/z 0. \;;#X append /render.1/lookat/y 0. \; /render.1/camera/speed/xz 2. \; /render.1/camera/speed/y 2. \; /render.1/navigate/sw 0 \; /thresh.1/sw 1 \; /thresh.1/bypass 0 \;;#X append /thresh.1/source /mov.1 \; /thresh.1/source2 /mov.2 \; /thresh.1/reverse 0 \; /thresh.1/threshold 0.5 \; /thresh.1/fill/color/red 1. \; /thresh.1/fill/color/green 1. \;;#X append /thresh.1/fill/color/blue 1. \; /thresh.1/fill/color/alpha 1. \; /thresh.1/out/color/red 0. \; /thresh.1/out/color/green 0. \; /thresh.1/out/color/blue 0. \; /thresh.1/out/color/alpha 0. \;;#X append /thresh.1/fade 0. \; /mov.2/sw 1 \; /mov.2/read smoke.mov \; /mov.2/play 1 \; /mov.2/rate 1. \; /mov.2/autostart 0 \;;#X append /mov.2/dim/x 640 \; /mov.2/dim/y 480 \; /mov.2/time 0 \; /mov.2/loop 2 \; /mov.2/loop/in 0 \; /mov.2/loop/out 1840 \;;#X append /mov.2/highquality 0 \; /mov.2/singlefield 1 \; /mov.2/deinterlace 1 \; /mov.2/interp 0 \; /mov.2/preview 1 \; /mov.2/vol 1. \;;#X append /mov.2/loadram 0 \; /wacom.1/sw 1 \;;#P newobj 3 67 40 196617 qlist;#B color 9;#P newex 457 126 86 196617 scale 0. 1. -1. 1.;#B color 12;#P newex 432 78 110 196617 scale 0. 1. -1.33 1.33;#B color 12;#P newex 457 102 76 196617 r /wacom.1/y;#B color 12;#P newex 432 54 76 196617 r /wacom.1/x;#B color 12;#P newex 407 150 86 196617 pak position f f 0;#B color 12;#P newex 407 170 405 196617 jit.gl.gridshape out.1 @blend_enable 1 @color 1 0 0 1 @scale 0.02 0.02 0.02 @dim 8 8;#B color 12;#P window setfont Times 9.;#N vpatcher 254 68 476 301;#N comlet to thispatcher;#P outlet 31 190 15 0;#N comlet from toggle;#P inlet 16 106 15 0;#N comlet to toggle;#P outlet 16 72 15 0;#P window setfont Times 9.;#P newex 16 52 18 1310729 t 1;#P newex 16 31 43 1310729 loadbang;#P newex 16 124 40 1310729 sel 1 0;#P window setfont "Sans Serif" 9.;#P message 31 146 158 196617 window flags close \, window exec;#P message 16 164 168 196617 window flags noclose \, window exec;#P connect 3 0 4 0;#P connect 4 0 5 0;#P connect 6 0 2 0;#P connect 2 0 0 0;#P connect 2 1 1 0;#P connect 1 0 7 0;#P connect 0 0 7 0;#P pop;#P hidden newobj 24 17 50 1310729 p closebox;#B color 6;#P toggle 1 19 15 0;#N thispatcher;#Q end;#P hidden newobj 39 17 51 1310729 thispatcher;#P comment 17 19 74 1310729 inhibit close box;#P window setfont "Sans Serif" 9.;#P newex 3 41 99 196617 r /instruments/init;#B color 9;#P hidden newex 907 46 189 196617 editorwindow /instruments /tapemovie;#B color 6;#N thispatcher;#Q end;#P hidden newobj 907 66 61 196617 thispatcher;#P comment 497 154 279 196617 il faut en faire une texture que l'on va ajouter sur le nburbs;#P window setfont "Sans Serif" 36.;#P comment 717 371 29 196644 Z;#P window setfont "Sans Serif" 9.;#P flonum 742 292 35 9 0 0 0 3 0 0 0 221 221 221 222 222 222 0 0 0;#P message 744 314 102 196617 setcell 10 10 val \$1;#P flonum 670 292 35 9 0 0 0 3 0 0 0 221 221 221 222 222 222 0 0 0;#P message 672 314 50 196617 setall \$1;#P user jit.pwindow 623 364 82 62 0 1 0 0 1 0;#P button 624 317 15 0;#P newex 624 342 209 196617 jit.matrix /nurbs.1/nurbsZ 1 float32 20 20;#P comment 55 117 48 196617 /tllslo.1;#B frgb 0 0 222;#P hidden connect 16 0 15 0;#P connect 24 0 23 0;#P connect 47 0 43 0;#P lcolor 2;#P fasten 42 0 44 0 222 307 14 307;#P connect 43 0 44 0;#P connect 55 0 64 0;#P hidden connect 15 0 16 0;#P connect 28 0 50 0;#P hidden connect 16 1 14 0;#P connect 55 0 53 0;#P connect 57 0 62 0;#P connect 47 0 45 0;#P lcolor 2;#P connect 45 0 46 0;#P fasten 41 0 46 0 272 331 70 331;#P connect 57 0 56 0;#P fasten 60 0 61 0 129 70 120 70 120 27 129 27;#P connect 61 0 60 0;#P connect 33 0 29 0;#P lcolor 2;#P connect 29 0 30 0;#P fasten 27 0 30 0 418 228 210 228;#P connect 47 0 48 0;#P lcolor 2;#P connect 48 0 49 0;#P fasten 40 0 49 0 414 356 212 356;#P connect 59 0 63 0;#P connect 33 0 31 0;#P lcolor 2;#P fasten 26 0 32 0 468 252 266 252;#P connect 31 0 32 0;#P connect 59 0 58 0;#P connect 42 0 54 0;#P connect 18 0 65 0;#P connect 19 0 52 0;#P connect 33 0 38 0;#P lcolor 2;#P fasten 25 0 39 0 610 277 408 277;#P connect 38 0 39 0;#P connect 18 0 17 0;#P connect 19 0 21 0;#P connect 21 0 18 1;#P connect 20 0 22 0;#P connect 22 0 18 2;#P connect 6 0 1 0;#P connect 4 0 1 0;#P connect 2 0 1 0;#P connect 1 0 3 0;#P connect 5 0 4 0;#P connect 7 0 6 0;#P hidden fasten 10 0 11 0 912 86 903 86 903 43 912 43;#P hidden connect 11 0 10 0;#P pop;