max v2;#N vpatcher 98 209 396 635;#P window setfont "Sans Serif" 9.;#P window linecount 1;#P newex 35 162 44 196617 del 100;#P newex 85 139 174 196617 r $1/alreadydeleted;#B color 11;#P newex 35 205 30 196617 t b b;#P newex 35 73 30 196617 t b b;#P button 35 54 15 0;#P newex 35 293 45 196617 onebang;#N comlet built;#P outlet 35 315 15 0;#N comlet delete \, then build;#P inlet 35 36 15 0;#P button 35 273 15 0;#P newex 35 252 156 196617 r $1/built;#B color 11;#P newex 35 139 45 196617 onebang;#P newex 35 116 168 196617 r $1/deleted;#B color 11;#P newex 35 229 157 196617 s $1/build;#B color 11;#P button 35 185 15 6;#P comment 50 186 31 196617 build;#P newex 35 96 163 196617 s $1/delete;#B color 11;#P window linecount 2;#P comment 102 296 145 196617 argument 1 : /scriptname \; example: /tape/fxmeters;#P connect 9 0 12 0;#P connect 12 0 13 0;#P connect 13 0 1 0;#P connect 15 0 6 0;#P connect 5 0 6 0;#P connect 6 0 16 0;#P connect 16 0 3 0;#P connect 3 0 14 0;#P connect 14 0 4 0;#P connect 7 0 8 0;#P connect 8 0 11 0;#P connect 11 0 10 0;#P connect 13 1 6 1;#P connect 14 1 11 1;#P pop;