max v2;#N vpatcher 412 183 1123 588;#P setbglock 1;#P user ezdac~ 10 97 54 130 0;#P window setfont Times 9.;#P hidden newex 193 435 44 1310729 pipe 100;#P hidden newex 242 392 33 1310729 active;#P window setfont "Sans Serif" 9.;#P hidden message 265 415 39 196617 set \$1;#P window setfont Times 9.;#P hidden newex 258 439 27 1310729 sel 0;#P hidden newex 223 415 39 1310729 pvar sw;#P window setfont "Sans Serif" 9.;#P comment 25 61 21 196617 sw;#P toggle 10 60 15 0;#P objectname sw;#P comment 25 25 26 196617 INIT;#P button 10 24 15 0;#P window linecount 2;#P hidden message 543 440 126 196617 \; /tape/audiotest/init bang;#P window setfont Times 9.;#P window linecount 1;#P hidden newex 333 428 88 1310729 t b 0;#P hidden newex 333 408 88 1310729 r /tape/audiotest/init;#P window setfont "Sans Serif" 9.;#P hidden message 193 456 47 196617 mute \$1;#P window setfont Times 9.;#P hidden newex 193 415 27 1310729 == 0;#P hidden newex 193 474 48 1310729 thispoly~;#P hidden newex 211 392 27 1310729 sel 0;#P hidden newex 33 433 78 1310729 fixedsize 711 405;#P window setfont "Sans Serif" 9.;#P hidden newex 97 393 53 196617 closebang;#P window setfont Times 9.;#P hidden newex 33 412 139 1310729 editorwindow /audiotest /tape;#N thispatcher;#Q end;#P hidden newobj 33 454 53 1310729 thispatcher;#P window setfont Times 18.;#P comment 315 17 129 1310738 adc input signals;#P window setfont "Sans Serif" 9.;#P comment 663 56 20 196617 16;#P comment 624 56 20 196617 15;#P comment 585 56 20 196617 14;#P comment 546 56 20 196617 13;#P comment 507 56 20 196617 12;#P comment 468 56 20 196617 11;#P comment 429 56 20 196617 10;#P comment 390 56 14 196617 9;#P comment 351 56 14 196617 8;#P comment 312 56 14 196617 7;#P comment 273 56 14 196617 6;#P comment 234 56 14 196617 5;#P comment 195 56 14 196617 4;#P comment 156 56 14 196617 3;#P comment 117 56 14 196617 2;#P flonum 654 177 35 9 0 0 32 3 0 0 0 221 221 221 222 222 222 0 0 0;#P noclick;#P user meter~ 663 69 676 177 50 0 168 0 103 103 103 255 153 0 255 0 0 217 217 0 153 186 0 12 3 3 3 3;#P flonum 615 177 35 9 0 0 32 3 0 0 0 221 221 221 222 222 222 0 0 0;#P noclick;#P user meter~ 624 69 637 177 50 0 168 0 103 103 103 255 153 0 255 0 0 217 217 0 153 186 0 12 3 3 3 3;#P flonum 576 177 35 9 0 0 32 3 0 0 0 221 221 221 222 222 222 0 0 0;#P noclick;#P user meter~ 585 69 598 177 50 0 168 0 103 103 103 255 153 0 255 0 0 217 217 0 153 186 0 12 3 3 3 3;#P flonum 537 177 35 9 0 0 32 3 0 0 0 221 221 221 222 222 222 0 0 0;#P noclick;#P user meter~ 546 69 559 177 50 0 168 0 103 103 103 255 153 0 255 0 0 217 217 0 153 186 0 12 3 3 3 3;#P flonum 498 177 35 9 0 0 32 3 0 0 0 221 221 221 222 222 222 0 0 0;#P noclick;#P user meter~ 507 69 520 177 50 0 168 0 103 103 103 255 153 0 255 0 0 217 217 0 153 186 0 12 3 3 3 3;#P flonum 459 177 35 9 0 0 32 3 0 0 0 221 221 221 222 222 222 0 0 0;#P noclick;#P user meter~ 468 69 481 177 50 0 168 0 103 103 103 255 153 0 255 0 0 217 217 0 153 186 0 12 3 3 3 3;#P flonum 420 177 35 9 0 0 32 3 0 0 0 221 221 221 222 222 222 0 0 0;#P noclick;#P user meter~ 429 69 442 177 50 0 168 0 103 103 103 255 153 0 255 0 0 217 217 0 153 186 0 12 3 3 3 3;#P flonum 381 177 35 9 0 0 32 3 0 0 0 221 221 221 222 222 222 0 0 0;#P noclick;#P user meter~ 390 69 403 177 50 0 168 0 103 103 103 255 153 0 255 0 0 217 217 0 153 186 0 12 3 3 3 3;#P flonum 342 177 35 9 0 0 32 3 0 0 0 221 221 221 222 222 222 0 0 0;#P noclick;#P user meter~ 351 69 364 177 50 0 168 0 103 103 103 255 153 0 255 0 0 217 217 0 153 186 0 12 3 3 3 3;#P flonum 303 177 35 9 0 0 32 3 0 0 0 221 221 221 222 222 222 0 0 0;#P noclick;#P user meter~ 312 69 325 177 50 0 168 0 103 103 103 255 153 0 255 0 0 217 217 0 153 186 0 12 3 3 3 3;#P flonum 264 177 35 9 0 0 32 3 0 0 0 221 221 221 222 222 222 0 0 0;#P noclick;#P user meter~ 273 69 286 177 50 0 168 0 103 103 103 255 153 0 255 0 0 217 217 0 153 186 0 12 3 3 3 3;#P flonum 225 177 35 9 0 0 32 3 0 0 0 221 221 221 222 222 222 0 0 0;#P noclick;#P user meter~ 234 69 247 177 50 0 168 0 103 103 103 255 153 0 255 0 0 217 217 0 153 186 0 12 3 3 3 3;#P flonum 186 177 35 9 0 0 32 3 0 0 0 221 221 221 222 222 222 0 0 0;#P noclick;#P user meter~ 195 69 208 177 50 0 168 0 103 103 103 255 153 0 255 0 0 217 217 0 153 186 0 12 3 3 3 3;#P flonum 147 177 35 9 0 0 32 3 0 0 0 221 221 221 222 222 222 0 0 0;#P noclick;#P user meter~ 156 69 169 177 50 0 168 0 103 103 103 255 153 0 255 0 0 217 217 0 153 186 0 12 3 3 3 3;#P flonum 108 177 35 9 0 0 32 3 0 0 0 221 221 221 222 222 222 0 0 0;#P noclick;#P user meter~ 117 69 130 177 50 0 168 0 103 103 103 255 153 0 255 0 0 217 217 0 153 186 0 12 3 3 3 3;#N vpatcher 23 78 1394 273;#P origin 9 -8;#P window setfont "Sans Serif" 9.;#P window linecount 1;#P newex 1239 130 34 196617 atodb;#P newex 1255 84 75 196617 peakamp~ 116;#N comlet to vu;#P outlet 1255 107 15 0;#N comlet to num;#P outlet 1239 152 15 0;#P newex 1157 130 34 196617 atodb;#P newex 1173 84 75 196617 peakamp~ 115;#N comlet to vu;#P outlet 1173 107 15 0;#N comlet to num;#P outlet 1157 152 15 0;#P newex 1075 130 34 196617 atodb;#P newex 1091 84 75 196617 peakamp~ 114;#N comlet to vu;#P outlet 1091 107 15 0;#N comlet to num;#P outlet 1075 152 15 0;#P newex 993 130 34 196617 atodb;#P newex 1009 84 75 196617 peakamp~ 113;#N comlet to vu;#P outlet 1009 107 15 0;#N comlet to num;#P outlet 993 152 15 0;#P newex 911 130 34 196617 atodb;#P newex 927 84 75 196617 peakamp~ 112;#N comlet to vu;#P outlet 927 107 15 0;#N comlet to num;#P outlet 911 152 15 0;#P newex 829 130 34 196617 atodb;#P newex 845 84 75 196617 peakamp~ 111;#N comlet to vu;#P outlet 845 107 15 0;#N comlet to num;#P outlet 829 152 15 0;#P newex 747 130 34 196617 atodb;#P newex 763 84 75 196617 peakamp~ 110;#N comlet to vu;#P outlet 763 107 15 0;#N comlet to num;#P outlet 747 152 15 0;#P newex 665 130 34 196617 atodb;#P newex 681 84 75 196617 peakamp~ 109;#N comlet to vu;#P outlet 681 107 15 0;#N comlet to num;#P outlet 665 152 15 0;#P newex 583 130 34 196617 atodb;#P newex 599 84 75 196617 peakamp~ 108;#N comlet to vu;#P outlet 599 107 15 0;#N comlet to num;#P outlet 583 152 15 0;#P newex 501 130 34 196617 atodb;#P newex 517 84 75 196617 peakamp~ 107;#N comlet to vu;#P outlet 517 107 15 0;#N comlet to num;#P outlet 501 152 15 0;#P newex 419 130 34 196617 atodb;#P newex 435 84 75 196617 peakamp~ 106;#N comlet to vu;#P outlet 435 107 15 0;#N comlet to num;#P outlet 419 152 15 0;#P newex 337 130 34 196617 atodb;#P newex 353 84 75 196617 peakamp~ 105;#N comlet to vu;#P outlet 353 107 15 0;#N comlet to num;#P outlet 337 152 15 0;#P newex 255 130 34 196617 atodb;#P newex 271 84 75 196617 peakamp~ 104;#N comlet to vu;#P outlet 271 107 15 0;#N comlet to num;#P outlet 255 152 15 0;#P newex 173 130 34 196617 atodb;#P newex 189 84 75 196617 peakamp~ 103;#N comlet to vu;#P outlet 189 107 15 0;#N comlet to num;#P outlet 173 152 15 0;#P newex 91 130 34 196617 atodb;#P newex 107 84 75 196617 peakamp~ 102;#N comlet to vu;#P outlet 107 107 15 0;#N comlet to num;#P outlet 91 152 15 0;#P newex 25 53 1241 196617 adc~ 1 2 3 4 5 6 7 8 9 10 11 12 13 14 15 16;#P newex 9 130 34 196617 atodb;#P newex 25 84 75 196617 peakamp~ 101;#N comlet to vu;#P outlet 25 107 15 0;#N comlet to num;#P outlet 9 152 15 0;#P window linecount 0;#P comment 1266 30 100 196617;#P comment 0 30 100 196617;#P connect 4 0 5 0;#P connect 5 0 2 0;#P connect 6 0 4 0;#P connect 4 0 3 0;#P connect 9 0 10 0;#P connect 10 0 7 0;#P connect 6 1 9 0;#P connect 9 0 8 0;#P connect 13 0 14 0;#P connect 14 0 11 0;#P connect 6 2 13 0;#P connect 13 0 12 0;#P connect 17 0 18 0;#P connect 18 0 15 0;#P connect 6 3 17 0;#P connect 17 0 16 0;#P connect 21 0 22 0;#P connect 22 0 19 0;#P connect 6 4 21 0;#P connect 21 0 20 0;#P connect 25 0 26 0;#P connect 26 0 23 0;#P connect 6 5 25 0;#P connect 25 0 24 0;#P connect 29 0 30 0;#P connect 30 0 27 0;#P connect 6 6 29 0;#P connect 29 0 28 0;#P connect 33 0 34 0;#P connect 34 0 31 0;#P connect 6 7 33 0;#P connect 33 0 32 0;#P connect 37 0 38 0;#P connect 38 0 35 0;#P connect 6 8 37 0;#P connect 37 0 36 0;#P connect 41 0 42 0;#P connect 42 0 39 0;#P connect 6 9 41 0;#P connect 41 0 40 0;#P connect 45 0 46 0;#P connect 46 0 43 0;#P connect 6 10 45 0;#P connect 45 0 44 0;#P connect 49 0 50 0;#P connect 50 0 47 0;#P connect 6 11 49 0;#P connect 49 0 48 0;#P connect 53 0 54 0;#P connect 54 0 51 0;#P connect 6 12 53 0;#P connect 53 0 52 0;#P connect 57 0 58 0;#P connect 58 0 55 0;#P connect 6 13 57 0;#P connect 57 0 56 0;#P connect 61 0 62 0;#P connect 62 0 59 0;#P connect 6 14 61 0;#P connect 61 0 60 0;#P connect 65 0 66 0;#P connect 66 0 63 0;#P connect 6 15 65 0;#P connect 65 0 64 0;#P pop;#P hidden newobj 69 115 621 196617 p noise-tones;#B color 6;#P comment 78 56 14 196617 1;#P flonum 69 177 35 9 0 0 32 3 0 0 0 221 221 221 222 222 222 0 0 0;#P noclick;#P user meter~ 78 69 91 177 50 0 168 0 103 103 103 255 153 0 255 0 0 217 217 0 153 186 0 12 3 3 3 3;#P window setfont Times 18.;#P comment 343 203 72 1310738 test dacs;#P window setfont "Sans Serif" 9.;#P comment 663 250 20 196617 16;#P toggle 663 227 15 0;#P comment 624 250 20 196617 15;#P toggle 624 227 15 0;#P comment 585 250 20 196617 14;#P toggle 585 227 15 0;#P comment 546 250 20 196617 13;#P toggle 546 227 15 0;#P comment 507 250 20 196617 12;#P toggle 507 227 15 0;#P comment 468 250 20 196617 11;#P toggle 468 227 15 0;#P comment 429 250 20 196617 10;#P toggle 429 227 15 0;#P comment 390 250 14 196617 9;#P toggle 390 227 15 0;#P comment 351 250 14 196617 8;#P toggle 351 227 15 0;#P comment 312 250 14 196617 7;#P toggle 312 227 15 0;#P comment 273 250 14 196617 6;#P toggle 273 227 15 0;#P comment 234 250 14 196617 5;#P toggle 234 227 15 0;#P comment 195 250 14 196617 4;#P toggle 195 227 15 0;#P comment 156 250 14 196617 3;#P toggle 156 227 15 0;#P comment 117 250 14 196617 2;#P toggle 117 227 15 0;#P flonum 654 370 35 9 0 0 32 3 0 0 0 221 221 221 222 222 222 0 0 0;#P noclick;#P user meter~ 663 262 676 370 50 0 168 0 103 103 103 255 153 0 255 0 0 217 217 0 153 186 0 12 3 3 3 3;#P flonum 615 370 35 9 0 0 32 3 0 0 0 221 221 221 222 222 222 0 0 0;#P noclick;#P user meter~ 624 262 637 370 50 0 168 0 103 103 103 255 153 0 255 0 0 217 217 0 153 186 0 12 3 3 3 3;#P flonum 576 370 35 9 0 0 32 3 0 0 0 221 221 221 222 222 222 0 0 0;#P noclick;#P user meter~ 585 262 598 370 50 0 168 0 103 103 103 255 153 0 255 0 0 217 217 0 153 186 0 12 3 3 3 3;#P flonum 537 370 35 9 0 0 32 3 0 0 0 221 221 221 222 222 222 0 0 0;#P noclick;#P user meter~ 546 262 559 370 50 0 168 0 103 103 103 255 153 0 255 0 0 217 217 0 153 186 0 12 3 3 3 3;#P flonum 498 370 35 9 0 0 32 3 0 0 0 221 221 221 222 222 222 0 0 0;#P noclick;#P user meter~ 507 262 520 370 50 0 168 0 103 103 103 255 153 0 255 0 0 217 217 0 153 186 0 12 3 3 3 3;#P flonum 459 370 35 9 0 0 32 3 0 0 0 221 221 221 222 222 222 0 0 0;#P noclick;#P user meter~ 468 262 481 370 50 0 168 0 103 103 103 255 153 0 255 0 0 217 217 0 153 186 0 12 3 3 3 3;#P flonum 420 370 35 9 0 0 32 3 0 0 0 221 221 221 222 222 222 0 0 0;#P noclick;#P user meter~ 429 262 442 370 50 0 168 0 103 103 103 255 153 0 255 0 0 217 217 0 153 186 0 12 3 3 3 3;#P flonum 381 370 35 9 0 0 32 3 0 0 0 221 221 221 222 222 222 0 0 0;#P noclick;#P user meter~ 390 262 403 370 50 0 168 0 103 103 103 255 153 0 255 0 0 217 217 0 153 186 0 12 3 3 3 3;#P flonum 342 370 35 9 0 0 32 3 0 0 0 221 221 221 222 222 222 0 0 0;#P noclick;#P user meter~ 351 262 364 370 50 0 168 0 103 103 103 255 153 0 255 0 0 217 217 0 153 186 0 12 3 3 3 3;#P flonum 303 370 35 9 0 0 32 3 0 0 0 221 221 221 222 222 222 0 0 0;#P noclick;#P user meter~ 312 262 325 370 50 0 168 0 103 103 103 255 153 0 255 0 0 217 217 0 153 186 0 12 3 3 3 3;#P flonum 264 370 35 9 0 0 32 3 0 0 0 221 221 221 222 222 222 0 0 0;#P noclick;#P user meter~ 273 262 286 370 50 0 168 0 103 103 103 255 153 0 255 0 0 217 217 0 153 186 0 12 3 3 3 3;#P flonum 225 370 35 9 0 0 32 3 0 0 0 221 221 221 222 222 222 0 0 0;#P noclick;#P user meter~ 234 262 247 370 50 0 168 0 103 103 103 255 153 0 255 0 0 217 217 0 153 186 0 12 3 3 3 3;#P flonum 186 370 35 9 0 0 32 3 0 0 0 221 221 221 222 222 222 0 0 0;#P noclick;#P user meter~ 195 262 208 370 50 0 168 0 103 103 103 255 153 0 255 0 0 217 217 0 153 186 0 12 3 3 3 3;#P flonum 147 370 35 9 0 0 32 3 0 0 0 221 221 221 222 222 222 0 0 0;#P noclick;#P user meter~ 156 262 169 370 50 0 168 0 103 103 103 255 153 0 255 0 0 217 217 0 153 186 0 12 3 3 3 3;#P flonum 108 370 35 9 0 0 32 3 0 0 0 221 221 221 222 222 222 0 0 0;#P noclick;#P user meter~ 117 262 130 370 50 0 168 0 103 103 103 255 153 0 255 0 0 217 217 0 153 186 0 12 3 3 3 3;#P hidden newex 48 337 40 196617 cycle~;#P hidden newex 95 337 39 196617 noise~;#P hidden newex 18 371 34 196617 dbtoa;#P hidden newex 18 350 34 196617 dbtoa;#N vpatcher 42 46 1441 531;#P origin 8 0;#P toggle 44 60 15 0;#P window setfont "Sans Serif" 9.;#P newex 779 136 18 196617 t l;#P window linecount 1;#P newex 1523 61 27 196617 t b i;#P newex 1563 87 29 196617 * 0.;#P newex 1508 87 29 196617 * 0.;#P message 1563 107 52 196617 31 15 \$1;#P message 1508 107 52 196617 30 15 \$1;#N comlet from toggle;#P inlet 1523 34 15 0;#P newex 1414 61 27 196617 t b i;#P newex 1454 87 29 196617 * 0.;#P newex 1399 87 29 196617 * 0.;#P message 1454 107 52 196617 29 14 \$1;#P message 1399 107 52 196617 28 14 \$1;#N comlet from toggle;#P inlet 1414 34 15 0;#P newex 1305 61 27 196617 t b i;#P newex 1345 87 29 196617 * 0.;#P newex 1290 87 29 196617 * 0.;#P message 1345 107 52 196617 27 13 \$1;#P message 1290 107 52 196617 26 13 \$1;#N comlet from toggle;#P inlet 1305 34 15 0;#P newex 1199 61 27 196617 t b i;#P newex 1237 87 29 196617 * 0.;#P newex 1184 87 29 196617 * 0.;#P message 1237 107 52 196617 25 12 \$1;#P message 1184 107 52 196617 24 12 \$1;#N comlet from toggle;#P inlet 1199 34 15 0;#P newex 1091 61 27 196617 t b i;#P newex 1130 87 29 196617 * 0.;#P newex 1076 87 29 196617 * 0.;#P message 1130 107 52 196617 23 11 \$1;#P message 1076 107 52 196617 22 11 \$1;#N comlet from toggle;#P inlet 1091 34 15 0;#P newex 983 61 27 196617 t b i;#P newex 1022 87 29 196617 * 0.;#P newex 968 87 29 196617 * 0.;#P message 1022 107 52 196617 21 10 \$1;#P message 968 107 52 196617 20 10 \$1;#N comlet from toggle;#P inlet 983 34 15 0;#P newex 889 61 27 196617 t b i;#P newex 921 87 29 196617 * 0.;#P newex 874 87 29 196617 * 0.;#P message 921 107 46 196617 19 9 \$1;#P message 874 107 46 196617 18 9 \$1;#N comlet from toggle;#P inlet 889 34 15 0;#P newex 794 61 27 196617 t b i;#P newex 827 87 29 196617 * 0.;#P newex 779 87 29 196617 * 0.;#P message 827 107 46 196617 17 8 \$1;#P message 779 107 46 196617 16 8 \$1;#N comlet from toggle;#P inlet 794 34 15 0;#N vpatcher 525 437 715 616;#P window setfont "Sans Serif" 9.;#P window linecount 0;#P newex 102 83 44 196617 del 100;#P message 102 103 17 196617 0.;#P outlet 102 124 15 0;#P outlet 44 124 15 0;#P newex 102 62 32 196617 sel 0;#P inlet 44 46 15 0;#P window linecount 1;#P newex 44 99 38 196617 * 100;#P connect 1 0 0 0;#P connect 0 0 3 0;#P connect 1 0 2 0;#P connect 2 0 6 0;#P connect 6 0 5 0;#P connect 5 0 4 0;#P pop;#P newobj 1285 239 31 196617 p sw;#N vpatcher 525 437 715 616;#P window setfont "Sans Serif" 9.;#P window linecount 0;#P newex 102 83 44 196617 del 100;#P message 102 103 17 196617 0.;#P outlet 102 124 15 0;#P outlet 44 124 15 0;#P newex 102 62 32 196617 sel 0;#P inlet 44 46 15 0;#P window linecount 1;#P newex 44 99 38 196617 * 100;#P connect 1 0 0 0;#P connect 0 0 3 0;#P connect 1 0 2 0;#P connect 2 0 6 0;#P connect 6 0 5 0;#P connect 5 0 4 0;#P pop;#P newobj 1203 239 31 196617 p sw;#N vpatcher 525 437 715 616;#P window setfont "Sans Serif" 9.;#P window linecount 0;#P newex 102 83 44 196617 del 100;#P message 102 103 17 196617 0.;#P outlet 102 124 15 0;#P outlet 44 124 15 0;#P newex 102 62 32 196617 sel 0;#P inlet 44 46 15 0;#P window linecount 1;#P newex 44 99 38 196617 * 100;#P connect 1 0 0 0;#P connect 0 0 3 0;#P connect 1 0 2 0;#P connect 2 0 6 0;#P connect 6 0 5 0;#P connect 5 0 4 0;#P pop;#P newobj 1121 239 31 196617 p sw;#N vpatcher 525 437 715 616;#P window setfont "Sans Serif" 9.;#P window linecount 0;#P newex 102 83 44 196617 del 100;#P message 102 103 17 196617 0.;#P outlet 102 124 15 0;#P outlet 44 124 15 0;#P newex 102 62 32 196617 sel 0;#P inlet 44 46 15 0;#P window linecount 1;#P newex 44 99 38 196617 * 100;#P connect 1 0 0 0;#P connect 0 0 3 0;#P connect 1 0 2 0;#P connect 2 0 6 0;#P connect 6 0 5 0;#P connect 5 0 4 0;#P pop;#P newobj 1039 239 31 196617 p sw;#N vpatcher 525 437 715 616;#P window setfont "Sans Serif" 9.;#P window linecount 0;#P newex 102 83 44 196617 del 100;#P message 102 103 17 196617 0.;#P outlet 102 124 15 0;#P outlet 44 124 15 0;#P newex 102 62 32 196617 sel 0;#P inlet 44 46 15 0;#P window linecount 1;#P newex 44 99 38 196617 * 100;#P connect 1 0 0 0;#P connect 0 0 3 0;#P connect 1 0 2 0;#P connect 2 0 6 0;#P connect 6 0 5 0;#P connect 5 0 4 0;#P pop;#P newobj 957 239 31 196617 p sw;#N vpatcher 525 437 715 616;#P window setfont "Sans Serif" 9.;#P window linecount 0;#P newex 102 83 44 196617 del 100;#P message 102 103 17 196617 0.;#P outlet 102 124 15 0;#P outlet 44 124 15 0;#P newex 102 62 32 196617 sel 0;#P inlet 44 46 15 0;#P window linecount 1;#P newex 44 99 38 196617 * 100;#P connect 1 0 0 0;#P connect 0 0 3 0;#P connect 1 0 2 0;#P connect 2 0 6 0;#P connect 6 0 5 0;#P connect 5 0 4 0;#P pop;#P newobj 875 239 31 196617 p sw;#N vpatcher 525 437 715 616;#P window setfont "Sans Serif" 9.;#P window linecount 0;#P newex 102 83 44 196617 del 100;#P message 102 103 17 196617 0.;#P outlet 102 124 15 0;#P outlet 44 124 15 0;#P newex 102 62 32 196617 sel 0;#P inlet 44 46 15 0;#P window linecount 1;#P newex 44 99 38 196617 * 100;#P connect 1 0 0 0;#P connect 0 0 3 0;#P connect 1 0 2 0;#P connect 2 0 6 0;#P connect 6 0 5 0;#P connect 5 0 4 0;#P pop;#P newobj 793 239 31 196617 p sw;#N vpatcher 525 437 715 616;#P window setfont "Sans Serif" 9.;#P window linecount 0;#P newex 102 83 44 196617 del 100;#P message 102 103 17 196617 0.;#P outlet 102 124 15 0;#P outlet 44 124 15 0;#P newex 102 62 32 196617 sel 0;#P inlet 44 46 15 0;#P window linecount 1;#P newex 44 99 38 196617 * 100;#P connect 1 0 0 0;#P connect 0 0 3 0;#P connect 1 0 2 0;#P connect 2 0 6 0;#P connect 6 0 5 0;#P connect 5 0 4 0;#P pop;#P newobj 711 239 31 196617 p sw;#N vpatcher 525 437 715 616;#P window setfont "Sans Serif" 9.;#P window linecount 0;#P newex 102 83 44 196617 del 100;#P message 102 103 17 196617 0.;#P outlet 102 124 15 0;#P outlet 44 124 15 0;#P newex 102 62 32 196617 sel 0;#P inlet 44 46 15 0;#P window linecount 1;#P newex 44 99 38 196617 * 100;#P connect 1 0 0 0;#P connect 0 0 3 0;#P connect 1 0 2 0;#P connect 2 0 6 0;#P connect 6 0 5 0;#P connect 5 0 4 0;#P pop;#P newobj 629 239 31 196617 p sw;#N vpatcher 525 437 715 616;#P window setfont "Sans Serif" 9.;#P window linecount 0;#P newex 102 83 44 196617 del 100;#P message 102 103 17 196617 0.;#P outlet 102 124 15 0;#P outlet 44 124 15 0;#P newex 102 62 32 196617 sel 0;#P inlet 44 46 15 0;#P window linecount 1;#P newex 44 99 38 196617 * 100;#P connect 1 0 0 0;#P connect 0 0 3 0;#P connect 1 0 2 0;#P connect 2 0 6 0;#P connect 6 0 5 0;#P connect 5 0 4 0;#P pop;#P newobj 547 239 31 196617 p sw;#N vpatcher 525 437 715 616;#P window setfont "Sans Serif" 9.;#P window linecount 0;#P newex 102 83 44 196617 del 100;#P message 102 103 17 196617 0.;#P outlet 102 124 15 0;#P outlet 44 124 15 0;#P newex 102 62 32 196617 sel 0;#P inlet 44 46 15 0;#P window linecount 1;#P newex 44 99 38 196617 * 100;#P connect 1 0 0 0;#P connect 0 0 3 0;#P connect 1 0 2 0;#P connect 2 0 6 0;#P connect 6 0 5 0;#P connect 5 0 4 0;#P pop;#P newobj 465 239 31 196617 p sw;#N vpatcher 525 437 715 616;#P window setfont "Sans Serif" 9.;#P window linecount 0;#P newex 102 83 44 196617 del 100;#P message 102 103 17 196617 0.;#P outlet 102 124 15 0;#P outlet 44 124 15 0;#P newex 102 62 32 196617 sel 0;#P inlet 44 46 15 0;#P window linecount 1;#P newex 44 99 38 196617 * 100;#P connect 1 0 0 0;#P connect 0 0 3 0;#P connect 1 0 2 0;#P connect 2 0 6 0;#P connect 6 0 5 0;#P connect 5 0 4 0;#P pop;#P newobj 383 239 31 196617 p sw;#N vpatcher 525 437 715 616;#P window setfont "Sans Serif" 9.;#P window linecount 0;#P newex 102 83 44 196617 del 100;#P message 102 103 17 196617 0.;#P outlet 102 124 15 0;#P outlet 44 124 15 0;#P newex 102 62 32 196617 sel 0;#P inlet 44 46 15 0;#P window linecount 1;#P newex 44 99 38 196617 * 100;#P connect 1 0 0 0;#P connect 0 0 3 0;#P connect 1 0 2 0;#P connect 2 0 6 0;#P connect 6 0 5 0;#P connect 5 0 4 0;#P pop;#P newobj 301 239 31 196617 p sw;#N vpatcher 525 437 715 616;#P window setfont "Sans Serif" 9.;#P window linecount 0;#P newex 102 83 44 196617 del 100;#P message 102 103 17 196617 0.;#P outlet 102 124 15 0;#P outlet 44 124 15 0;#P newex 102 62 32 196617 sel 0;#P inlet 44 46 15 0;#P window linecount 1;#P newex 44 99 38 196617 * 100;#P connect 1 0 0 0;#P connect 0 0 3 0;#P connect 1 0 2 0;#P connect 2 0 6 0;#P connect 6 0 5 0;#P connect 5 0 4 0;#P pop;#P newobj 219 239 31 196617 p sw;#N vpatcher 525 437 715 616;#P window setfont "Sans Serif" 9.;#P window linecount 0;#P newex 102 83 44 196617 del 100;#P message 102 103 17 196617 0.;#P outlet 102 124 15 0;#P outlet 44 124 15 0;#P newex 102 62 32 196617 sel 0;#P inlet 44 46 15 0;#P window linecount 1;#P newex 44 99 38 196617 * 100;#P connect 1 0 0 0;#P connect 0 0 3 0;#P connect 1 0 2 0;#P connect 2 0 6 0;#P connect 6 0 5 0;#P connect 5 0 4 0;#P pop;#P newobj 137 239 31 196617 p sw;#N vpatcher 525 437 715 616;#P window setfont "Sans Serif" 9.;#P window linecount 0;#P newex 102 83 44 196617 del 100;#P message 102 103 17 196617 0.;#P outlet 102 124 15 0;#P outlet 44 124 15 0;#P newex 102 62 32 196617 sel 0;#P inlet 44 46 15 0;#P window linecount 1;#P newex 44 99 38 196617 * 100;#P connect 1 0 0 0;#P connect 0 0 3 0;#P connect 1 0 2 0;#P connect 2 0 6 0;#P connect 6 0 5 0;#P connect 5 0 4 0;#P pop;#P newobj 55 239 31 196617 p sw;#P newex 1253 307 34 196617 atodb;#P newex 1269 261 54 196617 peakamp~;#N comlet sig out;#P outlet 1243 261 15 0;#N comlet to vu;#P outlet 1269 284 15 0;#N comlet to num;#P outlet 1253 329 15 0;#P newex 1171 307 34 196617 atodb;#P newex 1187 261 54 196617 peakamp~;#N comlet sig out;#P outlet 1161 261 15 0;#N comlet to vu;#P outlet 1187 284 15 0;#N comlet to num;#P outlet 1171 329 15 0;#P newex 1089 307 34 196617 atodb;#P newex 1105 261 54 196617 peakamp~;#N comlet sig out;#P outlet 1079 261 15 0;#N comlet to vu;#P outlet 1105 284 15 0;#N comlet to num;#P outlet 1089 329 15 0;#P newex 1007 307 34 196617 atodb;#P newex 1023 261 54 196617 peakamp~;#N comlet sig out;#P outlet 997 261 15 0;#N comlet to vu;#P outlet 1023 284 15 0;#N comlet to num;#P outlet 1007 329 15 0;#P newex 925 307 34 196617 atodb;#P newex 941 261 54 196617 peakamp~;#N comlet sig out;#P outlet 915 261 15 0;#N comlet to vu;#P outlet 941 284 15 0;#N comlet to num;#P outlet 925 329 15 0;#P newex 843 307 34 196617 atodb;#P newex 859 261 54 196617 peakamp~;#N comlet sig out;#P outlet 833 261 15 0;#N comlet to vu;#P outlet 859 284 15 0;#N comlet to num;#P outlet 843 329 15 0;#P newex 761 307 34 196617 atodb;#P newex 777 261 54 196617 peakamp~;#N comlet sig out;#P outlet 751 261 15 0;#N comlet to vu;#P outlet 777 284 15 0;#N comlet to num;#P outlet 761 329 15 0;#P newex 679 307 34 196617 atodb;#P newex 695 261 54 196617 peakamp~;#N comlet sig out;#P outlet 669 261 15 0;#N comlet to vu;#P outlet 695 284 15 0;#N comlet to num;#P outlet 679 329 15 0;#P newex 597 307 34 196617 atodb;#P newex 613 261 54 196617 peakamp~;#N comlet sig out;#P outlet 587 261 15 0;#N comlet to vu;#P outlet 613 284 15 0;#N comlet to num;#P outlet 597 329 15 0;#P newex 515 307 34 196617 atodb;#P newex 531 261 54 196617 peakamp~;#N comlet sig out;#P outlet 505 261 15 0;#N comlet to vu;#P outlet 531 284 15 0;#N comlet to num;#P outlet 515 329 15 0;#P newex 433 307 34 196617 atodb;#P newex 449 261 54 196617 peakamp~;#N comlet sig out;#P outlet 423 261 15 0;#N comlet to vu;#P outlet 449 284 15 0;#N comlet to num;#P outlet 433 329 15 0;#P newex 351 307 34 196617 atodb;#P newex 367 261 54 196617 peakamp~;#N comlet sig out;#P outlet 341 261 15 0;#N comlet to vu;#P outlet 367 284 15 0;#N comlet to num;#P outlet 351 329 15 0;#P newex 269 307 34 196617 atodb;#P newex 285 261 54 196617 peakamp~;#N comlet sig out;#P outlet 259 261 15 0;#N comlet to vu;#P outlet 285 284 15 0;#N comlet to num;#P outlet 269 329 15 0;#P newex 187 307 34 196617 atodb;#P newex 203 261 54 196617 peakamp~;#N comlet sig out;#P outlet 177 261 15 0;#N comlet to vu;#P outlet 203 284 15 0;#N comlet to num;#P outlet 187 329 15 0;#P newex 105 307 34 196617 atodb;#P newex 121 261 54 196617 peakamp~;#N comlet sig out;#P outlet 95 261 15 0;#N comlet to vu;#P outlet 121 284 15 0;#N comlet to num;#P outlet 105 329 15 0;#P newex 700 61 27 196617 t b i;#P newex 732 87 29 196617 * 0.;#P newex 685 87 29 196617 * 0.;#P message 732 107 46 196617 15 7 \$1;#P message 685 107 46 196617 14 7 \$1;#N comlet from toggle;#P inlet 700 34 15 0;#P newex 606 61 27 196617 t b i;#P newex 638 87 29 196617 * 0.;#P newex 591 87 29 196617 * 0.;#P message 638 107 46 196617 13 6 \$1;#P message 591 107 46 196617 12 6 \$1;#N comlet from toggle;#P inlet 606 34 15 0;#P newex 512 61 27 196617 t b i;#P newex 544 87 29 196617 * 0.;#P newex 497 87 29 196617 * 0.;#P message 544 107 46 196617 11 5 \$1;#P message 497 107 46 196617 10 5 \$1;#N comlet from toggle;#P inlet 512 34 15 0;#P newex 427 61 27 196617 t b i;#P newex 455 87 29 196617 * 0.;#P newex 412 87 29 196617 * 0.;#P message 455 107 40 196617 9 4 \$1;#P message 412 107 40 196617 8 4 \$1;#N comlet from toggle;#P inlet 427 34 15 0;#P newex 342 61 27 196617 t b i;#P newex 370 87 29 196617 * 0.;#P newex 327 87 29 196617 * 0.;#P message 370 107 40 196617 7 3 \$1;#P message 327 107 40 196617 6 3 \$1;#N comlet from toggle;#P inlet 342 34 15 0;#P newex 257 61 27 196617 t b i;#P newex 285 87 29 196617 * 0.;#P newex 242 87 29 196617 * 0.;#P message 285 107 40 196617 5 2 \$1;#P message 242 107 40 196617 4 2 \$1;#N comlet from toggle;#P inlet 257 34 15 0;#P newex 172 61 27 196617 t b i;#P newex 200 87 29 196617 * 0.;#P newex 157 87 29 196617 * 0.;#P message 200 107 40 196617 3 1 \$1;#P message 157 107 40 196617 2 1 \$1;#N comlet from toggle;#P inlet 172 34 15 0;#N comlet noise~ in;#P inlet 13 136 15 0;#P newex 87 61 27 196617 t b i;#P newex 115 87 29 196617 * 0.;#P newex 72 87 29 196617 * 0.;#P message 115 107 40 196617 1 0 \$1;#P message 72 107 40 196617 0 0 \$1;#P newex 13 213 1322 196617 matrix~ 32 16 1.;#P newex 23 307 34 196617 atodb;#P newex 39 261 54 196617 peakamp~;#N comlet from toggle;#P inlet 140 34 15 0;#N comlet noise amp db;#P inlet 72 32 15 0;#N comlet tone amp db;#P inlet 115 30 15 0;#N comlet sig out;#P outlet 13 261 15 0;#N comlet to vu;#P outlet 39 284 15 0;#N comlet to num;#P outlet 23 329 15 0;#N comlet tone sig;#P inlet 32 136 15 0;#P window linecount 0;#P comment 1540 127 100 196617;#P comment 1 36 100 196617;#P connect 17 0 11 0;#P connect 12 0 11 0;#P connect 13 0 11 0;#P connect 19 0 11 0;#P connect 20 0 11 0;#P connect 25 0 11 0;#P connect 26 0 11 0;#P connect 31 0 11 0;#P connect 32 0 11 0;#P connect 37 0 11 0;#P connect 38 0 11 0;#P connect 43 0 11 0;#P connect 44 0 11 0;#P connect 49 0 11 0;#P connect 50 0 11 0;#P connect 55 0 11 0;#P connect 56 0 11 0;#P connect 199 0 11 0;#P connect 11 0 5 0;#P connect 9 0 10 0;#P connect 135 1 10 0;#P connect 10 0 3 0;#P connect 11 0 9 0;#P connect 135 1 4 0;#P connect 9 0 4 0;#P connect 2 0 11 1;#P connect 16 1 135 0;#P connect 7 0 14 0;#P connect 16 0 14 0;#P connect 14 0 12 0;#P connect 135 0 9 1;#P connect 8 0 16 0;#P connect 200 0 16 0;#P connect 16 1 14 1;#P connect 11 1 62 0;#P connect 17 0 11 2;#P connect 136 1 64 0;#P connect 63 0 64 0;#P connect 64 0 60 0;#P connect 6 0 15 0;#P connect 16 0 15 0;#P connect 15 0 13 0;#P connect 11 1 63 0;#P connect 63 0 61 0;#P connect 136 1 61 0;#P connect 16 1 15 1;#P connect 23 1 136 0;#P connect 2 0 11 3;#P connect 7 0 21 0;#P connect 23 0 21 0;#P connect 21 0 19 0;#P connect 136 0 63 1;#P connect 18 0 23 0;#P connect 23 1 21 1;#P connect 11 2 67 0;#P connect 17 0 11 4;#P connect 137 1 69 0;#P connect 68 0 69 0;#P connect 69 0 65 0;#P connect 6 0 22 0;#P connect 23 0 22 0;#P connect 22 0 20 0;#P connect 11 2 68 0;#P connect 68 0 66 0;#P connect 137 1 66 0;#P connect 23 1 22 1;#P connect 29 1 137 0;#P connect 2 0 11 5;#P connect 7 0 27 0;#P connect 29 0 27 0;#P connect 27 0 25 0;#P connect 137 0 68 1;#P connect 24 0 29 0;#P connect 11 3 72 0;#P connect 29 1 27 1;#P connect 17 0 11 6;#P connect 138 1 74 0;#P connect 73 0 74 0;#P connect 74 0 70 0;#P connect 6 0 28 0;#P connect 29 0 28 0;#P connect 28 0 26 0;#P connect 11 3 73 0;#P connect 73 0 71 0;#P connect 138 1 71 0;#P connect 35 1 138 0;#P connect 29 1 28 1;#P connect 2 0 11 7;#P connect 7 0 33 0;#P connect 35 0 33 0;#P connect 33 0 31 0;#P connect 138 0 73 1;#P connect 11 4 77 0;#P connect 30 0 35 0;#P connect 35 1 33 1;#P connect 17 0 11 8;#P connect 139 1 79 0;#P connect 78 0 79 0;#P connect 79 0 75 0;#P connect 11 4 78 0;#P connect 78 0 76 0;#P connect 139 1 76 0;#P connect 6 0 34 0;#P connect 35 0 34 0;#P connect 34 0 32 0;#P connect 41 1 139 0;#P connect 35 1 34 1;#P connect 2 0 11 9;#P connect 139 0 78 1;#P connect 7 0 39 0;#P connect 41 0 39 0;#P connect 39 0 37 0;#P connect 11 5 82 0;#P connect 36 0 41 0;#P connect 41 1 39 1;#P connect 17 0 11 10;#P connect 140 1 84 0;#P connect 83 0 84 0;#P connect 84 0 80 0;#P connect 11 5 83 0;#P connect 83 0 81 0;#P connect 140 1 81 0;#P connect 6 0 40 0;#P connect 41 0 40 0;#P connect 40 0 38 0;#P connect 47 1 140 0;#P connect 41 1 40 1;#P connect 2 0 11 11;#P connect 140 0 83 1;#P connect 7 0 45 0;#P connect 47 0 45 0;#P connect 45 0 43 0;#P connect 11 6 87 0;#P connect 42 0 47 0;#P connect 141 1 89 0;#P connect 88 0 89 0;#P connect 89 0 85 0;#P connect 47 1 45 1;#P connect 17 0 11 12;#P connect 11 6 88 0;#P connect 88 0 86 0;#P connect 141 1 86 0;#P connect 6 0 46 0;#P connect 47 0 46 0;#P connect 46 0 44 0;#P connect 53 1 141 0;#P connect 2 0 11 13;#P connect 47 1 46 1;#P connect 141 0 88 1;#P connect 11 7 92 0;#P connect 7 0 51 0;#P connect 53 0 51 0;#P connect 51 0 49 0;#P connect 142 1 94 0;#P connect 93 0 94 0;#P connect 94 0 90 0;#P connect 17 0 11 14;#P connect 48 0 53 0;#P connect 53 1 51 1;#P connect 11 7 93 0;#P connect 93 0 91 0;#P connect 142 1 91 0;#P connect 59 1 142 0;#P connect 6 0 52 0;#P connect 53 0 52 0;#P connect 52 0 50 0;#P connect 2 0 11 15;#P connect 53 1 52 1;#P connect 142 0 93 1;#P connect 11 8 97 0;#P connect 143 1 99 0;#P connect 98 0 99 0;#P connect 99 0 95 0;#P connect 7 0 57 0;#P connect 59 0 57 0;#P connect 57 0 55 0;#P connect 17 0 11 16;#P connect 11 8 98 0;#P connect 98 0 96 0;#P connect 143 1 96 0;#P connect 54 0 59 0;#P connect 59 1 57 1;#P connect 156 1 143 0;#P connect 2 0 11 17;#P connect 6 0 58 0;#P connect 59 0 58 0;#P connect 58 0 56 0;#P connect 143 0 98 1;#P connect 59 1 58 1;#P connect 11 9 102 0;#P connect 144 1 104 0;#P connect 103 0 104 0;#P connect 104 0 100 0;#P connect 17 0 11 18;#P connect 11 9 103 0;#P connect 103 0 101 0;#P connect 144 1 101 0;#P connect 7 0 154 0;#P connect 156 0 154 0;#P connect 154 0 152 0;#P connect 152 0 199 0;#P connect 153 0 199 0;#P connect 158 0 199 0;#P connect 159 0 199 0;#P connect 164 0 199 0;#P connect 165 0 199 0;#P connect 170 0 199 0;#P connect 171 0 199 0;#P connect 176 0 199 0;#P connect 177 0 199 0;#P connect 182 0 199 0;#P connect 183 0 199 0;#P connect 188 0 199 0;#P connect 189 0 199 0;#P connect 194 0 199 0;#P connect 195 0 199 0;#P connect 162 1 144 0;#P connect 151 0 156 0;#P connect 156 1 154 1;#P connect 2 0 11 19;#P connect 144 0 103 1;#P connect 6 0 155 0;#P connect 156 0 155 0;#P connect 155 0 153 0;#P connect 11 10 107 0;#P connect 145 1 109 0;#P connect 108 0 109 0;#P connect 109 0 105 0;#P connect 156 1 155 1;#P connect 17 0 11 20;#P connect 11 10 108 0;#P connect 108 0 106 0;#P connect 145 1 106 0;#P connect 7 0 160 0;#P connect 162 0 160 0;#P connect 160 0 158 0;#P connect 168 1 145 0;#P connect 157 0 162 0;#P connect 162 1 160 1;#P connect 2 0 11 21;#P connect 145 0 108 1;#P connect 11 11 112 0;#P connect 6 0 161 0;#P connect 162 0 161 0;#P connect 161 0 159 0;#P connect 146 1 114 0;#P connect 113 0 114 0;#P connect 114 0 110 0;#P connect 17 0 11 22;#P connect 162 1 161 1;#P connect 11 11 113 0;#P connect 113 0 111 0;#P connect 146 1 111 0;#P connect 174 1 146 0;#P connect 7 0 166 0;#P connect 168 0 166 0;#P connect 166 0 164 0;#P connect 2 0 11 23;#P connect 163 0 168 0;#P connect 146 0 113 1;#P connect 168 1 166 1;#P connect 11 12 117 0;#P connect 147 1 119 0;#P connect 118 0 119 0;#P connect 119 0 115 0;#P connect 17 0 11 24;#P connect 6 0 167 0;#P connect 168 0 167 0;#P connect 167 0 165 0;#P connect 11 12 118 0;#P connect 118 0 116 0;#P connect 147 1 116 0;#P connect 180 1 147 0;#P connect 168 1 167 1;#P connect 2 0 11 25;#P connect 147 0 118 1;#P connect 7 0 172 0;#P connect 174 0 172 0;#P connect 172 0 170 0;#P connect 11 13 122 0;#P connect 148 1 124 0;#P connect 123 0 124 0;#P connect 124 0 120 0;#P connect 169 0 174 0;#P connect 174 1 172 1;#P connect 17 0 11 26;#P connect 11 13 123 0;#P connect 123 0 121 0;#P connect 148 1 121 0;#P connect 186 1 148 0;#P connect 6 0 173 0;#P connect 174 0 173 0;#P connect 173 0 171 0;#P connect 2 0 11 27;#P connect 174 1 173 1;#P connect 148 0 123 1;#P connect 11 14 127 0;#P connect 149 1 129 0;#P connect 128 0 129 0;#P connect 129 0 125 0;#P connect 7 0 178 0;#P connect 180 0 178 0;#P connect 178 0 176 0;#P connect 11 14 128 0;#P connect 128 0 126 0;#P connect 149 1 126 0;#P connect 17 0 11 28;#P connect 175 0 180 0;#P connect 180 1 178 1;#P connect 192 1 149 0;#P connect 2 0 11 29;#P connect 149 0 128 1;#P connect 6 0 179 0;#P connect 180 0 179 0;#P connect 179 0 177 0;#P connect 11 15 132 0;#P connect 150 1 134 0;#P connect 133 0 134 0;#P connect 134 0 130 0;#P connect 180 1 179 1;#P connect 11 15 133 0;#P connect 133 0 131 0;#P connect 150 1 131 0;#P connect 17 0 11 30;#P connect 198 1 150 0;#P connect 7 0 184 0;#P connect 186 0 184 0;#P connect 184 0 182 0;#P connect 181 0 186 0;#P connect 186 1 184 1;#P connect 150 0 133 1;#P connect 2 0 11 31;#P connect 6 0 185 0;#P connect 186 0 185 0;#P connect 185 0 183 0;#P connect 186 1 185 1;#P connect 7 0 190 0;#P connect 192 0 190 0;#P connect 190 0 188 0;#P connect 187 0 192 0;#P connect 192 1 190 1;#P connect 6 0 191 0;#P connect 192 0 191 0;#P connect 191 0 189 0;#P connect 192 1 191 1;#P connect 198 0 196 0;#P connect 7 0 196 0;#P connect 196 0 194 0;#P connect 193 0 198 0;#P connect 198 1 196 1;#P connect 198 0 197 0;#P connect 6 0 197 0;#P connect 197 0 195 0;#P connect 198 1 197 1;#P pop;#P hidden newobj 66 289 621 196617 p noise-tones;#B color 6;#P comment 78 250 14 196617 1;#P toggle 78 227 15 0;#P comment 43 362 19 196617 Hz;#P comment 43 343 19 196617 dB;#P comment 7 330 33 196617 tone;#P comment 43 305 19 196617 dB;#P flonum 7 342 35 9 0 0 0 3 0 0 0 221 221 221 222 222 222 0 0 0;#P flonum 7 304 35 9 0 0 0 3 0 0 0 221 221 221 222 222 222 0 0 0;#P flonum 7 361 35 9 0 0 0 3 0 0 0 221 221 221 222 222 222 0 0 0;#P hidden message 61 238 26 196617 442;#P hidden message 34 238 25 196617 -26;#P hidden newex 34 217 48 196617 loadbang;#P flonum 69 370 35 9 0 0 32 3 0 0 0 221 221 221 222 222 222 0 0 0;#P noclick;#P user meter~ 78 262 91 370 50 0 168 0 103 103 103 255 153 0 255 0 0 217 217 0 153 186 0 12 3 3 3 3;#P hidden newex 66 317 602 196617 dac~ 1 2 3 4 5 6 7 8 9 10 11 12 13 14 15 16;#P comment 6 292 33 196617 noise;#P user panel 64 196 630 50;#X brgb 172 173 224;#X frgb 145 145 145;#X border 0;#X rounded 0;#X shadow 0;#X done;#P background;#P user panel 64 248 630 140;#X brgb 220 210 240;#X frgb 145 145 145;#X border 0;#X rounded 0;#X shadow 0;#X done;#P background;#P user panel 2 2 60 386;#X brgb 190 180 200;#X frgb 145 145 145;#X border 0;#X rounded 0;#X shadow 0;#X done;#P background;#P user panel 64 2 630 50;#X brgb 172 173 224;#X frgb 145 145 145;#X border 0;#X rounded 0;#X shadow 0;#X done;#P background;#P user panel 64 54 630 140;#X brgb 220 210 240;#X frgb 145 145 145;#X border 0;#X rounded 0;#X shadow 0;#X done;#P background;#P hidden connect 10 0 13 0;#P hidden connect 10 0 14 0;#P hidden connect 11 0 12 0;#P hidden connect 13 0 22 0;#P hidden connect 14 0 23 0;#P hidden fasten 137 0 138 0 38 473 28 473 28 410 38 410;#P hidden connect 138 0 140 0;#P hidden connect 140 0 137 0;#P hidden connect 9 0 10 0;#P hidden connect 146 0 10 0;#P hidden connect 12 0 25 0;#P hidden connect 146 0 11 0;#P hidden connect 9 0 11 0;#P hidden connect 24 0 21 0;#P hidden connect 21 0 6 0;#P hidden connect 90 0 88 0;#P hidden connect 21 1 8 0;#P hidden connect 90 1 87 0;#P hidden connect 146 1 19 0;#P hidden connect 21 2 7 0;#P hidden connect 139 0 138 1;#P hidden connect 25 0 21 1;#P hidden connect 21 3 6 1;#P hidden connect 90 2 92 0;#P hidden connect 21 4 27 0;#P hidden connect 90 3 91 0;#P hidden connect 146 1 56 0;#P hidden connect 21 5 26 0;#P hidden connect 22 0 21 2;#P hidden connect 21 6 6 2;#P hidden connect 90 4 94 0;#P hidden connect 21 7 29 0;#P hidden connect 90 5 93 0;#P hidden connect 146 1 58 0;#P hidden connect 21 8 28 0;#P hidden connect 23 0 21 3;#P hidden connect 21 9 6 3;#P hidden connect 90 6 96 0;#P hidden connect 21 10 31 0;#P hidden connect 146 1 143 0;#P hidden connect 141 1 143 0;#P hidden connect 152 0 143 0;#P hidden connect 143 0 156 0;#P hidden connect 156 0 144 0;#P hidden connect 144 0 142 0;#P hidden connect 19 0 21 4;#P hidden connect 90 7 95 0;#P hidden connect 146 1 60 0;#P hidden connect 21 11 30 0;#P hidden connect 155 0 141 0;#P hidden connect 21 12 6 4;#P hidden connect 154 0 152 0;#P hidden connect 90 8 98 0;#P hidden connect 21 13 33 0;#P hidden connect 56 0 21 5;#P hidden connect 90 9 97 0;#P hidden connect 146 1 62 0;#P hidden connect 21 14 32 0;#P hidden connect 58 0 21 6;#P hidden connect 152 0 153 0;#P hidden connect 21 15 6 5;#P hidden connect 90 10 100 0;#P hidden connect 21 16 35 0;#P hidden connect 146 1 154 0;#P hidden connect 141 1 154 0;#P hidden connect 90 11 99 0;#P hidden connect 146 1 64 0;#P hidden connect 21 17 34 0;#P hidden connect 60 0 21 7;#P hidden connect 21 18 6 6;#P hidden connect 90 12 102 0;#P hidden connect 21 19 37 0;#P hidden connect 90 13 101 0;#P hidden connect 146 1 66 0;#P hidden connect 21 20 36 0;#P hidden connect 62 0 21 8;#P hidden connect 145 0 146 0;#P hidden connect 21 21 6 7;#P hidden connect 90 14 104 0;#P hidden connect 21 22 39 0;#P hidden connect 90 15 103 0;#P hidden connect 146 1 68 0;#P hidden connect 21 23 38 0;#P hidden connect 64 0 21 9;#P hidden connect 21 24 6 8;#P hidden connect 90 16 106 0;#P hidden connect 21 25 41 0;#P hidden connect 66 0 21 10;#P hidden connect 90 17 105 0;#P hidden connect 146 1 70 0;#P hidden connect 21 26 40 0;#P hidden connect 21 27 6 9;#P hidden connect 68 0 21 11;#P hidden connect 90 18 108 0;#P hidden connect 21 28 43 0;#P hidden connect 90 19 107 0;#P hidden connect 146 1 72 0;#P hidden connect 21 29 42 0;#P hidden connect 70 0 21 12;#P hidden connect 21 30 6 10;#P hidden connect 90 20 110 0;#P hidden connect 21 31 45 0;#P hidden connect 90 21 109 0;#P hidden connect 146 1 74 0;#P hidden connect 21 32 44 0;#P hidden connect 72 0 21 13;#P hidden connect 21 33 6 11;#P hidden connect 90 22 112 0;#P hidden connect 21 34 47 0;#P hidden connect 90 23 111 0;#P hidden connect 146 1 76 0;#P hidden connect 21 35 46 0;#P hidden connect 74 0 21 14;#P hidden connect 21 36 6 12;#P hidden connect 90 24 114 0;#P hidden connect 21 37 49 0;#P hidden connect 148 0 147 0;#P hidden connect 153 0 147 0;#P hidden connect 90 25 113 0;#P hidden connect 146 1 78 0;#P hidden connect 21 38 48 0;#P hidden connect 76 0 21 15;#P hidden connect 21 39 6 13;#P hidden connect 90 26 116 0;#P hidden connect 21 40 51 0;#P hidden connect 78 0 21 16;#P hidden connect 90 27 115 0;#P hidden connect 146 1 80 0;#P hidden connect 21 41 50 0;#P hidden connect 80 0 21 17;#P hidden connect 21 42 6 14;#P hidden connect 90 28 118 0;#P hidden connect 21 43 53 0;#P hidden connect 90 29 117 0;#P hidden connect 146 1 82 0;#P hidden connect 21 44 52 0;#P hidden connect 82 0 21 18;#P hidden connect 21 45 6 15;#P hidden connect 90 30 120 0;#P hidden connect 21 46 55 0;#P hidden connect 90 31 119 0;#P hidden connect 146 1 84 0;#P hidden connect 21 47 54 0;#P hidden connect 84 0 21 19;#P pop;