max v2;#N vpatcher 309 49 1299 571;#P origin 0 18;#P window setfont "Sans Serif" 9.;#P window linecount 1;#P newex 36 449 132 196617 deletebuild /tape/iometers;#B color 6;#P button 36 431 15 6;#P comment 51 432 31 196617 build;#P newex 36 411 134 196617 deletebuild /tape/fxmeters;#B color 6;#P button 36 393 15 6;#P comment 51 394 31 196617 build;#P newex 36 372 116 196617 deletebuild /tape/spats;#B color 6;#P button 36 354 15 6;#P comment 51 355 31 196617 build;#P newex 36 333 107 196617 deletebuild /tape/dsp;#B color 6;#P button 648 31 15 0;#P newex 475 94 147 196617 sprintf read %st_windows.txt;#B color 5;#N coll t_windows 1;#P newobj 475 116 87 196617 coll t_windows 1;#B color 5;#P newex 666 53 44 196617 t config;#P newex 666 30 104 196617 r /t_windows/write;#B color 11;#P newex 666 98 152 196617 sprintf write %st_windows.txt;#B color 5;#N coll filepaths.txt;#P newobj 666 74 85 196617 coll filepaths.txt;#B color 5;#N vpatcher 10 59 427 671;#P window setfont "Sans Serif" 9.;#P window linecount 1;#P newex 257 484 36 196617 zl reg;#P newex 193 397 49 196617 zl rot -1;#P newex 193 376 51 196617 zl slice 2;#P newex 193 352 56 196617 route spat;#P newex 193 332 44 196617 zl rot 1;#P newex 139 290 69 196617 route symbol;#P newex 193 312 38 196617 zl join;#P newex 211 290 69 196617 route symbol;#P newex 50 147 88 196617 t b start b;#P newex 50 126 32 196617 del 1;#P message 50 50 37 196617 length;#P button 50 169 15 0;#P newex 50 243 38 196617 del 10;#P newex 50 106 56 196617 t b i;#P newex 50 219 73 196617 t b next pause;#P newex 50 194 56 196617 uzi;#P number 50 88 35 9 0 0 0 3 0 0 0 221 221 221 222 222 222 0 0 0;#P newex 50 68 99 196617 grab;#P newex 50 264 50 196617 t resume;#N coll t_config 1;#P newobj 139 265 75 196617 coll t_config 1;#B color 5;#P newex 193 418 57 196617 unpack 0 s;#P newex 257 526 68 196617 prepend send;#P newex 223 462 78 196617 t b b i;#P newex 257 504 105 196617 sprintf /%s.%ld/init;#P newex 193 440 40 196617 uzi;#P newex 223 551 47 196617 forward;#N comlet init dsp modules;#P inlet 50 30 15 0;#P window linecount 0;#P comment 68 30 82 196617 init dsp modules;#P connect 1 0 17 0;#P connect 17 0 10 0;#P connect 10 0 11 0;#P connect 11 0 14 0;#P connect 14 0 18 0;#P connect 18 0 19 0;#P connect 19 0 16 0;#P fasten 13 2 12 0 117 240 126 240 126 188 55 188;#P lcolor 2;#P fasten 9 0 12 0 55 284 45 284 45 191 55 191;#P connect 16 0 12 0;#P connect 12 0 13 0;#P connect 13 0 15 0;#P connect 15 0 9 0;#P connect 14 1 12 1;#P connect 13 1 8 0;#P connect 10 1 8 0;#P connect 19 1 8 0;#P connect 8 0 22 0;#P connect 22 1 21 0;#P connect 22 0 21 0;#P connect 21 0 23 0;#P connect 23 0 24 0;#P connect 24 1 25 0;#P connect 25 0 26 0;#P connect 26 0 7 0;#P connect 7 0 3 0;#P fasten 8 1 20 0 165 286 216 286;#P connect 20 0 21 1;#P connect 3 2 5 0;#P connect 6 0 2 0;#P connect 5 0 2 0;#P connect 5 1 27 0;#P connect 27 0 4 0;#P connect 4 0 6 0;#P connect 7 1 27 1;#P connect 5 2 4 1;#P pop;#P newobj 834 83 96 196617 p init_dsp_modules;#B color 6;#P toggle 832 134 64 0;#P noclick;#P newex 832 114 99 196617 r /autoconfig/state;#B color 11;#P newex 255 215 21 196617 t 1;#P newex 255 236 99 196617 s /autoconfig/state;#B color 11;#P newex 36 155 97 196617 r /autoconfig/build;#B color 11;#P newex 213 155 103 196617 r /autoconfig/delete;#B color 11;#P window linecount 3;#P message 213 261 121 196617 \; /tape/delete_dsp bang \; /tape/delete_spats bang;#P window linecount 1;#P newex 834 35 79 196617 r /tape/initdsp;#B color 11;#P button 834 56 24 0;#P newex 225 239 21 196617 t 0;#P button 213 176 24 0;#P button 36 176 24 0;#P newex 36 293 45 196617 onebang;#P button 36 273 15 0;#P newex 36 209 30 196617 t b b;#P newex 36 232 82 196617 s /mtrx/create;#B color 11;#P newex 36 253 110 196617 r /mtrx/matrix/built;#B color 11;#P button 36 314 15 6;#P comment 51 315 31 196617 build;#P newex 336 94 132 196617 sprintf read %st_spats.txt;#B color 5;#N coll t_spats 1;#P newobj 336 116 72 196617 coll t_spats 1;#B color 5;#P newex 186 94 135 196617 sprintf read %st_config.txt;#B color 5;#N coll t_config 1;#P newobj 186 116 75 196617 coll t_config 1;#B color 5;#P button 18 21 15 0;#P newex 36 44 44 196617 t config;#P newex 36 21 94 196617 r /autoconfig/load;#B color 11;#P newex 36 94 144 196617 sprintf read %st_modules.txt;#B color 5;#N coll filepaths.txt;#P newobj 36 65 85 196617 coll filepaths.txt;#B color 5;#N coll t_modules 1;#P newobj 36 116 84 196617 coll t_modules 1;#B color 5;#P comment 866 62 64 196617 init modules;#P comment 831 202 92 196617 ˆ faire: editors;#P connect 5 0 6 0;#P connect 7 0 6 0;#P connect 6 0 3 0;#P connect 3 0 4 0;#P connect 4 0 2 0;#P connect 26 0 19 0;#P connect 19 0 16 0;#P connect 16 0 15 0;#P connect 14 0 17 0;#P connect 17 0 18 0;#P connect 18 0 13 0;#P connect 13 0 39 0;#P connect 39 0 41 0;#P connect 41 0 42 0;#P connect 42 0 44 0;#P connect 44 0 45 0;#P connect 45 0 47 0;#P connect 47 0 48 0;#P connect 16 1 18 1;#P fasten 3 0 9 0 41 88 191 88;#P connect 9 0 8 0;#P connect 25 0 20 0;#P connect 20 0 24 0;#P connect 20 0 21 0;#P connect 19 0 28 0;#P connect 21 0 27 0;#P connect 28 0 27 0;#P fasten 3 0 11 0 41 88 341 88;#P connect 11 0 10 0;#P fasten 3 0 37 0 41 88 480 88;#P connect 33 0 36 0;#P connect 37 0 36 0;#P connect 38 0 35 0;#P connect 34 0 35 0;#P connect 35 0 32 0;#P connect 32 0 33 0;#P connect 29 0 30 0;#P connect 23 0 22 0;#P connect 22 0 31 0;#P pop;