max v2;#N vpatcher 121 218 798 607;#P window setfont "Sans Serif" 9.;#P hidden newex 391 408 53 196617 closebang;#P window setfont Times 14.;#P comment 321 335 22 1310734 16;#P window setfont "Sans Serif" 9.;#P hidden newex 400 335 88 196617 adstatus input 16;#P user umenu 367 335 100 196647 1 64 351 0;#X add Off;#X add 1 input;#X add 2 input;#P hidden newex 400 317 88 196617 adstatus input 15;#P user umenu 367 317 100 196647 1 64 333 0;#X add Off;#X add 1 input;#X add 2 input;#P window setfont Times 14.;#P comment 321 317 22 1310734 15;#P comment 321 299 22 1310734 14;#P window setfont "Sans Serif" 9.;#P hidden newex 400 299 88 196617 adstatus input 14;#P user umenu 367 299 100 196647 1 64 315 0;#X add Off;#X add 1 input;#X add 2 input;#P hidden newex 400 281 88 196617 adstatus input 13;#P user umenu 367 281 100 196647 1 64 297 0;#X add Off;#X add 1 input;#X add 2 input;#P window setfont Times 14.;#P comment 321 281 22 1310734 13;#P comment 321 263 22 1310734 12;#P window setfont "Sans Serif" 9.;#P hidden newex 400 263 88 196617 adstatus input 12;#P user umenu 367 263 100 196647 1 64 279 0;#X add Off;#X add 1 input;#X add 2 input;#P hidden newex 400 245 88 196617 adstatus input 11;#P user umenu 367 245 100 196647 1 64 261 0;#X add Off;#X add 1 input;#X add 2 input;#P window setfont Times 14.;#P comment 321 245 22 1310734 11;#P comment 321 227 22 1310734 10;#P window setfont "Sans Serif" 9.;#P hidden newex 400 227 88 196617 adstatus input 10;#P user umenu 367 227 100 196647 1 64 243 0;#X add Off;#X add 1 input;#X add 2 input;#P hidden newex 400 209 82 196617 adstatus input 9;#P user umenu 367 209 100 196647 1 64 225 0;#X add Off;#X add 1 input;#X add 2 input;#P window setfont Times 14.;#P comment 321 209 15 1310734 9;#P comment 321 191 15 1310734 8;#P window setfont "Sans Serif" 9.;#P hidden newex 400 191 82 196617 adstatus input 8;#P user umenu 367 191 100 196647 1 64 207 0;#X add Off;#X add 1 input;#X add 2 input;#P hidden newex 400 173 82 196617 adstatus input 7;#P user umenu 367 173 100 196647 1 64 189 0;#X add Off;#X add 1 input;#X add 2 input;#P window setfont Times 14.;#P comment 321 173 15 1310734 7;#P comment 321 155 15 1310734 6;#P window setfont "Sans Serif" 9.;#P hidden newex 400 155 82 196617 adstatus input 6;#P user umenu 367 155 100 196647 1 64 171 0;#X add Off;#X add 1 input;#X add 2 input;#P hidden newex 400 137 82 196617 adstatus input 5;#P user umenu 367 137 100 196647 1 64 153 0;#X add Off;#X add 1 input;#X add 2 input;#P window setfont Times 14.;#P comment 321 137 15 1310734 5;#P comment 321 119 15 1310734 4;#P window setfont "Sans Serif" 9.;#P hidden newex 400 119 82 196617 adstatus input 4;#P user umenu 367 119 100 196647 1 64 135 0;#X add Off;#X add 1 input;#X add 2 input;#P hidden newex 400 101 82 196617 adstatus input 3;#P user umenu 367 101 100 196647 1 64 117 0;#X add Off;#X add 1 input;#X add 2 input;#P window setfont Times 14.;#P comment 321 101 15 1310734 3;#P comment 497 335 22 1310734 16;#P window setfont "Sans Serif" 9.;#P hidden newex 569 335 94 196617 adstatus output 16;#P user umenu 546 335 100 196647 1 64 351 0;#X add Off;#X add 1 output;#X add 2 output;#P window setfont Times 14.;#P comment 497 317 22 1310734 15;#P window setfont "Sans Serif" 9.;#P hidden newex 569 317 94 196617 adstatus output 15;#P user umenu 546 317 100 196647 1 64 333 0;#X add Off;#X add 1 output;#X add 2 output;#P window setfont Times 14.;#P comment 497 299 22 1310734 14;#P window setfont "Sans Serif" 9.;#P hidden newex 569 299 94 196617 adstatus output 14;#P user umenu 546 299 100 196647 1 64 315 0;#X add Off;#X add 1 output;#X add 2 output;#P window setfont Times 14.;#P comment 497 281 22 1310734 13;#P window setfont "Sans Serif" 9.;#P hidden newex 569 281 94 196617 adstatus output 13;#P user umenu 546 281 100 196647 1 64 297 0;#X add Off;#X add 1 output;#X add 2 output;#P window setfont Times 14.;#P comment 497 263 22 1310734 12;#P window setfont "Sans Serif" 9.;#P hidden newex 569 263 94 196617 adstatus output 12;#P user umenu 546 263 100 196647 1 64 279 0;#X add Off;#X add 1 output;#X add 2 output;#P window setfont Times 14.;#P comment 497 245 22 1310734 11;#P window setfont "Sans Serif" 9.;#P hidden newex 569 245 94 196617 adstatus output 11;#P user umenu 546 245 100 196647 1 64 261 0;#X add Off;#X add 1 output;#X add 2 output;#P window setfont Times 9.;#P hidden newex 327 431 138 1310729 editorwindow /audiosettings /tape;#N thispatcher;#Q end;#P hidden newobj 327 458 53 1310729 thispatcher;#P window setfont Times 14.;#P comment 497 227 22 1310734 10;#P comment 500 209 14 1310734 9;#P comment 500 191 14 1310734 8;#P comment 500 173 14 1310734 7;#P window setfont "Sans Serif" 9.;#P hidden newex 569 227 94 196617 adstatus output 10;#P user umenu 546 227 100 196647 1 64 243 0;#X add Off;#X add 1 output;#X add 2 output;#P hidden newex 569 209 88 196617 adstatus output 9;#P user umenu 546 209 100 196647 1 64 225 0;#X add Off;#X add 1 output;#X add 2 output;#P hidden newex 569 191 88 196617 adstatus output 8;#P user umenu 546 191 100 196647 1 64 207 0;#X add Off;#X add 1 output;#X add 2 output;#P hidden newex 569 173 88 196617 adstatus output 7;#P user umenu 546 173 100 196647 1 64 189 0;#X add Off;#X add 1 output;#X add 2 output;#P hidden newex 569 155 88 196617 adstatus output 6;#P user umenu 546 155 100 196647 1 64 171 0;#X add Off;#X add 1 output;#X add 2 output;#P window setfont Times 14.;#P comment 500 155 14 1310734 6;#P window setfont Times 18.;#P comment 4 17 48 1310738 audio;#P comment 76 17 202 1310738 paramètres audio/carte son;#P button 182 351 15 0;#P noclick;#P window setfont "Sans Serif" 9.;#P comment 9 352 52 196617 CPU Limit;#P number 113 351 48 9 0 100 99 3 0 0 0 221 221 221 222 222 222 0 0 0;#P user umenu 113 331 51 196645 1 64 347 0;#X add Off;#X add On;#P hidden newex 140 542 85 196617 adstatus optimize;#P comment 9 333 83 196617 Optimize;#P hidden newex 140 561 85 196617 adstatus cpulimit;#P comment 162 353 17 196617 %;#P comment 198 353 30 196617 Over;#P comment 9 287 134 196617 Max Scheduler in Overdrive;#P comment 9 305 135 196617 Scheduler in Audio Interrupt;#P user umenu 169 284 49 196645 1 64 300 0;#X add Off;#X add On;#P hidden newex 140 486 94 196617 adstatus overdrive;#P user umenu 169 303 49 196645 1 64 319 0;#X add Off;#X add On;#P hidden newex 140 505 89 196617 adstatus takeover;#P user umenu 113 257 72 196645 1 64 273 0;#X add 1;#X add 2;#X add 4;#X add 8;#X add 16;#X add 32;#X add 64;#X add 128;#X add 256;#X add 512;#X add 1024;#X add 2048;#X add 4096;#X add 8192;#X add 16384;#P hidden newex 140 459 73 196617 adstatus sigvs;#P comment 9 259 90 196617 Signal Vector Size;#P user umenu 113 238 72 196645 1 64 254 0;#X add 16;#X add 32;#X add 64;#X add 128;#X add 256;#X add 512;#X add 1024;#X add 2048;#X add 4096;#X add 8192;#P hidden newex 140 440 68 196617 adstatus iovs;#P comment 9 240 78 196617 I/O Vector Size;#P user umenu 113 182 72 196645 1 64 198 0;#X add 96000;#X add 48000;#X add 44100;#P hidden newex 140 384 59 196617 adstatus sr;#P comment 9 183 71 196617 Sampling Rate;#P comment 9 202 72 196617 Input Channels;#P comment 9 221 79 196617 Output Channels;#P number 115 220 48 9 0 0 8352 3 0 0 0 221 221 221 222 222 222 0 0 0;#P hidden newex 140 421 100 196617 adstatus numoutputs;#P number 115 201 48 9 0 0 8352 3 0 0 0 221 221 221 222 222 222 0 0 0;#P hidden newex 140 403 94 196617 adstatus numinputs;#P comment 187 183 19 196617 Hz;#P user umenu 113 152 176 196645 1 64 168 0;#P hidden newex -1 479 85 196617 adstatus option 3;#P user umenu 7 152 89 196645 3 64 168 0;#X add "Playthrough Input";#P hidden newex -5 155 109 196617 adstatus optionname 3;#P user umenu 113 133 176 196645 1 64 149 0;#X add Headphones;#P hidden newex -1 460 85 196617 adstatus option 2;#P user umenu 7 133 89 196645 3 64 149 0;#X add "Output Destination";#P hidden newex -5 136 109 196617 adstatus optionname 2;#P user umenu 113 114 176 196645 1 64 130 0;#X add "Internal microphone";#P hidden newex -1 441 85 196617 adstatus option 1;#P user umenu 113 95 176 196645 1 64 111 0;#X add "Built-in Microphone";#X add "Built-in Input";#X add "Soundflower (2ch)";#X add "Soundflower (16ch)";#P hidden newex -1 422 85 196617 adstatus option 0;#P user umenu 113 76 176 196645 1 64 92 0;#X add None;#X add CoreAudio "Built-in Output";#X add CoreAudio "Soundflower (2ch)";#X add CoreAudio "Soundflower (16ch)";#X add NonRealTime;#X add ad_rewire;#P hidden newex -1 403 78 196617 adstatus driver;#P comment 9 77 58 196617 Driver;#P user umenu 7 114 89 196645 3 64 130 0;#X add "Input Source";#P hidden newex -5 117 108 196617 adstatus optionname 1;#P hidden newex -5 97 108 196617 adstatus optionname 0;#P user umenu 113 57 49 196645 1 64 73 0;#X add Off;#X add On;#P hidden newex -1 384 79 196617 adstatus switch;#P user umenu 7 95 89 196645 3 64 111 0;#X add "Input Device";#P comment 9 58 58 196617 Audio;#P hidden newex 265 428 30 196617 sel 1;#P hidden newex 265 407 35 196617 active;#P hidden button 265 449 15 0;#P window setfont Times 18.;#P comment 488 17 40 1310738 dacs;#P window setfont Times 14.;#P comment 500 137 14 1310734 5;#P comment 500 119 14 1310734 4;#P comment 500 101 14 1310734 3;#P comment 500 83 14 1310734 2;#P window setfont "Sans Serif" 9.;#P hidden newex 569 137 85 196617 adstatus output 5;#P user umenu 546 137 100 196647 1 64 153 0;#X add Off;#X add 1 output;#X add 2 output;#P hidden newex 569 119 85 196617 adstatus output 4;#P user umenu 546 119 100 196647 1 64 135 0;#X add Off;#X add 1 output;#X add 2 output;#P hidden newex 569 101 85 196617 adstatus output 3;#P user umenu 546 101 100 196647 1 64 117 0;#X add Off;#X add 1 output;#X add 2 output;#P hidden newex 569 83 85 196617 adstatus output 2;#P user umenu 546 83 100 196647 1 64 99 0;#X add Off;#X add 1 output;#X add 2 output;#P hidden newex 569 65 85 196617 adstatus output 1;#P user umenu 546 65 100 196647 1 64 81 0;#X add Off;#X add 1 output;#X add 2 output;#P window setfont Times 18.;#P window linecount 2;#P comment 557 6 83 1310738 sorties physiques;#P window setfont Times 14.;#P window linecount 1;#P comment 500 65 14 1310734 1;#P window setfont Times 18.;#P comment 309 17 40 1310738 adcs;#P window setfont Times 14.;#P comment 321 83 15 1310734 2;#P window setfont "Sans Serif" 9.;#P hidden newex 400 83 80 196617 adstatus input 2;#P user umenu 367 83 100 196647 1 64 99 0;#X add Off;#X add 1 input;#X add 2 input;#P hidden newex 400 65 80 196617 adstatus input 1;#P user umenu 367 65 100 196647 1 64 81 0;#X add Off;#X add 1 input;#X add 2 input;#P window setfont Times 18.;#P window linecount 2;#P comment 378 6 83 1310738 entrées physiques;#P window setfont Times 14.;#P window linecount 1;#P comment 321 65 15 1310734 1;#P user panel 250 178 52 194;#X brgb 196 190 207;#X frgb 145 145 145;#X border 0;#X rounded 0;#X shadow 0;#X done;#P background;#P user panel 2 327 100 45;#X brgb 190 180 200;#X frgb 145 145 145;#X border 0;#X rounded 0;#X shadow 0;#X done;#P background;#P user panel 2 327 300 45;#X brgb 220 210 240;#X frgb 145 145 145;#X border 0;#X rounded 0;#X shadow 0;#X done;#P background;#P user panel 2 280 150 45;#X brgb 190 180 200;#X frgb 145 145 145;#X border 0;#X rounded 0;#X shadow 0;#X done;#P background;#P user panel 2 280 300 45;#X brgb 220 210 240;#X frgb 145 145 145;#X border 0;#X rounded 0;#X shadow 0;#X done;#P background;#P user panel 2 178 100 100;#X brgb 190 180 200;#X frgb 145 145 145;#X border 0;#X rounded 0;#X shadow 0;#X done;#P background;#P user panel 2 178 300 100;#X brgb 220 210 240;#X frgb 145 145 145;#X border 0;#X rounded 0;#X shadow 0;#X done;#P background;#P user panel 2 51 100 125;#X brgb 190 180 200;#X frgb 145 145 145;#X border 0;#X rounded 0;#X shadow 0;#X done;#P background;#P user panel 2 51 300 125;#X brgb 220 210 240;#X frgb 145 145 145;#X border 0;#X rounded 0;#X shadow 0;#X done;#P background;#P user panel 304 2 49 49;#X brgb 125 138 205;#X frgb 145 145 145;#X border 0;#X rounded 0;#X shadow 0;#X done;#P background;#P user panel 353 2 128 49;#X brgb 172 173 224;#X frgb 145 145 145;#X border 0;#X rounded 0;#X shadow 0;#X done;#P background;#P user panel 304 51 49 321;#X brgb 190 180 200;#X frgb 145 145 145;#X border 0;#X rounded 0;#X shadow 0;#X done;#P background;#P user panel 353 51 128 321;#X brgb 220 210 240;#X frgb 145 145 145;#X border 0;#X rounded 0;#X shadow 0;#X done;#P background;#P user panel 483 2 49 49;#X brgb 125 138 205;#X frgb 145 145 145;#X border 0;#X rounded 0;#X shadow 0;#X done;#P background;#P user panel 532 2 128 49;#X brgb 172 173 224;#X frgb 145 145 145;#X border 0;#X rounded 0;#X shadow 0;#X done;#P background;#P user panel 483 51 49 321;#X brgb 190 180 200;#X frgb 145 145 145;#X border 0;#X rounded 0;#X shadow 0;#X done;#P background;#P user panel 532 51 128 321;#X brgb 220 210 240;#X frgb 145 145 145;#X border 0;#X rounded 0;#X shadow 0;#X done;#P background;#P user panel 2 2 49 49;#X brgb 125 138 205;#X frgb 145 145 145;#X border 0;#X rounded 0;#X shadow 0;#X done;#P background;#P user panel 51 2 251 49;#X brgb 172 173 224;#X frgb 145 145 145;#X border 0;#X rounded 0;#X shadow 0;#X done;#P background;#P hidden connect 44 0 49 0;#P hidden connect 50 0 49 0;#P hidden connect 44 0 55 0;#P hidden connect 56 0 55 0;#P hidden connect 44 0 57 0;#P hidden connect 58 0 57 0;#P hidden connect 44 0 59 0;#P hidden connect 60 0 59 0;#P hidden connect 44 0 63 0;#P hidden connect 64 0 63 0;#P hidden connect 44 0 67 0;#P hidden connect 68 0 67 0;#P hidden connect 51 0 48 0;#P hidden connect 52 0 53 0;#P hidden connect 61 0 62 0;#P hidden connect 65 0 66 0;#P hidden connect 49 0 50 0;#P hidden connect 55 0 56 0;#P hidden fasten 57 0 58 0 249 92 118 92;#P hidden connect 59 0 60 0;#P hidden connect 63 0 64 0;#P hidden connect 67 0 68 0;#P hidden connect 77 0 78 0;#P hidden connect 80 0 81 0;#P hidden connect 83 0 84 0;#P hidden connect 95 0 96 0;#P hidden connect 93 0 97 0;#P hidden connect 70 0 71 0;#P hidden connect 72 0 73 0;#P hidden connect 44 0 77 0;#P hidden connect 78 0 77 0;#P hidden connect 44 0 70 0;#P hidden connect 44 0 72 0;#P hidden connect 44 0 80 0;#P hidden connect 81 0 80 0;#P hidden connect 44 0 83 0;#P hidden connect 84 0 83 0;#P hidden connect 44 0 87 0;#P hidden connect 88 0 87 0;#P hidden connect 44 0 85 0;#P hidden connect 86 0 85 0;#P hidden connect 44 0 95 0;#P hidden connect 96 0 95 0;#P hidden connect 44 0 93 0;#P hidden connect 97 0 93 0;#P hidden connect 87 0 88 0;#P hidden connect 85 0 86 0;#P hidden fasten 93 1 99 0 186 359 187 359;#P hidden connect 45 0 46 0;#P hidden connect 46 0 44 0;#P hidden fasten 117 0 118 0 332 480 322 480 322 426 332 426;#P hidden connect 118 0 117 0;#P hidden connect 22 0 21 0;#P hidden connect 24 0 23 0;#P hidden connect 139 0 138 0;#P hidden connect 141 0 140 0;#P hidden connect 145 0 144 0;#P hidden connect 147 0 146 0;#P hidden connect 151 0 150 0;#P hidden connect 153 0 152 0;#P hidden connect 157 0 156 0;#P hidden connect 159 0 158 0;#P hidden connect 163 0 162 0;#P hidden connect 165 0 164 0;#P hidden connect 169 0 168 0;#P hidden connect 171 0 170 0;#P hidden connect 175 0 174 0;#P hidden connect 177 0 176 0;#P hidden connect 179 0 118 1;#P hidden connect 44 0 22 0;#P hidden connect 21 0 22 0;#P hidden connect 44 0 24 0;#P hidden connect 23 0 24 0;#P hidden connect 44 0 139 0;#P hidden connect 138 0 139 0;#P hidden connect 44 0 141 0;#P hidden connect 140 0 141 0;#P hidden connect 44 0 145 0;#P hidden connect 144 0 145 0;#P hidden connect 44 0 147 0;#P hidden connect 146 0 147 0;#P hidden connect 44 0 151 0;#P hidden connect 150 0 151 0;#P hidden connect 44 0 153 0;#P hidden connect 152 0 153 0;#P hidden connect 44 0 157 0;#P hidden connect 156 0 157 0;#P hidden connect 44 0 159 0;#P hidden connect 158 0 159 0;#P hidden connect 44 0 163 0;#P hidden connect 162 0 163 0;#P hidden connect 44 0 165 0;#P hidden connect 164 0 165 0;#P hidden connect 44 0 169 0;#P hidden connect 168 0 169 0;#P hidden connect 44 0 171 0;#P hidden connect 170 0 171 0;#P hidden connect 44 0 175 0;#P hidden connect 174 0 175 0;#P hidden connect 44 0 177 0;#P hidden connect 176 0 177 0;#P hidden connect 30 0 29 0;#P hidden connect 32 0 31 0;#P hidden connect 34 0 33 0;#P hidden connect 36 0 35 0;#P hidden connect 38 0 37 0;#P hidden connect 104 0 103 0;#P hidden connect 106 0 105 0;#P hidden connect 108 0 107 0;#P hidden connect 110 0 109 0;#P hidden connect 112 0 111 0;#P hidden connect 120 0 119 0;#P hidden connect 123 0 122 0;#P hidden connect 126 0 125 0;#P hidden connect 129 0 128 0;#P hidden connect 132 0 131 0;#P hidden connect 135 0 134 0;#P hidden connect 29 0 30 0;#P hidden connect 44 0 30 0;#P hidden connect 31 0 32 0;#P hidden connect 44 0 32 0;#P hidden connect 33 0 34 0;#P hidden connect 44 0 34 0;#P hidden connect 35 0 36 0;#P hidden connect 44 0 36 0;#P hidden connect 37 0 38 0;#P hidden connect 44 0 38 0;#P hidden connect 103 0 104 0;#P hidden connect 44 0 104 0;#P hidden connect 105 0 106 0;#P hidden connect 44 0 106 0;#P hidden connect 107 0 108 0;#P hidden connect 44 0 108 0;#P hidden connect 109 0 110 0;#P hidden connect 44 0 110 0;#P hidden connect 111 0 112 0;#P hidden connect 44 0 112 0;#P hidden connect 119 0 120 0;#P hidden connect 44 0 120 0;#P hidden connect 122 0 123 0;#P hidden connect 44 0 123 0;#P hidden connect 125 0 126 0;#P hidden connect 44 0 126 0;#P hidden connect 128 0 129 0;#P hidden connect 44 0 129 0;#P hidden connect 131 0 132 0;#P hidden connect 44 0 132 0;#P hidden connect 134 0 135 0;#P hidden connect 44 0 135 0;#P pop;