max v2;#N vpatcher 511 72 1391 835;#P window setfont "Sans Serif" 9.;#P window linecount 1;#P comment 473 48 373 196617 make sure this bang has happened at least once - in case loadbang doesn't work...;#P newex 225 171 20 196617 t b;#P newex 418 46 54 196617 onebang 1;#P newex 154 349 42 196617 t pause;#P newex 13 414 50 196617 deferlow;#P newex 13 435 50 196617 t resume;#P newex 50 375 30 196617 t b b;#P newex 42 325 51 196617 zl slice 1;#P newex 271 223 44 196617 zl nth 4;#N coll t_modules 1;#P newobj 271 196 84 196617 coll t_modules 1;#B color 5;#P number 106 610 35 9 0 0 0 3 0 0 0 221 221 221 222 222 222 0 0 0;#P newex 162 589 21 196617 t 3;#P newex 287 477 65 196617 gate 3;#P newex 106 629 68 196617 gate 3;#P newex 106 586 48 196617 split 1 2;#P newex 438 660 315 196617 sprintf new %sspat bpatcher %ld %ld 257 187 0 0 t_%ss.edit /%s;#P newex 106 566 44 196617 zl nth 3;#N coll t_modules 1;#P newobj 106 545 84 196617 coll t_modules 1;#B color 5;#N comlet delete;#P inlet 111 121 15 0;#N comlet build;#P inlet 84 121 15 0;#P newex 256 544 18 196617 t i;#P message 485 71 93 196617 $2;#P number 335 286 35 9 0 0 0 3 0 0 0 221 221 221 222 222 222 0 0 0;#P number 335 250 35 9 0 0 0 3 0 0 0 221 221 221 222 222 222 0 0 0;#P newex 335 267 80 196617 expr $i1*62+1;#P newex 708 201 144 196617 sprintf set /tape/%s/deleted;#P newex 520 160 132 196617 sprintf set /tape/%s/built;#P message 633 296 33 196617 clean;#P newex 708 222 44 196617 receive;#B color 11;#P newex 520 180 44 196617 receive;#B color 11;#P message 708 247 45 196617 deleted.;#P message 603 247 54 196617 deleting...;#P message 520 247 33 196617 built.;#P message 418 247 53 196617 building...;#P newex 418 299 157 196617 print $1_editor;#P newex 418 23 48 196617 loadbang;#P message 356 71 93 196617 $1;#P newex 275 336 138 196617 sprintf send /tape/%s/built;#P newex 561 433 150 196617 sprintf send /tape/%s/deleted;#P newex 488 458 47 196617 forward;#B color 11;#P newex 116 95 133 196617 sprintf set /tape/%s/build;#P newex 183 118 139 196617 sprintf set /tape/%s/delete;#P newex 245 453 133 196617 sprintf store %s.%ldspat 0;#P newex 331 583 69 196617 route symbol;#P message 331 544 64 196617 symbol spat;#N coll t_config 1;#P newobj 331 562 75 196617 coll t_config 1;#B color 5;#P newex 106 660 310 196617 sprintf new %sspat bpatcher %ld %ld 257 125 0 0 t_%s.edit /%s;#P newex 192 422 27 196617 - 1;#P button 114 216 15 0;#P button 70 239 15 0;#P newex 70 259 127 196617 t b b;#P newex 192 462 27 196617 + 2;#P newex 192 442 38 196617 * 258;#P newex 70 508 269 196617 sprintf new %s bpatcher %ld 2 257 %ld 0 0 %s.edit /%s;#P newex 70 442 113 196617 sprintf %s.%ld;#P newex 70 350 79 196617 uzi;#P newex 70 398 36 196617 zl reg;#P newex 96 325 69 196617 route symbol;#P message 70 281 99 196617 symbol $1;#N coll t_config 1;#P newobj 70 299 75 196617 coll t_config 1;#B color 5;#P newex 216 340 50 196617 deferlow;#P newex 488 436 50 196617 deferlow;#P button 184 176 15 0;#P message 437 423 33 196617 clear;#P newex 243 423 114 196617 sprintf store %s.%ld 0;#P newex 216 362 47 196617 forward;#B color 11;#P newex 137 118 44 196617 receive;#B color 11;#P newex 70 95 44 196617 receive;#B color 11;#P button 137 148 15 0;#P comment 155 148 39 196617 delete;#P button 70 148 15 0;#P comment 88 148 31 196617 build;#P newex 137 214 38 196617 del 10;#P newex 137 175 45 196617 onebang;#P newex 70 175 54 196617 onebang 1;#P newex 70 216 38 196617 del 10;#P newex 420 480 69 196617 route symbol;#N coll ;#P newobj 402 457 64 196617 coll;#B color 5;#P message 402 423 33 196617 dump;#P newex 420 506 75 196617 prepend delete;#P newex 70 696 73 196617 prepend script;#P outlet 70 721 15 0;#P window linecount 2;#P comment 422 95 188 196617 arg 1 : mod name \; arg 2 : unit size of module (i.e. 1 \, 2 \, 3);#P connect 76 0 78 0;#P connect 78 0 77 0;#P connect 23 0 75 0;#P connect 27 0 76 0;#P connect 42 0 15 0;#P connect 15 0 12 0;#P connect 63 0 12 0;#P connect 12 0 8 0;#P connect 8 0 7 0;#P connect 7 0 33 0;#P connect 33 0 32 0;#P connect 32 0 24 0;#P connect 24 0 23 0;#P fasten 77 0 27 0 18 460 8 460 8 345 75 345;#P connect 79 0 27 0;#P connect 75 0 27 0;#P connect 76 1 26 0;#P connect 26 0 28 0;#P fasten 28 0 29 0 75 477 75 477;#P connect 29 0 2 0;#P connect 67 0 2 0;#P connect 36 0 2 0;#P fasten 3 0 2 0 425 539 75 539;#P connect 55 0 1 0;#P connect 2 0 1 0;#P connect 23 1 25 0;#P connect 25 0 26 1;#P connect 24 0 65 0;#P connect 65 0 66 0;#P connect 66 0 68 0;#P connect 71 0 72 0;#P connect 68 0 72 0;#P connect 72 0 69 0;#P connect 69 0 36 0;#P connect 9 0 8 1;#P connect 8 1 34 0;#P fasten 46 0 42 0 361 90 121 90;#P connect 31 0 29 1;#P connect 41 0 16 0;#P connect 16 0 14 0;#P connect 64 0 14 0;#P connect 14 0 9 0;#P connect 9 0 10 0;#P connect 27 2 79 0;#P connect 68 1 71 0;#P connect 28 0 69 1;#P connect 8 0 9 1;#P connect 27 2 28 1;#P connect 31 0 36 1;#P fasten 46 0 41 0 361 115 188 115;#P connect 9 1 20 0;#P connect 27 2 35 0;#P connect 35 0 30 0;#P connect 30 0 31 0;#P connect 60 0 29 2;#P connect 27 1 22 0;#P connect 34 0 22 0;#P fasten 45 0 17 0 280 359 221 359;#P connect 22 0 17 0;#P connect 14 0 81 0;#P connect 12 0 81 0;#P connect 26 0 18 0;#P connect 26 0 40 0;#P connect 60 0 62 0;#P connect 62 0 36 2;#P connect 74 0 29 3;#P connect 24 0 73 0;#P connect 73 0 74 0;#P connect 46 0 45 0;#P connect 72 0 70 0;#P fasten 28 0 29 4 75 502 331 502;#P connect 32 1 38 0;#P connect 38 0 37 0;#P connect 37 0 39 0;#P connect 39 0 36 3;#P connect 61 0 59 0;#P connect 59 0 58 0;#P connect 58 0 60 0;#P connect 40 0 70 1;#P connect 27 2 18 1;#P connect 80 0 46 0;#P connect 27 2 40 1;#P connect 10 0 4 0;#P fasten 18 0 5 0 248 448 407 448;#P connect 19 0 5 0;#P connect 4 0 5 0;#P connect 70 1 5 0;#P connect 70 0 5 0;#P connect 69 0 36 4;#P fasten 81 0 80 0 230 192 256 192 256 43 423 43;#P lcolor 5;#P connect 47 0 80 0;#P connect 8 0 49 0;#P connect 5 1 6 0;#P connect 6 0 3 0;#P connect 32 1 19 0;#P connect 69 1 67 0;#P connect 80 0 61 0;#P connect 20 0 21 0;#P connect 5 3 21 0;#P fasten 44 0 43 0 566 455 493 455;#P connect 21 0 43 0;#P connect 31 0 67 1;#P connect 46 0 56 0;#P connect 56 0 53 0;#P connect 53 0 50 0;#P connect 46 0 44 0;#P connect 62 0 67 2;#P connect 9 0 51 0;#P connect 54 0 55 0;#P connect 53 0 55 0;#P connect 39 0 67 3;#P connect 46 0 57 0;#P connect 57 0 54 0;#P connect 54 0 52 0;#P connect 69 1 67 4;#P pop;