max v2;#N vpatcher 296 72 1238 798;#P window setfont "Sans Serif" 9.;#P window linecount 1;#P newex 157 324 42 196617 t pause;#P newex 16 384 50 196617 deferlow;#P newex 16 405 50 196617 t resume;#P newex 55 350 30 196617 t b b;#P newex 250 454 138 196617 sprintf store %s.%ldsimul 0;#P newex 433 592 347 196617 sprintf new %ssimul bpatcher %ld 186 257 311 0 0 t_src.edit /%s/simul;#N comlet delete;#P inlet 116 97 15 0;#N comlet build;#P inlet 89 97 15 0;#P newex 265 552 18 196617 t i;#P message 490 47 93 196617 $2;#P number 340 262 35 9 0 0 0 3 0 0 0 221 221 221 222 222 222 0 0 0;#P number 340 226 35 9 0 0 0 3 0 0 0 221 221 221 222 222 222 0 0 0;#P newex 340 243 80 196617 expr $i1*62+1;#P newex 713 177 144 196617 sprintf set /tape/%s/deleted;#P newex 525 136 132 196617 sprintf set /tape/%s/built;#P message 638 272 33 196617 clean;#P newex 713 198 44 196617 receive;#B color 11;#P newex 525 156 44 196617 receive;#B color 11;#P message 713 223 45 196617 deleted.;#P message 608 223 54 196617 deleting...;#P message 525 223 33 196617 built.;#P message 423 223 53 196617 building...;#P newex 423 275 157 196617 print $1_editors;#P newex 422 23 48 196617 loadbang;#P message 361 47 93 196617 $1;#P newex 302 312 138 196617 sprintf send /tape/%s/built;#P newex 566 409 150 196617 sprintf send /tape/%s/deleted;#P newex 493 434 47 196617 forward;#B color 11;#P newex 121 71 133 196617 sprintf set /tape/%s/build;#P newex 188 94 139 196617 sprintf set /tape/%s/delete;#P newex 250 429 133 196617 sprintf store %s.%ldspat 0;#P newex 303 562 69 196617 route symbol;#P message 303 523 64 196617 symbol spat;#N coll t_config 1;#P newobj 303 541 75 196617 coll t_config 1;#B color 5;#P newex 111 592 310 196617 sprintf new %sspat bpatcher %ld %ld 257 125 0 0 t_%s.edit /%s;#P newex 197 398 27 196617 - 1;#P button 119 192 15 0;#P button 75 215 15 0;#P newex 75 235 127 196617 t b b;#P newex 197 438 27 196617 + 2;#P newex 197 418 38 196617 * 258;#P newex 75 484 279 196617 sprintf new %s bpatcher %ld 2 257 %ld 0 0 t_%s.edit /%s;#P newex 75 418 113 196617 sprintf %s.%ld;#P newex 75 326 79 196617 uzi;#P newex 75 371 36 196617 zl reg;#P newex 101 301 69 196617 route symbol;#P message 75 257 99 196617 symbol $1;#N coll t_config 1;#P newobj 75 275 75 196617 coll t_config 1;#B color 5;#P newex 243 316 50 196617 deferlow;#P newex 493 412 50 196617 deferlow;#P button 189 150 15 0;#P message 442 399 33 196617 clear;#P newex 248 399 114 196617 sprintf store %s.%ld 0;#P newex 243 338 47 196617 forward;#B color 11;#P newex 142 94 44 196617 receive;#B color 11;#P newex 75 71 44 196617 receive;#B color 11;#P button 142 124 15 0;#P comment 160 124 39 196617 delete;#P button 75 124 15 0;#P comment 93 124 31 196617 build;#P newex 142 190 38 196617 del 10;#P newex 142 149 45 196617 onebang;#P newex 75 149 54 196617 onebang 1;#P newex 75 192 38 196617 del 10;#P newex 425 456 69 196617 route symbol;#N coll ;#P newobj 407 433 64 196617 coll;#B color 5;#P message 407 399 33 196617 dump;#P newex 425 482 75 196617 prepend delete;#P newex 75 644 73 196617 prepend script;#P outlet 75 669 15 0;#P window linecount 2;#P comment 427 71 188 196617 arg 1 : mod name \; arg 2 : unit size of module (i.e. 1 \, 2 \, 3);#P connect 67 0 69 0;#P connect 69 0 68 0;#P connect 27 0 67 0;#P connect 42 0 15 0;#P connect 15 0 12 0;#P connect 63 0 12 0;#P connect 12 0 8 0;#P connect 8 0 7 0;#P connect 7 0 33 0;#P connect 33 0 32 0;#P connect 32 0 24 0;#P connect 24 0 23 0;#P connect 23 0 27 0;#P connect 70 0 27 0;#P fasten 68 0 27 0 21 430 8 430 8 321 80 321;#P connect 67 1 26 0;#P connect 26 0 28 0;#P fasten 28 0 29 0 80 453 80 453;#P fasten 3 0 2 0 430 515 80 515;#P connect 36 0 2 0;#P connect 65 0 2 0;#P connect 29 0 2 0;#P connect 55 0 1 0;#P connect 2 0 1 0;#P connect 23 1 25 0;#P connect 25 0 26 1;#P connect 28 0 36 0;#P connect 9 0 8 1;#P connect 8 1 34 0;#P fasten 46 0 42 0 366 66 126 66;#P connect 41 0 16 0;#P connect 16 0 14 0;#P connect 64 0 14 0;#P connect 14 0 9 0;#P connect 9 0 10 0;#P connect 31 0 29 1;#P connect 27 2 70 0;#P connect 8 0 9 1;#P connect 27 2 28 1;#P connect 31 0 36 1;#P fasten 46 0 41 0 366 91 193 91;#P connect 9 1 20 0;#P connect 27 2 35 0;#P connect 35 0 30 0;#P connect 30 0 31 0;#P connect 60 0 29 2;#P connect 34 0 22 0;#P connect 27 1 22 0;#P fasten 45 0 17 0 307 335 248 335;#P connect 22 0 17 0;#P connect 26 0 18 0;#P connect 26 0 40 0;#P connect 26 0 66 0;#P connect 62 0 36 2;#P connect 60 0 62 0;#P connect 46 0 29 3;#P connect 46 0 45 0;#P connect 32 1 38 0;#P connect 38 0 37 0;#P connect 37 0 39 0;#P connect 39 0 36 3;#P connect 61 0 59 0;#P connect 59 0 58 0;#P connect 58 0 60 0;#P fasten 28 0 29 4 80 480 348 480;#P connect 27 2 18 1;#P connect 47 0 46 0;#P connect 27 2 40 1;#P connect 27 2 66 1;#P connect 10 0 4 0;#P fasten 66 0 5 0 255 474 400 474 400 429 412 429;#P fasten 18 0 5 0 253 424 412 424;#P connect 19 0 5 0;#P connect 4 0 5 0;#P fasten 40 0 5 0 255 450 400 450 400 429 412 429;#P connect 28 0 36 4;#P connect 8 0 49 0;#P connect 5 1 6 0;#P connect 6 0 3 0;#P connect 28 0 65 0;#P connect 32 1 19 0;#P connect 47 0 61 0;#P connect 20 0 21 0;#P connect 5 3 21 0;#P connect 21 0 43 0;#P fasten 44 0 43 0 571 431 498 431;#P connect 46 0 56 0;#P connect 56 0 53 0;#P connect 53 0 50 0;#P connect 46 0 44 0;#P connect 31 0 65 1;#P connect 9 0 51 0;#P connect 54 0 55 0;#P connect 53 0 55 0;#P connect 46 0 57 0;#P connect 57 0 54 0;#P connect 54 0 52 0;#P connect 28 0 65 2;#P pop;