max v2;#N vpatcher 527 80 1377 821;#P window setfont "Sans Serif" 9.;#P window linecount 1;#P newex 232 348 27 196617 + 1;#P newex 165 574 18 196617 t i;#P number 390 161 35 9 0 0 0 3 0 0 0 221 221 221 222 222 222 0 0 0;#P number 390 125 35 9 0 0 0 3 0 0 0 221 221 221 222 222 222 0 0 0;#P newex 390 142 80 196617 expr $i1*62+1;#P newex 39 484 287 196617 sprintf new %s bpatcher 2 %ld %ld %ld 0 0 t_%s.edit 0 /%s;#P number 392 338 35 9 0 0 0 3 0 0 0 221 221 221 222 222 222 0 0 0;#P number 392 302 35 9 0 0 0 3 0 0 0 221 221 221 222 222 222 0 0 0;#P newex 392 319 86 196617 expr $i1*256+1;#P message 584 47 93 196617 $3;#P number 75 586 35 9 0 0 0 3 0 0 0 221 221 221 222 222 222 0 0 0;#P newex 125 562 21 196617 t 3;#P newex 256 453 65 196617 gate 3;#P newex 75 605 65 196617 gate 3;#P newex 75 562 48 196617 split 1 2;#P newex 400 636 324 196617 sprintf new %sspat bpatcher %ld %ld 257 187 0 0 t_%ss.edit 0 /%s;#P newex 75 542 44 196617 zl nth 2;#N coll t_modules 1;#P newobj 75 521 84 196617 coll t_modules 1;#B color 5;#N comlet delete;#P inlet 80 97 15 0;#N comlet build;#P inlet 53 97 15 0;#P newex 226 572 18 196617 t i;#P message 454 47 93 196617 $2;#P newex 677 177 144 196617 sprintf set /tape/%s/deleted;#P newex 489 136 132 196617 sprintf set /tape/%s/built;#P message 602 272 33 196617 clean;#P newex 677 198 44 196617 receive;#B color 11;#P newex 489 156 44 196617 receive;#B color 11;#P message 677 223 45 196617 deleted.;#P message 572 223 54 196617 deleting...;#P message 489 223 33 196617 built.;#P message 387 223 53 196617 building...;#P newex 406 258 157 196617 print $1_editor;#P newex 386 23 48 196617 loadbang;#P message 325 47 93 196617 $1;#P newex 222 312 138 196617 sprintf send /tape/%s/built;#P newex 530 409 150 196617 sprintf send /tape/%s/deleted;#P newex 457 434 47 196617 forward;#B color 11;#P newex 85 71 133 196617 sprintf set /tape/%s/build;#P newex 152 94 139 196617 sprintf set /tape/%s/delete;#P newex 214 429 133 196617 sprintf store %s.%ldspat 0;#P newex 300 559 69 196617 route symbol;#P message 300 520 64 196617 symbol spat;#N coll t_config 1;#P newobj 300 538 75 196617 coll t_config 1;#B color 5;#P newex 75 636 319 196617 sprintf new %sspat bpatcher %ld %ld 257 125 0 0 t_%s.edit 0 /%s;#P newex 161 398 27 196617 - 1;#P button 83 192 15 0;#P button 39 215 15 0;#P newex 39 235 127 196617 t b b;#P newex 161 438 27 196617 + 2;#P newex 161 418 32 196617 * 62;#P newex 39 418 113 196617 sprintf %s.%ld;#P newex 39 326 79 196617 uzi;#P newex 39 355 36 196617 zl reg;#P newex 65 301 69 196617 route symbol;#P message 39 257 99 196617 symbol $1;#N coll t_config 1;#P newobj 39 275 75 196617 coll t_config 1;#B color 5;#P newex 163 316 44 196617 del 500;#P newex 457 412 44 196617 del 100;#P button 153 169 15 0;#P message 406 399 33 196617 clear;#P newex 212 399 114 196617 sprintf store %s.%ld 0;#P newex 163 338 47 196617 forward;#B color 11;#P newex 106 94 44 196617 receive;#B color 11;#P newex 39 71 44 196617 receive;#B color 11;#P button 106 124 15 0;#P comment 124 124 39 196617 delete;#P button 39 124 15 0;#P comment 57 124 31 196617 build;#P newex 106 146 50 196617 deferlow;#P newex 39 146 50 196617 deferlow;#P newex 106 190 38 196617 del 10;#P newex 106 168 45 196617 onebang;#P newex 39 168 54 196617 onebang 1;#P newex 39 192 38 196617 del 10;#P newex 389 456 69 196617 route symbol;#N coll ;#P newobj 371 433 64 196617 coll;#B color 5;#P message 371 399 33 196617 dump;#P newex 389 482 75 196617 prepend delete;#P newex 39 672 73 196617 prepend script;#P outlet 39 697 15 0;#P window linecount 3;#P comment 391 71 195 196617 arg 1 : mod name \; arg 2 : unit size of module (i.e. 1 \, 2 \, 3) \; arg 2 : unit length of module (i.e. 1 \, 2);#P connect 43 0 17 0;#P connect 61 0 14 0;#P connect 17 0 14 0;#P connect 14 0 11 0;#P connect 11 0 8 0;#P connect 8 0 7 0;#P connect 7 0 34 0;#P connect 34 0 33 0;#P connect 33 0 26 0;#P connect 26 0 25 0;#P connect 25 0 29 0;#P connect 29 0 28 0;#P connect 28 0 30 0;#P connect 30 0 75 0;#P connect 65 0 2 0;#P connect 37 0 2 0;#P fasten 3 0 2 0 394 515 44 515;#P connect 75 0 2 0;#P connect 2 0 1 0;#P connect 56 0 1 0;#P connect 25 1 27 0;#P connect 27 0 28 1;#P connect 26 0 63 0;#P connect 63 0 64 0;#P connect 64 0 66 0;#P connect 66 0 70 0;#P connect 69 0 70 0;#P connect 70 0 67 0;#P connect 67 0 37 0;#P connect 9 0 8 1;#P connect 8 1 35 0;#P fasten 47 0 43 0 330 66 90 66;#P connect 32 0 75 1;#P connect 42 0 18 0;#P connect 62 0 16 0;#P connect 18 0 16 0;#P connect 16 0 12 0;#P connect 12 0 9 0;#P connect 9 0 10 0;#P connect 66 1 69 0;#P connect 30 0 67 1;#P connect 8 0 9 1;#P connect 29 2 30 1;#P connect 74 0 75 2;#P fasten 47 0 42 0 330 91 157 91;#P connect 79 0 37 1;#P connect 9 1 22 0;#P connect 29 2 36 0;#P connect 36 0 31 0;#P connect 31 0 32 0;#P connect 29 1 24 0;#P connect 35 0 19 0;#P connect 24 0 19 0;#P fasten 46 0 19 0 227 335 168 335;#P connect 74 0 79 0;#P connect 80 0 31 1;#P connect 78 0 75 3;#P connect 28 0 20 0;#P connect 28 0 41 0;#P connect 47 0 46 0;#P connect 32 0 60 0;#P connect 60 0 37 2;#P connect 78 0 80 0;#P connect 70 0 68 0;#P connect 47 0 75 4;#P connect 33 1 39 0;#P connect 39 0 38 0;#P connect 38 0 40 0;#P connect 40 0 37 3;#P connect 41 0 68 1;#P connect 30 0 75 5;#P connect 29 2 20 1;#P connect 48 0 47 0;#P connect 29 2 41 1;#P connect 10 0 4 0;#P connect 68 0 5 0;#P connect 68 1 5 0;#P connect 4 0 5 0;#P connect 21 0 5 0;#P fasten 20 0 5 0 217 424 376 424;#P connect 67 0 37 4;#P connect 8 0 50 0;#P connect 5 1 6 0;#P connect 6 0 3 0;#P connect 59 0 77 0;#P connect 77 0 76 0;#P connect 76 0 78 0;#P connect 71 0 73 0;#P connect 73 0 72 0;#P connect 72 0 74 0;#P connect 67 1 65 0;#P connect 33 1 21 0;#P connect 48 0 59 0;#P connect 22 0 23 0;#P connect 5 3 23 0;#P fasten 45 0 44 0 535 431 462 431;#P connect 23 0 44 0;#P connect 79 0 65 1;#P connect 47 0 57 0;#P connect 57 0 54 0;#P connect 54 0 51 0;#P connect 47 0 45 0;#P connect 60 0 65 2;#P connect 9 0 52 0;#P connect 48 0 71 0;#P connect 55 0 56 0;#P connect 54 0 56 0;#P connect 40 0 65 3;#P connect 47 0 58 0;#P connect 58 0 55 0;#P connect 55 0 53 0;#P connect 67 1 65 4;#P pop;