max v2;#N vpatcher 247 458 796 728;#P hidden inlet 223 309 15 0;#P button 86 258 15 0;#P window setfont "Sans Serif" 9.;#P window linecount 1;#P comment 104 258 39 196617 delete;#P button 20 258 15 0;#P comment 37 258 31 196617 build;#P hidden newex 145 286 137 196617 editorwindow /freeze /tape;#B color 6;#N thispatcher;#Q end;#P hidden newobj 145 316 61 196617 thispatcher;#P window linecount 0;#P comment 2376 0 100 196617;#P window linecount 1;#P hidden newex 20 286 114 196617 t_edit-builder freeze 2;#B color 6;#P window linecount 0;#P comment 1 0 100 196617;#P hidden connect 6 0 1 0;#P hidden connect 8 0 1 1;#P hidden fasten 3 0 4 0 150 337 290 337 290 282 150 282;#P hidden connect 4 0 3 0;#P hidden fasten 1 0 3 0 25 311 150 311;#P pop;