max v2;#N vpatcher 40 55 378 519;#N comlet preset gate;#P inlet 178 33 15 0;#N comlet indicator;#P outlet 126 191 15 0;#P window setfont "Sans Serif" 9.;#P window linecount 1;#P newex 126 171 27 196617 - 1;#P newex 33 39 53 196617 dspstate~;#N comlet thru to next voice;#P outlet 148 146 15 0;#P message 94 85 14 196617 1;#P message 64 147 14 196617 2;#P newex 33 146 27 196617 t l b;#P number 33 101 35 9 0 0 0 3 0 0 0 221 221 221 222 222 222 0 0 0;#P newex 33 120 125 196617 gate 2;#P button 135 285 15 0;#N comlet [read from/to points] [time];#P inlet 148 33 15 0;#N comlet sig;#P outlet 33 290 15 0;#N comlet grain time thru;#P outlet 103 245 15 0;#P newex 33 221 45 196617 fswap 0.;#P newex 33 199 80 196617 unpack 0. 0. 0.;#P newex 33 244 61 196617 pack 0. 500;#P newex 33 267 30 196617 line~;#P connect 12 0 9 0;#P connect 11 0 9 0;#P connect 14 0 9 0;#P connect 9 0 8 0;#P connect 8 0 10 0;#P connect 10 0 2 0;#P connect 2 0 3 0;#P connect 3 0 1 0;#P connect 1 0 0 0;#P connect 3 1 0 0;#P connect 0 0 5 0;#P connect 10 1 11 0;#P connect 2 1 3 1;#P connect 2 2 1 1;#P connect 17 0 12 0;#P connect 7 0 12 0;#P connect 2 2 4 0;#P connect 9 0 15 0;#P connect 15 0 16 0;#P connect 0 1 7 0;#P connect 6 0 8 1;#P connect 8 1 13 0;#P pop;