max v2;#N vpatcher 284 44 750 462;#P window setfont "Sans Serif" 9.;#P message 272 112 78 196617 clear \, append -;#P newex 272 90 142 196617 r $1-menusclear;#P newex 108 111 78 196617 prepend append;#P newex 108 90 149 196617 r $1-menusappend;#P window setfont Times 9.;#P comment 119 45 37 1310729 xfade 1.;#B frgb 0 0 255;#P comment 119 17 37 1310729 xfade 0.;#B frgb 0 0 255;#P comment 21 31 88 1310729 $1-b;#P window setfont "Sans Serif" 9.;#P newex 30 192 121 196617 substitute set setsymbol;#P newex 30 172 156 196617 param $1-a $1 s;#P newex 30 146 48 196617 pvar a 2;#P newex 30 272 121 196617 substitute set setsymbol;#P user ubumenu 21 43 100 196617 0 1 1 0;#X add -;#X prefix_set 0 0 <none> 0;#P objectname b;#P user ubumenu 21 15 100 196617 0 1 1 0;#X add -;#X prefix_set 0 0 <none> 0;#P objectname a;#P window setfont Times 9.;#P comment 21 3 88 1310729 $1-a;#P window setfont "Sans Serif" 9.;#P newex 30 252 156 196617 param $1-b $1 s;#P newex 30 226 48 196617 pvar b 2;#P window linecount 2;#P comment 276 43 124 196617 arg 1 : module name \; arg 2 : show "more" 1/0;#P window linecount 1;#P comment 276 26 100 196617 panel = 256 X 62;#P window setfont Times 9.;#P comment 122 30 30 1310729 xfade;#P flonum 149 30 30 9 0. 1. 3 20 0 0 0 221 221 221 222 222 222 0 0 0;#P objectname xfade;#P window setfont "Sans Serif" 9.;#N thispatcher;#Q end;#P newobj 0 75 61 196617 thispatcher;#P newex 30 338 176 196617 param $1-xfade $1 f 0 1 1;#P newex 30 319 59 196617 pvar xfade;#P comment 276 9 118 196617 <- name = "background";#P bpatcher 0 0 256 62 0 0 ct_vbackground.mxt 0 $1;#P objectname background;#P hidden connect 0 0 4 0;#P connect 22 0 15 0;#P fasten 17 0 15 0 35 214 24 214 24 143 35 143;#P connect 24 0 15 0;#P connect 15 1 16 0;#P connect 16 0 17 0;#P connect 24 0 9 0;#P connect 22 0 9 0;#P fasten 14 0 9 0 35 294 24 294 24 223 35 223;#P connect 9 1 10 0;#P connect 10 0 14 0;#P fasten 3 0 2 0 35 357 27 357 27 317 35 317;#P connect 2 0 3 0;#P connect 21 0 22 0;#P connect 23 0 24 0;#P pop;