max v2;#N vpatcher 186 44 1270 775;#P origin 0 -4;#P window setfont "Sans Serif" 9.;#P flonum 912 435 35 9 0 0 0 3 0 0 0 221 221 221 222 222 222 0 0 0;#P window linecount 1;#P newex 470 194 40 196617 change;#P newex 391 194 40 196617 change;#P newex 670 529 78 196617 pack 0. 0. 0. 0.;#P newex 670 507 59 196617 bondo 4 40;#P newex 313 413 40 196617 change;#P button 289 452 15 0;#P newex 912 477 98 196617 prepend $1_bottom;#P newex 926 456 68 196617 s $1_bottom;#B color 11;#P newex 770 477 89 196617 prepend $1_right;#P newex 786 456 59 196617 s $1_right;#B color 11;#P newex 639 477 81 196617 prepend $1_top;#P newex 653 456 51 196617 s $1_top;#B color 11;#P newex 507 477 83 196617 prepend $1_left;#P newex 521 456 53 196617 s $1_left;#B color 11;#P flonum 770 435 35 9 0 0 0 3 0 0 0 221 221 221 222 222 222 0 0 0;#P flonum 639 435 35 9 0 0 0 3 0 0 0 221 221 221 222 222 222 0 0 0;#P flonum 507 435 35 9 0 0 0 3 0 0 0 221 221 221 222 222 222 0 0 0;#P newex 431 434 53 196617 bondo 2 1;#P newex 360 434 53 196617 bondo 2 1;#P newex 360 396 64 196617 linefog 0 40;#B color 5;#P newex 360 367 63 196617 pack 0. 500;#P newex 431 396 64 196617 linefog 0 40;#B color 5;#P newex 431 367 63 196617 pack 0. 500;#P newex 502 396 64 196617 linefog 0 40;#B color 5;#P newex 502 367 63 196617 pack 0. 500;#P newex 573 396 64 196617 linefog 0 40;#B color 5;#P newex 573 367 63 196617 pack 0. 500;#P number 731 234 49 9 0 0 0 3 0 0 0 221 221 221 222 222 222 0 0 0;#P number 731 286 43 9 0 0 0 3 0 0 0 221 221 221 222 222 222 0 0 0;#P newex 731 266 75 196617 r $1-speedlim;#B color 11;#P newex 731 211 88 196617 r $1-smoothtime;#B color 11;#P newex 573 346 52 196617 change 0.;#P flonum 573 327 35 9 0 0 0 3 0 0 0 221 221 221 222 222 222 0 0 0;#P newex 502 346 52 196617 change 0.;#P flonum 502 327 35 9 0 0 0 3 0 0 0 221 221 221 222 222 222 0 0 0;#P newex 431 346 52 196617 change 0.;#P flonum 431 327 35 9 0 0 0 3 0 0 0 221 221 221 222 222 222 0 0 0;#P newex 360 346 52 196617 change 0.;#P flonum 360 327 35 9 0 0 0 3 0 0 0 221 221 221 222 222 222 0 0 0;#P newex 431 306 27 196617 / 1.;#P newex 502 306 27 196617 / 1.;#P newex 479 587 95 196617 prepend $1_deltay;#P newex 82 637 101 196617 prepend $1_surface;#P newex 200 587 95 196617 prepend $1_deltax;#P newex 685 683 79 196617 s fromCAMTRK;#B color 13;#P window linecount 2;#P comment 580 227 107 196617 patch by Tom Mays contact@tommays.net;#P flonum 82 595 35 9 0 0 0 3 0 0 0 221 221 221 222 222 222 0 0 0;#P window linecount 1;#P message 774 365 17 196617 0.;#P newex 774 344 32 196617 del 1;#P newex 774 324 80 196617 r $1-init;#B color 11;#P newex 54 482 97 196617 s $1-out;#B color 13;#P newex 28 114 38 196617 v.gate;#P newex 493 566 65 196617 s $1_deltay;#B color 11;#P outlet 28 482 15 0;#P newex 214 566 65 196617 s $1_deltax;#B color 11;#P newex 96 616 71 196617 s $1_surface;#B color 11;#P newex 82 572 29 196617 * 1.;#P newex 313 484 21 196617 t 0;#P newex 313 434 32 196617 sel 0;#P toggle 241 311 15 0;#P newex 241 291 27 196617 &&;#P newex 241 370 29 196617 gate;#P newex 391 238 27 196617 - 1;#P newex 360 263 17 196617 t l;#P newex 360 283 225 196617 unpack 0 0 0 0;#P newex 94 322 112 196617 pack 0 0 0 0;#P newex 82 551 53 196617 bondo 2 1;#P newex 169 167 78 196617 r $1-tolerance;#B color 11;#P newex 470 238 27 196617 - 1;#P flonum 479 523 35 9 0 0 0 3 0 0 0 221 221 221 222 222 222 0 0 0;#P newex 573 306 27 196617 / 1.;#P newex 431 484 30 196617 !- 0.;#P flonum 200 523 35 9 0 0 0 3 0 0 0 221 221 221 222 222 222 0 0 0;#P newex 360 306 27 196617 / 1.;#P newex 360 484 30 196617 !- 0.;#P number 470 216 39 9 0 0 0 3 0 0 0 221 221 221 222 222 222 0 0 0;#P number 391 216 39 9 0 0 0 3 0 0 0 221 221 221 222 222 222 0 0 0;#P newex 378 161 170 196617 v.info;#P flonum 169 190 35 9 0. 0.5 3 3 0 0 0 221 221 221 222 222 222 0 0 0;#P number 270 192 35 9 0 0 0 3 0 0 0 221 221 221 222 222 222 0 0 0;#N vpatcher 74 297 611 650;#P origin -41 -6;#P button 72 110 15 0;#P window setfont "Sans Serif" 9.;#P newex 86 133 27 196617 i;#N comlet y dim;#P inlet 380 37 15 0;#N comlet x dim;#P inlet 348 35 15 0;#P window linecount 1;#P message 427 142 67 196617 pen_size 2 2;#P inlet 103 30 15 0;#P window linecount 0;#P newex 103 49 126 196617 unpack 0. 0. 0. 0.;#P window linecount 1;#P newex 238 113 34 196617 + 0.5;#P newex 193 113 34 196617 + 0.5;#P newex 148 113 34 196617 + 0.5;#P newex 103 113 34 196617 + 0.5;#P newex 238 93 41 196617 * 240.;#P newex 193 93 41 196617 * 320.;#P flonum 217 70 35 9 0 0 0 3 0 0 0 221 221 221 222 222 222 0 0 0;#P flonum 179 70 35 9 0 0 0 3 0 0 0 221 221 221 222 222 222 0 0 0;#P flonum 141 70 35 9 0 0 0 3 0 0 0 221 221 221 222 222 222 0 0 0;#P flonum 103 70 35 9 0 0 0 3 0 0 0 221 221 221 222 222 222 0 0 0;#P newex 148 93 41 196617 * 240.;#P window linecount 0;#P newex 103 93 41 196617 * 320.;#P newex 285 139 60 196617 delay 1000;#P message 249 177 34 196617 erase;#P message 285 233 90 196617 back_colour 0 0 0;#P inlet 12 30 15 0;#P message 346 177 64 196617 sync_size 1;#P newex 103 154 40 196617 t b i b;#P outlet 109 302 15 0;#P newex 346 99 45 196617 loadbang;#P message 357 142 67 196617 pen_size 5 5;#P message 379 233 125 196617 fore_colour 255 255 255;#P newex 109 178 118 196617 pack frame rect 0 0 0 0;#P newex 109 280 71 196617 v.draw grays;#P connect 8 0 30 0;#P connect 30 0 29 0;#P connect 25 0 24 0;#P connect 24 0 14 0;#P connect 14 0 12 0;#P connect 12 0 20 0;#P connect 20 0 29 1;#P connect 29 0 6 0;#P connect 6 0 1 0;#P connect 10 0 0 0;#P connect 8 0 0 0;#P connect 7 0 0 0;#P connect 3 0 0 0;#P connect 9 0 0 0;#P connect 2 0 0 0;#P connect 1 0 0 0;#P connect 0 0 5 0;#P connect 27 0 12 1;#P connect 24 1 15 0;#P connect 15 0 13 0;#P connect 13 0 21 0;#P connect 6 1 1 2;#P connect 21 0 1 3;#P connect 24 2 16 0;#P connect 28 0 13 1;#P connect 16 0 18 0;#P connect 18 0 22 0;#P connect 22 0 1 4;#P connect 23 0 1 5;#P connect 24 3 17 0;#P connect 27 0 18 1;#P connect 17 0 19 0;#P connect 19 0 23 0;#P connect 11 0 10 0;#P connect 6 2 10 0;#P connect 28 0 19 1;#P connect 4 0 11 0;#P connect 11 0 9 0;#P connect 4 0 7 0;#P connect 4 0 3 0;#P connect 11 0 2 0;#P pop;#P newobj 28 437 71 196617 p drawbounds;#B color 6;#P comment 301 256 43 196617 center v;#P comment 114 249 20 196617 top;#P number 268 256 29 9 0 0 0 3 0 0 0 221 221 221 222 222 222 0 0 0;#P number 228 238 30 9 0 0 0 3 0 0 0 221 221 221 222 222 222 0 0 0;#P number 188 297 32 9 0 0 0 3 0 0 0 221 221 221 222 222 222 0 0 0;#P number 148 280 32 9 0 0 0 3 0 0 0 221 221 221 222 222 222 0 0 0;#P number 108 263 32 9 0 0 0 3 0 0 0 221 221 221 222 222 222 0 0 0;#P number 68 246 32 9 0 0 0 3 0 0 0 221 221 221 222 222 222 0 0 0;#P newex 68 212 212 196617 v.bounds;#B color 5;#P comment 73 231 28 196617 left;#P comment 155 266 28 196617 right;#P comment 191 284 43 196617 bottom;#P comment 276 239 43 196617 center h;#P newex 76 29 97 196617 r $1-in;#B color 13;#P inlet 56 30 15 0;#P window setfont "Sans Serif" 24.;#P comment 570 141 136 196632 v.bounds;#P toggle 208 49 15 0;#P window setfont "Sans Serif" 9.;#P newex 208 68 31 196617 == 0;#P newex 208 29 120 196617 r $1-sw;#B color 11;#P message 208 88 55 196617 bypass \$1;#P toggle 545 69 15 0;#P newex 545 29 67 196617 loadmess $2;#P newex 545 49 31 196617 == 0;#P newex 545 88 38 196617 gate 1;#P newex 545 108 80 196617 s $1-init;#B color 11;#P newex 573 68 70 196617 r camtrk-init;#B color 11;#P window setfont Times 9.;#P window linecount 2;#P comment 569 185 136 1310729 arg 1 : prefix name \; arg 2 : disable global init (1/0);#P window setfont "Sans Serif" 9.;#P window linecount 1;#P newex 359 37 80 196617 r $1-init;#B color 11;#P window linecount 5;#P message 359 63 174 196617 \; $1-sw 0 \; $1-tolerance 0.1 \; $1-smoothtime 500 \; $1-speedlim 40 \;;#P connect 12 0 58 0;#P connect 58 0 29 0;#P connect 29 0 56 0;#P connect 107 0 29 1;#P connect 29 0 59 0;#P connect 14 0 58 1;#P connect 15 0 58 1;#P connect 58 0 20 0;#P connect 9 0 20 0;#P connect 20 0 21 0;#P connect 33 0 29 2;#P connect 37 0 43 0;#P connect 43 0 53 0;#P connect 53 0 63 0;#P connect 63 0 67 0;#P connect 34 0 29 3;#P connect 21 0 44 0;#P connect 63 0 54 0;#P connect 43 1 53 1;#P connect 20 1 22 0;#P connect 40 0 43 1;#P connect 22 0 44 1;#P connect 20 2 23 0;#P connect 23 0 44 2;#P connect 42 0 31 0;#P connect 31 0 20 1;#P connect 20 3 24 0;#P connect 24 0 44 3;#P connect 52 0 37 0;#P connect 35 0 37 0;#P connect 37 0 66 0;#P connect 10 0 12 0;#P connect 12 0 11 0;#P connect 11 0 9 0;#P connect 37 0 55 0;#P connect 20 4 25 0;#P connect 25 0 49 0;#P connect 49 0 50 0;#P connect 50 0 48 0;#P connect 26 0 49 1;#P connect 44 0 48 1;#P connect 20 5 26 0;#P connect 30 0 20 2;#P connect 51 0 104 0;#P connect 50 0 105 0;#P connect 105 0 51 0;#P connect 51 0 52 0;#P connect 1 0 0 0;#P connect 48 0 46 0;#P connect 46 0 45 0;#P connect 45 0 36 0;#P connect 36 0 71 0;#P connect 71 0 72 0;#P connect 72 0 89 0;#P connect 62 0 90 0;#P lcolor 7;#P connect 89 0 90 0;#P connect 90 0 91 0;#P connect 91 0 35 0;#P connect 47 0 36 1;#P connect 58 0 32 0;#P connect 91 1 35 1;#P connect 32 1 108 0;#P connect 108 0 33 0;#P connect 33 0 47 0;#P connect 86 0 91 1;#P connect 82 0 89 1;#P lcolor 1;#P connect 81 0 90 2;#P lcolor 5;#P connect 45 1 70 0;#P connect 70 0 73 0;#P connect 73 0 74 0;#P connect 74 0 87 0;#P connect 62 0 88 0;#P lcolor 7;#P connect 87 0 88 0;#P connect 88 0 92 0;#P connect 92 0 38 0;#P connect 41 0 70 1;#P connect 92 1 38 1;#P connect 32 2 109 0;#P connect 109 0 34 0;#P connect 34 0 41 0;#P connect 84 0 92 1;#P connect 38 0 40 0;#P connect 52 0 40 0;#P connect 40 0 68 0;#P connect 82 0 87 1;#P lcolor 1;#P connect 81 0 88 2;#P lcolor 5;#P connect 40 0 57 0;#P connect 45 2 69 0;#P connect 69 0 75 0;#P connect 75 0 76 0;#P connect 76 0 85 0;#P connect 62 0 86 0;#P lcolor 7;#P connect 85 0 86 0;#P connect 90 0 93 0;#P connect 93 0 97 0;#P connect 47 0 69 1;#P connect 93 0 96 0;#P connect 7 0 6 0;#P connect 6 0 8 0;#P connect 8 0 5 0;#P connect 5 0 4 0;#P connect 82 0 85 1;#P lcolor 1;#P connect 81 0 86 2;#P lcolor 5;#P connect 3 0 5 1;#P connect 45 3 39 0;#P connect 39 0 77 0;#P connect 77 0 78 0;#P connect 78 0 83 0;#P connect 83 0 84 0;#P connect 62 0 84 0;#P lcolor 7;#P connect 41 0 39 1;#P connect 82 0 83 1;#P lcolor 1;#P connect 81 0 84 2;#P lcolor 5;#P connect 88 0 94 0;#P connect 94 0 99 0;#P connect 94 0 98 0;#P connect 93 0 106 0;#P connect 106 0 107 0;#P fasten 66 0 65 0 205 668 690 668;#P fasten 67 0 65 0 87 668 690 668;#P fasten 68 0 65 0 484 668 690 668;#P connect 97 0 65 0;#P connect 99 0 65 0;#P connect 101 0 65 0;#P connect 103 0 65 0;#P connect 94 0 106 1;#P connect 106 1 107 1;#P connect 95 0 106 2;#P connect 106 2 107 2;#P connect 110 0 106 3;#P connect 79 0 82 0;#P connect 80 0 81 0;#P connect 106 3 107 3;#P connect 86 0 95 0;#P connect 95 0 101 0;#P connect 60 0 61 0;#P connect 61 0 62 0;#P connect 95 0 100 0;#P connect 84 0 110 0;#P connect 110 0 103 0;#P connect 110 0 102 0;#P pop;