max v2;#N vpatcher 225 44 657 526;#P window setfont Times 9.;#P comment 42 2 29 1310729 scale;#P comment 86 19 47 1310729 pix offset;#P window setfont "Sans Serif" 9.;#P newex 198 154 27 196617 t f f;#P newex 228 231 37 196617 f;#P newex 228 178 37 196617 f;#P window setfont Times 9.;#P newex 32 112 48 1310729 pvar scale;#P newex 32 133 176 1310729 param $1-scale $1 f 0 1000 1;#B color 12;#P comment 132 34 47 1310729 zoom rate;#P flonum 139 45 30 9 0. 1. 35 20 0 0 0 221 221 221 222 222 222 0 0 0;#P objectname zoomrate;#P comment 85 45 13 1310729 y;#P comment 85 30 13 1310729 x;#P flonum 97 45 30 9 -999. 999. 35 20 0 0 0 221 221 221 222 222 222 0 0 0;#P objectname pixoffsety;#P flonum 97 30 30 9 -999. 999. 35 20 0 0 0 221 221 221 222 222 222 0 0 0;#P objectname pixoffsetx;#P flonum 49 45 30 9 0. 1000. 35 20 0 0 0 221 221 221 222 222 222 0 0 0;#P objectname scaley;#P comment 37 45 13 1310729 y;#P flonum 49 30 30 9 0. 1000. 35 20 0 0 0 221 221 221 222 222 222 0 0 0;#P objectname scalex;#P comment 37 30 13 1310729 x;#P flonum 43 15 30 9 0. 1000. 35 20 0 0 0 221 221 221 222 222 222 0 0 0;#P objectname scale;#P newex 75 390 64 1310729 pvar zoomrate;#P newex 75 410 121 1310729 param $1-zoomrate $1 f 0 1 0;#B color 12;#P newex 75 337 69 1310729 pvar pixoffsety;#P newex 75 358 149 1310729 param $1-pixoffsety $1 f -999 999 1;#B color 12;#P newex 75 284 69 1310729 pvar pixoffsetx;#P newex 75 304 149 1310729 param $1-pixoffsetx $1 f -999 999 1;#B color 12;#P comment 22 15 23 1310729 x+y;#P newex 75 231 53 1310729 pvar scaley;#P newex 75 175 53 1310729 pvar scalex;#P newex 75 251 163 1310729 param $1-scaley $1 f 0 1000 1;#B color 12;#P newex 75 199 163 1310729 param $1-scalex $1 f 0 1000 1;#B color 12;#P window setfont "Sans Serif" 9.;#P window linecount 2;#P comment 276 43 124 196617 arg 1 : module name \; arg 2 : show "more" 1/0;#P window linecount 1;#P comment 276 26 100 196617 panel = 256 X 62;#N thispatcher;#Q end;#P newobj 0 75 61 196617 thispatcher;#P comment 276 9 118 196617 <- name = "background";#P bpatcher 0 0 256 62 0 0 ct_vbackground.mxt 0 $1;#P objectname background;#P hidden connect 0 0 2 0;#P fasten 27 0 28 0 37 154 25 154 25 108 37 108;#P connect 28 0 27 0;#P connect 27 0 7 0;#P fasten 5 0 7 0 80 221 69 221 69 170 80 170;#P connect 7 0 5 0;#P fasten 6 0 8 0 80 271 71 271 71 227 80 227;#P connect 27 0 8 0;#P lcolor 7;#P connect 8 0 6 0;#P fasten 10 0 11 0 80 328 71 328 71 278 80 278;#P connect 11 0 10 0;#P fasten 12 0 13 0 80 380 70 380 70 332 80 332;#P connect 13 0 12 0;#P fasten 14 0 15 0 80 430 70 430 70 386 80 386;#P connect 15 0 14 0;#P connect 27 1 31 0;#P connect 31 1 29 0;#P connect 29 0 5 1;#P connect 31 0 30 0;#P connect 30 0 6 1;#P pop;