max v2;#N vpatcher 79 136 684 699;#P origin 0 -4;#P window setfont "Sans Serif" 9.;#P window linecount 1;#P newex 249 451 55 196617 changelist;#B color 6;#P newex 249 498 87 196617 prepend $1_listn;#P newex 249 519 79 196617 s fromCAMTRK;#B color 13;#P window linecount 2;#P comment 457 457 107 196617 patch by Tom Mays contact@tommays.net;#P window linecount 1;#P newex 345 400 131 196617 r $1-scalerdiv;#B color 11;#P number 359 429 61 9 0 0 0 3 0 0 0 221 221 221 222 222 222 0 0 0;#P newex 262 477 114 196617 s $1_listn;#B color 11;#P number 182 381 43 9 0 0 0 3 0 0 0 221 221 221 222 222 222 0 0 0;#P newex 182 361 131 196617 r $1-speedlim;#B color 11;#P newex 128 401 64 196617 speedlim 40;#P newex 249 428 106 196617 listscalerdiv 100000;#B color 6;#P newex 149 229 53 196617 pack;#P number 269 189 35 9 0 0 0 3 0 0 0 221 221 221 222 222 222 0 0 0;#P newex 269 169 105 196617 r $1-gridy;#B color 11;#P comment 294 154 43 196617 y;#P number 149 189 35 9 0 0 0 3 0 0 0 221 221 221 222 222 222 0 0 0;#P newex 149 209 53 196617 bondo 1 1;#P newex 157 276 80 196617 r $1;#B color 11;#P newex 56 461 97 196617 s $1-out;#B color 13;#P newex 128 428 114 196617 s $1_list;#B color 11;#N comlet region centers (list) (x \, y);#P outlet 158 364 15 0;#N comlet sorted list (region # \, value);#P outlet 127 364 15 0;#N comlet motion list;#P outlet 96 409 15 0;#N comlet total motion (int);#P outlet 65 409 15 0;#N comlet vns ORIGINAL stream in;#P inlet 62 276 15 0;#P newex 311 269 73 196617 prepend sense;#P newex 311 221 136 196617 r $1-sensitivity;#B color 11;#P number 311 242 35 9 0 256 3 3 0 0 0 221 221 221 222 222 222 0 0 0;#P window linecount 2;#P comment 366 242 172 196617 region sensitivity (255 = unity gain) (affects outputs and region display);#P comment 437 296 128 196617 region display gain (does not affect motion outputs);#P flonum 397 298 35 9 0. 0 1 3 0 0 0 221 221 221 222 222 222 0 0 0;#P window linecount 1;#P newex 397 278 137 196617 r $1-displaygain;#B color 11;#P newex 149 250 66 196617 prepend grid;#P newex 149 169 105 196617 r $1-gridx;#B color 11;#P newex 34 331 135 196617 v.regions;#P toggle 71 135 15 0;#P newex 71 153 31 196617 == 0;#P newex 71 115 97 196617 r $1-sw;#B color 11;#P message 71 173 55 196617 bypass \$1;#P window setfont "Sans Serif" 24.;#P comment 410 134 114 196632 v.regions;#N comlet vns stream out;#P outlet 34 463 15 0;#P window setfont "Sans Serif" 9.;#P comment 174 154 43 196617 x;#P button 207 31 15 0;#P newex 53 20 97 196617 r $1-in;#B color 13;#P toggle 409 64 15 0;#P newex 409 20 67 196617 loadmess $2;#P newex 409 44 31 196617 == 0;#P newex 409 83 38 196617 gate 1;#P newex 409 103 80 196617 s $1-init;#B color 11;#P newex 437 63 70 196617 r camtrk-init;#B color 11;#P window setfont Times 9.;#P window linecount 2;#P comment 410 170 136 1310729 arg 1 : prefix name \; arg 2 : disable global init (1/0);#P window setfont "Sans Serif" 9.;#P window linecount 1;#P newex 207 11 80 196617 r $1-init;#B color 11;#P window linecount 8;#P message 207 51 155 196617 \; $1-sw 0 \; $1-gridx 2 \; $1-gridy 2 \; $1-sensitivity 255 \; $1-displaygain 16. \; $1-speedlim 100 \; $1-scalerdiv 100000;#N comlet vns stream in;#P inlet 34 20 15 0;#P fasten 15 0 19 0 76 231 39 231;#P connect 21 0 19 0;#P connect 28 0 19 0;#P connect 36 0 19 0;#P fasten 10 0 19 0 58 56 39 56;#P connect 0 0 19 0;#P connect 19 0 13 0;#P fasten 19 0 35 0 39 446 61 446;#P connect 19 1 30 0;#P connect 16 0 18 0;#P connect 18 0 17 0;#P connect 17 0 15 0;#P connect 29 0 19 1;#P connect 19 2 31 0;#P connect 19 3 32 0;#P connect 19 2 44 0;#P connect 44 0 34 0;#P connect 20 0 38 0;#P connect 38 0 37 0;#P connect 37 0 42 0;#P connect 42 0 21 0;#P connect 23 0 19 2;#P connect 19 4 33 0;#P connect 45 0 46 0;#P connect 46 0 44 1;#P fasten 41 0 37 1 274 207 197 207;#P connect 37 1 42 1;#P connect 2 0 11 0;#P connect 11 0 1 0;#P fasten 44 0 43 0 133 423 254 423;#P connect 43 0 53 0;#P connect 53 0 52 0;#P connect 52 0 51 0;#P connect 53 0 47 0;#P connect 40 0 41 0;#P connect 27 0 26 0;#P connect 26 0 28 0;#P connect 49 0 43 1;#P connect 48 0 43 1;#P connect 43 1 48 0;#P connect 22 0 23 0;#P connect 8 0 7 0;#P connect 7 0 9 0;#P connect 9 0 6 0;#P connect 6 0 5 0;#P connect 4 0 6 1;#P pop;