max v2;#N vpatcher 340 160 895 488;#P origin 0 -4;#P window setfont "Sans Serif" 9.;#P window linecount 2;#P comment 402 264 107 196617 patch by Tom Mays contact@tommays.net;#P window linecount 1;#P newex 54 266 97 196617 s $1-out;#B color 13;#P newex 53 21 97 196617 r $1-in;#B color 13;#P toggle 419 118 15 0;#P newex 419 78 67 196617 loadmess $2;#P newex 419 98 31 196617 == 0;#P newex 419 137 38 196617 gate 1;#P newex 419 157 80 196617 s $1-init;#B color 11;#P newex 447 117 70 196617 r camtrk-init;#B color 11;#P window setfont Times 9.;#P window linecount 2;#P comment 322 200 136 1310729 arg 1 : prefix name \; arg 2 : disable global init (1/0);#P window setfont "Sans Serif" 9.;#P window linecount 1;#P newex 81 180 64 196617 linefog 0 40;#B color 5;#P newex 81 159 115 196617 r $1-contrast;#B color 11;#P newex 264 86 80 196617 r $1-init;#B color 11;#P window linecount 3;#P message 264 113 142 196617 \; $1-sw 0 \; $1-contrast 1.;#P toggle 140 66 15 0;#P window linecount 1;#P newex 140 84 31 196617 == 0;#P newex 140 46 97 196617 r $1-sw;#B color 11;#P message 140 104 55 196617 bypass \$1;#P newex 34 236 57 196617 v.contrast;#P window setfont "Sans Serif" 24.;#P comment 229 244 126 196632 v.contrast;#N comlet vns stream out;#P outlet 34 267 15 0;#N comlet vns stream in;#P inlet 34 23 15 0;#P connect 0 0 3 0;#P fasten 19 0 3 0 58 52 39 52;#P fasten 4 0 3 0 145 127 39 127;#P connect 3 0 1 0;#P connect 3 0 20 0;#P connect 10 0 11 0;#P connect 11 0 3 1;#P connect 5 0 7 0;#P connect 7 0 6 0;#P connect 6 0 4 0;#P connect 9 0 8 0;#P connect 17 0 16 0;#P connect 16 0 18 0;#P connect 18 0 15 0;#P connect 15 0 14 0;#P connect 13 0 15 1;#P pop;