max v2;#N vpatcher 85 44 853 561;#P origin 0 -4;#P window setfont "Sans Serif" 9.;#P newex 55 464 97 196617 s $1-out;#B color 13;#P window linecount 4;#P comment 328 381 142 196617 You can define a zoom rate. (default is instant zoom) Rate is the fraction of a full zoom per frame. (0 -> 1);#P flonum 282 381 35 9 0. 1. 3 3 0 0 0 221 221 221 222 222 222 0 0 0;#P window linecount 1;#P message 282 399 42 196617 rate \$1;#P newex 282 361 120 196617 r $1-zoomrate;#B color 11;#P message 361 324 90 196617 vertical_scale \$1;#P message 251 324 95 196617 horizontal_scale \$1;#P message 182 324 39 196617 set \$1;#P newex 361 285 64 196617 linefog 1 40;#B color 5;#P flonum 361 305 35 9 0. 0 1 3 0 0 0 221 221 221 222 222 222 0 0 0;#P newex 361 264 107 196617 r $1-scaley;#B color 11;#P newex 251 285 64 196617 linefog 1 40;#B color 5;#P flonum 251 305 35 9 0. 0 1 3 0 0 0 221 221 221 222 222 222 0 0 0;#P newex 251 264 107 196617 r $1-scalex;#B color 11;#P newex 141 285 64 196617 linefog 1 40;#B color 5;#P number 394 230 35 9 0 0 0 3 0 0 0 221 221 221 222 222 222 0 0 0;#P newex 610 285 64 196617 linefog 0 40;#B color 5;#P newex 476 285 64 196617 linefog 0 40;#B color 5;#P newex 394 211 49 196617 !/ 1000.;#P newex 610 264 125 196617 r $1-pixoffsety;#B color 11;#P flonum 394 195 35 9 0 0 0 3 0 0 0 221 221 221 222 222 222 0 0 0;#P newex 476 264 125 196617 r $1-pixoffsetx;#B color 11;#P flonum 610 305 35 9 0 0 0 3 0 0 0 221 221 221 222 222 222 0 0 0;#P newex 292 211 40 196617 change;#P number 292 194 35 9 0 0 0 3 0 0 0 221 221 221 222 222 222 0 0 0;#P flonum 610 344 55 9 0 0 0 3 0 0 0 221 221 221 222 222 222 0 0 0;#P window linecount 2;#P comment 610 362 67 196617 vertical center (float);#P window linecount 1;#N vpatcher 20 74 285 304;#N comlet size;#P inlet 146 73 15 0;#N comlet pixel shift;#P inlet 41 68 15 0;#P window setfont "Sans Serif" 9.;#P flonum 41 88 35 9 0 0 0 3 0 0 0 221 221 221 222 222 222 0 0 0;#P newex 146 94 29 196617 t b f;#P flonum 41 137 51 9 0 0 0 3 0 0 0 221 221 221 222 222 222 0 0 0;#P newex 41 117 134 196617 expr ($f2/2)+$f1;#P outlet 41 157 15 0;#P connect 5 0 4 0;#P connect 3 0 1 0;#P connect 4 0 1 0;#P connect 1 0 2 0;#P connect 2 0 0 0;#P connect 6 0 3 0;#P connect 3 1 1 1;#P pop;#P newobj 610 324 67 196617 p pixelshiftV;#B color 6;#P flonum 476 305 35 9 0 0 0 3 0 0 0 221 221 221 222 222 222 0 0 0;#P newex 249 211 40 196617 change;#P number 249 194 35 9 0 0 0 3 0 0 0 221 221 221 222 222 222 0 0 0;#P newex 236 170 308 196617 v.info;#P flonum 476 344 55 9 0 0 0 3 0 0 0 221 221 221 222 222 222 0 0 0;#P window linecount 2;#P comment 476 362 67 196617 horizontal center (float);#P window linecount 1;#N vpatcher 20 74 285 304;#N comlet size;#P inlet 146 73 15 0;#N comlet pixel shift;#P inlet 41 68 15 0;#P window setfont "Sans Serif" 9.;#P flonum 41 88 35 9 0 0 0 3 0 0 0 221 221 221 222 222 222 0 0 0;#P newex 146 94 29 196617 t b f;#P flonum 41 137 51 9 0 0 0 3 0 0 0 221 221 221 222 222 222 0 0 0;#P newex 41 117 134 196617 expr ($f2/2)+$f1*-1;#P outlet 41 157 15 0;#P connect 5 0 4 0;#P connect 3 0 1 0;#P connect 4 0 1 0;#P connect 1 0 2 0;#P connect 2 0 0 0;#P connect 6 0 3 0;#P connect 3 1 1 1;#P pop;#P newobj 476 324 67 196617 p pixelshiftH;#B color 6;#P flonum 141 305 35 9 0. 0 1 3 0 0 0 221 221 221 222 222 222 0 0 0;#P window linecount 3;#P comment 140 227 82 196617 pass along u and v unprocessed (yuv streams);#P window linecount 1;#P newex 141 264 101 196617 r $1-scale;#B color 11;#P newex 34 434 53 196617 v.zoom;#N comlet vns stream out;#P outlet 34 465 15 0;#P newex 53 21 97 196617 r $1-in;#B color 13;#P toggle 418 86 15 0;#P newex 418 46 67 196617 loadmess $2;#P newex 418 66 31 196617 == 0;#P newex 418 105 38 196617 gate 1;#P newex 418 125 80 196617 s $1-init;#B color 11;#P newex 446 85 70 196617 r camtrk-init;#B color 11;#P window setfont Times 9.;#P window linecount 2;#P comment 325 445 136 1310729 arg 1 : prefix name \; arg 2 : disable global init (1/0);#P window setfont "Sans Serif" 9.;#P window linecount 1;#P newex 249 46 80 196617 r $1-init;#B color 11;#P window linecount 6;#P message 249 73 149 196617 \; $1-sw 0 \; $1-zoomrate 1. \; $1-scale 1. \; $1-pixoffsetx 0. \; $1-pixoffsety 0. \;;#P toggle 140 66 15 0;#P window linecount 1;#P newex 140 84 31 196617 == 0;#P newex 140 46 97 196617 r $1-sw;#B color 11;#P message 140 104 55 196617 bypass \$1;#P window setfont "Sans Serif" 24.;#P comment 182 445 94 196632 v.zoom;#N comlet vns stream in;#P inlet 34 23 15 0;#P fasten 15 0 17 0 58 145 39 145;#P connect 50 0 17 0;#P connect 49 0 17 0;#P connect 52 0 17 0;#P connect 2 0 17 0;#P connect 0 0 17 0;#P connect 17 0 16 0;#P connect 20 0 17 1;#P connect 17 0 55 0;#P connect 23 0 17 2;#P connect 30 0 17 3;#P connect 3 0 5 0;#P connect 5 0 4 0;#P connect 4 0 2 0;#P connect 18 0 41 0;#P connect 41 0 20 0;#P connect 20 0 48 0;#P connect 40 0 41 2;#P lcolor 1;#P fasten 0 0 24 0 39 153 241 153;#P fasten 15 0 24 0 58 136 241 136;#P connect 7 0 6 0;#P connect 24 1 25 0;#P connect 25 0 26 0;#P connect 48 0 44 0;#P connect 42 0 44 0;#P connect 48 0 43 0;#P connect 44 0 43 0;#P connect 43 0 49 0;#P connect 51 0 53 0;#P connect 53 0 52 0;#P connect 24 2 31 0;#P connect 31 0 32 0;#P connect 48 0 47 0;#P connect 45 0 47 0;#P connect 48 0 46 0;#P connect 47 0 46 0;#P connect 46 0 50 0;#P connect 24 5 35 0;#P connect 35 0 37 0;#P connect 37 0 40 0;#P connect 13 0 12 0;#P connect 12 0 14 0;#P connect 14 0 11 0;#P connect 11 0 10 0;#P connect 9 0 11 1;#P connect 34 0 38 0;#P connect 38 0 27 0;#P connect 27 0 21 0;#P connect 21 0 23 0;#P connect 40 0 38 2;#P lcolor 1;#P connect 26 0 21 1;#P lcolor 3;#P connect 36 0 39 0;#P connect 39 0 33 0;#P connect 33 0 28 0;#P connect 28 0 30 0;#P connect 40 0 39 2;#P lcolor 1;#P connect 32 0 28 1;#P lcolor 3;#P pop;