max v2;#N vpatcher 30 44 610 747;#P origin 0 -4;#P window setfont "Sans Serif" 9.;#P window linecount 1;#P newex 356 616 124 196617 prepend $1_y;#P newex 230 616 124 196617 prepend $1_x;#P newex 282 649 79 196617 s fromCAMTRK;#B color 13;#P window linecount 2;#P comment 365 206 107 196617 patch by Tom Mays contact@tommays.net;#P window linecount 1;#P newex 26 277 36 196617 t stop;#P newex 26 256 32 196617 sel 0;#P window setfont Times 9.;#P newex 170 458 69 1310729 r $1_fromdispy;#B color 12;#P newex 116 439 69 1310729 r $1_fromdispx;#B color 12;#P newex 164 239 72 1310729 r $1_fromdispfy;#B color 12;#P newex 312 356 63 1310729 s $1_todispfy;#B color 12;#P newex 142 417 65 1310729 s $1_todispxy;#B color 12;#P newex 149 216 72 1310729 r $1_fromdispfx;#B color 12;#P newex 6 352 63 1310729 s $1_todispfx;#B color 12;#P window setfont "Sans Serif" 9.;#P newex 42 29 97 196617 r $1-in;#B color 13;#P newex 397 517 129 196617 s $1-speedlim;#B color 11;#P newex 397 497 151 196617 r $1-speedlimtime;#B color 11;#P newex 149 260 53 196617 bondo 2 1;#P message 6 309 39 196617 set \$1;#P message 312 337 39 196617 set \$1;#P newex 366 594 124 196617 s $1_y;#B color 11;#P newex 240 594 117 196617 s $1_x;#B color 11;#P newex 230 573 136 196617 unpack 0. 0.;#P number 261 526 43 9 0 0 0 3 0 0 0 221 221 221 222 222 222 0 0 0;#P newex 261 506 131 196617 r $1-speedlim;#B color 11;#P newex 68 546 203 196617 speedlim 40;#P newex 170 478 34 196617 / 48.;#P newex 116 478 34 196617 / 64.;#P newex 142 355 53 196617 bondo 2 1;#P newex 142 378 48 196617 pack 0 0;#P message 142 398 54 196617 set \$1 \$2;#P newex 94 594 134 196617 s $1_xy;#B color 11;#N comlet centroid xy [0. to 1.] [0. to 1.];#P outlet 68 594 15 0;#P newex 87 502 167 196617 pack 0. 0.;#P newex 185 335 35 196617 * 48.;#P newex 142 335 35 196617 * 64.;#P newex 292 258 40 196617 / 240.;#P number 274 145 35 9 0 0 0 3 0 0 0 221 221 221 222 222 222 0 0 0;#P newex 87 258 40 196617 / 320.;#P newex 292 287 51 196617 pack 0. 0;#P newex 292 309 67 196617 linefog 0. 40;#B color 5;#P newex 87 287 51 196617 pack 0. 0;#P newex 87 309 67 196617 linefog 0. 40;#B color 5;#P flonum 87 236 52 9 0 0 0 3 0 0 0 221 221 221 222 222 222 0 0 0;#P flonum 292 236 52 9 0 0 0 3 0 0 0 221 221 221 222 222 222 0 0 0;#P newex 122 166 27 196617 / 2;#P number 160 145 35 9 0 0 0 3 0 0 0 221 221 221 222 222 222 0 0 0;#P newex 147 120 170 196617 v.info;#P newex 22 213 75 196617 split 160. 160.;#P newex 268 213 34 196617 sel 0.;#P flonum 268 192 52 9 0 0 0 3 0 0 0 221 221 221 222 222 222 0 0 0;#P flonum 22 194 49 9 0 0 0 3 0 0 0 221 221 221 222 222 222 0 0 0;#P newex 22 174 76 196617 v.centroid;#B color 5;#P inlet 22 30 15 0;#P number 367 263 76 9 0 0 0 3 0 0 0 221 221 221 222 222 222 0 0 0;#P newex 367 242 134 196617 r $1-smoothtime;#B color 11;#P window setfont "Sans Serif" 24.;#P comment 354 133 136 196632 v.centroid;#P toggle 68 103 15 0;#P window setfont "Sans Serif" 9.;#P newex 80 125 31 196617 == 0;#P newex 68 83 120 196617 r $1-sw;#B color 11;#P message 80 145 55 196617 bypass \$1;#P toggle 405 63 15 0;#P newex 405 23 67 196617 loadmess $2;#P newex 405 43 31 196617 == 0;#P newex 405 82 38 196617 gate 1;#P newex 405 102 80 196617 s $1-init;#B color 11;#P newex 433 62 70 196617 r camtrk-init;#B color 11;#P window setfont Times 9.;#P window linecount 2;#P comment 353 177 136 1310729 arg 1 : prefix name \; arg 2 : disable global init (1/0);#P window setfont "Sans Serif" 9.;#P window linecount 1;#P newex 219 23 80 196617 r $1-init;#B color 11;#P window linecount 4;#P message 219 49 161 196617 \; $1-sw 0 \; $1-smoothtime 500 \; $1-speedlim 40 \;;#P connect 27 0 51 0;#P connect 42 0 51 0;#P connect 51 0 56 0;#P connect 55 0 17 0;#P connect 9 0 17 0;#P connect 16 0 17 0;#P connect 17 0 18 0;#P connect 18 0 21 0;#P connect 12 0 63 0;#P connect 63 0 64 0;#P connect 24 0 21 1;#P connect 10 0 12 0;#P connect 36 0 44 0;#P connect 44 0 37 0;#P connect 12 0 11 0;#P connect 11 0 9 0;#P connect 24 0 21 2;#P connect 21 1 26 0;#P connect 26 0 31 0;#P connect 31 0 28 0;#P connect 64 0 27 0;#P connect 28 0 27 0;#P connect 52 0 36 0;#P connect 27 0 36 0;#P connect 42 0 36 0;#P connect 44 0 38 0;#P connect 61 0 42 0;#P connect 23 0 31 1;#P connect 23 0 24 0;#P connect 15 0 28 1;#P connect 52 0 34 0;#P connect 27 0 34 0;#P connect 34 0 41 0;#P connect 41 0 40 0;#P connect 40 0 39 0;#P connect 39 0 58 0;#P connect 16 0 22 0;#P connect 55 0 22 0;#P connect 57 0 52 0;#P connect 22 1 23 0;#P connect 62 0 43 0;#P connect 41 1 40 1;#P connect 29 0 35 0;#P connect 52 1 35 0;#P connect 35 0 41 1;#P connect 60 0 52 1;#P connect 1 0 0 0;#P connect 44 0 47 0;#P connect 47 0 67 0;#P connect 47 0 48 0;#P connect 43 0 36 1;#P connect 29 0 36 1;#P connect 52 1 36 1;#P connect 45 0 46 0;#P connect 46 0 44 1;#P connect 17 1 19 0;#P connect 19 0 20 0;#P fasten 22 2 32 0 178 141 279 141;#P connect 67 0 66 0;#P connect 68 0 66 0;#P connect 20 1 25 0;#P connect 25 0 33 0;#P connect 33 0 30 0;#P connect 30 0 29 0;#P connect 64 0 29 0;#P connect 43 0 50 0;#P connect 29 0 50 0;#P connect 50 0 59 0;#P connect 32 0 33 1;#P connect 15 0 30 1;#P connect 47 1 68 0;#P connect 47 1 49 0;#P connect 14 0 15 0;#P connect 53 0 54 0;#P connect 7 0 6 0;#P connect 6 0 8 0;#P connect 8 0 5 0;#P connect 5 0 4 0;#P connect 3 0 5 1;#P pop;