max v2;#N vpatcher 467 243 1025 651;#P origin 0 -4;#P window setfont "Sans Serif" 9.;#P window linecount 1;#P newex 414 346 104 196617 s $1-height;#B color 11;#P newex 319 366 102 196617 s $1-width;#B color 11;#P newex 366 295 20 196617 t b;#P newex 366 275 135 196617 r $1-outputsizexy;#B color 11;#P newex 414 324 27 196617 i;#P newex 319 324 27 196617 i;#P number 414 255 35 9 0 0 0 3 0 0 0 221 221 221 222 222 222 0 0 0;#P number 319 255 35 9 0 0 0 3 0 0 0 221 221 221 222 222 222 0 0 0;#P newex 414 234 56 196617 r ct-sizey;#B color 11;#P newex 319 234 56 196617 r ct-sizex;#B color 11;#P number 102 179 40 9 0 0 0 3 0 0 0 221 221 221 222 222 222 0 0 0;#P number 54 158 40 9 0 0 0 3 0 0 0 221 221 221 222 222 222 0 0 0;#P newex 54 266 97 196617 s $1-out;#B color 13;#P newex 53 21 97 196617 r $1-in;#B color 13;#P toggle 419 118 15 0;#P newex 419 78 67 196617 loadmess $2;#P newex 419 98 31 196617 == 0;#P newex 419 137 38 196617 gate 1;#P newex 419 157 80 196617 s $1-init;#B color 11;#P newex 447 117 70 196617 r camtrk-init;#B color 11;#P window setfont Times 9.;#P window linecount 2;#P comment 262 195 136 1310729 arg 1 : prefix name \; arg 2 : disable global init (1/0);#P window setfont "Sans Serif" 9.;#P window linecount 1;#P newex 102 158 115 196617 r $1-height;#B color 11;#P newex 54 136 115 196617 r $1-width;#B color 11;#P newex 264 86 80 196617 r $1-init;#B color 11;#P window linecount 3;#P message 264 112 145 196617 \; $1-sw 0 \; $1-outputsizexy bang;#P toggle 140 66 15 0;#P window linecount 1;#P newex 140 84 31 196617 == 0;#P newex 140 46 97 196617 r $1-sw;#B color 11;#P message 140 104 55 196617 bypass \$1;#P newex 34 236 90 196617 v.resize;#P window setfont "Sans Serif" 24.;#P comment 188 240 97 196632 v.resize;#N comlet vns stream out;#P outlet 34 267 15 0;#N comlet vns stream in;#P inlet 34 23 15 0;#P connect 0 0 3 0;#P fasten 19 0 3 0 58 56 39 56;#P fasten 4 0 3 0 145 127 39 127;#P connect 3 0 1 0;#P connect 10 0 21 0;#P connect 21 0 3 1;#P connect 3 0 20 0;#P connect 22 0 3 2;#P connect 11 0 22 0;#P connect 5 0 7 0;#P connect 7 0 6 0;#P connect 6 0 4 0;#P connect 9 0 8 0;#P connect 23 0 25 0;#P connect 30 0 27 0;#P connect 25 0 27 0;#P connect 27 0 31 0;#P connect 29 0 30 0;#P connect 24 0 26 0;#P connect 30 0 28 0;#P connect 26 0 28 0;#P connect 28 0 32 0;#P connect 17 0 16 0;#P connect 16 0 18 0;#P connect 18 0 15 0;#P connect 15 0 14 0;#P connect 13 0 15 1;#P pop;