max v2;#N vpatcher 519 44 1101 479;#P window setfont "Sans Serif" 9.;#P window linecount 2;#P comment 406 376 107 196617 patch by Tom Mays contact@tommays.net;#P window linecount 1;#P newex 417 49 31 196617 s $1;#B color 11;#P newex 417 29 53 196617 t settings;#P newex 417 9 70 196617 pvar settings;#P window setfont Times 9.;#P message 45 0 41 1310729 settings;#B color 13;#P objectname settings;#P window setfont "Sans Serif" 9.;#P newex 320 79 50 196617 r $1-out;#B color 13;#P newex 404 138 48 196617 pvar fps;#P newex 363 157 56 196617 pvar dimy;#P newex 320 138 56 196617 pvar dimx;#P window setfont Times 9.;#P comment 99 112 20 1310729 fps;#P comment 59 112 13 1310729 y;#P comment 21 112 13 1310729 x;#P flonum 116 112 29 9 0. 60. 8355 20 0 0 0 221 221 221 222 222 222 0 0 0;#P objectname fps;#P number 70 112 27 9 0 0 8352 20 0 0 0 221 221 221 222 222 222 0 0 0;#P objectname dimy;#P number 30 112 27 9 0 0 8352 20 0 0 0 221 221 221 222 222 222 0 0 0;#P objectname dimx;#P window setfont "Sans Serif" 9.;#P comment 409 124 22 196617 fps;#P comment 363 124 35 196617 dim y;#P newex 320 100 189 196617 v.info;#P comment 320 124 35 196617 dim x;#P window setfont Times 9.;#P comment 78 37 30 1310729 mode;#P comment 21 37 41 1310729 standard;#P comment 78 12 49 1310729 resolution;#P comment 21 12 35 1310729 format;#P user ubumenu 78 47 66 1310729 0 1 1 0;#X add vdig;#X add seq_grabber;#X prefix_set 0 0 <none> 0;#P objectname mode;#P user ubumenu 21 47 46 1310729 0 1 1 0;#X add ntsc;#X add pal;#X add secam;#X prefix_set 0 0 <none> 0;#P objectname standard;#P user ubumenu 78 22 62 1310729 0 1 1 0;#X add hi_res;#X add normal_res;#X add half_res;#X add quarter_res;#X prefix_set 0 0 <none> 0;#P objectname resolution;#P user ubumenu 21 22 43 1310729 0 1 1 0;#X add grays;#X add yuv;#X add rgb;#X prefix_set 0 0 <none> 0;#P objectname format;#P toggle 239 107 13 0;#P objectname latency_priority;#P comment 169 107 73 1310729 latency_priority;#P toggle 239 93 13 0;#P objectname process_in_interrupt;#P comment 153 93 90 1310729 process_in_interrupt;#P toggle 239 79 13 0;#P objectname capture_in_interrupt;#P comment 155 79 88 1310729 capture_in_interrupt;#P window setfont "Sans Serif" 9.;#P newex 345 345 157 196617 param $1-latency_priority $1 t;#P newex 345 326 109 196617 pvar latency_priority;#P newex 345 301 178 196617 param $1-process_in_interrupt $1 t;#P newex 345 282 130 196617 pvar process_in_interrupt;#P newex 345 257 177 196617 param $1-capture_in_interrupt $1 t;#P newex 345 238 129 196617 pvar capture_in_interrupt;#P newex 345 213 171 196617 param $1-use_standard_sizes $1 t;#P newex 345 194 123 196617 pvar use_standard_sizes;#P newex 22 346 106 196617 param $1-mode $1 s;#P newex 22 324 66 196617 pvar mode 2;#P newex 22 300 122 196617 param $1-standard $1 s;#P newex 22 278 82 196617 pvar standard 2;#P newex 22 254 128 196617 param $1-resolution $1 s;#P newex 22 232 88 196617 pvar resolution 2;#P window setfont Times 9.;#P comment 78 88 48 1310729 sharpness;#P comment 78 73 48 1310729 saturation;#P comment 31 95 21 1310729 hue;#P comment 14 80 41 1310729 contrast;#P number 122 88 27 9 0 255 3 20 0 0 0 221 221 221 222 222 222 0 0 0;#P objectname sharpness;#P number 122 73 27 9 0 255 3 20 0 0 0 221 221 221 222 222 222 0 0 0;#P objectname saturation;#P number 49 95 27 9 0 255 3 20 0 0 0 221 221 221 222 222 222 0 0 0;#P objectname hue;#P number 49 80 27 9 0 255 3 20 0 0 0 221 221 221 222 222 222 0 0 0;#P objectname contrast;#P window setfont "Sans Serif" 9.;#P newex 167 358 156 196617 param $1-sharpness $1 i 0 255;#P newex 167 339 79 196617 pvar sharpness;#P newex 167 315 157 196617 param $1-saturation $1 i 0 255;#P newex 167 296 80 196617 pvar saturation;#P newex 167 272 126 196617 param $1-hue $1 i 0 255;#P newex 167 253 49 196617 pvar hue;#P newex 167 229 149 196617 param $1-contrast $1 i 0 255;#P newex 167 210 72 196617 pvar contrast;#P newex 167 186 158 196617 param $1-brightness $1 i 0 255;#P newex 167 167 81 196617 pvar brightness;#P window setfont Times 9.;#P number 49 65 27 9 0 255 3 20 0 0 0 221 221 221 222 222 222 0 0 0;#P objectname brightness;#P window setfont "Sans Serif" 9.;#P newex 22 208 114 196617 param $1-format $1 s;#P newex 22 186 74 196617 pvar format 2;#P toggle 239 65 13 0;#P objectname use_standard_sizes;#P window setfont Times 9.;#P comment 160 65 82 1310729 use_standard_sizes;#P window setfont "Sans Serif" 9.;#P window linecount 2;#P comment 276 43 124 196617 arg 1 : module name \; arg 2 : show "more" 1/0;#P window linecount 1;#P comment 276 26 100 196617 panel = 256 X 62;#N thispatcher;#Q end;#P newobj 0 143 61 196617 thispatcher;#P comment 276 9 118 196617 <- name = "background";#P window setfont Times 9.;#P comment 4 65 51 1310729 brightness;#P bpatcher 0 0 256 124 0 0 ct_vbackground2.mxt 0 $1;#P objectname background;#P hidden connect 0 0 3 0;#P fasten 9 0 8 0 27 227 19 227 19 184 27 184;#P connect 8 1 9 0;#P fasten 30 0 29 0 27 273 19 273 19 230 27 230;#P connect 29 1 30 0;#P fasten 32 0 31 0 27 319 19 319 19 276 27 276;#P connect 31 1 32 0;#P fasten 34 0 33 0 27 365 19 365 19 322 27 322;#P connect 33 1 34 0;#P fasten 12 0 11 0 172 205 164 205 164 165 172 165;#P connect 11 0 12 0;#P fasten 14 0 13 0 172 248 164 248 164 208 172 208;#P connect 13 0 14 0;#P fasten 16 0 15 0 172 291 164 291 164 251 172 251;#P connect 15 0 16 0;#P fasten 18 0 17 0 172 334 164 334 164 294 172 294;#P connect 17 0 18 0;#P fasten 20 0 19 0 172 377 164 377 164 337 172 337;#P connect 19 0 20 0;#P connect 70 0 58 0;#P connect 58 1 67 0;#P fasten 36 0 35 0 350 232 342 232 342 192 350 192;#P connect 35 0 36 0;#P fasten 38 0 37 0 350 276 342 276 342 236 350 236;#P connect 37 0 38 0;#P fasten 40 0 39 0 350 320 342 320 342 280 350 280;#P connect 39 0 40 0;#P fasten 42 0 41 0 350 364 342 364 342 324 350 324;#P connect 41 0 42 0;#P connect 58 2 68 0;#P connect 58 5 69 0;#P connect 72 0 73 0;#P connect 73 0 74 0;#P pop;