max v2;#N vpatcher 393 44 1220 791;#P origin 0 -4;#P window setfont "Sans Serif" 9.;#P newex 645 398 109 196617 s $1-outputsizey;#B color 11;#P newex 550 420 109 196617 s $1-outputsizex;#B color 11;#P newex 597 347 20 196617 t b;#P newex 597 327 115 196617 r $1-outputsizexy;#B color 11;#P newex 645 376 27 196617 i;#P newex 550 376 27 196617 i;#P number 645 307 35 9 0 0 0 3 0 0 0 221 221 221 222 222 222 0 0 0;#P number 550 307 35 9 0 0 0 3 0 0 0 221 221 221 222 222 222 0 0 0;#P newex 645 286 56 196617 r ct-sizey;#B color 11;#P newex 550 286 56 196617 r ct-sizex;#B color 11;#P window linecount 4;#P comment 420 184 154 196617 turn on and off alpha processing. With alpha processing off \, the incoming alpha channel is not affected by the v.rotate.;#P window linecount 1;#P message 361 330 92 196617 output_size \$1 \$2;#P newex 404 271 88 196617 r $1-outputsizey;#B color 11;#P number 404 293 35 9 0 0 0 3 0 0 0 221 221 221 222 222 222 0 0 0;#P newex 361 309 27 196617 pak;#P newex 361 251 88 196617 r $1-outputsizex;#B color 11;#P number 361 273 35 9 0 0 0 3 0 0 0 221 221 221 222 222 222 0 0 0;#P newex 309 184 107 196617 r $1-processalpha;#B color 11;#P toggle 309 205 15 0;#P message 309 223 89 196617 process_alpha \$1;#P comment 326 206 82 196617 anti_alias edges;#P newex 454 558 64 196617 linefog 1 40;#B color 5;#P flonum 454 578 35 9 0 0 0 3 0 0 0 221 221 221 222 222 222 0 0 0;#P newex 454 537 98 196617 r $1-prevertoffset;#B color 11;#P newex 412 516 64 196617 linefog 1 40;#B color 5;#P flonum 412 536 35 9 0 0 0 3 0 0 0 221 221 221 222 222 222 0 0 0;#P newex 412 495 101 196617 r $1-prehorizoffset;#B color 11;#P newex 370 472 64 196617 linefog 1 40;#B color 5;#P flonum 370 492 35 9 0 0 0 3 0 0 0 221 221 221 222 222 222 0 0 0;#P newex 370 451 94 196617 r $1-prevertscale;#B color 11;#P newex 328 430 64 196617 linefog 1 40;#B color 5;#P flonum 328 450 35 9 0 0 0 3 0 0 0 221 221 221 222 222 222 0 0 0;#P newex 328 409 97 196617 r $1-prehorizscale;#B color 11;#P newex 286 388 64 196617 linefog 1 40;#B color 5;#P flonum 286 408 35 9 0 0 0 3 0 0 0 221 221 221 222 222 222 0 0 0;#P newex 286 367 107 196617 r $1-prevertrotation;#B color 11;#P newex 244 343 64 196617 linefog 1 40;#B color 5;#P flonum 244 363 35 9 0 0 0 3 0 0 0 221 221 221 222 222 222 0 0 0;#P newex 244 322 110 196617 r $1-prehorizrotation;#B color 11;#P newex 202 300 64 196617 linefog 1 40;#B color 5;#P flonum 202 320 35 9 0 0 0 3 0 0 0 221 221 221 222 222 222 0 0 0;#P newex 202 279 72 196617 r $1-rotation;#B color 11;#P newex 160 258 64 196617 linefog 1 40;#B color 5;#P flonum 160 278 35 9 0 0 0 3 0 0 0 221 221 221 222 222 222 0 0 0;#P newex 160 237 102 196617 r $1-postvertoffset;#B color 11;#P newex 118 216 64 196617 linefog 1 40;#B color 5;#P flonum 118 236 35 9 0 0 0 3 0 0 0 221 221 221 222 222 222 0 0 0;#P newex 118 195 105 196617 r $1-posthorizoffset;#B color 11;#P newex 279 123 107 196617 r $1-antialias;#B color 11;#P toggle 279 144 15 0;#P message 279 162 51 196617 frame \$1;#P comment 333 163 100 196617 anti_alias edges;#P newex 55 675 97 196617 s $1-out;#B color 13;#P newex 76 173 64 196617 linefog 1 40;#B color 5;#P flonum 76 193 35 9 0 0 0 3 0 0 0 221 221 221 222 222 222 0 0 0;#P newex 76 152 78 196617 r $1-postscale;#B color 11;#P newex 34 645 439 196617 v.rotate;#N comlet vns stream out;#P outlet 34 676 15 0;#P newex 53 21 97 196617 r $1-in;#B color 13;#P toggle 484 80 15 0;#P newex 484 40 67 196617 loadmess $2;#P newex 484 60 31 196617 == 0;#P newex 484 99 38 196617 gate 1;#P newex 484 119 80 196617 s $1-init;#B color 11;#P newex 512 79 70 196617 r camtrk-init;#B color 11;#P window setfont Times 9.;#P window linecount 2;#P comment 318 670 136 1310729 arg 1 : prefix name \; arg 2 : disable global init (1/0);#P window setfont "Sans Serif" 9.;#P window linecount 1;#P newex 602 36 80 196617 r $1-init;#B color 11;#P window linecount 15;#P message 602 63 168 196617 \; $1-sw 0 \; $1-postscale 1. \; $1-posthorizoffset 0. \; $1-postvertoffset 0. \; $1-rotation 0. \; $1-prehorizrotation 0. \; $1-prevertrotation 0. \; $1-prehorizscale 1. \; $1-prevertscale 1. \; $1-prehorizoffset 0. \; $1-prevertoffset 0. \; $1-antialias 0 \; $1-processalpha 0 \; $1-outputsizexy bang;#P toggle 140 66 15 0;#P window linecount 1;#P newex 140 84 31 196617 == 0;#P newex 140 46 97 196617 r $1-sw;#B color 11;#P message 140 104 55 196617 bypass \$1;#P window setfont "Sans Serif" 24.;#P comment 175 670 100 196632 v.rotate;#N comlet vns stream in;#P inlet 34 23 15 0;#P connect 0 0 17 0;#P fasten 15 0 17 0 58 49 39 49;#P connect 62 0 17 0;#P connect 54 0 17 0;#P connect 2 0 17 0;#P connect 23 0 17 0;#P connect 17 0 16 0;#P connect 17 0 21 0;#P connect 18 0 20 0;#P connect 20 0 19 0;#P connect 19 0 17 1;#P connect 26 0 28 0;#P connect 28 0 27 0;#P connect 27 0 17 2;#P connect 3 0 5 0;#P connect 5 0 4 0;#P connect 4 0 2 0;#P connect 29 0 31 0;#P connect 31 0 30 0;#P connect 30 0 17 3;#P connect 32 0 34 0;#P connect 34 0 33 0;#P connect 33 0 17 4;#P connect 35 0 37 0;#P connect 37 0 36 0;#P connect 36 0 17 5;#P connect 25 0 24 0;#P connect 24 0 23 0;#P connect 38 0 40 0;#P connect 40 0 39 0;#P connect 39 0 17 6;#P connect 56 0 55 0;#P connect 55 0 54 0;#P connect 41 0 43 0;#P connect 43 0 42 0;#P connect 42 0 17 7;#P connect 58 0 57 0;#P connect 57 0 59 0;#P connect 59 0 62 0;#P connect 44 0 46 0;#P connect 46 0 45 0;#P connect 45 0 17 8;#P connect 60 0 59 1;#P connect 61 0 60 0;#P connect 47 0 49 0;#P connect 49 0 48 0;#P connect 48 0 17 9;#P connect 50 0 52 0;#P connect 52 0 51 0;#P connect 51 0 17 10;#P connect 13 0 12 0;#P connect 12 0 14 0;#P connect 14 0 11 0;#P connect 11 0 10 0;#P connect 9 0 11 1;#P connect 64 0 66 0;#P connect 71 0 68 0;#P connect 66 0 68 0;#P connect 68 0 72 0;#P connect 70 0 71 0;#P connect 7 0 6 0;#P connect 65 0 67 0;#P connect 71 0 69 0;#P connect 67 0 69 0;#P connect 69 0 73 0;#P pop;