max v2;#N vpatcher 593 247 1039 503;#P window setfont Times 9.;#P comment 30 37 32 1310729 offset;#P flonum 63 37 30 9 0 0 0 20 0 0 0 221 221 221 222 222 222 0 0 0;#P objectname offset;#P window setfont "Sans Serif" 9.;#P window linecount 2;#P comment 276 43 124 196617 arg 1 : module name \; arg 2 : show "more" 1/0;#P window linecount 1;#P comment 276 26 100 196617 panel = 256 X 62;#P window setfont Times 9.;#P comment 30 23 25 1310729 gain;#P flonum 63 23 30 9 0 0 0 20 0 0 0 221 221 221 222 222 222 0 0 0;#P objectname gain;#P window setfont "Sans Serif" 9.;#N thispatcher;#Q end;#P newobj 0 75 61 196617 thispatcher;#P newex 23 139 127 196617 param $1-gain $1 f 0 0 1;#P newex 23 120 52 196617 pvar gain;#P newex 23 184 136 196617 param $1-offset $1 f 0 0 1;#P newex 23 165 61 196617 pvar offset;#P comment 276 9 118 196617 <- name = "background";#P bpatcher 0 0 256 62 0 0 ct_vbackground.mxt 0 $1;#P objectname background;#P hidden connect 0 0 6 0;#P fasten 5 0 4 0 28 158 20 158 20 118 28 118;#P connect 4 0 5 0;#P fasten 3 0 2 0 28 203 20 203 20 163 28 163;#P connect 2 0 3 0;#P pop;