max v2;#N vpatcher 124 209 735 758;#P window setfont "Sans Serif" 9.;#P newex 403 404 49 196617 change 1;#P window linecount 2;#P comment 93 476 107 196617 patch by Tom Mays contact@tommays.net;#P window setfont Times 9.;#P window linecount 1;#P comment 104 -1 22 1310729 vns;#P window setfont "Sans Serif" 9.;#P comment 227 328 49 196617 v.screen;#P newex 61 282 31 196617 == 0;#P newex 61 220 67 196617 s $1-dispsw;#B color 11;#P window setfont Times 9.;#P newex 60 129 55 1310729 pvar dispsw;#P newex 60 149 66 1310729 vari $1-dispsw;#B color 1;#P window setfont "Sans Serif" 9.;#P newex 61 198 48 196617 split 0 0;#P newex 61 320 58 196617 pvar vdisp;#P newex 61 177 49 196617 r $1-sw;#B color 11;#P newex 61 244 67 196617 r $1-dispsw;#B color 11;#P toggle 61 264 15 0;#P message 61 302 86 196617 bypass \$1 \, clear;#P newex 196 128 50 196617 r $1-out;#B color 11;#P toggle 183 49 13 0;#P objectname dispsw;#P user v.screen 196 17 60 45;#P objectname vdisp;#P window setfont Times 9.;#P newex 339 55 18 1310729 t b;#P window setfont "Sans Serif" 9.;#P comment 394 27 176 196617 init and module param register write;#P comment 530 489 40 196617 switch;#P comment 501 291 66 196617 temp-preset;#P newex 477 238 79 196617 s $1-moreopen;#B color 11;#P newex 477 155 48 196617 loadbang;#P message 477 178 93 196617 brgb 122 140 255;#P user jsui 237 1 19 15 1 0 0 m_toggle.js off on;#P objectname sw;#P newex 477 216 20 196617 t b;#P newex 477 196 57 196617 pvar more;#P newex 344 167 48 196617 loadbang;#N thispatcher;#Q end;#P newobj 297 231 61 196617 thispatcher;#P message 387 210 84 196617 script hide more;#P message 297 210 89 196617 script show more;#P toggle 297 168 15 0;#P newex 297 186 41 196617 sel 1 0;#P message 313 168 21 196617 $2;#P user jsui 23 1 30 15 1 0 0 jsui_textbutton.js more;#P objectname more;#P newex 324 447 50 196617 deferlow;#P window setfont Times 9.;#P newex 339 35 43 1310729 pvar init;#P message 1 1 19 1310729 init;#B color 12;#P objectname init;#P newex 335 271 48 1310729 pvar open;#P newex 435 271 50 1310729 pvar recall;#P newex 385 271 48 1310729 pvar store;#P message 1 33 13 1310729 R;#B color 7;#P objectname recall;#P message 1 19 13 1310729 S;#B color 2;#P objectname store;#P message 1 47 13 1310729 O;#B color 9;#P objectname open;#P window setfont "Sans Serif" 9.;#P window linecount 2;#P message 339 75 114 196617 \; $1-init bang \;;#P window linecount 1;#P message 324 468 142 196617 script sendtoback background;#P newex 324 333 236 196617 switchparam $1-sw ct_switchstate;#B color 5;#P newex 403 424 77 196617 t b i;#N comlet bang for "send to back";#P outlet 324 487 15 0;#P newex 339 109 183 196617 ct_module_register $1;#B color 5;#P window setfont "Sans Serif" 12.;#P comment 120 0 114 196620 $1;#B frgb 255 255 255;#P user panel 123 1 112 16;#X brgb 116 116 116;#X frgb 0 0 0;#X border 0;#X rounded 8;#X shadow 0;#X done;#P window setfont Times 9.;#P newex 335 296 111 1310729 storetemppath $1;#B color 6;#P window setfont "Sans Serif" 9.;#P newex 470 468 57 196617 pvar panel;#P newex 324 362 52 196617 pvar sw;#P newex 324 382 168 196617 param $1-sw $1 t 0 1 0;#B color 5;#P newex 470 447 61 196617 ct_swcolor;#B color 5;#P user hint 2 47 15 61 "open temp preset text (qlist)" 750 100 0 65535 65535 52428 9 3 0 1 0 0 0;#P user hint 2 33 15 48 "recall temp preset" 750 100 0 65535 65535 52428 9 3 0 1 0 0 0;#P user hint 2 19 15 33 "store temp preset" 750 100 0 65535 65535 52428 9 3 0 1 0 0 0;#P user hint 2 1 21 15 "initialize this module" 750 100 0 65535 65535 52428 9 3 0 1 0 0 0;#P comment 270 5 88 196617 panel = 256 X 62;#P comment 295 148 178 196617 more parameters option (arg 2 \, 1/0);#P user panel 291 24 283 119;#X brgb 255 255 255;#X frgb 0 0 0;#X border 1;#X rounded 0;#X shadow 0;#X done;#P user panel 291 264 283 58;#X brgb 255 255 255;#X frgb 0 0 0;#X border 1;#X rounded 0;#X shadow 0;#X done;#P user panel 291 144 283 119;#X brgb 255 255 255;#X frgb 0 0 0;#X border 1;#X rounded 0;#X shadow 0;#X done;#P user panel 42 114 248 235;#X brgb 255 255 255;#X frgb 0 0 0;#X border 1;#X rounded 0;#X shadow 0;#X done;#P user panel 0 0 256 62;#X brgb 220 165 255;#X frgb 111 66 156;#X border 1;#X rounded 4;#X shadow 1;#X done;#P background;#P objectname panel;#P user panel 290 323 283 186;#X brgb 255 255 255;#X frgb 0 0 0;#X border 1;#X rounded 0;#X shadow 0;#X done;#P fasten 61 0 62 0 65 169 57 169 57 125 65 125;#P connect 62 0 61 0;#P connect 58 0 60 0;#P connect 60 0 63 0;#P connect 57 0 56 0;#P connect 56 0 64 0;#P connect 64 0 55 0;#P connect 55 0 59 0;#P hidden connect 54 0 52 0;#P connect 35 0 37 0;#P connect 37 0 36 0;#P connect 36 0 38 0;#P connect 38 0 40 0;#P fasten 39 0 40 0 392 228 302 228;#P fasten 41 0 35 0 349 187 340 187 340 165 318 165;#P fasten 13 0 14 0 329 404 320 404 320 358 329 358;#P connect 14 0 13 0;#P fasten 21 0 33 0 408 444 329 444;#P connect 33 0 23 0;#P connect 23 0 20 0;#P connect 30 0 16 0;#P connect 32 0 51 0;#P connect 51 0 24 0;#P connect 28 0 16 1;#P fasten 36 1 39 0 317 206 392 206;#P fasten 13 1 68 0 487 401 408 401;#P connect 68 0 21 0;#P connect 29 0 16 2;#P connect 21 1 12 0;#P connect 12 0 15 0;#P connect 46 0 45 0;#P connect 45 0 42 0;#P connect 42 0 43 0;#P connect 43 0 47 0;#P pop;