max v2;#N vpatcher 460 400 906 642;#P window setfont Times 9.;#P number 61 37 32 9 0 768 3 20 0 0 0 221 221 221 222 222 222 0 0 0;#P objectname height;#P number 61 23 32 9 0 1024 3 20 0 0 0 221 221 221 222 222 222 0 0 0;#P objectname width;#P window linecount 1;#P comment 30 37 32 1310729 height;#P window setfont "Sans Serif" 9.;#P window linecount 2;#P comment 276 43 124 196617 arg 1 : module name \; arg 2 : show "more" 1/0;#P window linecount 1;#P comment 276 26 100 196617 panel = 256 X 62;#P window setfont Times 9.;#P comment 30 23 31 1310729 width;#P window setfont "Sans Serif" 9.;#N thispatcher;#Q end;#P newobj 0 75 61 196617 thispatcher;#P newex 23 139 151 196617 param $1-width $1 i 0 1024 0;#P newex 23 120 59 196617 pvar width;#P newex 23 184 147 196617 param $1-height $1 i 0 768 0;#P newex 23 165 61 196617 pvar height;#P comment 276 9 118 196617 <- name = "background";#P bpatcher 0 0 256 62 0 0 ct_vbackground.mxt 0 $1;#P objectname background;#P hidden connect 0 0 6 0;#P fasten 5 0 4 0 28 158 20 158 20 118 28 118;#P connect 4 0 5 0;#P fasten 3 0 2 0 28 203 20 203 20 163 28 163;#P connect 2 0 3 0;#P pop;