max v2;#N vpatcher 326 92 940 649;#P window setfont "Sans Serif" 9.;#P window linecount 2;#P comment 65 482 107 196617 patch by Tom Mays contact@tommays.net;#P window setfont Times 9.;#P window linecount 1;#P comment 104 -1 22 1310729 vns;#P window setfont "Sans Serif" 9.;#P newex 382 404 49 196617 change 1;#P comment 509 489 40 196617 switch;#P newex 303 447 50 196617 deferlow;#P message 303 468 142 196617 script sendtoback background;#P newex 303 333 228 196617 switchparam $1-sw ct_switchstate;#B color 5;#P newex 382 424 77 196617 t b i;#N comlet bang for "send to back";#P outlet 303 487 15 0;#P newex 449 468 57 196617 pvar panel;#P newex 303 362 52 196617 pvar sw;#P newex 303 382 168 196617 param $1-sw $1 t 0 1 0;#B color 5;#P newex 449 447 61 196617 ct_swcolor;#B color 5;#P user panel 270 323 283 186;#X brgb 255 255 255;#X frgb 0 0 0;#X border 1;#X rounded 0;#X shadow 0;#X done;#P window setfont Times 9.;#P newex 318 55 18 1310729 t b;#P window setfont "Sans Serif" 9.;#P comment 373 27 176 196617 init and module param register write;#P comment 480 291 66 196617 temp-preset;#P newex 456 238 79 196617 s $1-moreopen;#B color 11;#P newex 456 155 48 196617 loadbang;#P message 456 178 93 196617 brgb 122 140 255;#P user jsui 237 1 19 15 1 0 0 m_toggle.js off on;#P objectname sw;#P newex 456 216 20 196617 t b;#P newex 456 196 57 196617 pvar more;#P newex 323 167 48 196617 loadbang;#N thispatcher;#Q end;#P newobj 276 231 61 196617 thispatcher;#P message 366 210 84 196617 script hide more;#P message 276 210 89 196617 script show more;#P toggle 276 168 15 0;#P newex 276 186 41 196617 sel 1 0;#P message 292 168 21 196617 $2;#P user jsui 23 1 30 15 1 0 0 jsui_textbutton.js more;#P objectname more;#P window setfont Times 9.;#P newex 318 35 43 1310729 pvar init;#P message 1 1 19 1310729 init;#B color 12;#P objectname init;#P newex 314 271 48 1310729 pvar open;#P newex 414 271 50 1310729 pvar recall;#P newex 364 271 48 1310729 pvar store;#P message 1 33 13 1310729 R;#B color 7;#P objectname recall;#P message 1 19 13 1310729 S;#B color 2;#P objectname store;#P message 1 47 13 1310729 O;#B color 9;#P objectname open;#P window setfont "Sans Serif" 9.;#P window linecount 2;#P message 318 75 114 196617 \; $1-init bang \;;#P window linecount 1;#P newex 318 109 183 196617 ct_module_register $1;#B color 5;#P window setfont "Sans Serif" 12.;#P comment 120 0 114 196620 $1;#B frgb 255 255 255;#P user panel 123 1 112 16;#X brgb 116 116 116;#X frgb 0 0 0;#X border 0;#X rounded 8;#X shadow 0;#X done;#P window setfont Times 9.;#P newex 314 296 111 1310729 storetemppath $1;#B color 6;#P user hint 2 47 15 61 "open temp preset text (qlist)" 750 100 0 65535 65535 52428 9 3 0 1 0 0 0;#P user hint 2 33 15 48 "recall temp preset" 750 100 0 65535 65535 52428 9 3 0 1 0 0 0;#P user hint 2 19 15 33 "store temp preset" 750 100 0 65535 65535 52428 9 3 0 1 0 0 0;#P user hint 2 1 21 15 "initialize this module" 750 100 0 65535 65535 52428 9 3 0 1 0 0 0;#P window setfont "Sans Serif" 9.;#P comment 270 5 88 196617 panel = 256 X 62;#P comment 274 148 178 196617 more parameters option (arg 2 \, 1/0);#P user panel 270 24 283 119;#X brgb 255 255 255;#X frgb 0 0 0;#X border 1;#X rounded 0;#X shadow 0;#X done;#P user panel 270 264 283 58;#X brgb 255 255 255;#X frgb 0 0 0;#X border 1;#X rounded 0;#X shadow 0;#X done;#P user panel 270 144 283 119;#X brgb 255 255 255;#X frgb 0 0 0;#X border 1;#X rounded 0;#X shadow 0;#X done;#P user panel 0 0 256 62;#X brgb 220 165 255;#X frgb 111 66 156;#X border 1;#X rounded 4;#X shadow 1;#X done;#P background;#P objectname panel;#P connect 24 0 26 0;#P connect 26 0 25 0;#P connect 25 0 27 0;#P connect 27 0 29 0;#P fasten 28 0 29 0 371 228 281 228;#P fasten 30 0 24 0 328 187 319 187 319 165 297 165;#P fasten 42 0 43 0 308 404 299 404 299 358 308 358;#P connect 43 0 42 0;#P fasten 46 0 49 0 387 444 308 444;#P connect 49 0 48 0;#P connect 48 0 45 0;#P connect 20 0 10 0;#P connect 22 0 39 0;#P connect 39 0 14 0;#P connect 18 0 10 1;#P fasten 25 1 28 0 296 206 371 206;#P fasten 42 1 51 0 466 401 387 401;#P connect 51 0 46 0;#P connect 19 0 10 2;#P connect 46 1 41 0;#P connect 41 0 44 0;#P connect 35 0 34 0;#P connect 34 0 31 0;#P connect 31 0 32 0;#P connect 32 0 36 0;#P pop;