max v2;#N vpatcher 71 173 641 542;#P origin 0 -4;#P window setfont "Sans Serif" 9.;#P window linecount 2;#P comment 411 293 107 196617 patch by Tom Mays contact@tommays.net;#P window linecount 1;#P newex 95 162 158 196617 r $1-b-in;#B color 13;#P newex 49 311 97 196617 s $1-out;#B color 13;#P newex 105 261 30 196617 !- 1.;#P newex 65 192 83 196617 testmakevns $2;#B color 5;#N comlet vns stream in B;#P inlet 65 162 15 0;#P newex 25 85 83 196617 testmakevns $2;#B color 5;#P newex 105 240 64 196617 linefog 0 40;#B color 5;#P newex 105 219 115 196617 r $1-xfade;#B color 11;#P toggle 131 73 15 0;#P newex 131 91 31 196617 == 0;#P newex 131 53 97 196617 r $1-sw;#B color 11;#P message 131 111 55 196617 bypass \$1;#P newex 25 282 90 196617 v.dissolve;#N comlet vns stream out;#P outlet 25 307 15 0;#N comlet vns stream in A;#P inlet 25 26 15 0;#P newex 60 26 138 196617 r $1-a-in;#B color 13;#P toggle 419 118 15 0;#P newex 419 78 67 196617 loadmess $3;#P newex 419 98 31 196617 == 0;#P newex 419 137 38 196617 gate 1;#P newex 419 157 80 196617 s $1-init;#B color 11;#P newex 447 117 70 196617 r camtrk-init;#B color 11;#P window setfont Times 9.;#P window linecount 3;#P comment 322 200 136 1310729 arg 1 : prefix name \; arg 2 : perform jitvns test (1/0) \; arg 3 : disable global init (1/0);#P window setfont "Sans Serif" 9.;#P window linecount 1;#P newex 264 86 80 196617 r $1-init;#B color 11;#P window linecount 3;#P message 264 113 142 196617 \; $1-sw 0 \; $1-xfade 0. \;;#P window setfont "Sans Serif" 24.;#P window linecount 1;#P comment 249 264 126 196632 v.dissolve;#P connect 10 0 20 0;#P connect 11 0 20 0;#P connect 20 0 13 0;#P fasten 14 0 13 0 136 131 30 131;#P connect 13 0 12 0;#P connect 13 0 24 0;#P connect 25 0 22 0;#P connect 21 0 22 0;#P connect 22 0 13 1;#P connect 18 0 19 0;#P connect 19 0 23 0;#P connect 23 0 13 2;#P connect 15 0 17 0;#P connect 17 0 16 0;#P connect 16 0 14 0;#P connect 2 0 1 0;#P connect 8 0 7 0;#P connect 7 0 9 0;#P connect 9 0 6 0;#P connect 6 0 5 0;#P connect 4 0 6 1;#P pop;