max v2;#N vpatcher 623 44 1050 432;#P window setfont "Sans Serif" 9.;#P window linecount 2;#P comment 280 322 107 196617 patch by Tom Mays contact@tommays.net;#P window setfont Times 9.;#P number 131 47 23 9 0 999 35 20 0 0 0 221 221 221 222 222 222 0 0 0;#P objectname speedlim;#P window linecount 1;#P comment 91 47 44 1310729 speedlim;#P window setfont "Sans Serif" 9.;#P newex 23 321 159 196617 param $1-speedlim $1 i 0 999 0;#P newex 23 302 73 196617 pvar speedlim;#P newex 223 143 53 196617 t settings;#P newex 223 168 90 196617 s $1;#B color 11;#P window setfont Times 9.;#P comment 35 45 13 1310729 y;#P comment 35 30 13 1310729 x;#P window setfont "Sans Serif" 9.;#P newex 223 121 70 196617 pvar settings;#P window setfont Times 9.;#P comment 90 33 45 1310729 disp gain;#P flonum 131 33 30 9 0. 100. 35 20 0 0 0 221 221 221 222 222 222 0 0 0;#P objectname displaygain;#P number 131 19 22 9 0 255 35 20 0 0 0 221 221 221 222 222 222 0 0 0;#P objectname sensitivity;#P number 47 46 22 9 1 256 35 20 0 0 0 221 221 221 222 222 222 0 0 0;#P objectname gridy;#P message 39 2 38 1310729 settings;#B color 6;#P objectname settings;#P number 47 31 22 9 1 256 35 20 0 0 0 221 221 221 222 222 222 0 0 0;#P objectname gridx;#P comment 84 19 52 1310729 sensitivity;#P comment 46 18 23 1310729 grid;#P window setfont "Sans Serif" 9.;#P newex 23 275 171 196617 param $1-displaygain $1 f 0 100 0;#P newex 23 256 84 196617 pvar displaygain;#P newex 23 230 169 196617 param $1-sensitivity $1 i 0 255 0;#P newex 23 211 83 196617 pvar sensitivity;#P window linecount 2;#P comment 270 41 124 196617 arg 1 : module name \; arg 2 : show "more" 1/0;#P window linecount 1;#P comment 270 24 100 196617 panel = 256 X 62;#N thispatcher;#Q end;#P newobj 0 78 61 196617 thispatcher;#P newex 23 140 144 196617 param $1-gridx $1 i 1 256 0;#P newex 23 121 58 196617 pvar gridx;#P newex 23 185 144 196617 param $1-gridy $1 i 1 256 0;#P newex 23 166 58 196617 pvar gridy;#P comment 270 7 118 196617 <- name = "background";#P bpatcher 0 0 256 62 0 0 ct_vbackground.mxt 0 $1;#P objectname background;#P hidden connect 0 0 6 0;#P fasten 5 0 4 0 28 159 20 159 20 119 28 119;#P connect 4 0 5 0;#P fasten 3 0 2 0 28 204 20 204 20 164 28 164;#P connect 2 0 3 0;#P fasten 10 0 9 0 28 249 20 249 20 209 28 209;#P connect 9 0 10 0;#P fasten 12 0 11 0 28 294 20 294 20 254 28 254;#P connect 11 0 12 0;#P fasten 27 0 26 0 28 340 20 340 20 300 28 300;#P connect 26 0 27 0;#P connect 21 0 25 0;#P connect 25 0 24 0;#P pop;