max v2;#N vpatcher 474 178 1029 506;#P origin 0 -4;#P window setfont "Sans Serif" 9.;#P newex 49 147 115 196617 r $1-fliph;#B color 11;#P toggle 49 167 15 0;#P newex 64 188 115 196617 r $1-flipv;#B color 11;#P toggle 64 208 15 0;#P newex 54 266 97 196617 s $1-out;#B color 13;#P newex 53 21 97 196617 r $1-in;#B color 13;#P toggle 416 82 15 0;#P newex 416 42 67 196617 loadmess $2;#P newex 416 62 31 196617 == 0;#P newex 416 101 38 196617 gate 1;#P newex 416 121 80 196617 s $1-init;#B color 11;#P newex 444 81 70 196617 r camtrk-init;#B color 11;#P window setfont Times 9.;#P window linecount 2;#P comment 338 251 136 1310729 arg 1 : prefix name \; arg 2 : disable global init (1/0);#P window setfont "Sans Serif" 9.;#P window linecount 1;#P newex 261 50 80 196617 r $1-init;#B color 11;#P window linecount 4;#P message 261 77 142 196617 \; $1-sw 0 \; $1-fliph 0 \; $1-flipv 0 \;;#P toggle 140 66 15 0;#P window linecount 1;#P newex 140 84 31 196617 == 0;#P newex 140 46 97 196617 r $1-sw;#B color 11;#P message 140 104 55 196617 bypass \$1;#P newex 34 236 40 196617 v.flip;#P window setfont "Sans Serif" 24.;#P comment 195 251 67 196632 v.flip;#N comlet vns stream out;#P outlet 34 267 15 0;#N comlet vns stream in;#P inlet 34 23 15 0;#P connect 0 0 3 0;#P fasten 17 0 3 0 58 61 39 61;#P fasten 4 0 3 0 145 127 39 127;#P connect 3 0 1 0;#P connect 22 0 21 0;#P connect 21 0 3 1;#P connect 3 0 18 0;#P connect 20 0 19 0;#P connect 19 0 3 2;#P connect 5 0 7 0;#P connect 7 0 6 0;#P connect 6 0 4 0;#P connect 9 0 8 0;#P connect 15 0 14 0;#P connect 14 0 16 0;#P connect 16 0 13 0;#P connect 13 0 12 0;#P connect 11 0 13 1;#P pop;