max v2;#N vpatcher 415 44 868 658;#P window setfont "Sans Serif" 9.;#P window linecount 2;#P comment 290 533 107 196617 patch by Tom Mays contact@tommays.net;#P window setfont Times 9.;#P window linecount 1;#P comment 101 22 51 1310729 output size;#P comment 101 48 13 1310729 y;#P comment 101 34 13 1310729 x;#P comment 56 22 43 1310729 pre offset;#P comment 56 48 13 1310729 v;#P comment 56 34 13 1310729 h;#P comment 15 22 43 1310729 pre scale;#P comment 15 48 13 1310729 v;#P comment 15 34 13 1310729 h;#P window setfont "Sans Serif" 18.;#N vpatcher 73 197 367 406;#P window setfont Times 9.;#P window linecount 1;#P comment 8 77 55 1310729 pre rotation;#P comment 8 102 13 1310729 v;#P comment 8 89 13 1310729 h;#P comment 8 36 51 1310729 post offset;#P toggle 19 159 14 0;#P objectname processalpha;#P comment 16 147 62 1310729 process alpha;#P hidden newex 42 551 79 1310729 pvar processalpha;#P hidden newex 42 575 115 1310729 param $1-processalpha $1 t;#B color 12;#P toggle 19 130 14 0;#P objectname antialias;#P comment 16 118 43 1310729 antialias;#P hidden newex 42 496 62 1310729 pvar antialias;#P hidden newex 42 520 98 1310729 param $1-antialias $1 t;#B color 12;#P flonum 19 101 34 9 0 0 32 20 0 0 0 221 221 221 222 222 222 0 0 0;#P objectname prevertrotation;#P flonum 19 88 34 9 0 0 32 20 0 0 0 221 221 221 222 222 222 0 0 0;#P objectname prehorizrotation;#P hidden newex 42 440 87 1310729 pvar prevertrotation;#P hidden newex 42 464 144 1310729 param $1-prevertrotation $1 f 0 0 1;#B color 12;#P hidden newex 42 386 92 1310729 pvar prehorizrotation;#P hidden newex 42 410 149 1310729 param $1-prehorizrotation $1 f 0 0 1;#B color 12;#P flonum 19 60 34 9 -1024. 1024. 35 20 0 0 0 221 221 221 222 222 222 0 0 0;#P objectname postvertoffset;#P comment 8 61 13 1310729 v;#P flonum 19 47 34 9 -1024. 1024. 35 20 0 0 0 221 221 221 222 222 222 0 0 0;#P objectname posthorizoffset;#P comment 8 48 13 1310729 h;#P hidden newex 42 330 83 1310729 pvar postvertoffset;#P hidden newex 42 354 173 1310729 param $1-postvertoffset $1 f -1024 1024 1;#B color 12;#P hidden newex 42 276 88 1310729 pvar posthorizoffset;#P hidden newex 42 300 178 1310729 param $1-posthorizoffset $1 f -1024 1024 1;#B color 12;#P flonum 19 19 30 9 -100. 100. 35 20 0 0 0 221 221 221 222 222 222 0 0 0;#P objectname postscale;#P comment 14 7 46 1310729 postscale;#P hidden newex 42 219 65 1310729 pvar postscale;#P hidden newex 42 243 145 1310729 param $1-postscale $1 f -100 100 1;#B color 12;#P window setfont "Sans Serif" 9.;#P window linecount 0;#P hidden message 256 349 33 196617 front;#P hidden newex 256 330 79 196617 r $1-moreopen;#B color 11;#N thispatcher;#Q end;#P hidden newobj 256 366 61 196617 thispatcher;#P hidden newex 256 258 60 196617 loadmess 1;#P hidden newex 256 298 57 196617 pvar panel;#P hidden newex 256 278 61 196617 ct_swcolor;#B color 5;#P user panel 0 0 274 191;#X brgb 220 165 255;#X frgb 111 66 156;#X border 1;#X rounded 0;#X shadow 1;#X done;#P objectname panel;#P hidden fasten 7 0 8 0 47 265 36 265 36 214 47 214;#P hidden connect 8 0 7 0;#P hidden fasten 11 0 12 0 47 322 36 322 36 271 47 271;#P hidden connect 12 0 11 0;#P hidden fasten 13 0 14 0 47 376 36 376 36 325 47 325;#P hidden connect 14 0 13 0;#P hidden fasten 19 0 20 0 47 432 36 432 36 381 47 381;#P hidden connect 20 0 19 0;#P hidden fasten 21 0 22 0 47 486 36 486 36 435 47 435;#P hidden connect 22 0 21 0;#P hidden fasten 25 0 26 0 47 542 36 542 36 491 47 491;#P hidden connect 26 0 25 0;#P hidden fasten 29 0 30 0 47 597 36 597 36 546 47 546;#P hidden connect 30 0 29 0;#P hidden connect 3 0 1 0;#P hidden connect 1 0 2 0;#P hidden connect 5 0 6 0;#P hidden connect 6 0 4 0;#P pop;#P newobj 129 80 102 196626 p $1 more;#B color 6;#P window setfont Times 9.;#P number 112 47 32 9 0 1024 3 20 0 0 0 221 221 221 222 222 222 0 0 0;#P objectname outputsizey;#P newex 50 491 73 1310729 pvar outputsizey;#P newex 50 515 145 1310729 param $1-outputsizey $1 i 0 1024 0;#B color 12;#P number 112 33 32 9 0 1024 3 20 0 0 0 221 221 221 222 222 222 0 0 0;#P objectname outputsizex;#P newex 50 436 73 1310729 pvar outputsizex;#P newex 50 460 145 1310729 param $1-outputsizex $1 i 0 1024 0;#B color 12;#P flonum 67 33 34 9 -2048. 2048. 35 20 0 0 0 221 221 221 222 222 222 0 0 0;#P objectname prehorizoffset;#P flonum 67 47 34 9 -2048. 2048. 35 20 0 0 0 221 221 221 222 222 222 0 0 0;#P objectname prevertoffset;#P newex 50 378 78 1310729 pvar prevertoffset;#P newex 50 402 168 1310729 param $1-prevertoffset $1 f -2048 2048 1;#B color 12;#P newex 50 324 83 1310729 pvar prehorizoffset;#P newex 50 348 173 1310729 param $1-prehorizoffset $1 f -2048 2048 1;#B color 12;#P flonum 26 47 30 9 -100. 100. 35 20 0 0 0 221 221 221 222 222 222 0 0 0;#P objectname prevertscale;#P newex 50 268 75 1310729 pvar prevertscale;#P newex 50 292 155 1310729 param $1-prevertscale $1 f -100 100 1;#B color 12;#P flonum 26 33 30 9 -100. 100. 35 20 0 0 0 221 221 221 222 222 222 0 0 0;#P objectname prehorizscale;#P newex 50 213 80 1310729 pvar prehorizscale;#P newex 50 237 160 1310729 param $1-prehorizscale $1 f -100 100 1;#B color 12;#P flonum 59 10 34 9 0 0 32 20 0 0 0 221 221 221 222 222 222 0 0 0;#P objectname rotation;#P comment 57 -1 46 1310729 rotation;#P newex 50 156 60 1310729 pvar rotation;#P newex 50 180 117 1310729 param $1-rotation $1 f 0 0 1;#B color 12;#P window setfont "Sans Serif" 9.;#P window linecount 2;#P comment 276 43 124 196617 arg 1 : module name \; arg 2 : show "more" 1/0;#P window linecount 1;#P comment 276 26 100 196617 panel = 256 X 62;#N thispatcher;#Q end;#P newobj 0 75 61 196617 thispatcher;#P comment 276 9 118 196617 <- name = "background";#P bpatcher 0 0 256 62 0 0 ct_vbackground.mxt 0 $1 1;#P objectname background;#P hidden connect 0 0 2 0;#P fasten 5 0 6 0 55 202 44 202 44 151 55 151;#P connect 6 0 5 0;#P fasten 9 0 10 0 55 259 44 259 44 208 55 208;#P connect 10 0 9 0;#P fasten 12 0 13 0 55 314 44 314 44 263 55 263;#P connect 13 0 12 0;#P fasten 15 0 16 0 55 370 44 370 44 319 55 319;#P connect 16 0 15 0;#P fasten 17 0 18 0 55 424 44 424 44 373 55 373;#P connect 18 0 17 0;#P fasten 21 0 22 0 55 482 44 482 44 431 55 431;#P connect 22 0 21 0;#P fasten 24 0 25 0 55 537 44 537 44 486 55 486;#P connect 25 0 24 0;#P pop;