max v2;#N vpatcher 182 97 622 485;#P window setfont "Sans Serif" 9.;#P newex 23 319 135 196617 param $1-skipdropped $1 t;#P newex 23 300 87 196617 pvar skipdropped;#P newex 23 274 110 196617 param $1-double $1 t;#P newex 23 255 62 196617 pvar double;#P newex 23 229 119 196617 param $1-pass_uv $1 t;#P newex 23 210 71 196617 pvar pass_uv;#P toggle 161 39 13 0;#P objectname skipdropped;#P window setfont Times 9.;#P comment 109 39 57 1310729 skipdropped;#P toggle 161 25 13 0;#P objectname double;#P comment 130 25 35 1310729 double;#P toggle 91 39 13 0;#P objectname pass_uv;#P comment 54 39 41 1310729 pass_uv;#P toggle 91 25 13 0;#P objectname absdiff;#P window linecount 2;#P comment 22 8 32 1310729 noise thresh;#P window linecount 1;#P comment 58 25 35 1310729 abs diff;#P number 26 32 23 9 0 256 35 20 0 0 0 221 221 221 222 222 222 0 0 0;#P objectname noisethresh;#P window setfont "Sans Serif" 9.;#P window linecount 2;#P comment 276 43 124 196617 arg 1 : module name \; arg 2 : show "more" 1/0;#P window linecount 1;#P comment 276 26 100 196617 panel = 256 X 62;#N thispatcher;#Q end;#P newobj 0 75 61 196617 thispatcher;#P newex 23 139 172 196617 param $1-noisethresh $1 i 0 256 0;#P newex 23 120 86 196617 pvar noisethresh;#P newex 23 184 113 196617 param $1-absdiff $1 t;#P newex 23 165 65 196617 pvar absdiff;#P comment 276 9 118 196617 <- name = "background";#P bpatcher 0 0 256 62 0 0 ct_vbackground.mxt 0 $1;#P objectname background;#P hidden connect 0 0 6 0;#P fasten 5 0 4 0 28 158 20 158 20 118 28 118;#P connect 4 0 5 0;#P fasten 3 0 2 0 28 203 20 203 20 163 28 163;#P connect 2 0 3 0;#P fasten 20 0 19 0 28 248 20 248 20 208 28 208;#P connect 19 0 20 0;#P fasten 22 0 21 0 28 293 20 293 20 253 28 253;#P connect 21 0 22 0;#P fasten 24 0 23 0 28 338 20 338 20 298 28 298;#P connect 23 0 24 0;#P pop;