max v2;#N vpatcher 485 44 931 300;#P window setfont "Sans Serif" 9.;#P newex 23 187 130 196617 param $1-flipv $1 t 0 1 0;#P newex 23 168 55 196617 pvar flipv;#P toggle 85 37 13 0;#P objectname flipv;#P window setfont Times 9.;#P comment 35 38 55 1310729 flip vertical;#P toggle 85 23 13 0;#P objectname fliph;#P comment 24 24 66 1310729 flip horizontal;#P window setfont "Sans Serif" 9.;#P window linecount 2;#P comment 276 43 124 196617 arg 1 : module name \; arg 2 : show "more" 1/0;#P window linecount 1;#P comment 276 26 100 196617 panel = 256 X 62;#N thispatcher;#Q end;#P newobj 0 75 61 196617 thispatcher;#P newex 23 139 129 196617 param $1-fliph $1 t 0 1 0;#P newex 23 120 54 196617 pvar fliph;#P comment 276 9 118 196617 <- name = "background";#P bpatcher 0 0 256 62 0 0 ct_vbackground.mxt 0 $1;#P objectname background;#P hidden connect 0 0 4 0;#P fasten 3 0 2 0 28 158 20 158 20 118 28 118;#P connect 2 0 3 0;#P fasten 12 0 11 0 28 206 20 206 20 166 28 166;#P connect 11 0 12 0;#P pop;