max v2;#N vpatcher 438 44 1068 570;#P origin 0 -4;#P button 186 40 15 0;#P window setfont "Sans Serif" 9.;#P window linecount 1;#P newex 55 412 97 196617 s $1-out;#B color 13;#P window linecount 3;#P comment 200 167 82 196617 pass along u and v unprocessed (yuv streams);#P toggle 80 203 15 0;#P window linecount 1;#P newex 80 221 31 196617 == 0;#P newex 439 204 137 196617 r $1-skipdropped;#B color 11;#P toggle 439 224 15 0;#P message 439 241 78 196617 skipdropped \$1;#P newex 317 204 112 196617 r $1-double;#B color 11;#P toggle 317 224 15 0;#P message 317 241 53 196617 double \$1;#P newex 194 289 136 196617 r $1-noisethresh;#B color 11;#P newex 186 204 121 196617 r $1-pass_uv;#B color 11;#P toggle 186 224 15 0;#P message 186 241 62 196617 pass_uv \$1;#P newex 354 286 115 196617 r $1-absdiff;#B color 11;#P toggle 354 306 15 0;#P newex 80 183 97 196617 r $1-sw;#B color 11;#P message 80 241 55 196617 bypass \$1;#P window linecount 3;#P comment 439 167 76 196617 do not output motion across dropped frame;#P window linecount 6;#P comment 369 316 156 196617 In absolute mode \, the absolute change is reported. In differential mode \, no motion is shown as grey \, and positive and negative changes in the image are shown as lighter and darker pixels;#P number 194 312 35 9 0 0 0 3 0 0 0 221 221 221 222 222 222 0 0 0;#P window linecount 1;#P newex 34 382 331 196617 v.motion;#P window linecount 5;#P comment 231 308 101 196617 noise threshold (pixels changing less than this amount are ignored) (absolute mode only);#P window linecount 1;#P comment 369 303 156 196617 absolute = 1 / differential = 0;#P window linecount 3;#P comment 317 167 92 196617 double the output intensity (absolute mode only);#P window setfont "Sans Serif" 24.;#P window linecount 1;#P comment 192 413 111 196632 v.motion;#P window setfont "Sans Serif" 9.;#P window linecount 3;#P comment 192 448 386 196617 v.motion implements "frame differencing." The current frame is subtracted from the previous frame. the differences are generally caused by movement in the image. This is a key component in classic softVNS motion tracking.;#N comlet vns stream out;#P outlet 34 413 15 0;#P window linecount 1;#P newex 53 21 97 196617 r $1-in;#B color 13;#P toggle 372 69 15 0;#P newex 372 29 67 196617 loadmess $2;#P newex 372 49 31 196617 == 0;#P newex 372 88 38 196617 gate 1;#P newex 372 108 80 196617 s $1-init;#B color 11;#P newex 400 68 70 196617 r camtrk-init;#B color 11;#P window setfont Times 9.;#P window linecount 2;#P comment 28 448 136 1310729 arg 1 : prefix name \; arg 2 : disable global init (1/0);#P window setfont "Sans Serif" 9.;#P window linecount 1;#P newex 186 20 80 196617 r $1-init;#B color 11;#P window linecount 7;#P message 186 60 161 196617 \; $1-sw 0 \; $1-noisethresh 50 \; $1-absdiff 1 \; $1-pass_uv 1 \; $1-double 1 \; $1-skipdropped 1 \;;#N comlet vns stream in;#P inlet 34 23 15 0;#P connect 0 0 17 0;#P fasten 10 0 17 0 58 118 39 118;#P fasten 21 0 17 0 85 271 39 271;#P fasten 25 0 17 0 191 271 39 271;#P fasten 29 0 17 0 322 271 39 271;#P fasten 32 0 17 0 444 271 39 271;#P connect 17 0 11 0;#P connect 17 0 38 0;#P connect 22 0 36 0;#P connect 36 0 35 0;#P connect 35 0 21 0;#P connect 2 0 39 0;#P connect 39 0 1 0;#P connect 27 0 26 0;#P connect 26 0 25 0;#P connect 28 0 18 0;#P connect 18 0 17 1;#P connect 31 0 30 0;#P connect 30 0 29 0;#P connect 24 0 23 0;#P connect 23 0 17 2;#P connect 8 0 7 0;#P connect 7 0 9 0;#P connect 9 0 6 0;#P connect 6 0 5 0;#P connect 4 0 6 1;#P connect 34 0 33 0;#P connect 33 0 32 0;#P pop;