max v2;#N vpatcher 89 236 644 564;#P origin 0 -4;#P window setfont "Sans Serif" 9.;#P newex 54 266 97 196617 s $1-out;#B color 13;#P newex 53 21 97 196617 r $1-in;#B color 13;#P toggle 419 118 15 0;#P newex 419 78 67 196617 loadmess $2;#P newex 419 98 31 196617 == 0;#P newex 419 137 38 196617 gate 1;#P newex 419 157 80 196617 s $1-init;#B color 11;#P newex 447 117 70 196617 r camtrk-init;#B color 11;#P window setfont Times 9.;#P window linecount 2;#P comment 322 200 136 1310729 arg 1 : prefix name \; arg 2 : disable global init (1/0);#P window setfont "Sans Serif" 9.;#P window linecount 1;#P newex 114 205 64 196617 linefog 0 40;#B color 5;#P newex 114 184 115 196617 r $1-offset;#B color 11;#P newex 74 158 64 196617 linefog 0 40;#B color 5;#P newex 74 137 115 196617 r $1-gain;#B color 11;#P newex 264 86 80 196617 r $1-init;#B color 11;#P window linecount 4;#P message 264 112 142 196617 \; $1-sw 0 \; $1-gain 1. \; $1-offset 0. \;;#P toggle 140 66 15 0;#P window linecount 1;#P newex 140 84 31 196617 == 0;#P newex 140 46 97 196617 r $1-sw;#B color 11;#P message 140 104 55 196617 bypass \$1;#P newex 34 236 90 196617 v.*;#P window setfont "Sans Serif" 24.;#P comment 229 237 43 196632 v.*;#N comlet vns stream out;#P outlet 34 267 15 0;#N comlet vns stream in;#P inlet 34 23 15 0;#P connect 0 0 3 0;#P fasten 21 0 3 0 58 56 39 56;#P fasten 4 0 3 0 145 127 39 127;#P connect 3 0 1 0;#P connect 3 0 22 0;#P connect 10 0 11 0;#P connect 11 0 3 1;#P connect 12 0 13 0;#P connect 13 0 3 2;#P connect 5 0 7 0;#P connect 7 0 6 0;#P connect 6 0 4 0;#P connect 9 0 8 0;#P connect 19 0 18 0;#P connect 18 0 20 0;#P connect 20 0 17 0;#P connect 17 0 16 0;#P connect 15 0 17 1;#P pop;