max v2;#N vpatcher 485 44 931 300;#P window setfont "Sans Serif" 9.;#P window linecount 2;#P comment 293 185 107 196617 patch by Tom Mays contact@tommays.net;#P comment 276 43 124 196617 arg 1 : module name \; arg 2 : show "more" 1/0;#P window linecount 1;#P comment 276 26 100 196617 panel = 256 X 62;#P window setfont Times 9.;#P comment 27 23 41 1310729 contrast;#P flonum 63 23 30 9 -100. 100. 3 20 0 0 0 221 221 221 222 222 222 0 0 0;#P objectname contrast;#P window setfont "Sans Serif" 9.;#N thispatcher;#Q end;#P newobj 0 75 61 196617 thispatcher;#P newex 23 139 176 196617 param $1-contrast $1 f -100 100 1;#P newex 23 120 72 196617 pvar contrast;#P comment 276 9 118 196617 <- name = "background";#P bpatcher 0 0 256 62 0 0 ct_vbackground.mxt 0 $1;#P objectname background;#P hidden connect 0 0 4 0;#P fasten 3 0 2 0 28 158 20 158 20 118 28 118;#P connect 2 0 3 0;#P pop;