max v2;#N vpatcher 532 152 1022 607;#P window setfont "Sans Serif" 9.;#P newex 16 148 50 196617 deferlow;#P newex 16 167 147 196617 s $1/init/done;#B color 11;#P newex 68 329 162 196617 s $1/from/sw;#P newex 68 307 162 196617 r $1/sw;#P window linecount 2;#P message 286 32 98 196617 \; $1/init bang;#P window linecount 4;#P message 315 88 117 196617 \; $1/sw/init bang \; $1/from/init bang \; $1/to/init bang \;;#P window linecount 1;#P newex 68 281 289 196617 makeswitch $1/sw $1 /common_switchstate 0;#B color 5;#P button 68 99 15 0;#N qlist;#X append $1/from/port 44012 \; $1/to/port 44011 \; $1/to/host 127.0.0.1 \; $1/ch.1/cntrd/x/init bang \; $1/ch.1/cntrd/y/init bang \; $1/ch.1/bnds/top/init bang \;;#X append $1/ch.1/bnds/bot/init bang \; $1/ch.1/bnds/left/init bang \; $1/ch.1/bnds/right/init bang \; $1/ch.1/bnds/delta/x/init bang \; $1/ch.1/bnds/delta/y/init bang \; $1/ch.1/bnds/surface/init bang \;;#X append $1/ch.1/bnds/center/h/init bang \; $1/ch.1/bnds/center/v/init bang \; $1/ch.1/sum/val/init bang \; $1/ch.1/sum/valn/init bang \; $1/ch.1/regions.1/totalmotion/init bang \; $1/ch.1/regions.1/motionlist/init bang \;;#X append $1/ch.1/regions.1/motionlistn/init bang \; $1/ch.1/regions.1/centerslist/init bang \; $1/ch.1/regions.1/sortedlist/init bang \; $1/ch.1/regions.2/totalmotion/init bang \; $1/ch.1/regions.2/motionlist/init bang \; $1/ch.1/regions.2/motionlistn/init bang \;;#X append $1/ch.1/regions.2/centerslist/init bang \; $1/ch.1/regions.2/sortedlist/init bang \; $1/ch.2/cntrd/x/init bang \; $1/ch.2/cntrd/y/init bang \; $1/ch.2/bnds/top/init bang \; $1/ch.2/bnds/bot/init bang \;;#X append $1/ch.2/bnds/left/init bang \; $1/ch.2/bnds/right/init bang \; $1/ch.2/bnds/delta/x/init bang \; $1/ch.2/bnds/delta/y/init bang \; $1/ch.2/bnds/surface/init bang \; $1/ch.2/bnds/center/h/init bang \;;#X append $1/ch.2/bnds/center/v/init bang \; $1/ch.2/sum/val/init bang \; $1/ch.2/sum/valn/init bang \; $1/ch.2/regions.1/totalmotion/init bang \; $1/ch.2/regions.1/motionlist/init bang \; $1/ch.2/regions.1/motionlistn/init bang \;;#X append $1/ch.2/regions.1/centerslist/init bang \; $1/ch.2/regions.1/sortedlist/init bang \; $1/ch.2/regions.2/totalmotion/init bang \; $1/ch.2/regions.2/motionlist/init bang \; $1/ch.2/regions.2/motionlistn/init bang \; $1/ch.2/regions.2/centerslist/init bang \;;#X append $1/ch.2/regions.2/sortedlist/init bang \; $1/ch.3/cntrd/x/init bang \; $1/ch.3/cntrd/y/init bang \; $1/ch.3/bnds/top/init bang \; $1/ch.3/bnds/bot/init bang \; $1/ch.3/bnds/left/init bang \;;#X append $1/ch.3/bnds/right/init bang \; $1/ch.3/bnds/delta/x/init bang \; $1/ch.3/bnds/delta/y/init bang \; $1/ch.3/bnds/surface/init bang \; $1/ch.3/bnds/center/h/init bang \; $1/ch.3/bnds/center/v/init bang \;;#X append $1/ch.3/sum/val/init bang \; $1/ch.3/sum/valn/init bang \; $1/ch.3/regions.1/totalmotion/init bang \; $1/ch.3/regions.1/motionlist/init bang \; $1/ch.3/regions.1/motionlistn/init bang \; $1/ch.3/regions.1/centerslist/init bang \;;#X append $1/ch.3/regions.1/sortedlist/init bang \; $1/ch.3/regions.2/totalmotion/init bang \; $1/ch.3/regions.2/motionlist/init bang \; $1/ch.3/regions.2/motionlistn/init bang \; $1/ch.3/regions.2/centerslist/init bang \; $1/ch.3/regions.2/sortedlist/init bang \;;#X append $1/ch.4/cntrd/x/init bang \; $1/ch.4/cntrd/y/init bang \; $1/ch.4/bnds/top/init bang \; $1/ch.4/bnds/bot/init bang \; $1/ch.4/bnds/left/init bang \; $1/ch.4/bnds/right/init bang \;;#X append $1/ch.4/bnds/delta/x/init bang \; $1/ch.4/bnds/delta/y/init bang \; $1/ch.4/bnds/surface/init bang \; $1/ch.4/bnds/center/h/init bang \; $1/ch.4/bnds/center/v/init bang \; $1/ch.4/sum/val/init bang \;;#X append $1/ch.4/sum/valn/init bang \; $1/ch.4/regions.1/totalmotion/init bang \; $1/ch.4/regions.1/motionlist/init bang \; $1/ch.4/regions.1/motionlistn/init bang \; $1/ch.4/regions.1/centerslist/init bang \; $1/ch.4/regions.1/sortedlist/init bang \;;#X append $1/ch.4/regions.2/totalmotion/init bang \; $1/ch.4/regions.2/motionlist/init bang \; $1/ch.4/regions.2/motionlistn/init bang \; $1/ch.4/regions.2/centerslist/init bang \; $1/ch.4/regions.2/sortedlist/init bang \; module_register/store $1 \;;#X append control_register/store $1 \;;#P newobj 68 121 40 196617 qlist;#B color 14;#P window setfont "Sans Serif" 18.;#N vpatcher 549 44 1013 820;#P origin 10 187;#P window setfont "Sans Serif" 9.;#P window linecount 1;#P newex 1510 791 302 196617 rsr /ch.4/regions.2/sortedlist $1/sw;#B color 11;#P newex 1510 811 418 196617 makecontrol $1/ch.4/regions.2/sortedlist $1 f 0 1 /common;#B color 5;#P newex 1510 751 302 196617 rsr /ch.4/regions.2/centerslist $1/sw;#B color 11;#P newex 1510 771 418 196617 makecontrol $1/ch.4/regions.2/centerslist $1 f 0 1 /common;#B color 5;#P newex 1510 711 302 196617 rsr /ch.4/regions.2/motionlistn $1/sw;#B color 11;#P newex 1510 731 418 196617 makecontrol $1/ch.4/regions.2/motionlistn $1 f 0 1 /common;#B color 5;#P newex 1510 670 302 196617 rsr /ch.4/regions.2/motionlist $1/sw;#B color 11;#P newex 1510 690 418 196617 makecontrol $1/ch.4/regions.2/motionlist $1 f 0 1 /common;#B color 5;#P newex 1510 630 302 196617 rsr /ch.4/regions.2/totalmotion $1/sw;#B color 11;#P newex 1510 650 418 196617 makecontrol $1/ch.4/regions.2/totalmotion $1 f 0 1 /common;#B color 5;#P newex 1013 791 302 196617 rsr /ch.3/regions.2/sortedlist $1/sw;#B color 11;#P newex 1013 811 418 196617 makecontrol $1/ch.3/regions.2/sortedlist $1 f 0 1 /common;#B color 5;#P newex 1013 751 302 196617 rsr /ch.3/regions.2/centerslist $1/sw;#B color 11;#P newex 1013 771 418 196617 makecontrol $1/ch.3/regions.2/centerslist $1 f 0 1 /common;#B color 5;#P newex 1013 711 302 196617 rsr /ch.3/regions.2/motionlistn $1/sw;#B color 11;#P newex 1013 731 418 196617 makecontrol $1/ch.3/regions.2/motionlistn $1 f 0 1 /common;#B color 5;#P newex 1013 670 302 196617 rsr /ch.3/regions.2/motionlist $1/sw;#B color 11;#P newex 1013 690 418 196617 makecontrol $1/ch.3/regions.2/motionlist $1 f 0 1 /common;#B color 5;#P newex 1013 630 302 196617 rsr /ch.3/regions.2/totalmotion $1/sw;#B color 11;#P newex 1013 650 418 196617 makecontrol $1/ch.3/regions.2/totalmotion $1 f 0 1 /common;#B color 5;#P newex 512 791 302 196617 rsr /ch.2/regions.2/sortedlist $1/sw;#B color 11;#P newex 512 811 418 196617 makecontrol $1/ch.2/regions.2/sortedlist $1 f 0 1 /common;#B color 5;#P newex 512 751 302 196617 rsr /ch.2/regions.2/centerslist $1/sw;#B color 11;#P newex 512 771 418 196617 makecontrol $1/ch.2/regions.2/centerslist $1 f 0 1 /common;#B color 5;#P newex 512 711 302 196617 rsr /ch.2/regions.2/motionlistn $1/sw;#B color 11;#P newex 512 731 418 196617 makecontrol $1/ch.2/regions.2/motionlistn $1 f 0 1 /common;#B color 5;#P newex 512 670 302 196617 rsr /ch.2/regions.2/motionlist $1/sw;#B color 11;#P newex 512 690 418 196617 makecontrol $1/ch.2/regions.2/motionlist $1 f 0 1 /common;#B color 5;#P newex 512 630 302 196617 rsr /ch.2/regions.2/totalmotion $1/sw;#B color 11;#P newex 512 650 418 196617 makecontrol $1/ch.2/regions.2/totalmotion $1 f 0 1 /common;#B color 5;#P newex 8 792 302 196617 rsr /ch.1/regions.2/sortedlist $1/sw;#B color 11;#P newex 8 812 418 196617 makecontrol $1/ch.1/regions.2/sortedlist $1 f 0 1 /common;#B color 5;#P newex 8 752 302 196617 rsr /ch.1/regions.2/centerslist $1/sw;#B color 11;#P newex 8 772 418 196617 makecontrol $1/ch.1/regions.2/centerslist $1 f 0 1 /common;#B color 5;#P newex 8 712 302 196617 rsr /ch.1/regions.2/motionlistn $1/sw;#B color 11;#P newex 8 732 418 196617 makecontrol $1/ch.1/regions.2/motionlistn $1 f 0 1 /common;#B color 5;#P newex 8 671 302 196617 rsr /ch.1/regions.2/motionlist $1/sw;#B color 11;#P newex 8 691 418 196617 makecontrol $1/ch.1/regions.2/motionlist $1 f 0 1 /common;#B color 5;#P newex 8 631 302 196617 rsr /ch.1/regions.2/totalmotion $1/sw;#B color 11;#P newex 8 651 418 196617 makecontrol $1/ch.1/regions.2/totalmotion $1 f 0 1 /common;#B color 5;#P window linecount 0;#P comment 1 833 100 196617;#P comment 1850 848 100 196617;#P window linecount 1;#P newex 512 590 302 196617 rsr /ch.2/regions.1/sortedlist $1/sw;#B color 11;#P newex 512 610 418 196617 makecontrol $1/ch.2/regions.1/sortedlist $1 f 0 1 /common;#B color 5;#P newex 512 550 302 196617 rsr /ch.2/regions.1/centerslist $1/sw;#B color 11;#P newex 512 570 418 196617 makecontrol $1/ch.2/regions.1/centerslist $1 f 0 1 /common;#B color 5;#P newex 512 510 302 196617 rsr /ch.2/regions.1/motionlistn $1/sw;#B color 11;#P newex 512 530 418 196617 makecontrol $1/ch.2/regions.1/motionlistn $1 f 0 1 /common;#B color 5;#P newex 512 469 302 196617 rsr /ch.2/regions.1/motionlist $1/sw;#B color 11;#P newex 512 489 418 196617 makecontrol $1/ch.2/regions.1/motionlist $1 f 0 1 /common;#B color 5;#P newex 512 429 302 196617 rsr /ch.2/regions.1/totalmotion $1/sw;#B color 11;#P newex 512 449 418 196617 makecontrol $1/ch.2/regions.1/totalmotion $1 f 0 1 /common;#B color 5;#P newex 512 388 302 196617 rsr /ch.2/sum/valn $1/sw;#B color 11;#P newex 512 408 418 196617 makecontrol $1/ch.2/sum/valn $1 f 0 1 /common;#B color 5;#P newex 512 348 302 196617 rsr /ch.2/sum/val $1/sw;#B color 11;#P newex 512 368 418 196617 makecontrol $1/ch.2/sum/val $1 f 0 1 /common;#B color 5;#P newex 512 308 302 196617 rsr /ch.2/bnds/center/v $1/sw;#B color 11;#P newex 512 328 418 196617 makecontrol $1/ch.2/bnds/center/v $1 f 0 1 /common;#B color 5;#P newex 512 267 302 196617 rsr /ch.2/bnds/center/h $1/sw;#B color 11;#P newex 512 287 418 196617 makecontrol $1/ch.2/bnds/center/h $1 f 0 1 /common;#B color 5;#P newex 512 226 302 196617 rsr /ch.2/bnds/surface $1/sw;#B color 11;#P newex 512 246 418 196617 makecontrol $1/ch.2/bnds/surface $1 f 0 1 /common;#B color 5;#P newex 512 185 302 196617 rsr /ch.2/bnds/delta/y $1/sw;#B color 11;#P newex 512 205 418 196617 makecontrol $1/ch.2/bnds/delta/y $1 f 0 1 /common;#B color 5;#P newex 512 144 302 196617 rsr /ch.2/bnds/delta/x $1/sw;#B color 11;#P newex 512 164 418 196617 makecontrol $1/ch.2/bnds/delta/x $1 f 0 1 /common;#B color 5;#P newex 512 103 302 196617 rsr /ch.2/bnds/right $1/sw;#B color 11;#P newex 512 123 418 196617 makecontrol $1/ch.2/bnds/right $1 f 0 1 /common;#B color 5;#P newex 512 63 302 196617 rsr /ch.2/bnds/left $1/sw;#B color 11;#P newex 512 83 418 196617 makecontrol $1/ch.2/bnds/left $1 f 0 1 /common;#B color 5;#P newex 512 23 302 196617 rsr /ch.2/bnds/bot $1/sw;#B color 11;#P newex 512 43 418 196617 makecontrol $1/ch.2/bnds/bot $1 f 0 1 /common;#B color 5;#P newex 512 -17 302 196617 rsr /ch.2/bnds/top $1/sw;#B color 11;#P newex 512 3 418 196617 makecontrol $1/ch.2/bnds/top $1 f 0 1 /common;#B color 5;#P newex 512 -59 302 196617 rsr /ch.2/cntrd/y $1/sw;#B color 11;#P newex 512 -39 418 196617 makecontrol $1/ch.2/cntrd/y $1 f 0 1 /common;#B color 5;#P newex 512 -100 302 196617 rsr /ch.2/cntrd/x $1/sw;#B color 11;#P newex 512 -80 418 196617 makecontrol $1/ch.2/cntrd/x $1 f 0 1 /common;#B color 5;#P newex 1013 590 302 196617 rsr /ch.3/regions.1/sortedlist $1/sw;#B color 11;#P newex 1013 610 418 196617 makecontrol $1/ch.3/regions.1/sortedlist $1 f 0 1 /common;#B color 5;#P newex 1013 550 302 196617 rsr /ch.3/regions.1/centerslist $1/sw;#B color 11;#P newex 1013 570 418 196617 makecontrol $1/ch.3/regions.1/centerslist $1 f 0 1 /common;#B color 5;#P newex 1013 510 302 196617 rsr /ch.3/regions.1/motionlistn $1/sw;#B color 11;#P newex 1013 530 418 196617 makecontrol $1/ch.3/regions.1/motionlistn $1 f 0 1 /common;#B color 5;#P newex 1013 469 302 196617 rsr /ch.3/regions.1/motionlist $1/sw;#B color 11;#P newex 1013 489 418 196617 makecontrol $1/ch.3/regions.1/motionlist $1 f 0 1 /common;#B color 5;#P newex 1013 429 302 196617 rsr /ch.3/regions.1/totalmotion $1/sw;#B color 11;#P newex 1013 449 418 196617 makecontrol $1/ch.3/regions.1/totalmotion $1 f 0 1 /common;#B color 5;#P newex 1013 388 302 196617 rsr /ch.3/sum/valn $1/sw;#B color 11;#P newex 1013 408 418 196617 makecontrol $1/ch.3/sum/valn $1 f 0 1 /common;#B color 5;#P newex 1013 348 302 196617 rsr /ch.3/sum/val $1/sw;#B color 11;#P newex 1013 368 418 196617 makecontrol $1/ch.3/sum/val $1 f 0 1 /common;#B color 5;#P newex 1013 308 302 196617 rsr /ch.3/bnds/center/v $1/sw;#B color 11;#P newex 1013 328 418 196617 makecontrol $1/ch.3/bnds/center/v $1 f 0 1 /common;#B color 5;#P newex 1013 267 302 196617 rsr /ch.3/bnds/center/h $1/sw;#B color 11;#P newex 1013 287 418 196617 makecontrol $1/ch.3/bnds/center/h $1 f 0 1 /common;#B color 5;#P newex 1013 226 302 196617 rsr /ch.3/bnds/surface $1/sw;#B color 11;#P newex 1013 246 418 196617 makecontrol $1/ch.3/bnds/surface $1 f 0 1 /common;#B color 5;#P newex 1013 185 302 196617 rsr /ch.3/bnds/delta/y $1/sw;#B color 11;#P newex 1013 205 418 196617 makecontrol $1/ch.3/bnds/delta/y $1 f 0 1 /common;#B color 5;#P newex 1013 144 302 196617 rsr /ch.3/bnds/delta/x $1/sw;#B color 11;#P newex 1013 164 418 196617 makecontrol $1/ch.3/bnds/delta/x $1 f 0 1 /common;#B color 5;#P newex 1013 103 302 196617 rsr /ch.3/bnds/right $1/sw;#B color 11;#P newex 1013 123 418 196617 makecontrol $1/ch.3/bnds/right $1 f 0 1 /common;#B color 5;#P newex 1013 63 302 196617 rsr /ch.3/bnds/left $1/sw;#B color 11;#P newex 1013 83 418 196617 makecontrol $1/ch.3/bnds/left $1 f 0 1 /common;#B color 5;#P newex 1013 23 302 196617 rsr /ch.3/bnds/bot $1/sw;#B color 11;#P newex 1013 43 418 196617 makecontrol $1/ch.3/bnds/bot $1 f 0 1 /common;#B color 5;#P newex 1013 -17 302 196617 rsr /ch.3/bnds/top $1/sw;#B color 11;#P newex 1013 3 418 196617 makecontrol $1/ch.3/bnds/top $1 f 0 1 /common;#B color 5;#P newex 1013 -59 302 196617 rsr /ch.3/cntrd/y $1/sw;#B color 11;#P newex 1013 -39 418 196617 makecontrol $1/ch.3/cntrd/y $1 f 0 1 /common;#B color 5;#P newex 1013 -100 302 196617 rsr /ch.3/cntrd/x $1/sw;#B color 11;#P newex 1013 -80 418 196617 makecontrol $1/ch.3/cntrd/x $1 f 0 1 /common;#B color 5;#P newex 1510 590 302 196617 rsr /ch.4/regions.1/sortedlist $1/sw;#B color 11;#P newex 1510 610 418 196617 makecontrol $1/ch.4/regions.1/sortedlist $1 f 0 1 /common;#B color 5;#P newex 1510 550 302 196617 rsr /ch.4/regions.1/centerslist $1/sw;#B color 11;#P newex 1510 570 418 196617 makecontrol $1/ch.4/regions.1/centerslist $1 f 0 1 /common;#B color 5;#P newex 1510 510 302 196617 rsr /ch.4/regions.1/motionlistn $1/sw;#B color 11;#P newex 1510 530 418 196617 makecontrol $1/ch.4/regions.1/motionlistn $1 f 0 1 /common;#B color 5;#P newex 1510 469 302 196617 rsr /ch.4/regions.1/motionlist $1/sw;#B color 11;#P newex 1510 489 418 196617 makecontrol $1/ch.4/regions.1/motionlist $1 f 0 1 /common;#B color 5;#P newex 1510 429 302 196617 rsr /ch.4/regions.1/totalmotion $1/sw;#B color 11;#P newex 1510 449 418 196617 makecontrol $1/ch.4/regions.1/totalmotion $1 f 0 1 /common;#B color 5;#P newex 1510 388 302 196617 rsr /ch.4/sum/valn $1/sw;#B color 11;#P newex 1510 408 418 196617 makecontrol $1/ch.4/sum/valn $1 f 0 1 /common;#B color 5;#P newex 1510 348 302 196617 rsr /ch.4/sum/val $1/sw;#B color 11;#P newex 1510 368 418 196617 makecontrol $1/ch.4/sum/val $1 f 0 1 /common;#B color 5;#P newex 1510 308 302 196617 rsr /ch.4/bnds/center/v $1/sw;#B color 11;#P newex 1510 328 418 196617 makecontrol $1/ch.4/bnds/center/v $1 f 0 1 /common;#B color 5;#P newex 1510 267 302 196617 rsr /ch.4/bnds/center/h $1/sw;#B color 11;#P newex 1510 287 418 196617 makecontrol $1/ch.4/bnds/center/h $1 f 0 1 /common;#B color 5;#P newex 1510 226 302 196617 rsr /ch.4/bnds/surface $1/sw;#B color 11;#P newex 1510 246 418 196617 makecontrol $1/ch.4/bnds/surface $1 f 0 1 /common;#B color 5;#P newex 1510 185 302 196617 rsr /ch.4/bnds/delta/y $1/sw;#B color 11;#P newex 1510 205 418 196617 makecontrol $1/ch.4/bnds/delta/y $1 f 0 1 /common;#B color 5;#P newex 1510 144 302 196617 rsr /ch.4/bnds/delta/x $1/sw;#B color 11;#P newex 1510 164 418 196617 makecontrol $1/ch.4/bnds/delta/x $1 f 0 1 /common;#B color 5;#P newex 1510 103 302 196617 rsr /ch.4/bnds/right $1/sw;#B color 11;#P newex 1510 123 418 196617 makecontrol $1/ch.4/bnds/right $1 f 0 1 /common;#B color 5;#P newex 1510 63 302 196617 rsr /ch.4/bnds/left $1/sw;#B color 11;#P newex 1510 83 418 196617 makecontrol $1/ch.4/bnds/left $1 f 0 1 /common;#B color 5;#P newex 1510 23 302 196617 rsr /ch.4/bnds/bot $1/sw;#B color 11;#P newex 1510 43 418 196617 makecontrol $1/ch.4/bnds/bot $1 f 0 1 /common;#B color 5;#P newex 1510 -17 302 196617 rsr /ch.4/bnds/top $1/sw;#B color 11;#P newex 1510 3 418 196617 makecontrol $1/ch.4/bnds/top $1 f 0 1 /common;#B color 5;#P newex 1510 -59 302 196617 rsr /ch.4/cntrd/y $1/sw;#B color 11;#P newex 1510 -39 418 196617 makecontrol $1/ch.4/cntrd/y $1 f 0 1 /common;#B color 5;#P newex 1510 -100 302 196617 rsr /ch.4/cntrd/x $1/sw;#B color 11;#P newex 1510 -80 418 196617 makecontrol $1/ch.4/cntrd/x $1 f 0 1 /common;#B color 5;#P window linecount 0;#P comment 1850 -117 100 196617;#P window linecount 1;#P newex 8 590 302 196617 rsr /ch.1/regions.1/sortedlist $1/sw;#B color 11;#P newex 8 610 418 196617 makecontrol $1/ch.1/regions.1/sortedlist $1 f 0 1 /common;#B color 5;#P newex 8 550 302 196617 rsr /ch.1/regions.1/centerslist $1/sw;#B color 11;#P newex 8 570 418 196617 makecontrol $1/ch.1/regions.1/centerslist $1 f 0 1 /common;#B color 5;#P newex 8 510 302 196617 rsr /ch.1/regions.1/motionlistn $1/sw;#B color 11;#P newex 8 530 418 196617 makecontrol $1/ch.1/regions.1/motionlistn $1 f 0 1 /common;#B color 5;#P newex 8 469 302 196617 rsr /ch.1/regions.1/motionlist $1/sw;#B color 11;#P newex 8 489 418 196617 makecontrol $1/ch.1/regions.1/motionlist $1 f 0 1 /common;#B color 5;#P newex 8 429 302 196617 rsr /ch.1/regions.1/totalmotion $1/sw;#B color 11;#P newex 8 449 418 196617 makecontrol $1/ch.1/regions.1/totalmotion $1 f 0 1 /common;#B color 5;#P newex 8 388 302 196617 rsr /ch.1/sum/valn $1/sw;#B color 11;#P newex 8 408 418 196617 makecontrol $1/ch.1/sum/valn $1 f 0 1 /common;#B color 5;#P newex 8 348 302 196617 rsr /ch.1/sum/val $1/sw;#B color 11;#P newex 8 368 418 196617 makecontrol $1/ch.1/sum/val $1 f 0 1 /common;#B color 5;#P newex 8 308 302 196617 rsr /ch.1/bnds/center/v $1/sw;#B color 11;#P newex 8 328 418 196617 makecontrol $1/ch.1/bnds/center/v $1 f 0 1 /common;#B color 5;#P newex 8 267 302 196617 rsr /ch.1/bnds/center/h $1/sw;#B color 11;#P newex 8 287 418 196617 makecontrol $1/ch.1/bnds/center/h $1 f 0 1 /common;#B color 5;#P newex 8 226 302 196617 rsr /ch.1/bnds/surface $1/sw;#B color 11;#P newex 8 246 418 196617 makecontrol $1/ch.1/bnds/surface $1 f 0 1 /common;#B color 5;#P newex 8 185 302 196617 rsr /ch.1/bnds/delta/y $1/sw;#B color 11;#P newex 8 205 418 196617 makecontrol $1/ch.1/bnds/delta/y $1 f 0 1 /common;#B color 5;#P newex 8 144 302 196617 rsr /ch.1/bnds/delta/x $1/sw;#B color 11;#P newex 8 164 418 196617 makecontrol $1/ch.1/bnds/delta/x $1 f 0 1 /common;#B color 5;#P newex 8 103 302 196617 rsr /ch.1/bnds/right $1/sw;#B color 11;#P newex 8 123 418 196617 makecontrol $1/ch.1/bnds/right $1 f 0 1 /common;#B color 5;#P newex 8 63 302 196617 rsr /ch.1/bnds/left $1/sw;#B color 11;#P newex 8 83 418 196617 makecontrol $1/ch.1/bnds/left $1 f 0 1 /common;#B color 5;#P newex 8 23 302 196617 rsr /ch.1/bnds/bot $1/sw;#B color 11;#P newex 8 43 418 196617 makecontrol $1/ch.1/bnds/bot $1 f 0 1 /common;#B color 5;#P newex 8 -17 302 196617 rsr /ch.1/bnds/top $1/sw;#B color 11;#P newex 8 3 418 196617 makecontrol $1/ch.1/bnds/top $1 f 0 1 /common;#B color 5;#P newex 8 -59 302 196617 rsr /ch.1/cntrd/y $1/sw;#B color 11;#P newex 8 -39 418 196617 makecontrol $1/ch.1/cntrd/y $1 f 0 1 /common;#B color 5;#P newex 8 -100 302 196617 rsr /ch.1/cntrd/x $1/sw;#B color 11;#P window linecount 0;#P newex 8 -80 418 196617 makecontrol $1/ch.1/cntrd/x $1 f 0 1 /common;#B color 5;#P comment 1 -117 100 196617;#P connect 2 0 1 0;#P connect 4 0 3 0;#P connect 6 0 5 0;#P connect 8 0 7 0;#P connect 10 0 9 0;#P connect 12 0 11 0;#P connect 14 0 13 0;#P connect 16 0 15 0;#P connect 18 0 17 0;#P connect 20 0 19 0;#P connect 22 0 21 0;#P connect 24 0 23 0;#P connect 26 0 25 0;#P connect 28 0 27 0;#P connect 30 0 29 0;#P connect 32 0 31 0;#P connect 34 0 33 0;#P connect 36 0 35 0;#P connect 149 0 148 0;#P connect 151 0 150 0;#P connect 153 0 152 0;#P connect 155 0 154 0;#P connect 157 0 156 0;#P connect 111 0 110 0;#P connect 113 0 112 0;#P connect 115 0 114 0;#P connect 117 0 116 0;#P connect 119 0 118 0;#P connect 121 0 120 0;#P connect 123 0 122 0;#P connect 125 0 124 0;#P connect 127 0 126 0;#P connect 129 0 128 0;#P connect 131 0 130 0;#P connect 133 0 132 0;#P connect 135 0 134 0;#P connect 137 0 136 0;#P connect 139 0 138 0;#P connect 141 0 140 0;#P connect 143 0 142 0;#P connect 145 0 144 0;#P connect 159 0 158 0;#P connect 161 0 160 0;#P connect 163 0 162 0;#P connect 165 0 164 0;#P connect 167 0 166 0;#P connect 75 0 74 0;#P connect 77 0 76 0;#P connect 79 0 78 0;#P connect 81 0 80 0;#P connect 83 0 82 0;#P connect 85 0 84 0;#P connect 87 0 86 0;#P connect 89 0 88 0;#P connect 91 0 90 0;#P connect 93 0 92 0;#P connect 95 0 94 0;#P connect 97 0 96 0;#P connect 99 0 98 0;#P connect 101 0 100 0;#P connect 103 0 102 0;#P connect 105 0 104 0;#P connect 107 0 106 0;#P connect 109 0 108 0;#P connect 169 0 168 0;#P connect 171 0 170 0;#P connect 173 0 172 0;#P connect 175 0 174 0;#P connect 177 0 176 0;#P connect 39 0 38 0;#P connect 41 0 40 0;#P connect 43 0 42 0;#P connect 45 0 44 0;#P connect 47 0 46 0;#P connect 49 0 48 0;#P connect 51 0 50 0;#P connect 53 0 52 0;#P connect 55 0 54 0;#P connect 57 0 56 0;#P connect 59 0 58 0;#P connect 61 0 60 0;#P connect 63 0 62 0;#P connect 65 0 64 0;#P connect 67 0 66 0;#P connect 69 0 68 0;#P connect 71 0 70 0;#P connect 73 0 72 0;#P connect 179 0 178 0;#P connect 181 0 180 0;#P connect 183 0 182 0;#P connect 185 0 184 0;#P connect 187 0 186 0;#P pop;#P newobj 68 203 145 196626 p makecontrols;#B color 6;#P window setfont "Sans Serif" 9.;#P newex 68 36 164 196617 r $1/init;#B color 11;#P window setfont "Sans Serif" 12.;#P newex 68 391 321 196620 udpsender- $1/to $1;#B color 6;#P button 68 57 15 0;#P newex 68 361 321 196620 udpreceiver- $1/from $1;#B color 6;#P window setfont "Sans Serif" 9.;#P comment 108 123 182 196617 <- this used to be ctc-initsequence.txt;#P connect 2 0 14 0;#P connect 14 0 13 0;#P connect 4 0 2 0;#P connect 2 0 7 0;#P connect 7 0 6 0;#P connect 11 0 12 0;#P fasten 2 0 9 0 73 80 320 80;#P pop;