max v2;#N vpatcher 532 152 1022 607;#P window setfont "Sans Serif" 9.;#P newex 16 148 50 196617 deferlow;#P newex 16 167 147 196617 s $1/init/done;#B color 11;#P newex 68 329 162 196617 s $1/from/sw;#P newex 68 307 162 196617 r $1/sw;#P window linecount 2;#P message 286 32 98 196617 \; $1/init bang;#P window linecount 4;#P message 315 88 117 196617 \; $1/sw/init bang \; $1/from/init bang \; $1/to/init bang \;;#P window linecount 1;#P newex 68 281 289 196617 makeswitch $1/sw $1 /common_switchstate 0;#B color 5;#P button 68 99 15 0;#N qlist;#X append $1/from/port 44012 \; $1/to/port 44011 \; $1/to/host 127.0.0.1 \; $1/ch.1/cntrd/x/init bang \; $1/ch.1/cntrd/y/init bang \; $1/ch.1/cntrd/az/init bang \;;#X append $1/ch.1/cntrd/dist/init bang \; $1/ch.1/bnds/top/init bang \; $1/ch.1/bnds/bot/init bang \; $1/ch.1/bnds/left/init bang \; $1/ch.1/bnds/right/init bang \; $1/ch.1/bnds/delta/x/init bang \;;#X append $1/ch.1/bnds/delta/y/init bang \; $1/ch.1/bnds/surface/init bang \; $1/ch.1/bnds/center/h/init bang \; $1/ch.1/bnds/center/v/init bang \; $1/ch.1/sum/val/init bang \; $1/ch.1/sum/valn/init bang \;;#X append $1/ch.1/regions.1/totalmotion/init bang \; $1/ch.1/regions.1/motionlist/init bang \; $1/ch.1/regions.1/motionlistn/init bang \; $1/ch.1/regions.1/centerslist/init bang \; $1/ch.1/regions.1/sortedlist/init bang \; $1/ch.1/regions.2/totalmotion/init bang \;;#X append $1/ch.1/regions.2/motionlist/init bang \; $1/ch.1/regions.2/motionlistn/init bang \; $1/ch.1/regions.2/centerslist/init bang \; $1/ch.1/regions.2/sortedlist/init bang \; $1/ch.2/cntrd/x/init bang \; $1/ch.2/cntrd/y/init bang \;;#X append $1/ch.2/cntrd/az/init bang \; $1/ch.2/cntrd/dist/init bang \; $1/ch.2/bnds/top/init bang \; $1/ch.2/bnds/bot/init bang \; $1/ch.2/bnds/left/init bang \; $1/ch.2/bnds/right/init bang \;;#X append $1/ch.2/bnds/delta/x/init bang \; $1/ch.2/bnds/delta/y/init bang \; $1/ch.2/bnds/surface/init bang \; $1/ch.2/bnds/center/h/init bang \; $1/ch.2/bnds/center/v/init bang \; $1/ch.2/sum/val/init bang \;;#X append $1/ch.2/sum/valn/init bang \; $1/ch.2/regions.1/totalmotion/init bang \; $1/ch.2/regions.1/motionlist/init bang \; $1/ch.2/regions.1/motionlistn/init bang \; $1/ch.2/regions.1/centerslist/init bang \; $1/ch.2/regions.1/sortedlist/init bang \;;#X append $1/ch.2/regions.2/totalmotion/init bang \; $1/ch.2/regions.2/motionlist/init bang \; $1/ch.2/regions.2/motionlistn/init bang \; $1/ch.2/regions.2/centerslist/init bang \; $1/ch.2/regions.2/sortedlist/init bang \; $1/ch.3/cntrd/x/init bang \;;#X append $1/ch.3/cntrd/y/init bang \; $1/ch.3/cntrd/az/init bang \; $1/ch.3/cntrd/dist/init bang \; $1/ch.3/bnds/top/init bang \; $1/ch.3/bnds/bot/init bang \; $1/ch.3/bnds/left/init bang \;;#X append $1/ch.3/bnds/right/init bang \; $1/ch.3/bnds/delta/x/init bang \; $1/ch.3/bnds/delta/y/init bang \; $1/ch.3/bnds/surface/init bang \; $1/ch.3/bnds/center/h/init bang \; $1/ch.3/bnds/center/v/init bang \;;#X append $1/ch.3/sum/val/init bang \; $1/ch.3/sum/valn/init bang \; $1/ch.3/regions.1/totalmotion/init bang \; $1/ch.3/regions.1/motionlist/init bang \; $1/ch.3/regions.1/motionlistn/init bang \; $1/ch.3/regions.1/centerslist/init bang \;;#X append $1/ch.3/regions.1/sortedlist/init bang \; $1/ch.3/regions.2/totalmotion/init bang \; $1/ch.3/regions.2/motionlist/init bang \; $1/ch.3/regions.2/motionlistn/init bang \; $1/ch.3/regions.2/centerslist/init bang \; $1/ch.3/regions.2/sortedlist/init bang \;;#X append $1/ch.4/cntrd/x/init bang \; $1/ch.4/cntrd/y/init bang \; $1/ch.4/cntrd/az/init bang \; $1/ch.4/cntrd/dist/init bang \; $1/ch.4/bnds/top/init bang \; $1/ch.4/bnds/bot/init bang \;;#X append $1/ch.4/bnds/left/init bang \; $1/ch.4/bnds/right/init bang \; $1/ch.4/bnds/delta/x/init bang \; $1/ch.4/bnds/delta/y/init bang \; $1/ch.4/bnds/surface/init bang \; $1/ch.4/bnds/center/h/init bang \;;#X append $1/ch.4/bnds/center/v/init bang \; $1/ch.4/sum/val/init bang \; $1/ch.4/sum/valn/init bang \; $1/ch.4/regions.1/totalmotion/init bang \; $1/ch.4/regions.1/motionlist/init bang \; $1/ch.4/regions.1/motionlistn/init bang \;;#X append $1/ch.4/regions.1/centerslist/init bang \; $1/ch.4/regions.1/sortedlist/init bang \; $1/ch.4/regions.2/totalmotion/init bang \; $1/ch.4/regions.2/motionlist/init bang \; $1/ch.4/regions.2/motionlistn/init bang \; $1/ch.4/regions.2/centerslist/init bang \;;#X append $1/ch.4/regions.2/sortedlist/init bang \; module_register/store $1 \; control_register/store $1 \;;#P newobj 68 121 40 196617 qlist;#B color 14;#P window setfont "Sans Serif" 18.;#N vpatcher 252 44 1336 900;#P origin 10 48;#P window setfont "Sans Serif" 9.;#P window linecount 1;#P newex 1510 161 302 196617 rsr /ch.4/cntrd/dist $1/sw;#B color 11;#P newex 1510 181 418 196617 makecontrol $1/ch.4/cntrd/dist $1 f -1.42 1.42 /common;#B color 5;#P newex 1510 120 302 196617 rsr /ch.4/cntrd/az $1/sw;#B color 11;#P newex 1510 140 418 196617 makecontrol $1/ch.4/cntrd/az $1 f -180 180 /common;#B color 5;#P newex 1013 161 302 196617 rsr /ch.3/cntrd/dist $1/sw;#B color 11;#P newex 1013 181 418 196617 makecontrol $1/ch.3/cntrd/dist $1 f -1.42 1.42 /common;#B color 5;#P newex 1013 120 302 196617 rsr /ch.3/cntrd/az $1/sw;#B color 11;#P newex 1013 140 418 196617 makecontrol $1/ch.3/cntrd/az $1 f -180 180 /common;#B color 5;#P newex 512 161 302 196617 rsr /ch.2/cntrd/dist $1/sw;#B color 11;#P newex 512 181 418 196617 makecontrol $1/ch.2/cntrd/dist $1 f -1.42 1.42 /common;#B color 5;#P newex 512 120 302 196617 rsr /ch.2/cntrd/az $1/sw;#B color 11;#P newex 512 140 418 196617 makecontrol $1/ch.2/cntrd/az $1 f -180 180 /common;#B color 5;#P newex 8 161 302 196617 rsr /ch.1/cntrd/dist $1/sw;#B color 11;#P newex 8 181 418 196617 makecontrol $1/ch.1/cntrd/dist $1 f -1.42 1.42 /common;#B color 5;#P newex 8 120 302 196617 rsr /ch.1/cntrd/az $1/sw;#B color 11;#P newex 8 140 418 196617 makecontrol $1/ch.1/cntrd/az $1 f -180 180 /common;#B color 5;#P newex 1510 1010 302 196617 rsr /ch.4/regions.2/sortedlist $1/sw;#B color 11;#P newex 1510 1030 418 196617 makecontrol $1/ch.4/regions.2/sortedlist $1 f 0 1 /common;#B color 5;#P newex 1510 970 302 196617 rsr /ch.4/regions.2/centerslist $1/sw;#B color 11;#P newex 1510 990 418 196617 makecontrol $1/ch.4/regions.2/centerslist $1 f 0 1 /common;#B color 5;#P newex 1510 930 302 196617 rsr /ch.4/regions.2/motionlistn $1/sw;#B color 11;#P newex 1510 950 418 196617 makecontrol $1/ch.4/regions.2/motionlistn $1 f 0 1 /common;#B color 5;#P newex 1510 889 302 196617 rsr /ch.4/regions.2/motionlist $1/sw;#B color 11;#P newex 1510 909 418 196617 makecontrol $1/ch.4/regions.2/motionlist $1 f 0 1 /common;#B color 5;#P newex 1510 849 302 196617 rsr /ch.4/regions.2/totalmotion $1/sw;#B color 11;#P newex 1510 869 418 196617 makecontrol $1/ch.4/regions.2/totalmotion $1 f 0 1 /common;#B color 5;#P newex 1013 1010 302 196617 rsr /ch.3/regions.2/sortedlist $1/sw;#B color 11;#P newex 1013 1030 418 196617 makecontrol $1/ch.3/regions.2/sortedlist $1 f 0 1 /common;#B color 5;#P newex 1013 970 302 196617 rsr /ch.3/regions.2/centerslist $1/sw;#B color 11;#P newex 1013 990 418 196617 makecontrol $1/ch.3/regions.2/centerslist $1 f 0 1 /common;#B color 5;#P newex 1013 930 302 196617 rsr /ch.3/regions.2/motionlistn $1/sw;#B color 11;#P newex 1013 950 418 196617 makecontrol $1/ch.3/regions.2/motionlistn $1 f 0 1 /common;#B color 5;#P newex 1013 889 302 196617 rsr /ch.3/regions.2/motionlist $1/sw;#B color 11;#P newex 1013 909 418 196617 makecontrol $1/ch.3/regions.2/motionlist $1 f 0 1 /common;#B color 5;#P newex 1013 849 302 196617 rsr /ch.3/regions.2/totalmotion $1/sw;#B color 11;#P newex 1013 869 418 196617 makecontrol $1/ch.3/regions.2/totalmotion $1 f 0 1 /common;#B color 5;#P newex 512 1010 302 196617 rsr /ch.2/regions.2/sortedlist $1/sw;#B color 11;#P newex 512 1030 418 196617 makecontrol $1/ch.2/regions.2/sortedlist $1 f 0 1 /common;#B color 5;#P newex 512 970 302 196617 rsr /ch.2/regions.2/centerslist $1/sw;#B color 11;#P newex 512 990 418 196617 makecontrol $1/ch.2/regions.2/centerslist $1 f 0 1 /common;#B color 5;#P newex 512 930 302 196617 rsr /ch.2/regions.2/motionlistn $1/sw;#B color 11;#P newex 512 950 418 196617 makecontrol $1/ch.2/regions.2/motionlistn $1 f 0 1 /common;#B color 5;#P newex 512 889 302 196617 rsr /ch.2/regions.2/motionlist $1/sw;#B color 11;#P newex 512 909 418 196617 makecontrol $1/ch.2/regions.2/motionlist $1 f 0 1 /common;#B color 5;#P newex 512 849 302 196617 rsr /ch.2/regions.2/totalmotion $1/sw;#B color 11;#P newex 512 869 418 196617 makecontrol $1/ch.2/regions.2/totalmotion $1 f 0 1 /common;#B color 5;#P newex 8 1011 302 196617 rsr /ch.1/regions.2/sortedlist $1/sw;#B color 11;#P newex 8 1031 418 196617 makecontrol $1/ch.1/regions.2/sortedlist $1 f 0 1 /common;#B color 5;#P newex 8 971 302 196617 rsr /ch.1/regions.2/centerslist $1/sw;#B color 11;#P newex 8 991 418 196617 makecontrol $1/ch.1/regions.2/centerslist $1 f 0 1 /common;#B color 5;#P newex 8 931 302 196617 rsr /ch.1/regions.2/motionlistn $1/sw;#B color 11;#P newex 8 951 418 196617 makecontrol $1/ch.1/regions.2/motionlistn $1 f 0 1 /common;#B color 5;#P newex 8 890 302 196617 rsr /ch.1/regions.2/motionlist $1/sw;#B color 11;#P newex 8 910 418 196617 makecontrol $1/ch.1/regions.2/motionlist $1 f 0 1 /common;#B color 5;#P newex 8 850 302 196617 rsr /ch.1/regions.2/totalmotion $1/sw;#B color 11;#P newex 8 870 418 196617 makecontrol $1/ch.1/regions.2/totalmotion $1 f 0 1 /common;#B color 5;#P window linecount 0;#P comment 1 1052 100 196617;#P comment 1850 1067 100 196617;#P window linecount 1;#P newex 512 809 302 196617 rsr /ch.2/regions.1/sortedlist $1/sw;#B color 11;#P newex 512 829 418 196617 makecontrol $1/ch.2/regions.1/sortedlist $1 f 0 1 /common;#B color 5;#P newex 512 769 302 196617 rsr /ch.2/regions.1/centerslist $1/sw;#B color 11;#P newex 512 789 418 196617 makecontrol $1/ch.2/regions.1/centerslist $1 f 0 1 /common;#B color 5;#P newex 512 729 302 196617 rsr /ch.2/regions.1/motionlistn $1/sw;#B color 11;#P newex 512 749 418 196617 makecontrol $1/ch.2/regions.1/motionlistn $1 f 0 1 /common;#B color 5;#P newex 512 688 302 196617 rsr /ch.2/regions.1/motionlist $1/sw;#B color 11;#P newex 512 708 418 196617 makecontrol $1/ch.2/regions.1/motionlist $1 f 0 1 /common;#B color 5;#P newex 512 648 302 196617 rsr /ch.2/regions.1/totalmotion $1/sw;#B color 11;#P newex 512 668 418 196617 makecontrol $1/ch.2/regions.1/totalmotion $1 f 0 1 /common;#B color 5;#P newex 512 607 302 196617 rsr /ch.2/sum/valn $1/sw;#B color 11;#P newex 512 627 418 196617 makecontrol $1/ch.2/sum/valn $1 f 0 1 /common;#B color 5;#P newex 512 567 302 196617 rsr /ch.2/sum/val $1/sw;#B color 11;#P newex 512 587 418 196617 makecontrol $1/ch.2/sum/val $1 f 0 1 /common;#B color 5;#P newex 512 527 302 196617 rsr /ch.2/bnds/center/v $1/sw;#B color 11;#P newex 512 547 418 196617 makecontrol $1/ch.2/bnds/center/v $1 f 0 1 /common;#B color 5;#P newex 512 486 302 196617 rsr /ch.2/bnds/center/h $1/sw;#B color 11;#P newex 512 506 418 196617 makecontrol $1/ch.2/bnds/center/h $1 f 0 1 /common;#B color 5;#P newex 512 445 302 196617 rsr /ch.2/bnds/surface $1/sw;#B color 11;#P newex 512 465 418 196617 makecontrol $1/ch.2/bnds/surface $1 f 0 1 /common;#B color 5;#P newex 512 404 302 196617 rsr /ch.2/bnds/delta/y $1/sw;#B color 11;#P newex 512 424 418 196617 makecontrol $1/ch.2/bnds/delta/y $1 f 0 1 /common;#B color 5;#P newex 512 363 302 196617 rsr /ch.2/bnds/delta/x $1/sw;#B color 11;#P newex 512 383 418 196617 makecontrol $1/ch.2/bnds/delta/x $1 f 0 1 /common;#B color 5;#P newex 512 322 302 196617 rsr /ch.2/bnds/right $1/sw;#B color 11;#P newex 512 342 418 196617 makecontrol $1/ch.2/bnds/right $1 f 0 1 /common;#B color 5;#P newex 512 282 302 196617 rsr /ch.2/bnds/left $1/sw;#B color 11;#P newex 512 302 418 196617 makecontrol $1/ch.2/bnds/left $1 f 0 1 /common;#B color 5;#P newex 512 242 302 196617 rsr /ch.2/bnds/bot $1/sw;#B color 11;#P newex 512 262 418 196617 makecontrol $1/ch.2/bnds/bot $1 f 0 1 /common;#B color 5;#P newex 512 202 302 196617 rsr /ch.2/bnds/top $1/sw;#B color 11;#P newex 512 222 418 196617 makecontrol $1/ch.2/bnds/top $1 f 0 1 /common;#B color 5;#P newex 512 80 302 196617 rsr /ch.2/cntrd/y $1/sw;#B color 11;#P newex 512 100 418 196617 makecontrol $1/ch.2/cntrd/y $1 f 0 1 /common;#B color 5;#P newex 512 39 302 196617 rsr /ch.2/cntrd/x $1/sw;#B color 11;#P newex 512 59 418 196617 makecontrol $1/ch.2/cntrd/x $1 f 0 1 /common;#B color 5;#P newex 1013 809 302 196617 rsr /ch.3/regions.1/sortedlist $1/sw;#B color 11;#P newex 1013 829 418 196617 makecontrol $1/ch.3/regions.1/sortedlist $1 f 0 1 /common;#B color 5;#P newex 1013 769 302 196617 rsr /ch.3/regions.1/centerslist $1/sw;#B color 11;#P newex 1013 789 418 196617 makecontrol $1/ch.3/regions.1/centerslist $1 f 0 1 /common;#B color 5;#P newex 1013 729 302 196617 rsr /ch.3/regions.1/motionlistn $1/sw;#B color 11;#P newex 1013 749 418 196617 makecontrol $1/ch.3/regions.1/motionlistn $1 f 0 1 /common;#B color 5;#P newex 1013 688 302 196617 rsr /ch.3/regions.1/motionlist $1/sw;#B color 11;#P newex 1013 708 418 196617 makecontrol $1/ch.3/regions.1/motionlist $1 f 0 1 /common;#B color 5;#P newex 1013 648 302 196617 rsr /ch.3/regions.1/totalmotion $1/sw;#B color 11;#P newex 1013 668 418 196617 makecontrol $1/ch.3/regions.1/totalmotion $1 f 0 1 /common;#B color 5;#P newex 1013 607 302 196617 rsr /ch.3/sum/valn $1/sw;#B color 11;#P newex 1013 627 418 196617 makecontrol $1/ch.3/sum/valn $1 f 0 1 /common;#B color 5;#P newex 1013 567 302 196617 rsr /ch.3/sum/val $1/sw;#B color 11;#P newex 1013 587 418 196617 makecontrol $1/ch.3/sum/val $1 f 0 1 /common;#B color 5;#P newex 1013 527 302 196617 rsr /ch.3/bnds/center/v $1/sw;#B color 11;#P newex 1013 547 418 196617 makecontrol $1/ch.3/bnds/center/v $1 f 0 1 /common;#B color 5;#P newex 1013 486 302 196617 rsr /ch.3/bnds/center/h $1/sw;#B color 11;#P newex 1013 506 418 196617 makecontrol $1/ch.3/bnds/center/h $1 f 0 1 /common;#B color 5;#P newex 1013 445 302 196617 rsr /ch.3/bnds/surface $1/sw;#B color 11;#P newex 1013 465 418 196617 makecontrol $1/ch.3/bnds/surface $1 f 0 1 /common;#B color 5;#P newex 1013 404 302 196617 rsr /ch.3/bnds/delta/y $1/sw;#B color 11;#P newex 1013 424 418 196617 makecontrol $1/ch.3/bnds/delta/y $1 f 0 1 /common;#B color 5;#P newex 1013 363 302 196617 rsr /ch.3/bnds/delta/x $1/sw;#B color 11;#P newex 1013 383 418 196617 makecontrol $1/ch.3/bnds/delta/x $1 f 0 1 /common;#B color 5;#P newex 1013 322 302 196617 rsr /ch.3/bnds/right $1/sw;#B color 11;#P newex 1013 342 418 196617 makecontrol $1/ch.3/bnds/right $1 f 0 1 /common;#B color 5;#P newex 1013 282 302 196617 rsr /ch.3/bnds/left $1/sw;#B color 11;#P newex 1013 302 418 196617 makecontrol $1/ch.3/bnds/left $1 f 0 1 /common;#B color 5;#P newex 1013 242 302 196617 rsr /ch.3/bnds/bot $1/sw;#B color 11;#P newex 1013 262 418 196617 makecontrol $1/ch.3/bnds/bot $1 f 0 1 /common;#B color 5;#P newex 1013 202 302 196617 rsr /ch.3/bnds/top $1/sw;#B color 11;#P newex 1013 222 418 196617 makecontrol $1/ch.3/bnds/top $1 f 0 1 /common;#B color 5;#P newex 1013 80 302 196617 rsr /ch.3/cntrd/y $1/sw;#B color 11;#P newex 1013 100 418 196617 makecontrol $1/ch.3/cntrd/y $1 f 0 1 /common;#B color 5;#P newex 1013 39 302 196617 rsr /ch.3/cntrd/x $1/sw;#B color 11;#P newex 1013 59 418 196617 makecontrol $1/ch.3/cntrd/x $1 f 0 1 /common;#B color 5;#P newex 1510 809 302 196617 rsr /ch.4/regions.1/sortedlist $1/sw;#B color 11;#P newex 1510 829 418 196617 makecontrol $1/ch.4/regions.1/sortedlist $1 f 0 1 /common;#B color 5;#P newex 1510 769 302 196617 rsr /ch.4/regions.1/centerslist $1/sw;#B color 11;#P newex 1510 789 418 196617 makecontrol $1/ch.4/regions.1/centerslist $1 f 0 1 /common;#B color 5;#P newex 1510 729 302 196617 rsr /ch.4/regions.1/motionlistn $1/sw;#B color 11;#P newex 1510 749 418 196617 makecontrol $1/ch.4/regions.1/motionlistn $1 f 0 1 /common;#B color 5;#P newex 1510 688 302 196617 rsr /ch.4/regions.1/motionlist $1/sw;#B color 11;#P newex 1510 708 418 196617 makecontrol $1/ch.4/regions.1/motionlist $1 f 0 1 /common;#B color 5;#P newex 1510 648 302 196617 rsr /ch.4/regions.1/totalmotion $1/sw;#B color 11;#P newex 1510 668 418 196617 makecontrol $1/ch.4/regions.1/totalmotion $1 f 0 1 /common;#B color 5;#P newex 1510 607 302 196617 rsr /ch.4/sum/valn $1/sw;#B color 11;#P newex 1510 627 418 196617 makecontrol $1/ch.4/sum/valn $1 f 0 1 /common;#B color 5;#P newex 1510 567 302 196617 rsr /ch.4/sum/val $1/sw;#B color 11;#P newex 1510 587 418 196617 makecontrol $1/ch.4/sum/val $1 f 0 1 /common;#B color 5;#P newex 1510 527 302 196617 rsr /ch.4/bnds/center/v $1/sw;#B color 11;#P newex 1510 547 418 196617 makecontrol $1/ch.4/bnds/center/v $1 f 0 1 /common;#B color 5;#P newex 1510 486 302 196617 rsr /ch.4/bnds/center/h $1/sw;#B color 11;#P newex 1510 506 418 196617 makecontrol $1/ch.4/bnds/center/h $1 f 0 1 /common;#B color 5;#P newex 1510 445 302 196617 rsr /ch.4/bnds/surface $1/sw;#B color 11;#P newex 1510 465 418 196617 makecontrol $1/ch.4/bnds/surface $1 f 0 1 /common;#B color 5;#P newex 1510 404 302 196617 rsr /ch.4/bnds/delta/y $1/sw;#B color 11;#P newex 1510 424 418 196617 makecontrol $1/ch.4/bnds/delta/y $1 f 0 1 /common;#B color 5;#P newex 1510 363 302 196617 rsr /ch.4/bnds/delta/x $1/sw;#B color 11;#P newex 1510 383 418 196617 makecontrol $1/ch.4/bnds/delta/x $1 f 0 1 /common;#B color 5;#P newex 1510 322 302 196617 rsr /ch.4/bnds/right $1/sw;#B color 11;#P newex 1510 342 418 196617 makecontrol $1/ch.4/bnds/right $1 f 0 1 /common;#B color 5;#P newex 1510 282 302 196617 rsr /ch.4/bnds/left $1/sw;#B color 11;#P newex 1510 302 418 196617 makecontrol $1/ch.4/bnds/left $1 f 0 1 /common;#B color 5;#P newex 1510 242 302 196617 rsr /ch.4/bnds/bot $1/sw;#B color 11;#P newex 1510 262 418 196617 makecontrol $1/ch.4/bnds/bot $1 f 0 1 /common;#B color 5;#P newex 1510 202 302 196617 rsr /ch.4/bnds/top $1/sw;#B color 11;#P newex 1510 222 418 196617 makecontrol $1/ch.4/bnds/top $1 f 0 1 /common;#B color 5;#P newex 1510 80 302 196617 rsr /ch.4/cntrd/y $1/sw;#B color 11;#P newex 1510 100 418 196617 makecontrol $1/ch.4/cntrd/y $1 f 0 1 /common;#B color 5;#P newex 1510 39 302 196617 rsr /ch.4/cntrd/x $1/sw;#B color 11;#P newex 1510 59 418 196617 makecontrol $1/ch.4/cntrd/x $1 f 0 1 /common;#B color 5;#P window linecount 0;#P comment 1850 22 100 196617;#P window linecount 1;#P newex 8 809 302 196617 rsr /ch.1/regions.1/sortedlist $1/sw;#B color 11;#P newex 8 829 418 196617 makecontrol $1/ch.1/regions.1/sortedlist $1 f 0 1 /common;#B color 5;#P newex 8 769 302 196617 rsr /ch.1/regions.1/centerslist $1/sw;#B color 11;#P newex 8 789 418 196617 makecontrol $1/ch.1/regions.1/centerslist $1 f 0 1 /common;#B color 5;#P newex 8 729 302 196617 rsr /ch.1/regions.1/motionlistn $1/sw;#B color 11;#P newex 8 749 418 196617 makecontrol $1/ch.1/regions.1/motionlistn $1 f 0 1 /common;#B color 5;#P newex 8 688 302 196617 rsr /ch.1/regions.1/motionlist $1/sw;#B color 11;#P newex 8 708 418 196617 makecontrol $1/ch.1/regions.1/motionlist $1 f 0 1 /common;#B color 5;#P newex 8 648 302 196617 rsr /ch.1/regions.1/totalmotion $1/sw;#B color 11;#P newex 8 668 418 196617 makecontrol $1/ch.1/regions.1/totalmotion $1 f 0 1 /common;#B color 5;#P newex 8 607 302 196617 rsr /ch.1/sum/valn $1/sw;#B color 11;#P newex 8 627 418 196617 makecontrol $1/ch.1/sum/valn $1 f 0 1 /common;#B color 5;#P newex 8 567 302 196617 rsr /ch.1/sum/val $1/sw;#B color 11;#P newex 8 587 418 196617 makecontrol $1/ch.1/sum/val $1 f 0 1 /common;#B color 5;#P newex 8 527 302 196617 rsr /ch.1/bnds/center/v $1/sw;#B color 11;#P newex 8 547 418 196617 makecontrol $1/ch.1/bnds/center/v $1 f 0 1 /common;#B color 5;#P newex 8 486 302 196617 rsr /ch.1/bnds/center/h $1/sw;#B color 11;#P newex 8 506 418 196617 makecontrol $1/ch.1/bnds/center/h $1 f 0 1 /common;#B color 5;#P newex 8 445 302 196617 rsr /ch.1/bnds/surface $1/sw;#B color 11;#P newex 8 465 418 196617 makecontrol $1/ch.1/bnds/surface $1 f 0 1 /common;#B color 5;#P newex 8 404 302 196617 rsr /ch.1/bnds/delta/y $1/sw;#B color 11;#P newex 8 424 418 196617 makecontrol $1/ch.1/bnds/delta/y $1 f 0 1 /common;#B color 5;#P newex 8 363 302 196617 rsr /ch.1/bnds/delta/x $1/sw;#B color 11;#P newex 8 383 418 196617 makecontrol $1/ch.1/bnds/delta/x $1 f 0 1 /common;#B color 5;#P newex 8 322 302 196617 rsr /ch.1/bnds/right $1/sw;#B color 11;#P newex 8 342 418 196617 makecontrol $1/ch.1/bnds/right $1 f 0 1 /common;#B color 5;#P newex 8 282 302 196617 rsr /ch.1/bnds/left $1/sw;#B color 11;#P newex 8 302 418 196617 makecontrol $1/ch.1/bnds/left $1 f 0 1 /common;#B color 5;#P newex 8 242 302 196617 rsr /ch.1/bnds/bot $1/sw;#B color 11;#P newex 8 262 418 196617 makecontrol $1/ch.1/bnds/bot $1 f 0 1 /common;#B color 5;#P newex 8 202 302 196617 rsr /ch.1/bnds/top $1/sw;#B color 11;#P newex 8 222 418 196617 makecontrol $1/ch.1/bnds/top $1 f 0 1 /common;#B color 5;#P newex 8 80 302 196617 rsr /ch.1/cntrd/y $1/sw;#B color 11;#P newex 8 100 418 196617 makecontrol $1/ch.1/cntrd/y $1 f 0 1 /common;#B color 5;#P newex 8 39 302 196617 rsr /ch.1/cntrd/x $1/sw;#B color 11;#P window linecount 0;#P newex 8 59 418 196617 makecontrol $1/ch.1/cntrd/x $1 f 0 1 /common;#B color 5;#P comment 1 22 100 196617;#P connect 2 0 1 0;#P connect 4 0 3 0;#P connect 189 0 188 0;#P connect 191 0 190 0;#P connect 6 0 5 0;#P connect 8 0 7 0;#P connect 10 0 9 0;#P connect 12 0 11 0;#P connect 14 0 13 0;#P connect 16 0 15 0;#P connect 18 0 17 0;#P connect 20 0 19 0;#P connect 22 0 21 0;#P connect 24 0 23 0;#P connect 26 0 25 0;#P connect 28 0 27 0;#P connect 30 0 29 0;#P connect 32 0 31 0;#P connect 34 0 33 0;#P connect 36 0 35 0;#P connect 149 0 148 0;#P connect 151 0 150 0;#P connect 153 0 152 0;#P connect 155 0 154 0;#P connect 157 0 156 0;#P connect 111 0 110 0;#P connect 113 0 112 0;#P connect 193 0 192 0;#P connect 195 0 194 0;#P connect 115 0 114 0;#P connect 117 0 116 0;#P connect 119 0 118 0;#P connect 121 0 120 0;#P connect 123 0 122 0;#P connect 125 0 124 0;#P connect 127 0 126 0;#P connect 129 0 128 0;#P connect 131 0 130 0;#P connect 133 0 132 0;#P connect 135 0 134 0;#P connect 137 0 136 0;#P connect 139 0 138 0;#P connect 141 0 140 0;#P connect 143 0 142 0;#P connect 145 0 144 0;#P connect 159 0 158 0;#P connect 161 0 160 0;#P connect 163 0 162 0;#P connect 165 0 164 0;#P connect 167 0 166 0;#P connect 75 0 74 0;#P connect 77 0 76 0;#P connect 197 0 196 0;#P connect 199 0 198 0;#P connect 79 0 78 0;#P connect 81 0 80 0;#P connect 83 0 82 0;#P connect 85 0 84 0;#P connect 87 0 86 0;#P connect 89 0 88 0;#P connect 91 0 90 0;#P connect 93 0 92 0;#P connect 95 0 94 0;#P connect 97 0 96 0;#P connect 99 0 98 0;#P connect 101 0 100 0;#P connect 103 0 102 0;#P connect 105 0 104 0;#P connect 107 0 106 0;#P connect 109 0 108 0;#P connect 169 0 168 0;#P connect 171 0 170 0;#P connect 173 0 172 0;#P connect 175 0 174 0;#P connect 177 0 176 0;#P connect 39 0 38 0;#P connect 41 0 40 0;#P connect 201 0 200 0;#P connect 203 0 202 0;#P connect 43 0 42 0;#P connect 45 0 44 0;#P connect 47 0 46 0;#P connect 49 0 48 0;#P connect 51 0 50 0;#P connect 53 0 52 0;#P connect 55 0 54 0;#P connect 57 0 56 0;#P connect 59 0 58 0;#P connect 61 0 60 0;#P connect 63 0 62 0;#P connect 65 0 64 0;#P connect 67 0 66 0;#P connect 69 0 68 0;#P connect 71 0 70 0;#P connect 73 0 72 0;#P connect 179 0 178 0;#P connect 181 0 180 0;#P connect 183 0 182 0;#P connect 185 0 184 0;#P connect 187 0 186 0;#P pop;#P newobj 68 203 145 196626 p makecontrols;#B color 6;#P window setfont "Sans Serif" 9.;#P newex 68 36 164 196617 r $1/init;#B color 11;#P window setfont "Sans Serif" 12.;#P newex 68 391 321 196620 udpsender- $1/to $1;#B color 6;#P button 68 57 15 0;#P newex 68 361 321 196620 udpreceiver- $1/from $1;#B color 6;#P window setfont "Sans Serif" 9.;#P comment 108 123 182 196617 <- this used to be ctc-initsequence.txt;#P connect 2 0 14 0;#P connect 14 0 13 0;#P connect 4 0 2 0;#P connect 2 0 7 0;#P connect 7 0 6 0;#P connect 11 0 12 0;#P fasten 2 0 9 0 73 80 320 80;#P pop;