max v2;#N vpatcher 8 235 445 566;#P window setfont "Sans Serif" 9.;#P window linecount 2;#P comment 257 264 107 196617 patch by Tom Mays contact@tommays.net;#P window linecount 0;#P message 139 106 50 196617;#P window linecount 1;#P newex 139 85 61 196617 prepend set;#P newex 110 56 155 196617 r $1-numdenom;#B color 11;#N comlet odds denom;#P inlet 128 196 15 0;#N comlet list of the odds ([1 2] = 1 out of 2);#P inlet 83 196 15 0;#P window linecount 2;#P comment 280 171 127 196617 works for any type of message;#P number 119 172 35 9 0 0 0 3 0 0 0 221 221 221 222 222 222 0 0 0;#P window linecount 1;#P newex 119 141 158 196617 r $1-dennom;#B color 11;#P number 70 57 35 9 0 0 0 3 0 0 0 221 221 221 222 222 222 0 0 0;#N comlet duration stamp out (out of phase with odds);#P outlet 120 281 15 0;#P newex 120 251 27 196617 f;#P newex 21 186 27 196617 t b f;#N comlet duration stamp in;#P inlet 21 151 15 0;#P newex 21 229 109 196617 odds $2 $3;#P newex 70 31 134 196617 r $1-num;#B color 11;#N comlet duration stamp out (inphase with odds);#P outlet 21 281 15 0;#P newex 21 251 27 196617 f;#P window linecount 3;#P comment 280 57 127 196617 odds with duration stamp (instead of bang \, current duration stamp is output;#P window linecount 4;#P comment 280 114 130 196617 arg 1 : module prefix name \; arg 2 : odds numerator \; arg 3 : odds denominator;#P connect 6 0 7 0;#P connect 7 0 5 0;#P connect 5 0 2 0;#P connect 2 0 3 0;#P connect 7 1 2 1;#P lcolor 13;#P connect 4 0 10 0;#P fasten 16 0 5 1 115 78 75 78;#P connect 10 0 5 1;#P connect 14 0 5 1;#P connect 11 0 12 0;#P connect 12 0 5 2;#P connect 15 0 5 2;#P connect 5 1 8 0;#P connect 8 0 9 0;#P connect 7 1 8 1;#P lcolor 13;#P connect 16 0 17 0;#P connect 17 0 18 0;#P pop;