max v2;#N vpatcher 41 354 707 689;#P window setfont "Sans Serif" 9.;#P window linecount 3;#P comment 382 35 242 196617 new "stoponnext" function \, doesn't affect other functions. if bang sent to stoponnext \, next value output stops motor.;#P window linecount 1;#P newex 430 274 21 196617 t 0;#P newex 430 294 134 196617 s $1;#B color 11;#P newex 465 233 155 196617 r $1/stoponnext;#B color 11;#P newex 430 234 20 196617 t b;#P newex 430 254 45 196617 onebang;#N comlet copy of output;#P outlet 364 276 15 0;#P newex 269 149 55 196617 unpack 0 0;#P newex 269 128 208 196617 r $1/minmax%;#B color 11;#P newex 197 129 55 196617 unpack 0 0;#P newex 197 108 219 196617 r $1/minmaxtime;#B color 11;#P newex 124 108 62 196617 unpack 0. 0.;#P newex 124 87 213 196617 r $1/minmaxval;#B color 11;#P number 63 186 21 9 0 0 160 3 0 0 0 221 221 221 222 222 222 0 0 0;#P newex 22 147 45 196617 loadbang;#P message 22 170 21 196617 $3;#P newex 63 233 59 196617 unpack 0. 0;#P newex 63 276 163 196617 s $2;#B color 11;#P newex 63 204 35 196617 gate 2;#P window linecount 3;#P comment 377 187 242 196617 1. name of process (receive name) \; 2. name of destination \; 3. 1 for values only \, 2 for lists of values with time;#N comlet indicator;#P outlet 305 195 15 0;#P window linecount 1;#P newex 88 39 164 196617 r $1;#B color 11;#P newex 88 173 227 196617 randtransf;#P window linecount 2;#P comment 104 60 232 196617 [on/off] [min value] [max value] [min time] [max time] [min transistion %] [max transition %];#P window linecount 1;#P comment 367 173 100 196617 arguments:;#P connect 10 0 9 0;#P connect 9 0 11 0;#P connect 11 0 6 0;#P connect 6 0 8 0;#P connect 8 0 7 0;#P connect 6 1 7 0;#P connect 3 0 2 0;#P connect 2 0 6 1;#P connect 12 0 13 0;#P connect 13 0 2 1;#P connect 13 1 2 2;#P connect 15 0 2 3;#P connect 14 0 15 0;#P connect 15 1 2 4;#P connect 17 0 2 5;#P connect 16 0 17 0;#P connect 17 1 2 6;#P connect 2 1 4 0;#P connect 6 1 18 0;#P connect 8 0 18 0;#P connect 2 0 20 0;#P connect 20 0 19 0;#P connect 19 0 23 0;#P connect 23 0 22 0;#P connect 21 0 19 1;#P pop;