max v2;#N vpatcher 41 354 774 687;#P window setfont "Sans Serif" 9.;#P newex 452 146 62 196617 unpack 0 0;#P newex 452 125 223 196617 r $1/minmaxodds;#B color 11;#P newex 348 126 62 196617 unpack 0 0;#P newex 348 105 223 196617 r $1/minmax%;#B color 11;#P newex 244 106 62 196617 unpack 0 0;#P newex 244 85 223 196617 r $1/minmaxtime;#B color 11;#P newex 140 85 62 196617 unpack 0. 0.;#P newex 140 64 223 196617 r $1/minmaxval;#B color 11;#P number 63 186 21 9 0 0 160 3 0 0 0 221 221 221 222 222 222 0 0 0;#P newex 22 147 45 196617 loadbang;#P message 22 170 21 196617 $3;#P newex 63 233 59 196617 unpack 0. 0;#P newex 63 276 163 196617 s $2;#B color 11;#P newex 63 204 35 196617 gate 2;#P window linecount 4;#P comment 339 236 278 196617 1. name of process (receive name) \; 2. name of destination \; 3. 1 for values only \, 2 for lists of values with time \; 4. value to replace zero prob value (for example 0.000001);#N comlet indicator;#P outlet 509 195 15 0;#P window linecount 1;#P newex 88 16 164 196617 r $1;#B color 11;#P newex 88 173 431 196617 randtransf0 $4;#P window linecount 2;#P comment 104 37 232 196617 [on/off] [min value] [max value] [min time] [max time] [min transistion %] [max transition %];#P window linecount 1;#P comment 329 222 100 196617 arguments:;#P connect 10 0 9 0;#P connect 9 0 11 0;#P connect 11 0 6 0;#P connect 6 0 8 0;#P connect 6 1 7 0;#P connect 8 0 7 0;#P connect 3 0 2 0;#P connect 2 0 6 1;#P connect 12 0 13 0;#P connect 13 0 2 1;#P connect 13 1 2 2;#P connect 14 0 15 0;#P connect 15 0 2 3;#P connect 15 1 2 4;#P connect 16 0 17 0;#P connect 17 0 2 5;#P connect 17 1 2 6;#P connect 18 0 19 0;#P connect 19 0 2 7;#P connect 19 1 2 8;#P connect 2 1 4 0;#P pop;