max v2;#N vpatcher 66 176 615 671;#P origin 0 -5;#P window setfont "Sans Serif" 9.;#P newex 16 82 40 196617 change;#P number 49 390 47 9 0 0 0 3 0 0 0 221 221 221 222 222 222 0 0 0;#P number 101 332 47 9 0 0 0 3 0 0 0 221 221 221 222 222 222 0 0 0;#P number 151 332 47 9 0 0 0 3 0 0 0 221 221 221 222 222 222 0 0 0;#P newex 66 230 95 196617 clip 1 1073741824;#P number 207 410 56 9 0 0 0 3 0 0 0 221 221 221 222 222 222 0 0 0;#P newex 207 388 95 196617 clip 1 1073741824;#N comlet max time;#P inlet 289 100 15 0;#N comlet min time;#P inlet 241 100 15 0;#N comlet max %;#P inlet 480 101 15 0;#N comlet min %;#P inlet 409 101 15 0;#N comlet max val;#P inlet 151 299 15 0;#N comlet min val;#P inlet 101 299 15 0;#P newex 396 123 86 196617 minmaxi;#P newex 49 209 27 196617 t b i;#P message 16 210 27 196617 stop;#P number 153 152 44 9 0 0 0 3 0 0 0 221 221 221 222 222 222 0 0 0;#P number 103 152 44 9 0 0 0 3 0 0 0 221 221 221 222 222 222 0 0 0;#P newex 16 157 40 196617 sel 0 1;#P newex 49 430 168 196617 pack 0 0;#P outlet 49 452 15 0;#P newex 74 278 35 196617 del 1;#P number 99 256 46 9 0 0 0 3 0 0 0 221 221 221 222 222 222 0 0 0;#P newex 207 364 170 196617 expr $i1*(random($i2\\\,$i3))/100.;#P newex 367 343 27 196617 + 1;#P newex 49 187 45 196617 randomR;#P newex 16 62 470 196617 unpack 0 0 0 0 0 0 0;#P number 367 325 43 9 0 0 0 3 0 0 0 221 221 221 222 222 222 0 0 0;#P number 287 325 43 9 0 0 0 3 0 0 0 221 221 221 222 222 222 0 0 0;#P window linecount 2;#P comment 294 310 72 196617 min and max %;#P window linecount 1;#P comment 109 347 93 196617 min and max values;#P comment 117 166 85 196617 min and max time;#P toggle 16 103 15 0;#P comment 275 148 80 196617 on/off indicator;#N comlet on/off indicator;#P outlet 259 147 15 0;#P newex 49 364 51 196617 randomR;#P message 40 37 158 196617 1 1150 1250 1000 2000 50 100;#N comlet [on/off] [min value] [max value] [min time] [max time] [min transistion %] [max transition %];#P inlet 16 16 15 0;#P comment 34 16 440 196617 [on/off] [min value] [max value] [min time] [max time] [min transistion %] [max transition %];#P newex 254 37 35 196617 r stop;#B color 11;#P message 231 37 14 196617 0;#P fasten 0 0 14 0 236 57 21 57;#P fasten 4 0 14 0 45 57 21 57;#P connect 3 0 14 0;#P connect 14 0 40 0;#P connect 40 0 8 0;#P connect 8 0 22 0;#P connect 22 0 25 0;#P fasten 19 0 15 0 79 298 45 298 45 183 54 183;#P lcolor 13;#P connect 22 1 15 0;#P connect 15 0 26 0;#P connect 26 0 5 0;#P connect 5 0 39 0;#P connect 39 0 21 0;#P connect 21 0 20 0;#P connect 23 0 15 1;#P connect 26 1 36 0;#P fasten 38 0 5 1 106 355 74 355;#P connect 26 0 19 0;#P lcolor 5;#P fasten 25 0 19 0 21 264 79 264;#P lcolor 5;#P connect 24 0 15 2;#P fasten 37 0 5 2 156 363 94 363;#P fasten 36 0 18 0 71 252 104 252;#P connect 18 0 19 1;#P connect 28 0 38 0;#P fasten 14 1 38 0 97 323 106 323;#P connect 32 0 23 0;#P fasten 14 3 23 0 249 86 108 86;#P connect 29 0 37 0;#P fasten 14 2 37 0 173 323 156 323;#P lcolor 1;#P connect 33 0 24 0;#P fasten 14 4 24 0 325 93 158 93;#P fasten 18 0 17 0 104 274 212 274;#P connect 17 0 34 0;#P connect 34 0 35 0;#P connect 35 0 21 1;#P fasten 1 0 0 0 259 57 249 57 249 34 236 34;#P connect 8 0 6 0;#P fasten 27 0 12 0 401 170 292 170;#P connect 12 0 17 1;#P fasten 27 1 13 0 477 218 372 218;#P connect 13 0 16 0;#P connect 16 0 17 2;#P connect 30 0 27 0;#P connect 14 5 27 0;#P connect 31 0 27 1;#P connect 14 6 27 1;#P pop;