max v2;#N vpatcher 583 194 1183 686;#P origin 0 -5;#P window setfont "Sans Serif" 9.;#P newex 425 406 84 196617 colorchooser $3;#B color 5;#P newex 425 427 57 196617 pvar panel;#P comment 36 74 117 196617 bpat bkgnd = 256 X 62;#P window linecount 4;#P comment 39 227 187 196617 arg 1 : prefix name \; arg 2 : "more" button hide/show (0/1) \; arg 3 : color scheme choice (0 = movie \, 1 = tape \, 2 = camtrk \, 3 = conduite);#P window setfont Times 9.;#P window linecount 1;#P newex 318 55 18 1310729 t b;#P window setfont "Sans Serif" 9.;#P comment 373 27 176 196617 init and module param register write;#P comment 504 441 40 196617 switch;#P comment 480 285 66 196617 temp-preset;#P newex 462 219 112 196617 s $1/more/editor;#B color 11;#P newex 462 136 48 196617 loadbang;#P message 462 159 81 196617 brgb 0 200 180;#P user jsui 236 1 19 15 1 0 0 m_toggle.js off on;#P objectname sw;#P newex 462 197 40 196617 t front;#P newex 462 177 57 196617 pvar more;#P newex 323 148 48 196617 loadbang;#N thispatcher;#Q end;#P newobj 276 212 61 196617 thispatcher;#P message 366 191 84 196617 script hide more;#P message 276 191 89 196617 script show more;#P toggle 276 149 15 0;#P newex 276 167 41 196617 sel 1 0;#P message 292 149 21 196617 $2;#P user jsui 23 1 30 15 1 0 0 jsui_textbutton.js more;#P objectname more;#P newex 279 385 50 196617 deferlow;#P window setfont Times 9.;#P newex 318 35 43 1310729 pvar init;#P message 1 1 19 1310729 init;#B color 12;#P objectname init;#P newex 314 253 48 1310729 pvar open;#P newex 414 253 50 1310729 pvar recall;#P newex 364 253 48 1310729 pvar store;#P message 1 32 13 1310729 R;#B color 7;#P objectname recall;#P message 1 18 13 1310729 S;#B color 2;#P objectname store;#P message 1 46 13 1310729 O;#B color 9;#P objectname open;#P window setfont "Sans Serif" 9.;#P window linecount 2;#P message 318 75 114 196617 \; $1/init bang \;;#P window linecount 1;#P message 279 406 142 196617 script sendtoback background;#P newex 358 362 77 196617 t b i;#N comlet bang for "send to back";#P outlet 279 425 15 0;#P window setfont "Sans Serif" 10.;#P comment 121 1 114 196618 $1;#B frgb 255 255 255;#P user panel 123 1 112 16;#X brgb 116 116 116;#X frgb 0 0 0;#X border 0;#X rounded 8;#X shadow 0;#X done;#P window setfont Times 9.;#P newex 314 282 111 1310729 storetemppath $1;#B color 6;#P window setfont "Sans Serif" 9.;#P newex 304 319 52 196617 pvar sw;#P newex 304 339 64 196617 vari $1/sw;#B color 5;#P user hint 2 46 15 60 "open temp preset text (qlist)" 750 100 0 65535 65535 52428 9 3 0 1 0 0 0;#P user hint 2 32 15 47 "recall temp preset" 750 100 0 65535 65535 52428 9 3 0 1 0 0 0;#P user hint 2 18 15 32 "store temp preset" 750 100 0 65535 65535 52428 9 3 0 1 0 0 0;#P user hint 2 1 21 15 "initialize this module" 750 100 0 65535 65535 52428 9 3 0 1 0 0 0;#P comment 274 129 178 196617 more parameters option (arg 2 \, 1/0);#P user panel 270 24 307 100;#X brgb 255 255 255;#X frgb 0 0 0;#X border 1;#X rounded 0;#X shadow 0;#X done;#P user panel 270 245 307 62;#X brgb 255 255 255;#X frgb 0 0 0;#X border 1;#X rounded 0;#X shadow 0;#X done;#P user panel 270 125 307 119;#X brgb 255 255 255;#X frgb 0 0 0;#X border 1;#X rounded 0;#X shadow 0;#X done;#P user panel 270 308 307 153;#X brgb 255 255 255;#X frgb 0 0 0;#X border 1;#X rounded 0;#X shadow 0;#X done;#P user panel 0 0 256 62;#X brgb 244 244 244;#X frgb 194 194 194;#X border 1;#X rounded 4;#X shadow 0;#X done;#P background;#P objectname panel;#P connect 29 0 31 0;#P connect 31 0 30 0;#P connect 30 0 32 0;#P connect 32 0 34 0;#P fasten 33 0 34 0 371 209 281 209;#P fasten 16 0 27 0 363 382 284 382;#P connect 27 0 17 0;#P connect 17 0 15 0;#P fasten 35 0 29 0 328 168 319 168 319 146 297 146;#P fasten 10 0 11 0 309 361 300 361 300 315 309 315;#P connect 11 0 10 0;#P connect 24 0 12 0;#P connect 26 0 45 0;#P connect 45 0 18 0;#P connect 10 1 16 0;#P connect 22 0 12 1;#P fasten 30 1 33 0 296 187 371 187;#P connect 23 0 12 2;#P connect 16 1 49 0;#P connect 49 0 48 0;#P connect 40 0 39 0;#P connect 39 0 36 0;#P connect 36 0 37 0;#P connect 37 0 41 0;#P pop;