max v2;#N vpatcher 0 44 1374 599;#P origin -197 -494;#P window setfont "Sans Serif" 9.;#P newex 23 757 68 196617 pvar /ch/41;#P objectname pvar51[1];#P newex 143 737 110 196617 receive /ch/41/color;#P objectname receive51[1];#P newex 83 737 50 196617 l_number;#P objectname l_number51[1];#P newex 23 717 99 196617 variedit /ch/41 $1;#P objectname variedit51[1];#P newex 223 757 68 196617 pvar /ch/42;#P objectname pvar52[1];#P newex 343 737 110 196617 receive /ch/42/color;#P objectname receive52[1];#P newex 283 737 50 196617 l_number;#P objectname l_number52[1];#P newex 223 717 99 196617 variedit /ch/42 $1;#P objectname variedit52[1];#P newex 423 757 68 196617 pvar /ch/43;#P objectname pvar53[1];#P newex 543 737 110 196617 receive /ch/43/color;#P objectname receive53[1];#P newex 483 737 50 196617 l_number;#P objectname l_number53[1];#P newex 423 717 99 196617 variedit /ch/43 $1;#P objectname variedit53[1];#P newex 623 757 68 196617 pvar /ch/44;#P objectname pvar54[1];#P newex 743 737 110 196617 receive /ch/44/color;#P objectname receive54[1];#P newex 683 737 50 196617 l_number;#P objectname l_number54[1];#P newex 623 717 99 196617 variedit /ch/44 $1;#P objectname variedit54[1];#P newex 823 757 68 196617 pvar /ch/45;#P objectname pvar55[1];#P newex 943 737 110 196617 receive /ch/45/color;#P objectname receive55[1];#P newex 883 737 50 196617 l_number;#P objectname l_number55[1];#P newex 823 717 99 196617 variedit /ch/45 $1;#P objectname variedit55[1];#P newex 1023 757 68 196617 pvar /ch/46;#P objectname pvar56[1];#P newex 1143 737 110 196617 receive /ch/46/color;#P objectname receive56[1];#P newex 1083 737 50 196617 l_number;#P objectname l_number56[1];#P newex 1023 717 99 196617 variedit /ch/46 $1;#P objectname variedit56[1];#P newex 1223 757 68 196617 pvar /ch/47;#P objectname pvar57[1];#P newex 1343 737 110 196617 receive /ch/47/color;#P objectname receive57[1];#P newex 1283 737 50 196617 l_number;#P objectname l_number57[1];#P newex 1223 717 99 196617 variedit /ch/47 $1;#P objectname variedit57[1];#P newex 1423 757 68 196617 pvar /ch/48;#P objectname pvar58[1];#P newex 1543 737 110 196617 receive /ch/48/color;#P objectname receive58[1];#P newex 1483 737 50 196617 l_number;#P objectname l_number58[1];#P newex 1423 717 99 196617 variedit /ch/48 $1;#P objectname variedit58[1];#P newex 1623 757 68 196617 pvar /ch/49;#P objectname pvar59[1];#P newex 1743 737 110 196617 receive /ch/49/color;#P objectname receive59[1];#P newex 1683 737 50 196617 l_number;#P objectname l_number59[1];#P newex 1623 717 99 196617 variedit /ch/49 $1;#P objectname variedit59[1];#P newex 1823 757 68 196617 pvar /ch/50;#P objectname pvar60[1];#P newex 1943 737 110 196617 receive /ch/50/color;#P objectname receive60[1];#P newex 1883 737 50 196617 l_number;#P objectname l_number60[1];#P newex 1823 717 99 196617 variedit /ch/50 $1;#P objectname variedit60[1];#P comment 139 9 30 196617 time;#P objectname comment3[1];#P number 169 9 129 9 0 10000 3 3 0 0 0 255 92 174 222 222 222 0 0 0;#P objectname time;#P newex 848 299 54 196617 pvar time;#P bpatcher 399 7 91 19 0 0 openbutton.mxt 0 save_patch "open the patch editor" 90;#P bpatcher 306 7 90 20 0 0 openbutton.mxt 0 patch "open the patch editor" 90;#P flonum 16 195 41 9 0. 100. 35 3 30 130 0 251 223 255 255 255 255 0 0 0;#P objectname /ch/41;#P comment 16 180 50 196617 /ch/41;#P objectname comment121;#P flonum 63 195 41 9 0. 100. 35 3 30 130 0 251 223 255 255 255 255 0 0 0;#P objectname /ch/42;#P comment 63 180 50 196617 /ch/42;#P objectname comment122;#P flonum 110 195 41 9 0. 100. 35 3 30 130 0 251 223 255 255 255 255 0 0 0;#P objectname /ch/43;#P comment 110 180 50 196617 /ch/43;#P objectname comment123;#P newex 21 863 133 196617 pvar /ch/51;#P objectname pvar51;#P newex 141 843 120 196617 receive /ch/51/color;#P objectname receive51;#P newex 81 843 50 196617 l_number;#P objectname l_number51;#P newex 21 823 133 196617 variedit /ch/51 $1;#P objectname variedit51;#P newex 221 863 133 196617 pvar /ch/52;#P objectname pvar52;#P newex 341 843 120 196617 receive /ch/52/color;#P objectname receive52;#P newex 281 843 50 196617 l_number;#P objectname l_number52;#P newex 221 823 133 196617 variedit /ch/52 $1;#P objectname variedit52;#P newex 421 863 133 196617 pvar /ch/53;#P objectname pvar53;#P newex 541 843 120 196617 receive /ch/53/color;#P objectname receive53;#P newex 481 843 50 196617 l_number;#P objectname l_number53;#P newex 421 823 133 196617 variedit /ch/53 $1;#P objectname variedit53;#P newex 621 863 133 196617 pvar /ch/54;#P objectname pvar54;#P newex 741 843 120 196617 receive /ch/54/color;#P objectname receive54;#P newex 681 843 50 196617 l_number;#P objectname l_number54;#P newex 621 823 133 196617 variedit /ch/54 $1;#P objectname variedit54;#P newex 821 863 133 196617 pvar /ch/55;#P objectname pvar55;#P newex 941 843 120 196617 receive /ch/55/color;#P objectname receive55;#P newex 881 843 50 196617 l_number;#P objectname l_number55;#P newex 821 823 133 196617 variedit /ch/55 $1;#P objectname variedit55;#P newex 1021 863 133 196617 pvar /ch/56;#P objectname pvar56;#P newex 1141 843 120 196617 receive /ch/56/color;#P objectname receive56;#P newex 1081 843 50 196617 l_number;#P objectname l_number56;#P newex 1021 823 133 196617 variedit /ch/56 $1;#P objectname variedit56;#P newex 1221 863 133 196617 pvar /ch/57;#P objectname pvar57;#P newex 1341 843 120 196617 receive /ch/57/color;#P objectname receive57;#P newex 1281 843 50 196617 l_number;#P objectname l_number57;#P newex 1221 823 133 196617 variedit /ch/57 $1;#P objectname variedit57;#P newex 1421 863 133 196617 pvar /ch/58;#P objectname pvar58;#P newex 1541 843 120 196617 receive /ch/58/color;#P objectname receive58;#P newex 1481 843 50 196617 l_number;#P objectname l_number58;#P newex 1421 823 133 196617 variedit /ch/58 $1;#P objectname variedit58;#P newex 1621 863 133 196617 pvar /ch/59;#P objectname pvar59;#P newex 1741 843 120 196617 receive /ch/59/color;#P objectname receive59;#P newex 1681 843 50 196617 l_number;#P objectname l_number59;#P newex 1621 823 133 196617 variedit /ch/59 $1;#P objectname variedit59;#P newex 1821 863 133 196617 pvar /ch/60;#P objectname pvar60;#P newex 1941 843 120 196617 receive /ch/60/color;#P objectname receive60;#P newex 1881 843 50 196617 l_number;#P objectname l_number60;#P newex 1821 823 133 196617 variedit /ch/60 $1;#P objectname variedit60;#P flonum 16 229 41 9 0. 100. 35 3 30 130 0 251 223 255 255 255 255 0 0 0;#P objectname /ch/51;#P comment 16 214 50 196617 /ch/51;#P objectname comment51;#P flonum 63 229 41 9 0. 100. 35 3 30 130 0 251 223 255 255 255 255 0 0 0;#P objectname /ch/52;#P comment 63 214 50 196617 /ch/52;#P objectname comment52;#P flonum 110 229 41 9 0. 100. 35 3 30 130 0 251 223 255 255 255 255 0 0 0;#P objectname /ch/53;#P comment 110 214 50 196617 /ch/53;#P objectname comment53;#P newex 24 683 133 196617 pvar /ch/21;#P objectname pvar21;#P newex 144 663 120 196617 receive /ch/21/color;#P objectname receive21;#P newex 84 663 50 196617 l_number;#P objectname l_number21;#P newex 24 643 133 196617 variedit /ch/21 $1;#P objectname variedit21;#P newex 224 683 133 196617 pvar /ch/22;#P objectname pvar22;#P newex 344 663 120 196617 receive /ch/22/color;#P objectname receive22;#P newex 284 663 50 196617 l_number;#P objectname l_number22;#P newex 224 643 133 196617 variedit /ch/22 $1;#P objectname variedit22;#P newex 424 683 133 196617 pvar /ch/23;#P objectname pvar23;#P newex 544 663 120 196617 receive /ch/23/color;#P objectname receive23;#P newex 484 663 50 196617 l_number;#P objectname l_number23;#P newex 424 643 133 196617 variedit /ch/23 $1;#P objectname variedit23;#P newex 624 683 133 196617 pvar /ch/24;#P objectname pvar24;#P newex 744 663 120 196617 receive /ch/24/color;#P objectname receive24;#P newex 684 663 50 196617 l_number;#P objectname l_number24;#P newex 624 643 133 196617 variedit /ch/24 $1;#P objectname variedit24;#P newex 824 683 133 196617 pvar /ch/25;#P objectname pvar25;#P newex 944 663 120 196617 receive /ch/25/color;#P objectname receive25;#P newex 884 663 50 196617 l_number;#P objectname l_number25;#P newex 824 643 133 196617 variedit /ch/25 $1;#P objectname variedit25;#P newex 1024 683 133 196617 pvar /ch/26;#P objectname pvar26;#P newex 1144 663 120 196617 receive /ch/26/color;#P objectname receive26;#P newex 1084 663 50 196617 l_number;#P objectname l_number26;#P newex 1024 643 133 196617 variedit /ch/26 $1;#P objectname variedit26;#P newex 1224 683 133 196617 pvar /ch/27;#P objectname pvar27;#P newex 1344 663 120 196617 receive /ch/27/color;#P objectname receive27;#P newex 1284 663 50 196617 l_number;#P objectname l_number27;#P newex 1224 643 133 196617 variedit /ch/27 $1;#P objectname variedit27;#P newex 1424 683 133 196617 pvar /ch/28;#P objectname pvar28;#P newex 1544 663 120 196617 receive /ch/28/color;#P objectname receive28;#P newex 1484 663 50 196617 l_number;#P objectname l_number28;#P newex 1424 643 133 196617 variedit /ch/28 $1;#P objectname variedit28;#P newex 1624 683 133 196617 pvar /ch/29;#P objectname pvar29;#P newex 1744 663 120 196617 receive /ch/29/color;#P objectname receive29;#P newex 1684 663 50 196617 l_number;#P objectname l_number29;#P newex 1624 643 133 196617 variedit /ch/29 $1;#P objectname variedit29;#P newex 1826 684 133 196617 pvar /ch/30;#P objectname pvar30;#P newex 1946 664 120 196617 receive /ch/30/color;#P objectname receive30;#P newex 1888 664 50 196617 l_number;#P objectname l_number30;#P newex 1826 644 133 196617 variedit /ch/30 $1;#P objectname variedit30;#P newex 2026 684 133 196617 pvar /ch/31;#P objectname pvar31;#P newex 2144 663 120 196617 receive /ch/31/color;#P objectname receive31;#P newex 2084 663 50 196617 l_number;#P objectname l_number31;#P newex 2026 644 133 196617 variedit /ch/31 $1;#P objectname variedit31;#P newex 2224 683 133 196617 pvar /ch/32;#P objectname pvar32;#P newex 2344 663 120 196617 receive /ch/32/color;#P objectname receive32;#P newex 2284 663 50 196617 l_number;#P objectname l_number32;#P newex 2224 643 133 196617 variedit /ch/32 $1;#P objectname variedit32;#P newex 2424 683 133 196617 pvar /ch/33;#P objectname pvar33;#P newex 2544 663 120 196617 receive /ch/33/color;#P objectname receive33;#P newex 2484 663 50 196617 l_number;#P objectname l_number33;#P newex 2424 643 133 196617 variedit /ch/33 $1;#P objectname variedit33;#P newex 2624 683 133 196617 pvar /ch/34;#P objectname pvar34;#P newex 2744 663 120 196617 receive /ch/34/color;#P objectname receive34;#P newex 2684 663 50 196617 l_number;#P objectname l_number34;#P newex 2624 643 133 196617 variedit /ch/34 $1;#P objectname variedit34;#P newex 2824 683 133 196617 pvar /ch/35;#P objectname pvar35;#P newex 2944 663 120 196617 receive /ch/35/color;#P objectname receive35;#P newex 2884 663 50 196617 l_number;#P objectname l_number35;#P newex 2824 643 133 196617 variedit /ch/35 $1;#P objectname variedit35;#P newex 3024 683 133 196617 pvar /ch/36;#P objectname pvar36;#P newex 3144 663 120 196617 receive /ch/36/color;#P objectname receive36;#P newex 3084 663 50 196617 l_number;#P objectname l_number36;#P newex 3024 643 133 196617 variedit /ch/36 $1;#P objectname variedit36;#P newex 3224 683 133 196617 pvar /ch/37;#P objectname pvar37;#P newex 3344 663 120 196617 receive /ch/37/color;#P objectname receive37;#P newex 3284 663 50 196617 l_number;#P objectname l_number37;#P newex 3224 643 133 196617 variedit /ch/37 $1;#P objectname variedit37;#P newex 3424 683 133 196617 pvar /ch/38;#P objectname pvar38;#P newex 3544 663 120 196617 receive /ch/38/color;#P objectname receive38;#P newex 3484 663 50 196617 l_number;#P objectname l_number38;#P newex 3424 643 133 196617 variedit /ch/38 $1;#P objectname variedit38;#P newex 3624 683 133 196617 pvar /ch/39;#P objectname pvar39;#P newex 3744 663 120 196617 receive /ch/39/color;#P objectname receive39;#P newex 3684 663 50 196617 l_number;#P objectname l_number39;#P newex 3624 643 133 196617 variedit /ch/39 $1;#P objectname variedit39;#P newex 3824 683 133 196617 pvar /ch/40;#P objectname pvar40;#P newex 3944 663 120 196617 receive /ch/40/color;#P objectname receive40;#P newex 3884 663 50 196617 l_number;#P objectname l_number40;#P newex 3824 643 133 196617 variedit /ch/40 $1;#P objectname variedit40;#P flonum 16 122 41 9 0. 100. 35 3 30 130 0 251 223 255 255 255 255 0 0 0;#P objectname /ch/21;#P comment 16 107 50 196617 /ch/21;#P objectname comment21;#P flonum 63 122 41 9 0. 100. 35 3 200 0 0 251 223 255 255 255 255 0 0 0;#P objectname /ch/22;#P comment 63 107 50 196617 /ch/22;#P objectname comment22;#P flonum 110 122 41 9 0. 100. 35 3 25 25 255 251 223 255 255 255 255 0 0 0;#P objectname /ch/23;#P comment 110 107 50 196617 /ch/23;#P objectname comment23;#P flonum 16 158 41 9 0. 100. 35 3 30 130 0 251 223 255 255 255 255 0 0 0;#P objectname /ch/31;#P comment 16 143 50 196617 /ch/31;#P objectname comment31;#P flonum 63 158 41 9 0. 100. 35 3 30 130 0 251 223 255 255 255 255 0 0 0;#P objectname /ch/32;#P comment 63 143 50 196617 /ch/32;#P objectname comment32;#P flonum 110 158 41 9 0. 100. 35 3 30 130 0 251 223 255 255 255 255 0 0 0;#P objectname /ch/33;#P comment 110 143 50 196617 /ch/33;#P objectname comment33;#P newex 25 606 133 196617 pvar /ch/1;#P objectname pvar1;#P newex 145 586 120 196617 receive /ch/1/color;#P objectname receive1;#P newex 85 586 50 196617 l_number;#P objectname l_number1;#P newex 25 566 133 196617 variedit /ch/1 $1;#P objectname variedit1;#P newex 225 606 133 196617 pvar /ch/2;#P objectname pvar2;#P newex 345 586 120 196617 receive /ch/2/color;#P objectname receive2;#P newex 285 586 50 196617 l_number;#P objectname l_number2;#P newex 225 566 133 196617 variedit /ch/2 $1;#P objectname variedit2;#P newex 425 606 133 196617 pvar /ch/3;#P objectname pvar3;#P newex 545 586 120 196617 receive /ch/3/color;#P objectname receive3;#P newex 485 586 50 196617 l_number;#P objectname l_number3;#P newex 425 566 133 196617 variedit /ch/3 $1;#P objectname variedit3;#P newex 625 606 133 196617 pvar /ch/4;#P objectname pvar4;#P newex 745 586 120 196617 receive /ch/4/color;#P objectname receive4;#P newex 685 586 50 196617 l_number;#P objectname l_number4;#P newex 625 566 133 196617 variedit /ch/4 $1;#P objectname variedit4;#P newex 825 606 133 196617 pvar /ch/5;#P objectname pvar5;#P newex 945 586 120 196617 receive /ch/5/color;#P objectname receive5;#P newex 885 586 50 196617 l_number;#P objectname l_number5;#P newex 825 566 133 196617 variedit /ch/5 $1;#P objectname variedit5;#P newex 1025 606 133 196617 pvar /ch/6;#P objectname pvar6;#P newex 1145 586 120 196617 receive /ch/6/color;#P objectname receive6;#P newex 1085 586 50 196617 l_number;#P objectname l_number6;#P newex 1025 566 133 196617 variedit /ch/6 $1;#P objectname variedit6;#P newex 1225 606 133 196617 pvar /ch/7;#P objectname pvar7;#P newex 1345 586 120 196617 receive /ch/7/color;#P objectname receive7;#P newex 1285 586 50 196617 l_number;#P objectname l_number7;#P newex 1225 566 133 196617 variedit /ch/7 $1;#P objectname variedit7;#P newex 1425 606 133 196617 pvar /ch/8;#P objectname pvar8;#P newex 1545 586 120 196617 receive /ch/8/color;#P objectname receive8;#P newex 1485 586 50 196617 l_number;#P objectname l_number8;#P newex 1425 566 133 196617 variedit /ch/8 $1;#P objectname variedit8;#P newex 1625 606 133 196617 pvar /ch/9;#P objectname pvar9;#P newex 1745 586 120 196617 receive /ch/9/color;#P objectname receive9;#P newex 1685 586 50 196617 l_number;#P objectname l_number9;#P newex 1625 566 133 196617 variedit /ch/9 $1;#P objectname variedit9;#P newex 1827 607 133 196617 pvar /ch/10;#P objectname pvar10;#P newex 1945 586 120 196617 receive /ch/10/color;#P objectname receive10;#P newex 1889 587 50 196617 l_number;#P objectname l_number10;#P newex 1827 567 133 196617 variedit /ch/10 $1;#P objectname variedit10;#P newex 2027 607 133 196617 pvar /ch/11;#P objectname pvar11;#P newex 2145 586 120 196617 receive /ch/11/color;#P objectname receive11;#P newex 2085 586 50 196617 l_number;#P objectname l_number11;#P newex 2027 567 133 196617 variedit /ch/11 $1;#P objectname variedit11;#P newex 2225 606 133 196617 pvar /ch/12;#P objectname pvar12;#P newex 2345 586 120 196617 receive /ch/12/color;#P objectname receive12;#P newex 2285 586 50 196617 l_number;#P objectname l_number12;#P newex 2225 566 133 196617 variedit /ch/12 $1;#P objectname variedit12;#P newex 2425 606 133 196617 pvar /ch/13;#P objectname pvar13;#P newex 2545 586 120 196617 receive /ch/13/color;#P objectname receive13;#P newex 2485 586 50 196617 l_number;#P objectname l_number13;#P newex 2425 566 133 196617 variedit /ch/13 $1;#P objectname variedit13;#P newex 2625 606 133 196617 pvar /ch/14;#P objectname pvar14;#P newex 2745 586 120 196617 receive /ch/14/color;#P objectname receive14;#P newex 2685 586 50 196617 l_number;#P objectname l_number14;#P newex 2625 566 133 196617 variedit /ch/14 $1;#P objectname variedit14;#P newex 2825 606 133 196617 pvar /ch/15;#P objectname pvar15;#P newex 2945 586 120 196617 receive /ch/15/color;#P objectname receive15;#P newex 2885 586 50 196617 l_number;#P objectname l_number15;#P newex 2825 566 133 196617 variedit /ch/15 $1;#P objectname variedit15;#P newex 3025 606 133 196617 pvar /ch/16;#P objectname pvar16;#P newex 3145 586 120 196617 receive /ch/16/color;#P objectname receive16;#P newex 3085 586 50 196617 l_number;#P objectname l_number16;#P newex 3025 566 133 196617 variedit /ch/16 $1;#P objectname variedit16;#P newex 3225 606 133 196617 pvar /ch/17;#P objectname pvar17;#P newex 3345 586 120 196617 receive /ch/17/color;#P objectname receive17;#P newex 3285 586 50 196617 l_number;#P objectname l_number17;#P newex 3225 566 133 196617 variedit /ch/17 $1;#P objectname variedit17;#P newex 3425 606 133 196617 pvar /ch/18;#P objectname pvar18;#P newex 3545 586 120 196617 receive /ch/18/color;#P objectname receive18;#P newex 3485 586 50 196617 l_number;#P objectname l_number18;#P newex 3425 566 133 196617 variedit /ch/18 $1;#P objectname variedit18;#P newex 3625 606 133 196617 pvar /ch/19;#P objectname pvar19;#P newex 3745 586 120 196617 receive /ch/19/color;#P objectname receive19;#P newex 3685 586 50 196617 l_number;#P objectname l_number19;#P newex 3625 566 133 196617 variedit /ch/19 $1;#P objectname variedit19;#P newex 3825 606 133 196617 pvar /ch/20;#P objectname pvar20;#P newex 3945 586 120 196617 receive /ch/20/color;#P objectname receive20;#P newex 3885 586 50 196617 l_number;#P objectname l_number20;#P newex 3825 566 133 196617 variedit /ch/20 $1;#P objectname variedit20;#P flonum 16 51 41 9 0. 100. 35 3 200 0 0 251 223 255 255 255 255 0 0 0;#P objectname /ch/1;#P comment 16 36 50 196617 /ch/1;#P objectname comment1;#P flonum 63 51 41 9 0. 100. 35 3 25 25 255 251 223 255 255 255 255 0 0 0;#P objectname /ch/2;#P comment 63 36 50 196617 /ch/2;#P objectname comment2;#P flonum 110 51 41 9 0. 100. 35 3 30 130 0 251 223 255 255 255 255 0 0 0;#P objectname /ch/3;#P comment 110 36 50 196617 /ch/3;#P objectname comment3;#P flonum 16 86 41 9 0. 100. 35 3 30 130 0 251 223 255 255 255 255 0 0 0;#P objectname /ch/11;#P comment 16 71 50 196617 /ch/11;#P objectname comment11;#P flonum 63 86 41 9 0. 100. 35 3 30 130 0 251 223 255 255 255 255 0 0 0;#P objectname /ch/12;#P comment 63 71 50 196617 /ch/12;#P objectname comment12;#P flonum 110 86 41 9 0. 100. 35 3 30 130 0 251 223 255 255 255 255 0 0 0;#P objectname /ch/13;#P comment 110 71 50 196617 /ch/13;#P objectname comment13;#P newex 1092 446 84 196617 colorchooser $3;#B color 5;#P newex 1092 467 57 196617 pvar panel;#P comment 1222 636 117 196617 bpat bkgnd = 256 X 62;#P window linecount 4;#P comment 1556 494 187 196617 arg 1 : prefix name \; arg 2 : "more" button hide/show (0/1) \; arg 3 : color scheme choice (0 = movie \, 1 = tape \, 2 = camtrk \, 3 = conduite);#P window setfont Times 9.;#P window linecount 1;#P newex 985 94 27 1310729 t 0 b;#P window setfont "Sans Serif" 9.;#P comment 701 228 176 196617 init and module param register write;#P comment 1148 330 66 196617 temp-preset;#P newex 1129 262 112 196617 s $1/more/editor;#B color 11;#P newex 1129 179 48 196617 loadbang;#P message 1129 202 81 196617 brgb 0 200 180;#P newex 1129 240 40 196617 t front;#P newex 1129 220 57 196617 pvar more;#P newex 990 191 48 196617 loadbang;#N thispatcher;#Q end;#P newobj 943 255 61 196617 thispatcher;#P message 1033 234 84 196617 script hide more;#P message 943 234 89 196617 script show more;#P toggle 943 192 15 0;#P newex 943 210 41 196617 sel 1 0;#P message 959 192 21 196617 $2;#P user jsui 23 2 30 15 1 0 0 jsui_textbutton.js more;#P objectname more;#P newex 837 465 50 196617 deferlow;#P window setfont Times 9.;#P newex 985 74 43 1310729 pvar init;#P message 1 2 19 1310729 init;#B color 12;#P objectname init;#P newex 982 298 48 1310729 pvar open;#P newex 1082 298 50 1310729 pvar recall;#P newex 1032 298 48 1310729 pvar store;#P message 1 33 13 1310729 R;#B color 7;#P objectname recall;#P message 1 19 13 1310729 S;#B color 2;#P objectname store;#P message 1 47 13 1310729 O;#B color 9;#P objectname open;#P window setfont "Sans Serif" 9.;#P window linecount 2;#P message 1002 125 114 196617 \; $1/init bang \;;#P window linecount 1;#P message 837 486 142 196617 script sendtoback background;#P newex 1026 416 77 196617 t b i;#N comlet bang for "send to back";#P outlet 837 505 15 0;#P window setfont Times 9.;#N vpatcher 861 169 1508 861;#N comlet time;#P inlet 603 131 15 0;#P window setfont Times 9.;#P window linecount 0;#P newex 379 324 54 1310729 projectpath;#B color 6;#P newex 379 378 47 1310729 tosymbol;#P newex 167 378 47 1310729 tosymbol;#P newex 167 324 54 1310729 projectpath;#B color 6;#P newex 379 406 57 1310729 prepend read;#P newex 167 406 61 1310729 prepend write;#P button 17 81 15 0;#P newex 54 127 122 1310729 s $1/storetemp;#B color 11;#P newex 17 127 33 1310729 del 10;#P newex 17 102 47 1310729 t b b;#P button 100 545 15 0;#P newex 100 567 122 1310729 s $1/storetemp;#B color 11;#P newex 100 492 32 1310729 t stop;#P newex 100 521 38 1310729 del 100;#P newex 333 88 249 1310729 t b b;#P newex 236 41 122 1310729 r $1/storetemp;#B color 11;#P window setfont "Sans Serif" 9.;#P newex 190 229 50 196617 deferlow;#P newex 371 236 51 196617 zl slice 1;#P newex 371 260 40 196617 itoa;#P newex 371 216 85 196617 substitute 47 45;#P newex 371 196 40 196617 atoi;#P window setfont Times 9.;#P newex 167 352 146 1310729 sprintf %sconfig/temp/%s-temp.txt;#P newex 333 157 48 1310729 t b b;#P newex 379 352 146 1310729 sprintf %sconfig/temp/%s-temp.txt;#P newex 180 149 18 1310729 t b;#P newex 180 41 53 1310729 r storetemp;#B color 11;#P newex 17 152 34 1310729 t open;#N comlet bang to open;#P inlet 17 62 15 0;#N comlet pvar recall;#P inlet 535 109 15 0;#N comlet pvar store;#P inlet 139 151 15 0;#P newex 139 174 67 1310729 t b b b;#P newex 535 128 18 1310729 t b;#P newex 73 459 41 1310729 onebang;#P message 371 178 56 1310729 $1;#P newex 333 67 45 1310729 loadbang;#P button 43 408 15 0;#N qlist;#P newobj 43 437 40 1310729 qlist;#N vpatcher 10 59 653 814;#P origin 0 15;#P window setfont "Sans Serif" 9.;#P window linecount 1;#P newex 54 276 32 196617 sel 0;#P window linecount 0;#P newex 54 256 27 196617 i;#N comlet time;#P inlet 446 39 15 0;#P window linecount 1;#P newex 39 196 27 196617 f;#P button 94 170 15 0;#P window linecount 0;#P newex 94 196 36 196617 zl reg;#P newex 40 146 46 196617 sel 0.;#P window linecount 1;#P comment 169 479 109 196617 contact@tommays.net;#P comment 169 466 100 196617 patch by Tom Mays;#P message 39 441 18 196617 \\\;;#P newex 39 472 75 196617 prepend append;#P newex 39 231 40 196617 t b b f;#P newex 94 421 65 196617 route symbol;#P outlet 39 520 15 0;#P newex 40 57 289 196617 b;#P message 319 102 22 196617 set;#P button 40 39 15 0;#N comlet bang to make qlist;#P inlet 40 20 15 0;#P message 40 98 31 196617 dump;#N coll $1/state 1;#P newobj 40 125 125 196617 coll $1/state 1;#B color 5;#P window linecount 2;#P comment 170 121 134 196617 arg 1 : coll name for variable values;#P connect 16 0 17 0;#P connect 17 0 9 0;#P connect 9 0 11 0;#P connect 9 2 10 0;#P connect 20 1 10 0;#P connect 11 0 10 0;#P connect 8 0 10 0;#P fasten 5 0 7 0 324 347 44 347;#P connect 10 0 7 0;#P connect 3 0 4 0;#P connect 4 0 6 0;#P connect 6 0 2 0;#P connect 2 0 1 0;#P connect 1 0 14 0;#P connect 9 1 19 0;#P connect 19 0 20 0;#P connect 1 0 17 1;#P connect 18 0 19 1;#P connect 14 1 16 0;#P connect 16 0 15 0;#P connect 15 0 8 0;#P fasten 1 1 15 1 83 144 125 144;#P connect 6 1 5 0;#P pop;#P newobj 57 333 65 1310729 p tempqlist $1;#B color 6;#P button 195 200 15 0;#P window setfont "Sans Serif" 9.;#P window linecount 3;#P comment 190 252 116 196617 read again without qlist trigger to remove path from qlist name;#P window linecount 1;#P comment 296 538 120 196617 "open" now stores first!;#P connect 13 0 34 0;#P connect 34 0 31 0;#P connect 31 0 32 0;#P connect 32 0 14 0;#P fasten 8 0 5 0 78 480 37 480 37 404 48 404;#P fasten 36 0 4 0 384 431 48 431;#P fasten 35 0 4 0 172 431 48 431;#P fasten 14 0 4 0 22 427 48 427;#P lcolor 6;#P connect 5 0 4 0;#P fasten 3 0 4 0 62 430 48 430;#P connect 31 1 33 0;#P connect 2 0 3 0;#P connect 4 2 8 0;#P connect 4 2 28 0;#P fasten 26 1 27 0 577 515 105 515;#P connect 28 0 27 0;#P connect 27 0 30 0;#P connect 30 0 29 0;#P fasten 9 0 8 1 540 456 109 456;#P connect 41 0 3 1;#P fasten 16 0 10 0 185 170 144 170;#P connect 11 0 10 0;#P connect 10 1 37 0;#P connect 37 0 19 0;#P connect 19 0 38 0;#P connect 38 0 35 0;#P connect 15 0 16 0;#P connect 25 0 16 0;#P connect 10 0 24 0;#P connect 10 2 2 0;#P connect 22 0 19 1;#P connect 6 0 26 0;#P fasten 9 0 18 0 540 150 338 150;#P connect 24 0 18 0;#P connect 26 0 18 0;#P connect 18 1 7 0;#P connect 7 0 20 0;#P connect 20 0 21 0;#P connect 21 0 23 0;#P fasten 21 1 22 0 451 256 376 256;#P fasten 23 1 22 0 417 256 376 256;#P fasten 18 0 40 0 338 315 384 315;#P connect 40 0 17 0;#P connect 17 0 39 0;#P connect 39 0 36 0;#P connect 22 0 17 1;#P connect 12 0 9 0;#P pop;#P newobj 982 327 84 1310729 p storetemppath $1;#B color 6;#P window setfont "Sans Serif" 9.;#P newex 1026 388 64 196617 vari $1/sw;#B color 5;#P user hint 1 34 14 48 "open temp preset text (qlist)" 750 100 0 65535 65535 52428 9 3 0 1 0 0 0;#P user hint 1 48 14 63 "recall temp preset" 750 100 0 65535 65535 52428 9 3 0 1 0 0 0;#P user hint 2 19 15 33 "store temp preset" 750 100 0 65535 65535 52428 9 3 0 1 0 0 0;#P user hint 2 2 21 16 "initialize this module" 750 100 0 65535 65535 52428 9 3 0 1 0 0 0;#P comment 941 172 178 196617 more parameters option (arg 2 \, 1/0);#P user panel 937 63 307 100;#X brgb 255 255 255;#X frgb 0 0 0;#X border 1;#X rounded 0;#X shadow 0;#X done;#P user panel 938 290 307 62;#X brgb 255 255 255;#X frgb 0 0 0;#X border 1;#X rounded 0;#X shadow 0;#X done;#P user panel 938 353 307 153;#X brgb 255 255 255;#X frgb 0 0 0;#X border 1;#X rounded 0;#X shadow 0;#X done;#P user panel 937 168 307 119;#X brgb 255 255 255;#X frgb 0 0 0;#X border 1;#X rounded 0;#X shadow 0;#X done;#P flonum 157 195 41 9 0. 100. 35 3 30 130 0 251 223 255 255 255 255 0 0 0;#P objectname /ch/44;#P comment 157 180 50 196617 /ch/44;#P objectname comment124;#P flonum 204 195 41 9 0. 100. 35 3 30 130 0 251 223 255 255 255 255 0 0 0;#P objectname /ch/45;#P comment 204 180 50 196617 /ch/45;#P objectname comment125;#P flonum 251 195 41 9 0. 100. 35 3 30 130 0 251 223 255 255 255 255 0 0 0;#P objectname /ch/46;#P comment 251 180 50 196617 /ch/46;#P objectname comment126;#P flonum 298 195 41 9 0. 100. 35 3 30 130 0 251 223 255 255 255 255 0 0 0;#P objectname /ch/47;#P comment 298 180 50 196617 /ch/47;#P objectname comment127;#P flonum 345 195 41 9 0. 100. 35 3 30 130 0 251 223 255 255 255 255 0 0 0;#P objectname /ch/48;#P comment 345 180 50 196617 /ch/48;#P objectname comment128;#P flonum 392 195 41 9 0. 100. 35 3 30 130 0 251 223 255 255 255 255 0 0 0;#P objectname /ch/49;#P comment 392 180 50 196617 /ch/49;#P objectname comment129;#P flonum 439 195 41 9 0. 100. 35 3 30 130 0 251 223 255 255 255 255 0 0 0;#P objectname /ch/50;#P comment 439 180 50 196617 /ch/50;#P objectname comment130;#P flonum 157 229 41 9 0. 100. 35 3 30 130 0 251 223 255 255 255 255 0 0 0;#P objectname /ch/54;#P comment 157 214 50 196617 /ch/54;#P objectname comment54;#P flonum 204 229 41 9 0. 100. 35 3 30 130 0 251 223 255 255 255 255 0 0 0;#P objectname /ch/55;#P comment 204 214 50 196617 /ch/55;#P objectname comment55;#P flonum 251 229 41 9 0. 100. 35 3 30 130 0 251 223 255 255 255 255 0 0 0;#P objectname /ch/56;#P comment 251 214 50 196617 /ch/56;#P objectname comment56;#P flonum 298 229 41 9 0. 100. 35 3 30 130 0 251 223 255 255 255 255 0 0 0;#P objectname /ch/57;#P comment 298 214 50 196617 /ch/57;#P objectname comment57;#P flonum 345 229 41 9 0. 100. 35 3 30 130 0 251 223 255 255 255 255 0 0 0;#P objectname /ch/58;#P comment 345 214 50 196617 /ch/58;#P objectname comment58;#P flonum 392 229 41 9 0. 100. 35 3 30 130 0 251 223 255 255 255 255 0 0 0;#P objectname /ch/59;#P comment 392 214 50 196617 /ch/59;#P objectname comment59;#P flonum 439 229 41 9 0. 100. 35 3 30 130 0 251 223 255 255 255 255 0 0 0;#P objectname /ch/60;#P comment 439 214 50 196617 /ch/60;#P objectname comment60;#P flonum 157 122 41 9 0. 100. 35 3 30 130 0 251 223 255 255 255 255 0 0 0;#P objectname /ch/24;#P comment 157 107 50 196617 /ch/24;#P objectname comment24;#P flonum 204 122 41 9 0. 100. 35 3 30 130 0 251 223 255 255 255 255 0 0 0;#P objectname /ch/25;#P comment 204 107 50 196617 /ch/25;#P objectname comment25;#P flonum 251 122 41 9 0. 100. 35 3 25 25 255 251 223 255 255 255 255 0 0 0;#P objectname /ch/26;#P comment 251 107 50 196617 /ch/26;#P objectname comment26;#P flonum 298 122 41 9 0. 100. 35 3 30 130 0 251 223 255 255 255 255 0 0 0;#P objectname /ch/27;#P comment 298 107 50 196617 /ch/27;#P objectname comment27;#P flonum 345 122 41 9 0. 100. 35 3 30 130 0 251 223 255 255 255 255 0 0 0;#P objectname /ch/28;#P comment 345 107 50 196617 /ch/28;#P objectname comment28;#P flonum 392 122 41 9 0. 100. 35 3 30 130 0 251 223 255 255 255 255 0 0 0;#P objectname /ch/29;#P comment 392 107 50 196617 /ch/29;#P objectname comment29;#P flonum 439 122 41 9 0. 100. 35 3 30 130 0 251 223 255 255 255 255 0 0 0;#P objectname /ch/30;#P comment 439 107 50 196617 /ch/30;#P objectname comment30;#P flonum 157 158 41 9 0. 100. 35 3 30 130 0 251 223 255 255 255 255 0 0 0;#P objectname /ch/34;#P comment 157 143 50 196617 /ch/34;#P objectname comment34;#P flonum 204 158 41 9 0. 100. 35 3 30 130 0 251 223 255 255 255 255 0 0 0;#P objectname /ch/35;#P comment 204 143 50 196617 /ch/35;#P objectname comment35;#P flonum 251 158 41 9 0. 100. 35 3 30 130 0 251 223 255 255 255 255 0 0 0;#P objectname /ch/36;#P comment 251 143 50 196617 /ch/36;#P objectname comment36;#P flonum 298 158 41 9 0. 100. 35 3 30 130 0 251 223 255 255 255 255 0 0 0;#P objectname /ch/37;#P comment 298 143 50 196617 /ch/37;#P objectname comment37;#P flonum 345 158 41 9 0. 100. 35 3 30 130 0 251 223 255 255 255 255 0 0 0;#P objectname /ch/38;#P comment 345 143 50 196617 /ch/38;#P objectname comment38;#P flonum 392 158 41 9 0. 100. 35 3 30 130 0 251 223 255 255 255 255 0 0 0;#P objectname /ch/39;#P comment 392 143 50 196617 /ch/39;#P objectname comment39;#P flonum 439 158 41 9 0. 100. 35 3 30 130 0 251 223 255 255 255 255 0 0 0;#P objectname /ch/40;#P comment 439 143 50 196617 /ch/40;#P objectname comment40;#P flonum 157 51 41 9 0. 100. 35 3 30 130 0 251 223 255 255 255 255 0 0 0;#P objectname /ch/4;#P comment 157 36 50 196617 /ch/4;#P objectname comment4;#P flonum 204 51 41 9 0. 100. 35 3 30 130 0 251 223 255 255 255 255 0 0 0;#P objectname /ch/5;#P comment 204 36 50 196617 /ch/5;#P objectname comment5;#P flonum 251 51 41 9 0. 100. 35 3 30 130 0 251 223 255 255 255 255 0 0 0;#P objectname /ch/6;#P comment 251 36 50 196617 /ch/6;#P objectname comment6;#P flonum 298 51 41 9 0. 100. 35 3 30 130 0 251 223 255 255 255 255 0 0 0;#P objectname /ch/7;#P comment 298 36 50 196617 /ch/7;#P objectname comment7;#P flonum 345 51 41 9 0. 100. 35 3 30 130 0 251 223 255 255 255 255 0 0 0;#P objectname /ch/8;#P comment 345 36 50 196617 /ch/8;#P objectname comment8;#P flonum 392 51 41 9 0. 100. 35 3 30 130 0 251 223 255 255 255 255 0 0 0;#P objectname /ch/9;#P comment 392 36 50 196617 /ch/9;#P objectname comment9;#P flonum 439 51 41 9 0. 100. 35 3 30 130 0 251 223 255 255 255 255 0 0 0;#P objectname /ch/10;#P comment 439 36 50 196617 /ch/10;#P objectname comment10;#P flonum 157 86 41 9 0. 100. 35 3 25 25 255 251 223 255 255 255 255 0 0 0;#P objectname /ch/14;#P comment 157 71 50 196617 /ch/14;#P objectname comment14;#P flonum 204 86 41 9 0. 100. 35 3 25 25 255 251 223 255 255 255 255 0 0 0;#P objectname /ch/15;#P comment 204 71 50 196617 /ch/15;#P objectname comment15;#P flonum 251 86 41 9 0. 100. 35 3 25 25 255 251 223 255 255 255 255 0 0 0;#P objectname /ch/16;#P comment 251 71 50 196617 /ch/16;#P objectname comment16;#P flonum 298 86 41 9 0. 100. 35 3 25 25 255 251 223 255 255 255 255 0 0 0;#P objectname /ch/17;#P comment 298 71 50 196617 /ch/17;#P objectname comment17;#P flonum 345 86 41 9 0. 100. 35 3 25 25 255 251 223 255 255 255 255 0 0 0;#P objectname /ch/18;#P comment 345 71 50 196617 /ch/18;#P objectname comment18;#P flonum 392 86 41 9 0. 100. 35 3 30 130 0 251 223 255 255 255 255 0 0 0;#P objectname /ch/19;#P comment 392 71 50 196617 /ch/19;#P objectname comment19;#P flonum 439 86 41 9 0. 100. 35 3 30 130 0 251 223 255 255 255 255 0 0 0;#P objectname /ch/20;#P comment 439 71 50 196617 /ch/20;#P objectname comment20;#P user panel 1 1 496 261;#X brgb 244 244 244;#X frgb 194 194 194;#X border 1;#X rounded 4;#X shadow 0;#X done;#P background;#P objectname panel;#P connect 358 0 355 0;#P connect 355 0 358 0;#P connect 357 0 358 0;#P connect 356 0 358 0;#P connect 409 0 406 0;#P connect 408 0 409 0;#P connect 407 0 409 0;#P connect 406 0 409 0;#P connect 312 0 309 0;#P connect 309 0 312 0;#P connect 311 0 312 0;#P connect 310 0 312 0;#P connect 220 0 217 0;#P connect 217 0 220 0;#P connect 219 0 220 0;#P connect 218 0 220 0;#P connect 355 1 356 0;#P connect 406 1 407 0;#P connect 309 1 310 0;#P connect 217 1 218 0;#P connect 354 0 351 0;#P connect 351 0 354 0;#P connect 353 0 354 0;#P connect 352 0 354 0;#P connect 405 0 402 0;#P connect 404 0 405 0;#P connect 403 0 405 0;#P connect 402 0 405 0;#P connect 308 0 305 0;#P connect 305 0 308 0;#P connect 307 0 308 0;#P connect 306 0 308 0;#P connect 216 0 213 0;#P connect 213 0 216 0;#P connect 215 0 216 0;#P connect 214 0 216 0;#P connect 351 1 352 0;#P connect 402 1 403 0;#P connect 305 1 306 0;#P connect 213 1 214 0;#P connect 350 0 347 0;#P connect 347 0 350 0;#P connect 349 0 350 0;#P connect 348 0 350 0;#P connect 401 0 398 0;#P connect 400 0 401 0;#P connect 399 0 401 0;#P connect 398 0 401 0;#P connect 304 0 301 0;#P connect 301 0 304 0;#P connect 303 0 304 0;#P connect 302 0 304 0;#P connect 212 0 209 0;#P connect 209 0 212 0;#P connect 211 0 212 0;#P connect 210 0 212 0;#P connect 347 1 348 0;#P connect 398 1 399 0;#P connect 301 1 302 0;#P connect 209 1 210 0;#P connect 346 0 343 0;#P connect 343 0 346 0;#P connect 345 0 346 0;#P connect 344 0 346 0;#P connect 397 0 394 0;#P connect 396 0 397 0;#P connect 394 0 397 0;#P connect 395 0 397 0;#P connect 300 0 297 0;#P connect 297 0 300 0;#P connect 299 0 300 0;#P connect 298 0 300 0;#P connect 208 0 205 0;#P connect 205 0 208 0;#P connect 207 0 208 0;#P connect 206 0 208 0;#P connect 343 1 344 0;#P connect 394 1 395 0;#P connect 297 1 298 0;#P connect 205 1 206 0;#P connect 342 0 339 0;#P connect 339 0 342 0;#P connect 341 0 342 0;#P connect 340 0 342 0;#P connect 393 0 390 0;#P connect 392 0 393 0;#P connect 391 0 393 0;#P connect 390 0 393 0;#P connect 296 0 293 0;#P connect 293 0 296 0;#P connect 295 0 296 0;#P connect 294 0 296 0;#P connect 204 0 201 0;#P connect 201 0 204 0;#P connect 203 0 204 0;#P connect 202 0 204 0;#P fasten 97 0 108 0 1031 438 842 438;#P connect 108 0 98 0;#P connect 98 0 96 0;#P connect 124 0 367 0;#P connect 339 1 340 0;#P connect 390 1 391 0;#P connect 293 1 294 0;#P connect 201 1 202 0;#P connect 110 0 112 0;#P connect 112 0 111 0;#P connect 111 0 113 0;#P connect 113 0 115 0;#P fasten 114 0 115 0 1038 252 948 252;#P fasten 116 0 110 0 995 211 986 211 986 189 964 189;#P connect 105 0 95 0;#P connect 107 0 124 0;#P connect 124 1 99 0;#P connect 103 0 95 1;#P connect 338 0 335 0;#P connect 335 0 338 0;#P connect 337 0 338 0;#P connect 336 0 338 0;#P connect 389 0 386 0;#P connect 388 0 389 0;#P connect 387 0 389 0;#P connect 386 0 389 0;#P connect 292 0 289 0;#P connect 289 0 292 0;#P connect 291 0 292 0;#P connect 290 0 292 0;#P connect 200 0 197 0;#P connect 197 0 200 0;#P connect 199 0 200 0;#P connect 198 0 200 0;#P connect 94 1 97 0;#P connect 104 0 95 2;#P fasten 111 1 114 0 963 230 1038 230;#P connect 367 0 95 3;#P connect 335 1 336 0;#P connect 386 1 387 0;#P connect 289 1 290 0;#P connect 197 1 198 0;#P connect 97 1 128 0;#P connect 128 0 127 0;#P connect 120 0 119 0;#P connect 119 0 117 0;#P connect 117 0 118 0;#P connect 118 0 121 0;#P connect 334 0 331 0;#P connect 331 0 334 0;#P connect 333 0 334 0;#P connect 332 0 334 0;#P connect 385 0 382 0;#P connect 384 0 385 0;#P connect 383 0 385 0;#P connect 382 0 385 0;#P connect 288 0 285 0;#P connect 285 0 288 0;#P connect 287 0 288 0;#P connect 286 0 288 0;#P connect 196 0 193 0;#P connect 193 0 196 0;#P connect 195 0 196 0;#P connect 194 0 196 0;#P connect 331 1 332 0;#P connect 382 1 383 0;#P connect 285 1 286 0;#P connect 193 1 194 0;#P connect 330 0 327 0;#P connect 327 0 330 0;#P connect 329 0 330 0;#P connect 328 0 330 0;#P connect 381 0 378 0;#P connect 380 0 381 0;#P connect 379 0 381 0;#P connect 378 0 381 0;#P connect 284 0 281 0;#P connect 281 0 284 0;#P connect 283 0 284 0;#P connect 282 0 284 0;#P connect 192 0 189 0;#P connect 189 0 192 0;#P connect 191 0 192 0;#P connect 190 0 192 0;#P connect 327 1 328 0;#P connect 378 1 379 0;#P connect 281 1 282 0;#P connect 189 1 190 0;#P connect 326 0 323 0;#P connect 323 0 326 0;#P connect 325 0 326 0;#P connect 324 0 326 0;#P connect 377 0 374 0;#P connect 376 0 377 0;#P connect 375 0 377 0;#P connect 374 0 377 0;#P connect 280 0 277 0;#P connect 277 0 280 0;#P connect 279 0 280 0;#P connect 278 0 280 0;#P connect 188 0 185 0;#P connect 185 0 188 0;#P connect 187 0 188 0;#P connect 186 0 188 0;#P connect 323 1 324 0;#P connect 374 1 375 0;#P connect 277 1 278 0;#P connect 185 1 186 0;#P connect 322 0 319 0;#P connect 319 0 322 0;#P connect 321 0 322 0;#P connect 320 0 322 0;#P connect 373 0 370 0;#P connect 372 0 373 0;#P connect 371 0 373 0;#P connect 370 0 373 0;#P connect 276 0 273 0;#P connect 273 0 276 0;#P connect 275 0 276 0;#P connect 274 0 276 0;#P connect 184 0 181 0;#P connect 181 0 184 0;#P connect 183 0 184 0;#P connect 182 0 184 0;#P connect 319 1 320 0;#P connect 370 1 371 0;#P connect 273 1 274 0;#P connect 181 1 182 0;#P connect 272 0 269 0;#P connect 269 0 272 0;#P connect 271 0 272 0;#P connect 270 0 272 0;#P connect 180 0 177 0;#P connect 177 0 180 0;#P connect 179 0 180 0;#P connect 178 0 180 0;#P connect 269 1 270 0;#P connect 177 1 178 0;#P connect 268 0 265 0;#P connect 265 0 268 0;#P connect 267 0 268 0;#P connect 266 0 268 0;#P connect 176 0 173 0;#P connect 173 0 176 0;#P connect 175 0 176 0;#P connect 174 0 176 0;#P connect 265 1 266 0;#P connect 173 1 174 0;#P connect 264 0 261 0;#P connect 261 0 264 0;#P connect 263 0 264 0;#P connect 262 0 264 0;#P connect 172 0 169 0;#P connect 169 0 172 0;#P connect 171 0 172 0;#P connect 170 0 172 0;#P connect 261 1 262 0;#P connect 169 1 170 0;#P connect 260 0 257 0;#P connect 257 0 260 0;#P connect 259 0 260 0;#P connect 258 0 260 0;#P connect 168 0 165 0;#P connect 165 0 168 0;#P connect 167 0 168 0;#P connect 166 0 168 0;#P connect 257 1 258 0;#P connect 165 1 166 0;#P connect 256 0 253 0;#P connect 253 0 256 0;#P connect 255 0 256 0;#P connect 254 0 256 0;#P connect 164 0 161 0;#P connect 161 0 164 0;#P connect 163 0 164 0;#P connect 162 0 164 0;#P connect 253 1 254 0;#P connect 161 1 162 0;#P connect 252 0 249 0;#P connect 249 0 252 0;#P connect 251 0 252 0;#P connect 250 0 252 0;#P connect 160 0 157 0;#P connect 157 0 160 0;#P connect 159 0 160 0;#P connect 158 0 160 0;#P connect 249 1 250 0;#P connect 157 1 158 0;#P connect 248 0 245 0;#P connect 245 0 248 0;#P connect 247 0 248 0;#P connect 246 0 248 0;#P connect 156 0 153 0;#P connect 153 0 156 0;#P connect 155 0 156 0;#P connect 154 0 156 0;#P connect 245 1 246 0;#P connect 153 1 154 0;#P connect 244 0 241 0;#P connect 241 0 244 0;#P connect 243 0 244 0;#P connect 242 0 244 0;#P connect 152 0 149 0;#P connect 149 0 152 0;#P connect 151 0 152 0;#P connect 150 0 152 0;#P connect 241 1 242 0;#P connect 149 1 150 0;#P connect 240 0 237 0;#P connect 237 0 240 0;#P connect 239 0 240 0;#P connect 238 0 240 0;#P connect 148 0 145 0;#P connect 145 0 148 0;#P connect 147 0 148 0;#P connect 146 0 148 0;#P connect 237 1 238 0;#P connect 145 1 146 0;#P connect 236 0 233 0;#P connect 233 0 236 0;#P connect 235 0 236 0;#P connect 234 0 236 0;#P connect 144 0 141 0;#P connect 141 0 144 0;#P connect 143 0 144 0;#P connect 142 0 144 0;#P connect 233 1 234 0;#P connect 141 1 142 0;#P pop;