max v2;#N vpatcher 562 71 1393 495;#P origin 69 167;#P button 229 316 15 0;#P window setfont "Sans Serif" 9.;#P window linecount 1;#P newex 229 293 55 196617 r /ch/init;#N qlist;#X append /ch/1/init bang \; /ch/2/init bang \; /ch/3/init bang \; /ch/4/init bang \; /ch/5/init bang \; /ch/6/init bang \;;#X append /ch/7/init bang \; /ch/8/init bang \; /ch/9/init bang \; /ch/10/init bang \; /ch/11/init bang \; /ch/12/init bang \;;#X append /ch/13/init bang \; /ch/14/init bang \; /ch/15/init bang \; /ch/16/init bang \; /ch/17/init bang \; /ch/18/init bang \;;#X append /ch/19/init bang \; /ch/20/init bang \; /ch/21/init bang \; /ch/22/init bang \; /ch/23/init bang \; /ch/24/init bang \;;#X append /ch/25/init bang \; /ch/26/init bang \; /ch/27/init bang \; /ch/28/init bang \; /ch/29/init bang \; /ch/30/init bang \;;#X append /ch/31/init bang \; /ch/32/init bang \; /ch/33/init bang \; /ch/34/init bang \; /ch/35/init bang \; /ch/36/init bang \;;#X append /ch/37/init bang \; /ch/38/init bang \; /ch/39/init bang \; /ch/40/init bang \; /ch/41/init bang \; /ch/42/init bang \;;#X append /ch/43/init bang \; /ch/44/init bang \; /ch/45/init bang \; /ch/46/init bang \; /ch/47/init bang \; /ch/48/init bang \;;#X append /ch/49/init bang \; /ch/50/init bang \; /ch/51/init bang \; /ch/52/init bang \; /ch/53/init bang \; /ch/54/init bang \;;#X append /ch/55/init bang \; /ch/56/init bang \; /ch/57/init bang \; /ch/58/init bang \; /ch/59/init bang \; /ch/60/init bang \;;#X append /ch/sw 1 \; module_register /ch \; 1000 \; /light/init/done bang \;;#P newobj 229 366 40 196617 qlist;#P newex 474 324 44 196617 s /light;#B color 12;#P newex 474 266 57 196617 r $1/light;#B color 12;#P newex 656 192 114 196617 l_channel_ /ch/60 $1;#B color 13;#P newex 656 173 114 196617 l_channel_ /ch/59 $1;#B color 13;#P newex 656 154 114 196617 l_channel_ /ch/58 $1;#B color 13;#P newex 656 135 114 196617 l_channel_ /ch/57 $1;#B color 13;#P newex 656 116 114 196617 l_channel_ /ch/56 $1;#B color 13;#P newex 656 97 114 196617 l_channel_ /ch/55 $1;#B color 13;#P newex 656 78 114 196617 l_channel_ /ch/54 $1;#B color 13;#P newex 656 59 114 196617 l_channel_ /ch/53 $1;#B color 13;#P newex 656 40 114 196617 l_channel_ /ch/52 $1;#B color 13;#P newex 656 21 114 196617 l_channel_ /ch/51 $1;#B color 13;#P newex 524 192 114 196617 l_channel_ /ch/50 $1;#B color 13;#P newex 524 173 114 196617 l_channel_ /ch/49 $1;#B color 13;#P newex 524 154 114 196617 l_channel_ /ch/48 $1;#B color 13;#P newex 524 135 114 196617 l_channel_ /ch/47 $1;#B color 13;#P newex 524 116 114 196617 l_channel_ /ch/46 $1;#B color 13;#P newex 524 97 114 196617 l_channel_ /ch/45 $1;#B color 13;#P newex 524 78 114 196617 l_channel_ /ch/44 $1;#B color 13;#P newex 524 59 114 196617 l_channel_ /ch/43 $1;#B color 13;#P newex 524 40 114 196617 l_channel_ /ch/42 $1;#B color 13;#P newex 524 21 114 196617 l_channel_ /ch/41 $1;#B color 13;#P newex 390 192 114 196617 l_channel_ /ch/40 $1;#B color 13;#P newex 390 173 114 196617 l_channel_ /ch/39 $1;#B color 13;#P newex 390 154 114 196617 l_channel_ /ch/38 $1;#B color 13;#P newex 390 135 114 196617 l_channel_ /ch/37 $1;#B color 13;#P newex 390 116 114 196617 l_channel_ /ch/36 $1;#B color 13;#P newex 390 97 114 196617 l_channel_ /ch/35 $1;#B color 13;#P newex 390 78 114 196617 l_channel_ /ch/34 $1;#B color 13;#P newex 390 59 114 196617 l_channel_ /ch/33 $1;#B color 13;#P newex 390 40 114 196617 l_channel_ /ch/32 $1;#B color 13;#P newex 390 21 114 196617 l_channel_ /ch/31 $1;#B color 13;#P newex 257 192 114 196617 l_channel_ /ch/30 $1;#B color 13;#P newex 257 173 114 196617 l_channel_ /ch/29 $1;#B color 13;#P newex 257 154 114 196617 l_channel_ /ch/28 $1;#B color 13;#P newex 257 135 114 196617 l_channel_ /ch/27 $1;#B color 13;#P newex 257 116 114 196617 l_channel_ /ch/26 $1;#B color 13;#P newex 257 97 114 196617 l_channel_ /ch/25 $1;#B color 13;#P newex 257 78 114 196617 l_channel_ /ch/24 $1;#B color 13;#P newex 257 59 114 196617 l_channel_ /ch/23 $1;#B color 13;#P newex 257 40 114 196617 l_channel_ /ch/22 $1;#B color 13;#P newex 257 21 114 196617 l_channel_ /ch/21 $1;#B color 13;#P newex 126 192 114 196617 l_channel_ /ch/20 $1;#B color 13;#P newex 126 173 114 196617 l_channel_ /ch/19 $1;#B color 13;#P newex 126 154 114 196617 l_channel_ /ch/18 $1;#B color 13;#P newex 126 135 114 196617 l_channel_ /ch/17 $1;#B color 13;#P newex 126 116 114 196617 l_channel_ /ch/16 $1;#B color 13;#P newex 126 97 114 196617 l_channel_ /ch/15 $1;#B color 13;#P newex 126 78 114 196617 l_channel_ /ch/14 $1;#B color 13;#P newex 126 59 114 196617 l_channel_ /ch/13 $1;#B color 13;#P newex 126 40 114 196617 l_channel_ /ch/12 $1;#B color 13;#P newex 126 21 114 196617 l_channel_ /ch/11 $1;#B color 13;#P newex 0 193 114 196617 l_channel_ /ch/10 $1;#B color 13;#P newex 0 174 114 196617 l_channel_ /ch/9 $1;#B color 13;#P newex 0 155 114 196617 l_channel_ /ch/8 $1;#B color 13;#P newex 0 136 114 196617 l_channel_ /ch/7 $1;#B color 13;#P newex 0 117 114 196617 l_channel_ /ch/6 $1;#B color 13;#P newex 0 98 114 196617 l_channel_ /ch/5 $1;#B color 13;#P newex 0 79 114 196617 l_channel_ /ch/4 $1;#B color 13;#P newex 0 60 114 196617 l_channel_ /ch/3 $1;#B color 13;#P newex 0 41 114 196617 l_channel_ /ch/2 $1;#B color 13;#P newex 0 22 114 196617 l_channel_ /ch/1 $1;#B color 13;#P connect 63 0 64 0;#P connect 64 0 62 0;#P connect 60 0 61 0;#P pop;