max v2;#N vpatcher 10 59 423 424;#P origin -49 -206;#P window setfont Times 9.;#P window linecount 1;#P hidden newex 95 133 33 1310729 del 50;#P hidden newex 93 103 45 1310729 loadbang;#P window setfont "Sans Serif" 9.;#P hidden message 94 180 93 196617 brgb 158 170 198;#P window setfont "Sans Serif" 12.;#P window linecount 2;#P comment 2 2 59 196620 GRAND MASTER;#P window setfont "Sans Serif" 9.;#P window linecount 1;#N thispatcher;#Q end;#P hidden newobj 0 251 61 196617 thispatcher;#P hidden newex 225 74 132 196617 variedit /light/master /ch;#B color 11;#P window setfont Times 9.;#P hidden newex 223 118 69 1310729 pvar num1;#P hidden newex 321 115 64 1310729 pvar fad1;#P window setfont "Sans Serif" 9.;#P flonum 12 172 31 9 0. 100. 8231 3 0 0 0 221 221 221 0 0 0 0 0 0;#P objectname num1;#P user multiSlider 6 34 45 159 0. 100. 1 2937 47 0 0 2 0 0 0;#M frgb 246 18 221;#M brgb 255 255 255;#M rgb2 127 127 127;#M rgb3 0 0 0;#M rgb4 37 52 91;#M rgb5 74 105 182;#M rgb6 112 158 18;#M rgb7 149 211 110;#M rgb8 187 9 201;#M rgb9 224 62 37;#M rgb10 7 114 128;#P objectname fad1;#P user panel 1 0 58 197;#X brgb 158 170 198;#X frgb 194 194 194;#X border 1;#X rounded 0;#X shadow 0;#X done;#P objectname panel;#P bpatcher 2 3 58 196 0 0 bkgnd-.mxt 0 /ch 1 1;#P background;#P objectname background;#P hidden connect 0 0 7 0;#P hidden connect 9 0 1 0;#P hidden connect 11 0 9 0;#P hidden connect 10 0 11 0;#P hidden connect 6 0 5 0;#P hidden fasten 4 0 6 0 326 147 211 147 211 67 230 67;#P hidden fasten 5 0 6 0 228 141 216 141 216 70 230 70;#P hidden connect 6 2 4 0;#P pop;