max v2;#N vpatcher 88 69 1222 836;#P origin 0 -75;#P window setfont "Sans Serif" 9.;#P window linecount 1;#P newex 671 605 30 196617 t b b;#P message 703 611 68 196617 set -999999;#P newex 264 624 193 196617 s $1/external/sw;#B color 11;#P newex 264 604 193 196617 r $2/external/sw;#B color 11;#P newex 299 666 223 196617 r $1_;#B color 11;#P newex 354 757 175 196617 print $1_;#B color 11;#P newex 354 735 29 196617 gate;#P toggle 354 712 15 0;#P newex 354 692 225 196617 r $1/print/sw;#B color 11;#P newex 232 687 32 196617 sel 1;#P newex 264 758 62 196617 s /external;#B color 11;#P toggle 264 665 15 0;#P newex 264 645 193 196617 r $1/external/sw;#B color 11;#P newex 264 736 29 196617 gate;#P newex 299 718 36 196617 zl reg;#P newex 373 712 211 196617 r $1_;#B color 11;#P newex 73 703 40 196617 change;#P newex 729 532 51 196617 zl slice 2;#P number 701 492 25 9 0 0 0 3 0 0 0 221 221 221 222 222 222 0 0 0;#P newex 701 512 38 196617 gate 2;#P newex 775 491 21 196617 t 1;#P newex 745 491 21 196617 t 2;#P newex 745 471 40 196617 route l;#P newex 745 451 67 196617 loadmess $3;#P comment 546 212 275 196617 ex: machin/scale machin l @initlist 0 127 0 1 0.1;#B frgb 255 0 0;#P message 262 224 14 196617 f;#P message 246 224 14 196617 l;#P comment 253 204 57 196617 data type;#P number 183 264 25 9 0 0 0 3 0 0 0 221 221 221 222 222 222 0 0 0;#P newex 213 243 21 196617 t 2;#P newex 183 243 21 196617 t 1;#P newex 183 223 40 196617 route l;#P newex 183 203 67 196617 loadmess $3;#P window linecount 2;#P comment 546 183 275 196617 if type is "l" for list \, stop at arg 3 "l" then use patcherarg @initlist followed by list of init values for param;#B frgb 255 0 0;#P window setfont Times 9.;#P window linecount 1;#P newex 977 610 53 1310729 prepend set;#P newex 977 590 58 1310729 route initlist;#P newex 933 570 54 1310729 patcherargs;#P window setfont "Sans Serif" 9.;#P newex 84 290 38 196617 gate 2;#P comment 832 310 136 196617 2 = dyn but not use linecurv;#B frgb 255 0 0;#N comlet alternate non-receive input;#P inlet 81 181 15 0;#P window setfont Times 10.;#P window linecount 2;#P comment 223 502 46 1310730 min grain size;#N comlet min grain size;#P inlet 208 502 15 0;#N comlet current grain size;#P outlet 242 575 15 0;#P window setfont Times 9.;#P window linecount 1;#P comment 257 576 73 1310729 current grain size;#P window setfont "Sans Serif" 9.;#P window linecount 3;#P comment 932 354 137 196617 message /makeparam/reset pour refaire les coll params avec init suivant;#B frgb 255 0 0;#P window linecount 1;#P newex 825 386 48 196617 t b clear;#P newex 825 364 105 196617 r /makeparam/reset;#B color 11;#P newex 538 463 172 196617 s $1/print/sw;#B color 11;#P newex 538 443 21 196617 t 0;#P comment 382 314 57 196617 min / max;#P comment 709 658 52 196617 init value;#P newex 11 728 229 196617 s $1_;#B color 11;#P window setfont "Sans Serif" 18.;#P comment 993 679 111 196626 makeparam;#P window setfont "Sans Serif" 9.;#P newex 637 699 19 196617 t f;#P newex 603 699 18 196617 t i;#P newex 638 626 21 196617 t 3;#P newex 614 626 21 196617 t 2;#P newex 590 626 21 196617 t 1;#P newex 590 603 58 196617 route i f;#P newex 590 581 67 196617 loadmess $3;#P number 603 651 25 9 0 0 0 3 0 0 0 221 221 221 222 222 222 0 0 0;#P newex 603 670 78 196617 gate 3;#P window linecount 2;#P comment 993 711 107 196617 patch by Tom Mays contact@tommays.net;#P window linecount 1;#P comment 832 322 127 196617 -only for dynamic params;#B frgb 255 0 0;#P newex 671 365 101 196617 r $1/init;#B color 11;#P window linecount 2;#P comment 832 286 132 196617 -for default min and max \, set 0 for min and 0 for max;#B frgb 255 0 0;#P window linecount 1;#P newex 329 449 53 196617 t 100000;#P newex 329 429 64 196617 sel 0.;#P newex 329 329 175 196617 loadmess $5 $6;#P newex 186 620 21 196617 t 0;#P newex 729 404 54 196617 onebang 1;#P message 729 425 350 196617 $1 $3 $4 $5 $6 $7;#P newex 671 728 277 196617 s $1;#B color 11;#P message 671 640 231 196617 $4;#P button 671 388 15 0;#P number 58 488 25 9 0 0 0 3 0 0 0 221 221 221 222 222 222 0 0 0;#P newex 131 446 27 196617 + 1;#P newex 131 425 67 196617 loadmess $7;#P newex 162 620 21 196617 t 2;#P newex 138 620 21 196617 t 1;#P newex 138 597 58 196617 route i f;#P newex 138 575 67 196617 loadmess $3;#P number 151 643 25 9 0 0 0 3 0 0 0 221 221 221 222 222 222 0 0 0;#P newex 58 507 64 196617 gate 3;#P newex 73 682 18 196617 t i;#P number 73 612 25 9 0 0 0 3 0 0 0 221 221 221 222 222 222 0 0 0;#P newex 73 640 49 196617 gate 2;#P newex 73 661 34 196617 + 0.5;#P flonum 329 491 68 9 0 0 0 3 0 0 0 221 221 221 222 222 222 0 0 0;#P newex 329 471 83 196617 maximum 1000.;#P newex 329 350 65 196617 unpack 0. 0.;#P flonum 329 410 58 9 0 0 0 3 0 0 0 221 221 221 222 222 222 0 0 0;#P newex 384 370 37 196617 abs 0.;#P newex 329 390 65 196617 maximum 0.;#P newex 329 370 37 196617 abs 0.;#P flonum 329 531 96 9 0 0 0 3 0 0 0 221 221 221 222 222 222 0 0 0;#P newex 329 510 85 196617 !/ 1410065408.;#P comment 525 322 122 196617 $8;#P comment 525 310 122 196617 $7;#P newex 112 553 141 196617 linecurv 0. $8;#B color 5;#P window linecount 8;#P comment 986 238 64 196617 types : \; b : bang \; t : toggle \; i : int \; f : float \; m : menu \; s : symbol \; l : list \;;#B frgb 255 0 0;#P window linecount 1;#P comment 525 298 122 196617 $6;#P comment 525 286 122 196617 $5;#P comment 525 274 122 196617 $4;#P comment 525 262 122 196617 $3;#P comment 525 250 122 196617 $2;#P newex 729 557 70 196617 prepend store;#N coll $2/params 1;#P newobj 729 583 134 196617 coll $2/params 1;#B color 5;#P window linecount 2;#P comment 220 358 87 196617 bang when store to coll completed;#P window linecount 1;#P newex 145 315 155 196617 prepend $1;#P newex 140 364 70 196617 prepend store;#N coll $2/state 1;#P newobj 142 385 130 196617 coll $2/state 1;#B color 5;#P newex 145 292 49 196617 zl slice 1;#P newex 112 181 241 196617 r $1;#B color 11;#N comlet value out;#P outlet 58 775 15 0;#P window linecount 8;#P comment 647 238 185 196617 arg 1 - variable name \; arg 2 - module name \; arg 3 - data type \; arg 4 - init value \; arg 5 - min \; arg 6 - max \; arg 7 - dynamic [0 1 2] \; arg 8 - min line grain time (20ms if 0);#P window linecount 1;#P comment 525 238 122 196617 $1;#P window linecount 3;#P comment 399 389 100 196617 calculate correct floating point resolution multiplier;#P window linecount 1;#P comment 164 447 47 196617 dynamic;#P button 345 66 15 0;#P newex 120 213 36 196617 zl reg;#P newex 319 30 38 196617 r time;#B color 11;#P message 309 231 39 196617 set \$1;#P newex 144 341 40 196617 append;#P fasten 86 0 72 0 89 324 16 324;#P lcolor 7;#P connect 37 1 72 0;#P lcolor 7;#P connect 40 2 72 0;#P lcolor 7;#P connect 40 0 72 0;#P lcolor 7;#P connect 107 0 72 0;#P lcolor 7;#P connect 47 0 48 0;#P connect 48 0 40 0;#P fasten 86 0 9 0 89 328 49 328 49 762 63 762;#P fasten 37 1 9 0 117 759 63 759;#P connect 40 0 9 0;#P fasten 40 2 9 0 117 538 63 538;#P lcolor 2;#P connect 107 0 9 0;#P connect 41 0 38 0;#P connect 38 0 37 0;#P connect 37 0 36 0;#P connect 36 0 39 0;#P connect 39 0 107 0;#P connect 122 0 107 0;#P connect 95 0 86 0;#P connect 10 0 86 1;#P connect 84 0 86 1;#P connect 3 0 86 1;#P connect 86 1 40 1;#P connect 40 1 24 0;#P connect 24 0 37 1;#P connect 10 0 3 0;#P connect 4 0 3 0;#P connect 46 0 47 0;#P connect 42 0 43 0;#P connect 43 0 44 0;#P connect 0 0 13 0;#P connect 13 0 12 0;#P connect 1 0 0 0;#P connect 14 0 0 0;#P connect 86 1 11 0;#P connect 11 0 14 0;#P connect 86 0 14 0;#P connect 54 0 41 0;#P connect 45 0 41 0;#P connect 44 0 41 0;#P connect 43 1 45 0;#P connect 91 0 92 0;#P connect 97 0 92 0;#P connect 98 0 92 0;#P connect 92 0 93 0;#P connect 93 0 95 0;#P connect 94 0 95 0;#P connect 43 2 54 0;#P connect 82 0 24 3;#P connect 92 1 94 0;#P connect 112 0 114 0;#P connect 28 0 24 4;#P connect 24 2 81 0;#P connect 120 0 121 0;#P connect 111 0 112 0;#P connect 112 0 110 0;#P connect 110 0 113 0;#P connect 109 0 110 1;#P connect 119 0 109 0;#P connect 114 0 109 0;#P connect 2 0 1 0;#P connect 55 0 33 0;#P connect 33 0 29 0;#P connect 29 0 30 0;#P connect 30 0 32 0;#P connect 32 0 56 0;#P connect 56 0 57 0;#P connect 57 0 34 0;#P fasten 56 1 34 0 388 468 334 468;#P connect 34 0 35 0;#P connect 35 0 27 0;#P connect 27 0 28 0;#P connect 2 0 4 0;#P connect 115 0 116 0;#P connect 116 0 117 0;#P connect 117 0 118 0;#P connect 108 0 117 1;#P connect 33 1 31 0;#P connect 31 0 30 1;#P connect 49 0 75 0;#P connect 75 0 76 0;#P connect 64 0 65 0;#P connect 65 0 66 0;#P connect 68 0 63 0;#P connect 66 0 63 0;#P connect 67 0 63 0;#P connect 63 0 62 0;#P connect 62 0 69 0;#P connect 65 1 67 0;#P connect 62 1 70 0;#P connect 65 2 68 0;#P connect 59 0 49 0;#P connect 49 0 123 0;#P connect 89 0 50 0;#P connect 123 0 50 0;#P connect 50 0 62 1;#P connect 69 0 51 0;#P connect 62 2 51 0;#P connect 70 0 51 0;#P connect 102 0 105 0;#P connect 103 0 105 0;#P connect 105 0 104 0;#P connect 123 1 122 0;#P connect 49 0 53 0;#P connect 53 0 52 0;#P connect 52 0 104 1;#P connect 104 1 106 0;#P connect 106 0 17 0;#P fasten 104 0 17 0 706 554 734 554;#P connect 17 0 16 0;#P fasten 78 1 16 0 868 578 734 578;#P connect 100 0 101 0;#P connect 101 0 102 0;#P connect 78 0 53 1;#P connect 101 1 103 0;#P connect 77 0 78 0;#P connect 87 1 88 0;#P connect 88 0 89 0;#P pop;