max v2;#N vpatcher 358 167 1372 482;#P origin 5 227;#P window setfont "Sans Serif" 9.;#P window linecount 1;#P newex 401 4169 95 196617 s /tapemovie/dmx;#P window setfont "Lucida Grande" 10.;#P hidden newex 467 55 59 67108874 prepend 0;#P objectname line-dmx0;#P window setfont "Sans Serif" 18.;#N vpatcher 509 376 1095 675;#P origin 4 0;#P window setfont "Sans Serif" 9.;#P window linecount 1;#P newex 337 145 51 196617 tosymbol;#P newex 178 130 51 196617 tosymbol;#P button 107 23 15 0;#P newex 140 76 62 196617 projectpath;#B color 5;#P newex 13 50 137 196617 t dump b;#P button 340 50 15 0;#P newex 340 27 108 196617 r /save_patch/editor;#B color 12;#P newex 340 76 62 196617 projectpath;#B color 5;#P newex 340 95 169 196617 sprintf write %sconfig/l_patch.txt;#P newex 140 97 164 196617 sprintf read %sconfig/l_patch.txt;#P window linecount 0;#P newex 26 97 37 196617 t open;#P newex 26 76 81 196617 r /patch/editor;#B color 12;#P newex 13 27 65 196617 r /light/init;#B color 12;#P newex 70 219 73 196617 onebang;#P newex 53 149 62 196617 prepend set;#P newex 53 173 45 196617 prepend;#P newex 53 196 27 196617 t l b;#N coll l_patch.txt 1;#P newobj 13 126 105 196617 coll l_patch.txt 1;#B color 5;#P message 70 241 48 196617 init bang;#P outlet 53 264 15 0;#P connect 7 0 15 0;#P connect 17 0 15 0;#P connect 19 0 2 0;#P connect 18 0 2 0;#P fasten 9 0 2 0 31 117 18 117;#P connect 15 0 2 0;#P connect 8 0 9 0;#P connect 2 1 5 0;#P connect 5 0 4 0;#P fasten 2 0 4 0 18 169 58 169;#P connect 4 0 3 0;#P connect 3 0 0 0;#P connect 1 0 0 0;#P connect 3 1 6 0;#P connect 6 0 1 0;#P connect 2 3 6 1;#P connect 15 1 16 0;#P connect 16 0 10 0;#P connect 10 0 18 0;#P connect 11 0 19 0;#P connect 13 0 14 0;#P connect 14 0 12 0;#P connect 12 0 11 0;#P pop;#P newobj 303 53 134 196626 p patch editor;#B color 6;#P window setfont "Sans Serif" 9.;#N vpatcher 10 59 138 187;#P outlet 11 50 15 0;#P inlet 11 26 15 0;#P connect 0 0 1 0;#P pop;#P newobj 401 4143 37 196617 p thru;#P objectname iliketoscript3[1];#N vpatcher 10 59 138 187;#P outlet 11 50 15 0;#P inlet 11 26 15 0;#P connect 0 0 1 0;#P pop;#P newobj 751 4084 37 196617 p thru;#P objectname iliketoscript4;#N vpatcher 10 59 138 187;#P outlet 11 50 15 0;#P inlet 11 26 15 0;#P connect 0 0 1 0;#P pop;#P newobj 501 4084 37 196617 p thru;#P objectname iliketoscript3;#N vpatcher 10 59 138 187;#P outlet 11 50 15 0;#P inlet 11 26 15 0;#P connect 0 0 1 0;#P pop;#P newobj 251 4084 37 196617 p thru;#P objectname iliketoscript2;#N vpatcher 10 59 138 187;#P outlet 11 50 15 0;#P inlet 11 26 15 0;#P connect 0 0 1 0;#P pop;#P newobj 1 4084 37 196617 p thru;#P objectname iliketoscript1;#P newex 189 41 20 196617 t b;#P message 189 60 33 196617 front;#P newex 189 22 115 196617 r /patch_engine/editor;#B color 12;#P window linecount 3;#P newex 1921 236 122 196617 print THIS_CHANNEL_WAS'NT_IMPLEMENTED;#P objectname patch_dumpout;#P window linecount 1;#N vpatcher 460 253 805 552;#P origin 0 -15;#P window setfont "Sans Serif" 9.;#P window linecount 2;#P newex 50 160 218 196617 sprintf %s script connect router %i line-dmx%i 0;#P window linecount 0;#P newex 154 28 37 196617 zl rev;#P window linecount 1;#P newex 241 98 49 196617 route int;#P message 89 117 14 196617 0;#P newex 50 93 49 196617 t b b;#P newex 50 73 48 196617 loadbang;#P newex 241 76 47 196617 zl iter 1;#P newex 50 193 62 196617 route bogus;#P message 50 117 35 196617 bogus;#P newex 154 53 51 196617 zl ecils 1;#P inlet 154 7 15 0;#P outlet 50 215 15 0;#P newex 154 82 27 196617 - 1;#P newex 241 120 27 196617 t b i;#P connect 8 0 9 0;#P connect 9 0 5 0;#P connect 5 0 13 0;#P fasten 0 0 13 0 246 148 55 148;#P connect 13 0 6 0;#P connect 6 0 2 0;#P connect 9 1 10 0;#P connect 3 0 12 0;#P connect 12 0 4 0;#P fasten 4 1 1 0 200 76 159 76;#P fasten 10 0 13 1 94 146 159 146;#P lcolor 7;#P connect 1 0 13 1;#P fasten 4 0 7 0 159 72 246 72;#P connect 7 0 11 0;#P connect 11 0 0 0;#P connect 0 1 13 2;#P fasten 10 0 13 2 94 143 263 143;#P lcolor 7;#P pop;#P newobj 56 55 58 196617 p scripting;#N vpatcher 409 423 1211 917;#P origin 579 151;#P window setfont "Sans Serif" 9.;#P window linecount 1;#P message 124 91 206 196617 script connect router 200 patch_dumpout 0;#P message 674 91 99 196617 script delete router;#P newex 1 42 55 196617 t b b b b;#P window linecount 2;#P message 1 91 120 196617 script connect light_receive 0 router 0;#P inlet 1 21 15 0;#P outlet 1 443 15 0;#P window linecount 22;#P message 255 91 394 196617 script new router newex 4 100 1020 196617 route /ch/1 /ch/2 /ch/3 /ch/4 /ch/5 /ch/6 /ch/7 /ch/8 /ch/9 /ch/10 /ch/11 /ch/12 /ch/13 /ch/14 /ch/15 /ch/16 /ch/17 /ch/18 /ch/19 /ch/20 /ch/21 /ch/22 /ch/23 /ch/24 /ch/25 /ch/26 /ch/27 /ch/28 /ch/29 /ch/30 /ch/31 /ch/32 /ch/33 /ch/34 /ch/35 /ch/36 /ch/37 /ch/38 /ch/39 /ch/40 /ch/41 /ch/42 /ch/43 /ch/44 /ch/45 /ch/46 /ch/47 /ch/48 /ch/49 /ch/50 /ch/51 /ch/52 /ch/53 /ch/54 /ch/55 /ch/56 /ch/57 /ch/58 /ch/59 /ch/60 /ch/61 /ch/62 /ch/63 /ch/64 /ch/65 /ch/66 /ch/67 /ch/68 /ch/69 /ch/70 /ch/71 /ch/72 /ch/73 /ch/74 /ch/75 /ch/76 /ch/77 /ch/78 /ch/79 /ch/80 /ch/81 /ch/82 /ch/83 /ch/84 /ch/85 /ch/86 /ch/87 /ch/88 /ch/89 /ch/90 /ch/91 /ch/92 /ch/93 /ch/94 /ch/95 /ch/96 /ch/97 /ch/98 /ch/99 /ch/100 /ch/101 /ch/102 /ch/103 /ch/104 /ch/105 /ch/106 /ch/107 /ch/108 /ch/109 /ch/110 /ch/111 /ch/112 /ch/113 /ch/114 /ch/115 /ch/116 /ch/117 /ch/118 /ch/119 /ch/120 /ch/121 /ch/122 /ch/123 /ch/124 /ch/125 /ch/126 /ch/127 /ch/128 /ch/129 /ch/130 /ch/131 /ch/132 /ch/133 /ch/134 /ch/135 /ch/136 /ch/137 /ch/138 /ch/139 /ch/140 /ch/141 /ch/142 /ch/143 /ch/144 /ch/145 /ch/146 /ch/147 /ch/148 /ch/149 /ch/150 /ch/151 /ch/152 /ch/153 /ch/154 /ch/155 /ch/156 /ch/157 /ch/158 /ch/159 /ch/160 /ch/161 /ch/162 /ch/163 /ch/164 /ch/165 /ch/166 /ch/167 /ch/168 /ch/169 /ch/170 /ch/171 /ch/172 /ch/173 /ch/174 /ch/175 /ch/176 /ch/177 /ch/178 /ch/179 /ch/180 /ch/181 /ch/182 /ch/183 /ch/184 /ch/185 /ch/186 /ch/187 /ch/188 /ch/189 /ch/190 /ch/191 /ch/192 /ch/193 /ch/194 /ch/195 /ch/196 /ch/197 /ch/198 /ch/199 /ch/200;#P connect 2 0 4 0;#P fasten 4 0 3 0 6 75 6 75;#P fasten 0 0 1 0 260 424 6 424;#P fasten 5 0 1 0 679 424 6 424;#P fasten 3 0 1 0 6 280 6 280;#P fasten 6 0 1 0 129 424 6 424;#P fasten 4 1 6 0 21 75 129 75;#P fasten 4 2 0 0 36 75 260 75;#P fasten 4 3 5 0 51 75 679 75;#P pop;#P newobj 151 55 33 196617 p init;#N thispatcher;#Q end;#P newobj 56 81 61 196617 thispatcher;#P newex 1 79 44 196617 r /light;#P objectname light_receive;#P newex 56 22 52 196617 route init;#P window setfont "Lucida Grande" 10.;#P newex 1 236 150 67108874 prepend 1;#P objectname line-dmx1;#P newex 1 266 150 67108874 prepend 2;#P objectname line-dmx2;#P newex 1 296 150 67108874 prepend 3;#P objectname line-dmx3;#P newex 1 326 150 67108874 prepend 4;#P objectname line-dmx4;#P newex 1 356 150 67108874 prepend 5;#P objectname line-dmx5;#P newex 1 386 150 67108874 prepend 6;#P objectname line-dmx6;#P newex 1 416 150 67108874 prepend 7;#P objectname line-dmx7;#P newex 1 446 150 67108874 prepend 8;#P objectname line-dmx8;#P newex 1 476 150 67108874 prepend 9;#P objectname line-dmx9;#P newex 1 506 150 67108874 prepend 10;#P objectname line-dmx10;#P newex 1 536 150 67108874 prepend 11;#P objectname line-dmx11;#P newex 1 566 150 67108874 prepend 12;#P objectname line-dmx12;#P newex 1 596 150 67108874 prepend 13;#P objectname line-dmx13;#P newex 1 626 150 67108874 prepend 14;#P objectname line-dmx14;#P newex 1 656 150 67108874 prepend 15;#P objectname line-dmx15;#P newex 1 686 150 67108874 prepend 16;#P objectname line-dmx16;#P newex 1 716 150 67108874 prepend 17;#P objectname line-dmx17;#P newex 1 746 150 67108874 prepend 18;#P objectname line-dmx18;#P newex 1 776 150 67108874 prepend 19;#P objectname line-dmx19;#P newex 1 806 150 67108874 prepend 20;#P objectname line-dmx20;#P newex 1 836 150 67108874 prepend 21;#P objectname line-dmx21;#P newex 1 866 150 67108874 prepend 22;#P objectname line-dmx22;#P newex 1 896 150 67108874 prepend 23;#P objectname line-dmx23;#P newex 1 926 150 67108874 prepend 24;#P objectname line-dmx24;#P newex 1 956 150 67108874 prepend 25;#P objectname line-dmx25;#P newex 1 986 150 67108874 prepend 26;#P objectname line-dmx26;#P newex 1 1016 150 67108874 prepend 27;#P objectname line-dmx27;#P newex 1 1046 150 67108874 prepend 28;#P objectname line-dmx28;#P newex 1 1076 150 67108874 prepend 29;#P objectname line-dmx29;#P newex 1 1106 150 67108874 prepend 30;#P objectname line-dmx30;#P newex 1 1136 150 67108874 prepend 31;#P objectname line-dmx31;#P newex 1 1166 150 67108874 prepend 32;#P objectname line-dmx32;#P newex 1 1196 150 67108874 prepend 33;#P objectname line-dmx33;#P newex 1 1226 150 67108874 prepend 34;#P objectname line-dmx34;#P newex 1 1256 150 67108874 prepend 35;#P objectname line-dmx35;#P newex 1 1286 150 67108874 prepend 36;#P objectname line-dmx36;#P newex 1 1316 150 67108874 prepend 37;#P objectname line-dmx37;#P newex 1 1346 150 67108874 prepend 38;#P objectname line-dmx38;#P newex 1 1376 150 67108874 prepend 39;#P objectname line-dmx39;#P newex 1 1406 150 67108874 prepend 40;#P objectname line-dmx40;#P newex 1 1436 150 67108874 prepend 41;#P objectname line-dmx41;#P newex 1 1466 150 67108874 prepend 42;#P objectname line-dmx42;#P newex 1 1496 150 67108874 prepend 43;#P objectname line-dmx43;#P newex 1 1526 150 67108874 prepend 44;#P objectname line-dmx44;#P newex 1 1556 150 67108874 prepend 45;#P objectname line-dmx45;#P newex 1 1586 150 67108874 prepend 46;#P objectname line-dmx46;#P newex 1 1616 150 67108874 prepend 47;#P objectname line-dmx47;#P newex 1 1646 150 67108874 prepend 48;#P objectname line-dmx48;#P newex 1 1676 150 67108874 prepend 49;#P objectname line-dmx49;#P newex 1 1706 150 67108874 prepend 50;#P objectname line-dmx50;#P newex 1 1736 150 67108874 prepend 51;#P objectname line-dmx51;#P newex 1 1766 150 67108874 prepend 52;#P objectname line-dmx52;#P newex 1 1796 150 67108874 prepend 53;#P objectname line-dmx53;#P newex 1 1826 150 67108874 prepend 54;#P objectname line-dmx54;#P newex 1 1856 150 67108874 prepend 55;#P objectname line-dmx55;#P newex 1 1886 150 67108874 prepend 56;#P objectname line-dmx56;#P newex 1 1916 150 67108874 prepend 57;#P objectname line-dmx57;#P newex 1 1946 150 67108874 prepend 58;#P objectname line-dmx58;#P newex 1 1976 150 67108874 prepend 59;#P objectname line-dmx59;#P newex 1 2006 150 67108874 prepend 60;#P objectname line-dmx60;#P newex 1 2036 150 67108874 prepend 61;#P objectname line-dmx61;#P newex 1 2066 150 67108874 prepend 62;#P objectname line-dmx62;#P newex 1 2096 150 67108874 prepend 63;#P objectname line-dmx63;#P newex 1 2126 150 67108874 prepend 64;#P objectname line-dmx64;#P newex 1 2156 150 67108874 prepend 65;#P objectname line-dmx65;#P newex 1 2186 150 67108874 prepend 66;#P objectname line-dmx66;#P newex 1 2216 150 67108874 prepend 67;#P objectname line-dmx67;#P newex 1 2246 150 67108874 prepend 68;#P objectname line-dmx68;#P newex 1 2276 150 67108874 prepend 69;#P objectname line-dmx69;#P newex 1 2306 150 67108874 prepend 70;#P objectname line-dmx70;#P newex 1 2336 150 67108874 prepend 71;#P objectname line-dmx71;#P newex 1 2366 150 67108874 prepend 72;#P objectname line-dmx72;#P newex 1 2396 150 67108874 prepend 73;#P objectname line-dmx73;#P newex 1 2426 150 67108874 prepend 74;#P objectname line-dmx74;#P newex 1 2456 150 67108874 prepend 75;#P objectname line-dmx75;#P newex 1 2486 150 67108874 prepend 76;#P objectname line-dmx76;#P newex 1 2516 150 67108874 prepend 77;#P objectname line-dmx77;#P newex 1 2546 150 67108874 prepend 78;#P objectname line-dmx78;#P newex 1 2576 150 67108874 prepend 79;#P objectname line-dmx79;#P newex 1 2606 150 67108874 prepend 80;#P objectname line-dmx80;#P newex 1 2636 150 67108874 prepend 81;#P objectname line-dmx81;#P newex 1 2666 150 67108874 prepend 82;#P objectname line-dmx82;#P newex 1 2696 150 67108874 prepend 83;#P objectname line-dmx83;#P newex 1 2726 150 67108874 prepend 84;#P objectname line-dmx84;#P newex 1 2756 150 67108874 prepend 85;#P objectname line-dmx85;#P newex 1 2786 150 67108874 prepend 86;#P objectname line-dmx86;#P newex 1 2816 150 67108874 prepend 87;#P objectname line-dmx87;#P newex 1 2846 150 67108874 prepend 88;#P objectname line-dmx88;#P newex 1 2876 150 67108874 prepend 89;#P objectname line-dmx89;#P newex 1 2906 150 67108874 prepend 90;#P objectname line-dmx90;#P newex 1 2936 150 67108874 prepend 91;#P objectname line-dmx91;#P newex 1 2966 150 67108874 prepend 92;#P objectname line-dmx92;#P newex 1 2996 150 67108874 prepend 93;#P objectname line-dmx93;#P newex 1 3026 150 67108874 prepend 94;#P objectname line-dmx94;#P newex 1 3056 150 67108874 prepend 95;#P objectname line-dmx95;#P newex 1 3086 150 67108874 prepend 96;#P objectname line-dmx96;#P newex 1 3116 150 67108874 prepend 97;#P objectname line-dmx97;#P newex 1 3146 150 67108874 prepend 98;#P objectname line-dmx98;#P newex 1 3176 150 67108874 prepend 99;#P objectname line-dmx99;#P newex 1 3206 150 67108874 prepend 100;#P objectname line-dmx100;#P newex 1 3236 150 67108874 prepend 101;#P objectname line-dmx101;#P newex 1 3266 150 67108874 prepend 102;#P objectname line-dmx102;#P newex 1 3296 150 67108874 prepend 103;#P objectname line-dmx103;#P newex 1 3326 150 67108874 prepend 104;#P objectname line-dmx104;#P newex 1 3356 150 67108874 prepend 105;#P objectname line-dmx105;#P newex 1 3386 150 67108874 prepend 106;#P objectname line-dmx106;#P newex 1 3416 150 67108874 prepend 107;#P objectname line-dmx107;#P newex 1 3446 150 67108874 prepend 108;#P objectname line-dmx108;#P newex 1 3476 150 67108874 prepend 109;#P objectname line-dmx109;#P newex 1 3506 150 67108874 prepend 110;#P objectname line-dmx110;#P newex 1 3536 150 67108874 prepend 111;#P objectname line-dmx111;#P newex 1 3566 150 67108874 prepend 112;#P objectname line-dmx112;#P newex 1 3596 150 67108874 prepend 113;#P objectname line-dmx113;#P newex 1 3626 150 67108874 prepend 114;#P objectname line-dmx114;#P newex 1 3656 150 67108874 prepend 115;#P objectname line-dmx115;#P newex 1 3686 150 67108874 prepend 116;#P objectname line-dmx116;#P newex 1 3716 150 67108874 prepend 117;#P objectname line-dmx117;#P newex 1 3746 150 67108874 prepend 118;#P objectname line-dmx118;#P newex 1 3776 150 67108874 prepend 119;#P objectname line-dmx119;#P newex 1 3806 150 67108874 prepend 120;#P objectname line-dmx120;#P newex 1 3836 150 67108874 prepend 121;#P objectname line-dmx121;#P newex 1 3866 150 67108874 prepend 122;#P objectname line-dmx122;#P newex 1 3896 150 67108874 prepend 123;#P objectname line-dmx123;#P newex 1 3926 150 67108874 prepend 124;#P objectname line-dmx124;#P newex 1 3956 150 67108874 prepend 125;#P objectname line-dmx125;#P newex 1 3986 150 67108874 prepend 126;#P objectname line-dmx126;#P newex 1 4016 150 67108874 prepend 127;#P objectname line-dmx127;#P newex 1 4046 150 67108874 prepend 128;#P objectname line-dmx128;#P newex 251 236 150 67108874 prepend 129;#P objectname line-dmx129;#P newex 251 266 150 67108874 prepend 130;#P objectname line-dmx130;#P newex 251 296 150 67108874 prepend 131;#P objectname line-dmx131;#P newex 251 326 150 67108874 prepend 132;#P objectname line-dmx132;#P newex 251 356 150 67108874 prepend 133;#P objectname line-dmx133;#P newex 251 386 150 67108874 prepend 134;#P objectname line-dmx134;#P newex 251 416 150 67108874 prepend 135;#P objectname line-dmx135;#P newex 251 446 150 67108874 prepend 136;#P objectname line-dmx136;#P newex 251 476 150 67108874 prepend 137;#P objectname line-dmx137;#P newex 251 506 150 67108874 prepend 138;#P objectname line-dmx138;#P newex 251 536 150 67108874 prepend 139;#P objectname line-dmx139;#P newex 251 566 150 67108874 prepend 140;#P objectname line-dmx140;#P newex 251 596 150 67108874 prepend 141;#P objectname line-dmx141;#P newex 251 626 150 67108874 prepend 142;#P objectname line-dmx142;#P newex 251 656 150 67108874 prepend 143;#P objectname line-dmx143;#P newex 251 686 150 67108874 prepend 144;#P objectname line-dmx144;#P newex 251 716 150 67108874 prepend 145;#P objectname line-dmx145;#P newex 251 746 150 67108874 prepend 146;#P objectname line-dmx146;#P newex 251 776 150 67108874 prepend 147;#P objectname line-dmx147;#P newex 251 806 150 67108874 prepend 148;#P objectname line-dmx148;#P newex 251 836 150 67108874 prepend 149;#P objectname line-dmx149;#P newex 251 866 150 67108874 prepend 150;#P objectname line-dmx150;#P newex 251 896 150 67108874 prepend 151;#P objectname line-dmx151;#P newex 251 926 150 67108874 prepend 152;#P objectname line-dmx152;#P newex 251 956 150 67108874 prepend 153;#P objectname line-dmx153;#P newex 251 986 150 67108874 prepend 154;#P objectname line-dmx154;#P newex 251 1016 150 67108874 prepend 155;#P objectname line-dmx155;#P newex 251 1046 150 67108874 prepend 156;#P objectname line-dmx156;#P newex 251 1076 150 67108874 prepend 157;#P objectname line-dmx157;#P newex 251 1106 150 67108874 prepend 158;#P objectname line-dmx158;#P newex 251 1136 150 67108874 prepend 159;#P objectname line-dmx159;#P newex 251 1166 150 67108874 prepend 160;#P objectname line-dmx160;#P newex 251 1196 150 67108874 prepend 161;#P objectname line-dmx161;#P newex 251 1226 150 67108874 prepend 162;#P objectname line-dmx162;#P newex 251 1256 150 67108874 prepend 163;#P objectname line-dmx163;#P newex 251 1286 150 67108874 prepend 164;#P objectname line-dmx164;#P newex 251 1316 150 67108874 prepend 165;#P objectname line-dmx165;#P newex 251 1346 150 67108874 prepend 166;#P objectname line-dmx166;#P newex 251 1376 150 67108874 prepend 167;#P objectname line-dmx167;#P newex 251 1406 150 67108874 prepend 168;#P objectname line-dmx168;#P newex 251 1436 150 67108874 prepend 169;#P objectname line-dmx169;#P newex 251 1466 150 67108874 prepend 170;#P objectname line-dmx170;#P newex 251 1496 150 67108874 prepend 171;#P objectname line-dmx171;#P newex 251 1526 150 67108874 prepend 172;#P objectname line-dmx172;#P newex 251 1556 150 67108874 prepend 173;#P objectname line-dmx173;#P newex 251 1586 150 67108874 prepend 174;#P objectname line-dmx174;#P newex 251 1616 150 67108874 prepend 175;#P objectname line-dmx175;#P newex 251 1646 150 67108874 prepend 176;#P objectname line-dmx176;#P newex 251 1676 150 67108874 prepend 177;#P objectname line-dmx177;#P newex 251 1706 150 67108874 prepend 178;#P objectname line-dmx178;#P newex 251 1736 150 67108874 prepend 179;#P objectname line-dmx179;#P newex 251 1766 150 67108874 prepend 180;#P objectname line-dmx180;#P newex 251 1796 150 67108874 prepend 181;#P objectname line-dmx181;#P newex 251 1826 150 67108874 prepend 182;#P objectname line-dmx182;#P newex 251 1856 150 67108874 prepend 183;#P objectname line-dmx183;#P newex 251 1886 150 67108874 prepend 184;#P objectname line-dmx184;#P newex 251 1916 150 67108874 prepend 185;#P objectname line-dmx185;#P newex 251 1946 150 67108874 prepend 186;#P objectname line-dmx186;#P newex 251 1976 150 67108874 prepend 187;#P objectname line-dmx187;#P newex 251 2006 150 67108874 prepend 188;#P objectname line-dmx188;#P newex 251 2036 150 67108874 prepend 189;#P objectname line-dmx189;#P newex 251 2066 150 67108874 prepend 190;#P objectname line-dmx190;#P newex 251 2096 150 67108874 prepend 191;#P objectname line-dmx191;#P newex 251 2126 150 67108874 prepend 192;#P objectname line-dmx192;#P newex 251 2156 150 67108874 prepend 193;#P objectname line-dmx193;#P newex 251 2186 150 67108874 prepend 194;#P objectname line-dmx194;#P newex 251 2216 150 67108874 prepend 195;#P objectname line-dmx195;#P newex 251 2246 150 67108874 prepend 196;#P objectname line-dmx196;#P newex 251 2276 150 67108874 prepend 197;#P objectname line-dmx197;#P newex 251 2306 150 67108874 prepend 198;#P objectname line-dmx198;#P newex 251 2336 150 67108874 prepend 199;#P objectname line-dmx199;#P newex 251 2366 150 67108874 prepend 200;#P objectname line-dmx200;#P newex 251 2396 150 67108874 prepend 201;#P objectname line-dmx201;#P newex 251 2426 150 67108874 prepend 202;#P objectname line-dmx202;#P newex 251 2456 150 67108874 prepend 203;#P objectname line-dmx203;#P newex 251 2486 150 67108874 prepend 204;#P objectname line-dmx204;#P newex 251 2516 150 67108874 prepend 205;#P objectname line-dmx205;#P newex 251 2546 150 67108874 prepend 206;#P objectname line-dmx206;#P newex 251 2576 150 67108874 prepend 207;#P objectname line-dmx207;#P newex 251 2606 150 67108874 prepend 208;#P objectname line-dmx208;#P newex 251 2636 150 67108874 prepend 209;#P objectname line-dmx209;#P newex 251 2666 150 67108874 prepend 210;#P objectname line-dmx210;#P newex 251 2696 150 67108874 prepend 211;#P objectname line-dmx211;#P newex 251 2726 150 67108874 prepend 212;#P objectname line-dmx212;#P newex 251 2756 150 67108874 prepend 213;#P objectname line-dmx213;#P newex 251 2786 150 67108874 prepend 214;#P objectname line-dmx214;#P newex 251 2816 150 67108874 prepend 215;#P objectname line-dmx215;#P newex 251 2846 150 67108874 prepend 216;#P objectname line-dmx216;#P newex 251 2876 150 67108874 prepend 217;#P objectname line-dmx217;#P newex 251 2906 150 67108874 prepend 218;#P objectname line-dmx218;#P newex 251 2936 150 67108874 prepend 219;#P objectname line-dmx219;#P newex 251 2966 150 67108874 prepend 220;#P objectname line-dmx220;#P newex 251 2996 150 67108874 prepend 221;#P objectname line-dmx221;#P newex 251 3026 150 67108874 prepend 222;#P objectname line-dmx222;#P newex 251 3056 150 67108874 prepend 223;#P objectname line-dmx223;#P newex 251 3086 150 67108874 prepend 224;#P objectname line-dmx224;#P newex 251 3116 150 67108874 prepend 225;#P objectname line-dmx225;#P newex 251 3146 150 67108874 prepend 226;#P objectname line-dmx226;#P newex 251 3176 150 67108874 prepend 227;#P objectname line-dmx227;#P newex 251 3206 150 67108874 prepend 228;#P objectname line-dmx228;#P newex 251 3236 150 67108874 prepend 229;#P objectname line-dmx229;#P newex 251 3266 150 67108874 prepend 230;#P objectname line-dmx230;#P newex 251 3296 150 67108874 prepend 231;#P objectname line-dmx231;#P newex 251 3326 150 67108874 prepend 232;#P objectname line-dmx232;#P newex 251 3356 150 67108874 prepend 233;#P objectname line-dmx233;#P newex 251 3386 150 67108874 prepend 234;#P objectname line-dmx234;#P newex 251 3416 150 67108874 prepend 235;#P objectname line-dmx235;#P newex 251 3446 150 67108874 prepend 236;#P objectname line-dmx236;#P newex 251 3476 150 67108874 prepend 237;#P objectname line-dmx237;#P newex 251 3506 150 67108874 prepend 238;#P objectname line-dmx238;#P newex 251 3536 150 67108874 prepend 239;#P objectname line-dmx239;#P newex 251 3566 150 67108874 prepend 240;#P objectname line-dmx240;#P newex 251 3596 150 67108874 prepend 241;#P objectname line-dmx241;#P newex 251 3626 150 67108874 prepend 242;#P objectname line-dmx242;#P newex 251 3656 150 67108874 prepend 243;#P objectname line-dmx243;#P newex 251 3686 150 67108874 prepend 244;#P objectname line-dmx244;#P newex 251 3716 150 67108874 prepend 245;#P objectname line-dmx245;#P newex 251 3746 150 67108874 prepend 246;#P objectname line-dmx246;#P newex 251 3776 150 67108874 prepend 247;#P objectname line-dmx247;#P newex 251 3806 150 67108874 prepend 248;#P objectname line-dmx248;#P newex 251 3836 150 67108874 prepend 249;#P objectname line-dmx249;#P newex 251 3866 150 67108874 prepend 250;#P objectname line-dmx250;#P newex 251 3896 150 67108874 prepend 251;#P objectname line-dmx251;#P newex 251 3926 150 67108874 prepend 252;#P objectname line-dmx252;#P newex 251 3956 150 67108874 prepend 253;#P objectname line-dmx253;#P newex 251 3986 150 67108874 prepend 254;#P objectname line-dmx254;#P newex 251 4016 150 67108874 prepend 255;#P objectname line-dmx255;#P newex 251 4046 150 67108874 prepend 256;#P objectname line-dmx256;#P newex 501 236 150 67108874 prepend 257;#P objectname line-dmx257;#P newex 501 266 150 67108874 prepend 258;#P objectname line-dmx258;#P newex 501 296 150 67108874 prepend 259;#P objectname line-dmx259;#P newex 501 326 150 67108874 prepend 260;#P objectname line-dmx260;#P newex 501 356 150 67108874 prepend 261;#P objectname line-dmx261;#P newex 501 386 150 67108874 prepend 262;#P objectname line-dmx262;#P newex 501 416 150 67108874 prepend 263;#P objectname line-dmx263;#P newex 501 446 150 67108874 prepend 264;#P objectname line-dmx264;#P newex 501 476 150 67108874 prepend 265;#P objectname line-dmx265;#P newex 501 506 150 67108874 prepend 266;#P objectname line-dmx266;#P newex 501 536 150 67108874 prepend 267;#P objectname line-dmx267;#P newex 501 566 150 67108874 prepend 268;#P objectname line-dmx268;#P newex 501 596 150 67108874 prepend 269;#P objectname line-dmx269;#P newex 501 626 150 67108874 prepend 270;#P objectname line-dmx270;#P newex 501 656 150 67108874 prepend 271;#P objectname line-dmx271;#P newex 501 686 150 67108874 prepend 272;#P objectname line-dmx272;#P newex 501 716 150 67108874 prepend 273;#P objectname line-dmx273;#P newex 501 746 150 67108874 prepend 274;#P objectname line-dmx274;#P newex 501 776 150 67108874 prepend 275;#P objectname line-dmx275;#P newex 501 806 150 67108874 prepend 276;#P objectname line-dmx276;#P newex 501 836 150 67108874 prepend 277;#P objectname line-dmx277;#P newex 501 866 150 67108874 prepend 278;#P objectname line-dmx278;#P newex 501 896 150 67108874 prepend 279;#P objectname line-dmx279;#P newex 501 926 150 67108874 prepend 280;#P objectname line-dmx280;#P newex 501 956 150 67108874 prepend 281;#P objectname line-dmx281;#P newex 501 986 150 67108874 prepend 282;#P objectname line-dmx282;#P newex 501 1016 150 67108874 prepend 283;#P objectname line-dmx283;#P newex 501 1046 150 67108874 prepend 284;#P objectname line-dmx284;#P newex 501 1076 150 67108874 prepend 285;#P objectname line-dmx285;#P newex 501 1106 150 67108874 prepend 286;#P objectname line-dmx286;#P newex 501 1136 150 67108874 prepend 287;#P objectname line-dmx287;#P newex 501 1166 150 67108874 prepend 288;#P objectname line-dmx288;#P newex 501 1196 150 67108874 prepend 289;#P objectname line-dmx289;#P newex 501 1226 150 67108874 prepend 290;#P objectname line-dmx290;#P newex 501 1256 150 67108874 prepend 291;#P objectname line-dmx291;#P newex 501 1286 150 67108874 prepend 292;#P objectname line-dmx292;#P newex 501 1316 150 67108874 prepend 293;#P objectname line-dmx293;#P newex 501 1346 150 67108874 prepend 294;#P objectname line-dmx294;#P newex 501 1376 150 67108874 prepend 295;#P objectname line-dmx295;#P newex 501 1406 150 67108874 prepend 296;#P objectname line-dmx296;#P newex 501 1436 150 67108874 prepend 297;#P objectname line-dmx297;#P newex 501 1466 150 67108874 prepend 298;#P objectname line-dmx298;#P newex 501 1496 150 67108874 prepend 299;#P objectname line-dmx299;#P newex 501 1526 150 67108874 prepend 300;#P objectname line-dmx300;#P newex 501 1556 150 67108874 prepend 301;#P objectname line-dmx301;#P newex 501 1586 150 67108874 prepend 302;#P objectname line-dmx302;#P newex 501 1616 150 67108874 prepend 303;#P objectname line-dmx303;#P newex 501 1646 150 67108874 prepend 304;#P objectname line-dmx304;#P newex 501 1676 150 67108874 prepend 305;#P objectname line-dmx305;#P newex 501 1706 150 67108874 prepend 306;#P objectname line-dmx306;#P newex 501 1736 150 67108874 prepend 307;#P objectname line-dmx307;#P newex 501 1766 150 67108874 prepend 308;#P objectname line-dmx308;#P newex 501 1796 150 67108874 prepend 309;#P objectname line-dmx309;#P newex 501 1826 150 67108874 prepend 310;#P objectname line-dmx310;#P newex 501 1856 150 67108874 prepend 311;#P objectname line-dmx311;#P newex 501 1886 150 67108874 prepend 312;#P objectname line-dmx312;#P newex 501 1916 150 67108874 prepend 313;#P objectname line-dmx313;#P newex 501 1946 150 67108874 prepend 314;#P objectname line-dmx314;#P newex 501 1976 150 67108874 prepend 315;#P objectname line-dmx315;#P newex 501 2006 150 67108874 prepend 316;#P objectname line-dmx316;#P newex 501 2036 150 67108874 prepend 317;#P objectname line-dmx317;#P newex 501 2066 150 67108874 prepend 318;#P objectname line-dmx318;#P newex 501 2096 150 67108874 prepend 319;#P objectname line-dmx319;#P newex 501 2126 150 67108874 prepend 320;#P objectname line-dmx320;#P newex 501 2156 150 67108874 prepend 321;#P objectname line-dmx321;#P newex 501 2186 150 67108874 prepend 322;#P objectname line-dmx322;#P newex 501 2216 150 67108874 prepend 323;#P objectname line-dmx323;#P newex 501 2246 150 67108874 prepend 324;#P objectname line-dmx324;#P newex 501 2276 150 67108874 prepend 325;#P objectname line-dmx325;#P newex 501 2306 150 67108874 prepend 326;#P objectname line-dmx326;#P newex 501 2336 150 67108874 prepend 327;#P objectname line-dmx327;#P newex 501 2366 150 67108874 prepend 328;#P objectname line-dmx328;#P newex 501 2396 150 67108874 prepend 329;#P objectname line-dmx329;#P newex 501 2426 150 67108874 prepend 330;#P objectname line-dmx330;#P newex 501 2456 150 67108874 prepend 331;#P objectname line-dmx331;#P newex 501 2486 150 67108874 prepend 332;#P objectname line-dmx332;#P newex 501 2516 150 67108874 prepend 333;#P objectname line-dmx333;#P newex 501 2546 150 67108874 prepend 334;#P objectname line-dmx334;#P newex 501 2576 150 67108874 prepend 335;#P objectname line-dmx335;#P newex 501 2606 150 67108874 prepend 336;#P objectname line-dmx336;#P newex 501 2636 150 67108874 prepend 337;#P objectname line-dmx337;#P newex 501 2666 150 67108874 prepend 338;#P objectname line-dmx338;#P newex 501 2696 150 67108874 prepend 339;#P objectname line-dmx339;#P newex 501 2726 150 67108874 prepend 340;#P objectname line-dmx340;#P newex 501 2756 150 67108874 prepend 341;#P objectname line-dmx341;#P newex 501 2786 150 67108874 prepend 342;#P objectname line-dmx342;#P newex 501 2816 150 67108874 prepend 343;#P objectname line-dmx343;#P newex 501 2846 150 67108874 prepend 344;#P objectname line-dmx344;#P newex 501 2876 150 67108874 prepend 345;#P objectname line-dmx345;#P newex 501 2906 150 67108874 prepend 346;#P objectname line-dmx346;#P newex 501 2936 150 67108874 prepend 347;#P objectname line-dmx347;#P newex 501 2966 150 67108874 prepend 348;#P objectname line-dmx348;#P newex 501 2996 150 67108874 prepend 349;#P objectname line-dmx349;#P newex 501 3026 150 67108874 prepend 350;#P objectname line-dmx350;#P newex 501 3056 150 67108874 prepend 351;#P objectname line-dmx351;#P newex 501 3086 150 67108874 prepend 352;#P objectname line-dmx352;#P newex 501 3116 150 67108874 prepend 353;#P objectname line-dmx353;#P newex 501 3146 150 67108874 prepend 354;#P objectname line-dmx354;#P newex 501 3176 150 67108874 prepend 355;#P objectname line-dmx355;#P newex 501 3206 150 67108874 prepend 356;#P objectname line-dmx356;#P newex 501 3236 150 67108874 prepend 357;#P objectname line-dmx357;#P newex 501 3266 150 67108874 prepend 358;#P objectname line-dmx358;#P newex 501 3296 150 67108874 prepend 359;#P objectname line-dmx359;#P newex 501 3326 150 67108874 prepend 360;#P objectname line-dmx360;#P newex 501 3356 150 67108874 prepend 361;#P objectname line-dmx361;#P newex 501 3386 150 67108874 prepend 362;#P objectname line-dmx362;#P newex 501 3416 150 67108874 prepend 363;#P objectname line-dmx363;#P newex 501 3446 150 67108874 prepend 364;#P objectname line-dmx364;#P newex 501 3476 150 67108874 prepend 365;#P objectname line-dmx365;#P newex 501 3506 150 67108874 prepend 366;#P objectname line-dmx366;#P newex 501 3536 150 67108874 prepend 367;#P objectname line-dmx367;#P newex 501 3566 150 67108874 prepend 368;#P objectname line-dmx368;#P newex 501 3596 150 67108874 prepend 369;#P objectname line-dmx369;#P newex 501 3626 150 67108874 prepend 370;#P objectname line-dmx370;#P newex 501 3656 150 67108874 prepend 371;#P objectname line-dmx371;#P newex 501 3686 150 67108874 prepend 372;#P objectname line-dmx372;#P newex 501 3716 150 67108874 prepend 373;#P objectname line-dmx373;#P newex 501 3746 150 67108874 prepend 374;#P objectname line-dmx374;#P newex 501 3776 150 67108874 prepend 375;#P objectname line-dmx375;#P newex 501 3806 150 67108874 prepend 376;#P objectname line-dmx376;#P newex 501 3836 150 67108874 prepend 377;#P objectname line-dmx377;#P newex 501 3866 150 67108874 prepend 378;#P objectname line-dmx378;#P newex 501 3896 150 67108874 prepend 379;#P objectname line-dmx379;#P newex 501 3926 150 67108874 prepend 380;#P objectname line-dmx380;#P newex 501 3956 150 67108874 prepend 381;#P objectname line-dmx381;#P newex 501 3986 150 67108874 prepend 382;#P objectname line-dmx382;#P newex 501 4016 150 67108874 prepend 383;#P objectname line-dmx383;#P newex 501 4046 150 67108874 prepend 384;#P objectname line-dmx384;#P newex 751 235 150 67108874 prepend 385;#P objectname line-dmx385;#P newex 751 265 150 67108874 prepend 386;#P objectname line-dmx386;#P newex 751 295 150 67108874 prepend 387;#P objectname line-dmx387;#P newex 751 325 150 67108874 prepend 388;#P objectname line-dmx388;#P newex 751 355 150 67108874 prepend 389;#P objectname line-dmx389;#P newex 751 385 150 67108874 prepend 390;#P objectname line-dmx390;#P newex 751 415 150 67108874 prepend 391;#P objectname line-dmx391;#P newex 751 445 150 67108874 prepend 392;#P objectname line-dmx392;#P newex 751 475 150 67108874 prepend 393;#P objectname line-dmx393;#P newex 751 505 150 67108874 prepend 394;#P objectname line-dmx394;#P newex 751 535 150 67108874 prepend 395;#P objectname line-dmx395;#P newex 751 565 150 67108874 prepend 396;#P objectname line-dmx396;#P newex 751 595 150 67108874 prepend 397;#P objectname line-dmx397;#P newex 751 625 150 67108874 prepend 398;#P objectname line-dmx398;#P newex 751 655 150 67108874 prepend 399;#P objectname line-dmx399;#P newex 751 685 150 67108874 prepend 400;#P objectname line-dmx400;#P newex 751 715 150 67108874 prepend 401;#P objectname line-dmx401;#P newex 751 745 150 67108874 prepend 402;#P objectname line-dmx402;#P newex 751 775 150 67108874 prepend 403;#P objectname line-dmx403;#P newex 751 805 150 67108874 prepend 404;#P objectname line-dmx404;#P newex 751 835 150 67108874 prepend 405;#P objectname line-dmx405;#P newex 751 865 150 67108874 prepend 406;#P objectname line-dmx406;#P newex 751 895 150 67108874 prepend 407;#P objectname line-dmx407;#P newex 751 925 150 67108874 prepend 408;#P objectname line-dmx408;#P newex 751 955 150 67108874 prepend 409;#P objectname line-dmx409;#P newex 751 985 150 67108874 prepend 410;#P objectname line-dmx410;#P newex 751 1015 150 67108874 prepend 411;#P objectname line-dmx411;#P newex 751 1045 150 67108874 prepend 412;#P objectname line-dmx412;#P newex 751 1075 150 67108874 prepend 413;#P objectname line-dmx413;#P newex 751 1105 150 67108874 prepend 414;#P objectname line-dmx414;#P newex 751 1135 150 67108874 prepend 415;#P objectname line-dmx415;#P newex 751 1165 150 67108874 prepend 416;#P objectname line-dmx416;#P newex 751 1195 150 67108874 prepend 417;#P objectname line-dmx417;#P newex 751 1225 150 67108874 prepend 418;#P objectname line-dmx418;#P newex 751 1255 150 67108874 prepend 419;#P objectname line-dmx419;#P newex 751 1285 150 67108874 prepend 420;#P objectname line-dmx420;#P newex 751 1315 150 67108874 prepend 421;#P objectname line-dmx421;#P newex 751 1345 150 67108874 prepend 422;#P objectname line-dmx422;#P newex 751 1375 150 67108874 prepend 423;#P objectname line-dmx423;#P newex 751 1405 150 67108874 prepend 424;#P objectname line-dmx424;#P newex 751 1435 150 67108874 prepend 425;#P objectname line-dmx425;#P newex 751 1465 150 67108874 prepend 426;#P objectname line-dmx426;#P newex 751 1495 150 67108874 prepend 427;#P objectname line-dmx427;#P newex 751 1525 150 67108874 prepend 428;#P objectname line-dmx428;#P newex 751 1555 150 67108874 prepend 429;#P objectname line-dmx429;#P newex 751 1585 150 67108874 prepend 430;#P objectname line-dmx430;#P newex 751 1615 150 67108874 prepend 431;#P objectname line-dmx431;#P newex 751 1645 150 67108874 prepend 432;#P objectname line-dmx432;#P newex 751 1675 150 67108874 prepend 433;#P objectname line-dmx433;#P newex 751 1705 150 67108874 prepend 434;#P objectname line-dmx434;#P newex 751 1735 150 67108874 prepend 435;#P objectname line-dmx435;#P newex 751 1765 150 67108874 prepend 436;#P objectname line-dmx436;#P newex 751 1795 150 67108874 prepend 437;#P objectname line-dmx437;#P newex 751 1825 150 67108874 prepend 438;#P objectname line-dmx438;#P newex 751 1855 150 67108874 prepend 439;#P objectname line-dmx439;#P newex 751 1885 150 67108874 prepend 440;#P objectname line-dmx440;#P newex 751 1915 150 67108874 prepend 441;#P objectname line-dmx441;#P newex 751 1945 150 67108874 prepend 442;#P objectname line-dmx442;#P newex 751 1975 150 67108874 prepend 443;#P objectname line-dmx443;#P newex 751 2005 150 67108874 prepend 444;#P objectname line-dmx444;#P newex 751 2035 150 67108874 prepend 445;#P objectname line-dmx445;#P newex 751 2065 150 67108874 prepend 446;#P objectname line-dmx446;#P newex 751 2095 150 67108874 prepend 447;#P objectname line-dmx447;#P newex 751 2125 150 67108874 prepend 448;#P objectname line-dmx448;#P newex 751 2155 150 67108874 prepend 449;#P objectname line-dmx449;#P newex 751 2185 150 67108874 prepend 450;#P objectname line-dmx450;#P newex 751 2215 150 67108874 prepend 451;#P objectname line-dmx451;#P newex 751 2245 150 67108874 prepend 452;#P objectname line-dmx452;#P newex 751 2275 150 67108874 prepend 453;#P objectname line-dmx453;#P newex 751 2305 150 67108874 prepend 454;#P objectname line-dmx454;#P newex 751 2335 150 67108874 prepend 455;#P objectname line-dmx455;#P newex 751 2365 150 67108874 prepend 456;#P objectname line-dmx456;#P newex 751 2395 150 67108874 prepend 457;#P objectname line-dmx457;#P newex 751 2425 150 67108874 prepend 458;#P objectname line-dmx458;#P newex 751 2455 150 67108874 prepend 459;#P objectname line-dmx459;#P newex 751 2485 150 67108874 prepend 460;#P objectname line-dmx460;#P newex 751 2515 150 67108874 prepend 461;#P objectname line-dmx461;#P newex 751 2545 150 67108874 prepend 462;#P objectname line-dmx462;#P newex 751 2575 150 67108874 prepend 463;#P objectname line-dmx463;#P newex 751 2605 150 67108874 prepend 464;#P objectname line-dmx464;#P newex 751 2635 150 67108874 prepend 465;#P objectname line-dmx465;#P newex 751 2665 150 67108874 prepend 466;#P objectname line-dmx466;#P newex 751 2695 150 67108874 prepend 467;#P objectname line-dmx467;#P newex 751 2725 150 67108874 prepend 468;#P objectname line-dmx468;#P newex 751 2755 150 67108874 prepend 469;#P objectname line-dmx469;#P newex 751 2785 150 67108874 prepend 470;#P objectname line-dmx470;#P newex 751 2815 150 67108874 prepend 471;#P objectname line-dmx471;#P newex 751 2845 150 67108874 prepend 472;#P objectname line-dmx472;#P newex 751 2875 150 67108874 prepend 473;#P objectname line-dmx473;#P newex 751 2905 150 67108874 prepend 474;#P objectname line-dmx474;#P newex 751 2935 150 67108874 prepend 475;#P objectname line-dmx475;#P newex 751 2965 150 67108874 prepend 476;#P objectname line-dmx476;#P newex 751 2995 150 67108874 prepend 477;#P objectname line-dmx477;#P newex 751 3025 150 67108874 prepend 478;#P objectname line-dmx478;#P newex 751 3055 150 67108874 prepend 479;#P objectname line-dmx479;#P newex 751 3085 150 67108874 prepend 480;#P objectname line-dmx480;#P newex 751 3115 150 67108874 prepend 481;#P objectname line-dmx481;#P newex 751 3145 150 67108874 prepend 482;#P objectname line-dmx482;#P newex 751 3175 150 67108874 prepend 483;#P objectname line-dmx483;#P newex 751 3205 150 67108874 prepend 484;#P objectname line-dmx484;#P newex 751 3235 150 67108874 prepend 485;#P objectname line-dmx485;#P newex 751 3265 150 67108874 prepend 486;#P objectname line-dmx486;#P newex 751 3295 150 67108874 prepend 487;#P objectname line-dmx487;#P newex 751 3325 150 67108874 prepend 488;#P objectname line-dmx488;#P newex 751 3355 150 67108874 prepend 489;#P objectname line-dmx489;#P newex 751 3385 150 67108874 prepend 490;#P objectname line-dmx490;#P newex 751 3415 150 67108874 prepend 491;#P objectname line-dmx491;#P newex 751 3445 150 67108874 prepend 492;#P objectname line-dmx492;#P newex 751 3475 150 67108874 prepend 493;#P objectname line-dmx493;#P newex 751 3505 150 67108874 prepend 494;#P objectname line-dmx494;#P newex 751 3535 150 67108874 prepend 495;#P objectname line-dmx495;#P newex 751 3565 150 67108874 prepend 496;#P objectname line-dmx496;#P newex 751 3595 150 67108874 prepend 497;#P objectname line-dmx497;#P newex 751 3625 150 67108874 prepend 498;#P objectname line-dmx498;#P newex 751 3655 150 67108874 prepend 499;#P objectname line-dmx499;#P newex 751 3685 150 67108874 prepend 500;#P objectname line-dmx500;#P newex 751 3715 150 67108874 prepend 501;#P objectname line-dmx501;#P newex 751 3745 150 67108874 prepend 502;#P objectname line-dmx502;#P newex 751 3775 150 67108874 prepend 503;#P objectname line-dmx503;#P newex 751 3805 150 67108874 prepend 504;#P objectname line-dmx504;#P newex 751 3835 150 67108874 prepend 505;#P objectname line-dmx505;#P newex 751 3865 150 67108874 prepend 506;#P objectname line-dmx506;#P newex 751 3895 150 67108874 prepend 507;#P objectname line-dmx507;#P newex 751 3925 150 67108874 prepend 508;#P objectname line-dmx508;#P newex 751 3955 150 67108874 prepend 509;#P objectname line-dmx509;#P newex 751 3985 150 67108874 prepend 510;#P objectname line-dmx510;#P newex 751 4015 150 67108874 prepend 511;#P objectname line-dmx511;#P newex 751 4045 150 67108874 prepend 512;#P objectname line-dmx512;#P window setfont "Sans Serif" 9.;#P hidden comment 526 53 183 196617 dummy receive for non error report !!;#P window linecount 4;#P newex 4 100 2028 196617 route /ch/1 /ch/2 /ch/3 /ch/4 /ch/5 /ch/6 /ch/7 /ch/8 /ch/9 /ch/10 /ch/11 /ch/12 /ch/13 /ch/14 /ch/15 /ch/16 /ch/17 /ch/18 /ch/19 /ch/20 /ch/21 /ch/22 /ch/23 /ch/24 /ch/25 /ch/26 /ch/27 /ch/28 /ch/29 /ch/30 /ch/31 /ch/32 /ch/33 /ch/34 /ch/35 /ch/36 /ch/37 /ch/38 /ch/39 /ch/40 /ch/41 /ch/42 /ch/43 /ch/44 /ch/45 /ch/46 /ch/47 /ch/48 /ch/49 /ch/50 /ch/51 /ch/52 /ch/53 /ch/54 /ch/55 /ch/56 /ch/57 /ch/58 /ch/59 /ch/60 /ch/61 /ch/62 /ch/63 /ch/64 /ch/65 /ch/66 /ch/67 /ch/68 /ch/69 /ch/70 /ch/71 /ch/72 /ch/73 /ch/74 /ch/75 /ch/76 /ch/77 /ch/78 /ch/79 /ch/80 /ch/81 /ch/82 /ch/83 /ch/84 /ch/85 /ch/86 /ch/87 /ch/88 /ch/89 /ch/90 /ch/91 /ch/92 /ch/93 /ch/94 /ch/95 /ch/96 /ch/97 /ch/98 /ch/99 /ch/100 /ch/101 /ch/102 /ch/103 /ch/104 /ch/105 /ch/106 /ch/107 /ch/108 /ch/109 /ch/110 /ch/111 /ch/112 /ch/113 /ch/114 /ch/115 /ch/116 /ch/117 /ch/118 /ch/119 /ch/120 /ch/121 /ch/122 /ch/123 /ch/124 /ch/125 /ch/126 /ch/127 /ch/128 /ch/129 /ch/130 /ch/131 /ch/132 /ch/133 /ch/134 /ch/135 /ch/136 /ch/137 /ch/138 /ch/139 /ch/140 /ch/141 /ch/142 /ch/143 /ch/144 /ch/145 /ch/146 /ch/147 /ch/148 /ch/149 /ch/150 /ch/151 /ch/152 /ch/153 /ch/154 /ch/155 /ch/156 /ch/157 /ch/158 /ch/159 /ch/160 /ch/161 /ch/162 /ch/163 /ch/164 /ch/165 /ch/166 /ch/167 /ch/168 /ch/169 /ch/170 /ch/171 /ch/172 /ch/173 /ch/174 /ch/175 /ch/176 /ch/177 /ch/178 /ch/179 /ch/180 /ch/181 /ch/182 /ch/183 /ch/184 /ch/185 /ch/186 /ch/187 /ch/188 /ch/189 /ch/190 /ch/191 /ch/192 /ch/193 /ch/194 /ch/195 /ch/196 /ch/197 /ch/198 /ch/199 /ch/200;#P objectname router;#P connect 513 0 523 0;#P connect 512 0 523 0;#P connect 511 0 523 0;#P connect 510 0 523 0;#P connect 509 0 523 0;#P connect 508 0 523 0;#P connect 507 0 523 0;#P connect 506 0 523 0;#P connect 505 0 523 0;#P connect 504 0 523 0;#P connect 503 0 523 0;#P connect 502 0 523 0;#P connect 501 0 523 0;#P connect 500 0 523 0;#P connect 499 0 523 0;#P connect 498 0 523 0;#P connect 497 0 523 0;#P connect 496 0 523 0;#P connect 495 0 523 0;#P connect 494 0 523 0;#P connect 493 0 523 0;#P connect 492 0 523 0;#P connect 491 0 523 0;#P connect 490 0 523 0;#P connect 489 0 523 0;#P connect 488 0 523 0;#P connect 487 0 523 0;#P connect 486 0 523 0;#P connect 485 0 523 0;#P connect 484 0 523 0;#P connect 483 0 523 0;#P connect 482 0 523 0;#P connect 481 0 523 0;#P connect 480 0 523 0;#P connect 479 0 523 0;#P connect 478 0 523 0;#P connect 477 0 523 0;#P connect 476 0 523 0;#P connect 475 0 523 0;#P connect 474 0 523 0;#P connect 473 0 523 0;#P connect 472 0 523 0;#P connect 471 0 523 0;#P connect 470 0 523 0;#P connect 469 0 523 0;#P connect 468 0 523 0;#P connect 467 0 523 0;#P connect 466 0 523 0;#P connect 465 0 523 0;#P connect 464 0 523 0;#P connect 463 0 523 0;#P connect 462 0 523 0;#P connect 461 0 523 0;#P connect 460 0 523 0;#P connect 459 0 523 0;#P connect 458 0 523 0;#P connect 457 0 523 0;#P connect 456 0 523 0;#P connect 455 0 523 0;#P connect 454 0 523 0;#P connect 453 0 523 0;#P connect 452 0 523 0;#P connect 451 0 523 0;#P connect 450 0 523 0;#P connect 449 0 523 0;#P connect 448 0 523 0;#P connect 447 0 523 0;#P connect 446 0 523 0;#P connect 445 0 523 0;#P connect 444 0 523 0;#P connect 443 0 523 0;#P connect 442 0 523 0;#P connect 441 0 523 0;#P connect 440 0 523 0;#P connect 439 0 523 0;#P connect 438 0 523 0;#P connect 437 0 523 0;#P connect 436 0 523 0;#P connect 435 0 523 0;#P connect 434 0 523 0;#P connect 433 0 523 0;#P connect 432 0 523 0;#P connect 431 0 523 0;#P connect 430 0 523 0;#P connect 429 0 523 0;#P connect 428 0 523 0;#P connect 427 0 523 0;#P connect 426 0 523 0;#P connect 425 0 523 0;#P connect 424 0 523 0;#P connect 423 0 523 0;#P connect 422 0 523 0;#P connect 421 0 523 0;#P connect 420 0 523 0;#P connect 419 0 523 0;#P connect 418 0 523 0;#P connect 417 0 523 0;#P connect 416 0 523 0;#P connect 415 0 523 0;#P connect 414 0 523 0;#P connect 413 0 523 0;#P connect 412 0 523 0;#P connect 411 0 523 0;#P connect 410 0 523 0;#P connect 409 0 523 0;#P connect 408 0 523 0;#P connect 407 0 523 0;#P connect 406 0 523 0;#P connect 405 0 523 0;#P connect 404 0 523 0;#P connect 403 0 523 0;#P connect 402 0 523 0;#P connect 401 0 523 0;#P connect 400 0 523 0;#P connect 399 0 523 0;#P connect 398 0 523 0;#P connect 397 0 523 0;#P connect 396 0 523 0;#P connect 395 0 523 0;#P connect 394 0 523 0;#P connect 393 0 523 0;#P connect 392 0 523 0;#P connect 391 0 523 0;#P connect 390 0 523 0;#P connect 389 0 523 0;#P connect 388 0 523 0;#P connect 387 0 523 0;#P connect 386 0 523 0;#P connect 515 0 0 0;#P connect 528 0 514 0;#P fasten 514 1 518 0 103 47 61 47;#P fasten 517 0 516 0 156 77 61 77;#P fasten 521 0 516 0 194 77 61 77;#P connect 518 0 516 0;#P fasten 514 0 517 0 61 42 156 42;#P lcolor 15;#P connect 520 0 522 0;#P connect 522 0 521 0;#P connect 385 0 524 0;#P connect 384 0 524 0;#P connect 383 0 524 0;#P connect 382 0 524 0;#P connect 381 0 524 0;#P connect 380 0 524 0;#P connect 379 0 524 0;#P connect 378 0 524 0;#P connect 377 0 524 0;#P connect 376 0 524 0;#P connect 375 0 524 0;#P connect 374 0 524 0;#P connect 373 0 524 0;#P connect 372 0 524 0;#P connect 371 0 524 0;#P connect 370 0 524 0;#P connect 369 0 524 0;#P connect 368 0 524 0;#P connect 367 0 524 0;#P connect 366 0 524 0;#P connect 365 0 524 0;#P connect 364 0 524 0;#P connect 363 0 524 0;#P connect 362 0 524 0;#P connect 361 0 524 0;#P connect 360 0 524 0;#P connect 359 0 524 0;#P connect 358 0 524 0;#P connect 357 0 524 0;#P connect 356 0 524 0;#P connect 355 0 524 0;#P connect 354 0 524 0;#P connect 353 0 524 0;#P connect 352 0 524 0;#P connect 351 0 524 0;#P connect 350 0 524 0;#P connect 349 0 524 0;#P connect 348 0 524 0;#P connect 347 0 524 0;#P connect 346 0 524 0;#P connect 345 0 524 0;#P connect 344 0 524 0;#P connect 343 0 524 0;#P connect 342 0 524 0;#P connect 341 0 524 0;#P connect 340 0 524 0;#P connect 339 0 524 0;#P connect 338 0 524 0;#P connect 337 0 524 0;#P connect 336 0 524 0;#P connect 335 0 524 0;#P connect 334 0 524 0;#P connect 333 0 524 0;#P connect 332 0 524 0;#P connect 331 0 524 0;#P connect 330 0 524 0;#P connect 329 0 524 0;#P connect 328 0 524 0;#P connect 327 0 524 0;#P connect 326 0 524 0;#P connect 325 0 524 0;#P connect 324 0 524 0;#P connect 323 0 524 0;#P connect 322 0 524 0;#P connect 321 0 524 0;#P connect 320 0 524 0;#P connect 319 0 524 0;#P connect 318 0 524 0;#P connect 317 0 524 0;#P connect 316 0 524 0;#P connect 315 0 524 0;#P connect 314 0 524 0;#P connect 313 0 524 0;#P connect 312 0 524 0;#P connect 311 0 524 0;#P connect 310 0 524 0;#P connect 309 0 524 0;#P connect 308 0 524 0;#P connect 307 0 524 0;#P connect 306 0 524 0;#P connect 305 0 524 0;#P connect 304 0 524 0;#P connect 303 0 524 0;#P connect 302 0 524 0;#P connect 301 0 524 0;#P connect 300 0 524 0;#P connect 299 0 524 0;#P connect 298 0 524 0;#P connect 297 0 524 0;#P connect 296 0 524 0;#P connect 295 0 524 0;#P connect 294 0 524 0;#P connect 293 0 524 0;#P connect 292 0 524 0;#P connect 291 0 524 0;#P connect 290 0 524 0;#P connect 289 0 524 0;#P connect 288 0 524 0;#P connect 287 0 524 0;#P connect 286 0 524 0;#P connect 285 0 524 0;#P connect 284 0 524 0;#P connect 283 0 524 0;#P connect 282 0 524 0;#P connect 281 0 524 0;#P connect 280 0 524 0;#P connect 279 0 524 0;#P connect 278 0 524 0;#P connect 277 0 524 0;#P connect 276 0 524 0;#P connect 275 0 524 0;#P connect 274 0 524 0;#P connect 273 0 524 0;#P connect 272 0 524 0;#P connect 271 0 524 0;#P connect 270 0 524 0;#P connect 269 0 524 0;#P connect 268 0 524 0;#P connect 267 0 524 0;#P connect 266 0 524 0;#P connect 265 0 524 0;#P connect 264 0 524 0;#P connect 263 0 524 0;#P connect 262 0 524 0;#P connect 261 0 524 0;#P connect 260 0 524 0;#P connect 259 0 524 0;#P connect 258 0 524 0;#P fasten 523 0 527 0 6 4122 406 4122;#P fasten 524 0 527 0 256 4122 406 4122;#P fasten 525 0 527 0 506 4122 406 4122;#P fasten 526 0 527 0 756 4122 406 4122;#P connect 527 0 530 0;#P connect 0 0 529 0;#P connect 257 0 525 0;#P connect 256 0 525 0;#P connect 255 0 525 0;#P connect 254 0 525 0;#P connect 253 0 525 0;#P connect 252 0 525 0;#P connect 251 0 525 0;#P connect 250 0 525 0;#P connect 249 0 525 0;#P connect 248 0 525 0;#P connect 247 0 525 0;#P connect 246 0 525 0;#P connect 245 0 525 0;#P connect 244 0 525 0;#P connect 243 0 525 0;#P connect 242 0 525 0;#P connect 241 0 525 0;#P connect 240 0 525 0;#P connect 239 0 525 0;#P connect 238 0 525 0;#P connect 237 0 525 0;#P connect 236 0 525 0;#P connect 235 0 525 0;#P connect 234 0 525 0;#P connect 233 0 525 0;#P connect 232 0 525 0;#P connect 231 0 525 0;#P connect 230 0 525 0;#P connect 229 0 525 0;#P connect 228 0 525 0;#P connect 227 0 525 0;#P connect 226 0 525 0;#P connect 225 0 525 0;#P connect 224 0 525 0;#P connect 223 0 525 0;#P connect 222 0 525 0;#P connect 221 0 525 0;#P connect 220 0 525 0;#P connect 219 0 525 0;#P connect 218 0 525 0;#P connect 217 0 525 0;#P connect 216 0 525 0;#P connect 215 0 525 0;#P connect 214 0 525 0;#P connect 213 0 525 0;#P connect 212 0 525 0;#P connect 211 0 525 0;#P connect 210 0 525 0;#P connect 209 0 525 0;#P connect 208 0 525 0;#P connect 207 0 525 0;#P connect 206 0 525 0;#P connect 205 0 525 0;#P connect 204 0 525 0;#P connect 203 0 525 0;#P connect 202 0 525 0;#P connect 201 0 525 0;#P connect 200 0 525 0;#P connect 199 0 525 0;#P connect 198 0 525 0;#P connect 197 0 525 0;#P connect 196 0 525 0;#P connect 195 0 525 0;#P connect 194 0 525 0;#P connect 193 0 525 0;#P connect 192 0 525 0;#P connect 191 0 525 0;#P connect 190 0 525 0;#P connect 189 0 525 0;#P connect 188 0 525 0;#P connect 187 0 525 0;#P connect 186 0 525 0;#P connect 185 0 525 0;#P connect 184 0 525 0;#P connect 183 0 525 0;#P connect 182 0 525 0;#P connect 181 0 525 0;#P connect 180 0 525 0;#P connect 179 0 525 0;#P connect 178 0 525 0;#P connect 177 0 525 0;#P connect 176 0 525 0;#P connect 175 0 525 0;#P connect 174 0 525 0;#P connect 173 0 525 0;#P connect 172 0 525 0;#P connect 171 0 525 0;#P connect 170 0 525 0;#P connect 169 0 525 0;#P connect 168 0 525 0;#P connect 167 0 525 0;#P connect 166 0 525 0;#P connect 165 0 525 0;#P connect 164 0 525 0;#P connect 163 0 525 0;#P connect 162 0 525 0;#P connect 161 0 525 0;#P connect 160 0 525 0;#P connect 159 0 525 0;#P connect 158 0 525 0;#P connect 157 0 525 0;#P connect 156 0 525 0;#P connect 155 0 525 0;#P connect 154 0 525 0;#P connect 153 0 525 0;#P connect 152 0 525 0;#P connect 151 0 525 0;#P connect 150 0 525 0;#P connect 149 0 525 0;#P connect 148 0 525 0;#P connect 147 0 525 0;#P connect 146 0 525 0;#P connect 145 0 525 0;#P connect 144 0 525 0;#P connect 143 0 525 0;#P connect 142 0 525 0;#P connect 141 0 525 0;#P connect 140 0 525 0;#P connect 139 0 525 0;#P connect 138 0 525 0;#P connect 137 0 525 0;#P connect 136 0 525 0;#P connect 135 0 525 0;#P connect 134 0 525 0;#P connect 133 0 525 0;#P connect 132 0 525 0;#P connect 131 0 525 0;#P connect 130 0 525 0;#P connect 129 0 526 0;#P connect 128 0 526 0;#P connect 127 0 526 0;#P connect 126 0 526 0;#P connect 125 0 526 0;#P connect 124 0 526 0;#P connect 123 0 526 0;#P connect 122 0 526 0;#P connect 121 0 526 0;#P connect 120 0 526 0;#P connect 119 0 526 0;#P connect 118 0 526 0;#P connect 117 0 526 0;#P connect 116 0 526 0;#P connect 115 0 526 0;#P connect 114 0 526 0;#P connect 113 0 526 0;#P connect 112 0 526 0;#P connect 111 0 526 0;#P connect 110 0 526 0;#P connect 109 0 526 0;#P connect 108 0 526 0;#P connect 107 0 526 0;#P connect 106 0 526 0;#P connect 105 0 526 0;#P connect 104 0 526 0;#P connect 103 0 526 0;#P connect 102 0 526 0;#P connect 101 0 526 0;#P connect 100 0 526 0;#P connect 99 0 526 0;#P connect 98 0 526 0;#P connect 97 0 526 0;#P connect 96 0 526 0;#P connect 95 0 526 0;#P connect 94 0 526 0;#P connect 93 0 526 0;#P connect 92 0 526 0;#P connect 91 0 526 0;#P connect 90 0 526 0;#P connect 89 0 526 0;#P connect 88 0 526 0;#P connect 87 0 526 0;#P connect 86 0 526 0;#P connect 85 0 526 0;#P connect 84 0 526 0;#P connect 83 0 526 0;#P connect 82 0 526 0;#P connect 81 0 526 0;#P connect 80 0 526 0;#P connect 79 0 526 0;#P connect 78 0 526 0;#P connect 77 0 526 0;#P connect 76 0 526 0;#P connect 75 0 526 0;#P connect 74 0 526 0;#P connect 73 0 526 0;#P connect 72 0 526 0;#P connect 71 0 526 0;#P connect 70 0 526 0;#P connect 69 0 526 0;#P connect 68 0 526 0;#P connect 67 0 526 0;#P connect 66 0 526 0;#P connect 65 0 526 0;#P connect 64 0 526 0;#P connect 63 0 526 0;#P connect 62 0 526 0;#P connect 61 0 526 0;#P connect 60 0 526 0;#P connect 59 0 526 0;#P connect 58 0 526 0;#P connect 57 0 526 0;#P connect 56 0 526 0;#P connect 55 0 526 0;#P connect 54 0 526 0;#P connect 53 0 526 0;#P connect 52 0 526 0;#P connect 51 0 526 0;#P connect 50 0 526 0;#P connect 49 0 526 0;#P connect 48 0 526 0;#P connect 47 0 526 0;#P connect 46 0 526 0;#P connect 45 0 526 0;#P connect 44 0 526 0;#P connect 43 0 526 0;#P connect 42 0 526 0;#P connect 41 0 526 0;#P connect 40 0 526 0;#P connect 39 0 526 0;#P connect 38 0 526 0;#P connect 37 0 526 0;#P connect 36 0 526 0;#P connect 35 0 526 0;#P connect 34 0 526 0;#P connect 33 0 526 0;#P connect 32 0 526 0;#P connect 31 0 526 0;#P connect 30 0 526 0;#P connect 29 0 526 0;#P connect 28 0 526 0;#P connect 27 0 526 0;#P connect 26 0 526 0;#P connect 25 0 526 0;#P connect 24 0 526 0;#P connect 23 0 526 0;#P connect 22 0 526 0;#P connect 21 0 526 0;#P connect 20 0 526 0;#P connect 19 0 526 0;#P connect 18 0 526 0;#P connect 17 0 526 0;#P connect 16 0 526 0;#P connect 15 0 526 0;#P connect 14 0 526 0;#P connect 13 0 526 0;#P connect 12 0 526 0;#P connect 11 0 526 0;#P connect 10 0 526 0;#P connect 9 0 526 0;#P connect 8 0 526 0;#P connect 7 0 526 0;#P connect 6 0 526 0;#P connect 5 0 526 0;#P connect 4 0 526 0;#P connect 3 0 526 0;#P connect 2 0 526 0;#P connect 0 200 519 0;#P pop;