max v2;#N vpatcher 177 75 1263 826;#P origin -24 15;#P window setfont "Sans Serif" 9.;#P newex 738 406 21 196617 t 1;#P newex 712 403 21 196617 t 0;#P newex 500 585 29 196617 gate;#P message 798 334 65 196617 goto 1 \, bang;#P newex 738 343 32 196617 sel 0;#P window linecount 3;#P message 893 477 149 196617 \; $1/cue/init bang \; $1 0 \;;#P window linecount 1;#P newex 893 454 120 196617 r $1/init;#P newex 712 521 38 196617 t s $1;#P newex 735 620 72 196617 sprintf %s%s;#P newex 388 21 306 196617 makeparam $1/cue $2 m -;#B color 13;#P newex 517 197 68 196617 prepend read;#P newex 388 81 30 196617 t b s;#P newex 516 156 36 196617 zl reg;#P button 368 105 15 0;#P newex 368 196 147 196617 sprintf script delete sub_a%ld;#P newex 368 164 27 196617 i;#P newex 368 128 44 196617 uzi 120;#P newex 800 197 27 196617 t b i;#P newex 817 223 27 196617 * 2;#P newex 800 250 27 196617 del;#P newex 760 456 27 196617 i;#P newex 760 431 27 196617 t b i;#P newex 519 564 43 196617 t i next;#P newex 497 543 32 196617 sel 0;#P newex 349 410 38 196617 del 10;#P newex 349 441 21 196617 t 1;#P newex 447 527 21 196617 t 0;#P newex 447 504 27 196617 sel;#P toggle 349 558 15 0;#P newex 349 577 52 196617 metro 20;#P newex 492 396 40 196617 t b 0 i;#P number 447 479 35 9 0 0 0 3 0 0 0 221 221 221 222 222 222 0 0 0;#P button 447 435 15 0;#N counter 1;#X flags 0 0;#P newobj 447 455 66 196617 counter 1;#P number 524 426 35 9 0 0 0 3 0 0 0 221 221 221 222 222 222 0 0 0;#P newex 519 607 27 196617 t i i;#P newex 866 332 21 196617 t 1;#P newex 866 299 38 196617 del 20;#P button 801 271 15 0;#P newex 791 303 70 196617 t 1 b length 0;#P newex 866 398 27 196617 + 1;#P toggle 866 372 15 0;#P newex 492 370 278 196617 gate 2;#P newex 516 178 30 196617 t s b;#P newex 441 237 40 196617 t clear;#P newex 933 302 27 196617 i;#P newex 933 266 40 196617 uzi;#P newex 932 215 27 196617 + 3;#P newex 886 179 46 196617 t query;#P number 933 237 35 9 0 0 0 3 0 0 0 221 221 221 222 222 222 0 0 0;#P newex 621 635 32 196617 * 35;#N thispatcher;#Q end;#P newobj 519 681 61 196617 thispatcher;#P newex 519 657 461 196617 sprintf script new sub_a%ld newex 15 %ld 133 18000 l_sub_ %s %i $1;#P newex 520 257 72 196617 prepend store;#P newex 520 228 51 196617 route set;#P message 933 323 41 196617 line \$1;#P newex 871 152 40 196617 text;#N coll ;#P newobj 580 298 125 196617 coll;#P newex 524 454 27 196617 - 2;#P connect 28 0 34 0;#P connect 34 0 33 0;#P connect 33 0 30 0;#P connect 32 0 30 0;#P connect 30 0 29 0;#P fasten 47 0 45 0 393 101 373 101;#P connect 45 0 42 0;#P connect 42 0 43 0;#P connect 43 0 44 0;#P connect 42 2 43 1;#P connect 49 0 47 0;#P connect 15 1 14 0;#P connect 29 0 26 0;#P connect 26 0 25 0;#P connect 25 0 27 0;#P connect 27 0 31 0;#P connect 31 0 32 0;#P connect 0 0 31 1;#P connect 28 1 25 3;#P connect 18 0 16 0;#P connect 16 0 28 0;#P connect 27 0 35 0;#P connect 57 0 56 0;#P connect 58 0 56 0;#P connect 0 0 25 4;#P fasten 42 1 46 0 390 150 521 150;#P connect 46 0 15 0;#P connect 15 0 48 0;#P connect 35 1 36 0;#P connect 36 0 56 1;#P connect 56 0 23 0;#P connect 23 0 6 0;#P connect 44 0 7 0;#P connect 6 0 7 0;#P connect 2 0 4 0;#P connect 4 0 5 0;#P connect 28 2 24 0;#P connect 24 0 0 0;#P fasten 47 1 46 1 413 104 547 104;#P connect 14 0 1 0;#P connect 36 1 1 0;#P connect 5 0 1 0;#P connect 55 0 1 0;#P connect 19 2 1 0;#P fasten 23 1 8 0 541 631 626 631;#P connect 8 0 6 1;#P connect 54 0 57 0;#P connect 1 1 51 0;#P connect 51 0 50 0;#P connect 1 0 54 0;#P connect 54 1 58 0;#P connect 54 1 16 1;#P connect 16 1 37 0;#P connect 37 0 38 0;#P connect 37 1 38 1;#P connect 20 0 19 0;#P connect 51 1 50 1;#P connect 19 1 55 0;#P connect 9 0 41 0;#P connect 41 0 39 0;#P connect 39 0 20 0;#P connect 41 1 40 0;#P connect 40 0 39 1;#P connect 50 0 6 2;#P connect 20 0 21 0;#P connect 21 0 22 0;#P connect 22 0 17 0;#P connect 19 3 17 0;#P connect 19 0 17 0;#P connect 17 0 18 0;#P connect 48 0 2 0;#P fasten 10 0 2 0 891 347 996 347 996 125 876 125;#P fasten 3 0 2 0 938 343 991 343 991 132 876 132;#P connect 2 1 10 0;#P connect 52 0 53 0;#P fasten 2 2 11 0 906 173 937 173;#P connect 11 0 9 0;#P connect 9 0 12 0;#P connect 12 0 13 0;#P connect 13 0 3 0;#P connect 12 2 13 1;#P connect 38 0 6 3;#P pop;