max v2;#N vpatcher 4 82 1428 804;#P origin -121 -73;#P window setfont Times 9.;#P message 6 6 19 1310729 init;#B color 12;#P objectname init;#P message 6 37 13 1310729 R;#B color 7;#P objectname recall;#P message 6 23 13 1310729 S;#B color 2;#P objectname store;#P message 6 51 13 1310729 O;#B color 9;#P objectname open;#P window setfont "Sans Serif" 9.;#P newex 1345 732 67 196617 s $1.16/init;#B color 11;#P newex 1345 711 163 196617 route bang;#P newex 1345 689 56 196617 route text;#P newex 1345 666 83 196617 pvar $1.16/cue;#B color 13;#P newex 1345 643 81 196617 vari $1.16/cue;#B color 5;#P newex 1343 581 93 196617 variedit $1.16 $1;#B color 11;#P window setfont Times 9.;#P newex 1423 609 50 1310729 pvar fad16;#P window setfont "Sans Serif" 9.;#P newex 1161 733 67 196617 s $1.15/init;#B color 11;#P newex 1161 712 163 196617 route bang;#P newex 1161 690 56 196617 route text;#P newex 1161 667 83 196617 pvar $1.15/cue;#B color 13;#P newex 1161 644 81 196617 vari $1.15/cue;#B color 5;#P newex 1159 582 93 196617 variedit $1.15 $1;#B color 11;#P window setfont Times 9.;#P newex 1239 610 50 1310729 pvar fad15;#P window setfont "Sans Serif" 9.;#P newex 977 734 67 196617 s $1.14/init;#B color 11;#P newex 977 713 163 196617 route bang;#P newex 977 691 56 196617 route text;#P newex 977 668 83 196617 pvar $1.14/cue;#B color 13;#P newex 977 645 81 196617 vari $1.14/cue;#B color 5;#P newex 975 583 93 196617 variedit $1.14 $1;#B color 11;#P window setfont Times 9.;#P newex 1055 611 50 1310729 pvar fad14;#P window setfont "Sans Serif" 9.;#P newex 793 735 67 196617 s $1.13/init;#B color 11;#P newex 793 714 163 196617 route bang;#P newex 793 692 56 196617 route text;#P newex 793 669 83 196617 pvar $1.13/cue;#B color 13;#P newex 793 646 81 196617 vari $1.13/cue;#B color 5;#P newex 791 584 93 196617 variedit $1.13 $1;#B color 11;#P window setfont Times 9.;#P newex 871 612 50 1310729 pvar fad13;#P window setfont "Sans Serif" 9.;#P newex 604 738 67 196617 s $1.12/init;#B color 11;#P newex 604 717 163 196617 route bang;#P newex 604 695 56 196617 route text;#P newex 604 672 83 196617 pvar $1.12/cue;#B color 13;#P newex 604 649 81 196617 vari $1.12/cue;#B color 5;#P newex 602 587 93 196617 variedit $1.12 $1;#B color 11;#P window setfont Times 9.;#P newex 682 615 50 1310729 pvar fad12;#P window setfont "Sans Serif" 9.;#P newex 420 739 67 196617 s $1.11/init;#B color 11;#P newex 420 718 163 196617 route bang;#P newex 420 696 56 196617 route text;#P newex 420 673 83 196617 pvar $1.11/cue;#B color 13;#P newex 420 650 81 196617 vari $1.11/cue;#B color 5;#P newex 418 588 93 196617 variedit $1.11 $1;#B color 11;#P window setfont Times 9.;#P newex 498 616 50 1310729 pvar fad11;#P window setfont "Sans Serif" 9.;#P newex 236 740 67 196617 s $1.10/init;#B color 11;#P newex 236 719 163 196617 route bang;#P newex 236 697 56 196617 route text;#P newex 236 674 83 196617 pvar $1.10/cue;#B color 13;#P newex 236 651 81 196617 vari $1.10/cue;#B color 5;#P newex 234 589 93 196617 variedit $1.10 $1;#B color 11;#P window setfont Times 9.;#P newex 314 617 50 1310729 pvar fad10;#P window setfont "Sans Serif" 9.;#P newex 52 741 61 196617 s $1.9/init;#B color 11;#P newex 52 720 163 196617 route bang;#P newex 52 698 56 196617 route text;#P newex 52 675 77 196617 pvar $1.9/cue;#B color 13;#P newex 52 652 75 196617 vari $1.9/cue;#B color 5;#P newex 50 590 87 196617 variedit $1.9 $1;#B color 11;#P window setfont Times 9.;#P newex 130 618 45 1310729 pvar fad9;#P window setfont Times 18.;#P comment 457 183 62 1310738 /sub.16;#P window setfont Times 9.;#P user textedit 517 182 649 203 32896 20 9;#P objectname /sub.16/cue;#P user multiSlider 651 182 200 21 0. 100. 1 2936 47 0 0 2 0 0 0;#M frgb 0 0 0;#M brgb 255 255 255;#M rgb2 127 127 127;#M rgb3 0 0 0;#M rgb4 37 52 91;#M rgb5 74 105 182;#M rgb6 112 158 18;#M rgb7 149 211 110;#M rgb8 187 9 201;#M rgb9 224 62 37;#M rgb10 7 114 128;#P objectname fad16;#P window setfont Times 18.;#P comment 457 158 62 1310738 /sub.15;#P window setfont Times 9.;#P user textedit 517 157 649 178 32896 20 9;#P objectname /sub.15/cue;#P user multiSlider 651 157 200 21 0. 100. 1 2936 47 0 0 2 0 0 0;#M frgb 0 0 0;#M brgb 255 255 255;#M rgb2 127 127 127;#M rgb3 0 0 0;#M rgb4 37 52 91;#M rgb5 74 105 182;#M rgb6 112 158 18;#M rgb7 149 211 110;#M rgb8 187 9 201;#M rgb9 224 62 37;#M rgb10 7 114 128;#P objectname fad15;#P window setfont Times 18.;#P comment 457 133 62 1310738 /sub.14;#P window setfont Times 9.;#P user textedit 517 132 649 153 32896 20 9;#P objectname /sub.14/cue;#P user multiSlider 651 132 200 21 0. 100. 1 2936 47 0 0 2 0 0 0;#M frgb 0 0 0;#M brgb 255 255 255;#M rgb2 127 127 127;#M rgb3 0 0 0;#M rgb4 37 52 91;#M rgb5 74 105 182;#M rgb6 112 158 18;#M rgb7 149 211 110;#M rgb8 187 9 201;#M rgb9 224 62 37;#M rgb10 7 114 128;#P objectname fad14;#P window setfont Times 18.;#P comment 457 108 62 1310738 /sub.13;#P window setfont Times 9.;#P user textedit 517 107 649 128 32896 20 9;#P objectname /sub.13/cue;#P user multiSlider 651 107 200 21 0. 100. 1 2936 47 0 0 2 0 0 0;#M frgb 0 0 0;#M brgb 255 255 255;#M rgb2 127 127 127;#M rgb3 0 0 0;#M rgb4 37 52 91;#M rgb5 74 105 182;#M rgb6 112 158 18;#M rgb7 149 211 110;#M rgb8 187 9 201;#M rgb9 224 62 37;#M rgb10 7 114 128;#P objectname fad13;#P window setfont Times 18.;#P comment 457 83 62 1310738 /sub.12;#P window setfont Times 9.;#P user textedit 517 82 649 103 32896 20 9;#P objectname /sub.12/cue;#P user multiSlider 651 82 200 21 0. 100. 1 2936 47 0 0 2 0 0 0;#M frgb 0 0 0;#M brgb 255 255 255;#M rgb2 127 127 127;#M rgb3 0 0 0;#M rgb4 37 52 91;#M rgb5 74 105 182;#M rgb6 112 158 18;#M rgb7 149 211 110;#M rgb8 187 9 201;#M rgb9 224 62 37;#M rgb10 7 114 128;#P objectname fad12;#P window setfont Times 18.;#P comment 457 58 62 1310738 /sub.11;#P window setfont Times 9.;#P user textedit 517 57 649 78 32896 20 9;#P objectname /sub.11/cue;#P user multiSlider 651 57 200 21 0. 100. 1 2936 47 0 0 2 0 0 0;#M frgb 0 0 0;#M brgb 255 255 255;#M rgb2 127 127 127;#M rgb3 0 0 0;#M rgb4 37 52 91;#M rgb5 74 105 182;#M rgb6 112 158 18;#M rgb7 149 211 110;#M rgb8 187 9 201;#M rgb9 224 62 37;#M rgb10 7 114 128;#P objectname fad11;#P window setfont Times 18.;#P comment 457 33 62 1310738 /sub.10;#P window setfont Times 9.;#P user textedit 517 32 649 53 32896 20 9;#P objectname /sub.10/cue;#P user multiSlider 651 32 200 21 0. 100. 1 2936 47 0 0 2 0 0 0;#M frgb 0 0 0;#M brgb 255 255 255;#M rgb2 127 127 127;#M rgb3 0 0 0;#M rgb4 37 52 91;#M rgb5 74 105 182;#M rgb6 112 158 18;#M rgb7 149 211 110;#M rgb8 187 9 201;#M rgb9 224 62 37;#M rgb10 7 114 128;#P objectname fad10;#P window setfont Times 18.;#P comment 457 8 53 1310738 /sub.9;#P window setfont Times 9.;#P user textedit 517 7 649 28 32896 20 9;#P objectname /sub.9/cue;#P user multiSlider 651 7 200 21 0. 100. 1 2936 47 0 0 2 0 0 0;#M frgb 0 0 0;#M brgb 255 255 255;#M rgb2 127 127 127;#M rgb3 0 0 0;#M rgb4 37 52 91;#M rgb5 74 105 182;#M rgb6 112 158 18;#M rgb7 149 211 110;#M rgb8 187 9 201;#M rgb9 224 62 37;#M rgb10 7 114 128;#P objectname fad9;#P window setfont "Sans Serif" 9.;#P newex 1347 528 61 196617 s $1.8/init;#B color 11;#P newex 1347 507 163 196617 route bang;#P newex 1347 485 56 196617 route text;#P newex 1347 462 77 196617 pvar $1.8/cue;#B color 13;#P newex 1347 439 75 196617 vari $1.8/cue;#B color 5;#P newex 1345 377 87 196617 variedit $1.8 $1;#B color 11;#P window setfont Times 9.;#P newex 1425 405 45 1310729 pvar fad8;#P window setfont "Sans Serif" 9.;#P newex 1163 529 61 196617 s $1.7/init;#B color 11;#P newex 1163 508 163 196617 route bang;#P newex 1163 486 56 196617 route text;#P newex 1163 463 77 196617 pvar $1.7/cue;#B color 13;#P newex 1163 440 75 196617 vari $1.7/cue;#B color 5;#P newex 1161 378 87 196617 variedit $1.7 $1;#B color 11;#P window setfont Times 9.;#P newex 1241 406 45 1310729 pvar fad7;#P window setfont "Sans Serif" 9.;#P newex 979 530 61 196617 s $1.6/init;#B color 11;#P newex 979 509 163 196617 route bang;#P newex 979 487 56 196617 route text;#P newex 979 464 77 196617 pvar $1.6/cue;#B color 13;#P newex 979 441 75 196617 vari $1.6/cue;#B color 5;#P newex 977 379 87 196617 variedit $1.6 $1;#B color 11;#P window setfont Times 9.;#P newex 1057 407 45 1310729 pvar fad6;#P window setfont "Sans Serif" 9.;#P newex 795 531 61 196617 s $1.5/init;#B color 11;#P newex 795 510 163 196617 route bang;#P newex 795 488 56 196617 route text;#P newex 795 465 77 196617 pvar $1.5/cue;#B color 13;#P newex 795 442 75 196617 vari $1.5/cue;#B color 5;#P newex 793 380 87 196617 variedit $1.5 $1;#B color 11;#P window setfont Times 9.;#P newex 873 408 45 1310729 pvar fad5;#P window setfont Times 18.;#P comment 32 182 53 1310738 /sub.8;#P window setfont Times 9.;#P user textedit 87 182 219 203 32896 20 9;#P objectname /sub.8/cue;#P user multiSlider 221 182 200 21 0. 100. 1 2936 47 0 0 2 0 0 0;#M frgb 0 0 0;#M brgb 255 255 255;#M rgb2 127 127 127;#M rgb3 0 0 0;#M rgb4 37 52 91;#M rgb5 74 105 182;#M rgb6 112 158 18;#M rgb7 149 211 110;#M rgb8 187 9 201;#M rgb9 224 62 37;#M rgb10 7 114 128;#P objectname fad8;#P window setfont Times 18.;#P comment 32 157 53 1310738 /sub.7;#P window setfont Times 9.;#P user textedit 87 157 219 178 32896 20 9;#P objectname /sub.7/cue;#P user multiSlider 221 157 200 21 0. 100. 1 2936 47 0 0 2 0 0 0;#M frgb 0 0 0;#M brgb 255 255 255;#M rgb2 127 127 127;#M rgb3 0 0 0;#M rgb4 37 52 91;#M rgb5 74 105 182;#M rgb6 112 158 18;#M rgb7 149 211 110;#M rgb8 187 9 201;#M rgb9 224 62 37;#M rgb10 7 114 128;#P objectname fad7;#P window setfont Times 18.;#P comment 32 132 53 1310738 /sub.6;#P window setfont Times 9.;#P user textedit 87 132 219 153 32896 20 9;#P objectname /sub.6/cue;#P user multiSlider 221 132 200 21 0. 100. 1 2936 47 0 0 2 0 0 0;#M frgb 0 0 0;#M brgb 255 255 255;#M rgb2 127 127 127;#M rgb3 0 0 0;#M rgb4 37 52 91;#M rgb5 74 105 182;#M rgb6 112 158 18;#M rgb7 149 211 110;#M rgb8 187 9 201;#M rgb9 224 62 37;#M rgb10 7 114 128;#P objectname fad6;#P window setfont Times 18.;#P comment 32 107 53 1310738 /sub.5;#P window setfont Times 9.;#P user textedit 87 107 219 128 32896 20 9;#P objectname /sub.5/cue;#P user multiSlider 221 107 200 21 0. 100. 1 2936 47 0 0 2 0 0 0;#M frgb 0 0 0;#M brgb 255 255 255;#M rgb2 127 127 127;#M rgb3 0 0 0;#M rgb4 37 52 91;#M rgb5 74 105 182;#M rgb6 112 158 18;#M rgb7 149 211 110;#M rgb8 187 9 201;#M rgb9 224 62 37;#M rgb10 7 114 128;#P objectname fad5;#P window setfont Times 18.;#P comment 32 82 53 1310738 /sub.4;#P window setfont Times 9.;#P user textedit 87 82 219 103 32896 20 9;#P objectname /sub.4/cue;#P user multiSlider 221 82 200 21 0. 100. 1 2936 47 0 0 2 0 0 0;#M frgb 0 0 0;#M brgb 255 255 255;#M rgb2 127 127 127;#M rgb3 0 0 0;#M rgb4 37 52 91;#M rgb5 74 105 182;#M rgb6 112 158 18;#M rgb7 149 211 110;#M rgb8 187 9 201;#M rgb9 224 62 37;#M rgb10 7 114 128;#P objectname fad4;#P window setfont Times 18.;#P comment 32 57 53 1310738 /sub.3;#P window setfont Times 9.;#P user textedit 87 57 219 78 32896 20 9;#P objectname /sub.3/cue;#P user multiSlider 221 57 200 21 0. 100. 1 2936 47 0 0 2 0 0 0;#M frgb 0 0 0;#M brgb 255 255 255;#M rgb2 127 127 127;#M rgb3 0 0 0;#M rgb4 37 52 91;#M rgb5 74 105 182;#M rgb6 112 158 18;#M rgb7 149 211 110;#M rgb8 187 9 201;#M rgb9 224 62 37;#M rgb10 7 114 128;#P objectname fad3;#P window setfont Times 18.;#P comment 32 32 53 1310738 /sub.2;#P window setfont Times 9.;#P user textedit 87 32 219 53 32896 20 9;#P objectname /sub.2/cue;#P user multiSlider 221 32 200 21 0. 100. 1 2936 47 0 0 2 0 0 0;#M frgb 0 0 0;#M brgb 255 255 255;#M rgb2 127 127 127;#M rgb3 0 0 0;#M rgb4 37 52 91;#M rgb5 74 105 182;#M rgb6 112 158 18;#M rgb7 149 211 110;#M rgb8 187 9 201;#M rgb9 224 62 37;#M rgb10 7 114 128;#P objectname fad2;#P window setfont "Sans Serif" 9.;#P newex 606 534 61 196617 s $1.4/init;#B color 11;#P newex 606 513 163 196617 route bang;#P newex 606 491 56 196617 route text;#P newex 606 468 77 196617 pvar $1.4/cue;#B color 13;#P newex 606 445 75 196617 vari $1.4/cue;#B color 5;#P newex 604 383 87 196617 variedit $1.4 $1;#B color 11;#P window setfont Times 9.;#P newex 684 411 45 1310729 pvar fad4;#P window setfont "Sans Serif" 9.;#P newex 422 535 61 196617 s $1.3/init;#B color 11;#P newex 422 514 163 196617 route bang;#P newex 422 492 56 196617 route text;#P newex 422 469 77 196617 pvar $1.3/cue;#B color 13;#P newex 422 446 75 196617 vari $1.3/cue;#B color 5;#P newex 420 384 87 196617 variedit $1.3 $1;#B color 11;#P window setfont Times 9.;#P newex 500 412 45 1310729 pvar fad3;#P window setfont "Sans Serif" 9.;#P newex 238 536 61 196617 s $1.2/init;#B color 11;#P newex 238 515 163 196617 route bang;#P newex 238 493 56 196617 route text;#P newex 238 470 77 196617 pvar $1.2/cue;#B color 13;#P newex 238 447 75 196617 vari $1.2/cue;#B color 5;#P newex 236 385 87 196617 variedit $1.2 $1;#B color 11;#P window setfont Times 9.;#P newex 316 413 45 1310729 pvar fad2;#P window setfont "Sans Serif" 9.;#P newex 54 537 61 196617 s $1.1/init;#B color 11;#P newex 54 516 163 196617 route bang;#P newex 54 494 56 196617 route text;#P newex 54 471 77 196617 pvar $1.1/cue;#B color 13;#P newex 54 448 75 196617 vari $1.1/cue;#B color 5;#P window setfont Times 18.;#P comment 32 7 53 1310738 /sub.1;#P window setfont Times 9.;#P user textedit 87 7 219 28 32896 20 9;#P objectname /sub.1/cue;#P window setfont "Sans Serif" 9.;#P newex 1893 616 84 196617 colorchooser $3;#B color 5;#P newex 1893 637 57 196617 pvar panel;#P comment 1109 239 117 196617 bpat bkgnd = 256 X 62;#P window linecount 4;#P comment 1501 491 187 196617 arg 1 : prefix name \; arg 2 : "more" button hide/show (0/1) \; arg 3 : color scheme choice (0 = movie \, 1 = tape \, 2 = camtrk \, 3 = conduite);#P window setfont Times 9.;#P window linecount 1;#P newex 1785 259 18 1310729 t b;#P window setfont "Sans Serif" 9.;#P comment 1840 231 176 196617 init and module param register write;#P comment 1948 495 66 196617 temp-preset;#P newex 1929 427 112 196617 s $1/more/editor;#B color 11;#P newex 1929 344 48 196617 loadbang;#P message 1929 367 81 196617 brgb 0 200 180;#P newex 1929 405 40 196617 t front;#P newex 1929 385 57 196617 pvar more;#P newex 1790 356 48 196617 loadbang;#N thispatcher;#Q end;#P newobj 1743 420 61 196617 thispatcher;#P message 1833 399 84 196617 script hide more;#P message 1743 399 89 196617 script show more;#P toggle 1743 357 15 0;#P newex 1743 375 41 196617 sel 1 0;#P message 1759 357 21 196617 $3;#P newex 1747 595 50 196617 deferlow;#P window setfont Times 9.;#P newex 1785 239 43 1310729 pvar init;#P newex 1782 463 48 1310729 pvar open;#P newex 1882 463 50 1310729 pvar recall;#P newex 1832 463 48 1310729 pvar store;#P window setfont "Sans Serif" 9.;#P window linecount 2;#P message 1785 279 114 196617 \; $1/init bang \;;#P window linecount 1;#P message 1747 616 142 196617 script sendtoback background;#P newex 1826 572 77 196617 t b i;#N comlet bang for "send to back";#P outlet 1747 635 15 0;#P window setfont Times 9.;#P newex 1782 492 111 1310729 storetemppath $1;#B color 6;#P window setfont "Sans Serif" 9.;#P newex 1772 529 52 196617 pvar sw;#P newex 1772 549 64 196617 vari $2/sw;#B color 5;#P comment 1741 337 178 196617 more parameters option (arg 2 \, 1/0);#P user panel 1737 228 307 100;#X brgb 255 255 255;#X frgb 0 0 0;#X border 1;#X rounded 0;#X shadow 0;#X done;#P user panel 1738 455 307 62;#X brgb 255 255 255;#X frgb 0 0 0;#X border 1;#X rounded 0;#X shadow 0;#X done;#P user panel 1738 518 307 153;#X brgb 255 255 255;#X frgb 0 0 0;#X border 1;#X rounded 0;#X shadow 0;#X done;#P newex 52 386 87 196617 variedit $1.1 $1;#B color 11;#P window setfont Times 9.;#P newex 132 414 64 1310729 pvar fad1;#P user multiSlider 221 7 200 21 0. 100. 1 2936 47 0 0 2 0 0 0;#M frgb 0 0 0;#M brgb 255 255 255;#M rgb2 127 127 127;#M rgb3 0 0 0;#M rgb4 37 52 91;#M rgb5 74 105 182;#M rgb6 112 158 18;#M rgb7 149 211 110;#M rgb8 187 9 201;#M rgb9 224 62 37;#M rgb10 7 114 128;#P objectname fad1;#P user panel 1737 333 307 119;#X brgb 255 255 255;#X frgb 0 0 0;#X border 1;#X rounded 0;#X shadow 0;#X done;#P user panel 1 1 855 208;#X brgb 244 244 244;#X frgb 194 194 194;#X border 1;#X rounded 4;#X shadow 0;#X done;#P objectname panel;#P fasten 141 0 142 0 135 641 41 641 41 581 55 581;#P fasten 3 0 4 0 137 437 43 437 43 377 57 377;#P fasten 146 1 143 0 210 767 40 767 40 647 57 647;#P connect 143 0 144 0;#P connect 144 0 145 0;#P connect 145 0 146 0;#P connect 146 0 147 0;#P fasten 45 1 42 0 212 563 42 563 42 443 59 443;#P connect 42 0 43 0;#P connect 43 0 44 0;#P connect 44 0 45 0;#P connect 45 0 46 0;#P fasten 142 2 141 0 131 612 135 612;#P fasten 4 2 3 0 133 408 137 408;#P fasten 148 0 149 0 319 640 225 640 225 580 239 580;#P fasten 47 0 48 0 321 436 227 436 227 376 241 376;#P fasten 153 1 150 0 394 766 224 766 224 646 241 646;#P connect 150 0 151 0;#P connect 151 0 152 0;#P connect 152 0 153 0;#P connect 153 0 154 0;#P fasten 52 1 49 0 396 562 226 562 226 442 243 442;#P connect 49 0 50 0;#P connect 50 0 51 0;#P connect 51 0 52 0;#P connect 52 0 53 0;#P fasten 149 2 148 0 321 611 319 611;#P fasten 48 2 47 0 317 407 321 407;#P fasten 155 0 156 0 503 639 409 639 409 579 423 579;#P fasten 54 0 55 0 505 435 411 435 411 375 425 375;#P fasten 160 1 157 0 578 765 408 765 408 645 425 645;#P connect 157 0 158 0;#P connect 158 0 159 0;#P connect 159 0 160 0;#P connect 160 0 161 0;#P fasten 59 1 56 0 580 561 410 561 410 441 427 441;#P connect 56 0 57 0;#P connect 57 0 58 0;#P connect 58 0 59 0;#P connect 59 0 60 0;#P fasten 156 2 155 0 505 610 503 610;#P fasten 55 2 54 0 501 406 505 406;#P fasten 162 0 163 0 687 638 593 638 593 578 607 578;#P fasten 61 0 62 0 689 434 595 434 595 374 609 374;#P fasten 167 1 164 0 762 764 592 764 592 644 609 644;#P connect 164 0 165 0;#P connect 165 0 166 0;#P connect 166 0 167 0;#P connect 167 0 168 0;#P fasten 66 1 63 0 764 560 594 560 594 440 611 440;#P connect 63 0 64 0;#P connect 64 0 65 0;#P connect 65 0 66 0;#P connect 66 0 67 0;#P fasten 163 2 162 0 689 609 687 609;#P fasten 62 2 61 0 685 405 689 405;#P fasten 169 0 170 0 876 635 782 635 782 575 796 575;#P fasten 89 0 90 0 878 431 784 431 784 371 798 371;#P fasten 174 1 171 0 951 761 781 761 781 641 798 641;#P connect 171 0 172 0;#P connect 172 0 173 0;#P connect 173 0 174 0;#P connect 174 0 175 0;#P fasten 94 1 91 0 953 557 783 557 783 437 800 437;#P connect 91 0 92 0;#P connect 92 0 93 0;#P connect 93 0 94 0;#P connect 94 0 95 0;#P fasten 170 2 169 0 878 606 876 606;#P fasten 90 2 89 0 874 402 878 402;#P fasten 176 0 177 0 1060 634 966 634 966 574 980 574;#P fasten 96 0 97 0 1062 430 968 430 968 370 982 370;#P fasten 181 1 178 0 1135 760 965 760 965 640 982 640;#P connect 178 0 179 0;#P connect 179 0 180 0;#P connect 180 0 181 0;#P connect 181 0 182 0;#P fasten 101 1 98 0 1137 556 967 556 967 436 984 436;#P connect 98 0 99 0;#P connect 99 0 100 0;#P connect 100 0 101 0;#P connect 101 0 102 0;#P fasten 177 2 176 0 1062 605 1060 605;#P fasten 97 2 96 0 1058 401 1062 401;#P fasten 183 0 184 0 1244 633 1150 633 1150 573 1164 573;#P fasten 103 0 104 0 1246 429 1152 429 1152 369 1166 369;#P fasten 188 1 185 0 1319 759 1149 759 1149 639 1166 639;#P connect 185 0 186 0;#P connect 186 0 187 0;#P connect 187 0 188 0;#P connect 188 0 189 0;#P fasten 108 1 105 0 1321 555 1151 555 1151 435 1168 435;#P connect 105 0 106 0;#P connect 106 0 107 0;#P connect 107 0 108 0;#P connect 108 0 109 0;#P fasten 184 2 183 0 1246 604 1244 604;#P fasten 104 2 103 0 1242 400 1246 400;#P fasten 190 0 191 0 1428 632 1334 632 1334 572 1348 572;#P fasten 110 0 111 0 1430 428 1336 428 1336 368 1350 368;#P fasten 195 1 192 0 1503 758 1333 758 1333 638 1350 638;#P connect 192 0 193 0;#P connect 193 0 194 0;#P connect 194 0 195 0;#P connect 195 0 196 0;#P fasten 115 1 112 0 1505 554 1335 554 1335 434 1352 434;#P connect 112 0 113 0;#P connect 113 0 114 0;#P connect 114 0 115 0;#P connect 115 0 116 0;#P fasten 191 2 190 0 1430 603 1428 603;#P fasten 111 2 110 0 1426 399 1430 399;#P connect 21 0 23 0;#P connect 23 0 22 0;#P connect 22 0 24 0;#P fasten 25 0 26 0 1838 417 1748 417;#P connect 24 0 26 0;#P fasten 13 0 20 0 1831 592 1752 592;#P connect 20 0 14 0;#P connect 14 0 12 0;#P fasten 27 0 21 0 1795 376 1786 376 1786 354 1764 354;#P fasten 9 0 10 0 1777 571 1768 571 1768 525 1777 525;#P connect 10 0 9 0;#P connect 18 0 11 0;#P connect 19 0 35 0;#P connect 35 0 15 0;#P connect 9 1 13 0;#P connect 16 0 11 1;#P fasten 22 1 25 0 1763 395 1838 395;#P connect 17 0 11 2;#P connect 13 1 39 0;#P connect 39 0 38 0;#P connect 31 0 30 0;#P connect 30 0 28 0;#P connect 28 0 29 0;#P connect 29 0 32 0;#P pop;