max v2;#N vpatcher 446 118 1171 582;#P origin 19 0;#P window setfont "Sans Serif" 9.;#P window linecount 1;#P newex 405 128 151 196617 moduleinit $1;#B color 13;#P newex 18 70 29 196617 gate;#P newex 18 21 380 196617 makeswitch $1/sw $1 common_switchstate;#B color 12;#P window linecount 4;#P message 405 156 254 196617 \; $1/sw/init bang \; $1/ctl/init bang \; $1/ctl/external/sw 1 \;;#P window linecount 1;#P newex 102 361 86 196617 substitute b bang;#P newex 102 340 49 196617 zl rot -1;#P newex 102 319 38 196617 zl join;#P message 46 290 14 196617 b;#P newex 46 269 57 196617 route bang;#P newex 46 340 49 196617 zl rot -1;#P newex 106 180 43 196617 route 0;#P newex 92 138 21 196617 t 1;#P newex 139 203 29 196617 t 2 l;#P newex 46 319 38 196617 zl join;#P newex 18 248 38 196617 gate 2;#P newex 59 159 57 196617 zl slice 10;#P newex 18 203 79 196617 scalemulticurv;#B color 5;#P newex 194 135 68 196617 prepend send;#P newex 18 394 47 196617 forward;#B color 11;#P newex 18 138 51 196617 zl slice 1;#P newex 18 117 84 196617 zl ecils 1;#P newex 37 49 432 196617 makeparam $1/ctl $1 f 0 0. 100. 1;#B color 12;#P newex 18 94 225 196617 tm_lsubctlmap $1;#P connect 20 0 21 0;#P connect 21 0 0 0;#P connect 0 0 2 0;#P connect 2 0 3 0;#P connect 3 0 6 0;#P connect 10 0 8 0;#P connect 11 0 8 0;#P connect 18 0 4 0;#P fasten 5 0 4 0 199 387 23 387;#P connect 13 0 4 0;#P connect 8 0 4 0;#P connect 7 0 6 1;#P connect 1 0 21 1;#P connect 6 1 8 1;#P connect 6 2 8 1;#P connect 8 1 14 0;#P connect 14 0 15 0;#P connect 14 1 9 0;#P connect 9 0 13 0;#P connect 3 1 7 0;#P connect 10 1 9 1;#P connect 2 1 11 0;#P connect 15 0 16 0;#P connect 16 0 17 0;#P connect 17 0 18 0;#P connect 7 1 12 0;#P connect 10 1 16 1;#P connect 12 1 10 0;#P connect 2 1 5 0;#P connect 22 0 19 0;#P pop;