max v2;#N vpatcher 45 156 1028 670;#P window setfont "Sans Serif" 9.;#P newex 551 179 118 196617 s $2/collname;#B color 11;#P button 507 138 15 0;#P newex 507 98 80 196617 t l l;#P newex 551 138 36 196617 zl reg;#P newex 735 62 48 196617 loadbang;#P newex 529 138 20 196617 t b;#P newex 507 118 32 196617 sel 0;#P number 553 457 35 9 0 0 0 3 0 0 0 221 221 221 222 222 222 0 0 0;#P number 521 440 35 9 0 0 0 3 0 0 0 221 221 221 222 222 222 0 0 0;#P number 489 457 35 9 0 0 0 3 0 0 0 221 221 221 222 222 222 0 0 0;#P number 457 440 35 9 0 0 0 3 0 0 0 221 221 221 222 222 222 0 0 0;#P newex 457 419 106 196617 unpack 0 0 0 0;#P newex 457 379 95 196617 r $2/clip;#B color 11;#P window linecount 0;#P message 126 369 131 196617;#P window linecount 1;#P newex 126 349 62 196617 prepend set;#P message 55 325 131 196617 4 4;#P newex 55 305 62 196617 prepend set;#P newex 690 443 99 196617 s $2/seed;#B color 11;#P newex 690 422 62 196617 pack 0 0;#P window linecount 2;#P message 797 244 142 196617 \; $2/rndseed 2 6 2 6;#P number 742 402 35 9 0 0 0 3 0 0 0 221 221 221 222 222 222 0 0 0;#P number 690 402 35 9 0 0 0 3 0 0 0 221 221 221 222 222 222 0 0 0;#P window linecount 1;#P newex 690 301 29 196617 t b l;#P newex 742 381 49 196617 randomR;#P newex 690 381 49 196617 randomR;#P number 814 345 35 9 0 0 0 3 0 0 0 221 221 221 222 222 222 0 0 0;#P number 779 345 35 9 0 0 0 3 0 0 0 221 221 221 222 222 222 0 0 0;#P number 744 345 35 9 0 0 0 3 0 0 0 221 221 221 222 222 222 0 0 0;#P number 709 345 35 9 0 0 0 3 0 0 0 221 221 221 222 222 222 0 0 0;#P newex 709 323 116 196617 unpack 0 0 0 0;#P window linecount 2;#P message 646 244 146 196617 \; $2/rndseed 4 4 4 4 \;;#P window linecount 1;#P newex 690 279 114 196617 r $2/rndseed;#B color 11;#P newex 507 59 175 196617 r $2/collnamerecalldefault;#B color 11;#P message 507 80 131 196617 $3;#P window setfont Times 9.;#P newex 823 83 85 1310729 s $2/init;#B color 11;#P newex 823 60 45 1310729 r initdsp;#B color 11;#P window setfont "Sans Serif" 9.;#P newex 698 110 94 196617 r $2/init;#B color 11;#P window linecount 7;#P message 698 136 190 196617 \; $2/deassign bang \; $2/autotrig 0 \; $2/doubletime 400 \; $2/clip 0 8 0 8 \; $2/seed 4 4 \; $2/collnamerecalldefault bang;#P window linecount 1;#P message 424 105 22 196617 set;#P message 360 124 131 196617 $3;#P newex 360 104 62 196617 prepend set;#P newex 286 104 72 196617 prepend refer;#P newex 286 82 118 196617 r $2/collname;#B color 11;#P newex 486 305 26 196617 t -1;#P number 375 376 35 9 0 0 0 3 0 0 0 221 221 221 222 222 222 0 0 0;#P newex 375 354 127 196617 r $2/doubletime;#B color 11;#P button 367 400 15 0;#P newex 315 400 44 196617 del 400;#P newex 296 463 96 196617 s $2/trig;#B color 11;#P toggle 96 425 15 0;#P newex 96 401 115 196617 r $2/autotrig;#B color 11;#P newex 296 441 29 196617 gate;#P button 315 422 15 0;#P newex 315 373 32 196617 sel 1;#P newex 315 352 27 196617 ==;#P number 332 330 35 9 0 0 0 3 0 0 0 221 221 221 222 222 222 0 0 0;#P newex 332 266 40 196617 unpack;#P newex 332 309 27 196617 +;#P newex 349 288 27 196617 * 9;#P number 207 322 35 9 0 0 0 3 0 0 0 221 221 221 222 222 222 0 0 0;#P newex 207 301 124 196617 r $1/triggering;#B color 11;#P newex 486 284 117 196617 r $2/deassign;#B color 11;#P newex 216 151 20 196617 t b;#P newex 400 285 47 196617 forward;#B color 11;#P newex 400 212 27 196617 t - l;#P window linecount 3;#P newex 417 236 78 196617 sprintf send $1/%ld%ldsamp;#B color 13;#P window linecount 1;#P newex 430 159 99 196617 r $2/seed;#B color 11;#P newex 170 123 27 196617 t l l;#P newex 400 160 27 196617 t l b;#P newex 400 185 40 196617 zl reg;#P newex 17 27 96 196617 r $2/trig;#B color 11;#P newex 43 48 99 196617 r $2/seed;#B color 11;#P newex 82 243 44 196617 clip 0 8;#P newex 17 243 44 196617 clip 0 8;#P newex 17 267 30 196617 pack;#P button 17 55 15 0;#P newex 17 81 36 196617 zl reg;#P newex 17 102 163 196617 t l l;#P number 82 222 35 9 0 0 0 3 0 0 0 221 221 221 222 222 222 0 0 0;#P newex 82 148 27 196617 t i b;#P newex 82 200 27 196617 +;#P window linecount 2;#P newex 99 168 46 196617 randomR -1 1;#P number 17 222 35 9 0 0 0 3 0 0 0 221 221 221 222 222 222 0 0 0;#P window linecount 1;#P newex 17 148 27 196617 t i b;#P newex 17 124 40 196617 unpack;#P newex 17 200 27 196617 +;#P window linecount 2;#P newex 34 168 46 196617 randomR -1 1;#P window linecount 1;#P newex 170 271 47 196617 forward;#B color 11;#P newex 170 172 151 196617 t b l;#P window linecount 3;#P newex 311 220 78 196617 sprintf send $1/%ld%ldsamp;#B color 13;#P window linecount 1;#P message 170 195 30 196617 next;#P newex 170 244 69 196617 route symbol;#P message 216 195 38 196617 goto 1;#N coll ;#P newobj 170 220 53 196617 coll;#B color 5;#P window linecount 3;#P comment 287 22 348 196617 arg 1 : module prefix (i.e. sampgrid1) \; arg 2 : voice prefix including module prefix (i.e. sampgrid1-movingvoice1) \; arg 3 : coll file name (opt.);#P window linecount 1;#P comment 723 301 157 196617 [min x] [max x] [min y] [max y];#P connect 25 0 20 0;#P connect 20 0 19 0;#P connect 19 0 18 0;#P connect 18 0 11 0;#P connect 11 0 12 0;#P connect 12 0 10 0;#P connect 10 0 13 0;#P connect 13 0 22 0;#P connect 22 0 21 0;#P connect 12 1 9 0;#P connect 9 0 10 1;#P connect 85 0 22 1;#P connect 23 0 21 1;#P connect 24 0 19 1;#P fasten 21 0 19 1 22 290 152 290 152 75 48 75;#P lcolor 2;#P connect 86 0 22 2;#P connect 24 0 79 0;#P connect 79 0 80 0;#P connect 11 1 16 0;#P connect 16 0 15 0;#P connect 15 0 17 0;#P connect 17 0 23 0;#P connect 45 0 46 0;#P connect 16 1 14 0;#P connect 14 0 15 1;#P connect 87 0 23 1;#P connect 88 0 23 2;#P connect 6 0 81 0;#P connect 81 0 82 0;#P connect 18 1 28 0;#P connect 28 0 7 0;#P connect 7 0 5 0;#P connect 54 0 2 0;#P connect 3 0 2 0;#P connect 5 0 2 0;#P connect 2 0 4 0;#P fasten 6 0 8 0 316 266 175 266;#P connect 4 0 8 0;#P connect 35 0 36 0;#P fasten 24 0 33 0 48 70 221 70;#P connect 33 0 3 0;#P connect 53 0 54 0;#P connect 46 0 44 0;#P connect 44 0 47 0;#P connect 7 1 6 0;#P connect 36 0 41 0;#P connect 41 0 42 0;#P connect 42 0 48 0;#P connect 48 0 43 0;#P connect 43 0 44 1;#P connect 7 1 39 0;#P connect 39 0 38 0;#P connect 52 0 40 0;#P connect 38 0 40 0;#P connect 40 0 41 1;#P connect 39 1 37 0;#P connect 37 0 38 1;#P connect 51 0 48 1;#P fasten 53 0 55 0 291 101 365 101;#P fasten 57 0 56 0 429 122 365 122;#P connect 55 0 56 0;#P connect 42 0 49 0;#P connect 50 0 51 0;#P connect 28 1 27 0;#P connect 34 0 26 0;#P connect 27 1 26 0;#P connect 26 0 31 0;#P connect 30 0 32 0;#P connect 31 0 32 0;#P connect 31 1 30 0;#P connect 29 0 26 1;#P connect 27 0 26 1;#P connect 83 0 84 0;#P connect 84 0 85 0;#P connect 34 0 52 0;#P connect 84 1 86 0;#P connect 63 0 62 0;#P connect 91 0 62 0;#P connect 62 0 93 0;#P connect 93 0 89 0;#P connect 89 0 94 0;#P connect 84 2 87 0;#P connect 89 1 90 0;#P connect 90 0 92 0;#P connect 92 0 95 0;#P connect 84 3 88 0;#P connect 93 1 92 1;#P connect 64 0 73 0;#P connect 73 0 71 0;#P lcolor 7;#P connect 71 0 74 0;#P connect 74 0 77 0;#P connect 77 0 78 0;#P connect 59 0 58 0;#P connect 73 1 66 0;#P connect 66 0 67 0;#P connect 67 0 71 1;#P connect 68 0 71 2;#P fasten 73 0 72 0 695 370 747 370;#P lcolor 7;#P connect 72 0 75 0;#P connect 75 0 77 1;#P connect 66 1 68 0;#P connect 69 0 72 1;#P connect 66 2 69 0;#P connect 70 0 72 2;#P connect 66 3 70 0;#P connect 60 0 61 0;#P pop;