max v2;#N vpatcher 135 161 1044 528;#P window setfont "Sans Serif" 9.;#P window linecount 1;#P newex 431 181 21 196617 t 0;#P newex 431 161 44 196617 del 100;#P newex 431 141 31 196617 t b 1;#P window setfont Times 9.;#P comment 110 3 13 1310729 p;#P window setfont "Sans Serif" 9.;#P newex 491 196 41 196617 pack;#P newex 491 150 41 196617 t b i;#P newex 491 176 27 196617 i;#P toggle 736 96 15 0;#P message 751 141 69 196617 brgb 0 255 0;#P newex 736 50 146 196617 sprintf set %s/%ld%ldplaying;#P newex 736 70 44 196617 receive;#B color 11;#P newex 736 115 41 196617 sel 0 1;#P newex 736 185 57 196617 pvar panel;#B color 13;#P message 736 165 93 196617 brgb 136 151 194;#P newex 156 168 80 196617 pvar sampmenu;#B color 13;#P newex 335 131 80 196617 pvar sampmenu;#B color 13;#P newex 512 324 80 196617 pvar sampmenu;#B color 13;#P newex 512 304 21 196617 t 0;#P newex 512 283 125 196617 r $1/clear;#B color 11;#P newex 335 90 80 196617 prepend symbol;#P newex 335 50 138 196617 sprintf set %s/%ld%ldsamp;#P newex 335 70 44 196617 receive;#B color 11;#P newex 57 189 29 196617 gate;#P newex 57 96 59 196617 t 1 i 0;#P newex 483 106 50 196617 t 0 count;#P newex 483 84 44 196617 receive;#B color 11;#P window linecount 2;#P newex 483 50 122 196617 sprintf set %s/%ld%ldmenuloaded;#P window linecount 1;#P newex 382 264 44 196617 pack i s;#P newex 382 224 44 196617 t b s;#P newex 382 244 27 196617 i;#P number 673 113 35 9 0 0 0 3 0 0 0 221 221 221 222 222 222 0 0 0;#P newex 673 91 35 196617 +;#P newex 698 71 27 196617 * 9;#P newex 648 51 60 196617 unpack s i i;#P newex 382 284 125 196617 s $1/store;#B color 11;#P window setfont Times 9.;#P comment 13 31 23 1310729 dwn;#P comment 49 31 17 1310729 up;#P button 32 31 13 13;#P button 62 31 13 12;#P window setfont "Sans Serif" 9.;#P newex 76 125 58 196617 t b 1 count;#P newex 1 125 58 196617 t b 0 count;#N counter 0 0;#X flags 0 0;#P newobj 76 168 77 196617 counter 0 0;#P newex 140 125 27 196617 - 1;#P newex 140 103 61 196617 route count;#P newex 323 263 47 196617 forward;#B color 11;#P newex 275 263 47 196617 forward;#B color 11;#P newex 280 201 140 196617 sprintf send %s/%ld%ldout3;#P newex 267 181 140 196617 sprintf send %s/%ld%ldout2;#P window setfont Times 9.;#P comment 146 8 25 1310729 play;#P toggle 133 8 13 0;#P objectname testtoggle;#P button 76 2 13 6;#P objectname testbutton;#P window setfont "Sans Serif" 9.;#P newex 491 218 125 196617 s $1/test;#B color 11;#P comment 1 2 77 196617 $1 $2 $3;#P window setfont Times 9.;#P user ubumenu 3 16 86 1310729 0 1 1 0;#X setrgb 0 4 214 187 187 187 234 234 234 4 4 4 141 141 141 112 112 112;#X add;#X prefix_set 0 0 <none> 0;#P objectname sampmenu;#P user panel 0 0 92 69;#X brgb 136 151 194;#X frgb 0 0 0;#X border 1;#X rounded 0;#X shadow 0;#X done;#P objectname panel;#P window setfont "Sans Serif" 9.;#P newex 254 161 140 196617 sprintf send %s/%ld%ldout1;#P newex 227 263 47 196617 forward;#B color 11;#P newex 207 50 123 196617 sprintf set %s/%ld%ldin;#P newex 207 9 48 196617 loadbang;#P message 207 30 160 196617 $1 $2 $3;#P newex 207 70 44 196617 receive;#B color 11;#P window linecount 4;#P comment 25 241 120 196617 sgm: Sample Grid Menuu \; arg 1 : prefix name \; arg 2 : x coordinant \; arg 3 : y coordinant \;;#P number 57 212 35 9 0 0 0 3 0 0 0 221 221 221 222 222 222 0 0 0;#P hidden connect 24 0 22 0;#P hidden connect 9 0 39 0;#P connect 39 0 40 0;#P connect 39 2 40 0;#P connect 40 0 0 0;#P hidden connect 25 0 23 0;#P connect 22 0 21 0;#P connect 23 0 21 0;#P connect 21 0 40 1;#P connect 22 1 21 1;#P connect 23 1 21 1;#P connect 39 1 21 3;#P hidden connect 9 2 19 0;#P connect 19 0 20 0;#P connect 20 0 21 4;#P connect 0 0 48 0;#P connect 22 2 48 0;#P connect 23 2 48 0;#P connect 4 0 3 0;#P connect 3 0 5 0;#P connect 5 0 2 0;#P connect 7 0 6 0;#P hidden connect 9 0 6 0;#P lcolor 1;#P fasten 3 0 7 0 212 47 259 47;#P fasten 3 0 15 0 212 47 272 47;#P connect 15 0 17 0;#P hidden connect 9 1 17 0;#P lcolor 1;#P fasten 3 0 16 0 212 47 285 47;#P connect 16 0 18 0;#P hidden connect 9 2 18 0;#P lcolor 1;#P fasten 3 0 42 0 212 47 340 47;#P connect 42 0 41 0;#P connect 41 0 43 0;#P fasten 38 0 47 0 488 128 340 128;#P connect 2 0 47 0;#P fasten 38 1 47 0 528 128 340 128;#P connect 43 0 47 0;#P hidden connect 9 1 34 0;#P lcolor 1;#P connect 34 0 33 0;#P connect 33 0 35 0;#P connect 35 0 28 0;#P connect 32 0 33 1;#P connect 34 1 35 1;#P hidden connect 12 0 60 0;#P connect 60 0 61 0;#P connect 61 0 62 0;#P fasten 3 0 36 0 212 47 488 47;#P connect 36 0 37 0;#P connect 37 0 38 0;#P connect 62 0 57 0;#P connect 60 1 57 0;#P hidden connect 13 0 57 0;#P connect 57 0 56 0;#P connect 56 0 58 0;#P connect 58 0 11 0;#P connect 32 0 56 1;#P connect 44 0 45 0;#P connect 45 0 46 0;#P connect 57 1 58 1;#P fasten 3 0 29 0 212 47 653 47;#P connect 29 1 31 0;#P connect 31 0 32 0;#P connect 29 2 30 0;#P connect 30 0 31 1;#P fasten 3 0 53 0 212 47 741 47;#P connect 53 0 52 0;#P connect 45 0 55 0;#P connect 38 0 55 0;#P connect 52 0 55 0;#P connect 55 0 51 0;#P connect 51 0 49 0;#P connect 49 0 50 0;#P connect 54 0 50 0;#P connect 51 1 54 0;#P pop;