max v2;#N vpatcher 315 155 727 323;#P window setfont "Sans Serif" 9.;#P newex 148 76 74 196617 pack $4 0;#P window linecount 7;#P comment 247 46 116 196617 arg 1 : prefix \; arg 1 : prefix \; arg 2 : initial threshon (i.e. 5000) \; arg 3 : initial threshoff (i.e. 500) \; arg 4 : position number;#P outlet 22 99 15 0;#P inlet 22 36 15 0;#P window linecount 1;#P newex 22 76 74 196617 pack $4 1;#P newex 22 55 136 196617 thtrigi samptrig1 5000 500;#B color 5;#P connect 2 0 0 0;#P connect 0 0 1 0;#P connect 1 0 3 0;#P fasten 5 0 3 0 153 96 27 96;#P connect 0 1 5 0;#P pop;