max v2;#N vpatcher 382 57 786 307;#N comlet bang when trig off;#P outlet 182 199 15 0;#N comlet bang when trig on;#P outlet 21 201 15 0;#N comlet val in;#P inlet 21 32 15 0;#P window setfont Times 9.;#P newex 182 143 43 1310729 onebang;#P button 21 179 15 0;#P newex 21 144 50 1310729 onebang 1;#P number 204 80 70 9 0 0 0 20 0 0 0 221 221 221 222 222 222 0 0 0;#P number 48 80 70 9 0 0 0 20 0 0 0 221 221 221 222 222 222 0 0 0;#P window setfont "Sans Serif" 9.;#P newex 204 59 132 196617 r $1-threshoff;#B color 11;#P newex 48 59 129 196617 r $1-threshon;#B color 11;#P window setfont Times 9.;#P newex 182 122 27 1310729 sel 1;#P newex 21 121 27 1310729 sel 1;#P newex 182 102 73 1310729 < $3;#P newex 21 101 73 1310729 > $2;#P window setfont "Sans Serif" 9.;#P window linecount 5;#P comment 243 140 116 196617 arg 1 : prefix \; arg 2 : initial threshon (i.e. 5000) \; arg 3 : initial threshoff (i.e. 500);#P window linecount 1;#P comment 107 28 131 196617 thresh trig integer version;#P connect 13 0 2 0;#P connect 2 0 4 0;#P connect 4 0 10 0;#P connect 10 0 11 0;#P connect 11 0 14 0;#P connect 6 0 8 0;#P connect 12 0 10 1;#P fasten 8 0 2 1 53 97 89 97;#P fasten 13 0 3 0 26 53 187 53;#P connect 3 0 5 0;#P connect 5 0 12 0;#P connect 12 0 15 0;#P lcolor 2;#P connect 7 0 9 0;#P fasten 10 0 12 1 26 166 231 166 231 138 220 138;#P fasten 9 0 3 1 209 98 250 98;#P pop;