max v2;#N vpatcher 382 57 975 309;#P window setfont "Sans Serif" 9.;#P newex 426 102 132 196617 s $1-threshoff;#B color 11;#P newex 372 124 129 196617 s $1-threshon;#B color 11;#P newex 372 39 48 196617 loadbang;#P newex 372 80 64 196617 unpack 0. 0.;#P message 372 59 108 196617 $2 $3;#P flonum 204 80 92 9 0 0 0 3 0 0 0 221 221 221 222 222 222 0 0 0;#P flonum 48 79 92 9 0 0 0 3 0 0 0 221 221 221 222 222 222 0 0 0;#N comlet bang when trig off;#P outlet 182 199 15 0;#N comlet bang when trig on;#P outlet 21 201 15 0;#N comlet val in;#P inlet 21 32 15 0;#P window setfont Times 9.;#P newex 182 143 43 1310729 onebang;#P button 21 179 15 0;#P newex 21 144 50 1310729 onebang 1;#P window setfont "Sans Serif" 9.;#P newex 204 59 132 196617 r $1-threshoff;#B color 11;#P newex 48 59 129 196617 r $1-threshon;#B color 11;#P window setfont Times 9.;#P newex 182 122 27 1310729 sel 1;#P newex 21 121 27 1310729 sel 1;#P newex 182 102 32 1310729 < 0.;#P newex 21 101 37 1310729 > 0.;#P window setfont "Sans Serif" 9.;#P window linecount 5;#P comment 243 140 116 196617 arg 1 : prefix \; arg 2 : initial threshon (i.e. 0.0166) \; arg 3 : initial threshoff (i.e. 0.00166);#P window linecount 1;#P comment 107 28 131 196617 thresh trig integer version;#P connect 11 0 2 0;#P connect 2 0 4 0;#P connect 4 0 8 0;#P connect 8 0 9 0;#P connect 9 0 12 0;#P connect 6 0 14 0;#P connect 14 0 2 1;#P connect 10 0 8 1;#P fasten 11 0 3 0 26 53 187 53;#P connect 3 0 5 0;#P connect 5 0 10 0;#P connect 10 0 13 0;#P lcolor 2;#P connect 7 0 15 0;#P connect 15 0 3 1;#P fasten 8 0 10 1 26 166 231 166 231 138 220 138;#P connect 18 0 16 0;#P connect 16 0 17 0;#P connect 17 0 19 0;#P connect 17 1 20 0;#P pop;