max v2;#N vpatcher 94 156 634 308;#P window setfont "Sans Serif" 9.;#P newex 184 76 74 196617 pack $4 0;#P window linecount 5;#P comment 273 42 218 196617 arg 1 : prefix \; arg 1 : prefix \; arg 2 : initial threshon (i.e. 0.0166) \; arg 3 : initial threshoff (i.e. 0.00166) \; arg 4 : position number;#P outlet 22 99 15 0;#P inlet 22 36 15 0;#P window linecount 1;#P newex 22 76 74 196617 pack $4 1;#P newex 22 55 172 196617 thtrigf $1 0.016 0.0016;#B color 5;#P connect 2 0 0 0;#P connect 0 0 1 0;#P connect 1 0 3 0;#P fasten 5 0 3 0 189 96 27 96;#P connect 0 1 5 0;#P pop;