max v2;#N vpatcher 387 64 960 377;#P window setfont "Sans Serif" 9.;#P window linecount 1;#P newex 373 210 32 196617 print;#P toggle 369 166 15 0;#P newex 372 187 29 196617 gate;#P number 201 81 35 9 0 0 0 3 0 0 0 221 221 221 222 222 222 0 0 0;#P newex 353 63 27 196617 + 1;#P newex 201 99 45 196617 gate 2 2;#P toggle 401 47 15 0;#P window setfont Times 9.;#P newex 401 27 56 1310729 r $1/bascule;#B color 11;#P window setfont "Sans Serif" 9.;#P newex 12 232 162 196617 t_xfade~;#B color 6;#P newex 236 125 89 196617 t_paramxprep 20;#B color 6;#N comlet side band (-1 <= 0 <= 1];#P inlet 54 27 15 0;#N comlet [freq] [xfade time];#P inlet 236 27 15 0;#P outlet 12 264 15 0;#P inlet 12 27 15 0;#P newex 88 189 64 196617 t_mod~;#B color 6;#P newex 12 189 64 196617 t_mod~;#B color 6;#P window linecount 2;#P comment 42 258 372 196617 $1-freq - [reference frequency in hz. <float>]] [time (opt.)] \; $1-sb - side band [-1 (lower SB) \, 0 (both) \, 1 (upper SB)] [time (opt.)] \;;#P connect 3 0 1 0;#P connect 1 0 8 0;#P connect 8 0 4 0;#P connect 6 0 1 1;#P connect 11 0 1 2;#P connect 7 1 1 2;#P connect 3 0 2 0;#P connect 2 0 8 1;#P connect 6 0 2 1;#P connect 7 2 2 2;#P connect 11 0 2 2;#P connect 7 0 8 2;#P connect 12 0 13 0;#P connect 13 0 11 0;#P connect 5 0 11 1;#P connect 11 1 7 0;#P connect 10 0 12 0;#P connect 15 0 14 0;#P connect 14 0 16 0;#P connect 5 0 14 1;#P connect 9 0 10 0;#P pop;