max v2;#N vpatcher 220 54 1008 738;#P origin 22 -146;#P button 465 199 15 0;#P window setfont "Sans Serif" 9.;#P window linecount 1;#P newex 438 390 133 196617 s $1/spat/init;#B color 11;#P window setfont Times 9.;#P newex 567 101 92 1310729 s $1/init;#B color 11;#P newex 567 78 51 1310729 r /tape/init;#B color 11;#P window setfont "Sans Serif" 9.;#P newex 496 46 261 196617 makeswitch $1/sw $1 tape_switchstate;#B color 13;#P newex 496 89 31 196617 == 0;#P newex 496 128 50 196617 thispoly~;#B color 5;#P toggle 496 70 15 0;#P message 496 109 45 196617 mute \$1;#P newex 131 206 313 196617 makeparam $1/freq $1 f 0 0 20000. 1;#B color 13;#P newex 70 172 278 196617 makeparam $1/sb $1 f 0 -1 1 1;#B color 13;#P newex 100 92 329 196617 makeparam $1/del $1 f 0 0 $2 1;#B color 13;#P newex 99 25 330 196617 makeparam $1/fb $1 f 0 0 1. 1;#B color 13;#P flonum 60 319 35 9 0 0 0 3 0 0 0 221 221 221 222 222 222 0 0 0;#P newex 9 319 49 196617 t_vol~ 2;#P newex 48 290 350 196617 makeparam $1/vol $1 f 1 0. 2. 1 20;#B color 13;#P window setfont Times 9.;#P window linecount 2;#P message 599 615 143 1310729 \; $1/freqglissgrain 100;#P message 466 616 129 1310729 \; $1/freqglissrand 0;#P message 270 616 181 1310729 \; $1/freqglissrand 1 50 270 4000 6000 50 100;#P toggle 18 621 15 0;#P window linecount 1;#P newex 35 620 230 1310729 proc-randtrans $1/freqglissrand $1/freqgliss 2;#B color 6;#N vpatcher 30 89 252 336;#P window setfont "Sans Serif" 9.;#P newex 101 94 27 196617 / 2;#P newex 50 161 61 196617 pack 0. 0;#P newex 71 139 21 196617 t 0;#P newex 71 119 27 196617 del;#P newex 50 182 114 196617 s $1/vol;#B color 11;#P newex 50 73 61 196617 unpack 0. 0;#P newex 50 50 124 196617 r $1/wave;#B color 11;#P connect 0 0 1 0;#P connect 1 0 5 0;#P connect 4 0 5 0;#P connect 5 0 2 0;#P connect 6 0 3 0;#P connect 3 0 4 0;#P connect 1 1 6 0;#P connect 6 0 5 1;#P pop;#P newobj 35 525 52 1310729 p vol-wave;#B color 5;#N vpatcher 22 303 272 550;#P origin 0 -9;#P window setfont "Sans Serif" 9.;#P number 105 75 49 9 0 0 0 3 0 0 0 221 221 221 222 222 222 0 0 0;#P newex 56 48 162 196617 r $1/freqglissgrain;#B color 11;#P message 17 189 204 196617 \; $1/freqgliss 100 \, 1000 6000;#P newex 17 162 158 196617 s $1/freq;#B color 11;#P number 105 119 35 9 0 0 0 3 0 0 0 221 221 221 222 222 222 0 0 0;#P newex 17 141 98 196617 pack 0. 0;#P flonum 17 119 56 9 0 0 0 3 0 0 0 221 221 221 222 222 222 0 0 0;#P newex 17 97 98 196617 linefog 0 100 1000;#B color 6;#P newex 17 21 139 196617 r $1/freqgliss;#B color 11;#P connect 0 0 1 0;#P connect 1 0 2 0;#P connect 2 0 3 0;#P connect 3 0 5 0;#P fasten 7 0 8 0 61 70 110 70;#P connect 8 0 1 2;#P connect 1 2 4 0;#P connect 4 0 3 1;#P pop;#P newobj 35 640 69 1310729 p mod-freqgliss;#B color 5;#P window linecount 2;#P message 466 577 110 1310729 \; $1/freqrand 0;#P message 270 577 162 1310729 \; $1/freqrand 1 50 270 4000 6000 50 100;#P toggle 18 581 15 0;#P window linecount 1;#P newex 35 581 195 1310729 proc-randtransf $1/freqrand $1/freq 2;#B color 6;#P newex 9 260 132 1310729 t_modx~ $1;#B color 6;#P window linecount 2;#P message 466 473 109 1310729 \; $1/volrand 0;#P message 270 472 171 1310729 \; $1/volrand 1 0.8 1. 3000 5000 50 100 1 4;#P toggle 18 478 15 0;#P window linecount 1;#P newex 35 477 198 1310729 proc-randtransf0 $1/volrand $1/vol 2;#B color 6;#P window linecount 2;#P message 466 548 104 1310729 \; $1/fbrand 0;#P message 270 548 157 1310729 \; $1/fbrand 1 0.1 0.5 3000 5000 50 100;#P toggle 18 554 15 0;#P window linecount 1;#P newex 35 553 183 1310729 proc-randtransf $1/fbrand $1/fb 2;#B color 6;#P window linecount 2;#P message 466 502 115 1310729 \; $1/waverand 0;#P message 270 502 163 1310729 \; $1/waverand 1 0.8 1. 6000 10000 50 75;#P toggle 18 505 15 0;#P window linecount 1;#P newex 35 505 205 1310729 proc-randtransf $1/waverand $1/wave 2;#B color 6;#P window linecount 2;#P message 466 442 107 1310729 \; $1/delrand 0;#P message 270 442 169 1310729 \; $1/delrand 1 1154 2308 4000 8000 25 50;#P toggle 18 445 15 0;#P window linecount 1;#P newex 35 445 186 1310729 proc-randtrans $1/delrand $1/del 2;#B color 6;#P newex 220 408 70 1310729 s $1/fb;#B color 11;#P newex 134 408 75 1310729 s $1/vol;#B color 11;#P newex 220 387 79 1310729 r mods/fb;#B color 11;#P newex 134 387 84 1310729 r mods/vol;#B color 11;#P window setfont "Sans Serif" 9.;#P window linecount 2;#P comment 179 225 107 196617 patch by Tom Mays contact@tommays.net;#P comment 66 339 131 196617 arg 1 : module prefix name \; arg 2 : max del time;#P window setfont Times 9.;#P window linecount 1;#N out~ 1;#P newobj 9 348 33 1310729 out~ 1;#N in~ 1;#P newobj 9 16 29 1310729 in~ 1;#P newex 545 196 65 1310729 s $1/init;#B color 11;#P newex 545 173 48 1310729 r tape/init;#B color 11;#P newex 9 36 40 1310729 t_dither;#P window setfont "Sans Serif" 9.;#P newex 9 63 101 196617 t_feedback~ $1;#B color 6;#P window linecount 13;#P message 465 220 152 196617 \; $1/sw/init bang \; $1/delrand 0 \; $1/volrand 0 \; $1/waverand 0 \; $1/fbrand 0 \; $1/freqrand 0 \; $1/freqglissrand 0 \; $1/del/init bang \; $1/fb/init bang \; $1/vol/init bang \; $1/delclear bang \; module_register $1 \;;#P window linecount 1;#P newex 465 179 74 196617 r $1/init;#B color 11;#P newex 9 123 101 196617 t_del~ $1 $2;#B color 6;#P window linecount 2;#P comment 80 394 50 196617 param groupings;#P connect 8 0 5 0;#P connect 5 0 4 0;#P connect 4 0 1 0;#P connect 1 0 32 0;#P connect 32 0 45 0;#P connect 45 0 9 0;#P hidden connect 16 0 17 0;#P hidden connect 28 0 29 0;#P hidden connect 20 0 21 0;#P hidden connect 24 0 25 0;#P hidden connect 33 0 34 0;#P hidden connect 39 0 40 0;#P connect 44 0 45 1;#P connect 46 0 45 1;#P fasten 1 0 4 1 14 151 444 151 444 18 59 18;#P connect 45 1 46 0;#P connect 49 0 32 1;#P connect 47 0 4 2;#P connect 48 0 1 1;#P connect 50 0 32 2;#P connect 12 0 14 0;#P connect 13 0 15 0;#P fasten 59 0 58 0 470 217 443 217;#P connect 2 0 59 0;#P connect 59 0 3 0;#P connect 55 0 52 0;#P connect 52 0 54 0;#P connect 54 0 51 0;#P connect 51 0 53 0;#P connect 6 0 7 0;#P connect 56 0 57 0;#P pop;