max v2;#N vpatcher 295 247 884 583;#P window setfont "Sans Serif" 9.;#P window linecount 1;#P newex 24 204 210 196617 freqshift~;#B color 5;#P newex 24 256 125 196617 t_xfade2~;#B color 6;#P window linecount 2;#P comment 232 222 46 196617 lower sideband;#P window linecount 1;#P comment 32 221 79 196617 upper sideband;#P window linecount 3;#P comment 93 58 105 196617 [-1 (lower SB) \, 0 (both) \, 1 (upper SB)] [time (opt.)];#P number 418 92 54 9 0 0 0 3 0 0 0 221 221 221 222 222 222 0 0 0;#P window linecount 1;#P newex 418 28 50 196617 loadbang;#P message 418 49 55 196617 $1;#P newex 418 69 95 196617 clip 0 2147483647;#P window linecount 2;#P comment 472 94 89 196617 default freq time variable;#P window linecount 1;#P newex 224 122 55 196617 pack 0. 20;#P newex 224 58 100 196617 route int float list;#N comlet [reference frequency in hz. <float>]] [time (opt.)];#P inlet 224 28 15 0;#P newex 78 138 55 196617 pack 0. 20;#P newex 78 98 100 196617 route int float list;#N comlet [-1 (lower SB) \, 0 (both) \, 1 (upper SB)] [time (opt.)];#P inlet 78 70 15 0;#P comment 40 28 45 196617 signal in;#N comlet (signal) Input Signal);#P inlet 24 28 15 0;#P window linecount 2;#P comment 239 28 172 196617 [reference frequency in hz. <float>]] [time (opt.)];#P window linecount 1;#P newex 224 156 42 196617 line~ 0.;#P comment 39 286 133 196617 frequency shifted signal out;#N comlet (signal) Output Signal;#P outlet 24 285 15 0;#P window linecount 3;#P comment 331 199 166 196617 arg 1 : default time variable when incoming is int or float and not list (if list \, uses 2nd element as time);#P connect 5 0 22 0;#P connect 22 0 21 0;#P connect 21 0 1 0;#P connect 7 0 8 0;#P connect 8 1 9 0;#P connect 8 0 9 0;#P fasten 22 1 21 1 229 238 86 238;#P connect 9 0 21 2;#P connect 8 2 21 2;#P connect 10 0 11 0;#P connect 11 0 12 0;#P connect 11 1 12 0;#P connect 12 0 3 0;#P fasten 11 2 3 0 289 148 229 148;#P connect 3 0 22 1;#P connect 17 0 12 1;#P connect 16 0 15 0;#P connect 15 0 14 0;#P connect 14 0 17 0;#P pop;