max v2;#N vpatcher 214 243 862 800;#P window setfont "Sans Serif" 9.;#P window linecount 1;#P comment 232 180 277 196617 no longer need to send to module_register. happens in build.;#P newex 36 250 36 196617 pass~;#P newex 90 250 36 196617 pass~;#P newex 144 250 36 196617 pass~;#N in~ 1;#P newobj 141 103 33 196617 in~ 1;#P newex 232 74 127 196617 moduleinit $1;#B color 13;#P newex 36 25 416 196617 makeswitch $1/sw $1 tape_switchstate;#B color 13;#P newex 57 68 31 196617 == 0;#P newex 57 107 50 196617 thispoly~;#B color 5;#P toggle 36 45 15 0;#P message 57 88 45 196617 mute \$1;#P window linecount 5;#P message 232 98 249 196617 \; $1/sw/init bang \; $1/freq/init bang \; $1/midinote/init bang \; control_register/store $1 \;;#P flonum 91 311 65 9 0 0 0 3 0 0 0 221 221 221 222 222 222 0 0 0;#P window linecount 1;#P newex 218 334 27 196617 / 2.;#P flonum 218 313 65 9 0 0 0 3 0 0 0 221 221 221 222 222 222 0 0 0;#P newex 204 290 53 196617 dspstate~;#P newex 19 330 82 196617 split 28. 22050.;#P newex 19 305 27 196617 gate;#P comment 312 412 53 196617 midinote;#P newex 300 425 301 196617 makecontrol $1/midinote $1 f 20 200 /tape;#B color 11;#P flonum 300 390 71 9 0 0 32 3 0 0 0 221 221 221 222 222 222 0 0 0;#P newex 300 368 41 196617 ftom 0.;#P newex 36 182 115 196617 gate~;#P toggle 36 157 15 0;#P comment 31 412 53 196617 frequency;#P newex 19 425 276 196617 makecontrol $1/freq $1 f 0 100 /tape;#B color 11;#P flonum 19 390 71 9 0 0 32 3 0 0 0 221 221 221 222 222 222 0 0 0;#P newex 36 210 119 196617 fft~ $2 $2 0;#P newex 36 282 119 196617 centroid~ $2;#P window linecount 2;#P comment 19 488 361 196617 arg 1 : unit name prefix \; arg 2 : analysis window size and period \, centroid analysis size (usually 512) \;;#P fasten 6 0 12 0 41 180 24 180;#P connect 12 0 13 0;#P connect 13 0 3 0;#P connect 3 0 4 0;#P connect 23 0 20 0;#P connect 20 0 6 0;#P connect 6 0 7 0;#P connect 7 0 2 0;#P connect 2 0 28 0;#P connect 28 0 1 0;#P connect 1 0 12 1;#P connect 20 0 22 0;#P connect 22 0 19 0;#P connect 19 0 21 0;#P connect 2 1 27 0;#P connect 27 0 1 1;#P fasten 16 0 17 0 223 356 186 356 186 306 96 306;#P connect 17 0 13 2;#P connect 25 0 7 1;#P connect 2 2 26 0;#P connect 26 0 1 2;#P connect 14 1 15 0;#P connect 15 0 16 0;#P connect 24 0 18 0;#P fasten 13 0 8 0 24 361 305 361;#P connect 8 0 9 0;#P connect 9 0 10 0;#P pop;