max v2;#N vpatcher 243 65 1084 424;#P window setfont "Sans Serif" 9.;#P window linecount 2;#P comment 652 238 107 196617 patch by Tom Mays contact@tommays.net;#P window setfont Times 24.;#P window linecount 1;#P comment 632 144 127 1310744 mspat441ctl;#P window setfont Times 9.;#N vpatcher 577 60 1019 278;#P window setfont Times 9.;#P newex 347 62 27 1310729 t b f;#P inlet 347 43 15 0;#P outlet 82 162 15 0;#P inlet 82 43 15 0;#P newex 82 130 45 1310729 * 1.;#P outlet 32 162 15 0;#P inlet 32 43 15 0;#P newex 32 130 45 1310729 * 1.;#P connect 7 0 0 0;#P connect 1 0 0 0;#P connect 0 0 2 0;#P connect 7 1 0 1;#P connect 7 0 3 0;#P connect 4 0 3 0;#P connect 3 0 5 0;#P connect 7 1 3 1;#P connect 6 0 7 0;#P pop;#P newobj 396 81 62 1310729 p vol2;#B color 6;#N comlet rev;#P outlet 556 309 15 0;#P window setfont "Sans Serif" 9.;#P comment 572 285 24 196617 rev;#P window setfont Times 9.;#P flonum 556 271 50 9 0 0 0 20 0 0 0 221 221 221 222 222 222 0 0 0;#N comlet C;#P outlet 496 309 15 0;#N comlet BR2;#P outlet 436 309 15 0;#N comlet BL2;#P outlet 376 309 15 0;#N comlet FR2;#P outlet 316 309 15 0;#N comlet FL2;#P outlet 256 309 15 0;#N comlet BR;#P outlet 196 309 15 0;#N comlet BL;#P outlet 136 309 15 0;#N comlet FR;#P outlet 76 309 15 0;#P window setfont "Sans Serif" 9.;#P comment 589 193 213 196617 arg 1 : azimuth ofset in degrees (default = 0);#P window setfont Times 9.;#P comment 572 17 85 1310729 output vol (0. to 1.);#N comlet output vol (0. to 1.);#P inlet 556 17 15 0;#P flonum 556 36 38 9 0. 0 1 20 0 0 0 221 221 221 222 222 222 0 0 0;#N vpatcher 1 286 737 556;#P outlet 482 187 15 0;#P inlet 482 43 15 0;#P window setfont Times 9.;#P window linecount 1;#P newex 482 155 45 1310729 * 0.;#P outlet 432 187 15 0;#P inlet 432 43 15 0;#P newex 432 155 45 1310729 * 0.;#P outlet 382 187 15 0;#P inlet 382 43 15 0;#P newex 382 155 45 1310729 * 0.;#P outlet 332 187 15 0;#P inlet 332 43 15 0;#P newex 332 155 45 1310729 * 0.;#P outlet 282 187 15 0;#P inlet 282 43 15 0;#P newex 282 155 45 1310729 * 0.;#P outlet 232 187 15 0;#P inlet 232 43 15 0;#P newex 232 155 45 1310729 * 0.;#P window linecount 0;#P newex 517 56 27 1310729 t b f;#N comlet ctl;#P inlet 517 31 15 0;#P outlet 182 187 15 0;#P inlet 182 43 15 0;#P newex 182 155 45 1310729 * 0.;#P outlet 132 187 15 0;#P inlet 132 43 15 0;#P newex 132 155 45 1310729 * 0.;#P outlet 82 187 15 0;#P inlet 82 43 15 0;#P newex 82 155 45 1310729 * 0.;#P outlet 32 187 15 0;#P inlet 32 43 15 0;#P newex 32 155 45 1310729 * 0.;#P connect 13 0 0 0;#P connect 1 0 0 0;#P connect 0 0 2 0;#P connect 13 1 0 1;#P connect 13 0 3 0;#P connect 4 0 3 0;#P connect 3 0 5 0;#P connect 13 1 3 1;#P connect 13 0 6 0;#P connect 7 0 6 0;#P connect 6 0 8 0;#P connect 13 1 6 1;#P connect 13 0 9 0;#P connect 10 0 9 0;#P connect 9 0 11 0;#P connect 13 1 9 1;#P connect 13 0 14 0;#P connect 15 0 14 0;#P connect 14 0 16 0;#P connect 13 1 14 1;#P connect 13 0 17 0;#P connect 18 0 17 0;#P connect 17 0 19 0;#P connect 13 1 17 1;#P connect 13 0 20 0;#P connect 21 0 20 0;#P connect 20 0 22 0;#P connect 13 1 20 1;#P connect 13 0 23 0;#P connect 24 0 23 0;#P connect 23 0 25 0;#P connect 13 1 23 1;#P connect 13 0 26 0;#P connect 27 0 26 0;#P connect 26 0 28 0;#P connect 13 1 26 1;#P connect 30 0 29 0;#P connect 13 0 29 0;#P connect 29 0 31 0;#P connect 12 0 13 0;#P connect 13 1 29 1;#P pop;#P newobj 16 245 550 1310729 p level;#B color 6;#P comment 508 17 43 1310729 presence;#N comlet presence;#P inlet 492 17 15 0;#P flonum 492 36 35 9 0. 1. 3 20 0 0 0 221 221 221 222 222 222 0 0 0;#P newex 492 57 51 1310729 t_presence;#B color 6;#N comlet FL;#P outlet 16 309 15 0;#P window setfont "Sans Serif" 9.;#P comment 512 285 14 196617 C;#P window setfont Times 9.;#P flonum 496 271 50 9 0 0 0 20 0 0 0 221 221 221 222 222 222 0 0 0;#P flonum 294 157 50 9 0 0 0 20 0 0 0 221 221 221 222 222 222 0 0 0;#P flonum 396 157 50 9 0 0 0 20 0 0 0 221 221 221 222 222 222 0 0 0;#N vpatcher 577 60 1019 278;#P window setfont Times 9.;#P newex 347 62 27 1310729 t b f;#P inlet 347 43 15 0;#P outlet 82 162 15 0;#P inlet 82 43 15 0;#P newex 82 130 45 1310729 * 1.;#P outlet 32 162 15 0;#P inlet 32 43 15 0;#P newex 32 130 45 1310729 * 1.;#P connect 7 0 0 0;#P connect 1 0 0 0;#P connect 0 0 2 0;#P connect 7 1 0 1;#P connect 4 0 3 0;#P connect 7 0 3 0;#P connect 3 0 5 0;#P connect 7 1 3 1;#P connect 6 0 7 0;#P pop;#P newobj 294 137 112 1310729 p vol2;#B color 6;#P flonum 396 102 50 9 0 0 0 20 0 0 0 221 221 221 222 222 222 0 0 0;#P comment 412 17 67 1310729 center (0. to 1.);#N comlet center;#P inlet 396 17 15 0;#P flonum 396 36 35 9 0. 1. 3 20 0 0 0 221 221 221 222 222 222 0 0 0;#P newex 396 59 40 1310729 t_xto2c;#B color 6;#N vpatcher 41 54 483 272;#P window setfont Times 9.;#P newex 347 62 27 1310729 t b f;#P inlet 347 43 15 0;#P outlet 182 162 15 0;#P inlet 182 43 15 0;#P newex 182 130 45 1310729 * 0.;#P outlet 132 162 15 0;#P inlet 132 43 15 0;#P newex 132 130 45 1310729 * 0.;#P outlet 82 162 15 0;#P inlet 82 43 15 0;#P newex 82 130 45 1310729 * 0.;#P outlet 32 162 15 0;#P inlet 32 43 15 0;#P newex 32 130 45 1310729 * 0.;#P connect 13 0 0 0;#P connect 1 0 0 0;#P connect 0 0 2 0;#P connect 13 1 0 1;#P connect 13 0 3 0;#P connect 4 0 3 0;#P connect 3 0 5 0;#P connect 13 1 3 1;#P connect 13 0 6 0;#P connect 7 0 6 0;#P connect 6 0 8 0;#P connect 13 1 6 1;#P connect 13 0 9 0;#P connect 10 0 9 0;#P connect 9 0 11 0;#P connect 13 1 9 1;#P connect 12 0 13 0;#P pop;#P newobj 232 219 174 1310729 p vol (def-0);#B color 6;#N vpatcher 41 54 484 334;#P window setfont Times 9.;#P newex 347 62 27 1310729 t b f;#P inlet 347 43 15 0;#P outlet 182 209 15 0;#P inlet 182 43 15 0;#P newex 182 177 45 1310729 * 1.;#P outlet 132 209 15 0;#P inlet 132 43 15 0;#P newex 132 177 45 1310729 * 1.;#P outlet 82 209 15 0;#P inlet 82 43 15 0;#P newex 82 177 45 1310729 * 1.;#P outlet 32 209 15 0;#P inlet 32 43 15 0;#P newex 32 177 45 1310729 * 1.;#P connect 13 0 0 0;#P connect 1 0 0 0;#P connect 0 0 2 0;#P connect 13 1 0 1;#P connect 13 0 3 0;#P connect 4 0 3 0;#P connect 3 0 5 0;#P connect 13 1 3 1;#P connect 13 0 6 0;#P connect 7 0 6 0;#P connect 6 0 8 0;#P connect 13 1 6 1;#P connect 10 0 9 0;#P connect 13 0 9 0;#P connect 9 0 11 0;#P connect 13 1 9 1;#P connect 12 0 13 0;#P pop;#P newobj 16 219 174 1310729 p vol (def-1);#B color 6;#P comment 310 17 67 1310729 height (0. to 1.);#N comlet height;#P inlet 294 17 15 0;#P flonum 294 36 35 9 0. 1. 3 20 0 0 0 221 221 221 222 222 222 0 0 0;#P newex 294 112 61 1310729 t_xto2c;#B color 6;#P window setfont "Sans Serif" 9.;#P comment 452 285 26 196617 BR2;#P comment 391 285 25 196617 BL2;#P comment 330 285 25 196617 FR2;#P comment 269 285 24 196617 FL2;#P comment 212 285 18 196617 BR;#P comment 151 285 18 196617 BL;#P comment 90 285 18 196617 FR;#P comment 29 285 18 196617 FL;#P window setfont Times 9.;#P flonum 316 271 50 9 0 0 0 20 0 0 0 221 221 221 222 222 222 0 0 0;#P flonum 256 271 50 9 0 0 0 20 0 0 0 221 221 221 222 222 222 0 0 0;#P flonum 376 271 50 9 0 0 0 20 0 0 0 221 221 221 222 222 222 0 0 0;#P flonum 436 271 50 9 0 0 0 20 0 0 0 221 221 221 222 222 222 0 0 0;#P comment 31 17 16 1310729 az;#N comlet az;#P inlet 16 17 15 0;#P comment 157 17 22 1310729 dist;#N comlet dist;#P inlet 141 17 15 0;#P flonum 76 271 50 9 0 0 0 20 0 0 0 221 221 221 222 222 222 0 0 0;#P flonum 16 271 50 9 0 0 0 20 0 0 0 221 221 221 222 222 222 0 0 0;#P flonum 16 36 35 9 0 0 0 20 0 0 0 221 221 221 222 222 222 0 0 0;#P flonum 141 36 35 9 0 0 0 20 0 0 0 221 221 221 222 222 222 0 0 0;#P newex 16 60 135 1310729 t_azdisttoxy $1;#B color 6;#P newex 16 83 135 1310729 t_xyto4c;#B color 6;#P flonum 136 271 50 9 0 0 0 20 0 0 0 221 221 221 222 222 222 0 0 0;#P flonum 196 271 50 9 0 0 0 20 0 0 0 221 221 221 222 222 222 0 0 0;#P connect 10 0 5 0;#P connect 5 0 3 0;#P connect 3 0 2 0;#P connect 2 0 28 0;#P connect 28 0 45 0;#P connect 45 0 6 0;#P connect 6 0 40 0;#P connect 2 1 28 1;#P connect 28 1 45 1;#P connect 45 1 7 0;#P connect 7 0 50 0;#P connect 2 2 28 2;#P connect 28 2 45 2;#P connect 45 2 1 0;#P connect 1 0 51 0;#P connect 2 3 28 3;#P connect 8 0 4 0;#P connect 4 0 3 1;#P connect 3 1 2 1;#P connect 28 3 45 3;#P connect 37 0 28 4;#P connect 45 3 0 0;#P connect 0 0 52 0;#P connect 2 0 29 0;#P connect 29 0 45 4;#P connect 45 4 14 0;#P connect 14 0 53 0;#P connect 2 1 29 1;#P connect 29 1 45 5;#P connect 26 0 25 0;#P connect 25 0 24 0;#P connect 24 0 35 0;#P connect 35 0 37 0;#P connect 2 2 29 2;#P connect 45 5 15 0;#P connect 15 0 54 0;#P connect 29 2 45 6;#P connect 24 1 35 1;#P connect 2 3 29 3;#P connect 45 6 13 0;#P connect 13 0 55 0;#P connect 29 3 45 7;#P connect 32 0 31 0;#P connect 31 0 30 0;#P connect 30 0 61 0;#P connect 61 0 34 0;#P connect 34 0 35 2;#P connect 35 1 36 0;#P connect 36 0 29 4;#P connect 30 1 61 1;#P connect 45 7 12 0;#P connect 12 0 56 0;#P fasten 41 0 61 2 497 77 453 77;#P connect 61 1 45 8;#P connect 43 0 42 0;#P connect 42 0 41 0;#P connect 45 8 38 0;#P connect 38 0 57 0;#P fasten 41 1 45 9 538 92 507 92;#P connect 47 0 46 0;#P connect 46 0 45 10;#P connect 45 9 58 0;#P connect 58 0 60 0;#P pop;