max v2;#N vpatcher 29 234 929 793;#P window setfont "Sans Serif" 12.;#P window linecount 1;#P newex 358 38 221 196620 t_posxytoazdist $1/R;#B color 6;#P window setfont "Sans Serif" 9.;#P newex 21 36 276 196617 makeparam $1/R/crcfrq $1 f 0 0 0 2;#B color 13;#P newex 550 105 294 196617 makeparam $1/R/grain $1 i $2 5 500;#B color 13;#P newex 206 86 316 196617 makeparam $1/R/out $1 f -127 -127 18 1 $2;#B color 13;#P window setfont Times 9.;#P newex 206 107 95 1310729 expr pow(10\\\,($f1/20));#P window setfont "Sans Serif" 9.;#P newex 169 130 298 196617 makeparam $1/R/pres $1 f 1 0 1 1 $2;#B color 13;#P newex 132 152 307 196617 makeparam $1/R/center $1 f 0 0 1 1 $2;#B color 13;#P newex 95 176 305 196617 makeparam $1/R/height $1 f 0 0 1 1 $2;#B color 13;#P newex 58 200 310 196617 makeparam $1/R/dist $1 f 1.42 -1.42 1.42 1 $2;#B color 13;#P newex 21 223 287 196617 makeparam $1/R/az $1 f -45 0 0 1 $2;#B color 13;#P window linecount 2;#P comment 522 485 107 196617 patch by Tom Mays contact@tommays.net;#P window setfont Times 9.;#P message 70 410 191 1310729 \; $1/R/azrand 1 0 360 1000 3000 50 100;#P toggle 52 385 15 0;#P window setfont "Sans Serif" 9.;#P window linecount 1;#P newex 70 385 138 196617 t_spat-azrand $1/R;#B color 6;#P window setfont Times 9.;#P window linecount 2;#P message 70 440 97 1310729 \; $1/R/azrand 0;#P window setfont Times 24.;#P window linecount 1;#P comment 524 363 135 1310744 mspat441ctlr;#N comlet transition time in ms;#P outlet 337 335 15 0;#N comlet rev;#P outlet 201 335 15 0;#P window setfont "Sans Serif" 9.;#P comment 201 350 24 196617 rev;#N comlet C;#P outlet 181 335 15 0;#N comlet BR2;#P outlet 161 335 15 0;#N comlet BL2;#P outlet 141 335 15 0;#N comlet FR2;#P outlet 121 335 15 0;#N comlet FL2;#P outlet 101 335 15 0;#N comlet BR;#P outlet 81 335 15 0;#N comlet BL;#P outlet 61 335 15 0;#N comlet FR;#P outlet 41 335 15 0;#N comlet FL;#P outlet 21 335 15 0;#P comment 181 350 14 196617 C;#P comment 161 350 26 196617 BR2;#P comment 140 350 25 196617 BL2;#P comment 119 350 25 196617 FR2;#P comment 98 350 24 196617 FL2;#P comment 81 350 18 196617 BR;#P comment 60 350 18 196617 BL;#P comment 39 350 18 196617 FR;#P comment 18 350 18 196617 FL;#P window setfont Times 9.;#P flonum 132 245 35 9 0 0 0 20 0 0 0 221 221 221 222 222 222 0 0 0;#P flonum 95 245 35 9 0 0 0 20 0 0 0 221 221 221 222 222 222 0 0 0;#P flonum 206 245 35 9 0 0 0 20 0 0 0 221 221 221 222 222 222 0 0 0;#P newex 591 128 23 1310729 t 50;#P newex 591 149 127 1310729 s $1/R/grain;#B color 11;#P newex 550 126 32 1310729 sel 0;#P number 337 317 38 9 0 0 0 20 0 0 0 221 221 221 222 222 222 0 0 0;#P window linecount 2;#P comment 356 333 45 1310729 transition time in ms;#P flonum 58 245 35 9 0 0 0 20 0 0 0 221 221 221 222 222 222 0 0 0;#P flonum 21 245 35 9 0 0 0 20 0 0 0 221 221 221 222 222 222 0 0 0;#P flonum 169 245 35 9 0 0 0 20 0 0 0 221 221 221 222 222 222 0 0 0;#P number 550 149 30 9 0 0 0 20 0 0 0 221 221 221 222 222 222 0 0 0;#P window linecount 1;#P newex 21 301 195 1310729 t_mspat441ctl 0 $3;#B color 5;#P window setfont Times 12.;#P newex 21 61 183 1310732 poly~ t_spatrot_ 1 args $1/R;#B color 5;#P window setfont Times 9.;#P window linecount 10;#P message 511 236 139 1310729 \; $1/R/az/init bang \; $1/R/dist/init bang \; $1/R/crcfrq/init bang \; $1/R/height/init bang \; $1/R/center/init bang \; $1/R/pres/init bang \; $1/R/out/init bang \; $1/R/grain/init bang \; $1/R/azrand 0 \;;#P window linecount 1;#P newex 511 205 136 1310729 r $1/R/spat/init;#B color 11;#P window linecount 3;#P comment 444 413 287 1310729 arg 1 : module name (ie. pan1) \; arg 2 : min grain time (ex. 50) \; arg 3 : azimuth offset in degrees (default = 0 \, which places 0 deg in front) \;;#P window setfont "Sans Serif" 9.;#P window linecount 1;#P comment 444 460 248 196617 mpan4 ctl with receives \, to connect to local matrix~;#P window setfont Times 9.;#P comment 302 108 63 1310729 dB output level;#P connect 54 0 5 0;#P connect 5 0 46 0;#P connect 46 0 9 0;#P connect 9 0 6 0;#P connect 6 0 28 0;#P connect 6 1 29 0;#P connect 42 0 43 0;#P connect 47 0 10 0;#P connect 10 0 6 1;#P connect 6 2 30 0;#P connect 6 3 31 0;#P connect 48 0 17 0;#P connect 17 0 6 2;#P connect 6 4 32 0;#P connect 6 5 33 0;#P connect 49 0 18 0;#P connect 18 0 6 3;#P connect 6 6 34 0;#P connect 6 7 35 0;#P connect 50 0 8 0;#P connect 8 0 6 4;#P connect 6 8 36 0;#P connect 6 9 38 0;#P connect 52 0 51 0;#P connect 51 0 16 0;#P connect 16 0 6 5;#P connect 7 0 46 1;#P lcolor 1;#P connect 46 1 12 0;#P connect 52 1 12 0;#P connect 50 1 12 0;#P connect 49 1 12 0;#P connect 48 1 12 0;#P connect 47 1 12 0;#P connect 12 0 39 0;#P connect 7 0 47 1;#P lcolor 1;#P connect 7 0 48 1;#P lcolor 1;#P connect 7 0 49 1;#P lcolor 1;#P connect 7 0 50 1;#P lcolor 1;#P connect 3 0 4 0;#P connect 7 0 52 1;#P lcolor 1;#P connect 53 0 13 0;#P connect 13 1 7 0;#P connect 13 0 15 0;#P connect 15 0 14 0;#P pop;