max v2;#N vpatcher 402 439 1250 773;#P window setfont Times 9.;#P comment 122 17 13 1310729 c;#B frgb 0 0 200;#P comment 110 17 13 1310729 h;#B frgb 0 0 200;#P comment 209 92 18 1310729 dB;#B frgb 0 0 200;#P window setfont Times 20.;#P comment 3 2 43 1310740 spat;#B frgb 0 0 200;#P window setfont "Sans Serif" 9.;#P comment 171 145 88 196617 bpat = 258 X 126;#P window setfont Times 9.;#P newex 638 185 51 1310729 prepend set;#P newex 655 54 75 1310729 r $1/azc;#B color 11;#P newex 683 78 81 1310729 r $1/dist;#B color 11;#P newex 638 34 75 1310729 r $1/az;#B color 11;#P newex 638 165 100 1310729 pack;#P flonum 683 119 35 9 0 0 0 20 0 0 0 221 221 221 222 222 222 0 0 0;#P flonum 638 119 35 9 0 0 0 20 0 0 0 221 221 221 222 222 222 0 0 0;#N vpatcher 493 44 768 341;#P window setfont Times 9.;#P newex 96 47 27 1310729 t b f;#P number 113 222 35 9 0 0 0 20 0 0 0 221 221 221 222 222 222 0 0 0;#P number 19 222 35 9 0 0 0 20 0 0 0 221 221 221 222 222 222 0 0 0;#P comment 129 240 32 1310729 y (int);#N comlet y (int);#P outlet 113 240 15 0;#P comment 35 240 32 1310729 x (int);#N comlet x (int);#P outlet 19 240 15 0;#P newex 113 198 16 1310729 t i;#P newex 19 197 16 1310729 t i;#N comlet [distance float];#P inlet 96 16 15 0;#P comment 111 16 62 1310729 [distance float];#P window setfont "Fixedwidth Serif" 9.;#P newex 113 102 32 1441801 + 90.;#P window setfont Times 9.;#P newex 19 79 104 1310729 fswap 0.;#P window setfont "Sans Serif" 9.;#P newex 19 148 104 196617 poltocar;#B color 5;#P window setfont "Fixedwidth Serif" 9.;#P newex 113 125 128 1441801 expr ($f1/180)*3.1415927;#P window setfont Times 9.;#P newex 113 173 28 1310729 * 50.;#P newex 19 173 28 1310729 * 50.;#N comlet [az degrees float];#P inlet 19 16 15 0;#P comment 34 16 62 1310729 [degrees float];#P connect 1 0 6 0;#P connect 18 0 6 0;#P connect 6 0 5 0;#P connect 5 0 2 0;#P connect 2 0 10 0;#P connect 10 0 16 0;#P connect 16 0 12 0;#P connect 9 0 18 0;#P connect 18 1 6 1;#P connect 6 1 7 0;#P connect 7 0 4 0;#P connect 4 0 5 1;#P connect 5 1 3 0;#P connect 3 0 11 0;#P connect 11 0 17 0;#P connect 17 0 14 0;#P pop;#P newobj 638 142 100 1310729 p convert_poltocar;#B color 6;#P comment 730 56 78 1310729 from crcfrq module;#P newex 638 221 86 1310729 pvar azdistslider 2;#B color 14;#N vpatcher 345 168 607 528;#P window setfont Times 9.;#P flonum 16 285 43 9 0 0 0 20 0 0 0 221 221 221 222 222 222 0 0 0;#P window setfont "Sans Serif" 9.;#P newex 16 106 32 196617 * -1.;#P window setfont Times 9.;#P newex 16 161 45 1310729 fswap 0.;#P window setfont "Sans Serif" 9.;#P flonum 127 130 68 9 0 0 0 3 0 0 0 221 221 221 222 222 222 0 0 0;#P newex 127 85 32 196617 / 50.;#P flonum 16 130 68 9 0 0 0 3 0 0 0 221 221 221 222 222 222 0 0 0;#P newex 16 85 32 196617 / 50.;#N comlet dist;#P outlet 142 310 15 0;#P window setfont Times 9.;#P number 127 51 35 9 0 0 0 20 0 0 0 221 221 221 222 222 222 0 0 0;#P number 16 50 35 9 0 0 0 20 0 0 0 221 221 221 222 222 222 0 0 0;#N comlet az;#P outlet 16 312 15 0;#N comlet y (0-200);#P inlet 127 29 15 0;#N comlet x (0-200);#P inlet 16 29 15 0;#P window setfont "Fixedwidth Serif" 9.;#P newex 16 236 118 1441801 expr 180.*$f1/3.141593;#P window setfont Times 9.;#P newex 16 203 45 1310729 fswap 0.;#P flonum 142 290 43 9 0 0 0 20 0 0 0 221 221 221 222 222 222 0 0 0;#P newex 16 182 45 1310729 cartopol;#B color 5;#P connect 4 0 7 0;#P connect 7 0 10 0;#P connect 10 0 15 0;#P connect 15 0 11 0;#P connect 11 0 14 0;#P connect 14 0 0 0;#P connect 0 0 2 0;#P connect 2 0 3 0;#P connect 3 0 16 0;#P connect 16 0 6 0;#P connect 13 0 14 1;#P connect 14 1 0 1;#P connect 0 1 2 1;#P connect 5 0 8 0;#P connect 8 0 12 0;#P connect 12 0 13 0;#P fasten 2 1 1 0 56 227 147 227;#P connect 1 0 9 0;#P pop;#P newobj 638 257 86 1310729 p convert_cartopol;#B color 6;#P newex 714 281 75 1310729 s $1/dist;#B color 11;#P newex 638 281 69 1310729 s $1/az;#B color 11;#P newex 389 94 82 1310729 variedit $1/pres $1;#B color 6;#P newex 321 94 45 1310729 pvar pres;#B color 14;#P newex 389 44 80 1310729 variedit $1/dist $1;#B color 6;#P newex 389 21 74 1310729 variedit $1/az $1;#B color 6;#P newex 321 144 54 1310729 pvar height;#B color 14;#P newex 389 144 91 1310729 variedit $1/height $1;#B color 6;#P newex 469 164 71 1310729 pvar heightlider;#P newex 321 212 52 1310729 pvar center;#B color 14;#P newex 389 212 89 1310729 variedit $1/center $1;#B color 6;#P newex 467 233 73 1310729 pvar centerslider;#P user multiSlider 121 27 12 80 0. 1. 1 2681 47 0 0 2 0 0 0;#M frgb 0 0 0;#M brgb 255 255 255;#M rgb2 127 127 127;#M rgb3 0 0 0;#M rgb4 37 52 91;#M rgb5 74 105 182;#M rgb6 112 158 18;#M rgb7 149 211 110;#M rgb8 187 9 201;#M rgb9 224 62 37;#M rgb10 7 114 128;#P objectname centerslider;#P user multiSlider 109 27 12 80 0. 1. 1 2681 47 0 0 2 0 0 0;#M frgb 0 0 0;#M brgb 255 255 255;#M rgb2 127 127 127;#M rgb3 0 0 0;#M rgb4 37 52 91;#M rgb5 74 105 182;#M rgb6 112 158 18;#M rgb7 149 211 110;#M rgb8 187 9 201;#M rgb9 224 62 37;#M rgb10 7 114 128;#P objectname heightlider;#P comment 182 52 36 1310729 /center;#B frgb 0 0 200;#P flonum 182 63 28 9 0 0 32 20 0 0 0 221 221 221 222 222 222 0 0 0;#P objectname center;#P comment 150 52 38 1310729 /height;#B frgb 0 0 200;#P flonum 151 63 28 9 0 0 32 20 0 0 0 221 221 221 222 222 222 0 0 0;#P objectname height;#P newex 321 70 50 1310729 pvar crcfrq;#B color 14;#P newex 389 70 87 1310729 variedit $1/crcfrq $1;#B color 6;#P comment 200 24 34 1310729 /crcfrq;#B frgb 0 0 200;#P flonum 200 35 28 9 0 0 32 20 0 0 0 221 221 221 222 222 222 0 0 0;#P objectname crcfrq;#P user pictslider 29 27 80 80 0 0 0 0 SliderDefaultKnob.pct 1 SliderDefaultBkgnd.pct 1 2163 0 3342286 -3276750 1. 1.;#P objectname azdistslider;#P newex 321 44 41 1310729 pvar dist;#B color 14;#P newex 321 21 35 1310729 pvar az;#B color 14;#P newex 321 118 39 1310729 pvar out;#B color 14;#P newex 389 118 78 1310729 variedit $1/out $1;#B color 6;#P comment 182 80 23 1310729 /out;#B frgb 0 0 200;#P flonum 182 91 28 9 0 0 32 20 0 0 0 221 221 221 222 222 222 0 0 0;#P objectname out;#P flonum 135 35 35 9 0 0 32 20 0 0 0 221 221 221 222 222 222 0 0 0;#P objectname az;#P comment 151 80 29 1310729 /pres;#B frgb 0 0 200;#P flonum 151 91 28 9 0 0 32 20 0 0 0 221 221 221 222 222 222 0 0 0;#P objectname pres;#P comment 171 24 25 1310729 /dist;#B frgb 0 0 200;#P flonum 171 35 28 9 0 0 32 20 0 0 0 221 221 221 222 222 222 0 0 0;#P objectname dist;#P comment 142 24 19 1310729 /az;#B frgb 0 0 200;#P bpatcher 0 0 256 124 0 0 bkgnd2-.mxt 0 $1 1;#P objectname background;#P window setfont "Sans Serif" 9.;#P comment 636 16 100 196617 az-dist interface;#P connect 31 0 12 0;#P connect 32 0 13 0;#P connect 17 0 18 0;#P connect 34 0 33 0;#P connect 10 0 11 0;#P connect 29 0 30 0;#P connect 26 0 27 0;#P connect 12 0 31 0;#P connect 13 0 32 0;#P connect 18 0 17 0;#P connect 33 0 34 0;#P connect 11 0 10 0;#P fasten 28 0 29 0 474 187 547 187 547 140 394 140;#P connect 30 0 29 0;#P connect 27 0 26 0;#P fasten 25 0 26 0 472 254 547 254 547 208 394 208;#P connect 26 2 25 0;#P connect 29 2 28 0;#P connect 46 0 41 0;#P connect 44 0 41 0;#P connect 41 0 40 0;#P connect 40 0 43 0;#P connect 43 0 47 0;#P connect 47 0 38 0;#P connect 38 0 37 0;#P connect 37 0 35 0;#P connect 45 0 42 0;#P connect 38 1 37 1;#P connect 37 1 36 0;#P connect 42 0 40 1;#P connect 40 1 43 1;#P pop;