max v2;#N vpatcher 358 241 798 712;#P window setfont Times 9.;#P window linecount 1;#P comment 181 22 34 1310729 /invol;#B frgb 0 0 200;#P flonum 211 22 30 9 0. 2. 3 20 0 0 0 221 221 221 222 222 222 0 0 0;#P objectname invol;#P window setfont "Sans Serif" 9.;#P newex 192 312 198 196617 variedit $1/invol $1;#B color 11;#P window setfont Times 9.;#P newex 192 332 50 1310729 pvar invol;#P window setfont "Sans Serif" 9.;#P newex 192 368 193 196617 variedit $1/vol $1;#B color 11;#P window setfont Times 9.;#P newex 192 388 42 1310729 pvar vol;#P comment 188 37 24 1310729 /vol;#B frgb 0 0 200;#P flonum 211 37 30 9 0. 2. 3 20 0 0 0 221 221 221 222 222 222 0 0 0;#P objectname vol;#P flonum 56 22 37 9 0 0 0 20 0 0 0 221 221 221 222 222 222 0 0 0;#P objectname freq;#P window setfont "Sans Serif" 9.;#P newex 192 136 187 196617 variedit $1/sb $1;#B color 11;#P window setfont Times 9.;#P newex 192 156 38 1310729 pvar sb;#P window setfont "Sans Serif" 9.;#P newex 192 85 175 196617 variedit $1/freq $1;#B color 11;#P window setfont Times 9.;#P newex 192 105 43 1310729 pvar freq;#P flonum 56 37 37 9 -1. 1. 3 20 0 0 0 221 221 221 222 222 222 0 0 0;#P objectname sb;#P comment 39 37 20 1310729 /sb;#B frgb 0 0 200;#P comment 34 22 25 1310729 /freq;#B frgb 0 0 200;#P flonum 128 37 32 9 0. 1. 3 20 0 0 0 221 221 221 222 222 222 0 0 0;#P objectname fb;#P number 128 22 37 9 0 0 0 20 0 0 0 221 221 221 222 222 222 0 0 0;#P objectname del;#P comment 112 37 19 1310729 /fb;#B frgb 0 0 200;#P comment 109 22 22 1310729 /del;#B frgb 0 0 200;#P newex 191 227 61 1310729 speedlim 100;#P window setfont "Sans Serif" 9.;#P comment 15 108 117 196617 bpat bkgnd = 256 X 62;#P comment 15 127 119 196617 bpat editor = 258 X 64;#P newex 192 260 186 196617 variedit $1/fb $1;#B color 11;#P window setfont Times 9.;#P newex 192 280 37 1310729 pvar fb;#P window linecount 2;#P comment 81 73 82 1310729 arg 1 : prefix name \; arg 2 : max del time;#P window setfont "Sans Serif" 9.;#P window linecount 1;#P newex 191 187 190 196617 variedit $1/del $1;#B color 11;#P window setfont Times 9.;#P newex 191 207 40 1310729 pvar del;#P window setfont "Sans Serif" 9.;#N thispatcher;#Q end;#P newobj 0 75 61 196617 thispatcher;#P bpatcher 0 0 256 62 0 0 bkgnd.mxt 0 $1 0 1;#P objectname background;#P fasten 9 0 3 0 196 249 187 249 187 182 196 182;#P connect 3 0 2 0;#P connect 2 0 9 0;#P fasten 17 0 18 0 197 126 187 126 187 80 197 80;#P connect 18 0 17 0;#P fasten 19 0 20 0 197 177 187 177 187 131 197 131;#P connect 20 0 19 0;#P fasten 5 0 6 0 197 301 187 301 187 255 197 255;#P connect 6 0 5 0;#P fasten 26 0 27 0 197 353 187 353 187 307 197 307;#P connect 27 0 26 0;#P fasten 24 0 25 0 197 409 187 409 187 363 197 363;#P connect 25 0 24 0;#P pop;