max v2;#N vpatcher 254 44 1044 822;#P origin 22 -151;#P window setfont "Sans Serif" 9.;#P flonum 79 77 35 9 0 0 0 3 0 0 0 221 221 221 222 222 222 0 0 0;#P window linecount 1;#P newex 8 77 65 196617 t_vol~ 2;#P newex 63 53 300 196617 makeparam $1/invol $1 f 1 0. 2. 1 20;#B color 13;#P newex 8 346 135 196617 biquad~ 1. -1. 0. -0.9997 0.;#P newex 57 447 145 196617 t_fxmetersend $1;#B color 4;#P window linecount 2;#P comment 462 466 198 196617 no longer need to send to module_register. happens in build.;#P button 464 261 15 0;#P window linecount 1;#P newex 437 495 133 196617 s $1/spat/init;#B color 11;#P window setfont Times 9.;#P newex 566 185 92 1310729 s $1/init;#B color 11;#P newex 566 162 51 1310729 r /tape/init;#B color 11;#P window setfont "Sans Serif" 9.;#P newex 495 130 261 196617 makeswitch $1/sw $1 tape_switchstate;#B color 13;#P newex 495 173 31 196617 == 0;#P newex 495 212 50 196617 thispoly~;#B color 5;#P toggle 495 154 15 0;#P message 495 193 45 196617 mute \$1;#P newex 130 290 306 196617 makeparam $1/freq $1 f 0 -20000 20000. 2;#B color 13;#P newex 69 256 278 196617 makeparam $1/sb $1 f 0 -1 1 2;#B color 13;#P newex 99 176 329 196617 makeparam $1/del $1 f 0 0 $2 2;#B color 13;#P newex 128 109 292 196617 makeparam $1/fb $1 f 0 0 1. 1;#B color 13;#P flonum 59 403 35 9 0 0 0 3 0 0 0 221 221 221 222 222 222 0 0 0;#P newex 8 403 49 196617 t_vol~ 2;#P newex 47 374 350 196617 makeparam $1/vol $1 f 1 0. 2. 1 20;#B color 13;#P window setfont Times 9.;#P window linecount 2;#P message 598 699 143 1310729 \; $1/freqglissgrain 100;#P message 465 700 129 1310729 \; $1/freqglissrand 0;#P message 269 700 181 1310729 \; $1/freqglissrand 1 50 270 4000 6000 50 100;#P toggle 17 705 15 0;#P window linecount 1;#P newex 34 704 230 1310729 proc-randtrans $1/freqglissrand $1/freqgliss 2;#B color 6;#N vpatcher 30 89 252 336;#P window setfont "Sans Serif" 9.;#P newex 101 94 27 196617 / 2;#P newex 50 161 61 196617 pack 0. 0;#P newex 71 139 21 196617 t 0;#P newex 71 119 27 196617 del;#P newex 50 182 114 196617 s $1/vol;#B color 11;#P newex 50 73 61 196617 unpack 0. 0;#P newex 50 50 124 196617 r $1/wave;#B color 11;#P connect 0 0 1 0;#P connect 1 0 5 0;#P connect 4 0 5 0;#P connect 5 0 2 0;#P connect 6 0 3 0;#P connect 3 0 4 0;#P connect 1 1 6 0;#P connect 6 0 5 1;#P pop;#P newobj 34 609 52 1310729 p vol-wave;#B color 5;#N vpatcher 22 303 272 550;#P origin 0 -9;#P window setfont "Sans Serif" 9.;#P number 105 75 49 9 0 0 0 3 0 0 0 221 221 221 222 222 222 0 0 0;#P newex 56 48 162 196617 r $1/freqglissgrain;#B color 11;#P message 17 189 204 196617 \; $1/freqgliss 100 \, 1000 6000;#P newex 17 162 158 196617 s $1/freq;#B color 11;#P number 105 119 35 9 0 0 0 3 0 0 0 221 221 221 222 222 222 0 0 0;#P newex 17 141 98 196617 pack 0. 0;#P flonum 17 119 56 9 0 0 0 3 0 0 0 221 221 221 222 222 222 0 0 0;#P newex 17 97 98 196617 linefog 0 100 1000;#B color 6;#P newex 17 21 139 196617 r $1/freqgliss;#B color 11;#P connect 0 0 1 0;#P connect 1 0 2 0;#P connect 2 0 3 0;#P connect 3 0 5 0;#P fasten 7 0 8 0 61 70 110 70;#P connect 8 0 1 2;#P connect 1 2 4 0;#P connect 4 0 3 1;#P pop;#P newobj 34 724 69 1310729 p mod-freqgliss;#B color 5;#P window linecount 2;#P message 465 661 110 1310729 \; $1/freqrand 0;#P message 269 661 162 1310729 \; $1/freqrand 1 50 270 4000 6000 50 100;#P toggle 17 665 15 0;#P window linecount 1;#P newex 34 665 195 1310729 proc-randtransf $1/freqrand $1/freq 2;#B color 6;#P newex 8 320 132 1310729 t_fshiftx~ $1;#B color 6;#P window linecount 2;#P message 465 557 109 1310729 \; $1/volrand 0;#P message 269 556 171 1310729 \; $1/volrand 1 0.8 1. 3000 5000 50 100 1 4;#P toggle 17 562 15 0;#P window linecount 1;#P newex 34 561 198 1310729 proc-randtransf0 $1/volrand $1/vol 2;#B color 6;#P window linecount 2;#P message 465 632 104 1310729 \; $1/fbrand 0;#P message 269 632 157 1310729 \; $1/fbrand 1 0.1 0.5 3000 5000 50 100;#P toggle 17 638 15 0;#P window linecount 1;#P newex 34 637 183 1310729 proc-randtransf $1/fbrand $1/fb 2;#B color 6;#P window linecount 2;#P message 465 586 115 1310729 \; $1/waverand 0;#P message 269 586 163 1310729 \; $1/waverand 1 0.8 1. 6000 10000 50 75;#P toggle 17 589 15 0;#P window linecount 1;#P newex 34 589 205 1310729 proc-randtransf $1/waverand $1/wave 2;#B color 6;#P window linecount 2;#P message 465 526 107 1310729 \; $1/delrand 0;#P message 269 526 169 1310729 \; $1/delrand 1 1154 2308 4000 8000 25 50;#P toggle 17 529 15 0;#P window linecount 1;#P newex 34 529 186 1310729 proc-randtrans $1/delrand $1/del 2;#B color 6;#P newex 219 492 70 1310729 s $1/fb;#B color 11;#P newex 133 492 75 1310729 s $1/vol;#B color 11;#P newex 219 471 79 1310729 r mods/fb;#B color 11;#P newex 133 471 84 1310729 r mods/vol;#B color 11;#P window setfont "Sans Serif" 9.;#P window linecount 2;#P comment 178 309 107 196617 patch by Tom Mays contact@tommays.net;#P comment 152 412 131 196617 arg 1 : module prefix name \; arg 2 : max del time;#P window setfont Times 9.;#P window linecount 1;#N out~ 1;#P newobj 8 432 33 1310729 out~ 1;#N in~ 1;#P newobj 8 35 29 1310729 in~ 1;#P newex 8 55 40 1310729 t_dither;#P window setfont "Sans Serif" 9.;#P newex 8 147 130 196617 t_feedback~ $1;#B color 6;#P window linecount 15;#P message 464 282 220 196617 \; $1/sw/init bang \; $1/delrand 0 \; $1/volrand 0 \; $1/waverand 0 \; $1/fbrand 0 \; $1/freqrand 0 \; $1/freqglissrand 0 \; $1/freq/init bang \; $1/sb/init bang \; $1/del/init bang \; $1/fb/init bang \; $1/invol/init bang \; $1/vol/init bang \; $1/delclear bang \;;#P window linecount 1;#P newex 464 241 148 196617 moduleinit $1;#B color 13;#P newex 8 207 101 196617 t_del~ $1 $2;#B color 6;#P window linecount 2;#P comment 79 478 50 196617 param groupings;#P connect 6 0 5 0;#P connect 5 0 62 0;#P connect 62 0 4 0;#P connect 4 0 1 0;#P connect 1 0 30 0;#P connect 30 0 60 0;#P connect 60 0 43 0;#P connect 43 0 7 0;#P hidden connect 14 0 15 0;#P hidden connect 26 0 27 0;#P hidden connect 18 0 19 0;#P hidden connect 22 0 23 0;#P hidden connect 31 0 32 0;#P hidden connect 37 0 38 0;#P connect 44 0 43 1;#P connect 42 0 43 1;#P fasten 43 0 59 0 13 427 62 427;#P connect 43 1 44 0;#P connect 63 0 62 1;#P connect 61 0 62 1;#P fasten 1 0 4 1 13 242 443 242 443 101 73 101;#P connect 47 0 30 1;#P connect 62 1 63 0;#P connect 46 0 1 1;#P connect 45 0 4 2;#P connect 48 0 30 2;#P connect 10 0 12 0;#P connect 11 0 13 0;#P fasten 57 0 56 0 469 279 442 279;#P connect 2 0 57 0;#P connect 57 0 3 0;#P connect 53 0 50 0;#P connect 50 0 52 0;#P connect 52 0 49 0;#P connect 49 0 51 0;#P connect 54 0 55 0;#P pop;