max v2;#N vpatcher 184 44 637 375;#P window setfont "Sans Serif" 9.;#P window linecount 1;#N vpatcher 30 89 385 564;#P window setfont Times 9.;#P window linecount 1;#P comment 126 404 28 1310729 val B;#P comment 82 404 28 1310729 val A;#P newex 71 163 45 1310729 change 0.;#P toggle 71 221 15 0;#P button 143 302 15 0;#P button 99 301 15 0;#P number 171 322 49 9 0 0 0 20 0 0 0 221 221 221 222 222 222 0 0 0;#P newex 71 187 27 1310729 t f b;#P message 71 323 14 1310729 0;#P newex 71 300 27 1310729 t b f;#P message 115 324 14 1310729 1;#P number 71 259 35 9 0 0 0 20 0 0 0 221 221 221 222 222 222 0 0 0;#P newex 71 279 54 1310729 gate 2;#P newex 71 239 27 1310729 + 1;#P newex 115 301 27 1310729 t b f;#P newex 71 345 110 1310729 pack 0. 0;#P message 71 99 37 1310729 \$1 20;#P newex 71 122 110 1310729 unpack 0. 0;#P newex 71 69 75 1310729 route int float list;#P flonum 71 144 58 9 0 0 0 20 0 0 0 221 221 221 222 222 222 0 0 0;#P comment 50 431 58 1310729 list to xfade~;#P window linecount 2;#P comment 139 98 100 1310729 arg 1 : line and speedlim time for ints/floats;#P inlet 71 49 15 0;#P outlet 88 322 15 0;#P outlet 132 323 15 0;#P outlet 71 367 15 0;#P connect 3 0 7 0;#P connect 7 0 9 0;#P connect 7 1 9 0;#P connect 9 0 8 0;#P fasten 7 2 8 0 118 118 76 118;#P connect 8 0 6 0;#P connect 6 0 23 0;#P connect 23 0 18 0;#P connect 18 1 22 0;#P connect 22 0 12 0;#P connect 12 0 14 0;#P connect 14 0 13 0;#P connect 13 0 16 0;#P connect 16 0 17 0;#P connect 17 0 10 0;#P connect 15 0 10 0;#P connect 10 0 0 0;#P connect 16 1 2 0;#P connect 16 1 20 0;#P fasten 18 0 13 1 76 213 120 213;#P connect 13 1 11 0;#P connect 11 0 15 0;#P connect 11 1 1 0;#P connect 11 1 21 0;#P connect 8 1 19 0;#P connect 19 0 10 1;#P pop;#P newobj 164 125 82 196617 p t_paramxprep;#B color 6;#N vpatcher 30 89 521 359;#P window setfont "Sans Serif" 9.;#P window linecount 2;#P comment 247 182 107 196617 patch by Tom Mays contact@tommays.net;#P window linecount 1;#P newex 282 138 125 196617 buffer~ sinwin sinwin.aiff;#B color 15;#P newex 136 105 38 196617 +~ 0.5;#P newex 180 76 39 196617 *~ 0.5;#P newex 180 50 39 196617 line~ 0;#P newex 190 138 70 196617 cycle~ sinwin;#P newex 76 138 70 196617 cycle~ sinwin;#P newex 50 187 124 196617 +~;#P newex 164 164 36 196617 *~;#P newex 50 164 36 196617 *~;#P comment 274 52 100 196617 xfade ctl 0. to 1.;#P inlet 180 30 15 0;#P inlet 164 144 15 0;#P inlet 50 144 15 0;#P outlet 50 209 15 0;#P connect 1 0 5 0;#P connect 5 0 7 0;#P connect 7 0 0 0;#P connect 8 0 5 1;#P fasten 11 0 12 0 185 97 141 97;#P connect 12 0 8 1;#P connect 2 0 6 0;#P connect 6 0 7 1;#P connect 3 0 10 0;#P connect 10 0 11 0;#P connect 9 0 6 1;#P fasten 11 0 9 1 185 97 255 97;#P pop;#P newobj 12 229 162 196617 p t_xfade~;#B color 6;#N vpatcher 37 328 712 710;#P window setfont "Sans Serif" 9.;#P window linecount 1;#N vpatcher 407 44 898 359;#P window setfont "Sans Serif" 9.;#P window linecount 0;#P newex 250 173 38 196617 +~ 0.5;#P newex 180 101 27 196617 + 1.;#P newex 180 123 39 196617 * 0.25;#P newex 180 76 59 196617 unpack 0. 0;#P newex 180 144 59 196617 line~ 0.25;#P newex 76 194 70 196617 cycle~ sinwin;#P newex 190 194 70 196617 cycle~ sinwin;#P window linecount 2;#P comment 196 50 138 196617 [-1 to 1. (-1=B \, 0=A+B \, 1.0=A)] [time in ms];#P window linecount 1;#P newex 311 194 125 196617 buffer~ sinwin sinwin.aiff;#B color 15;#P newex 50 244 124 196617 +~;#P newex 164 221 36 196617 *~;#P newex 50 221 36 196617 *~;#P inlet 180 56 15 0;#P inlet 164 201 15 0;#P inlet 50 201 15 0;#P outlet 50 266 15 0;#P connect 1 0 4 0;#P connect 4 0 6 0;#P connect 6 0 0 0;#P connect 10 0 4 1;#P fasten 11 0 10 1 185 177 141 177;#P connect 2 0 5 0;#P connect 5 0 6 1;#P connect 3 0 12 0;#P connect 12 0 14 0;#P connect 14 0 13 0;#P connect 13 0 11 0;#P connect 9 0 5 1;#P connect 12 1 11 1;#P fasten 11 0 15 0 185 167 255 167;#P connect 15 0 9 1;#P pop;#P newobj 50 278 125 196617 p t_xfade2~;#B color 6;#P newex 50 226 210 196617 freqshift~;#B color 5;#P window linecount 2;#P comment 258 244 46 196617 lower sideband;#P window linecount 1;#P comment 58 243 79 196617 upper sideband;#P window linecount 3;#P comment 119 80 105 196617 [-1 (lower SB) \, 0 (both) \, 1 (upper SB)] [time (opt.)];#P number 444 114 54 9 0 0 0 3 0 0 0 221 221 221 222 222 222 0 0 0;#P window linecount 1;#P newex 444 50 50 196617 loadbang;#P message 444 71 55 196617 0;#P newex 444 91 95 196617 clip 0 2147483647;#P window linecount 2;#P comment 498 116 89 196617 default freq time variable;#P window linecount 1;#P newex 250 144 55 196617 pack 0. 20;#P newex 250 80 100 196617 route int float list;#P newex 104 160 55 196617 pack 0. 20;#P newex 104 120 100 196617 route int float list;#P comment 31 194 45 196617 signal in;#P window linecount 2;#P comment 265 50 172 196617 [reference frequency in hz. <float>]] [time (opt.)];#P window linecount 1;#P newex 250 178 42 196617 line~ 0.;#P comment 183 279 133 196617 frequency shifted signal out;#P window linecount 3;#P comment 357 221 166 196617 arg 1 : default time variable when incoming is int or float and not list (if list \, uses 2nd element as time);#P inlet 250 60 15 0;#P inlet 104 100 15 0;#P inlet 50 206 15 0;#P outlet 50 300 15 0;#P connect 1 0 21 0;#P connect 21 0 22 0;#P connect 22 0 0 0;#P connect 2 0 9 0;#P connect 9 0 10 0;#P connect 9 1 10 0;#P fasten 21 1 22 1 255 260 112 260;#P connect 9 2 22 2;#P connect 10 0 22 2;#P connect 3 0 11 0;#P connect 11 1 12 0;#P connect 11 0 12 0;#P fasten 11 2 6 0 315 170 255 170;#P connect 12 0 6 0;#P connect 6 0 21 1;#P connect 17 0 12 1;#P connect 16 0 15 0;#P connect 15 0 14 0;#P connect 14 0 17 0;#P pop;#P newobj 88 181 59 196617 p t_fshift~;#B color 6;#P number 129 81 35 9 0 0 0 3 0 0 0 221 221 221 222 222 222 0 0 0;#P newex 203 63 27 196617 + 1;#P newex 129 99 45 196617 gate 2 2;#P toggle 251 47 15 0;#P window setfont Times 9.;#P newex 251 27 56 1310729 r $1/bascule;#B color 11;#N comlet side band (-1 <= 0 <= 1];#P inlet 54 27 15 0;#N comlet [freq] [xfade time];#P inlet 164 27 15 0;#P outlet 12 271 15 0;#P inlet 12 27 15 0;#P window setfont "Sans Serif" 9.;#N vpatcher 37 328 712 710;#P window setfont "Sans Serif" 9.;#P window linecount 1;#N vpatcher 407 44 898 359;#P window setfont "Sans Serif" 9.;#P window linecount 0;#P newex 250 173 38 196617 +~ 0.5;#P newex 180 101 27 196617 + 1.;#P newex 180 123 39 196617 * 0.25;#P newex 180 76 59 196617 unpack 0. 0;#P newex 180 144 59 196617 line~ 0.25;#P newex 76 194 70 196617 cycle~ sinwin;#P newex 190 194 70 196617 cycle~ sinwin;#P window linecount 2;#P comment 196 50 138 196617 [-1 to 1. (-1=B \, 0=A+B \, 1.0=A)] [time in ms];#P window linecount 1;#P newex 311 194 125 196617 buffer~ sinwin sinwin.aiff;#B color 15;#P newex 50 244 124 196617 +~;#P newex 164 221 36 196617 *~;#P newex 50 221 36 196617 *~;#P inlet 180 56 15 0;#P inlet 164 201 15 0;#P inlet 50 201 15 0;#P outlet 50 266 15 0;#P connect 1 0 4 0;#P connect 4 0 6 0;#P connect 6 0 0 0;#P connect 10 0 4 1;#P fasten 11 0 10 1 185 177 141 177;#P connect 2 0 5 0;#P connect 5 0 6 1;#P connect 3 0 12 0;#P connect 12 0 14 0;#P connect 14 0 13 0;#P connect 13 0 11 0;#P connect 9 0 5 1;#P connect 12 1 11 1;#P fasten 11 0 15 0 185 167 255 167;#P connect 15 0 9 1;#P pop;#P newobj 50 278 125 196617 p t_xfade2~;#B color 6;#P newex 50 226 210 196617 freqshift~;#B color 5;#P window linecount 2;#P comment 258 244 46 196617 lower sideband;#P window linecount 1;#P comment 58 243 79 196617 upper sideband;#P window linecount 3;#P comment 119 80 105 196617 [-1 (lower SB) \, 0 (both) \, 1 (upper SB)] [time (opt.)];#P number 444 114 54 9 0 0 0 3 0 0 0 221 221 221 222 222 222 0 0 0;#P window linecount 1;#P newex 444 50 50 196617 loadbang;#P message 444 71 55 196617 0;#P newex 444 91 95 196617 clip 0 2147483647;#P window linecount 2;#P comment 498 116 89 196617 default freq time variable;#P window linecount 1;#P newex 250 144 55 196617 pack 0. 20;#P newex 250 80 100 196617 route int float list;#P newex 104 160 55 196617 pack 0. 20;#P newex 104 120 100 196617 route int float list;#P comment 31 194 45 196617 signal in;#P window linecount 2;#P comment 265 50 172 196617 [reference frequency in hz. <float>]] [time (opt.)];#P window linecount 1;#P newex 250 178 42 196617 line~ 0.;#P comment 183 279 133 196617 frequency shifted signal out;#P window linecount 3;#P comment 357 221 166 196617 arg 1 : default time variable when incoming is int or float and not list (if list \, uses 2nd element as time);#P inlet 250 60 15 0;#P inlet 104 100 15 0;#P inlet 50 206 15 0;#P outlet 50 300 15 0;#P connect 1 0 21 0;#P connect 21 0 22 0;#P connect 22 0 0 0;#P connect 2 0 9 0;#P connect 9 1 10 0;#P connect 9 0 10 0;#P fasten 21 1 22 1 255 260 112 260;#P connect 10 0 22 2;#P connect 9 2 22 2;#P connect 3 0 11 0;#P connect 11 0 12 0;#P connect 11 1 12 0;#P connect 12 0 6 0;#P fasten 11 2 6 0 315 170 255 170;#P connect 6 0 21 1;#P connect 17 0 12 1;#P connect 16 0 15 0;#P connect 15 0 14 0;#P connect 14 0 17 0;#P pop;#P newobj 12 181 59 196617 p t_fshift~;#B color 6;#P window linecount 2;#P comment 42 265 372 196617 $1-freq - [reference frequency in hz. <float>]] [time (opt.)] \; $1-sb - side band [-1 (lower SB) \, 0 (both) \, 1 (upper SB)] [time (opt.)] \;;#P connect 2 0 1 0;#P connect 1 0 12 0;#P connect 12 0 3 0;#P connect 5 0 1 1;#P connect 8 0 1 2;#P connect 13 1 1 2;#P connect 2 0 11 0;#P connect 11 0 12 1;#P connect 5 0 11 1;#P connect 9 0 10 0;#P connect 10 0 8 0;#P connect 8 0 11 2;#P connect 13 2 11 2;#P connect 4 0 8 1;#P connect 8 1 13 0;#P connect 13 0 12 2;#P connect 7 0 9 0;#P connect 6 0 7 0;#P pop;