max v2;#N vpatcher 463 72 1251 756;#P origin 22 -151;#P window setfont "Sans Serif" 9.;#P window linecount 1;#P newex 9 267 135 196617 biquad~ 1. -1. 0. -0.9997 0.;#P newex 58 368 145 196617 t_fxmetersend $1;#B color 4;#P window linecount 2;#P comment 465 376 198 196617 no longer need to send to module_register. happens in build.;#P button 465 182 15 0;#P window linecount 1;#P newex 438 407 133 196617 s $1/spat/init;#B color 11;#P window setfont Times 9.;#P newex 567 106 92 1310729 s $1/init;#B color 11;#P newex 567 83 51 1310729 r /tape/init;#B color 11;#P window setfont "Sans Serif" 9.;#P newex 496 51 261 196617 makeswitch $1/sw $1 tape_switchstate;#B color 13;#P newex 496 94 31 196617 == 0;#P newex 496 133 50 196617 thispoly~;#B color 5;#P toggle 496 75 15 0;#P message 496 114 45 196617 mute \$1;#P newex 131 211 306 196617 makeparam $1/freq $1 f 0 -20000 20000. 2;#B color 13;#P newex 70 177 278 196617 makeparam $1/sb $1 f 0 -1 1 2;#B color 13;#P flonum 60 324 35 9 0 0 0 3 0 0 0 221 221 221 222 222 222 0 0 0;#P newex 9 324 49 196617 t_vol~ 2;#P newex 48 295 350 196617 makeparam $1/vol $1 f 1 0. 2. 1 20;#B color 13;#P window setfont Times 9.;#P window linecount 2;#P message 599 620 143 1310729 \; $1/freqglissgrain 100;#P message 466 621 129 1310729 \; $1/freqglissrand 0;#P message 270 621 181 1310729 \; $1/freqglissrand 1 50 270 4000 6000 50 100;#P toggle 18 626 15 0;#P window linecount 1;#P newex 35 625 230 1310729 proc-randtrans $1/freqglissrand $1/freqgliss 2;#B color 6;#N vpatcher 30 89 252 336;#P window setfont "Sans Serif" 9.;#P newex 101 94 27 196617 / 2;#P newex 50 161 61 196617 pack 0. 0;#P newex 71 139 21 196617 t 0;#P newex 71 119 27 196617 del;#P newex 50 182 114 196617 s $1/vol;#B color 11;#P newex 50 73 61 196617 unpack 0. 0;#P newex 50 50 124 196617 r $1/wave;#B color 11;#P connect 0 0 1 0;#P connect 4 0 5 0;#P connect 1 0 5 0;#P connect 5 0 2 0;#P connect 6 0 3 0;#P connect 3 0 4 0;#P connect 1 1 6 0;#P connect 6 0 5 1;#P pop;#P newobj 35 530 52 1310729 p vol-wave;#B color 5;#N vpatcher 22 303 272 550;#P origin 0 -9;#P window setfont "Sans Serif" 9.;#P number 105 75 49 9 0 0 0 3 0 0 0 221 221 221 222 222 222 0 0 0;#P newex 56 48 162 196617 r $1/freqglissgrain;#B color 11;#P message 17 189 204 196617 \; $1/freqgliss 100 \, 1000 6000;#P newex 17 162 158 196617 s $1/freq;#B color 11;#P number 105 119 35 9 0 0 0 3 0 0 0 221 221 221 222 222 222 0 0 0;#P newex 17 141 98 196617 pack 0. 0;#P flonum 17 119 56 9 0 0 0 3 0 0 0 221 221 221 222 222 222 0 0 0;#P newex 17 97 98 196617 linefog 0 100 1000;#B color 6;#P newex 17 21 139 196617 r $1/freqgliss;#B color 11;#P connect 0 0 1 0;#P connect 1 0 2 0;#P connect 2 0 3 0;#P connect 3 0 5 0;#P fasten 7 0 8 0 61 70 110 70;#P connect 8 0 1 2;#P connect 1 2 4 0;#P connect 4 0 3 1;#P pop;#P newobj 35 645 69 1310729 p mod-freqgliss;#B color 5;#P window linecount 2;#P message 466 582 110 1310729 \; $1/freqrand 0;#P message 270 582 162 1310729 \; $1/freqrand 1 50 270 4000 6000 50 100;#P toggle 18 586 15 0;#P window linecount 1;#P newex 35 586 195 1310729 proc-randtransf $1/freqrand $1/freq 2;#B color 6;#P newex 9 241 132 1310729 t_fshiftx~ $1;#B color 6;#P window linecount 2;#P message 466 478 109 1310729 \; $1/volrand 0;#P message 270 477 171 1310729 \; $1/volrand 1 0.8 1. 3000 5000 50 100 1 4;#P toggle 18 483 15 0;#P window linecount 1;#P newex 35 482 198 1310729 proc-randtransf0 $1/volrand $1/vol 2;#B color 6;#P window linecount 2;#P message 466 507 115 1310729 \; $1/waverand 0;#P message 270 507 163 1310729 \; $1/waverand 1 0.8 1. 6000 10000 50 75;#P toggle 18 510 15 0;#P window linecount 1;#P newex 35 510 205 1310729 proc-randtransf $1/waverand $1/wave 2;#B color 6;#P newex 134 413 75 1310729 s $1/vol;#B color 11;#P newex 134 392 84 1310729 r mods/vol;#B color 11;#P window setfont "Sans Serif" 9.;#P window linecount 2;#P comment 179 230 107 196617 patch by Tom Mays contact@tommays.net;#P comment 153 333 131 196617 arg 1 : module prefix name \; arg 2 : max del time;#P window setfont Times 9.;#P window linecount 1;#N out~ 1;#P newobj 9 353 33 1310729 out~ 1;#N in~ 1;#P newobj 9 21 29 1310729 in~ 1;#P newex 9 41 40 1310729 t_dither;#P window setfont "Sans Serif" 9.;#P window linecount 9;#P message 465 203 220 196617 \; $1/sw/init bang \; $1/volrand 0 \; $1/waverand 0 \; $1/freqrand 0 \; $1/freqglissrand 0 \; $1/freq/init bang \; $1/sb/init bang \; $1/vol/init bang \;;#P window linecount 1;#P newex 465 162 148 196617 moduleinit $1;#B color 13;#P window linecount 2;#P comment 80 399 50 196617 param groupings;#P connect 4 0 3 0;#P connect 3 0 18 0;#P connect 18 0 46 0;#P connect 46 0 31 0;#P connect 31 0 5 0;#P hidden connect 14 0 15 0;#P hidden connect 10 0 11 0;#P hidden connect 19 0 20 0;#P hidden connect 25 0 26 0;#P connect 30 0 31 1;#P connect 32 0 31 1;#P fasten 31 0 45 0 14 348 63 348;#P connect 31 1 32 0;#P connect 33 0 18 1;#P connect 34 0 18 2;#P connect 8 0 9 0;#P fasten 43 0 42 0 470 200 443 200;#P connect 1 0 43 0;#P connect 43 0 2 0;#P connect 39 0 36 0;#P connect 36 0 38 0;#P connect 38 0 35 0;#P connect 35 0 37 0;#P connect 40 0 41 0;#P pop;