max v2;#N vpatcher 517 46 1094 504;#P window setfont "Sans Serif" 9.;#N vpatcher 10 59 610 459;#P outlet 167 88 15 0;#P inlet 163 45 15 0;#P pop;#P newobj 34 245 53 196617 p process;#P window linecount 2;#P message 356 49 143 196617 \; /events.1/hideplayfunction 1;#P window linecount 1;#P newex 34 269 88 196617 s /events.1/play;#P newex 34 222 114 196617 r /cuesheet.1/mapping;#P window setfont Times 9.;#N vpatcher 254 68 476 301;#N comlet to thispatcher;#P outlet 31 190 15 0;#N comlet from toggle;#P inlet 16 106 15 0;#N comlet to toggle;#P outlet 16 72 15 0;#P window setfont Times 9.;#P newex 16 52 18 1310729 t 1;#P newex 16 31 43 1310729 loadbang;#P newex 16 124 40 1310729 sel 1 0;#P window setfont "Sans Serif" 9.;#P message 31 146 158 196617 window flags close \, window exec;#P message 16 164 168 196617 window flags noclose \, window exec;#P connect 3 0 4 0;#P connect 4 0 5 0;#P connect 6 0 2 0;#P connect 2 0 0 0;#P connect 2 1 1 0;#P connect 1 0 7 0;#P connect 0 0 7 0;#P pop;#P hidden newobj 24 -1 50 1310729 p closebox;#B color 6;#P toggle 1 1 15 0;#N thispatcher;#Q end;#P hidden newobj 39 -1 51 1310729 thispatcher;#P comment 17 1 74 1310729 inhibit close box;#P button 244 49 15 0;#P window setfont "Sans Serif" 9.;#P newex 244 28 99 196617 r /instruments/init;#B color 9;#P newex 44 28 189 196617 editorwindow /instruments /tapemovie;#B color 6;#N thispatcher;#Q end;#P newobj 44 48 61 196617 thispatcher;#P comment 344 29 182 196617 <- inits with each /tapemovie/init_all;#P bpatcher 23 85 512 128 0 0 tm_cuesheet.edit.mxt 0 /cuesheet.1;#P objectname cuesheet.1;#P bpatcher 23 296 513 125 0 0 tm_events.edit.mxt 0 /events.1;#P objectname events.1;#P hidden connect 10 0 9 0;#P hidden connect 9 0 10 0;#P connect 11 0 14 0;#P connect 14 0 12 0;#P hidden connect 10 1 8 0;#P fasten 3 0 4 0 49 68 40 68 40 25 49 25;#P connect 4 0 3 0;#P connect 5 0 6 0;#P pop;