max v2;#N vpatcher 533 44 949 344;#P origin 0 -5;#P window setfont "Sans Serif" 9.;#P window linecount 1;#P comment 15 108 117 196617 bpat bkgnd = 256 X 62;#P comment 15 127 119 196617 bpat editor = 258 X 64;#P newex 183 175 193 196617 variedit $1/vol $1;#B color 11;#P window setfont Times 9.;#P newex 183 195 42 1310729 pvar vol;#P window setfont "Sans Serif" 9.;#P newex 183 122 190 196617 variedit $1/amt $1;#B color 11;#P window setfont Times 9.;#P newex 183 142 43 1310729 pvar amt;#P comment 81 73 82 1310729 arg 1 : prefix name;#P number 72 34 37 9 0 0 0 20 0 0 0 221 221 221 222 222 222 0 0 0;#P objectname amt;#P comment 154 35 21 1310729 /vol;#B frgb 0 0 200;#P comment 50 35 25 1310729 /amt;#B frgb 0 0 200;#P flonum 175 34 30 9 0. 2. 3 20 0 0 0 221 221 221 222 222 222 0 0 0;#P objectname vol;#P window setfont "Sans Serif" 9.;#N thispatcher;#Q end;#P newobj 0 75 61 196617 thispatcher;#P bpatcher 0 0 256 62 0 0 bkgnd.mxt 0 $1 0 1;#P objectname background;#P fasten 7 0 8 0 188 163 178 163 178 117 188 117;#P connect 8 0 7 0;#P fasten 9 0 10 0 188 216 178 216 178 170 188 170;#P connect 10 0 9 0;#P pop;