max v2;#N vpatcher 128 44 858 423;#P window setfont "Sans Serif" 9.;#P window linecount 1;#P newex 100 27 321 196617 makeparam $1/amt $1 f 1 1. 100. 1;#B color 13;#P button 408 213 15 0;#P newex 376 318 133 196617 s $1/spat/init;#B color 11;#P newex 104 251 145 196617 t_fxmetersend $1;#B color 4;#P flonum 77 213 35 9 0 0 0 3 0 0 0 221 221 221 222 222 222 0 0 0;#P newex 26 213 49 196617 t_vol~ 2;#P newex 65 160 275 196617 makeparam $1/vol $1 f 1 0. 2. 1;#B color 13;#P comment 515 111 131 196617 arg 1 : module prefix name \;;#P window setfont Times 9.;#N out~ 1;#P newobj 26 251 33 1310729 out~ 1;#P window setfont "Sans Serif" 9.;#P newex 408 55 261 196617 makeswitch $1/sw $1 tape_switchstate;#B color 13;#P newex 408 98 31 196617 == 0;#P newex 408 137 50 196617 thispoly~;#B color 5;#P toggle 408 79 15 0;#P message 408 118 45 196617 mute \$1;#N in~ 1;#P newobj 26 40 31 196617 in~ 1;#P newex 26 99 84 196617 t_disto~;#B color 6;#P window linecount 4;#P message 408 236 188 196617 \; $1/sw/init bang \; $1/amt/init bang \; $1/vol/init bang \;;#P window linecount 1;#P newex 408 191 148 196617 moduleinit $1;#B color 13;#P window linecount 2;#P comment 110 67 130 196617 [disto amt \, 1. to 100. (recom 10. to 15.)] [time];#P connect 4 0 3 0;#P connect 3 0 13 0;#P connect 13 0 10 0;#P connect 14 0 13 1;#P connect 12 0 13 1;#P connect 13 1 14 0;#P connect 18 0 3 1;#P fasten 13 0 15 0 31 238 109 238;#P fasten 17 0 16 0 413 232 381 232;#P connect 9 0 6 0;#P connect 6 0 8 0;#P connect 8 0 5 0;#P connect 5 0 7 0;#P connect 1 0 17 0;#P connect 17 0 2 0;#P pop;