max v2;#N vpatcher 62 114 1231 677;#P origin 66 118;#P window setfont "Sans Serif" 9.;#P window linecount 1;#P newex 897 375 217 196617 r $1/constructor;#B color 5;#P button 18 184 15 0;#P newex 24 223 52 196617 s $1/init;#B color 13;#N vpatcher 10 59 585 360;#P button 243 50 15 0;#P window setfont "Sans Serif" 9.;#P window linecount 1;#P newex 408 149 50 196617 t resume;#B color 11;#P newex 346 149 44 196617 receive;#B color 11;#P newex 346 127 169 196617 sprintf set $1/cc.%ld/editor/built;#B color 11;#P newex 272 73 44 196617 uzi 127;#B color 11;#P newex 323 174 176 196617 sprintf send $1/cc.%ld/editor/build;#B color 11;#P newex 306 234 182 196617 forward;#B color 11;#P newex 306 97 54 196617 t i i break;#B color 11;#P window setfont Monaco 10.;#P window linecount 2;#P newex 50 179 262 262154 sprintf script new myobj newex 22 200 300 8 multimapsend $1/cc.%ld/map $1 /common;#P inlet 243 30 15 0;#P connect 2 0 1 0;#P connect 0 0 9 0;#P fasten 8 0 5 0 413 172 514 172 514 44 277 44;#P connect 9 0 5 0;#P fasten 2 2 5 0 355 121 388 121 388 65 277 65;#P connect 5 2 2 0;#P connect 1 0 3 0;#P connect 4 0 3 0;#P connect 2 1 4 0;#P connect 2 1 6 0;#P connect 6 0 7 0;#P connect 7 0 8 0;#P pop;#P newobj 889 425 194 196617 p multimapsend constructor (inside poly);#P window setfont Monaco 10.;#P newex 822 451 292 262154 poly~ tm_midi-makecontrol 127 args $1/cc $1 127;#P window setfont "Sans Serif" 9.;#P message 949 307 53 196617 enable \$1;#P newex 949 284 94 196617 t 1 l;#P message 820 297 14 196617 0;#P message 820 319 53 196617 enable \$1;#P newex 820 259 139 196617 route <none>;#P newex 820 237 322 196617 makeparam $1/out/interface $1 m <none>;#B color 13;#P newex 595 371 275 196617 makeparam $1/out/bend $1 i 0 0 127 1;#B color 13;#P newex 686 417 44 196617 bendout;#P window setfont "Sans Serif" 18.;#P comment 225 499 43 196626 INIT;#P comment 633 172 76 196626 Bend IN;#P window setfont "Sans Serif" 9.;#P newex 289 372 49 196617 zl rot -1;#P newex 289 392 75 196617 unpack 0 0;#P newex 289 311 265 196617 makeparam $1/out/ctllist $1 l @initlist 0 0;#B color 13;#P newex 419 343 330 196617 makeparam $1/out/channel $1 i 1 1 16;#B color 12;#P newex 289 416 140 196617 ctlout 1;#P newex 75 87 239 196617 s $1/out/interface_list;#B color 12;#P newex 75 63 46 196617 midiinfo;#B color 5;#P window linecount 2;#P message 4 492 135 196617 \; control_register/store $1 \;;#P window linecount 1;#P newex 285 243 49 196617 zl rot -1;#P newex 285 221 42 196617 pack i i;#P newex 285 265 179 196617 s $1/in/ctllist;#B color 12;#P window setfont "Sans Serif" 18.;#P comment 338 241 96 196626 Control IN;#P comment 511 31 245 196626 Input type & enable switch;#P comment 8 12 258 196626 Available inputs and outputs;#P window setfont "Sans Serif" 9.;#P message 461 83 53 196617 enable \$1;#P newex 461 60 94 196617 t 1 l;#P message 332 107 14 196617 0;#P newex 332 225 47 196617 forward;#P newex 347 201 212 196617 sprintf send $1/cc.%ld/map/in;#P newex 332 159 40 196617 ctlin;#P window setfont "Sans Serif" 14.;#N vpatcher 92 386 846 801;#P window setfont "Sans Serif" 9.;#P window linecount 1;#P newex 66 148 44 196617 uzi 127;#B color 11;#P newex 117 243 165 196617 sprintf send $1/cc.%ld/editinit;#B color 11;#P newex 100 266 182 196617 forward;#B color 11;#P newex 100 193 27 196617 t b i;#B color 11;#P message 597 173 52 196617 /common;#P window setfont "Sans Serif" 14.;#P comment 32 363 339 196622 INIT ALL THE MULTIMAPSEND LOADED BY POLYS;#P window setfont "Sans Serif" 9.;#P newex 419 48 105 196617 r /makeparam/reset;#B color 11;#P inlet 11 32 15 0;#P window linecount 0;#P message 480 236 33 196617 clear;#P newex 323 122 44 196617 uzi 127;#B color 11;#P newex 357 141 114 196617 sprintf $1/cc.%ld;#B color 11;#P newex 11 227 44 196617 uzi 127;#B color 11;#P newex 62 322 165 196617 sprintf send $1/cc.%ld/map/init;#B color 11;#P newex 45 345 182 196617 forward;#B color 11;#P newex 45 272 27 196617 t b i;#B color 11;#P newex 569 214 38 196617 zl join;#P newex 11 59 322 196617 b 2;#P toggle 294 207 15 0;#P newex 323 165 38 196617 zl join;#P newex 480 162 38 196617 zl join;#P newex 523 193 38 196617 zl join;#P message 569 194 52 196617;#P message 523 135 37 196617 0 127;#P message 480 135 23 196617 i 0;#N coll $1/controls 1;#P newobj 457 296 94 196617 coll $1/controls 1;#B color 5;#P newex 323 245 51 196617 zl slice 2;#P newex 295 225 38 196617 gate 2;#P newex 367 224 21 196617 t 1;#P newex 337 224 21 196617 t 2;#P newex 337 204 40 196617 route l;#P newex 337 184 60 196617 loadmess 0;#P newex 419 70 48 196617 t b clear;#P newex 323 91 106 196617 onebang 1;#P newex 323 270 70 196617 prepend store;#P window setfont "Sans Serif" 14.;#P comment 371 318 357 196622 REGISTRATE MAKECONTROLS INTO CONTROLS COLL;#P connect 27 0 18 0;#P connect 34 1 23 0;#P connect 23 2 20 0;#P connect 20 0 21 0;#P connect 22 0 21 0;#P connect 20 1 22 0;#P connect 18 0 34 0;#P connect 34 2 31 0;#P connect 31 0 32 0;#P connect 33 0 32 0;#P connect 31 1 33 0;#P connect 6 0 17 0;#P connect 7 0 17 0;#P connect 17 0 8 0;#P connect 18 1 2 0;#P connect 2 0 25 0;#P connect 24 0 16 0;#P connect 16 0 8 1;#P connect 8 1 9 0;#P connect 9 0 1 0;#P fasten 8 0 1 0 300 267 328 267;#P connect 4 0 5 0;#P connect 5 0 6 0;#P connect 15 0 16 1;#P connect 25 2 24 0;#P connect 5 1 7 0;#P connect 28 0 3 0;#P connect 3 0 2 1;#P connect 3 1 10 0;#P fasten 1 0 10 0 328 291 462 291;#P connect 26 0 10 0;#P fasten 2 0 11 0 328 116 485 116;#P connect 11 0 15 0;#P connect 14 0 15 1;#P fasten 2 0 12 0 328 113 528 113;#P connect 12 0 14 0;#P connect 19 0 14 1;#P fasten 2 0 13 0 328 118 574 118;#P connect 13 0 19 0;#P pop;#P newobj 60 465 164 196622 p initializ multmapsend;#B color 6;#P window setfont "Sans Serif" 9.;#P newex 4 301 179 196617 b 4;#P newex 588 219 211 196617 s $1/in/bend;#B color 12;#P window setfont "Sans Serif" 14.;#P window linecount 2;#P comment 827 181 214 196622 TODO : router le channel que l'on souhaite dans tous les IN;#B frgb 103 0 0;#P window setfont "Sans Serif" 9.;#P window linecount 1;#P message 332 129 53 196617 enable \$1;#P newex 588 176 38 196617 bendin;#P newex 815 161 185 196617 makeparam $1/in/channel $1 i 1 1 16;#B color 12;#P newex 332 35 139 196617 route <none>;#P newex 332 13 322 196617 makeparam $1/in/interface $1 m <none>;#B color 13;#P window linecount 11;#P message 116 324 159 196617 \; $1/sw/init bang \; $1/update bang \; $1/in/interface/init bang \; $1/in/channel/init bang \; $1/in/ctllist/print/init bang \; $1/in/bend/print/init bang \; $1/out/interface/init bang \; $1/out/channel/init bang \; $1/out/ctllist/init bang \; $1/out/bend/init bang \;;#P window linecount 1;#P newex 4 158 240 196617 moduleinit $1;#B color 13;#P newex 9 111 233 196617 s $1/in/interface_list;#B color 12;#P newex 348 107 303 196617 makeswitch $1/sw $1 common_switchstate 0;#B color 13;#P message 9 63 60 196617 controllers;#P newex 9 38 187 196617 r $1/update;#B color 12;#P newex 9 87 46 196617 midiinfo;#B color 5;#P window setfont "Sans Serif" 18.;#P window linecount 2;#P comment 282 446 521 196626 Makecontrols are not in the patch. Only multimapsend ----> <-----------Unique process to declare all the makecontrols;#P user panel 810 152 250 75;#X brgb 255 255 255;#X frgb 0 0 0;#X border 1;#X rounded 0;#X shadow 0;#X done;#P window setfont "Sans Serif" 9.;#P window linecount 1;#P newex 828 69 184 196617 r $1/in/bend;#B color 12;#P newex 794 31 218 196617 r $1/in/ctllist;#B color 12;#P newex 809 50 327 196617 makeparam $1/in/bend/print $1 t 0;#B color 12;#P newex 809 89 29 196617 gate;#P newex 809 109 247 196617 print $1/in/bend;#B color 5;#P newex 775 13 319 196617 makeparam $1/in/ctllist/print $1 t 0;#B color 12;#P newex 775 89 29 196617 gate;#P newex 775 128 239 196617 print $1/in/ctllist;#B color 5;#P user panel 0 8 323 141;#X brgb 255 255 255;#X frgb 0 0 0;#X border 1;#X rounded 0;#X shadow 0;#X done;#P user panel 326 8 436 141;#X brgb 255 255 255;#X frgb 0 0 0;#X border 1;#X rounded 0;#X shadow 0;#X done;#P user panel 279 152 293 142;#X brgb 255 255 255;#X frgb 0 0 0;#X border 1;#X rounded 0;#X shadow 0;#X done;#P user panel 581 152 226 142;#X brgb 255 255 255;#X frgb 0 0 0;#X border 1;#X rounded 0;#X shadow 0;#X done;#P user panel 766 8 373 141;#X brgb 255 255 255;#X frgb 0 0 0;#X border 1;#X rounded 0;#X shadow 0;#X done;#P user panel 1 150 276 377;#X brgb 255 255 255;#X frgb 0 0 0;#X border 1;#X rounded 0;#X shadow 0;#X done;#P window setfont "Sans Serif" 18.;#P comment 582 410 96 196626 Bend OUT;#P comment 455 411 116 196626 Control OUT;#P user panel 279 299 293 142;#X brgb 255 255 255;#X frgb 0 0 0;#X border 1;#X rounded 0;#X shadow 0;#X done;#P user panel 581 299 226 142;#X brgb 255 255 255;#X frgb 0 0 0;#X border 1;#X rounded 0;#X shadow 0;#X done;#P connect 25 0 34 0;#P connect 34 0 48 0;#P fasten 21 0 22 0 14 59 14 59;#P connect 22 0 20 0;#P connect 20 0 24 0;#P connect 69 0 68 0;#P connect 34 1 35 0;#P fasten 21 0 49 0 14 59 80 59;#P connect 49 0 50 0;#P connect 34 2 26 0;#P connect 36 0 46 0;#P lcolor 2;#P connect 46 0 47 0;#P connect 47 0 45 0;#P connect 53 0 55 0;#P connect 55 0 54 0;#P connect 62 0 51 0;#P connect 65 0 51 0;#P connect 54 0 51 0;#P connect 64 1 51 0;#P connect 36 1 46 1;#P lcolor 8;#P connect 27 0 28 0;#P connect 28 0 39 0;#P connect 39 0 31 0;#P connect 23 0 31 0;#P connect 41 0 36 0;#P lcolor 12;#P connect 31 0 36 0;#P lcolor 5;#P connect 40 1 36 0;#P lcolor 2;#P connect 36 0 38 0;#P lcolor 2;#P connect 37 0 38 0;#P connect 36 1 37 0;#P lcolor 8;#P connect 54 1 51 1;#P connect 52 0 51 2;#P connect 28 1 40 0;#P connect 40 0 41 0;#P connect 41 0 30 0;#P lcolor 12;#P connect 40 1 30 0;#P lcolor 2;#P connect 31 0 30 0;#P lcolor 5;#P connect 30 0 33 0;#P connect 59 0 58 0;#P connect 62 0 58 0;#P connect 64 1 58 0;#P connect 65 0 58 0;#P connect 52 0 58 1;#P connect 12 0 11 0;#P connect 11 0 10 0;#P connect 16 0 11 1;#P connect 15 0 14 0;#P connect 14 0 13 0;#P connect 60 0 61 0;#P connect 61 0 63 0;#P connect 63 0 62 0;#P connect 17 0 14 1;#P connect 70 0 67 0;#P connect 61 1 64 0;#P connect 64 0 65 0;#P pop;