max v2;#N vpatcher 569 125 1320 872;#P window setfont "Sans Serif" 9.;#P window linecount 1;#P comment 166 24 63 196617 /out/ctllist;#B frgb 0 0 222;#P user textedit 123 22 165 38 98436 3 9;#P objectname ctllistout;#P comment 167 42 56 196617 /out/bend;#B frgb 0 0 222;#P number 123 41 42 9 0 0 160 3 0 0 0 221 221 221 222 222 222 0 0 0;#P objectname bendout;#P user umenu 367 38 144 196647 1 64 54 0;#P objectname typeout;#P newex 449 365 206 196617 r $1/out/interface_list;#B color 12;#P newex 449 419 77 196617 pvar typeout 2;#B color 14;#P newex 449 397 179 196617 vari $1/out/interface;#B color 12;#P comment 295 41 77 196617 /out/interface;#B frgb 0 0 200;#P bpatcher 0 62 512 124 0 0 multimapsendu.edit.mxt 0 $1 /tapemovie;#P newex 148 286 178 196617 r $1/in/ctllist;#B color 12;#P toggle 222 2 15 0;#P objectname printbendin;#P newex 14 530 248 196617 variedit $1/in/bend/print;#B color 12;#P newex 14 504 84 196617 pvar printbendin;#B color 14;#P toggle 118 2 15 0;#P objectname printctlin;#P comment 235 3 91 196617 /in/bend/print;#B frgb 0 0 200;#P comment 131 3 83 196617 /in/ctllist/print;#B frgb 0 0 200;#P comment 59 42 50 196617 /in/bend;#B frgb 0 0 222;#P number 15 41 42 9 0 0 160 3 0 0 0 221 221 221 222 222 222 0 0 0;#P newex 227 347 62 196617 prepend set;#P newex 227 322 178 196617 r $1/in/bend;#B color 12;#P newex 227 368 62 196617 pvar bendin;#B color 14;#P window setfont "Sans Serif" 18.;#P comment 294 220 128 196626 before save :;#P window setfont "Sans Serif" 9.;#P newex 453 279 203 196617 r $1/in/interface_list;#B color 12;#P newex 148 333 54 196617 pvar ctlin;#B color 14;#P newex 148 308 62 196617 prepend set;#P comment 59 24 57 196617 /in/ctllist;#B frgb 0 0 222;#P user textedit 16 22 58 38 32897 3 9;#P objectname ctlin;#P message 419 225 33 196617 clear;#P comment 71 3 45 196617 /update;#B frgb 0 0 200;#P newex 14 476 255 196617 variedit $1/in/ctllist/print;#B color 12;#P newex 14 450 76 196617 pvar printctlin;#B color 14;#P newex 453 333 71 196617 pvar typein 2;#B color 14;#P newex 453 311 190 196617 vari $1/in/interface;#B color 12;#P newex 9 243 63 196617 pvar update;#B color 14;#P newex 9 224 168 196617 vari $1/update;#B color 12;#P button 56 2 15 0;#P objectname update;#P user umenu 367 19 144 196647 1 64 35 0;#P objectname typein;#P comment 295 22 71 196617 /in/interface;#B frgb 0 0 200;#P bpatcher 0 0 512 62 0 0 bkgnd12.mxt 0 $1 1 3;#P objectname background;#P fasten 5 0 4 0 14 262 6 262 6 221 14 221;#P connect 4 0 5 0;#P fasten 9 0 8 0 19 497 8 497 8 447 19 447;#P connect 8 0 9 0;#P fasten 27 0 26 0 19 551 8 551 8 501 19 501;#P connect 26 0 27 0;#P connect 29 0 14 0;#P connect 11 0 15 0;#P lcolor 1;#P connect 14 0 15 0;#P connect 19 0 20 0;#P connect 20 0 18 0;#P fasten 33 1 32 0 521 444 444 444 444 393 454 393;#P connect 11 0 33 0;#P connect 34 0 33 0;#P connect 32 0 33 0;#P fasten 7 1 6 0 519 355 448 355 448 304 458 304;#P connect 16 0 7 0;#P connect 6 0 7 0;#P connect 11 0 7 0;#P lcolor 1;#P pop;