max v2;#N vpatcher 83 54 1315 639;#P window setfont "Sans Serif" 9.;#P window linecount 1;#P newex 905 235 151 196617 moduleinit $1;#B color 13;#P newex 474 141 44 196617 sel 127;#P newex 271 215 54 196617 onebang 1;#P newex 249 174 32 196617 sel 0;#P newex 271 235 35 196617 t 127;#P newex 271 195 20 196617 t b;#P newex 438 204 32 196617 sel 0;#P button 905 256 15 0;#P message 835 429 60 196617 controllers;#P newex 835 468 178 196617 s $1/mididevicemenu;#B color 12;#P newex 511 337 221 196617 makeswitch $1/sw $1 common_switchstate 0;#B color 12;#P window linecount 14;#P message 905 277 269 196617 \; $1/sw/init bang \; $1/mididevice/init bang \; $1/upper/init bang \; $1/lower/init bang \; $1/x/init bang \; $1/y/init bang \; $1/diagonal/init bang \; $1/contact/init bang \; $1/mute/init bang \; $1/fxdepth/init bang \; $1/program/init bang \; $1/channel/init bang \; control_register/store $1 \;;#P window linecount 1;#P newex 63 53 57 196617 route none;#P newex 63 33 178 196617 makeparam $1/mididevice $1 s none;#B color 12;#P newex 835 448 45 196617 midiinfo;#B color 5;#P newex 776 148 27 196617 - 1;#P number 898 148 35 9 0 0 0 3 0 0 0 221 221 221 222 222 222 0 0 0;#P newex 898 167 307 196617 makecontrol $1/channel $1 i 0 127 /common;#B color 5;#P number 776 167 35 9 0 0 0 3 0 0 0 221 221 221 222 222 222 0 0 0;#P newex 776 102 36 196617 pgmin;#P newex 776 186 312 196617 makecontrol $1/program $1 i 0 127 /common;#B color 5;#P number 670 148 35 9 0 0 0 3 0 0 0 221 221 221 222 222 222 0 0 0;#P newex 670 102 45 196617 ctlin 94;#P newex 670 208 308 196617 makecontrol $1/fxdepth $1 i 0 127 /common;#B color 5;#P number 578 148 35 9 0 0 0 3 0 0 0 221 221 221 222 222 222 0 0 0;#P newex 578 102 45 196617 ctlin 95;#P newex 578 227 296 196617 makecontrol $1/mute $1 i 0 127 /common;#B color 5;#P number 474 181 35 9 0 0 0 3 0 0 0 221 221 221 222 222 222 0 0 0;#P newex 474 102 45 196617 ctlin 92;#P newex 474 246 307 196617 makecontrol $1/contact $1 i 0 127 /common;#B color 5;#P number 370 148 35 9 0 0 0 3 0 0 0 221 221 221 222 222 222 0 0 0;#P newex 370 102 45 196617 ctlin 93;#P newex 370 267 310 196617 makecontrol $1/diagonal $1 i 0 127 /common;#B color 5;#P number 290 148 35 9 0 0 0 3 0 0 0 221 221 221 222 222 222 0 0 0;#P newex 290 102 45 196617 ctlin 13;#P newex 290 288 280 196617 makecontrol $1/y $1 i 0 127 /common;#B color 5;#P number 209 148 35 9 0 0 0 3 0 0 0 221 221 221 222 222 222 0 0 0;#P newex 209 102 45 196617 ctlin 12;#P newex 209 309 280 196617 makecontrol $1/x $1 i 0 127 /common;#B color 5;#P number 110 148 35 9 0 0 0 3 0 0 0 221 221 221 222 222 222 0 0 0;#P newex 110 102 39 196617 ctlin 2;#P newex 110 330 300 196617 makecontrol $1/lower $1 i 0 127 /common;#B color 5;#P number 14 148 35 9 0 0 0 3 0 0 0 221 221 221 222 222 222 0 0 0;#P newex 14 102 39 196617 ctlin 1;#P newex 14 351 299 196617 makecontrol $1/upper $1 i 0 127 /common;#B color 5;#P window linecount 5;#P comment 510 163 63 196617 makes compatible with both Kaoss II and Kaoss III;#P fasten 33 1 2 0 115 86 19 86;#P connect 2 0 3 0;#P connect 3 0 1 0;#P connect 32 0 33 0;#P fasten 33 1 5 0 115 86 115 86;#P connect 5 0 6 0;#P connect 6 0 4 0;#P fasten 33 1 8 0 115 86 214 86;#P connect 8 0 9 0;#P connect 9 0 7 0;#P connect 12 0 42 0;#P connect 9 0 42 0;#P connect 42 1 40 0;#P connect 40 0 43 0;#P connect 43 0 41 0;#P fasten 33 1 11 0 115 86 295 86;#P connect 11 0 12 0;#P connect 12 0 10 0;#P connect 39 0 43 1;#P fasten 33 1 14 0 115 86 375 86;#P connect 14 0 15 0;#P connect 15 0 13 0;#P connect 18 0 39 0;#P fasten 33 1 17 0 115 86 479 86;#P connect 17 0 44 0;#P connect 41 0 18 0;#P connect 44 1 18 0;#P connect 18 0 16 0;#P fasten 33 1 20 0 115 86 583 86;#P connect 20 0 21 0;#P connect 21 0 19 0;#P fasten 33 1 23 0 115 86 675 86;#P connect 23 0 24 0;#P connect 24 0 22 0;#P fasten 33 1 26 0 115 86 781 86;#P connect 26 0 30 0;#P connect 30 0 27 0;#P connect 27 0 25 0;#P fasten 38 0 37 0 910 274 840 274;#P connect 37 0 31 0;#P connect 31 0 36 0;#P fasten 26 1 29 0 807 133 903 133;#P lcolor 3;#P fasten 23 1 29 0 710 133 903 133;#P lcolor 3;#P fasten 20 1 29 0 618 133 903 133;#P lcolor 3;#P fasten 17 1 29 0 514 133 903 133;#P lcolor 3;#P fasten 14 1 29 0 410 133 903 133;#P lcolor 3;#P fasten 11 1 29 0 330 133 903 133;#P lcolor 3;#P fasten 8 1 29 0 249 133 903 133;#P lcolor 3;#P fasten 5 1 29 0 144 133 903 133;#P lcolor 3;#P fasten 2 1 29 0 48 133 903 133;#P lcolor 3;#P connect 29 0 28 0;#P connect 45 0 38 0;#P connect 38 0 34 0;#P pop;