max v2;#N vpatcher 49 263 1100 696;#P window setfont "Sans Serif" 9.;#P window linecount 1;#P newex 1042 89 202 196617 tm_editorbuilder /kaoss /tapemovie 3 2 2;#B color 6;#P button 1055 62 15 0;#P comment 1073 62 39 196617 delete;#P button 1042 41 15 0;#P comment 1059 41 31 196617 build;#N thispatcher;#Q end;#P newobj 1042 111 61 196617 thispatcher;#P window linecount 0;#P comment 2376 22 100 196617;#P comment 1 1 100 196617;#P connect 4 0 7 0;#P connect 7 0 2 0;#P fasten 6 0 7 1 1060 83 1143 83;#P fasten 2 0 7 2 1047 133 1278 133 1278 85 1239 85;#P pop;