max v2;#N vpatcher 40 55 426 333;#P origin 0 -1;#P window setfont "Sans Serif" 9.;#P window linecount 1;#P comment 244 230 109 196617 contact@tommays.net;#P comment 244 217 100 196617 patch by Tom Mays;#N comlet deviation %;#P inlet 255 38 15 0;#P comment 272 38 64 196617 deviation %;#N comlet center value;#P inlet 149 38 15 0;#P flonum 38 208 65 9 0 0 0 3 0 0 0 221 221 221 222 222 222 0 0 0;#N comlet value out;#P outlet 38 228 15 0;#N comlet bang for new value;#P inlet 38 122 15 0;#P flonum 149 166 65 9 0 0 0 3 0 0 0 221 221 221 222 222 222 0 0 0;#P flonum 73 146 65 9 0 0 0 3 0 0 0 221 221 221 222 222 222 0 0 0;#P flonum 255 63 65 9 0. 100. 3 3 0 0 0 221 221 221 222 222 222 0 0 0;#P flonum 149 63 65 9 0 0 0 3 0 0 0 221 221 221 222 222 222 0 0 0;#P newex 165 111 100 196617 expr $f1*($f2/50.);#P button 38 147 15 0;#P newex 38 166 45 196617 randomf;#P newex 38 187 121 196617 + 0.;#P newex 149 146 84 196617 expr $f1-$f2/2.;#P newex 149 83 116 196617 nobondo;#P comment 166 38 64 196617 center value;#P connect 11 0 5 0;#P connect 5 0 4 0;#P connect 4 0 3 0;#P connect 3 0 13 0;#P connect 13 0 12 0;#P connect 6 0 9 0;#P connect 9 0 4 1;#P connect 14 0 7 0;#P connect 7 0 1 0;#P connect 1 0 2 0;#P connect 2 0 10 0;#P connect 10 0 3 1;#P connect 1 0 6 0;#P fasten 6 0 2 1 170 137 228 137;#P connect 16 0 8 0;#P connect 8 0 1 1;#P connect 1 1 6 1;#P pop;