max v2;#N vpatcher 40 55 549 406;#P origin 0 -1;#P window setfont "Sans Serif" 9.;#P window linecount 1;#P newex 434 114 40 196617 t b 1 0;#P newex 340 110 40 196617 t b 2 1;#P flonum 355 149 35 9 0 0 0 3 0 0 0 221 221 221 222 222 222 0 0 0;#P flonum 411 149 35 9 0 0 0 3 0 0 0 221 221 221 222 222 222 0 0 0;#P button 415 89 15 0;#P button 359 89 15 0;#P newex 227 187 130 196617 * 1.;#P newex 377 65 41 196617 sel 0 1;#P toggle 377 46 15 0;#N comlet deviation mode;#P inlet 377 25 15 0;#P comment 394 25 77 196617 deviation mode;#P newex 17 129 82 196617 t f b;#P flonum 17 104 65 9 0 0 0 3 0 0 0 221 221 221 222 222 222 0 0 0;#P comment 256 261 109 196617 contact@tommays.net;#P comment 256 248 100 196617 patch by Tom Mays;#N comlet deviation %;#P inlet 259 25 15 0;#P comment 276 25 69 196617 deviation amt;#N comlet center value;#P inlet 153 25 15 0;#P flonum 42 268 65 9 0 0 0 3 0 0 0 221 221 221 222 222 222 0 0 0;#N comlet value out;#P outlet 42 288 15 0;#N comlet bang for new value;#P inlet 17 25 15 0;#P flonum 153 226 65 9 0 0 0 3 0 0 0 221 221 221 222 222 222 0 0 0;#P flonum 52 56 65 9 0 0 0 3 0 0 0 221 221 221 222 222 222 0 0 0;#P flonum 259 54 65 9 0. 0 1 3 0 0 0 221 221 221 222 222 222 0 0 0;#P flonum 153 54 65 9 0 0 0 3 0 0 0 221 221 221 222 222 222 0 0 0;#P newex 259 160 29 196617 * 2.;#P button 17 57 15 0;#P newex 17 78 45 196617 randomf;#P newex 42 247 121 196617 + 0.;#P newex 153 206 84 196617 expr $f1-$f2/2.;#P comment 170 25 64 196617 center value;#P connect 10 0 4 0;#P connect 4 0 3 0;#P connect 3 0 18 0;#P connect 18 0 19 0;#P connect 19 0 2 0;#P connect 2 0 12 0;#P connect 12 0 11 0;#P connect 5 0 8 0;#P connect 8 0 3 1;#P connect 13 0 6 0;#P connect 19 1 1 0;#P connect 6 0 1 0;#P connect 1 0 9 0;#P connect 9 0 2 1;#P connect 5 0 24 0;#P connect 24 0 1 1;#P connect 15 0 7 0;#P connect 30 0 5 0;#P connect 29 0 5 0;#P connect 19 1 5 0;#P connect 7 0 5 0;#P connect 28 0 5 1;#P connect 25 0 29 0;#P connect 27 0 24 1;#P connect 30 1 28 0;#P connect 29 1 28 0;#P connect 23 0 25 0;#P connect 21 0 22 0;#P connect 22 0 23 0;#P connect 30 2 27 0;#P connect 29 2 27 0;#P connect 23 1 26 0;#P connect 26 0 30 0;#P pop;