max v2;#N vpatcher 33 484 804 741;#P origin 0 -23;#P window setfont "Sans Serif" 9.;#P window linecount 1;#P newex 344 85 389 196617 makeparam $1/posdevmode $2 t 0 0 1;#B color 13;#P newex 239 55 389 196617 makeparam $1/posdev $2 f 0 0 600000 1;#B color 13;#P newex 134 25 373 196617 makeparam $1/posctr $2 f 0 0 600000 1;#B color 13;#P comment 259 184 109 196617 contact@tommays.net;#P comment 259 171 100 196617 patch by Tom Mays;#P flonum 91 165 65 9 0 0 0 3 0 0 0 221 221 221 222 222 222 0 0 0;#N comlet buffer size;#P inlet 91 145 15 0;#P newex 29 186 72 196617 clip 0. 10000.;#P newex 29 119 325 196617 ctr_devamt;#B color 6;#N comlet value out;#P outlet 29 210 15 0;#N comlet bang for new value;#P inlet 29 97 15 0;#P comment 108 145 55 196617 buffer size;#P window linecount 2;#P comment 252 77 63 196617 position deviation %;#P comment 146 47 54 196617 position (ms);#P connect 3 0 5 0;#P connect 5 0 6 0;#P connect 6 0 4 0;#P connect 7 0 8 0;#P connect 8 0 6 2;#P connect 11 0 5 1;#P connect 12 0 5 2;#P connect 13 0 5 3;#P pop;