max v2;#N vpatcher 94 90 927 724;#P window setfont "Sans Serif" 9.;#P flonum 296 325 65 9 0 0 0 3 0 0 0 221 221 221 222 222 222 0 0 0;#P window linecount 1;#P newex 296 305 155 196617 r $1/bufsize;#B color 11;#P newex 19 430 74 196617 clip~ 0 60000;#P comment 635 536 109 196617 contact@tommays.net;#P comment 635 523 100 196617 patch by Tom Mays;#P comment 189 131 44 196617 reverse;#P number 175 144 35 9 0 0 0 3 0 0 0 221 221 221 222 222 222 0 0 0;#P newex 175 262 27 196617 + 1;#P newex 44 308 53 196617 fswap 0.;#P newex 62 285 35 196617 gate 2;#P newex 19 285 35 196617 gate 2;#P newex 618 128 27 196617 * 2.;#P newex 105 103 27 196617 - 0.;#P newex 662 108 45 196617 * 1000.;#P flonum 662 128 58 9 0 0 0 3 0 0 0 221 221 221 222 222 222 0 0 0;#P newex 662 88 30 196617 !/ 1.;#P flonum 682 51 58 9 0 0 0 3 0 0 0 221 221 221 222 222 222 0 0 0;#P newex 566 246 27 196617 del;#P button 666 250 15 0;#P button 642 230 15 0;#P newex 642 209 164 196617 r $1/polyreset;#B color 11;#P newex 566 275 30 196617 t 0 1;#P newex 599 275 30 196617 t 0 1;#P flonum 331 144 65 9 0 0 0 3 0 0 0 221 221 221 222 222 222 0 0 0;#P flonum 19 144 68 9 0 0 0 3 0 0 0 221 221 221 222 222 222 0 0 0;#P flonum 105 144 68 9 0 0 0 3 0 0 0 221 221 221 222 222 222 0 0 0;#P flonum 409 144 38 9 0 0 0 3 0 0 0 221 221 221 222 222 222 0 0 0;#P flonum 253 144 38 9 0 0 0 3 0 0 0 221 221 221 222 222 222 0 0 0;#N vpatcher 40 55 421 239;#P window setfont "Sans Serif" 9.;#P flonum 30 95 58 9 0 0 0 3 0 0 0 221 221 221 222 222 222 0 0 0;#P flonum 223 95 58 9 0 0 0 3 0 0 0 221 221 221 222 222 222 0 0 0;#N comlet position in 0. to 1.;#P inlet 131 41 15 0;#P comment 147 41 90 196617 position in 0. to 1.;#P newex 223 71 121 196617 expr sin($f1*1.570796);#P newex 30 71 123 196617 expr cos($f1*1.570796);#N comlet left volume;#P outlet 30 120 15 0;#N comlet right volume;#P outlet 223 120 15 0;#P fasten 5 0 2 0 136 63 35 63;#P connect 2 0 7 0;#P connect 7 0 1 0;#P fasten 5 0 3 0 136 63 228 63;#P connect 3 0 6 0;#P connect 6 0 0 0;#P pop;#P newobj 253 169 31 196617 p pan;#B color 6;#N out 1;#P newobj 204 577 31 196617 out 1;#P newex 296 440 60 196617 prepend set;#P window linecount 0;#P message 296 464 99 196617;#P window linecount 1;#P newex 296 419 149 196617 r $1/buffer;#B color 11;#P newex 296 379 60 196617 prepend set;#P flonum 662 70 58 9 0 0 0 3 0 0 0 221 221 221 222 222 222 0 0 0;#P newex 642 30 71 196617 dspstate~;#P toggle 551 309 15 0;#P message 551 328 45 196617 mute \$1;#P newex 666 230 45 196617 loadbang;#P number 599 379 35 9 0 0 0 3 0 0 0 221 221 221 222 222 222 0 0 0;#P newex 599 357 50 196617 thispoly~;#B color 5;#P newex 19 49 590 196617 t l b;#P newex 19 515 40 196617 *~;#N out~ 2;#P newobj 62 577 35 196617 out~ 2;#N out~ 1;#P newobj 19 577 35 196617 out~ 1;#N in 1;#P newobj 19 25 25 196617 in 1;#P comment 422 131 35 196617 amp;#P window linecount 0;#P message 296 400 99 196617;#P window linecount 1;#P newex 296 358 155 196617 r $1/window;#B color 11;#P comment 266 131 23 196617 pan;#P comment 344 131 35 196617 speed;#P comment 115 131 45 196617 duration;#P newex 19 73 403 196617 unpack 0. 0. 0 0. 0. 0.;#P newex 79 232 27 196617 * 1.;#P newex 62 550 27 196617 *~;#P newex 19 550 27 196617 *~;#P newex 19 465 165 196617 play~ $2;#P newex 19 376 30 196617 line~;#P newex 62 252 27 196617 + 0.;#P message 19 357 54 196617 \$1 \, \$2 \$3;#P newex 19 334 96 196617 pack 0. 0. 0.;#P newex 36 405 91 196617 cycle~ grainwind1;#P newex 117 200 30 196617 line~;#P message 117 177 40 196617 0 \, 1 \$1;#P newex 19 486 27 196617 *~;#P comment 35 131 43 196617 position;#P window linecount 2;#P comment 189 163 41 196617 0= fwd \, 1=rev;#P connect 21 0 25 0;#P connect 25 0 14 0;#P connect 14 0 42 0;#P fasten 59 0 56 0 180 282 24 282;#P lcolor 13;#P connect 58 0 6 0;#P connect 56 0 6 0;#P connect 6 0 7 0;#P connect 7 0 9 0;#P connect 9 0 64 0;#P fasten 36 0 10 0 301 461 24 461;#P connect 64 0 10 0;#P connect 10 0 2 0;#P connect 2 0 24 0;#P connect 24 0 11 0;#P connect 11 0 22 0;#P fasten 33 0 5 0 301 398 41 398;#P connect 5 0 2 1;#P fasten 38 0 11 1 258 540 41 540;#P lcolor 13;#P connect 42 0 56 1;#P connect 56 1 58 0;#P fasten 40 0 24 1 414 461 54 461;#P connect 42 0 8 0;#P fasten 59 0 57 0 180 282 67 282;#P lcolor 13;#P connect 58 1 6 1;#P connect 57 0 6 1;#P fasten 24 0 12 0 24 535 67 535;#P connect 12 0 23 0;#P fasten 41 0 13 0 110 169 84 169;#P lcolor 7;#P connect 13 0 8 1;#P fasten 38 1 12 1 279 545 84 545;#P lcolor 13;#P connect 66 0 64 2;#P connect 8 0 57 1;#P connect 57 1 58 1;#P fasten 43 0 13 1 336 224 101 224;#P connect 14 1 54 0;#P connect 54 0 41 0;#P connect 41 0 6 2;#P lcolor 7;#P fasten 41 0 3 0 110 165 122 165;#P lcolor 7;#P connect 3 0 4 0;#P connect 4 0 5 1;#P fasten 55 0 54 1 623 148 548 148 548 99 127 99;#P lcolor 13;#P connect 14 2 60 0;#P connect 60 0 59 0;#P connect 14 3 39 0;#P connect 39 0 38 0;#P connect 65 0 66 0;#P connect 18 0 33 0;#P connect 33 0 19 0;#P connect 34 0 36 0;#P connect 36 0 35 0;#P connect 14 4 43 0;#P connect 14 5 40 0;#P connect 44 0 30 0;#P connect 45 1 30 0;#P connect 30 0 29 0;#P fasten 4 1 49 0 142 230 571 230;#P lcolor 7;#P connect 48 0 45 0;#P connect 47 0 45 0;#P connect 49 0 45 0;#P lcolor 7;#P fasten 52 0 49 1 667 169 588 169;#P lcolor 7;#P connect 25 1 44 0;#P connect 48 0 26 0;#P fasten 29 0 26 0 556 347 604 347;#P fasten 44 1 26 0 624 298 604 298;#P fasten 45 0 26 0 571 298 604 298;#P connect 26 0 27 0;#P fasten 52 0 55 0 667 146 653 146 653 124 623 124;#P connect 46 0 47 0;#P connect 31 1 32 0;#P connect 32 0 51 0;#P connect 51 0 53 0;#P connect 53 0 52 0;#P connect 28 0 48 0;#P connect 31 2 50 0;#P connect 50 0 51 1;#P pop;