max v2;#N vpatcher 40 55 832 420;#P origin 0 -21;#P window setfont "Sans Serif" 9.;#P window linecount 1;#P newex 239 48 322 196617 makeparam $1/ampdev% $2 f 0 0 100 1;#B color 13;#P newex 134 19 362 196617 makeparam $1/ampctr $2 f 1 0 1 1;#B color 13;#P comment 274 170 109 196617 contact@tommays.net;#P comment 274 157 100 196617 patch by Tom Mays;#P newex 29 141 48 196617 clip 0. 1.;#P newex 29 117 221 196617 ctr_dev%;#B color 6;#N comlet value out;#P outlet 29 168 15 0;#N comlet bang for new value;#P inlet 29 95 15 0;#P window linecount 2;#P comment 249 69 63 196617 amplitude deviation %;#P window linecount 3;#P comment 144 69 54 196617 amplitude center value;#P connect 2 0 4 0;#P connect 4 0 5 0;#P connect 5 0 3 0;#P connect 8 0 4 1;#P connect 9 0 4 2;#P pop;