max v2;#N vpatcher 40 55 744 323;#P origin 0 -25;#P window setfont "Sans Serif" 9.;#P window linecount 1;#P newex 164 20 318 196617 makeparam $1/durcoef $2 f 10 0 1000 1;#B color 13;#P newex 269 57 397 196617 makeparam $1/durcoefdev% $2 f 0 0 100 1;#B color 13;#P comment 283 215 109 196617 contact@tommays.net;#P comment 283 202 100 196617 patch by Tom Mays;#P newex 26 160 43 196617 * 1.;#P newex 26 97 43 196617 t f b;#P newex 26 182 102 196617 clip 5. 1073741824.;#P comment 134 184 30 196617 2^30;#P newex 59 125 221 196617 ctr_dev%;#B color 6;#N comlet value out;#P outlet 26 209 15 0;#N comlet current grain interval;#P inlet 26 76 15 0;#P window linecount 2;#P comment 279 77 67 196617 duration coef deviation %;#P comment 172 40 54 196617 duration coef;#P connect 2 0 7 0;#P connect 7 0 8 0;#P connect 8 0 6 0;#P connect 6 0 3 0;#P connect 7 1 4 0;#P connect 4 0 8 1;#P connect 12 0 4 1;#P connect 11 0 4 2;#P pop;