max v2;#N vpatcher 40 55 652 286;#P origin 0 -27;#P window setfont "Sans Serif" 9.;#P window linecount 1;#P newex 239 56 329 196617 makeparam $1/trspdev $2 f 0 0 100 1;#B color 13;#P newex 134 21 332 196617 makeparam $1/trspctr $2 f 0 -48 48 1;#B color 13;#P comment 273 139 109 196617 contact@tommays.net;#P comment 273 126 100 196617 patch by Tom Mays;#P newex 29 123 221 196617 ctr_devamt;#B color 6;#N comlet value out;#P outlet 29 174 15 0;#N comlet bang for new value;#P inlet 29 101 15 0;#P window linecount 2;#P comment 249 75 70 196617 transposition deviation amt;#P comment 144 75 66 196617 transposition center value;#P connect 2 0 4 0;#P connect 4 0 3 0;#P connect 7 0 4 1;#P connect 8 0 4 2;#P pop;