max v2;#N vpatcher 40 55 643 335;#P origin -64 -11;#P window setfont "Sans Serif" 9.;#P window linecount 1;#P newex 119 37 422 196617 makeparam $1/rvrs% $2 f 0 0 100 1;#B color 13;#P comment 212 187 109 196617 contact@tommays.net;#P comment 212 174 100 196617 patch by Tom Mays;#P flonum 119 79 33 9 0 0 0 3 0 0 0 221 221 221 222 222 222 0 0 0;#P window linecount 2;#P comment 177 120 41 196617 0= fwd \, 1=rev;#P window linecount 1;#P newex 93 131 27 196617 1;#P newex 145 131 27 196617 0;#P newex 93 108 62 196617 oddsf 0 100;#N comlet value out;#P outlet 93 158 15 0;#N comlet bang for new value;#P inlet 93 85 15 0;#P window linecount 3;#P comment 159 68 63 196617 % of time will play in reverse;#P connect 1 0 3 0;#P connect 3 0 5 0;#P connect 5 0 2 0;#P connect 4 0 2 0;#P connect 10 0 7 0;#P connect 7 0 3 1;#P connect 3 1 4 0;#P pop;