max v2;#N vpatcher 596 213 1263 737;#P window setfont "Sans Serif" 9.;#P window linecount 1;#P newex 303 415 29 196617 * 1.;#P newex 511 345 40 196617 t b b 0;#P newex 459 345 40 196617 t b b 1;#P flonum 489 392 35 9 0 0 0 3 0 0 0 221 221 221 222 222 222 0 0 0;#P button 511 324 15 0;#P button 478 324 15 0;#P newex 496 300 41 196617 sel 0 1;#P toggle 496 281 15 0;#P newex 496 260 143 196617 r $1/posdevmode;#B color 4;#P newex 370 335 29 196617 t b f;#P message 348 457 38 196617 set \$1;#P newex 348 436 51 196617 + 0.;#P message 262 457 38 196617 set \$1;#P newex 262 436 51 196617 - 0.;#P newex 370 267 101 196617 r $1/posdev;#B color 4;#P newex 262 266 99 196617 r $1/posctr;#B color 4;#P newex 348 476 79 196617 s $1/i4;#B color 11;#P newex 262 476 79 196617 s $1/i3;#B color 11;#N vpatcher 40 55 278 404;#P window setfont "Sans Serif" 9.;#P newex 96 202 27 196617 int;#N coll ;#T flags 1 0;#T 0 mode select;#T 1 mode loop;#T 2 mode move;#T 3 mode draw;#P newobj 131 255 53 196617 coll;#P button 75 117 15 0;#N comlet waveform~ mode messages;#P inlet 74 164 15 0;#P newex 113 88 27 196617 << 1;#P newex 96 140 40 196617 change;#P newex 96 164 45 196617 select 0;#P newex 96 117 27 196617 |;#P outlet 131 284 15 0;#P newex 45 62 78 196617 modifiers 100;#P connect 5 0 7 0;#P connect 0 3 2 0;#P connect 7 0 2 0;#P connect 2 0 4 0;#P connect 4 0 3 0;#P connect 3 0 9 0;#P connect 6 0 9 0;#P connect 0 4 5 0;#P connect 5 0 2 1;#P connect 9 0 8 0;#P connect 3 1 8 0;#P connect 8 0 1 0;#P pop;#P newobj 393 101 50 196617 p wfkeys;#P newex 393 128 79 196617 s $1/i1;#B color 11;#P newex 22 333 51 196617 bondo 2 1;#P newex 111 333 51 196617 bondo 2 1;#P newex 183 224 107 196617 r $1/zoomout;#B color 11;#P newex 22 112 103 196617 r $1/closeup;#B color 11;#P window linecount 2;#P message 72 189 114 196617 \; $1/zoomout \$1;#P number 183 249 35 9 1 0 1 3 0 0 0 221 221 221 222 222 222 0 0 0;#P window linecount 1;#P newex 22 157 60 196617 t b 2;#P button 22 137 15 0;#P newex 22 230 99 196617 zl reg;#P newex 183 298 27 196617 * 2;#P newex 183 271 35 196617 * 500;#P newex 289 32 81 196617 r $1/o4;#B color 11;#P newex 111 31 81 196617 r $1/o3;#B color 11;#P newex 111 364 51 196617 + 2000;#P newex 22 364 51 196617 - 1000.;#P newex 111 386 79 196617 s $1/i2;#B color 11;#P newex 22 386 79 196617 s $1/i1;#B color 11;#P newex 111 72 40 196617 t f f f;#P newex 111 162 52 196617 pack 0. 0.;#P newex 271 116 33 196617 * 0.5;#P newex 271 90 28 196617 !- 0.;#P flonum 271 160 71 9 0 0 0 3 0 0 0 221 221 221 222 222 222 0 0 0;#P newex 184 140 27 196617 + 0.;#P newex 22 251 75 196617 unpack 0. 0.;#P newex 291 183 101 196617 s $1/posdev;#B color 4;#P newex 184 181 99 196617 s $1/posctr;#B color 4;#P flonum 184 160 71 9 0 0 0 3 0 0 0 221 221 221 222 222 222 0 0 0;#P flonum 289 53 71 9 0 0 0 3 0 0 0 221 221 221 222 222 222 0 0 0;#P flonum 111 53 71 9 0 0 0 3 0 0 0 221 221 221 222 222 222 0 0 0;#P connect 25 0 21 0;#P connect 21 0 22 0;#P connect 22 0 20 0;#P connect 20 0 5 0;#P connect 5 0 28 0;#P connect 28 0 14 0;#P connect 14 0 12 0;#P connect 18 0 28 1;#P connect 28 1 14 1;#P connect 22 1 24 0;#P connect 16 0 0 0;#P connect 0 0 11 0;#P connect 11 0 10 0;#P connect 10 0 20 1;#P connect 5 1 27 0;#P connect 27 0 15 0;#P connect 15 0 13 0;#P connect 19 0 27 1;#P connect 27 1 15 1;#P fasten 8 0 10 1 276 112 158 112;#P connect 26 0 23 0;#P connect 23 0 18 0;#P connect 18 0 19 0;#P connect 11 1 6 0;#P connect 6 0 2 0;#P connect 2 0 3 0;#P fasten 9 0 6 1 276 136 206 136;#P fasten 46 0 35 0 464 375 267 375;#P lcolor 2;#P fasten 47 0 35 0 516 375 267 375;#P lcolor 2;#P connect 39 0 35 0;#P connect 33 0 35 0;#P connect 35 0 36 0;#P connect 36 0 31 0;#P connect 11 2 8 0;#P connect 8 0 9 0;#P connect 9 0 7 0;#P connect 17 0 1 0;#P connect 1 0 8 1;#P connect 7 0 4 0;#P connect 39 1 48 0;#P fasten 47 1 48 0 531 383 308 383;#P lcolor 7;#P fasten 46 1 48 0 479 383 308 383;#P lcolor 7;#P connect 48 0 35 1;#P fasten 45 0 48 1 494 411 327 411;#P lcolor 12;#P connect 46 0 37 0;#P connect 47 0 37 0;#P connect 39 0 37 0;#P connect 33 0 37 0;#P connect 37 0 38 0;#P connect 38 0 32 0;#P connect 34 0 39 0;#P connect 39 1 37 1;#P connect 30 0 29 0;#P connect 43 0 46 0;#P connect 42 0 43 0;#P connect 47 2 45 0;#P connect 46 2 45 0;#P connect 40 0 41 0;#P connect 41 0 42 0;#P connect 42 1 44 0;#P connect 44 0 47 0;#P pop;