max v2;#N vpatcher 40 55 770 340;#P origin 0 -40;#P window setfont "Sans Serif" 9.;#P window linecount 1;#P newex 239 103 40 196617 / 200.;#P newex 239 53 422 196617 makeparam $1/pandevamt $2 f 0 0 100 1;#B color 13;#P newex 134 26 363 196617 makeparam $1/panctr $2 f 0.5 0 1 1;#B color 13;#P comment 278 193 109 196617 contact@tommays.net;#P comment 278 180 100 196617 patch by Tom Mays;#P newex 29 160 48 196617 clip 0. 1.;#P newex 29 136 221 196617 ctr_devamt;#B color 6;#N comlet value out;#P outlet 29 187 15 0;#N comlet bang for new value;#P inlet 29 114 15 0;#P comment 249 88 85 196617 pan deviation amt;#P window linecount 2;#P comment 144 88 54 196617 pan center value;#P connect 2 0 4 0;#P connect 4 0 5 0;#P connect 5 0 3 0;#P connect 8 0 4 1;#P connect 9 0 10 0;#P connect 10 0 4 2;#P pop;