max v2;#N vpatcher 270 44 551 870;#P hidden inlet 469 816 15 0;#P button 81 816 15 0;#P window setfont "Sans Serif" 9.;#P window linecount 1;#P comment 99 816 39 196617 delete;#P button 15 816 15 0;#P comment 32 816 31 196617 build;#P hidden newex 268 815 128 196617 editorwindow /gran /tape;#B color 6;#N thispatcher;#Q end;#P hidden newobj 403 815 61 196617 thispatcher;#P window linecount 0;#P comment 2376 0 100 196617;#P window linecount 1;#P hidden newex 143 815 111 196617 t_edit-builder gran 10;#B color 6;#P window linecount 0;#P comment 1 0 100 196617;#P hidden connect 6 0 1 0;#P hidden connect 8 0 1 1;#P hidden connect 3 0 4 0;#P hidden connect 1 0 3 0;#P hidden connect 4 0 3 0;#P pop;