max v2;#N vpatcher 20 44 776 311;#P origin 11 -52;#P window setfont "Sans Serif" 9.;#P window linecount 1;#P comment 446 131 31 196617 new!;#B frgb 255 0 0;#P window linecount 4;#P comment 596 146 120 196617 arg 1 : prefix name \; arg 2 : buffer length \; arg 3 : buffer name \; arg 4 : number of voices;#P window linecount 3;#P comment 446 146 120 196617 arg 1 : prefix name \; arg 2 : buffer length \; arg 3 : number of voices;#P window linecount 1;#P comment 596 131 24 196617 old!;#B frgb 255 0 0;#P comment 519 222 109 196617 contact@tommays.net;#P comment 519 209 100 196617 patch by Tom Mays;#P newex 97 158 155 196617 send $1/out~;#B color 4;#P window setfont Times 9.;#P newex 65 62 133 1310729 s $1in/meter~;#B color 4;#P window setfont "Sans Serif" 9.;#P newex 97 136 52 196617 *~ 0.707;#P newex 295 187 121 196617 send $1R/out~;#B color 4;#P newex 26 187 120 196617 send $1L/out~;#B color 4;#P window linecount 2;#P message 569 93 121 196617 \; $1/recreset bang;#P message 587 61 83 196617 \; $1/rec 0;#P message 569 30 83 196617 \; $1/rec 1;#P message 448 61 105 196617 \; $1/tobuf open;#P message 448 30 118 196617 \; $1/tobuf replace;#P message 448 93 114 196617 \; $1/display bang;#P window linecount 1;#P newex 26 95 279 196617 poly~ t_gran_ 1 args $1 $2 $3;#B color 6;#P newex 26 31 156 196617 receive~ $1/in~;#B color 4;#P comment 337 97 83 196617 gran 60000 20;#P connect 1 0 2 0;#P connect 2 0 9 0;#P connect 1 0 12 0;#P connect 2 1 11 0;#P connect 2 0 11 0;#P connect 11 0 13 0;#P connect 2 1 10 0;#P pop;