max v2;#N vpatcher 30 49 696 240;#P window setfont "Sans Serif" 9.;#P comment 522 148 109 196617 contact@tommays.net;#P inlet 529 53 15 0;#P newex 529 73 74 196617 s $1/o6;#B color 11;#P inlet 430 53 15 0;#P newex 430 73 74 196617 s $1/o5;#B color 11;#P outlet 430 122 15 0;#P newex 430 100 72 196617 r $1/i5;#B color 11;#P inlet 331 53 15 0;#P newex 331 73 74 196617 s $1/o4;#B color 11;#P outlet 331 122 15 0;#P newex 331 100 72 196617 r $1/i4;#B color 11;#P inlet 232 53 15 0;#P newex 232 73 74 196617 s $1/o3;#B color 11;#P outlet 232 122 15 0;#P newex 232 100 72 196617 r $1/i3;#B color 11;#P inlet 133 53 15 0;#P newex 133 73 74 196617 s $1/o2;#B color 11;#P outlet 133 122 15 0;#P newex 133 100 72 196617 r $1/i2;#B color 11;#P inlet 34 53 15 0;#P newex 34 73 74 196617 s $1/o1;#B color 11;#P outlet 34 122 15 0;#P newex 34 100 72 196617 r $1/i1;#B color 11;#P comment 522 135 100 196617 patch by Tom Mays;#P connect 4 0 3 0;#P connect 1 0 2 0;#P connect 8 0 7 0;#P connect 5 0 6 0;#P connect 12 0 11 0;#P connect 9 0 10 0;#P connect 16 0 15 0;#P connect 13 0 14 0;#P connect 20 0 19 0;#P connect 17 0 18 0;#P connect 22 0 21 0;#P pop;