max v2;#N vpatcher 37 129 742 477;#P window setfont "Sans Serif" 9.;#P flonum 369 52 54 9 0 0 0 3 0 0 0 221 221 221 222 222 222 0 0 0;#P window linecount 1;#P comment 560 27 49 196617 flat bang;#N comlet bang to make flat;#P inlet 544 27 15 0;#P button 544 45 15 0;#P newex 544 63 134 196617 t lowpass 1 22050 0 0.707;#N comlet type;#P inlet 43 27 15 0;#P comment 59 27 30 196617 type;#N comlet gain enable;#P inlet 152 27 15 0;#P comment 168 27 59 196617 gain enable;#N comlet freq;#P inlet 269 27 15 0;#P comment 285 27 29 196617 freq;#P comment 495 27 13 196617 q;#N comlet gain;#P inlet 369 27 15 0;#N comlet q;#P inlet 479 27 15 0;#P outlet 12 308 15 0;#N comlet sig in;#P inlet 12 202 15 0;#P newex 12 280 79 196617 biquad~;#P toggle 152 110 15 0;#P message 152 131 64 196617 gainmode \$1;#P comment 243 271 27 196617 q;#P comment 187 271 27 196617 gain;#P flonum 174 254 54 9 0 0 0 3 0 0 0 221 221 221 222 222 222 0 0 0;#P flonum 230 254 54 9 0 0 0 3 0 0 0 221 221 221 222 222 222 0 0 0;#P flonum 118 254 54 9 0 0 0 3 0 0 0 221 221 221 222 222 222 0 0 0;#P window setfont Times 9.;#P newex 369 132 95 1310729 expr pow(10\\\,($f1/10));#P window setfont "Sans Serif" 9.;#P flonum 369 153 54 9 0 0 0 3 0 0 0 221 221 221 222 222 222 0 0 0;#P flonum 479 153 54 9 0 0 0 3 0 0 0 221 221 221 222 222 222 0 0 0;#P newex 12 256 79 196617 biquad~;#P newex 43 93 78 196617 prepend symbol;#P flonum 269 110 54 9 0 0 0 3 0 0 0 221 221 221 222 222 222 0 0 0;#P user umenu 43 140 70 196647 1 64 156 0;#X add display;#X add lowpass;#X add highpass;#X add bandpass;#X add bandstop;#X add peaknotch;#X add lowshelf;#X add highshelf;#X add resonant;#X add allpass;#P comment 50 126 69 196617 filter modes:;#P window setfont Helvetica 9.;#P user filtergraph~ 103 188 100 50 21 9 20. 22050. 0.0625 16. 0 1 1 0 0 1 1;#X frgb 170 170 170;#X brgb 210 210 210;#X rgb2 0 0 0;#X rgb3 130 130 130;#X rgb4 0 0 0;#X rgb5 118 121 166;#X rgb6 122 74 74;#X rgb7 255 22 22;#X linmarkers 5512.5 11025. 16537.5;#X logmarkers 50. 500. 5000.;#X nfilters 1;#X setfilter 0 1 0 0 0 19845. 1. 0.707 30. 19845. 0.0625 16. 0.5 25.;#X done;#P window setfont "Sans Serif" 9.;#P comment 131 271 27 196617 freq;#P comment 385 27 50 196617 gain (dB);#P connect 19 0 7 0;#P connect 7 0 18 0;#P connect 18 0 20 0;#P fasten 2 0 7 1 108 248 30 248;#P fasten 2 0 18 1 108 276 30 276;#P connect 29 0 6 0;#P connect 30 0 6 0;#P connect 6 0 4 0;#P connect 4 1 2 0;#P fasten 16 0 2 0 157 165 108 165;#P connect 2 1 11 0;#P connect 27 0 17 0;#P connect 30 1 17 0;#P connect 17 0 16 0;#P fasten 5 0 2 5 274 171 168 171;#P fasten 2 2 13 0 138 248 179 248;#P fasten 9 0 2 6 374 177 180 177;#P fasten 8 0 2 7 484 183 192 183;#P fasten 2 3 12 0 153 243 235 243;#P connect 25 0 5 0;#P connect 30 2 5 0;#P connect 22 0 34 0;#P connect 34 0 10 0;#P connect 30 3 10 0;#P connect 10 0 9 0;#P connect 21 0 8 0;#P connect 30 4 8 0;#P connect 32 0 31 0;#P connect 31 0 30 0;#P pop;