max v2;#N vpatcher 100 116 1019 596;#P button 364 209 15 0;#P window setfont "Sans Serif" 9.;#P window linecount 1;#P newex 335 363 146 196617 s $1/spat/init;#B color 11;#P newex 51 308 252 196617 makeparam $1/vol $1 f 1 0 2 1;#B color 13;#P newex 611 223 262 196617 makeswitch $1/sw $1 tape_switchstate;#B color 13;#P newex 498 115 250 196617 makeparam $1/q $1 f 0.707 0.5 25 1;#B color 13;#P newex 385 94 244 196617 makeparam $1/gain $1 f 0 -24 24 1;#B color 13;#P newex 229 73 282 196617 makeparam $1/freq $1 f 22050 20 22050 1;#B color 13;#P newex 152 50 245 196617 makeparam $1/gainenable $1 t 0 0 1;#B color 13;#P newex 43 27 233 196617 makeparam $1/type $1 s lowpass;#B color 13;#P window setfont Times 9.;#P window linecount 2;#P message 521 408 59 1310729 \; $1/volrand 0;#P message 312 407 171 1310729 \; $1/volrand 1 0.8 1. 3000 5000 50 100 1 4;#P toggle 73 413 15 0;#P window linecount 1;#P newex 90 412 208 1310729 proc-randtransf0 $1/volrand $1/vol 2;#B color 6;#P window setfont "Sans Serif" 9.;#P flonum 65 334 35 9 0. 2. 3 3 0 0 0 221 221 221 222 222 222 0 0 0;#P newex 12 333 49 196617 t_vol~ 2;#B color 6;#P window setfont Times 9.;#P newex 242 376 73 1310729 s $1/q;#B color 11;#P newex 156 376 82 1310729 s $1/vol;#B color 11;#P newex 242 355 41 1310729 r /filts/q;#B color 11;#P newex 156 355 50 1310729 r /filts/vol;#B color 11;#P window setfont "Sans Serif" 9.;#P window linecount 2;#P comment 102 362 50 196617 param groupings;#P comment 587 352 107 196617 patch by Tom Mays contact@tommays.net;#P window linecount 1;#P newex 611 268 31 196617 == 0;#P window setfont Times 9.;#N out~ 1;#P newobj 12 365 33 1310729 out~ 1;#N in~ 1;#P newobj 12 190 29 1310729 in~ 1;#P window setfont "Sans Serif" 9.;#P newex 611 307 50 196617 thispoly~;#B color 5;#P toggle 611 249 15 0;#P message 611 288 45 196617 mute \$1;#P window setfont Times 9.;#P newex 468 207 85 1310729 s $1/init;#B color 11;#P newex 468 184 51 1310729 r /tape/init;#B color 11;#P window setfont "Sans Serif" 9.;#P newex 103 284 146 196617 s $1/coefs;#B color 11;#P toggle 152 100 15 0;#P message 152 121 64 196617 gainmode \$1;#P comment 243 261 27 196617 q;#P comment 187 261 27 196617 gain;#P flonum 174 244 54 9 0 0 0 3 0 0 0 221 221 221 222 222 222 0 0 0;#P flonum 230 244 54 9 0 0 0 3 0 0 0 221 221 221 222 222 222 0 0 0;#P flonum 118 244 54 9 0 0 0 3 0 0 0 221 221 221 222 222 222 0 0 0;#P window setfont Times 9.;#P newex 385 122 99 1310729 expr pow(10\\\,($f1/20));#P window setfont "Sans Serif" 9.;#P flonum 385 143 54 9 0 0 0 3 0 0 0 221 221 221 222 222 222 0 0 0;#P flonum 498 143 54 9 0 0 0 3 0 0 0 221 221 221 222 222 222 0 0 0;#P newex 364 187 89 196617 r $1/init;#B color 11;#P window linecount 10;#P message 364 232 198 196617 \; $1/volrand 0 \; $1/sw/init bang \; $1/type/init bang \; $1/gainenable/init bang \; $1/freq/init bang \; $1/gain/init bang \; $1/q/init bang \; $1/vol/init bang \; module_register $1 \;;#P window linecount 1;#P newex 12 246 79 196617 biquad~;#P newex 43 83 78 196617 prepend symbol;#P flonum 229 143 54 9 0 0 0 3 0 0 0 221 221 221 222 222 222 0 0 0;#P user umenu 43 130 70 196647 1 64 146 0;#X add display;#X add lowpass;#X add highpass;#X add bandpass;#X add bandstop;#X add peaknotch;#X add lowshelf;#X add highshelf;#X add resonant;#X add allpass;#P comment 50 116 75 196617 filter modes:;#P window setfont Helvetica 9.;#P user filtergraph~ 103 178 100 50 21 9 20. 22050. 0.0625 16. 0 1 1 0 0 1 1;#X frgb 170 170 170;#X brgb 210 210 210;#X rgb2 0 0 0;#X rgb3 130 130 130;#X rgb4 0 0 0;#X rgb5 118 121 166;#X rgb6 122 74 74;#X rgb7 255 22 22;#X linmarkers 5512.5 11025. 16537.5;#X logmarkers 50. 500. 5000.;#X nfilters 1;#X setfilter 0 1 0 0 0 19845. 1. 0.707 30. 19845. 0.0625 16. 0.5 25.;#X done;#P window setfont "Sans Serif" 9.;#P comment 131 261 27 196617 freq;#P connect 25 0 6 0;#P connect 6 0 34 0;#P connect 34 0 26 0;#P fasten 1 0 6 1 108 238 30 238;#P connect 40 0 5 0;#P connect 5 0 3 0;#P connect 35 0 34 1;#P connect 46 0 34 1;#P connect 34 1 35 0;#P hidden connect 36 0 37 0;#P connect 3 1 1 0;#P fasten 17 0 1 0 157 155 108 155;#P connect 1 0 19 0;#P connect 1 1 12 0;#P connect 41 0 18 0;#P connect 18 0 17 0;#P connect 30 0 32 0;#P fasten 4 0 1 5 234 161 168 161;#P fasten 1 2 14 0 138 238 179 238;#P fasten 10 0 1 6 390 167 180 167;#P fasten 9 0 1 7 503 173 192 173;#P connect 42 0 4 0;#P fasten 1 3 13 0 153 233 235 233;#P connect 31 0 33 0;#P fasten 48 0 47 0 369 228 340 228;#P connect 8 0 48 0;#P connect 48 0 7 0;#P connect 43 0 11 0;#P connect 11 0 10 0;#P connect 20 0 21 0;#P connect 44 0 9 0;#P connect 45 0 23 0;#P connect 23 0 27 0;#P connect 27 0 22 0;#P connect 22 0 24 0;#P pop;