max v2;#N vpatcher 737 57 1378 605;#P window setfont Times 9.;#P window linecount 1;#P comment 18 105 21 1310729 /vol;#B frgb 0 0 200;#P window setfont "Sans Serif" 9.;#P newex 88 476 132 196617 variedit $1/vol $1;#B color 11;#P window setfont Times 9.;#P newex 88 496 42 1310729 pvar vol;#P flonum 39 105 30 9 0. 2. 3 20 0 0 0 221 221 221 222 222 222 0 0 0;#P objectname vol;#P window setfont "Sans Serif" 9.;#P comment 277 31 117 196617 bpat bkgnd = 256 X 124;#P comment 277 50 119 196617 bpat editor = 258 X 126;#P message 180 394 64 196617 gainmode \$1;#P newex 88 349 164 196617 variedit $1/gainenable $1;#B color 11;#P window setfont Times 9.;#P newex 88 370 69 1310729 pvar gainenable;#P window setfont "Sans Serif" 9.;#P newex 165 370 40 196617 t 1 i 0;#P window setfont Times 9.;#P comment 52 56 52 1310729 /gainenable;#B frgb 0 0 200;#P toggle 40 56 13 0;#P objectname gainenable;#P flonum 441 358 42 9 0.0625 16. 3 20 0 0 0 221 221 221 222 222 222 0 0 0;#P newex 426 374 86 1310729 expr 20*log10($f1);#P newex 120 322 99 1310729 expr pow(10\\\,($f1/20));#P comment 26 87 14 1310729 /q;#B frgb 0 0 200;#P flonum 40 87 42 9 0.5 25. 3 20 0 0 0 221 221 221 222 222 222 0 0 0;#P objectname q;#P window setfont "Sans Serif" 9.;#P newex 90 277 153 196617 variedit $1/gain $1;#B color 11;#P window setfont Times 9.;#P newex 90 298 44 1310729 pvar gain;#P window setfont "Sans Serif" 9.;#P newex 161 298 40 196617 t 1 f 0;#P newex 426 412 94 196617 s $1/gain;#B color 11;#P window setfont Times 9.;#P flonum 426 395 42 9 -12. 12. 3 20 0 0 0 221 221 221 222 222 222 0 0 0;#P window setfont "Sans Serif" 9.;#P newex 426 296 43 196617 t b f;#P newex 426 316 30 196617 del 1;#P newex 426 336 43 196617 zl reg;#P newex 426 275 47 196617 gate 1 1;#P newex 89 167 106 196617 variedit $1/type $1;#B color 11;#P newex 524 374 81 196617 s $1/q;#B color 11;#P window setfont Times 9.;#P flonum 524 357 42 9 0.5 25. 3 20 0 0 0 221 221 221 222 222 222 0 0 0;#P window setfont "Sans Serif" 9.;#P newex 524 296 43 196617 t b f;#P newex 524 316 30 196617 del 1;#P newex 524 336 43 196617 zl reg;#P newex 328 374 95 196617 s $1/freq;#B color 11;#P window setfont Times 9.;#P flonum 328 357 42 9 30. 19845. 3 20 0 0 0 221 221 221 222 222 222 0 0 0;#P window setfont "Sans Serif" 9.;#P newex 328 296 43 196617 t b f;#P newex 328 316 30 196617 del 1;#P newex 328 336 43 196617 zl reg;#P newex 88 417 158 196617 variedit $1/q $1;#B color 11;#P newex 524 275 47 196617 gate 1 1;#P newex 328 275 47 196617 gate 1 1;#P newex 90 223 167 196617 variedit $1/freq $1;#B color 11;#P window setfont Times 9.;#P newex 493 223 106 1310729 pvar graph 7;#P comment 16 20 25 1310729 /type;#B frgb 0 0 200;#P newex 89 190 51 1310729 pvar type 2;#P comment 15 69 30 1310729 /gain;#B frgb 0 0 200;#P flonum 40 69 42 9 -24. 24. 3 20 0 0 0 221 221 221 222 222 222 0 0 0;#P objectname gain;#P newex 88 437 31 1310729 pvar q;#P newex 90 243 41 1310729 pvar freq;#P flonum 40 38 42 9 20. 20000. 3 20 0 0 0 221 221 221 222 222 222 0 0 0;#P objectname freq;#P window setfont "Sans Serif" 9.;#P newex 185 188 40 196617 t 1 s 0;#P newex 328 223 18 196617 t i;#P newex 162 438 40 196617 t 1 f 0;#P newex 168 244 40 196617 t 1 f 0;#P window setfont Times 9.;#P user umenu 40 19 69 1310759 1 64 34 0;#X add display;#X add lowpass;#X add highpass;#X add bandpass;#X add bandstop;#X add peaknotch;#X add lowshelf;#X add highshelf;#P objectname type;#P window setfont Helvetica 9.;#P user filtergraph~ 112 36 140 70 21 9 20. 22050. 0.0625 16. 0 1 1 0 0 1 1;#X frgb 170 170 170;#X brgb 210 210 210;#X rgb2 0 0 0;#X rgb3 130 130 130;#X rgb4 0 0 0;#X rgb5 118 121 166;#X rgb6 122 74 74;#X rgb7 255 22 22;#X linmarkers 5512.5 11025. 16537.5;#X logmarkers 50. 500. 5000.;#X nfilters 1;#X setfilter 0 1 1 0 0 19845. 1. 0.707 20. 20000. 0.0625 16. 0.5 25.;#X done;#P objectname graph;#P window setfont Times 9.;#P comment 18 38 22 1310729 /freq;#B frgb 0 0 200;#P window setfont "Sans Serif" 9.;#N thispatcher;#Q end;#P newobj 1 145 61 196617 thispatcher;#P bpatcher 1 1 256 124 0 0 bkgnd2.mxt 0 $1 0 1;#P objectname background;#P hidden connect 0 0 1 0;#P fasten 49 0 50 0 93 391 83 391 83 344 93 344;#P connect 50 0 49 0;#P fasten 11 0 20 0 93 458 83 458 83 412 93 412;#P connect 20 0 11 0;#P fasten 55 0 56 0 93 517 83 517 83 471 93 471;#P connect 56 0 55 0;#P fasten 14 1 31 0 135 211 82 211 82 163 94 163;#P connect 31 0 14 0;#P fasten 10 0 17 0 95 264 85 264 85 218 95 218;#P connect 17 0 10 0;#P fasten 39 0 40 0 95 318 85 318 85 272 95 272;#P connect 40 0 39 0;#P hidden connect 8 1 3 0;#P lcolor 13;#P hidden connect 51 0 3 0;#P lcolor 13;#P fasten 38 1 43 0 181 319 125 319;#P connect 40 1 38 0;#P connect 20 1 6 0;#P connect 50 1 48 0;#P connect 17 1 5 0;#P connect 48 1 51 0;#P connect 31 1 8 0;#P hidden connect 5 1 3 5;#P lcolor 7;#P hidden connect 43 0 3 6;#P lcolor 6;#P hidden connect 6 1 3 7;#P lcolor 5;#P connect 38 0 7 0;#P lcolor 1;#P connect 38 2 7 0;#P lcolor 1;#P connect 6 2 7 0;#P lcolor 1;#P connect 6 0 7 0;#P lcolor 1;#P connect 5 0 7 0;#P lcolor 1;#P connect 5 2 7 0;#P lcolor 1;#P connect 8 0 7 0;#P lcolor 1;#P connect 8 2 7 0;#P lcolor 1;#P connect 48 2 7 0;#P lcolor 1;#P connect 48 0 7 0;#P lcolor 1;#P connect 7 0 18 0;#P connect 18 0 23 0;#P connect 23 0 22 0;#P connect 22 0 21 0;#P connect 21 0 24 0;#P connect 24 0 25 0;#P connect 23 1 21 1;#P connect 16 1 18 1;#P connect 7 0 32 0;#P connect 32 0 35 0;#P connect 35 0 34 0;#P connect 34 0 33 0;#P connect 33 0 44 0;#P connect 44 0 36 0;#P connect 36 0 37 0;#P connect 33 0 45 0;#P connect 35 1 33 1;#P connect 16 2 32 1;#P connect 7 0 19 0;#P connect 19 0 28 0;#P connect 28 0 27 0;#P connect 27 0 26 0;#P connect 26 0 29 0;#P connect 29 0 30 0;#P connect 28 1 26 1;#P connect 16 3 19 1;#P pop;