max v2;#N vpatcher 8 300 335 556;#P window setfont "Sans Serif" 9.;#P number 20 98 35 9 0 0 0 3 0 0 0 221 221 221 222 222 222 0 0 0;#P newex 20 74 27 196617 + 1;#P newex 20 129 75 196617 gate~ 2;#P inlet 85 74 15 0;#P newex 20 44 91 196617 r $1/sw;#B color 11;#P outlet 85 200 15 0;#P newex 85 157 197 196617 poly~ t_filter1_ 1 args $1;#B color 6;#P window linecount 2;#P comment 163 193 107 196617 patch by Tom Mays contact@tommays.net;#P window linecount 1;#P comment 21 24 132 196617 arg 1 : module prefix name;#P connect 4 0 7 0;#P connect 7 0 8 0;#P connect 8 0 6 0;#P connect 5 0 6 1;#P connect 6 1 2 0;#P connect 2 0 3 0;#P fasten 6 0 3 0 25 185 90 185;#P pop;