max v2;#N vpatcher 737 57 1378 605;#P window setfont Times 9.;#P window linecount 1;#P comment 17 104 21 1310729 /vol;#B frgb 0 0 200;#P window setfont "Sans Serif" 9.;#P newex 87 475 132 196617 variedit $1/vol $1;#B color 11;#P window setfont Times 9.;#P newex 87 495 42 1310729 pvar vol;#P flonum 38 104 30 9 0. 2. 3 20 0 0 0 221 221 221 222 222 222 0 0 0;#P objectname vol;#P window setfont "Sans Serif" 9.;#P comment 276 30 117 196617 bpat bkgnd = 256 X 124;#P comment 276 49 119 196617 bpat editor = 258 X 126;#P message 179 393 64 196617 gainmode \$1;#P newex 87 348 164 196617 variedit $1/gainenable $1;#B color 11;#P window setfont Times 9.;#P newex 87 369 69 1310729 pvar gainenable;#P window setfont "Sans Serif" 9.;#P newex 164 369 40 196617 t 1 i 0;#P window setfont Times 9.;#P comment 51 55 52 1310729 /gainenable;#B frgb 0 0 200;#P toggle 39 55 13 0;#P objectname gainenable;#P flonum 440 357 42 9 0.0625 16. 3 20 0 0 0 221 221 221 222 222 222 0 0 0;#P newex 425 373 86 1310729 expr 20*log10($f1);#P newex 119 321 99 1310729 expr pow(10\\\,($f1/20));#P comment 25 86 14 1310729 /q;#B frgb 0 0 200;#P flonum 39 86 42 9 0.01 25. 3 20 0 0 0 221 221 221 222 222 222 0 0 0;#P objectname q;#P window setfont "Sans Serif" 9.;#P newex 89 276 153 196617 variedit $1/gain $1;#B color 11;#P window setfont Times 9.;#P newex 89 297 44 1310729 pvar gain;#P window setfont "Sans Serif" 9.;#P newex 160 297 40 196617 t 1 f 0;#P newex 425 411 94 196617 s $1/gain;#B color 11;#P window setfont Times 9.;#P flonum 425 394 42 9 -12. 12. 3 20 0 0 0 221 221 221 222 222 222 0 0 0;#P window setfont "Sans Serif" 9.;#P newex 425 295 43 196617 t b f;#P newex 425 315 30 196617 del 1;#P newex 425 335 43 196617 zl reg;#P newex 425 274 47 196617 gate 1 1;#P newex 88 166 106 196617 variedit $1/type $1;#B color 11;#P newex 523 373 81 196617 s $1/q;#B color 11;#P window setfont Times 9.;#P flonum 523 356 42 9 0 0 0 20 0 0 0 221 221 221 222 222 222 0 0 0;#P window setfont "Sans Serif" 9.;#P newex 523 295 43 196617 t b f;#P newex 523 315 30 196617 del 1;#P newex 523 335 43 196617 zl reg;#P newex 327 373 95 196617 s $1/freq;#B color 11;#P window setfont Times 9.;#P flonum 327 356 42 9 30. 19845. 3 20 0 0 0 221 221 221 222 222 222 0 0 0;#P window setfont "Sans Serif" 9.;#P newex 327 295 43 196617 t b f;#P newex 327 315 30 196617 del 1;#P newex 327 335 43 196617 zl reg;#P newex 87 416 158 196617 variedit $1/q $1;#B color 11;#P newex 523 274 47 196617 gate 1 1;#P newex 327 274 47 196617 gate 1 1;#P newex 89 222 167 196617 variedit $1/freq $1;#B color 11;#P window setfont Times 9.;#P newex 492 222 106 1310729 pvar graph 7;#P comment 15 19 25 1310729 /type;#B frgb 0 0 200;#P newex 88 189 51 1310729 pvar type 2;#P comment 14 68 30 1310729 /gain;#B frgb 0 0 200;#P flonum 39 68 42 9 -24. 24. 3 20 0 0 0 221 221 221 222 222 222 0 0 0;#P objectname gain;#P newex 87 436 31 1310729 pvar q;#P newex 89 242 41 1310729 pvar freq;#P flonum 39 37 42 9 20. 20000. 3 20 0 0 0 221 221 221 222 222 222 0 0 0;#P objectname freq;#P window setfont "Sans Serif" 9.;#P newex 184 187 40 196617 t 1 s 0;#P newex 327 222 18 196617 t i;#P newex 161 437 40 196617 t 1 f 0;#P newex 167 243 40 196617 t 1 f 0;#P window setfont Times 9.;#P user umenu 39 18 69 1310759 1 64 33 0;#X add display;#X add lowpass;#X add highpass;#X add bandpass;#X add bandstop;#X add peaknotch;#X add lowshelf;#X add highshelf;#P objectname type;#P window setfont Helvetica 9.;#P user filtergraph~ 111 35 140 70 21 9 20. 22050. 0.0625 16. 0 1 1 0 0 1 1;#X frgb 170 170 170;#X brgb 210 210 210;#X rgb2 0 0 0;#X rgb3 130 130 130;#X rgb4 0 0 0;#X rgb5 118 121 166;#X rgb6 122 74 74;#X rgb7 255 22 22;#X linmarkers 5512.5 11025. 16537.5;#X logmarkers 50. 500. 5000.;#X nfilters 1;#X setfilter 0 1 1 0 0 20000. 1. 0.707 20. 20000. 0.0625 16. 0.01 25.;#X done;#P objectname graph;#P window setfont Times 9.;#P comment 17 37 22 1310729 /freq;#B frgb 0 0 200;#P bpatcher 0 0 256 124 0 0 bkgnd2.mxt 0 $1 0 1;#P objectname background;#P fasten 48 0 49 0 92 390 82 390 82 343 92 343;#P connect 49 0 48 0;#P fasten 10 0 19 0 92 457 82 457 82 411 92 411;#P connect 19 0 10 0;#P fasten 54 0 55 0 92 516 82 516 82 470 92 470;#P connect 55 0 54 0;#P fasten 13 1 30 0 134 210 81 210 81 162 93 162;#P connect 30 0 13 0;#P fasten 9 0 16 0 94 263 84 263 84 217 94 217;#P connect 16 0 9 0;#P fasten 38 0 39 0 94 317 84 317 84 271 94 271;#P connect 39 0 38 0;#P hidden connect 50 0 2 0;#P lcolor 13;#P hidden connect 7 1 2 0;#P lcolor 13;#P fasten 37 1 42 0 180 318 124 318;#P connect 39 1 37 0;#P connect 19 1 5 0;#P connect 49 1 47 0;#P connect 16 1 4 0;#P connect 47 1 50 0;#P connect 30 1 7 0;#P hidden connect 4 1 2 5;#P lcolor 7;#P hidden connect 42 0 2 6;#P lcolor 6;#P hidden connect 5 1 2 7;#P lcolor 5;#P connect 47 0 6 0;#P lcolor 1;#P connect 47 2 6 0;#P lcolor 1;#P connect 7 2 6 0;#P lcolor 1;#P connect 7 0 6 0;#P lcolor 1;#P connect 4 2 6 0;#P lcolor 1;#P connect 4 0 6 0;#P lcolor 1;#P connect 5 0 6 0;#P lcolor 1;#P connect 5 2 6 0;#P lcolor 1;#P connect 37 2 6 0;#P lcolor 1;#P connect 37 0 6 0;#P lcolor 1;#P connect 6 0 17 0;#P connect 17 0 22 0;#P connect 22 0 21 0;#P connect 21 0 20 0;#P connect 20 0 23 0;#P connect 23 0 24 0;#P connect 22 1 20 1;#P connect 15 1 17 1;#P connect 6 0 31 0;#P connect 31 0 34 0;#P connect 34 0 33 0;#P connect 33 0 32 0;#P connect 32 0 43 0;#P connect 43 0 35 0;#P connect 35 0 36 0;#P connect 32 0 44 0;#P connect 34 1 32 1;#P connect 15 2 31 1;#P connect 6 0 18 0;#P connect 18 0 27 0;#P connect 27 0 26 0;#P connect 26 0 25 0;#P connect 25 0 28 0;#P connect 28 0 29 0;#P connect 27 1 25 1;#P connect 15 3 18 1;#P pop;