max v2;#N vpatcher 417 197 1025 499;#P window setfont "Sans Serif" 18.;#P window linecount 1;#P comment 137 85 326 196626 <- double-click to open quick record;#P newex 25 83 112 196626 quickrecord;#B color 4;#P window setfont Times 9.;#N vpatcher 254 68 476 301;#N comlet to thispatcher;#P outlet 31 190 15 0;#N comlet from toggle;#P inlet 16 106 15 0;#N comlet to toggle;#P outlet 16 72 15 0;#P window setfont Times 9.;#P newex 16 52 18 1310729 t 1;#P newex 16 31 43 1310729 loadbang;#P newex 16 124 40 1310729 sel 1 0;#P window setfont "Sans Serif" 9.;#P message 31 146 158 196617 window flags close \, window exec;#P message 16 164 168 196617 window flags noclose \, window exec;#P connect 3 0 4 0;#P connect 4 0 5 0;#P connect 6 0 2 0;#P connect 2 0 0 0;#P connect 2 1 1 0;#P connect 1 0 7 0;#P connect 0 0 7 0;#P pop;#P hidden newobj 24 -1 50 1310729 p closebox;#B color 6;#P toggle 1 1 15 0;#N thispatcher;#Q end;#P hidden newobj 39 -1 51 1310729 thispatcher;#P comment 17 1 74 1310729 inhibit close box;#P button 258 49 15 0;#P window setfont "Sans Serif" 9.;#P newex 258 28 99 196617 r /instruments/init;#B color 9;#P newex 44 28 189 196617 editorwindow /instruments /tapemovie;#B color 6;#N thispatcher;#Q end;#P newobj 44 48 61 196617 thispatcher;#P window setfont "Sans Serif" 18.;#P window linecount 6;#P comment 26 122 560 196626 The "instruments" patcher is an available space for creating project-specific instruments \, algorithms \, functions \, devices \, or any patcher that does not have a place in the permanent tapemovie structure. These can often be tape and movie elements in the same instrument \, so that is why "instruments" is common to the whole environment.;#P window setfont "Sans Serif" 9.;#P window linecount 1;#P comment 358 29 182 196617 <- inits with each /tapemovie/init_all;#P hidden connect 9 0 8 0;#P hidden connect 8 0 9 0;#P hidden connect 9 1 7 0;#P fasten 2 0 3 0 49 68 40 68 40 25 49 25;#P connect 3 0 2 0;#P connect 4 0 5 0;#P pop;