max v2;#N vpatcher 147 59 1328 865;#P origin 0 1;#P window setfont "Sans Serif" 9.;#P window linecount 1;#P newex 153 760 145 196617 t_fxmetersend $1;#B color 4;#P window linecount 2;#P comment 674 310 198 196617 no longer need to send to module_register. happens in build.;#P comment 939 271 107 196617 patch by Tom Mays contact@tommays.net;#P window linecount 1;#P newex 71 110 273 196617 makeparam $1/fb $1 f 0 0 1. 2;#B color 13;#P newex 141 688 407 196617 makeparam $1/vol $1 f 1 0. 2. 1;#B color 13;#P window setfont Times 9.;#P flonum 119 711 28 9 0 0 0 20 0 0 0 221 221 221 222 222 222 0 0 0;#P newex 106 729 43 1310729 t_vol~ 2;#B color 6;#P window setfont "Sans Serif" 9.;#P newex 540 604 350 196617 makeparam $1/vol8 $1 f 0.05 0. 1. 1;#B color 13;#P window setfont Times 9.;#P flonum 518 627 28 9 0 0 0 20 0 0 0 221 221 221 222 222 222 0 0 0;#P newex 505 645 45 1310729 t_vol~ 1;#B color 6;#P window setfont "Sans Serif" 9.;#P newex 483 574 350 196617 makeparam $1/vol7 $1 f 0.08 0. 1. 1;#B color 13;#P window setfont Times 9.;#P flonum 461 597 28 9 0 0 0 20 0 0 0 221 221 221 222 222 222 0 0 0;#P newex 448 615 45 1310729 t_vol~ 1;#B color 6;#P window setfont "Sans Serif" 9.;#P newex 426 531 350 196617 makeparam $1/vol6 $1 f 0.125 0. 1. 1;#B color 13;#P window setfont Times 9.;#P flonum 404 554 28 9 0 0 0 20 0 0 0 221 221 221 222 222 222 0 0 0;#P newex 391 572 45 1310729 t_vol~ 1;#B color 6;#P window setfont "Sans Serif" 9.;#P newex 369 501 350 196617 makeparam $1/vol5 $1 f 0.19 0. 1. 1;#B color 13;#P window setfont Times 9.;#P flonum 347 524 28 9 0 0 0 20 0 0 0 221 221 221 222 222 222 0 0 0;#P newex 334 542 45 1310729 t_vol~ 1;#B color 6;#P window setfont "Sans Serif" 9.;#P newex 312 468 350 196617 makeparam $1/vol4 $1 f 0.29 0. 1. 1;#B color 13;#P window setfont Times 9.;#P flonum 290 491 28 9 0 0 0 20 0 0 0 221 221 221 222 222 222 0 0 0;#P newex 277 509 45 1310729 t_vol~ 1;#B color 6;#P window setfont "Sans Serif" 9.;#P newex 256 430 350 196617 makeparam $1/vol3 $1 f 0.44 0. 1. 1;#B color 13;#P window setfont Times 9.;#P flonum 234 453 28 9 0 0 0 20 0 0 0 221 221 221 222 222 222 0 0 0;#P newex 221 471 45 1310729 t_vol~ 1;#B color 6;#P window setfont "Sans Serif" 9.;#P newex 198 400 350 196617 makeparam $1/vol2 $1 f 0.66 0. 1. 1;#B color 13;#P window setfont Times 9.;#P flonum 176 423 28 9 0 0 0 20 0 0 0 221 221 221 222 222 222 0 0 0;#P newex 163 441 45 1310729 t_vol~ 1;#B color 6;#P window setfont "Sans Serif" 9.;#P newex 141 367 350 196617 makeparam $1/vol1 $1 f 1. 0. 1. 1;#B color 13;#P newex 52 44 308 196617 makeparam $1/invol $1 f 1 0. 2. 1 20;#B color 13;#P flonum 64 69 35 9 0 0 0 3 0 0 0 221 221 221 222 222 222 0 0 0;#P newex 13 69 49 196617 t_vol~ 2;#P newex 278 147 279 196617 makeparam $1/delroot $1 i 1000 1 1636 1;#B color 13;#P button 675 111 15 0;#P newex 655 343 133 196617 s $1/spat/init;#B color 11;#P newex 868 58 261 196617 makeswitch $1/sw $1 tape_switchstate;#B color 13;#P newex 868 101 31 196617 == 0;#P newex 868 140 50 196617 thispoly~;#B color 5;#P toggle 868 82 15 0;#P message 868 121 45 196617 mute \$1;#P window linecount 14;#P message 675 133 178 196617 \; $1/sw/init bang \; $1/invol/init bang \; $1/delroot/init bang \; $1/vol/init bang \; $1/vol1/init bang \; $1/vol2/init bang \; $1/vol3/init bang \; $1/vol4/init bang \; $1/vol5/init bang \; $1/vol6/init bang \; $1/vol7/init bang \; $1/vol8/init bang \; $1/fb/init bang \;;#P window linecount 1;#P newex 675 90 148 196617 moduleinit $1;#B color 13;#P window setfont Times 9.;#N out~ 1;#P newobj 106 760 33 1310729 out~ 1;#N in~ 1;#P newobj 13 1 29 1310729 in~ 1;#P newex 13 136 68 1310729 t_feedback~ $1;#B color 6;#P number 562 320 50 9 0 0 0 20 0 0 0 221 221 221 222 222 222 0 0 0;#P window setfont "Sans Serif" 9.;#P newex 106 688 30 196617 *~ 1;#P window setfont Times 9.;#P flonum 119 390 28 9 0 0 0 20 0 0 0 221 221 221 222 222 222 0 0 0;#P newex 106 408 45 1310729 t_vol~ 1;#B color 6;#P number 505 320 50 9 0 0 0 20 0 0 0 221 221 221 222 222 222 0 0 0;#P number 448 320 50 9 0 0 0 20 0 0 0 221 221 221 222 222 222 0 0 0;#P number 391 320 50 9 0 0 0 20 0 0 0 221 221 221 222 222 222 0 0 0;#P number 334 320 50 9 0 0 0 20 0 0 0 221 221 221 222 222 222 0 0 0;#P number 277 320 50 9 0 0 0 20 0 0 0 221 221 221 222 222 222 0 0 0;#P number 220 320 50 9 0 0 0 20 0 0 0 221 221 221 222 222 222 0 0 0;#P number 163 320 50 9 0 0 0 20 0 0 0 221 221 221 222 222 222 0 0 0;#P number 106 320 50 9 0 0 0 20 0 0 0 221 221 221 222 222 222 0 0 0;#P newex 278 268 118 1310729 unpack 0 0 0 0 0 0 0 0 0;#P newex 106 340 468 1310729 tapout~ 0 0 0 0 0 0 0 0 0;#P newex 119 149 89 1310729 r $1/delclear;#B color 11;#P message 103 173 26 1310729 clear;#P newex 103 129 45 1310729 r cleardels;#B color 11;#P newex 13 197 69 1310729 tapin~ $2;#P newex 278 226 118 1310729 pack 0 0 0 0 0 0 0 0 0;#P number 278 174 54 9 0 0 0 20 0 0 0 221 221 221 222 222 222 0 0 0;#P newex 278 195 134 1310729 t i b;#P newex 278 247 134 1310729 vexpr $i1*$i2;#P message 402 226 90 1310729 1 2 3 5 8 13 21 34 55;#P newex 13 22 40 1310729 t_dither;#P window setfont "Sans Serif" 9.;#P window linecount 2;#P comment 938 243 100 196617 arg 1 : prefix name \; arg 2 : max del time;#P connect 26 0 1 0;#P connect 1 0 38 0;#P connect 38 0 25 0;#P connect 25 0 7 0;#P connect 9 0 7 0;#P fasten 11 8 25 1 567 276 567 276 567 100 47 100;#P connect 40 0 38 1;#P connect 39 0 38 1;#P connect 38 1 39 0;#P connect 66 0 25 2;#P connect 10 0 9 0;#P connect 8 0 9 0;#P connect 12 0 13 0;#P fasten 7 0 11 0 18 243 111 243;#P connect 13 0 11 0;#P connect 11 0 21 0;#P connect 60 0 23 0;#P connect 57 0 23 0;#P connect 54 0 23 0;#P connect 51 0 23 0;#P connect 48 0 23 0;#P connect 45 0 23 0;#P connect 42 0 23 0;#P connect 21 0 23 0;#P connect 23 0 63 0;#P connect 63 0 27 0;#P connect 21 1 22 0;#P connect 63 1 64 0;#P connect 65 0 63 1;#P connect 64 0 63 1;#P connect 22 0 21 1;#P connect 41 0 21 1;#P connect 63 0 69 0;#P connect 12 1 14 0;#P connect 14 0 11 1;#P connect 11 1 42 0;#P connect 42 1 43 0;#P connect 43 0 42 1;#P connect 44 0 42 1;#P connect 12 2 15 0;#P connect 15 0 11 2;#P connect 11 2 45 0;#P connect 45 1 46 0;#P connect 46 0 45 1;#P connect 47 0 45 1;#P connect 12 3 16 0;#P connect 16 0 11 3;#P connect 11 3 48 0;#P connect 37 0 5 0;#P connect 5 0 4 0;#P connect 4 0 6 0;#P connect 6 0 3 0;#P connect 3 0 12 0;#P connect 48 1 49 0;#P connect 4 0 6 1;#P connect 4 0 6 2;#P connect 49 0 48 1;#P connect 50 0 48 1;#P connect 4 0 6 3;#P connect 4 0 6 4;#P connect 12 4 17 0;#P connect 17 0 11 4;#P connect 11 4 51 0;#P connect 4 0 6 5;#P connect 51 1 52 0;#P connect 4 0 6 6;#P connect 4 0 6 7;#P connect 52 0 51 1;#P connect 53 0 51 1;#P connect 4 0 6 8;#P connect 12 5 18 0;#P connect 18 0 11 5;#P connect 11 5 54 0;#P connect 4 1 2 0;#P connect 2 0 3 1;#P connect 54 1 55 0;#P connect 55 0 54 1;#P connect 56 0 54 1;#P connect 12 6 19 0;#P connect 19 0 11 6;#P connect 11 6 57 0;#P connect 57 1 58 0;#P connect 58 0 57 1;#P connect 59 0 57 1;#P connect 12 7 20 0;#P connect 20 0 11 7;#P connect 11 7 60 0;#P connect 60 1 61 0;#P connect 61 0 60 1;#P connect 62 0 60 1;#P connect 12 8 24 0;#P connect 24 0 11 8;#P fasten 36 0 35 0 680 129 660 129;#P connect 28 0 36 0;#P connect 36 0 29 0;#P connect 34 0 31 0;#P connect 31 0 33 0;#P connect 33 0 30 0;#P connect 30 0 32 0;#P pop;