max v2;#N vpatcher 209 193 1222 737;#P origin 0 -5;#P window setfont "Sans Serif" 9.;#P window linecount 1;#P comment 41 240 117 196617 bpat bkgnd = 258 X 188;#P comment 41 220 117 196617 bpat bkgnd = 256 X 186;#P window setfont Times 9.;#P comment 190 67 39 1310729 delclear;#P window setfont "Sans Serif" 9.;#P newex 393 49 191 196617 s $1/delclear;#B color 11;#P window setfont Times 9.;#P newex 393 28 58 1310729 pvar delclear;#P button 175 67 15 0;#P objectname delclear;#P number 109 166 41 9 0 0 160 20 0 0 0 204 140 140 222 222 222 0 0 0;#P number 109 149 41 9 0 0 160 20 0 0 0 221 221 221 222 222 222 0 0 0;#P number 109 133 41 9 0 0 160 20 0 0 0 221 221 221 222 222 222 0 0 0;#P number 109 117 41 9 0 0 160 20 0 0 0 221 221 221 222 222 222 0 0 0;#P number 109 101 41 9 0 0 160 20 0 0 0 221 221 221 222 222 222 0 0 0;#P number 109 85 41 9 0 0 160 20 0 0 0 221 221 221 222 222 222 0 0 0;#P number 109 69 41 9 0 0 160 20 0 0 0 221 221 221 222 222 222 0 0 0;#P number 109 53 41 9 0 0 160 20 0 0 0 221 221 221 222 222 222 0 0 0;#P number 109 37 41 9 0 0 160 20 0 0 0 221 221 221 222 222 222 0 0 0;#P newex 480 476 118 1310729 unpack 0 0 0 0 0 0 0 0 0;#P newex 480 421 118 1310729 pack 0 0 0 0 0 0 0 0 0;#P number 480 369 54 9 0 0 0 20 0 0 0 221 221 221 222 222 222 0 0 0;#P newex 480 390 135 1310729 t i b;#P newex 480 449 135 1310729 vexpr $i1*$i2;#P message 605 421 90 1310729 1 2 3 5 8 13 21 34 55;#P window setfont "Sans Serif" 9.;#P newex 740 430 201 196617 variedit $1/vol8 $1;#B color 11;#P window setfont Times 9.;#P newex 740 450 47 1310729 pvar vol8;#P window setfont "Sans Serif" 9.;#P newex 740 380 201 196617 variedit $1/vol7 $1;#B color 11;#P window setfont Times 9.;#P newex 740 400 47 1310729 pvar vol7;#P window setfont "Sans Serif" 9.;#P newex 740 330 201 196617 variedit $1/vol6 $1;#B color 11;#P window setfont Times 9.;#P newex 740 350 47 1310729 pvar vol6;#P window setfont "Sans Serif" 9.;#P newex 740 280 201 196617 variedit $1/vol5 $1;#B color 11;#P window setfont Times 9.;#P newex 740 300 47 1310729 pvar vol5;#P window setfont "Sans Serif" 9.;#P newex 740 230 201 196617 variedit $1/vol4 $1;#B color 11;#P window setfont Times 9.;#P newex 740 250 47 1310729 pvar vol4;#P window setfont "Sans Serif" 9.;#P newex 740 180 201 196617 variedit $1/vol3 $1;#B color 11;#P window setfont Times 9.;#P newex 740 200 47 1310729 pvar vol3;#P window setfont "Sans Serif" 9.;#P newex 740 130 201 196617 variedit $1/vol2 $1;#B color 11;#P window setfont Times 9.;#P newex 740 150 47 1310729 pvar vol2;#P window setfont "Sans Serif" 9.;#P newex 740 80 201 196617 variedit $1/vol1 $1;#B color 11;#P window setfont Times 9.;#P newex 740 100 47 1310729 pvar vol1;#P window setfont "Sans Serif" 9.;#P newex 396 262 98 196617 variedit $1/vol $1;#B color 11;#P window setfont Times 9.;#P newex 396 282 42 1310729 pvar vol;#P flonum 54 149 30 9 0. 1. 3 20 0 0 0 221 221 221 222 222 222 0 0 0;#P objectname vol8;#P comment 29 149 26 1310729 vol8;#P comment 29 133 26 1310729 vol7;#P flonum 54 133 30 9 0. 1. 3 20 0 0 0 221 221 221 222 222 222 0 0 0;#P objectname vol7;#P comment 29 117 26 1310729 vol6;#P flonum 54 117 30 9 0. 1. 3 20 0 0 0 221 221 221 222 222 222 0 0 0;#P objectname vol6;#P comment 29 101 26 1310729 vol5;#P flonum 54 101 30 9 0. 1. 3 20 0 0 0 221 221 221 222 222 222 0 0 0;#P objectname vol5;#P comment 29 85 26 1310729 vol4;#P flonum 54 85 30 9 0. 1. 3 20 0 0 0 221 221 221 222 222 222 0 0 0;#P objectname vol4;#P comment 29 69 26 1310729 vol3;#P flonum 54 69 30 9 0. 1. 3 20 0 0 0 221 221 221 222 222 222 0 0 0;#P objectname vol3;#P comment 29 53 26 1310729 vol2;#P flonum 54 53 30 9 0. 1. 3 20 0 0 0 221 221 221 222 222 222 0 0 0;#P objectname vol2;#P comment 29 37 26 1310729 vol1;#P flonum 54 37 30 9 0. 1. 3 20 0 0 0 221 221 221 222 222 222 0 0 0;#P objectname vol1;#P comment 192 20 31 1310729 invol;#P flonum 221 20 30 9 0. 2. 3 20 0 0 0 221 221 221 222 222 222 0 0 0;#P objectname invol;#P newex 396 119 56 1310729 speedlim 50;#P window setfont "Sans Serif" 9.;#P newex 396 210 190 196617 variedit $1/invol $1;#B color 11;#P window setfont Times 9.;#P newex 396 230 50 1310729 pvar invol;#P window setfont "Sans Serif" 9.;#P newex 396 157 188 196617 variedit $1/fb $1;#B color 11;#P window setfont Times 9.;#P newex 396 177 37 1310729 pvar fb;#P window linecount 2;#P comment 81 292 82 1310729 arg 1 : prefix name \; arg 2 : max del time;#P flonum 54 166 32 9 0. 1. 3 20 0 0 0 204 140 140 222 222 222 0 0 0;#P objectname fb;#P number 109 20 52 9 0 0 0 20 0 0 0 221 221 221 222 222 222 0 0 0;#P objectname delroot;#P window linecount 1;#P comment 200 166 21 1310729 vol;#P comment 41 166 16 1310729 fb;#P comment 74 21 37 1310729 delroot;#P flonum 221 166 30 9 0. 2. 3 20 0 0 0 221 221 221 222 222 222 0 0 0;#P objectname vol;#P window setfont "Sans Serif" 9.;#P newex 396 79 180 196617 variedit $1/delroot $1;#B color 11;#P window setfont Times 9.;#P newex 396 99 56 1310729 pvar delroot;#P window setfont "Sans Serif" 9.;#N thispatcher;#Q end;#P newobj 0 294 61 196617 thispatcher;#P bpatcher 0 0 256 186 0 0 bkgnd3.mxt 0 $1 0 1;#P objectname background;#P hidden connect 57 0 58 0;#P hidden connect 57 1 59 0;#P hidden connect 57 2 60 0;#P hidden connect 57 3 61 0;#P hidden connect 57 4 62 0;#P hidden connect 57 5 63 0;#P hidden connect 57 6 64 0;#P hidden connect 57 7 65 0;#P hidden connect 57 8 66 0;#P connect 68 0 69 0;#P fasten 15 0 3 0 401 141 392 141 392 74 401 74;#P connect 3 0 2 0;#P connect 2 0 15 0;#P fasten 11 0 12 0 401 198 391 198 391 152 401 152;#P connect 12 0 11 0;#P fasten 13 0 14 0 401 251 391 251 391 205 401 205;#P connect 14 0 13 0;#P fasten 34 0 35 0 401 303 391 303 391 257 401 257;#P connect 35 0 34 0;#P connect 3 1 55 0;#P connect 55 0 54 0;#P connect 54 0 56 0;#P connect 56 0 53 0;#P connect 53 0 57 0;#P connect 54 0 56 1;#P connect 54 0 56 2;#P connect 54 0 56 3;#P connect 54 0 56 4;#P connect 54 0 56 5;#P connect 54 0 56 6;#P connect 54 0 56 7;#P connect 54 0 56 8;#P connect 54 1 52 0;#P connect 52 0 53 1;#P fasten 36 0 37 0 745 121 735 121 735 75 745 75;#P connect 37 0 36 0;#P fasten 38 0 39 0 745 171 735 171 735 125 745 125;#P connect 39 0 38 0;#P fasten 40 0 41 0 745 221 735 221 735 175 745 175;#P connect 41 0 40 0;#P fasten 42 0 43 0 745 271 735 271 735 225 745 225;#P connect 43 0 42 0;#P fasten 44 0 45 0 745 321 735 321 735 275 745 275;#P connect 45 0 44 0;#P fasten 46 0 47 0 745 371 735 371 735 325 745 325;#P connect 47 0 46 0;#P fasten 48 0 49 0 745 421 735 421 735 375 745 375;#P connect 49 0 48 0;#P fasten 50 0 51 0 745 471 735 471 735 425 745 425;#P connect 51 0 50 0;#P pop;