max v2;#N vpatcher 386 59 1325 549;#P window setfont "Sans Serif" 9.;#P comment 590 305 277 196617 no longer need to send to module_register. happens in build.;#P newex 389 90 391 196617 makeparam $1/ctlrate $1 i 5 1 999 0;#B color 13;#P newex 296 69 417 196617 makeparam $1/slidedown $1 f 100 0 9999 0;#B color 13;#P newex 223 48 404 196617 makeparam $1/slideup $1 f 100 0 9999 0;#B color 13;#P newex 72 340 50 196617 change 0.;#P newex 72 319 52 196617 split 0. 1.;#P newex 14 123 33 196617 gate~;#P newex 14 253 34 196617 pass~;#P newex 14 441 107 196617 send~ $1_amt~;#B color 4;#P comment 424 159 24 196617 ms.;#P comment 337 159 24 196617 ms.;#P comment 264 159 24 196617 ms.;#P comment 228 130 120 196617 ------ Smoothing ------;#P flonum 296 158 41 9 0. 0 1 3 0 0 0 221 221 221 222 222 222 0 0 0;#P flonum 223 158 41 9 0. 0 1 3 0 0 0 221 221 221 222 222 222 0 0 0;#P comment 396 144 63 196617 Control Rate;#P comment 302 145 55 196617 Slide Down;#P comment 228 145 44 196617 Slide Up;#P number 389 158 35 9 1 0 1 3 0 0 0 221 221 221 222 222 222 0 0 0;#P toggle 163 63 15 0;#P window linecount 2;#P comment 140 59 23 196617 on/off;#P window linecount 1;#P newex 163 27 108 196617 r $1/sw;#B color 11;#P newex 72 364 305 196617 makecontrol $1/amt $1 f 0. 1. /tape;#B color 11;#P newex 296 190 64 196617 mstosamps~;#P newex 223 190 64 196617 mstosamps~;#P newex 14 230 347 196617 slide~;#B color 5;#P flonum 72 300 58 9 0 0 0 3 0 0 0 221 221 221 222 222 222 0 0 0;#P newex 72 279 327 196617 snapshot~ 5;#P flonum 99 170 58 9 0 0 0 3 0 0 0 221 221 221 222 222 222 0 0 0;#P newex 99 146 29 196617 !/ 2.;#P newex 71 123 53 196617 dspstate~;#P newex 14 186 35 196617 *~ 64;#P newex 14 152 40 196617 zerox~;#B color 5;#P window linecount 2;#P comment 56 191 100 196617 multiply by 2/sigv = divided by sigv/2;#P window linecount 1;#P comment 383 400 287 196617 arg 1 : module prefix name \;;#P newex 589 185 152 196617 moduleinit $1;#B color 13;#P newex 494 134 416 196617 makeswitch $1/sw $1 tape_switchstate;#B color 13;#P newex 494 175 31 196617 == 0;#P newex 494 214 50 196617 thispoly~;#B color 5;#P toggle 494 154 15 0;#P message 494 195 45 196617 mute \$1;#P window linecount 7;#P message 589 207 191 196617 \; $1/sw/init bang \; $1/slideup/init bang \; $1/slidedown/init bang \; $1/ctlrate/init bang \; $1/amt/init bang \; control_register/store $1 \;;#P window linecount 2;#P comment 455 358 107 196617 patch by Tom Mays contact@tommays.net;#P window setfont Times 9.;#P window linecount 1;#N in~ 1;#P newobj 37 27 29 1310729 in~ 1;#P fasten 24 0 37 0 168 100 19 100;#P lcolor 7;#P connect 37 0 11 0;#P connect 11 0 12 0;#P connect 12 0 18 0;#P connect 18 0 36 0;#P connect 36 0 35 0;#P connect 0 0 37 1;#P connect 15 0 12 1;#P fasten 24 0 16 0 168 263 77 263;#P lcolor 7;#P fasten 36 0 16 0 19 274 77 274;#P connect 16 0 17 0;#P connect 17 0 38 0;#P connect 38 0 39 0;#P connect 39 0 21 0;#P connect 13 2 14 0;#P connect 14 0 15 0;#P connect 22 0 24 0;#P fasten 19 1 18 1 282 223 187 223;#P connect 40 0 29 0;#P connect 29 0 19 0;#P connect 41 0 30 0;#P connect 30 0 20 0;#P connect 20 1 18 2;#P connect 42 0 25 0;#P connect 25 0 16 1;#P connect 7 0 4 0;#P connect 4 0 6 0;#P connect 6 0 3 0;#P connect 3 0 5 0;#P connect 8 0 2 0;#P pop;