max v2;#N vpatcher 101 238 989 560;#P window setfont Times 9.;#P comment 232 33 23 1310729 min;#P comment 232 18 24 1310729 max;#P window linecount 2;#P comment 268 20 30 1310729 reset peaks;#P flonum 161 25 35 9 0 0 8224 20 0 0 0 221 221 221 222 222 222 0 0 0;#P noclick;#P objectname amt;#P button 254 25 14 6;#P objectname amtpeakreset;#P flonum 199 17 35 9 0 0 8224 20 0 0 0 221 221 221 222 222 222 0 0 0;#P noclick;#P objectname amtmax;#P flonum 199 32 35 9 0 0 8224 20 0 0 0 221 221 221 222 222 222 0 0 0;#P noclick;#P objectname amtmin;#P window linecount 1;#P newex 624 275 58 1310729 pvar amtmin;#P newex 695 275 59 1310729 pvar amtmax;#P window linecount 3;#P newex 755 121 39 1310729 pvar amtpeakreset;#P window setfont "Sans Serif" 9.;#P window linecount 1;#P newex 624 255 28 196617 !- 1.;#P newex 624 235 44 196617 / 1000.;#P newex 624 195 18 196617 t i;#P newex 624 175 45 196617 * 1000.;#P newex 624 215 40 196617 peak;#P newex 624 155 28 196617 !- 1.;#P newex 695 235 44 196617 / 1000.;#P newex 695 195 18 196617 t i;#P newex 755 183 27 196617 0;#P button 755 164 15 0;#P newex 695 175 45 196617 * 1000.;#P newex 695 215 40 196617 peak;#P window setfont Times 9.;#P flonum 68 24 44 9 0. 99999. 3 20 0 0 0 221 221 221 222 222 222 0 0 0;#P objectname slidedown;#P flonum 68 6 44 9 0. 99999. 3 20 0 0 0 221 221 221 222 222 222 0 0 0;#P objectname slideup;#P newex 571 156 43 1310729 pvar amt;#P comment 571 107 78 1310729 linear amp;#P newex 571 123 123 1310729 r $1/amt;#B color 11;#P number 68 42 34 9 1 999 3 20 0 0 0 221 221 221 222 222 222 0 0 0;#P objectname ctlrate;#P newex 571 70 53 1310729 pvar ctlrate;#P newex 571 49 65 1310729 pvar slidedown;#P newex 571 28 54 1310729 pvar slideup;#P newex 664 70 195 1310729 variedit $1/ctlrate $1;#B color 11;#P newex 664 49 192 1310729 variedit $1/slidedown $1;#B color 11;#P newex 664 28 181 1310729 variedit $1/slideup $1;#B color 11;#P comment 22 24 48 1310729 /slidedown;#B frgb 0 0 200;#P comment 34 7 37 1310729 /slideup;#B frgb 0 0 200;#P comment 35 42 37 1310729 /ctlrate;#B frgb 0 0 200;#P comment 163 12 25 1310729 /amt;#P window setfont "Sans Serif" 9.;#P comment 135 198 88 196617 bpat = 512 X 186;#P bpatcher 0 0 512 62 0 0 bkgnd12.mxt 0 $1 0 1;#P bpatcher 0 61 512 124 0 0 multimapsendu.edit.mxt 0 $1 /tape;#P connect 7 0 10 0;#P connect 8 0 11 0;#P connect 9 0 12 0;#P connect 14 0 16 0;#P fasten 14 0 25 0 576 147 629 147;#P connect 25 0 27 0;#P connect 27 0 28 0;#P connect 28 0 26 0;#P connect 26 0 29 0;#P connect 29 0 30 0;#P connect 30 0 33 0;#P connect 22 0 26 1;#P connect 10 0 7 0;#P connect 11 0 8 0;#P connect 12 0 9 0;#P fasten 14 0 20 0 576 147 700 147;#P connect 20 0 23 0;#P connect 23 0 19 0;#P connect 19 0 24 0;#P connect 24 0 32 0;#P connect 22 0 19 1;#P connect 31 0 21 0;#P connect 21 0 22 0;#P pop;