max v2;#N vpatcher 207 44 1523 861;#P origin -3 -34;#P button 719 673 15 0;#P window setfont "Sans Serif" 9.;#P window linecount 1;#P message 911 219 106 196617 texture u248000798;#P message 837 762 140 196617 jit_gl_texture u248000798;#P newex 863 737 62 196617 prepend set;#P message 804 642 98 196617 texture /camtex33;#P flonum 759 629 35 9 0.5 0 1 3 0 0 0 221 221 221 222 222 222 0 0 0;#P toggle 725 629 15 0;#P newex 725 649 44 196617 metro 2;#P message 842 662 44 196617 texture;#P message 973 693 67 196617 getout_name;#P newex 946 734 58 196617 print dump;#P flonum 995 643 35 9 0 0 0 3 0 0 0 221 221 221 222 222 222 0 0 0;#P message 995 669 103 196617 param brightness \$1;#P newex 913 638 48 196617 loadbang;#P message 897 665 87 196617 read brcosa2.jxs;#P newex 884 713 82 196617 jit.gl.slab foo33;#P message 896 201 106 196617 texture u431000666;#P newex 288 88 54 196617 s /brcosa;#B color 12;#P button 1071 210 15 0;#P message 1060 263 145 196617 jit_gl_texture u431000667;#P newex 1062 187 98 196617 r /brcosa/slab/out;#B color 12;#P newex 94 182 250 196617 jit.gl.texture foo33 @name /camtex33 @automatic 1;#B color 5;#P bpatcher 926 92 258 63 0 0 m_brcosa.edit.mxt 0 /brcosa;#P button 994 259 15 0;#P message 1008 284 37 196617 0.825;#P message 973 284 23 196617 1.1;#P message 935 284 35 196617 1.333;#P flonum 1037 305 51 9 0 0 0 3 0 0 0 221 221 221 222 222 222 0 0 0;#P flonum 988 305 51 9 0 0 0 3 0 0 0 221 221 221 222 222 222 0 0 0;#P flonum 935 305 51 9 0 0 0 3 0 0 0 221 221 221 222 222 222 0 0 0;#P newex 910 332 85 196617 pak scale 1. 1. 1.;#P message 873 183 106 196617 texture u431000667;#P newex 888 238 111 196617 jit.gl.videoplane foo33;#P window linecount 2;#P message 940 36 131 196617 \; /brcosa texture /camtex3;#P window linecount 1;#P message 376 35 80 196617 texture /cam.1;#P message 359 172 86 196617 texture /camtex;#P newex 1062 230 62 196617 prepend set;#P flonum 327 32 35 9 0.5 0 1 3 0 0 0 221 221 221 222 222 222 0 0 0;#P toggle 293 32 15 0;#P newex 293 52 44 196617 metro 2;#P message 408 69 44 196617 texture;#P message 339 143 106 196617 texture u541000011;#P message 366 52 86 196617 texture /camtex;#P newex 84 154 232 196617 jit.gl.texture foo2 @name /camtex @automatic 1;#B color 5;#P toggle 857 537 15 0;#P message 857 555 45 196617 sync \$1;#P toggle 784 537 15 0;#P newex 745 536 35 196617 sel 27;#P message 784 555 68 196617 fullscreen \$1;#P newex 702 579 230 196617 jit.window foo33 @depthbuffer 1 @size 640 480;#P newex 700 536 40 196617 key;#P newex 731 399 94 196617 jit.gl.render foo33;#P newex 797 158 116 196617 m_brcosa /brcosa foo3;#B color 13;#P message 27 91 33 196617 close;#P message 31 155 46 196617 settings;#P number 6 46 35 9 0 0 0 3 0 0 0 221 221 221 222 222 222 0 0 0;#P newex 19 70 47 196617 gate 2 2;#P message 38 108 31 196617 open;#P newex 9 128 98 196617 jit.qt.grab 640 480;#B color 5;#P message 541 96 67 196617 getout_name;#P newex 514 137 58 196617 print dump;#P message 346 197 44 196617 texture;#P button 720 44 15 0;#P message 734 69 37 196617 0.825;#P message 699 69 23 196617 1.1;#P message 143 54 68 196617 dim 320 240;#P message 467 165 46 196617 interp 0;#P flonum 563 46 35 9 0 0 0 3 0 0 0 221 221 221 222 222 222 0 0 0;#P message 563 72 103 196617 param brightness \$1;#P newex 462 47 48 196617 loadbang;#P message 630 110 35 196617 1.333;#P window linecount 2;#P comment 670 105 238 196617 change x scale to match aspect ratio. e.g. typical 4:3 video would have an x scale of 1.333;#P flonum 732 131 51 9 0 0 0 3 0 0 0 221 221 221 222 222 222 0 0 0;#P flonum 683 131 51 9 0 0 0 3 0 0 0 221 221 221 222 222 222 0 0 0;#P flonum 630 131 51 9 0 0 0 3 0 0 0 221 221 221 222 222 222 0 0 0;#P window linecount 1;#P newex 605 158 85 196617 pak scale 1. 1. 1.;#P newex 452 199 105 196617 jit.gl.videoplane foo2;#P toggle 855 468 15 0;#P message 855 486 45 196617 sync \$1;#P toggle 782 468 15 0;#P newex 743 467 35 196617 sel 27;#P message 782 486 68 196617 fullscreen \$1;#P newex 700 510 224 196617 jit.window foo2 @depthbuffer 1 @size 640 480;#P newex 698 467 40 196617 key;#P message 462 69 87 196617 read brcosa2.jxs;#P user jit.fpsgui 813 329 60 196617 0;#P number 814 230 35 9 0 0 0 3 0 0 0 221 221 221 222 222 222 0 0 0;#P toggle 769 230 15 0;#P newex 769 256 55 196617 qmetro 20;#P newex 769 278 55 196617 t b b erase;#P newex 769 373 88 196617 jit.gl.render foo2;#P newex 452 116 76 196617 jit.gl.slab foo2;#P message 141 73 68 196617 dim 640 480;#P user jit.fpsgui 24 184 60 196617 3;#P message 146 31 30 196617 read;#P user jit.pwindow 16 248 642 482 0 1 0 0 1 0;#P flonum 85 26 35 9 0.5 0 1 3 0 0 0 221 221 221 222 222 222 0 0 0;#P toggle 51 26 15 0;#P newex 51 46 44 196617 metro 2;#P newex 87 96 63 196617 jit.qt.movie;#P connect 34 0 41 0;#P connect 7 0 41 0;#P connect 42 0 41 0;#P connect 43 0 41 0;#P connect 45 0 41 0;#P connect 46 0 41 0;#P connect 41 0 4 0;#P connect 0 0 4 0;#P connect 44 0 43 0;#P connect 41 0 6 0;#P connect 2 0 1 0;#P connect 1 0 43 1;#P connect 41 0 56 0;#P connect 0 0 56 0;#P connect 3 0 1 1;#P connect 34 0 0 0;#P connect 7 0 0 0;#P connect 43 1 0 0;#P connect 5 0 0 0;#P connect 41 0 78 0;#P connect 0 0 78 0;#P connect 61 0 60 0;#P connect 62 0 60 1;#P connect 60 0 8 0;#P connect 65 0 8 0;#P connect 59 0 8 0;#P connect 57 0 8 0;#P connect 15 0 8 0;#P connect 31 0 8 0;#P connect 64 0 23 0;#P connect 58 0 23 0;#P connect 38 0 23 0;#P connect 24 0 23 0;#P connect 33 0 23 0;#P connect 30 0 15 0;#P connect 8 1 39 0;#P connect 40 0 8 1;#P connect 32 0 31 0;#P connect 35 0 25 0;#P connect 29 0 25 0;#P connect 25 0 24 1;#P fasten 26 0 24 2 688 152 660 152;#P fasten 27 0 24 3 737 152 685 152;#P connect 36 0 26 0;#P connect 37 0 35 0;#P fasten 18 0 17 0 787 505 705 505;#P fasten 21 0 17 0 860 505 705 505;#P fasten 54 0 50 0 862 574 707 574;#P fasten 51 0 50 0 789 574 707 574;#P connect 93 0 92 0;#P connect 10 2 48 0;#P connect 10 0 48 0;#P connect 37 0 36 0;#P fasten 16 0 19 0 703 486 740 486 740 465 748 465;#P fasten 49 0 52 0 705 555 742 555 742 534 750 534;#P connect 94 0 92 1;#P connect 12 0 11 0;#P connect 11 0 10 0;#P fasten 10 2 9 0 818 311 774 311;#P connect 10 0 9 0;#P fasten 19 0 20 0 748 485 779 485 779 465 787 465;#P connect 20 0 18 0;#P fasten 52 0 53 0 750 554 781 554 781 534 789 534;#P connect 53 0 51 0;#P connect 10 1 14 0;#P connect 13 0 11 1;#P connect 22 0 21 0;#P connect 55 0 54 0;#P connect 84 0 96 0;#P connect 92 0 84 0;#P connect 95 0 84 0;#P connect 91 0 84 0;#P connect 85 0 84 0;#P connect 87 0 84 0;#P connect 68 0 67 0;#P connect 69 0 67 0;#P connect 83 0 67 0;#P connect 98 0 67 0;#P connect 86 0 85 0;#P connect 73 0 70 0;#P connect 74 0 70 0;#P connect 70 0 69 1;#P connect 84 1 89 0;#P connect 90 0 84 1;#P fasten 71 0 69 2 993 326 965 326;#P connect 76 0 74 0;#P fasten 72 0 69 3 1042 326 990 326;#P connect 75 0 71 0;#P connect 88 0 87 0;#P connect 76 0 75 0;#P connect 79 0 63 0;#P connect 79 0 81 0;#P pop;