max v2;#N vpatcher 534 386 1078 593;#P hidden inlet 208 248 15 0;#P button 87 195 15 0;#P window setfont "Sans Serif" 9.;#P window linecount 1;#P comment 105 195 39 196617 delete;#P button 21 195 15 0;#P comment 38 195 31 196617 build;#P hidden newex 136 223 131 196617 editorwindow /harm /tape;#B color 6;#N thispatcher;#Q end;#P hidden newobj 136 253 61 196617 thispatcher;#P window linecount 0;#P comment 2376 0 100 196617;#P window linecount 1;#P hidden newex 21 223 108 196617 t_edit-builder harm 1;#B color 6;#P window linecount 0;#P comment 1 0 100 196617;#P hidden connect 6 0 1 0;#P hidden connect 8 0 1 1;#P hidden fasten 3 0 4 0 141 274 282 274 282 219 141 219;#P hidden connect 4 0 3 0;#P hidden fasten 1 0 3 0 26 248 141 248;#P pop;