max v2;#N vpatcher 11 109 384 512;#P window setfont Times 9.;#P window linecount 1;#P newex 57 300 112 1310729 r $1/delclear;#B color 11;#P message 37 324 26 1310729 clear;#P newex 37 280 45 1310729 r cleardels;#B color 11;#P newex 14 184 138 1310729 t_feedback~ $1;#B color 6;#N comlet tapin~ inlet (send "clear" message);#P inlet 328 285 15 0;#P newex 78 104 167 1310729 t_harmvoice~ $1 $2;#B color 6;#P comment 195 198 34 1310729 output;#P outlet 232 197 15 0;#N comlet feedback volume (0-1.0) [time];#P inlet 288 56 15 0;#P window linecount 4;#P comment 276 10 42 1310729 feedback volume (0-1.0) [time];#P window linecount 2;#P comment 7 20 31 1310729 signal input;#N comlet signal input;#P inlet 14 56 16 0;#N comlet delay ms. <int/float> (n>= 0) [time];#P inlet 150 56 15 0;#P window linecount 3;#P comment 136 20 58 1310729 delay ms. <int/float> (n>= 0) [time];#P window linecount 2;#P comment 195 20 80 1310729 wsize ms <int/float> (n >= 1);#N comlet wsize ms <int/float> (n >= 1);#P inlet 220 56 15 0;#P window linecount 1;#P newex 14 350 101 1310729 tapin~ $2;#P newex 78 139 135 1310729 biquad~ 1. -1. 0. -0.9997 0.;#P newex 14 254 59 1310729 clip~ -1. 1.;#P comment 99 156 114 1310729 filter out DC component;#N comlet transp in cents <int> (-2400 <= 2400 ) [time];#P inlet 78 56 15 0;#P window linecount 3;#P comment 47 20 84 1310729 transp in cents <int> (-2400 <= 2400 ) [time];#P window linecount 2;#P comment 153 223 103 1310729 arg 1 : delwrite/vd name \; arg 2 : max del time \;;#P window linecount 1;#P comment 153 252 105 1310729 with xfading harm del unit;#P connect 12 0 20 0;#P connect 20 0 5 0;#P connect 22 0 7 0;#P fasten 19 0 7 0 333 345 19 345;#P lcolor 13;#P connect 5 0 7 0;#P connect 23 0 22 0;#P connect 21 0 22 0;#P connect 3 0 18 0;#P connect 18 0 6 0;#P connect 6 0 20 1;#P fasten 8 0 18 1 225 82 135 82;#P fasten 15 0 20 2 293 175 147 175;#P lcolor 13;#P fasten 11 0 18 2 155 90 187 90;#P fasten 18 0 16 0 83 130 237 130;#P fasten 7 0 18 3 19 371 262 371 262 100 239 100;#P pop;