max v2;#N vpatcher 284 44 1154 668;#P origin 0 -145;#P window setfont "Sans Serif" 9.;#P window linecount 1;#P newex 104 358 145 196617 t_fxmetersend $1;#B color 4;#P window linecount 2;#P comment 567 239 198 196617 no longer need to send to module_register. happens in build.;#P button 567 52 15 0;#P window linecount 1;#P newex 543 271 133 196617 s $1/spat/init;#B color 11;#P newex 373 295 261 196617 makeswitch $1/sw $1 tape_switchstate;#B color 13;#P newex 373 338 31 196617 == 0;#P newex 373 377 50 196617 thispoly~;#B color 5;#P toggle 373 319 15 0;#P message 373 358 45 196617 mute \$1;#P newex 131 209 311 196617 makeparam $1/fb $1 f 0. 0. 1. 2;#B color 13;#P newex 106 183 395 196617 makeparam $1/win $1 f -1 -1 $2 2;#B color 13;#P newex 81 158 338 196617 makeparam $1/del $1 f 0 0 $2 2;#B color 13;#P newex 56 132 327 196617 makeparam $1/trsp $1 i 0 -2400 2400 2;#B color 13;#P flonum 82 308 35 9 0 0 0 3 0 0 0 221 221 221 222 222 222 0 0 0;#P newex 31 308 49 196617 t_vol~ 2;#P newex 70 279 300 196617 makeparam $1/vol $1 f 1 0. 2. 1 20;#B color 13;#P window setfont Times 9.;#P window linecount 2;#P message 544 552 120 1310729 \; $1/trsprand 0;#P message 255 552 265 1310729 \; $1/trsprand 1 -200 200 3000 5000 50 100;#P toggle 16 558 15 0;#P window linecount 1;#P newex 33 557 212 1310729 proc-randtransf $1/trsprand $1/trsp 2;#B color 6;#P window linecount 2;#P message 544 460 118 1310729 \; $1/volrand 0;#P message 255 460 265 1310729 \; $1/volrand 1 0.8 1. 3000 5000 50 100 1 4;#P toggle 16 466 15 0;#P window linecount 1;#P newex 33 465 213 1310729 proc-randtransf0 $1/volrand $1/vol 2;#B color 6;#P window linecount 2;#P message 544 520 113 1310729 \; $1/fbrand 0;#P message 255 520 251 1310729 \; $1/fbrand 1 0.1 0.5 3000 5000 50 100;#P toggle 16 526 15 0;#P window linecount 1;#P newex 33 525 198 1310729 proc-randtransf $1/fbrand $1/fb 2;#B color 6;#P window setfont "Sans Serif" 9.;#P newex 783 469 27 196617 / 2;#P newex 732 511 61 196617 pack 0. 0;#P newex 753 489 21 196617 t 0;#P newex 753 469 27 196617 del;#P newex 732 532 51 196617 s $1/vol;#B color 11;#P newex 732 447 61 196617 unpack 0. 0;#P newex 732 424 61 196617 r $1/wave;#B color 11;#P window setfont Times 9.;#P window linecount 2;#P message 544 490 124 1310729 \; $1/waverand 0;#P message 255 490 257 1310729 \; $1/waverand 1 0.8 1. 6000 10000 50 75;#P toggle 16 493 15 0;#P window linecount 1;#P newex 33 493 220 1310729 proc-randtransf $1/waverand $1/wave 2;#B color 6;#P window linecount 2;#P message 544 430 116 1310729 \; $1/delrand 0;#P message 255 430 263 1310729 \; $1/delrand 1 1154 2308 4000 8000 25 50;#P toggle 16 433 15 0;#P window linecount 1;#P newex 33 433 201 1310729 proc-randtrans $1/delrand $1/del 2;#B color 6;#N out~ 1;#P newobj 31 358 56 1310729 out~ 1;#N in~ 1;#P newobj 31 35 29 1310729 in~ 1;#P newex 31 56 40 1310729 t_dither;#P window setfont "Sans Serif" 9.;#P newex 567 31 148 196617 moduleinit $1;#B color 13;#P window linecount 13;#P message 567 73 270 196617 \; $1/sw/init bang \; $1/delrand 0 \; $1/volrand 0 \; $1/waverand 0 \; $1/fbrand 0 \; $1/trsprand 0 \; $1/trsp/init bang \; $1/win/init bang \; $1/del/init bang \; $1/fb/init bang \; $1/vol/init bang \; $1/delclear bang \;;#P window setfont Times 9.;#P window linecount 1;#P newex 31 251 136 1310729 t_harmunit~ $1 $2;#B color 6;#P window setfont Times 10.;#P window linecount 2;#P comment 35 378 136 1310730 arg 1 : prefix name (ie. mod1) \; arg 2 : del time max;#P hidden connect 7 0 8 0;#P hidden connect 26 0 27 0;#P hidden connect 11 0 12 0;#P hidden connect 22 0 23 0;#P hidden connect 30 0 31 0;#P connect 5 0 4 0;#P connect 4 0 1 0;#P connect 1 0 35 0;#P connect 35 0 6 0;#P connect 37 0 1 1;#P connect 36 0 35 1;#P connect 34 0 35 1;#P connect 38 0 1 2;#P connect 35 1 36 0;#P fasten 35 0 49 0 36 341 109 341;#P connect 39 0 1 3;#P connect 40 0 1 4;#P connect 45 0 42 0;#P connect 42 0 44 0;#P connect 44 0 41 0;#P connect 41 0 43 0;#P fasten 47 0 46 0 572 70 548 70;#P connect 3 0 47 0;#P connect 47 0 2 0;#P connect 15 0 16 0;#P connect 16 0 20 0;#P connect 19 0 20 0;#P connect 20 0 17 0;#P connect 21 0 18 0;#P connect 18 0 19 0;#P connect 16 1 21 0;#P connect 21 0 20 1;#P pop;