max v2;#N vpatcher 0 176 512 286;#P window setfont "Sans Serif" 9.;#P hidden newex 18 587 101 196617 s /movie/mainpanel;#B color 11;#P bpatcher 307 74 139 20 0 0 m_colormode.edit.mxt 1;#P window linecount 2;#P message 377 273 143 196617 \; /movie/colormode/init bang \;;#P window linecount 1;#P newex 377 251 97 196617 s movie/colormode;#B color 5;#P newex 377 228 223 196617 makeparam /movie/colormode /movie m argb;#B color 5;#P newex 376 177 239 196617 variedit /movie/colormode $1 m argb;#B color 12;#P newex 376 200 89 196617 pvar colormode 2;#N vpatcher 585 297 1352 822;#P window setfont "Sans Serif" 9.;#P window linecount 1;#P newex 17 211 30 196617 t b b;#P message 17 416 30 196617 open;#P newex 17 440 111 196617 s /instruments/editor;#B color 11;#P message 17 232 64 196617 instruments;#P newex 51 373 51 196617 tosymbol;#P newex 51 394 66 196617 prepend load;#P window linecount 3;#P newex 51 325 89 196617 sprintf %sinstruments/instruments.mxt;#P window linecount 1;#P newex 51 301 62 196617 projectpath;#B color 6;#P button 69 276 15 0;#P button 17 275 15 0;#P newex 51 415 47 196617 pcontrol;#P newex 17 253 62 196617 checkexist;#B color 6;#P window linecount 0;#P message 585 156 149 196617 windows \, instruments \, editors;#P message 503 136 149 196617 enableitem 0 0 \, enableitem 2 0;#P button 503 93 15 0;#P newex 503 114 174 196617 t b b clear;#P newex 525 64 148 196617 r /movie/windowsmenu/clear;#B color 11;#P newex 163 140 18 196617 t i;#P newex 163 182 32 196617 sel 1;#P newex 163 162 27 196617 > 0;#P newex 163 118 51 196617 zl slice 1;#P newex 163 202 53 196617 zl reg;#P message 227 415 33 196617 set 0;#P newex 17 82 133 196617 route windows instruments;#P newex 357 337 31 196617 t 2 s;#P newex 256 391 38 196617 gate 2;#P newex 284 335 34 196617 t s;#P newex 357 283 31 196617 t s 1;#P newex 216 287 55 196617 t sub subb;#P newex 284 415 83 196617 sprintf %s (%s);#N coll m_shortcuts 1;#P newobj 357 311 95 196617 coll m_shortcuts 1;#B color 5;#P newex 197 31 138 196617 r /movie/windowsmenu/fill;#B color 11;#P newex 184 245 74 196617 route spat sub;#P button 177 31 15 0;#P newex 284 450 78 196617 prepend append;#P newex 197 62 318 196617 t dump b b b;#P newex 206 154 69 196617 route symbol;#N coll m_config 1;#P newobj 163 95 79 196617 coll m_config 1;#B color 5;#N comlet to menu input;#P outlet 284 482 15 0;#P newex 17 144 51 196617 t open l b;#P newex 17 189 47 196617 forward;#P newex 17 117 120 196617 sprintf send /%s/editor;#N comlet from second menu output;#P inlet 17 33 15 0;#P connect 0 0 19 0;#P connect 19 2 1 0;#P connect 1 0 3 0;#P connect 3 0 2 0;#P connect 3 1 2 0;#P connect 19 1 42 0;#P connect 42 0 39 0;#P connect 39 0 31 0;#P connect 31 0 33 0;#P connect 33 0 41 0;#P connect 41 0 40 0;#P connect 34 0 35 0;#P connect 35 0 36 0;#P connect 36 0 38 0;#P connect 38 0 37 0;#P connect 37 0 32 0;#P connect 31 1 34 0;#P fasten 7 0 5 0 202 88 168 88;#P connect 5 0 22 0;#P connect 22 0 25 0;#P connect 25 0 23 0;#P connect 23 0 24 0;#P connect 24 0 21 0;#P connect 21 0 10 0;#P connect 9 0 7 0;#P connect 11 0 7 0;#P connect 5 1 6 0;#P connect 6 0 21 1;#P connect 10 1 14 0;#P connect 3 2 20 0;#P connect 42 1 20 0;#P connect 15 1 17 0;#P connect 18 0 17 0;#P connect 10 2 16 0;#P connect 14 0 16 0;#P connect 16 0 17 1;#P connect 17 1 13 0;#P connect 30 0 8 0;#P connect 13 0 8 0;#P connect 17 0 8 0;#P connect 27 2 4 0;#P connect 29 0 4 0;#P connect 8 0 4 0;#P connect 20 0 4 0;#P connect 14 1 15 0;#P connect 10 2 15 0;#P connect 15 0 12 0;#P connect 12 0 18 0;#P connect 18 1 13 1;#P connect 26 0 28 0;#P connect 7 3 28 0;#P connect 28 0 27 0;#P connect 27 0 29 0;#P connect 27 1 30 0;#P pop;#P hidden newobj 370 124 99 196617 p m_menu-windows;#P window linecount 2;#P newex 26 697 136 196617 s /tapemovie/autoconfig/load;#B color 11;#P window linecount 1;#P newex 112 715 102 196617 s /movie/init/reset;#B color 11;#P user ubutton 76 14 62 25 0 2;#P objectname patcherubutton;#P user hint 75 14 137 39 "© 2006-8 Tom Mays & Renaud Rubiano" 100 100 0 65535 65535 52428 9 3 0 1 0 0 0;#P newex 73 734 132 196617 s /movie/autoconfig/state;#B color 11;#P message 73 675 14 196617 0;#P newex 73 647 50 196617 del 1000;#P toggle 205 590 15 0;#P button 151 590 15 0;#P newex 124 568 91 196617 pvar initubutton 4;#B color 14;#P newex 208 646 32 196617 sel 0;#P newex 250 718 79 196617 pvar initoutline;#B color 14;#P newex 142 669 30 196617 t b b;#P newex 174 670 44 196617 del 100;#P message 178 647 29 196617 stop;#P newex 125 696 102 196617 s /movie/buildreset;#B color 11;#P button 125 671 15 0;#P newex 125 647 50 196617 del 1000;#P window linecount 2;#P message 124 611 93 196617 \; /movie/build bang;#P button 124 589 15 0;#P window linecount 1;#N vpatcher 911 199 1249 401;#P window setfont "Sans Serif" 9.;#P newex 274 50 32 196617 sel 0;#P message 23 112 92 196617 frgb 205 205 205;#P message 150 108 80 196617 frgb 0 146 207;#N comlet from mouse up bang;#P inlet 23 62 15 0;#N comlet from right outlet;#P inlet 274 30 15 0;#N comlet from mouse down bang;#P inlet 150 58 15 0;#N comlet to panel;#P outlet 150 151 15 0;#P connect 6 0 5 0;#P connect 3 0 5 0;#P connect 1 0 4 0;#P connect 5 0 0 0;#P connect 4 0 0 0;#P connect 2 0 6 0;#P pop;#P newobj 250 696 79 196617 p updowncolors;#B color 6;#P message 248 528 30 196617 open;#P newex 248 546 129 196617 s /movie/patchers/editor;#B color 11;#P toggle 332 469 15 0;#P button 274 469 15 0;#P newex 247 447 110 196617 pvar patcherubutton 4;#B color 14;#P newex 333 487 32 196617 sel 0;#P message 301 489 29 196617 stop;#P button 248 510 15 0;#P newex 248 489 50 196617 del 1000;#P button 247 468 15 0;#P newex 278 356 79 196617 pvar buildreset;#B color 14;#P newex 278 417 102 196617 s /movie/buildreset;#B color 11;#P button 278 398 15 0;#P newex 278 377 50 196617 del 1000;#P button 273 142 15 0;#P newex 273 122 74 196617 pvar init-bang;#B color 14;#P newex 273 160 78 196617 s /movie/build;#P bpatcher 109 74 139 20 0 0 m_framerate.disp.mxt 1 /framerate.1;#P bpatcher 15 75 88 20 0 0 m_framemotoronoffbutton.mxt 0;#P hidden message 154 47 43 196617 nogrow;#P objectname nogrow;#P hidden message 154 31 33 196617 grow;#P objectname grow;#P newex 155 177 67 196617 pvar nogrow;#B color 14;#P newex 165 199 57 196617 pvar grow;#B color 14;#P newex 222 317 93 196617 fixedsize 512 110;#B color 6;#P window linecount 2;#P message 14 303 91 196617 \; m_loadinit/play 1;#P window linecount 1;#P newex 14 284 50 196617 del 1000;#P newex 105 422 44 196617 del 100;#P comment 128 446 46 196617 off color;#P window linecount 3;#P message 104 511 99 196617 border 2 \, shadow 0 \, brgb 205 205 205 \, frgb 0 146 207;#P message 105 459 104 196617 border 1 \, shadow 0 \, brgb 244 244 244 \, frgb 194 194 194;#P window linecount 1;#P comment 129 499 46 196617 on color;#P window setfont Times 9.;#P newex 68 432 27 1310729 sel 0;#P toggle 68 413 16 0;#P window setfont "Sans Serif" 9.;#P newex 68 393 132 196617 r /movie/autoconfig/state;#B color 11;#P window setfont Times 9.;#P newex 24 411 40 1310729 sel 1 0;#P window setfont "Sans Serif" 9.;#P message 24 456 69 196617 brgb 128 0 0;#P toggle 24 391 16 0;#P newex 24 371 91 196617 r /movie/building;#B color 11;#P window setfont Times 9.;#P newex 24 558 74 1310729 pvar moviepanel;#P window setfont "Sans Serif" 9.;#P window linecount 2;#P message 259 189 102 196617 \; /movie/initall bang \;;#P window linecount 1;#P newex 222 297 143 196617 editorwindow /movie /movie;#B color 6;#N thispatcher;#Q end;#P newobj 165 343 87 196617 thispatcher;#P window setfont Times 9.;#P newex 164 129 76 1310729 bgcolor 64 64 64;#P window setfont "Sans Serif" 9.;#P window linecount 2;#P message 144 266 172 196617 window flags nogrow \, window flags noclose \, window exec;#P window linecount 1;#P newex 37 260 75 196617 pvar init-label;#P button 144 227 15 0;#P button 165 218 15 0;#P window linecount 2;#P message 165 237 163 196617 window flags grow \, window flags close \, window exec;#P window linecount 1;#N vpatcher 469 183 1245 876;#P origin 0 9;#P window setfont "Sans Serif" 9.;#P window linecount 0;#P message 235 465 14 196617 0;#P newex 234 446 53 196617 sel noedit;#P newex 239 484 29 196617 gate;#P newex 229 354 92 196617 t l 1;#N vpatcher 30 89 315 270;#P window setfont "Sans Serif" 9.;#P newex 22 79 50 196617 deferlow;#P newex 22 51 212 196617 t b b b;#P newex 22 112 115 196617 s /movie/routing/open;#B color 11;#P newex 123 92 119 196617 s /movie/routing/store;#B color 11;#P inlet 22 28 15 0;#P outlet 224 74 15 0;#P connect 1 0 4 0;#P connect 4 0 5 0;#P connect 5 0 3 0;#P connect 4 1 2 0;#P connect 4 2 0 0;#P pop;#P newobj 68 90 30 196617 p;#P newex 191 46 50 196617 deferlow;#P newex 353 403 50 196617 deferlow;#P message 353 357 65 196617 symbol light;#P button 80 189 15 0;#P window linecount 2;#P newex 80 156 91 196617 r /movie/instruments/open;#B color 11;#P window linecount 1;#P newex 18 191 30 196617 t b b;#P message 18 407 30 196617 open;#P newex 18 431 111 196617 s /instruments/editor;#B color 11;#P message 18 214 64 196617 instruments;#P newex 52 364 51 196617 tosymbol;#P newex 52 385 66 196617 prepend load;#P window linecount 3;#P newex 52 307 87 196617 sprintf %sinstruments/instruments.mxt;#P window linecount 1;#P newex 52 283 62 196617 projectpath;#B color 6;#P button 70 258 15 0;#P button 18 257 15 0;#P newex 52 406 47 196617 pcontrol;#P newex 18 235 62 196617 checkexist;#B color 6;#P message 579 150 163 196617 windows \, instruments \, m_routing;#P newex 185 559 31 196617 t 2 s;#P newex 105 559 38 196617 gate 2;#P newex 185 509 31 196617 t s 1;#P newex 133 581 83 196617 sprintf %s (%s);#N coll m_shortcuts 1;#P newobj 185 537 99 196617 coll m_shortcuts 1;#B color 5;#P newex 308 488 30 196617 t b b;#P newex 308 552 30 196617 i;#P message 308 579 82 196617 enableitem \$1 0;#P newex 213 176 161 196617 route editors editmodule channels;#P newex 191 95 262 196617 t b b;#N counter 3 9999;#X flags 0 0;#P newobj 328 531 80 196617 counter 3 9999;#P newex 185 488 30 196617 t s b;#P newex 446 227 78 196617 prepend append;#P newex 353 487 36 196617 zl reg;#P newex 353 424 30 196617 t s s;#P newex 353 382 69 196617 route symbol;#P newex 230 604 78 196617 prepend append;#P newex 422 290 21 196617 t 1;#P newex 364 290 21 196617 t 2;#P newex 364 269 68 196617 route plugins;#P newex 185 357 38 196617 gate 2;#P newex 213 326 50 196617 zl reg;#P newex 185 468 43 196617 zl reg;#P newex 218 425 80 196617 route symbol;#P newex 185 445 32 196617 sel 1;#P newex 185 425 27 196617 > 0;#P newex 185 405 51 196617 zl slice 1;#P newex 213 305 35 196617 sel 1.;#P newex 213 264 50 196617 atoi;#P newex 213 285 136 196617 L==;#P newex 339 231 40 196617 atoi;#P newex 213 242 51 196617 zl slice 1;#P newex 213 200 200 196617 t dump b s;#P newex 213 156 69 196617 route symbol;#P message 191 116 33 196617 dump;#P button 401 467 15 0;#P button 353 467 15 0;#P newex 353 446 58 196617 checkexist;#B color 6;#N coll m_config 1;#P newobj 185 384 83 196617 coll m_config 1;#B color 5;#N coll m_modules 1;#P newobj 213 221 92 196617 coll m_modules 1;#B color 5;#N coll m_build 1;#P newobj 191 135 77 196617 coll m_build 1;#B color 5;#P message 539 193 76 196617 enableitem 0 0;#P button 539 96 15 0;#P newex 539 118 90 196617 t b b clear;#P newex 575 58 148 196617 r /movie/windowsmenu/clear;#B color 11;#P newex 579 171 78 196617 prepend append;#P button 430 30 15 0;#P message 164 220 33 196617 set 0;#P newex 18 56 182 196617 route windows instruments m_routing;#P newex 191 22 138 196617 r /movie/windowsmenu/fill;#B color 11;#P button 171 39 15 0;#P newex 191 69 358 196617 t b b;#N comlet to menu input;#P outlet 308 646 15 0;#P newex 18 118 54 196617 t front l b;#P newex 18 154 47 196617 forward;#P newex 18 91 120 196617 sprintf send /%s/editor;#N comlet from second menu output;#P inlet 18 31 15 0;#P connect 0 0 8 0;#P connect 8 3 1 0;#P connect 1 0 3 0;#P connect 3 1 2 0;#P connect 3 0 2 0;#P connect 8 1 69 0;#P connect 69 0 66 0;#P connect 71 0 66 0;#P connect 66 0 58 0;#P connect 58 0 60 0;#P connect 60 0 68 0;#P connect 68 0 67 0;#P connect 61 0 62 0;#P connect 62 0 63 0;#P connect 63 0 65 0;#P connect 65 0 64 0;#P connect 64 0 59 0;#P connect 8 2 75 0;#P connect 58 1 61 0;#P connect 70 0 71 0;#P connect 54 1 55 0;#P connect 56 0 55 0;#P connect 54 0 55 1;#P connect 55 1 53 0;#P connect 69 1 9 0;#P connect 3 2 9 0;#P connect 75 0 9 0;#P connect 7 0 6 0;#P connect 39 0 36 0;#P connect 38 0 36 0;#P connect 76 0 18 0;#P connect 18 0 30 0;#P connect 30 0 31 0;#P connect 31 0 32 0;#P connect 77 0 34 0;#P connect 34 0 45 0;#P connect 45 0 54 0;#P connect 54 0 52 0;#P connect 52 0 56 0;#P connect 7 0 74 0;#P connect 10 0 74 0;#P connect 74 0 5 0;#P connect 5 0 47 0;#P connect 47 0 22 0;#P connect 22 0 16 0;#P connect 56 1 53 1;#P connect 16 1 23 0;#P connect 23 0 48 0;#P fasten 48 3 24 0 368 196 218 196;#P connect 24 0 17 0;#P connect 17 0 25 0;#P connect 25 0 28 0;#P connect 28 0 27 0;#P connect 27 0 29 0;#P connect 29 0 35 0;#P connect 35 0 36 1;#P connect 18 1 33 0;#P connect 33 0 34 1;#P connect 36 0 76 0;#P fasten 55 0 40 0 110 602 235 602;#P fasten 53 0 40 0 138 602 235 602;#P connect 43 0 40 0;#P connect 30 1 78 0;#P connect 78 0 79 0;#P connect 76 1 77 0;#P connect 79 0 77 0;#P connect 17 1 35 1;#P lcolor 7;#P connect 32 0 77 1;#P connect 24 1 51 0;#P connect 51 0 50 0;#P connect 50 0 49 0;#P connect 49 0 4 0;#P fasten 9 0 4 0 169 632 313 632;#P fasten 15 0 4 0 544 608 313 608;#P fasten 13 2 4 0 624 608 313 608;#P fasten 11 0 4 0 584 608 313 608;#P fasten 44 0 4 0 451 602 313 602;#P fasten 40 0 4 0 235 626 313 626;#P connect 20 0 46 0;#P connect 51 1 46 0;#P connect 45 1 46 0;#P connect 46 0 50 1;#P connect 24 2 26 0;#P connect 26 0 27 1;#P connect 36 1 41 0;#P connect 72 0 41 0;#P connect 41 0 73 0;#P connect 73 0 42 0;#P connect 42 0 19 0;#P connect 19 0 20 0;#P connect 20 0 43 0;#P connect 47 1 46 2;#P connect 24 2 37 0;#P connect 37 0 38 0;#P connect 42 1 43 1;#P connect 19 1 21 0;#P connect 37 1 39 0;#P connect 24 2 44 0;#P connect 12 0 14 0;#P connect 5 1 14 0;#P connect 14 0 13 0;#P connect 13 0 15 0;#P connect 13 1 57 0;#P connect 57 0 11 0;#P pop;#P hidden newobj 389 16 99 196617 p m_menu-windows;#N vpatcher 818 350 1362 781;#P window setfont "Sans Serif" 9.;#P newex 44 225 30 196617 t b b;#P message 96 310 120 196617 load m_configeditor.mxt;#P message 44 335 30 196617 open;#P newex 44 359 117 196617 s /movie/config/editor;#B color 11;#P message 44 246 70 196617 movie/config;#P button 96 290 15 0;#P button 44 289 15 0;#P newex 96 329 47 196617 pcontrol;#P newex 44 267 62 196617 checkexist;#B color 6;#P message 409 117 64 196617 preferences;#P message 331 117 76 196617 enableitem 0 0;#P newex 245 124 69 196617 route symbol;#P newex 245 156 78 196617 prepend append;#P newex 289 34 153 196617 r /movie/preferencesmenu/fill;#B color 11;#P button 269 34 15 0;#P newex 289 65 214 196617 t dump b clear;#N coll m_archmenu 1;#T flags 1 0;#T store m_config 0;#P newobj 217 100 95 196617 coll m_archmenu 1;#B color 5;#P message 122 147 33 196617 set 0;#N comlet back to ubumenu;#P outlet 122 182 15 0;#P newex 38 43 137 196617 route architecture m_config;#P newex 38 120 94 196617 t open l b;#P newex 38 147 47 196617 forward;#P newex 38 98 153 196617 sprintf send /movie/%s/editor;#N comlet from second menu output;#P inlet 38 17 15 0;#P connect 0 0 4 0;#P connect 4 2 1 0;#P connect 1 0 3 0;#P connect 3 1 2 0;#P connect 3 0 2 0;#P connect 4 1 23 0;#P connect 23 0 19 0;#P connect 19 0 15 0;#P connect 15 0 17 0;#P connect 17 0 21 0;#P connect 21 0 20 0;#P connect 15 1 18 0;#P connect 18 0 22 0;#P connect 22 0 16 0;#P connect 3 2 6 0;#P connect 23 1 6 0;#P fasten 13 0 5 0 336 178 127 178;#P fasten 8 2 5 0 498 178 127 178;#P fasten 11 0 5 0 250 178 127 178;#P connect 6 0 5 0;#P fasten 8 0 7 0 294 91 222 91;#P connect 7 1 12 0;#P connect 14 0 11 0;#P connect 12 0 11 0;#P connect 10 0 8 0;#P connect 9 0 8 0;#P connect 8 1 13 0;#P connect 8 1 14 0;#P pop;#P hidden newobj 395 41 84 196617 p m_menu-prefs;#P window setfont "Sans Serif" 18.;#N vpatcher 327 309 584 609;#P origin 0 -22;#P window setfont "Sans Serif" 12.;#P newex 101 107 46 196620 m_glu;#B color 6;#P window setfont "Sans Serif" 14.;#N vpatcher 537 121 980 539;#P origin 49 -32;#P window setfont "Sans Serif" 9.;#P window linecount 1;#P message 226 353 30 196617 done;#P message 275 353 41 196617 loading;#P newex 275 372 121 196617 print movie-config_colls;#B color 11;#P button 15 337 15 0;#P window linecount 0;#P newex 15 358 153 196617 s /movie/autoconfig/load/done;#B color 11;#P button 15 55 15 0;#P message 175 208 30 196617 open;#P newex 15 207 139 196617 configcollreadlib m_channels;#B color 13;#P message 175 315 30 196617 open;#P newex 15 314 140 196617 configcollreadlib m_windows;#B color 13;#P message 175 232 30 196617 open;#P message 175 183 30 196617 open;#P message 175 156 30 196617 open;#P message 175 130 30 196617 open;#P message 175 104 30 196617 open;#P message 175 78 30 196617 open;#P newex 15 232 144 196617 configcollreadlib m_shortcuts;#B color 13;#P newex 15 182 128 196617 configcollreadlib m_config;#B color 13;#P newex 15 155 133 196617 configcollreadlib m_effects;#B color 13;#P newex 15 129 152 196617 configcollreadlib m_submodules;#B color 13;#P newex 15 103 137 196617 configcollreadlib m_modules;#B color 13;#P newex 15 77 122 196617 configcollreadlib m_build;#B color 13;#P newex 15 31 127 196617 r /movie/autoconfig/load;#B color 11;#P newex 231 137 126 196617 s /movie/windows/store;#B color 11;#P newex 231 117 145 196617 r /tapemovie/windows/store;#B color 11;#P newex 231 57 127 196617 s /movie/autoconfig/load;#B color 11;#P newex 231 97 128 196617 s /movie/windows/recall;#B color 11;#P newex 231 77 147 196617 r /tapemovie/windows/recall;#B color 11;#P newex 231 37 146 196617 r /tapemovie/autoconfig/load;#B color 11;#P newex 53 256 130 196617 r /movie/shortcuts/reset;#B color 11;#N vpatcher 30 89 354 289;#P window setfont "Sans Serif" 9.;#P newex 50 146 47 196617 forward;#P newex 122 121 131 196617 sprintf send /%s/shortcut;#P newex 50 95 69 196617 route symbol;#P newex 122 95 69 196617 route symbol;#P newex 50 47 40 196617 t dump;#N coll m_shortcuts 1;#P newobj 50 70 226 196617 coll m_shortcuts 1;#B color 5;#P inlet 50 27 15 0;#P connect 0 0 2 0;#P connect 2 0 1 0;#P connect 1 0 4 0;#P connect 4 0 6 0;#P connect 5 0 6 0;#P connect 1 1 3 0;#P connect 3 0 5 0;#P pop;#P newobj 32 285 84 196617 p send shortcuts;#B color 6;#P button 32 264 15 0;#P newex 231 228 62 196617 projectpath;#B color 6;#P newex 231 273 51 196617 tosymbol;#P newex 231 296 73 196617 prepend write;#P button 231 208 15 0;#P newex 231 186 127 196617 r /movie/windows/write;#B color 11;#P newex 231 250 161 196617 sprintf %sconfig/m_windows.txt;#B color 5;#P connect 15 0 32 0;#P connect 32 0 16 0;#P connect 16 0 17 0;#P connect 17 0 18 0;#P connect 18 0 19 0;#P connect 19 0 20 0;#P connect 20 0 30 0;#P connect 30 0 21 0;#P connect 21 0 28 0;#P connect 28 0 34 0;#P connect 34 0 33 0;#P connect 8 0 6 0;#P connect 21 0 6 0;#P connect 6 0 7 0;#P connect 22 0 16 1;#P connect 26 0 20 1;#P connect 25 0 19 1;#P connect 23 0 17 1;#P connect 31 0 30 1;#P connect 3 0 28 1;#P connect 29 0 28 1;#P connect 27 0 21 1;#P connect 24 0 18 1;#P connect 34 0 37 0;#P connect 9 0 12 0;#P connect 10 0 11 0;#P connect 13 0 14 0;#P connect 1 0 2 0;#P connect 2 0 5 0;#P connect 5 0 0 0;#P connect 0 0 4 0;#P connect 4 0 3 0;#P connect 32 0 36 0;#P connect 36 0 35 0;#P connect 37 0 35 0;#P pop;#P newobj 8 140 126 196622 p m_config_colls;#B color 6;#N vpatcher 595 302 950 648;#P origin 0 -9;#P window setfont "Sans Serif" 9.;#P window linecount 0;#P newex 189 150 65 196617 t i i;#P newex 15 127 136 196617 t dump <none> clear;#P newex 102 258 69 196617 route symbol;#P newex 78 281 128 196617 s /movie/torendermenus;#B color 12;#P window linecount 3;#P newex 189 175 65 196617 sprintf store out.%ld out.%ld;#P window linecount 1;#P newex 159 128 40 196617 uzi;#N coll m_config 1;#P newobj 159 105 90 196617 coll m_config 1;#B color 5;#N coll m_renders 1;#P newobj 15 236 271 196617 coll m_renders 1;#B color 5;#P newex 15 80 298 196617 t b render clear;#P newex 15 34 147 196617 r /movie/rendercolls/update;#B color 12;#P button 15 56 15 0;#P connect 1 0 0 0;#P connect 0 0 2 0;#P connect 2 0 9 0;#P fasten 6 0 3 0 194 222 20 222;#P lcolor 2;#P connect 9 0 3 0;#P fasten 2 2 3 0 308 228 20 228;#P lcolor 13;#P connect 9 2 7 0;#P connect 8 0 7 0;#P connect 9 1 7 0;#P connect 3 1 8 0;#P connect 2 1 4 0;#P connect 4 0 5 0;#P connect 5 2 10 0;#P connect 10 0 6 0;#P connect 10 1 6 1;#P pop;#P newobj 94 64 107 196622 p render-colls;#B color 6;#N vpatcher 404 188 676 766;#P origin 286 -139;#P window setfont "Sans Serif" 9.;#P hidden newex 239 -8 30 196617 t b s;#P hidden newex 125 -29 60 196617 route show;#P hidden newex 342 -4 98 196617 s /movie/gl/editor;#P hidden newex 264 13 94 196617 prepend setsymbol;#P hidden newex 264 -27 89 196617 t s glgroup b open;#P bpatcher 0 1 256 558 -3 0 m_glgroup.edit.mxt 0;#P hidden newex 62 -49 190 196617 editorwindow /movie/gl /movie;#B color 6;#N thispatcher;#Q end;#P hidden newobj 62 -29 61 196617 thispatcher;#P hidden connect 3 1 2 0;#P hidden fasten 0 0 1 0 67 -9 58 -9 58 -52 67 -52;#P hidden connect 1 0 0 0;#P hidden connect 1 0 6 0;#P hidden connect 3 0 7 0;#P hidden connect 7 0 2 1;#P hidden connect 4 0 2 1;#P hidden connect 6 0 3 0;#P hidden connect 7 1 4 0;#P hidden connect 3 3 5 0;#P pop;#P newobj 8 64 83 196622 p gl editor;#B color 6;#N vpatcher 555 280 971 617;#P origin 32 42;#P window setfont "Sans Serif" 12.;#P window linecount 0;#P newex 14 286 86 196620 m_rendering;#B color 5;#P window setfont "Sans Serif" 9.;#P comment 87 233 120 196617 out as float if necessary;#P comment 327 226 47 196617 comppat;#P newex 210 202 18 196617 t i;#P newex 210 246 111 196617 s /movie/fpsoutint;#B color 12;#P comment 322 247 57 196617 to fps disp;#P newex 210 182 34 196617 + 0.5;#P window linecount 1;#P newex 224 224 102 196617 s /framemotor/real;#B color 12;#P newex 81 156 51 196617 route fps;#P newex 31 100 53 196617 t getfps b;#P user jit.fpsgui 31 123 60 196617 0;#P newex 81 246 111 196617 s /movie/fpsout;#B color 12;#P window linecount 2;#P message 111 84 138 196617 \; /framemotor/fps/init bang \;;#P window linecount 1;#P newex 111 50 99 196617 r /framemotor/init;#B color 12;#P window linecount 0;#P newex 61 49 45 196617 !/ 1000.;#P newex 61 28 246 196617 makeparam /framemotor/fps /render.1 i 30 0 60 1;#B color 12;#P toggle 14 25 15 0;#P newex 14 6 97 196617 r /framemotor/sw;#B color 12;#P window linecount 1;#P newex 14 76 57 196617 qmetro 40;#P connect 1 0 2 0;#P connect 2 0 0 0;#P connect 0 0 18 0;#P lcolor 6;#P connect 0 0 9 0;#P fasten 9 1 8 0 79 120 36 120;#P connect 9 0 8 0;#P connect 3 0 4 0;#P fasten 4 0 0 1 66 71 66 71;#P lcolor 2;#P connect 8 1 10 0;#P connect 10 0 7 0;#P connect 5 0 6 0;#P fasten 10 0 12 0 86 178 215 178;#P connect 12 0 15 0;#P connect 15 0 14 0;#P connect 15 0 11 0;#P pop;#P newobj 8 90 72 196622 p render;#B color 6;#P newex 8 190 77 196622 m_builder;#B color 6;#P window setfont "Sans Serif" 9.;#P newex 9 222 188 196617 editorwindow /movie/patchers /movie;#B color 6;#N thispatcher;#Q end;#P newobj 9 243 61 196617 thispatcher;#P window setfont "Sans Serif" 14.;#N vpatcher 54 61 756 823;#P origin 47 -149;#P window setfont "Sans Serif" 9.;#P message 57 127 14 196617 0;#P window linecount 1;#P newex 78 130 97 196617 s /framemotor/sw;#B color 11;#P number 395 411 35 9 0 1 3 3 0 0 0 221 221 221 222 222 222 0 0 0;#P newex 395 391 107 196617 r /movie/nobuild;#B color 11;#P newex 344 409 41 196617 sel 0 1;#P newex 344 389 27 196617 i;#P window linecount 0;#P newex 435 181 69 196617 route editors;#P button 253 138 15 0;#P newex 255 156 138 196617 s /movie/editmodule/delete;#B color 11;#P number 581 330 35 9 0 0 0 3 0 0 0 221 221 221 222 222 222 0 0 0;#N vpatcher 10 59 326 394;#P window setfont "Sans Serif" 9.;#P window linecount 1;#P newex 50 263 38 196617 del 10;#P newex 90 219 127 196617 s /movie/windows/write;#B color 11;#P newex 50 173 71 196617 t b b b b;#P newex 50 152 32 196617 del 1;#P newex 90 108 126 196617 s /movie/windows/store;#B color 11;#P window linecount 0;#P newex 50 50 71 196617 t b b b b;#P inlet 50 30 15 0;#P outlet 50 284 15 0;#P connect 1 0 2 0;#P connect 2 0 4 0;#P connect 4 0 5 0;#P connect 5 0 7 0;#P connect 7 0 0 0;#P connect 2 2 3 0;#P connect 5 2 6 0;#P pop;#P newobj 221 222 117 196617 p windows-store/write;#B color 6;#P newex 280 102 93 196617 r /movie/verbose;#B color 11;#P window setfont "Sans Serif" 14.;#P newex 412 300 179 196622 tm_initmodules /movie;#B color 6;#P window setfont "Sans Serif" 9.;#P newex 501 426 62 196617 print movie;#P window linecount 2;#P message 501 362 132 196617 ---------- BUILDING movie - please wait ----------;#P button 463 639 15 0;#P button 366 635 15 0;#P newex 366 600 88 196617 deletebuildeditors /movie;#B color 6;#P window linecount 1;#P newex 366 673 50 196617 deferlow;#P window linecount 2;#P newex 463 602 90 196617 deletebuildmodules /movie;#B color 6;#P window linecount 1;#P newex 366 694 50 196617 t resume;#P newex 366 576 107 196617 route editors;#P newex 366 556 69 196617 route symbol;#P button 14 433 15 0;#P newex 14 453 102 196617 s /movie/buildreset;#B color 11;#P newex 14 412 44 196617 del 100;#P newex 14 147 41 196617 sel 1 0;#P button 14 104 15 0;#P newex 14 126 27 196617 i;#P newex 31 104 132 196617 r /movie/autoconfig/state;#B color 11;#P comment 30 151 138 196617 compare old and new configs;#P button 158 287 15 13;#P newex 14 390 45 196617 onebang;#P button 14 371 15 0;#P newex 14 350 98 196617 r /movie/init/done;#B color 11;#P comment 173 288 67 196617 done building;#P window linecount 2;#P message 359 362 92 196617 \; /movie/building 1;#P window linecount 4;#P message 457 81 167 196617 \; /movie/autoconfig/state 0 \; /movie/windowsmenu/clear bang \; /movie/buildreset bang;#P window linecount 1;#P newex 412 225 47 196617 forward;#P newex 412 161 20 196617 t b;#P newex 427 204 153 196617 sprintf send /movie/%s/delete;#P newex 435 161 69 196617 route symbol;#P message 412 121 33 196617 dump;#N coll m_build 1;#P newobj 412 140 81 196617 coll m_build 1;#B color 5;#P newex 412 48 88 196617 r /movie/unbuild;#B color 11;#P button 412 69 24 0;#P comment 359 337 45 196617 changes;#P newex 344 502 65 196617 t next pause;#P newex 344 451 32 196617 del 1;#P newex 344 430 142 196617 t b length start;#P newex 344 480 59 196617 uzi;#P number 422 473 35 9 0 0 0 3 0 0 0 221 221 221 222 222 222 0 0 0;#P newex 422 451 46 196617 grab;#N coll m_build 1;#P newobj 344 534 77 196617 coll m_build 1;#B color 5;#P window linecount 2;#P message 24 294 98 196617 \; /movie/initall bang;#P window linecount 1;#N vpatcher 10 59 228 334;#P window setfont "Sans Serif" 9.;#P window linecount 1;#N coll m_config-old 1;#P newobj 29 220 97 196617 coll m_config-old 1;#B color 5;#P window linecount 0;#P newex 29 116 69 196617 route symbol;#P newex 29 52 154 196617 t b clear;#P newex 29 180 117 196617 substitute symbol store;#P newex 29 160 44 196617 zl rot 2;#P newex 29 139 38 196617 zl join;#P message 29 73 33 196617 dump;#N coll m_config 1;#P newobj 29 94 95 196617 coll m_config 1;#B color 5;#P inlet 29 32 15 0;#P connect 0 0 6 0;#P connect 6 0 2 0;#P connect 2 0 1 0;#P connect 1 0 7 0;#P connect 7 1 3 0;#P connect 7 0 3 0;#P connect 3 0 4 0;#P connect 4 0 5 0;#P fasten 6 1 8 0 178 206 34 206;#P connect 5 0 8 0;#P connect 1 1 3 1;#P pop;#P newobj 158 463 93 196617 p copy_config-coll;#B color 6;#P button 158 442 15 0;#P newex 24 272 44 196617 del 100;#P button 344 336 15 0;#P button 94 228 15 0;#P button 14 228 15 0;#P window linecount 2;#P comment 29 228 41 196617 no changes;#P comment 109 228 54 196617 change in order only;#P button 14 186 15 0;#P window linecount 1;#P comment 30 186 138 196617 compare old and new configs;#N vpatcher 301 46 1308 767;#P button 442 643 15 0;#P button 386 643 15 0;#P button 318 643 15 0;#P window setfont "Sans Serif" 9.;#P window linecount 2;#P comment 309 676 41 196617 no changes;#P window linecount 1;#P comment 374 677 63 196617 order only;#P comment 457 662 45 196617 changes;#P comment 322 603 217 196617 if no changes check to see if order changed ->;#P newex 660 607 41 196617 sel 0 1;#P toggle 660 559 15 0;#P comment 675 560 171 196617 are there any changes in the order?;#P newex 660 537 27 196617 i;#P newex 948 507 21 196617 t 0;#P newex 792 507 21 196617 t 1;#N comlet bang if ONLY order changed in config;#P outlet 386 661 15 0;#P newex 836 507 50 196617 t resume;#P newex 836 484 32 196617 del 1;#P newex 792 485 29 196617 gate;#P newex 762 396 40 196617 t b l 1;#P newex 855 392 62 196617 prepend set;#P newex 811 446 31 196617 t b 0;#P newex 811 425 37 196617 match;#P comment 547 80 216 196617 yes: run build routine for mtrx only \, then init;#P comment 529 67 158 196617 did order change?;#P comment 547 93 106 196617 no: go straight to init;#P newex 762 373 40 196617 atoi;#P newex 762 352 51 196617 tosymbol;#P newex 762 329 69 196617 route symbol;#P newex 855 372 40 196617 atoi;#P newex 855 351 51 196617 tosymbol;#P newex 855 328 69 196617 route symbol;#N coll m_config-old 1;#P newobj 825 301 101 196617 coll m_config-old 1;#B color 5;#P comment 651 143 141 196617 check to see if order changed;#P newex 636 258 65 196617 t next pause;#P button 636 143 15 0;#P newex 636 189 32 196617 del 1;#P newex 636 163 208 196617 t b length start b;#P newex 636 237 59 196617 uzi;#P number 702 211 35 9 0 0 0 3 0 0 0 221 221 221 222 222 222 0 0 0;#P newex 702 189 46 196617 grab;#N coll m_config 1;#P newobj 738 301 83 196617 coll m_config 1;#B color 5;#P newex 425 577 126 196617 v m_config-has-changed?;#B color 12;#N comlet bang if there have been changes in config;#P outlet 442 661 15 0;#N comlet bang if there have been no changes in config;#P outlet 318 661 15 0;#P comment 36 35 164 196617 compare old to new and new to old;#P inlet 20 34 15 0;#P comment 512 54 158 196617 no:;#P newex 318 577 103 196617 sel 0 1;#P toggle 318 556 15 0;#P newex 313 494 21 196617 t 0;#P newex 335 494 21 196617 t 1;#P newex 318 535 27 196617 i;#P comment 340 80 100 196617 compare new to old;#N coll m_config-status 1;#P newobj 504 547 112 196617 coll m_config-status 1;#B color 5;#P newex 322 420 50 196617 t resume;#P newex 322 399 32 196617 del 1;#P newex 322 378 20 196617 t b;#P newex 396 488 36 196617 zl reg;#P newex 504 422 69 196617 route symbol;#P newex 504 488 36 196617 zl reg;#P message 553 377 33 196617 set 0;#P newex 457 265 106 196617 t s s b;#P newex 504 509 94 196617 sprintf store %s 0;#P newex 396 509 94 196617 sprintf store %s 1;#P newex 396 453 29 196617 gate;#P newex 366 367 40 196617 t b l 1;#P newex 457 377 62 196617 prepend set;#P newex 366 309 40 196617 atoi;#P newex 457 311 69 196617 route symbol;#P newex 457 357 40 196617 atoi;#P newex 366 288 51 196617 tosymbol;#P newex 457 428 31 196617 t 0 b;#P newex 457 407 37 196617 match;#P newex 457 337 51 196617 tosymbol;#N coll m_config 1;#P newobj 457 288 79 196617 coll m_config 1;#B color 5;#P newex 366 265 69 196617 route symbol;#P newex 325 195 37 196617 t next;#P newex 373 195 42 196617 t pause;#P button 325 80 15 0;#P newex 325 126 32 196617 del 1;#P newex 325 100 142 196617 t b length start;#P newex 325 174 59 196617 uzi;#P number 391 148 35 9 0 0 0 3 0 0 0 221 221 221 222 222 222 0 0 0;#P newex 391 126 46 196617 grab;#N coll m_config-old 1;#P newobj 427 238 101 196617 coll m_config-old 1;#B color 5;#P comment 512 41 364 196617 yes: run build routine \, checking t_config-status to only build what has changed;#N coll m_config-status 1;#P newobj 199 547 112 196617 coll m_config-status 1;#B color 5;#P newex 17 420 50 196617 t resume;#P newex 17 399 32 196617 del 1;#P newex 17 378 20 196617 t b;#P newex 91 488 36 196617 zl reg;#P newex 193 407 69 196617 route symbol;#P newex 199 488 36 196617 zl reg;#P message 242 377 33 196617 set 0;#P newex 146 265 106 196617 t s s b;#P newex 199 509 94 196617 sprintf store %s 0;#P newex 91 509 94 196617 sprintf store %s 1;#P newex 91 453 29 196617 gate;#P newex 61 367 40 196617 t b l 1;#P newex 146 377 62 196617 prepend set;#P newex 61 309 40 196617 atoi;#P newex 146 311 69 196617 route symbol;#P newex 146 357 40 196617 atoi;#P newex 61 288 51 196617 tosymbol;#P newex 146 428 31 196617 t 0 b;#P newex 146 407 37 196617 match;#P newex 146 337 51 196617 tosymbol;#N coll m_config-old 1;#P newobj 146 288 97 196617 coll m_config-old 1;#B color 5;#P newex 61 265 69 196617 route symbol;#P newex 20 195 37 196617 t next;#P newex 68 195 42 196617 t pause;#P button 20 58 15 0;#P newex 20 126 32 196617 del 1;#P newex 20 100 275 196617 t b length start clear b;#P newex 20 174 59 196617 uzi;#P number 86 148 35 9 0 0 0 3 0 0 0 221 221 221 222 222 222 0 0 0;#P newex 86 126 46 196617 grab;#N coll m_config 1;#P newobj 122 238 83 196617 coll m_config 1;#B color 5;#P comment 490 28 288 196617 1) Compare old to new and new to old. Are there any changes?;#P comment 36 58 100 196617 compare old to new;#P comment 333 557 115 196617 are there any changes?;#P connect 24 0 31 0;#P connect 25 0 31 0;#P connect 31 0 32 0;#P connect 32 0 33 0;#P connect 75 0 9 0;#P connect 9 0 7 0;#P connect 7 0 8 0;#P fasten 33 0 6 0 22 440 11 440 11 170 25 170;#P connect 8 0 6 0;#P fasten 10 0 6 0 73 215 113 215 113 167 25 167;#P connect 6 0 11 0;#P connect 3 0 12 0;#P connect 12 1 17 0;#P connect 12 0 17 0;#P connect 17 0 20 0;#P connect 20 0 22 0;#P connect 6 2 10 0;#P connect 5 0 6 1;#P connect 7 1 4 0;#P connect 4 0 5 0;#P connect 16 0 23 0;#P connect 22 2 23 0;#P connect 23 0 30 0;#P connect 30 0 24 0;#P connect 22 0 23 1;#P connect 29 0 30 1;#P connect 4 1 3 0;#P connect 7 2 3 0;#P connect 11 0 3 0;#P connect 3 1 26 0;#P connect 26 0 13 0;#P connect 13 0 19 0;#P connect 19 0 14 0;#P connect 19 1 14 0;#P connect 14 0 18 0;#P connect 18 0 21 0;#P connect 27 0 15 0;#P connect 22 1 15 0;#P connect 21 0 15 0;#P connect 15 0 16 0;#P connect 26 1 29 0;#P connect 16 1 28 0;#P connect 28 0 25 0;#P connect 25 0 34 0;#P connect 24 0 34 0;#P fasten 7 3 34 0 223 535 204 535;#P connect 29 0 28 1;#P connect 26 2 27 0;#P connect 7 4 71 0;#P connect 39 1 69 0;#P connect 69 0 72 0;#P connect 72 0 73 0;#P connect 112 0 117 0;#P connect 117 0 77 0;#P connect 57 0 64 0;#P connect 58 0 64 0;#P connect 64 0 65 0;#P connect 65 0 66 0;#P connect 6 1 42 0;#P connect 42 0 40 0;#P connect 40 0 41 0;#P fasten 43 0 39 0 378 215 418 215 418 167 330 167;#P connect 41 0 39 0;#P fasten 66 0 39 0 327 440 316 440 316 170 330 170;#P connect 39 0 44 0;#P connect 56 0 70 0;#P connect 23 0 70 0;#P connect 70 0 69 1;#P connect 71 0 69 1;#P connect 36 0 45 0;#P connect 45 0 50 0;#P connect 45 1 50 0;#P connect 50 0 53 0;#P connect 53 0 55 0;#P connect 39 2 43 0;#P connect 38 0 39 1;#P connect 112 1 118 0;#P connect 118 0 106 0;#P connect 40 1 37 0;#P connect 37 0 38 0;#P connect 55 2 56 0;#P connect 49 0 56 0;#P connect 56 0 63 0;#P connect 63 0 57 0;#P connect 55 0 56 1;#P connect 62 0 63 1;#P fasten 72 0 79 0 323 574 430 574;#P connect 37 1 36 0;#P connect 44 0 36 0;#P connect 40 2 36 0;#P connect 73 1 119 0;#P connect 119 0 78 0;#P connect 36 1 59 0;#P connect 59 0 46 0;#P connect 46 0 52 0;#P connect 52 1 47 0;#P connect 52 0 47 0;#P connect 47 0 51 0;#P connect 51 0 54 0;#P connect 54 0 48 0;#P connect 55 1 48 0;#P connect 60 0 48 0;#P connect 48 0 49 0;#P connect 59 1 62 0;#P connect 49 1 61 0;#P connect 61 0 58 0;#P connect 58 0 67 0;#P connect 57 0 67 0;#P connect 62 0 61 1;#P connect 59 2 60 0;#P fasten 73 0 86 0 323 615 626 615 626 136 641 136;#P connect 86 0 84 0;#P connect 84 0 85 0;#P connect 85 0 83 0;#P fasten 105 0 83 0 841 531 932 531 932 234 641 234;#P lcolor 7;#P fasten 87 1 83 0 696 277 709 277 709 231 641 231;#P connect 83 0 87 0;#P connect 83 1 109 0;#P connect 109 0 111 0;#P connect 111 0 112 0;#P connect 107 0 109 1;#P connect 108 0 109 1;#P connect 82 0 83 1;#P connect 84 1 81 0;#P connect 81 0 82 0;#P connect 84 2 80 0;#P connect 81 1 80 0;#P connect 87 0 80 0;#P connect 80 1 93 0;#P connect 93 0 94 0;#P connect 93 1 94 0;#P connect 94 0 95 0;#P connect 95 0 102 0;#P connect 102 2 103 0;#P connect 100 1 103 0;#P connect 103 0 107 0;#P connect 101 0 99 0;#P connect 102 1 99 0;#P connect 99 0 100 0;#P connect 102 0 103 1;#P connect 87 0 89 0;#P connect 84 2 89 0;#P connect 100 0 104 0;#P connect 103 0 104 0;#P connect 104 0 105 0;#P connect 89 1 90 0;#P connect 90 1 91 0;#P connect 90 0 91 0;#P connect 91 0 92 0;#P connect 92 0 101 0;#P fasten 84 3 108 0 839 187 953 187;#P pop;#P newobj 14 204 170 196617 p compare_config;#B color 6;#P newex 117 34 102 196617 r /movie/buildreset;#B color 11;#P newex 158 306 50 196617 deferlow;#P button 117 55 15 0;#P newex 14 82 54 196617 onebang 1;#P window linecount 7;#P message 158 327 172 196617 bang \; /movie/texturecolls/update bang \; /movie/windowsmenu/fill bang \; /movie/preferencesmenu/fill bang \; /movie/windows/recall bang \; /movie/building 0 \; /movie/autoconfig/state 1 \;;#P window linecount 1;#P newex 14 34 78 196617 r /movie/build;#B color 11;#P button 14 55 24 0;#P newex 412 330 134 196617 s /movie/initmodules/done;#B color 11;#P window setfont "Sans Serif" 18.;#P comment 391 20 210 196626 read configuration files;#P window setfont "Sans Serif" 12.;#P comment 441 276 145 196620 launched by m_init.txt;#P window setfont "Sans Serif" 9.;#P newex 412 253 108 196617 r /movie/initmodules;#B color 11;#P button 412 272 24 0;#P connect 6 0 5 0;#P connect 5 0 8 0;#P connect 8 0 50 0;#P connect 50 0 49 0;#P connect 49 0 51 0;#P connect 51 0 14 0;#P connect 14 0 12 0;#P connect 12 0 17 0;#P connect 43 0 44 0;#P connect 44 0 45 0;#P connect 45 0 52 0;#P connect 52 0 54 0;#P connect 54 0 53 0;#P connect 21 0 20 0;#P connect 17 0 20 0;#P connect 20 0 23 0;#P connect 48 0 49 1;#P connect 21 0 45 1;#P fasten 17 0 45 1 19 331 54 331;#P connect 50 0 77 0;#P connect 9 0 8 1;#P connect 77 0 76 0;#P connect 12 1 18 0;#P connect 11 0 9 0;#P connect 27 1 46 0;#P connect 73 1 46 0;#P connect 46 0 10 0;#P connect 10 0 7 0;#P connect 7 0 21 0;#P connect 21 0 22 0;#P connect 12 2 67 0;#P fasten 51 1 67 0 34 173 226 173;#P connect 70 0 69 0;#P connect 67 0 19 0;#P connect 19 0 72 0;#P connect 72 0 73 0;#P connect 73 0 28 0;#P connect 28 0 29 0;#P connect 29 0 27 0;#P fasten 30 1 27 0 404 523 413 523 413 475 349 475;#P fasten 57 0 27 0 371 716 338 716 338 477 349 477;#P connect 27 0 30 0;#P fasten 25 1 24 0 463 528 349 528;#P fasten 28 2 24 0 481 528 349 528;#P connect 30 0 24 0;#P fasten 19 0 41 0 349 356 364 356;#P connect 75 0 72 1;#P connect 24 1 55 0;#P connect 55 0 56 0;#P connect 56 0 60 0;#P connect 60 0 61 0;#P connect 61 0 59 0;#P connect 62 0 59 0;#P connect 59 0 57 0;#P connect 26 0 27 1;#P connect 74 0 75 0;#P connect 33 0 32 0;#P connect 32 0 35 0;#P connect 35 0 34 0;#P connect 34 0 38 0;#P connect 37 0 39 0;#P connect 38 0 39 0;#P connect 1 0 0 0;#P connect 0 0 65 0;#P connect 65 0 4 0;#P connect 28 1 25 0;#P connect 25 0 26 0;#P fasten 71 1 37 0 499 201 432 201;#P connect 34 1 36 0;#P connect 36 0 71 0;#P connect 32 0 40 0;#P connect 56 1 58 0;#P connect 58 0 62 0;#P fasten 19 0 63 0 349 353 506 353;#P connect 63 0 64 0;#P connect 65 1 68 0;#P pop;#P newobj 8 165 133 196622 p m_config-works;#B color 6;#N vpatcher 523 222 1196 783;#P origin 17 1;#P window setfont "Sans Serif" 9.;#P window linecount 1;#P newex 169 291 27 196617 b;#P newex 169 334 44 196617 del 100;#P newex 186 313 124 196617 s /movie/shared_context;#B color 12;#P button 507 198 15 0;#P newex 507 237 93 196617 s /movie/verbose;#B color 12;#P newex 507 217 94 196617 v /movie/verbose;#B color 12;#P newex 507 177 124 196617 r /movie/verbose/check;#B color 12;#P newex 23 174 77 196617 s /movie/built;#B color 12;#P newex 23 152 50 196617 deferlow;#P newex 23 131 91 196617 r m_loadinit/done;#P toggle 369 242 15 0;#P newex 450 271 21 196617 t 1;#P newex 450 249 50 196617 del 2000;#P newex 406 284 31 196617 t b 1;#P newex 369 315 45 196617 onebang;#P newex 369 284 31 196617 t b 2;#P newex 369 262 47 196617 gate 2 1;#P button 363 210 15 0;#P newex 363 140 134 196617 r /movie/initmodules/done;#B color 11;#P button 406 213 15 0;#P newex 406 192 73 196617 r m_init/done;#B color 11;#P newex 169 179 44 196617 del 100;#P newex 229 116 21 196617 t 1;#P newex 258 116 21 196617 t 0;#P newex 229 142 97 196617 s /framemotor/sw;#P newex 363 55 125 196617 r /movie/m_init2/editor;#B color 12;#P newex 363 118 53 196617 s m_init2;#B color 12;#P message 363 96 30 196617 open;#P newex 363 76 46 196617 sel open;#B color 12;#P button 23 269 15 0;#P newex 23 248 79 196617 r m_init2/done;#B color 11;#P window linecount 4;#P message 327 455 67 196617 ---------- initing movie - please wait ----------;#P window linecount 0;#P message 106 452 126 196617 ---------- movie initialisation is done ----------;#P window linecount 1;#P newex 106 507 62 196617 print movie;#B color 11;#P newex 23 290 50 196617 del 500;#P newex 169 149 30 196617 t b b;#P newex 169 359 66 196617 onebang;#P bpatcher 169 382 128 62 0 0 qlistinitshell2.edit.mxt 0 m_init2;#P newex 23 352 102 196617 s /movie/init/reset;#B color 11;#P newex 33 332 98 196617 s /movie/init/done;#B color 11;#P button 23 311 15 0;#P newex 213 44 102 196617 r /movie/init/reset;#B color 11;#P button 169 130 15 0;#P button 213 64 15 0;#P newex 169 87 54 196617 onebang 1;#P newex 169 21 83 196617 r /movie/initall;#B color 11;#P button 169 43 24 0;#P bpatcher 169 208 128 62 0 0 qlistinitshell2.edit.mxt 0 m_init;#P bpatcher 23 48 128 62 0 0 qlistinitshell2.edit.mxt 0 m_loadinit;#P window linecount 0;#P newex 507 55 119 196617 r /movie/m_init/editor;#B color 12;#P newex 507 118 47 196617 s m_init;#B color 12;#P message 507 96 30 196617 open;#P newex 507 76 46 196617 sel open;#B color 12;#P comment 369 345 100 196617 diconnect because not functionnaly;#P connect 44 0 45 0;#P connect 45 0 46 0;#P connect 23 0 24 0;#P connect 24 0 19 0;#P connect 19 0 13 0;#P connect 13 0 15 0;#P connect 13 0 14 0;#P connect 13 0 21 0;#P connect 21 0 20 0;#P connect 22 0 20 0;#P connect 8 0 7 0;#P connect 7 0 9 0;#P connect 9 0 11 0;#P connect 11 0 18 0;#P connect 18 0 32 0;#P connect 32 0 6 0;#P connect 36 0 53 0;#P connect 53 0 52 0;#P connect 52 0 17 0;#P connect 17 0 16 0;#P connect 53 1 51 0;#P connect 12 0 10 0;#P connect 10 0 9 1;#P fasten 18 1 17 1 194 169 312 169 312 349 230 349;#P fasten 10 0 31 0 218 83 234 83;#P connect 31 0 29 0;#P connect 30 0 29 0;#P connect 9 0 30 0;#P fasten 18 1 22 0 194 169 332 169;#P connect 28 0 25 0;#P connect 25 0 26 0;#P connect 26 0 27 0;#P connect 35 0 36 0;#P connect 38 1 43 0;#P connect 40 1 43 0;#P connect 42 0 43 0;#P connect 43 0 37 0;#P connect 37 0 38 0;#P connect 40 0 39 0;#P connect 38 0 39 1;#P connect 33 0 34 0;#P connect 34 0 37 1;#P connect 36 0 37 1;#P connect 37 1 40 0;#P connect 34 0 41 0;#P connect 36 0 41 0;#P connect 41 0 42 0;#P connect 4 0 1 0;#P connect 1 0 2 0;#P connect 2 0 3 0;#P connect 47 0 50 0;#P connect 50 0 48 0;#P connect 48 0 49 0;#P pop;#P newobj 8 115 72 196622 p m_inits;#B color 6;#N vpatcher 761 308 1045 603;#P origin 0 -18;#P window setfont "Sans Serif" 9.;#P window linecount 1;#P newex 137 93 50 196617 del 100;#P newex 82 114 65 196617 onebang;#B color 15;#P newex 82 94 50 196617 deferlow;#P newex 82 179 50 196617 del 100;#P button 82 137 15 0;#P newex 82 65 100 196617 route jit.gl.texture:;#P newex 82 44 62 196617 route error;#P newex 82 24 44 196617 error 1;#B color 5;#P newex 19 26 50 196617 key;#B color 5;#P newex 19 48 50 196617 sel 13;#P window linecount 0;#P newex 82 157 63 196617 t b b;#P window linecount 3;#P message 135 179 74 196617 \; jitter glreadback fbo \;;#B color 5;#P window linecount 2;#P message 82 227 107 196617 \; jitter glreadback rtt \;;#B color 5;#P connect 4 0 3 0;#P connect 5 0 6 0;#P connect 6 0 7 0;#P connect 7 0 10 0;#P connect 10 0 11 0;#P connect 3 0 8 0;#P connect 11 0 8 0;#P fasten 8 0 2 0 87 158 87 158;#P connect 2 0 9 0;#P connect 9 0 0 0;#P connect 2 1 1 0;#P fasten 9 0 12 0 87 222 236 222 236 86 142 86;#P connect 12 0 11 1;#P pop;#P newobj 8 14 72 196622 p glerror;#B color 6;#N vpatcher 530 52 1320 758;#P origin 0 12;#P window setfont "Sans Serif" 9.;#P window linecount 1;#P newex 117 134 29 196617 gate;#P window setfont "Sans Serif" 12.;#P window linecount 0;#N vpatcher 793 124 1316 821;#P origin 0 5;#P window setfont "Sans Serif" 9.;#P window linecount 1;#P newex 430 330 21 196617 t 0;#P newex 429 292 32 196617 sel 0;#P newex 248 135 35 196617 zl nth;#P outlet 232 109 15 0;#P newex 198 24 31 196617 t s 1;#P outlet 46 662 15 0;#P newex 18 636 38 196617 gate 2;#P newex 386 313 31 196617 t b 2;#P newex 312 313 31 196617 t b 1;#P newex 312 222 96 196617 t l l;#P newex 398 269 27 196617 > 0;#P newex 312 269 83 196617 route jmatrix gl;#P newex 312 248 44 196617 zl nth 2;#P newex 398 248 44 196617 zl nth 4;#N coll m_modules 1;#P newobj 312 198 174 196617 coll m_modules 1;#B color 5;#P newex 70 389 69 196617 route symbol;#P inlet 197 2 15 0;#P outlet 18 662 15 0;#P window linecount 0;#P newex 198 130 36 196617 zl reg;#P newex 61 249 51 196617 zl slice 1;#P newex 44 281 27 196617 i;#P newex 197 152 25 196617 iter;#P newex 61 184 36 196617 zl reg;#P newex 198 78 53 196617 t b b l 0;#P newex 197 173 136 196617 t b s s;#P newex 42 566 194 196617 sprintf store /%s.%ld/%s /%s.%ld/%s;#P newex 44 446 30 196617 t s s;#P newex 44 314 79 196617 uzi;#P newex 44 420 36 196617 zl reg;#N coll m_config 1;#P newobj 61 223 94 196617 coll m_config 1;#B color 5;#N coll m_submodules 1;#P newobj 198 53 134 196617 coll m_submodules 1;#B color 5;#P connect 23 1 24 0;#P connect 30 0 24 0;#P connect 22 1 24 0;#P connect 24 0 13 0;#P connect 4 0 5 0;#P connect 6 0 10 0;#P connect 10 0 3 0;#P connect 3 0 2 0;#P connect 2 0 4 0;#P connect 5 0 24 1;#P connect 24 1 25 0;#P connect 7 1 8 0;#P connect 8 0 1 0;#P connect 1 0 11 0;#P connect 11 0 10 1;#P connect 1 1 15 0;#P connect 15 0 2 1;#P connect 3 2 5 1;#P connect 0 1 8 1;#P connect 6 1 5 2;#P connect 4 1 5 3;#P connect 3 2 5 4;#P connect 12 0 9 0;#P connect 9 0 6 0;#P connect 14 0 26 0;#P connect 26 0 0 0;#P connect 0 0 7 0;#P connect 7 0 12 0;#P connect 6 1 5 5;#P connect 7 2 12 1;#P connect 7 3 27 0;#P connect 26 1 27 0;#P connect 6 2 16 0;#P connect 16 0 21 0;#P connect 21 0 18 0;#P connect 18 0 19 0;#P connect 19 0 22 0;#P connect 19 1 23 0;#P connect 21 1 17 0;#P connect 17 0 20 0;#P connect 20 0 29 0;#P connect 29 0 30 0;#P pop;#P newobj 172 152 91 196620 p submodules;#B color 6;#P window linecount 1;#N vpatcher 30 89 286 434;#P window setfont "Sans Serif" 9.;#P newex 65 137 40 196617 itoa;#B color 12;#P newex 24 114 51 196617 zl slice 1;#B color 12;#P newex 24 92 40 196617 atoi;#B color 12;#P newex 106 227 32 196617 sel 1;#B color 12;#P newex 106 204 51 196617 zl slice 1;#P newex 65 181 51 196617 zl slice 3;#P newex 24 46 163 196617 t s s;#P newex 106 251 81 196617 zl reg;#N coll m_modules 1;#P newobj 65 159 88 196617 coll m_modules 1;#B color 5;#P newex 24 70 81 196617 excludeinstance;#B color 1;#P inlet 24 26 15 0;#P outlet 106 273 15 0;#P connect 1 0 5 0;#P connect 5 0 2 0;#P connect 2 0 9 0;#P connect 9 0 10 0;#P connect 10 1 11 0;#P connect 11 0 3 0;#P connect 3 0 6 0;#P connect 6 1 7 0;#P connect 7 0 8 0;#P connect 8 0 4 0;#P connect 4 0 0 0;#P connect 5 1 4 1;#P pop;#P newobj 359 563 139 196620 p module has output?;#B color 6;#P window setfont "Sans Serif" 9.;#P message 462 623 30 196617 open;#P newex 462 601 115 196617 r /movie/routing/open;#B color 12;#P newex 480 74 129 196617 r /movie/routing/store;#B color 12;#P newex 597 580 30 196617 t b s;#N counter;#X flags 0 0;#P newobj 597 600 124 196617 counter;#P newex 597 560 51 196617 tosymbol;#P button 480 96 15 0;#P newex 480 120 256 196617 t dump 1 clear;#N coll m_routing 1;#P newobj 597 646 84 196617 coll m_routing 1;#B color 5;#P newex 618 494 40 196617 itoa;#P newex 618 475 51 196617 zl ecils 7;#P newex 618 456 40 196617 atoi;#P newex 597 540 40 196617 append;#P newex 597 620 105 196617 sprintf store %ld %s;#P newex 597 413 30 196617 t s b;#P newex 618 517 62 196617 prepend set;#P newex 617 436 36 196617 zl reg;#P newex 540 391 67 196617 route <none>;#P window linecount 2;#P newex 582 356 38 196617 route symbol;#P newex 540 356 38 196617 route symbol;#P window linecount 1;#P newex 520 308 120 196617 sprintf /%s.%ld/source;#P newex 520 268 30 196617 t s s;#P newex 540 289 140 196617 sprintf refer /%s.%ld/state;#N coll /render.1/state;#P newobj 540 334 136 196617 coll;#B color 5;#P newex 520 226 160 196617 t b i;#P newex 520 247 43 196617 zl reg;#P newex 506 204 25 196617 uzi;#P newex 553 204 69 196617 route symbol;#P newex 506 160 69 196617 route symbol;#N coll m_config 1;#P newobj 506 181 153 196617 coll m_config 1;#B color 5;#N coll m_modules 1;#P newobj 480 140 88 196617 coll m_modules 1;#B color 5;#P button 119 461 15 0;#P newex 119 480 136 196617 t dump <none> clear;#P newex 165 530 69 196617 route symbol;#P newex 165 563 129 196617 s /movie/tojmatrixmenus;#B color 12;#P button 313 461 15 0;#P newex 313 480 136 196617 t dump <none> clear;#P newex 359 530 69 196617 route symbol;#P newex 376 657 128 196617 s /movie/totexturemenus;#B color 12;#P newex 118 156 27 196617 t l l;#P newex 332 261 38 196617 gate;#P newex 332 285 123 196617 zl reg;#P newex 332 391 30 196617 t s s;#P newex 332 420 154 196617 sprintf store /%s.%ld /%s.%ld;#P newex 332 349 79 196617 uzi;#P newex 332 369 36 196617 zl reg;#P newex 358 328 69 196617 route symbol;#N coll m_config 1;#P newobj 332 306 90 196617 coll m_config 1;#B color 5;#N coll m_textures 1;#P newobj 332 506 91 196617 coll m_textures 1;#B color 5;#P newex 135 201 27 196617 > 0;#P newex 15 80 298 196617 t b dump clear;#P newex 135 261 38 196617 gate;#P newex 135 285 123 196617 zl reg;#P newex 135 391 30 196617 t s s;#P newex 43 201 83 196617 route jmatrix gl;#P newex 135 420 154 196617 sprintf store /%s.%ld /%s.%ld;#P newex 135 349 79 196617 uzi;#P newex 135 369 36 196617 zl reg;#P newex 161 328 69 196617 route symbol;#N coll m_config 1;#P newobj 135 306 90 196617 coll m_config 1;#B color 5;#P newex 43 180 44 196617 zl nth 2;#P newex 135 180 44 196617 zl nth 4;#N coll m_jmatrix 1;#P newobj 135 506 102 196617 coll m_jmatrix 1;#B color 5;#N coll m_modules 1;#P newobj 118 108 174 196617 coll m_modules 1;#B color 5;#P newex 15 34 147 196617 r /movie/texturecolls/update;#B color 12;#P button 15 56 15 0;#P window linecount 0;#P comment 515 98 235 196617 NEED TO BE UPDATED WITH SUBMODULES SYSTEM;#P connect 2 0 1 0;#P connect 1 0 16 0;#P connect 27 0 6 0;#P connect 6 0 12 0;#P connect 68 2 69 0;#P connect 16 1 3 0;#P connect 69 0 27 0;#P fasten 16 0 35 0 20 453 124 453;#P lcolor 7;#P connect 35 0 34 0;#P connect 27 1 5 0;#P connect 5 0 17 0;#P connect 17 0 15 0;#P connect 15 0 14 0;#P connect 14 0 7 0;#P connect 7 0 10 0;#P connect 10 0 9 0;#P connect 9 0 13 0;#P connect 13 0 11 0;#P fasten 16 2 4 0 308 441 140 441;#P connect 11 0 4 0;#P connect 34 0 4 0;#P connect 68 0 4 0;#P connect 3 0 69 1;#P connect 7 1 8 0;#P connect 8 0 9 1;#P connect 12 0 15 1;#P connect 4 1 33 0;#P connect 34 1 32 0;#P fasten 34 2 32 0 250 554 170 554;#P connect 33 0 32 0;#P connect 3 1 68 0;#P connect 10 2 11 1;#P connect 13 1 11 2;#P fasten 3 1 14 1 177 137 253 137;#P connect 10 2 11 3;#P fasten 16 0 31 0 20 453 318 453;#P lcolor 7;#P connect 31 0 30 0;#P connect 17 0 26 0;#P connect 26 0 25 0;#P connect 25 0 19 0;#P connect 19 0 22 0;#P connect 22 0 21 0;#P connect 21 0 24 0;#P connect 24 0 23 0;#P connect 68 0 18 0;#P fasten 16 2 18 0 308 104 423 104 423 441 337 441;#P connect 68 1 18 0;#P connect 23 0 18 0;#P connect 30 0 18 0;#P fasten 11 0 18 0 140 447 337 447;#P lcolor 5;#P connect 19 1 20 0;#P connect 20 0 21 1;#P connect 18 1 29 0;#P connect 29 0 67 0;#P connect 29 1 67 0;#P connect 12 1 26 1;#P connect 30 1 28 0;#P fasten 30 2 28 0 444 653 381 653;#P connect 67 0 28 0;#P connect 22 2 23 1;#P connect 24 1 23 2;#P fasten 3 1 25 1 177 137 450 137;#P connect 65 0 66 0;#P connect 22 2 23 3;#P connect 64 0 60 0;#P connect 60 0 59 0;#P connect 59 0 36 0;#P connect 36 1 38 0;#P connect 38 0 37 0;#P connect 37 0 40 0;#P connect 40 2 42 0;#P connect 42 0 41 0;#P connect 41 0 45 0;#P connect 45 0 46 0;#P connect 45 1 44 0;#P connect 44 0 43 0;#P connect 46 0 43 0;#P connect 43 0 47 0;#P connect 47 0 49 0;#P connect 37 1 39 0;#P connect 39 0 41 1;#P connect 43 1 48 0;#P connect 49 1 52 0;#P connect 51 0 54 0;#P connect 52 0 54 0;#P connect 54 0 61 0;#P connect 61 0 63 0;#P connect 63 0 62 0;#P connect 62 0 53 0;#P connect 66 0 58 0;#P fasten 59 2 58 0 731 641 602 641;#P connect 53 0 58 0;#P connect 52 1 50 0;#P connect 50 0 55 0;#P connect 55 0 56 0;#P connect 56 0 57 0;#P connect 57 0 51 0;#P connect 42 1 46 1;#P fasten 48 0 50 1 587 387 648 387;#P fasten 59 1 62 2 608 150 712 150 712 594 658 594;#P connect 42 1 44 1;#P connect 63 1 53 1;#P pop;#P newobj 8 39 130 196622 p texture-routing;#B color 6;#P fasten 4 0 5 0 14 263 204 263 204 218 14 218;#P connect 5 0 4 0;#P pop;#P newobj 9 122 132 196626 p m_patchers;#B color 6;#P bpatcher 203 10 173 56 0 0 m_snapshot.edit.mxt 0 m_snapshot movie_switchstate m_mtrx;#P window setfont "Sans Serif" 14.;#P user ubumenu 384 15 110 196622 0 1 1 0;#X setrgb 0 0 0 205 205 205 240 240 240 0 146 207 141 141 141 0 77 166;#X add windows;#X add instruments;#X add m_routing;#X prefix_set 0 0 <none> 0;#P user ubumenu 384 39 110 196622 0 1 1 0;#X setrgb 0 0 0 205 205 205 240 240 240 0 146 207 141 141 141 0 77 166;#X add preferences;#X add m_config;#X prefix_set 0 0 <none> 0;#P window setfont "Sans Serif" 9.;#P message 49 212 80 196617 frgb 0 146 207;#P message 37 232 93 196617 brgb 205 205 205;#P newex 37 191 20 196617 t b;#P newex 14 166 48 196617 loadbang;#P window setfont "Sans Serif" 20.;#P comment 74 12 65 196628 movie;#B frgb 0 146 207;#P user panel 379 10 120 56;#X brgb 235 235 235;#X frgb 0 146 207;#X border 1;#X rounded 4;#X shadow 2;#X done;#P user ubutton 63 40 84 20 0 2;#P objectname initubutton;#P user jsui 63 40 83 20 0 0 0 jsui_roundedlabel.js init_movie;#P objectname init-label;#P user panel 62 39 85 22;#X brgb 255 255 255;#X frgb 205 205 205;#X border 1;#X rounded 0;#X shadow 0;#X done;#P objectname initoutline;#P user panel 11 10 188 56;#X brgb 205 205 205;#X frgb 0 146 207;#X border 1;#X rounded 4;#X shadow 2;#X done;#P user panel 109 76 139 18;#X brgb 255 255 255;#X frgb 0 0 0;#X border 0;#X rounded 0;#X shadow 0;#X done;#P background;#P user panel 11 71 488 28;#X brgb 247 247 247;#X frgb 62 41 109;#X border 1;#X rounded 4;#X shadow 2;#X done;#P background;#P user panel 5 5 500 100;#X brgb 244 244 244;#X frgb 194 194 194;#X border 1;#X rounded 0;#X shadow 0;#X done;#P background;#P objectname moviepanel;#P connect 9 0 41 0;#P connect 41 0 42 0;#P hidden connect 31 0 95 0;#P hidden connect 38 0 95 0;#P hidden connect 37 0 95 0;#P connect 29 0 30 0;#P connect 30 0 32 0;#P connect 32 0 31 0;#P connect 31 0 28 0;#P connect 37 0 28 0;#P connect 38 0 28 0;#P connect 81 0 87 0;#P connect 9 0 10 0;#P connect 10 0 11 0;#P connect 11 0 22 0;#P connect 12 0 22 0;#P connect 10 0 12 0;#P connect 33 0 34 0;#P connect 34 0 35 0;#P connect 73 0 81 0;#P connect 70 0 81 0;#P connect 81 0 82 0;#P connect 82 0 83 0;#P connect 32 1 38 0;#P connect 21 0 40 0;#P connect 40 0 37 0;#P connect 35 0 37 0;#P connect 71 0 86 0;#P connect 78 0 68 0;#P connect 68 0 69 0;#P connect 79 0 70 0;#P connect 73 0 70 0;#P connect 70 0 71 0;#P connect 71 0 72 0;#P connect 71 0 75 0;#P connect 81 0 75 0;#P connect 45 0 21 0;#P connect 9 0 21 0;#P connect 21 0 23 0;#P connect 78 1 79 0;#P connect 44 0 20 0;#P connect 20 0 19 0;#P connect 23 0 25 0;#P connect 19 0 25 0;#P connect 43 0 25 0;#P connect 75 1 74 0;#P connect 68 0 73 0;#P connect 77 0 73 0;#P connect 78 3 80 0;#P connect 80 0 77 0;#P connect 25 0 26 0;#P connect 26 0 43 0;#P connect 62 0 57 0;#P connect 60 0 58 0;#P connect 63 0 58 0;#P connect 58 0 59 0;#P connect 59 0 66 0;#P connect 66 0 65 0;#P connect 75 0 67 0;#P connect 68 0 67 0;#P connect 67 0 76 0;#P connect 51 0 52 0;#P connect 52 0 50 0;#P connect 62 1 63 0;#P connect 56 0 53 0;#P connect 53 0 54 0;#P connect 54 0 55 0;#P connect 74 0 67 1;#P connect 79 0 67 1;#P connect 61 0 60 0;#P connect 57 0 60 0;#P connect 80 0 67 2;#P connect 62 3 64 0;#P connect 64 0 61 0;#P fasten 89 1 90 0 460 222 371 222 371 172 381 172;#P connect 90 0 89 0;#P connect 91 0 92 0;#P hidden connect 18 0 14 0;#P hidden connect 17 0 13 0;#P hidden connect 14 1 18 0;#P hidden connect 13 1 17 0;#P pop;