max v2;#N vpatcher 509 195 1157 764;#P window setfont "Sans Serif" 9.;#P window linecount 1;#P comment 527 231 30 196617 pres;#P newex 520 172 31 196617 t b f;#P flonum 520 212 35 9 0 0 0 3 0 0 0 221 221 221 222 222 222 0 0 0;#P flonum 562 152 35 9 0 0 0 3 0 0 0 221 221 221 222 222 222 0 0 0;#P flonum 520 152 35 9 0 0 0 3 0 0 0 221 221 221 222 222 222 0 0 0;#P newex 520 192 52 196617 randomfR;#P comment 568 132 46 196617 [preslo];#P comment 526 132 46 196617 [preslo];#P comment 484 132 40 196617 [disthi];#P comment 442 132 40 196617 [distlo];#P comment 443 231 22 196617 dist;#P newex 436 172 31 196617 t b f;#P flonum 436 212 35 9 0 0 0 3 0 0 0 221 221 221 222 222 222 0 0 0;#P flonum 478 152 35 9 0 0 0 3 0 0 0 221 221 221 222 222 222 0 0 0;#P flonum 436 152 35 9 0 0 0 3 0 0 0 221 221 221 222 222 222 0 0 0;#P newex 436 192 52 196617 randomfR;#P comment 358 230 22 196617 az;#P number 352 212 35 9 0 0 0 3 0 0 0 221 221 221 222 222 222 0 0 0;#P number 394 152 35 9 0 0 0 3 0 0 0 221 221 221 222 222 222 0 0 0;#P number 352 152 35 9 0 0 0 3 0 0 0 221 221 221 222 222 222 0 0 0;#P newex 352 171 31 196617 t b i;#P newex 352 192 53 196617 randomR;#P comment 400 132 40 196617 [azhi];#P comment 358 132 40 196617 [azlo];#P comment 274 230 22 196617 vel;#P window linecount 2;#P message 224 59 315 196617 \; $1/playsamp2 1 -0.25 0.25 0. 100 127 -45 45 0.9 1. 0.95 0.98;#P number 268 212 35 9 0 0 0 3 0 0 0 221 221 221 222 222 222 0 0 0;#P number 310 152 35 9 0 0 0 3 0 0 0 221 221 221 222 222 222 0 0 0;#P number 268 152 35 9 0 0 0 3 0 0 0 221 221 221 222 222 222 0 0 0;#P window linecount 1;#P newex 268 171 31 196617 t b i;#P newex 268 192 53 196617 randomR;#P comment 316 132 40 196617 [velhi];#P comment 274 132 40 196617 [vello];#P newex 268 115 305 196617 unpack 0 0 0 0 0. 0. 0. 0.;#P flonum 86 300 35 9 0 0 0 3 0 0 0 221 221 221 222 222 222 0 0 0;#P button 65 141 15 0;#P newex 86 278 34 196617 + 60.;#P window setfont Times 9.;#P window linecount 2;#P comment 97 515 276 1310729 list format [pitch (float)] [velocity] [sample number] [az (deg int)] [dist(0. to 1.)] [presence (0. to 1.)];#P window setfont "Sans Serif" 9.;#P window linecount 1;#P newex 86 95 192 196617 zl slice 3;#P newex 14 492 27 196617 gate;#P newex 48 466 30 196617 >= 1;#P newex 31 425 27 196617 t l l;#P newex 48 445 43 196617 zl nth 2;#P newex 31 62 51 196617 zl slice 1;#P number 31 335 35 9 0 0 0 3 0 0 0 221 221 221 222 222 222 0 0 0;#P flonum 86 260 35 9 0 0 0 3 0 0 0 221 221 221 222 222 222 0 0 0;#P window linecount 2;#P comment 178 157 49 196617 [rounding interval];#P window linecount 1;#P newex 86 239 94 196617 intervalrounder;#B color 6;#P flonum 170 183 35 9 0 0 0 3 0 0 0 221 221 221 222 222 222 0 0 0;#P newex 86 181 31 196617 t b f;#P comment 151 136 40 196617 [trsphi];#P comment 93 136 40 196617 [trsplo];#P newex 31 362 52 196617 t b i;#P newex 31 383 28 196617 f;#P flonum 86 221 35 9 0 0 0 3 0 0 0 221 221 221 222 222 222 0 0 0;#P flonum 128 183 35 9 0 0 0 3 0 0 0 221 221 221 222 222 222 0 0 0;#P flonum 86 161 35 9 0 0 0 3 0 0 0 221 221 221 222 222 222 0 0 0;#P newex 86 201 52 196617 randomfR;#P newex 86 118 94 196617 unpack 0. 0. 0.;#P newex 31 36 149 196617 r $1/playsamp2;#B color 11;#P newex 31 405 186 196617 pack 0. 127 1 0 1. 1.;#P window setfont Times 9.;#P newex 14 517 78 1310729 s $1/note;#B color 11;#P window setfont "Sans Serif" 9.;#P window linecount 2;#P comment 224 33 297 196617 playsamp [sample number] [trsplo] [trsphi] [rounding interval] [vello] [velhi] [azlo] [azhi] [distlo] [disthi] [preslo] [preshi];#P connect 22 0 23 0;#P connect 23 0 1 0;#P connect 3 0 19 0;#P connect 19 0 18 0;#P connect 18 0 10 0;#P connect 10 0 9 0;#P connect 9 0 2 0;#P connect 2 0 21 0;#P connect 21 0 23 1;#P connect 21 1 20 0;#P connect 20 0 22 0;#P connect 26 0 9 1;#P connect 36 0 2 1;#P fasten 19 1 24 0 77 87 91 87;#P connect 24 0 4 0;#P connect 27 0 6 0;#P connect 4 0 6 0;#P connect 6 0 13 0;#P connect 13 0 5 0;#P connect 5 0 8 0;#P connect 8 0 15 0;#P connect 15 0 17 0;#P connect 17 0 26 0;#P connect 26 0 28 0;#P connect 10 1 2 2;#P connect 13 1 5 1;#P connect 4 1 7 0;#P connect 7 0 5 2;#P connect 45 0 2 3;#P connect 4 2 14 0;#P connect 14 0 15 1;#P connect 50 0 2 4;#P connect 60 0 2 5;#P connect 24 1 29 0;#P connect 29 0 34 0;#P connect 34 0 33 0;#P connect 33 0 32 0;#P connect 32 0 36 0;#P connect 33 1 32 1;#P connect 29 1 35 0;#P connect 35 0 32 2;#P connect 29 2 43 0;#P connect 43 0 42 0;#P connect 42 0 41 0;#P connect 41 0 45 0;#P connect 42 1 41 1;#P connect 29 3 44 0;#P connect 44 0 41 2;#P connect 29 4 48 0;#P connect 48 0 51 0;#P connect 51 0 47 0;#P connect 47 0 50 0;#P connect 51 1 47 1;#P connect 29 5 49 0;#P connect 49 0 47 2;#P connect 29 6 58 0;#P connect 58 0 61 0;#P connect 61 0 57 0;#P connect 57 0 60 0;#P connect 61 1 57 1;#P connect 29 7 59 0;#P connect 59 0 57 2;#P pop;