max v2;#N vpatcher 682 196 1339 768;#P window setfont "Sans Serif" 9.;#P flonum 256 299 35 9 0 0 0 3 0 0 0 221 221 221 222 222 222 0 0 0;#P button 213 135 15 0;#P window linecount 1;#P newex 256 277 34 196617 + 60.;#P window linecount 2;#P comment 445 136 16 196617 vel;#P number 438 163 35 9 0 0 0 3 0 0 0 221 221 221 222 222 222 0 0 0;#P number 480 163 35 9 0 0 0 3 0 0 0 221 221 221 222 222 222 0 0 0;#P comment 528 136 40 196617 dist(0. to 1.);#P window setfont Times 9.;#P comment 355 236 207 1310729 list format [pitch (float)] [velocity] [sample number] [az (deg int)] [dist(0. to 1.)] [presence (0. to 1.)];#P window setfont "Sans Serif" 9.;#P flonum 564 163 35 9 0 0 0 3 0 0 0 221 221 221 222 222 222 0 0 0;#P comment 570 136 47 196617 presence (0. to 1.);#P comment 486 136 37 196617 az (deg int);#P flonum 522 163 35 9 0 0 0 3 0 0 0 221 221 221 222 222 222 0 0 0;#P window linecount 1;#P newex 438 115 136 196617 unpack 0 0. 0. 0.;#P window setfont Times 9.;#P window linecount 2;#P comment 128 512 276 1310729 list format [pitch (float)] [velocity] [sample number] [az (deg int)] [dist(0. to 1.)] [presence (0. to 1.)];#P window setfont "Sans Serif" 9.;#P window linecount 1;#P newex 256 94 192 196617 zl slice 3;#P newex 9 491 27 196617 gate;#P newex 43 465 35 196617 >= 10;#P newex 26 424 27 196617 t l l;#P newex 43 444 43 196617 zl nth 2;#P newex 26 61 51 196617 zl slice 1;#P number 26 334 35 9 0 0 0 3 0 0 0 221 221 221 222 222 222 0 0 0;#P flonum 256 259 35 9 0 0 0 3 0 0 0 221 221 221 222 222 222 0 0 0;#P window linecount 2;#P comment 379 135 49 196617 [rounding interval];#P window linecount 1;#P newex 256 238 94 196617 intervalrounder;#B color 6;#P flonum 340 182 35 9 0 0 0 3 0 0 0 221 221 221 222 222 222 0 0 0;#P newex 256 180 31 196617 t b f;#P comment 321 135 40 196617 [trsphi];#P comment 263 135 40 196617 [trsplo];#P newex 26 361 52 196617 t b i;#P newex 26 382 28 196617 f;#P flonum 256 220 35 9 0 0 0 3 0 0 0 221 221 221 222 222 222 0 0 0;#P flonum 298 182 35 9 0 0 0 3 0 0 0 221 221 221 222 222 222 0 0 0;#P flonum 256 160 35 9 0 0 0 3 0 0 0 221 221 221 222 222 222 0 0 0;#P newex 256 200 52 196617 randomfR;#P newex 256 117 94 196617 unpack 0. 0. 0.;#P newex 26 35 142 196617 r $1/playsamp;#B color 11;#P newex 26 404 186 196617 pack 0. 127 1 0 1. 1.;#P window setfont Times 9.;#P newex 9 516 109 1310729 s $1/note;#B color 11;#P window setfont "Sans Serif" 9.;#P window linecount 2;#P comment 169 31 329 196617 playsamp [sample number] [trsplo] [trsphi] [rounding interval] [velocity] [az (deg int)] [dist(0. to 1.)] [presence (0. to 1.)];#P connect 22 0 23 0;#P connect 23 0 1 0;#P connect 3 0 19 0;#P connect 19 0 18 0;#P connect 18 0 10 0;#P connect 10 0 9 0;#P connect 9 0 2 0;#P connect 2 0 21 0;#P connect 21 0 23 1;#P connect 21 1 20 0;#P connect 20 0 22 0;#P connect 36 0 9 1;#P connect 34 0 2 1;#P connect 10 1 2 2;#P connect 33 0 2 3;#P connect 27 0 2 4;#P connect 30 0 2 5;#P fasten 19 1 24 0 72 86 261 86;#P connect 24 0 4 0;#P connect 37 0 6 0;#P connect 4 0 6 0;#P connect 6 0 13 0;#P connect 13 0 5 0;#P connect 5 0 8 0;#P connect 8 0 15 0;#P connect 15 0 17 0;#P connect 17 0 36 0;#P connect 36 0 38 0;#P connect 13 1 5 1;#P connect 4 1 7 0;#P connect 7 0 5 2;#P connect 4 2 14 0;#P connect 14 0 15 1;#P connect 24 1 26 0;#P connect 26 0 34 0;#P connect 26 1 33 0;#P connect 26 2 27 0;#P connect 26 3 30 0;#P pop;