max v2;#N vpatcher 41 155 672 485;#P origin 14 -1;#P window setfont "Sans Serif" 9.;#P window linecount 7;#P comment 514 14 64 196617 $1 \; $2 \; $3 \; $4 \; $5 \; $6 \; $7 \;;#P window linecount 1;#P newex 337 126 20 196617 t b;#P newex 362 110 52 196617 onebang 1;#P message 442 131 40 196617 deleted;#N comlet output messages;#P outlet 442 173 15 0;#P comment 420 276 72 196617 load bang if ok;#N comlet load bang if ok;#P outlet 405 275 15 0;#P newex 8 62 52 196617 onebang 1;#P newex 18 125 45 196617 loadbang;#P message 384 226 115 196617 32 9 20 60 260 18 255;#P window linecount 7;#P comment 391 14 122 196617 arg 1 : [rows] \; arg 2 : [columns] \; arg 3 : [x start] \; arg 4 : [y start] \; arg 5 : [x spacing] \; arg 6 : [y spacing] \; arg 7 : [object size];#N comlet to thispatcher;#P outlet 151 254 15 0;#P window linecount 2;#P comment 233 28 91 196617 open message to SAMPLE LIST;#N comlet open message to SAMPLE LIST;#P inlet 217 31 15 0;#P window linecount 1;#P comment 146 177 103 196617 from text box (name);#N comlet from text box (name);#P inlet 131 176 15 0;#P comment 284 275 48 196617 to umenu;#N comlet to umenu;#P outlet 269 275 15 0;#N comlet load samples;#P inlet 8 33 15 0;#N comlet delete samples;#P inlet 94 55 15 0;#P newex 89 87 42 196617 del 500;#P button 106 122 13 0;#P newex 151 143 42 196617 del 100;#P window linecount 2;#P message 183 91 75 196617 \; max preempt 0;#P window linecount 1;#P message 35 171 14 196617 0;#P newex 51 170 51 196617 closebang;#P window linecount 3;#P newex 18 191 47 196617 v samples-patcher;#B color 11;#P window linecount 1;#P message 18 171 14 196617 1;#P newex 65 26 82 196617 buffer~ sample1;#B color 13;#P message 370 152 149 196617 There are no samples to delete!;#P message 269 127 14 196617 0;#P newex 287 106 60 196617 sel 1;#P message 267 88 14 196617 1;#P newex 287 86 27 196617 i;#P window linecount 2;#P comment 23 33 42 196617 load samples;#P window linecount 1;#P newex 134 87 45 196617 b;#P message 122 136 14 196617 2;#P message 251 127 14 196617 1;#P window linecount 2;#P comment 317 197 221 196617 <-------- [rows] [columns] [x start] [y start] [x spacing] [y spacing] [object size];#P window linecount 1;#P message 106 157 28 196617 done;#P message 206 157 48 196617 loading...;#P message 321 157 40 196617 deleted;#P newex 370 173 69 196617 print samples;#P newex 287 127 44 196617 b 3;#P newex 134 110 45 196617 b 3;#P message 106 228 31 196617 clean;#N vpatcher 267 131 1035 775;#P window setfont "Sans Serif" 9.;#P newex 641 319 50 196617 t project;#P newex 418 438 72 196617 t b s;#P window linecount 1;#P newex 418 464 133 196617 zl reg;#P newex 418 489 146 196617 sprintf %smedia/samples/%s;#N coll filepaths 1;#P newobj 641 344 77 196617 coll filepaths 1;#B color 5;#N comlet messages to coll;#P inlet 615 341 15 0;#P window linecount 0;#P newex 465 327 98 196617 substitute text read;#N comlet read;#P inlet 465 100 15 0;#P newex 418 396 55 196617 unpack s 0;#P number 153 398 35 9 0 0 0 3 0 0 0 221 221 221 222 222 222 0 0 0;#P message 153 356 35 196617 length;#P newex 153 377 28 196617 grab;#P newex 43 424 40 196617 split 1;#N comlet delete;#P inlet 539 100 15 0;#P button 539 135 15 0;#P newex 539 252 40 196617 Uzi 0;#P newex 569 536 105 196617 sprintf delete smp%ld;#P number 418 331 35 9 0 0 0 3 0 0 0 221 221 221 222 222 222 0 0 0;#N coll ;#P newobj 418 375 53 196617 coll;#B color 5;#P number 337 111 35 9 0 0 0 3 0 0 0 221 221 221 222 222 222 0 0 0;#N comlet to thispatcher;#P outlet 43 593 15 0;#N comlet [rows] [columns] [x start] [y start] [x spacing] [y spacing];#P inlet 91 26 15 0;#P number 43 180 35 9 0 0 0 3 0 0 0 221 221 221 222 222 222 0 0 0;#P newex 43 160 27 196617 *;#P number 301 111 35 9 0 0 0 3 0 0 0 221 221 221 222 222 222 0 0 0;#P number 265 111 35 9 0 0 0 3 0 0 0 221 221 221 222 222 222 0 0 0;#P number 229 111 35 9 0 0 0 3 0 0 0 221 221 221 222 222 222 0 0 0;#P number 193 111 35 9 0 0 0 3 0 0 0 221 221 221 222 222 222 0 0 0;#P number 157 111 35 9 0 0 0 3 0 0 0 221 221 221 222 222 222 0 0 0;#P number 121 111 35 9 0 0 0 3 0 0 0 221 221 221 222 222 222 0 0 0;#P newex 121 89 231 196617 unpack 0 0 0 0 0 0 0;#P newex 91 68 40 196617 t b b l;#P newex 64 375 81 196617 + 50;#P newex 64 355 73 196617 * 110;#N counter;#X flags 0 0;#P newobj 64 334 66 196617 counter;#P newex 64 314 30 196617 sel 0;#P button 106 294 15 0;#P newex 64 294 32 196617 % 12;#P number 43 220 35 9 0 0 0 3 0 0 0 221 221 221 222 222 222 0 0 0;#P newex 193 267 27 196617 - 1;#P newex 193 308 27 196617 + 1;#P newex 193 288 46 196617 % 12;#P newex 43 570 73 196617 prepend script;#P newex 43 239 310 196617 t i i i;#P newex 43 538 461 196617 sprintf new smp%ld newex %ld %ld %ld 196617 buffer~ %s %s 0 %ld;#P newex 193 328 44 196617 * 20;#P newex 193 348 56 196617 + 50;#P newex 13 200 40 196617 Uzi 52;#P comment 103 52 338 196617 [rows] [columns] [x start] [y start] [x spacing] [y spacing] [object size];#P comment 555 100 35 196617 delete;#P fasten 18 0 2 0 96 91 18 91;#P connect 20 0 26 0;#P connect 26 0 27 0;#P connect 27 0 2 1;#P connect 2 2 11 0;#P connect 11 0 6 0;#P connect 6 0 37 0;#P connect 37 0 5 0;#P fasten 33 0 7 0 574 564 48 564;#P connect 5 0 7 0;#P connect 7 0 29 0;#P connect 21 0 26 1;#P connect 10 0 12 0;#P connect 12 0 14 0;#P connect 14 0 15 0;#P connect 15 0 16 0;#P connect 16 0 17 0;#P connect 40 0 37 2;#P lcolor 1;#P connect 20 0 12 1;#P connect 28 0 18 0;#P connect 13 0 15 2;#P connect 18 1 13 0;#P connect 17 0 5 1;#P connect 18 2 19 0;#P connect 19 0 20 0;#P connect 24 0 16 1;#P connect 22 0 17 1;#P connect 13 0 39 0;#P connect 39 0 38 0;#P connect 38 0 40 0;#P connect 19 1 21 0;#P connect 19 2 22 0;#P connect 6 1 10 0;#P connect 10 0 8 0;#P connect 8 0 9 0;#P connect 9 0 4 0;#P connect 4 0 3 0;#P connect 3 0 5 2;#P connect 25 0 4 1;#P connect 19 3 23 0;#P connect 20 0 8 1;#P connect 23 0 3 1;#P connect 19 4 24 0;#P connect 30 0 5 3;#P connect 19 5 25 0;#P connect 19 6 30 0;#P connect 41 0 5 4;#P connect 6 2 32 0;#P fasten 44 0 31 0 620 365 423 365;#P lcolor 1;#P fasten 43 0 31 0 470 355 423 355;#P connect 38 1 31 0;#P lcolor 5;#P connect 32 0 31 0;#P connect 31 0 41 0;#P connect 41 0 48 0;#P connect 48 0 47 0;#P connect 47 0 46 0;#P connect 46 0 5 5;#P connect 42 0 43 0;#P connect 41 1 5 6;#P connect 36 0 35 0;#P connect 35 0 34 0;#P fasten 45 0 47 1 646 386 546 386;#P connect 48 1 46 1;#P connect 40 0 34 1;#P lcolor 1;#P connect 34 2 33 0;#P connect 42 0 49 0;#P connect 49 0 45 0;#P pop;#P newobj 151 225 78 196617 p make_buffers;#B color 6;#P message 151 196 163 196617 $1 $2 $3 $4 $5 $6 $7;#P window linecount 2;#P comment 109 52 44 196617 delete samples;#P connect 30 0 41 0;#P connect 40 0 21 0;#P connect 24 0 22 0;#P connect 21 0 22 0;#P connect 23 0 24 0;#P connect 29 0 41 1;#P connect 4 0 28 0;#P connect 28 0 27 0;#P connect 27 0 9 0;#P fasten 5 0 3 0 292 218 111 218;#P lcolor 13;#P connect 27 0 3 0;#P connect 27 0 12 0;#P fasten 41 0 13 0 13 83 139 83;#P connect 13 0 4 0;#P connect 4 1 26 0;#P connect 26 0 1 0;#P connect 1 0 2 0;#P connect 3 0 37 0;#P connect 2 0 37 0;#P fasten 33 0 2 1 136 214 178 214;#P lcolor 1;#P connect 13 1 25 0;#P fasten 5 1 2 2 309 222 200 222;#P connect 4 2 8 0;#P connect 35 0 2 3;#P connect 13 1 11 0;#P connect 13 1 16 0;#P connect 5 0 18 0;#P connect 18 0 31 0;#P lcolor 7;#P fasten 12 0 31 0 127 272 274 272;#P lcolor 7;#P fasten 11 0 31 0 256 147 274 147;#P lcolor 7;#P fasten 29 0 15 0 99 79 292 79;#P lcolor 2;#P connect 15 0 17 0;#P connect 17 0 5 0;#P connect 18 0 15 1;#P connect 16 0 15 1;#P connect 5 2 7 0;#P connect 17 1 47 0;#P connect 47 0 46 0;#P connect 46 1 19 0;#P connect 9 0 6 0;#P connect 7 0 6 0;#P connect 8 0 6 0;#P connect 19 0 6 0;#P connect 41 0 42 0;#P lcolor 1;#P connect 47 0 45 0;#P connect 9 0 44 0;#P connect 8 0 44 0;#P connect 7 0 44 0;#P connect 45 0 44 0;#P pop;