max v2;#N vpatcher 29 44 567 614;#P window setfont Times 9.;#P window linecount 1;#P newex 103 419 27 1310729 * 0.;#P newex 13 262 27 1310729 t 0 f;#P comment 41 264 28 1310729 speed;#P newex 30 293 25 1310729 sig~;#P window setfont "Sans Serif" 9.;#P newex 58 384 34 196617 edge~;#P newex 58 363 35 196617 ==~ 1;#P window setfont Times 9.;#P newex 139 233 51 1310729 prepend set;#P newex 13 121 31 1310729 / 100.;#P window linecount 2;#P comment 270 396 180 1310729 arg 1: main prefix name (i.e. "samp") \; arg 2 : default samplelist coll name;#P window linecount 1;#P newex 103 444 51 1310729 * 1.;#P newex 144 394 91 1310729 expr pow(10\\\,$f1/20);#P comment 20 84 28 1310729 pitch;#P comment 85 84 20 1310729 vel;#P comment 145 84 35 1310729 samp #;#P comment 146 190 55 1310729 sample name;#P comment 236 189 42 1310729 channels;#P newex 13 202 39 1310729 / 1.;#P newex 13 160 39 1310729 t f 60.;#P flonum 13 142 35 9 0 0 0 20 0 0 0 221 221 221 222 222 222 0 0 0;#P newex 13 181 26 1310729 mtof;#P newex 42 181 26 1310729 mtof;#P number 103 377 35 9 0 0 0 20 0 0 0 221 221 221 222 222 222 0 0 0;#P newex 153 127 214 1310729 r $1/coll;#B color 11;#P newex 13 68 136 1310729 unpack 0 0 0;#P comment 39 28 228 1310729 list format [pitch (midicents)] [velocity] [sample number];#P newex 103 394 31 1310729 / 127.;#P newex 13 469 100 1310729 *~;#P flonum 144 377 35 9 0 0 0 20 0 0 0 221 221 221 222 222 222 0 0 0;#P newex 139 172 187 1310729 unpack s 0 0.;#N coll $2 1;#P newobj 139 150 224 1310729 coll $2 1;#B color 5;#P newex 227 211 146 1310729 r $1/allnotesoff;#B color 11;#N in 1;#P newobj 13 26 25 1310729 in 1;#N out 1;#P newobj 274 461 31 1310729 out 1;#N out~ 1;#P newobj 13 492 32 1310729 out~ 1;#P newex 227 254 60 1310729 t 0 1;#P newex 384 261 63 1310729 t 0 1;#P message 384 310 45 1310729 mute \$1;#P newex 466 215 45 1310729 loadbang;#P number 437 365 35 9 0 0 0 20 0 0 0 221 221 221 222 222 222 0 0 0;#P newex 437 342 50 1310729 thispoly~;#P toggle 437 310 15 0;#P newex 13 47 381 1310729 t l b;#P flonum 13 223 53 9 0 0 0 20 0 0 0 221 221 221 222 222 222 0 0 0;#P newex 13 338 76 1310729 groove~ sample1;#P comment 323 190 18 1310729 dB;#P connect 13 0 3 0;#P connect 3 0 21 0;#P connect 21 0 37 0;#P connect 37 0 26 0;#P connect 26 0 27 0;#P connect 27 0 25 0;#P connect 25 0 28 0;#P connect 28 0 2 0;#P connect 2 0 43 0;#P connect 41 0 1 0;#P connect 43 0 1 0;#P connect 38 0 1 0;#P connect 1 0 18 0;#P connect 18 0 11 0;#P connect 10 0 41 0;#P connect 43 1 41 0;#P connect 27 1 24 0;#P connect 24 0 28 1;#P connect 1 1 39 0;#P connect 39 0 40 0;#P fasten 21 1 23 0 81 99 108 99;#P lcolor 7;#P connect 23 0 19 0;#P connect 19 0 44 0;#P connect 44 0 35 0;#P connect 35 0 18 1;#P connect 19 0 44 1;#P fasten 22 0 15 0 158 147 144 147;#P connect 21 2 15 0;#P connect 15 0 16 0;#P connect 16 0 38 0;#P fasten 16 2 17 0 320 303 149 303;#P lcolor 1;#P connect 17 0 34 0;#P connect 34 0 35 1;#P connect 7 0 10 0;#P connect 40 0 10 0;#P lcolor 3;#P connect 14 0 10 0;#P connect 3 1 9 0;#P connect 9 0 8 0;#P connect 10 1 8 0;#P connect 10 0 4 0;#P connect 9 1 4 0;#P fasten 7 0 5 0 471 334 442 334;#P connect 4 0 5 0;#P connect 8 0 5 0;#P connect 5 0 6 0;#P pop;