max v2;#N vpatcher 122 251 1105 818;#P origin 0 -20;#P window setfont "Sans Serif" 9.;#P number 840 122 35 9 0 0 0 3 0 0 0 221 221 221 222 222 222 0 0 0;#P window linecount 1;#P newex 840 102 31 196617 + 35;#P number 801 122 35 9 0 0 0 3 0 0 0 221 221 221 222 222 222 0 0 0;#P newex 801 143 60 196617 split 36 36;#P newex 663 87 87 196617 r $1/mode;#B color 11;#P window setfont Times 9.;#P newex 189 173 27 1310729 sel 1;#P window setfont "Sans Serif" 9.;#P newex 437 202 75 196617 route min max;#P message 299 218 76 196617 min 1 \, max \$1;#P number 299 198 35 9 0 0 0 3 0 0 0 221 221 221 222 222 222 0 0 0;#P message 299 156 37 196617 length;#P window setfont Times 9.;#P newex 299 174 27 1310729 grab;#P newex 299 135 45 1310729 loadbang;#P window setfont "Sans Serif" 9.;#N coll tape_samplist 1;#P newobj 400 280 101 196617 coll tape_samplist 1;#B color 5;#P button 556 321 15 0;#P newex 525 298 112 196617 r $1/init;#B color 11;#P newex 525 320 20 196617 t b;#P newex 625 59 29 196617 gate;#P window setfont Times 9.;#P comment 165 39 30 1310729 mode;#B frgb 0 0 200;#P window setfont "Sans Serif" 9.;#P newex 597 453 204 196617 variedit $1/mode $1;#B color 11;#P window setfont Times 9.;#P newex 597 474 58 1310729 pvar mode 2;#P window setfont "Sans Serif" 9.;#P newex 437 172 107 196617 variedit $1/samp $1;#B color 11;#P newex 644 35 64 196617 r $1/notein;#P window setfont Times 9.;#P comment 100 86 13 1310729 ¥;#B frgb 0 0 200;#P user kslider 3 64 35 1 36 60 19 7 0 128 128 128 128 128 128 255 255 255 0 0 0 0 0 0;#P objectname piano;#P window setfont "Sans Serif" 9.;#P newex 776 217 30 196617 - 35;#P newex 751 189 35 196617 t 60 i;#P newex 607 193 27 196617 t i b;#P newex 795 284 36 196617 zl reg;#P user ubumenu 191 38 49 196617 0 1 1 0;#X add off;#X add pitch;#X add sample;#X prefix_set 0 0 <none> 0;#P objectname mode;#P window setfont Times 9.;#P newex 801 37 102 1310729 pvar piano 2;#P window setfont "Sans Serif" 9.;#P newex 716 321 71 196617 pack 60 0 0;#P newex 607 153 116 196617 gate 2;#P window setfont Times 9.;#P comment 194 20 42 1310729 sample n¡;#B frgb 0 0 200;#P newex 241 486 66 1310729 pvar copyzone;#P window setfont "Sans Serif" 9.;#P newex 241 464 103 196617 prepend set $1/note;#P user textedit 2 101 204 120 32896 3 9;#P objectname copyzone;#P window setfont Times 9.;#P newex 437 253 49 1310729 pvar samp;#P user umenu 58 19 134 1310759 3 64 34 1;#X setrgb 237 236 191 132 132 132 255 255 255 221 221 221 170 170 170 119 119 119 187 187 187;#X add battements1_48_m.aif;#P objectname lastsoundlabel;#P window setfont "Sans Serif" 9.;#P newex 400 337 27 196617 t l b;#P newex 400 307 51 196617 zl slice 1;#P newex 525 365 40 196617 t clear;#P newex 400 392 97 196617 pvar lastsoundlabel;#P newex 400 367 78 196617 prepend append;#P window setfont Times 9.;#P number 22 19 35 9 0 0 3 20 0 0 0 221 221 221 222 222 222 0 0 0;#P objectname samp;#P window setfont "Sans Serif" 9.;#P newex 166 145 50 196617 r $1/sw;#B color 11;#P newex 166 431 29 196617 gate;#P newex 166 513 185 196617 s $1/note;#B color 11;#P comment 23 161 117 196617 bpat bkgnd = 256 X 62;#P comment 23 180 119 196617 bpat editor = 258 X 64;#P window setfont Times 9.;#P comment 204 106 21 1310729 vol;#B frgb 0 0 200;#P flonum 222 106 30 9 0. 2. 3 20 0 0 0 221 221 221 222 222 222 0 0 0;#P objectname vol;#P window setfont "Sans Serif" 9.;#P newex 329 85 211 196617 variedit $1/vol $1;#B color 11;#P window setfont Times 9.;#P newex 329 105 42 1310729 pvar vol;#P window setfont "Sans Serif" 9.;#N thispatcher;#Q end;#P newobj 0 214 61 196617 thispatcher;#P bpatcher 0 0 257 125 0 0 bkgnd2.mxt 0 $1 0 1;#P objectname background;#P hidden connect 38 0 31 0;#P connect 10 0 9 0;#P lcolor 13;#P connect 9 0 8 0;#P fasten 24 0 9 1 721 421 190 421;#P connect 10 0 49 0;#P connect 9 0 20 0;#P fasten 14 0 21 0 530 483 246 483;#P lcolor 15;#P connect 20 0 21 0;#P connect 43 0 45 0;#P connect 49 0 45 0;#P connect 45 0 44 0;#P connect 44 0 46 0;#P connect 46 0 47 0;#P fasten 2 0 3 0 334 126 322 126 322 80 334 80;#P connect 3 0 2 0;#P connect 34 1 42 0;#P fasten 44 1 42 0 321 194 405 194;#P connect 42 0 15 0;#P connect 15 0 16 0;#P connect 16 0 12 0;#P connect 12 0 13 0;#P fasten 14 0 13 0 530 387 405 387;#P lcolor 15;#P fasten 18 0 34 0 442 274 433 274 433 167 442 167;#P connect 34 0 48 0;#P connect 30 0 18 0;#P connect 48 2 18 0;#P connect 47 0 18 0;#P connect 41 0 39 0;#P connect 40 0 39 0;#P fasten 16 1 14 0 422 361 530 361;#P connect 39 0 14 0;#P fasten 35 0 36 0 602 497 594 497 594 450 602 450;#P connect 36 0 35 0;#P connect 50 0 23 0;#P connect 23 0 28 0;#P connect 50 0 38 0;#P connect 33 0 38 1;#P connect 25 0 23 1;#P fasten 28 0 24 0 612 221 721 221;#P fasten 29 0 24 0 756 216 721 216;#P fasten 25 1 24 1 898 312 751 312;#P lcolor 5;#P connect 51 0 29 0;#P connect 29 1 30 0;#P connect 30 0 24 2;#P connect 27 0 24 2;#P connect 28 1 27 0;#P connect 23 1 52 0;#P connect 52 0 51 0;#P connect 34 1 27 1;#P connect 46 0 53 0;#P connect 53 0 54 0;#P connect 54 0 51 2;#P pop;