max v2;#N vpatcher 567 44 1239 589;#P window setfont Times 9.;#P window linecount 1;#P newex 103 312 36 1310729 pow 2.;#P newex 13 246 27 1310729 t 0 f;#P comment 41 248 28 1310729 speed;#P newex 30 271 25 1310729 sig~;#P window setfont "Sans Serif" 9.;#P newex 58 353 34 196617 edge~;#P newex 58 332 35 196617 ==~ 1;#P window setfont Times 9.;#P newex 13 307 76 1310729 groove~ sample1;#P newex 529 237 18 1310729 t 0;#P window setfont "Sans Serif" 9.;#P number 476 391 35 9 0 0 0 3 0 0 0 221 221 221 222 222 222 0 0 0;#P window setfont Times 9.;#P newex 360 411 128 1310729 t_tolocalmatrix4;#B color 5;#P newex 360 385 104 1310729 t_mspat4ctl-;#B color 5;#P newex 139 235 51 1310729 prepend set;#P window setfont "Sans Serif" 9.;#P flonum 454 364 35 9 0 0 0 3 0 0 0 221 221 221 222 222 222 0 0 0;#P flonum 407 364 35 9 0 0 0 3 0 0 0 221 221 221 222 222 222 0 0 0;#P window setfont Times 9.;#N out~ 5;#P newobj 153 491 34 1310729 out~ 5;#N out~ 4;#P newobj 118 491 34 1310729 out~ 4;#N out~ 3;#P newobj 83 491 34 1310729 out~ 3;#P comment 338 85 79 1310729 presence (0. to 1.);#P comment 274 85 58 1310729 dist(0. to 1.);#P comment 208 85 52 1310729 az (deg int);#P newex 13 447 187 1310729 matrix~ 1 5 1.;#P newex 13 121 31 1310729 / 100.;#P window linecount 2;#P comment 353 467 180 1310729 arg 1: main prefix name (i.e. "samp") \; arg 2 : default samplelist coll name;#P window linecount 1;#P newex 103 392 51 1310729 * 1.;#P newex 144 370 91 1310729 expr pow(10\\\,$f1/20);#P comment 20 84 28 1310729 pitch;#P comment 85 84 20 1310729 vel;#P comment 145 84 35 1310729 samp #;#P comment 146 190 55 1310729 sample name;#P comment 236 189 42 1310729 channels;#P newex 13 202 39 1310729 / 1.;#P newex 13 160 39 1310729 t f 60.;#P flonum 13 142 35 9 0 0 0 20 0 0 0 221 221 221 222 222 222 0 0 0;#P newex 13 181 26 1310729 mtof;#P newex 42 181 26 1310729 mtof;#P number 103 274 35 9 0 0 0 20 0 0 0 221 221 221 222 222 222 0 0 0;#P newex 153 127 117 1310729 r $1/coll;#B color 11;#P newex 13 68 328 1310729 unpack 0 0 0 0 0. 0.;#P comment 39 28 409 1310729 list format [pitch (midicents)] [velocity] [sample number] [az (deg int)] [dist(0. to 1.)] [presence (0. to 1.)];#P newex 103 291 31 1310729 / 127.;#P number 360 364 35 9 0 0 0 20 0 0 0 221 221 221 222 222 222 0 0 0;#P newex 13 414 100 1310729 *~;#P flonum 144 353 35 9 0 0 0 20 0 0 0 221 221 221 222 222 222 0 0 0;#P newex 139 172 187 1310729 unpack s 0 0.;#N coll $2 1;#P newobj 139 150 200 1310729 coll $2 1;#B color 5;#P newex 244 214 144 1310729 r $1/allnotesoff;#B color 11;#N in 1;#P newobj 13 26 25 1310729 in 1;#N out 1;#P newobj 274 491 31 1310729 out 1;#N out~ 2;#P newobj 48 491 32 1310729 out~ 2;#N out~ 1;#P newobj 13 491 32 1310729 out~ 1;#P newex 244 242 60 1310729 t 0 1;#P newex 517 313 63 1310729 t 0 1;#P message 517 362 45 1310729 mute \$1;#P newex 599 267 45 1310729 loadbang;#P number 570 417 35 9 0 0 0 20 0 0 0 221 221 221 222 222 222 0 0 0;#P newex 570 394 50 1310729 thispoly~;#P toggle 570 362 15 0;#P newex 13 47 514 1310729 t l b;#P flonum 13 223 35 9 0 0 0 20 0 0 0 221 221 221 222 222 222 0 0 0;#P comment 323 190 18 1310729 dB;#P connect 13 0 2 0;#P connect 2 0 22 0;#P connect 22 0 38 0;#P connect 38 0 27 0;#P connect 27 0 28 0;#P connect 28 0 26 0;#P connect 26 0 29 0;#P connect 29 0 1 0;#P connect 1 0 58 0;#P connect 56 0 53 0;#P connect 58 0 53 0;#P connect 48 0 53 0;#P connect 53 0 18 0;#P fasten 50 0 39 0 365 439 18 439;#P connect 18 0 39 0;#P connect 39 0 10 0;#P connect 9 0 56 0;#P connect 58 1 56 0;#P connect 28 1 25 0;#P connect 25 0 29 1;#P connect 39 1 11 0;#P connect 53 1 54 0;#P connect 54 0 55 0;#P connect 39 2 43 0;#P fasten 22 1 24 0 81 99 108 99;#P lcolor 7;#P connect 24 0 20 0;#P connect 20 0 59 0;#P connect 59 0 36 0;#P connect 36 0 18 1;#P connect 39 3 44 0;#P fasten 23 0 15 0 158 147 144 147;#P connect 22 2 15 0;#P connect 15 0 16 0;#P connect 16 0 48 0;#P fasten 16 2 17 0 320 341 149 341;#P lcolor 1;#P connect 17 0 35 0;#P connect 35 0 36 1;#P connect 39 4 45 0;#P connect 6 0 9 0;#P connect 14 0 9 0;#P connect 55 0 9 0;#P lcolor 5;#P fasten 22 3 19 0 207 122 365 122;#P connect 19 0 49 0;#P connect 49 0 50 0;#P connect 49 1 50 1;#P connect 49 2 50 2;#P fasten 22 4 46 0 270 116 412 116;#P connect 46 0 49 1;#P connect 49 3 50 3;#P connect 49 4 50 4;#P fasten 22 5 47 0 333 108 459 108;#P connect 47 0 49 2;#P connect 51 0 50 5;#P connect 52 0 51 0;#P connect 2 1 8 0;#P connect 8 0 7 0;#P connect 9 1 7 0;#P connect 6 0 52 0;#P connect 8 1 3 0;#P connect 9 0 3 0;#P connect 3 0 4 0;#P connect 7 0 4 0;#P fasten 6 0 4 0 604 386 575 386;#P connect 4 0 5 0;#P pop;