max v2;#N vpatcher 386 716 1416 900;#P window setfont "Sans Serif" 9.;#P window linecount 1;#N thispatcher;#Q end;#P hidden newobj 1125 44 61 196617 thispatcher;#P hidden newex 1125 23 91 196617 r tape_samps_pat;#B color 11;#P hidden button 977 38 15 0;#P hidden newex 977 56 141 196617 s yes_tape_samps_is_loaded;#B color 11;#P hidden newex 977 18 125 196617 r is_tape_samps_loaded?;#B color 11;#P window linecount 0;#P comment 20200 2200 100 196617;#P window linecount 1;#P hidden newex 228 41 30 196617 t b s;#P hidden newex 94 41 44 196617 t config;#P hidden newex 228 62 180 196617 sprintf set %sdata/tape_samplist.txt;#B color 5;#N coll filepaths.txt;#P hidden newobj 140 41 85 196617 coll filepaths.txt;#B color 5;#P hidden newex 31 40 48 196617 del 1000;#P hidden newex 31 18 45 196617 loadbang;#N thispatcher;#Q end;#P hidden newobj 2 81 59 196617 thispatcher;#P newex 2 62 219 196617 t_sampbufs_works 100 20 1 70 1000 18 995;#B color 4;#P window setfont Times 9.;#N vpatcher 254 68 476 301;#N comlet to thispatcher;#P outlet 31 190 15 0;#N comlet from toggle;#P inlet 16 106 15 0;#N comlet to toggle;#P outlet 16 72 15 0;#P window setfont Times 9.;#P newex 16 52 18 1310729 t 1;#P newex 16 31 43 1310729 loadbang;#P newex 16 124 40 1310729 sel 1 0;#P window setfont "Sans Serif" 9.;#P message 31 146 158 196617 window flags close \, window exec;#P message 16 164 168 196617 window flags noclose \, window exec;#P connect 3 0 4 0;#P connect 4 0 5 0;#P connect 6 0 2 0;#P connect 2 0 0 0;#P connect 2 1 1 0;#P connect 1 0 7 0;#P connect 0 0 7 0;#P pop;#P hidden newobj 25 0 50 1310729 p closebox;#B color 6;#P toggle 2 2 15 0;#N thispatcher;#Q end;#P hidden newobj 40 0 51 1310729 thispatcher;#P comment 18 2 74 1310729 inhibit close box;#P button 338 41 13 0;#P window setfont "Sans Serif" 9.;#P user textedit 268 8 968 40 32896 3 9 there:/projects1/SON_VID-environment/TAPE-MOVIE/tapemovie-private/tapemovie_1.00b/default-project/config/data/tape_samplist.txt;#P comment 16 27 65 196617 load samples;#P window setfont "Sans Serif" 18.;#P user umenu 93 8 173 196683 3 64 36 1;#X add no samples;#X add samples loading...;#X add ready;#P button 2 25 15 6;#P button 2 42 15 13;#P window setfont "Sans Serif" 9.;#P comment 268 41 70 196617 SAMPLE LIST;#P window setfont "Sans Serif" 10.;#P window linecount 2;#P comment 268 54 702 196618 DO NOT SAVE!. If you ever need to save this patcher after making modifications \, be sure to DETELE SAMPLES first! Otherwise the buffers will be instantiated twice when you re-open the patch. Samples are defined in a coll file (format: <index> \, <samplename> <channels> <dB>);#B frgb 255 0 0;#P window setfont "Sans Serif" 9.;#P window linecount 1;#P comment 16 44 74 196617 delete samples;#P comment 352 41 68 196617 recall default;#P hidden connect 13 0 12 0;#P hidden connect 17 0 5 0;#P hidden connect 5 0 14 0;#P hidden connect 14 0 15 0;#P hidden connect 12 0 13 0;#P hidden connect 16 0 17 0;#P hidden connect 13 1 11 0;#P hidden connect 4 0 14 1;#P hidden connect 14 1 6 0;#P hidden connect 16 0 20 0;#P hidden connect 9 0 20 0;#P hidden connect 20 0 18 0;#P hidden connect 8 0 14 2;#P hidden connect 19 0 21 0;#P hidden connect 18 0 19 0;#P hidden connect 14 2 8 0;#P hidden connect 21 1 8 0;#P hidden connect 21 0 8 0;#P hidden connect 23 0 25 0;#P hidden connect 25 0 24 0;#P hidden connect 26 0 27 0;#P pop;