max v2;#N vpatcher 552 264 1408 829;#P bpatcher 310 402 512 124 0 0 OgreSlave.edit.mxt 0 /persoD;#P bpatcher 310 277 512 124 0 0 OgreSlave.edit.mxt 0 /persoC;#P bpatcher 310 152 512 124 0 0 OgreSlave.edit.mxt 0 /persoB;#P bpatcher 310 27 512 124 0 0 OgreSlave.edit.mxt 0 /persoA;#P window setfont "Sans Serif" 9.;#P newex 34 439 196 196617 OgreSlave /persoD left /left jaiqua.mesh;#P newex 34 409 196 196617 OgreSlave /persoC left /left jaiqua.mesh;#P newex 34 384 191 196617 OgreSlave /persoB left /left ninja.mesh;#P window linecount 6;#P message 21 124 122 196617 \; _ogre/master/init bang \; /persoA/init bang \; /persoB/init bang \; /persoC/init bang \; /persoD/init bang \;;#P toggle 26 235 15 0;#P window linecount 1;#P newex 26 286 250 196617 t b b erase;#P newex 26 258 57 196617 qmetro 20;#P newex 24 504 256 196617 jit.gl.render left @camera 0 0 7 @erase_color 0 0 0 1;#P newex 34 359 199 196617 OgreMaster /persoA left /left ninja.mesh;#P toggle 152 55 15 0;#P message 152 75 44 196617 fsaa \$1;#P toggle 96 55 15 0;#P message 96 75 55 196617 floating \$1;#P toggle 23 55 15 0;#P hidden newex 66 33 35 196617 sel 27;#P message 23 75 68 196617 fullscreen \$1;#P newex 23 97 220 196617 jit.window left @depthbuffer 1 @size 640 480;#P hidden newex 23 33 40 196617 key;#P comment 172 56 100 196617 <-- this helps;#P hidden fasten 4 0 5 0 71 51 28 51;#P connect 5 0 3 0;#P fasten 6 0 2 0 101 93 28 93;#P fasten 3 0 2 0 28 99 28 99;#P fasten 8 0 2 0 157 93 28 93;#P fasten 13 2 11 0 271 476 29 476;#P connect 13 0 11 0;#P connect 14 0 12 0;#P connect 12 0 13 0;#P connect 13 1 10 0;#P connect 13 1 16 0;#P connect 13 1 17 0;#P connect 13 1 18 0;#P hidden fasten 1 0 4 0 28 53 64 53 64 32 71 32;#P connect 7 0 6 0;#P connect 9 0 8 0;#P pop;