max v2;#N vpatcher 378 199 1252 618;#P origin 0 -36;#P window setfont "Sans Serif" 9.;#P window linecount 1;#P message 380 169 26 196617 255;#P newex 17 283 151 196617 moduleinit $1;#B color 13;#P newex 13 31 212 196617 makeswitch $1/sw $1 common_switchstate;#B color 12;#P newex 13 259 95 196617 s /tapemovie/dmx;#B color 12;#N vpatcher 649 392 1051 558;#P window setfont "Sans Serif" 9.;#P newex 346 90 27 196617 + 6;#P newex 297 90 27 196617 + 5;#P newex 251 90 27 196617 + 4;#P newex 198 90 27 196617 + 3;#P newex 144 90 27 196617 + 2;#P newex 83 90 27 196617 + 1;#P newex 13 44 80 196617 route 0;#P inlet 13 24 15 0;#P outlet 346 120 15 0;#P outlet 297 120 15 0;#P outlet 46 120 15 0;#P outlet 251 120 15 0;#P outlet 198 120 15 0;#P outlet 144 120 15 0;#P outlet 83 120 15 0;#P connect 7 0 8 0;#P fasten 8 1 4 0 88 75 51 75;#P fasten 8 1 9 0 88 75 88 75;#P connect 9 0 0 0;#P fasten 8 1 10 0 88 75 149 75;#P connect 10 0 1 0;#P fasten 8 1 11 0 88 75 203 75;#P connect 11 0 2 0;#P fasten 8 1 12 0 88 75 256 75;#P connect 12 0 3 0;#P fasten 8 1 13 0 88 75 302 75;#P connect 13 0 5 0;#P fasten 8 1 14 0 88 75 351 75;#P connect 14 0 6 0;#P pop;#P newobj 577 85 130 196617 p;#P window linecount 2;#P newex 407 166 40 196617 prepend set;#P newex 316 166 40 196617 prepend set;#P newex 254 166 40 196617 prepend set;#P newex 202 166 40 196617 prepend set;#P newex 155 166 40 196617 prepend set;#P newex 105 166 40 196617 prepend set;#P newex 59 166 40 196617 prepend set;#P window linecount 7;#P message 17 308 186 196617 \; $1/sw/init bang \; $1/channel/init bang \; $1/pan/init bang \; $1/tilt/init bang \; $1/spin/init bang \; $1/speed/init bang \;;#P window linecount 1;#P newex 577 59 271 196617 makeparam $1/channel $1 i 1 0 505 1;#B color 12;#P newex 245 95 309 196617 makeparam $1/spin $1 i 0 0 255 1;#B color 12;#P newex 380 202 45 196617 prepend;#P newex 380 140 199 196617 r $1/reset;#B color 12;#P newex 307 202 45 196617 prepend;#P newex 307 115 316 196617 makeparam $1/speed $1 i 0 0 255 1;#B color 12;#P newex 245 202 45 196617 prepend;#P newex 193 202 45 196617 prepend;#P newex 146 75 317 196617 makeparam $1/tilt $1 i 0 0 65536 1;#B color 12;#P newex 193 127 37 196617 / 256;#P newex 146 127 40 196617 % 256;#P newex 146 202 45 196617 prepend;#P newex 50 55 318 196617 makeparam $1/pan $1 i 0 0 65536 1;#B color 12;#P newex 50 127 40 196617 % 256;#P newex 50 202 45 196617 prepend;#P newex 13 236 29 196617 gate;#P window setfont Helvetica 9.;#P comment 281 355 190 1376265 Tom Mays \, Olivier Pfeiffer & Renaud Rubiano;#B frgb 0 146 207;#P window linecount 2;#P comment 282 328 193 1376265 tm_dmx-mirror is a part of tapemovie. contact@tapemovie.org;#P window setfont Helvetica 24.;#P window linecount 1;#P comment 282 285 163 1376280 tm_dmx-mirror;#B frgb 0 146 207;#P window setfont Helvetica 12.;#P comment 282 312 260 1376268 $1 : prefix name \;;#P user panel 279 280 269 93;#X brgb 255 255 255;#X frgb 0 0 0;#X border 1;#X rounded 0;#X shadow 0;#X done;#P window setfont "Sans Serif" 9.;#P newex 97 202 45 196617 prepend;#P newex 97 127 37 196617 / 256;#P connect 33 0 7 0;#P connect 7 0 32 0;#P connect 34 0 23 0;#P fasten 20 0 7 1 385 227 37 227;#P fasten 18 0 7 1 312 227 37 227;#P fasten 16 0 7 1 250 227 37 227;#P fasten 15 0 7 1 198 227 37 227;#P fasten 11 0 7 1 151 227 37 227;#P fasten 1 0 7 1 102 227 37 227;#P fasten 8 0 7 1 55 227 37 227;#P connect 10 0 9 0;#P connect 9 0 8 0;#P connect 24 0 8 0;#P connect 31 1 24 0;#P lcolor 1;#P connect 10 0 0 0;#P connect 0 0 1 0;#P connect 25 0 1 0;#P connect 31 0 25 0;#P lcolor 1;#P connect 14 0 12 0;#P connect 26 0 11 0;#P connect 12 0 11 0;#P connect 31 3 26 0;#P lcolor 1;#P connect 14 0 13 0;#P connect 13 0 15 0;#P connect 27 0 15 0;#P connect 31 2 27 0;#P lcolor 1;#P connect 21 0 16 0;#P connect 28 0 16 0;#P connect 31 4 28 0;#P lcolor 1;#P connect 29 0 18 0;#P connect 17 0 18 0;#P connect 31 5 29 0;#P lcolor 1;#P connect 19 0 35 0;#P connect 35 0 20 0;#P connect 30 0 20 0;#P connect 31 6 30 0;#P lcolor 1;#P connect 22 0 31 0;#P pop;