max v2;#N vpatcher 511 300 788 784;#P window setfont "Sans Serif" 9.;#P window linecount 1;#P newex 11 396 161 196617 s $1/reset;#B color 12;#P newex 11 369 58 196617 pvar reset;#P newex 11 331 52 196617 pvar spin;#P newex 11 309 214 196617 variedit $1/spin $1;#B color 12;#P comment 199 46 40 196617 /reset;#B frgb 0 0 222;#P button 237 44 15 0;#P objectname reset;#P comment 174 19 34 196617 /spin;#B frgb 0 0 222;#P number 209 19 43 9 0 0 32 3 0 0 0 221 221 221 222 222 222 0 0 0;#P objectname spin;#P newex 11 279 59 196617 pvar speed;#P newex 11 257 225 196617 variedit $1/speed $1;#B color 12;#P newex 11 222 48 196617 pvar tilt;#P newex 11 200 214 196617 variedit $1/tilt $1;#B color 12;#P newex 11 165 49 196617 pvar pan;#P newex 11 143 215 196617 variedit $1/pan $1;#B color 12;#P comment 20 48 49 196617 /speed;#B frgb 0 0 222;#P number 66 46 43 9 0 0 32 3 0 0 0 221 221 221 222 222 222 0 0 0;#P objectname speed;#P comment 21 35 49 196617 /tilt;#B frgb 0 0 222;#P number 66 33 43 9 0 0 32 3 0 0 0 221 221 221 222 222 222 0 0 0;#P objectname tilt;#P comment 21 20 49 196617 /pan;#B frgb 0 0 222;#P number 66 18 43 9 0 0 32 3 0 0 0 221 221 221 222 222 222 0 0 0;#P objectname pan;#P comment 21 5 49 196617 /channel;#B frgb 0 0 222;#P number 66 3 35 9 0 0 32 3 0 0 0 221 221 221 222 222 222 0 0 0;#P objectname channel;#P newex 11 108 67 196617 pvar channel;#P newex 11 86 208 196617 variedit $1/channel $1;#B color 12;#P bpatcher 0 0 256 62 0 0 bkgnd.mxt 0 $1 0 3;#P objectname background;#P fasten 2 0 1 0 16 131 5 131 5 81 16 81;#P connect 1 0 2 0;#P fasten 12 0 11 0 16 188 5 188 5 138 16 138;#P connect 11 0 12 0;#P fasten 14 0 13 0 16 245 5 245 5 195 16 195;#P connect 13 0 14 0;#P fasten 16 0 15 0 16 302 5 302 5 252 16 252;#P connect 15 0 16 0;#P fasten 22 0 21 0 16 354 5 354 5 304 16 304;#P connect 21 0 22 0;#P connect 23 0 24 0;#P pop;