max v2;#N vpatcher 617 44 1749 727;#P origin 148 -122;#P window setfont "Sans Serif" 12.;#P window linecount 1;#N vpatcher 10 59 577 375;#P window setfont "Sans Serif" 9.;#P window linecount 1;#P newex 196 120 27 196617 + 1;#P newex 196 97 27 196617 > 1;#P newex 196 73 34 196617 zl len;#P newex 26 191 38 196617 gate 2;#P newex 211 224 140 196617 sprintf write %s %ld %s %s;#P newex 46 224 150 196617 sprintf write "%s" %ld %s %s;#P inlet 184 174 15 0;#P inlet 29 32 15 0;#P inlet 138 174 15 0;#P inlet 92 174 15 0;#P outlet 46 275 15 0;#P window linecount 0;#P newex 29 119 27 196617 t b l;#P newex 29 77 78 196617 prepend symbol;#P message 29 99 35 196617 set \$1;#P newex 29 53 49 196617 tosymbol;#B color 5;#P message 46 152 486 196617;#P connect 15 0 12 0;#P connect 8 0 1 0;#P connect 1 0 3 0;#P connect 3 0 2 0;#P connect 2 0 4 0;#P connect 4 0 0 0;#P connect 4 1 0 0;#P connect 12 1 10 0;#P connect 10 0 5 0;#P connect 11 0 5 0;#P connect 0 0 12 1;#P connect 6 0 10 1;#P connect 7 0 10 2;#P connect 9 0 10 3;#P connect 8 0 13 0;#P connect 13 0 14 0;#P connect 14 0 15 0;#P connect 12 0 11 0;#P connect 6 0 11 1;#P connect 7 0 11 2;#P connect 9 0 11 3;#P pop;#P newobj 331 308 404 196620 p dirty space handling;#B color 6;#P window setfont "Sans Serif" 9.;#P newex 281 614 233 196617 makecontrol $1/done/name $1 s;#B color 12;#P newex 308 565 80 196617 sprintf %s.mov;#P newex 75 566 27 196617 t l b;#P newex 92 589 94 196617 v /movie/verbose;#P newex 92 636 102 196617 print $1;#P newex 92 614 29 196617 gate;#P toggle 294 42 15 0;#P newex 331 266 255 196617 sprintf %s%s%s.mov;#P newex 281 588 36 196617 zl reg;#P newex 302 541 210 196617 makecontrol $1/done $1 t 0 1;#B color 12;#P message 579 76 121 196617 media/movies/records/;#P newex 579 47 68 196617 route default;#P newex 579 23 221 196617 makeparam $1/path $1 s default;#B color 12;#P newex 593 146 134 196617 regexp (\\\\/) @substitute -;#P newex 594 126 133 196617 r $1/source;#B color 12;#P newex 416 191 187 196617 sprintf %s%s;#P window setfont Helvetica 12.;#P comment 736 469 263 1376268 $1 : render name \;;#P comment 737 456 263 1376268 $1 : dim y \;;#P comment 736 442 263 1376268 $1 : dim x \;;#P comment 737 412 263 1376268 enregistre n'importe qu'elle texture source;#P window setfont Helvetica 9.;#P window linecount 2;#P comment 737 482 261 1376265 m_glrecord is a part of movie \, a part of tapemovie. contact@tapemovie.org;#P window setfont Helvetica 24.;#P window linecount 1;#P comment 738 385 156 1376280 m_glrecord;#B frgb 0 146 207;#P window setfont Helvetica 12.;#P comment 736 427 263 1376268 $1 : module name \;;#P user panel 735 385 269 122;#X brgb 255 255 255;#X frgb 0 0 0;#X border 1;#X rounded 0;#X shadow 0;#X done;#P window setfont "Sans Serif" 9.;#P newex 41 134 179 196617 jit.gl.slab $4 @automatic 0;#P window setfont "Sans Serif" 12.;#P newex 41 76 177 196620 m_glsource $1;#B color 6;#P window setfont "Sans Serif" 9.;#P newex 41 259 56 196617 pak dim i i;#P newex 87 239 271 196617 makeparam $1/dim/y $1 i $3 0 768 1;#B color 12;#P newex 64 217 194 196617 makeparam $1/dim/x $1 i $2 0 1024 1;#B color 12;#P newex 416 127 36 196617 zl reg;#P newex 416 214 51 196617 tosymbol;#P newex 640 222 51 196617 tosymbol;#B color 12;#P newex 4 84 27 196617 + 1;#P newex 331 106 95 196617 b 2;#P newex 331 127 62 196617 projectpath;#B color 14;#P newex 416 170 72 196617 datetimestamp;#P newex 289 511 85 196617 s movies/update;#B color 12;#P newex 903 290 132 196617 r $1/init;#B color 12;#N comlet out;#P outlet 4 433 15 0;#P newex 39 416 110 196617 s $1/out;#B color 12;#P newex 19 194 129 196617 m_colormode $1;#B color 14;#P newex 4 113 47 196617 gate 2 1;#P toggle 4 63 15 0;#P newex 4 39 260 196617 makeswitch $1/sw $1 movie_switchstate;#B color 12;#P newex 328 487 136 196617 s $1/codeclist;#B color 12;#P newex 328 424 89 196617 t l clear;#P newex 328 466 78 196617 prepend append;#P newex 328 445 47 196617 zl iter 1;#P message 903 332 64 196617 getcodeclist;#P newex 753 240 243 196617 makeparam $1/interp $1 t 0;#B color 12;#P message 294 106 29 196617 stop;#P newex 294 83 84 196617 sel 0 1;#P newex 294 62 211 196617 makeparam $1/record $1 t 0;#B color 12;#P newex 724 220 261 196617 makeparam $1/quality $1 s normal;#B color 12;#P newex 640 200 279 196617 makeparam $1/codec $1 s photojpeg;#B color 12;#P newex 619 181 274 196617 makeparam $1/fps $1 i 25 1 100 0;#B color 12;#P message 57 517 45 196617 RECORD;#P newex 75 543 197 196617 sprintf %s OF %s.mov DONE SUCCESSFUL;#P newex 281 487 31 196617 t b 1;#P newex 442 99 271 196617 makeparam $1/name $1 s <datetime>;#B color 12;#P newex 35 358 117 196617 receive $1;#B color 12;#P newex 829 260 254 196617 makeparam $1/realtime $1 t 1;#B color 12;#P window linecount 15;#P message 513 389 212 196617 \; $1/sw/init bang \; $1/path/init bang \; $1/dim/x/init bang \; $1/dim/y/init bang \; $1/source/init bang \; $1/realtime/init bang \; $1/interp/init bang \; $1/name/init bang \; $1/fps/init bang \; $1/codec/init bang \; $1/quality/init bang \; $1/record/init bang \; $1/done/init bang \; $1/done/name/init bang \;;#P window linecount 1;#P newex 513 364 168 196617 moduleinit $1;#B color 11;#P toggle 829 310 15 0;#P message 829 332 61 196617 realtime \$1;#P newex 281 403 105 196617 route write codeclist;#P newex 19 383 273 196617 jit.qt.record;#B color 5;#P toggle 753 310 15 0;#P message 753 332 50 196617 interp \$1;#P newex 41 157 101 196617 jit.matrix;#B color 12;#P comment 315 46 233 196617 pouvoir choisir entre un nom et un datetimestamp;#P newex 416 149 165 196617 route <datetime>;#P connect 29 0 30 0;#P connect 30 0 40 0;#P connect 40 0 31 0;#P connect 5 0 34 0;#P connect 31 0 34 0;#P fasten 24 0 5 0 908 359 24 359;#P fasten 7 0 5 0 834 359 24 359;#P fasten 3 0 5 0 758 377 24 377;#P connect 32 0 5 0;#P connect 12 0 5 0;#P connect 22 0 5 0;#P connect 46 0 5 0;#P connect 2 0 5 0;#P connect 73 0 5 0;#P connect 5 0 33 0;#P connect 47 0 31 1;#P connect 31 1 48 0;#P connect 48 0 2 0;#P connect 14 0 16 0;#P connect 44 0 46 1;#P connect 16 0 15 0;#P connect 15 0 70 0;#P connect 45 0 46 2;#P connect 70 1 69 0;#P connect 69 0 67 0;#P connect 67 0 68 0;#P connect 70 0 67 1;#P connect 0 1 15 1;#P connect 57 0 15 1;#P lcolor 1;#P connect 5 1 6 0;#P connect 6 0 14 0;#P connect 14 0 64 0;#P connect 64 0 72 0;#P fasten 14 0 36 0 286 507 294 507;#P connect 66 0 20 0;#P connect 20 0 21 0;#P connect 21 0 22 0;#P connect 14 1 63 0;#P connect 71 0 64 1;#P connect 42 0 71 0;#P lcolor 1;#P connect 6 1 27 0;#P connect 27 0 25 0;#P connect 25 0 26 0;#P connect 26 0 28 0;#P fasten 27 1 28 0 412 484 333 484;#P connect 21 1 39 0;#P connect 39 0 38 0;#P connect 38 0 65 0;#P connect 65 0 73 0;#P connect 39 1 43 0;#P connect 43 0 0 0;#P connect 0 0 37 0;#P connect 37 0 57 0;#P connect 57 0 42 0;#P connect 0 1 42 0;#P connect 13 0 43 1;#P connect 61 1 65 1;#P connect 62 0 65 1;#P connect 17 0 73 1;#P connect 9 0 10 0;#P connect 42 0 65 2;#P connect 60 0 61 0;#P connect 61 0 62 0;#P connect 58 0 59 0;#P connect 59 0 57 1;#P connect 41 0 73 2;#P connect 18 0 41 0;#P connect 19 0 73 3;#P connect 23 0 4 0;#P connect 4 0 3 0;#P connect 11 0 8 0;#P connect 8 0 7 0;#P connect 35 0 24 0;#P pop;