max v2;#N vpatcher 456 240 1210 843;#P window setfont "Sans Serif" 9.;#P window linecount 1;#P newex 276 427 16 196617 r;#N vpatcher 20 74 620 474;#P inlet 216 30 15 0;#P window setfont "Sans Serif" 9.;#P newex 128 135 98 196617 route $1;#P newex 128 164 78 196617 prepend append;#P newex 78 137 40 196617 t clear;#P newex 78 115 60 196617 route clear;#P newex 78 86 129 196617 r /movie/tojmatrixmenus;#B color 12;#P newex 50 50 293 196617 varieditu /source $1;#B color 12;#P inlet 50 30 15 0;#P outlet 78 285 15 0;#P connect 1 0 2 0;#P connect 3 0 4 0;#P connect 4 0 5 0;#P connect 6 0 0 0;#P connect 2 0 0 0;#P connect 5 0 0 0;#P connect 4 1 7 0;#P fasten 7 1 6 0 221 158 133 158;#P connect 8 0 2 2;#P pop;#P newobj 38 151 90 196617 p;#P newex 282 73 50 196617 deferlow;#P window setfont "Sans Serif" 12.;#N vpatcher 30 89 293 402;#P origin 0 -15;#P window setfont "Sans Serif" 9.;#P window linecount 0;#P newex 91 178 64 196617 sprintf %s_;#P window linecount 2;#P newex 50 138 39 196617 route symbol;#P window linecount 1;#P newex 50 87 46 196617 t dump l;#P newex 50 65 114 196617 sprintf refer %s/state;#P newex 50 254 47 196617 forward;#P window linecount 2;#P newex 91 210 42 196617 prepend send;#P newex 91 138 39 196617 route symbol;#P window linecount 1;#N coll /jrec.1/state;#P newobj 50 114 134 196617 coll;#B color 5;#P inlet 50 21 15 0;#P connect 0 0 5 0;#P connect 5 0 6 0;#P connect 6 1 1 0;#P connect 6 0 1 0;#P connect 1 0 7 0;#P fasten 7 1 4 0 84 191 55 191;#P connect 7 0 4 0;#P fasten 3 0 4 0 96 246 55 246;#P connect 1 1 2 0;#P connect 2 0 8 0;#P connect 8 0 3 0;#P pop;#P newobj 282 102 109 196620 p re-send values;#B color 7;#P window setfont Helvetica 9.;#P comment 10 64 35 1376265 /dim/x;#B frgb 0 0 222;#P comment 70 64 35 1376265 /dim/y;#B frgb 0 0 222;#P window setfont Times 9.;#P number 101 63 28 9 0 8192 35 20 0 0 0 221 221 221 222 222 222 0 0 0;#P objectname dimy;#P number 42 64 28 9 0 8192 35 20 0 0 0 221 221 221 222 222 222 0 0 0;#P objectname dimx;#P window setfont "Sans Serif" 9.;#P newex 324 218 56 196617 pvar dimy;#P newex 324 239 205 196617 varieditu /dim/y $1;#P newex 324 166 56 196617 pvar dimx;#P newex 324 187 205 196617 varieditu /dim/x $1;#P comment 20 19 46 196617 /name;#B frgb 0 0 222;#P comment 20 3 46 196617 /source;#B frgb 0 0 222;#P toggle 239 53 15 0;#P objectname record[1];#P comment 187 54 54 196617 /realtime;#B frgb 0 0 222;#P comment 195 108 46 196617 /record;#B frgb 0 0 222;#P comment 109 91 41 196617 /codec;#B frgb 0 0 222;#P comment 164 71 47 196617 /quality;#B frgb 0 0 222;#P comment 192 19 43 196617 /interp;#B frgb 0 0 222;#P toggle 239 19 15 0;#P objectname interp;#P toggle 239 106 15 0;#P objectname record;#P newex 77 189 77 196617 pvar texture 2;#P window setfont Times 10.;#P user ubumenu 60 1 59 1310730 0 0 1 0;#X add;#X prefix_set 0 0 <none> 0;#P objectname texture;#P window setfont "Sans Serif" 9.;#P newex 300 400 121 196617 sprintf set %s/codeclist;#P newex 187 304 72 196617 pvar realtime;#P newex 187 277 122 196617 varieditu /realtime $1;#P newex 188 177 61 196617 pvar interp;#P newex 188 150 111 196617 varieditu /interp $1;#P newex 22 256 56 196617 route text;#P newex 22 279 107 196617 varieditu /name $1;#P newex 22 235 57 196617 pvar name;#P button 31 34 20 0;#P window setfont "Sans Serif" 12.;#P user textedit 53 33 192 54 32912 3 12 <datetime>;#P objectname name;#P window setfont "Sans Serif" 9.;#P newex 187 240 48 196617 pvar fps;#P newex 187 213 98 196617 varieditu /fps $1;#P comment 192 37 30 196617 /fps;#B frgb 0 0 222;#P number 219 36 35 9 1 100 35 3 0 0 0 221 221 221 222 222 222 0 0 0;#P objectname fps;#P newex 187 425 68 196617 pvar codec 2;#P newex 187 400 109 196617 varieditu /codec $1;#P user ubumenu 147 88 107 196617 0 0 1 0;#X add;#X prefix_set 0 0 <none> 0;#X pattrmode 1;#P objectname codec;#P newex 187 494 64 196617 pvar record;#P newex 187 467 132 196617 varieditu /record t 0 1 0;#P newex 187 363 99 196617 pvar grab-quality 2;#P newex 187 339 115 196617 varieditu /quality $1;#P user ubumenu 207 70 47 196617 0 0 1 0;#X add min;#X add low;#X add normal;#X add high;#X add max;#X add lossless;#X prefix_set 0 0 <none> 0;#X pattrmode 1;#P objectname grab-quality;#P bpatcher 0 0 256 124 0 0 bkgndu.mxt 0 jrec 0 /movie 2 1;#P objectname background;#P fasten 16 0 15 0 27 299 18 299 18 229 27 229;#P connect 15 0 17 0;#P connect 17 0 16 0;#P connect 24 1 45 0;#P hidden connect 14 0 13 0;#P connect 45 0 24 0;#P connect 0 1 16 2;#P connect 0 1 45 1;#P fasten 12 0 11 0 192 261 181 261 181 204 192 204;#P connect 11 0 12 0;#P fasten 21 0 20 0 192 325 181 325 181 268 192 268;#P connect 20 0 21 0;#P fasten 3 1 2 0 281 387 181 387 181 332 192 332;#P connect 2 0 3 0;#P fasten 8 1 7 0 250 447 181 447 181 393 192 393;#P connect 46 0 8 0;#P connect 7 0 8 0;#P fasten 5 0 4 0 192 515 181 515 181 458 192 458;#P connect 4 0 5 0;#P fasten 19 0 18 0 193 198 182 198 182 141 193 141;#P connect 18 0 19 0;#P connect 0 1 11 2;#P connect 0 1 7 2;#P connect 0 1 18 2;#P connect 0 1 2 2;#P connect 0 1 20 2;#P connect 0 1 4 2;#P connect 22 0 46 0;#P connect 0 1 44 0;#P connect 44 0 43 0;#P connect 0 1 22 0;#P fasten 35 0 36 0 329 204 329 209 319 209 319 162 329 162;#P connect 36 0 35 0;#P fasten 37 0 38 0 329 256 329 261 319 261 319 214 329 214;#P connect 38 0 37 0;#P connect 0 1 35 2;#P connect 0 1 37 2;#P pop;