max v2;#N vpatcher 216 203 1066 714;#P origin 0 -18;#P window setfont "Sans Serif" 9.;#P window linecount 1;#P newex 50 438 145 196617 t_fxmetersend $1;#B color 4;#P newex 22 468 156 196617 send $1/out~;#B color 4;#P user textedit 432 345 510 377 32896 3 9 0 0 0 0 0 0 0 0;#P toggle 23 51 15 0;#P newex 23 30 261 196617 makeswitch $1/sw $1 tape_switchstate;#B color 13;#P window linecount 2;#P comment 185 78 451 196617 [filter pitch (midi note f)] [velocity (i)] [number of samples (i)] [shape (i \, 1=triangle \, 2=random)] [filt type (s)] [filt amp dB (f)] [filt q (f)] [amp vel follow (i)] [filt pitch vel follow (i)];#P toggle 446 167 15 0;#P flonum 74 408 35 9 0 0 0 3 0 0 0 221 221 221 222 222 222 0 0 0;#P window linecount 1;#P newex 22 408 49 196617 t_vol~ 2;#P newex 61 382 351 196617 makeparam $1/vol $1 f 1 0. 2. 1 20;#B color 13;#P window setfont Times 9.;#P newex 223 350 120 1310729 s $1/busy;#B color 11;#P window setfont "Sans Serif" 9.;#P newex 23 229 40 196617 gate;#P button 581 151 15 0;#P newex 549 282 126 196617 s $1/spat/init;#B color 11;#P newex 581 129 148 196617 moduleinit $1;#B color 13;#P window linecount 7;#P message 581 179 223 196617 \; $1/sw/init bang \; $1/steal 0 \; $1/polyphony 16 \; $1/vol/init bang \; $1/allnotesoff bang \; module_register $1 \;;#P number 119 267 35 9 0 0 64 3 0 0 0 221 221 221 222 222 222 0 0 0;#P window setfont Times 9.;#P window linecount 1;#P message 119 286 41 1310729 open \$1;#P window setfont "Sans Serif" 9.;#P comment 93 147 152 196617 convert float pitch to midicents;#P window setfont Times 9.;#P newex 53 185 44 1310729 zl join;#P newex 53 165 16 1310729 t i;#P newex 53 145 35 1310729 * 100.;#P newex 53 125 44 1310729 zl slice 1;#P toggle 53 82 15 0;#P newex 53 103 36 1310729 gate;#P newex 53 58 53 1310729 dspstate~;#P newex 446 209 35 1310729 unpack;#P number 481 243 35 9 0 0 0 20 0 0 0 221 221 221 222 222 222 0 0 0;#P newex 446 186 45 1310729 t l 100;#P newex 79 81 94 1310729 r $1/note;#B color 11;#P newex 446 146 115 1310729 r $1/showbusy;#B color 11;#P toggle 446 247 15 0;#P newex 446 266 45 1310729 metro;#P message 446 286 49 1310729 busymap 1;#P message 199 285 38 1310729 steal \$1;#P newex 53 207 76 1310729 prepend midinote;#P message 83 286 34 1310729 open 1;#P number 310 267 35 9 0 32 3 20 0 0 0 221 221 221 222 222 222 0 0 0;#P newex 310 246 120 1310729 r $1/polyphony;#B color 11;#P toggle 199 267 15 0;#P newex 199 246 95 1310729 r $1/steal;#B color 11;#P newex 72 229 95 1310729 r $1/poly;#B color 11;#P message 310 285 45 1310729 voices \$1;#P comment 346 267 50 1310729 also resets;#P window setfont "Sans Serif" 9.;#P comment 549 328 181 196617 arg 1 : module prefix name \;;#P window linecount 2;#P comment 251 433 107 196617 patch by Tom Mays contact@tommays.net;#P window linecount 1;#P newex 22 327 211 196617 poly~ t_clicksynth_ 16 args $1;#B color 6;#P connect 35 0 0 0;#P connect 13 0 0 0;#P connect 5 0 0 0;#P connect 4 0 0 0;#P connect 12 0 0 0;#P connect 29 0 0 0;#P connect 10 0 0 0;#P connect 0 0 38 0;#P connect 38 0 45 0;#P connect 42 0 43 0;#P connect 43 0 35 0;#P connect 38 0 46 0;#P connect 21 0 23 0;#P connect 23 0 22 0;#P connect 22 0 24 0;#P connect 24 0 25 0;#P connect 25 0 26 0;#P connect 26 0 27 0;#P connect 27 0 11 0;#P connect 11 0 35 1;#P connect 39 0 38 1;#P connect 37 0 38 1;#P connect 38 1 39 0;#P connect 17 0 22 1;#P connect 24 1 27 1;#P connect 30 0 29 0;#P connect 6 0 7 0;#P connect 7 0 12 0;#P connect 0 1 36 0;#P connect 8 0 9 0;#P connect 9 0 4 0;#P connect 0 1 44 0;#P connect 16 0 40 0;#P connect 40 0 18 0;#P connect 18 0 20 0;#P connect 20 0 15 0;#P connect 15 0 14 0;#P connect 14 0 13 0;#P connect 18 1 19 0;#P connect 20 1 19 0;#P connect 19 0 14 1;#P fasten 34 0 33 0 586 174 554 174;#P connect 32 0 34 0;#P connect 34 0 31 0;#P pop;