max v2;#N vpatcher 674 150 1413 795;#P origin 0 -20;#P window setfont "Sans Serif" 9.;#P window linecount 1;#P newex 359 523 78 196617 prepend append;#P message 395 502 37 196617 set \\\;;#P newex 359 501 27 196617 t l b;#P newex 550 494 62 196617 prepend set;#P window setfont Times 9.;#P newex 454 164 71 1310729 prepend symbol;#P newex 441 140 71 1310729 prepend symbol;#P window setfont "Sans Serif" 9.;#P newex 359 35 48 196617 loadbang;#P newex 359 113 279 196617 unpack 0. 0 0 s s 0. 0. 0 0;#P window setfont Times 9.;#P newex 359 73 61 1310729 pvar exemple;#P comment 171 131 44 1310729 values ->;#B frgb 200 0 0;#P comment 171 122 38 1310729 example;#B frgb 200 0 0;#P button 209 130 15 0;#P objectname exemple;#P window setfont "Sans Serif" 9.;#P message 359 94 160 196617 60 100 5 tri lowpass 0. 2. 90 70;#P window setfont Times 9.;#P newex 442 400 78 1310729 s $1/showbusy;#B color 11;#P newex 442 379 57 1310729 pvar busysw;#P toggle 236 174 15 0;#P objectname busysw;#P comment 187 176 55 1310729 busy voices;#B frgb 33 33 33;#P newex 442 334 78 1310729 r $1/busy;#B color 11;#P newex 442 355 63 1310729 pvar busydisp;#P window setfont "Sans Serif" 9.;#P user textedit 173 189 251 221 32897 3 9;#P objectname busydisp;#P window setfont Times 9.;#P hidden comment 44 22 26 1310729 poly;#B frgb 33 33 33;#P window setfont "Sans Serif" 9.;#P message 425 48 48 196617 mode \$1;#P window setfont Times 9.;#P newex 425 27 47 1310729 pvar poly;#P hidden toggle 29 22 15 0;#P objectname poly;#P window linecount 2;#P comment 66 179 41 1310729 pitch vel follow;#B frgb 200 0 0;#P comment 29 179 37 1310729 amp vel follow;#B frgb 200 0 0;#P window linecount 1;#P comment 143 150 26 1310729 filt q;#B frgb 200 0 0;#P comment 91 150 48 1310729 filt amp dB;#B frgb 200 0 0;#P comment 29 150 41 1310729 filt type;#B frgb 200 0 0;#P comment 62 122 32 1310729 shape;#B frgb 200 0 0;#P comment 29 122 34 1310729 samps;#B frgb 200 0 0;#P comment 75 94 25 1310729 vel;#B frgb 200 0 0;#P comment 29 94 25 1310729 pitch;#B frgb 200 0 0;#P comment 146 23 23 1310729 trsp;#B frgb 33 33 33;#P window setfont "Sans Serif" 9.;#P number 126 22 20 9 -3 3 35 3 0 0 0 221 221 221 222 222 222 0 0 0;#P bpatcher 29 37 210 51 -147 0 kybdshiftb.mxt 1;#P objectname kybd;#P window setfont Times 9.;#P newex 305 181 27 1310729 t b i;#P window setfont "Sans Serif" 9.;#P newex 305 478 36 196617 zl reg;#P message 509 530 33 196617 clear;#P newex 331 451 51 196617 zl slice 2;#P newex 331 428 38 196617 gate 2;#P newex 376 404 27 196617 + 1;#P newex 376 384 27 196617 > 0;#P number 376 365 35 9 0 0 0 3 0 0 0 221 221 221 222 222 222 0 0 0;#P newex 376 344 44 196617 zl nth 2;#P newex 359 323 27 196617 t l l;#P message 506 63 32 196617 flush;#P window setfont Times 9.;#P window linecount 3;#P comment 1 227 255 1310729 $1/note [filter pitch (midinote f)] [velocity (i)] [number of samples (i)] [shape (s \, tri \, rand)] [filt type (s)] [filt amp dB (f)] [filt q (f)] [amp vel follow (i)] [filt pitch vel follow (i)];#B frgb 99 99 99;#P window linecount 1;#P newex 359 546 76 1310729 pvar messagetext;#P user textedit 4 274 252 304 32896 20 9 \; $1/note 60. 100 5 tri lowpass 0. 2. 90 70;#P objectname messagetext;#P window setfont "Sans Serif" 9.;#P newex 359 481 86 196617 prepend $1/note;#P newex 369 279 20 196617 t b;#P window setfont Times 9.;#P newex 359 163 49 1310729 pvar pitch;#P newex 392 187 41 1310729 pvar vel;#P newex 425 207 53 1310729 pvar samps;#P newex 440 230 58 1310729 pvar shape 2;#P newex 450 254 65 1310729 pvar filttype 2;#P newex 524 261 57 1310729 pvar filtamp;#P newex 557 187 45 1310729 pvar filtq;#P newex 623 227 86 1310729 pvar pitchvelfollow;#P newex 590 207 82 1310729 pvar ampvelfollow;#P window setfont "Sans Serif" 9.;#P newex 359 301 278 196617 pack 0. 0 0 s s 0. 0. 0 0;#P window setfont Times 9.;#P newex 305 568 149 1310729 s $1/note;#B color 11;#P window setfont "Sans Serif" 9.;#P number 66 201 35 9 -127 127 3 3 0 0 0 221 221 221 222 222 222 0 0 0;#P objectname pitchvelfollow;#P number 29 201 35 9 -127 127 3 3 0 0 0 221 221 221 222 222 222 0 0 0;#P objectname ampvelfollow;#P flonum 137 162 38 9 0.5 25. 3 3 0 0 0 221 221 221 222 222 222 0 0 0;#P objectname filtq;#P flonum 93 162 42 9 -24. 24. 3 3 0 0 0 221 221 221 222 222 222 0 0 0;#P objectname filtamp;#P user ubumenu 29 162 62 196617 0 1 1 0;#X add lowpass;#X add highpass;#X add bandpass;#X add bandstop;#X add peaknotch;#X add lowshelf;#X add highshelf;#X add resonant;#X add allpass;#X prefix_set 0 0 <none> 0;#P objectname filttype;#P user ubumenu 62 134 38 196617 0 1 1 0;#X add tri;#X add rand;#X prefix_set 0 0 <none> 0;#P objectname shape;#P number 29 134 31 9 1 256 3 3 0 0 0 221 221 221 222 222 222 0 0 0;#P objectname samps;#P number 75 106 31 9 0 127 3 3 0 0 0 221 221 221 222 222 222 0 0 0;#P objectname vel;#P flonum 29 106 44 9 0. 127. 3 3 0 0 0 221 221 221 222 222 222 0 0 0;#P objectname pitch;#P window setfont Times 9.;#P window linecount 9;#P comment 557 351 140 1310729 [filter pitch (midinote f)] \; [velocity (i)] \; [number of samples (i)] \; [shape (i \, 1=triangle \, 2=random)] \; [filt type (s)] \; [filt amp dB (f)] \; [filt q (f)] \; [amp vel follow (i)] \; [filt pitch vel follow (i)];#P window linecount 1;#P comment 176 24 52 1310729 allnotesoff;#B frgb 0 0 200;#P window setfont "Sans Serif" 9.;#P window linecount 2;#P message 556 63 138 196617 \; $1/allnotesoff bang;#P window setfont Times 9.;#P window linecount 1;#P newex 506 27 67 1310729 pvar allnoteoff;#P button 224 22 15 0;#P objectname allnoteoff;#P comment 110 262 148 1310729 copy/send this message to play note;#B frgb 200 0 0;#P window setfont "Sans Serif" 9.;#P comment 94 328 117 196617 bpat bkgnd = 256 X 310;#P comment 94 346 119 196617 bpat editor = 258 X 312;#P window setfont Times 9.;#P comment 209 94 21 1310729 vol;#B frgb 0 0 200;#P flonum 209 106 30 9 0. 2. 3 20 0 0 0 221 221 221 222 222 222 0 0 0;#P objectname vol;#P window setfont "Sans Serif" 9.;#P newex 22 383 258 196617 param $1/vol $1 f 0 2 1;#B color 11;#P window setfont Times 9.;#P newex 22 403 42 1310729 pvar vol;#P window setfont "Sans Serif" 9.;#N thispatcher;#Q end;#P newobj 0 335 61 196617 thispatcher;#P comment 2 217 256 196617 _________________________________________;#B frgb 99 99 99;#P bpatcher 0 0 256 310 0 0 bkgnd5.mxt 0 $1 0 1;#P objectname background;#P fasten 3 0 4 0 27 424 15 424 15 378 27 378;#P connect 4 0 3 0;#P hidden connect 40 0 51 0;#P hidden connect 65 0 51 0;#P hidden connect 52 0 51 2;#P hidden connect 51 0 50 0;#P connect 50 0 49 0;#P connect 49 0 24 0;#P connect 45 0 46 0;#P connect 46 0 47 0;#P connect 47 0 49 1;#P connect 46 1 49 1;#P connect 80 0 78 0;#P connect 78 0 74 0;#P connect 74 0 79 0;#P connect 79 0 34 0;#P connect 50 1 34 0;#P connect 35 0 25 0;#P connect 34 0 25 0;#P connect 25 0 41 0;#P connect 41 0 46 1;#P connect 46 1 36 0;#P connect 47 0 36 0;#P connect 36 0 84 0;#P connect 84 0 86 0;#P connect 48 0 38 0;#P connect 85 0 38 0;#P connect 86 0 38 0;#P connect 27 0 35 0;#P connect 26 0 35 0;#P connect 28 0 35 0;#P connect 29 0 35 0;#P connect 31 1 35 0;#P connect 32 0 35 0;#P connect 33 0 35 0;#P connect 30 1 35 0;#P connect 41 1 42 0;#P connect 42 0 43 0;#P connect 43 0 44 0;#P connect 44 0 45 0;#P connect 79 1 33 0;#P hidden connect 51 1 33 0;#P connect 33 0 25 1;#P connect 84 1 85 0;#P connect 64 0 65 0;#P connect 79 2 32 0;#P connect 32 0 25 2;#P connect 81 0 31 0;#P connect 79 3 81 0;#P connect 69 0 68 0;#P connect 48 0 68 0;#P connect 72 0 73 0;#P connect 82 0 30 0;#P connect 79 4 82 0;#P connect 31 1 25 3;#P connect 30 1 25 4;#P connect 11 0 40 0;#P connect 79 5 29 0;#P connect 29 0 25 5;#P connect 11 0 12 0;#P connect 79 6 28 0;#P connect 28 0 25 6;#P connect 79 7 26 0;#P connect 26 0 25 7;#P connect 79 8 27 0;#P connect 27 0 25 8;#P pop;