max v2;#N vpatcher 61 83 1177 424;#P window setfont "Sans Serif" 9.;#P window linecount 1;#P comment 135 198 88 196617 bpat = 512 X 186;#P window setfont Times 9.;#P newex 562 286 70 1310729 pvar cpitchmidi;#P newex 562 266 16 1310729 t i;#P newex 562 247 30 1310729 + 0.5;#P newex 958 227 43 1310729 pvar amp;#P newex 818 227 45 1310729 pvar ramp;#P newex 682 227 50 1310729 pvar rpitch;#P newex 549 227 51 1310729 pvar cpitch;#P comment 549 192 63 1310729 pitch;#P comment 682 192 51 1310729 raw pitch;#P comment 818 193 60 1310729 raw amp dB;#P newex 549 207 120 1310729 r $1/pitch;#B color 11;#P newex 958 207 122 1310729 r $1/ampdB;#B color 11;#P newex 818 207 135 1310729 r $1/rawampdB;#B color 11;#P newex 682 207 129 1310729 r $1/rawpitch;#B color 11;#P comment 958 194 40 1310729 amp dB;#P newex 581 141 55 1310729 pvar npartial;#P newex 581 120 70 1310729 pvar reattack-dB;#P newex 581 99 75 1310729 pvar reattack-time;#P newex 581 78 88 1310729 pvar vibrato-interval;#P newex 581 57 75 1310729 pvar vibrato-time;#P newex 581 36 78 1310729 pvar amp-range-hi;#P newex 581 15 78 1310729 pvar amp-range-lo;#P newex 674 141 245 1310729 variedit $1/npartial $1;#B color 11;#P newex 674 120 258 1310729 variedit $1/reattack/dB $1;#B color 11;#P newex 674 99 265 1310729 variedit $1/reattack/time $1;#B color 11;#P newex 674 78 273 1310729 variedit $1vibrato/interval $1;#B color 11;#P newex 674 57 263 1310729 variedit $1/vibrato/time $1;#B color 11;#P newex 674 36 263 1310729 variedit $1/amprange/hi $1;#B color 11;#P newex 674 15 263 1310729 variedit $1/amprange/lo $1;#B color 11;#P comment 396 24 39 1310729 /ampdB;#P flonum 361 24 35 9 0 0 0 20 0 0 0 221 221 221 222 222 222 0 0 0;#P noclick;#P objectname amp;#P comment 396 40 52 1310729 /rawampdB;#P flonum 361 39 35 9 0 0 0 20 0 0 0 221 221 221 222 222 222 0 0 0;#P noclick;#P objectname ramp;#P comment 287 40 46 1310729 /rawpitch;#P flonum 252 39 35 9 0 0 0 20 0 0 0 221 221 221 222 222 222 0 0 0;#P noclick;#P objectname rpitch;#P comment 287 24 33 1310729 /pitch;#P flonum 252 24 35 9 0 0 0 20 0 0 0 221 221 221 222 222 222 0 0 0;#P noclick;#P objectname cpitch;#P number 317 24 35 9 0 0 256 20 0 0 0 221 221 221 222 222 222 0 0 0;#P noclick;#P objectname cpitchmidi;#P flonum 94 46 28 9 0. 1. 3 20 0 0 0 221 221 221 222 222 222 0 0 0;#P objectname vibrato-interval;#P number 192 38 28 9 0 32 3 20 0 0 0 221 221 221 222 222 222 0 0 0;#P objectname npartial;#P number 192 23 28 9 0 96 3 20 0 0 0 221 221 221 222 222 222 0 0 0;#P objectname reattack-dB;#P number 192 8 28 9 0 0 1 20 0 0 0 221 221 221 222 222 222 0 0 0;#P objectname reattack-time;#P number 94 31 28 9 0 0 1 20 0 0 0 221 221 221 222 222 222 0 0 0;#P objectname vibrato-time;#P number 94 16 28 9 0 96 3 20 0 0 0 221 221 221 222 222 222 0 0 0;#P objectname amp-range-hi;#P number 94 1 28 9 0 96 3 20 0 0 0 221 221 221 222 222 222 0 0 0;#P objectname amp-range-lo;#P comment 37 16 59 1310729 /amprange/hi;#B frgb 0 0 200;#P comment 37 2 59 1310729 /amprange/lo;#B frgb 0 0 200;#P comment 135 8 58 1310729 /reattack/time;#B frgb 0 0 200;#P comment 153 38 38 1310729 /npartial;#B frgb 0 0 200;#P comment 142 23 51 1310729 /reattack/dB;#B frgb 0 0 200;#P comment 25 46 74 1310729 /vibrato/interval;#B frgb 0 0 200;#P comment 38 31 61 1310729 /vibrato/time;#B frgb 0 0 200;#P bpatcher 0 0 512 62 0 0 bkgnd12.mxt 0 $1 0 1;#P bpatcher 0 61 512 124 0 0 multimapsendu.edit.mxt 0 $1 /tape;#P connect 43 0 47 0;#P connect 43 0 51 0;#P connect 51 0 52 0;#P connect 52 0 53 0;#P connect 25 0 32 0;#P connect 26 0 33 0;#P connect 27 0 34 0;#P connect 28 0 35 0;#P connect 29 0 36 0;#P connect 30 0 37 0;#P connect 31 0 38 0;#P connect 32 0 25 0;#P connect 33 0 26 0;#P connect 34 0 27 0;#P connect 35 0 28 0;#P connect 36 0 29 0;#P connect 37 0 30 0;#P connect 38 0 31 0;#P connect 40 0 48 0;#P connect 41 0 49 0;#P connect 42 0 50 0;#P pop;