max v2;#N vpatcher 250 58 1168 706;#P origin 0 17;#P window setfont "Sans Serif" 9.;#P window linecount 1;#P newex 319 110 73 196617 sel 0 1;#B color 13;#P toggle 319 91 15 0;#P newex 319 70 277 196617 makeparam $1/play $1 t 0 0 1 0;#B color 13;#P window setfont "Sans Serif" 12.;#N vpatcher 10 59 586 322;#P window setfont "Sans Serif" 9.;#P window linecount 1;#P message 464 156 45 196617 map 8 0;#P window linecount 2;#P newex 459 84 32 196617 route Off;#P window linecount 1;#P message 412 156 45 196617 map 7 0;#P window linecount 2;#P newex 403 84 32 196617 route Off;#P window linecount 1;#P message 350 156 45 196617 map 6 0;#P window linecount 2;#P newex 345 84 32 196617 route Off;#P window linecount 1;#P message 294 156 45 196617 map 5 0;#P window linecount 2;#P newex 284 84 32 196617 route Off;#P window linecount 1;#P message 229 156 45 196617 map 4 0;#P window linecount 2;#P newex 229 84 32 196617 route Off;#P window linecount 1;#P message 161 156 45 196617 map 3 0;#P window linecount 2;#P newex 161 84 32 196617 route Off;#P window linecount 1;#P message 94 156 45 196617 map 2 0;#P window linecount 2;#P newex 94 84 30 196617 route Off;#P window linecount 1;#P message 28 156 45 196617 map 1 0;#P window linecount 0;#P newex 28 84 34 196617 route Off;#P message 499 126 52 196617 map 8 \$1;#P message 434 130 52 196617 map 7 \$1;#P message 365 127 52 196617 map 6 \$1;#P message 318 126 52 196617 map 5 \$1;#P message 250 124 52 196617 map 4 \$1;#P message 183 125 52 196617 map 3 \$1;#P message 114 120 52 196617 map 2 \$1;#P message 52 120 52 196617 map 1 \$1;#P inlet 459 63 15 0;#P inlet 403 63 15 0;#P inlet 345 63 15 0;#P inlet 284 63 15 0;#P inlet 229 63 15 0;#P inlet 164 63 15 0;#P inlet 28 63 15 0;#P inlet 94 63 15 0;#P outlet 22 216 15 0;#P connect 16 0 0 0;#P connect 15 0 0 0;#P connect 14 0 0 0;#P connect 13 0 0 0;#P connect 9 0 0 0;#P connect 10 0 0 0;#P connect 11 0 0 0;#P connect 12 0 0 0;#P connect 18 0 0 0;#P connect 32 0 0 0;#P connect 30 0 0 0;#P connect 28 0 0 0;#P connect 26 0 0 0;#P connect 24 0 0 0;#P connect 22 0 0 0;#P connect 20 0 0 0;#P connect 2 0 17 0;#P connect 17 0 18 0;#P connect 17 1 9 0;#P connect 1 0 19 0;#P connect 19 0 20 0;#P connect 19 1 10 0;#P connect 3 0 21 0;#P connect 21 0 22 0;#P connect 21 1 11 0;#P connect 4 0 23 0;#P connect 23 0 24 0;#P connect 23 1 12 0;#P connect 5 0 25 0;#P connect 25 0 26 0;#P connect 25 1 13 0;#P connect 6 0 27 0;#P connect 27 0 28 0;#P connect 27 1 14 0;#P connect 7 0 29 0;#P connect 29 0 30 0;#P connect 29 1 15 0;#P connect 8 0 31 0;#P connect 31 0 32 0;#P connect 31 1 16 0;#P pop;#P newobj 39 282 105 196620 p MAPPING;#B color 6;#P window setfont "Sans Serif" 9.;#P newex 130 254 239 196617 makeparam $1/output/8 $1 s Off;#B color 12;#P newex 117 232 239 196617 makeparam $1/output/7 $1 s Off;#B color 12;#P newex 104 212 238 196617 makeparam $1/output/6 $1 f Off;#B color 12;#P newex 91 191 239 196617 makeparam $1/output/5 $1 s Off;#B color 12;#P newex 78 171 239 196617 makeparam $1/output/4 $1 s Off;#B color 12;#P newex 65 151 239 196617 makeparam $1/output/3 $1 s Off;#B color 12;#P button 633 99 15 0;#P newex 298 449 156 196617 send $1.8/out~;#B color 4;#P newex 257 469 156 196617 send $1.7/out~;#B color 4;#P newex 216 490 156 196617 send $1.6/out~;#B color 4;#P newex 175 510 156 196617 send $1.5/out~;#B color 4;#P newex 134 538 156 196617 send $1.4/out~;#B color 4;#P newex 93 558 156 196617 send $1.3/out~;#B color 4;#P newex 51 131 239 196617 makeparam $1/output/2 $1 s Off;#B color 12;#P newex 39 112 270 196617 makeparam $1/output/1 $1 s Off;#B color 12;#P newex 11 129 27 196617 t b l;#B color 12;#P newex 462 344 166 196617 s $1/outputs_;#B color 12;#P newex 11 89 228 196617 makeparam $1/device $1 s Off;#B color 12;#P newex 421 363 166 196617 s $1/devices_;#B color 12;#P newex 361 581 147 196617 send $1/out~;#B color 4;#P newex 361 558 52 196617 *~ 0.18;#P newex 52 580 158 196617 send $1.2/out~;#B color 4;#P newex 11 600 158 196617 send $1.1/out~;#B color 4;#P newex 494 150 55 196617 s midimsg;#P message 510 118 92 196617 midi 0 0 144 60 0;#P message 494 96 98 196617 midi 0 0 144 60 64;#P message 319 130 29 196617 stop;#P message 350 130 29 196617 play;#P newex 518 185 55 196617 r midimsg;#P toggle 111 52 15 0;#P comment 525 326 104 196617 start/stop transport;#P flonum 360 414 35 9 0 0 0 3 0 0 0 221 221 221 222 222 222 0 0 0;#P newex 11 412 344 196617 t_vol8~ 2;#P newex 339 389 252 196617 makeparam $1/vol $1 f 1 0. 2. 1 20;#B color 13;#P button 698 151 15 0;#P newex 685 394 152 196617 s $1/spat/init;#B color 11;#P comment 635 29 37 196617 tempo;#P flonum 388 255 35 9 0 0 0 3 0 0 0 221 221 221 222 222 222 0 0 0;#P newex 388 232 277 196617 makeparam $1/tempo $1 f 120. 0 2000 1;#B color 13;#P newex 111 25 279 196617 makeswitch $1/sw $1 tape_switchstate 1;#B color 13;#P message 388 276 52 196617 tempo \$1;#P newex 633 56 31 196617 r $1;#B color 11;#P window linecount 16;#P message 698 175 189 196617 \; $1/sw/init bang \; $1 bang \; $1/device/init bang \; $1/tempo/init bang \; $1/vol/init bang \; $1/play/init bang \; $1/output/1/init bang \; $1/output/2/init bang \; $1/output/3/init bang \; $1/output/4/init bang \; $1/output/5/init bang \; $1/output/6/init bang \; $1/output/7/init bang \; $1/output/8/init bang \; module_register $1 \;;#P window linecount 1;#P newex 698 131 148 196617 moduleinit $1;#B color 13;#P newex 11 324 461 196617 rewire~ 8;#B color 7;#P comment 633 78 173 196617 any rewire message to this variable;#P connect 28 0 30 0;#P connect 30 1 1 0;#P connect 30 0 1 0;#P connect 17 0 1 0;#P connect 16 0 1 0;#P connect 19 0 1 0;#P connect 18 0 1 0;#P connect 5 0 1 0;#P connect 4 0 1 0;#P connect 39 0 1 0;#P connect 46 0 1 0;#P connect 1 0 13 0;#P connect 13 0 23 0;#P connect 31 0 46 0;#P connect 32 0 46 1;#P connect 1 1 13 1;#P connect 13 1 24 0;#P connect 40 0 46 2;#P connect 41 0 46 3;#P connect 42 0 46 4;#P connect 1 2 13 2;#P connect 13 2 33 0;#P connect 43 0 46 5;#P connect 6 0 16 0;#P connect 44 0 46 6;#P connect 45 0 46 7;#P connect 1 3 13 3;#P connect 13 3 34 0;#P connect 1 4 13 4;#P connect 13 4 35 0;#P connect 1 5 13 5;#P connect 13 5 36 0;#P connect 1 6 13 6;#P connect 13 6 37 0;#P connect 1 7 13 7;#P connect 13 7 38 0;#P connect 47 0 48 0;#P connect 48 0 49 0;#P connect 49 0 19 0;#P connect 12 0 13 8;#P connect 14 0 13 8;#P connect 49 1 18 0;#P connect 13 8 14 0;#P connect 13 7 25 0;#P connect 13 6 25 0;#P connect 13 5 25 0;#P connect 13 4 25 0;#P connect 13 3 25 0;#P connect 13 2 25 0;#P connect 13 1 25 0;#P connect 13 0 25 0;#P connect 25 0 26 0;#P connect 7 0 8 0;#P connect 8 0 5 0;#P connect 1 10 27 0;#P connect 1 11 29 0;#P connect 21 0 22 0;#P connect 20 0 22 0;#P fasten 11 0 10 0 703 170 690 170;#P connect 2 0 11 0;#P connect 11 0 3 0;#P pop;