max v2;#N vpatcher 242 312 1152 643;#P window setfont "Sans Serif" 9.;#P newex 119 289 94 196617 prepend setsymbol;#B color 12;#P message 250 139 25 196617 set;#P user ubumenu 32 44 100 196617 0 1 1 0;#X prefix_set 0 0 <none> 0;#P objectname outputa;#P comment 236 105 14 196617 8;#P comment 236 84 14 196617 7;#P comment 236 65 14 196617 6;#P comment 236 44 14 196617 5;#P comment 21 105 14 196617 4;#P comment 21 84 14 196617 3;#P comment 21 65 14 196617 2;#P newex 460 94 232 196617 variedit $1/play $1;#B color 11;#P window setfont Times 9.;#P newex 460 114 46 1310729 pvar play;#P window setfont "Sans Serif" 9.;#P comment 88 23 29 196617 play;#B frgb 0 0 200;#P toggle 118 21 15 0;#P objectname play;#P newex 525 120 232 196617 variedit $1/tempo $1;#B color 11;#P window setfont Times 9.;#P newex 525 140 53 1310729 pvar tempo;#P window setfont "Sans Serif" 9.;#P comment 135 22 37 196617 tempo;#B frgb 0 0 200;#P window setfont Times 9.;#P flonum 169 22 30 9 0. 2000. 3 20 0 0 0 221 221 221 222 222 222 0 0 0;#P objectname tempo;#P window setfont "Sans Serif" 9.;#P comment 204 22 21 196617 vol;#B frgb 0 0 200;#P window setfont Times 9.;#P flonum 222 22 30 9 0. 2. 3 20 0 0 0 221 221 221 222 222 222 0 0 0;#P objectname vol;#P window setfont "Sans Serif" 9.;#P newex 598 153 232 196617 variedit $1/vol $1;#B color 11;#P window setfont Times 9.;#P newex 598 173 42 1310729 pvar vol;#P window setfont "Sans Serif" 9.;#P newex 355 86 76 196617 s $1/outputs_;#B color 12;#P newex 695 216 67 196617 pvar outputh;#P newex 695 237 108 196617 variedit $1/output/8;#B color 12;#P newex 615 216 67 196617 pvar outputg;#P newex 615 237 108 196617 variedit $1/output/7;#B color 12;#P newex 534 216 66 196617 pvar outputf;#P newex 534 237 108 196617 variedit $1/output/6;#B color 12;#P newex 453 216 67 196617 pvar outpute;#P newex 453 237 108 196617 variedit $1/output/5;#B color 12;#P newex 372 216 67 196617 pvar outputd;#P newex 372 237 108 196617 variedit $1/output/4;#B color 12;#P newex 289 216 67 196617 pvar outputc;#P newex 289 237 108 196617 variedit $1/output/3;#B color 12;#P message 355 54 33 196617 clear;#P user ubumenu 135 82 100 196617 0 1 1 0;#X prefix_set 0 0 <none> 0;#P objectname outputg;#P user ubumenu 135 101 100 196617 0 1 1 0;#X prefix_set 0 0 <none> 0;#P objectname outputh;#P user ubumenu 135 43 100 196617 0 1 1 0;#X prefix_set 0 0 <none> 0;#P objectname outpute;#P user ubumenu 135 63 100 196617 0 1 1 0;#X prefix_set 0 0 <none> 0;#P objectname outputf;#P user ubumenu 32 82 100 196617 0 1 1 0;#X prefix_set 0 0 <none> 0;#P objectname outputc;#P user ubumenu 32 101 100 196617 0 1 1 0;#X prefix_set 0 0 <none> 0;#P objectname outputd;#P newex 208 216 67 196617 pvar outputb;#P newex 208 237 108 196617 variedit $1/output/2;#B color 12;#P newex 129 216 67 196617 pvar outputa;#P newex 129 188 77 196617 r $1/outputs_;#B color 12;#P newex 129 237 108 196617 variedit $1/output/1;#B color 12;#P user ubumenu 32 63 100 196617 0 1 1 0;#X prefix_set 0 0 <none> 0;#P objectname outputb;#P newex 12 245 66 196617 pvar menu 2;#P user ubumenu 21 1 100 196617 0 1 1 0;#X add Off;#X add "Ableton Live";#X prefix_set 0 0 <none> 0;#P objectname menu;#P newex 12 224 77 196617 r $1/devices_;#B color 12;#P newex 68 267 113 196617 variedit $1/device $1;#B color 12;#P comment 23 129 111 196617 bpat bkgnd = 256 X 62;#P comment 23 148 113 196617 bpat editor = 258 X 64;#P comment 37 163 102 196617 arg 1 : prefix name \;;#P comment 391 56 73 196617 CLEAR MENUS;#P comment 21 44 14 196617 1;#P bpatcher 0 0 256 124 0 0 bkgnd2.mxt 0 $1 0 1;#P objectname background;#P hidden connect 22 0 9 0;#P connect 7 0 9 0;#P connect 57 0 9 0;#P connect 9 1 6 0;#P connect 6 1 57 0;#P connect 11 0 13 0;#P fasten 12 0 13 0 134 210 134 210;#P connect 13 0 11 0;#P connect 14 0 15 0;#P fasten 12 0 15 0 134 210 213 210;#P connect 15 0 14 0;#P connect 23 0 24 0;#P fasten 12 0 24 0 134 210 294 210;#P connect 24 0 23 0;#P connect 22 0 35 0;#P connect 25 0 26 0;#P fasten 12 0 26 0 134 210 377 210;#P connect 26 0 25 0;#P connect 27 0 28 0;#P fasten 12 0 28 0 134 210 458 210;#P connect 28 0 27 0;#P fasten 46 0 47 0 465 135 453 135 453 89 465 89;#P connect 47 0 46 0;#P fasten 42 0 43 0 530 161 518 161 518 115 530 115;#P connect 43 0 42 0;#P connect 29 0 30 0;#P fasten 12 0 30 0 134 210 539 210;#P connect 30 0 29 0;#P fasten 36 0 37 0 603 194 591 194 591 148 603 148;#P connect 37 0 36 0;#P connect 31 0 32 0;#P fasten 12 0 32 0 134 210 620 210;#P connect 32 0 31 0;#P connect 33 0 34 0;#P fasten 12 0 34 0 134 210 700 210;#P connect 34 0 33 0;#P pop;