max v2;#N vpatcher 308 162 1208 378;#P button 421 92 15 0;#P window setfont Times 9.;#P newex 447 47 92 1310729 s $1/init;#B color 11;#P newex 447 24 51 1310729 r /tape/init;#B color 11;#P window setfont "Sans Serif" 9.;#P newex 614 43 261 196617 makeswitch $1/sw $1 tape_switchstate;#B color 13;#P newex 614 86 31 196617 == 0;#P newex 614 125 50 196617 thispoly~;#B color 5;#P toggle 614 67 15 0;#P message 614 106 45 196617 mute \$1;#P newex 119 40 281 196617 makeparam $1/del $1 f 0 0 $2 0;#B color 13;#P window linecount 2;#P comment 721 102 107 196617 patch by Tom Mays contact@tommays.net;#P comment 148 101 131 196617 arg 1 : module prefix name \; arg 2 : max del time;#P window setfont Times 9.;#P window linecount 1;#N out~ 1;#P newobj 22 122 33 1310729 out~ 1;#N in~ 1;#P newobj 22 28 29 1310729 in~ 1;#P window setfont "Sans Serif" 9.;#P window linecount 5;#P message 421 114 160 196617 \; $1/sw/init bang \; $1/del/init bang \; $1/delclear bang \; module_register $1 \;;#P window linecount 1;#P newex 421 71 138 196617 r $1/init;#B color 11;#P newex 22 77 146 196617 t_delmin~ $1 $2;#B color 6;#P connect 3 0 0 0;#P connect 0 0 4 0;#P fasten 7 0 0 1 124 67 163 67;#P connect 1 0 15 0;#P connect 15 0 2 0;#P connect 13 0 14 0;#P connect 12 0 9 0;#P connect 9 0 11 0;#P connect 11 0 8 0;#P connect 8 0 10 0;#P pop;