max v2;#N vpatcher 151 137 603 483;#P window setfont "Sans Serif" 9.;#P window linecount 2;#P comment 124 271 131 196617 arg 1 : module prefix name \; arg 2 : max del time;#P window setfont Times 9.;#P window linecount 1;#P newex 66 68 141 1310729 r $1/delclear;#B color 11;#P message 46 92 26 1310729 clear;#P newex 46 48 45 1310729 r cleardels;#B color 11;#P window setfont "Sans Serif" 9.;#P newex 203 128 89 196617 t_paramxprep 50;#B color 6;#P window setfont Times 9.;#P window linecount 2;#P comment 150 37 51 1310729 [del time] [xfade time];#N comlet [del time] [xfade time];#P inlet 203 37 15 0;#P flonum 160 174 35 9 0 0 0 20 0 0 0 221 221 221 222 222 222 0 0 0;#P flonum 53 174 35 9 0 0 0 20 0 0 0 221 221 221 222 222 222 0 0 0;#P window setfont "Sans Serif" 9.;#P window linecount 1;#P newex 20 128 73 196617 tapin~ $2;#N comlet sig in;#P inlet 20 32 15 0;#P outlet 53 275 15 0;#P newex 53 246 224 196617 t_xfade~;#P newex 53 209 117 196617 tapout~ 0 0;#P connect 3 0 4 0;#P connect 11 0 4 0;#P connect 12 0 11 0;#P connect 10 0 11 0;#P connect 9 1 5 0;#P fasten 4 0 0 0 25 196 58 196;#P connect 5 0 0 0;#P connect 0 0 1 0;#P connect 1 0 2 0;#P connect 9 2 6 0;#P connect 6 0 0 1;#P connect 0 1 1 1;#P connect 7 0 9 0;#P connect 9 0 1 2;#P pop;