max v2;#N vpatcher 54 190 1015 696;#P window setfont "Sans Serif" 9.;#P flonum 93 80 35 9 0 0 0 3 0 0 0 221 221 221 222 222 222 0 0 0;#P window linecount 1;#P newex 22 80 65 196617 t_vol~ 2;#P newex 77 56 300 196617 makeparam $1/invol $1 f 1 0. 2. 1 20;#B color 13;#P newex 100 334 145 196617 t_fxmetersend $1;#B color 4;#P window linecount 2;#P comment 472 294 198 196617 no longer need to send to module_register. happens in build.;#P button 472 133 15 0;#P window linecount 1;#P newex 455 325 133 196617 s $1/spat/init;#B color 11;#P newex 665 92 261 196617 makeswitch $1/sw $1 tape_switchstate;#B color 13;#P newex 665 135 31 196617 == 0;#P newex 665 174 50 196617 thispoly~;#B color 5;#P toggle 665 116 15 0;#P message 665 155 45 196617 mute \$1;#P newex 112 124 287 196617 makeparam $1/fb $1 f 0 0 1 2;#B color 13;#P newex 113 163 281 196617 makeparam $1/del $1 f 0 0 $2 2;#B color 13;#P flonum 73 307 35 9 0 0 0 3 0 0 0 221 221 221 222 222 222 0 0 0;#P newex 22 307 49 196617 t_vol~ 2;#P newex 61 254 391 196617 makeparam $1/vol $1 f 1 0. 2. 1 20;#B color 13;#P window setfont Times 9.;#P window linecount 2;#P message 511 389 135 1310729 \; $1/volrand 0;#P message 270 388 238 1310729 \; $1/volrand 1 0.8 1. 3000 5000 50 100 1 4;#P toggle 31 394 15 0;#P window linecount 1;#P newex 48 393 212 1310729 proc-randtransf0 $1/volrand $1/vol 2;#B color 6;#P window linecount 2;#P message 511 448 130 1310729 \; $1/fbrand 0;#P message 270 448 224 1310729 \; $1/fbrand 1 0.1 0.5 3000 5000 50 100;#P toggle 31 454 15 0;#P window linecount 1;#P newex 48 453 197 1310729 proc-randtransf $1/fbrand $1/fb 2;#B color 6;#P window setfont "Sans Serif" 9.;#P newex 762 389 27 196617 / 2;#P newex 711 432 61 196617 pack 0. 0;#P newex 732 410 21 196617 t 0;#P newex 732 390 27 196617 del;#P newex 711 453 126 196617 s $1/vol;#B color 11;#P newex 711 368 61 196617 unpack 0. 0;#P newex 711 345 136 196617 r $1/wave;#B color 11;#P window setfont Times 9.;#P window linecount 2;#P message 511 418 141 1310729 \; $1/waverand 0;#P message 270 418 230 1310729 \; $1/waverand 1 0.8 1. 6000 10000 50 75;#P toggle 31 421 15 0;#P window linecount 1;#P newex 48 421 219 1310729 proc-randtransf $1/waverand $1/wave 2;#B color 6;#P window linecount 2;#P message 511 358 133 1310729 \; $1/delrand 0;#P message 270 358 236 1310729 \; $1/delrand 1 1154 2308 4000 8000 25 50;#P toggle 31 361 15 0;#P window linecount 1;#P newex 48 361 200 1310729 proc-randtrans $1/delrand $1/del 2;#B color 6;#P newex 786 247 73 1310729 s $1/fb;#B color 11;#P newex 700 247 78 1310729 s $1/vol;#B color 11;#P newex 786 226 41 1310729 r dels/fb;#B color 11;#P newex 700 226 46 1310729 r dels/vol;#B color 11;#P window setfont "Sans Serif" 9.;#P window linecount 2;#P comment 772 151 107 196617 patch by Tom Mays contact@tommays.net;#P comment 114 276 131 196617 arg 1 : module prefix name \; arg 2 : max del time;#P window setfont Times 9.;#P window linecount 1;#N out~ 1;#P newobj 22 334 33 1310729 out~ 1;#N in~ 1;#P newobj 22 28 29 1310729 in~ 1;#P newex 22 48 40 1310729 t_dither;#P window setfont "Sans Serif" 9.;#P newex 22 144 101 196617 t_feedback~ $1;#B color 6;#P window linecount 11;#P message 472 156 160 196617 \; $1/sw/init bang \; $1/delrand 0 \; $1/volrand 0 \; $1/waverand 0 \; $1/fbrand 0 \; $1/del/init bang \; $1/fb/init bang \; $1/invol/init bang \; $1/vol/init bang \; $1/delclear bang \;;#P window linecount 1;#P newex 472 113 148 196617 moduleinit $1;#B color 13;#P newex 22 183 101 196617 t_del~ $1 $2;#B color 6;#P window linecount 2;#P comment 647 226 50 196617 param groupings;#P connect 6 0 5 0;#P connect 5 0 52 0;#P connect 52 0 4 0;#P connect 4 0 1 0;#P connect 1 0 38 0;#P connect 38 0 7 0;#P hidden connect 14 0 15 0;#P hidden connect 33 0 34 0;#P hidden connect 18 0 19 0;#P hidden connect 29 0 30 0;#P connect 37 0 38 1;#P connect 39 0 38 1;#P fasten 1 0 4 1 27 211 416 211 416 118 72 118;#P connect 38 1 39 0;#P connect 53 0 52 1;#P connect 51 0 52 1;#P connect 52 1 53 0;#P fasten 38 0 50 0 27 328 105 328;#P connect 41 0 4 2;#P connect 40 0 1 1;#P fasten 48 0 47 0 477 152 460 152;#P connect 2 0 48 0;#P connect 48 0 3 0;#P connect 46 0 43 0;#P connect 43 0 45 0;#P connect 45 0 42 0;#P connect 42 0 44 0;#P connect 10 0 12 0;#P connect 22 0 23 0;#P connect 23 0 27 0;#P connect 26 0 27 0;#P connect 27 0 24 0;#P connect 28 0 25 0;#P connect 25 0 26 0;#P connect 23 1 28 0;#P connect 28 0 27 1;#P connect 11 0 13 0;#P pop;