max v2;#N vpatcher 533 44 949 344;#P origin 0 -5;#P window setfont Times 9.;#P window linecount 1;#P newex 183 131 56 1310729 speedlim 50;#P window setfont "Sans Serif" 9.;#P comment 15 108 117 196617 bpat bkgnd = 256 X 62;#P comment 15 127 119 196617 bpat editor = 258 X 64;#P newex 183 222 193 196617 variedit $1/vol $1;#B color 11;#P window setfont Times 9.;#P newex 183 242 42 1310729 pvar vol;#P window setfont "Sans Serif" 9.;#P newex 183 169 188 196617 variedit $1/fb $1;#B color 11;#P window setfont Times 9.;#P newex 183 189 37 1310729 pvar fb;#P comment 81 73 82 1310729 arg 1 : prefix name;#P flonum 124 34 32 9 0. 1. 3 20 0 0 0 221 221 221 222 222 222 0 0 0;#P objectname fb;#P flonum 44 34 37 9 0 0 0 20 0 0 0 221 221 221 222 222 222 0 0 0;#P objectname del;#P comment 181 35 24 1310729 /vol;#B frgb 0 0 200;#P comment 106 35 19 1310729 /fb;#B frgb 0 0 200;#P comment 23 35 22 1310729 /del;#B frgb 0 0 200;#P flonum 204 34 30 9 0. 2. 3 20 0 0 0 221 221 221 222 222 222 0 0 0;#P objectname vol;#P window setfont "Sans Serif" 9.;#P newex 183 91 192 196617 variedit $1/del $1;#B color 11;#P window setfont Times 9.;#P newex 183 111 40 1310729 pvar del;#P bpatcher 0 0 256 62 0 0 bkgnd.mxt 0 $1 0 1;#P objectname background;#P fasten 16 0 2 0 188 153 179 153 179 86 188 86;#P connect 2 0 1 0;#P connect 1 0 16 0;#P fasten 10 0 11 0 188 210 178 210 178 164 188 164;#P connect 11 0 10 0;#P fasten 12 0 13 0 188 263 178 263 178 217 188 217;#P connect 13 0 12 0;#P pop;