max v2;#N vpatcher 20 74 328 333;#P window setfont "Sans Serif" 9.;#P window linecount 1;#P newex 38 171 74 196617 onebang;#P newex 38 147 20 196617 t b;#P newex 38 196 114 196617 zl reg;#P newex 38 127 48 196617 zl sub 1.;#P newex 38 106 103 196617 vexpr ($f1-$f2)!=0.;#P newex 57 79 36 196617 zl reg;#P newex 38 46 75 196617 t l l b l b;#P inlet 38 26 15 0;#P outlet 38 217 15 0;#P window setfont "Sans Serif" 18.;#P comment 174 45 100 196626 changelist;#P window setfont "Sans Serif" 9.;#P window linecount 3;#P comment 174 85 100 196617 output list of floats or ints if any element changes.;#P connect 3 0 4 0;#P connect 4 0 6 0;#P connect 6 0 7 0;#P connect 7 0 9 0;#P connect 9 0 10 0;#P connect 10 0 8 0;#P connect 8 0 2 0;#P connect 4 2 5 0;#P connect 4 1 5 1;#P connect 4 4 10 1;#P connect 5 0 6 1;#P fasten 4 3 8 1 91 68 147 68;#P pop;