max v2;#N vpatcher 36 183 598 511;#P window setfont "Sans Serif" 9.;#P window linecount 1;#P newex 158 240 81 196617 onebang;#P message 297 182 58 196617 writeagain;#P newex 260 121 166 196617 sprintf set /tapemovie/%s/editor;#B color 5;#P newex 260 142 44 196617 receive;#B color 11;#P newex 260 163 85 196617 route open write;#P message 260 182 30 196617 open;#P newex 158 264 32 196617 del 5;#P comment 278 234 179 196617 read config coll file from project;#N comlet to coll;#P inlet 209 178 15 0;#N coll $1 1;#P newobj 88 216 117 196617 coll $1 1;#B color 5;#P newex 229 23 48 196617 loadbang;#P message 229 44 218 196617 $1;#P newex 88 73 32 196617 del 1;#P button 88 50 15 0;#P newex 88 101 62 196617 projectpath;#B color 6;#N comlet project path in;#P inlet 88 31 15 0;#P newex 88 184 68 196617 prepend read;#P newex 88 160 51 196617 tosymbol;#P newex 88 134 122 196617 sprintf %sconfig/%s.txt;#B color 5;#N comlet bang when finished reading data file;#P outlet 158 287 15 0;#P connect 4 0 6 0;#P connect 6 0 7 0;#P connect 7 0 5 0;#P connect 5 0 1 0;#P connect 1 0 2 0;#P connect 2 0 3 0;#P connect 14 0 10 0;#P connect 3 0 10 0;#P connect 11 0 10 0;#P connect 18 0 10 0;#P connect 10 2 19 0;#P connect 19 0 13 0;#P connect 13 0 0 0;#P connect 8 0 1 1;#P connect 9 0 8 0;#P fasten 6 0 19 1 93 69 234 69;#P connect 8 0 17 0;#P connect 17 0 16 0;#P connect 16 0 15 0;#P connect 15 0 14 0;#P connect 15 1 18 0;#P pop;