max v2;#N vpatcher 61 363 479 743;#P window setfont "Sans Serif" 9.;#P message 18 54 82 196617 ticks \, time \, date;#P newex 354 243 40 196617 change;#P newex 354 133 40 196617 % 100;#N comlet date-time stamp;#P outlet 18 319 15 0;#N comlet bang to output;#P inlet 18 34 15 0;#P newex 186 155 37 196617 + 100;#P newex 296 243 40 196617 unpack;#P newex 241 243 40 196617 unpack;#P newex 186 243 40 196617 unpack;#P newex 296 155 37 196617 + 100;#P newex 241 155 37 196617 + 100;#P newex 241 219 51 196617 zl slice 1;#P newex 241 198 40 196617 atoi;#P newex 241 176 51 196617 tosymbol;#P newex 296 219 51 196617 zl slice 1;#P newex 296 198 40 196617 atoi;#P newex 296 176 51 196617 tosymbol;#P newex 186 219 51 196617 zl slice 1;#P newex 186 198 40 196617 atoi;#P newex 186 176 51 196617 tosymbol;#P newex 186 133 121 196617 unpack 0 0 0;#P newex 128 243 40 196617 unpack;#P newex 73 243 40 196617 unpack;#P newex 18 243 40 196617 unpack;#P newex 128 156 37 196617 + 100;#P newex 18 113 44 196617 zl rot 1;#P newex 73 156 37 196617 + 100;#P newex 73 219 51 196617 zl slice 1;#P newex 73 198 40 196617 atoi;#P newex 73 176 51 196617 tosymbol;#P newex 128 219 51 196617 zl slice 1;#P newex 128 198 40 196617 atoi;#P newex 128 176 51 196617 tosymbol;#P newex 18 269 346 196617 sprintf %c%c%c%c%c%c-%c%c%c%c%c%c-%ld;#P window linecount 0;#P message 60 318 207 196617;#P window linecount 1;#P newex 60 297 62 196617 prepend set;#P newex 18 219 51 196617 zl slice 2;#P newex 18 198 40 196617 atoi;#P newex 18 176 51 196617 tosymbol;#P newex 18 133 121 196617 unpack 0 0 0;#P newex 18 75 347 196617 date;#P connect 36 0 40 0;#P connect 40 0 0 0;#P connect 0 0 15 0;#P connect 15 0 1 0;#P connect 1 0 2 0;#P connect 2 0 3 0;#P connect 3 0 4 0;#P connect 4 1 17 0;#P connect 17 0 7 0;#P connect 7 0 37 0;#P connect 17 1 7 1;#P connect 7 0 5 0;#P connect 5 0 6 0;#P connect 1 1 14 0;#P connect 14 0 11 0;#P connect 11 0 12 0;#P connect 12 0 13 0;#P connect 13 1 18 0;#P connect 18 0 7 2;#P connect 18 1 7 3;#P connect 1 2 16 0;#P connect 16 0 8 0;#P connect 8 0 9 0;#P connect 9 0 10 0;#P connect 10 1 19 0;#P connect 19 0 7 4;#P connect 19 1 7 5;#P connect 0 1 20 0;#P connect 20 0 35 0;#P connect 35 0 21 0;#P connect 21 0 22 0;#P connect 22 0 23 0;#P connect 23 1 32 0;#P connect 32 0 7 6;#P connect 32 1 7 7;#P connect 20 1 30 0;#P connect 30 0 27 0;#P connect 27 0 28 0;#P connect 28 0 29 0;#P connect 29 1 33 0;#P connect 33 0 7 8;#P connect 33 1 7 9;#P connect 20 2 31 0;#P connect 31 0 24 0;#P connect 24 0 25 0;#P connect 25 0 26 0;#P connect 26 1 34 0;#P connect 34 0 7 10;#P connect 34 1 7 11;#P connect 0 2 38 0;#P connect 38 0 39 0;#P connect 39 0 7 12;#P pop;