max v2;#N vpatcher 61 363 535 775;#N comlet date-time stamp;#P outlet 50 304 15 0;#N comlet bang to output;#P inlet 50 39 15 0;#P window setfont "Sans Serif" 9.;#P newex 221 163 37 196617 + 100;#P newex 331 251 40 196617 unpack;#P newex 276 251 40 196617 unpack;#P newex 221 251 40 196617 unpack;#P newex 331 163 37 196617 + 100;#P newex 276 163 37 196617 + 100;#P newex 276 227 51 196617 zl slice 1;#P newex 276 206 40 196617 atoi;#P newex 276 184 51 196617 tosymbol;#P newex 331 227 51 196617 zl slice 1;#P newex 331 206 40 196617 atoi;#P newex 331 184 51 196617 tosymbol;#P newex 221 227 51 196617 zl slice 1;#P newex 221 206 40 196617 atoi;#P newex 221 184 51 196617 tosymbol;#P newex 221 141 121 196617 unpack 0 0 0;#P newex 160 251 40 196617 unpack;#P newex 105 251 40 196617 unpack;#P newex 50 251 40 196617 unpack;#P newex 160 164 37 196617 + 100;#P newex 50 121 44 196617 zl rot 1;#P newex 105 164 37 196617 + 100;#P newex 105 227 51 196617 zl slice 1;#P newex 105 206 40 196617 atoi;#P newex 105 184 51 196617 tosymbol;#P newex 160 227 51 196617 zl slice 1;#P newex 160 206 40 196617 atoi;#P newex 160 184 51 196617 tosymbol;#P newex 50 277 217 196617 sprintf %c%c%c%c%c%c-%c%c%c%c%c%c;#P message 92 326 96 196617 d091119-t181657;#P newex 92 305 62 196617 prepend set;#P newex 50 227 51 196617 zl slice 2;#P newex 50 206 40 196617 atoi;#P newex 50 184 51 196617 tosymbol;#P newex 50 141 121 196617 unpack 0 0 0;#P message 50 62 56 196617 time \, date;#P newex 50 83 343 196617 date;#P connect 37 0 1 0;#P connect 1 0 0 0;#P connect 0 0 16 0;#P connect 16 0 2 0;#P connect 2 0 3 0;#P connect 3 0 4 0;#P connect 4 0 5 0;#P connect 5 1 18 0;#P connect 18 0 8 0;#P connect 8 0 38 0;#P connect 18 1 8 1;#P connect 19 0 8 2;#P connect 8 0 6 0;#P connect 6 0 7 0;#P connect 19 1 8 3;#P connect 2 1 15 0;#P connect 15 0 12 0;#P connect 12 0 13 0;#P connect 13 0 14 0;#P connect 14 1 19 0;#P connect 20 0 8 4;#P connect 20 1 8 5;#P connect 33 0 8 6;#P connect 2 2 17 0;#P connect 17 0 9 0;#P connect 9 0 10 0;#P connect 10 0 11 0;#P connect 11 1 20 0;#P connect 33 1 8 7;#P connect 34 0 8 8;#P connect 34 1 8 9;#P connect 0 1 21 0;#P connect 21 0 36 0;#P connect 36 0 22 0;#P connect 22 0 23 0;#P connect 23 0 24 0;#P connect 24 1 33 0;#P connect 35 0 8 10;#P connect 35 1 8 11;#P connect 21 1 31 0;#P connect 31 0 28 0;#P connect 28 0 29 0;#P connect 29 0 30 0;#P connect 30 1 34 0;#P connect 21 2 32 0;#P connect 32 0 25 0;#P connect 25 0 26 0;#P connect 26 0 27 0;#P connect 27 1 35 0;#P pop;