max v2;#N vpatcher 827 168 1172 832;#P origin -11 -11;#P window setfont "Sans Serif" 9.;#P window linecount 1;#P newex 285 216 40 196617 itoa;#P newex 98 171 156 196617 t b l l;#P newex 79 199 29 196617 gate;#P newex 244 193 51 196617 zl slice 1;#P newex 259 239 36 196617 zl reg;#P newex 160 595 64 196617 fromsymbol;#P newex 227 376 27 196617 i;#P newex 227 350 76 196617 onebang;#P newex 227 325 61 196617 t b i 2 0;#P newex 6 479 38 196617 gate 2;#P newex 34 79 204 196617 t l l zlclear 1;#N comlet instance number;#P outlet 160 619 15 0;#P newex 116 558 40 196617 itoa;#P newex 75 536 51 196617 zl slice 1;#P newex 34 558 64 196617 fromsymbol;#N comlet without instance;#P outlet 34 580 15 0;#P newex 34 536 40 196617 itoa;#P newex 34 513 83 196617 zl join;#P newex 107 467 27 196617 - 1;#P newex 75 492 42 196617 zl slice;#P newex 171 266 133 196617 t l l b;#P window linecount 2;#P newex 227 288 36 196617 zl sub 47;#P window linecount 1;#P newex 98 127 27 196617 - 1;#N comlet symbol in with format "name.#";#P inlet 34 26 15 0;#P newex 98 104 51 196617 zl sub 46;#P newex 34 149 74 196617 zl slice;#P newex 34 58 40 196617 atoi;#P comment 42 45 282 196617 exclude instance number of a param name or module name;#P connect 17 3 18 0;#P connect 19 2 18 0;#P lcolor 7;#P fasten 4 0 1 0 39 49 39 49;#P connect 1 0 17 0;#P connect 17 0 2 0;#P connect 2 0 18 1;#P connect 18 1 10 0;#P connect 17 2 10 0;#P lcolor 13;#P connect 10 0 11 0;#P connect 18 0 11 0;#P connect 11 0 13 0;#P connect 13 0 12 0;#P connect 7 0 8 0;#P connect 8 0 14 0;#P connect 17 3 25 0;#P fasten 19 3 25 0 283 416 27 416 27 185 84 185;#P lcolor 15;#P connect 17 1 3 0;#P connect 3 0 5 0;#P connect 5 0 2 1;#P connect 2 1 26 0;#P connect 26 0 25 1;#P connect 21 0 9 0;#P connect 9 0 8 1;#P connect 8 1 10 1;#P connect 14 1 15 0;#P connect 15 0 22 0;#P connect 23 0 22 0;#P lcolor 2;#P connect 22 0 16 0;#P connect 26 1 7 0;#P connect 7 1 6 0;#P connect 6 0 19 0;#P connect 19 0 20 0;#P connect 20 0 21 0;#P connect 26 2 24 0;#P connect 19 1 21 1;#P connect 25 0 23 0;#P connect 24 1 27 0;#P connect 27 0 23 1;#P connect 7 2 20 1;#P pop;