max v2;#N vpatcher 99 188 444 402;#P window setfont "Sans Serif" 9.;#P window linecount 2;#P comment 2 24 53 196617 maeesages in;#P window linecount 1;#P newex 58 82 20 196617 t b;#P newex 58 102 27 196617 2;#N comlet any message in;#P inlet 58 24 15 0;#P newex 58 124 119 196617 gate 2;#N comlet first message out;#P outlet 58 148 15 0;#P window linecount 3;#P comment 202 69 112 196617 passes the first message it receives since last reset out left;#P window setfont "Sans Serif" 20.;#P window linecount 1;#P comment 203 32 110 196628 first-thru;#N comlet messages following the first;#P outlet 167 148 15 0;#P window setfont "Sans Serif" 9.;#P window linecount 3;#P comment 202 116 93 196617 passes all but the first message out right outlet;#N comlet bang to reset;#P inlet 88 24 15 0;#P window linecount 1;#P newex 88 102 27 196617 1;#P newex 88 82 20 196617 t b;#P comment 107 26 35 196617 reset;#P message 7 105 23 196617 $1;#P newex 7 84 45 196617 loadbang;#P window linecount 2;#P comment 201 159 111 196617 optional argument to initialize gate position.;#P connect 1 0 2 0;#P connect 13 0 15 0;#P connect 15 0 14 0;#P connect 5 0 12 0;#P connect 14 0 12 0;#P fasten 2 0 12 0 12 122 63 122;#P connect 12 0 11 0;#P connect 6 0 4 0;#P connect 4 0 5 0;#P connect 13 0 12 1;#P connect 12 1 8 0;#P pop;