max v2;#N vpatcher 363 200 879 451;#P window setfont "Sans Serif" 9.;#P window linecount 1;#P newex 18 76 27 196617 + 1;#P number 18 96 35 9 0 0 0 3 0 0 0 221 221 221 222 222 222 0 0 0;#P message 18 58 21 196617 $2;#P newex 18 38 48 196617 loadbang;#P button 59 175 15 0;#P newex 59 194 135 196617 s $1-init;#B color 11;#P button 123 132 15 0;#P button 107 132 15 0;#P button 91 132 15 0;#P button 75 132 15 0;#P newex 59 154 75 196617 switch 4 $2;#P newex 123 91 75 196617 r conduite-init;#B color 11;#P newex 107 73 70 196617 r camtrk-init;#B color 11;#P newex 91 55 65 196617 r movie-init;#B color 11;#P newex 75 37 57 196617 r tape-init;#B color 11;#P window linecount 3;#P comment 232 60 226 196617 arg 1: prefix name \; arg 2: init choice (0=movie \, 1=tape \, 2=camtrk \, 3=conduite);#P connect 12 0 13 0;#P connect 13 0 15 0;#P connect 15 0 14 0;#P connect 14 0 5 0;#P connect 5 0 11 0;#P connect 11 0 10 0;#P connect 1 0 6 0;#P connect 6 0 5 1;#P connect 2 0 7 0;#P connect 7 0 5 2;#P connect 3 0 8 0;#P connect 8 0 5 3;#P connect 4 0 9 0;#P connect 9 0 5 4;#P pop;