max v2;#N vpatcher 85 115 426 400;#P window setfont "Sans Serif" 9.;#P message 221 68 52 196617 $1;#P newex 221 47 48 196617 loadbang;#P window linecount 7;#P comment 190 100 118 196617 round floats to float intervals. i.e. round to 0.5 \, round to 0.2 \, etc. useful for random microintervalic equal temperment transpositions.;#P window linecount 1;#P comment 36 240 85 196617 rounded float out;#P comment 60 33 41 196617 float in;#N comlet rounded float out;#P outlet 20 239 15 0;#N comlet float in;#P inlet 45 33 15 0;#N comlet rounding interval (float);#P inlet 127 33 15 0;#P newex 127 54 44 196617 t f f;#P newex 20 132 49 196617 gate 2;#P newex 59 178 44 196617 rounder;#B color 6;#P newex 59 202 34 196617 * 0.5;#P newex 59 157 33 196617 / 0.5;#P newex 127 94 27 196617 + 1;#P newex 127 74 27 196617 > 0.;#P comment 144 33 118 196617 rounding interval (float);#P connect 2 0 6 0;#P connect 4 0 10 0;#P connect 6 0 10 0;#P fasten 9 0 6 1 50 90 64 90;#P connect 6 1 3 0;#P connect 3 0 5 0;#P connect 5 0 4 0;#P fasten 7 1 3 1 166 154 87 154;#P fasten 7 1 4 1 166 198 88 198;#P connect 8 0 7 0;#P connect 15 0 7 0;#P connect 7 0 1 0;#P connect 1 0 2 0;#P connect 14 0 15 0;#P pop;