max v2;#N vpatcher 210 345 961 542;#P window setfont "Sans Serif" 9.;#P newex 612 79 31 196617 * -1;#P newex 612 59 27 196617 + 3;#P comment 489 40 20 196617 C8;#B frgb 99 99 99;#P comment 493 34 11 196617 ';#B frgb 200 0 0;#P newex 612 99 32 196617 * 49;#P message 612 120 61 196617 offset \$1 0;#P comment 440 40 20 196617 C7;#B frgb 99 99 99;#P comment 444 34 11 196617 ';#B frgb 200 0 0;#N thispatcher;#Q end;#P newobj 612 139 61 196617 thispatcher;#N comlet to thispatcher;#P inlet 612 41 15 0;#N comlet vel;#P inlet 557 60 15 0;#N comlet pitch;#P inlet 27 60 15 0;#N comlet vel;#P outlet 534 60 15 0;#N comlet pitch;#P outlet 4 60 15 0;#P comment 391 40 20 196617 C6;#B frgb 99 99 99;#P comment 395 34 11 196617 ';#B frgb 200 0 0;#P comment 244 40 20 196617 C3;#B frgb 99 99 99;#P comment 293 40 20 196617 C4;#B frgb 99 99 99;#P comment 342 40 20 196617 C5;#B frgb 99 99 99;#P comment 346 34 11 196617 ';#B frgb 200 0 0;#P comment 297 34 11 196617 ';#B frgb 200 0 0;#P comment 248 34 11 196617 ';#B frgb 200 0 0;#P comment 199 34 11 196617 ';#B frgb 200 0 0;#P comment 150 34 11 196617 ';#B frgb 200 0 0;#P comment 101 34 11 196617 ';#B frgb 200 0 0;#P comment 52 34 11 196617 ';#B frgb 200 0 0;#P comment -1 40 25 196617 C-2;#B frgb 99 99 99;#P comment 48 40 25 196617 C-1;#B frgb 99 99 99;#P comment 97 40 20 196617 C0;#B frgb 99 99 99;#P comment 146 40 20 196617 C1;#B frgb 99 99 99;#P user kslider 4 0 35 1 0 132 19 7 0 128 128 128 128 128 128 255 255 255 0 0 0 0 0 0;#P objectname kybd;#P comment 195 40 20 196617 C2;#B frgb 99 99 99;#P comment 3 35 11 196617 ';#B frgb 200 0 0;#P user panel 244 40 19 12;#X brgb 223 223 223;#X frgb 0 0 0;#X border 1;#X rounded 0;#X shadow 0;#X done;#P hidden connect 22 0 3 0;#P hidden connect 3 0 20 0;#P hidden connect 23 0 3 1;#P hidden connect 3 1 21 0;#P connect 24 0 32 0;#P connect 32 0 33 0;#P connect 33 0 29 0;#P connect 29 0 28 0;#P connect 28 0 25 0;#P pop;