max v2;#N vpatcher 20 48 253 412;#P window setfont "Sans Serif" 9.;#P window linecount 1;#P comment 84 299 109 196617 contact@tommays.net;#P comment 84 286 100 196617 patch by Tom Mays;#P newex 22 259 26 196617 t b;#P newex 123 159 62 196617 atoi;#P newex 123 198 62 196617 prepend set;#P newex 22 282 50 196617 zl reg;#P newex 102 62 50 196617 tosymbol;#P newex 22 44 50 196617 tosymbol;#P outlet 22 305 15 0;#P newex 75 22 67 196617 loadmess $1;#P inlet 102 43 15 0;#P inlet 22 25 15 0;#P newex 62 85 50 196617 zl reg;#P newex 22 86 26 196617 atoi;#P newex 62 198 40 196617 itoa;#P newex 22 65 50 196617 t s b;#P newex 22 174 50 196617 zl slice;#P newex 62 106 50 196617 tosymbol;#P newex 62 151 50 196617 zl len;#P newex 62 128 50 196617 atoi;#P newex 22 234 121 196617 match;#P connect 9 0 13 0;#P connect 13 0 5 0;#P connect 5 0 7 0;#P connect 7 0 4 0;#P fasten 16 0 0 0 128 224 27 224;#P connect 4 0 0 0;#P connect 0 0 18 0;#P connect 18 0 15 0;#P connect 15 0 12 0;#P connect 5 1 8 0;#P connect 8 0 3 0;#P connect 3 0 1 0;#P connect 1 0 2 0;#P connect 2 0 4 1;#P connect 4 1 6 0;#P connect 6 0 15 1;#P connect 10 0 14 0;#P fasten 11 0 8 1 80 82 107 82;#P connect 14 0 8 1;#P fasten 11 0 17 0 80 82 128 82;#P fasten 14 0 17 0 107 82 128 82;#P connect 17 0 16 0;#P pop;