max v2;#N vpatcher 410 125 771 326;#P inlet 45 29 15 0;#P window setfont "Sans Serif" 9.;#P window linecount 1;#P newex 45 55 199 196617 sprintf set $1;#P outlet 45 139 15 0;#P newex 45 111 44 196617 receive;#P window linecount 4;#P comment 127 90 164 196617 receivepvar \; receive poly variable \; use sprintf syntaxe for argument \; ex. /filt/%ld/freq;#P connect 4 0 3 0;#P connect 3 0 1 0;#P connect 1 0 2 0;#P pop;