max v2;#N vpatcher 40 55 214 298;#N comlet float in;#P inlet 72 34 15 0;#N comlet int out;#P outlet 36 194 15 0;#P window setfont "Sans Serif" 9.;#P window linecount 1;#P newex 72 144 31 196617 - 0.5;#P newex 72 57 27 196617 t f f;#P newex 89 97 27 196617 + 1;#P newex 36 122 46 196617 gate 2;#P newex 89 77 27 196617 < 0.;#P newex 36 172 18 196617 t i;#P newex 36 144 32 196617 + 0.5;#P connect 4 0 3 0;#P connect 3 0 0 0;#P fasten 6 0 1 0 77 166 41 166;#P connect 0 0 1 0;#P connect 1 0 7 0;#P connect 8 0 5 0;#P connect 5 0 3 1;#P connect 3 1 6 0;#P connect 5 1 2 0;#P connect 2 0 4 0;#P pop;