max v2;#N vpatcher 271 233 509 437;#P window setfont "Sans Serif" 9.;#P window linecount 1;#P newex 25 14 158 196617 loadmess $1;#P inlet 45 36 15 0;#P outlet 45 154 15 0;#P newex 45 108 62 196617 prepend set;#P newex 105 83 74 196617 t $1;#P newex 45 84 42 196617 t bogus;#P newex 45 57 130 196617 sel 0 1;#P newex 45 131 50 196617 r;#P connect 6 0 1 0;#P connect 1 0 2 0;#P fasten 7 0 4 0 30 105 50 105;#P fasten 3 0 4 0 110 104 50 104;#P connect 2 0 4 0;#P connect 4 0 0 0;#P connect 0 0 5 0;#P connect 1 1 3 0;#P pop;