max v2;#N vpatcher 40 104 384 298;#P window setfont "Sans Serif" 9.;#P window linecount 1;#P message 29 54 80 196617 $1;#P newex 29 74 81 196617 sprintf set /%s;#P newex 29 34 48 196617 loadbang;#P newex 29 96 44 196617 receive;#N coll $1 1;#P newobj 29 132 270 196617 coll $1 1;#B color 5;#P connect 2 0 4 0;#P connect 4 0 3 0;#P connect 3 0 1 0;#P connect 1 0 0 0;#P pop;