max v2;#N vpatcher 40 55 373 303;#P window setfont Times 9.;#P window linecount 1;#P newex 171 61 129 1310729 s $1-showbusy;#B color 11;#P window setfont "Sans Serif" 9.;#P newex 171 41 21 196617 t 0;#P newex 171 22 45 196617 loadbang;#N comlet from poly outlet;#P inlet 27 151 15 0;#N comlet to poly left;#P outlet 27 120 15 0;#P message 27 97 97 196617 busymap $3;#P newex 27 70 85 196617 metro $2;#P toggle 27 49 15 0;#P window setfont Times 9.;#P newex 27 174 129 1310729 s $1_busy;#B color 11;#P newex 27 27 129 1310729 r $1-showbusy;#B color 11;#P window linecount 4;#P comment 164 129 100 1310729 showbusy \; for use with poly~ abstractions and busy abstraction.;#P window setfont "Sans Serif" 9.;#P window linecount 3;#P comment 144 86 162 196617 arg 1 : prefix name \; arg 2 : metro speed \; arg 3 : poly outlet to report busy \;;#P connect 2 0 4 0;#P connect 4 0 5 0;#P connect 5 0 6 0;#P connect 6 0 7 0;#P connect 8 0 3 0;#P connect 9 0 10 0;#P connect 10 0 11 0;#P pop;