max v2;#N vpatcher 59 47 307 321;#N comlet int out;#P outlet 29 207 15 0;#P window setfont "Sans Serif" 9.;#P window linecount 1;#P message 145 34 46 196617 /adc.10;#P message 102 34 40 196617 /adc.4;#P message 59 34 40 196617 /adc.1;#N comlet symbol in with format "name.#";#P inlet 29 34 15 0;#P newex 29 159 64 196617 fromsymbol;#P newex 29 139 40 196617 itoa;#P newex 39 89 51 196617 zl sub 46;#P newex 29 116 51 196617 zl slice 4;#P newex 29 66 40 196617 atoi;#P window linecount 3;#P comment 110 90 91 196617 strip (isolate) number occurring after the ".";#P connect 9 0 1 0;#P connect 8 0 1 0;#P connect 7 0 1 0;#P connect 6 0 1 0;#P connect 1 0 2 0;#P fasten 2 1 4 0 75 136 34 136;#P connect 4 0 5 0;#P connect 5 0 10 0;#P connect 1 0 3 0;#P fasten 3 0 2 1 44 110 75 110;#P pop;