max v2;#N vpatcher 18 593 1201 808;#P origin -4 -11;#P window setfont Times 9.;#P window linecount 8;#P comment 207 94 243 1310729 arg 1 : activeparams prefix name (i.e. activeparams) \; arg 2 : switch coll name 1(i.e. switchstate) \; arg 3 : switch coll name 2 (i.e. switchstate) \; arg 4 : switch coll name 3 (i.e. switchstate) \; arg 5 : switch coll name 4 (i.e. switchstate) \; arg 6 : switch coll name 4 (i.e. switchstate) \; arg 7 : matrix prefix name \; arg 8 : coll matrix name \;;#P user hint 104 37 135 52 "Read previously stored snapshot from disc." 1000 100 0 65535 65535 52428 9 3 0 1 0 0 0;#P user hint 74 37 105 52 "Write current snapshot to disk file." 1000 100 0 65535 65535 52428 9 3 0 1 0 0 0;#P user hint 134 19 165 34 "Take snapshot then Open edit window to copy messages." 1000 100 0 65535 65535 52428 9 3 0 1 0 0 0;#P user hint 104 19 135 34 "Recall snapshot (reloads temp file and resends paramerters)" 1000 100 0 65535 65535 52428 9 3 0 1 0 0 0;#P user hint 74 19 105 34 "Take snapshot (stored to #1-temp.txt file)" 1000 100 0 65535 65535 52428 9 3 0 1 0 0 0;#P window linecount 1;#P comment 2 38 75 1310729 snapshot archive;#B frgb 0 0 200;#P comment 11 20 66 1310729 snapshot temp;#B frgb 0 0 200;#P message 74 19 31 1310729 Store;#B color 2;#P objectname storeactive;#P message 134 19 31 1310729 Open;#B color 9;#P objectname openactive;#P message 104 19 31 1310729 Recall;#B color 7;#P objectname recallactive;#P message 104 37 31 1310729 Read;#B color 12;#P objectname recallarchive;#P message 74 37 31 1310729 Write;#B color 13;#P objectname writearchive;#P window setfont Times 14.;#P comment 2 2 83 1310734 $1;#P window setfont "Sans Serif" 9.;#P newex 236 66 859 196617 tm_storeactivepath $1 $2 $3 $4 $5 $6 $7 $8 $9;#B color 6;#P window setfont Times 9.;#P newex 392 23 69 1310729 pvar openactive;#P newex 470 23 74 1310729 pvar writearchive;#P newex 236 23 69 1310729 pvar storeactive;#P window setfont "Sans Serif" 9.;#P comment 32 111 109 196617 contact@tommays.net;#P comment 32 98 100 196617 patch by Tom Mays;#P window setfont Times 9.;#P newex 548 23 75 1310729 pvar recallarchive;#P newex 314 23 71 1310729 pvar recallactive;#P user panel 0 0 172 56;#X brgb 235 235 235;#X frgb 128 128 128;#X border 1;#X rounded 4;#X shadow 2;#X done;#P background;#P connect 5 0 8 0;#P connect 1 0 8 1;#P connect 7 0 8 2;#P connect 6 0 8 3;#P connect 2 0 8 4;#P pop;