max v2;#N vpatcher 40 55 215 246;#P outlet 28 131 15 0;#P inlet 28 35 15 0;#P window setfont "Sans Serif" 9.;#P window linecount 1;#P newex 28 101 33 196617 + $1;#P newex 28 81 29 196617 == 0;#P newex 28 61 32 196617 - $1;#P window linecount 2;#P comment 70 64 80 196617 toggle between $1 and $1 + 1;#P connect 4 0 1 0;#P connect 1 0 2 0;#P connect 2 0 3 0;#P connect 3 0 5 0;#P pop;