max v2;#N vpatcher 58 303 1237 606;#P user multiSlider 98 6 180 10 0. 127. 1 2936 47 0 0 2 0 0 1;#M frgb 255 255 255;#M brgb 0 0 0;#M rgb2 127 127 127;#M rgb3 0 0 0;#M rgb4 37 52 91;#M rgb5 74 105 182;#M rgb6 112 158 18;#M rgb7 149 211 110;#M rgb8 187 9 201;#M rgb9 224 62 37;#M rgb10 7 114 128;#P noclick;#P objectname onleveld;#P user multiSlider 98 46 180 10 0. 127. 1 2936 47 0 0 2 0 0 1;#M frgb 0 0 0;#M brgb 255 255 255;#M rgb2 127 127 127;#M rgb3 0 0 0;#M rgb4 37 52 91;#M rgb5 74 105 182;#M rgb6 112 158 18;#M rgb7 149 211 110;#M rgb8 187 9 201;#M rgb9 224 62 37;#M rgb10 7 114 128;#P noclick;#P objectname offleveld;#P user multiSlider 98 16 180 30 0. 127. 1 3448 15 0 0 2 0 0 1;#M frgb 0 0 0;#M brgb 255 255 255;#M rgb2 127 127 127;#M rgb3 0 0 0;#M rgb4 37 52 91;#M rgb5 74 105 182;#M rgb6 112 158 18;#M rgb7 149 211 110;#M rgb8 187 9 201;#M rgb9 224 62 37;#M rgb10 7 114 128;#P noclick;#P objectname levelin;#P window setfont "Sans Serif" 9.;#P comment 135 198 88 196617 bpat = 512 X 186;#P window setfont Times 9.;#P newex 1020 62 115 1310729 r $1/ampdispsw;#B color 11;#P newex 877 60 111 1310729 r $1/sigdispsw;#B color 11;#P newex 877 166 111 1310729 scalecurv -127 0 0 127 0.2;#B color 6;#P newex 1020 190 55 1310729 pvar ampout;#P newex 877 190 54 1310729 pvar levelin;#P newex 1020 98 55 1310729 pvar ampvis;#P newex 877 98 51 1310729 pvar sigvis;#P newex 877 144 27 1310729 gate;#P newex 1020 144 27 1310729 gate;#P newex 1037 120 106 1310729 r $1/ampout;#B color 11;#P newex 894 120 115 1310729 r $1/levelindB;#B color 11;#P newex 647 157 111 1310729 scalecurv -127 0 0 127 0.2;#B color 6;#P newex 647 138 58 1310729 r $1/offlevel;#B color 11;#P newex 576 176 61 1310729 pvar offleveld;#P newex 647 176 58 1310729 prepend set 1;#P newex 647 68 111 1310729 scalecurv -127 0 0 127 0.2;#B color 6;#P newex 647 49 57 1310729 r $1/onlevel;#B color 11;#P number 28 42 32 9 1 9999 3 20 0 0 0 221 221 221 222 222 222 0 0 0;#P objectname offtime;#P number 28 6 32 9 1 9999 3 20 0 0 0 221 221 221 222 222 222 0 0 0;#P objectname ontime;#P flonum 278 42 32 9 -127. 0. 35 20 0 0 0 221 221 221 222 222 222 0 0 0;#P objectname offlevel;#P flonum 278 6 32 9 -127. 0. 35 20 0 0 0 221 221 221 222 222 222 0 0 0;#P objectname onlevel;#P newex 576 87 60 1310729 pvar onleveld;#P newex 576 233 55 1310729 pvar offtime;#P newex 647 233 167 1310729 variedit $1/offtime $1;#B color 4;#P newex 576 208 54 1310729 pvar ontime;#P newex 647 208 163 1310729 variedit $1/ontime $1;#B color 4;#P newex 647 87 58 1310729 prepend set 1;#P newex 576 116 55 1310729 pvar offlevel;#P newex 576 25 55 1310729 pvar onlevel;#P newex 647 116 175 1310729 variedit $1/offlevel $1;#B color 4;#P newex 647 25 174 1310729 variedit $1/onlevel $1;#B color 4;#P toggle 427 26 15 0;#P objectname ampvis;#P toggle 360 26 15 0;#P objectname sigvis;#P user multiSlider 278 26 70 10 0. 1. 1 2936 15 0 0 2 0 0 1;#M frgb 0 0 0;#M brgb 255 255 255;#M rgb2 127 127 127;#M rgb3 0 0 0;#M rgb4 37 52 91;#M rgb5 74 105 182;#M rgb6 112 158 18;#M rgb7 149 211 110;#M rgb8 187 9 201;#M rgb9 224 62 37;#M rgb10 7 114 128;#P noclick;#P objectname ampout;#P comment 60 42 38 1310729 /offtime;#B frgb 0 0 200;#P comment 60 6 35 1310729 /ontime;#B frgb 0 0 200;#P comment 310 43 40 1310729 /offlevel;#B frgb 0 0 200;#P comment 310 7 39 1310729 /onlevel;#B frgb 0 0 200;#P comment 375 26 51 1310729 /sigdispsw;#P comment 442 26 55 1310729 /ampdispsw;#P comment 942 231 82 1310729 arg 1 : prefix name \;;#P bpatcher 0 0 512 62 0 0 bkgnd12.mxt 0 $1 0 1;#P bpatcher 0 61 512 124 0 0 multimapsendu.edit.mxt 0 $1 /tape;#P connect 12 0 14 0;#P connect 16 0 21 0;#P connect 13 0 15 0;#P connect 28 0 29 0;#P connect 17 0 18 0;#P connect 19 0 20 0;#P connect 14 0 12 0;#P connect 26 0 27 0;#P connect 27 0 16 0;#P connect 15 0 13 0;#P connect 30 0 31 0;#P connect 31 0 28 0;#P connect 18 0 17 0;#P connect 20 0 19 0;#P connect 41 0 36 0;#P connect 36 0 35 0;#P connect 35 0 40 0;#P connect 40 0 38 0;#P connect 32 0 35 1;#P connect 42 0 37 0;#P connect 37 0 34 0;#P connect 34 0 39 0;#P connect 33 0 34 1;#P pop;