max v2;#N vpatcher 276 69 630 350;#P window setfont "Sans Serif" 9.;#P newex 91 156 119 196617 receive~ $1/in~;#B color 4;#P comment 26 19 287 196617 arg 1 : module prefix name;#P number 21 138 35 9 0 0 0 3 0 0 0 221 221 221 222 222 222 0 0 0;#P newex 21 117 27 196617 + 1;#P newex 21 156 47 196617 gate~ 2;#P inlet 58 59 15 0;#P outlet 21 222 15 0;#P newex 58 191 243 196617 poly~ t_ngate_ 1 args $1;#B color 6;#P toggle 90 79 15 0;#P newex 90 59 111 196617 r $1/sw;#B color 11;#P connect 1 0 6 0;#P connect 6 0 7 0;#P connect 7 0 5 0;#P connect 2 0 3 0;#P connect 5 0 3 0;#P connect 4 0 5 1;#P connect 5 1 2 0;#P connect 9 0 2 0;#P connect 0 0 1 0;#P pop;