max v2;#N vpatcher 894 251 1174 708;#P window setfont "Sans Serif" 9.;#P window linecount 1;#P newex 1054 99 215 196617 tm_editorbuilder /midicc /tapemovie 3 2 4;#B color 6;#P button 1067 72 15 0;#P comment 1085 72 39 196617 delete;#P button 1054 51 15 0;#P comment 1071 51 31 196617 build;#N thispatcher;#Q end;#P newobj 1054 121 61 196617 thispatcher;#P window linecount 0;#P comment 2376 0 100 196617;#P comment 1 0 100 196617;#P connect 4 0 7 0;#P connect 7 0 2 0;#P fasten 6 0 7 1 1072 93 1161 93;#P fasten 2 0 7 2 1059 143 1286 143 1286 95 1263 95;#P pop;