max v2;#N vpatcher 0 44 1160 586;#P origin 66 118;#P window setfont "Sans Serif" 9.;#P message 949 307 53 196617 enable \$1;#P newex 949 284 94 196617 t 1 l;#P message 820 297 14 196617 0;#P message 820 319 53 196617 enable \$1;#P newex 820 259 139 196617 route <none>;#P newex 820 237 322 196617 makeparam $1/out/interface $1 m <none>;#B color 13;#P newex 595 371 275 196617 makeparam $1/out/bend $1 i 0 0 127 1;#B color 13;#P newex 686 417 44 196617 bendout;#P window setfont "Sans Serif" 18.;#P comment 225 499 43 196626 INIT;#P comment 633 172 76 196626 Bend IN;#P window setfont "Sans Serif" 9.;#P newex 289 372 49 196617 zl rot -1;#P newex 289 392 75 196617 unpack 0 0;#P newex 289 311 265 196617 makeparam $1/out/ctllist $1 l @initlist 0 0;#B color 13;#P newex 419 343 330 196617 makeparam $1/out/channel $1 i 1 1 16;#B color 12;#P newex 289 416 140 196617 ctlout 1;#P newex 75 87 239 196617 s $1/out/interface_list;#B color 12;#P newex 75 63 46 196617 midiinfo;#B color 5;#P window linecount 2;#P message 4 492 135 196617 \; control_register/store $1 \;;#P window linecount 1;#P newex 285 243 49 196617 zl rot -1;#P newex 285 221 42 196617 pack i i;#P newex 285 265 179 196617 s $1/in/ctllist;#B color 12;#P window setfont "Sans Serif" 14.;#N vpatcher 14 44 360 896;#P origin 0 -474;#P window setfont Monaco 10.;#P newex 11 1 300 262154 multimapsend $1/cc.1/map $1 /common;#P newex 11 21 300 262154 multimapsend $1/cc.2/map $1 /common;#P newex 11 41 300 262154 multimapsend $1/cc.3/map $1 /common;#P newex 11 61 300 262154 multimapsend $1/cc.4/map $1 /common;#P newex 11 81 300 262154 multimapsend $1/cc.5/map $1 /common;#P newex 11 101 300 262154 multimapsend $1/cc.6/map $1 /common;#P newex 11 121 300 262154 multimapsend $1/cc.7/map $1 /common;#P newex 11 141 300 262154 multimapsend $1/cc.8/map $1 /common;#P newex 11 161 300 262154 multimapsend $1/cc.9/map $1 /common;#P newex 11 181 300 262154 multimapsend $1/cc.10/map $1 /common;#P newex 11 201 300 262154 multimapsend $1/cc.11/map $1 /common;#P newex 11 221 300 262154 multimapsend $1/cc.12/map $1 /common;#P newex 11 241 300 262154 multimapsend $1/cc.13/map $1 /common;#P newex 11 261 300 262154 multimapsend $1/cc.14/map $1 /common;#P newex 11 281 300 262154 multimapsend $1/cc.15/map $1 /common;#P newex 11 301 300 262154 multimapsend $1/cc.16/map $1 /common;#P newex 11 321 300 262154 multimapsend $1/cc.17/map $1 /common;#P newex 11 341 300 262154 multimapsend $1/cc.18/map $1 /common;#P newex 11 361 300 262154 multimapsend $1/cc.19/map $1 /common;#P newex 11 381 300 262154 multimapsend $1/cc.20/map $1 /common;#P newex 11 401 300 262154 multimapsend $1/cc.21/map $1 /common;#P newex 11 421 300 262154 multimapsend $1/cc.22/map $1 /common;#P newex 11 441 300 262154 multimapsend $1/cc.23/map $1 /common;#P newex 11 461 300 262154 multimapsend $1/cc.24/map $1 /common;#P newex 11 481 300 262154 multimapsend $1/cc.25/map $1 /common;#P newex 11 501 300 262154 multimapsend $1/cc.26/map $1 /common;#P newex 11 521 300 262154 multimapsend $1/cc.27/map $1 /common;#P newex 11 541 300 262154 multimapsend $1/cc.28/map $1 /common;#P newex 11 561 300 262154 multimapsend $1/cc.29/map $1 /common;#P newex 11 581 300 262154 multimapsend $1/cc.30/map $1 /common;#P newex 11 601 300 262154 multimapsend $1/cc.31/map $1 /common;#P newex 11 621 300 262154 multimapsend $1/cc.32/map $1 /common;#P newex 11 641 300 262154 multimapsend $1/cc.33/map $1 /common;#P newex 11 661 300 262154 multimapsend $1/cc.34/map $1 /common;#P newex 11 681 300 262154 multimapsend $1/cc.35/map $1 /common;#P newex 11 701 300 262154 multimapsend $1/cc.36/map $1 /common;#P newex 11 721 300 262154 multimapsend $1/cc.37/map $1 /common;#P newex 11 741 300 262154 multimapsend $1/cc.38/map $1 /common;#P newex 11 761 300 262154 multimapsend $1/cc.39/map $1 /common;#P newex 11 781 300 262154 multimapsend $1/cc.40/map $1 /common;#P newex 11 801 300 262154 multimapsend $1/cc.41/map $1 /common;#P newex 11 821 300 262154 multimapsend $1/cc.42/map $1 /common;#P newex 11 841 300 262154 multimapsend $1/cc.43/map $1 /common;#P newex 11 861 300 262154 multimapsend $1/cc.44/map $1 /common;#P newex 11 881 300 262154 multimapsend $1/cc.45/map $1 /common;#P newex 11 901 300 262154 multimapsend $1/cc.46/map $1 /common;#P newex 11 921 300 262154 multimapsend $1/cc.47/map $1 /common;#P newex 11 941 300 262154 multimapsend $1/cc.48/map $1 /common;#P newex 11 961 300 262154 multimapsend $1/cc.49/map $1 /common;#P newex 11 981 300 262154 multimapsend $1/cc.50/map $1 /common;#P newex 11 1001 300 262154 multimapsend $1/cc.51/map $1 /common;#P newex 11 1021 300 262154 multimapsend $1/cc.52/map $1 /common;#P newex 11 1041 300 262154 multimapsend $1/cc.53/map $1 /common;#P newex 11 1061 300 262154 multimapsend $1/cc.54/map $1 /common;#P newex 11 1081 300 262154 multimapsend $1/cc.55/map $1 /common;#P newex 11 1101 300 262154 multimapsend $1/cc.56/map $1 /common;#P newex 11 1121 300 262154 multimapsend $1/cc.57/map $1 /common;#P newex 11 1141 300 262154 multimapsend $1/cc.58/map $1 /common;#P newex 11 1161 300 262154 multimapsend $1/cc.59/map $1 /common;#P newex 11 1181 300 262154 multimapsend $1/cc.60/map $1 /common;#P newex 11 1201 300 262154 multimapsend $1/cc.61/map $1 /common;#P newex 11 1221 300 262154 multimapsend $1/cc.62/map $1 /common;#P newex 11 1241 300 262154 multimapsend $1/cc.63/map $1 /common;#P newex 11 1261 300 262154 multimapsend $1/cc.64/map $1 /common;#P newex 11 1281 300 262154 multimapsend $1/cc.65/map $1 /common;#P newex 11 1301 300 262154 multimapsend $1/cc.66/map $1 /common;#P newex 11 1321 300 262154 multimapsend $1/cc.67/map $1 /common;#P newex 11 1341 300 262154 multimapsend $1/cc.68/map $1 /common;#P newex 11 1361 300 262154 multimapsend $1/cc.69/map $1 /common;#P newex 11 1381 300 262154 multimapsend $1/cc.70/map $1 /common;#P newex 11 1401 300 262154 multimapsend $1/cc.71/map $1 /common;#P newex 11 1421 300 262154 multimapsend $1/cc.72/map $1 /common;#P newex 11 1441 300 262154 multimapsend $1/cc.73/map $1 /common;#P newex 11 1461 300 262154 multimapsend $1/cc.74/map $1 /common;#P newex 11 1481 300 262154 multimapsend $1/cc.75/map $1 /common;#P newex 11 1501 300 262154 multimapsend $1/cc.76/map $1 /common;#P newex 11 1521 300 262154 multimapsend $1/cc.77/map $1 /common;#P newex 11 1541 300 262154 multimapsend $1/cc.78/map $1 /common;#P newex 11 1561 300 262154 multimapsend $1/cc.79/map $1 /common;#P newex 11 1581 300 262154 multimapsend $1/cc.80/map $1 /common;#P newex 11 1601 300 262154 multimapsend $1/cc.81/map $1 /common;#P newex 11 1621 300 262154 multimapsend $1/cc.82/map $1 /common;#P newex 11 1641 300 262154 multimapsend $1/cc.83/map $1 /common;#P newex 11 1661 300 262154 multimapsend $1/cc.84/map $1 /common;#P newex 11 1681 300 262154 multimapsend $1/cc.85/map $1 /common;#P newex 11 1701 300 262154 multimapsend $1/cc.86/map $1 /common;#P newex 11 1721 300 262154 multimapsend $1/cc.87/map $1 /common;#P newex 11 1741 300 262154 multimapsend $1/cc.88/map $1 /common;#P newex 11 1761 300 262154 multimapsend $1/cc.89/map $1 /common;#P newex 11 1781 300 262154 multimapsend $1/cc.90/map $1 /common;#P newex 11 1801 300 262154 multimapsend $1/cc.91/map $1 /common;#P newex 11 1821 300 262154 multimapsend $1/cc.92/map $1 /common;#P newex 11 1841 300 262154 multimapsend $1/cc.93/map $1 /common;#P newex 11 1861 300 262154 multimapsend $1/cc.94/map $1 /common;#P newex 11 1881 300 262154 multimapsend $1/cc.95/map $1 /common;#P newex 11 1901 300 262154 multimapsend $1/cc.96/map $1 /common;#P newex 11 1921 300 262154 multimapsend $1/cc.97/map $1 /common;#P newex 11 1941 300 262154 multimapsend $1/cc.98/map $1 /common;#P newex 11 1961 300 262154 multimapsend $1/cc.99/map $1 /common;#P newex 11 1981 300 262154 multimapsend $1/cc.100/map $1 /common;#P newex 11 2001 300 262154 multimapsend $1/cc.101/map $1 /common;#P newex 11 2021 300 262154 multimapsend $1/cc.102/map $1 /common;#P newex 11 2041 300 262154 multimapsend $1/cc.103/map $1 /common;#P newex 11 2061 300 262154 multimapsend $1/cc.104/map $1 /common;#P newex 11 2081 300 262154 multimapsend $1/cc.105/map $1 /common;#P newex 11 2101 300 262154 multimapsend $1/cc.106/map $1 /common;#P newex 11 2121 300 262154 multimapsend $1/cc.107/map $1 /common;#P newex 11 2141 300 262154 multimapsend $1/cc.108/map $1 /common;#P newex 11 2161 300 262154 multimapsend $1/cc.109/map $1 /common;#P newex 11 2181 300 262154 multimapsend $1/cc.110/map $1 /common;#P newex 11 2201 300 262154 multimapsend $1/cc.111/map $1 /common;#P newex 11 2221 300 262154 multimapsend $1/cc.112/map $1 /common;#P newex 11 2241 300 262154 multimapsend $1/cc.113/map $1 /common;#P newex 11 2261 300 262154 multimapsend $1/cc.114/map $1 /common;#P newex 11 2281 300 262154 multimapsend $1/cc.115/map $1 /common;#P newex 11 2301 300 262154 multimapsend $1/cc.116/map $1 /common;#P newex 11 2321 300 262154 multimapsend $1/cc.117/map $1 /common;#P newex 11 2341 300 262154 multimapsend $1/cc.118/map $1 /common;#P newex 11 2361 300 262154 multimapsend $1/cc.119/map $1 /common;#P newex 11 2381 300 262154 multimapsend $1/cc.120/map $1 /common;#P newex 11 2401 300 262154 multimapsend $1/cc.121/map $1 /common;#P newex 11 2421 300 262154 multimapsend $1/cc.122/map $1 /common;#P newex 11 2441 300 262154 multimapsend $1/cc.123/map $1 /common;#P newex 11 2461 300 262154 multimapsend $1/cc.124/map $1 /common;#P newex 11 2481 300 262154 multimapsend $1/cc.125/map $1 /common;#P newex 11 2501 300 262154 multimapsend $1/cc.126/map $1 /common;#P newex 11 2521 300 262154 multimapsend $1/cc.127/map $1 /common;#P pop;#P newobj 810 447 91 196622 p multimaps;#B color 6;#P window setfont "Sans Serif" 18.;#P comment 338 241 96 196626 Control IN;#P comment 511 31 245 196626 Input type & enable switch;#P comment 8 12 258 196626 Available inputs and outputs;#P window setfont "Sans Serif" 9.;#P message 461 83 53 196617 enable \$1;#P newex 461 60 94 196617 t 1 l;#P message 332 107 14 196617 0;#P newex 332 225 47 196617 forward;#P newex 347 201 212 196617 sprintf send $1/cc.%ld/map/in;#P newex 332 159 40 196617 ctlin;#P window setfont "Sans Serif" 14.;#N vpatcher 92 386 846 801;#P window setfont "Sans Serif" 9.;#P window linecount 1;#P newex 66 148 44 196617 uzi 127;#B color 11;#P newex 117 243 165 196617 sprintf send $1/cc.%ld/editinit;#B color 11;#P newex 100 266 182 196617 forward;#B color 11;#P newex 100 193 27 196617 t b i;#B color 11;#P message 597 173 52 196617 /common;#P window setfont "Sans Serif" 14.;#P comment 32 363 339 196622 INIT ALL THE MULTIMAPSEND LOADED BY POLYS;#P window setfont "Sans Serif" 9.;#P newex 419 48 105 196617 r /makeparam/reset;#B color 11;#P inlet 11 32 15 0;#P window linecount 0;#P message 480 236 33 196617 clear;#P newex 323 122 44 196617 uzi 127;#B color 11;#P newex 357 141 114 196617 sprintf $1/cc.%ld;#B color 11;#P newex 11 227 44 196617 uzi 127;#B color 11;#P newex 62 322 165 196617 sprintf send $1/cc.%ld/map/init;#B color 11;#P newex 45 345 182 196617 forward;#B color 11;#P newex 45 272 27 196617 t b i;#B color 11;#P newex 569 214 38 196617 zl join;#P newex 11 59 322 196617 b 2;#P toggle 294 207 15 0;#P newex 323 165 38 196617 zl join;#P newex 480 162 38 196617 zl join;#P newex 523 193 38 196617 zl join;#P message 569 194 52 196617;#P message 523 135 37 196617 0 127;#P message 480 135 23 196617 i 0;#N coll $1/controls 1;#P newobj 457 296 94 196617 coll $1/controls 1;#B color 5;#P newex 323 245 51 196617 zl slice 2;#P newex 295 225 38 196617 gate 2;#P newex 367 224 21 196617 t 1;#P newex 337 224 21 196617 t 2;#P newex 337 204 40 196617 route l;#P newex 337 184 60 196617 loadmess 0;#P newex 419 70 48 196617 t b clear;#P newex 323 91 106 196617 onebang 1;#P newex 323 270 70 196617 prepend store;#P window setfont "Sans Serif" 14.;#P comment 371 318 357 196622 REGISTRATE MAKECONTROLS INTO CONTROLS COLL;#P connect 27 0 18 0;#P connect 34 1 23 0;#P connect 23 2 20 0;#P connect 22 0 21 0;#P connect 20 0 21 0;#P connect 20 1 22 0;#P connect 18 0 34 0;#P connect 34 2 31 0;#P connect 33 0 32 0;#P connect 31 0 32 0;#P connect 31 1 33 0;#P connect 7 0 17 0;#P connect 6 0 17 0;#P connect 17 0 8 0;#P connect 18 1 2 0;#P connect 2 0 25 0;#P connect 24 0 16 0;#P connect 16 0 8 1;#P connect 8 1 9 0;#P fasten 8 0 1 0 300 267 328 267;#P connect 9 0 1 0;#P connect 4 0 5 0;#P connect 5 0 6 0;#P connect 15 0 16 1;#P connect 25 2 24 0;#P connect 5 1 7 0;#P connect 28 0 3 0;#P connect 3 0 2 1;#P connect 26 0 10 0;#P fasten 1 0 10 0 328 291 462 291;#P connect 3 1 10 0;#P fasten 2 0 11 0 328 116 485 116;#P connect 11 0 15 0;#P connect 14 0 15 1;#P fasten 2 0 12 0 328 113 528 113;#P connect 12 0 14 0;#P connect 19 0 14 1;#P fasten 2 0 13 0 328 118 574 118;#P connect 13 0 19 0;#P pop;#P newobj 60 465 164 196622 p initializ multmapsend;#B color 6;#P window setfont "Sans Serif" 9.;#P newex 4 178 122 196617 b 3;#P newex 588 219 211 196617 s $1/in/bend;#B color 12;#P window setfont "Sans Serif" 14.;#P window linecount 2;#P comment 827 181 214 196622 TODO : router le channel que l'on souhaite dans tous les IN;#B frgb 103 0 0;#P window setfont "Sans Serif" 9.;#P window linecount 1;#P message 332 129 53 196617 enable \$1;#P newex 588 176 38 196617 bendin;#P newex 815 161 185 196617 makeparam $1/in/channel $1 i 1 1 16;#B color 12;#P newex 332 35 139 196617 route <none>;#P newex 332 13 322 196617 makeparam $1/in/interface $1 m <none>;#B color 13;#P window linecount 11;#P message 116 201 159 196617 \; $1/sw/init bang \; $1/update bang \; $1/in/interface/init bang \; $1/in/channel/init bang \; $1/in/ctllist/print/init bang \; $1/in/bend/print/init bang \; $1/out/interface/init bang \; $1/out/channel/init bang \; $1/out/ctllist/init bang \; $1/out/bend/init bang \;;#P window linecount 1;#P newex 4 158 240 196617 moduleinit $1;#B color 13;#P newex 9 111 233 196617 s $1/in/interface_list;#B color 12;#P newex 348 107 303 196617 makeswitch $1/sw $1 common_switchstate 0;#B color 13;#P message 9 63 60 196617 controllers;#P newex 9 38 187 196617 r $1/update;#B color 12;#P newex 9 87 46 196617 midiinfo;#B color 5;#P window setfont "Sans Serif" 18.;#P window linecount 2;#P comment 282 446 521 196626 Makecontrols are not in the patch. Only multimapsend ----> <-----------Unique process to declare all the makecontrols;#P user panel 810 152 250 75;#X brgb 255 255 255;#X frgb 0 0 0;#X border 1;#X rounded 0;#X shadow 0;#X done;#P window setfont "Sans Serif" 9.;#P window linecount 1;#P newex 828 69 184 196617 r $1/in/bend;#B color 12;#P newex 794 31 218 196617 r $1/in/ctllist;#B color 12;#P newex 809 50 327 196617 makeparam $1/in/bend/print $1 t 0;#B color 12;#P newex 809 89 29 196617 gate;#P newex 809 109 247 196617 print $1/in/bend;#B color 5;#P newex 775 13 319 196617 makeparam $1/in/ctllist/print $1 t 0;#B color 12;#P newex 775 89 29 196617 gate;#P newex 775 128 239 196617 print $1/in/ctllist;#B color 5;#P user panel 0 8 323 141;#X brgb 255 255 255;#X frgb 0 0 0;#X border 1;#X rounded 0;#X shadow 0;#X done;#P user panel 326 8 436 141;#X brgb 255 255 255;#X frgb 0 0 0;#X border 1;#X rounded 0;#X shadow 0;#X done;#P user panel 279 152 293 142;#X brgb 255 255 255;#X frgb 0 0 0;#X border 1;#X rounded 0;#X shadow 0;#X done;#P user panel 581 152 226 142;#X brgb 255 255 255;#X frgb 0 0 0;#X border 1;#X rounded 0;#X shadow 0;#X done;#P user panel 766 8 373 141;#X brgb 255 255 255;#X frgb 0 0 0;#X border 1;#X rounded 0;#X shadow 0;#X done;#P user panel 1 150 276 377;#X brgb 255 255 255;#X frgb 0 0 0;#X border 1;#X rounded 0;#X shadow 0;#X done;#P window setfont "Sans Serif" 18.;#P comment 582 410 96 196626 Bend OUT;#P comment 455 411 116 196626 Control OUT;#P user panel 279 299 293 142;#X brgb 255 255 255;#X frgb 0 0 0;#X border 1;#X rounded 0;#X shadow 0;#X done;#P user panel 581 299 226 142;#X brgb 255 255 255;#X frgb 0 0 0;#X border 1;#X rounded 0;#X shadow 0;#X done;#P connect 25 0 34 0;#P connect 34 0 49 0;#P fasten 21 0 22 0 14 59 14 59;#P connect 22 0 20 0;#P connect 20 0 24 0;#P connect 34 1 35 0;#P fasten 21 0 50 0 14 59 80 59;#P connect 50 0 51 0;#P connect 34 2 26 0;#P connect 36 0 47 0;#P lcolor 2;#P connect 47 0 48 0;#P connect 48 0 46 0;#P connect 54 0 56 0;#P connect 56 0 55 0;#P connect 66 0 52 0;#P connect 65 1 52 0;#P connect 63 0 52 0;#P connect 55 0 52 0;#P connect 36 1 47 1;#P lcolor 8;#P connect 27 0 28 0;#P connect 28 0 39 0;#P connect 23 0 31 0;#P connect 39 0 31 0;#P connect 31 0 36 0;#P lcolor 5;#P connect 41 0 36 0;#P lcolor 12;#P connect 40 1 36 0;#P lcolor 2;#P connect 37 0 38 0;#P connect 36 0 38 0;#P lcolor 2;#P connect 36 1 37 0;#P lcolor 8;#P connect 55 1 52 1;#P connect 53 0 52 2;#P connect 28 1 40 0;#P connect 40 0 41 0;#P connect 31 0 30 0;#P lcolor 5;#P connect 40 1 30 0;#P lcolor 2;#P connect 41 0 30 0;#P lcolor 12;#P connect 30 0 33 0;#P connect 66 0 59 0;#P connect 65 1 59 0;#P connect 63 0 59 0;#P connect 60 0 59 0;#P connect 53 0 59 1;#P connect 12 0 11 0;#P connect 11 0 10 0;#P connect 16 0 11 1;#P connect 15 0 14 0;#P connect 14 0 13 0;#P connect 61 0 62 0;#P connect 62 0 64 0;#P connect 64 0 63 0;#P connect 17 0 14 1;#P connect 62 1 65 0;#P connect 65 0 66 0;#P pop;