max v2;#N vpatcher 318 55 1316 611;#P origin 0 35;#P window setfont "Sans Serif" 9.;#P window linecount 1;#P comment 620 91 166 196617 for param collection as sub module;#P newex 609 75 283 196617 makesubswitch- $1/sw $1 $4 0;#B color 13;#P window setfont Times 9.;#P newex 609 50 134 1310729 s $1/sw;#B color 11;#P newex 609 29 134 1310729 r $4/sw;#B color 11;#P window setfont "Sans Serif" 12.;#P newex 70 473 237 196620 t_posxytoazdist $1;#B color 6;#P window setfont Times 9.;#P newex 710 225 132 1310729 r $1/center;#B color 11;#P newex 710 200 134 1310729 r $1/height;#B color 11;#P window setfont "Sans Serif" 9.;#P newex 21 22 276 196617 makesubparam $1/crcfrq $1 $4 f 0 0 0 2;#B color 13;#P newex 539 109 274 196617 makesubparam $1/grain $1 $4 i $2 5 500;#B color 13;#P newex 207 72 316 196617 makesubparam $1/out $1 $4 f -127 -127 18 1 $2;#B color 13;#P window setfont Times 9.;#P newex 207 93 95 1310729 expr pow(10\\\,($f1/20));#P window setfont "Sans Serif" 9.;#P newex 169 116 298 196617 makesubparam $1/pres $1 $4 f 1 0 1 1 $2;#B color 13;#P newex 58 186 310 196617 makesubparam $1/dist $1 $4 f 1 -1.42 1.42 1 $2;#B color 13;#P newex 21 209 287 196617 makesubparam $1/az $1 $4 f 0 0 0 1 $2;#B color 13;#P window linecount 2;#P comment 522 503 107 196617 patch by Tom Mays contact@tommays.net;#P window setfont Times 9.;#P message 70 396 191 1310729 \; $1/azrand 1 0 360 1000 3000 50 100;#P toggle 52 371 15 0;#P window setfont "Sans Serif" 9.;#P window linecount 1;#P newex 70 371 138 196617 t_spat-azrand $1;#B color 6;#P window setfont Times 9.;#P window linecount 2;#P message 70 426 97 1310729 \; $1/azrand 0;#P window setfont Times 24.;#P window linecount 3;#P comment 445 338 372 1310744 mspat4ctlrsub is mspat4ctlr when used as a sub module (makesubparam instead of makeparam);#N comlet transition time in ms;#P outlet 337 321 15 0;#N comlet rev;#P outlet 201 321 15 0;#P window setfont "Sans Serif" 9.;#P window linecount 1;#P comment 201 336 24 196617 rev;#N comlet BR;#P outlet 81 321 15 0;#N comlet BL;#P outlet 61 321 15 0;#N comlet FR;#P outlet 41 321 15 0;#N comlet FL;#P outlet 21 321 15 0;#P comment 81 336 18 196617 BR;#P comment 60 336 18 196617 BL;#P comment 39 336 18 196617 FR;#P comment 18 336 18 196617 FL;#P window setfont Times 9.;#P flonum 207 231 35 9 0 0 0 20 0 0 0 221 221 221 222 222 222 0 0 0;#P newex 580 132 23 1310729 t 50;#P newex 580 153 127 1310729 s $1/grain;#B color 11;#P newex 539 130 32 1310729 sel 0;#P number 337 303 38 9 0 0 0 20 0 0 0 221 221 221 222 222 222 0 0 0;#P window linecount 2;#P comment 356 319 45 1310729 transition time in ms;#P flonum 58 231 35 9 0 0 0 20 0 0 0 221 221 221 222 222 222 0 0 0;#P flonum 21 231 35 9 0 0 0 20 0 0 0 221 221 221 222 222 222 0 0 0;#P flonum 169 231 35 9 0 0 0 20 0 0 0 221 221 221 222 222 222 0 0 0;#P number 539 153 30 9 0 0 0 20 0 0 0 221 221 221 222 222 222 0 0 0;#P window linecount 1;#P newex 21 287 198 1310729 t_mspat4ctl $3;#B color 5;#P window setfont Times 12.;#P newex 21 47 183 1310732 poly~ t_spatrot_ 1 args $1;#B color 5;#P window setfont Times 9.;#P window linecount 8;#P message 511 222 142 1310729 \; $1/az/init bang \; $1/dist/init bang \; $1/crcfrq/init bang \; $1/pres/init bang \; $1/out/init bang \; $1/grain/init bang \; $1/azrand 0 \;;#P window linecount 1;#P newex 511 191 136 1310729 r $1/spat/init;#B color 11;#P window linecount 4;#P comment 444 421 287 1310729 arg 1 : module name (ie. pan1) \; arg 2 : min grain time (ex. 50) \; arg 3 : azimuth offset in degrees (default = 0 \, which places 0 deg in front) \; arg 4 : parent module name \;;#P window setfont "Sans Serif" 9.;#P window linecount 1;#P comment 444 478 248 196617 mpan4 ctl with receives \, to connect to local matrix~;#P window setfont Times 9.;#P comment 303 94 63 1310729 dB output level;#P window setfont "Sans Serif" 9.;#P window linecount 3;#P comment 558 30 52 196617 for editor switch indicator;#P connect 41 0 6 0;#P connect 6 0 35 0;#P connect 35 0 10 0;#P connect 10 0 7 0;#P connect 7 0 22 0;#P connect 7 1 23 0;#P connect 31 0 32 0;#P connect 36 0 11 0;#P connect 7 2 24 0;#P connect 7 3 25 0;#P connect 11 0 7 1;#P connect 9 0 7 2;#P connect 37 0 9 0;#P connect 7 4 27 0;#P connect 39 0 38 0;#P connect 38 0 17 0;#P connect 17 0 7 3;#P connect 8 0 35 1;#P lcolor 1;#P connect 35 1 13 0;#P connect 39 1 13 0;#P connect 37 1 13 0;#P connect 36 1 13 0;#P connect 13 0 28 0;#P connect 8 0 36 1;#P lcolor 1;#P connect 8 0 37 1;#P lcolor 1;#P connect 4 0 5 0;#P connect 8 0 39 1;#P lcolor 1;#P connect 40 0 14 0;#P connect 14 1 8 0;#P connect 14 0 16 0;#P connect 16 0 15 0;#P connect 45 0 46 0;#P pop;