max v2;#N vpatcher 200 44 748 314;#P window setfont "Sans Serif" 9.;#P window linecount 1;#N vpatcher 40 104 319 331;#P outlet 50 160 15 0;#P inlet 50 28 15 0;#P window setfont "Sans Serif" 9.;#P newex 50 134 63 196617 zl join;#P newex 50 114 40 196617 itoa;#P newex 50 91 51 196617 zl slice 1;#P newex 50 71 40 196617 atoi;#P newex 50 50 63 196617 zl slice 1;#P connect 5 0 0 0;#P connect 0 0 1 0;#P connect 1 0 2 0;#P fasten 2 1 3 0 96 111 55 111;#P connect 3 0 4 0;#P connect 4 0 6 0;#P connect 0 1 4 1;#P pop;#P newobj 192 74 120 196617 p remove slash first arg;#P window setfont Times 9.;#P window linecount 0;#P message 192 56 228 1310729;#P window linecount 1;#P newex 437 66 53 1310729 prepend set;#P window linecount 2;#P comment 42 166 294 1310729 patcher args \; connections: symbol list for input name \, output names and reverb name. \;;#P window linecount 1;#P newex 437 46 78 1310729 route connections;#P newex 393 26 54 1310729 patcherargs;#P newex 192 31 115 1310729 r $1/spat/init;#B color 11;#P newex 42 95 160 1310729 t_tocentralmatrix4 $4;#B color 5;#P window setfont "Sans Serif" 18.;#P comment 42 213 101 196626 mspat441;#P window setfont "Sans Serif" 9.;#P comment 42 196 135 196617 mspat441 to central matrix;#P window setfont Times 9.;#P newex 42 31 135 1310729 t_mspat4ctlr $1 $2 $3;#B color 5;#P window linecount 4;#P comment 42 117 294 1310729 arg 1 : module name (ie. pan1) \; arg 2 : min grain time (ex. 50) \; arg 3 : azimuth offset in degrees (default = 0 \, which places 0 deg in front) \; arg 4 : matrix name (ex. mtrx) \;;#P window setfont "Sans Serif" 9.;#P window linecount 2;#P comment 209 209 107 196617 patch by Tom Mays contact@tommays.net;#P connect 2 0 5 0;#P connect 2 1 5 1;#P connect 2 2 5 2;#P connect 2 3 5 3;#P connect 2 4 5 4;#P connect 2 5 5 5;#P fasten 10 0 11 0 442 90 428 90 428 52 197 52;#P connect 6 0 11 0;#P connect 11 0 12 0;#P connect 12 0 5 6;#P connect 7 1 8 0;#P connect 8 0 10 0;#P pop;