max v2;#N vpatcher 508 71 874 446;#P origin 0 -24;#P window setfont "Sans Serif" 9.;#P window linecount 1;#P comment 227 264 101 196617 no output level input;#N comlet rev;#P outlet 258 226 15 0;#P comment 274 202 24 196617 rev;#P window setfont Times 9.;#P flonum 258 188 50 9 0 0 0 20 0 0 0 221 221 221 222 222 222 0 0 0;#N comlet BR;#P outlet 198 226 15 0;#N comlet BL;#P outlet 138 226 15 0;#N comlet FR;#P outlet 78 226 15 0;#N comlet FL;#P outlet 18 226 15 0;#P window setfont "Sans Serif" 9.;#P comment 214 202 18 196617 BR;#P comment 153 202 18 196617 BL;#P comment 92 202 18 196617 FR;#P comment 31 202 18 196617 FL;#P window setfont Times 9.;#P flonum 78 188 50 9 0 0 0 20 0 0 0 221 221 221 222 222 222 0 0 0;#P flonum 18 188 50 9 0 0 0 20 0 0 0 221 221 221 222 222 222 0 0 0;#P flonum 138 188 50 9 0 0 0 20 0 0 0 221 221 221 222 222 222 0 0 0;#P flonum 198 188 50 9 0 0 0 20 0 0 0 221 221 221 222 222 222 0 0 0;#P window setfont "Sans Serif" 9.;#P window linecount 2;#P comment 97 319 107 196617 patch by Tom Mays contact@tommays.net;#P window setfont Times 24.;#P window linecount 1;#P comment 88 257 127 1310744 mspat4ctl-;#P window setfont "Sans Serif" 9.;#P comment 48 288 213 196617 arg 1 : azimuth ofset in degrees (default = 0);#P window setfont Times 9.;#P comment 214 23 43 1310729 presence;#N comlet presence;#P inlet 198 23 15 0;#P flonum 198 48 35 9 0. 1. 3 20 0 0 0 221 221 221 222 222 222 0 0 0;#P comment 33 23 16 1310729 az;#N comlet az;#P inlet 18 23 15 0;#P comment 143 23 22 1310729 dist;#N comlet dist;#P inlet 127 23 15 0;#N vpatcher 41 54 483 272;#P window setfont Times 9.;#P newex 347 62 16 1310729 t f;#P inlet 347 43 15 0;#P outlet 182 162 15 0;#P newex 182 105 45 1310729 bondo 2 1;#P inlet 182 43 15 0;#P newex 182 130 45 1310729 * 0.;#P outlet 132 162 15 0;#P newex 132 105 45 1310729 bondo 2 1;#P inlet 132 43 15 0;#P newex 132 130 45 1310729 * 0.;#P outlet 82 162 15 0;#P newex 82 105 45 1310729 bondo 2 1;#P inlet 82 43 15 0;#P newex 82 130 45 1310729 * 0.;#P outlet 32 162 15 0;#P newex 32 105 45 1310729 bondo 2 1;#P inlet 32 43 15 0;#P newex 32 130 45 1310729 * 0.;#P connect 1 0 2 0;#P connect 2 0 0 0;#P connect 0 0 3 0;#P connect 17 0 2 1;#P connect 2 1 0 1;#P connect 5 0 6 0;#P connect 6 0 4 0;#P connect 4 0 7 0;#P connect 17 0 6 1;#P connect 6 1 4 1;#P connect 9 0 10 0;#P connect 10 0 8 0;#P connect 8 0 11 0;#P connect 17 0 10 1;#P connect 10 1 8 1;#P connect 13 0 14 0;#P connect 14 0 12 0;#P connect 12 0 15 0;#P connect 17 0 14 1;#P connect 14 1 12 1;#P connect 16 0 17 0;#P pop;#P newobj 18 156 154 1310729 p vol;#B color 6;#P flonum 198 119 35 9 0 0 0 20 0 0 0 221 221 221 222 222 222 0 0 0;#P newex 198 72 70 1310729 t_presence;#B color 6;#P flonum 18 48 35 9 0 0 0 20 0 0 0 221 221 221 222 222 222 0 0 0;#P flonum 127 48 35 9 0 0 0 20 0 0 0 221 221 221 222 222 222 0 0 0;#P newex 18 98 119 1310729 t_azdisttoxy $1;#B color 6;#P newex 18 121 119 1310729 t_xyto4c;#B color 6;#P connect 9 0 3 0;#P connect 3 0 1 0;#P connect 1 0 0 0;#P connect 0 0 6 0;#P connect 6 0 19 0;#P connect 19 0 25 0;#P connect 0 1 6 1;#P connect 6 1 20 0;#P connect 20 0 26 0;#P connect 0 2 6 2;#P connect 0 3 6 3;#P connect 7 0 2 0;#P connect 2 0 1 1;#P connect 1 1 0 1;#P connect 6 2 18 0;#P connect 18 0 27 0;#P connect 5 0 6 4;#P connect 12 0 11 0;#P connect 11 0 4 0;#P connect 4 0 5 0;#P connect 6 3 17 0;#P connect 17 0 28 0;#P connect 4 1 29 0;#P connect 29 0 31 0;#P pop;