max v2;#N vpatcher 283 259 1183 818;#P window setfont "Sans Serif" 12.;#P window linecount 1;#P newex 288 41 237 196620 t_posxytoazdist $1/R;#B color 6;#P window setfont Times 9.;#P newex 690 270 132 1310729 r $1/R/center;#B color 11;#P newex 690 245 134 1310729 r $1/R/height;#B color 11;#P flonum 169 245 35 9 0 0 0 20 0 0 0 221 221 221 222 222 222 0 0 0;#P window setfont "Sans Serif" 9.;#P newex 21 36 225 196617 makeparam $1/R/crcfrq $1 f 0 0 0 2;#B color 13;#P newex 550 105 228 196617 makeparam $1/R/grain $1 i $2 5 500;#B color 13;#P newex 206 86 266 196617 makeparam $1/R/out $1 f -127 -127 18 1 $2;#B color 13;#P window setfont Times 9.;#P newex 206 107 95 1310729 expr pow(10\\\,($f1/20));#P window setfont "Sans Serif" 9.;#P newex 58 200 244 196617 makeparam $1/R/dist $1 f 1.42 -1.42 1.42 1 $2;#B color 13;#P newex 21 223 221 196617 makeparam $1/R/az $1 f -45 0 0 1 $2;#B color 13;#P window linecount 2;#P comment 522 485 107 196617 patch by Tom Mays contact@tommays.net;#P window setfont Times 9.;#P message 70 410 205 1310729 \; $1/R/azrand 1 0 360 1000 3000 50 100;#P toggle 52 385 15 0;#P window setfont "Sans Serif" 9.;#P window linecount 1;#P newex 70 385 144 196617 t_spat-azrand $1/R;#B color 6;#P window setfont Times 9.;#P window linecount 2;#P message 70 440 108 1310729 \; $1/R/azrand 0;#P window setfont Times 24.;#P window linecount 1;#P comment 524 363 135 1310744 mspat4ctlrR;#N comlet transition time in ms;#P outlet 337 335 15 0;#N comlet rev;#P outlet 201 335 15 0;#P window setfont "Sans Serif" 9.;#P comment 201 350 24 196617 rev;#N comlet BR;#P outlet 81 335 15 0;#N comlet BL;#P outlet 61 335 15 0;#N comlet FR;#P outlet 41 335 15 0;#N comlet FL;#P outlet 21 335 15 0;#P comment 181 350 14 196617 C;#P comment 81 350 18 196617 BR;#P comment 60 350 18 196617 BL;#P comment 39 350 18 196617 FR;#P comment 18 350 18 196617 FL;#P window setfont Times 9.;#P flonum 206 245 35 9 0 0 0 20 0 0 0 221 221 221 222 222 222 0 0 0;#P newex 591 128 23 1310729 t 50;#P newex 591 149 103 1310729 s $1/R/grain;#B color 11;#P newex 550 126 32 1310729 sel 0;#P number 337 317 38 9 0 0 0 20 0 0 0 221 221 221 222 222 222 0 0 0;#P window linecount 2;#P comment 356 333 45 1310729 transition time in ms;#P flonum 58 245 35 9 0 0 0 20 0 0 0 221 221 221 222 222 222 0 0 0;#P flonum 21 245 35 9 0 0 0 20 0 0 0 221 221 221 222 222 222 0 0 0;#P number 550 149 30 9 0 0 0 20 0 0 0 221 221 221 222 222 222 0 0 0;#P window linecount 1;#P newex 21 301 75 1310729 t_mspat4ctl 0 $3;#B color 5;#P window setfont Times 12.;#P newex 21 61 198 1310732 poly~ t_spatrot_ 1 args $1/R;#B color 5;#P window setfont Times 9.;#P window linecount 8;#P message 511 236 139 1310729 \; $1/R/az/init bang \; $1/R/dist/init bang \; $1/R/crcfrq/init bang \; $1/R/pres/init bang \; $1/R/out/init bang \; $1/R/grain/init bang \; $1/R/azrand 0 \;;#P window linecount 1;#P newex 511 205 115 1310729 r $1/R/spat/init;#B color 11;#P window linecount 3;#P comment 444 413 287 1310729 arg 1 : module name (ie. pan1) \; arg 2 : min grain time (ex. 50) \; arg 3 : azimuth offset in degrees (default = 0 \, which places 0 deg in front) \;;#P window setfont "Sans Serif" 9.;#P window linecount 1;#P comment 444 460 248 196617 mpan4 ctl with receives \, to connect to local matrix~;#P window setfont Times 9.;#P comment 302 108 63 1310729 dB output level;#P window setfont "Sans Serif" 9.;#P newex 169 130 232 196617 makeparam $1/R/pres $1 f 1 0 1 1 $2;#B color 13;#P connect 40 0 6 0;#P connect 6 0 35 0;#P connect 35 0 9 0;#P connect 9 0 7 0;#P connect 7 0 22 0;#P connect 7 1 23 0;#P connect 10 0 7 1;#P connect 31 0 32 0;#P connect 36 0 10 0;#P connect 7 2 24 0;#P connect 41 0 7 2;#P connect 7 3 25 0;#P connect 16 0 7 3;#P connect 0 0 41 0;#P connect 7 4 27 0;#P connect 38 0 37 0;#P connect 37 0 16 0;#P connect 8 0 35 1;#P lcolor 1;#P connect 8 0 36 1;#P lcolor 1;#P connect 35 1 12 0;#P connect 0 1 12 0;#P connect 38 1 12 0;#P connect 36 1 12 0;#P connect 12 0 28 0;#P connect 8 0 0 1;#P lcolor 1;#P connect 8 0 38 1;#P lcolor 1;#P connect 4 0 5 0;#P connect 39 0 13 0;#P connect 13 1 8 0;#P connect 13 0 15 0;#P connect 15 0 14 0;#P pop;