max v2;#N vpatcher 482 52 1394 564;#P origin 0 35;#P window setfont "Sans Serif" 12.;#P newex 329 17 237 196620 t_posxytoazdist $1;#B color 6;#P window setfont Times 9.;#P newex 709 214 132 1310729 r $1/center;#B color 11;#P newex 709 189 134 1310729 r $1/height;#B color 11;#P window setfont "Sans Serif" 9.;#P newex 20 11 276 196617 makeparam $1/crcfrq $1 f 0 0 0 2;#B color 13;#P newex 549 80 294 196617 makeparam $1/grain $1 i $2 5 500;#B color 13;#P newex 206 61 316 196617 makeparam $1/out $1 f -127 -127 18 1 $2;#B color 13;#P window setfont Times 9.;#P newex 206 82 95 1310729 expr pow(10\\\,($f1/20));#P window setfont "Sans Serif" 9.;#P newex 168 105 298 196617 makeparam $1/pres $1 f 1 0 1 1 $2;#B color 13;#P newex 57 175 310 196617 makeparam $1/dist $1 f 1 -1.42 1.42 1 $2;#B color 13;#P newex 20 198 287 196617 makeparam $1/az $1 f 0 0 0 1 $2;#B color 13;#P window linecount 2;#P comment 521 482 107 196617 patch by Tom Mays contact@tommays.net;#P window setfont Times 9.;#P message 69 385 191 1310729 \; $1/azrand 1 0 360 1000 3000 50 100;#P toggle 51 360 15 0;#P window setfont "Sans Serif" 9.;#P window linecount 1;#P newex 69 360 138 196617 t_spat-azrand $1;#B color 6;#P window setfont Times 9.;#P window linecount 2;#P message 69 415 97 1310729 \; $1/azrand 0;#P window setfont Times 24.;#P window linecount 1;#P comment 523 338 135 1310744 mspat4ctlr;#N comlet transition time in ms;#P outlet 336 310 15 0;#N comlet rev;#P outlet 200 310 15 0;#P window setfont "Sans Serif" 9.;#P comment 200 325 24 196617 rev;#N comlet BR;#P outlet 80 310 15 0;#N comlet BL;#P outlet 60 310 15 0;#N comlet FR;#P outlet 40 310 15 0;#N comlet FL;#P outlet 20 310 15 0;#P comment 80 325 18 196617 BR;#P comment 59 325 18 196617 BL;#P comment 38 325 18 196617 FR;#P comment 17 325 18 196617 FL;#P window setfont Times 9.;#P flonum 206 220 35 9 0 0 0 20 0 0 0 221 221 221 222 222 222 0 0 0;#P newex 590 103 23 1310729 t 50;#P newex 590 124 127 1310729 s $1/grain;#B color 11;#P newex 549 101 32 1310729 sel 0;#P number 336 292 38 9 0 0 0 20 0 0 0 221 221 221 222 222 222 0 0 0;#P window linecount 2;#P comment 355 308 45 1310729 transition time in ms;#P flonum 57 220 35 9 0 0 0 20 0 0 0 221 221 221 222 222 222 0 0 0;#P flonum 20 220 35 9 0 0 0 20 0 0 0 221 221 221 222 222 222 0 0 0;#P flonum 168 220 35 9 0 0 0 20 0 0 0 221 221 221 222 222 222 0 0 0;#P number 549 124 30 9 0 0 0 20 0 0 0 221 221 221 222 222 222 0 0 0;#P window linecount 1;#P newex 20 276 198 1310729 t_mspat4ctl $3;#B color 5;#P window setfont Times 12.;#P newex 20 36 183 1310732 poly~ t_spatrot_ 1 args $1;#B color 5;#P window setfont Times 9.;#P window linecount 8;#P message 510 211 142 1310729 \; $1/az/init bang \; $1/dist/init bang \; $1/crcfrq/init bang \; $1/pres/init bang \; $1/out/init bang \; $1/grain/init bang \; $1/azrand 0 \;;#P window linecount 1;#P newex 510 180 136 1310729 r $1/spat/init;#B color 11;#P window linecount 3;#P comment 443 410 287 1310729 arg 1 : module name (ie. pan1) \; arg 2 : min grain time (ex. 50) \; arg 3 : azimuth offset in degrees (default = 0 \, which places 0 deg in front) \;;#P window setfont "Sans Serif" 9.;#P window linecount 1;#P comment 443 457 248 196617 mpan4 ctl with receives \, to connect to local matrix~;#P window setfont Times 9.;#P comment 302 83 63 1310729 dB output level;#P connect 40 0 5 0;#P connect 5 0 34 0;#P connect 34 0 9 0;#P connect 9 0 6 0;#P connect 6 0 21 0;#P connect 6 1 22 0;#P connect 30 0 31 0;#P connect 35 0 10 0;#P connect 6 2 23 0;#P connect 6 3 24 0;#P connect 10 0 6 1;#P connect 8 0 6 2;#P connect 36 0 8 0;#P connect 6 4 26 0;#P connect 38 0 37 0;#P connect 37 0 16 0;#P connect 16 0 6 3;#P connect 7 0 34 1;#P lcolor 1;#P connect 34 1 12 0;#P connect 35 1 12 0;#P connect 38 1 12 0;#P connect 36 1 12 0;#P connect 12 0 27 0;#P connect 7 0 35 1;#P lcolor 1;#P connect 7 0 36 1;#P lcolor 1;#P connect 3 0 4 0;#P connect 7 0 38 1;#P lcolor 1;#P connect 39 0 13 0;#P connect 13 1 7 0;#P connect 13 0 15 0;#P connect 15 0 14 0;#P pop;