max v2;#N vpatcher 597 112 981 524;#P origin 0 -24;#N comlet rev;#P outlet 258 257 15 0;#P window setfont "Sans Serif" 9.;#P comment 274 233 24 196617 rev;#P window setfont Times 9.;#P flonum 258 219 50 9 0 0 0 20 0 0 0 221 221 221 222 222 222 0 0 0;#N comlet BR;#P outlet 198 257 15 0;#N comlet BL;#P outlet 138 257 15 0;#N comlet FR;#P outlet 78 257 15 0;#N vpatcher 55 348 574 584;#P outlet 323 187 15 0;#P inlet 323 43 15 0;#P window setfont Times 9.;#P window linecount 1;#P newex 323 155 45 1310729 * 0.;#P window linecount 0;#P newex 358 56 114 1310729 t b f;#N comlet ctl;#P inlet 358 31 15 0;#P outlet 182 187 15 0;#P inlet 182 43 15 0;#P newex 182 155 45 1310729 * 0.;#P outlet 132 187 15 0;#P inlet 132 43 15 0;#P newex 132 155 45 1310729 * 0.;#P outlet 82 187 15 0;#P inlet 82 43 15 0;#P newex 82 155 45 1310729 * 0.;#P outlet 32 187 15 0;#P inlet 32 43 15 0;#P newex 32 155 45 1310729 * 0.;#P connect 13 0 0 0;#P lcolor 7;#P connect 1 0 0 0;#P connect 0 0 2 0;#P connect 13 1 0 1;#P lcolor 4;#P connect 13 0 3 0;#P lcolor 7;#P connect 4 0 3 0;#P connect 3 0 5 0;#P connect 13 1 3 1;#P lcolor 4;#P connect 13 0 6 0;#P lcolor 7;#P connect 7 0 6 0;#P connect 6 0 8 0;#P connect 13 1 6 1;#P lcolor 4;#P connect 13 0 9 0;#P lcolor 7;#P connect 10 0 9 0;#P connect 9 0 11 0;#P connect 13 1 9 1;#P lcolor 4;#P connect 13 0 14 0;#P lcolor 7;#P connect 15 0 14 0;#P connect 14 0 16 0;#P connect 12 0 13 0;#P connect 13 1 14 1;#P lcolor 4;#P pop;#P newobj 18 193 250 1310729 p level;#B color 6;#N comlet FL;#P outlet 18 257 15 0;#P window setfont "Sans Serif" 9.;#P comment 214 233 18 196617 BR;#P comment 153 233 18 196617 BL;#P comment 92 233 18 196617 FR;#P comment 31 233 18 196617 FL;#P window setfont Times 9.;#P flonum 78 219 50 9 0 0 0 20 0 0 0 221 221 221 222 222 222 0 0 0;#P flonum 18 219 50 9 0 0 0 20 0 0 0 221 221 221 222 222 222 0 0 0;#P flonum 138 219 50 9 0 0 0 20 0 0 0 221 221 221 222 222 222 0 0 0;#P flonum 198 219 50 9 0 0 0 20 0 0 0 221 221 221 222 222 222 0 0 0;#P window setfont "Sans Serif" 9.;#P window linecount 2;#P comment 93 349 107 196617 patch by Tom Mays contact@tommays.net;#P window setfont Times 24.;#P window linecount 1;#P comment 88 288 127 1310744 mspat4ctl;#P window setfont "Sans Serif" 9.;#P comment 47 324 213 196617 arg 1 : azimuth ofset in degrees (default = 0);#P window setfont Times 9.;#P comment 274 23 67 1310729 output level;#N comlet linear output level (amp);#P inlet 258 23 15 0;#P flonum 258 48 38 9 0 0 0 20 0 0 0 221 221 221 222 222 222 0 0 0;#P comment 214 23 43 1310729 presence;#N comlet presence;#P inlet 198 23 15 0;#P flonum 198 48 35 9 0. 1. 3 20 0 0 0 221 221 221 222 222 222 0 0 0;#P comment 33 23 16 1310729 az;#N comlet az;#P inlet 18 23 15 0;#P comment 143 23 22 1310729 dist;#N comlet dist;#P inlet 127 23 15 0;#N vpatcher 41 54 483 272;#P window setfont Times 9.;#P newex 265 46 92 1310729 t b f;#P inlet 265 27 15 0;#P outlet 182 162 15 0;#P inlet 182 43 15 0;#P newex 182 130 45 1310729 * 0.;#P outlet 132 162 15 0;#P inlet 132 43 15 0;#P newex 132 130 45 1310729 * 0.;#P outlet 82 162 15 0;#P inlet 82 43 15 0;#P newex 82 130 45 1310729 * 0.;#P outlet 32 162 15 0;#P inlet 32 43 15 0;#P newex 32 130 45 1310729 * 0.;#P connect 13 0 0 0;#P lcolor 7;#P connect 1 0 0 0;#P connect 0 0 2 0;#P connect 13 1 0 1;#P lcolor 4;#P connect 13 0 3 0;#P lcolor 7;#P connect 4 0 3 0;#P connect 3 0 5 0;#P connect 13 1 3 1;#P lcolor 4;#P connect 13 0 6 0;#P lcolor 7;#P connect 7 0 6 0;#P connect 6 0 8 0;#P connect 13 1 6 1;#P lcolor 4;#P connect 13 0 9 0;#P lcolor 7;#P connect 10 0 9 0;#P connect 9 0 11 0;#P connect 13 1 9 1;#P lcolor 4;#P connect 12 0 13 0;#P pop;#P newobj 18 156 154 1310729 p vol;#B color 6;#P flonum 198 119 35 9 0 0 0 20 0 0 0 221 221 221 222 222 222 0 0 0;#P newex 198 72 51 1310729 t_presence;#B color 6;#P flonum 18 48 35 9 0 0 0 20 0 0 0 221 221 221 222 222 222 0 0 0;#P flonum 127 48 35 9 0 0 0 20 0 0 0 221 221 221 222 222 222 0 0 0;#P newex 18 98 119 1310729 t_azdisttoxy $1;#B color 6;#P newex 18 121 119 1310729 t_xyto4c;#B color 6;#P connect 9 0 3 0;#P connect 3 0 1 0;#P connect 1 0 0 0;#P connect 0 0 6 0;#P connect 6 0 29 0;#P connect 29 0 22 0;#P connect 22 0 28 0;#P connect 0 1 6 1;#P connect 6 1 29 1;#P connect 29 1 23 0;#P connect 23 0 30 0;#P connect 0 2 6 2;#P connect 6 2 29 2;#P connect 0 3 6 3;#P connect 7 0 2 0;#P connect 2 0 1 1;#P connect 1 1 0 1;#P connect 29 2 21 0;#P connect 21 0 31 0;#P connect 5 0 6 4;#P connect 6 3 29 3;#P connect 12 0 11 0;#P connect 11 0 4 0;#P connect 4 0 5 0;#P connect 29 3 20 0;#P connect 20 0 32 0;#P fasten 4 1 29 4 244 154 215 154;#P connect 15 0 14 0;#P connect 14 0 29 5;#P connect 29 4 33 0;#P connect 33 0 35 0;#P pop;