max v2;#N vpatcher 21 128 808 476;#P window setfont Times 9.;#P window linecount 1;#P comment 207 85 20 1310729 dB;#P window setfont Times 20.;#P comment 3 2 43 1310740 spat;#B frgb 0 0 200;#P window setfont "Sans Serif" 9.;#P comment 171 145 88 196617 bpat = 258 X 126;#P window setfont Times 9.;#P newex 564 185 51 1310729 prepend set;#P newex 581 54 68 1310729 r $1/azc;#B color 11;#P newex 609 98 26 1310729 defer;#P newex 564 98 26 1310729 defer;#P newex 609 78 73 1310729 r $1/dist;#B color 11;#P newex 564 34 64 1310729 r $1/az;#B color 11;#P newex 564 165 100 1310729 pack;#P flonum 609 119 35 9 0 0 0 20 0 0 0 221 221 221 222 222 222 0 0 0;#P flonum 564 119 35 9 0 0 0 20 0 0 0 221 221 221 222 222 222 0 0 0;#N vpatcher 493 44 768 341;#P window setfont "Sans Serif" 9.;#P flonum 124 35 35 9 0 0 0 3 0 0 0 221 221 221 222 222 222 0 0 0;#P flonum 33 36 35 9 0 0 0 3 0 0 0 221 221 221 222 222 222 0 0 0;#P window setfont Times 9.;#P newex 19 55 104 1310729 bondo 2 1;#P number 113 222 35 9 0 0 0 20 0 0 0 221 221 221 222 222 222 0 0 0;#P number 19 222 35 9 0 0 0 20 0 0 0 221 221 221 222 222 222 0 0 0;#P comment 129 240 32 1310729 y (int);#N comlet y (int);#P outlet 113 240 15 0;#P comment 35 240 32 1310729 x (int);#N comlet x (int);#P outlet 19 240 15 0;#P newex 113 198 16 1310729 t i;#P newex 19 197 16 1310729 t i;#N comlet [distance float];#P inlet 113 16 15 0;#P comment 128 16 62 1310729 [distance float];#P window setfont "Fixedwidth Serif" 9.;#P newex 113 102 32 1441801 + 90.;#P window setfont Times 9.;#P newex 19 79 104 1310729 fswap 0.;#P window setfont "Sans Serif" 9.;#P newex 19 148 104 196617 poltocar;#B color 5;#P window setfont "Fixedwidth Serif" 9.;#P newex 113 125 128 1441801 expr ($f1/180)*3.1415927;#P window setfont Times 9.;#P newex 113 173 28 1310729 * 50.;#P newex 19 173 28 1310729 * 50.;#N comlet [az degrees float];#P inlet 19 16 15 0;#P comment 34 16 62 1310729 [degrees float];#P connect 1 0 18 0;#P connect 18 0 6 0;#P connect 6 0 5 0;#P connect 5 0 2 0;#P connect 2 0 10 0;#P connect 10 0 16 0;#P connect 16 0 12 0;#P connect 1 0 19 0;#P connect 9 0 18 1;#P connect 18 1 6 1;#P connect 6 1 7 0;#P connect 7 0 4 0;#P connect 4 0 5 1;#P connect 5 1 3 0;#P connect 3 0 11 0;#P connect 11 0 17 0;#P connect 17 0 14 0;#P connect 9 0 20 0;#P pop;#P newobj 564 142 100 1310729 p convert_poltocar;#B color 6;#P comment 656 56 78 1310729 from crcfrq module;#P newex 564 221 86 1310729 pvar azdistslider 2;#B color 14;#N vpatcher 345 168 607 528;#P window setfont "Sans Serif" 9.;#P newex 16 106 32 196617 * -1.;#P window setfont Times 9.;#P newex 16 161 45 1310729 fswap 0.;#P window setfont "Sans Serif" 9.;#P flonum 127 130 68 9 0 0 0 3 0 0 0 221 221 221 222 222 222 0 0 0;#P newex 127 85 32 196617 / 50.;#P flonum 16 130 68 9 0 0 0 3 0 0 0 221 221 221 222 222 222 0 0 0;#P newex 16 85 32 196617 / 50.;#P window setfont Times 9.;#P flonum 16 290 43 9 0 0 0 20 0 0 0 221 221 221 222 222 222 0 0 0;#N comlet dist;#P outlet 142 310 15 0;#P number 127 51 35 9 0 0 0 20 0 0 0 221 221 221 222 222 222 0 0 0;#P number 16 50 35 9 0 0 0 20 0 0 0 221 221 221 222 222 222 0 0 0;#N comlet az;#P outlet 16 312 15 0;#N comlet y (0-200);#P inlet 127 29 15 0;#N comlet x (0-200);#P inlet 16 29 15 0;#P window setfont "Fixedwidth Serif" 9.;#P newex 16 236 118 1441801 expr 180.*$f1/3.141593;#P window setfont Times 9.;#P newex 16 203 45 1310729 fswap 0.;#P flonum 142 290 43 9 0 0 0 20 0 0 0 221 221 221 222 222 222 0 0 0;#P newex 16 182 45 1310729 cartopol;#B color 5;#P connect 4 0 7 0;#P connect 7 0 11 0;#P connect 11 0 16 0;#P connect 16 0 12 0;#P connect 12 0 15 0;#P connect 15 0 0 0;#P connect 0 0 2 0;#P connect 2 0 3 0;#P connect 3 0 10 0;#P connect 10 0 6 0;#P connect 14 0 15 1;#P connect 15 1 0 1;#P connect 0 1 2 1;#P connect 5 0 8 0;#P connect 8 0 13 0;#P connect 13 0 14 0;#P fasten 2 1 1 0 56 227 147 227;#P connect 1 0 9 0;#P pop;#P newobj 564 257 86 1310729 p convert_cartopol;#B color 6;#P newex 640 281 71 1310729 s $1/dist;#B color 11;#P newex 564 281 65 1310729 s $1/az;#B color 11;#P newex 389 94 82 1310729 variedit $1/pres $1;#B color 6;#P newex 321 94 45 1310729 pvar pres;#B color 14;#P newex 389 44 80 1310729 variedit $1/dist $1;#B color 6;#P newex 389 21 74 1310729 variedit $1/az $1;#B color 6;#P newex 321 70 50 1310729 pvar crcfrq;#B color 14;#P newex 389 70 87 1310729 variedit $1/crcfrq $1;#B color 6;#P comment 200 37 34 1310729 /crcfrq;#B frgb 0 0 200;#P flonum 200 48 28 9 0 0 32 20 0 0 0 221 221 221 222 222 222 0 0 0;#P objectname crcfrq;#P user pictslider 29 27 80 80 0 0 0 0 SliderDefaultKnob.pct 1 SliderDefaultBkgnd.pct 1 2163 0 3342286 -3276750 1. 1.;#P objectname azdistslider;#P newex 321 44 41 1310729 pvar dist;#B color 14;#P newex 321 21 35 1310729 pvar az;#B color 14;#P newex 321 118 39 1310729 pvar out;#B color 14;#P newex 389 118 78 1310729 variedit $1/out $1;#B color 6;#P comment 180 72 23 1310729 /out;#B frgb 0 0 200;#P flonum 180 84 28 9 -127. 18. 35 20 0 0 0 221 221 221 222 222 222 0 0 0;#P objectname out;#P flonum 135 48 35 9 0 0 32 20 0 0 0 221 221 221 222 222 222 0 0 0;#P objectname az;#P comment 149 72 29 1310729 /pres;#B frgb 0 0 200;#P flonum 149 84 28 9 0. 1. 35 20 0 0 0 221 221 221 222 222 222 0 0 0;#P objectname pres;#P comment 171 37 25 1310729 /dist;#B frgb 0 0 200;#P flonum 171 48 28 9 0. 1.42 35 20 0 0 0 221 221 221 222 222 222 0 0 0;#P objectname dist;#P comment 135 37 19 1310729 /az;#B frgb 0 0 200;#P bpatcher 0 0 256 124 0 0 bkgnd2-.mxt 0 $1 1;#P objectname background;#P window setfont "Sans Serif" 9.;#P comment 562 16 100 196617 az-dist interface;#P connect 19 0 12 0;#P connect 20 0 13 0;#P connect 17 0 18 0;#P connect 22 0 21 0;#P connect 10 0 11 0;#P connect 12 0 19 0;#P connect 13 0 20 0;#P connect 18 0 17 0;#P connect 21 0 22 0;#P connect 11 0 10 0;#P connect 36 0 34 0;#P connect 32 0 34 0;#P connect 34 0 29 0;#P connect 29 0 28 0;#P connect 28 0 31 0;#P connect 31 0 37 0;#P connect 37 0 26 0;#P connect 26 0 25 0;#P connect 25 0 23 0;#P connect 33 0 35 0;#P connect 35 0 30 0;#P connect 26 1 25 1;#P connect 25 1 24 0;#P connect 30 0 28 1;#P connect 28 1 31 1;#P pop;