max v2;#N vpatcher 2 379 417 574;#P window setfont Times 9.;#P window linecount 1;#P comment 349 92 25 1310729 time;#P window setfont "Sans Serif" 9.;#P newex 19 116 69 196617 pack 0 0 0. 0;#P window setfont Times 9.;#P newex 259 47 59 1310729 prepend $1 4;#P window setfont "Sans Serif" 9.;#P comment 279 64 24 196617 rev;#P comment 222 64 18 196617 BR;#P comment 161 64 18 196617 BL;#P comment 100 64 18 196617 FR;#P window setfont Times 9.;#P newex 199 47 59 1310729 prepend $1 3;#P newex 139 47 59 1310729 prepend $1 2;#P newex 79 47 59 1310729 prepend $1 1;#P newex 19 47 59 1310729 prepend $1 0;#P window setfont "Sans Serif" 9.;#P comment 39 64 18 196617 FL;#P comment 117 120 237 196617 arg 1 : input number for local matrix (default = 0);#N comlet rev;#P inlet 259 27 15 0;#N comlet BR;#P inlet 199 27 15 0;#N comlet BL;#P inlet 139 27 15 0;#N comlet FR;#P inlet 79 27 15 0;#N comlet time;#P inlet 334 89 15 0;#N comlet FL;#P inlet 19 27 15 0;#P outlet 19 138 15 0;#P window setfont "Sans Serif" 18.;#P comment 149 139 159 196626 tolocalmatrix4;#P connect 2 0 10 0;#P fasten 18 0 19 0 264 94 24 94;#P fasten 13 0 19 0 204 94 24 94;#P fasten 12 0 19 0 144 94 24 94;#P fasten 11 0 19 0 84 94 24 94;#P connect 10 0 19 0;#P connect 19 0 1 0;#P fasten 3 0 19 3 339 110 81 110;#P connect 4 0 11 0;#P connect 5 0 12 0;#P connect 6 0 13 0;#P connect 7 0 18 0;#P pop;