max v2;#N vpatcher 628 148 1190 421;#P window setfont "Sans Serif" 9.;#P window linecount 2;#P comment 416 205 107 196617 patch by Tom Mays contact@tommays.net;#N comlet central matrix connections list;#P inlet 286 55 15 0;#P window setfont Times 9.;#P window linecount 1;#P comment 103 223 292 1310729 arg 1 : matrix name (ex. mtrx) \;;#P newex 20 193 71 1310729 s $1~;#B color 11;#N vpatcher 77 158 950 501;#N comlet out4;#P inlet 715 91 15 0;#N comlet out3;#P inlet 697 91 15 0;#P window setfont Times 9.;#P window linecount 1;#P newex 201 60 40 1310729 t b f;#P newex 143 60 40 1310729 t b f;#P newex 201 230 55 1310729 pack 0 0 0. 0;#P newex 143 230 55 1310729 pack 0 0 0. 0;#N comlet out4 value;#P inlet 201 36 15 0;#N comlet out3 value;#P inlet 143 36 15 0;#P outlet 317 296 15 0;#N comlet time;#P inlet 602 36 15 0;#P window linecount 0;#P newex 602 60 16 1310729 t i;#P newex 549 60 40 1310729 t b f;#P newex 85 60 40 1310729 t b f;#P newex 27 60 40 1310729 t b f;#P newex 633 60 51 1310729 prepend set;#P newex 549 230 55 1310729 pack 0 0 0. 0;#P newex 85 230 55 1310729 pack 0 0 0. 0;#P newex 27 230 55 1310729 pack 0 0 0. 0;#N comlet rev value;#P inlet 549 36 15 0;#N comlet out2 value;#P inlet 85 36 15 0;#N comlet out1 value;#P inlet 27 36 15 0;#N comlet rev;#P inlet 823 91 15 0;#N comlet out2;#P inlet 679 91 15 0;#N comlet out1;#P inlet 661 91 15 0;#N comlet in;#P inlet 633 36 15 0;#P connect 4 0 11 0;#P connect 10 0 7 0;#P lcolor 3;#P connect 11 0 7 0;#P connect 1 0 7 1;#P lcolor 13;#P connect 11 1 7 2;#P connect 14 0 7 3;#P lcolor 1;#P connect 5 0 12 0;#P connect 10 0 8 0;#P lcolor 3;#P connect 12 0 8 0;#P connect 2 0 8 1;#P lcolor 13;#P connect 12 1 8 2;#P connect 14 0 8 3;#P lcolor 1;#P connect 17 0 21 0;#P connect 10 0 19 0;#P lcolor 3;#P connect 21 0 19 0;#P connect 23 0 19 1;#P lcolor 13;#P connect 21 1 19 2;#P connect 14 0 19 3;#P lcolor 1;#P connect 18 0 22 0;#P connect 10 0 20 0;#P lcolor 3;#P connect 22 0 20 0;#P connect 24 0 20 1;#P lcolor 13;#P connect 22 1 20 2;#P connect 14 0 20 3;#P lcolor 1;#P connect 9 0 16 0;#P connect 8 0 16 0;#P connect 7 0 16 0;#P connect 20 0 16 0;#P connect 19 0 16 0;#P connect 6 0 13 0;#P connect 13 0 9 0;#P connect 10 0 9 0;#P lcolor 3;#P connect 3 0 9 1;#P lcolor 13;#P connect 13 1 9 2;#P connect 14 0 9 3;#P lcolor 1;#P connect 15 0 14 0;#P connect 0 0 10 0;#P lcolor 13;#P pop;#P newobj 20 165 431 1310729 p mtrx~mess;#B color 6;#N vpatcher 613 504 1163 924;#P window setfont Times 9.;#P window linecount 1;#P newex 314 92 55 1310729 prepend refer;#P newex 314 72 67 1310729 r $1/inputscoll;#B color 11;#P newex 313 137 55 1310729 prepend refer;#P newex 313 117 71 1310729 r $1/outputscoll;#B color 11;#N comlet out10;#P outlet 288 365 15 0;#N coll tape_matrixoutputs 1;#P newobj 288 344 108 1310729 coll tape_matrixoutputs 1;#B color 5;#N comlet out4;#P outlet 126 247 15 0;#N comlet out3;#P outlet 99 229 15 0;#N comlet out2;#P outlet 72 213 15 0;#N comlet out1;#P outlet 45 195 15 0;#N comlet in;#P outlet 18 150 15 0;#P window linecount 0;#N coll tape_matrixoutputs 1;#P newobj 126 226 108 1310729 coll tape_matrixoutputs 1;#B color 5;#N coll tape_matrixoutputs 1;#P newobj 99 207 108 1310729 coll tape_matrixoutputs 1;#B color 5;#N coll tape_matrixoutputs 1;#P newobj 72 188 108 1310729 coll tape_matrixoutputs 1;#B color 5;#N coll tape_matrixoutputs 1;#P newobj 45 169 108 1310729 coll tape_matrixoutputs 1;#B color 5;#N coll tape_matrixinputs 1;#P newobj 18 125 104 1310729 coll tape_matrixinputs 1;#B color 5;#N comlet multiplexed input/outputs names;#P inlet 18 29 15 0;#P window setfont "Sans Serif" 9.;#P newex 18 78 148 196617 unpack s s s s s s;#P connect 1 0 0 0;#P connect 17 0 2 0;#P connect 0 0 2 0;#P connect 2 0 7 0;#P connect 15 0 3 0;#P connect 0 1 3 0;#P connect 3 0 8 0;#P connect 15 0 4 0;#P connect 0 2 4 0;#P connect 4 0 9 0;#P connect 15 0 5 0;#P connect 0 3 5 0;#P connect 5 0 10 0;#P connect 15 0 6 0;#P connect 0 4 6 0;#P connect 6 0 11 0;#P connect 0 5 12 0;#P connect 15 0 12 0;#P connect 12 0 13 0;#P connect 14 0 15 0;#P connect 16 0 17 0;#P pop;#P newobj 240 140 210 1310729 p io_coll-lookup;#B color 6;#P window setfont "Sans Serif" 9.;#P message 324 95 112 196617 adc1 FL FR BL BR rev1;#N comlet rev;#P inlet 200 36 15 0;#P window setfont Times 9.;#P comment 235 36 25 1310729 time;#N comlet BR;#P inlet 80 36 15 0;#N comlet BL;#P inlet 60 36 15 0;#N comlet FR;#P inlet 40 36 15 0;#N comlet time;#P inlet 220 36 15 0;#N comlet FL;#P inlet 20 36 15 0;#P window setfont "Sans Serif" 18.;#P comment 144 190 180 196626 tocentralmatrix;#P connect 1 0 10 0;#P connect 10 0 11 0;#P connect 3 0 10 1;#P connect 4 0 10 2;#P connect 5 0 10 3;#P connect 7 0 10 4;#P connect 2 0 10 5;#P fasten 13 0 9 0 291 105 245 105;#P fasten 8 0 9 0 329 120 245 120;#P connect 9 0 10 6;#P connect 9 1 10 7;#P connect 9 2 10 8;#P connect 9 3 10 9;#P connect 9 4 10 10;#P connect 9 5 10 11;#P pop;