max v2;#N vpatcher 192 89 664 690;#P origin 0 -17;#P window setfont "Sans Serif" 9.;#P window linecount 2;#P comment 255 528 107 196617 patch by Tom Mays contact@tommays.net;#P outlet 71 530 15 0;#P window linecount 1;#P newex 50 507 48 196617 clip~ 0 2;#P newex 361 202 30 196617 sel 0;#P message 361 184 21 196617 $2;#P newex 35 136 19 196617 t f;#N vpatcher 40 55 275 421;#N comlet log/lin default;#P inlet 187 230 15 0;#N comlet env list pairs (without curve info);#P inlet 25 30 15 0;#N comlet to snapshot~;#P outlet 80 71 15 0;#N comlet snapshot~ value;#P inlet 112 104 15 0;#P window setfont "Sans Serif" 9.;#P newex 25 296 120 196617 zl group 9;#P newex 135 223 27 196617 +;#P newex 152 202 27 196617 / 2;#P newex 135 179 32 196617 zl len;#P newex 25 275 61 196617 pack 0. 0. 0.;#P newex 25 140 60 196617 t f f;#P newex 75 164 27 196617 t f f;#P newex 25 112 62 196617 unpack 0. 0.;#P newex 75 253 122 196617 * 0.5;#N vpatcher 40 55 239 292;#P outlet 81 166 15 0;#P inlet 79 60 15 0;#P window setfont "Sans Serif" 9.;#P newex 99 136 27 196617 -1;#P newex 60 136 27 196617 1;#P newex 99 116 30 196617 sel 1;#P newex 60 116 30 196617 sel 1;#P newex 99 95 27 196617 < 0.;#P newex 60 95 31 196617 >= 0.;#P connect 6 0 0 0;#P connect 0 0 2 0;#P connect 2 0 4 0;#P connect 4 0 7 0;#P connect 5 0 7 0;#P connect 6 0 1 0;#P connect 1 0 3 0;#P connect 3 0 5 0;#P pop;#P newobj 75 213 52 196617 p polarity;#B color 6;#P newex 25 50 121 196617 t l b l;#P newex 75 194 47 196617 - 0.;#P flonum 112 123 53 9 0 0 0 3 0 0 0 221 221 221 222 222 222 0 0 0;#P newex 25 80 45 196617 zl iter 2;#N comlet curve~ triplets;#P outlet 25 323 15 0;#P connect 17 0 4 0;#P connect 4 0 1 0;#P connect 1 0 7 0;#P connect 7 0 9 0;#P connect 9 0 10 0;#P connect 10 0 14 0;#P connect 14 0 0 0;#P fasten 7 1 10 1 82 134 55 134;#P connect 9 1 8 0;#P connect 8 1 3 0;#P connect 3 0 5 0;#P connect 5 0 6 0;#P connect 6 0 10 2;#P connect 4 1 16 0;#P connect 15 0 2 0;#P connect 8 0 3 1;#P connect 2 0 3 1;#P connect 4 2 11 0;#P connect 11 0 13 0;#P connect 13 0 14 1;#P connect 11 0 12 0;#P connect 12 0 13 1;#P connect 18 0 6 1;#P pop;#P newobj 216 200 83 196617 p pairs->triplets;#B color 6;#N vpatcher 40 55 230 267;#P window setfont "Sans Serif" 9.;#P newex 79 120 27 196617 -1;#P newex 40 120 27 196617 1;#P newex 40 96 88 196617 sel 1 0;#P newex 40 75 31 196617 >= 0.;#P outlet 40 154 15 0;#P inlet 40 53 15 0;#P connect 0 0 2 0;#P connect 2 0 3 0;#P connect 3 0 4 0;#P connect 5 0 1 0;#P connect 4 0 1 0;#P connect 3 1 5 0;#P pop;#P newobj 113 380 52 196617 p polarity;#B color 6;#P newex 279 278 117 196617 unpack 0. 0. 0.;#P newex 156 221 27 196617 2;#P newex 127 221 27 196617 1;#P newex 127 200 69 196617 sel 2 3;#P newex 85 252 35 196617 gate 2;#P newex 110 156 27 196617 t l l;#P newex 127 179 32 196617 zl len;#N comlet set value;#P outlet 351 453 15 0;#P message 72 379 35 196617 set \$1;#N comlet [destination] [time in ms] \, env [list of pairs] \, envc [list of triplets];#P inlet 71 62 15 0;#P newex 35 163 65 196617 pack 0. 20 0.;#P newex 50 278 63 196617 unpack 0. 0.;#P flonum 113 442 35 9 0 0 0 3 0 0 0 221 221 221 222 222 222 0 0 0;#P newex 314 158 45 196617 loadbang;#P newex 113 419 33 196617 * 0.5;#P message 314 184 21 196617 $1;#P newex 113 351 27 196617 - 0.;#P newex 50 300 26 196617 t f b;#P newex 130 327 53 196617 snapshot~;#P newex 50 103 143 196617 route int float list env envcrv;#P newex 50 480 49 196617 curve~ 1;#P window linecount 2;#P comment 87 62 167 196617 [destination] [time in ms] \, env [list of pairs] \, envcrv [list of triplets];#P window linecount 3;#P comment 268 22 166 196617 arg 1 : log/lin intensity 0. to 1. (usually 0.5 \, 0 = linear) \; arg 2 : clip value (def=2);#P window linecount 6;#P comment 268 79 150 196617 ints and floats use linear curve \, 2 element lists use default curve \, 3 element lists define their own curve \, "env" pairs use default curve \, "envc" triplets define their own curve.;#N comlet sig out;#P outlet 22 579 15 0;#P window linecount 1;#P newex 22 557 38 196617 *~;#N comlet sig in;#P inlet 22 73 15 0;#N comlet sig out;#P outlet 6 560 15 0;#P newex 6 531 38 196617 *~;#N comlet sig in;#P inlet 6 47 15 0;#P connect 0 0 1 0;#P connect 1 0 2 0;#P connect 3 0 4 0;#P connect 4 0 5 0;#P connect 35 0 1 1;#P connect 10 0 32 0;#P connect 10 1 32 0;#P connect 32 0 19 0;#P connect 20 0 10 0;#P fasten 25 0 18 0 90 273 55 273;#P connect 18 0 12 0;#P connect 12 0 9 0;#P fasten 19 0 9 0 40 457 55 457;#P lcolor 6;#P fasten 31 0 9 0 221 468 55 468;#P lcolor 7;#P fasten 10 4 9 0 159 156 208 156 208 468 55 468;#P lcolor 7;#P fasten 29 0 9 0 284 373 55 373;#P lcolor 5;#P connect 9 0 35 0;#P connect 35 0 4 1;#P fasten 18 1 9 1 108 415 74 415;#P lcolor 13;#P fasten 29 1 9 1 337 415 74 415;#P lcolor 13;#P connect 35 0 36 0;#P connect 12 0 21 0;#P fasten 32 0 21 0 40 157 77 157;#P lcolor 6;#P fasten 29 0 21 0 284 373 77 373;#P lcolor 5;#P connect 27 0 25 0;#P connect 28 0 25 0;#P fasten 17 0 9 2 118 460 93 460;#P connect 34 1 35 2;#P connect 10 2 24 0;#P connect 24 0 25 1;#P connect 12 0 13 0;#P connect 13 0 30 0;#P connect 30 0 15 0;#P connect 15 0 17 0;#P fasten 29 2 17 0 390 439 118 439;#P connect 24 1 23 0;#P connect 23 0 26 0;#P connect 26 0 27 0;#P fasten 9 0 11 0 55 502 191 502 191 321 135 321;#P fasten 12 1 11 0 71 321 135 321;#P connect 31 1 11 0;#P connect 11 0 13 1;#P connect 14 0 15 1;#P connect 26 1 28 0;#P connect 10 3 31 0;#P connect 11 0 31 1;#P fasten 25 1 29 0 115 272 284 272;#P connect 14 0 31 2;#P connect 16 0 14 0;#P connect 21 0 22 0;#P lcolor 1;#P connect 16 0 33 0;#P connect 33 0 34 0;#P pop;