max v2;#N vpatcher 271 75 733 670;#P window setfont "Sans Serif" 9.;#P window linecount 2;#P comment 262 505 107 196617 patch by Tom Mays contact@tommays.net;#P number 113 288 35 9 0 0 0 3 0 0 0 221 221 221 222 222 222 0 0 0;#P number 343 317 35 9 0 0 0 3 0 0 0 221 221 221 222 222 222 0 0 0;#P number 376 227 35 9 0 0 0 3 0 0 0 221 221 221 222 222 222 0 0 0;#N comlet vol amt sig;#P outlet 66 534 15 0;#P window linecount 1;#P newex 45 511 48 196617 clip~ 0 2;#P newex 356 206 30 196617 sel 0;#P message 356 188 21 196617 $2;#P newex 30 140 19 196617 t f;#N vpatcher 40 55 275 421;#N comlet log/lin default;#P inlet 187 230 15 0;#N comlet env list pairs (without curve info);#P inlet 25 30 15 0;#N comlet to snapshot~;#P outlet 80 71 15 0;#N comlet snapshot~ value;#P inlet 112 104 15 0;#P window setfont "Sans Serif" 9.;#P newex 25 296 120 196617 zl group 9;#P newex 135 223 27 196617 +;#P newex 152 202 27 196617 / 2;#P newex 135 179 32 196617 zl len;#P newex 25 275 61 196617 pack 0. 0. 0.;#P newex 25 140 60 196617 t f f;#P newex 75 164 27 196617 t f f;#P newex 25 112 62 196617 unpack 0. 0.;#P newex 75 253 122 196617 * 0.5;#P newex 75 213 46 196617 polarity;#B color 6;#P newex 25 50 121 196617 t l b l;#P newex 75 194 47 196617 - 0.;#P flonum 112 123 53 9 0 0 0 3 0 0 0 221 221 221 222 222 222 0 0 0;#P newex 25 80 45 196617 zl iter 2;#N comlet curve~ triplets;#P outlet 25 323 15 0;#P connect 17 0 4 0;#P connect 4 0 1 0;#P connect 1 0 7 0;#P connect 7 0 9 0;#P connect 9 0 10 0;#P connect 10 0 14 0;#P connect 14 0 0 0;#P fasten 7 1 10 1 82 134 55 134;#P connect 9 1 8 0;#P connect 8 1 3 0;#P connect 3 0 5 0;#P connect 5 0 6 0;#P connect 6 0 10 2;#P connect 4 1 16 0;#P connect 15 0 2 0;#P connect 8 0 3 1;#P connect 2 0 3 1;#P connect 4 2 11 0;#P connect 11 0 13 0;#P connect 13 0 14 1;#P connect 11 0 12 0;#P connect 12 0 13 1;#P connect 18 0 6 1;#P pop;#P newobj 211 204 83 196617 p pairs->triplets;#B color 6;#P newex 108 384 46 196617 polarity;#B color 6;#P newex 274 282 117 196617 unpack 0. 0 0.;#P newex 151 225 27 196617 2;#P newex 122 225 27 196617 1;#P newex 122 204 69 196617 sel 2 3;#P newex 80 256 35 196617 gate 2;#P newex 105 160 27 196617 t l l;#P newex 122 183 32 196617 zl len;#N comlet set value;#P outlet 346 457 15 0;#P message 67 383 35 196617 set \$1;#N comlet [destination] [time in ms] \, env [list of pairs] \, envc [list of triplets];#P inlet 66 66 15 0;#N comlet sig out;#P outlet 17 555 15 0;#P newex 30 167 61 196617 pack 0. 5 0.;#P newex 45 282 63 196617 unpack 0. 0;#P flonum 108 446 35 9 0 0 0 3 0 0 0 221 221 221 222 222 222 0 0 0;#P newex 309 162 45 196617 loadbang;#P newex 108 423 33 196617 * 0.5;#P message 309 188 21 196617 $1;#P newex 108 355 27 196617 - 0.;#P newex 45 304 26 196617 t f b;#P newex 125 331 53 196617 snapshot~;#P newex 45 107 143 196617 route int float list env envcrv;#P newex 45 484 49 196617 curve~ 1;#P newex 17 533 38 196617 *~;#N comlet sig in;#P inlet 17 30 15 0;#P window linecount 2;#P comment 82 66 167 196617 [destination] [time in ms] \, env [list of pairs] \, envcrv [list of triplets];#P window linecount 3;#P comment 263 26 166 196617 arg 1 : log/lin intensity 0. to 1. (usually 0.5 \, 0 = linear) \; arg 2 : clip value (def=2);#P window linecount 6;#P comment 263 83 150 196617 ints and floats use linear curve \, 2 element lists use default curve \, 3 element lists define their own curve \, "env" pairs use default curve \, "envcrv" triplets define their own curve.;#P connect 3 0 4 0;#P connect 4 0 16 0;#P connect 6 0 29 0;#P connect 6 1 29 0;#P connect 29 0 15 0;#P connect 17 0 6 0;#P fasten 22 0 14 0 85 277 50 277;#P connect 14 0 8 0;#P connect 8 0 5 0;#P fasten 28 0 5 0 216 472 50 472;#P lcolor 7;#P fasten 6 4 5 0 154 160 203 160 203 472 50 472;#P lcolor 7;#P fasten 15 0 5 0 35 461 50 461;#P lcolor 6;#P fasten 26 0 5 0 279 377 50 377;#P lcolor 5;#P connect 5 0 32 0;#P connect 32 0 4 1;#P fasten 26 1 5 1 332 419 69 419;#P lcolor 13;#P fasten 14 1 5 1 103 419 69 419;#P lcolor 13;#P connect 32 0 33 0;#P connect 8 0 18 0;#P fasten 29 0 18 0 35 161 72 161;#P lcolor 6;#P fasten 26 0 18 0 279 377 72 377;#P lcolor 5;#P connect 24 0 22 0;#P connect 25 0 22 0;#P fasten 13 0 5 2 113 464 88 464;#P connect 34 0 32 2;#P connect 6 2 21 0;#P connect 21 0 22 1;#P connect 8 0 9 0;#P connect 9 0 27 0;#P connect 27 0 11 0;#P fasten 26 2 13 0 385 443 113 443;#P connect 11 0 13 0;#P connect 14 1 36 0;#P connect 21 1 20 0;#P connect 20 0 23 0;#P connect 23 0 24 0;#P fasten 5 0 7 0 50 506 186 506 186 325 130 325;#P fasten 8 1 7 0 66 325 130 325;#P connect 28 1 7 0;#P connect 7 0 9 1;#P connect 10 0 11 1;#P connect 23 1 25 0;#P connect 6 3 28 0;#P connect 7 0 28 1;#P fasten 22 1 26 0 110 276 279 276;#P connect 10 0 28 2;#P connect 12 0 10 0;#P connect 26 1 35 0;#P connect 18 0 19 0;#P lcolor 1;#P connect 12 0 30 0;#P connect 30 0 31 0;#P connect 31 1 34 0;#P pop;