max v2;#N vpatcher 7 43 445 344;#P window setfont "Sans Serif" 9.;#P window linecount 1;#P newex 218 152 38 196617 +~ 0.5;#P newex 148 80 27 196617 + 1.;#P newex 148 102 39 196617 * 0.25;#P newex 148 55 59 196617 unpack 0. 0;#P newex 148 123 59 196617 line~ 0.25;#P newex 44 173 70 196617 cycle~ sinwin;#P newex 158 173 70 196617 cycle~ sinwin;#P window linecount 2;#P comment 164 29 138 196617 [-1 to 1. (-1=B \, 0=A+B \, 1.0=A)] [time in ms];#N comlet [-1 to 1. (-1=AB \, 0=AB+BA \, 1.0=BA)] [time in ms];#P inlet 148 33 15 0;#P window linecount 1;#P newex 279 173 125 196617 buffer~ sinwin sinwin.aiff;#B color 15;#P newex 18 223 124 196617 +~;#P newex 132 200 36 196617 *~;#P newex 18 200 36 196617 *~;#N comlet sig B;#P inlet 72 33 15 0;#N comlet sig A;#P inlet 18 33 15 0;#N comlet sig A;#P outlet 18 247 15 0;#P connect 1 0 3 0;#P connect 3 0 5 0;#P connect 5 0 0 0;#P connect 10 0 3 1;#P fasten 11 0 10 1 153 156 109 156;#P connect 2 0 4 0;#P connect 4 0 5 1;#P connect 7 0 12 0;#P connect 12 0 14 0;#P connect 14 0 13 0;#P connect 13 0 11 0;#P connect 9 0 4 1;#P connect 12 1 11 1;#P fasten 11 0 15 0 153 146 223 146;#P connect 15 0 9 1;#P pop;