max v2;#N vpatcher -2 138 1050 569;#P inlet 61 203 15 0;#P window setfont "Sans Serif" 9.;#P comment 659 219 277 196617 no longer need to send to module_register. happens in build.;#P newex 317 144 315 196617 makeparam $1/minlogout $1 f -96 -96 0 0;#B color 13;#P newex 250 122 317 196617 makeparam $1/samplerate $1 i 10 1 999 0;#B color 13;#P newex 175 100 330 196617 makeparam $1/slidedown $1 f 100 0 99999 0;#B color 13;#P newex 102 78 311 196617 makeparam $1/slideup $1 f 10 0 99999 0;#B color 13;#P comment 69 380 287 196617 arg 1 : module prefix name \;;#P newex 659 73 127 196617 moduleinit $1;#B color 13;#P newex 578 30 416 196617 makeswitch $1/sw $1 tape_switchstate;#B color 13;#P newex 578 71 31 196617 == 0;#P newex 578 110 50 196617 thispoly~;#B color 5;#P toggle 578 50 15 0;#P message 578 91 45 196617 mute \$1;#P window linecount 9;#P message 659 95 222 196617 \; $1/sw/init bang \; $1/slideup/init bang \; $1/slidedown/init bang \; $1/samplerate/init bang \; $1/minlogout/init bang \; $1/amp/init bang \; $1/ampdB/init bang \; control_register/store $1 \;;#P window linecount 1;#P newex 356 271 320 196617 makecontrol $1/ampdB $1 f -127 0 /tape;#B color 11;#P flonum 61 251 60 9 0 0 0 3 0 0 0 221 221 221 222 222 222 0 0 0;#P comment 309 165 80 196617 Min. Log. Output;#P comment 329 199 68 196617 (default -96);#P comment 367 181 19 196617 dB;#P comment 285 181 24 196617 ms.;#P comment 216 181 24 196617 ms.;#P comment 143 181 24 196617 ms.;#P flonum 317 180 50 9 0 0. 2 3 0 0 0 221 221 221 222 222 222 0 0 0;#P flonum 356 251 60 9 0 0 0 3 0 0 0 221 221 221 222 222 222 0 0 0;#P comment 257 199 62 196617 (default 10);#P comment 182 199 68 196617 (default 100);#P comment 109 199 62 196617 (default 10);#P comment 102 152 120 196617 ------ Smoothing ------;#P flonum 175 180 41 9 0. 0 1 3 0 0 0 221 221 221 222 222 222 0 0 0;#P flonum 102 180 41 9 0. 0 1 3 0 0 0 221 221 221 222 222 222 0 0 0;#P comment 238 165 63 196617 Sample Rate;#P comment 170 165 55 196617 Slide Down;#P comment 102 165 44 196617 Slide Up;#P number 250 180 35 9 1 0 1 3 0 0 0 221 221 221 222 222 222 0 0 0;#P toggle 64 180 15 0;#P newex 61 226 164 196617 t_afol~;#B color 5;#P comment 52 165 39 196617 On/Off;#P newex 61 271 292 196617 makecontrol $1/amp $1 f 0 1 /tape;#B color 11;#P window linecount 2;#P comment 141 338 107 196617 patch by Tom Mays contact@tommays.net;#P window setfont Times 9.;#P window linecount 1;#N in~ 1;#P newobj 22 28 29 1310729 in~ 1;#P connect 39 0 4 0;#P fasten 0 0 4 0 27 221 66 221;#P connect 4 0 24 0;#P connect 24 0 2 0;#P fasten 28 0 5 0 583 68 69 68;#P connect 5 0 4 1;#P connect 34 0 10 0;#P fasten 10 0 4 2 107 217 126 217;#P fasten 11 0 4 3 180 214 156 214;#P connect 35 0 11 0;#P fasten 6 0 4 4 255 216 186 216;#P fasten 17 0 4 5 322 221 216 221;#P connect 36 0 6 0;#P connect 37 0 17 0;#P fasten 4 1 16 0 220 247 361 247;#P connect 16 0 25 0;#P connect 31 0 28 0;#P connect 28 0 30 0;#P connect 30 0 27 0;#P connect 27 0 29 0;#P connect 32 0 26 0;#P pop;