max v2;#N vpatcher 54 296 1120 694;#P window setfont "Sans Serif" 9.;#P window linecount 1;#P hidden newex 1056 101 167 196617 tm_editorbuilder /afol /tape 3 2 2;#B color 6;#P button 1056 74 15 0;#P comment 1074 74 39 196617 delete;#P button 1056 53 15 0;#P comment 1073 53 31 196617 build;#N thispatcher;#Q end;#P hidden newobj 1056 123 61 196617 thispatcher;#P hidden inlet 1155 123 15 0;#P window linecount 0;#P comment 2376 0 100 196617;#P comment 1 0 100 196617;#P hidden connect 5 0 8 0;#P hidden connect 8 0 3 0;#P hidden fasten 7 0 8 1 1061 95 1139 95;#P hidden fasten 3 0 8 2 1061 145 1230 145 1230 97 1217 97;#P pop;