max v2;#N vpatcher 78 459 1145 791;#P window setfont Times 9.;#P comment 422 31 24 1310729 max;#P comment 422 46 23 1310729 min;#P comment 280 47 23 1310729 min;#P comment 280 32 24 1310729 max;#P flonum 389 45 35 9 0 0 8224 20 0 0 0 221 221 221 222 222 222 0 0 0;#P noclick;#P objectname ampdBmin;#P window linecount 2;#P comment 316 34 30 1310729 reset peaks;#P comment 458 33 28 1310729 reset peaks;#P flonum 209 39 35 9 0 0 8224 20 0 0 0 221 221 221 222 222 222 0 0 0;#P noclick;#P objectname amp;#P window linecount 1;#P newex 844 279 68 1310729 pvar ampdBmin;#P newex 915 279 69 1310729 pvar ampdBmax;#P window linecount 3;#P newex 975 125 49 1310729 pvar ampdBpeakreset;#P window setfont "Sans Serif" 9.;#P window linecount 1;#P newex 844 259 28 196617 !- 1.;#P newex 844 239 44 196617 / 1000.;#P newex 844 199 18 196617 t i;#P newex 844 179 45 196617 * 1000.;#P newex 844 219 40 196617 peak;#P newex 844 159 28 196617 !- 1.;#P newex 915 239 44 196617 / 1000.;#P newex 915 199 18 196617 t i;#P newex 975 187 65 196617 t 0 -127000;#P button 975 168 15 0;#P newex 915 179 45 196617 * 1000.;#P newex 915 219 40 196617 peak;#P window setfont Times 9.;#P newex 791 160 53 1310729 pvar ampdB;#P comment 791 111 50 1310729 amp in dBs;#P newex 791 127 133 1310729 r $1/ampdB;#B color 11;#P button 444 38 14 6;#P objectname ampdBpeakreset;#P button 302 39 14 6;#P objectname amppeakreset;#P flonum 389 30 35 9 0 0 8224 20 0 0 0 221 221 221 222 222 222 0 0 0;#P noclick;#P objectname ampdBmax;#P flonum 351 38 35 9 0 0 8224 20 0 0 0 221 221 221 222 222 222 0 0 0;#P noclick;#P objectname ampdB;#P comment 353 18 39 1310729 /ampdB;#P flonum 247 31 35 9 0 0 8224 20 0 0 0 221 221 221 222 222 222 0 0 0;#P noclick;#P objectname ampmax;#P flonum 247 46 35 9 0 0 8224 20 0 0 0 221 221 221 222 222 222 0 0 0;#P noclick;#P objectname ampmin;#P newex 606 279 58 1310729 pvar ampmin;#P newex 677 279 59 1310729 pvar ampmax;#P window linecount 3;#P newex 737 125 39 1310729 pvar amppeakreset;#P window setfont "Sans Serif" 9.;#P window linecount 1;#P newex 606 259 28 196617 !- 1.;#P newex 606 239 44 196617 / 1000.;#P newex 606 199 18 196617 t i;#P newex 606 179 45 196617 * 1000.;#P newex 606 219 40 196617 peak;#P newex 606 159 28 196617 !- 1.;#P newex 677 239 44 196617 / 1000.;#P newex 677 199 18 196617 t i;#P newex 737 187 27 196617 0;#P button 737 168 15 0;#P newex 677 179 45 196617 * 1000.;#P newex 677 219 40 196617 peak;#P window setfont Times 9.;#P flonum 71 38 44 9 0. 99999. 3 20 0 0 0 221 221 221 222 222 222 0 0 0;#P objectname slidedown;#P flonum 71 20 44 9 0. 99999. 3 20 0 0 0 221 221 221 222 222 222 0 0 0;#P objectname slideup;#P newex 553 160 43 1310729 pvar amp;#P comment 553 111 78 1310729 linear amp;#P newex 553 127 123 1310729 r $1/amp;#B color 11;#P flonum 167 38 34 9 -96. 0. 3 20 0 0 0 221 221 221 222 222 222 0 0 0;#P objectname minlogout;#P number 167 20 34 9 1 999 3 20 0 0 0 221 221 221 222 222 222 0 0 0;#P objectname samplerate;#P newex 553 80 65 1310729 pvar minlogout;#P newex 553 59 68 1310729 pvar samplerate;#P newex 553 38 65 1310729 pvar slidedown;#P newex 553 17 54 1310729 pvar slideup;#P newex 646 80 194 1310729 variedit $1/minlogout $1;#B color 11;#P newex 646 59 195 1310729 variedit $1/samplerate $1;#B color 11;#P newex 646 38 192 1310729 variedit $1/slidedown $1;#B color 11;#P newex 646 17 181 1310729 variedit $1/slideup $1;#B color 11;#P comment 25 38 48 1310729 /slidedown;#B frgb 0 0 200;#P comment 37 21 37 1310729 /slideup;#B frgb 0 0 200;#P comment 119 38 50 1310729 /minlogout;#B frgb 0 0 200;#P comment 118 20 51 1310729 /samplerate;#B frgb 0 0 200;#P comment 211 19 29 1310729 /amp;#P window setfont "Sans Serif" 9.;#P comment 135 198 88 196617 bpat = 512 X 186;#P bpatcher 0 61 512 124 0 0 multimapsendu.edit.mxt 0 $1 /tape;#P bpatcher 0 0 512 62 0 0 bkgnd12.mxt 0 $1 0 1;#P connect 8 0 12 0;#P connect 9 0 13 0;#P connect 10 0 14 0;#P connect 11 0 15 0;#P connect 18 0 20 0;#P fasten 18 0 29 0 558 151 611 151;#P connect 29 0 31 0;#P connect 31 0 32 0;#P connect 32 0 30 0;#P connect 30 0 33 0;#P connect 33 0 34 0;#P connect 34 0 37 0;#P connect 26 0 30 1;#P connect 12 0 8 0;#P connect 13 0 9 0;#P connect 14 0 10 0;#P connect 15 0 11 0;#P fasten 18 0 24 0 558 151 682 151;#P connect 24 0 27 0;#P connect 27 0 23 0;#P connect 23 0 28 0;#P connect 28 0 36 0;#P connect 26 0 23 1;#P connect 35 0 25 0;#P connect 25 0 26 0;#P connect 45 0 47 0;#P fasten 45 0 54 0 796 151 849 151;#P connect 54 0 56 0;#P connect 56 0 57 0;#P connect 57 0 55 0;#P connect 55 0 58 0;#P connect 58 0 59 0;#P connect 59 0 62 0;#P connect 51 0 55 1;#P fasten 45 0 49 0 796 151 920 151;#P connect 49 0 52 0;#P connect 52 0 48 0;#P connect 48 0 53 0;#P connect 53 0 61 0;#P connect 51 1 48 1;#P connect 60 0 50 0;#P connect 50 0 51 0;#P pop;