max v2;#N vpatcher 601 66 1193 508;#P origin 0 -13;#P window setfont Times 9.;#P window linecount 1;#P newex 219 306 40 1310729 zl reg;#P newex 249 252 85 1310729 sprintf %s-temp.txt;#P window setfont "Sans Serif" 9.;#P message 132 203 14 196617 2;#P window setfont Times 9.;#P newex 158 219 71 1310729 gate 2 1;#P button 171 57 15 0;#P newex 370 252 54 1310729 projectpath;#B color 6;#P newex 370 306 47 1310729 tosymbol;#P newex 158 306 47 1310729 tosymbol;#P newex 158 252 54 1310729 projectpath;#B color 6;#P newex 370 334 57 1310729 prepend read;#P newex 158 334 61 1310729 prepend write;#P button 8 99 15 0;#P newex 8 145 33 1310729 del 10;#P newex 8 120 18 1310729 t b;#P newex 227 27 122 1310729 r $1/storetemp;#B color 11;#P window setfont "Sans Serif" 9.;#P newex 181 157 50 196617 deferlow;#P newex 416 168 51 196617 zl slice 1;#P newex 416 192 40 196617 itoa;#P newex 416 148 85 196617 substitute 47 45;#P newex 416 128 40 196617 atoi;#P window setfont Times 9.;#P newex 158 280 146 1310729 sprintf %sconfig/temp/%s-temp.txt;#P newex 370 196 18 1310729 t b;#P newex 370 280 146 1310729 sprintf %sconfig/temp/%s-temp.txt;#P newex 171 77 18 1310729 t b;#P newex 171 27 53 1310729 r storetemp;#B color 11;#P newex 8 170 34 1310729 t open;#N comlet bang to open;#P inlet 8 80 15 0;#N comlet pvar recall;#P inlet 526 18 15 0;#N comlet pvar store;#P inlet 130 79 15 0;#P newex 130 102 67 1310729 t b b b;#P newex 526 56 27 1310729 t b b;#P newex 64 387 41 1310729 onebang;#P message 416 110 56 1310729 $1;#P newex 416 88 45 1310729 loadbang;#P button 34 336 15 0;#N qlist;#P newobj 34 365 40 1310729 qlist;#P newex 48 261 80 1310729 tempqlist $1;#B color 6;#P button 186 128 15 0;#P window setfont "Sans Serif" 9.;#P window linecount 3;#P comment 233 141 116 196617 read again without qlist trigger to remove path from qlist name;#P button 526 37 15 0;#P connect 13 0 28 0;#P connect 28 0 26 0;#P connect 26 0 27 0;#P connect 27 0 14 0;#P fasten 8 0 5 0 69 408 28 408 28 332 39 332;#P fasten 29 0 4 0 163 359 39 359;#P connect 5 0 4 0;#P fasten 14 0 4 0 13 355 39 355;#P lcolor 6;#P fasten 3 0 4 0 53 359 39 359;#P fasten 30 0 4 0 375 359 39 359;#P connect 2 0 3 0;#P connect 4 2 8 0;#P fasten 9 1 8 1 548 380 100 380;#P fasten 16 0 10 0 176 98 135 98;#P connect 11 0 10 0;#P connect 4 2 37 0;#P connect 37 0 36 0;#P connect 36 0 31 0;#P connect 31 0 19 0;#P connect 19 0 32 0;#P connect 39 0 29 0;#P connect 32 0 29 0;#P connect 15 0 35 0;#P connect 25 0 35 0;#P connect 35 0 16 0;#P connect 10 0 24 0;#P connect 10 2 2 0;#P fasten 10 1 36 1 163 189 224 189;#P connect 36 1 39 0;#P connect 22 0 38 0;#P connect 38 0 39 1;#P connect 22 0 19 1;#P connect 24 0 18 0;#P fasten 9 0 18 0 531 78 375 78;#P connect 18 0 34 0;#P connect 34 0 17 0;#P connect 17 0 33 0;#P connect 33 0 30 0;#P connect 6 0 7 0;#P connect 7 0 20 0;#P connect 20 0 21 0;#P connect 21 0 23 0;#P fasten 21 1 22 0 496 188 421 188;#P fasten 23 1 22 0 462 188 421 188;#P connect 22 0 17 1;#P connect 12 0 0 0;#P connect 0 0 9 0;#P pop;