max v2;#N vpatcher 630 61 1302 530;#P origin 0 -13;#P window setfont Times 9.;#P window linecount 1;#P newex 219 328 40 1310729 zl reg;#P newex 249 274 85 1310729 sprintf %s-temp.txt;#P window setfont "Sans Serif" 9.;#P message 125 221 14 196617 2;#P window setfont Times 9.;#P newex 158 237 71 1310729 gate 2 1;#P newex 545 85 27 1310729 t b s;#P newex 227 28 103 1310729 sprintf set %s/storetemp;#P window setfont "Sans Serif" 18.;#P comment 340 413 121 196626 u = universal;#P window setfont Times 9.;#P newex 562 106 53 1310729 prepend set;#P newex 595 67 27 1310729 t s s;#N comlet variable prefix name;#P inlet 595 49 15 0;#P button 171 79 15 0;#P newex 370 274 54 1310729 projectpath;#B color 6;#P newex 370 328 47 1310729 tosymbol;#P newex 158 328 47 1310729 tosymbol;#P newex 158 274 54 1310729 projectpath;#B color 6;#P newex 370 356 57 1310729 prepend read;#P newex 158 356 61 1310729 prepend write;#P button 8 121 15 0;#P newex 8 167 33 1310729 del 10;#P newex 8 142 18 1310729 t b;#P newex 227 49 37 1310729 receive;#B color 11;#P window setfont "Sans Serif" 9.;#P newex 181 179 50 196617 deferlow;#P newex 416 190 51 196617 zl slice 1;#P newex 416 214 40 196617 itoa;#P newex 416 170 85 196617 substitute 47 45;#P newex 416 150 40 196617 atoi;#P window setfont Times 9.;#P newex 158 302 146 1310729 sprintf %sconfig/temp/%s-temp.txt;#P newex 370 218 18 1310729 t b;#P newex 370 302 146 1310729 sprintf %sconfig/temp/%s-temp.txt;#P newex 171 99 18 1310729 t b;#P newex 171 49 53 1310729 r storetemp;#B color 11;#P newex 8 192 34 1310729 t open;#N comlet bang to open;#P inlet 8 102 15 0;#N comlet pvar recall;#P inlet 498 40 15 0;#N comlet pvar store;#P inlet 130 101 15 0;#P newex 130 124 67 1310729 t b b b;#P newex 498 78 27 1310729 t b b;#P newex 64 409 41 1310729 onebang;#P window linecount 0;#P message 416 132 56 1310729;#P button 34 358 15 0;#P window linecount 1;#N qlist;#P newobj 34 387 40 1310729 qlist;#P newex 48 283 50 1310729 tempqlistu;#B color 6;#P button 186 144 15 0;#P window setfont "Sans Serif" 9.;#P window linecount 3;#P comment 233 163 116 196617 read again without qlist trigger to remove path from qlist name;#P button 498 59 15 0;#P window linecount 1;#P comment 265 51 100 196617 $1/storetemp;#P connect 13 0 28 0;#P connect 28 0 26 0;#P connect 26 0 27 0;#P connect 27 0 14 0;#P fasten 8 0 6 0 69 430 28 430 28 354 39 354;#P fasten 29 0 5 0 163 381 39 381;#P connect 6 0 5 0;#P fasten 14 0 5 0 13 377 39 377;#P lcolor 6;#P fasten 4 0 5 0 53 381 39 381;#P fasten 30 0 5 0 375 381 39 381;#P connect 3 0 4 0;#P connect 5 2 8 0;#P fasten 37 1 4 1 617 259 93 259;#P lcolor 7;#P fasten 9 1 8 1 520 402 100 402;#P connect 5 2 43 0;#P fasten 16 0 10 0 176 120 135 120;#P connect 11 0 10 0;#P connect 43 0 42 0;#P connect 42 0 31 0;#P connect 31 0 19 0;#P connect 19 0 32 0;#P connect 32 0 29 0;#P connect 45 0 29 0;#P connect 25 0 35 0;#P connect 15 0 35 0;#P connect 35 0 16 0;#P connect 10 0 24 0;#P connect 10 2 3 0;#P fasten 10 1 42 1 163 215 224 215;#P connect 42 1 45 0;#P fasten 37 1 40 0 617 89 631 89 631 25 232 25;#P connect 40 0 25 0;#P connect 22 0 44 0;#P connect 44 0 45 1;#P connect 22 0 19 1;#P connect 24 0 18 0;#P fasten 9 0 18 0 503 100 375 100;#P connect 18 0 34 0;#P connect 34 0 17 0;#P connect 17 0 33 0;#P connect 33 0 30 0;#P connect 38 0 7 0;#P connect 41 0 7 0;#P connect 7 0 20 0;#P connect 20 0 21 0;#P connect 21 0 23 0;#P fasten 21 1 22 0 496 210 421 210;#P fasten 23 1 22 0 462 210 421 210;#P connect 12 0 1 0;#P connect 1 0 9 0;#P connect 22 0 17 1;#P connect 37 0 41 0;#P connect 41 1 38 0;#P connect 36 0 37 0;#P pop;