max v2;#N vpatcher 672 54 1281 508;#P button 16 180 15 0;#P window setfont Times 9.;#P window linecount 1;#P newex 16 226 33 1310729 del 10;#P newex 16 201 18 1310729 t b;#P newex 16 251 34 1310729 t open;#N comlet bang to open;#P inlet 16 161 15 0;#P newex 240 298 40 1310729 zl reg;#P newex 270 244 85 1310729 sprintf %s-temp.txt;#P window setfont "Sans Serif" 9.;#P message 155 200 14 196617 2;#P window setfont Times 9.;#P newex 179 216 71 1310729 gate 2 1;#P window setfont "Sans Serif" 9.;#P newex 370 244 62 196617 projectpath;#B color 6;#P newex 179 244 62 196617 projectpath;#B color 6;#P window setfont Times 9.;#P newex 370 299 47 1310729 tosymbol;#P newex 179 298 47 1310729 tosymbol;#P newex 370 325 57 1310729 prepend read;#P newex 179 325 61 1310729 prepend write;#P newex 201 25 122 1310729 r $1/storetemp;#B color 11;#P newex 426 87 45 1310729 loadbang;#P window setfont "Sans Serif" 9.;#P window linecount 3;#P comment 248 132 116 196617 read again without qlist trigger to remove path from qlist name;#P window linecount 1;#P newex 195 144 50 196617 deferlow;#P newex 426 165 51 196617 zl slice 1;#P newex 426 189 40 196617 itoa;#P newex 426 145 85 196617 substitute 47 45;#P newex 426 125 40 196617 atoi;#P window setfont Times 9.;#P newex 179 269 146 1310729 sprintf %sconfig/temp/%s-temp.txt;#P newex 370 194 18 1310729 t b;#P newex 370 269 146 1310729 sprintf %sconfig/temp/%s-temp.txt;#P newex 201 66 18 1310729 t b;#P newex 226 44 53 1310729 r storetemp;#B color 11;#N comlet pvar recall;#P inlet 526 21 15 0;#N comlet pvar store;#P inlet 160 68 15 0;#P newex 160 91 49 1310729 t b b b;#P newex 526 40 27 1310729 t b b;#P newex 71 398 41 1310729 onebang;#P message 426 107 56 1310729 $1;#P button 41 347 15 0;#N qlist;#P newobj 41 376 40 1310729 qlist;#P newex 55 172 185 1310729 tempconnectqlist $1 $2;#B color 6;#P button 198 110 15 0;#P window setfont "Sans Serif" 9.;#P window linecount 2;#P comment 22 34 134 196617 arg 1 : matrix prefix name \; arg 2 : coll matrix name \;;#P connect 34 0 38 0;#P connect 38 0 36 0;#P connect 36 0 37 0;#P connect 37 0 35 0;#P fasten 6 0 4 0 76 419 35 419 35 343 46 343;#P connect 25 0 3 0;#P fasten 2 0 3 0 60 368 46 368;#P connect 4 0 3 0;#P fasten 35 0 3 0 21 371 46 371;#P lcolor 6;#P connect 24 0 3 0;#P connect 1 0 2 0;#P connect 3 2 6 0;#P fasten 7 1 6 1 548 390 107 390;#P connect 3 2 31 0;#P fasten 12 0 8 0 206 87 165 87;#P connect 9 0 8 0;#P connect 31 0 30 0;#P connect 30 0 28 0;#P connect 28 0 15 0;#P connect 15 0 26 0;#P connect 26 0 24 0;#P connect 33 0 24 0;#P connect 8 0 20 0;#P connect 8 2 1 0;#P connect 11 0 12 0;#P connect 23 0 12 0;#P fasten 8 1 30 1 184 182 245 182;#P connect 30 1 33 0;#P connect 18 0 32 0;#P connect 32 0 33 1;#P connect 18 0 15 1;#P connect 20 0 14 0;#P fasten 7 0 14 0 531 61 375 61;#P connect 14 0 29 0;#P connect 29 0 13 0;#P connect 13 0 27 0;#P connect 27 0 25 0;#P connect 22 0 5 0;#P connect 5 0 16 0;#P connect 16 0 17 0;#P connect 17 0 19 0;#P fasten 19 1 18 0 472 185 431 185;#P connect 18 0 13 1;#P connect 10 0 7 0;#P pop;