max v2;#N vpatcher 40 55 394 309;#P window setfont Times 9.;#P newex 166 50 18 1310729 t b;#P newex 166 30 53 1310729 r storetemp;#B color 11;#P newex 63 141 34 1310729 t open;#N comlet bang to open;#P inlet 63 123 15 0;#N comlet pvar recall;#P inlet 299 30 15 0;#N comlet pvar store;#P inlet 120 30 15 0;#P newex 120 50 27 1310729 b;#P newex 299 50 18 1310729 t b;#P newex 56 191 41 1310729 onebang;#P newex 148 141 98 1310729 sprintf %s %s-temp.txt;#P message 195 100 102 1310729 read $1;#P newex 195 68 43 1310729 loadbang;#P message 148 119 100 1310729 write $1;#P button 26 140 15 0;#N qlist;#X append $1-freq 252. \; $1-gain -6. \; $1-gainenable 1 \; $1-q 0.53 \;;#P newobj 26 169 40 1310729 qlist;#P newex 40 102 80 1310729 tempqlist $1;#B color 6;#P button 137 71 15 0;#P fasten 8 0 3 0 61 212 20 212 20 136 31 136;#P connect 14 0 2 0;#P fasten 7 0 2 0 153 163 31 163;#P connect 3 0 2 0;#P fasten 1 0 2 0 45 163 31 163;#P connect 0 0 1 0;#P connect 2 2 8 0;#P connect 13 0 14 0;#P fasten 9 0 8 1 304 187 92 187;#P connect 11 0 10 0;#P connect 10 1 0 0;#P fasten 10 0 4 0 125 101 153 101;#P fasten 16 0 4 0 171 93 153 93;#P connect 4 0 7 0;#P fasten 6 0 7 0 200 137 153 137;#P connect 15 0 16 0;#P connect 5 0 6 0;#P fasten 9 0 6 0 304 92 200 92;#P connect 12 0 9 0;#P pop;