max v2;#N vpatcher 463 249 1062 694;#P origin 0 -13;#P window setfont Times 9.;#P window linecount 1;#P newex 222 307 40 1310729 zl reg;#P newex 252 253 85 1310729 sprintf %s-temp.txt;#P window setfont "Sans Serif" 9.;#P message 134 189 14 196617 2;#P window setfont Times 9.;#P newex 161 205 71 1310729 gate 2 1;#P button 529 39 15 0;#P button 174 53 15 0;#P newex 66 226 122 1310729 tempqlistmap $1;#B color 6;#P newex 373 253 54 1310729 projectpath;#B color 6;#P newex 373 307 47 1310729 tosymbol;#P newex 161 307 47 1310729 tosymbol;#P newex 161 253 54 1310729 projectpath;#B color 6;#P newex 373 335 57 1310729 prepend read;#P newex 161 335 61 1310729 prepend write;#P button 11 94 15 0;#P newex 11 140 33 1310729 del 10;#P newex 11 115 18 1310729 t b;#P newex 230 15 122 1310729 r $1/storetemp;#B color 11;#P window setfont "Sans Serif" 9.;#P newex 184 158 50 196617 deferlow;#P newex 417 176 51 196617 zl slice 1;#P newex 417 200 40 196617 itoa;#P newex 417 156 85 196617 substitute 47 45;#P newex 417 136 40 196617 atoi;#P window setfont Times 9.;#P newex 161 281 146 1310729 sprintf %sconfig/temp/%s-temp.txt;#P newex 373 196 18 1310729 t b;#P newex 373 281 146 1310729 sprintf %sconfig/temp/%s-temp.txt;#P newex 174 78 18 1310729 t b;#P newex 174 15 53 1310729 r storetemp;#B color 11;#P newex 11 165 34 1310729 t open;#N comlet bang to open;#P inlet 11 75 15 0;#N comlet pvar recall;#P inlet 529 21 15 0;#N comlet pvar store;#P inlet 133 80 15 0;#P newex 133 103 67 1310729 t b b b;#P newex 529 57 27 1310729 t b b;#P newex 67 388 41 1310729 onebang;#P message 417 118 56 1310729 $1;#P newex 417 94 45 1310729 loadbang;#P button 37 337 15 0;#N qlist;#P newobj 37 366 40 1310729 qlist;#P button 189 123 15 0;#P window setfont "Sans Serif" 9.;#P window linecount 3;#P comment 236 141 116 196617 read again without qlist trigger to remove path from qlist name;#P connect 11 0 26 0;#P connect 26 0 24 0;#P connect 24 0 25 0;#P connect 25 0 12 0;#P fasten 6 0 3 0 72 409 31 409 31 333 42 333;#P fasten 28 0 2 0 378 360 42 360;#P fasten 33 0 2 0 71 360 42 360;#P fasten 12 0 2 0 16 356 42 356;#P lcolor 6;#P connect 3 0 2 0;#P fasten 27 0 2 0 166 360 42 360;#P connect 1 0 33 0;#P connect 2 2 6 0;#P fasten 7 1 6 1 551 383 103 383;#P fasten 14 0 8 0 179 99 138 99;#P connect 9 0 8 0;#P connect 2 2 37 0;#P connect 37 0 36 0;#P connect 36 0 29 0;#P connect 29 0 17 0;#P connect 17 0 30 0;#P connect 30 0 27 0;#P connect 39 0 27 0;#P connect 23 0 34 0;#P connect 13 0 34 0;#P connect 34 0 14 0;#P connect 8 0 22 0;#P connect 8 2 1 0;#P fasten 8 1 36 1 166 187 227 187;#P connect 36 1 39 0;#P connect 20 0 38 0;#P connect 38 0 39 1;#P connect 20 0 17 1;#P fasten 7 0 16 0 534 79 378 79;#P connect 22 0 16 0;#P connect 16 0 32 0;#P connect 32 0 15 0;#P connect 15 0 31 0;#P connect 31 0 28 0;#P connect 4 0 5 0;#P connect 5 0 18 0;#P connect 18 0 19 0;#P connect 19 0 21 0;#P fasten 19 1 20 0 497 196 422 196;#P fasten 21 1 20 0 463 196 422 196;#P connect 20 0 15 1;#P connect 10 0 35 0;#P connect 35 0 7 0;#P pop;