max v2;#N vpatcher 274 78 669 437;#P window setfont "Sans Serif" 9.;#P window linecount 1;#P comment 164 259 109 196617 contact@tommays.net;#P comment 164 246 100 196617 patch by Tom Mays;#P newex 33 156 65 196617 route symbol;#P message 33 202 18 196617 \\\;;#P newex 33 252 75 196617 prepend append;#P newex 33 181 35 196617 t b l;#P newex 71 181 65 196617 route symbol;#P outlet 33 300 15 0;#P newex 33 65 289 196617 b;#P message 312 110 22 196617 set;#P button 33 47 15 0;#N comlet bang to make qlist;#P inlet 33 28 15 0;#P message 33 106 31 196617 dump;#N coll $1/state 1;#P newobj 33 133 125 196617 coll $1/state 1;#B color 5;#P window linecount 2;#P comment 163 129 134 196617 arg 1 : coll name for variable values;#P connect 3 0 4 0;#P connect 4 0 6 0;#P connect 6 0 2 0;#P connect 2 0 1 0;#P connect 1 0 12 0;#P connect 12 1 9 0;#P connect 12 0 9 0;#P connect 9 0 11 0;#P connect 8 0 10 0;#P connect 9 1 10 0;#P connect 11 0 10 0;#P connect 10 0 7 0;#P fasten 5 0 7 0 317 287 38 287;#P connect 1 1 8 0;#P connect 6 1 5 0;#P pop;