max v2;#N vpatcher 332 450 658 775;#P origin 3 0;#P window setfont "Sans Serif" 9.;#P window linecount 1;#P comment 137 229 109 196617 contact@tommays.net;#P comment 137 216 100 196617 patch by Tom Mays;#P newex 47 143 65 196617 route symbol;#P message 47 189 18 196617 \\\;;#P newex 47 247 75 196617 prepend append;#P newex 47 168 35 196617 t b l;#P newex 85 168 65 196617 route symbol;#P outlet 47 287 15 0;#P button 47 67 15 0;#N comlet bang to make qlist;#P inlet 47 43 15 0;#P message 47 93 31 196617 dump;#N coll $1/state 1;#P newobj 47 120 125 196617 coll $1/state 1;#B color 5;#P window linecount 2;#P comment 177 116 134 196617 arg 1 : coll name for variable values;#P connect 3 0 4 0;#P connect 4 0 2 0;#P connect 2 0 1 0;#P connect 1 0 10 0;#P connect 10 0 7 0;#P connect 10 1 7 0;#P connect 7 0 9 0;#P connect 9 0 8 0;#P connect 7 1 8 0;#P connect 6 0 8 0;#P connect 8 0 5 0;#P connect 1 1 6 0;#P pop;