max v2;#N vpatcher 35 52 797 688;#P window setfont "Sans Serif" 9.;#P window linecount 1;#P newex 53 266 51 196617 zl ecils 4;#P newex 378 175 40 196617 atoi;#P message 378 156 116 196617 $1;#P message 480 93 33 196617 dump;#P newex 224 68 394 196617 t b b b b;#N comlet bang to make qlist;#P inlet 224 25 15 0;#N coll $1/state 1;#P newobj 426 121 159 196617 coll $1/state 1;#B color 5;#P newex 55 488 36 196617 zl reg;#P newex 35 458 30 196617 t s b;#N coll empty 1;#P newobj 17 431 66 196617 coll empty 1;#B color 5;#P newex 37 410 110 196617 sprintf refer %s/data;#P newex 17 385 70 196617 t dump s;#P newex 17 342 29 196617 gate;#P newex 53 245 41 196617 t l 0;#P newex 94 312 21 196617 t 1;#P newex 94 291 109 196617 match 47 109 97 112;#P newex 36 224 27 196617 t l l;#P newex 17 363 40 196617 itoa;#N coll empty 1;#P newobj 665 155 66 196617 coll empty 1;#B color 5;#P message 593 156 65 196617 refer empty;#P button 224 46 15 0;#P newex 205 460 65 196617 route symbol;#P message 205 531 18 196617 \\\;;#P newex 205 562 75 196617 prepend append;#P newex 205 508 35 196617 t b l;#P newex 249 505 65 196617 route symbol;#P message 608 121 22 196617 set;#P outlet 205 593 15 0;#P newex 205 346 46 196617 t dump l;#N coll empty 1;#P newobj 205 414 66 196617 coll empty 1;#B color 5;#P newex 240 389 114 196617 sprintf refer %s/state;#P newex 241 367 40 196617 itoa;#P newex 205 324 29 196617 gate;#P newex 265 252 29 196617 t l 0;#P newex 265 299 21 196617 t 1;#P newex 265 276 94 196617 match 47 115 119;#P newex 224 231 51 196617 zl ecils 3;#P newex 224 210 40 196617 atoi;#P newex 224 161 32 196617 sel 1;#P newex 224 182 36 196617 zl reg;#P newex 283 143 69 196617 route symbol;#P newex 224 141 27 196617 > 0;#P message 224 93 33 196617 dump;#N coll $1/switchstate 1;#P newobj 224 121 189 196617 coll $1/switchstate 1;#B color 5;#P comment 308 47 109 196617 contact@tommays.net;#P comment 308 34 100 196617 patch by Tom Mays;#P window linecount 2;#P comment 457 34 134 196617 arg 1 : coll name for variable values;#P window linecount 8;#P comment 117 80 100 196617 the switchstate part is for when module has submodules. If there are no submodules there will be no switchstate and the dump will do nothing.;#P connect 34 1 35 0;#P connect 33 0 35 0;#P connect 35 0 30 0;#P connect 30 0 36 0;#P connect 28 0 38 0;#P lcolor 1;#P connect 36 0 38 0;#P connect 37 0 38 0;#P connect 38 1 39 0;#P fasten 11 0 31 0 229 256 124 256 124 217 41 217;#P connect 46 0 31 0;#P lcolor 1;#P connect 31 0 35 1;#P connect 36 1 37 0;#P connect 31 1 34 0;#P connect 34 0 47 0;#P connect 39 1 40 0;#P connect 36 1 40 1;#P connect 47 1 32 0;#P connect 32 0 33 0;#P connect 13 0 15 0;#P connect 14 1 15 0;#P connect 15 0 19 0;#P connect 28 0 18 0;#P lcolor 1;#P connect 17 0 18 0;#P connect 19 0 18 0;#P fasten 38 0 26 0 22 453 210 453;#P lcolor 7;#P connect 18 0 26 0;#P fasten 41 0 26 0 431 447 210 447;#P connect 26 0 23 0;#P connect 26 1 23 0;#P connect 23 0 25 0;#P connect 25 0 24 0;#P connect 23 1 24 0;#P connect 22 0 24 0;#P connect 40 0 24 0;#P connect 24 0 20 0;#P fasten 21 0 20 0 613 585 210 585;#P connect 42 0 27 0;#P connect 27 0 43 0;#P connect 43 0 5 0;#P connect 5 0 4 0;#P connect 4 0 6 0;#P connect 6 0 9 0;#P connect 9 0 8 0;#P connect 8 0 10 0;#P connect 10 0 11 0;#P connect 11 0 15 1;#P connect 16 0 17 0;#P connect 19 1 16 0;#P connect 18 1 22 0;#P connect 39 0 22 0;#P fasten 41 1 22 0 480 498 254 498;#P connect 7 0 8 1;#P connect 11 1 14 0;#P connect 14 0 12 0;#P connect 12 0 13 0;#P connect 4 1 7 0;#P fasten 43 1 45 0 357 100 383 100;#P connect 45 0 46 0;#P connect 44 0 41 0;#P connect 43 2 44 0;#P fasten 43 3 28 0 613 110 598 110;#P connect 43 3 21 0;#P pop;