max v2;#N vpatcher 377 44 1264 362;#P origin 0 10;#P window setfont "Sans Serif" 9.;#P window linecount 2;#P message 734 58 60 196617 \; $1/print 1;#P window linecount 1;#N vpatcher 10 59 610 459;#P window setfont "Sans Serif" 9.;#P window linecount 1;#P newex 50 50 84 196617 pak position f f f;#P window linecount 2;#P newex 54 73 346 196617 jit.gl.gridshape msd @depth_enable 1 @smooth_shading 1 @lighting_enable 1 @shape sphere @scale 0.03 0.03 0.03 @color 0. 0. 1. 1.;#P inlet 74 30 15 0;#P inlet 98 30 15 0;#P inlet 122 30 15 0;#P connect 4 0 3 0;#P connect 2 0 4 1;#P connect 1 0 4 2;#P connect 0 0 4 3;#P pop;#P newobj 787 261 46 196617 p;#N vpatcher 10 59 610 459;#P window setfont "Sans Serif" 9.;#P window linecount 1;#P newex 50 50 84 196617 pak position f f f;#P window linecount 2;#P newex 54 73 346 196617 jit.gl.gridshape msd @depth_enable 1 @smooth_shading 1 @lighting_enable 1 @shape sphere @scale 0.03 0.03 0.03 @color 0. 0. 1. 1.;#P inlet 74 30 15 0;#P inlet 98 30 15 0;#P inlet 122 30 15 0;#P connect 4 0 3 0;#P connect 2 0 4 1;#P connect 1 0 4 2;#P connect 0 0 4 3;#P pop;#P newobj 687 261 46 196617 p;#N vpatcher 10 59 610 459;#P window setfont "Sans Serif" 9.;#P window linecount 1;#P newex 50 50 84 196617 pak position f f f;#P window linecount 2;#P newex 54 73 346 196617 jit.gl.gridshape msd @depth_enable 1 @smooth_shading 1 @lighting_enable 1 @shape sphere @scale 0.03 0.03 0.03 @color 0. 0. 1. 1.;#P inlet 74 30 15 0;#P inlet 98 30 15 0;#P inlet 122 30 15 0;#P connect 4 0 3 0;#P connect 2 0 4 1;#P connect 1 0 4 2;#P connect 0 0 4 3;#P pop;#P newobj 587 261 46 196617 p;#N vpatcher 10 59 610 459;#P window setfont "Sans Serif" 9.;#P window linecount 1;#P newex 50 50 84 196617 pak position f f f;#P window linecount 2;#P newex 54 73 346 196617 jit.gl.gridshape msd @depth_enable 1 @smooth_shading 1 @lighting_enable 1 @shape sphere @scale 0.03 0.03 0.03 @color 0. 0. 1. 1.;#P inlet 74 30 15 0;#P inlet 98 30 15 0;#P inlet 122 30 15 0;#P connect 4 0 3 0;#P connect 2 0 4 1;#P connect 1 0 4 2;#P connect 0 0 4 3;#P pop;#P newobj 487 261 46 196617 p;#N vpatcher 20 74 620 474;#P window setfont "Sans Serif" 9.;#P window linecount 1;#P newex 51 50 84 196617 pak position f f f;#P window linecount 2;#P newex 50 78 346 196617 jit.gl.gridshape msd @depth_enable 1 @smooth_shading 1 @lighting_enable 1 @shape cube @scale 0.08 0.08 0.08 @color 0.5 0.5 0.5 1.;#P inlet 75 30 15 0;#P inlet 99 30 15 0;#P inlet 123 30 15 0;#P connect 4 0 3 0;#P connect 2 0 4 1;#P connect 1 0 4 2;#P connect 0 0 4 3;#P pop;#P newobj 297 261 46 196617 p;#N vpatcher 10 59 610 459;#P window setfont "Sans Serif" 9.;#P window linecount 1;#P newex 50 50 84 196617 pak position f f f;#P window linecount 2;#P newex 54 73 346 196617 jit.gl.gridshape msd @depth_enable 1 @smooth_shading 1 @lighting_enable 1 @shape sphere @scale 0.03 0.03 0.03 @color 0. 0. 1. 1.;#P inlet 74 30 15 0;#P inlet 98 30 15 0;#P inlet 122 30 15 0;#P connect 4 0 3 0;#P connect 2 0 4 1;#P connect 1 0 4 2;#P connect 0 0 4 3;#P pop;#P newobj 387 261 46 196617 p;#P window setfont "Sans Serif" 14.;#N vpatcher 10 59 652 337;#P window setfont "Sans Serif" 10.;#P window linecount 0;#P newex 50 78 43 196618 t 1 b 0;#P newex 82 149 127 196618 s $1/sw;#B color 12;#P window setfont "Sans Serif" 9.;#N vpatcher 574 356 938 747;#P origin 0 11;#P window setfont "Sans Serif" 10.;#P window linecount 0;#P newex 22 85 39 196618 t open;#P newex 18 46 108 196618 route open;#P newex 118 72 52 196618 t dump b;#P newex 162 101 58 196618 onebang 1;#P window setfont "Sans Serif" 9.;#P comment 75 31 100 196617 init list :;#P inlet 18 26 15 0;#P window setfont "Sans Serif" 10.;#P newex 81 297 36 196618 print;#P window linecount 5;#P message 162 127 78 196618 1 0 1 0.2 0.2 \, 2 1 2 0.2 0.2 \, 3 2 3 0.2 0.2 \, 4 3 4 0.2 0.2 \, 5 4 5 0.2 0.2 \,;#P window linecount 1;#P comment 107 259 92 196618 \$1 : Id (symbol);#P comment 106 279 142 196618 \$2 : fixed or mobile (0/1);#P comment 106 297 57 196618 \$3 : mass;#P comment 106 315 148 196618 \$4 \, \$5 \, \$8 : initial position;#P newex 95 207 147 196618 unpack i i f f;#P newex 50 184 55 196618 t b l;#P newex 50 208 34 196618 i;#N coll $1/link-init 1;#P newobj 50 159 108 196618 coll $1/link-init 1;#B color 5;#P newex 50 233 191 196618 sprintf link link.%ld %ld %ld %f %f;#P outlet 50 257 15 0;#P connect 12 0 16 0;#P connect 16 0 17 0;#P connect 10 0 2 0;#P connect 17 0 2 0;#P connect 15 0 2 0;#P connect 2 0 4 0;#P connect 4 0 3 0;#P connect 3 0 1 0;#P connect 1 0 0 0;#P connect 2 1 3 1;#P connect 1 0 11 0;#P connect 4 1 5 0;#P connect 5 0 1 1;#P connect 16 1 15 0;#P connect 5 1 1 2;#P connect 15 1 14 0;#P connect 14 0 10 0;#P connect 5 2 1 3;#P connect 5 3 1 4;#P pop;#P newobj 152 105 39 196617 p links;#P window setfont "Sans Serif" 10.;#P message 160 78 32 196618 open;#P window setfont "Sans Serif" 9.;#N vpatcher 463 358 1056 768;#P origin 49 0;#P window setfont "Sans Serif" 10.;#P window linecount 0;#P newex 15 78 39 196618 t open;#P newex 22 50 61 196618 route open;#P newex 70 77 52 196618 t dump b;#P comment 58 270 92 196618 \$1 : Id (symbol);#P comment 57 290 142 196618 \$2 : fixed or mobile (0/1);#P comment 57 308 57 196618 \$3 : mass;#P comment 57 326 148 196618 \$4 \, \$5 \, \$8 : initial position;#P window linecount 1;#P message 113 129 407 196618 1 1 100 0.2 0 0 \, 2 1 100 0 0 0 \, 3 1 100 0 0 0 \, 4 1 100 0 0 0 \, 5 1 100 0 0 0 \,;#P newex 36 218 153 196618 unpack i i f f f;#P newex 1 195 45 196618 t b l;#P newex 1 219 34 196618 i;#N coll $1/mass-init 1;#P newobj 1 170 112 196618 coll $1/mass-init 1;#B color 5;#P newex 1 244 216 196618 sprintf mass mass.%ld %ld %ld %f %f %f;#P newex 113 105 58 196618 onebang 1;#P window setfont "Sans Serif" 9.;#P comment 116 50 100 196617 init list :;#P inlet 11 19 15 0;#P outlet 1 268 15 0;#P connect 9 0 5 0;#P connect 14 0 5 0;#P connect 16 0 5 0;#P connect 5 0 7 0;#P connect 7 0 6 0;#P connect 6 0 4 0;#P connect 4 0 0 0;#P connect 15 0 16 0;#P connect 1 0 15 0;#P connect 5 1 6 1;#P connect 7 1 8 0;#P connect 8 0 4 1;#P connect 15 1 14 0;#P connect 8 1 4 2;#P connect 14 1 3 0;#P connect 3 0 9 0;#P connect 8 2 4 3;#P connect 8 3 4 4;#P connect 8 4 4 5;#P pop;#P newobj 348 103 51 196617 p masses;#P window setfont "Sans Serif" 10.;#P message 359 78 32 196618 open;#P newex 544 186 34 196618 s $1;#B color 12;#P message 544 78 35 196618 reset;#P message 250 78 95 196618 Xmax 5 \, Xmin -5;#P window linecount 2;#P message 446 78 61 196618 mass fix 0 0 0.5 0 0;#P window linecount 1;#P newex 54 50 501 196618 t b b b b b b;#P inlet 54 30 15 0;#P connect 1 0 11 0;#P connect 0 0 1 0;#P connect 11 2 10 0;#P connect 11 0 10 0;#P lcolor 2;#P connect 8 0 9 0;#P connect 1 1 9 0;#P connect 1 2 3 0;#P connect 6 0 7 0;#P connect 1 3 7 0;#P connect 1 4 2 0;#P connect 1 5 4 0;#P fasten 4 0 5 0 549 181 549 181;#P fasten 3 0 5 0 255 134 549 134;#P fasten 2 0 5 0 451 117 549 117;#P fasten 9 0 5 0 157 142 549 142;#P fasten 11 1 5 0 71 174 549 174;#P fasten 7 0 5 0 353 126 549 126;#P pop;#P newobj 671 138 107 196622 p init & compil;#B color 6;#N vpatcher 10 59 490 272;#P window setfont "Sans Serif" 10.;#P newex 280 118 29 196618 gate;#P newex 50 61 329 196618 makeparam $1/print $1 t 0;#B color 12;#P newex 50 118 29 196618 gate;#P newex 50 144 129 196618 print $1/a_;#B color 14;#P newex 280 144 157 196618 print $1/b_;#B color 14;#P inlet 69 95 15 0;#P inlet 299 95 15 0;#P connect 5 0 4 0;#P connect 4 0 3 0;#P connect 1 0 4 1;#P fasten 5 0 6 0 55 88 285 88;#P connect 6 0 2 0;#P connect 0 0 6 1;#P pop;#P newobj 496 199 56 196622 p print;#B color 6;#P window setfont "Sans Serif" 9.;#P hidden newex 572 45 48 196617 loadbang;#P window setfont "Sans Serif" 10.;#P window linecount 2;#P message 209 125 68 196618 bang \, massesPosL;#P window linecount 1;#P newex 458 138 104 196618 s /tapemovie/clock;#B color 12;#P window setfont "Sans Serif" 9.;#P flonum 180 178 35 9 0 0 0 3 0 0 0 221 221 221 222 222 222 0 0 0;#P flonum 110 162 35 9 0 0 0 3 0 0 0 221 221 221 222 222 222 0 0 0;#P flonum 68 135 35 9 0 0 0 3 0 0 0 221 221 221 222 222 222 0 0 0;#P window setfont "Sans Serif" 10.;#P message 368 97 40 196618 infosL;#P newex 136 248 91 196618 prepend posZ fix;#P newex 114 215 91 196618 prepend posY fix;#N vpatcher 30 126 985 704;#P origin 0 24;#P window setfont "Sans Serif" 10.;#P window linecount 1;#P comment 7 -22 105 196618 CREATION Messages;#P message 32 80 35 196618 reset;#P comment 245 144 61 196618 Add a mass;#P comment 70 167 92 196618 \$1 : Id (symbol);#P comment 69 187 142 196618 \$2 : fixed or mobile (0/1);#P comment 69 205 57 196618 \$3 : mass;#P message 32 253 79 196618 deleteMass \$1;#P comment 171 252 173 196618 Delete a mass and associated links;#P comment 66 278 128 196618 \$1 : Creation No of mass;#P comment 7 113 50 196618 Masses :;#P comment 7 50 42 196618 Reset :;#P comment 100 81 236 196618 Delete all masses \, links and internal variables;#P comment 6 305 43 196618 Links :;#P comment 62 364 92 196618 \$1 : Id (symbol);#P comment 62 417 71 196618 \$4 : rigidity;#P message 30 518 77 196618 deleteLink \$1;#P comment 164 518 71 196618 Delete a link;#P comment 57 546 124 196618 \$1 : Creation No of link;#P comment 62 364 92 196618 \$1 : Id (symbol);#P comment 62 417 71 196618 \$4 : rigidity;#P comment 62 382 149 196618 \$2 : creation No/Id of mass1;#P comment 62 400 149 196618 \$3 : creation No/Id of mass2;#P comment 281 339 66 196618 Add link(s);#P comment 62 435 73 196618 \$5 : damping;#P window linecount 2;#P comment 10 4 288 196618 Creation messages are used to define the structure of the model. Messages create links and masses or destroy them.;#P window linecount 1;#P message 30 338 178 196618 link \$1 \$2 \$3 \$4 \$5 ($6 \$7 \$8);#P comment 59 453 189 196618 ($6) : Power of the rigidity distance;#P comment 59 472 160 196618 ($7) : minimum lenght of link;#P comment 59 489 161 196618 ($8) : maximum lenght of link;#P button 461 -21 15 0;#P button 461 548 15 0;#P comment 519 173 92 196618 \$1 : Id (symbol);#P comment 519 226 71 196618 \$4 : rigidity;#P comment 519 173 92 196618 \$1 : Id (symbol);#P comment 519 226 71 196618 \$4 : rigidity;#P comment 519 191 149 196618 \$2 : creation No/Id of mass1;#P comment 519 209 149 196618 \$3 : creation No/Id of mass2;#P comment 519 244 73 196618 \$5 : damping;#P comment 799 145 117 196618 Add tangential link(s);#P comment 516 282 189 196618 ($8) : Power of the rigidity distance;#P comment 516 301 160 196618 ($9) : minimum lenght of link;#P comment 516 318 168 196618 ($10) : maximum lenght of link;#P comment 520 377 92 196618 \$1 : Id (symbol);#P comment 520 430 71 196618 \$4 : rigidity;#P comment 520 377 92 196618 \$1 : Id (symbol);#P comment 520 430 71 196618 \$4 : rigidity;#P comment 520 395 149 196618 \$2 : creation No/Id of mass1;#P comment 520 413 149 196618 \$3 : creation No/Id of mass2;#P comment 520 448 73 196618 \$5 : damping;#P comment 517 486 189 196618 ($8) : Power of the rigidity distance;#P comment 517 505 160 196618 ($9) : minimum lenght of link;#P comment 517 522 168 196618 ($10) : maximum lenght of link;#P comment 485 51 85 196618 Oriented links :;#P comment 801 344 104 196618 Add normal link(s);#P message 32 143 136 196618 mass \$1 \$2 \$3 \$4 \$5 \$6;#P message 489 144 254 196618 tLink \$1 \$2 \$3 \$4 \$5 \$6 \$7 \$8 ($9 \$10 \\$11);#P message 491 344 256 196618 nLink \$1 \$2 \$3 \$4 \$5 \$6 \$7 \$8 ($9 \$10 \\$11);#P comment 519 467 144 196618 \$6 \, \$7 \, \$8 : normal vector;#P comment 518 263 157 196618 \$6 \, \$7 \, \$8 : tangential vector;#P comment 69 223 148 196618 \$4 \, \$5 \, \$8 : initial position;#P window linecount 3;#P comment 487 78 330 196618 In 2D (and 3D) there are two specials links : oriented links. They works as general links excepts their calculation is made following a vector for tangentials links or a plane for normals links.;#P connect 31 0 30 0;#P pop;#P newobj 27 44 146 196618 patcher creation________;#N vpatcher 354 125 836 818;#P window setfont "Sans Serif" 10.;#P comment 7 62 50 196618 Masses :;#P comment 6 396 43 196618 Links :;#P comment 7 2 152 196618 DYNAMIC SETTINGS Messages;#P message 30 88 66 196618 posX \$1 \$2;#P comment 190 148 117 196618 Add force on mass(es);#P message 30 151 75 196618 forceX \$1 \$2;#P comment 192 232 59 196618 \$1 : Value;#P comment 193 107 121 196618 \$1 : Id (symbol) or No;#P comment 193 165 121 196618 \$1 : Id (symbol) or No;#P message 30 215 52 196618 Xmin \$1;#P message 88 215 53 196618 Xmax \$1;#P message 30 278 74 196618 setMobile \$1;#P message 30 299 67 196618 setFixed \$1;#P comment 193 89 155 196618 Set position of fixed mass(es);#P comment 193 125 59 196618 \$2 : Value;#P comment 193 183 59 196618 \$2 : Value;#P comment 189 216 265 196618 Set minimimum and maximum position of all masses;#P comment 189 278 141 196618 Set mass to mobile or fixed;#P message 29 484 65 196618 setD \$1 \$2;#P comment 184 470 82 196618 \$2 : New value;#P message 29 433 65 196618 setK \$1 \$2;#P comment 184 526 82 196618 \$2 : New value;#P comment 184 579 82 196618 \$2 : New value;#P comment 178 434 118 196618 Set rigidity of link(s);#P comment 178 490 120 196618 Set damping of link(s);#P message 29 539 64 196618 setL \$1 \$2;#P comment 178 543 144 196618 Set initial lenght of link(s);#P comment 184 452 121 196618 \$1 : Id (symbol) or No;#P comment 184 508 121 196618 \$1 : Id (symbol) or No;#P comment 184 561 121 196618 \$1 : Id (symbol) or No;#P comment 192 295 121 196618 \$1 : Id (symbol) or No;#P comment 10 25 251 196618 Dynamic settings messages allows the user to redefine internal parameters of links and masses.;#P message 30 329 107 196618 grabMass \$1 \$2 \$3;#P comment 187 329 99 196618 Grab nearest mass;#P comment 192 345 93 196618 \$1 \, \$2 : position;#P comment 191 362 122 196618 \$3 : grab or not (0/1);#P message 30 234 52 196618 Ymin \$1;#P message 89 234 53 196618 Ymax \$1;#P message 30 107 66 196618 posY \$1 \$2;#P message 30 171 75 196618 forceY \$1 \$2;#P message 30 126 66 196618 posZ \$1 \$2;#P message 30 191 75 196618 forceZ \$1 \$2;#P message 30 253 52 196618 Zmin \$1;#P message 89 253 53 196618 Zmax \$1;#P pop;#P newobj 27 65 90 196618 patcher dynamic;#N vpatcher 382 95 1041 770;#P window setfont "Sans Serif" 10.;#P window linecount 0;#P comment 7 74 53 196618 General :;#P comment 7 2 118 196618 ATTRIBUTES Messages;#P comment 7 137 40 196618 Lists :;#P message 33 104 40 196618 infosL;#P comment 136 104 239 196618 Get infos on all masses and links on right outlet;#P message 32 170 67 196618 massesPosL;#P message 31 255 82 196618 massesForcesL;#P comment 171 170 253 196618 Output all masses positions in a list on outlet No 1;#P comment 140 355 384 196618 \$1 : Attribute type ( massesPos / massesSpeeds / massesForces / linksPos );#P comment 140 330 209 196618 Get specific attribute on specific element;#P message 20 328 70 196618 get \$1 ($2);#P comment 7 290 55 196618 Specific :;#P window linecount 3;#P comment 140 425 299 196618 The get message return the asked attribute preceded by an identifier and the creation No of the element. The identifier is made of the asked parameter and the way you asked for it.;#P window linecount 1;#P comment 141 501 49 196618 message;#P comment 381 501 53 196618 response;#P comment 140 482 309 196618 Examples with 3 masses numbered 0 \, 1 and 2 and named mas:;#P window linecount 2;#P comment 15 30 371 196618 The attributes messages ask the object to output some of his internal parameters. They can be output by lists for positions and forces of masses.;#P window linecount 1;#P comment 171 256 291 196618 Output all forces applied on masses in a list on outlet No 1;#P window linecount 2;#P comment 140 392 247 196618 ($2) : - If not defined all the attributes are send for all the elements. - Ids or/and creations No;#P window linecount 1;#P comment 174 520 254 196618 [get massesPos( -----> [massesPos 0 x0 y0 z0(;#P comment 335 534 129 196618 [massesPos 2 x2 y2 z2(;#P comment 335 548 129 196618 [massesPos 1 x1 y1 z1(;#P comment 160 570 276 196618 [get massesPos 1( -----> [massesPosNo 1 x1 y1 z1(;#P comment 146 591 285 196618 [get massesPos mas( -----> [massesPosId 0 x0 y0 z0(;#P comment 335 606 138 196618 [massesPosId 2 x2 y2 z2(;#P comment 335 621 138 196618 [massesPosId 1 x1 y1 z1(;#P message 32 194 73 196618 massesPosXL;#P message 32 215 73 196618 massesPosYL;#P message 32 234 73 196618 massesPosZL;#P comment 171 215 250 196618 Output all masses x \, y or z in a list on outlet No 1;#P pop;#P newobj 27 86 141 196618 patcher attributes______;#P newex 74 201 91 196618 prepend posX fix;#P newex 65 246 34 196618 s $1;#B color 12;#P newex 272 74 135 196618 receive /tapemovie/clock;#B color 12;#P toggle 209 76 15 0;#P newex 209 99 73 196618 gate;#P newex 209 49 329 196618 makeswitch $1/sw $1 common_switchstate;#B color 12;#P window setfont "Sans Serif" 9.;#P message 618 116 35 196617 reset;#P window setfont "Sans Serif" 14.;#N vpatcher 685 546 1325 804;#P origin 33 32;#P window setfont "Sans Serif" 9.;#P window linecount 1;#P newex 167 217 328 196617 jit.window msd @depthbuffer 1 @size 400 400 @pos 10 40 @border 1;#P inlet 189 65 15 0;#P toggle 236 83 15 0;#P window linecount 0;#P message 236 101 46 196617 axes \$1;#P newex 50 98 36 196617 s cloc;#P inlet 13 32 15 0;#P message 147 104 34 196617 reset;#P window linecount 1;#P newex 147 121 378 196617 jit.gl.handle msd @depth_enable 1 @axes 1 @auto_rotate 1 @inherit_transform 1;#P newex 61 77 30 196617 s tic;#P newex 122 80 43 196617 s erase;#P user jit.fpsgui 110 165 60 196617 0;#P newex 12 51 58 196617 t b b erase;#P window linecount 2;#P newex 110 143 239 196617 jit.gl.render msd @lens_angle 53.14 @erase_color 0.9 0.9 0.9 1. @light_position 0.4 1.6 0.5 1.5;#P connect 7 0 1 0;#P connect 1 1 8 0;#P connect 1 1 4 0;#P connect 1 2 0 0;#P connect 5 0 0 0;#P fasten 1 0 0 0 17 123 115 123;#P connect 0 0 2 0;#P connect 1 2 3 0;#P connect 11 0 5 0;#P connect 6 0 5 0;#P fasten 9 0 5 0 241 120 152 120;#P connect 10 0 9 0;#P pop;#P newobj 572 138 71 196622 p render;#B color 6;#P toggle 572 66 20 0;#P window setfont "Sans Serif" 9.;#P newex 572 90 59 196617 qmetro 33;#P window setfont "Sans Serif" 10.;#P newex 298 95 65 196618 receive $1;#B color 12;#P newex 298 172 254 196618 msd3D;#P toggle 458 78 25 0;#P newex 458 108 56 196618 metro 10;#P button 671 107 22 0;#P window setfont "Sans Serif" 20.;#P comment 696 104 59 196628 HERE;#P window setfont "Sans Serif" 10.;#P newex 296 228 536 196618 unpack f f f f f f f f f f f f f f f f f f;#P newex 298 206 96 196618 route massesPosL;#P connect 17 0 16 0;#P connect 21 0 16 0;#P connect 22 0 16 0;#P connect 24 0 17 0;#P connect 25 0 21 0;#P connect 26 0 22 0;#P connect 12 0 14 0;#P connect 14 0 13 0;#P connect 13 0 28 0;#P connect 15 0 13 1;#P connect 0 0 1 0;#P connect 1 0 33 0;#P connect 7 0 6 0;#P connect 23 0 6 0;#P fasten 28 0 6 0 214 163 303 163;#P connect 6 0 0 0;#P connect 1 1 33 1;#P connect 1 2 33 2;#P connect 1 3 32 0;#P connect 1 4 32 1;#P connect 1 5 32 2;#P hidden connect 29 0 5 0;#P connect 5 0 4 0;#P connect 4 0 27 0;#P connect 1 6 34 0;#P fasten 6 0 30 0 303 195 501 195;#P connect 1 7 34 1;#P connect 1 8 34 2;#P connect 6 1 30 1;#P hidden connect 29 0 9 0;#P connect 9 0 8 0;#P connect 8 0 10 0;#P connect 1 9 35 0;#P connect 1 10 35 1;#P connect 1 11 35 2;#P connect 11 0 10 1;#P connect 3 0 31 0;#P connect 1 12 36 0;#P connect 1 13 36 1;#P connect 1 14 36 2;#P connect 1 15 37 0;#P connect 1 16 37 1;#P connect 1 17 37 2;#P pop;