max v2;#N vpatcher 410 173 1338 854;#P origin 0 -38;#P window setfont "Sans Serif" 10.;#P window linecount 5;#P message 613 185 161 196618 \; $1 mass pip 0 1 1 \; $1 mass pop 1 1 1 \; $1 Xmax 2. \, Xmin -2. \; $1 link souple 2 3 0.07 0.07 \;;#P window linecount 2;#P message 620 277 143 196618 \; $1 link souple 0 1 0.2 0.1;#P window linecount 1;#P newex 495 350 34 196618 s $1;#P newex 495 327 93 196618 prepend posX pip;#P window setfont "Sans Serif" 9.;#P flonum 495 306 35 9 0 0 0 3 0 0 0 221 221 221 222 222 222 0 0 0;#P window setfont "Sans Serif" 10.;#P window linecount 5;#P message 614 98 161 196618 \; $1 mass fix 0 1 1 \; $1 mass mob 1 1 1 \; $1 Xmax 2. \, Xmin -2. \; $1 link souple 0 1 0.07 0.07 \;;#P window linecount 2;#P message 504 554 161 196618 \; $1 link souple 2 3 0.07 0.07 \;;#P window linecount 6;#P message 317 548 161 196618 \; $1 mass fix 0 1 1 \; $1 mass mob 1 1 1 \; $1 Xmax 2. \, Xmin -2. \; $1 link souple 0 1 0.07 0.07 \; $1 forceX mob 300 \;;#P message 711 457 161 196618 \; $1 mass fix 0 1 1 \; $1 mass mob 1 1 1 \; $1 Xmax 2. \, Xmin -2. \; $1 link souple 0 1 0.07 0.07 \; $1 forceX mob 300 \;;#P window setfont "Sans Serif" 9.;#P window linecount 1;#P hidden newex 506 462 96 196617 m_grid /grid.2 pop;#B color 14;#P flonum 704 419 35 9 0 0 0 3 0 0 0 221 221 221 222 222 222 0 0 0;#P flonum 640 414 35 9 0 0 0 3 0 0 0 221 221 221 222 222 222 0 0 0;#P user multiSlider 233 319 68 104 -2. 2. 1 2681 47 0 0 2 0 0 0;#M frgb 0 0 0;#M brgb 255 255 255;#M rgb2 127 127 127;#M rgb3 0 0 0;#M rgb4 37 52 91;#M rgb5 74 105 182;#M rgb6 112 158 18;#M rgb7 149 211 110;#M rgb8 187 9 201;#M rgb9 224 62 37;#M rgb10 7 114 128;#P user multiSlider 313 319 68 104 -2. 2. 1 2681 47 0 0 2 0 0 0;#M frgb 0 0 0;#M brgb 255 255 255;#M rgb2 127 127 127;#M rgb3 0 0 0;#M rgb4 37 52 91;#M rgb5 74 105 182;#M rgb6 112 158 18;#M rgb7 149 211 110;#M rgb8 187 9 201;#M rgb9 224 62 37;#M rgb10 7 114 128;#P window setfont "Sans Serif" 10.;#P window linecount 2;#P message 271 435 97 196618 \; /grid.1/pos/x \$1;#P message 271 474 97 196618 \; /grid.2/pos/x \$1;#P window setfont "Sans Serif" 9.;#P window linecount 1;#P hidden newex 506 439 96 196617 m_grid /grid.1 pop;#B color 14;#P window setfont "Sans Serif" 10.;#P newex 22 54 62 196618 t b 0;#P window setfont "Sans Serif" 9.;#P message 37 107 14 196617 1;#N qlist;#X append /#1 reset \; /test 1 -2. 2. 500 2000 50 100 \; /plane/init bang \; /plane2/init bang \;;#X append 100 \; /player/init bang \; 200 \; /grid.1/pos/x -0.622178 \; /grid.1/sw 1 \; /grid.1/drawto pop \; /grid.1/blend 1;#X append \; /grid.1/blendmode/src 6 \; /grid.1/blendmode/dst 7 \; /grid.1/pos/y -1.71 \; /grid.1/pos/z -8.51 \; /grid.1/rot/x 0. \; /grid.1/rot/y 0.;#X append \; /grid.1/rot/z 0. \; /grid.1/rot/angle 0. \; /grid.1/scale/x 1.33 \; /grid.1/scale/y 1. \; /grid.1/scale/z 1. \; /grid.1/color/red 1.;#X append \; /grid.1/color/green 0.61 \; /grid.1/color/blue 1. \; /grid.1/color/coef 1. \; /grid.1/color/alpha 1. \; /grid.1/layer 0 \; /grid.1/lighting 1;#X append \; /grid.1/rotxyz/x 0. \; /grid.1/rotxyz/y -2.26 \; /grid.1/rotxyz/z 0. \; /grid.1/dim/x 64 \; /grid.1/dim/y 48 \; /grid.1/shape sphere;#X append \; /grid.1/texture <none> \; /grid.2/pos/x -1.512105 \; /grid.2/sw 1 \; /grid.2/drawto pop \; /grid.2/blend 1 \; /grid.2/blendmode/src 6;#X append \; /grid.2/blendmode/dst 7 \; /grid.2/pos/y 1.7 \; /grid.2/pos/z -8.25 \; /grid.2/rot/x 0. \; /grid.2/rot/y 0. \; /grid.2/rot/z 0.;#X append \; /grid.2/rot/angle 0. \; /grid.2/scale/x 1.33 \; /grid.2/scale/y 1. \; /grid.2/scale/z 1. \; /grid.2/color/red 0.37 \; /grid.2/color/green 0.;#X append \; /grid.2/color/blue 0.88 \; /grid.2/color/coef 1. \; /grid.2/color/alpha 1. \; /grid.2/layer 0 \; /grid.2/lighting 1 \; /grid.2/rotxyz/x 0.;#X append \; /grid.2/rotxyz/y 0. \; /grid.2/rotxyz/z 0. \; /grid.2/dim/x 64 \; /grid.2/dim/y 48 \; /grid.2/shape sphere \; /grid.2/texture <none>;#X append \; $1 reset \; $1 mass fix 0 1 1 \; $1 mass mob 1 1 1 \;;#X append $1 Xmax 2. \, Xmin -2. \; $1 link souple 0 1 0.07 0.07 \; $1 forceX mob;#X append 300 \;;#P newobj 22 80 40 196617 qlist;#P window setfont "Sans Serif" 10.;#P newex 22 30 51 196618 loadbang;#P window setfont "Sans Serif" 9.;#N vpatcher 0 44 858 495;#P window setfont "Sans Serif" 10.;#P window linecount 1;#P newex 477 157 34 196618 s $1;#P newex 477 134 91 196618 prepend posX fix;#P window setfont "Sans Serif" 9.;#P flonum 477 113 35 9 0 0 0 3 0 0 0 221 221 221 222 222 222 0 0 0;#P window setfont "Sans Serif" 10.;#P newex 477 87 42 196618 line 0.;#P newex 290 63 198 196618 proc-randtransf /test /msd-fix/val 2;#P window linecount 2;#P message 228 225 120 196618 \; $1 Xmax 5. \, Xmin -5.;#P message 221 272 100 196618 \; $1 forceX mob 50;#P message 303 182 104 196618 \; $1 setD souple 0.3;#P message 303 148 94 196618 \; $1 setD souple 2;#P message 303 116 94 196618 \; $1 setD souple 1;#P message 188 182 104 196618 \; $1 setK souple 0.1;#P message 188 148 94 196618 \; $1 setK souple 2;#P message 188 116 94 196618 \; $1 setK souple 1;#P connect 8 1 9 0;#P connect 9 0 10 0;#P connect 10 0 11 0;#P connect 11 0 12 0;#P pop;#P newobj 99 42 45 196617 p stuffs;#P user jit.pwindow 199 12 322 242 0 1 0 0 1 0;#X name pop;#P hidden newex 93 62 52 196617 registers;#P hidden newex 438 370 43 196617 jit.qball;#P hidden toggle 438 321 15 0;#P hidden newex 438 347 55 196617 metro 20;#P hidden newex 438 401 50 196617 t b erase;#P hidden newex 438 494 83 196617 jit.gl.render pop;#P user multiSlider 74 460 142 83 -2. 2. 1 3449 47 0 0 2 0 0 0;#M frgb 0 0 0;#M brgb 255 255 255;#M rgb2 127 127 127;#M rgb3 0 0 0;#M rgb4 37 52 91;#M rgb5 74 105 182;#M rgb6 112 158 18;#M rgb7 149 211 110;#M rgb8 187 9 201;#M rgb9 224 62 37;#M rgb10 7 114 128;#P user multiSlider 74 542 142 83 -2. 2. 1 3449 47 0 0 2 0 0 0;#M frgb 0 0 0;#M brgb 255 255 255;#M rgb2 127 127 127;#M rgb3 0 0 0;#M rgb4 37 52 91;#M rgb5 74 105 182;#M rgb6 112 158 18;#M rgb7 149 211 110;#M rgb8 187 9 201;#M rgb9 224 62 37;#M rgb10 7 114 128;#P flonum 74 433 35 9 0 0 0 3 0 0 0 221 221 221 222 222 222 0 0 0;#P flonum 154 433 35 9 0 0 0 3 0 0 0 221 221 221 222 222 222 0 0 0;#N vpatcher 10 59 193 223;#P outlet 124 101 15 0;#P outlet 101 101 15 0;#P outlet 78 101 15 0;#P window setfont "Sans Serif" 10.;#P newex 32 73 103 196618 unpack f f f f f;#P newex 32 51 96 196618 route massesPosL;#P inlet 32 31 15 0;#P outlet 32 101 15 0;#P outlet 55 101 15 0;#P connect 2 0 3 0;#P connect 3 0 4 0;#P connect 4 0 1 0;#P connect 4 1 0 0;#P connect 4 2 5 0;#P connect 4 3 6 0;#P connect 4 4 7 0;#P pop;#P newobj 74 292 90 196617 p;#P user multiSlider 74 320 68 104 -2. 2. 1 2681 47 0 0 2 0 0 0;#M frgb 0 0 0;#M brgb 255 255 255;#M rgb2 127 127 127;#M rgb3 0 0 0;#M rgb4 37 52 91;#M rgb5 74 105 182;#M rgb6 112 158 18;#M rgb7 149 211 110;#M rgb8 187 9 201;#M rgb9 224 62 37;#M rgb10 7 114 128;#P user multiSlider 154 320 68 104 -2. 2. 1 2681 47 0 0 2 0 0 0;#M frgb 0 0 0;#M brgb 255 255 255;#M rgb2 127 127 127;#M rgb3 0 0 0;#M rgb4 37 52 91;#M rgb5 74 105 182;#M rgb6 112 158 18;#M rgb7 149 211 110;#M rgb8 187 9 201;#M rgb9 224 62 37;#M rgb10 7 114 128;#P window setfont "Sans Serif" 10.;#P newex 111 216 65 196618 receive $1;#P newex 74 261 256 196618 msd;#P toggle 74 127 25 0;#P newex 74 161 56 196618 metro 50;#P message 74 190 96 196618 bang \, massesPosL;#P newex 320 296 102 196618 print $1/dumpout;#P window linecount 2;#P message 632 66 54 196618 \; $1 reset;#P connect 22 0 25 0;#P connect 25 0 23 0;#P connect 23 1 24 0;#P connect 24 0 4 0;#P connect 25 1 4 0;#P connect 4 0 3 0;#P connect 3 0 2 0;#P connect 2 0 5 0;#P connect 6 0 5 0;#P connect 5 0 9 0;#P connect 9 0 8 0;#P connect 8 0 11 0;#P connect 11 0 13 0;#P connect 10 0 12 0;#P connect 9 1 7 0;#P connect 7 0 10 0;#P hidden connect 9 2 30 0;#P connect 7 0 28 0;#P connect 8 0 27 0;#P hidden connect 9 3 29 0;#P connect 5 1 1 0;#P hidden connect 4 0 17 0;#P hidden connect 17 0 16 0;#P hidden connect 16 0 18 0;#P hidden connect 18 0 15 0;#P hidden connect 15 1 14 0;#P hidden connect 15 0 14 0;#P connect 38 0 39 0;#P connect 39 0 40 0;#P connect 30 0 31 0;#P connect 29 0 32 0;#P pop;