max v2;#N vpatcher 85 44 1390 664;#P origin 0 29;#P window setfont "Sans Serif" 9.;#P window linecount 1;#P newex 346 241 30 196617 t b b;#P newex 791 287 100 196617 prepend blend_mode;#P newex 791 266 27 196617 pak;#P number 831 246 35 9 0 0 0 3 0 0 0 221 221 221 222 222 222 0 0 0;#P number 791 246 35 9 0 0 0 3 0 0 0 221 221 221 222 222 222 0 0 0;#P button 325 316 15 0;#P comment 959 299 84 196617 set blend amount;#P flonum 959 315 35 9 0 0 0 3 0 0 0 221 221 221 222 222 222 0 0 0;#P message 959 336 82 196617 color 1. 1. 1. \$1;#P comment 672 446 84 196617 set blend amount;#P flonum 672 462 35 9 0 0 0 3 0 0 0 221 221 221 222 222 222 0 0 0;#P message 672 483 82 196617 color 1. 1. 1. \$1;#P number 608 464 35 9 0 0 0 3 0 0 0 221 221 221 222 222 222 0 0 0;#P number 897 318 35 9 0 0 0 3 0 0 0 221 221 221 222 222 222 0 0 0;#P message 897 337 49 196617 layer \$1;#P message 608 483 49 196617 layer \$1;#P message 388 356 65 196617 dim 720 480;#P message 426 321 28 196617 read;#P message 491 321 27 196617 stop;#P message 457 321 31 196617 start;#P newex 363 381 105 196617 jit.qt.movie 640 480;#P comment 379 302 149 196617 ¥ read a movie and start metro.;#P toggle 806 317 15 0;#P message 806 335 82 196617 blend_enable \$1;#P message 743 298 33 196617 reset;#P newex 706 331 80 196617 jit.gl.handle foo;#P window linecount 2;#P newex 663 356 308 196617 jit.gl.videoplane foo @scale 1.333 1. 1. @blend_enable 1 @layer 4 @automatic 0;#P flonum 1099 174 35 9 0. 1. 3 3 0 0 0 221 221 221 222 222 222 0 0 0;#P window linecount 1;#P newex 1061 159 29 196617 * 0.;#P newex 1061 184 35 196617 * 40.;#P flonum 1061 137 35 9 0. 1. 3 3 0 0 0 221 221 221 222 222 222 0 0 0;#P window linecount 3;#P message 20 197 107 196617 jit.gl.render foo @blend_enable 1 @erase_color 0 0 0 1;#P window linecount 1;#P newex 953 167 100 196617 prepend blend_mode;#P newex 953 146 27 196617 pak;#P number 993 126 35 9 0 0 0 3 0 0 0 221 221 221 222 222 222 0 0 0;#P number 953 126 35 9 0 0 0 3 0 0 0 221 221 221 222 222 222 0 0 0;#P toggle 52 256 15 0;#P message 52 274 82 196617 blend_enable \$1;#P toggle 486 462 15 0;#P message 486 480 82 196617 blend_enable \$1;#P flonum 1043 83 35 9 0 0 0 3 0 0 0 221 221 221 222 222 222 0 0 0;#P message 1043 102 48 196617 alpha \$1;#P newex 1153 300 45 196617 s toslab;#P message 1153 283 98 196617 getparamtype alpha;#P message 1153 266 109 196617 getparamdefault alpha;#P message 1153 249 92 196617 getparamval alpha;#P newex 601 71 45 196617 r toslab;#P user gswitch2 264 85 39 32 1 0;#P flonum 472 153 35 9 0 0 0 3 0 0 0 221 221 221 222 222 222 0 0 0;#P flonum 327 152 35 9 0 0 0 3 0 0 0 221 221 221 222 222 222 0 0 0;#P flonum 404 153 35 9 0 0 0 3 0 0 0 221 221 221 222 222 222 0 0 0;#P message 472 172 69 196617 saturation \$1;#P message 327 172 70 196617 brightness \$1;#P message 404 172 61 196617 contrast \$1;#P newex 297 202 54 196617 jit.brcosa;#B color 5;#P newex 1153 228 45 196617 s toslab;#P message 1153 211 121 196617 getparamtype saturation;#P message 1153 194 132 196617 getparamdefault saturation;#P message 1153 177 115 196617 getparamval saturation;#P newex 1153 155 45 196617 s toslab;#P message 1153 138 101 196617 getparamtype image;#P message 1153 121 112 196617 getparamdefault image;#P message 1153 104 95 196617 getparamval image;#P newex 1152 82 45 196617 s toslab;#P message 1152 65 112 196617 getparamtype avgluma;#P message 1152 48 123 196617 getparamdefault avgluma;#P message 1152 31 106 196617 getparamval avgluma;#P flonum 1022 50 40 9 0 0 0 3 0 0 0 221 221 221 222 222 222 0 0 0;#P flonum 980 50 40 9 0 0 0 3 0 0 0 221 221 221 222 222 222 0 0 0;#P newex 938 75 95 196617 pak 0. 0. 0.;#P newex 938 99 85 196617 prepend avgluma;#P number 877 78 35 9 0 0 0 3 0 0 0 221 221 221 222 222 222 0 0 0;#P flonum 938 50 40 9 0 0 0 3 0 0 0 221 221 221 222 222 222 0 0 0;#P message 877 99 51 196617 image \$1;#P message 874 149 67 196617 getparamlist;#P toggle 787 131 15 0;#P message 787 149 82 196617 blend_enable \$1;#P message 733 149 43 196617 dispose;#P message 658 59 94 196617 read cc.brcosa.jxs;#P flonum 799 80 35 9 0 0 0 3 0 0 0 221 221 221 222 222 222 0 0 0;#P message 799 99 72 196617 brightness \$1;#P flonum 732 80 35 9 0 0 0 3 0 0 0 221 221 221 222 222 222 0 0 0;#P message 732 99 63 196617 contrast \$1;#P flonum 657 80 35 9 0 0 0 3 0 0 0 221 221 221 222 222 222 0 0 0;#P message 657 99 71 196617 saturation \$1;#P newex 657 122 76 196617 prepend param;#P newex 187 119 52 196617 s fpsbang;#P newex 294 53 51 196617 r grab-in;#P message 423 443 33 196617 reset;#P newex 675 165 59 196617 print slab1;#P newex 386 476 80 196617 jit.gl.handle foo;#P window linecount 2;#P newex 343 501 308 196617 jit.gl.videoplane foo @scale 1.333 1. 1. @blend_enable 1 @layer 1 @automatic 0;#P window linecount 1;#P newex 602 193 70 196617 jit.gl.slab foo;#B color 5;#P toggle 195 420 15 0;#P message 195 438 45 196617 sync \$1;#P hidden newex 130 382 104 196617 bgcolor 255 230 230;#P toggle 122 420 15 0;#P newex 83 419 35 196617 sel 27;#P message 122 438 68 196617 fullscreen \$1;#P newex 40 462 291 196617 jit.window foo @depthbuffer 1 @pos -1024 0 @size 1024 768;#P newex 38 419 40 196617 key;#P user jit.fpsgui 177 143 60 196617 0;#P number 200 35 35 9 0 0 0 3 0 0 0 221 221 221 222 222 222 0 0 0;#P toggle 155 35 15 0;#P newex 155 61 51 196617 qmetro 2;#P newex 155 92 55 196617 t b b erase;#P window linecount 5;#P newex 155 187 110 196617 jit.gl.render foo @blend_enable 1 @erase_color 0 0 0 1 @automatic 0 @depth_enable 1;#P window linecount 1;#P newex 12 55 52 196617 r fpsbang;#P newex 18 160 51 196617 s grab-in;#P message 62 81 28 196617 open;#B color 9;#P message 103 81 31 196617 close;#B color 9;#P newex 15 122 98 196617 jit.qt.grab 640 480;#B color 5;#P window linecount 11;#P comment 1096 413 150 196617 0 = zero 1 = one 2 = destination color 3 = source color 4 = one minus destination color 5 = one minus source color 6 = source alpha 7 = one minus source alpha 8 = destination alpha 9 = one minus destination alpha 10 = source alpha saturate;#P hidden connect 2 0 1 0;#P hidden connect 3 0 1 0;#P connect 5 0 1 0;#P connect 1 0 4 0;#P fasten 14 0 13 0 127 457 45 457;#P fasten 18 0 13 0 200 457 45 457;#P connect 76 0 75 0;#P fasten 12 0 15 0 43 438 80 438 80 417 88 417;#P fasten 15 0 16 0 88 437 119 437 119 417 127 417;#P connect 16 0 14 0;#P connect 9 0 8 0;#P connect 8 0 7 0;#P connect 7 0 6 0;#P fasten 7 2 6 0 204 125 160 125;#P connect 75 0 6 0;#P connect 7 1 11 0;#P connect 7 1 26 0;#P connect 19 0 18 0;#P connect 10 0 8 1;#P connect 25 0 65 1;#P connect 65 0 58 0;#P connect 61 0 58 0;#P connect 59 0 58 0;#P connect 60 0 58 0;#P connect 65 1 107 0;#P connect 63 0 60 0;#P connect 112 0 21 0;#P connect 97 0 21 0;#P connect 73 0 21 0;#P fasten 22 0 21 0 391 497 348 497;#P connect 92 0 21 0;#P connect 101 0 21 0;#P connect 7 1 112 0;#P connect 107 0 92 0;#P fasten 93 0 92 0 462 348 368 348;#P fasten 94 0 92 0 496 348 368 348;#P fasten 95 0 92 0 431 348 368 348;#P connect 96 0 92 0;#P fasten 24 0 22 0 428 471 391 471;#P connect 62 0 59 0;#P connect 64 0 61 0;#P connect 74 0 73 0;#P connect 65 1 20 0;#P connect 80 0 20 0;#P connect 38 0 20 0;#P connect 36 0 20 0;#P connect 35 0 20 0;#P connect 27 0 20 0;#P connect 34 0 20 0;#P connect 66 0 20 0;#P connect 100 0 97 0;#P connect 29 0 28 0;#P fasten 71 0 27 0 1048 119 662 119;#P fasten 28 0 27 0 662 118 662 118;#P fasten 32 0 27 0 804 118 662 118;#P fasten 30 0 27 0 737 118 662 118;#P fasten 39 0 27 0 882 118 662 118;#P fasten 42 0 27 0 943 119 662 119;#P connect 112 1 86 0;#P connect 98 0 86 0;#P connect 89 0 86 0;#P fasten 87 0 86 0 711 352 668 352;#P connect 20 0 86 0;#P connect 104 0 86 0;#P connect 111 0 86 0;#P connect 102 0 101 0;#P connect 20 1 23 0;#P fasten 88 0 87 0 748 326 711 326;#P connect 31 0 30 0;#P connect 37 0 36 0;#P connect 108 0 110 0;#P connect 110 0 111 0;#P connect 33 0 32 0;#P connect 90 0 89 0;#P connect 109 0 110 1;#P connect 41 0 39 0;#P connect 99 0 98 0;#P connect 40 0 43 0;#P connect 43 0 42 0;#P connect 77 0 79 0;#P connect 79 0 80 0;#P connect 105 0 104 0;#P connect 78 0 79 1;#P connect 44 0 43 1;#P connect 45 0 43 2;#P connect 83 0 72 0;#P connect 72 0 71 0;#P connect 82 0 84 0;#P connect 84 0 83 0;#P connect 82 0 84 1;#P connect 84 0 85 0;#P connect 48 0 49 0;#P connect 47 0 49 0;#P connect 46 0 49 0;#P connect 50 0 53 0;#P connect 51 0 53 0;#P connect 52 0 53 0;#P connect 56 0 57 0;#P connect 55 0 57 0;#P connect 54 0 57 0;#P connect 67 0 70 0;#P connect 68 0 70 0;#P connect 69 0 70 0;#P pop;