max v2;#N vpatcher 85 44 1406 826;#P origin 0 29;#P window setfont "Sans Serif" 9.;#P message 449 460 33 196617 dump;#P newex 614 522 64 196617 print router;#P newex 1049 259 117 196617 expr pow($f1\\\,5)*255;#P flonum 1049 237 35 9 0. 1. 3 3 0 0 0 221 221 221 222 222 222 0 0 0;#P newex 959 365 100 196617 prepend blend_mode;#P newex 959 344 27 196617 pak;#P number 999 324 35 9 0 0 0 3 0 0 0 221 221 221 222 222 222 0 0 0;#P number 959 324 35 9 0 0 0 3 0 0 0 221 221 221 222 222 222 0 0 0;#P flonum 1049 281 56 9 0 0 0 3 0 0 0 221 221 221 222 222 222 0 0 0;#P message 1049 300 48 196617 alpha \$1;#P newex 607 269 51 196617 r toslab2;#P flonum 1006 236 40 9 0 0 0 3 0 0 0 221 221 221 222 222 222 0 0 0;#P flonum 964 236 40 9 0 0 0 3 0 0 0 221 221 221 222 222 222 0 0 0;#P newex 922 261 95 196617 pak 0. 0. 0.;#P newex 944 297 85 196617 prepend avgluma;#P number 883 276 35 9 0 0 0 3 0 0 0 221 221 221 222 222 222 0 0 0;#P flonum 922 236 40 9 0 0 0 3 0 0 0 221 221 221 222 222 222 0 0 0;#P message 883 297 51 196617 image \$1;#P message 880 347 67 196617 getparamlist;#P toggle 793 329 15 0;#P message 793 347 82 196617 blend_enable \$1;#P message 739 347 43 196617 dispose;#P message 664 257 94 196617 read cc.brcosa.jxs;#P flonum 805 278 35 9 0 0 0 3 0 0 0 221 221 221 222 222 222 0 0 0;#P message 805 297 72 196617 brightness \$1;#P flonum 738 278 35 9 0 0 0 3 0 0 0 221 221 221 222 222 222 0 0 0;#P message 738 297 63 196617 contrast \$1;#P flonum 663 278 35 9 0 0 0 3 0 0 0 221 221 221 222 222 222 0 0 0;#P message 663 297 71 196617 saturation \$1;#P newex 663 320 76 196617 prepend param;#P newex 682 398 59 196617 print slab2;#P newex 608 391 70 196617 jit.gl.slab foo;#B color 5;#P user matrixctrl 373 418 67 67 MatrixDefaultCell.pct MatrixDefaultBkgnd.pct 67 67 16 16 4 4 16 16 1 1 48 2 0 0;#P newex 490 496 133 196617 router 4 4;#P window linecount 11;#P comment 1096 456 168 196617 0 = zero \; 1 = one \; 2 = destination color \; 3 = source color \; 4 = one minus destination color \; 5 = one minus source color \; 6 = source alpha \; 7 = one minus source alpha \; 8 = destination alpha \; 9 = one minus destination alpha \; 10 = source alpha saturate \;;#P window linecount 1;#P newex 124 161 30 196617 t b b;#P newex 721 569 100 196617 prepend blend_mode;#P newex 721 548 27 196617 pak;#P number 761 528 35 9 0 0 0 3 0 0 0 221 221 221 222 222 222 0 0 0;#P number 721 528 35 9 0 0 0 3 0 0 0 221 221 221 222 222 222 0 0 0;#P button 325 316 15 0;#P comment 889 581 84 196617 set blend amount;#P flonum 889 597 35 9 0. 1. 3 3 0 0 0 221 221 221 222 222 222 0 0 0;#P message 889 618 82 196617 color 1. 1. 1. \$1;#P comment 474 585 84 196617 set blend amount;#P flonum 474 601 35 9 0. 1. 3 3 0 0 0 221 221 221 222 222 222 0 0 0;#P message 474 622 82 196617 color 1. 1. 1. \$1;#P number 410 603 35 9 0 0 0 3 0 0 0 221 221 221 222 222 222 0 0 0;#P number 827 600 35 9 0 0 0 3 0 0 0 221 221 221 222 222 222 0 0 0;#P message 827 619 49 196617 layer \$1;#P message 410 622 49 196617 layer \$1;#P message 420 333 65 196617 dim 720 480;#P message 458 298 28 196617 read;#P message 523 298 27 196617 stop;#P message 489 298 31 196617 start;#P newex 395 358 105 196617 jit.qt.movie 640 480;#P comment 411 279 149 196617 ¥ read a movie and start metro.;#P toggle 736 599 15 0;#P message 736 617 82 196617 blend_enable \$1;#P message 673 580 33 196617 reset;#P newex 636 613 80 196617 jit.gl.handle foo;#P window linecount 2;#P newex 593 638 308 196617 jit.gl.videoplane foo @scale 1.333 1. 1. @blend_enable 1 @layer 4 @automatic 0 @depth_enable 0;#P window linecount 1;#P newex 1043 61 117 196617 expr pow($f1\\\,5)*255;#P flonum 1043 39 35 9 0. 1. 3 3 0 0 0 221 221 221 222 222 222 0 0 0;#P window linecount 3;#P message 20 197 107 196617 jit.gl.render foo @blend_enable 1 @erase_color 0 0 0 1;#P window linecount 1;#P newex 953 167 100 196617 prepend blend_mode;#P newex 953 146 27 196617 pak;#P number 993 126 35 9 0 0 0 3 0 0 0 221 221 221 222 222 222 0 0 0;#P number 953 126 35 9 0 0 0 3 0 0 0 221 221 221 222 222 222 0 0 0;#P toggle 52 256 15 0;#P message 52 274 82 196617 blend_enable \$1;#P toggle 288 601 15 0;#P message 288 619 82 196617 blend_enable \$1;#P flonum 1043 83 56 9 0 0 0 3 0 0 0 221 221 221 222 222 222 0 0 0;#P message 1043 102 48 196617 alpha \$1;#P newex 1165 301 45 196617 s toslab;#P message 1165 284 98 196617 getparamtype alpha;#P message 1165 267 109 196617 getparamdefault alpha;#P message 1165 250 92 196617 getparamval alpha;#P newex 601 71 45 196617 r toslab;#P user gswitch2 264 85 39 32 1 0;#P flonum 516 133 35 9 0 0 0 3 0 0 0 221 221 221 222 222 222 0 0 0;#P flonum 371 132 35 9 0 0 0 3 0 0 0 221 221 221 222 222 222 0 0 0;#P flonum 448 133 35 9 0 0 0 3 0 0 0 221 221 221 222 222 222 0 0 0;#P message 516 152 69 196617 saturation \$1;#P message 371 152 70 196617 brightness \$1;#P message 448 152 61 196617 contrast \$1;#P newex 341 182 54 196617 jit.brcosa;#B color 5;#P newex 1165 229 45 196617 s toslab;#P message 1165 212 121 196617 getparamtype saturation;#P message 1165 195 132 196617 getparamdefault saturation;#P message 1165 178 115 196617 getparamval saturation;#P newex 1165 156 45 196617 s toslab;#P message 1165 139 101 196617 getparamtype image;#P message 1165 122 112 196617 getparamdefault image;#P message 1165 105 95 196617 getparamval image;#P newex 1164 83 45 196617 s toslab;#P message 1164 66 112 196617 getparamtype avgluma;#P message 1164 49 123 196617 getparamdefault avgluma;#P message 1164 32 106 196617 getparamval avgluma;#P flonum 1000 38 40 9 0 0 0 3 0 0 0 221 221 221 222 222 222 0 0 0;#P flonum 958 38 40 9 0 0 0 3 0 0 0 221 221 221 222 222 222 0 0 0;#P newex 916 63 95 196617 pak 0. 0. 0.;#P newex 938 99 85 196617 prepend avgluma;#P number 877 78 35 9 0 0 0 3 0 0 0 221 221 221 222 222 222 0 0 0;#P flonum 916 38 40 9 0 0 0 3 0 0 0 221 221 221 222 222 222 0 0 0;#P message 877 99 51 196617 image \$1;#P message 874 149 67 196617 getparamlist;#P toggle 787 131 15 0;#P message 787 149 82 196617 blend_enable \$1;#P message 733 149 43 196617 dispose;#P message 658 59 94 196617 read cc.brcosa.jxs;#P flonum 799 80 35 9 0 0 0 3 0 0 0 221 221 221 222 222 222 0 0 0;#P message 799 99 72 196617 brightness \$1;#P flonum 732 80 35 9 0 0 0 3 0 0 0 221 221 221 222 222 222 0 0 0;#P message 732 99 63 196617 contrast \$1;#P flonum 657 80 35 9 0 0 0 3 0 0 0 221 221 221 222 222 222 0 0 0;#P message 657 99 71 196617 saturation \$1;#P newex 657 122 76 196617 prepend param;#P newex 189 119 52 196617 s fpsbang;#P newex 294 53 51 196617 r grab-in;#P message 225 582 33 196617 reset;#P newex 675 165 59 196617 print slab1;#P newex 188 615 80 196617 jit.gl.handle foo;#P window linecount 2;#P newex 145 640 308 196617 jit.gl.videoplane foo @scale 1.333 1. 1. @blend_enable 1 @layer 1 @automatic 0 @depth_enable 0;#P window linecount 1;#P newex 602 193 70 196617 jit.gl.slab foo;#B color 5;#P toggle 195 420 15 0;#P message 195 438 45 196617 sync \$1;#P hidden newex 130 382 104 196617 bgcolor 255 230 230;#P toggle 122 420 15 0;#P newex 83 419 35 196617 sel 27;#P message 122 438 68 196617 fullscreen \$1;#P newex 40 462 291 196617 jit.window foo @depthbuffer 1 @pos -1024 0 @size 1024 768;#P newex 38 419 40 196617 key;#P user jit.fpsgui 177 143 60 196617 0;#P number 200 35 35 9 0 0 0 3 0 0 0 221 221 221 222 222 222 0 0 0;#P toggle 155 35 15 0;#P newex 155 61 51 196617 qmetro 2;#P newex 155 92 55 196617 t b b erase;#P window linecount 5;#P newex 155 187 110 196617 jit.gl.render foo @blend_enable 1 @erase_color 0 0 0 1 @automatic 0 @depth_enable 1;#P window linecount 1;#P newex 12 55 52 196617 r fpsbang;#P newex 12 160 51 196617 s grab-in;#P message 62 81 28 196617 open;#B color 9;#P message 103 81 31 196617 close;#B color 9;#P newex 12 122 98 196617 jit.qt.grab 640 480;#B color 5;#P connect 4 0 0 0;#P hidden connect 2 0 0 0;#P hidden connect 1 0 0 0;#P connect 0 0 3 0;#P fasten 17 0 12 0 200 457 45 457;#P fasten 13 0 12 0 127 457 45 457;#P connect 75 0 74 0;#P fasten 11 0 14 0 43 438 80 438 80 417 88 417;#P fasten 14 0 15 0 88 437 119 437 119 417 127 417;#P connect 15 0 13 0;#P connect 6 1 109 0;#P connect 111 2 20 0;#P connect 109 1 20 0;#P connect 98 0 20 0;#P fasten 21 0 20 0 193 636 150 636;#P connect 72 0 20 0;#P connect 94 0 20 0;#P connect 8 0 7 0;#P connect 7 0 6 0;#P connect 74 0 5 0;#P fasten 6 2 5 0 204 115 160 115;#P connect 6 0 5 0;#P connect 6 1 10 0;#P fasten 23 0 21 0 230 610 193 610;#P connect 6 1 25 0;#P connect 18 0 17 0;#P connect 9 0 7 1;#P connect 73 0 72 0;#P connect 24 0 64 1;#P connect 64 1 104 0;#P connect 59 0 57 0;#P connect 58 0 57 0;#P connect 60 0 57 0;#P connect 64 0 57 0;#P connect 62 0 59 0;#P connect 93 0 89 0;#P fasten 92 0 89 0 463 325 400 325;#P fasten 91 0 89 0 528 325 400 325;#P fasten 90 0 89 0 494 325 400 325;#P connect 104 0 89 0;#P connect 97 0 94 0;#P connect 61 0 58 0;#P connect 99 0 98 0;#P connect 144 0 111 0;#P connect 112 0 111 0;#P connect 63 0 60 0;#P connect 89 0 111 1;#P connect 64 1 111 2;#P connect 19 0 111 3;#P connect 111 3 83 0;#P connect 109 0 83 0;#P connect 95 0 83 0;#P connect 86 0 83 0;#P fasten 84 0 83 0 641 634 598 634;#P connect 101 0 83 0;#P connect 108 0 83 0;#P connect 111 0 19 0;#P connect 65 0 19 0;#P connect 33 0 19 0;#P connect 26 0 19 0;#P connect 34 0 19 0;#P connect 35 0 19 0;#P connect 37 0 19 0;#P connect 79 0 19 0;#P connect 111 1 113 0;#P connect 134 0 113 0;#P connect 140 0 113 0;#P connect 126 0 113 0;#P connect 124 0 113 0;#P connect 123 0 113 0;#P connect 115 0 113 0;#P connect 122 0 113 0;#P connect 113 0 111 4;#P connect 111 4 143 0;#P fasten 85 0 84 0 678 608 641 608;#P connect 28 0 27 0;#P fasten 41 0 26 0 943 119 662 119;#P fasten 38 0 26 0 882 118 662 118;#P fasten 29 0 26 0 737 118 662 118;#P fasten 31 0 26 0 804 118 662 118;#P fasten 27 0 26 0 662 118 662 118;#P fasten 70 0 26 0 1048 119 662 119;#P connect 117 0 116 0;#P fasten 135 0 115 0 1054 317 668 317;#P fasten 116 0 115 0 668 316 668 316;#P fasten 120 0 115 0 810 316 668 316;#P fasten 118 0 115 0 743 316 668 316;#P fasten 127 0 115 0 888 316 668 316;#P fasten 130 0 115 0 949 317 668 317;#P connect 19 1 22 0;#P connect 113 1 114 0;#P connect 105 0 107 0;#P connect 107 0 108 0;#P connect 30 0 29 0;#P connect 87 0 86 0;#P connect 119 0 118 0;#P connect 106 0 107 1;#P connect 36 0 35 0;#P connect 125 0 124 0;#P connect 32 0 31 0;#P connect 121 0 120 0;#P connect 96 0 95 0;#P connect 40 0 38 0;#P connect 129 0 127 0;#P connect 102 0 101 0;#P connect 39 0 42 0;#P connect 128 0 131 0;#P connect 42 0 41 0;#P connect 131 0 130 0;#P connect 76 0 78 0;#P connect 78 0 79 0;#P connect 43 0 42 1;#P connect 137 0 139 0;#P connect 139 0 140 0;#P connect 132 0 131 1;#P connect 77 0 78 1;#P connect 138 0 139 1;#P connect 44 0 42 2;#P connect 133 0 131 2;#P connect 81 0 82 0;#P connect 82 0 71 0;#P connect 71 0 70 0;#P connect 141 0 142 0;#P connect 142 0 136 0;#P connect 136 0 135 0;#P connect 45 0 48 0;#P connect 46 0 48 0;#P connect 47 0 48 0;#P connect 51 0 52 0;#P connect 50 0 52 0;#P connect 49 0 52 0;#P connect 53 0 56 0;#P connect 54 0 56 0;#P connect 55 0 56 0;#P connect 68 0 69 0;#P connect 67 0 69 0;#P connect 66 0 69 0;#P pop;