max v2;#N vpatcher 553 44 1086 320;#P window setfont "Sans Serif" 9.;#P window linecount 1;#P newex 314 152 155 196617 prepend $1;#P newex 314 175 70 196617 prepend store;#N coll $2-ins 1;#P newobj 314 199 121 196617 coll $2-ins 1;#B color 5;#P comment 392 233 109 196617 contact@tommays.net;#P comment 392 220 100 196617 patch by Tom Mays;#P comment 135 225 162 196617 bang when store to coll completed;#N comlet bang when store to coll completed;#P outlet 120 224 15 0;#P newex 120 198 20 196617 t b;#N comlet value to set;#P inlet 307 99 15 0;#N comlet message without "set";#P outlet 74 194 15 0;#P newex 144 151 155 196617 prepend $1;#P newex 144 174 70 196617 prepend store;#N coll $2 1;#P newobj 144 198 121 196617 coll $2 1;#B color 5;#P newex 10 123 49 196617 zl slice 1;#P newex 10 165 60 196617 prepend set;#P window linecount 2;#P comment 27 22 100 196617 from slider/numbox output;#P window linecount 1;#P newex 10 50 291 196617 s $1;#N comlet from output of ui object;#P inlet 10 30 15 0;#P newex 10 98 291 196617 r $1;#N comlet to inlet of ui object;#P outlet 10 194 15 0;#P window linecount 2;#P comment 362 60 135 196617 arg 1 - variable name \; arg 2 - coll name to write to;#P connect 3 0 4 0;#P fasten 12 0 7 0 312 118 15 118;#P connect 2 0 7 0;#P connect 7 0 6 0;#P connect 6 0 1 0;#P fasten 7 0 11 0 15 145 79 145;#P connect 9 0 13 0;#P connect 13 0 14 0;#P fasten 7 0 10 0 15 145 149 145;#P connect 10 0 9 0;#P connect 9 0 8 0;#P fasten 7 0 20 0 15 146 319 146;#P connect 20 0 19 0;#P connect 19 0 18 0;#P pop;