max v2;#N vpatcher 50 42 498 303;#N comlet non-setting output;#P outlet 121 158 15 0;#P window setfont "Sans Serif" 9.;#P newex 10 99 49 196617 zl slice 1;#P comment 60 202 282 196617 arg 1 : send/receive name corresponding to desired variable;#P window setfont "Sans Serif" 20.;#P comment 44 152 50 196628 vari;#P window setfont "Sans Serif" 9.;#P comment 44 178 368 196617 connect number boxes and sliders or message boxes to a common send/receive;#P newex 10 127 69 196617 prepend set 1;#P window linecount 2;#P comment 27 22 100 196617 from slider/numbox output;#P window linecount 1;#P newex 10 50 291 196617 s $1;#N comlet from output of ui object;#P inlet 10 30 15 0;#P newex 10 76 291 196617 r $1;#N comlet to inlet of ui object;#P outlet 10 156 15 0;#P comment 157 130 100 196617 vari for multislider;#P connect 3 0 4 0;#P connect 2 0 10 0;#P connect 10 0 6 0;#P connect 6 0 1 0;#P fasten 2 0 11 0 15 96 126 96;#P pop;