max v2;#N vpatcher 60 53 752 684;#P origin 0 1;#P window setfont "Sans Serif" 9.;#P comment 93 361 72 196617 ONLY INPUT 2;#P newex 437 84 43 196617 route 0;#P newex 196 82 43 196617 route 0;#P message 531 321 22 196617 set;#P newex 280 32 48 196617 loadbang;#P button 77 110 15 0;#P newex 414 246 30 196617 t b b;#P newex 217 263 48 196617 loadbang;#P newex 217 300 21 196617 t 0;#P comment 93 86 50 196617 actualize;#N comlet actualize;#P inlet 77 86 15 0;#P newex 213 184 131 196617 sprintf set %s%s_;#N comlet module name;#P inlet 171 86 15 0;#N comlet param name;#P inlet 410 86 15 0;#P comment 126 336 109 196617 $1_;#P newex 272 156 133 196617 sprintf set %s%s/editinit;#P comment 435 217 153 196617 $1/editinit;#P message 437 61 94 196617 $1;#P message 196 61 94 196617 $2;#P comment 191 113 67 196617 module name;#P newex 171 111 20 196617 t s;#P newex 435 156 94 196617 sprintf set %s_sw;#P comment 71 299 122 196617 $2_sw;#P comment 98 262 112 196617 $1;#P comment 430 113 67 196617 param name;#P newex 410 111 20 196617 t s;#P comment 74 217 101 196617 $1;#P newex 51 156 101 196617 sprintf send %s%s;#P newex 163 156 95 196617 sprintf set %s%s;#P comment 446 392 169 196617 coll $2/params 1;#P newex 540 156 124 196617 sprintf refer %s/params;#P window setfont "Sans Serif" 20.;#P comment 329 505 131 196628 u = universal;#P button 434 281 15 0;#P button 373 318 15 0;#P button 390 264 15 0;#P window setfont "Sans Serif" 9.;#P newex 531 282 20 196617 t b;#P newex 531 251 105 196617 r /makeparam/reset;#B color 11;#P newex 390 300 54 196617 onebang 1;#P newex 25 358 66 196617 switch 2 2;#P newex 81 333 44 196617 receive;#B color 12;#P newex 165 419 71 196617 prepend set 1;#N comlet multislider output;#P outlet 165 477 15 0;#N vpatcher 928 224 1242 567;#P window setfont "Sans Serif" 9.;#P window linecount 1;#P newex 174 256 27 196617 pak;#P newex 174 278 97 196617 prepend setminmax;#N comlet setminmax for multisliders;#P outlet 174 305 15 0;#P newex 86 227 29 196617 gate;#P window linecount 0;#P message 105 196 52 196617 min \, max;#P newex 105 154 32 196617 sel 0;#P newex 79 108 36 196617 zl reg;#P newex 41 108 36 196617 zl reg;#P newex 60 251 67 196617 prepend max;#P newex 22 275 64 196617 prepend min;#P newex 54 50 147 196617 t b l l l;#P newex 142 148 100 196617 &&;#P newex 60 200 29 196617 gate;#P newex 22 200 29 196617 gate;#P newex 262 126 21 196617 t 0;#P newex 232 126 21 196617 t 1;#P toggle 142 168 15 0;#P newex 142 126 55 196617 ||;#P newex 187 105 27 196617 != 0;#P newex 142 105 27 196617 != 0;#P newex 232 105 40 196617 sel f i;#P newex 144 76 44 196617 zl nth 4;#P newex 99 76 44 196617 zl nth 3;#P newex 189 76 44 196617 zl nth 1;#P inlet 54 30 15 0;#N comlet set min max for number boxes;#P outlet 60 305 15 0;#P connect 9 0 12 0;#P connect 12 0 16 0;#P connect 15 0 18 0;#P connect 18 0 12 1;#P connect 1 0 15 0;#P connect 9 0 13 0;#P connect 13 0 17 0;#P connect 22 0 0 0;#P connect 17 0 0 0;#P connect 16 0 0 0;#P connect 3 0 18 1;#P connect 15 0 19 0;#P connect 19 0 13 1;#P connect 10 0 22 0;#P connect 11 0 22 0;#P connect 15 1 3 0;#P connect 4 0 19 1;#P fasten 8 0 20 0 147 146 110 146;#P connect 20 0 21 0;#P connect 21 0 22 1;#P connect 3 0 6 0;#P connect 6 0 8 0;#P connect 8 0 14 0;#P connect 14 0 9 0;#P connect 15 2 4 0;#P connect 12 0 25 0;#P connect 25 0 24 0;#P connect 22 0 23 0;#P connect 24 0 23 0;#P connect 4 0 7 0;#P connect 7 0 8 1;#P connect 15 3 2 0;#P connect 13 0 25 1;#P connect 2 0 5 0;#P connect 5 0 10 0;#P connect 5 1 10 0;#P connect 11 0 14 1;#P connect 10 0 14 1;#P connect 5 2 11 0;#P pop;#P newobj 390 419 97 196617 p minmax_manager;#B color 6;#P newex 390 214 44 196617 receive;#B color 12;#P comment 98 583 346 196617 $2 : module name;#P message 390 354 251 196617 $2#1;#N coll ;#P newobj 390 389 53 196617 coll;#B color 5;#P comment 201 519 109 196617 contact@tommays.net;#P comment 201 506 100 196617 patch by Tom Mays;#P newex 25 387 49 196617 zl slice 1;#N comlet non-setting output;#P outlet 129 477 15 0;#P comment 98 568 361 196617 $1 : param name;#P window setfont "Sans Serif" 20.;#P comment 110 505 91 196628 varieditu;#P window setfont "Sans Serif" 9.;#P comment 44 550 368 196617 connect number boxes and sliders or message boxes to a common send/receive;#P newex 25 419 60 196617 prepend set;#P window linecount 2;#P comment 42 177 100 196617 from slider/numbox output;#P window linecount 1;#P newex 25 216 47 196617 forward;#B color 12;#N comlet from output of ui object;#P inlet 25 185 15 0;#N comlet numberbox outlet;#P outlet 25 477 15 0;#P newex 25 336 27 196617 + 1;#P toggle 25 318 15 0;#P newex 25 297 44 196617 receive;#B color 12;#P newex 53 261 44 196617 receive;#B color 12;#P comment 60 284 203 196617 activate dynamic display for entire module;#P connect 6 0 7 0;#P connect 36 0 7 0;#P connect 42 0 2 0;#P connect 2 0 3 0;#P connect 55 0 3 0;#P connect 3 0 4 0;#P connect 25 0 14 0;#P connect 14 0 9 0;#P connect 21 0 5 0;#P connect 9 0 5 0;#P connect 43 0 36 0;#P connect 35 0 1 0;#P connect 1 0 25 1;#P connect 53 0 58 0;#P connect 52 0 24 0;#P connect 24 0 25 2;#P fasten 25 0 13 0 30 379 134 379;#P connect 38 0 36 1;#P connect 43 0 35 0;#P connect 14 0 23 0;#P connect 21 1 22 0;#P connect 23 0 22 0;#P connect 51 0 43 0;#P connect 61 1 43 0;#P fasten 59 0 45 0 285 53 201 53;#P connect 45 0 61 0;#P connect 43 0 52 0;#P connect 29 0 55 0;#P connect 56 0 55 0;#P connect 38 0 35 1;#P connect 43 0 48 0;#P connect 38 0 52 1;#P connect 26 0 30 0;#P connect 48 0 20 0;#P connect 20 0 29 0;#P connect 57 0 29 0;#P connect 29 0 26 0;#P connect 60 0 18 0;#P connect 26 0 18 0;#P connect 35 0 18 0;#P connect 18 0 17 0;#P connect 33 0 17 0;#P connect 17 0 21 0;#P connect 38 0 48 1;#P connect 50 0 38 0;#P connect 62 1 38 0;#P connect 58 0 57 0;#P connect 57 1 31 0;#P connect 28 0 26 1;#P connect 31 0 26 1;#P connect 43 0 42 0;#P fasten 59 0 46 0 285 55 442 55;#P connect 46 0 62 0;#P connect 27 0 28 0;#P connect 43 0 33 0;#P pop;