max v2;#N vpatcher 79 76 499 311;#P origin 0 1;#P window setfont "Sans Serif" 9.;#P window linecount 1;#P comment 140 119 109 196617 contact@tommays.net;#P comment 140 106 100 196617 patch by Tom Mays;#P newex 10 100 49 196617 zl slice 1;#N comlet non-setting output;#P outlet 114 150 15 0;#P comment 60 197 282 196617 arg 1 : send/receive name corresponding to desired variable;#P window setfont "Sans Serif" 20.;#P comment 44 147 50 196628 vari;#P window setfont "Sans Serif" 9.;#P comment 6 179 368 196617 connect number boxes and sliders or message boxes to a common send/receive;#P newex 10 122 60 196617 prepend set;#P window linecount 2;#P comment 27 21 100 196617 from slider/numbox output;#P window linecount 1;#P newex 10 49 291 196617 s $1;#N comlet from output of ui object;#P inlet 10 29 15 0;#P newex 10 75 291 196617 r $1;#N comlet to inlet of ui object;#P outlet 10 151 15 0;#P connect 2 0 3 0;#P connect 1 0 10 0;#P connect 10 0 5 0;#P connect 5 0 0 0;#P fasten 1 0 9 0 15 96 119 96;#P pop;