max v2;#N vpatcher 572 74 1093 683;#P window setfont "Sans Serif" 9.;#P newex 148 230 62 196617 prepend set;#P newex 36 230 62 196617 prepend set;#P newex 148 190 104 196617 expr (($f1-1)*-0.5);#P newex 36 190 104 196617 expr (($f1-1)*-0.5);#P newex 36 122 112 196617 pak 0. 0.;#P newex 211 301 40 196617 line 0.;#B color 5;#P newex 35 301 40 196617 line 0.;#B color 5;#P flonum 36 43 35 9 0 0 0 3 0 0 0 221 221 221 222 222 222 0 0 0;#P newex 36 145 122 196617 poltocar;#P newex 138 81 65 196617 * 3.141593;#P flonum 138 43 35 9 0 0 0 3 0 0 0 221 221 221 222 222 222 0 0 0;#P newex 138 61 40 196617 / 180.;#P newex 36 21 97 196617 r $1/dist;#B color 11;#P newex 138 21 90 196617 r $1/az;#B color 11;#P comment 452 190 34 196617 y = 1;#P comment 452 177 34 196617 x = 1;#P comment 315 190 34 196617 y = 1;#P comment 315 177 34 196617 x = 0;#P comment 452 68 34 196617 y = 0;#P comment 452 55 34 196617 x = 1;#P comment 315 68 34 196617 y = 0;#P flonum 201 328 35 9 0 0 0 3 0 0 0 221 221 221 222 222 222 0 0 0;#P flonum 35 328 35 9 0 0 0 3 0 0 0 221 221 221 222 222 222 0 0 0;#P newex 67 557 97 196617 s $1/dist;#B color 11;#P newex 104 530 90 196617 s $1/az;#B color 11;#P newex 35 374 49 196617 zl rot -1;#P flonum 104 508 35 9 0 0 0 3 0 0 0 221 221 221 222 222 222 0 0 0;#P newex 104 487 41 196617 * 180.;#P newex 104 467 64 196617 / 3.141593;#P flonum 67 508 35 9 0 0 0 3 0 0 0 221 221 221 222 222 222 0 0 0;#P newex 128 418 88 196617 expr ($f1*-2)+1;#P newex 35 418 88 196617 expr ($f1*-2)+1;#P newex 67 446 47 196617 cartopol;#P newex 35 395 103 196617 unpack 0. 0.;#P newex 35 349 124 196617 pak 0. 0.;#P newex 225 270 107 196617 r $1/pos/y;#B color 11;#P newex 35 264 107 196617 r $1/pos/x;#B color 11;#P comment 315 55 34 196617 x = 0;#P fasten 37 0 31 0 153 293 40 293;#P connect 1 0 31 0;#P fasten 37 0 15 0 153 323 40 323;#P connect 31 0 15 0;#P connect 15 0 3 0;#P connect 3 0 12 0;#P connect 12 0 4 0;#P connect 4 0 6 0;#P connect 25 0 30 0;#P connect 30 0 33 0;#P connect 33 0 29 0;#P connect 29 0 34 0;#P connect 34 0 36 0;#P connect 6 0 5 0;#P connect 5 0 8 0;#P connect 8 0 14 0;#P connect 7 0 5 1;#P connect 5 1 9 0;#P connect 9 0 10 0;#P connect 10 0 11 0;#P connect 11 0 13 0;#P connect 4 1 7 0;#P connect 24 0 27 0;#P connect 27 0 26 0;#P connect 26 0 28 0;#P connect 28 0 33 1;#P connect 29 1 35 0;#P connect 35 0 37 0;#P connect 16 0 3 1;#P fasten 36 0 16 0 41 252 206 252;#P lcolor 2;#P connect 32 0 16 0;#P fasten 36 0 32 0 41 252 216 252;#P lcolor 2;#P connect 2 0 32 0;#P pop;