max v2;#N vpatcher 533 89 1045 451;#P window setfont Times 9.;#P window linecount 1;#P comment 446 146 21 1310729 0.3;#P comment 16 38 60 1310729 [presence 0-1];#N comlet [presence 0-1] [time (opt)];#P inlet 76 38 15 0;#P flonum 76 67 31 9 0. 1. 3 20 0 0 0 221 221 221 222 222 222 0 0 0;#P window linecount 3;#P comment 346 244 63 1310729 reverb curve (for 1 minus presence value);#N comlet direct coef out;#P outlet 76 303 15 0;#N comlet to rev coef out;#P outlet 290 303 15 0;#P user multiSlider 410 236 50 50 0. 1. 32 2681 15 0 0 2 0 0 1;#M frgb 0 0 0;#M brgb 255 255 255;#M rgb2 127 127 127;#M rgb3 0 0 0;#M rgb4 37 52 91;#M rgb5 74 105 182;#M rgb6 112 158 18;#M rgb7 149 211 110;#M rgb8 187 9 201;#M rgb9 224 62 37;#M rgb10 7 114 128;#P window linecount 1;#P newex 410 216 61 1310729 curve_display;#B color 6;#P newex 410 144 26 1310729 t 0.3;#P flonum 410 165 35 9 -1. 1. 3 20 0 0 0 221 221 221 222 222 222 0 0 0;#P newex 290 189 92 1310729 scalecurv 0 1 1 0 0.3;#B color 6;#P flonum 290 209 50 9 0. 1. 3 20 0 0 0 221 221 221 222 222 222 0 0 0;#P user multiSlider 196 236 50 50 0. 1. 32 2681 15 0 0 2 0 0 1;#M frgb 0 0 0;#M brgb 255 255 255;#M rgb2 127 127 127;#M rgb3 0 0 0;#M rgb4 37 52 91;#M rgb5 74 105 182;#M rgb6 112 158 18;#M rgb7 149 211 110;#M rgb8 187 9 201;#M rgb9 224 62 37;#M rgb10 7 114 128;#P newex 196 216 61 1310729 curve_display;#B color 6;#P newex 305 93 43 1310729 loadbang;#P newex 196 144 26 1310729 t 0.1;#P flonum 196 165 35 9 -1. 1. 3 20 0 0 0 221 221 221 222 222 222 0 0 0;#P newex 76 189 92 1310729 scalecurv 0 1 0 1 0.1;#B color 6;#P flonum 76 209 50 9 0. 1. 3 20 0 0 0 221 221 221 222 222 222 0 0 0;#P comment 144 253 51 1310729 direct curve;#P comment 233 145 21 1310729 0.1;#P connect 19 0 18 0;#P connect 18 0 3 0;#P connect 3 0 2 0;#P connect 2 0 16 0;#P connect 4 0 3 5;#P connect 6 0 5 0;#P connect 5 0 4 0;#P connect 4 0 7 0;#P connect 7 0 8 0;#P fasten 18 0 10 0 81 135 295 135;#P connect 10 0 9 0;#P connect 9 0 15 0;#P connect 11 0 10 5;#P connect 6 0 12 0;#P connect 12 0 11 0;#P connect 11 0 13 0;#P connect 13 0 14 0;#P pop;