max v2;#N vpatcher 44 311 486 565;#P window setfont "Sans Serif" 9.;#P window linecount 1;#P newex 147 135 44 196617 del 100;#P newex 180 110 119 196617 s $1/az;#B color 11;#P newex 147 76 77 196617 t b l l;#P newex 53 63 50 196617 route set;#P newex 147 55 122 196617 r $1/azr;#B color 11;#P newex 147 167 27 196617 t 50;#P newex 53 83 30 196617 sel 0;#N comlet indicator;#P outlet 21 102 15 0;#N comlet grain;#P outlet 357 168 15 0;#N comlet az;#P outlet 312 168 15 0;#P number 312 120 35 9 0 0 0 3 0 0 0 221 221 221 222 222 222 0 0 0;#P number 357 120 35 9 0 0 0 3 0 0 0 221 221 221 222 222 222 0 0 0;#P newex 312 97 55 196617 unpack 0 0;#P newex 147 199 117 196617 s $1/grain;#B color 11;#P newex 21 31 268 196617 proc-randtransf $1/azrand $1/azr 2;#B color 6;#P connect 0 0 7 0;#P connect 0 0 11 0;#P connect 11 0 8 0;#P connect 10 0 12 0;#P connect 12 0 14 0;#P connect 14 0 9 0;#P connect 8 0 9 0;#P connect 9 0 1 0;#P connect 3 0 1 0;#P connect 12 1 13 0;#P connect 12 2 2 0;#P connect 2 0 4 0;#P connect 4 0 5 0;#P connect 2 1 3 0;#P connect 3 0 6 0;#P pop;