max v2;#N vpatcher 36 61 531 707;#P origin 0 -2;#P window setfont Times 9.;#P newex 99 555 42 1310729 pack 0 0;#P toggle 98 390 15 0;#P newex 141 45 133 1310729 expr (random(900\\\,1100))*0.01;#P newex 292 360 92 1310729 expr random(10\\\,50);#P window setfont "Sans Serif" 9.;#P user number~ 13 295 52 310 9 3 3 2 0. 0. 0 0. 20 0. 0 0 0 221 221 221 222 222 222 0 0 0;#P user number~ 22 180 61 195 9 3 3 2 0. 0. 0 0. 20 0. 0 0 0 221 221 221 222 222 222 0 0 0;#N in 1;#P newobj 65 24 25 196617 in 1;#P window setfont Times 9.;#N out 1;#P newobj 23 593 27 1310729 out 1;#P newex 111 341 96 1310729 t 1 0 stop 0;#P window setfont "Sans Serif" 9.;#P newex 221 449 50 196617 thispoly~;#B color 5;#P toggle 221 410 15 0;#P message 221 429 45 196617 mute \$1;#P number 335 84 35 9 0 0 0 3 0 0 0 221 221 221 222 222 222 0 0 0;#P window setfont Times 9.;#P newex 60 593 75 1310729 s $1/azc;#B color 11;#P comment 61 580 78 1310729 to az-dist-interface;#P newex 351 157 27 1310729 t b 1;#P newex 351 135 108 1310729 r $1/init;#B color 9;#P newex 179 148 18 1310729 t 1;#P newex 179 173 18 1310729 t 0;#P toggle 106 198 15 0;#P newex 106 216 27 1310729 gate;#P newex 283 63 40 1310729 t 0 1 l;#P newex 34 412 18 1310729 t 1;#P newex 34 392 27 1310729 del 1;#P toggle 23 455 15 0;#P newex 65 341 40 1310729 t 1 b 0;#P newex 65 320 102 1310729 sel 1 0;#P newex 203 128 27 1310729 != 0.;#P newex 203 148 27 1310729 sel 0;#P newex 313 113 42 1310729 unpack 0;#P newex 313 133 31 1310729 / 360.;#P newex 283 38 108 1310729 r $1/az;#B color 9;#P flonum 134 248 57 9 0 0 0 20 0 0 0 221 221 221 222 222 222 0 0 0;#P newex 23 473 52 1310729 gate;#P toggle 65 301 15 0;#P newex 106 236 18 1310729 t 0;#P newex 81 168 52 1310729 edge~;#P number 115 99 46 9 0 0 0 20 0 0 0 221 221 221 222 222 222 0 0 0;#P flonum 65 99 35 9 0 0 0 20 0 0 0 221 221 221 222 222 222 0 0 0;#P newex 65 67 110 1310729 unpack 0. 0 0;#P newex 65 45 67 1310729 t l 0 b;#P window setfont "Sans Serif" 9.;#P flonum 165 99 38 9 0 0 0 3 0 0 0 221 221 221 222 222 222 0 0 0;#P window setfont Times 9.;#P newex 65 147 60 1310729 line~;#P number 23 537 42 9 0 0 0 20 0 0 0 221 221 221 222 222 222 0 0 0;#P newex 23 517 32 1310729 + 0.5;#P newex 23 496 39 1310729 * 360.;#P flonum 65 455 68 9 0 0 0 20 0 0 0 221 221 221 222 222 222 0 0 0;#P newex 87 427 62 1310729 snapshot~;#P newex 65 266 41 1310729 phasor~;#P comment 91 26 155 1310729 [freq in hz] [time] [temporal resolution];#P connect 1 0 45 0;#P connect 7 0 44 0;#P fasten 41 1 25 0 144 380 28 380;#P lcolor 13;#P connect 27 0 25 0;#P connect 25 0 16 0;#P connect 16 0 4 0;#P connect 4 0 5 0;#P connect 5 0 6 0;#P connect 6 0 42 0;#P connect 41 2 26 0;#P connect 24 1 26 0;#P connect 26 0 27 0;#P connect 6 0 36 0;#P connect 43 0 9 0;#P connect 9 0 10 0;#P connect 10 0 11 0;#P connect 11 0 7 0;#P connect 7 0 1 0;#P fasten 21 1 15 0 225 296 70 296;#P lcolor 1;#P connect 14 0 15 0;#P connect 15 0 23 0;#P connect 23 0 24 0;#P connect 2 0 3 0;#P connect 3 0 16 1;#P connect 7 0 13 0;#P connect 48 0 2 0;#P fasten 1 0 2 0 70 292 92 292;#P connect 17 0 1 1;#P connect 41 1 48 0;#P connect 24 0 48 0;#P fasten 34 1 30 0 373 194 111 194;#P lcolor 5;#P connect 32 0 30 0;#P lcolor 5;#P fasten 31 0 30 0 184 194 111 194;#P lcolor 5;#P fasten 28 1 30 0 303 194 111 194;#P lcolor 5;#P connect 30 0 29 0;#P connect 29 0 14 0;#P connect 23 1 41 0;#P connect 10 1 12 0;#P connect 9 1 12 0;#P connect 12 0 7 1;#P connect 13 1 29 1;#P connect 34 0 29 1;#P lcolor 14;#P connect 19 0 17 0;#P fasten 8 0 2 1 170 418 144 418;#P connect 9 2 47 0;#P connect 10 2 8 0;#P connect 47 0 8 0;#P fasten 21 0 32 0 208 167 199 167 199 145 184 145;#P fasten 21 1 31 0 225 170 184 170;#P connect 11 0 22 0;#P connect 22 0 21 0;#P connect 41 0 39 0;#P connect 24 2 39 0;#P connect 34 1 39 0;#P connect 39 0 38 0;#P connect 38 0 40 0;#P connect 18 0 28 0;#P connect 37 0 20 0;#P connect 28 2 20 0;#P connect 20 0 19 0;#P connect 33 0 34 0;#P pop;