max v2;#N vpatcher 617 146 1001 477;#P origin 0 -10;#P window setfont Times 10.;#P window linecount 1;#P comment 124 82 30 1310730 right;#P window setfont Times 9.;#N vtable 512 40 104 647 674 0 512 t_panR-tab.txt;#P newobj 107 97 88 1310729 table t_panR-tab.txt;#B color 4;#P window setfont Times 10.;#P comment 20 84 30 1310730 left;#P window setfont Times 9.;#N vtable 512 70 102 678 667 0 512 t_panL-tab.txt;#P newobj 14 97 87 1310729 table t_panL-tab.txt;#B color 4;#P newex 167 49 33 1310729 * 511.;#P newex 14 119 31 1310729 / 511.;#P newex 107 119 31 1310729 / 511.;#P comment 123 274 19 1310729 FR;#N comlet FR;#P outlet 107 273 15 0;#N comlet FL;#P outlet 14 273 15 0;#N comlet x control 0.-1.;#P inlet 167 26 15 0;#P comment 183 26 64 1310729 x control 0.-1.;#P comment 30 274 18 1310729 FL;#P window linecount 2;#P comment 281 95 47 1310729 tables are 512 X 512;#P fasten 9 0 10 0 172 81 19 81;#P connect 10 0 8 0;#P connect 8 0 4 0;#P fasten 9 0 12 0 172 81 112 81;#P connect 12 0 7 0;#P connect 7 0 5 0;#P connect 3 0 9 0;#P pop;