max v2;#N vpatcher 32 272 1197 767;#P window setfont "Sans Serif" 9.;#P window linecount 1;#P newex 278 389 120 196617 s $1-sw;#B color 5;#N thispatcher;#Q end;#P newobj 0 75 61 196617 thispatcher;#P newex 1082 401 44 196617 t select;#B color 13;#P newex 1034 401 44 196617 t select;#B color 13;#P newex 953 401 44 196617 t select;#B color 13;#P newex 893 398 44 196617 t select;#B color 13;#P newex 817 401 44 196617 t select;#B color 13;#P window linecount 2;#P comment 56 261 107 196617 patch by Tom Mays contact@tommays.net;#P window linecount 1;#P newex 506 440 151 196617 paraml $1-> $2 m;#B color 5;#P newex 278 365 120 196617 r $2-sw;#B color 5;#P newex 626 141 20 196617 t b;#P window setfont Times 9.;#P newex 587 345 27 1310729 sel 0;#P newex 587 325 27 1310729 i;#P window setfont "Sans Serif" 9.;#P window linecount 2;#P message 932 160 70 196617 \; fd-clear bang;#P window linecount 1;#P newex 587 305 20 196617 t b;#P message 175 187 37 196617 direct;#P message 136 187 37 196617 direct;#P toggle 709 285 15 0;#P newex 506 270 57 196617 pvar name;#B color 13;#P newex 250 146 49 196617 sel 0 1;#P toggle 225 85 15 0;#P message 269 168 176 196617 inmin \, inmax \, outmin \, outmax \, loglin;#P window setfont Times 9.;#P newex 269 218 86 1310729 prepend ignoreclick;#P newex 250 237 99 1310729 prepend respondtoclick;#P newex 250 257 64 1310729 prepend script;#P window setfont "Sans Serif" 9.;#P message 250 187 176 196617 inmin \, inmax \, outmin \, outmax \, loglin;#P window setfont Times 9.;#N thispatcher;#Q end;#P newobj 250 277 53 1310729 thispatcher;#P window setfont "Sans Serif" 9.;#P newex 640 365 36 196617 zl reg;#P newex 713 323 20 196617 t b;#P newex 870 159 41 196617 s $1->;#B color 11;#P message 812 129 86 196617 parmname direct;#P message 1041 129 33 196617 clear;#P message 906 129 127 196617 paramname 0 1 0 100 0.1;#P message 1036 262 39 196617 set \$1;#P message 968 262 39 196617 set \$1;#P message 900 262 39 196617 set \$1;#P message 832 262 39 196617 set \$1;#P message 758 262 39 196617 set \$1;#P message 678 245 39 196617 set \$1;#P newex 678 285 27 196617 t b i;#P newex 640 409 38 196617 zl join;#P newex 640 386 30 196617 t s b;#P newex 525 367 27 196617 + 1;#P newex 525 387 38 196617 gate 2;#P newex 744 342 62 196617 prepend set;#P newex 744 363 285 196617 pack 0. 0. 0. 0. 0.;#P newex 678 263 61 196617 pvar direct;#B color 13;#P toggle 120 19 14 0;#P noclick;#P objectname direct;#P window setfont Times 9.;#P comment 133 19 31 1310729 direct;#P newex 225 103 32 1310729 * 255;#P message 225 122 62 1310729 frgb \$1 \$1 \$1;#P window setfont "Sans Serif" 9.;#P newex 744 241 282 196617 unpack 0. 0. 0. 0. 0.;#P newex 968 288 76 196617 pvar outmax 2;#B color 13;#P newex 900 288 73 196617 pvar outmin 2;#B color 13;#P newex 832 288 70 196617 pvar inmax 2;#B color 13;#P newex 758 288 67 196617 pvar inmin 2;#B color 13;#P window setfont Times 9.;#P comment 152 34 34 1310729 loglin;#P flonum 152 45 35 9 -1. 1. 3 20 0 0 0 221 221 221 222 222 222 0 0 0;#P noclick;#P objectname loglin;#P window setfont "Sans Serif" 9.;#P message 545 166 67 196617 0. 1. 0. 1. 0.;#P window setfont Times 9.;#P comment 115 34 40 1310729 out max;#P flonum 115 45 35 9 0 0 0 20 0 0 0 221 221 221 222 222 222 0 0 0;#P noclick;#P objectname outmax;#P comment 78 34 39 1310729 out min;#P flonum 78 45 35 9 0 0 0 20 0 0 0 221 221 221 222 222 222 0 0 0;#P noclick;#P objectname outmin;#P comment 41 34 36 1310729 in max;#P flonum 41 45 35 9 0 0 0 20 0 0 0 221 221 221 222 222 222 0 0 0;#P noclick;#P objectname inmax;#P comment 4 34 35 1310729 in min;#P flonum 4 45 35 9 0 0 0 20 0 0 0 221 221 221 222 222 222 0 0 0;#P noclick;#P objectname inmin;#P window setfont "Sans Serif" 9.;#P newex 630 221 29 196617 gate;#P newex 744 188 100 196617 t l 1 0 b;#P newex 690 166 64 196617 route direct;#P newex 690 188 31 196617 t 1 b;#P newex 649 141 51 196617 zl slice 1;#P newex 506 141 88 196617 t b b 0;#P message 523 93 86 196617 parmname direct;#P message 752 93 33 196617 clear;#P message 506 166 14 196617 -;#P newex 506 117 153 196617 route clear;#P message 617 93 127 196617 paramname 0 1 0 100 0.1;#P comment 659 443 191 196617 [param name][scale function param list];#P newex 506 339 40 196617 t clear;#P newex 506 245 62 196617 prepend set;#P newex 553 410 70 196617 append direct;#P newex 506 315 74 196617 route bang -;#P newex 506 291 56 196617 route text;#P window setfont Times 9.;#P user textedit 4 17 118 34 32896 20 9 -;#P objectname name;#P comment 38 7 52 1310729 send name:;#P window setfont "Sans Serif" 9.;#P newex 1036 288 67 196617 pvar loglin 2;#B color 13;#P window linecount 4;#P comment 18 111 134 196617 arg 1 : fdscalecurv param name(i.e. afol1_ampdB) \; arg 2 : module prefix name associated;#P bpatcher 0 0 256 62 0 0 background-.mxt 0 $1 1;#P objectname background;#P connect 0 0 87 0;#P hidden connect 38 0 22 0;#P hidden connect 38 0 24 0;#P hidden connect 38 0 26 0;#P hidden connect 38 0 28 0;#P connect 74 0 72 0;#P connect 78 0 72 0;#P hidden connect 38 0 31 0;#P connect 16 0 73 0;#P connect 20 2 68 0;#P connect 18 0 68 0;#P connect 16 2 68 0;#P hidden connect 41 0 68 0;#P connect 68 0 39 0;#P connect 39 0 38 0;#P connect 68 0 69 0;#P connect 77 0 63 0;#P connect 20 3 63 0;#P connect 69 0 63 0;#P connect 72 0 65 0;#P connect 63 0 65 0;#P connect 66 0 64 0;#P connect 65 0 64 0;#P connect 64 0 62 0;#P connect 6 0 67 0;#P connect 16 0 67 0;#P connect 69 1 67 0;#P connect 73 0 66 0;#P connect 67 0 66 0;#P connect 79 0 88 0;#P fasten 80 1 12 0 652 465 495 465 495 106 511 106;#P lcolor 5;#P fasten 11 0 12 0 622 112 511 112;#P fasten 14 0 12 0 757 112 511 112;#P connect 15 0 12 0;#P connect 12 0 16 0;#P connect 16 0 13 0;#P connect 13 0 8 0;#P connect 21 0 8 0;#P connect 49 0 70 0;#P connect 8 0 70 0;#P connect 70 0 5 0;#P connect 5 0 6 0;#P connect 6 0 9 0;#P connect 6 1 9 0;#P connect 48 0 80 0;#P connect 9 0 80 0;#P connect 7 0 80 0;#P connect 20 2 46 0;#P connect 18 0 46 0;#P connect 16 2 46 0;#P connect 49 1 46 0;#P connect 46 0 45 0;#P connect 16 1 30 0;#P connect 6 2 45 1;#P connect 45 1 7 0;#P connect 6 2 74 0;#P connect 74 0 76 0;#P connect 76 0 77 0;#P connect 68 0 76 1;#P lcolor 7;#P connect 12 1 78 0;#P connect 18 0 21 0;#P connect 16 2 21 0;#P connect 20 1 21 0;#P connect 60 0 61 0;#P connect 45 0 61 0;#P connect 61 0 47 0;#P connect 47 0 48 0;#P connect 12 1 17 0;#P connect 17 0 21 1;#P connect 21 0 61 1;#P connect 13 0 61 1;#P connect 43 0 48 1;#P connect 20 2 50 0;#P connect 18 0 50 0;#P connect 16 2 50 0;#P connect 50 0 42 0;#P connect 42 0 49 0;#P connect 17 1 19 0;#P connect 19 0 18 0;#P connect 42 0 71 0;#P connect 2 0 60 0;#P connect 36 0 60 0;#P connect 35 0 60 0;#P connect 34 0 60 0;#P connect 33 0 60 0;#P connect 19 1 20 0;#P connect 20 0 37 0;#P connect 30 0 37 0;#P connect 37 0 44 0;#P connect 33 0 44 0;#P connect 47 1 43 0;#P connect 44 0 43 0;#P connect 37 0 51 0;#P connect 86 0 33 0;#P connect 51 0 33 0;#P connect 37 1 43 1;#P connect 34 0 43 1;#P connect 33 1 82 0;#P connect 37 1 52 0;#P connect 82 0 34 0;#P connect 52 0 34 0;#P connect 57 0 59 0;#P connect 56 0 59 0;#P connect 58 0 59 0;#P connect 37 2 43 2;#P connect 35 0 43 2;#P connect 34 1 83 0;#P connect 37 2 53 0;#P connect 83 0 35 0;#P connect 53 0 35 0;#P connect 37 3 43 3;#P connect 36 0 43 3;#P connect 35 1 84 0;#P connect 37 3 54 0;#P connect 84 0 36 0;#P connect 54 0 36 0;#P connect 37 4 43 4;#P connect 2 0 43 4;#P connect 36 1 85 0;#P connect 37 4 55 0;#P connect 85 0 2 0;#P connect 55 0 2 0;#P connect 2 1 86 0;#P pop;