max v2;#N vpatcher 435 55 748 402;#P window setfont "Sans Serif" 9.;#P number 60 70 35 9 0 0 0 3 0 0 0 221 221 221 222 222 222 0 0 0;#P window linecount 1;#P newex 38 12 48 196617 loadbang;#P newex 38 50 32 196617 sel 0;#P message 38 32 64 196617 $1;#P comment 190 238 51 196617 exemple:;#P user multiSlider 184 250 64 64 0. 1. 32 2681 15 0 0 2 0 0 0;#M frgb 0 0 0;#M brgb 255 255 255;#M rgb2 127 127 127;#M rgb3 0 0 0;#M rgb4 37 52 91;#M rgb5 74 105 182;#M rgb6 112 158 18;#M rgb7 149 211 110;#M rgb8 187 9 201;#M rgb9 224 62 37;#M rgb10 7 114 128;#N comlet curve (-1. <= x <= 1.);#P inlet 144 32 15 0;#P window linecount 3;#P comment 160 32 125 196617 0<x<=1 = exponential \; -1<=x<0 = logarithmic \; 0 = linear;#P window linecount 1;#P newex 53 185 101 196617 explinlog;#B color 6;#N comlet out to multislider;#P outlet 53 251 15 0;#P newex 53 229 84 196617 zl group 32;#P button 23 100 15 0;#P newex 23 122 40 196617 Uzi 32;#P flonum 53 165 35 9 0 0 0 3 0 0 0 221 221 221 222 222 222 0 0 0;#P newex 53 143 79 196617 scale 0 32 0. 1.;#P flonum 53 209 64 9 0 0 0 3 0 0 0 221 221 221 222 222 222 0 0 0;#P flonum 144 74 80 9 -1. 1. 3 3 0 0 0 221 221 221 222 222 222 0 0 0;#P window linecount 5;#P comment 73 252 100 196617 attacher un multislider float avec range de 0. ˆ 1. pour visualiser la courbe;#P window linecount 2;#P comment 175 110 100 196617 arg 1: number of steps to display;#P fasten 2 0 7 0 149 94 28 94;#P connect 7 0 6 0;#P connect 17 0 15 0;#P connect 15 0 16 0;#P connect 18 0 6 1;#P lcolor 2;#P connect 6 2 4 0;#P connect 4 0 5 0;#P connect 5 0 10 0;#P connect 10 0 3 0;#P connect 3 0 8 0;#P connect 8 0 9 0;#P connect 16 1 18 0;#P connect 18 0 4 2;#P lcolor 2;#P connect 18 0 8 1;#P lcolor 2;#P connect 12 0 2 0;#P connect 2 0 10 1;#P pop;