max v2;#N vpatcher 436 83 910 449;#P window setfont "Sans Serif" 9.;#P window linecount 2;#P comment 334 308 107 196617 patch by Tom Mays contact@tommays.net;#P window setfont "Sans Serif" 12.;#P window linecount 1;#P newex 77 195 101 196620 pvar sendname;#B color 13;#P window setfont "Sans Serif" 9.;#P newex 131 286 151 196617 paraml $1-> $1 m;#B color 5;#P newex 250 104 47 196617 pvar sw;#B color 13;#P newex 250 53 178 196617 switchparam $1-sw ctc_switchstate;#B color 5;#P newex 250 85 168 196617 param $1-sw $1 t 0 1 0;#B color 5;#P newex 77 262 40 196617 t clear;#P window setfont Times 9.;#P comment -1 8 75 1310729 $1;#P comment 74 -3 21 1310729 sw;#P toggle 76 7 14 0;#P objectname sw;#P window setfont "Sans Serif" 9.;#P newex 77 152 29 196617 gate;#P newex 191 116 21 196617 t 0;#P newex 137 94 64 196617 route direct;#P newex 137 116 21 196617 t 1;#P newex 96 69 51 196617 zl slice 1;#P message 46 73 14 196617 -;#P newex 46 49 60 196617 route clear;#P newex 77 174 62 196617 prepend set;#P newex 131 262 70 196617 append direct;#P newex 77 242 65 196617 route bang -;#P newex 77 221 56 196617 route text;#P window setfont Times 9.;#P user textedit 91 6 191 23 32896 20 9 -;#P objectname sendname;#P comment 110 -3 60 1310729 send name:;#P user panel 0 0 193 24;#X brgb 196 210 233;#X frgb 0 0 0;#X border 1;#X rounded 0;#X shadow 0;#X done;#P background;#P fasten 21 1 7 0 277 310 32 310 32 44 51 44;#P connect 7 0 8 0;#P connect 10 0 13 0;#P connect 12 0 13 0;#P connect 13 0 6 0;#P fasten 8 0 6 0 51 172 82 172;#P connect 6 0 22 0;#P connect 22 0 3 0;#P connect 3 0 4 0;#P connect 4 0 17 0;#P connect 4 1 17 0;#P connect 7 1 9 0;#P connect 9 0 13 1;#P connect 4 2 5 0;#P connect 5 0 21 0;#P connect 17 0 21 0;#P connect 9 1 11 0;#P connect 11 0 10 0;#P connect 11 1 12 0;#P fasten 20 0 18 0 255 124 247 124 247 82 255 82;#P connect 18 0 20 0;#P pop;