max v2;#N vpatcher 349 233 839 548;#P origin 0 -23;#P window setfont "Sans Serif" 9.;#P window linecount 2;#P message 344 165 113 196617 \; $1-> clear \;;#P window linecount 1;#P newex 344 134 113 196617 r $2-init;#B color 11;#P newex 389 59 60 196617 route clear;#B color 11;#P newex 53 59 328 196617 unpack s 0. 0.;#N comlet set to message;#P outlet 168 202 15 0;#P window linecount 2;#P newex 168 167 40 196617 prepend set;#P window linecount 1;#P newex 53 89 125 196617 route clear;#P message 53 151 14 196617 -;#P newex 60 118 53 196617 r fd-clear;#B color 11;#P newex 53 28 141 196617 r $1->;#B color 11;#N comlet data;#P inlet 23 59 15 0;#P newex 53 176 65 196617 prepend send;#P window setfont "Sans Serif" 12.;#P newex 23 260 58 196620 forward;#B color 14;#P window setfont "Sans Serif" 9.;#P newex 23 225 391 196617 scalecurv $3 $4;#B color 5;#P connect 3 0 0 0;#P connect 0 0 1 0;#P connect 2 0 1 0;#P connect 4 0 10 0;#P connect 10 0 7 0;#P connect 11 0 6 0;#P lcolor 2;#P connect 5 0 6 0;#P connect 7 0 6 0;#P connect 6 0 2 0;#P connect 7 1 2 0;#P lcolor 2;#P connect 6 0 8 0;#P connect 7 1 8 0;#P connect 8 0 9 0;#P connect 10 1 0 3;#P connect 10 2 0 4;#P connect 12 0 13 0;#P fasten 4 0 11 0 58 49 394 49;#P pop;