max v2;#N vpatcher 57 71 1268 548;#P window setfont "Sans Serif" 9.;#P window linecount 1;#P newex 700 22 48 196617 pvar out;#B color 13;#P newex 700 2 135 196617 r $1_outdisp;#B color 11;#P newex 547 22 42 196617 pvar in;#B color 13;#P newex 547 2 145 196617 r $1;#B color 11;#P window setfont Times 9.;#P flonum 399 9 37 9 0 0 8224 20 0 0 0 221 221 221 222 222 222 0 0 0;#P noclick;#P objectname out;#P flonum 399 0 37 9 0 0 8224 20 0 0 0 221 221 221 222 222 222 0 0 0;#P noclick;#P objectname in;#P window setfont "Sans Serif" 9.;#P newex 1123 370 44 196617 t select;#B color 13;#P newex 1075 370 44 196617 t select;#B color 13;#P newex 994 370 44 196617 t select;#B color 13;#P newex 934 367 44 196617 t select;#B color 13;#P newex 858 370 44 196617 t select;#B color 13;#P newex 319 330 178 196617 switchparam $1-sw ctc_switchstate;#B color 5;#P window linecount 2;#P comment 45 403 107 196617 patch by Tom Mays contact@tommays.net;#P window linecount 1;#P newex 547 409 151 196617 paraml $1-> $1 m;#B color 5;#P newex 319 378 47 196617 pvar sw;#B color 13;#P newex 319 359 168 196617 param $1-sw $1 t 0 1 0;#B color 5;#P newex 667 110 20 196617 t b;#P window setfont Times 9.;#P newex 628 314 27 1310729 sel 0;#P newex 628 294 27 1310729 i;#P window setfont "Sans Serif" 9.;#P window linecount 2;#P message 973 129 70 196617 \; fd-clear bang;#P window linecount 1;#P newex 628 274 20 196617 t b;#P message 216 156 37 196617 direct;#P message 177 156 37 196617 direct;#P toggle 750 254 15 0;#P newex 547 239 57 196617 pvar name;#B color 13;#P newex 291 115 49 196617 sel 0 1;#P toggle 266 54 15 0;#P message 310 137 176 196617 inmin \, inmax \, outmin \, outmax \, loglin;#P window setfont Times 9.;#P newex 310 187 86 1310729 prepend ignoreclick;#P newex 291 206 99 1310729 prepend respondtoclick;#P newex 291 226 64 1310729 prepend script;#P window setfont "Sans Serif" 9.;#P message 291 156 176 196617 inmin \, inmax \, outmin \, outmax \, loglin;#P window setfont Times 9.;#N thispatcher;#Q end;#P newobj 291 246 53 1310729 thispatcher;#P window setfont "Sans Serif" 9.;#P newex 681 334 36 196617 zl reg;#P newex 754 292 20 196617 t b;#P newex 911 128 41 196617 s $1->;#B color 11;#P message 853 98 86 196617 parmname direct;#P message 1082 98 33 196617 clear;#P message 947 98 127 196617 paramname 0 1 0 100 0.1;#P message 1077 231 39 196617 set \$1;#P message 1009 231 39 196617 set \$1;#P message 941 231 39 196617 set \$1;#P message 873 231 39 196617 set \$1;#P message 799 231 39 196617 set \$1;#P message 719 214 39 196617 set \$1;#P newex 719 254 27 196617 t b i;#P newex 681 378 38 196617 zl join;#P newex 681 355 30 196617 t s b;#P newex 566 336 27 196617 + 1;#P newex 566 356 38 196617 gate 2;#P newex 785 311 62 196617 prepend set;#P newex 785 332 285 196617 pack 0. 0. 0. 0. 0.;#P newex 719 232 61 196617 pvar direct;#B color 13;#P toggle 192 8 14 0;#P noclick;#P objectname direct;#P window setfont Times 9.;#P comment 187 -3 31 1310729 direct;#P newex 266 72 32 1310729 * 255;#P message 266 91 62 1310729 frgb \$1 \$1 \$1;#P window setfont "Sans Serif" 9.;#P newex 785 210 282 196617 unpack 0. 0. 0. 0. 0.;#P newex 1009 257 76 196617 pvar outmax 2;#B color 13;#P newex 941 257 73 196617 pvar outmin 2;#B color 13;#P newex 873 257 70 196617 pvar inmax 2;#B color 13;#P newex 799 257 67 196617 pvar inmin 2;#B color 13;#P window setfont Times 9.;#P comment 364 -3 34 1310729 loglin;#P flonum 364 8 35 9 -1. 1. 3 20 0 0 0 221 221 221 222 222 222 0 0 0;#P noclick;#P objectname loglin;#P window setfont "Sans Serif" 9.;#P message 586 135 67 196617 0. 1. 0. 1. 0.;#P window setfont Times 9.;#P comment 327 -3 40 1310729 out max;#P flonum 327 8 37 9 0 0 0 20 0 0 0 221 221 221 222 222 222 0 0 0;#P noclick;#P objectname outmax;#P comment 290 -3 39 1310729 out min;#P flonum 290 8 37 9 0 0 0 20 0 0 0 221 221 221 222 222 222 0 0 0;#P noclick;#P objectname outmin;#P comment 253 -3 36 1310729 in max;#P flonum 253 8 37 9 0 0 0 20 0 0 0 221 221 221 222 222 222 0 0 0;#P noclick;#P objectname inmax;#P comment 216 -3 35 1310729 in min;#P flonum 216 8 37 9 0 0 0 20 0 0 0 221 221 221 222 222 222 0 0 0;#P noclick;#P objectname inmin;#P window setfont "Sans Serif" 9.;#P newex 671 190 29 196617 gate;#P newex 785 157 100 196617 t l 1 0 b;#P newex 731 135 64 196617 route direct;#P newex 731 157 31 196617 t 1 b;#P newex 690 110 51 196617 zl slice 1;#P newex 547 110 88 196617 t b b 0;#P message 564 62 86 196617 parmname direct;#P message 793 62 33 196617 clear;#P message 547 135 14 196617 -;#P newex 547 86 153 196617 route clear;#P message 658 62 127 196617 paramname 0 1 0 100 0.1;#P comment 700 412 191 196617 [param name][scale function param list];#P newex 547 308 40 196617 t clear;#P window setfont Times 9.;#P comment -1 8 75 1310729 $1;#P comment 74 -3 18 1310729 sw;#P toggle 76 7 14 0;#P objectname sw;#P window setfont "Sans Serif" 9.;#P newex 547 214 62 196617 prepend set;#P newex 594 379 70 196617 append direct;#P newex 547 284 74 196617 route bang -;#P newex 547 260 56 196617 route text;#P window setfont Times 9.;#P user textedit 91 6 191 23 32896 20 9 -;#P objectname name;#P comment 110 -3 52 1310729 send name:;#P window setfont "Sans Serif" 9.;#P newex 1077 257 67 196617 pvar loglin 2;#B color 13;#P user panel 0 0 437 24;#X brgb 196 210 233;#X frgb 0 0 0;#X border 1;#X rounded 0;#X shadow 0;#X done;#P background;#P connect 76 0 74 0;#P connect 80 0 74 0;#P hidden connect 40 0 24 0;#P connect 18 0 75 0;#P hidden connect 40 0 26 0;#P connect 18 2 70 0;#P connect 20 0 70 0;#P connect 22 2 70 0;#P hidden connect 43 0 70 0;#P connect 70 0 41 0;#P connect 41 0 40 0;#P hidden connect 40 0 28 0;#P connect 70 0 71 0;#P connect 79 0 65 0;#P connect 22 3 65 0;#P connect 71 0 65 0;#P connect 74 0 67 0;#P connect 65 0 67 0;#P connect 68 0 66 0;#P connect 67 0 66 0;#P connect 66 0 64 0;#P connect 5 0 69 0;#P connect 18 0 69 0;#P connect 71 1 69 0;#P connect 75 0 68 0;#P connect 69 0 68 0;#P fasten 82 0 81 0 324 398 316 398 316 356 324 356;#P connect 81 0 82 0;#P hidden connect 40 0 30 0;#P hidden connect 40 0 33 0;#P connect 93 0 94 0;#P fasten 83 1 14 0 693 434 536 434 536 75 552 75;#P lcolor 5;#P fasten 13 0 14 0 663 81 552 81;#P fasten 16 0 14 0 798 81 552 81;#P connect 17 0 14 0;#P connect 14 0 18 0;#P connect 18 0 15 0;#P connect 23 0 7 0;#P connect 15 0 7 0;#P connect 51 0 72 0;#P connect 7 0 72 0;#P connect 72 0 4 0;#P connect 4 0 5 0;#P connect 5 1 11 0;#P connect 5 0 11 0;#P connect 6 0 83 0;#P connect 11 0 83 0;#P connect 50 0 83 0;#P connect 18 2 48 0;#P connect 20 0 48 0;#P connect 22 2 48 0;#P connect 51 1 48 0;#P connect 48 0 47 0;#P connect 18 1 32 0;#P connect 5 2 47 1;#P connect 47 1 6 0;#P connect 5 2 76 0;#P connect 76 0 78 0;#P connect 78 0 79 0;#P connect 70 0 78 1;#P lcolor 7;#P connect 14 1 80 0;#P connect 18 2 23 0;#P connect 20 0 23 0;#P connect 22 1 23 0;#P connect 62 0 63 0;#P connect 47 0 63 0;#P connect 63 0 49 0;#P connect 49 0 50 0;#P connect 14 1 19 0;#P connect 19 0 23 1;#P connect 95 0 96 0;#P connect 15 0 63 1;#P connect 23 0 63 1;#P connect 45 0 50 1;#P connect 18 2 52 0;#P connect 20 0 52 0;#P connect 22 2 52 0;#P connect 52 0 44 0;#P connect 44 0 51 0;#P connect 19 1 21 0;#P connect 21 0 20 0;#P connect 44 0 73 0;#P connect 1 0 62 0;#P connect 38 0 62 0;#P connect 37 0 62 0;#P connect 36 0 62 0;#P connect 35 0 62 0;#P connect 21 1 22 0;#P connect 22 0 39 0;#P connect 32 0 39 0;#P connect 39 0 46 0;#P connect 35 0 46 0;#P connect 49 1 45 0;#P connect 46 0 45 0;#P connect 39 0 53 0;#P connect 90 0 35 0;#P connect 53 0 35 0;#P connect 39 1 45 1;#P connect 36 0 45 1;#P connect 35 1 86 0;#P connect 39 1 54 0;#P connect 86 0 36 0;#P connect 54 0 36 0;#P connect 59 0 61 0;#P connect 58 0 61 0;#P connect 60 0 61 0;#P connect 39 2 45 2;#P connect 37 0 45 2;#P connect 36 1 87 0;#P connect 39 2 55 0;#P connect 87 0 37 0;#P connect 55 0 37 0;#P connect 39 3 45 3;#P connect 38 0 45 3;#P connect 37 1 88 0;#P connect 39 3 56 0;#P connect 88 0 38 0;#P connect 56 0 38 0;#P connect 39 4 45 4;#P connect 1 0 45 4;#P connect 38 1 89 0;#P connect 39 4 57 0;#P connect 89 0 1 0;#P connect 57 0 1 0;#P connect 1 1 90 0;#P pop;