max v2;#N vpatcher 353 44 1191 458;#P origin 0 -27;#P window setfont "Sans Serif" 9.;#P window linecount 1;#P newex 173 353 135 196617 s $1/outdisp_;#B color 11;#P newex 433 141 29 196617 t l 2;#P newex 379 119 64 196617 route direct;#P newex 379 141 21 196617 t 1;#P newex 338 94 51 196617 zl slice 1;#P newex 195 94 88 196617 t b b 0;#P number 95 202 14 9 0 2 35 3 0 0 0 221 221 221 222 222 222 0 0 0;#P newex 95 220 35 196617 gate 2;#P message 212 46 86 196617 parmname direct;#P message 441 46 33 196617 clear;#P newex 16 71 131 196617 s $1->;#B color 11;#P message 16 51 32 196617 clear;#P message 195 126 14 196617 -;#P newex 195 70 153 196617 route clear;#P newex 16 29 53 196617 r fd/clear;#B color 11;#P message 306 46 127 196617 paramname 0 127 0 1 0.1;#P newex 195 310 65 196617 prepend send;#P newex 120 352 45 196617 forward;#P newex 195 22 135 196617 r $1->;#B color 11;#N comlet valeur in;#P inlet 120 106 15 0;#P newex 120 251 128 196617 scalecurv 0 127 0 127 0;#B color 5;#P comment 381 256 145 196617 arg 1: param forwarding name;#P window setfont "Sans Serif" 18.;#P comment 381 199 111 196626 fdscalecurv;#P window setfont "Sans Serif" 9.;#P newex 120 282 19 196617 t f;#P comment 381 227 283 196617 forwarding unit scalecurv function avec direct and clear;#P comment 332 24 191 196617 [param name][scale function param list];#P window linecount 4;#P comment 338 318 460 196617 messages \; $1-> [param name] [input min] [input max] [output min] [output max] [curve (-1. to 1.)] \; $1-> [param name] direct \; $1-> clear \;;#P window linecount 1;#P comment 338 375 92 196617 ©2006 Tom Mays;#P connect 13 0 16 0;#P connect 16 0 17 0;#P fasten 22 2 21 0 278 157 100 157;#P connect 26 1 21 0;#P connect 24 0 21 0;#P connect 21 0 20 0;#P connect 8 0 20 1;#P connect 20 1 7 0;#P fasten 20 0 4 0 100 275 125 275;#P connect 7 0 4 0;#P connect 4 0 10 0;#P fasten 11 0 10 0 200 336 125 336;#P connect 26 0 7 1;#P connect 4 0 27 0;#P connect 9 0 14 0;#P fasten 12 0 14 0 311 65 200 65;#P fasten 18 0 14 0 446 65 200 65;#P connect 19 0 14 0;#P connect 14 0 22 0;#P connect 22 0 15 0;#P connect 15 0 11 0;#P fasten 23 0 11 0 343 302 200 302;#P connect 22 1 7 6;#P connect 14 1 23 0;#P connect 23 1 25 0;#P connect 25 0 24 0;#P connect 25 1 26 0;#P pop;