max v2;#N vpatcher 569 61 1155 359;#P window setfont "Sans Serif" 9.;#P window linecount 2;#P comment 316 83 237 196617 arg 1 : old forward neme prefix (i.e. /controller) \; arg 2 : new map prefix (i.e. /controller/map);#P window linecount 1;#P newex 25 239 112 196617 s $2;#B color 13;#P newex 277 177 100 196617 unpack 0. 0. 0. 0. 0.;#P newex 263 152 55 196617 t norm l 0;#P newex 179 159 53 196617 t direct 0;#P newex 25 214 398 196617 pack s 0. 0. 0. 0. s 0. 0 0 0. 0. 0;#P newex 25 123 112 196617 s $2/init;#B color 13;#P newex 209 128 64 196617 route direct;#P newex 168 105 51 196617 zl slice 1;#P newex 25 102 20 196617 t b;#P message 42 57 86 196617 parmname direct;#P message 271 57 33 196617 clear;#P newex 25 81 153 196617 route clear;#P message 136 57 127 196617 paramname 0 127 0 1 0.1;#P newex 25 33 135 196617 r $1->;#B color 11;#P comment 162 35 191 196617 [param name][scale function param list];#P connect 5 0 3 0;#P fasten 4 0 3 0 276 76 30 76;#P fasten 2 0 3 0 141 76 30 76;#P connect 1 0 3 0;#P connect 3 0 6 0;#P connect 6 0 9 0;#P connect 7 0 10 0;#P connect 10 0 14 0;#P connect 11 1 10 1;#P lcolor 1;#P connect 13 0 10 1;#P connect 11 1 10 2;#P lcolor 1;#P connect 13 1 10 2;#P connect 11 1 10 3;#P lcolor 1;#P connect 13 2 10 3;#P connect 11 1 10 4;#P lcolor 1;#P connect 13 3 10 4;#P connect 3 1 7 0;#P connect 8 0 11 0;#P connect 11 0 10 5;#P connect 12 0 10 5;#P connect 7 1 8 0;#P connect 11 1 10 6;#P lcolor 1;#P connect 13 4 10 6;#P connect 8 1 12 0;#P connect 12 1 13 0;#P pop;