max v2;#N vpatcher 556 148 1312 578;#P origin 0 -27;#P window setfont "Sans Serif" 9.;#P newex 488 31 225 196617 initnamer $1 $2;#B color 5;#P newex 109 174 267 196617 makeswitch $1/sw $1 $2/switchstate;#B color 13;#P toggle 109 202 15 0;#P newex 109 231 40 196617 gate;#P number 148 278 56 9 0 0 0 3 0 0 0 221 221 221 222 222 222 0 0 0;#P window linecount 4;#P message 488 307 109 196617 \; $1/sw/print 1 \; $1/sendto/print 1 \; $1/speedlim/print 1 \;;#P window linecount 1;#P newex 139 201 112 196617 r $1;#B color 11;#P newex 109 297 49 196617 speedlim;#P newex 184 124 66 196617 s $1/sendto;#B color 11;#P newex 41 124 52 196617 s $1/init;#B color 11;#P newex 223 286 193 196617 makeparam $1/sendto $1 s -;#B color 13;#P newex 488 61 112 196617 r $1/init;#B color 11;#P window linecount 4;#P message 488 85 190 196617 \; $1/sw/init bang \; $1/sendto/init bang \; $1/speedlim/init bang \;;#P window linecount 1;#P newex 148 258 341 196617 makeparam $1/speedlim $1 i 0 0 99999 1;#B color 13;#P newex 24 375 135 196617 s $1_outdisp;#B color 11;#P newex 184 102 51 196617 zl slice 1;#P newex 41 102 20 196617 t b;#P message 58 57 86 196617 parmname direct;#P message 287 57 33 196617 clear;#P newex 41 81 153 196617 route clear;#P message 152 57 127 196617 paramname 0 127 0 1 0.1;#P newex 223 307 65 196617 prepend send;#P newex 109 347 45 196617 forward;#P newex 41 33 135 196617 r $1->;#B color 11;#P window linecount 4;#P comment 488 221 207 196617 arg 1: param name to forward \; arg 2: environment name for active params switchstate and for init (i.e. tape \, movie \, camtrk...);#P window setfont "Sans Serif" 18.;#P window linecount 1;#P comment 488 167 93 196626 fwddirect;#P window setfont "Sans Serif" 9.;#P comment 488 195 187 196617 direct forwarding unit for any message;#P comment 178 35 191 196617 [param name][scale function param list];#P comment 488 276 103 196617 ©2006-7 Tom Mays;#P connect 21 0 14 0;#P connect 5 0 9 0;#P fasten 8 0 9 0 157 76 46 76;#P fasten 10 0 9 0 292 76 46 76;#P connect 11 0 9 0;#P connect 9 0 12 0;#P connect 12 0 19 0;#P connect 27 0 26 0;#P connect 26 0 25 0;#P connect 25 0 21 0;#P fasten 7 0 6 0 228 332 114 332;#P connect 21 0 6 0;#P connect 22 0 25 1;#P connect 15 0 24 0;#P connect 24 0 21 1;#P connect 9 1 13 0;#P connect 13 0 20 0;#P connect 18 0 7 0;#P connect 17 0 16 0;#P pop;