max v2;#N vpatcher 498 124 1363 706;#P window setfont Times 9.;#P comment 18 37 91 1310729 panel size = 512 x 24;#P window setfont "Sans Serif" 9.;#P window linecount 3;#P comment 492 345 184 196617 arg 1: param name to forward \; arg 2: color scheme choice (0=movie \, 1=tape \, 2=camtrk \, 3=conduite);#P window setfont Times 9.;#P window linecount 1;#P comment 434 -2 49 1310729 /ramptime;#P comment 394 -2 44 1310729 /speedlim;#P number 436 8 37 9 0 0 0 20 0 0 0 221 221 221 222 222 222 0 0 0;#P objectname ramptime;#P number 399 8 37 9 0 0 0 20 0 0 0 221 221 221 222 222 222 0 0 0;#P objectname speedlim;#P window setfont "Sans Serif" 9.;#P newex 108 116 57 196617 pvar panel;#P newex 108 95 84 196617 colorchooser $2;#B color 5;#P newex 219 155 145 196617 s $1/sendto/init;#B color 11;#P newex 219 134 163 196617 route bang;#P window setfont Times 9.;#P user textedit 91 6 191 23 32900 20 9;#P objectname name;#P window setfont "Sans Serif" 9.;#P newex 219 112 56 196617 route text;#P newex 250 255 63 196617 r $1/direct;#B color 11;#P toggle 250 275 15 0;#P newex 544 145 63 196617 r $1-direct;#B color 11;#P newex 46 490 77 196617 pvar ramptime;#B color 13;#P newex 46 471 145 196617 vari $1/ramptime;#B color 5;#P newex 46 445 73 196617 pvar speedlim;#B color 13;#P newex 46 426 141 196617 vari $1/speedlim;#B color 5;#P newex 46 400 60 196617 pvar curve;#B color 13;#P newex 46 381 128 196617 vari $1/curve;#B color 5;#P newex 46 355 67 196617 pvar outmax;#B color 13;#P newex 46 336 135 196617 vari $1/outmax;#B color 5;#P newex 46 310 64 196617 pvar outmin;#B color 13;#P newex 46 291 132 196617 vari $1/outmin;#B color 5;#P newex 46 265 61 196617 pvar inmax;#B color 13;#P newex 46 246 129 196617 vari $1/inmax;#B color 5;#P newex 46 220 58 196617 pvar inmin;#B color 13;#P newex 46 201 126 196617 vari $1/inmin;#B color 5;#P newex 46 175 61 196617 pvar direct;#B color 13;#P newex 46 156 129 196617 vari $1/direct;#B color 5;#P newex 219 89 57 196617 pvar name;#B color 13;#P newex 219 66 131 196617 vari $1/sendto;#B color 5;#P newex 585 85 48 196617 pvar out;#B color 13;#P newex 585 65 135 196617 r $1/outdisp;#B color 11;#P newex 432 85 42 196617 pvar in;#B color 13;#P newex 432 65 145 196617 r $1;#B color 11;#P window setfont Times 9.;#P flonum 476 11 35 9 0 0 8224 20 0 0 0 221 221 221 222 222 222 0 0 0;#P noclick;#P objectname out;#P flonum 476 0 35 9 0 0 8224 20 0 0 0 221 221 221 222 222 222 0 0 0;#P noclick;#P objectname in;#P window setfont "Sans Serif" 9.;#P newex 755 262 44 196617 t select;#B color 13;#P newex 676 262 44 196617 t select;#B color 13;#P newex 589 262 44 196617 t select;#B color 13;#P newex 507 262 44 196617 t select;#B color 13;#P newex 431 262 44 196617 t select;#B color 13;#P window linecount 2;#P comment 492 400 107 196617 patch by Tom Mays contact@tommays.net;#P window linecount 1;#P newex 46 85 47 196617 pvar sw;#B color 13;#P newex 46 66 115 196617 vari $1/sw;#B color 5;#P newex 250 298 49 196617 sel 0 1;#P toggle 544 165 15 0;#P message 269 320 178 196617 inmin \, inmax \, outmin \, outmax \, curve;#P window setfont Times 9.;#P newex 269 370 86 1310729 prepend ignoreclick;#P newex 250 389 99 1310729 prepend respondtoclick;#P newex 250 409 64 1310729 prepend script;#P window setfont "Sans Serif" 9.;#P message 250 339 178 196617 inmin \, inmax \, outmin \, outmax \, curve;#P window setfont Times 9.;#N thispatcher;#Q end;#P newobj 250 429 53 1310729 thispatcher;#P toggle 192 8 14 0;#P objectname direct;#P comment 188 -2 31 1310729 /direct;#P newex 544 183 32 1310729 * 255;#P message 544 202 62 1310729 frgb \$1 \$1 \$1;#P window setfont "Sans Serif" 9.;#P newex 610 239 76 196617 pvar outmax 2;#B color 13;#P newex 526 239 73 196617 pvar outmin 2;#B color 13;#P newex 447 239 70 196617 pvar inmax 2;#B color 13;#P newex 374 239 67 196617 pvar inmin 2;#B color 13;#P window setfont Times 9.;#P comment 364 -2 34 1310729 /curve;#P flonum 364 8 35 9 -1. 1. 3 20 0 0 0 221 221 221 222 222 222 0 0 0;#P objectname curve;#P comment 327 -2 40 1310729 /outmax;#P flonum 327 8 37 9 0 0 0 20 0 0 0 221 221 221 222 222 222 0 0 0;#P objectname outmax;#P comment 290 -2 39 1310729 /outmin;#P flonum 290 8 37 9 0 0 0 20 0 0 0 221 221 221 222 222 222 0 0 0;#P objectname outmin;#P comment 253 -2 36 1310729 /inmax;#P flonum 253 8 37 9 0 0 0 20 0 0 0 221 221 221 222 222 222 0 0 0;#P objectname inmax;#P comment 216 -2 35 1310729 /inmin;#P flonum 216 8 37 9 0 0 0 20 0 0 0 221 221 221 222 222 222 0 0 0;#P objectname inmin;#P comment -1 6 77 1310729 $1;#P comment 74 -3 18 1310729 /sw;#P toggle 76 7 14 0;#P objectname sw;#P comment 110 -3 52 1310729 /sendto;#P window setfont "Sans Serif" 9.;#P newex 698 239 67 196617 pvar loglin 2;#B color 13;#P user panel 0 0 512 24;#X brgb 249 234 255;#X frgb 190 140 240;#X border 1;#X rounded 4;#X shadow 0;#X done;#P background;#P objectname panel;#P fasten 33 0 32 0 51 105 43 105 43 63 51 63;#P connect 32 0 33 0;#P fasten 49 0 48 0 51 195 43 195 43 153 51 153;#P connect 48 0 49 0;#P fasten 51 0 50 0 51 240 43 240 43 198 51 198;#P connect 50 0 51 0;#P fasten 53 0 52 0 51 285 43 285 43 243 51 243;#P connect 52 0 53 0;#P fasten 55 0 54 0 51 330 43 330 43 288 51 288;#P connect 54 0 55 0;#P fasten 57 0 56 0 51 375 43 375 43 333 51 333;#P connect 56 0 57 0;#P fasten 59 0 58 0 51 420 43 420 43 378 51 378;#P connect 58 0 59 0;#P fasten 61 0 60 0 51 465 43 465 43 423 51 423;#P connect 60 0 61 0;#P fasten 63 0 62 0 51 510 43 510 43 468 51 468;#P connect 62 0 63 0;#P fasten 32 1 71 0 156 89 113 89;#P connect 71 0 72 0;#P fasten 69 1 46 0 377 181 207 181 207 61 224 61;#P connect 46 0 47 0;#P connect 47 0 67 0;#P connect 67 0 69 0;#P connect 69 0 70 0;#P connect 66 0 65 0;#P connect 65 0 31 0;#P connect 31 0 25 0;#P connect 25 0 27 0;#P connect 27 0 26 0;#P connect 28 0 26 0;#P connect 26 0 24 0;#P connect 31 1 29 0;#P connect 29 0 28 0;#P connect 20 0 16 0;#P fasten 39 0 16 0 760 284 804 284 804 230 379 230;#P connect 16 1 35 0;#P connect 42 0 43 0;#P connect 20 0 17 0;#P connect 35 0 17 0;#P connect 17 1 36 0;#P connect 20 0 18 0;#P connect 36 0 18 0;#P connect 64 0 30 0;#P connect 30 0 21 0;#P connect 21 0 20 0;#P connect 44 0 45 0;#P connect 18 1 37 0;#P connect 20 0 19 0;#P connect 37 0 19 0;#P connect 19 1 38 0;#P connect 38 0 1 0;#P connect 20 0 1 0;#P connect 1 1 39 0;#P pop;