max v2;#N vpatcher 422 65 1106 796;#P window setfont "Sans Serif" 9.;#P window linecount 2;#P message 425 331 136 196617 \; $1/sw 0 \;;#P number 447 291 35 9 0 0 0 3 0 0 0 221 221 221 222 222 222 0 0 0;#P window linecount 1;#P newex 425 310 32 196617 del 2;#P window linecount 2;#P comment 382 77 237 196617 arg 1 : old forward neme prefix (i.e. /controller) \; arg 2 : new map prefix (i.e. /controller/map);#P number 467 520 57 9 0 0 0 3 0 0 0 221 221 221 222 222 222 0 0 0;#P flonum 208 521 35 9 0 0 0 3 0 0 0 221 221 221 222 222 222 0 0 0;#P flonum 171 499 35 9 0 0 0 3 0 0 0 221 221 221 222 222 222 0 0 0;#P flonum 134 479 35 9 0 0 0 3 0 0 0 221 221 221 222 222 222 0 0 0;#P flonum 97 455 35 9 0 0 0 3 0 0 0 221 221 221 222 222 222 0 0 0;#P flonum 282 409 35 9 0 0 0 3 0 0 0 221 221 221 222 222 222 0 0 0;#P window linecount 1;#P newex 60 638 32 196617 del 1;#P newex 60 659 48 196617 zl reg;#P newex 60 616 48 196617 t b l;#P window linecount 11;#P message 425 152 202 196617 bang \; $1/sw 0 \; $1/sendto - \; $1/direct 0 \; $1/inmin 0 \; $1/inmax 1 \; $1/outmin 0 \; $1/outmax 1 \; $1/curve 0 \; $1/speedlim 0 \; $1/ramptime 0 \;;#P window linecount 1;#P newex 425 129 162 196617 r $1/init;#B color 11;#P toggle 131 356 15 0;#P newex 208 542 27 196617 f 1;#P newex 171 518 27 196617 f;#P newex 134 502 27 196617 f 1;#P newex 97 477 27 196617 f;#P newex 282 429 27 196617 f;#P newex 188 395 48 196617 t norm b;#P newex 131 374 125 196617 sel 1 0;#P newex 131 395 53 196617 t direct 0;#P newex 41 688 112 196617 s $2;#B color 13;#P window linecount 2;#P comment 72 589 413 196617 /map list : [dest] [in1] [in2] [out1] [out2] [type (norm \, sym \, updwn)] [curve (-1. to 1.)] [fliph (0-1)] [flipv (0-1)] [offseth (-1. to 1.)] [offsetv (-1. to 1.)];#P window linecount 1;#P newex 60 571 418 196617 pak s 0. 0. 0. 0. s 0. 0 0 0. 0. 0;#P number 212 266 63 9 0 0 0 3 0 0 0 221 221 221 222 222 222 0 0 0;#P toggle 44 267 15 0;#P newex 212 285 76 196617 s $2/speedlim;#B color 13;#P newex 44 286 50 196617 s $2/sw;#B color 13;#P newex 44 245 160 196617 r $1/sw;#B color 11;#P newex 467 497 190 196617 r $1/ramptime;#B color 11;#P newex 212 245 186 196617 r $1/speedlim;#B color 11;#P newex 282 388 173 196617 r $1/curve;#B color 11;#P newex 208 500 180 196617 r $1/outmax;#B color 11;#P newex 171 478 177 196617 r $1/outmin;#B color 11;#P newex 134 456 174 196617 r $1/inmax;#B color 11;#P newex 97 433 171 196617 r $1/inmin;#B color 11;#P newex 131 337 174 196617 r $1/direct;#B color 11;#P newex 60 313 176 196617 r $1/sendto;#B color 11;#P newex 277 177 100 196617 unpack 0. 0. 0. 0. 0.;#P newex 263 152 55 196617 t norm l 0;#P newex 179 159 53 196617 t direct 0;#P newex 25 210 345 196617 pack s 0. 0. 0. 0. s 0. 0 0 0. 0. 0;#P newex 25 123 112 196617 s $2/init;#B color 13;#P newex 209 128 64 196617 route direct;#P newex 168 105 51 196617 zl slice 1;#P newex 25 102 20 196617 t b;#P message 42 57 86 196617 parmname direct;#P message 271 57 33 196617 clear;#P newex 25 81 153 196617 route clear;#P message 136 57 127 196617 paramname 0 127 0 1 0.1;#P newex 25 33 135 196617 r $1->;#B color 11;#P comment 162 35 191 196617 [param name][scale function param list];#P connect 5 0 3 0;#P fasten 4 0 3 0 276 76 30 76;#P fasten 2 0 3 0 141 76 30 76;#P connect 1 0 3 0;#P connect 3 0 6 0;#P connect 6 0 9 0;#P connect 7 0 10 0;#P fasten 10 0 30 0 30 682 46 682;#P connect 43 0 30 0;#P connect 23 0 26 0;#P connect 26 0 24 0;#P connect 11 1 10 1;#P lcolor 1;#P connect 13 0 10 1;#P connect 14 0 28 0;#P connect 28 0 42 0;#P connect 42 0 44 0;#P connect 44 0 43 0;#P connect 11 1 10 2;#P lcolor 1;#P connect 13 1 10 2;#P connect 16 0 46 0;#P connect 33 1 35 0;#P connect 46 0 35 0;#P connect 31 1 28 1;#P lcolor 1;#P connect 35 0 28 1;#P connect 42 1 43 1;#P connect 11 1 10 3;#P lcolor 1;#P connect 13 2 10 3;#P connect 15 0 39 0;#P connect 39 0 32 0;#P connect 32 0 31 0;#P connect 17 0 47 0;#P connect 33 1 36 0;#P connect 47 0 36 0;#P connect 31 1 28 2;#P lcolor 1;#P connect 36 0 28 2;#P connect 11 1 10 4;#P lcolor 1;#P connect 13 3 10 4;#P connect 3 1 7 0;#P connect 18 0 48 0;#P connect 33 1 37 0;#P connect 48 0 37 0;#P connect 31 1 28 3;#P lcolor 1;#P connect 37 0 28 3;#P connect 11 0 10 5;#P connect 12 0 10 5;#P connect 8 0 11 0;#P connect 32 1 33 0;#P connect 11 1 10 6;#P lcolor 1;#P connect 13 4 10 6;#P connect 19 0 49 0;#P connect 33 1 38 0;#P connect 49 0 38 0;#P connect 31 1 28 4;#P lcolor 1;#P connect 38 0 28 4;#P connect 7 1 8 0;#P connect 21 0 27 0;#P connect 27 0 25 0;#P connect 31 0 28 5;#P connect 33 0 28 5;#P connect 8 1 12 0;#P connect 12 1 13 0;#P connect 20 0 45 0;#P connect 33 1 34 0;#P connect 45 0 34 0;#P connect 31 1 28 6;#P lcolor 1;#P connect 34 0 28 6;#P connect 40 0 41 0;#P connect 41 0 52 0;#P connect 52 0 54 0;#P connect 53 0 52 1;#P connect 22 0 50 0;#P connect 50 0 28 11;#P pop;