max v2;#N vpatcher 181 129 1277 863;#P origin 0 -27;#P window setfont "Sans Serif" 9.;#P newex 672 27 225 196617 initnamer $1 $2;#B color 5;#P newex 672 53 116 196617 r $1/init;#B color 11;#P flonum 397 447 55 9 0 0 0 3 0 0 0 221 221 221 222 222 222 0 0 0;#P flonum 341 426 55 9 0 0 0 3 0 0 0 221 221 221 222 222 222 0 0 0;#P flonum 285 405 55 9 0 0 0 3 0 0 0 221 221 221 222 222 222 0 0 0;#P flonum 229 384 55 9 0 0 0 3 0 0 0 221 221 221 222 222 222 0 0 0;#P flonum 173 363 55 9 0 0 0 3 0 0 0 221 221 221 222 222 222 0 0 0;#P toggle 53 332 15 0;#P number 92 425 25 9 0 0 0 3 0 0 0 221 221 221 222 222 222 0 0 0;#P newex 41 150 217 196617 makeswitch $1/sw $1 $2_switchstate;#B color 13;#P toggle 41 198 15 0;#P newex 41 227 40 196617 gate;#P number 156 256 56 9 0 0 0 3 0 0 0 221 221 221 222 222 222 0 0 0;#P number 84 601 14 9 0 2 35 3 0 0 0 221 221 221 222 222 222 0 0 0;#P newex 84 619 43 196617 gate 2;#P newex 84 581 27 196617 + 1;#P newex 84 561 27 196617 > 0;#P window linecount 11;#P message 672 384 192 196617 \; $1/sw/print 1 \; $1/sendto/print 1 \; $1/direct/print 1 \; $1/inmin/print 1 \; $1/inmax/print 1 \; $1/outmin/print 1 \; $1/outmax/print 1 \; $1/curve/print 1 \; $1/speedlim/print 1 \; $1/ramptime/print 1 \;;#P window linecount 1;#P newex 71 197 112 196617 r $1;#B color 11;#P newex 117 275 49 196617 speedlim;#P newex 53 374 27 196617 + 1;#P newex 53 353 31 196617 == 0;#P newex 415 181 113 196617 s $1/direct;#B color 11;#P newex 53 309 245 196617 makeparam $1/direct $1 i 0 0 1 0;#B color 13;#P newex 282 181 113 196617 s $1/sendto;#B color 11;#P newex 139 121 112 196617 s $1/init;#B color 11;#P newex 206 561 221 196617 makeparam $1/sendto $1 s -;#B color 13;#P newex 484 230 116 196617 s $1/curve;#B color 11;#P newex 462 250 116 196617 s $1/outmax;#B color 11;#P newex 440 270 116 196617 s $1/outmin;#B color 11;#P newex 418 290 116 196617 s $1/inmax;#B color 11;#P newex 396 310 116 196617 s $1/inmin;#B color 11;#P newex 397 426 250 196617 makeparam $1/curve $1 f 0 -1 1 1;#B color 13;#P newex 396 210 100 196617 unpack 0. 0. 0. 0. 0.;#P newex 341 404 252 196617 makeparam $1/outmax $1 f 1 0 0 1;#B color 13;#P newex 285 383 249 196617 makeparam $1/outmin $1 f 0 0 0 1;#B color 13;#P newex 229 362 246 196617 makeparam $1/inmax $1 f 1 0 0 1;#B color 13;#P newex 173 341 243 196617 makeparam $1/inmin $1 f 0 0 0 1;#B color 13;#P window linecount 11;#P message 672 76 224 196617 \; $1/sw/init bang \; $1/sendto/init bang \; $1/direct/init bang \; $1/inmin/init bang \; $1/inmax/init bang \; $1/outmin/init bang \; $1/outmax/init bang \; $1/curve/init bang \; $1/speedlim/init bang \; $1/ramptime/init bang \;;#P window linecount 1;#P newex 156 236 203 196617 makeparam $1/speedlim $1 i 0 0 99999 1;#B color 13;#P number 182 531 56 9 0 0 0 3 0 0 0 221 221 221 222 222 222 0 0 0;#P newex 117 639 75 196617 pack 0. 0;#P newex 182 510 285 196617 makeparam $1/ramptime $1 i 0 0 99999 1;#B color 13;#P newex 18 529 135 196617 s $1/outdisp;#B color 11;#P newex 396 148 29 196617 t l 0;#P newex 323 126 83 196617 route direct;#P newex 323 148 21 196617 t 1;#P newex 282 103 51 196617 zl slice 1;#P newex 139 100 20 196617 t b;#P newex 92 446 35 196617 gate 2;#P message 156 55 86 196617 parmname direct;#P message 385 55 33 196617 clear;#P newex 139 79 153 196617 route clear;#P message 250 55 127 196617 paramname 0 127 0 1 0.1;#P newex 206 582 65 196617 prepend send;#P newex 117 670 45 196617 forward;#P newex 139 31 135 196617 r $1->;#B color 11;#P flonum 41 251 50 9 0 0 0 3 0 0 0 221 221 221 222 222 222 0 0 0;#P newex 117 472 347 196617 scalecurv 0 1 0 1 0;#B color 5;#P window linecount 3;#P comment 672 288 316 196617 arg 1: param name to forward \; arg 2: environment name for active params switchstate and for init (i.e. tape_switchstate \, movie_switchstate \, camtrk_switchstate...);#P window setfont "Sans Serif" 18.;#P window linecount 1;#P comment 672 228 79 196626 fwdmap;#P window setfont "Sans Serif" 9.;#P flonum 117 503 50 9 0 0 0 3 0 0 0 221 221 221 222 222 222 0 0 0;#P window linecount 2;#P comment 672 256 146 196617 forwarding unit scalecurv function avec direct and clear;#P window linecount 1;#P comment 276 33 191 196617 [param name][scale function param list];#P comment 672 364 103 196617 ©2006-7 Tom Mays;#P connect 3 0 21 0;#P connect 55 0 54 0;#P connect 54 0 53 0;#P connect 53 0 7 0;#P connect 41 0 57 0;#P connect 57 0 43 0;#P connect 43 0 44 0;#P connect 46 0 53 1;#P connect 24 0 48 0;#P connect 48 0 49 0;#P connect 49 0 51 0;#P connect 51 0 50 0;#P connect 44 0 56 0;#P connect 56 0 15 0;#P fasten 7 0 45 0 46 270 122 270;#P connect 45 0 15 1;#P connect 15 1 6 0;#P fasten 15 0 3 0 97 494 122 494;#P connect 6 0 3 0;#P connect 3 0 50 1;#P connect 50 1 23 0;#P fasten 10 0 9 0 211 661 122 661;#P fasten 50 0 9 0 89 666 122 666;#P connect 23 0 9 0;#P connect 14 0 12 0;#P fasten 13 0 12 0 390 74 144 74;#P fasten 11 0 12 0 255 74 144 74;#P connect 8 0 12 0;#P connect 12 0 16 0;#P connect 16 0 39 0;#P connect 25 0 52 0;#P connect 52 0 45 1;#P connect 27 0 58 0;#P connect 58 0 6 1;#P connect 22 0 24 0;#P connect 24 0 23 1;#P connect 38 0 10 0;#P connect 28 0 59 0;#P connect 59 0 6 2;#P connect 12 1 17 0;#P connect 17 0 40 0;#P connect 29 0 60 0;#P connect 60 0 6 3;#P connect 17 1 19 0;#P connect 19 0 18 0;#P connect 30 0 61 0;#P connect 61 0 6 4;#P connect 19 1 20 0;#P connect 20 0 31 0;#P connect 31 0 33 0;#P connect 32 0 62 0;#P connect 62 0 6 5;#P connect 20 1 42 0;#P connect 18 0 42 0;#P connect 31 1 34 0;#P connect 31 2 35 0;#P connect 31 3 36 0;#P connect 31 4 37 0;#P connect 63 0 26 0;#P pop;