max v2;#N vpatcher 575 126 1002 423;#P window setfont "Sans Serif" 9.;#P window linecount 1;#P message 11 36 76 196617 1410065408;#P message 126 57 55 196617 0.000001;#P flonum 64 176 163 9 0 0 0 3 0 0 0 221 221 221 222 222 222 0 0 0;#P message 51 57 70 196617 1000000000;#P newex 84 123 40 196617 line 0.;#P connect 0 0 2 0;#P connect 3 0 0 0;#P connect 4 0 0 0;#P connect 1 0 0 0;#P pop;