max v2;#N vpatcher 13 53 1027 714;#P window setfont Times 9.;#P user textedit 63 66 163 83 32900 20 9 -;#P objectname sendname;#P window setfont "Sans Serif" 9.;#P window linecount 1;#P newex 29 260 94 196617 sel ->others;#P objectname modules[15];#N vpatcher 771 397 1287 721;#P origin 24 0;#P button 104 74 15 0;#P inlet 85 45 15 0;#P outlet 16 235 15 0;#P window setfont "Sans Serif" 9.;#P window linecount 2;#P message 51 104 256 196617 script hide out-function \, script show sendname \, script hide out-function_label \, script show sendname_label;#P window linecount 0;#P message 199 149 256 196617 script show out-function \, script hide sendname \, script show out-function_label \, script hide sendname_label;#P inlet 16 45 15 0;#P fasten 2 0 3 0 56 211 21 211;#P fasten 1 0 3 0 204 231 21 231;#P connect 0 0 2 0;#P connect 4 0 5 0;#P connect 5 0 1 0;#P pop;#P newobj 29 282 94 196617 p show_hide;#B color 6;#P window setfont "Sans Serif" 12.;#P hidden newex 212 514 101 196620 pvar sendname;#B color 13;#P window setfont "Sans Serif" 9.;#P hidden newex 266 605 296 196617 variedit $1/out-> $1;#B color 5;#P hidden newex 212 581 40 196617 t clear;#P hidden newex 212 561 65 196617 route bang -;#P hidden newex 212 540 56 196617 route text;#P window setfont Times 9.;#P comment 10 64 60 1310729 send name:;#P objectname sendname_label;#P window setfont "Sans Serif" 9.;#P newex 95 580 62 196617 prepend set;#P newex 860 234 107 196617 sprintf setsymbol %s;#P objectname modules[14];#P newex 540 233 107 196617 sprintf setsymbol %s;#P objectname modules[7];#N vpatcher 585 111 1219 541;#P origin -1 31;#P window setfont "Sans Serif" 9.;#P window linecount 0;#P newex 411 92 29 196617 * 5.;#P newex 166 73 80 196617 prepend symbol;#P outlet 123 358 15 0;#P newex 231 96 130 196617 r $1/sym;#P newex 202 39 107 196617 r $1/mode;#P outlet 426 355 15 0;#P window linecount 3;#P comment 442 157 156 196617 The curve menu at left sets this number box to the default curve. Try other values!;#P window linecount 2;#P comment 396 227 198 196617 Fifth numeric argument initializes the kink/curvature parameter.;#P window linecount 1;#P comment 268 132 115 196617 Try a symmetry option!;#P number 231 131 35 9 0 2 3 3 0 0 0 221 221 221 222 222 222 0 0 0;#P message 231 154 42 196617 sym \$1;#P user umenu 179 154 47 196647 1 64 170 1;#X add lin;#X add exp;#X add pow;#P flonum 414 120 54 9 0 0 0 3 0 0 0 221 221 221 222 222 222 0 0 0;#P background;#P newex 398 67 170 196617 r $1/curve;#P background;#N vpatcher 4 466 397 612;#P origin 2 0;#P window setfont "Sans Serif" 9.;#P comment 175 42 200 196617 Y coordinate values are inverted so the resulting LCD display looks more like a conventional Cartesian coordinate system.;#P message 4 92 119 196617 setpixel \$1 \$2 0 40 17;#P outlet 4 112 15 0;#P inlet 88 24 15 0;#P comment 103 24 175 196617 Output values calculated by lp.scampf;#P inlet 4 4 15 0;#P newex 88 42 85 196617 lp.scampf -1 40;#P newex 4 65 94 196617 pack;#P comment 19 4 213 196617 Original values generated by patcher genInput;#P connect 3 0 1 0;#P connect 1 0 7 0;#P connect 7 0 6 0;#P connect 5 0 2 0;#P connect 2 0 1 1;#P pop;#P newobj 121 266 102 196617 p mapOutput;#P background;#P newex 216 244 175 196617 lp.scampf map 0. 40. 0. 40. pow 1.;#P background;#P newex 38 53 45 196617 loadbang;#P background;#N vpatcher 6 348 329 468;#P outlet 197 87 15 0;#P inlet 3 2 15 0;#P window setfont "Sans Serif" 9.;#P newex 35 64 27 196617 -1;#P newex 3 23 204 196617 t b clear;#P newex 3 42 43 196617 Uzi 40;#P outlet 35 87 15 0;#P comment 25 3 274 196617 Any input triggers a stream of integers from 0 to 100;#P connect 5 0 3 0;#P connect 3 0 2 0;#P connect 2 2 4 0;#P connect 4 0 1 0;#P connect 3 1 6 0;#P pop;#P newobj 121 214 58 196617 p genInput;#P background;#P newex 426 330 62 196617 prepend set;#P background;#P newex 459 305 21 196617 t 1;#P background;#P newex 426 304 21 196617 t 0;#P background;#P newex 426 283 44 196617 sel lin;#P background;#P fasten 12 0 4 0 236 180 126 180;#P connect 5 0 4 0;#P connect 9 0 4 0;#P fasten 10 0 4 0 184 181 126 181;#P connect 4 0 7 0;#P connect 7 0 19 0;#P connect 4 1 19 0;#P connect 17 0 20 0;#P connect 20 0 10 0;#P connect 6 0 7 1;#P fasten 11 0 6 0 236 198 221 198;#P fasten 10 1 6 0 221 198 221 198;#P fasten 4 0 6 0 126 237 221 237;#P connect 18 0 12 0;#P connect 12 0 11 0;#P connect 9 0 6 5;#P connect 8 0 21 0;#P connect 21 0 9 0;#P connect 17 0 0 0;#P connect 0 0 1 0;#P fasten 2 0 3 0 464 326 431 326;#P connect 1 0 3 0;#P connect 3 0 16 0;#P connect 0 1 2 0;#P pop;#P newobj 322 477 105 196617 p display;#P user lcd 214 81 40 40 1 1 0 0 0;#P objectname curve_disp;#P window setfont Times 9.;#P comment 261 31 34 1310729 /direct;#P comment 53 2 24 1310729 /raw;#P window setfont "Sans Serif" 9.;#P newex 109 167 111 196617 variedit $1/direct $1;#P newex 109 143 61 196617 pvar select;#P toggle 294 30 15 0;#P objectname select;#P window setfont Times 9.;#P comment 160 52 43 1310729 /out/min;#P comment 160 65 44 1310729 /out/max;#P comment 160 19 39 1310729 /in/min;#P comment 160 34 40 1310729 /in/max;#P comment 145 110 32 1310729 /data;#P objectname ramp_com[1];#P comment 2 110 56 1310729 /slide_down;#P hidden comment 9 65 60 1310729 /function/out;#P objectname out-function_label;#P comment 13 52 55 1310729 /module/out;#P comment 13 35 56 1310729 /function/in;#P window setfont "Sans Serif" 9.;#P flonum 170 109 35 9 0 0 8352 3 0 0 0 221 221 221 222 222 222 0 0 0;#P objectname data;#P newex 23 373 53 196617 pvar data;#P newex 23 351 56 196617 r $1/data;#P flonum 82 1 35 9 0 0 8352 3 0 0 0 221 221 221 222 222 222 0 0 0;#P objectname raw;#P newex 23 331 52 196617 pvar raw;#P newex 23 309 116 196617 r $1/raw;#P newex 862 404 83 196617 r $1/ramp/hide;#N thispatcher;#Q end;#P newobj 862 454 61 196617 thispatcher;#N vpatcher 450 182 800 404;#P window setfont "Sans Serif" 9.;#P window linecount 2;#P message 154 97 118 196617 script show ramp_com \, script show ramp;#P window linecount 0;#P message 39 97 109 196617 script hide ramp_com \, script hide ramp;#P newex 39 73 240 196617 sel 0 1;#P outlet 39 142 15 0;#P inlet 39 43 15 0;#P connect 0 0 2 0;#P connect 2 0 3 0;#P connect 3 0 1 0;#P fasten 4 0 1 0 159 133 44 133;#P connect 2 1 4 0;#P pop;#P newobj 862 428 50 196617 p hide;#P newex 322 518 84 196617 pvar curve_disp;#P newex 417 548 244 196617 variedit $1/curve $1;#P objectname curve[2];#P newex 417 522 60 196617 pvar curve;#P newex 678 354 206 196617 variedit $1/out/max $1;#P objectname modules[29];#P newex 375 353 203 196617 variedit $1/out/min $1;#P objectname modules[30];#P newex 678 331 58 196617 pvar oMax;#P objectname modules[12];#P newex 375 330 50 196617 pvar omin;#P objectname modules[13];#P newex 678 293 200 196617 variedit $1/in/max $1;#P objectname modules[25];#P newex 678 270 58 196617 pvar iMax;#P objectname modules[11];#P newex 375 292 197 196617 variedit $1/in/min $1;#P objectname modules[24];#P newex 375 269 50 196617 pvar imin;#P objectname modules[10];#P newex 678 167 164 196617 r $1/variables/list;#B color 12;#P newex 678 195 98 196617 pvar out-function 2;#P objectname modules[3];#P newex 766 214 198 196617 variedit $1/out/function $1;#P objectname modules[4];#P newex 375 167 169 196617 r $1/controls/list;#B color 12;#P newex 375 195 92 196617 pvar in-function 2;#P objectname modules[5];#P newex 457 214 177 196617 variedit $1/in/function $1;#P objectname modules[6];#P newex 678 81 164 196617 r $1/module/out/list;#B color 12;#P newex 678 109 98 196617 pvar out-modules 2;#P objectname modules[1];#P newex 766 131 185 196617 variedit $1/out/module $1;#P objectname modules[2];#P newex 375 81 164 196617 r $1/module/in/list;#B color 12;#P newex 375 109 92 196617 pvar in-modules 2;#P objectname modules[8];#P newex 457 131 177 196617 variedit $1/in/module $1;#P objectname modules[9];#P newex 30 434 254 196617 variedit $1/slide_down $1;#P newex 30 414 62 196617 pvar slidedn;#P flonum 50 109 35 9 0. 100. 8195 3 0 0 0 221 221 221 0 0 0 0 0 0;#P objectname slidedn;#P window setfont Times 9.;#P comment 1 95 45 1310729 /slide_up;#P comment 59 83 44 1310729 /symetry;#P comment 117 83 33 1310729 /curve;#P comment 1 84 33 1310729 /mode;#P window setfont "Sans Serif" 9.;#P flonum 43 94 35 9 0. 100. 8195 3 0 0 0 221 221 221 0 0 0 0 0 0;#P objectname slideup;#P user ubumenu 102 82 15 196617 0 0 1 0;#X add 0;#X add ¥;#X add |;#X prefix_set 0 0 <none> 0;#X pattrmode 1;#P objectname sym;#P user ubumenu 34 82 27 196617 0 0 1 1;#X add lin;#X add exp;#X add pow;#X prefix_set 0 0 <none> 0;#X pattrmode 1;#P objectname mode;#P flonum 148 82 33 9 -1. 1. 8195 3 0 0 0 221 221 221 0 0 0 0 0 0;#P objectname curve;#N thispatcher;#Q end;#P newobj 0 140 61 196617 thispatcher;#P number 113 109 36 9 0 10000 8195 3 0 0 0 221 221 221 0 0 0 0 0 0;#P objectname ramp;#P window setfont Times 9.;#P comment 83 110 32 1310729 /ramp;#P objectname ramp_com;#P window setfont "Sans Serif" 9.;#P flonum 199 32 56 9 0 0 0 3 0 0 0 221 221 221 222 222 222 0 0 0;#P objectname iMax;#P flonum 199 18 56 9 0 0 0 3 0 0 0 221 221 221 222 222 222 0 0 0;#P objectname imin;#P user ubumenu 64 32 97 196617 0 1 1 0;#X prefix_set 0 0 <none> 0;#X pattrmode 1;#P objectname in-function;#P user ubumenu 64 19 97 196617 0 1 1 0;#X add /midi.1;#X add /mapper.1;#X add /mapper.2;#X add /oscsend.1;#X add /oscsend.2;#X add /oscreceive.1;#X add /oscreceive.2;#X add /mouse;#X add $1;#X prefix_set 0 0 <none> 0;#X pattrmode 1;#P objectname in-modules;#P flonum 199 65 56 9 0 0 0 3 0 0 0 221 221 221 222 222 222 0 0 0;#P objectname oMax;#P flonum 199 52 56 9 0 0 0 3 0 0 0 221 221 221 222 222 222 0 0 0;#P objectname omin;#P user ubumenu 64 52 97 196617 0 1 1 0;#X add ->others;#X add /midi.1;#X add /mapper.1;#X add /mapper.2;#X add /oscsend.1;#X add /oscsend.2;#X add /oscreceive.1;#X add /oscreceive.2;#X add /mouse;#X add $1;#X prefix_set 0 0 <none> 0;#X pattrmode 1;#P objectname out-modules;#P window setfont Times 9.;#P comment 13 22 51 1310729 /module/in;#P window setfont "Sans Serif" 9.;#P newex 36 505 94 196617 prepend setsymbol;#B color 1;#P newex 36 481 147 196617 variedit $1/mode $1;#B color 1;#P newex 36 525 66 196617 pvar mode 2;#B color 1;#P newex 34 560 132 196617 variedit $1/sym $1;#B color 1;#P newex 898 42 44 196617 t select;#P objectname modules[43];#P newex 831 42 44 196617 t select;#P objectname modules[42];#P newex 840 24 69 196617 pvar curve 2;#P newex 764 42 44 196617 t select;#P objectname modules[41];#P newex 703 42 44 196617 t select;#P objectname modules[40];#P newex 639 42 44 196617 t select;#P objectname modules[39];#P newex 774 24 67 196617 pvar oMax 2;#P objectname modules[21];#P newex 711 24 64 196617 pvar omin 2;#P objectname modules[17];#P newex 648 24 65 196617 pvar iMax 2;#P objectname modules[20];#P newex 587 24 62 196617 pvar imin 2;#P objectname modules[38];#P newex 34 598 53 196617 pvar sym;#B color 1;#P newex 631 434 220 196617 variedit $1/ramp $1;#B color 1;#P objectname modules[31];#P newex 631 414 57 196617 pvar ramp;#B color 1;#P newex 296 434 241 196617 variedit $1/slide_up $1;#P newex 296 414 62 196617 pvar slideup;#P newex 24 217 215 196617 variedit $1/speedlim $1;#P newex 24 193 73 196617 pvar speedlim;#P window setfont Times 9.;#P comment 138 96 44 1310729 /speedlim;#P number 181 96 32 9 0 10000 3 20 0 0 0 221 221 221 222 222 222 0 0 0;#P objectname speedlim;#P window setfont "Sans Serif" 9.;#P hidden user ubumenu 64 65 97 196617 0 1 1 0;#X prefix_set 0 0 <none> 0;#X pattrmode 1;#P objectname out-function;#P bpatcher 0 0 256 124 0 0 bkgnd2.mxt 0 $1 0 $2;#P background;#P objectname background;#P fasten 104 0 35 0 34 302 5 302;#P hidden connect 0 0 35 0;#P connect 73 0 74 0;#P connect 76 0 77 0;#P fasten 5 0 4 0 29 240 16 240 16 185 29 185;#P connect 4 0 5 0;#P connect 51 1 105 0;#P connect 105 0 104 0;#P fasten 46 0 45 0 35 456 22 456 22 407 35 407;#P connect 45 0 46 0;#P fasten 10 0 21 0 39 618 30 618 30 557 39 557;#P connect 97 0 10 0;#P fasten 22 1 23 0 97 545 25 545 25 477 41 477;#P fasten 23 1 24 0 109 501 41 501;#P connect 24 0 22 0;#P connect 21 1 97 0;#P fasten 90 0 89 0 114 190 101 190 101 135 114 135;#P connect 89 0 90 0;#P connect 105 1 104 1;#P hidden connect 102 0 103 0;#P hidden connect 103 0 99 0;#P hidden connect 99 0 100 0;#P hidden connect 100 1 101 0;#P hidden connect 100 0 101 0;#P hidden connect 101 0 102 0;#P hidden connect 100 2 102 0;#P fasten 7 0 6 0 301 454 292 454 292 407 301 407;#P connect 6 0 7 0;#P connect 94 0 69 0;#P connect 49 0 48 0;#P fasten 47 0 48 0 462 154 364 154 364 104 380 104;#P connect 55 0 54 0;#P fasten 95 0 54 0 545 256 358 256 358 192 380 192;#P fasten 60 0 59 0 380 316 370 316 370 262 380 262;#P fasten 59 0 60 0 380 289 380 289;#P fasten 65 0 63 0 380 372 371 372 371 321 380 321;#P fasten 63 0 65 0 380 350 380 350;#P fasten 68 0 67 0 422 571 410 571 410 519 422 519;#P connect 94 1 67 0;#P fasten 67 0 68 0 422 543 422 543;#P connect 48 1 47 0;#P connect 54 1 53 0;#P connect 53 1 95 0;#P fasten 20 0 11 0 903 62 579 62 579 20 592 20;#P fasten 9 0 8 0 636 453 621 453 621 406 636 406;#P connect 8 0 9 0;#P connect 11 1 15 0;#P connect 15 0 12 0;#P connect 52 0 51 0;#P fasten 50 0 51 0 771 154 667 154 667 104 683 104;#P connect 58 0 57 0;#P fasten 96 0 57 0 865 254 674 254 674 192 683 192;#P fasten 62 0 61 0 683 314 673 314 673 262 683 262;#P fasten 61 0 62 0 683 290 683 290;#P fasten 66 0 64 0 683 373 675 373 675 322 683 322;#P fasten 64 0 66 0 683 351 683 351;#P connect 12 1 16 0;#P connect 16 0 13 0;#P connect 13 1 17 0;#P connect 51 1 50 0;#P connect 57 1 56 0;#P connect 17 0 14 0;#P connect 14 1 19 0;#P connect 19 0 18 0;#P connect 56 1 96 0;#P connect 72 0 70 0;#P connect 70 0 71 0;#P connect 18 1 20 0;#P pop;