max v2;#N vpatcher 372 63 1282 652;#P origin 0 -2;#P window setfont "Sans Serif" 9.;#P window linecount 1;#P newex 714 273 82 196617 pvar clipmode 2;#P window setfont Times 9.;#P comment 68 49 48 1310729 /clipmode;#B frgb 140 10 10;#P objectname clipmodetext;#P user ubumenu 110 49 42 1310729 0 1 1 0;#X add clip;#X add reject;#X prefix_set 0 0 <none> 0;#P objectname clipmode;#P comment 260 3 122 1310729 choose new control to map ->;#P window setfont "Sans Serif" 12.;#P message 76 25 115 196620 $1;#P noclick;#P window setfont Times 14.;#P comment 66 10 144 1310734 "universal" mapper for :;#B frgb 99 99 99;#P window setfont Times 9.;#P comment 264 107 76 1310729 modify or type ->;#P comment 379 77 116 1310729 chose destination parameter;#P comment 265 77 106 1310729 chose destination module;#P comment 296 43 124 1310729 choose which mapping to edit;#P number 48 109 38 9 0 0 1 20 0 0 0 221 221 221 222 222 222 0 0 0;#P objectname ramp;#P hidden comment 456 25 16 1310729 in;#B frgb 99 99 99;#P objectname invaldispntext;#P flonum 48 93 38 9 0. 99999. 3 20 0 0 0 221 221 221 222 222 222 0 0 0;#P objectname slidedown;#P flonum 48 79 38 9 0. 99999. 3 20 0 0 0 221 221 221 222 222 222 0 0 0;#P objectname slideup;#P number 48 65 38 9 0 99999 3 20 0 0 0 221 221 221 222 222 222 0 0 0;#P objectname speedlim;#P comment 6 66 44 1310729 /speedlim;#B frgb 0 0 200;#P comment 478 26 20 1310729 out;#B frgb 99 99 99;#P objectname outvaldisptext;#P comment 460 26 16 1310729 in;#B frgb 99 99 99;#P objectname invaldisptext;#P user ubutton 455 27 43 42 0 2;#P objectname dispbutton;#P hidden comment 191 80 36 1310729 outtrig;#P objectname outtrigtext;#P hidden button 179 80 13 0;#P noclick;#P objectname outbang;#P hidden comment 456 45 20 1310729 out;#B frgb 99 99 99;#P objectname outvaldispntext;#P hidden flonum 454 55 44 9 0 0 8224 20 0 0 0 221 221 221 222 222 222 0 0 0;#P noclick;#P objectname outvaldispn;#P user multiSlider 480 36 13 33 0. 1. 1 2681 15 0 0 1 0 0 0;#M frgb 0 0 0;#M brgb 255 255 255;#M rgb2 127 127 127;#M rgb3 0 0 0;#M rgb4 37 52 91;#M rgb5 74 105 182;#M rgb6 112 158 18;#M rgb7 149 211 110;#M rgb8 187 9 201;#M rgb9 224 62 37;#M rgb10 7 114 128;#P noclick;#P objectname outvaldisp;#P hidden flonum 454 35 44 9 0 0 8224 20 0 0 0 221 221 221 222 222 222 0 0 0;#P noclick;#P objectname invaldispn;#P user multiSlider 461 36 13 33 0. 1. 1 2681 15 0 0 1 0 0 0;#M frgb 0 0 0;#M brgb 255 255 255;#M rgb2 127 127 127;#M rgb3 0 0 0;#M rgb4 37 52 91;#M rgb5 74 105 182;#M rgb6 112 158 18;#M rgb7 149 211 110;#M rgb8 187 9 201;#M rgb9 224 62 37;#M rgb10 7 114 128;#P noclick;#P objectname invaldisp;#P hidden comment 148 111 77 1310729 (use 'b' for 'bang');#B frgb 200 0 0;#P objectname bforbangtext;#P comment 319 28 47 1310729 /newcopy;#B frgb 0 0 200;#P button 361 27 13 7;#P objectname newcopy;#P comment 277 28 26 1310729 /new;#B frgb 0 0 200;#P button 301 27 13 6;#P objectname new;#P comment 7 109 47 1310729 /destramp;#B frgb 140 10 10;#P objectname ramptext;#P comment 379 28 49 1310729 /deleteone;#B frgb 0 0 200;#P button 423 27 13 4;#P objectname deleteone;#P comment 336 107 35 1310729 sendto;#P user textedit 366 104 506 120 32896 20 9 <none>;#P objectname sendto;#P hidden comment 110 111 43 1310729 trigmess;#P objectname trigmesstext;#P flonum 110 108 42 9 0 0 0 20 0 0 0 221 221 221 222 222 222 0 0 0;#P objectname out2;#P comment 90 79 21 1310729 /in2;#B frgb 140 10 10;#P objectname in2text;#P flonum 110 79 42 9 0 0 0 20 0 0 0 221 221 221 222 222 222 0 0 0;#P objectname in2;#P user lcd 228 65 29 29 0 1 0 0 0;#P objectname curvdisp;#P comment 86 108 25 1310729 /out2;#B frgb 140 10 10;#P objectname out2text;#P comment 86 94 25 1310729 /out1;#B frgb 140 10 10;#P objectname out1text;#P comment 90 65 21 1310729 /in1;#B frgb 140 10 10;#P objectname in1text;#P flonum 110 94 42 9 0 0 0 20 0 0 0 221 221 221 222 222 222 0 0 0;#P objectname out1;#P flonum 110 65 42 9 0 0 0 20 0 0 0 221 221 221 222 222 222 0 0 0;#P objectname in1;#P comment 192 108 37 1310729 /offsetv;#B frgb 140 10 10;#P objectname offsetvtext;#P comment 192 94 37 1310729 /offseth;#B frgb 140 10 10;#P objectname offsethtext;#P comment 151 108 29 1310729 /flipv;#B frgb 140 10 10;#P objectname flipvtext;#P comment 151 94 29 1310729 /fliph;#B frgb 140 10 10;#P objectname fliphtext;#P toggle 179 108 14 0;#P objectname flipv;#P toggle 179 94 14 0;#P objectname fliph;#P comment 151 80 30 1310729 /curve;#B frgb 140 10 10;#P objectname curvetext;#P comment 155 65 25 1310729 /type;#B frgb 140 10 10;#P flonum 179 80 35 9 -1. 1. 3 20 0 0 0 221 221 221 222 222 222 0 0 0;#P objectname curve;#P flonum 228 108 32 9 -1. 1. 3 20 0 0 0 221 221 221 222 222 222 0 0 0;#P objectname offsetv;#P flonum 228 94 32 9 -1. 1. 3 20 0 0 0 221 221 221 222 222 222 0 0 0;#P objectname offseth;#P user ubumenu 179 65 42 1310729 0 1 1 0;#X add norm;#X add sym;#X add updwn;#X add trig;#X add direct;#X prefix_set 0 0 <none> 0;#P objectname type;#P user ubumenu 278 54 158 1310729 0 1 1 0;#X prefix_set 0 0 <none> 0;#P objectname destinations;#P hidden user textedit 110 94 260 113 32896 20 9 b;#P objectname trigmess;#P comment 2 94 48 1310729 /rampdown;#B frgb 0 0 200;#P objectname ramptext[2];#P comment 13 80 37 1310729 /rampup;#B frgb 0 0 200;#P objectname ramptext[1];#P user panel 3 64 84 44;#X brgb 198 198 198;#X frgb 0 0 0;#X border 1;#X rounded 0;#X shadow 0;#X done;#P window setfont "Sans Serif" 9.;#P user ubumenu 366 88 140 196617 0 1 1 0;#X add -;#X add <none>;#X prefix_set 0 0 <none> 0;#X pattrmode 1;#P objectname moduleparamsmenu;#P user ubumenu 265 88 100 196617 0 1 1 0;#X add -;#X prefix_set 0 0 <none> 0;#X pattrmode 1;#P objectname modulemenu;#P button 181 411 15 0;#P newex 177 437 42 196617 route -;#P message 125 507 40 196617 <none>;#P message 101 488 57 196617 set <none>;#P newex 99 535 62 196617 prepend set;#P window setfont "Sans Serif" 18.;#N vpatcher 400 45 1099 884;#P origin 0 -76;#P window setfont "Sans Serif" 9.;#P window linecount 0;#P newex 267 71 161 196617 r /tapemovie/mapping/initmenus;#B color 12;#P newex 104 403 206 196617 s $1/setmoduleandparam;#B color 12;#P newex 205 455 58 196617 gate 2 1;#P newex 347 296 222 196617 s $1/makemoduleparamsmenu;#B color 12;#P newex 309 276 47 196617 gate 2 1;#P newex 238 109 189 196617 s $1/makemodulemenu;#B color 12;#P newex 55 49 27 196617 + 1;#P newex 201 85 47 196617 gate 2 1;#P newex 55 21 173 196617 r /tapemovie/mapping/custommenu;#B color 12;#P newex 442 454 208 196617 r $1/tomoduleparamsmenu;#B color 12;#P newex 416 777 208 196617 s $1/tomoduleparamsmenu;#B color 12;#P newex 346 191 175 196617 r $1/tomodulemenu;#B color 12;#P newex 265 798 175 196617 s $1/tomodulemenu;#B color 12;#N comlet init menus;#P inlet 523 43 15 0;#P newex 416 428 40 196617 t clear;#P newex 238 41 123 196617 r $1/init;#B color 11;#P comment 361 213 65 196617 modulemenu;#P comment 361 257 74 196617 modulemenu 2;#N comlet modulemenu 2;#P inlet 346 256 15 0;#N comlet modulemenu;#P outlet 346 212 15 0;#P comment 376 485 98 196617 moduleparamsmenu;#N comlet moduleparamsmenu;#P outlet 361 484 15 0;#P comment 220 432 43 196617 sendto;#N comlet sendto;#P inlet 205 431 15 0;#P newex 97 672 69 196617 route symbol;#P newex 97 716 62 196617 prepend set;#P newex 97 695 31 196617 t s 0;#P newex 14 637 29 196617 gate;#P newex 33 591 40 196617 t b l 1;#P newex 104 584 30 196617 t s b;#P message 124 627 65 196617 refer empty;#P newex 104 606 124 196617 sprintf refer %s/params;#N coll empty 1;#P newobj 79 651 66 196617 coll empty 1;#B color 5;#P message 454 385 65 196617 refer empty;#N coll empty 1;#P newobj 521 384 66 196617 coll empty 1;#B color 5;#P message 221 746 32 196617 set -;#P newex 320 696 31 196617 t s 0;#P newex 221 725 29 196617 gate;#P newex 240 621 40 196617 t b l 1;#N coll modules 1;#P newobj 255 673 74 196617 coll modules 1;#B color 5;#P newex 48 623 40 196617 itoa;#P newex 255 643 40 196617 itoa;#P newex 205 498 81 196617 t l l l;#P newex 240 600 45 196617 zl slice;#P newex 275 579 27 196617 - 1;#P newex 275 559 44 196617 zl nth 2;#P newex 275 539 46 196617 zl group;#P newex 275 519 51 196617 zl sub 47;#P newex 205 477 40 196617 atoi;#P newex 352 319 42 196617 route -;#P newex 361 428 48 196617 t - clear;#P newex 398 408 69 196617 route symbol;#P newex 414 361 124 196617 sprintf refer %s/params;#P newex 384 340 71 196617 t dump s b;#N coll empty 1;#P newobj 384 385 66 196617 coll empty 1;#B color 5;#P newex 361 454 78 196617 prepend append;#P button 238 64 15 0;#P newex 264 211 78 196617 prepend append;#P newex 238 142 135 196617 t dump - clear b;#P newex 264 188 69 196617 route symbol;#N coll modules 1;#P newobj 238 166 89 196617 coll modules 1;#B color 5;#P window linecount 1;#P comment 467 44 56 196617 init menus;#P connect 33 2 34 0;#P connect 35 1 34 0;#P connect 19 0 33 0;#P connect 33 0 34 1;#P connect 33 1 21 0;#P connect 53 0 55 0;#P connect 30 0 29 0;#P connect 21 0 29 0;#P connect 31 0 29 0;#P connect 29 1 37 0;#P connect 37 0 35 0;#P connect 35 0 36 0;#P fasten 59 1 60 0 258 479 316 479 316 388 109 388;#P connect 20 0 32 0;#P connect 32 0 30 0;#P connect 32 1 31 0;#P connect 55 0 54 0;#P lcolor 1;#P connect 55 0 59 0;#P connect 59 0 13 0;#P connect 13 0 19 0;#P connect 23 2 24 0;#P fasten 25 1 24 0 346 719 226 719;#P lcolor 13;#P connect 24 0 26 0;#P connect 61 0 5 0;#P connect 46 0 5 0;#P fasten 48 0 5 0 528 61 243 61;#P connect 5 0 54 1;#P connect 54 1 56 0;#P connect 54 0 3 0;#P connect 3 0 1 0;#P connect 19 1 18 0;#P connect 18 0 23 0;#P connect 23 0 24 1;#P connect 38 0 59 1;#P connect 23 1 20 0;#P connect 20 0 22 0;#P connect 1 1 2 0;#P connect 2 1 4 0;#P connect 2 0 4 0;#P connect 3 1 4 0;#P connect 4 0 49 0;#P lcolor 1;#P connect 3 2 49 0;#P lcolor 1;#P connect 25 0 49 0;#P lcolor 1;#P connect 26 0 49 0;#P lcolor 1;#P connect 19 2 14 0;#P connect 14 0 15 0;#P connect 15 0 16 0;#P connect 16 0 17 0;#P connect 17 0 18 1;#P connect 55 0 57 0;#P lcolor 1;#P connect 14 1 15 1;#P connect 22 1 25 0;#P connect 50 0 42 0;#P connect 43 0 57 1;#P connect 57 1 58 0;#P connect 57 0 12 0;#P connect 8 2 11 0;#P connect 10 0 6 0;#P connect 11 0 6 0;#P connect 52 0 40 0;#P connect 12 1 8 0;#P connect 9 0 7 0;#P connect 28 0 7 0;#P connect 8 0 7 0;#P connect 7 1 10 0;#P connect 8 1 9 0;#P connect 3 3 47 0;#P connect 12 0 47 0;#P connect 34 0 47 0;#P connect 6 0 51 0;#P lcolor 1;#P connect 47 0 51 0;#P lcolor 1;#P connect 11 1 51 0;#P lcolor 1;#P connect 36 0 51 0;#P lcolor 1;#P connect 8 2 28 0;#P pop;#P newobj 40 427 121 196626 p edit-dest;#B color 6;#P window setfont "Sans Serif" 9.;#P newex 40 467 130 196617 pvar moduleparamsmenu 2;#P newex 64 403 97 196617 pvar modulemenu 2;#P newex 160 487 42 196617 route -;#P window linecount 2;#P comment 571 203 143 196617 multimapsendu.edit \; multimap send universal edit \;;#P window linecount 1;#P newex 38 277 84 196617 route bang;#P newex 38 256 84 196617 route text;#P window setfont "Sans Serif" 18.;#N vpatcher 220 69 1406 882;#P origin 0 -38;#P window setfont "Sans Serif" 9.;#P window linecount 1;#P newex 768 371 20 196617 t s;#P newex 1092 483 62 196617 prepend set;#P comment 1107 527 49 196617 clipmode;#P comment 1107 544 49 196617 clipmode;#N comlet clipmode;#P inlet 1092 543 15 0;#N comlet clipmode;#P outlet 1092 526 15 0;#P window linecount 0;#P message 46 266 65 196617 refer empty;#P window linecount 1;#P newex 536 738 47 196617 forward;#P newex 550 716 68 196617 prepend send;#P newex 550 695 69 196617 route symbol;#P button 511 634 15 0;#P window linecount 0;#P newex 498 653 48 196617 t b dump;#P window linecount 1;#N coll empty 1;#P newobj 536 674 66 196617 coll empty 1;#B color 5;#N comlet module name and instance to edit;#P inlet 1099 21 15 0;#P window linecount 0;#P comment 997 151 68 196617 $1/new;#P comment 1043 130 68 196617 $1/newcopy;#P comment 139 576 65 196617 $1/fillmenu;#P comment 587 197 65 196617 $1/fillmenu;#P comment 79 210 65 196617 $1/init;#P comment 370 39 65 196617 $1/init;#P comment 216 40 65 196617 $1/fillmenu;#P comment 55 43 65 196617 $1;#P comment 52 660 47 196617 $1/new;#P comment 52 579 65 196617 $1/newcopy;#P comment 1004 274 56 196617 $1/inval;#P comment 595 122 56 196617 $1/delete;#P newex 546 120 47 196617 forward;#B color 14;#P newex 546 77 20 196617 t b;#P newex 546 98 36 196617 zl reg;#P newex 552 209 20 196617 t b;#P newex 546 186 42 196617 t b b;#P newex 546 166 50 196617 deferlow;#B color 14;#P newex 546 146 44 196617 receive;#B color 14;#P newex 576 209 47 196617 forward;#B color 11;#N vpatcher 18 123 586 689;#P window setfont "Sans Serif" 9.;#P newex 18 137 50 196617 deferlow;#P window linecount 1;#P newex 316 386 114 196617 sprintf refer %s/state;#N comlet coll /state;#P outlet 316 409 15 0;#P button 18 160 15 0;#N comlet actualize;#P outlet 18 183 15 0;#P newex 176 57 30 196617 t b s;#N comlet module name and instance to edit;#P inlet 176 36 15 0;#P newex 196 102 20 196617 t s;#N comlet module name;#P outlet 46 183 15 0;#P newex 385 455 105 196617 sprintf set %s<none>;#N comlet mess #1<none>;#P outlet 385 480 15 0;#P newex 264 344 105 196617 sprintf send %s/new;#N comlet send /new;#P outlet 264 369 15 0;#P newex 242 322 126 196617 sprintf send %s/newcopy;#N comlet send /newcopy;#P outlet 242 347 15 0;#P newex 115 204 123 196617 sprintf send %s/fillmenu;#N comlet send #1/filemenu;#P outlet 115 229 15 0;#P newex 164 251 102 196617 sprintf send %s/init;#N comlet send #1/init;#P outlet 164 276 15 0;#P newex 140 229 96 196617 sprintf set %s/init;#N comlet receive #1/init;#P outlet 140 254 15 0;#P newex 93 182 117 196617 sprintf set %s/fillmenu;#N comlet receive #1/filemenu;#P outlet 93 207 15 0;#P newex 73 161 75 196617 sprintf set %s;#N comlet set #1;#P outlet 73 183 15 0;#P newex 218 299 99 196617 sprintf set %s/new;#N comlet receive /new;#P outlet 218 324 15 0;#P newex 196 277 120 196617 sprintf set %s/newcopy;#N comlet receive /newcopy;#P outlet 196 302 15 0;#P newex 409 480 103 196617 sprintf set %s/inval;#N comlet receive /inval;#P outlet 409 505 15 0;#P newex 289 366 110 196617 sprintf refer %s/data;#N comlet coll /data;#P outlet 289 391 15 0;#P newex 338 407 114 196617 sprintf send %s/delete;#N comlet send /delete;#P outlet 338 432 15 0;#P window linecount 0;#P newex 356 429 108 196617 sprintf set %s/delete;#N comlet receive /delete;#P outlet 356 454 15 0;#P comment 61 48 115 196617 connect to /fillmenu then bang start \, next ->;#P connect 32 0 37 0;#P connect 37 0 34 0;#P connect 34 0 33 0;#P connect 30 0 29 0;#P connect 30 0 14 0;#P connect 14 0 13 0;#P connect 30 0 16 0;#P connect 16 0 15 0;#P connect 30 0 22 0;#P connect 22 0 21 0;#P connect 30 0 18 0;#P connect 18 0 17 0;#P connect 30 0 20 0;#P connect 20 0 19 0;#P connect 31 0 32 0;#P connect 32 1 30 0;#P connect 30 0 10 0;#P connect 10 0 9 0;#P connect 30 0 12 0;#P connect 12 0 11 0;#P connect 30 0 24 0;#P connect 24 0 23 0;#P connect 30 0 26 0;#P connect 26 0 25 0;#P connect 30 0 6 0;#P connect 6 0 5 0;#P connect 30 0 36 0;#P connect 36 0 35 0;#P connect 30 0 4 0;#P connect 4 0 3 0;#P connect 30 0 2 0;#P connect 2 0 1 0;#P connect 30 0 28 0;#P connect 28 0 27 0;#P connect 30 0 8 0;#P connect 8 0 7 0;#P pop;#P newobj 486 42 449 196617 p identitychanger;#B color 6;#P newex 8 758 78 196617 prepend <none>;#P newex 8 736 139 196617 append norm 0. 0 0 0. 0. clip;#P newex 8 715 101 196617 pack 0. 1. 0. 1.;#P window linecount 1;#P newex 8 658 44 196617 receive;#B color 11;#N vpatcher 10 59 317 636;#P window setfont "Sans Serif" 9.;#P window linecount 1;#P newex 59 126 62 196617 t l l;#P newex 168 331 34 196617 zl len;#P newex 143 310 35 196617 t l l;#P newex 111 397 40 196617 itoa;#P newex 111 376 42 196617 zl slice;#P newex 143 352 35 196617 zl nth;#P newex 143 288 46 196617 zl group;#P newex 111 214 74 196617 t l b l;#P newex 175 257 43 196617 route 1;#P newex 175 236 51 196617 zl sub 47;#P newex 40 230 55 196617 t s b;#P newex 85 448 122 196617 sprintf refer %scontrols;#P newex 85 419 36 196617 zl reg;#P newex 40 505 75 196617 unpack s 0 0 0;#P newex 246 170 21 196617 t 0;#P newex 195 170 21 196617 t 1;#P newex 40 206 29 196617 gate;#P newex 59 152 40 196617 itoa;#P newex 195 149 61 196617 route /map;#P newex 195 128 40 196617 itoa;#P newex 59 105 146 196617 zl ecils 4;#P newex 59 79 40 196617 atoi;#N coll empty 1;#P newobj 40 484 66 196617 coll empty 1;#B color 5;#N comlet set name;#P inlet 150 31 15 0;#P button 59 35 15 0;#P window linecount 0;#P message 59 57 139 196617;#P inlet 59 15 15 0;#P outlet 82 533 15 0;#P outlet 103 533 15 0;#P connect 13 0 12 0;#P connect 14 0 12 0;#P connect 12 0 18 0;#P connect 17 0 6 0;#P connect 18 0 6 0;#P connect 6 0 15 0;#P connect 2 0 4 0;#P connect 5 0 3 0;#P connect 4 0 3 0;#P connect 3 0 7 0;#P connect 7 0 8 0;#P connect 8 0 28 0;#P connect 28 0 11 0;#P connect 11 0 12 1;#P connect 15 2 1 0;#P connect 18 1 16 0;#P connect 16 0 17 0;#P connect 15 3 0 0;#P connect 28 1 21 0;#P connect 21 0 24 0;#P connect 24 0 25 0;#P connect 25 0 16 1;#P fasten 20 1 22 0 213 282 148 282;#P connect 21 1 22 0;#P connect 22 0 26 0;#P connect 26 0 23 0;#P connect 23 0 24 1;#P connect 26 1 27 0;#P connect 27 0 23 1;#P connect 21 2 19 0;#P connect 19 0 20 0;#P connect 8 1 9 0;#P connect 9 0 10 0;#P connect 10 0 13 0;#P connect 10 1 14 0;#P pop;#P newobj 8 692 81 196617 p get_minmaxin;#B color 6;#N vpatcher 10 59 317 636;#P window setfont "Sans Serif" 9.;#P window linecount 1;#P newex 59 126 62 196617 t l l;#P newex 168 331 34 196617 zl len;#P newex 143 310 35 196617 t l l;#P newex 111 397 40 196617 itoa;#P newex 111 376 42 196617 zl slice;#P newex 143 352 35 196617 zl nth;#P newex 143 288 46 196617 zl group;#P newex 111 214 74 196617 t l b l;#P newex 175 257 43 196617 route 1;#P newex 175 236 51 196617 zl sub 47;#P newex 40 230 55 196617 t s b;#P newex 85 448 122 196617 sprintf refer %scontrols;#P newex 85 419 36 196617 zl reg;#P newex 40 505 75 196617 unpack s 0 0 0;#P newex 246 170 21 196617 t 0;#P newex 195 170 21 196617 t 1;#P newex 40 206 29 196617 gate;#P newex 59 152 40 196617 itoa;#P newex 195 149 61 196617 route /map;#P newex 195 128 40 196617 itoa;#P newex 59 105 146 196617 zl ecils 4;#P newex 59 79 40 196617 atoi;#N coll empty 1;#P newobj 40 484 66 196617 coll empty 1;#B color 5;#N comlet set name;#P inlet 150 31 15 0;#P button 59 35 15 0;#P window linecount 0;#P message 59 57 139 196617;#P inlet 59 15 15 0;#P outlet 82 533 15 0;#P outlet 103 533 15 0;#P connect 14 0 12 0;#P connect 13 0 12 0;#P connect 12 0 18 0;#P connect 18 0 6 0;#P connect 17 0 6 0;#P connect 6 0 15 0;#P connect 2 0 4 0;#P connect 4 0 3 0;#P connect 5 0 3 0;#P connect 3 0 7 0;#P connect 7 0 8 0;#P connect 8 0 28 0;#P connect 28 0 11 0;#P connect 11 0 12 1;#P connect 15 2 1 0;#P connect 18 1 16 0;#P connect 16 0 17 0;#P connect 15 3 0 0;#P connect 28 1 21 0;#P connect 21 0 24 0;#P connect 24 0 25 0;#P connect 25 0 16 1;#P connect 21 1 22 0;#P fasten 20 1 22 0 213 282 148 282;#P connect 22 0 26 0;#P connect 26 0 23 0;#P connect 23 0 24 1;#P connect 26 1 27 0;#P connect 27 0 23 1;#P connect 21 2 19 0;#P connect 19 0 20 0;#P connect 8 1 9 0;#P connect 9 0 10 0;#P connect 10 0 13 0;#P connect 10 1 14 0;#P pop;#P newobj 393 78 81 196617 p get_minmaxin;#B color 6;#P button 381 57 15 0;#P newex 393 148 78 196617 prepend <none>;#P newex 393 126 139 196617 append norm 0. 0 0 0. 0. clip;#P newex 393 105 101 196617 pack 0. 1. 0. 1.;#P window linecount 0;#P comment 949 173 44 196617 outbang;#N comlet outbang;#P outlet 934 172 15 0;#P comment 387 689 54 196617 slidedown;#N comlet slidedown;#P inlet 372 688 15 0;#P comment 387 728 54 196617 slidedown;#N comlet slidedown;#P outlet 372 727 15 0;#P comment 224 179 64 196617 destinations;#P comment 224 196 73 196617 destinations 2;#N comlet destinations 2;#P inlet 209 195 15 0;#N comlet destinations;#P outlet 209 178 15 0;#P comment 159 334 39 196617 sendto;#P comment 159 351 39 196617 sendto;#N comlet sendto;#P inlet 144 350 15 0;#N comlet sendto;#P outlet 144 333 15 0;#P comment 430 484 22 196617 in1;#P comment 430 500 22 196617 in1;#N comlet in1;#P inlet 415 499 15 0;#N comlet in1;#P outlet 415 483 15 0;#P comment 482 484 30 196617 out1;#P comment 482 500 30 196617 out1;#N comlet out1;#P inlet 467 499 15 0;#N comlet out1;#P outlet 467 483 15 0;#P comment 456 427 22 196617 in2;#P comment 456 443 22 196617 in2;#N comlet in2;#P inlet 441 442 15 0;#N comlet in2;#P outlet 441 426 15 0;#P comment 508 427 31 196617 out2;#P comment 508 443 31 196617 out2;#N comlet out2;#P inlet 493 442 15 0;#N comlet out2;#P outlet 493 426 15 0;#P comment 573 441 30 196617 type;#P comment 573 458 39 196617 type 2;#N comlet type 2;#P inlet 558 457 15 0;#N comlet type;#P outlet 558 440 15 0;#P comment 666 431 31 196617 fliph;#P comment 666 447 31 196617 fliph;#N comlet fliph;#P inlet 651 446 15 0;#N comlet fliph;#P outlet 651 430 15 0;#P comment 637 482 31 196617 curve;#P comment 637 498 31 196617 curve;#N comlet curve;#P inlet 622 497 15 0;#N comlet curve;#P outlet 622 481 15 0;#P comment 694 483 31 196617 flipv;#P comment 694 499 31 196617 flipv;#N comlet flipv;#P inlet 679 498 15 0;#N comlet flipv;#P outlet 679 482 15 0;#P comment 724 431 42 196617 offseth;#P comment 724 447 42 196617 offseth;#N comlet offseth;#P inlet 709 446 15 0;#N comlet offseth;#P outlet 709 430 15 0;#P comment 753 485 43 196617 offsetv;#P comment 753 502 43 196617 offsetv;#N comlet offsetv;#P inlet 738 501 15 0;#N comlet offsetv;#P outlet 738 484 15 0;#P comment 853 484 33 196617 ramp;#N comlet ramp;#P outlet 838 483 15 0;#P comment 853 503 33 196617 ramp;#N comlet ramp;#P inlet 838 502 15 0;#P comment 922 489 50 196617 trigmess;#P comment 922 506 50 196617 trigmess;#N comlet trigmess;#P inlet 907 505 15 0;#P comment 965 113 26 196617 new;#N comlet new;#P inlet 950 112 15 0;#P comment 1011 91 49 196617 newcopy;#N comlet newcopy;#P inlet 996 90 15 0;#P comment 1080 83 49 196617 deleteone;#N comlet deleteone;#P inlet 1065 82 15 0;#P comment 409 744 49 196617 speedlim;#N comlet speedlim;#P inlet 394 743 15 0;#P comment 409 783 49 196617 speedlim;#N comlet speedlim;#P outlet 394 782 15 0;#P comment 367 634 41 196617 slideup;#N comlet slideup;#P inlet 352 633 15 0;#P comment 367 673 41 196617 slideup;#N comlet slideup;#P outlet 352 672 15 0;#P comment 983 313 56 196617 invaldispn;#N comlet invaldispn;#P outlet 968 312 15 0;#P comment 975 296 56 196617 invaldisp;#N comlet invaldisp;#P outlet 960 294 15 0;#P comment 962 343 56 196617 curvdisp;#N comlet curvdisp;#P outlet 947 342 15 0;#P comment 941 642 65 196617 dispbutton 2;#N comlet dispbutton 2;#P inlet 927 641 15 0;#N comlet thispatcher;#P outlet 1129 760 15 0;#P comment 992 236 56 196617 outvaldisp;#P message 802 94 53 196617 script<none>;#P newex 802 72 67 196617 route <none>;#P newex 859 116 51 196617 tosymbol;#P newex 859 141 62 196617 prepend set;#P newex 396 430 21 196617 t 1;#P newex 359 357 84 196617 route trig direct;#P button 382 413 15 0;#P newex 622 371 19 196617 t f;#P newex 651 371 19 196617 t f;#P newex 680 371 19 196617 t f;#P newex 709 371 19 196617 t f;#P newex 738 371 19 196617 t f;#P message 916 279 14 196617 0;#P newex 372 707 106 196617 varieditu /rampdown;#B color 11;#P newex 352 651 93 196617 varieditu /rampup;#B color 11;#P newex 394 761 99 196617 varieditu /speedlim;#B color 11;#P newex 768 634 30 196617 t b b;#P newex 815 633 30 196617 t b b;#P newex 799 658 27 196617 i;#P button 867 698 15 0;#P newex 799 678 41 196617 sel 0 1;#P toggle 927 667 15 0;#P button 850 698 15 0;#N comlet outvaldisp;#P outlet 977 235 15 0;#P newex 934 212 73 196617 prepend range;#P newex 934 193 54 196617 pack 0. 0.;#P newex 847 211 19 196617 t f;#N comlet outvaldispn;#P outlet 983 252 15 0;#P newex 859 92 81 196617 sprintf %s-disp;#P newex 847 162 44 196617 receive;#B color 11;#P button 815 698 15 0;#P button 799 698 15 0;#N vpatcher 49 340 762 795;#P button 405 34 15 0;#N comlet bang to show all;#P inlet 384 35 15 0;#P button 384 156 15 0;#P window setfont "Sans Serif" 9.;#P newex 384 130 54 196617 onebang 1;#P newex 408 177 31 196617 t b 1;#P button 335 34 15 0;#P button 216 36 15 0;#P button 137 36 15 0;#P button 62 33 15 0;#P newex 372 177 31 196617 t b 2;#P window setfont Times 9.;#P message 558 254 87 1310729 outbang \, outtrigtext;#P window setfont "Sans Serif" 9.;#P newex 530 272 38 196617 gate 2;#P newex 530 315 109 196617 sprintf script hide %s;#P newex 558 294 114 196617 sprintf script show %s;#N comlet bang to show all;#P inlet 314 35 15 0;#P button 314 156 15 0;#P newex 314 130 54 196617 onebang 1;#P button 16 334 15 0;#P message 16 352 142 196617 script sendtoback background;#P newex 195 151 54 196617 onebang 1;#P newex 117 103 54 196617 onebang 1;#P newex 40 63 54 196617 onebang 1;#P newex 195 181 40 196617 t b 1 2;#P window setfont Times 9.;#P message 228 254 227 1310729 invaldispn \, invaldispntext \, outvaldispn \, outvaldispntext;#P window setfont "Sans Serif" 9.;#P newex 200 272 38 196617 gate 2;#P newex 200 315 109 196617 sprintf script hide %s;#P newex 228 294 114 196617 sprintf script show %s;#P newex 61 272 38 196617 gate 2;#P newex 117 183 31 196617 t b 2;#P newex 40 183 31 196617 t b 1;#P newex 61 315 114 196617 sprintf script show %s;#P newex 89 294 109 196617 sprintf script hide %s;#P window setfont Times 9.;#P message 89 224 207 1310729 invaldisp \, outvaldisp \, invaldisptext \, outvaldisptext;#N comlet bang if not trig;#P inlet 40 35 15 0;#N comlet bang if trig;#P inlet 117 35 15 0;#N comlet bang to show all;#P inlet 195 35 15 0;#P outlet 165 414 15 0;#P connect 9 1 19 0;#P connect 9 0 19 0;#P connect 19 0 18 0;#P connect 28 0 15 0;#P connect 3 0 15 0;#P connect 15 0 7 0;#P connect 14 1 9 0;#P connect 7 1 9 0;#P connect 8 1 9 0;#P connect 9 0 6 0;#P connect 16 0 15 1;#P lcolor 15;#P connect 17 0 15 1;#P lcolor 7;#P connect 14 0 4 0;#P connect 8 0 4 0;#P connect 7 0 4 0;#P connect 4 0 9 1;#P connect 9 1 5 0;#P connect 29 0 16 0;#P connect 2 0 16 0;#P connect 16 0 8 0;#P connect 15 0 16 1;#P lcolor 2;#P connect 17 0 16 1;#P lcolor 7;#P connect 23 0 0 0;#P connect 24 0 0 0;#P connect 18 0 0 0;#P connect 5 0 0 0;#P connect 6 0 0 0;#P connect 10 0 0 0;#P connect 11 0 0 0;#P connect 30 0 17 0;#P connect 1 0 17 0;#P connect 17 0 14 0;#P connect 7 1 12 0;#P connect 14 2 12 0;#P connect 8 1 12 0;#P connect 12 0 11 0;#P connect 14 0 13 0;#P connect 8 0 13 0;#P connect 7 0 13 0;#P connect 13 0 12 1;#P connect 12 1 10 0;#P connect 15 0 17 1;#P lcolor 2;#P connect 16 0 17 1;#P lcolor 15;#P connect 22 0 20 0;#P connect 31 0 20 0;#P connect 20 0 21 0;#P connect 33 0 20 1;#P connect 21 0 27 0;#P connect 36 0 33 0;#P connect 35 0 33 0;#P connect 33 0 34 0;#P connect 34 0 32 0;#P connect 20 0 33 1;#P connect 32 1 25 0;#P connect 14 1 25 0;#P connect 27 1 25 0;#P connect 25 0 24 0;#P connect 14 0 26 0;#P connect 32 0 26 0;#P connect 27 0 26 0;#P connect 26 0 25 1;#P connect 25 1 23 0;#P pop;#P newobj 799 717 79 196617 p hide/show;#B color 6;#P newex 744 203 73 196617 prepend range;#P newex 744 183 54 196617 pack 0. 0.;#P newex 960 272 44 196617 receive;#B color 11;#P newex 71 477 30 196617 t s s;#P newex 41 371 40 196617 t s s 1;#P newex 71 457 29 196617 gate;#P newex 101 456 31 196617 t 0 s;#P newex 101 436 69 196617 route symbol;#N coll empty 1;#P newobj 56 413 147 196617 coll empty 1;#B color 5;#P message 108 313 33 196617 clear;#P button 996 108 15 0;#P newex 996 127 47 196617 forward;#B color 11;#P window linecount 1;#P newex 8 577 44 196617 receive;#B color 11;#P button 950 130 15 0;#P newex 950 149 47 196617 forward;#B color 11;#P newex 80 194 47 196617 forward;#B color 11;#P button 80 174 15 0;#P newex 137 127 29 196617 gate;#P newex 229 131 21 196617 t 0;#P newex 156 107 20 196617 t b;#P newex 162 739 29 196617 gate;#P message 8 611 40 196617 <none>;#P newex 8 631 109 196617 t s b s 0;#P message 506 355 91 196617 trig 0 0 0 0 0 clip;#P newex 530 535 208 196617 t b s s b 0;#P newex 152 717 51 196617 zl slice 1;#P newex 864 549 29 196617 t 2 i;#P newex 838 549 21 196617 t 1;#P newex 838 527 36 196617 sel 0;#P newex 109 668 59 196617 t l b l;#P newex 109 689 51 196617 zl slice 1;#P message 988 540 14 196617 b;#P newex 208 616 47 196617 gate 2 1;#P newex 923 591 31 196617 t 2 s;#P newex 907 571 57 196617 route bang;#P newex 245 638 56 196617 zl join;#P newex 907 546 51 196617 tosymbol;#P newex 144 248 138 196617 t s s s;#P newex 236 694 82 196617 prepend subsym;#P newex 236 673 46 196617 pack s s;#P newex 140 558 47 196617 forward;#B color 11;#P newex 208 493 62 196617 prepend set;#P newex 57 543 80 196617 prepend symbol;#P newex 122 518 53 196617 t s b s 0;#P button 223 539 15 0;#P newex 144 371 51 196617 tosymbol;#P newex 144 290 20 196617 t s;#P newex 223 558 31 196617 t b 1;#N vpatcher 715 157 1334 620;#N comlet bang for direct;#P inlet 292 35 15 0;#P window setfont Times 9.;#P window linecount 0;#P message 465 254 54 1310729 in1 \, in1text \, in2 \, in2text;#P window setfont "Sans Serif" 9.;#P window linecount 1;#P newex 292 99 54 196617 onebang 1;#P window setfont Times 9.;#P window linecount 2;#P message 27 211 54 1310729 in1 \, in1text \, in2 \, in2text;#P button 292 61 15 0;#P window setfont "Sans Serif" 9.;#P window linecount 1;#P newex 292 132 31 196617 t b 2;#P window setfont Times 9.;#P window linecount 3;#P message 292 153 287 1310729 in1 \, in1text \, in2 \, in2text \, out1 \, out1text \, out2 \, out2text \, curve \, curvdisp \, curvetext \, fliph \, fliphtext \, flipv \, flipvtext \, offseth \, offsethtext \, offsetv \, offsetvtext \, trigmess \, trigmesstext \, bforbangtext \, outbang \, outtrigtext \, clipmode \, clipmodetext;#P button 26 358 15 0;#P window setfont "Sans Serif" 9.;#P window linecount 1;#P message 26 376 142 196617 script sendtoback background;#P newex 195 151 54 196617 onebang 1;#P newex 117 103 54 196617 onebang 1;#P newex 40 63 54 196617 onebang 1;#P newex 195 181 40 196617 t b 1 2;#P window setfont Times 9.;#P message 228 254 233 1310729 trigmess \, trigmesstext \, bforbangtext \, outbang \, outtrigtext;#P window setfont "Sans Serif" 9.;#P newex 200 272 38 196617 gate 2;#P newex 200 315 109 196617 sprintf script hide %s;#P newex 228 294 114 196617 sprintf script show %s;#P newex 61 272 38 196617 gate 2;#P newex 117 183 31 196617 t b 2;#P newex 40 165 31 196617 t b 1;#P newex 61 315 114 196617 sprintf script show %s;#P newex 89 294 109 196617 sprintf script hide %s;#P window setfont Times 9.;#P window linecount 2;#P message 89 211 354 1310729 out1 \, out1text \, out2 \, out2text \, curve \, curvdisp \, curvetext \, fliph \, fliphtext \, flipv \, flipvtext \, offseth \, offsethtext \, offsetv \, offsetvtext \, ramp \, ramptext \, clipmode \, clipmodetext;#N comlet bang if not trig;#P inlet 40 35 15 0;#N comlet bang if trig;#P inlet 117 35 15 0;#N comlet bang to show all;#P inlet 195 35 15 0;#P outlet 165 414 15 0;#P connect 10 0 19 0;#P connect 5 0 19 0;#P connect 11 0 19 0;#P connect 6 0 19 0;#P connect 19 0 18 0;#P connect 7 0 23 0;#P connect 3 0 15 0;#P connect 15 0 7 0;#P connect 7 1 9 0;#P connect 21 1 9 0;#P connect 14 1 9 0;#P connect 8 1 9 0;#P connect 9 0 6 0;#P connect 17 0 15 1;#P lcolor 7;#P connect 16 0 15 1;#P lcolor 15;#P connect 24 0 15 1;#P connect 8 0 4 0;#P connect 7 0 4 0;#P connect 14 0 4 0;#P connect 23 0 9 1;#P connect 20 0 9 1;#P connect 4 0 9 1;#P connect 9 1 5 0;#P connect 2 0 16 0;#P connect 16 0 8 0;#P connect 17 0 16 1;#P lcolor 7;#P connect 15 0 16 1;#P lcolor 2;#P connect 24 0 16 1;#P connect 11 0 0 0;#P connect 10 0 0 0;#P connect 6 0 0 0;#P connect 5 0 0 0;#P connect 18 0 0 0;#P connect 1 0 17 0;#P connect 17 0 14 0;#P connect 8 1 12 0;#P connect 7 1 12 0;#P connect 14 2 12 0;#P connect 12 0 11 0;#P connect 8 0 13 0;#P connect 7 0 13 0;#P connect 14 0 13 0;#P connect 25 0 12 1;#P connect 13 0 12 1;#P connect 12 1 10 0;#P connect 16 0 17 1;#P lcolor 15;#P connect 15 0 17 1;#P lcolor 2;#P connect 24 0 17 1;#P connect 26 0 22 0;#P connect 22 0 24 0;#P connect 24 0 21 0;#P connect 21 0 20 0;#P connect 17 0 24 1;#P connect 16 0 24 1;#P connect 15 0 24 1;#P connect 8 0 25 0;#P pop;#P newobj 280 431 113 196617 p hide/show;#B color 6;#P newex 874 421 20 196617 t b;#P newex 907 418 20 196617 t b;#P newex 874 442 31 196617 t set;#P newex 907 442 36 196617 zl reg;#P newex 907 467 62 196617 prepend set;#P message 933 279 14 196617 b;#P newex 907 524 56 196617 route text;#N comlet trigmess;#P outlet 907 488 15 0;#P newex 593 257 350 196617 t l 0 b;#P message 838 466 39 196617 set \$1;#P newex 838 437 18 196617 t i;#P newex 838 374 92 196617 route int float;#P button 348 413 15 0;#P newex 359 291 27 196617 t b l;#P newex 359 328 36 196617 zl reg;#P newex 359 385 40 196617 t b b b;#P comment 763 328 115 196617 lcd \, dimmenions 27X27;#B frgb 255 0 0;#P newex 754 312 87 196617 multicurvdisp 27;#B color 5;#P newex 558 419 62 196617 prepend set;#P message 738 464 39 196617 set \$1;#P message 709 413 39 196617 set \$1;#P message 680 464 39 196617 set \$1;#P message 651 413 39 196617 set \$1;#P message 622 464 39 196617 set \$1;#P newex 593 313 155 196617 unpack s 0. 0 0 0. 0. s;#P message 493 409 39 196617 set \$1;#P message 467 466 39 196617 set \$1;#P message 441 409 39 196617 set \$1;#P message 415 466 39 196617 set \$1;#P newex 415 309 88 196617 unpack 0. 0. 0. 0.;#P newex 378 194 51 196617 zl ecils 1;#P newex 378 174 49 196617 zl rot -1;#P newex 208 582 579 196617 pack s 0. 0. 0. 0. s 0. 0 0 0. 0. s;#P newex 144 312 62 196617 prepend set;#P newex 144 269 64 196617 fromsymbol;#P newex 404 245 69 196617 route symbol;#P button 1065 102 15 0;#N coll empty 1;#P newobj 208 739 66 196617 coll empty 1;#B color 5;#P newex 208 717 72 196617 prepend store;#P newex 30 76 32 196617 del 1;#P newex 30 56 20 196617 t b;#P newex 55 56 44 196617 receive;#B color 11;#P newex 68 107 20 196617 t b;#P newex 172 81 124 196617 t dump clear 1;#P message 68 127 60 196617 start \, next;#N coll empty 1;#P newobj 68 149 147 196617 coll empty 1;#B color 5;#P button 314 413 15 0;#P button 280 413 15 0;#P newex 324 57 48 196617 t clear b;#P newex 324 37 44 196617 receive;#B color 11;#P button 172 61 15 0;#P newex 172 37 44 196617 receive;#B color 11;#P newex 339 199 26 196617 t s;#P newex 359 268 51 196617 zl slice 4;#N coll empty 1;#P newobj 359 225 147 196617 coll empty 1;#B color 5;#P newex 252 152 78 196617 prepend append;#P newex 252 131 69 196617 route symbol;#N coll empty 1;#P newobj 207 111 147 196617 coll empty 1;#B color 5;#P newex 593 277 51 196617 zl slice 7;#P comment 996 253 61 196617 outvaldispn;#P comment 1071 760 61 196617 thispatcher;#P window linecount 0;#P comment 591 148 56 196617 $1/delete;#P comment 941 22 157 196617 module name and instance to edit;#P comment 547 636 106 196617 display current state when new menu item selected;#P connect 241 7 100 0;#P lcolor 15;#P connect 100 0 91 0;#P connect 91 0 90 0;#P connect 241 8 237 0;#P lcolor 15;#P connect 237 0 236 0;#P connect 236 0 238 0;#P connect 238 0 239 0;#P connect 239 0 240 0;#P connect 22 0 23 0;#P connect 264 0 23 0;#P lcolor 7;#P connect 23 0 24 0;#P connect 236 1 238 1;#P connect 67 0 108 0;#P connect 241 2 22 0;#P lcolor 15;#P connect 241 11 104 0;#P lcolor 15;#P connect 108 1 104 0;#P connect 69 0 70 0;#P connect 90 0 70 0;#P connect 82 0 70 0;#P connect 24 0 21 0;#P fasten 246 0 21 0 557 232 536 232 536 101 73 101;#P lcolor 3;#P connect 21 0 19 0;#P connect 269 0 18 0;#P connect 241 11 18 0;#P lcolor 15;#P connect 19 0 18 0;#P fasten 70 0 18 0 62 564 25 564 25 145 73 145;#P connect 108 2 107 0;#P connect 106 0 107 0;#P connect 107 0 109 0;#P connect 241 2 236 1;#P lcolor 15;#P connect 95 0 96 0;#P connect 241 6 97 0;#P lcolor 15;#P connect 96 0 97 0;#P fasten 108 0 107 1 46 437 95 437;#P connect 104 1 105 0;#P connect 105 0 106 0;#P connect 240 0 83 0;#P connect 83 0 82 0;#P connect 106 1 69 0;#P connect 109 0 69 0;#P connect 20 2 95 0;#P connect 94 0 95 0;#P connect 241 4 72 0;#P lcolor 15;#P connect 83 1 72 0;#P connect 90 1 72 0;#P connect 69 1 72 0;#P connect 28 0 75 0;#P connect 33 1 75 0;#P connect 75 0 29 0;#P connect 29 0 66 0;#P connect 66 0 30 0;#P connect 30 0 217 0;#P connect 103 0 217 0;#P connect 218 0 67 0;#P connect 80 0 87 0;#P connect 77 0 87 0;#P connect 20 0 93 0;#P connect 93 0 95 1;#P connect 69 3 92 0;#P lcolor 1;#P connect 90 3 92 0;#P lcolor 1;#P connect 65 1 92 0;#P lcolor 1;#P connect 241 3 12 0;#P lcolor 15;#P connect 12 0 13 0;#P connect 24 0 13 0;#P connect 13 0 20 0;#P connect 87 0 92 1;#P connect 269 0 6 0;#P connect 241 11 6 0;#P lcolor 15;#P connect 20 0 6 0;#P connect 75 1 71 0;#P connect 71 0 31 0;#P connect 65 0 31 0;#P connect 90 2 31 0;#P connect 69 2 31 0;#P lcolor 1;#P fasten 79 0 80 0 928 612 213 612;#P lcolor 5;#P fasten 86 0 80 0 869 612 213 612;#P lcolor 5;#P fasten 85 0 80 0 843 612 213 612;#P lcolor 5;#P connect 83 2 25 0;#P fasten 77 0 25 0 250 663 213 663;#P connect 80 0 25 0;#P connect 269 0 26 0;#P connect 241 11 26 0;#P lcolor 15;#P connect 25 0 26 0;#P connect 74 0 26 0;#P connect 15 0 221 0;#P connect 20 1 221 0;#P connect 8 0 221 0;#P fasten 18 1 221 0 118 174 214 174;#P connect 170 0 68 0;#P connect 173 0 68 0;#P connect 271 0 68 0;#P connect 178 0 68 0;#P connect 182 0 68 0;#P connect 186 0 68 0;#P connect 194 0 68 0;#P connect 190 0 68 0;#P connect 202 0 68 0;#P connect 210 0 68 0;#P connect 206 0 68 0;#P connect 214 0 68 0;#P connect 88 0 68 0;#P connect 68 0 65 0;#P connect 6 1 94 0;#P connect 109 1 73 0;#P connect 73 0 74 0;#P connect 31 0 80 1;#P connect 80 1 77 0;#P connect 6 1 7 0;#P connect 7 0 8 0;#P connect 34 0 31 1;#P lcolor 1;#P connect 214 0 31 1;#P connect 75 2 73 1;#P connect 140 2 16 0;#P connect 16 0 64 0;#P fasten 79 1 77 1 949 630 296 630;#P fasten 86 1 77 1 888 622 296 622;#P connect 34 1 31 2;#P lcolor 1;#P connect 206 0 31 2;#P connect 48 0 17 0;#P connect 17 0 64 1;#P connect 241 5 14 0;#P lcolor 15;#P connect 14 0 15 0;#P connect 92 0 11 0;#P lcolor 15;#P connect 222 0 11 0;#P connect 51 0 64 2;#P connect 158 0 131 0;#P connect 131 0 156 0;#P connect 11 0 9 0;#P connect 269 0 9 0;#P connect 241 11 9 0;#P lcolor 15;#P connect 33 0 10 0;#P connect 9 0 10 0;#P connect 10 0 50 0;#P connect 50 0 49 0;#P connect 88 2 140 0;#P lcolor 6;#P connect 49 0 140 0;#P connect 140 0 48 0;#P connect 34 2 31 3;#P lcolor 1;#P connect 210 0 31 3;#P connect 227 0 132 0;#P connect 132 0 225 0;#P connect 233 0 32 0;#P connect 32 0 33 0;#P connect 15 1 234 0;#P connect 140 1 139 0;#P connect 139 0 64 3;#P connect 39 0 49 1;#P connect 234 0 235 0;#P connect 235 0 231 0;#P connect 231 0 232 0;#P connect 232 0 233 0;#P connect 162 0 130 0;#P connect 130 0 160 0;#P connect 139 0 141 0;#P connect 9 1 28 0;#P connect 241 1 131 2;#P lcolor 15;#P connect 34 3 31 4;#P lcolor 1;#P connect 202 0 31 4;#P connect 50 1 34 0;#P connect 34 0 35 0;#P connect 35 0 213 0;#P connect 235 1 231 1;#P connect 241 1 132 2;#P lcolor 15;#P connect 34 1 36 0;#P connect 36 0 205 0;#P connect 241 1 130 2;#P lcolor 15;#P connect 39 0 31 5;#P lcolor 1;#P connect 88 1 31 5;#P connect 241 2 235 1;#P connect 34 2 37 0;#P connect 37 0 209 0;#P fasten 262 0 241 0 1104 38 491 38;#P connect 34 3 38 0;#P connect 38 0 201 0;#P connect 265 0 264 0;#P connect 241 0 264 0;#P lcolor 15;#P connect 48 2 89 0;#P connect 138 0 31 6;#P lcolor 1;#P connect 190 0 31 6;#P connect 198 0 88 0;#P connect 264 1 263 0;#P connect 241 12 263 0;#P lcolor 15;#P connect 269 0 263 0;#P connect 267 0 268 0;#P connect 263 0 268 0;#P fasten 27 0 248 0 1070 121 1061 121 1061 65 551 65;#P connect 248 0 247 0;#P connect 241 13 249 0;#P lcolor 15;#P connect 247 0 249 0;#P connect 241 14 243 0;#P lcolor 15;#P connect 243 0 244 0;#P connect 244 0 245 0;#P connect 263 1 266 0;#P connect 266 0 267 0;#P connect 245 0 246 0;#P connect 39 0 45 0;#P connect 45 0 197 0;#P connect 137 0 31 7;#P lcolor 1;#P connect 194 0 31 7;#P connect 11 0 247 1;#P connect 245 1 242 0;#P connect 241 4 242 0;#P lcolor 15;#P connect 10 1 55 0;#P connect 55 0 5 0;#P connect 5 0 39 0;#P connect 89 0 39 0;#P connect 136 0 31 8;#P lcolor 1;#P connect 186 0 31 8;#P fasten 133 0 138 0 921 367 627 367;#P lcolor 5;#P connect 39 1 138 0;#P connect 138 0 40 0;#P connect 40 0 189 0;#P fasten 133 0 137 0 921 367 656 367;#P lcolor 5;#P connect 39 2 137 0;#P connect 137 0 41 0;#P connect 41 0 193 0;#P connect 135 0 31 9;#P lcolor 1;#P connect 182 0 31 9;#P connect 42 0 185 0;#P fasten 133 0 136 0 921 367 685 367;#P lcolor 5;#P connect 39 3 136 0;#P connect 136 0 42 0;#P fasten 133 0 135 0 921 367 714 367;#P lcolor 5;#P connect 39 4 135 0;#P connect 135 0 43 0;#P connect 43 0 181 0;#P connect 134 0 31 10;#P lcolor 1;#P connect 178 0 31 10;#P fasten 133 0 134 0 921 367 743 367;#P lcolor 5;#P connect 39 5 134 0;#P connect 134 0 44 0;#P connect 44 0 177 0;#P connect 34 0 111 0;#P connect 111 0 112 0;#P fasten 5 0 46 0 598 304 759 304;#P connect 39 6 275 0;#P connect 48 2 129 0;#P connect 275 0 31 11;#P lcolor 1;#P connect 271 0 31 11;#P connect 34 1 111 1;#P connect 124 0 127 0;#P connect 128 0 127 0;#P connect 129 0 127 0;#P connect 127 0 125 0;#P connect 125 0 114 0;#P connect 114 0 113 0;#P connect 75 2 144 0;#P connect 241 15 145 0;#P lcolor 15;#P connect 144 0 145 0;#P connect 140 2 128 0;#P connect 125 1 115 0;#P connect 115 0 113 1;#P fasten 5 1 52 0 639 298 843 298;#P connect 52 1 53 0;#P connect 88 4 53 0;#P connect 55 1 53 0;#P connect 133 0 53 0;#P connect 52 0 53 0;#P connect 53 0 54 0;#P connect 54 0 175 0;#P fasten 53 0 84 0 843 459 830 459 830 521 843 521;#P lcolor 13;#P connect 173 0 84 0;#P connect 84 0 85 0;#P connect 142 0 116 0;#P connect 116 0 119 0;#P connect 129 1 123 0;#P connect 123 0 113 3;#P connect 144 1 117 0;#P connect 117 0 143 0;#P connect 143 0 142 0;#P connect 145 0 142 0;#P connect 84 1 86 0;#P connect 128 1 126 0;#P connect 126 0 113 4;#P connect 140 2 63 0;#P connect 63 0 61 0;#P connect 48 1 62 0;#P lcolor 15;#P connect 62 0 60 0;#P connect 60 0 59 0;#P connect 81 0 59 0;#P connect 61 0 56 0;#P connect 59 0 56 0;#P connect 170 0 57 0;#P connect 57 0 76 0;#P connect 81 0 76 0;#P connect 76 0 78 0;#P fasten 60 0 78 0 912 463 930 463 930 566 912 566;#P lcolor 13;#P connect 55 2 133 0;#P connect 78 1 79 0;#P connect 148 0 124 0;#P connect 141 0 124 0;#P connect 88 3 58 0;#P lcolor 6;#P connect 55 2 58 0;#P fasten 52 0 60 1 843 404 938 404;#P fasten 52 1 60 1 884 404 938 404;#P connect 52 2 60 1;#P connect 58 0 60 1;#P connect 116 0 229 0;#P connect 34 2 120 0;#P connect 120 0 121 0;#P connect 46 0 150 0;#P connect 168 0 99 0;#P connect 99 0 98 0;#P connect 241 10 98 0;#P lcolor 15;#P connect 241 16 110 0;#P lcolor 15;#P connect 112 0 152 0;#P connect 110 0 152 0;#P connect 110 0 154 0;#P fasten 119 0 122 0 852 232 982 232;#P connect 121 0 122 0;#P connect 34 3 120 1;#P connect 119 0 118 0;#P connect 78 0 81 0;#P connect 166 0 102 0;#P connect 102 0 101 0;#P connect 241 9 101 0;#P lcolor 15;#P connect 164 0 27 0;#P connect 275 0 274 0;#P connect 274 0 270 0;#P connect 64 0 147 0;#P lcolor 15;#P connect 113 0 147 0;#P pop;#P newobj 78 337 677 196626 p editor-works;#B color 6;#P window setfont "Sans Serif" 9.;#P newex 281 409 68 196617 pvar outbang;#P newex 267 297 54 196617 pvar out1;#P newex 213 253 48 196617 pvar in1;#P newex 304 275 54 196617 pvar out2;#P newex 321 253 63 196617 pvar type 2;#P newex 481 248 66 196617 pvar offseth;#P newex 512 269 67 196617 pvar offsetv;#P newex 543 289 57 196617 pvar ramp;#P newex 574 309 74 196617 pvar trigmess;#P newex 636 275 52 196617 pvar new;#P newex 667 296 73 196617 pvar newcopy;#P newex 678 316 76 196617 pvar deleteone;#P newex 168 232 73 196617 pvar speedlim;#P newex 71 194 65 196617 pvar slideup;#P newex 507 409 79 196617 pvar invaldispn;#P newex 579 246 89 196617 pvar dispbutton 2;#N thispatcher;#Q end;#P newobj 726 385 61 196617 thispatcher;#P newex 672 409 85 196617 pvar outvaldispn;#P newex 589 409 80 196617 pvar outvaldisp;#P newex 155 211 78 196617 pvar slidedown;#P newex 430 409 74 196617 pvar invaldisp;#P newex 353 409 73 196617 pvar curvdisp;#P newex 450 228 55 196617 pvar flipv;#P newex 419 208 54 196617 pvar fliph;#P newex 388 253 60 196617 pvar curve;#P newex 240 275 48 196617 pvar in2;#P window linecount 2;#P comment 105 164 603 196617 "[destination et agruments]" \, [in1] [in2] [out1] [out2] [type (norm \, sym \, updwn trig)] [curve (-1. to 1.)] [fliph (0-1)] [flipv (0-1)] [offseth (-1. to 1.)] [offsetv (-1. to 1.)] [clipmode (clip \, reject \, etc)] "[trig message]";#P window linecount 1;#P newex 38 234 63 196617 pvar sendto;#P newex 53 214 97 196617 pvar destinations 2;#P window linecount 0;#P comment 0 804 100 196617;#P window linecount 4;#P comment 532 31 349 196617 arg 1 : module "little" name without instance number for "instance" mode \, WITH instance number for "submodule" mode. (i.e. fshift for instance mode \, wii.1 for submodule mode \, / is optional \; arg 2 : environment name (i.e. /tapemovie \, /tape \, /movie \, /cue-list);#P bpatcher 0 1 512 124 0 0 bkgndu.mxt 0 $1 0 $2 2 2;#P background;#P objectname background;#P connect 32 0 4 0;#P connect 41 0 4 0;#P connect 40 0 4 0;#P connect 4 0 33 0;#P connect 33 0 34 0;#P fasten 34 1 39 0 117 319 45 319;#P fasten 39 1 38 0 156 462 45 462;#P connect 32 1 3 0;#P connect 39 0 37 0;#P connect 32 2 18 0;#P connect 36 1 32 0;#P connect 42 0 32 0;#P connect 34 1 32 0;#P connect 37 1 39 1;#P fasten 36 1 40 0 197 530 104 530;#P connect 36 0 41 0;#P connect 43 0 41 0;#P connect 3 1 32 1;#P connect 43 0 42 0;#P connect 36 0 42 0;#P connect 18 0 32 2;#P connect 44 0 39 2;#P connect 32 3 12 0;#P connect 38 1 36 0;#P connect 32 4 19 0;#P connect 12 0 32 3;#P connect 37 1 43 0;#P connect 19 0 32 4;#P connect 32 5 29 0;#P connect 29 0 32 5;#P connect 32 6 6 0;#P connect 6 0 32 6;#P connect 32 7 30 0;#P fasten 32 17 31 0 542 383 286 383;#P connect 30 0 32 7;#P connect 32 8 28 0;#P connect 28 0 32 8;#P connect 32 9 27 0;#P connect 27 1 32 9;#P fasten 32 18 10 0 569 388 358 388;#P connect 7 0 32 10;#P connect 32 10 7 0;#P connect 8 0 32 11;#P connect 32 11 8 0;#P fasten 32 19 11 0 596 393 435 393;#P connect 9 0 32 12;#P connect 32 12 9 0;#P connect 26 0 32 13;#P connect 32 13 26 0;#P connect 25 0 32 14;#P fasten 32 20 17 0 623 398 512 398;#P connect 32 14 25 0;#P connect 24 0 32 15;#P connect 32 15 24 0;#P connect 23 0 32 16;#P connect 32 16 23 0;#P fasten 16 1 32 17 663 271 593 271;#P fasten 32 21 13 0 650 403 594 403;#P connect 22 0 32 18;#P connect 21 0 32 19;#P connect 32 22 14 0;#P connect 34 0 20 0;#P lcolor 15;#P connect 20 0 32 20;#P connect 109 1 32 21;#P connect 32 23 109 0;#P connect 32 24 15 0;#P hidden connect 0 0 15 0;#P hidden connect 0 1 32 22;#P pop;