max v2;#N vpatcher 502 141 1288 710;#P button 157 390 15 0;#P window setfont "Sans Serif" 9.;#P newex 16 285 84 196617 route bang;#P newex 153 416 42 196617 route -;#P message 101 486 40 196617 <none>;#P message 77 467 57 196617 set <none>;#P newex 75 514 62 196617 prepend set;#P newex 16 264 84 196617 route text;#P window setfont "Sans Serif" 18.;#N vpatcher 144 237 764 825;#P window setfont "Sans Serif" 9.;#P window linecount 0;#P newex 62 24 161 196617 r /tapemovie/mapping/initmenus;#B color 12;#N comlet init menus;#P inlet 523 26 15 0;#P newex 416 287 40 196617 t clear;#P newex 238 24 123 196617 r $1/init;#B color 11;#P comment 361 137 65 196617 modulemenu;#P comment 361 154 74 196617 modulemenu 2;#N comlet modulemenu 2;#P inlet 346 153 15 0;#N comlet modulemenu;#P outlet 346 136 15 0;#P comment 376 344 98 196617 moduleparamsmenu;#N comlet moduleparamsmenu;#P outlet 361 343 15 0;#P comment 220 234 43 196617 sendto;#N comlet sendto;#P inlet 205 233 15 0;#P newex 97 468 69 196617 route symbol;#P newex 97 512 62 196617 prepend set;#P newex 97 491 31 196617 t s 0;#P newex 14 433 29 196617 gate;#P newex 33 387 40 196617 t b l 1;#P newex 104 380 30 196617 t s b;#P message 124 423 65 196617 refer empty;#P newex 104 402 124 196617 sprintf refer %s/params;#N coll empty 1;#P newobj 79 447 66 196617 coll empty 1;#B color 5;#P message 454 244 65 196617 refer empty;#N coll empty 1;#P newobj 521 243 66 196617 coll empty 1;#B color 5;#P message 221 542 32 196617 set -;#P newex 320 492 31 196617 t s 0;#P newex 221 521 29 196617 gate;#P newex 240 417 40 196617 t b l 1;#N coll modules 1;#P newobj 255 469 74 196617 coll modules 1;#B color 5;#P newex 48 419 40 196617 itoa;#P newex 255 439 40 196617 itoa;#P newex 205 294 81 196617 t l l l;#P newex 240 396 45 196617 zl slice;#P newex 275 375 27 196617 - 1;#P newex 275 355 44 196617 zl nth 2;#P newex 275 335 46 196617 zl group;#P newex 275 315 51 196617 zl sub 47;#P newex 205 273 40 196617 atoi;#P newex 352 178 42 196617 route -;#P newex 361 287 48 196617 t - clear;#P newex 398 267 69 196617 route symbol;#P newex 414 220 124 196617 sprintf refer %s/params;#P newex 384 199 71 196617 t dump s b;#N coll empty 1;#P newobj 384 244 66 196617 coll empty 1;#B color 5;#P newex 361 313 78 196617 prepend append;#P button 238 48 15 0;#P newex 264 135 78 196617 prepend append;#P newex 238 66 135 196617 t dump - clear b;#P newex 264 112 69 196617 route symbol;#N coll modules 1;#P newobj 238 90 89 196617 coll modules 1;#B color 5;#P window linecount 1;#P comment 467 27 56 196617 init menus;#P connect 35 1 34 0;#P connect 33 2 34 0;#P connect 19 0 33 0;#P connect 33 0 34 1;#P connect 33 1 21 0;#P connect 31 0 29 0;#P connect 21 0 29 0;#P connect 30 0 29 0;#P connect 29 1 37 0;#P connect 37 0 35 0;#P connect 35 0 36 0;#P connect 20 0 32 0;#P connect 32 0 30 0;#P connect 32 1 31 0;#P connect 38 0 13 0;#P connect 13 0 19 0;#P fasten 25 1 24 0 346 515 226 515;#P lcolor 13;#P connect 23 2 24 0;#P connect 24 0 26 0;#P fasten 48 0 5 0 528 44 243 44;#P connect 46 0 5 0;#P fasten 49 0 5 0 67 45 243 45;#P connect 5 0 3 0;#P connect 3 0 1 0;#P connect 19 1 18 0;#P connect 18 0 23 0;#P connect 23 0 24 1;#P connect 23 1 20 0;#P connect 20 0 22 0;#P connect 1 1 2 0;#P connect 3 1 4 0;#P connect 2 0 4 0;#P connect 2 1 4 0;#P connect 19 2 14 0;#P connect 14 0 15 0;#P connect 15 0 16 0;#P connect 16 0 17 0;#P connect 17 0 18 1;#P connect 14 1 15 1;#P connect 22 1 25 0;#P connect 26 0 42 0;#P connect 25 0 42 0;#P lcolor 7;#P connect 4 0 42 0;#P connect 3 2 42 0;#P connect 43 0 12 0;#P connect 8 2 11 0;#P connect 11 0 6 0;#P connect 10 0 6 0;#P connect 47 0 40 0;#P connect 6 0 40 0;#P connect 36 0 40 0;#P fasten 11 1 40 0 404 336 366 336;#P connect 12 1 8 0;#P connect 8 0 7 0;#P connect 28 0 7 0;#P connect 9 0 7 0;#P connect 7 1 10 0;#P connect 8 1 9 0;#P connect 34 0 47 0;#P connect 12 0 47 0;#P connect 3 3 47 0;#P connect 8 2 28 0;#P pop;#P newobj 16 406 121 196626 p edit-dest;#B color 6;#P window setfont "Sans Serif" 9.;#P newex 16 446 130 196617 pvar moduleparamsmenu 2;#P newex 40 382 97 196617 pvar modulemenu 2;#P window setfont Times 9.;#P comment 264 106 76 1310729 modify or type ->;#P window setfont "Sans Serif" 18.;#N vpatcher 766 253 1386 841;#P window setfont "Sans Serif" 9.;#P newex 66 22 161 196617 r /tapemovie/mapping/initmenus;#B color 12;#P window linecount 0;#P message 361 402 40 196617 <none>;#P window linecount 1;#P newex 361 378 42 196617 route -;#P window linecount 2;#P message 402 531 103 196617 bang \; $1/source/init bang;#P window linecount 1;#P newex 379 503 103 196617 route - bang;#P newex 413 287 40 196617 t clear;#P newex 238 22 123 196617 r $1/init;#B color 11;#P comment 361 137 65 196617 controlmenu;#P comment 361 154 74 196617 controlmenu 2;#N comlet controlmenu 2;#P inlet 346 153 15 0;#N comlet controlmenu;#P outlet 346 136 15 0;#P comment 376 344 98 196617 controlparamsmenu;#P comment 376 361 107 196617 controlparamsmenu 2;#N comlet controlparamsmenu 2;#P inlet 361 360 15 0;#N comlet controlparamsmenu;#P outlet 361 343 15 0;#P comment 394 446 43 196617 source;#P comment 394 465 43 196617 source;#N comlet source;#P inlet 379 464 15 0;#N comlet source;#P outlet 379 445 15 0;#P newex 361 425 222 196617 variedit $1/source $1;#B color 11;#P newex 97 468 69 196617 route symbol;#P newex 97 512 62 196617 prepend set;#P newex 97 491 31 196617 t s 0;#P newex 14 433 29 196617 gate;#P newex 33 387 40 196617 t b l 1;#P newex 104 380 30 196617 t s b;#P message 124 423 65 196617 refer empty;#P newex 104 402 128 196617 sprintf refer %s/controls;#N coll empty 1;#P newobj 79 447 66 196617 coll empty 1;#B color 5;#P message 453 244 65 196617 refer empty;#N coll empty 1;#P newobj 520 243 66 196617 coll empty 1;#B color 5;#P message 221 542 32 196617 set -;#P newex 320 492 31 196617 t s 0;#P newex 221 521 29 196617 gate;#P newex 240 417 40 196617 t b l 1;#N coll controllers 1;#P newobj 255 469 88 196617 coll controllers 1;#B color 5;#P newex 48 419 40 196617 itoa;#P newex 255 439 40 196617 itoa;#P newex 205 294 81 196617 t l l l;#P newex 240 396 45 196617 zl slice;#P newex 275 375 27 196617 - 1;#P newex 275 355 44 196617 zl nth 2;#P newex 275 335 46 196617 zl group;#P newex 275 315 51 196617 zl sub 47;#P newex 205 273 40 196617 atoi;#P newex 379 482 56 196617 route text;#P newex 352 178 42 196617 route -;#P newex 361 287 48 196617 t - clear;#P newex 398 267 69 196617 route symbol;#P newex 414 220 128 196617 sprintf refer %s/controls;#P newex 384 199 71 196617 t dump s b;#N coll empty 1;#P newobj 384 244 66 196617 coll empty 1;#B color 5;#P newex 361 313 78 196617 prepend append;#P button 238 47 15 0;#P newex 264 135 78 196617 prepend append;#P newex 238 66 135 196617 t dump - clear b;#P newex 264 112 69 196617 route symbol;#N coll controllers 1;#P newobj 238 90 88 196617 coll controllers 1;#B color 5;#P connect 33 2 34 0;#P connect 35 1 34 0;#P connect 19 0 33 0;#P connect 33 0 34 1;#P connect 33 1 21 0;#P connect 31 0 29 0;#P connect 30 0 29 0;#P connect 21 0 29 0;#P connect 29 1 37 0;#P connect 37 0 35 0;#P connect 35 0 36 0;#P connect 20 0 32 0;#P connect 32 0 30 0;#P connect 32 1 31 0;#P connect 53 2 13 0;#P connect 13 0 19 0;#P connect 23 2 24 0;#P fasten 25 1 24 0 346 515 226 515;#P lcolor 13;#P connect 24 0 26 0;#P fasten 54 0 4 0 407 564 596 564 596 43 243 43;#P connect 51 0 4 0;#P fasten 57 0 4 0 71 44 243 44;#P connect 4 0 2 0;#P connect 2 0 0 0;#P connect 19 1 18 0;#P connect 18 0 23 0;#P connect 23 0 24 1;#P connect 23 1 20 0;#P connect 20 0 22 0;#P connect 0 1 1 0;#P connect 1 1 3 0;#P connect 1 0 3 0;#P connect 2 1 3 0;#P connect 19 2 14 0;#P connect 14 0 15 0;#P connect 15 0 16 0;#P connect 16 0 17 0;#P connect 17 0 18 1;#P connect 14 1 15 1;#P connect 22 1 25 0;#P connect 2 2 47 0;#P connect 3 0 47 0;#P connect 25 0 47 0;#P lcolor 7;#P connect 26 0 47 0;#P connect 48 0 11 0;#P connect 7 2 10 0;#P connect 9 0 5 0;#P connect 10 0 5 0;#P connect 52 0 43 0;#P fasten 10 1 43 0 404 336 366 336;#P connect 36 0 43 0;#P connect 5 0 43 0;#P connect 44 0 55 0;#P fasten 11 0 56 0 357 398 366 398;#P connect 55 0 56 0;#P connect 55 1 38 0;#P connect 56 0 38 0;#P fasten 53 2 38 0 476 525 356 525 356 421 366 421;#P connect 38 0 39 0;#P connect 40 0 12 0;#P connect 12 0 53 0;#P connect 11 1 7 0;#P connect 28 0 6 0;#P connect 8 0 6 0;#P connect 7 0 6 0;#P connect 6 1 9 0;#P connect 53 1 54 0;#P connect 53 0 54 0;#P connect 11 0 52 0;#P connect 2 3 52 0;#P connect 34 0 52 0;#P connect 7 1 8 0;#P connect 7 2 28 0;#P pop;#P newobj 282 469 126 196626 p edit-source;#B color 6;#P window setfont Times 9.;#P comment 379 76 116 1310729 chose destination parameter;#P comment 265 76 106 1310729 chose destination module;#P comment 30 36 76 1310729 modify or type ->;#P comment 162 7 85 1310729 choose source name;#P comment 38 7 92 1310729 choose source module;#P comment 101 36 37 1310729 /source;#B frgb 0 0 200;#P window setfont "Sans Serif" 9.;#P newex 416 475 64 196617 pvar source;#P window setfont Times 9.;#P user textedit 133 34 273 50 32896 20 9 <none>;#P objectname source;#P window setfont "Sans Serif" 18.;#N vpatcher 212 60 1398 870;#P origin 0 -7;#P window setfont "Sans Serif" 9.;#P window linecount 0;#P comment 949 158 44 196617 outbang;#N comlet outbang;#P outlet 934 157 15 0;#P comment 387 674 54 196617 slidedown;#N comlet slidedown;#P inlet 372 673 15 0;#P comment 387 713 54 196617 slidedown;#N comlet slidedown;#P outlet 372 712 15 0;#P comment 224 164 64 196617 destinations;#P comment 224 181 73 196617 destinations 2;#N comlet destinations 2;#P inlet 209 180 15 0;#N comlet destinations;#P outlet 209 163 15 0;#P comment 159 319 39 196617 sendto;#P comment 159 336 39 196617 sendto;#N comlet sendto;#P inlet 144 335 15 0;#N comlet sendto;#P outlet 144 318 15 0;#P comment 430 469 22 196617 in1;#P comment 430 485 22 196617 in1;#N comlet in1;#P inlet 415 484 15 0;#N comlet in1;#P outlet 415 468 15 0;#P comment 482 469 30 196617 out1;#P comment 482 485 30 196617 out1;#N comlet out1;#P inlet 467 484 15 0;#N comlet out1;#P outlet 467 468 15 0;#P comment 456 412 22 196617 in2;#P comment 456 428 22 196617 in2;#N comlet in2;#P inlet 441 427 15 0;#N comlet in2;#P outlet 441 411 15 0;#P comment 508 412 31 196617 out2;#P comment 508 428 31 196617 out2;#N comlet out2;#P inlet 493 427 15 0;#N comlet out2;#P outlet 493 411 15 0;#P comment 573 426 30 196617 type;#P comment 573 443 39 196617 type 2;#N comlet type 2;#P inlet 558 442 15 0;#N comlet type;#P outlet 558 425 15 0;#P comment 666 416 31 196617 fliph;#P comment 666 432 31 196617 fliph;#N comlet fliph;#P inlet 651 431 15 0;#N comlet fliph;#P outlet 651 415 15 0;#P comment 637 467 31 196617 curve;#P comment 637 483 31 196617 curve;#N comlet curve;#P inlet 622 482 15 0;#N comlet curve;#P outlet 622 466 15 0;#P comment 694 468 31 196617 flipv;#P comment 694 484 31 196617 flipv;#N comlet flipv;#P inlet 679 483 15 0;#N comlet flipv;#P outlet 679 467 15 0;#P comment 724 416 42 196617 offseth;#P comment 724 432 42 196617 offseth;#N comlet offseth;#P inlet 709 431 15 0;#N comlet offseth;#P outlet 709 415 15 0;#P comment 753 470 43 196617 offsetv;#P comment 753 487 43 196617 offsetv;#N comlet offsetv;#P inlet 738 486 15 0;#N comlet offsetv;#P outlet 738 469 15 0;#P comment 853 469 33 196617 ramp;#N comlet ramp;#P outlet 838 468 15 0;#P comment 853 488 33 196617 ramp;#N comlet ramp;#P inlet 838 487 15 0;#P comment 922 474 50 196617 trigmess;#P comment 922 491 50 196617 trigmess;#N comlet trigmess;#P inlet 907 490 15 0;#P comment 965 98 26 196617 new;#N comlet new;#P inlet 950 97 15 0;#P comment 1011 76 49 196617 newcopy;#N comlet newcopy;#P inlet 996 75 15 0;#P comment 1080 68 49 196617 deleteone;#N comlet deleteone;#P inlet 1065 67 15 0;#P comment 409 729 49 196617 speedlim;#N comlet speedlim;#P inlet 394 728 15 0;#P comment 409 768 49 196617 speedlim;#N comlet speedlim;#P outlet 394 767 15 0;#P comment 367 619 41 196617 slideup;#N comlet slideup;#P inlet 352 618 15 0;#P comment 367 658 41 196617 slideup;#N comlet slideup;#P outlet 352 657 15 0;#P comment 983 298 56 196617 invaldispn;#N comlet invaldispn;#P outlet 968 297 15 0;#P comment 975 281 56 196617 invaldisp;#N comlet invaldisp;#P outlet 960 279 15 0;#P comment 962 328 56 196617 curvdisp;#N comlet curvdisp;#P outlet 947 327 15 0;#P comment 941 627 65 196617 dispbutton 2;#N comlet dispbutton 2;#P inlet 927 626 15 0;#N comlet thispatcher;#P outlet 1012 726 15 0;#P comment 992 221 56 196617 outvaldisp;#P message 766 78 53 196617 $1<none>;#P newex 812 50 67 196617 route <none>;#P newex 859 101 51 196617 tosymbol;#P newex 859 126 62 196617 prepend set;#P newex 396 415 21 196617 t 1;#P newex 359 342 84 196617 route trig direct;#P button 382 398 15 0;#P newex 622 356 19 196617 t f;#P newex 651 356 19 196617 t f;#P newex 680 356 19 196617 t f;#P newex 709 356 19 196617 t f;#P newex 738 356 19 196617 t f;#P message 916 264 14 196617 0;#P newex 372 692 246 196617 variedit $1/rampdown $1;#B color 11;#P newex 352 636 238 196617 variedit $1/rampup $1;#B color 11;#P newex 394 746 241 196617 variedit $1/speedlim $1;#B color 11;#P newex 768 619 30 196617 t b b;#P newex 815 618 30 196617 t b b;#P newex 799 643 27 196617 i;#P button 867 683 15 0;#P newex 799 663 41 196617 sel 0 1;#P toggle 927 652 15 0;#P button 850 683 15 0;#N comlet outvaldisp;#P outlet 977 220 15 0;#P newex 934 197 73 196617 prepend range;#P newex 934 178 54 196617 pack 0. 0.;#P newex 847 196 19 196617 t f;#N comlet outvaldispn;#P outlet 983 237 15 0;#P newex 859 77 81 196617 sprintf %s-disp;#P newex 847 147 44 196617 receive;#B color 11;#P button 815 683 15 0;#P button 799 683 15 0;#N vpatcher 49 340 762 795;#P button 405 34 15 0;#N comlet bang to show all;#P inlet 384 35 15 0;#P button 384 156 15 0;#P window setfont "Sans Serif" 9.;#P newex 384 130 54 196617 onebang 1;#P newex 408 177 31 196617 t b 1;#P button 335 34 15 0;#P button 216 36 15 0;#P button 137 36 15 0;#P button 62 33 15 0;#P newex 372 177 31 196617 t b 2;#P window setfont Times 9.;#P message 558 254 87 1310729 outbang \, outtrigtext;#P window setfont "Sans Serif" 9.;#P newex 530 272 38 196617 gate 2;#P newex 530 315 109 196617 sprintf script hide %s;#P newex 558 294 114 196617 sprintf script show %s;#N comlet bang to show all;#P inlet 314 35 15 0;#P button 314 156 15 0;#P newex 314 130 54 196617 onebang 1;#P button 16 334 15 0;#P message 16 352 142 196617 script sendtoback background;#P newex 195 151 54 196617 onebang 1;#P newex 117 103 54 196617 onebang 1;#P newex 40 63 54 196617 onebang 1;#P newex 195 181 40 196617 t b 1 2;#P window setfont Times 9.;#P message 228 254 227 1310729 invaldispn \, invaldispntext \, outvaldispn \, outvaldispntext;#P window setfont "Sans Serif" 9.;#P newex 200 272 38 196617 gate 2;#P newex 200 315 109 196617 sprintf script hide %s;#P newex 228 294 114 196617 sprintf script show %s;#P newex 61 272 38 196617 gate 2;#P newex 117 183 31 196617 t b 2;#P newex 40 183 31 196617 t b 1;#P newex 61 315 114 196617 sprintf script show %s;#P newex 89 294 109 196617 sprintf script hide %s;#P window setfont Times 9.;#P message 89 224 207 1310729 invaldisp \, outvaldisp \, invaldisptext \, outvaldisptext;#N comlet bang if not trig;#P inlet 40 35 15 0;#N comlet bang if trig;#P inlet 117 35 15 0;#N comlet bang to show all;#P inlet 195 35 15 0;#P outlet 165 414 15 0;#P connect 9 1 19 0;#P connect 9 0 19 0;#P connect 19 0 18 0;#P connect 28 0 15 0;#P connect 3 0 15 0;#P connect 15 0 7 0;#P connect 14 1 9 0;#P connect 7 1 9 0;#P connect 8 1 9 0;#P connect 9 0 6 0;#P connect 16 0 15 1;#P lcolor 15;#P connect 17 0 15 1;#P lcolor 7;#P connect 14 0 4 0;#P connect 8 0 4 0;#P connect 7 0 4 0;#P connect 4 0 9 1;#P connect 9 1 5 0;#P connect 29 0 16 0;#P connect 2 0 16 0;#P connect 16 0 8 0;#P connect 15 0 16 1;#P lcolor 2;#P connect 17 0 16 1;#P lcolor 7;#P connect 23 0 0 0;#P connect 24 0 0 0;#P connect 18 0 0 0;#P connect 5 0 0 0;#P connect 6 0 0 0;#P connect 10 0 0 0;#P connect 11 0 0 0;#P connect 30 0 17 0;#P connect 1 0 17 0;#P connect 17 0 14 0;#P connect 7 1 12 0;#P connect 14 2 12 0;#P connect 8 1 12 0;#P connect 12 0 11 0;#P connect 14 0 13 0;#P connect 8 0 13 0;#P connect 7 0 13 0;#P connect 13 0 12 1;#P connect 12 1 10 0;#P connect 15 0 17 1;#P lcolor 2;#P connect 16 0 17 1;#P lcolor 15;#P connect 22 0 20 0;#P connect 31 0 20 0;#P connect 20 0 21 0;#P connect 33 0 20 1;#P connect 21 0 27 0;#P connect 36 0 33 0;#P connect 35 0 33 0;#P connect 33 0 34 0;#P connect 34 0 32 0;#P connect 20 0 33 1;#P connect 32 1 25 0;#P connect 14 1 25 0;#P connect 27 1 25 0;#P connect 25 0 24 0;#P connect 14 0 26 0;#P connect 32 0 26 0;#P connect 27 0 26 0;#P connect 26 0 25 1;#P connect 25 1 23 0;#P pop;#P newobj 799 702 79 196617 p hide/show;#B color 6;#P newex 744 188 73 196617 prepend range;#P newex 744 168 54 196617 pack 0. 0.;#P newex 960 257 130 196617 r $1/inval;#B color 11;#P newex 71 462 30 196617 t s s;#P newex 41 374 40 196617 t s s 1;#P newex 71 442 29 196617 gate;#P newex 101 441 31 196617 t 0 s;#P newex 101 421 69 196617 route symbol;#N coll $1/data 1;#P newobj 56 398 147 196617 coll $1/data 1;#B color 5;#P message 108 298 33 196617 clear;#P button 996 93 15 0;#P newex 996 112 147 196617 s $1/newcopy;#B color 11;#P window linecount 2;#P newex 8 562 65 196617 r $1/newcopy;#B color 11;#P button 950 115 15 0;#P window linecount 1;#P newex 950 134 126 196617 s $1/new;#B color 11;#P window linecount 2;#P newex 109 587 48 196617 r $1/new;#B color 11;#P window linecount 1;#P newex 80 179 123 196617 s $1/init;#B color 11;#P button 80 159 15 0;#P newex 137 112 29 196617 gate;#P newex 229 116 21 196617 t 0;#P newex 156 92 20 196617 t b;#P newex 162 724 29 196617 gate;#P message 8 596 40 196617 <none>;#P newex 8 616 53 196617 t s b s 0;#P message 510 332 72 196617 trig 0 0 0 0 0;#P newex 603 512 66 196617 t b s s b 0;#P newex 152 702 51 196617 zl slice 1;#P newex 864 534 29 196617 t 2 i;#P newex 838 534 21 196617 t 1;#P newex 838 512 36 196617 sel 0;#P newex 109 653 59 196617 t l b l;#P newex 109 674 51 196617 zl slice 1;#P window linecount 2;#P message 109 621 86 196617 <none> 0 1 0 1 norm 0. 0 0 0. 0.;#P window linecount 1;#P message 988 525 14 196617 b;#P newex 208 601 47 196617 gate 2 1;#P newex 923 576 31 196617 t 2 s;#P newex 907 556 57 196617 route bang;#P newex 245 623 56 196617 zl join;#P newex 907 531 51 196617 tosymbol;#P newex 144 233 138 196617 t s s s;#P newex 236 679 82 196617 prepend subsym;#P newex 236 658 46 196617 pack s s;#P window linecount 4;#P newex 142 528 26 196617 s $1/fillmenu;#B color 11;#P window linecount 1;#P newex 208 478 62 196617 prepend set;#P newex 57 528 80 196617 prepend symbol;#P newex 122 503 53 196617 t s b s 0;#P button 223 524 15 0;#P newex 144 356 51 196617 tosymbol;#P newex 144 275 20 196617 t s;#P newex 223 543 31 196617 t b 1;#N vpatcher 715 157 1334 620;#N comlet bang for direct;#P inlet 292 35 15 0;#P window setfont Times 9.;#P window linecount 0;#P message 465 254 54 1310729 in1 \, in1text \, in2 \, in2text;#P window setfont "Sans Serif" 9.;#P window linecount 1;#P newex 292 99 54 196617 onebang 1;#P window setfont Times 9.;#P window linecount 2;#P message 27 211 54 1310729 in1 \, in1text \, in2 \, in2text;#P button 292 61 15 0;#P window setfont "Sans Serif" 9.;#P window linecount 1;#P newex 292 132 31 196617 t b 2;#P window setfont Times 9.;#P window linecount 3;#P message 292 153 287 1310729 in1 \, in1text \, in2 \, in2text \, out1 \, out1text \, out2 \, out2text \, curve \, curvdisp \, curvetext \, fliph \, fliphtext \, flipv \, flipvtext \, offseth \, offsethtext \, offsetv \, offsetvtext \, trigmess \, trigmesstext \, bforbangtext \, outbang \, outtrigtext;#P button 26 358 15 0;#P window setfont "Sans Serif" 9.;#P window linecount 1;#P message 26 376 142 196617 script sendtoback background;#P newex 195 151 54 196617 onebang 1;#P newex 117 103 54 196617 onebang 1;#P newex 40 63 54 196617 onebang 1;#P newex 195 181 40 196617 t b 1 2;#P window setfont Times 9.;#P message 228 254 233 1310729 trigmess \, trigmesstext \, bforbangtext \, outbang \, outtrigtext;#P window setfont "Sans Serif" 9.;#P newex 200 272 38 196617 gate 2;#P newex 200 315 109 196617 sprintf script hide %s;#P newex 228 294 114 196617 sprintf script show %s;#P newex 61 272 38 196617 gate 2;#P newex 117 183 31 196617 t b 2;#P newex 40 165 31 196617 t b 1;#P newex 61 315 114 196617 sprintf script show %s;#P newex 89 294 109 196617 sprintf script hide %s;#P window setfont Times 9.;#P window linecount 2;#P message 89 211 291 1310729 out1 \, out1text \, out2 \, out2text \, curve \, curvdisp \, curvetext \, fliph \, fliphtext \, flipv \, flipvtext \, offseth \, offsethtext \, offsetv \, offsetvtext \, ramp \, ramptext;#N comlet bang if not trig;#P inlet 40 35 15 0;#N comlet bang if trig;#P inlet 117 35 15 0;#N comlet bang to show all;#P inlet 195 35 15 0;#P outlet 165 414 15 0;#P connect 10 0 19 0;#P connect 5 0 19 0;#P connect 11 0 19 0;#P connect 6 0 19 0;#P connect 19 0 18 0;#P connect 7 0 23 0;#P connect 3 0 15 0;#P connect 15 0 7 0;#P connect 7 1 9 0;#P connect 21 1 9 0;#P connect 14 1 9 0;#P connect 8 1 9 0;#P connect 9 0 6 0;#P connect 17 0 15 1;#P lcolor 7;#P connect 16 0 15 1;#P lcolor 15;#P connect 24 0 15 1;#P connect 8 0 4 0;#P connect 14 0 4 0;#P connect 7 0 4 0;#P connect 23 0 9 1;#P connect 20 0 9 1;#P connect 4 0 9 1;#P connect 9 1 5 0;#P connect 2 0 16 0;#P connect 16 0 8 0;#P connect 17 0 16 1;#P lcolor 7;#P connect 15 0 16 1;#P lcolor 2;#P connect 24 0 16 1;#P connect 11 0 0 0;#P connect 10 0 0 0;#P connect 6 0 0 0;#P connect 5 0 0 0;#P connect 18 0 0 0;#P connect 1 0 17 0;#P connect 17 0 14 0;#P connect 8 1 12 0;#P connect 7 1 12 0;#P connect 14 2 12 0;#P connect 12 0 11 0;#P connect 8 0 13 0;#P connect 14 0 13 0;#P connect 7 0 13 0;#P connect 25 0 12 1;#P connect 13 0 12 1;#P connect 12 1 10 0;#P connect 16 0 17 1;#P lcolor 15;#P connect 15 0 17 1;#P lcolor 2;#P connect 24 0 17 1;#P connect 26 0 22 0;#P connect 22 0 24 0;#P connect 24 0 21 0;#P connect 21 0 20 0;#P connect 17 0 24 1;#P connect 16 0 24 1;#P connect 15 0 24 1;#P connect 8 0 25 0;#P pop;#P newobj 280 416 113 196617 p hide/show;#B color 6;#P newex 874 406 20 196617 t b;#P newex 907 403 20 196617 t b;#P newex 874 427 31 196617 t set;#P newex 907 427 36 196617 zl reg;#P newex 907 452 62 196617 prepend set;#P message 933 264 14 196617 b;#P newex 907 509 56 196617 route text;#N comlet trigmess;#P outlet 907 473 15 0;#P newex 593 242 350 196617 t l 0 b;#P message 838 451 39 196617 set \$1;#P newex 838 422 18 196617 t i;#P newex 838 365 92 196617 route int float;#P button 348 398 15 0;#P newex 359 276 27 196617 t b l;#P newex 359 313 36 196617 zl reg;#P newex 359 370 40 196617 t b b b;#P comment 763 313 115 196617 lcd \, dimmenions 27X27;#B frgb 255 0 0;#P newex 754 297 87 196617 multicurvdisp 27;#B color 5;#P newex 558 404 62 196617 prepend set;#P message 738 449 39 196617 set \$1;#P message 709 398 39 196617 set \$1;#P message 680 449 39 196617 set \$1;#P message 651 398 39 196617 set \$1;#P message 622 449 39 196617 set \$1;#P newex 593 298 155 196617 unpack s 0. 0 0 0. 0.;#P message 493 394 39 196617 set \$1;#P message 467 451 39 196617 set \$1;#P message 441 394 39 196617 set \$1;#P message 415 451 39 196617 set \$1;#P newex 415 294 88 196617 unpack 0. 0. 0. 0.;#P newex 378 179 51 196617 zl ecils 1;#P newex 378 159 49 196617 zl rot -1;#P newex 208 567 525 196617 pack s 0. 0. 0. 0. s 0. 0 0 0. 0.;#P newex 144 297 62 196617 prepend set;#P newex 144 254 64 196617 fromsymbol;#P newex 404 230 69 196617 route symbol;#P message 378 140 156 196617 <none> 0 1 0 1 norm 0. 0 0 0. 0.;#N vpatcher 834 177 1291 441;#P window setfont "Sans Serif" 9.;#P window linecount 2;#P comment 260 139 399 196617 re-modif by tom \, delete done in multimap module not in editor \, so that editor is not required for delete. here there is only "fillmenu" and "load first mapping into editor.";#B color 14;#P window linecount 1;#P newex 216 97 30 196617 t b b;#P newex 216 75 50 196617 deferlow;#B color 14;#P newex 216 52 117 196617 r $1/delete;#B color 14;#P window linecount 2;#P comment 260 102 160 196617 mod by reno- \; delete one mapping with its index \;;#B color 14;#P outlet 23 212 15 0;#P window linecount 1;#P newex 176 52 20 196617 t b;#N comlet just delete;#P inlet 176 28 15 0;#P window linecount 0;#P newex 57 211 144 196617 s $1/fillmenu;#B color 11;#P newex 57 81 30 196617 t b b;#P newex 77 130 75 196617 prepend delete;#N coll $1/data 1;#P newobj 77 152 147 196617 coll $1/data 1;#B color 5;#P newex 77 107 36 196617 zl reg;#P inlet 38 28 15 0;#N comlet delete + fill menu;#P inlet 57 52 15 0;#P connect 5 0 9 0;#P connect 13 0 9 0;#P connect 0 0 5 0;#P connect 5 0 6 0;#P connect 13 1 6 0;#P connect 5 1 2 0;#P connect 8 0 2 0;#P connect 2 0 4 0;#P connect 4 0 3 0;#P fasten 1 0 2 1 43 47 108 47;#P connect 7 0 8 0;#P connect 11 0 12 0;#P connect 12 0 13 0;#P pop;#P newobj 511 210 85 196617 p delete_current;#B color 6;#P button 1065 87 15 0;#N coll $1/data 1;#P newobj 208 724 147 196617 coll $1/data 1;#B color 5;#P newex 208 702 72 196617 prepend store;#P newex 30 61 32 196617 del 1;#P newex 30 41 20 196617 t b;#P newex 55 41 102 196617 r $1;#B color 11;#P newex 68 92 20 196617 t b;#P newex 172 66 124 196617 t dump clear 1;#P message 68 112 60 196617 start \, next;#N coll $1/data 1;#P newobj 68 134 147 196617 coll $1/data 1;#B color 5;#P button 314 398 15 0;#P button 280 398 15 0;#P newex 310 64 78 196617 t clear b;#P newex 310 43 123 196617 r $1/init;#B color 11;#P button 172 46 15 0;#P newex 172 22 144 196617 r $1/fillmenu;#B color 11;#P newex 339 184 26 196617 t s;#P newex 359 253 51 196617 zl slice 4;#N coll $1/data 1;#P newobj 359 210 147 196617 coll $1/data 1;#B color 5;#P newex 252 137 78 196617 prepend append;#P newex 252 116 69 196617 route symbol;#N coll $1/data 1;#P newobj 207 96 147 196617 coll $1/data 1;#B color 5;#P newex 593 262 51 196617 zl slice 6;#P comment 996 238 61 196617 outvaldispn;#P comment 1027 726 61 196617 thispatcher;#P connect 101 0 91 0;#P connect 91 0 90 0;#P connect 19 0 20 0;#P connect 20 0 21 0;#P connect 66 0 109 0;#P connect 109 1 105 0;#P connect 68 0 69 0;#P connect 90 0 69 0;#P connect 82 0 69 0;#P connect 21 0 18 0;#P fasten 25 0 18 0 516 232 539 232 539 88 73 88;#P connect 18 0 16 0;#P connect 16 0 15 0;#P fasten 69 0 15 0 62 549 25 549 25 130 73 130;#P connect 109 2 108 0;#P connect 107 0 108 0;#P connect 108 0 110 0;#P connect 95 0 96 0;#P connect 96 0 97 0;#P fasten 109 0 108 1 46 422 95 422;#P connect 105 1 106 0;#P connect 106 0 107 0;#P connect 98 0 81 0;#P connect 81 0 83 0;#P connect 83 0 82 0;#P connect 107 1 68 0;#P connect 110 0 68 0;#P connect 17 2 95 0;#P connect 94 0 95 0;#P connect 68 1 71 0;#P connect 90 1 71 0;#P connect 83 1 71 0;#P connect 27 0 74 0;#P connect 32 1 74 0;#P connect 74 0 28 0;#P connect 28 0 65 0;#P connect 65 0 29 0;#P connect 29 0 218 0;#P connect 104 0 218 0;#P connect 219 0 66 0;#P connect 76 0 87 0;#P connect 79 0 87 0;#P connect 17 0 93 0;#P connect 93 0 95 1;#P connect 68 3 92 0;#P lcolor 1;#P connect 90 3 92 0;#P lcolor 1;#P connect 64 1 92 0;#P lcolor 1;#P connect 21 0 10 0;#P connect 9 0 10 0;#P connect 10 0 17 0;#P connect 87 0 92 1;#P connect 17 0 3 0;#P connect 74 1 70 0;#P connect 68 2 30 0;#P lcolor 1;#P connect 90 2 30 0;#P connect 64 0 30 0;#P connect 70 0 30 0;#P fasten 78 0 79 0 928 597 213 597;#P lcolor 5;#P fasten 86 0 79 0 869 597 213 597;#P lcolor 5;#P fasten 85 0 79 0 843 597 213 597;#P lcolor 5;#P connect 79 0 22 0;#P fasten 76 0 22 0 250 648 213 648;#P connect 83 2 22 0;#P connect 22 0 23 0;#P connect 73 0 23 0;#P fasten 15 1 222 0 118 159 214 159;#P connect 17 1 222 0;#P connect 12 0 222 0;#P connect 5 0 222 0;#P connect 171 0 67 0;#P connect 174 0 67 0;#P connect 179 0 67 0;#P connect 183 0 67 0;#P connect 187 0 67 0;#P connect 195 0 67 0;#P connect 191 0 67 0;#P connect 203 0 67 0;#P connect 211 0 67 0;#P connect 207 0 67 0;#P connect 215 0 67 0;#P connect 88 0 67 0;#P connect 67 0 64 0;#P connect 3 1 94 0;#P connect 110 1 72 0;#P connect 72 0 73 0;#P connect 30 0 79 1;#P connect 79 1 76 0;#P connect 3 1 4 0;#P connect 4 0 5 0;#P connect 33 0 30 1;#P lcolor 1;#P connect 215 0 30 1;#P connect 74 2 72 1;#P connect 141 2 13 0;#P connect 13 0 63 0;#P fasten 78 1 76 1 949 615 296 615;#P fasten 86 1 76 1 888 607 296 607;#P connect 11 0 12 0;#P connect 33 1 30 2;#P lcolor 1;#P connect 207 0 30 2;#P connect 47 0 14 0;#P connect 14 0 63 1;#P connect 92 0 8 0;#P lcolor 15;#P connect 223 0 8 0;#P connect 50 0 63 2;#P connect 159 0 132 0;#P connect 132 0 157 0;#P connect 8 0 6 0;#P connect 32 0 7 0;#P connect 6 0 7 0;#P connect 7 0 49 0;#P connect 49 0 48 0;#P connect 88 2 141 0;#P lcolor 6;#P connect 48 0 141 0;#P connect 141 0 47 0;#P connect 33 2 30 3;#P lcolor 1;#P connect 211 0 30 3;#P connect 228 0 133 0;#P connect 133 0 226 0;#P connect 12 1 26 0;#P connect 26 0 31 0;#P connect 31 0 32 0;#P connect 141 1 140 0;#P connect 140 0 63 3;#P connect 38 0 48 1;#P connect 163 0 131 0;#P connect 131 0 161 0;#P connect 140 0 142 0;#P connect 6 1 27 0;#P connect 33 3 30 4;#P lcolor 1;#P connect 203 0 30 4;#P connect 49 1 33 0;#P connect 33 0 34 0;#P connect 34 0 214 0;#P connect 33 1 35 0;#P connect 35 0 206 0;#P connect 38 0 30 5;#P lcolor 1;#P connect 88 1 30 5;#P connect 33 2 36 0;#P connect 36 0 210 0;#P connect 33 3 37 0;#P connect 37 0 202 0;#P connect 47 2 89 0;#P connect 8 0 25 0;#P connect 139 0 30 6;#P lcolor 1;#P connect 191 0 30 6;#P connect 24 0 25 1;#P connect 38 0 44 0;#P connect 44 0 198 0;#P connect 138 0 30 7;#P lcolor 1;#P connect 195 0 30 7;#P connect 7 1 54 0;#P connect 54 0 2 0;#P connect 2 0 38 0;#P connect 89 0 38 0;#P connect 199 0 88 0;#P connect 137 0 30 8;#P lcolor 1;#P connect 187 0 30 8;#P fasten 134 0 139 0 921 352 627 352;#P lcolor 5;#P connect 38 1 139 0;#P connect 139 0 39 0;#P connect 39 0 190 0;#P fasten 134 0 138 0 921 352 656 352;#P lcolor 5;#P connect 38 2 138 0;#P connect 138 0 40 0;#P connect 40 0 194 0;#P connect 136 0 30 9;#P lcolor 1;#P connect 183 0 30 9;#P connect 41 0 186 0;#P fasten 134 0 137 0 921 352 685 352;#P lcolor 5;#P connect 38 3 137 0;#P connect 137 0 41 0;#P fasten 134 0 136 0 921 352 714 352;#P lcolor 5;#P connect 38 4 136 0;#P connect 136 0 42 0;#P connect 42 0 182 0;#P connect 135 0 30 10;#P lcolor 1;#P connect 179 0 30 10;#P fasten 134 0 135 0 921 352 743 352;#P lcolor 5;#P connect 38 5 135 0;#P connect 135 0 43 0;#P connect 43 0 178 0;#P connect 33 0 112 0;#P connect 112 0 113 0;#P fasten 2 0 45 0 598 289 759 289;#P connect 145 0 146 0;#P connect 47 2 130 0;#P connect 33 1 112 1;#P connect 125 0 128 0;#P connect 129 0 128 0;#P connect 130 0 128 0;#P connect 128 0 126 0;#P connect 126 0 115 0;#P connect 115 0 114 0;#P connect 74 2 145 0;#P connect 141 2 129 0;#P connect 126 1 116 0;#P connect 116 0 114 1;#P fasten 2 1 51 0 639 283 843 283;#P connect 51 0 52 0;#P connect 51 1 52 0;#P connect 134 0 52 0;#P connect 88 4 52 0;#P connect 54 1 52 0;#P connect 52 0 53 0;#P connect 53 0 176 0;#P connect 174 0 84 0;#P fasten 52 0 84 0 843 444 830 444 830 506 843 506;#P lcolor 13;#P connect 84 0 85 0;#P connect 143 0 117 0;#P connect 117 0 120 0;#P connect 130 1 124 0;#P connect 124 0 114 3;#P connect 145 1 118 0;#P connect 118 0 144 0;#P connect 144 0 143 0;#P connect 146 0 143 0;#P connect 84 1 86 0;#P connect 129 1 127 0;#P connect 127 0 114 4;#P connect 141 2 62 0;#P connect 62 0 60 0;#P connect 47 1 61 0;#P lcolor 15;#P connect 61 0 59 0;#P connect 59 0 58 0;#P connect 80 0 58 0;#P connect 60 0 55 0;#P connect 58 0 55 0;#P connect 171 0 56 0;#P connect 80 0 75 0;#P connect 56 0 75 0;#P fasten 59 0 77 0 912 448 930 448 930 551 912 551;#P lcolor 13;#P connect 75 0 77 0;#P connect 54 2 134 0;#P connect 77 1 78 0;#P connect 149 0 125 0;#P connect 142 0 125 0;#P connect 54 2 57 0;#P connect 88 3 57 0;#P lcolor 6;#P fasten 51 0 59 1 843 392 938 392;#P lcolor 13;#P fasten 51 1 59 1 884 392 938 392;#P lcolor 13;#P connect 57 0 59 1;#P connect 51 2 59 1;#P connect 117 0 230 0;#P connect 33 2 121 0;#P connect 121 0 122 0;#P connect 45 0 151 0;#P connect 169 0 100 0;#P connect 100 0 99 0;#P connect 111 0 153 0;#P connect 113 0 153 0;#P connect 111 0 155 0;#P fasten 120 0 123 0 852 217 982 217;#P connect 122 0 123 0;#P connect 33 3 121 1;#P connect 120 0 119 0;#P connect 77 0 80 0;#P connect 167 0 103 0;#P connect 103 0 102 0;#P connect 63 0 148 0;#P lcolor 15;#P connect 114 0 148 0;#P connect 165 0 24 0;#P pop;#P newobj 56 338 642 196626 p editor-works;#B color 6;#P window setfont "Sans Serif" 9.;#P newex 259 410 68 196617 pvar outbang;#P newex 245 298 54 196617 pvar out1;#P newex 191 254 48 196617 pvar in1;#P newex 282 276 54 196617 pvar out2;#P newex 299 254 63 196617 pvar type 2;#P newex 459 249 66 196617 pvar offseth;#P newex 490 270 67 196617 pvar offsetv;#P newex 521 290 57 196617 pvar ramp;#P newex 552 310 74 196617 pvar trigmess;#P newex 614 276 52 196617 pvar new;#P newex 645 297 73 196617 pvar newcopy;#P newex 676 317 76 196617 pvar deleteone;#P newex 146 233 73 196617 pvar speedlim;#P newex 49 202 65 196617 pvar slideup;#P newex 485 410 79 196617 pvar invaldispn;#P newex 557 247 89 196617 pvar dispbutton 2;#N thispatcher;#Q end;#P newobj 677 371 61 196617 thispatcher;#P newex 650 410 85 196617 pvar outvaldispn;#P newex 567 410 80 196617 pvar outvaldisp;#P window setfont Times 9.;#P comment 307 44 124 1310729 choose which mapping to edit;#P number 48 108 38 9 0 0 1 20 0 0 0 221 221 221 222 222 222 0 0 0;#P objectname ramp;#P comment 469 25 16 1310729 in;#B frgb 99 99 99;#P objectname invaldispntext;#P flonum 48 92 38 9 0. 99999. 3 20 0 0 0 221 221 221 222 222 222 0 0 0;#P objectname slidedown;#P flonum 48 78 38 9 0. 99999. 3 20 0 0 0 221 221 221 222 222 222 0 0 0;#P objectname slideup;#P number 48 64 38 9 0 99999 3 20 0 0 0 221 221 221 222 222 222 0 0 0;#P objectname speedlim;#P comment 6 65 44 1310729 /speedlim;#B frgb 0 0 200;#P hidden comment 491 26 20 1310729 out;#B frgb 99 99 99;#P objectname outvaldisptext;#P hidden comment 473 26 16 1310729 in;#B frgb 99 99 99;#P objectname invaldisptext;#P user ubutton 468 27 43 42 0 2;#P objectname dispbutton;#P hidden comment 191 79 36 1310729 outtrig;#P objectname outtrigtext;#P hidden button 179 79 13 0;#P noclick;#P objectname outbang;#P comment 469 45 20 1310729 out;#B frgb 99 99 99;#P objectname outvaldispntext;#P flonum 467 55 44 9 0 0 8224 20 0 0 0 221 221 221 222 222 222 0 0 0;#P noclick;#P objectname outvaldispn;#P hidden user multiSlider 493 36 13 33 0. 1. 1 2681 15 0 0 1 0 0 0;#M frgb 0 0 0;#M brgb 255 255 255;#M rgb2 127 127 127;#M rgb3 0 0 0;#M rgb4 37 52 91;#M rgb5 74 105 182;#M rgb6 112 158 18;#M rgb7 149 211 110;#M rgb8 187 9 201;#M rgb9 224 62 37;#M rgb10 7 114 128;#P noclick;#P objectname outvaldisp;#P flonum 467 35 44 9 0 0 8224 20 0 0 0 221 221 221 222 222 222 0 0 0;#P noclick;#P objectname invaldispn;#P hidden user multiSlider 474 36 13 33 0. 1. 1 2681 15 0 0 1 0 0 0;#M frgb 0 0 0;#M brgb 255 255 255;#M rgb2 127 127 127;#M rgb3 0 0 0;#M rgb4 37 52 91;#M rgb5 74 105 182;#M rgb6 112 158 18;#M rgb7 149 211 110;#M rgb8 187 9 201;#M rgb9 224 62 37;#M rgb10 7 114 128;#P noclick;#P objectname invaldisp;#P hidden comment 148 110 77 1310729 (use 'b' for 'bang');#B frgb 200 0 0;#P objectname bforbangtext;#P comment 330 29 47 1310729 /newcopy;#B frgb 0 0 200;#P button 372 28 13 7;#P objectname newcopy;#P comment 288 29 26 1310729 /new;#B frgb 0 0 200;#P button 312 28 13 6;#P objectname new;#P comment 7 108 47 1310729 /destramp;#B frgb 140 10 10;#P objectname ramptext;#P comment 390 29 49 1310729 /deleteone;#B frgb 0 0 200;#P button 434 28 13 4;#P objectname deleteone;#P comment 336 106 35 1310729 sendto;#P user textedit 366 103 506 119 32896 20 9 <none>;#P objectname sendto;#P hidden comment 110 110 43 1310729 trigmess;#P objectname trigmesstext;#P flonum 110 107 42 9 0 0 0 20 0 0 0 221 221 221 222 222 222 0 0 0;#P objectname out2;#P comment 90 78 24 1310729 /in2;#B frgb 140 10 10;#P objectname in2text;#P flonum 110 78 42 9 0 0 0 20 0 0 0 221 221 221 222 222 222 0 0 0;#P objectname in2;#P user lcd 228 64 29 29 0 1 0 0 0;#P objectname curvdisp;#P comment 86 107 30 1310729 /out2;#B frgb 140 10 10;#P objectname out2text;#P comment 86 93 30 1310729 /out1;#B frgb 140 10 10;#P objectname out1text;#P comment 90 64 24 1310729 /in1;#B frgb 140 10 10;#P objectname in1text;#P flonum 110 93 42 9 0 0 0 20 0 0 0 221 221 221 222 222 222 0 0 0;#P objectname out1;#P flonum 110 64 42 9 0 0 0 20 0 0 0 221 221 221 222 222 222 0 0 0;#P objectname in1;#P comment 194 107 40 1310729 /offsetv;#B frgb 140 10 10;#P objectname offsetvtext;#P comment 194 93 40 1310729 /offseth;#B frgb 140 10 10;#P objectname offsethtext;#P comment 153 107 32 1310729 /flipv;#B frgb 140 10 10;#P objectname flipvtext;#P comment 153 93 32 1310729 /fliph;#B frgb 140 10 10;#P objectname fliphtext;#P toggle 179 107 14 0;#P objectname flipv;#P toggle 179 93 14 0;#P objectname fliph;#P comment 151 79 33 1310729 /curve;#B frgb 140 10 10;#P objectname curvetext;#P comment 155 64 30 1310729 /type;#B frgb 140 10 10;#P flonum 179 79 35 9 -1. 1. 3 20 0 0 0 221 221 221 222 222 222 0 0 0;#P objectname curve;#P flonum 228 107 32 9 -1. 1. 3 20 0 0 0 221 221 221 222 222 222 0 0 0;#P objectname offsetv;#P flonum 228 93 32 9 -1. 1. 3 20 0 0 0 221 221 221 222 222 222 0 0 0;#P objectname offseth;#P user ubumenu 179 64 42 1310729 0 1 1 0;#X add norm;#X add sym;#X add updwn;#X add trig;#X add direct;#X prefix_set 0 0 <none> 0;#P objectname type;#P user ubumenu 289 55 158 1310729 0 1 1 0;#X prefix_set 0 0 <none> 0;#P objectname destinations;#P hidden user textedit 110 93 260 112 32896 20 9;#P objectname trigmess;#P comment 2 93 52 1310729 /rampdown;#B frgb 0 0 200;#P objectname ramptext[2];#P comment 12 79 41 1310729 /rampup;#B frgb 0 0 200;#P objectname ramptext[1];#P user panel 3 63 84 44;#X brgb 198 198 198;#X frgb 0 0 0;#X border 1;#X rounded 0;#X shadow 0;#X done;#P window setfont "Sans Serif" 9.;#P window linecount 2;#P comment 84 142 353 196617 arg 1 : prefix \; arg 2 : color scheme choice (0 = movie \, 1 = tape \, 2 = camtrk \, 3 = conduite);#P window linecount 1;#P newex 133 212 78 196617 pvar slidedown;#P newex 408 410 74 196617 pvar invaldisp;#P newex 331 410 73 196617 pvar curvdisp;#P newex 428 229 55 196617 pvar flipv;#P newex 397 209 54 196617 pvar fliph;#P newex 366 254 60 196617 pvar curve;#P newex 218 276 48 196617 pvar in2;#P window linecount 2;#P comment 83 172 604 196617 "[destination et agruments]" \, [in1] [in2] [out1] [out2] [type (norm \, sym \, updwn trig)] [curve (-1. to 1.)] [fliph (0-1)] [flipv (0-1)] [offseth (-1. to 1.)] [offsetv (-1. to 1.)] "[trig message]";#P window linecount 1;#P newex 16 242 63 196617 pvar sendto;#P newex 31 222 97 196617 pvar destinations 2;#P newex 282 442 131 196617 pvar controlparamsmenu 2;#P newex 282 511 98 196617 pvar controlmenu 2;#P user ubumenu 366 87 140 196617 0 1 1 0;#X prefix_set 0 0 <none> 0;#X pattrmode 1;#P objectname moduleparamsmenu;#P user ubumenu 133 18 140 196617 0 1 1 0;#X prefix_set 0 0 <none> 0;#X pattrmode 1;#P objectname controlparamsmenu;#P user ubumenu 32 18 100 196617 0 1 1 0;#X add -;#X prefix_set 0 0 <none> 0;#X pattrmode 1;#P objectname controlmenu;#P user ubumenu 265 87 100 196617 0 1 1 0;#X add -;#X prefix_set 0 0 <none> 0;#X pattrmode 1;#P objectname modulemenu;#P window linecount 0;#P comment 0 809 100 196617;#P window linecount 1;#P newex 136 466 42 196617 route -;#P bpatcher 0 0 512 124 0 0 bkgndmap22.mxt 0 $1 0 3;#P background;#P objectname background;#P connect 109 0 10 0;#P connect 108 0 10 0;#P connect 93 0 10 0;#P connect 10 0 107 0;#P connect 107 0 112 0;#P fasten 112 1 106 0 95 315 21 315;#P fasten 106 1 105 0 132 441 21 441;#P connect 93 1 9 0;#P connect 106 0 104 0;#P connect 93 2 79 0;#P connect 1 1 93 0;#P connect 112 1 93 0;#P connect 110 0 93 0;#P connect 104 1 106 1;#P fasten 1 1 108 0 173 509 80 509;#P connect 111 0 109 0;#P connect 1 0 109 0;#P connect 9 1 93 1;#P connect 1 0 110 0;#P connect 111 0 110 0;#P connect 79 0 93 2;#P connect 113 0 106 2;#P connect 93 3 18 0;#P connect 105 1 1 0;#P connect 93 4 80 0;#P connect 18 0 93 3;#P connect 104 1 111 0;#P connect 80 0 93 4;#P connect 93 5 90 0;#P connect 90 0 93 5;#P connect 93 6 12 0;#P connect 12 0 93 6;#P connect 93 7 91 0;#P fasten 93 17 92 0 520 384 264 384;#P connect 91 0 93 7;#P connect 93 8 89 0;#P connect 102 1 8 0;#P fasten 7 1 102 0 375 533 277 533 277 465 287 465;#P connect 102 0 7 0;#P connect 93 9 88 0;#P connect 89 0 93 8;#P fasten 93 18 16 0 547 389 336 389;#P connect 88 1 93 9;#P fasten 8 1 102 1 408 464 345 464;#P connect 93 10 13 0;#P connect 13 0 93 10;#P connect 93 11 14 0;#P connect 14 0 93 11;#P connect 95 0 102 2;#P fasten 93 19 17 0 574 394 413 394;#P connect 102 2 95 0;#P connect 93 12 15 0;#P connect 15 0 93 12;#P connect 93 13 87 0;#P connect 87 0 93 13;#P fasten 93 20 78 0 601 399 490 399;#P connect 93 14 86 0;#P connect 86 0 93 14;#P connect 93 15 85 0;#P connect 85 0 93 15;#P connect 93 16 84 0;#P connect 84 0 93 16;#P fasten 93 21 74 0 628 404 572 404;#P fasten 77 1 93 17 641 272 588 272;#P connect 83 0 93 18;#P connect 82 0 93 19;#P connect 93 22 75 0;#P connect 112 0 81 0;#P lcolor 15;#P connect 81 0 93 20;#P connect 93 23 76 0;#P pop;