max v2;#N vpatcher 47 266 1459 834;#P origin 0 -41;#P window setfont "Sans Serif" 9.;#P window linecount 1;#P newex 1102 174 96 196617 sprintf nsub %s 11;#P newex 1102 195 38 196617 zl join;#P newex 1102 130 51 196617 zl slice 1;#P newex 1102 109 159 196617 r $1/clipmode;#B color 11;#N vpatcher 10 59 428 538;#P window setfont "Sans Serif" 9.;#P newex 54 366 68 196617 zl join;#P newex 54 344 59 196617 append clip;#P newex 54 323 68 196617 zl slice 11;#P newex 26 303 59 196617 append clip;#P newex 26 278 38 196617 gate 2;#P newex 71 254 27 196617 + 1;#P newex 71 234 30 196617 > 11;#P newex 71 214 34 196617 zl len;#P newex 54 193 27 196617 t l l;#P outlet 288 401 15 0;#P newex 82 51 247 196617 t l l b;#P newex 54 171 38 196617 gate 2;#P newex 318 122 21 196617 t 1;#P newex 100 138 21 196617 t 2;#P newex 100 76 50 196617 zl nth 12;#P newex 100 99 215 196617 route clip reject both high low none wrap fold;#P inlet 82 31 15 0;#P connect 11 0 12 0;#P connect 12 0 13 0;#P connect 4 0 5 0;#P connect 3 0 5 0;#P connect 5 0 8 0;#P connect 8 0 12 1;#P connect 12 1 14 0;#P connect 14 0 15 0;#P connect 15 0 16 0;#P connect 8 1 9 0;#P connect 9 0 10 0;#P connect 10 0 11 0;#P connect 0 0 6 0;#P connect 6 0 5 1;#P fasten 6 1 2 0 205 72 105 72;#P connect 2 0 1 0;#P connect 1 4 3 0;#P connect 1 5 3 0;#P connect 1 6 3 0;#P connect 1 7 3 0;#P connect 1 3 3 0;#P connect 1 2 3 0;#P connect 1 0 3 0;#P connect 1 1 3 0;#P connect 14 1 16 1;#P connect 5 1 7 0;#P connect 13 0 7 0;#P connect 16 0 7 0;#P connect 1 8 4 0;#P connect 6 2 4 0;#P pop;#P newobj 428 108 114 196617 p check_for_clip_mode;#B color 6;#P number 20 231 35 9 0 0 0 3 0 0 0 221 221 221 222 222 222 0 0 0;#P newex 20 211 27 196617 + 1;#P newex 20 191 31 196617 != 1.;#P newex 20 251 47 196617 gate 2 1;#P newex 74 251 29 196617 t b f;#P flonum 230 51 35 9 0 0 0 3 0 0 0 221 221 221 222 222 222 0 0 0;#P newex 57 273 29 196617 * 1.;#P newex 230 31 245 196617 makesubparam $1/coef $1 $2 f 1 0 999 1;#B color 13;#P newex 726 88 151 196617 moduleinit $1;#B color 13;#P newex 8 348 63 196617 zl slice 244;#P newex 37 46 173 196617 r $1/in;#B color 11;#P newex 1250 502 126 196617 s $1/rampdown;#B color 13;#P newex 1250 479 51 196617 zl join;#P newex 1250 458 35 196617 * 10.;#P newex 1250 437 51 196617 zl slice 1;#P newex 1127 502 113 196617 s $1/rampup;#B color 13;#P newex 1127 479 51 196617 zl join;#P newex 1127 458 35 196617 * 10.;#P newex 1127 437 51 196617 zl slice 1;#P newex 1250 415 124 196617 r $1/slidedown;#B color 13;#P newex 1127 415 111 196617 r $1/slideup;#B color 13;#P window linecount 2;#P comment 1127 389 162 196617 convert old slide messages to new ramp messages;#P window linecount 1;#P newex 632 181 76 196617 s $1/speedlim;#B color 13;#P newex 632 160 31 196617 + 15;#P newex 632 140 58 196617 random 11;#N vpatcher 431 230 838 729;#P window setfont "Sans Serif" 9.;#P window linecount 0;#P message 92 351 92 196617 set -1874919423;#P newex 92 331 38 196617 del 50;#P newex 92 311 20 196617 t b;#P newex 11 74 52 196617 route list;#N comlet list thru;#P outlet 11 105 15 0;#N comlet ramped \, speedlimited val out;#P outlet 74 439 15 0;#P newex 53 95 127 196617 t f f b;#N comlet speedlim;#P inlet 211 33 15 0;#N comlet rampdown;#P inlet 339 33 15 0;#N comlet rampup;#P inlet 295 33 15 0;#N comlet val in;#P inlet 11 31 15 0;#P window linecount 1;#P newex 228 255 62 196617 maximum 1;#P newex 228 233 27 196617 / 5.;#P newex 74 371 52 196617 change 0.;#P newex 11 54 49 196617 speedlim;#P newex 74 412 147 196617 speedlim;#P newex 145 164 32 196617 sel 1;#P newex 145 142 34 196617 == 0.;#P newex 145 184 21 196617 t 0;#P newex 109 185 21 196617 t 2;#P newex 74 185 21 196617 t 1;#P newex 109 164 32 196617 sel 1;#P newex 74 164 32 196617 sel 1;#P newex 74 213 49 196617 gate 2;#P newex 74 142 27 196617 > 0.;#P newex 109 142 27 196617 < 0.;#P flonum 74 392 35 9 0 0 0 3 0 0 0 221 221 221 222 222 222 0 0 0;#P newex 169 116 27 196617 f;#P newex 133 255 51 196617 pack 0. 5;#P newex 74 255 51 196617 pack 0. 5;#P newex 74 285 47 196617 line 0. 5;#P connect 20 0 16 0;#P connect 16 0 27 0;#P connect 27 0 26 0;#P fasten 23 0 16 1 216 51 55 51;#P connect 27 1 24 0;#P connect 24 1 6 0;#P connect 6 0 8 0;#P connect 8 0 10 0;#P connect 12 0 7 0;#P connect 11 0 7 0;#P connect 10 0 7 0;#P connect 7 0 1 0;#P connect 1 0 0 0;#P connect 2 0 0 0;#P connect 0 0 17 0;#P connect 30 0 17 0;#P connect 17 0 4 0;#P connect 4 0 15 0;#P connect 15 0 25 0;#P connect 3 0 6 1;#P connect 0 0 28 0;#P connect 28 0 29 0;#P connect 29 0 30 0;#P connect 24 1 5 0;#P connect 5 0 9 0;#P connect 9 0 11 0;#P connect 19 0 0 2;#P fasten 24 0 7 1 58 211 118 211;#P lcolor 2;#P connect 21 0 1 1;#P connect 3 0 5 1;#P connect 7 1 2 0;#P connect 24 1 13 0;#P connect 13 0 14 0;#P connect 14 0 12 0;#P connect 24 2 3 0;#P connect 3 0 13 1;#P connect 22 0 2 1;#P fasten 0 0 3 1 79 306 200 306 200 112 191 112;#P connect 23 0 15 1;#P connect 23 0 18 0;#P connect 18 0 19 0;#P pop;#P newobj 18 293 74 196617 p smoothing;#B color 6;#P newex 952 160 75 196617 prepend delete;#P newex 952 136 117 196617 r $1/delete;#B color 14;#P message 147 134 60 196617 $1/none;#P newex 147 114 67 196617 route <none>;#P newex 56 117 62 196617 prepend set;#P newex 56 137 44 196617 receive;#B color 11;#P newex 147 94 260 196617 makeparam $1/source $1 s $1<none>;#B color 13;#P newex 166 457 19 196617 t f;#P newex 8 553 173 196617 s $2/listmapper;#B color 11;#P newex 8 506 36 196617 zl reg;#P newex 30 478 27 196617 t b l;#P newex 8 419 43 196617 zl join;#P newex 8 530 49 196617 zl join;#P newex 8 371 43 196617 t l l;#P newex 8 396 34 196617 zl len;#P newex 30 457 62 196617 gate 2;#P newex 18 314 55 196617 t dump l 1;#P newex 186 458 173 196617 s $1/inlist;#B color 11;#N coll $1/data 1;#P newobj 726 212 219 196617 coll $1/data 1;#B color 5;#P newex 726 191 40 196617 t clear;#P newex 18 71 295 196617 makeswitch $1/sw $1 $2_switchstate;#B color 13;#P window linecount 6;#P message 726 113 224 196617 bang \; $1/sw/init bang \; $1/source/init bang \; $1/speedlim/init bang \; $1/rampup/init bang \; $1/rampdown/init bang;#P window linecount 1;#P newex 164 208 306 196617 makeparam $1/rampdown $1 f 0 0 99999 1;#B color 13;#P newex 110 185 306 196617 makeparam $1/rampup $1 f 0 0 99999 1;#B color 13;#P flonum 164 229 48 9 0 0 0 3 0 0 0 221 221 221 222 222 222 0 0 0;#P flonum 110 208 48 9 0 0 0 3 0 0 0 221 221 221 222 222 222 0 0 0;#P number 59 181 43 9 0 0 0 3 0 0 0 221 221 221 222 222 222 0 0 0;#P newex 59 160 306 196617 makeparam $1/speedlim $1 i 0 0 99999 1;#B color 13;#P newex 173 478 173 196617 s $1/inval;#B color 11;#P newex 1226 213 96 196617 sprintf nsub %s 12;#P newex 1226 234 38 196617 zl join;#P newex 1226 169 51 196617 zl slice 1;#P newex 1226 148 159 196617 r $1/ramp;#B color 11;#P comment 263 525 1034 196617 [val] [in1] [in2] [out1] [out2] [type (norm \, sym \, updwn trig)] [curve (-1. to 1.)] [fliph (0-1)] [flipv (0-1)] [offseth (-1. to 1.)] [offsetv (-1. to 1.)] [clipmode (clip \, reject \, etc)] "[trig message]" "[destination et agruments]";#P newex 151 437 69 196617 route symbol;#P comment 94 418 873 196617 "[destination et agruments]" \, [in1] [in2] [out1] [out2] [type (norm \, sym \, updwn trig)] [curve (-1. to 1.)] [fliph (0-1)] [flipv (0-1)] [offseth (-1. to 1.)] [offsetv (-1. to 1.)] "[trig message]";#P comment 668 465 263 196617 $2;#B frgb 200 0 0;#P comment 668 453 263 196617 $1;#B frgb 200 0 0;#P newex 82 523 173 196617 s $2/mapper;#B color 11;#P newex 1173 322 96 196617 sprintf nsub %s 12;#P newex 1173 343 38 196617 zl join;#P newex 1173 278 51 196617 zl slice 1;#P newex 1173 257 159 196617 r $1/trigmess;#B color 11;#P window setfont "Sans Serif" 12.;#P comment 304 394 352 196620 <- all multiple mappings of single controller stored here.;#B frgb 255 0 0;#P toggle 18 115 15 0;#P window setfont "Sans Serif" 9.;#P newex 18 168 29 196617 gate;#N vpatcher 82 99 412 503;#P window setfont "Sans Serif" 9.;#P newex 97 234 51 196617 zl ecils 1;#P newex 97 292 55 196617 append 10;#P newex 97 312 63 196617 prepend sub;#P newex 97 332 82 196617 zl join;#P newex 97 272 51 196617 tosymbol;#P newex 195 253 51 196617 zl slice 1;#P newex 154 233 51 196617 zl ecils 2;#P newex 97 212 67 196617 gate 2;#P newex 97 191 27 196617 + 1;#P newex 49 52 84 196617 t l l l;#P newex 226 145 21 196617 t 0;#P newex 177 145 21 196617 t 1;#P newex 129 121 21 196617 t 0;#P newex 80 121 21 196617 t 1;#P newex 129 168 27 196617 &&;#P newex 164 98 51 196617 zl slice 1;#P newex 164 121 73 196617 route int float;#P newex 67 98 73 196617 route int float;#P newex 123 75 51 196617 zl ecils 2;#P newex 67 75 51 196617 zl ecils 1;#P inlet 49 32 15 0;#P outlet 97 354 15 0;#P connect 1 0 12 0;#P fasten 12 1 2 0 91 72 72 72;#P fasten 2 1 4 0 113 95 72 95;#P connect 4 0 8 0;#P connect 4 1 8 0;#P connect 7 0 13 0;#P connect 13 0 14 0;#P connect 14 0 21 0;#P connect 15 0 17 0;#P connect 21 0 17 0;#P connect 17 0 20 0;#P connect 20 0 19 0;#P connect 19 0 18 0;#P connect 18 0 0 0;#P connect 12 2 3 0;#P connect 4 2 9 0;#P connect 9 0 7 0;#P connect 8 0 7 0;#P fasten 10 0 7 1 182 165 151 165;#P fasten 11 0 7 1 231 165 151 165;#P fasten 12 0 14 1 54 188 159 188;#P lcolor 6;#P connect 14 1 15 0;#P connect 3 1 6 0;#P connect 6 0 5 0;#P connect 16 0 18 1;#P connect 21 1 18 1;#P connect 5 1 10 0;#P connect 5 0 10 0;#P connect 15 1 16 0;#P connect 5 2 11 0;#P pop;#P newobj 1066 343 33 196617 p sub;#B color 13;#P newex 1066 235 152 196617 r $1/offsetv;#B color 11;#N vpatcher 82 99 412 503;#P window setfont "Sans Serif" 9.;#P newex 97 234 51 196617 zl ecils 1;#P newex 97 292 49 196617 append 9;#P newex 97 312 63 196617 prepend sub;#P newex 97 332 82 196617 zl join;#P newex 97 272 51 196617 tosymbol;#P newex 195 253 51 196617 zl slice 1;#P newex 154 233 51 196617 zl ecils 2;#P newex 97 212 67 196617 gate 2;#P newex 97 191 27 196617 + 1;#P newex 49 52 84 196617 t l l l;#P newex 226 145 21 196617 t 0;#P newex 177 145 21 196617 t 1;#P newex 129 121 21 196617 t 0;#P newex 80 121 21 196617 t 1;#P newex 129 168 27 196617 &&;#P newex 164 98 51 196617 zl slice 1;#P newex 164 121 73 196617 route int float;#P newex 67 98 73 196617 route int float;#P newex 123 75 51 196617 zl ecils 2;#P newex 67 75 51 196617 zl ecils 1;#P inlet 49 32 15 0;#P outlet 97 354 15 0;#P connect 1 0 12 0;#P fasten 12 1 2 0 91 72 72 72;#P fasten 2 1 4 0 113 95 72 95;#P connect 4 0 8 0;#P connect 4 1 8 0;#P connect 7 0 13 0;#P connect 13 0 14 0;#P connect 14 0 21 0;#P connect 15 0 17 0;#P connect 21 0 17 0;#P connect 17 0 20 0;#P connect 20 0 19 0;#P connect 19 0 18 0;#P connect 18 0 0 0;#P connect 12 2 3 0;#P connect 4 2 9 0;#P connect 9 0 7 0;#P connect 8 0 7 0;#P fasten 10 0 7 1 182 165 151 165;#P fasten 11 0 7 1 231 165 151 165;#P fasten 12 0 14 1 54 188 159 188;#P lcolor 6;#P connect 14 1 15 0;#P connect 3 1 6 0;#P connect 6 0 5 0;#P connect 16 0 18 1;#P connect 21 1 18 1;#P connect 5 1 10 0;#P connect 5 0 10 0;#P connect 15 1 16 0;#P connect 5 2 11 0;#P pop;#P newobj 960 343 33 196617 p sub;#B color 13;#P newex 960 257 151 196617 r $1/offseth;#B color 11;#N vpatcher 82 99 412 503;#P window setfont "Sans Serif" 9.;#P newex 97 234 51 196617 zl ecils 1;#P newex 97 292 49 196617 append 8;#P newex 97 312 63 196617 prepend sub;#P newex 97 332 82 196617 zl join;#P newex 97 272 51 196617 tosymbol;#P newex 195 253 51 196617 zl slice 1;#P newex 154 233 51 196617 zl ecils 2;#P newex 97 212 67 196617 gate 2;#P newex 97 191 27 196617 + 1;#P newex 49 52 84 196617 t l l l;#P newex 226 145 21 196617 t 0;#P newex 177 145 21 196617 t 1;#P newex 129 121 21 196617 t 0;#P newex 80 121 21 196617 t 1;#P newex 129 168 27 196617 &&;#P newex 164 98 51 196617 zl slice 1;#P newex 164 121 73 196617 route int float;#P newex 67 98 73 196617 route int float;#P newex 123 75 51 196617 zl ecils 2;#P newex 67 75 51 196617 zl ecils 1;#P inlet 49 32 15 0;#P outlet 97 354 15 0;#P connect 1 0 12 0;#P fasten 12 1 2 0 91 72 72 72;#P fasten 2 1 4 0 113 95 72 95;#P connect 4 0 8 0;#P connect 4 1 8 0;#P connect 7 0 13 0;#P connect 13 0 14 0;#P connect 14 0 21 0;#P connect 15 0 17 0;#P connect 21 0 17 0;#P connect 17 0 20 0;#P connect 20 0 19 0;#P connect 19 0 18 0;#P connect 18 0 0 0;#P connect 12 2 3 0;#P connect 4 2 9 0;#P connect 9 0 7 0;#P connect 8 0 7 0;#P fasten 10 0 7 1 182 165 151 165;#P fasten 11 0 7 1 231 165 151 165;#P fasten 12 0 14 1 54 188 159 188;#P lcolor 6;#P connect 14 1 15 0;#P connect 3 1 6 0;#P connect 6 0 5 0;#P connect 16 0 18 1;#P connect 21 1 18 1;#P connect 5 1 10 0;#P connect 5 0 10 0;#P connect 15 1 16 0;#P connect 5 2 11 0;#P pop;#P newobj 865 343 33 196617 p sub;#B color 13;#P newex 865 235 140 196617 r $1/flipv;#B color 11;#N vpatcher 82 99 412 503;#P window setfont "Sans Serif" 9.;#P newex 97 234 51 196617 zl ecils 1;#P newex 97 292 49 196617 append 7;#P newex 97 312 63 196617 prepend sub;#P newex 97 332 82 196617 zl join;#P newex 97 272 51 196617 tosymbol;#P newex 195 253 51 196617 zl slice 1;#P newex 154 233 51 196617 zl ecils 2;#P newex 97 212 67 196617 gate 2;#P newex 97 191 27 196617 + 1;#P newex 49 52 84 196617 t l l l;#P newex 226 145 21 196617 t 0;#P newex 177 145 21 196617 t 1;#P newex 129 121 21 196617 t 0;#P newex 80 121 21 196617 t 1;#P newex 129 168 27 196617 &&;#P newex 164 98 51 196617 zl slice 1;#P newex 164 121 73 196617 route int float;#P newex 67 98 73 196617 route int float;#P newex 123 75 51 196617 zl ecils 2;#P newex 67 75 51 196617 zl ecils 1;#P inlet 49 32 15 0;#P outlet 97 354 15 0;#P connect 1 0 12 0;#P fasten 12 1 2 0 91 72 72 72;#P fasten 2 1 4 0 113 95 72 95;#P connect 4 0 8 0;#P connect 4 1 8 0;#P connect 7 0 13 0;#P connect 13 0 14 0;#P connect 14 0 21 0;#P connect 15 0 17 0;#P connect 21 0 17 0;#P connect 17 0 20 0;#P connect 20 0 19 0;#P connect 19 0 18 0;#P connect 18 0 0 0;#P connect 12 2 3 0;#P connect 4 2 9 0;#P connect 9 0 7 0;#P connect 8 0 7 0;#P fasten 10 0 7 1 182 165 151 165;#P fasten 11 0 7 1 231 165 151 165;#P fasten 12 0 14 1 54 188 159 188;#P lcolor 6;#P connect 14 1 15 0;#P connect 3 1 6 0;#P connect 6 0 5 0;#P connect 16 0 18 1;#P connect 21 1 18 1;#P connect 5 1 10 0;#P connect 5 0 10 0;#P connect 15 1 16 0;#P connect 5 2 11 0;#P pop;#P newobj 771 343 33 196617 p sub;#B color 13;#P newex 771 257 139 196617 r $1/fliph;#B color 11;#N vpatcher 82 99 412 503;#P window setfont "Sans Serif" 9.;#P newex 97 234 51 196617 zl ecils 1;#P newex 97 292 49 196617 append 6;#P newex 97 312 63 196617 prepend sub;#P newex 97 332 82 196617 zl join;#P newex 97 272 51 196617 tosymbol;#P newex 195 253 51 196617 zl slice 1;#P newex 154 233 51 196617 zl ecils 2;#P newex 97 212 67 196617 gate 2;#P newex 97 191 27 196617 + 1;#P newex 49 52 84 196617 t l l l;#P newex 226 145 21 196617 t 0;#P newex 177 145 21 196617 t 1;#P newex 129 121 21 196617 t 0;#P newex 80 121 21 196617 t 1;#P newex 129 168 27 196617 &&;#P newex 164 98 51 196617 zl slice 1;#P newex 164 121 73 196617 route int float;#P newex 67 98 73 196617 route int float;#P newex 123 75 51 196617 zl ecils 2;#P newex 67 75 51 196617 zl ecils 1;#P inlet 49 32 15 0;#P outlet 97 354 15 0;#P connect 1 0 12 0;#P fasten 12 1 2 0 91 72 72 72;#P fasten 2 1 4 0 113 95 72 95;#P connect 4 0 8 0;#P connect 4 1 8 0;#P connect 7 0 13 0;#P connect 13 0 14 0;#P connect 14 0 21 0;#P connect 15 0 17 0;#P connect 21 0 17 0;#P connect 17 0 20 0;#P connect 20 0 19 0;#P connect 19 0 18 0;#P connect 18 0 0 0;#P connect 12 2 3 0;#P connect 4 2 9 0;#P connect 9 0 7 0;#P connect 8 0 7 0;#P fasten 10 0 7 1 182 165 151 165;#P fasten 11 0 7 1 231 165 151 165;#P fasten 12 0 14 1 54 188 159 188;#P lcolor 6;#P connect 14 1 15 0;#P connect 3 1 6 0;#P connect 6 0 5 0;#P connect 16 0 18 1;#P connect 21 1 18 1;#P connect 5 1 10 0;#P connect 5 0 10 0;#P connect 15 1 16 0;#P connect 5 2 11 0;#P pop;#P newobj 672 343 33 196617 p sub;#B color 13;#P newex 672 235 145 196617 r $1/curve;#B color 11;#P comment 428 71 854 196617 /map list : [dest] [in1] [in2] [out1] [out2] [type (norm \, sym \, updwn)] [curve (-1. to 1.)] [fliph (0-1)] [flipv (0-1)] [offseth (-1. to 1.)] [offsetv (-1. to 1.)] [clipmode (clip \, reject \, etc)];#N vpatcher 82 99 323 341;#P window setfont "Sans Serif" 9.;#P newex 49 75 51 196617 tosymbol;#P newex 49 95 49 196617 append 5;#P newex 49 115 63 196617 prepend sub;#P newex 49 135 82 196617 zl join;#P newex 49 54 82 196617 zl ecils 1;#P inlet 49 32 15 0;#P outlet 49 163 15 0;#P connect 1 0 2 0;#P connect 2 0 6 0;#P connect 6 0 5 0;#P connect 5 0 4 0;#P connect 4 0 3 0;#P connect 3 0 0 0;#P connect 2 1 3 1;#P pop;#P newobj 579 339 43 196617 p sub-s;#B color 6;#P newex 579 257 139 196617 r $1/type;#B color 11;#N vpatcher 82 99 412 503;#P window setfont "Sans Serif" 9.;#P newex 97 234 51 196617 zl ecils 1;#P newex 97 292 49 196617 append 4;#P newex 97 312 63 196617 prepend sub;#P newex 97 332 82 196617 zl join;#P newex 97 272 51 196617 tosymbol;#P newex 195 253 51 196617 zl slice 1;#P newex 154 233 51 196617 zl ecils 2;#P newex 97 212 67 196617 gate 2;#P newex 97 191 27 196617 + 1;#P newex 49 52 84 196617 t l l l;#P newex 226 145 21 196617 t 0;#P newex 177 145 21 196617 t 1;#P newex 129 121 21 196617 t 0;#P newex 80 121 21 196617 t 1;#P newex 129 168 27 196617 &&;#P newex 164 98 51 196617 zl slice 1;#P newex 164 121 73 196617 route int float;#P newex 67 98 73 196617 route int float;#P newex 123 75 51 196617 zl ecils 2;#P newex 67 75 51 196617 zl ecils 1;#P inlet 49 32 15 0;#P outlet 97 354 15 0;#P connect 1 0 12 0;#P fasten 12 1 2 0 91 72 72 72;#P fasten 2 1 4 0 113 95 72 95;#P connect 4 0 8 0;#P connect 4 1 8 0;#P connect 7 0 13 0;#P connect 13 0 14 0;#P connect 14 0 21 0;#P connect 15 0 17 0;#P connect 21 0 17 0;#P connect 17 0 20 0;#P connect 20 0 19 0;#P connect 19 0 18 0;#P connect 18 0 0 0;#P connect 12 2 3 0;#P connect 4 2 9 0;#P connect 9 0 7 0;#P connect 8 0 7 0;#P fasten 10 0 7 1 182 165 151 165;#P fasten 11 0 7 1 231 165 151 165;#P fasten 12 0 14 1 54 188 159 188;#P lcolor 6;#P connect 14 1 15 0;#P connect 3 1 6 0;#P connect 6 0 5 0;#P connect 16 0 18 1;#P connect 21 1 18 1;#P connect 5 1 10 0;#P connect 5 0 10 0;#P connect 15 1 16 0;#P connect 5 2 11 0;#P pop;#P newobj 486 343 33 196617 p sub;#B color 13;#P newex 486 235 139 196617 r $1/out2;#B color 11;#N vpatcher 82 99 412 503;#P window setfont "Sans Serif" 9.;#P newex 97 234 51 196617 zl ecils 1;#P newex 97 292 49 196617 append 3;#P newex 97 312 63 196617 prepend sub;#P newex 97 332 82 196617 zl join;#P newex 97 272 51 196617 tosymbol;#P newex 195 253 51 196617 zl slice 1;#P newex 154 233 51 196617 zl ecils 2;#P newex 97 212 67 196617 gate 2;#P newex 97 191 27 196617 + 1;#P newex 49 52 84 196617 t l l l;#P newex 226 145 21 196617 t 0;#P newex 177 145 21 196617 t 1;#P newex 129 121 21 196617 t 0;#P newex 80 121 21 196617 t 1;#P newex 129 168 27 196617 &&;#P newex 164 98 51 196617 zl slice 1;#P newex 164 121 73 196617 route int float;#P newex 67 98 73 196617 route int float;#P newex 123 75 51 196617 zl ecils 2;#P newex 67 75 51 196617 zl ecils 1;#P inlet 49 32 15 0;#P outlet 97 354 15 0;#P connect 1 0 12 0;#P fasten 12 1 2 0 91 72 72 72;#P fasten 2 1 4 0 113 95 72 95;#P connect 4 0 8 0;#P connect 4 1 8 0;#P connect 7 0 13 0;#P connect 13 0 14 0;#P connect 14 0 21 0;#P connect 15 0 17 0;#P connect 21 0 17 0;#P connect 17 0 20 0;#P connect 20 0 19 0;#P connect 19 0 18 0;#P connect 18 0 0 0;#P connect 12 2 3 0;#P connect 4 2 9 0;#P connect 9 0 7 0;#P connect 8 0 7 0;#P fasten 10 0 7 1 182 165 151 165;#P fasten 11 0 7 1 231 165 151 165;#P fasten 12 0 14 1 54 188 159 188;#P lcolor 6;#P connect 14 1 15 0;#P connect 3 1 6 0;#P connect 6 0 5 0;#P connect 16 0 18 1;#P connect 21 1 18 1;#P connect 5 1 10 0;#P connect 5 0 10 0;#P connect 15 1 16 0;#P connect 5 2 11 0;#P pop;#P newobj 393 343 33 196617 p sub;#B color 13;#P newex 393 257 139 196617 r $1/out1;#B color 11;#N vpatcher 82 99 412 503;#P window setfont "Sans Serif" 9.;#P newex 97 234 51 196617 zl ecils 1;#P newex 97 292 49 196617 append 2;#P newex 97 312 63 196617 prepend sub;#P newex 97 332 82 196617 zl join;#P newex 97 272 51 196617 tosymbol;#P newex 195 253 51 196617 zl slice 1;#P newex 154 233 51 196617 zl ecils 2;#P newex 97 212 67 196617 gate 2;#P newex 97 191 27 196617 + 1;#P newex 49 52 84 196617 t l l l;#P newex 226 145 21 196617 t 0;#P newex 177 145 21 196617 t 1;#P newex 129 121 21 196617 t 0;#P newex 80 121 21 196617 t 1;#P newex 129 168 27 196617 &&;#P newex 164 98 51 196617 zl slice 1;#P newex 164 121 73 196617 route int float;#P newex 67 98 73 196617 route int float;#P newex 123 75 51 196617 zl ecils 2;#P newex 67 75 51 196617 zl ecils 1;#P inlet 49 32 15 0;#P outlet 97 354 15 0;#P connect 1 0 12 0;#P fasten 12 1 2 0 91 72 72 72;#P fasten 2 1 4 0 113 95 72 95;#P connect 4 0 8 0;#P connect 4 1 8 0;#P connect 7 0 13 0;#P connect 13 0 14 0;#P connect 14 0 21 0;#P connect 15 0 17 0;#P connect 21 0 17 0;#P connect 17 0 20 0;#P connect 20 0 19 0;#P connect 19 0 18 0;#P connect 18 0 0 0;#P connect 12 2 3 0;#P connect 4 2 9 0;#P connect 9 0 7 0;#P connect 8 0 7 0;#P fasten 10 0 7 1 182 165 151 165;#P fasten 11 0 7 1 231 165 151 165;#P fasten 12 0 14 1 54 188 159 188;#P lcolor 6;#P connect 14 1 15 0;#P connect 3 1 6 0;#P connect 6 0 5 0;#P connect 16 0 18 1;#P connect 21 1 18 1;#P connect 5 1 10 0;#P connect 5 0 10 0;#P connect 15 1 16 0;#P connect 5 2 11 0;#P pop;#P newobj 300 343 33 196617 p sub;#B color 13;#P newex 300 235 133 196617 r $1/in2;#B color 11;#N vpatcher 82 99 412 503;#P window setfont "Sans Serif" 9.;#P newex 97 234 51 196617 zl ecils 1;#P newex 97 292 49 196617 append 1;#P newex 97 312 63 196617 prepend sub;#P newex 97 332 82 196617 zl join;#P newex 97 272 51 196617 tosymbol;#P newex 195 253 51 196617 zl slice 1;#P newex 154 233 51 196617 zl ecils 2;#P newex 97 212 67 196617 gate 2;#P newex 97 191 27 196617 + 1;#P newex 49 52 84 196617 t l l l;#P newex 226 145 21 196617 t 0;#P newex 177 145 21 196617 t 1;#P newex 129 121 21 196617 t 0;#P newex 80 121 21 196617 t 1;#P newex 129 168 27 196617 &&;#P newex 164 98 51 196617 zl slice 1;#P newex 164 121 73 196617 route int float;#P newex 67 98 73 196617 route int float;#P newex 123 75 51 196617 zl ecils 2;#P newex 67 75 51 196617 zl ecils 1;#P inlet 49 32 15 0;#P outlet 97 354 15 0;#P connect 1 0 12 0;#P fasten 12 1 2 0 91 72 72 72;#P fasten 2 1 4 0 113 95 72 95;#P connect 4 1 8 0;#P connect 4 0 8 0;#P connect 7 0 13 0;#P connect 13 0 14 0;#P connect 14 0 21 0;#P connect 21 0 17 0;#P connect 15 0 17 0;#P connect 17 0 20 0;#P connect 20 0 19 0;#P connect 19 0 18 0;#P connect 18 0 0 0;#P connect 12 2 3 0;#P connect 4 2 9 0;#P connect 8 0 7 0;#P connect 9 0 7 0;#P fasten 11 0 7 1 231 165 151 165;#P fasten 10 0 7 1 182 165 151 165;#P fasten 12 0 14 1 54 188 159 188;#P lcolor 6;#P connect 14 1 15 0;#P connect 3 1 6 0;#P connect 6 0 5 0;#P connect 21 1 18 1;#P connect 16 0 18 1;#P connect 5 0 10 0;#P connect 5 1 10 0;#P connect 15 1 16 0;#P connect 5 2 11 0;#P pop;#P newobj 207 343 33 196617 p sub;#B color 13;#P newex 207 257 133 196617 r $1/map/in1;#B color 11;#P newex 428 133 72 196617 prepend store;#P newex 428 84 173 196617 r $1;#B color 11;#P newex 82 500 44 196617 zl rot 1;#P newex 82 478 86 196617 zl join;#P newex 82 437 38 196617 zl join;#N coll $1/data 1;#P newobj 82 394 219 196617 coll $1/data 1;#B color 5;#P newex 82 340 56 196617 t dump f 2;#P inlet 46 93 15 0;#P window linecount 3;#P comment 374 453 295 196617 arg 1 : variable prefix (variable name of output to max) \; arg 2 : environnement or plugin name to use for central mapper (i.e. /tape \, /movie \, /tapemovie);#N picture;#K replace 61;#K set 0 15859976 57082139 59244561 50269184 -131072 4718592 4718592 17302375 18547592 0 1966107 -572662307 -572719103 655624 57082139 59244594 17564520 18285447 2228491 57090048 2228503 57090048 1743257 1718000025 2228490 57090048 2228504 57090048 1703936 0 65546 17564520 18285447 3277066 57147670 59179052 589827 105342318 1702256896 196611 851977 3014660 0 2621716 57279856 544437602 3277078 57147671 59179035 -1 -65535 655624 57082139 59244578 18350951 150994978 17433447 150994992 17367911 18482056 16711680;#P vpicture 57 116 92 137;#P connect 60 1 93 0;#P connect 93 0 63 0;#P connect 63 0 62 0;#P connect 62 0 65 0;#P connect 66 0 67 0;#P connect 67 0 64 0;#P connect 64 0 68 0;#P connect 56 0 32 0;#P connect 32 0 31 0;#P connect 96 0 77 0;#P connect 99 0 77 0;#P connect 77 0 60 0;#P connect 97 0 100 0;#P connect 100 0 101 0;#P connect 101 0 102 0;#P connect 102 0 99 0;#P connect 60 2 61 0;#P connect 3 2 61 0;#P connect 61 0 66 0;#P fasten 65 0 67 1 13 500 39 500;#P connect 2 0 31 1;#P connect 71 0 31 1;#P connect 92 0 31 1;#P lcolor 5;#P connect 50 0 77 1;#P connect 63 1 65 1;#P connect 66 1 64 1;#P fasten 74 0 72 0 152 153 136 153 136 113 61 113;#P fasten 73 1 72 0 209 153 136 153 136 113 61 113;#P connect 72 0 71 0;#P connect 31 0 99 1;#P connect 99 1 96 0;#P connect 98 0 96 0;#P connect 49 0 50 0;#P connect 51 0 77 2;#P connect 97 0 98 0;#P connect 98 1 96 1;#P connect 52 0 77 3;#P connect 77 1 3 0;#P connect 9 0 4 0;#P lcolor 15;#P connect 30 0 4 0;#P connect 28 0 4 0;#P connect 26 0 4 0;#P connect 24 0 4 0;#P connect 22 0 4 0;#P connect 19 0 4 0;#P connect 17 0 4 0;#P connect 15 0 4 0;#P connect 13 0 4 0;#P connect 11 0 4 0;#P connect 60 0 4 0;#P connect 3 0 4 0;#P fasten 46 0 4 0 1231 382 87 382;#P connect 36 0 4 0;#P fasten 76 0 4 0 957 382 87 382;#P fasten 106 0 4 0 1107 382 87 382;#P connect 4 0 5 0;#P connect 5 0 61 1;#P connect 61 1 6 0;#P connect 6 0 7 0;#P connect 7 0 38 0;#P connect 53 0 51 0;#P connect 42 0 5 1;#P connect 70 0 73 0;#P connect 73 0 74 0;#P connect 4 1 42 0;#P fasten 3 1 6 1 110 376 163 376;#P lcolor 6;#P connect 54 0 52 0;#P connect 60 1 69 0;#P fasten 3 1 48 0 110 372 178 372;#P lcolor 6;#P connect 69 0 48 0;#P connect 10 0 11 0;#P connect 95 0 97 0;#P connect 12 0 13 0;#P connect 14 0 15 0;#P connect 8 0 103 0;#P connect 103 0 9 0;#P connect 16 0 17 0;#P connect 18 0 19 0;#P connect 94 0 78 0;#P connect 78 0 79 0;#P connect 79 0 80 0;#P connect 21 0 22 0;#P connect 94 0 55 0;#P connect 55 0 57 0;#P connect 57 0 58 0;#P connect 23 0 24 0;#P connect 25 0 26 0;#P connect 75 0 76 0;#P connect 27 0 28 0;#P connect 29 0 30 0;#P connect 104 0 105 0;#P connect 105 0 107 0;#P connect 107 0 106 0;#P connect 82 0 84 0;#P connect 84 0 85 0;#P connect 85 0 86 0;#P connect 86 0 87 0;#P connect 105 1 106 1;#P connect 84 1 86 1;#P connect 34 0 35 0;#P connect 35 0 37 0;#P connect 37 0 36 0;#P connect 35 1 36 1;#P connect 44 0 45 0;#P connect 45 0 47 0;#P connect 47 0 46 0;#P connect 83 0 88 0;#P connect 88 0 89 0;#P connect 89 0 90 0;#P connect 90 0 91 0;#P connect 45 1 46 1;#P connect 88 1 90 1;#P pop;