max v2;#N vpatcher 346 44 1413 900;#P window setfont Times 9.;#P hidden comment 469 16 16 1310729 in;#B frgb 99 99 99;#P objectname invaldispntext;#P flonum 429 46 38 9 0. 99999. 3 20 0 0 0 221 221 221 222 222 222 0 0 0;#P objectname slidedown;#P window setfont "Sans Serif" 9.;#P newex 689 90 78 196617 pvar slidedown;#P newex 689 69 246 196617 variedit $1/map/slidedown $1;#B color 11;#P newex 609 69 65 196617 pvar slideup;#P newex 609 45 238 196617 variedit $1/map/slideup $1;#B color 11;#P window setfont Times 9.;#P flonum 429 32 38 9 0. 99999. 3 20 0 0 0 221 221 221 222 222 222 0 0 0;#P objectname slideup;#P window setfont "Sans Serif" 9.;#P newex 609 25 73 196617 pvar speedlim;#P window setfont Times 9.;#P number 429 18 38 9 0 99999 3 20 0 0 0 221 221 221 222 222 222 0 0 0;#P objectname speedlim;#P comment 387 18 44 1310729 /speedlim;#B frgb 0 0 200;#P window setfont "Sans Serif" 9.;#P newex 609 4 241 196617 variedit $1/map/speedlim $1;#B color 11;#P window setfont Times 9.;#P comment 491 17 20 1310729 out;#B frgb 99 99 99;#P objectname outvaldisptext;#P comment 473 17 16 1310729 in;#B frgb 99 99 99;#P objectname invaldisptext;#P window setfont "Sans Serif" 9.;#P newex 779 695 30 196617 t b b;#P newex 826 694 30 196617 t b b;#P newex 810 719 27 196617 i;#P button 878 759 15 0;#P newex 810 739 41 196617 sel 0 1;#P newex 869 706 89 196617 pvar dispbutton 2;#P toggle 898 728 15 0;#P user ubutton 468 18 43 42 0 2;#P objectname dispbutton;#P window setfont Times 9.;#P hidden comment 285 17 36 1310729 outtrig;#P objectname outtrigtext;#P hidden button 273 17 13 0;#P noclick;#P objectname outbang;#P window setfont "Sans Serif" 9.;#P newex 870 238 68 196617 pvar outbang;#P button 861 759 15 0;#P window setfont Times 9.;#P hidden comment 469 36 20 1310729 out;#B frgb 99 99 99;#P objectname outvaldispntext;#P window setfont "Sans Serif" 9.;#P newex 945 289 80 196617 pvar outvaldisp;#P newex 945 266 73 196617 prepend range;#P newex 945 247 54 196617 pack 0. 0.;#P newex 858 265 19 196617 t f;#P newex 858 289 85 196617 pvar outvaldispn;#P newex 858 196 62 196617 prepend set;#P newex 858 216 44 196617 receive;#B color 11;#P window setfont Times 9.;#P hidden flonum 467 46 44 9 0 0 8224 20 0 0 0 221 221 221 222 222 222 0 0 0;#P noclick;#P objectname outvaldispn;#P button 826 759 15 0;#P button 810 759 15 0;#P window setfont "Sans Serif" 9.;#N vpatcher 49 340 762 795;#P button 405 34 15 0;#N comlet bang to show all;#P inlet 384 35 15 0;#P button 384 156 15 0;#P window setfont "Sans Serif" 9.;#P newex 384 130 54 196617 onebang 1;#P newex 408 177 31 196617 t b 1;#P button 335 34 15 0;#P button 216 36 15 0;#P button 137 36 15 0;#P button 62 33 15 0;#P newex 372 177 31 196617 t b 2;#P window setfont Times 9.;#P message 558 254 87 1310729 outbang \, outtrigtext;#P window setfont "Sans Serif" 9.;#P newex 530 272 38 196617 gate 2;#P newex 530 315 109 196617 sprintf script hide %s;#P newex 558 294 114 196617 sprintf script show %s;#N comlet bang to show all;#P inlet 314 35 15 0;#P button 314 156 15 0;#P newex 314 130 54 196617 onebang 1;#P button 16 334 15 0;#P message 16 352 142 196617 script sendtoback background;#P newex 195 151 54 196617 onebang 1;#P newex 117 103 54 196617 onebang 1;#P newex 40 63 54 196617 onebang 1;#P newex 195 181 40 196617 t b 1 2;#P window setfont Times 9.;#P message 228 254 227 1310729 invaldispn \, invaldispntext \, outvaldispn \, outvaldispntext;#P window setfont "Sans Serif" 9.;#P newex 200 272 38 196617 gate 2;#P newex 200 315 109 196617 sprintf script hide %s;#P newex 228 294 114 196617 sprintf script show %s;#P newex 61 272 38 196617 gate 2;#P newex 117 183 31 196617 t b 2;#P newex 40 183 31 196617 t b 1;#P newex 61 315 114 196617 sprintf script show %s;#P newex 89 294 109 196617 sprintf script hide %s;#P window setfont Times 9.;#P message 89 224 207 1310729 invaldisp \, outvaldisp \, invaldisptext \, outvaldisptext;#N comlet bang if not trig;#P inlet 40 35 15 0;#N comlet bang if trig;#P inlet 117 35 15 0;#N comlet bang to show all;#P inlet 195 35 15 0;#P outlet 165 414 15 0;#P connect 9 1 19 0;#P connect 9 0 19 0;#P connect 19 0 18 0;#P connect 28 0 15 0;#P connect 3 0 15 0;#P connect 15 0 7 0;#P connect 14 1 9 0;#P connect 7 1 9 0;#P connect 8 1 9 0;#P connect 9 0 6 0;#P connect 16 0 15 1;#P lcolor 15;#P connect 17 0 15 1;#P lcolor 7;#P connect 14 0 4 0;#P connect 8 0 4 0;#P connect 7 0 4 0;#P connect 4 0 9 1;#P connect 9 1 5 0;#P connect 29 0 16 0;#P connect 2 0 16 0;#P connect 16 0 8 0;#P connect 15 0 16 1;#P lcolor 2;#P connect 17 0 16 1;#P lcolor 7;#P connect 23 0 0 0;#P connect 24 0 0 0;#P connect 18 0 0 0;#P connect 5 0 0 0;#P connect 6 0 0 0;#P connect 10 0 0 0;#P connect 11 0 0 0;#P connect 30 0 17 0;#P connect 1 0 17 0;#P connect 17 0 14 0;#P connect 7 1 12 0;#P connect 14 2 12 0;#P connect 8 1 12 0;#P connect 12 0 11 0;#P connect 14 0 13 0;#P connect 8 0 13 0;#P connect 7 0 13 0;#P connect 13 0 12 1;#P connect 12 1 10 0;#P connect 15 0 17 1;#P lcolor 2;#P connect 16 0 17 1;#P lcolor 15;#P connect 22 0 20 0;#P connect 31 0 20 0;#P connect 20 0 21 0;#P connect 33 0 20 1;#P connect 21 0 27 0;#P connect 36 0 33 0;#P connect 35 0 33 0;#P connect 33 0 34 0;#P connect 34 0 32 0;#P connect 20 0 33 1;#P connect 32 1 25 0;#P connect 14 1 25 0;#P connect 27 1 25 0;#P connect 25 0 24 0;#P connect 14 0 26 0;#P connect 32 0 26 0;#P connect 27 0 26 0;#P connect 26 0 25 1;#P connect 25 1 23 0;#P pop;#P newobj 810 778 79 196617 p hide/show;#B color 6;#N thispatcher;#Q end;#P newobj 810 797 61 196617 thispatcher;#P newex 661 251 79 196617 pvar invaldispn;#P user multiSlider 493 27 13 33 0. 1. 1 2681 15 0 0 1 0 0 0;#M frgb 0 0 0;#M brgb 255 255 255;#M rgb2 127 127 127;#M rgb3 0 0 0;#M rgb4 37 52 91;#M rgb5 74 105 182;#M rgb6 112 158 18;#M rgb7 149 211 110;#M rgb8 187 9 201;#M rgb9 224 62 37;#M rgb10 7 114 128;#P noclick;#P objectname outvaldisp;#P newex 644 278 74 196617 pvar invaldisp;#P newex 777 260 73 196617 prepend range;#P newex 777 240 54 196617 pack 0. 0.;#P window setfont Times 9.;#P hidden flonum 467 26 44 9 0 0 8224 20 0 0 0 221 221 221 222 222 222 0 0 0;#P noclick;#P objectname invaldispn;#P user multiSlider 474 27 13 33 0. 127. 1 2681 15 0 0 1 0 0 0;#M frgb 0 0 0;#M brgb 255 255 255;#M rgb2 127 127 127;#M rgb3 0 0 0;#M rgb4 37 52 91;#M rgb5 74 105 182;#M rgb6 112 158 18;#M rgb7 149 211 110;#M rgb8 187 9 201;#M rgb9 224 62 37;#M rgb10 7 114 128;#P noclick;#P objectname invaldisp;#P window setfont "Sans Serif" 9.;#P newex 644 228 130 196617 r $1/map/inval;#B color 11;#P newex 82 538 30 196617 t s s;#P newex 52 450 40 196617 t s s 1;#P newex 82 518 29 196617 gate;#P newex 112 517 31 196617 t 0 s;#P newex 112 497 69 196617 route symbol;#N coll $1/map/data 1;#P newobj 67 474 147 196617 coll $1/map/data 1;#B color 5;#P message 119 389 33 196617 clear;#P window setfont Times 9.;#P hidden comment 244 48 77 1310729 (use 'b' for 'bang');#B frgb 200 0 0;#P objectname bforbangtext;#P window setfont "Sans Serif" 9.;#N thispatcher;#Q end;#P newobj 0 69 61 196617 thispatcher;#P button 560 741 15 0;#P newex 560 760 147 196617 s $1/map/newcopy;#B color 11;#P window linecount 2;#P newex 19 638 81 196617 r $1/map/newcopy;#B color 11;#P window linecount 1;#P newex 560 721 73 196617 pvar newcopy;#P button 417 741 15 0;#P newex 417 760 126 196617 s $1/map/new;#B color 11;#P window linecount 2;#P newex 120 663 69 196617 r $1/map/new;#B color 11;#P window linecount 1;#P newex 148 262 123 196617 s $1/map/init;#B color 11;#P button 148 242 15 0;#P newex 148 188 29 196617 gate;#P newex 240 192 21 196617 t 0;#P newex 167 168 20 196617 t b;#P newex 173 800 29 196617 gate;#P message 19 672 30 196617 none;#P newex 19 692 53 196617 t s b s 0;#P window setfont Times 9.;#P comment 64 2 47 1310729 /newcopy;#B frgb 0 0 200;#P button 106 2 14 7;#P objectname newcopy;#P window setfont "Sans Serif" 9.;#P message 521 408 72 196617 trig 0 0 0 0 0;#P newex 614 588 66 196617 t b s s b 0;#P newex 163 778 51 196617 zl slice 1;#P window setfont Times 9.;#P comment 20 2 26 1310729 /new;#B frgb 0 0 200;#P button 44 2 14 6;#P objectname new;#P window setfont "Sans Serif" 9.;#P newex 417 721 52 196617 pvar new;#P newex 875 610 29 196617 t 2 i;#P newex 849 610 21 196617 t 1;#P newex 849 588 36 196617 sel 0;#P newex 120 729 59 196617 t l b l;#P newex 120 750 51 196617 zl slice 1;#P window linecount 2;#P message 120 697 86 196617 none 0 127 0 1 norm 0. 0 0 0. 0.;#P window linecount 1;#P message 992 596 14 196617 b;#P newex 219 677 47 196617 gate 2 1;#P newex 934 650 31 196617 t 2 s;#P newex 918 621 57 196617 route bang;#P newex 256 699 56 196617 zl join;#P newex 918 596 51 196617 tosymbol;#P newex 155 324 138 196617 t s s s;#P newex 247 755 82 196617 prepend subsym;#P newex 247 734 46 196617 pack s s;#P window linecount 4;#P newex 153 604 37 196617 s $1/map/fillmenu;#B color 11;#P window linecount 1;#P newex 219 554 62 196617 prepend set;#P newex 68 604 80 196617 prepend symbol;#P newex 133 579 53 196617 t s b s 0;#P newex 155 429 56 196617 route text;#P button 234 600 15 0;#P newex 155 450 51 196617 tosymbol;#P newex 155 366 20 196617 t s;#P newex 234 619 31 196617 t b 1;#N vpatcher 10 59 418 520;#P button 26 358 15 0;#P window setfont "Sans Serif" 9.;#P window linecount 1;#P message 26 376 142 196617 script sendtoback background;#P newex 195 151 54 196617 onebang 1;#P newex 117 103 54 196617 onebang 1;#P newex 40 63 54 196617 onebang 1;#P newex 195 181 40 196617 t b 1 2;#P window setfont Times 9.;#P message 228 254 151 1310729 trigmess \, trigmesstext \, bforbangtext;#P window setfont "Sans Serif" 9.;#P newex 200 272 38 196617 gate 2;#P newex 200 315 109 196617 sprintf script hide %s;#P newex 228 294 114 196617 sprintf script show %s;#P newex 61 272 38 196617 gate 2;#P newex 117 183 31 196617 t b 2;#P newex 40 183 31 196617 t b 1;#P newex 61 315 114 196617 sprintf script show %s;#P newex 89 294 109 196617 sprintf script hide %s;#P window setfont Times 9.;#P window linecount 2;#P message 89 211 291 1310729 out1 \, out1text \, out2 \, out2text \, curve \, curvdisp \, curvetext \, fliph \, fliphtext \, flipv \, flipvtext \, offseth \, offsethtext \, offsetv \, offsetvtext \, ramp \, ramptext;#N comlet bang if not trig;#P inlet 40 35 15 0;#N comlet bang if trig;#P inlet 117 35 15 0;#N comlet bang to show all;#P inlet 195 33 15 0;#P outlet 165 414 15 0;#P connect 10 0 19 0;#P connect 5 0 19 0;#P connect 11 0 19 0;#P connect 6 0 19 0;#P connect 19 0 18 0;#P connect 3 0 15 0;#P connect 15 0 7 0;#P connect 7 1 9 0;#P connect 14 1 9 0;#P connect 8 1 9 0;#P connect 9 0 6 0;#P connect 16 0 15 1;#P lcolor 15;#P connect 17 0 15 1;#P lcolor 7;#P connect 14 0 4 0;#P connect 7 0 4 0;#P connect 8 0 4 0;#P connect 4 0 9 1;#P connect 9 1 5 0;#P connect 2 0 16 0;#P connect 16 0 8 0;#P connect 15 0 16 1;#P lcolor 2;#P connect 17 0 16 1;#P lcolor 7;#P connect 11 0 0 0;#P connect 10 0 0 0;#P connect 6 0 0 0;#P connect 5 0 0 0;#P connect 18 0 0 0;#P connect 1 0 17 0;#P connect 17 0 14 0;#P connect 8 1 12 0;#P connect 7 1 12 0;#P connect 14 2 12 0;#P connect 12 0 11 0;#P connect 14 0 13 0;#P connect 8 0 13 0;#P connect 7 0 13 0;#P connect 13 0 12 1;#P connect 12 1 10 0;#P connect 16 0 17 1;#P lcolor 15;#P connect 15 0 17 1;#P lcolor 2;#P pop;#P newobj 291 492 79 196617 p hide/show;#B color 6;#P newex 885 482 20 196617 t b;#P newex 918 479 20 196617 t b;#P newex 885 503 31 196617 t set;#P newex 918 503 36 196617 zl reg;#P newex 918 533 62 196617 prepend set;#P message 944 340 14 196617 b;#P newex 918 574 56 196617 route text;#P newex 918 553 74 196617 pvar trigmess;#P newex 604 318 350 196617 t l 0 b;#P newex 849 546 57 196617 pvar ramp;#P message 849 527 39 196617 set \$1;#P newex 849 498 18 196617 t i;#P newex 849 441 92 196617 route int float;#P window setfont Times 9.;#P comment 354 19 29 1310729 ramp;#P objectname ramptext;#P number 354 31 38 9 0 0 1 20 0 0 0 221 221 221 222 222 222 0 0 0;#P objectname ramp;#P button 359 474 15 0;#P window setfont "Sans Serif" 9.;#P newex 370 422 54 196617 route trig;#P newex 370 352 27 196617 t b l;#P newex 370 401 36 196617 zl reg;#P newex 370 446 40 196617 t b b b;#P newex 765 402 73 196617 pvar curvdisp;#P comment 774 389 115 196617 lcd \, dimmenions 27X27;#B frgb 255 0 0;#P newex 765 373 87 196617 multicurvdisp 27;#B color 5;#P newex 561 544 63 196617 pvar type 2;#P newex 561 525 62 196617 prepend set;#P newex 749 544 67 196617 pvar offsetv;#P message 749 525 39 196617 set \$1;#P newex 720 504 66 196617 pvar offseth;#P newex 691 544 55 196617 pvar flipv;#P newex 662 504 54 196617 pvar fliph;#P newex 633 544 60 196617 pvar curve;#P message 720 485 39 196617 set \$1;#P message 691 525 39 196617 set \$1;#P message 662 485 39 196617 set \$1;#P message 633 525 39 196617 set \$1;#P newex 604 374 155 196617 unpack s 0. 0 0 0. 0.;#P newex 504 506 54 196617 pvar out2;#P newex 478 546 54 196617 pvar out1;#P newex 452 506 48 196617 pvar in2;#P newex 426 546 48 196617 pvar in1;#P message 504 487 39 196617 set \$1;#P message 478 527 39 196617 set \$1;#P message 452 487 39 196617 set \$1;#P message 426 527 39 196617 set \$1;#P newex 426 370 88 196617 unpack 0. 0. 0. 0.;#P newex 389 255 51 196617 zl ecils 1;#P newex 389 235 49 196617 zl rot -1;#P newex 219 643 525 196617 pack s 0. 0. 0. 0. s 0. 0 0 0. 0.;#P window linecount 3;#P comment 460 118 399 196617 "[destination et agruments]" \, [in1] [in2] [out1] [out2] [type (norm \, sym \, updwn trig)] [curve (-1. to 1.)] [fliph (0-1)] [flipv (0-1)] [offseth (-1. to 1.)] [offsetv (-1. to 1.)] "[trig message]";#P window linecount 1;#P newex 155 409 63 196617 pvar sendto;#P newex 155 388 62 196617 prepend set;#P newex 155 345 64 196617 fromsymbol;#P newex 415 306 69 196617 route symbol;#P message 389 216 158 196617 none 0 127 0 1 norm 0. 0 0 0. 0.;#N vpatcher 54 227 331 453;#P outlet 9 182 15 0;#P window setfont "Sans Serif" 9.;#P window linecount 1;#P newex 139 74 20 196617 t b;#N comlet just delete;#P inlet 139 52 15 0;#P window linecount 0;#P newex 43 181 144 196617 s $1/map/fillmenu;#B color 11;#P newex 43 85 30 196617 t b b;#P newex 63 134 75 196617 prepend delete;#N coll $1/map/data 1;#P newobj 63 156 147 196617 coll $1/map/data 1;#B color 5;#P newex 63 111 36 196617 zl reg;#P inlet 24 34 15 0;#N comlet delete + fill menu;#P inlet 43 64 15 0;#P connect 5 0 9 0;#P connect 0 0 5 0;#P connect 5 0 6 0;#P connect 5 1 2 0;#P connect 8 0 2 0;#P connect 2 0 4 0;#P connect 4 0 3 0;#P fasten 1 0 2 1 29 56 94 56;#P connect 7 0 8 0;#P pop;#P newobj 522 286 85 196617 p delete_current;#B color 6;#P button 559 266 15 0;#N coll $1/map/data 1;#P newobj 219 800 147 196617 coll $1/map/data 1;#B color 5;#P newex 219 778 72 196617 prepend store;#P newex 559 246 76 196617 pvar deleteone;#P window setfont Times 9.;#P comment 125 2 49 1310729 /deleteone;#B frgb 0 0 200;#P button 169 2 14 4;#P objectname deleteone;#P window setfont "Sans Serif" 9.;#P newex 79 115 32 196617 del 1;#P newex 79 95 20 196617 t b;#P newex 79 74 102 196617 r $1/map;#B color 11;#P newex 79 168 20 196617 t b;#P window linecount 0;#P comment 0 821 100 196617;#P window setfont Times 9.;#P window linecount 1;#P comment 21 32 35 1310729 sendto;#P user textedit 21 42 183 60 32896 20 9 none;#P objectname sendto;#P window setfont "Sans Serif" 9.;#P newex 118 139 124 196617 t dump clear 1;#P message 79 188 60 196617 start \, next;#N coll $1/map/data 1;#P newobj 79 210 147 196617 coll $1/map/data 1;#B color 5;#P window setfont Times 9.;#P hidden comment 206 48 43 1310729 trigmess;#P objectname trigmesstext;#P button 325 474 15 0;#P button 291 474 15 0;#P window setfont "Sans Serif" 9.;#N thispatcher;#Q end;#P newobj 291 513 61 196617 thispatcher;#P newex 321 140 78 196617 t clear b;#P newex 321 119 123 196617 r $1/map/init;#B color 11;#P button 118 119 15 0;#P newex 118 95 144 196617 r $1/map/fillmenu;#B color 11;#P newex 263 240 97 196617 pvar destinations 2;#P window setfont Times 9.;#P flonum 206 45 42 9 0 0 0 20 0 0 0 221 221 221 222 222 222 0 0 0;#P objectname out2;#P comment 189 16 21 1310729 in2;#P flonum 206 16 42 9 0 0 0 20 0 0 0 221 221 221 222 222 222 0 0 0;#P objectname in2;#P window setfont "Sans Serif" 9.;#P newex 350 260 26 196617 t s;#P user lcd 320 2 29 29 0 1 0 0 0;#P objectname curvdisp;#P newex 370 329 51 196617 zl slice 4;#P window setfont Times 9.;#P comment 185 45 25 1310729 out2;#P objectname out2text;#P comment 185 31 25 1310729 out1;#P objectname out1text;#P comment 189 2 21 1310729 in1;#P flonum 206 31 42 9 0 0 0 20 0 0 0 221 221 221 222 222 222 0 0 0;#P objectname out1;#P flonum 206 2 42 9 0 0 0 20 0 0 0 221 221 221 222 222 222 0 0 0;#P objectname in1;#P comment 287 45 37 1310729 offsetv;#P objectname offsetvtext;#P comment 287 31 37 1310729 offseth;#P objectname offsethtext;#P comment 248 45 29 1310729 flipv;#P objectname flipvtext;#P comment 248 31 29 1310729 fliph;#P objectname fliphtext;#P toggle 273 45 14 0;#P objectname flipv;#P toggle 273 31 14 0;#P objectname fliph;#P comment 248 17 30 1310729 curve;#P objectname curvetext;#P comment 252 2 25 1310729 type;#P flonum 273 17 32 9 -1. 1. 3 20 0 0 0 221 221 221 222 222 222 0 0 0;#P objectname curve;#P flonum 320 45 32 9 -1. 1. 3 20 0 0 0 221 221 221 222 222 222 0 0 0;#P objectname offsetv;#P flonum 320 31 32 9 -1. 1. 3 20 0 0 0 221 221 221 222 222 222 0 0 0;#P objectname offseth;#P user ubumenu 273 2 42 1310729 0 1 1 0;#X add norm;#X add sym;#X add updwn;#X add trig;#X prefix_set 0 0 <none> 0;#P objectname type;#P window setfont "Sans Serif" 9.;#N coll $1/map/data 1;#P newobj 370 286 147 196617 coll $1/map/data 1;#B color 5;#P newex 263 213 78 196617 prepend append;#P newex 263 192 69 196617 route symbol;#P window setfont Times 9.;#P user ubumenu 21 17 162 1310729 0 1 1 0;#X prefix_set 0 0 <none> 0;#P objectname destinations;#P window setfont "Sans Serif" 9.;#N coll $1/map/data 1;#P newobj 218 172 147 196617 coll $1/map/data 1;#B color 5;#P newex 604 338 51 196617 zl slice 6;#P window setfont Times 9.;#P hidden user textedit 206 31 352 50 32896 20 9;#P objectname trigmess;#P comment 383 46 48 1310729 /slidedown;#B frgb 0 0 200;#P objectname ramptext[2];#P comment 394 33 37 1310729 /slideup;#B frgb 0 0 200;#P objectname ramptext[1];#P bpatcher 0 0 512 62 0 0 bkgnd12.mxt 0 $1/map 0 1;#P objectname background;#P connect 0 0 161 0;#P connect 158 0 147 0;#P connect 147 0 146 0;#P connect 116 0 168 0;#P connect 168 1 164 0;#P connect 119 0 120 0;#P connect 146 0 120 0;#P connect 133 0 120 0;#P connect 49 0 50 0;#P connect 50 0 51 0;#P connect 51 0 48 0;#P fasten 58 0 48 0 527 308 550 308 550 165 84 165;#P connect 48 0 43 0;#P connect 43 0 42 0;#P fasten 120 0 42 0 73 625 36 625 36 206 84 206;#P connect 168 2 167 0;#P connect 166 0 167 0;#P connect 167 0 169 0;#P fasten 168 0 167 1 57 498 106 498;#P connect 164 1 165 0;#P connect 165 0 166 0;#P connect 34 0 35 0;#P connect 51 0 35 0;#P connect 35 0 44 0;#P connect 154 0 132 0;#P connect 132 0 134 0;#P connect 134 0 133 0;#P connect 166 1 119 0;#P connect 169 0 119 0;#P connect 44 2 151 0;#P connect 150 0 151 0;#P connect 151 0 152 0;#P connect 152 0 153 0;#P connect 119 1 122 0;#P connect 146 1 122 0;#P connect 134 1 122 0;#P connect 60 0 125 0;#P connect 67 1 125 0;#P connect 125 0 61 0;#P connect 61 0 115 0;#P connect 115 0 62 0;#P connect 163 0 63 0;#P connect 62 0 63 0;#P connect 63 0 118 0;#P connect 118 0 116 0;#P connect 130 0 141 0;#P connect 127 0 141 0;#P connect 44 0 149 0;#P connect 149 0 151 1;#P connect 119 3 148 0;#P lcolor 1;#P connect 146 3 148 0;#P lcolor 1;#P connect 114 1 148 0;#P lcolor 1;#P connect 141 0 148 1;#P connect 44 0 5 0;#P connect 125 1 121 0;#P connect 119 2 65 0;#P lcolor 1;#P connect 146 2 65 0;#P connect 114 0 65 0;#P connect 121 0 65 0;#P fasten 129 0 130 0 939 673 224 673;#P lcolor 5;#P fasten 137 0 130 0 880 673 224 673;#P lcolor 5;#P fasten 136 0 130 0 854 673 224 673;#P lcolor 5;#P connect 134 2 55 0;#P fasten 127 0 55 0 261 724 224 724;#P connect 130 0 55 0;#P connect 124 0 56 0;#P connect 55 0 56 0;#P connect 105 0 117 0;#P connect 103 0 117 0;#P connect 87 0 117 0;#P connect 85 0 117 0;#P connect 84 0 117 0;#P connect 83 0 117 0;#P connect 82 0 117 0;#P connect 76 0 117 0;#P connect 75 0 117 0;#P connect 74 0 117 0;#P connect 73 0 117 0;#P connect 142 0 117 0;#P connect 117 0 114 0;#P connect 5 1 150 0;#P connect 169 1 123 0;#P connect 123 0 124 0;#P connect 65 0 130 1;#P connect 130 1 127 0;#P connect 5 1 7 0;#P connect 7 0 8 0;#P connect 44 1 33 0;#P connect 37 0 33 0;#P connect 8 0 33 0;#P fasten 42 1 33 0 129 235 268 235;#P connect 68 0 65 1;#P lcolor 1;#P connect 73 0 65 1;#P connect 125 2 123 1;#P connect 96 1 39 0;#P connect 39 0 113 0;#P connect 113 0 38 0;#P fasten 129 1 127 1 960 691 307 691;#P fasten 137 1 127 1 899 683 307 683;#P connect 36 0 37 0;#P connect 68 1 65 2;#P lcolor 1;#P connect 74 0 65 2;#P connect 93 0 40 0;#P connect 40 0 113 1;#P connect 33 1 29 0;#P connect 148 0 29 0;#P lcolor 15;#P connect 97 0 113 2;#P connect 29 0 9 0;#P connect 67 0 27 0;#P connect 9 0 27 0;#P connect 27 0 95 0;#P connect 95 0 94 0;#P connect 142 2 96 0;#P lcolor 6;#P connect 94 0 96 0;#P connect 96 0 93 0;#P connect 68 2 65 3;#P lcolor 1;#P connect 75 0 65 3;#P connect 37 1 59 0;#P connect 59 0 66 0;#P connect 66 0 67 0;#P connect 77 0 94 1;#P connect 9 1 60 0;#P connect 138 0 156 0;#P connect 156 0 155 0;#P connect 68 3 65 4;#P lcolor 1;#P connect 76 0 65 4;#P connect 95 1 68 0;#P connect 68 0 69 0;#P connect 69 0 73 0;#P connect 68 1 70 0;#P connect 70 0 74 0;#P connect 77 0 65 5;#P lcolor 1;#P connect 142 1 65 5;#P connect 68 2 71 0;#P connect 71 0 75 0;#P connect 68 3 72 0;#P connect 72 0 76 0;#P connect 93 2 143 0;#P connect 29 0 58 0;#P connect 77 1 65 6;#P lcolor 1;#P connect 82 0 65 6;#P connect 54 0 57 0;#P connect 57 0 58 1;#P connect 157 0 160 0;#P connect 160 0 159 0;#P connect 77 0 88 0;#P connect 88 0 89 0;#P connect 77 2 65 7;#P lcolor 1;#P connect 83 0 65 7;#P connect 27 1 104 0;#P connect 104 0 4 0;#P connect 4 0 77 0;#P connect 143 0 77 0;#P fasten 208 0 205 0 614 44 607 44 607 2 614 2;#P connect 205 0 208 0;#P fasten 211 0 210 0 614 88 607 88 607 46 614 46;#P connect 210 0 211 0;#P connect 89 1 142 0;#P connect 77 3 65 8;#P lcolor 1;#P connect 84 0 65 8;#P connect 77 1 78 0;#P connect 78 0 82 0;#P connect 174 0 175 0;#P connect 170 0 175 0;#P connect 170 0 177 0;#P connect 77 2 79 0;#P connect 79 0 83 0;#P connect 77 4 65 9;#P lcolor 1;#P connect 85 0 65 9;#P fasten 213 0 212 0 694 109 687 109 687 67 694 67;#P connect 212 0 213 0;#P connect 77 3 80 0;#P connect 80 0 84 0;#P connect 77 4 81 0;#P connect 81 0 85 0;#P connect 77 5 65 10;#P lcolor 1;#P connect 87 0 65 10;#P connect 77 5 86 0;#P connect 86 0 87 0;#P fasten 4 0 90 0 609 365 770 365;#P connect 90 0 92 0;#P connect 68 0 173 0;#P connect 173 0 174 0;#P connect 93 2 202 0;#P connect 196 0 200 0;#P connect 201 0 200 0;#P connect 202 0 200 0;#P connect 200 0 198 0;#P connect 198 0 180 0;#P connect 180 0 179 0;#P connect 179 0 178 0;#P connect 68 1 173 1;#P connect 96 1 201 0;#P connect 198 1 181 0;#P connect 181 0 179 1;#P fasten 4 1 100 0 650 359 854 359;#P connect 142 4 101 0;#P connect 100 0 101 0;#P connect 100 1 101 0;#P connect 104 1 101 0;#P connect 101 0 102 0;#P connect 102 0 103 0;#P fasten 101 0 135 0 854 520 841 520 841 582 854 582;#P lcolor 13;#P connect 103 0 135 0;#P connect 135 0 136 0;#P connect 125 2 184 0;#P connect 184 0 183 0;#P connect 183 0 186 0;#P connect 186 0 185 0;#P connect 202 1 191 0;#P connect 191 0 179 3;#P connect 183 0 192 0;#P connect 135 1 137 0;#P connect 201 1 199 0;#P connect 199 0 179 4;#P connect 96 1 112 0;#P connect 112 0 110 0;#P connect 197 1 196 0;#P connect 93 1 111 0;#P lcolor 15;#P connect 111 0 109 0;#P connect 109 0 108 0;#P connect 131 0 108 0;#P connect 108 0 105 0;#P connect 110 0 105 0;#P connect 105 0 106 0;#P connect 106 0 126 0;#P connect 131 0 126 0;#P connect 126 0 128 0;#P fasten 109 0 128 0 923 526 941 526 941 617 923 617;#P lcolor 13;#P connect 128 1 129 0;#P connect 142 3 107 0;#P lcolor 6;#P connect 104 2 107 0;#P connect 107 0 109 1;#P connect 100 2 109 1;#P connect 68 2 187 0;#P connect 187 0 188 0;#P connect 188 0 189 0;#P fasten 186 0 189 0 863 286 950 286;#P connect 68 3 187 1;#P connect 128 0 131 0;#P pop;