max v2;#N vpatcher 453 116 1171 725;#P origin 0 -61;#P window setfont "Sans Serif" 9.;#P newex 384 479 73 196617 route int float;#P newex 446 511 64 196617 fromsymbol;#P newex 137 381 34 196617 t l -1;#P message 527 503 129 196617 $1<none>;#P newex 527 481 67 196617 route <none>;#P newex 12 283 51 196617 tosymbol;#P newex 12 305 68 196617 prepend send;#P newex 12 261 81 196617 sprintf %s-disp;#P newex 260 396 35 196617 t f -2;#P newex 223 397 27 196617 + 1;#P newex 175 413 27 196617 t l b;#P newex 206 435 27 196617 i;#P newex 223 368 18 196617 t i;#P newex 223 416 31 196617 * -1;#P newex 175 392 46 196617 zl group;#P newex 175 368 38 196617 gate 2;#P newex 40 414 27 196617 t l b;#P newex 71 436 27 196617 i;#P newex 88 393 18 196617 t i;#P newex 88 415 31 196617 * -1;#P newex 40 393 46 196617 zl group;#P newex 70 370 63 196617 gate 2;#P newex 151 178 58 196617 t l 2;#P newex 54 122 47 196617 zl iter 1;#P newex 109 122 51 196617 zl ecils 1;#P window linecount 2;#P comment 228 27 256 196617 like regular mapper input but [val] is a list \, starting with an int declaring the number of elements in the list;#P window linecount 1;#P newex 36 77 51 196617 zl slice 1;#P newex 77 100 42 196617 zl slice;#P newex 126 77 51 196617 zl slice 1;#P newex 36 55 211 196617 t l l 1;#P newex 36 33 190 196617 r $1/listmapper;#B color 11;#P newex 651 261 27 196617 > 1;#P newex 651 240 34 196617 zl len;#P newex 12 355 47 196617 forward;#B color 11;#P newex 123 402 35 196617 t f -1;#P newex 165 341 144 196617 t 2 i;#P newex 226 487 83 196617 zl join;#P newex 123 341 38 196617 gate 2;#P message 272 294 14 196617 b;#P newex 330 440 86 196617 substitute b bang;#P newex 358 418 86 196617 substitute b bang;#P newex 358 397 49 196617 zl rot -1;#P newex 358 376 38 196617 zl join;#P newex 219 319 63 196617 zl reg;#P newex 151 517 49 196617 zl rot -1;#P newex 151 496 38 196617 zl join;#P newex 527 241 118 196617 t l 1;#P newex 123 474 38 196617 gate 2;#P newex 527 265 51 196617 zl slice 1;#P newex 568 289 29 196617 t l 2;#P window linecount 3;#P comment 345 154 351 196617 [val] [in1] [in2] [out1] [out2] [type (norm \, sym \, updwn trig)] [curve (-1. to 1.)] [fliph (0-1)] [flipv (0-1)] [offseth (-1. to 1.)] [offsetv (-1. to 1.)] [clipmode (clip \, reject \, etc)] "[trig message]" "[destination et agruments]";#P window linecount 1;#P newex 527 219 64 196617 fromsymbol;#P newex 272 246 46 196617 t b 1;#P newex 192 249 57 196617 zl slice 11;#P newex 151 278 79 196617 scalemulticurv;#B color 5;#P newex 527 524 68 196617 prepend send;#P newex 123 555 47 196617 forward;#B color 11;#P newex 151 228 51 196617 zl slice 1;#P newex 151 201 131 196617 zl ecils 1;#P newex 151 157 190 196617 r $1/mapper;#B color 11;#P newex 330 355 38 196617 gate 2;#P connect 2 1 53 0;#P connect 36 1 53 0;#P connect 53 0 55 0;#P connect 55 0 54 0;#P connect 6 0 27 0;#P connect 6 2 27 0;#P connect 54 0 27 0;#P connect 30 0 31 0;#P connect 31 0 34 0;#P connect 39 0 40 0;#P connect 40 0 44 0;#P connect 33 0 37 0;#P connect 38 1 39 0;#P lcolor 7;#P connect 31 2 39 0;#P lcolor 7;#P connect 44 1 43 0;#P connect 42 0 40 1;#P connect 34 1 33 0;#P connect 32 0 42 0;#P connect 42 0 41 0;#P connect 41 0 43 1;#P connect 32 0 33 1;#P connect 33 1 36 0;#P connect 25 0 23 0;#P connect 8 1 23 0;#P connect 23 0 39 1;#P connect 39 1 26 0;#P fasten 14 1 13 0 640 468 128 468;#P lcolor 2;#P fasten 11 1 13 0 592 468 128 468;#P lcolor 2;#P fasten 21 0 4 0 335 541 128 541;#P lcolor 7;#P fasten 20 0 4 0 363 541 128 541;#P lcolor 7;#P fasten 5 0 4 0 532 547 128 547;#P connect 16 0 4 0;#P connect 13 0 4 0;#P fasten 59 0 4 0 451 547 128 547;#P fasten 60 1 4 0 420 547 128 547;#P fasten 60 0 4 0 389 547 128 547;#P connect 31 1 32 0;#P connect 1 0 38 0;#P connect 38 0 2 0;#P connect 2 0 3 0;#P connect 3 0 6 0;#P connect 37 0 6 0;#P lcolor 4;#P connect 6 0 23 1;#P connect 26 0 13 1;#P fasten 44 0 13 1 45 463 156 463;#P connect 24 0 13 1;#P connect 13 1 15 0;#P connect 15 0 16 0;#P connect 7 0 6 1;#P connect 7 1 25 0;#P connect 31 2 45 0;#P lcolor 7;#P connect 38 1 45 0;#P lcolor 7;#P connect 45 0 46 0;#P connect 46 0 50 0;#P fasten 11 0 15 1 573 464 184 464;#P fasten 26 1 16 1 153 457 195 457;#P lcolor 13;#P fasten 43 0 16 1 76 457 195 457;#P lcolor 13;#P connect 49 0 16 1;#P lcolor 13;#P connect 52 1 16 1;#P connect 36 0 7 0;#P lcolor 2;#P connect 3 1 7 0;#P connect 23 1 45 1;#P connect 50 1 49 0;#P connect 48 0 46 1;#P connect 6 2 17 0;#P connect 32 0 48 0;#P connect 48 0 51 0;#P connect 51 0 47 0;#P connect 47 0 49 1;#P connect 52 0 24 0;#P connect 50 0 24 0;#P connect 45 1 52 0;#P connect 2 1 8 0;#P connect 36 1 8 0;#P lcolor 1;#P connect 8 0 22 0;#P connect 7 1 17 1;#P connect 22 0 17 1;#P connect 25 1 24 1;#P fasten 11 1 0 0 592 342 335 342;#P lcolor 7;#P fasten 14 1 0 0 640 348 335 348;#P lcolor 7;#P connect 0 0 21 0;#P connect 17 0 0 1;#P connect 0 1 18 0;#P connect 18 0 19 0;#P connect 19 0 20 0;#P fasten 20 1 60 0 439 473 389 473;#P lcolor 13;#P fasten 21 1 60 0 411 473 389 473;#P lcolor 13;#P connect 11 0 18 1;#P connect 60 2 59 0;#P connect 2 1 9 0;#P connect 36 1 9 0;#P lcolor 1;#P connect 9 0 14 0;#P connect 14 0 12 0;#P connect 12 0 56 0;#P connect 56 0 57 0;#P connect 56 1 5 0;#P connect 57 0 5 0;#P connect 12 1 11 0;#P fasten 9 0 28 0 532 238 656 238;#P connect 28 0 29 0;#P pop;