max v2;#N vpatcher 262 44 1175 435;#P window setfont "Sans Serif" 9.;#P window linecount 1;#P newex 41 187 84 196617 route bang;#P newex 41 166 84 196617 route text;#P window setfont "Sans Serif" 18.;#N vpatcher 126 73 1312 883;#P origin 0 -7;#P window setfont "Sans Serif" 9.;#P window linecount 0;#P newex 8 743 78 196617 prepend <none>;#P newex 8 721 120 196617 append norm 0. 0 0 0. 0.;#P newex 8 700 101 196617 pack 0. 1. 0. 1.;#P window linecount 2;#P newex 8 643 48 196617 r $1/new;#B color 11;#P window linecount 1;#N vpatcher 10 59 344 460;#P window setfont "Sans Serif" 9.;#P window linecount 1;#P newex 40 217 30 196617 t s b;#P newex 189 232 40 196617 itoa;#P newex 163 274 122 196617 sprintf refer %scontrols;#P newex 163 253 36 196617 zl reg;#P newex 189 211 42 196617 zl slice;#P newex 221 190 51 196617 zl slice 1;#P newex 221 169 46 196617 zl group;#P newex 189 102 58 196617 t l b l;#P newex 237 144 43 196617 route 1;#P newex 237 123 51 196617 zl sub 47;#P button 59 35 15 0;#P window linecount 0;#P newex 40 331 75 196617 unpack s 0 0 0;#P newex 156 164 21 196617 t 0;#P newex 105 164 21 196617 t 1;#P newex 40 193 29 196617 gate;#P newex 59 122 40 196617 itoa;#P newex 105 143 61 196617 route /map;#P newex 105 122 40 196617 itoa;#P newex 59 102 56 196617 zl ecils 4;#P newex 59 76 40 196617 atoi;#P message 59 57 139 196617 $1;#N coll ;#P newobj 40 310 53 196617 coll;#B color 5;#P inlet 59 15 15 0;#P outlet 82 353 15 0;#P outlet 103 353 15 0;#P connect 12 0 10 0;#P connect 11 0 10 0;#P connect 10 0 24 0;#P connect 24 0 3 0;#P connect 22 0 3 0;#P connect 3 0 13 0;#P connect 2 0 14 0;#P connect 14 0 4 0;#P connect 4 0 5 0;#P connect 5 0 6 0;#P connect 6 0 9 0;#P connect 9 0 10 1;#P connect 13 2 1 0;#P connect 13 3 0 0;#P connect 6 1 7 0;#P connect 7 0 8 0;#P connect 8 0 11 0;#P connect 8 1 12 0;#P connect 24 1 21 0;#P connect 21 0 22 0;#P connect 5 0 17 0;#P connect 17 0 20 0;#P connect 20 0 23 0;#P connect 23 0 21 1;#P connect 17 1 18 0;#P fasten 16 1 18 0 275 165 226 165;#P connect 18 0 19 0;#P connect 19 0 20 1;#P connect 17 2 15 0;#P connect 15 0 16 0;#P pop;#P newobj 8 677 81 196617 p get_minmaxin;#B color 6;#N vpatcher 10 59 344 460;#P window setfont "Sans Serif" 9.;#P window linecount 1;#P newex 40 217 30 196617 t s b;#P newex 189 232 40 196617 itoa;#P newex 163 274 122 196617 sprintf refer %scontrols;#P newex 163 253 36 196617 zl reg;#P newex 189 211 42 196617 zl slice;#P newex 221 190 51 196617 zl slice 1;#P newex 221 169 46 196617 zl group;#P newex 189 102 58 196617 t l b l;#P newex 237 144 43 196617 route 1;#P newex 237 123 51 196617 zl sub 47;#P button 59 35 15 0;#P window linecount 0;#P newex 40 331 75 196617 unpack s 0 0 0;#P newex 156 164 21 196617 t 0;#P newex 105 164 21 196617 t 1;#P newex 40 193 29 196617 gate;#P newex 59 122 40 196617 itoa;#P newex 105 143 61 196617 route /map;#P newex 105 122 40 196617 itoa;#P newex 59 102 56 196617 zl ecils 4;#P newex 59 76 40 196617 atoi;#P message 59 57 139 196617 $1;#N coll ;#P newobj 40 310 53 196617 coll;#B color 5;#P inlet 59 15 15 0;#P outlet 82 353 15 0;#P outlet 103 353 15 0;#P connect 11 0 10 0;#P connect 12 0 10 0;#P connect 10 0 24 0;#P connect 22 0 3 0;#P connect 24 0 3 0;#P connect 3 0 13 0;#P connect 2 0 14 0;#P connect 14 0 4 0;#P connect 4 0 5 0;#P connect 5 0 6 0;#P connect 6 0 9 0;#P connect 9 0 10 1;#P connect 13 2 1 0;#P connect 13 3 0 0;#P connect 6 1 7 0;#P connect 7 0 8 0;#P connect 8 0 11 0;#P connect 8 1 12 0;#P connect 24 1 21 0;#P connect 21 0 22 0;#P connect 5 0 17 0;#P connect 17 0 20 0;#P connect 20 0 23 0;#P connect 23 0 21 1;#P fasten 16 1 18 0 275 165 226 165;#P connect 17 1 18 0;#P connect 18 0 19 0;#P connect 19 0 20 1;#P connect 17 2 15 0;#P connect 15 0 16 0;#P pop;#P newobj 407 63 81 196617 p get_minmaxin;#B color 6;#P button 381 42 15 0;#P newex 407 133 78 196617 prepend <none>;#P newex 407 111 120 196617 append norm 0. 0 0 0. 0.;#P newex 407 90 101 196617 pack 0. 1. 0. 1.;#P window linecount 0;#P comment 949 158 44 196617 outbang;#N comlet outbang;#P outlet 934 157 15 0;#P comment 387 674 54 196617 slidedown;#N comlet slidedown;#P inlet 372 673 15 0;#P comment 387 713 54 196617 slidedown;#N comlet slidedown;#P outlet 372 712 15 0;#P comment 224 164 64 196617 destinations;#P comment 224 181 73 196617 destinations 2;#N comlet destinations 2;#P inlet 209 180 15 0;#N comlet destinations;#P outlet 209 163 15 0;#P comment 159 319 39 196617 sendto;#P comment 159 336 39 196617 sendto;#N comlet sendto;#P inlet 144 335 15 0;#N comlet sendto;#P outlet 144 318 15 0;#P comment 430 469 22 196617 in1;#P comment 430 485 22 196617 in1;#N comlet in1;#P inlet 415 484 15 0;#N comlet in1;#P outlet 415 468 15 0;#P comment 482 469 30 196617 out1;#P comment 482 485 30 196617 out1;#N comlet out1;#P inlet 467 484 15 0;#N comlet out1;#P outlet 467 468 15 0;#P comment 456 412 22 196617 in2;#P comment 456 428 22 196617 in2;#N comlet in2;#P inlet 441 427 15 0;#N comlet in2;#P outlet 441 411 15 0;#P comment 508 412 31 196617 out2;#P comment 508 428 31 196617 out2;#N comlet out2;#P inlet 493 427 15 0;#N comlet out2;#P outlet 493 411 15 0;#P comment 573 426 30 196617 type;#P comment 573 443 39 196617 type 2;#N comlet type 2;#P inlet 558 442 15 0;#N comlet type;#P outlet 558 425 15 0;#P comment 666 416 31 196617 fliph;#P comment 666 432 31 196617 fliph;#N comlet fliph;#P inlet 651 431 15 0;#N comlet fliph;#P outlet 651 415 15 0;#P comment 637 467 31 196617 curve;#P comment 637 483 31 196617 curve;#N comlet curve;#P inlet 622 482 15 0;#N comlet curve;#P outlet 622 466 15 0;#P comment 694 468 31 196617 flipv;#P comment 694 484 31 196617 flipv;#N comlet flipv;#P inlet 679 483 15 0;#N comlet flipv;#P outlet 679 467 15 0;#P comment 724 416 42 196617 offseth;#P comment 724 432 42 196617 offseth;#N comlet offseth;#P inlet 709 431 15 0;#N comlet offseth;#P outlet 709 415 15 0;#P comment 753 470 43 196617 offsetv;#P comment 753 487 43 196617 offsetv;#N comlet offsetv;#P inlet 738 486 15 0;#N comlet offsetv;#P outlet 738 469 15 0;#P comment 853 469 33 196617 ramp;#N comlet ramp;#P outlet 838 468 15 0;#P comment 853 488 33 196617 ramp;#N comlet ramp;#P inlet 838 487 15 0;#P comment 922 474 50 196617 trigmess;#P comment 922 491 50 196617 trigmess;#N comlet trigmess;#P inlet 907 490 15 0;#P comment 965 98 26 196617 new;#N comlet new;#P inlet 950 97 15 0;#P comment 1011 76 49 196617 newcopy;#N comlet newcopy;#P inlet 996 75 15 0;#P comment 1080 68 49 196617 deleteone;#N comlet deleteone;#P inlet 1065 67 15 0;#P comment 409 729 49 196617 speedlim;#N comlet speedlim;#P inlet 394 728 15 0;#P comment 409 768 49 196617 speedlim;#N comlet speedlim;#P outlet 394 767 15 0;#P comment 367 619 41 196617 slideup;#N comlet slideup;#P inlet 352 618 15 0;#P comment 367 658 41 196617 slideup;#N comlet slideup;#P outlet 352 657 15 0;#P comment 983 298 56 196617 invaldispn;#N comlet invaldispn;#P outlet 968 297 15 0;#P comment 975 281 56 196617 invaldisp;#N comlet invaldisp;#P outlet 960 279 15 0;#P comment 962 328 56 196617 curvdisp;#N comlet curvdisp;#P outlet 947 327 15 0;#P comment 941 627 65 196617 dispbutton 2;#N comlet dispbutton 2;#P inlet 927 626 15 0;#N comlet thispatcher;#P outlet 1012 726 15 0;#P comment 992 221 56 196617 outvaldisp;#P message 766 78 53 196617 $1<none>;#P newex 812 50 67 196617 route <none>;#P newex 859 101 51 196617 tosymbol;#P newex 859 126 62 196617 prepend set;#P newex 396 415 21 196617 t 1;#P newex 359 342 84 196617 route trig direct;#P button 382 398 15 0;#P newex 622 356 19 196617 t f;#P newex 651 356 19 196617 t f;#P newex 680 356 19 196617 t f;#P newex 709 356 19 196617 t f;#P newex 738 356 19 196617 t f;#P message 916 264 14 196617 0;#P newex 372 692 246 196617 variedit $1/rampdown $1;#B color 11;#P newex 352 636 238 196617 variedit $1/rampup $1;#B color 11;#P newex 394 746 241 196617 variedit $1/speedlim $1;#B color 11;#P newex 768 619 30 196617 t b b;#P newex 815 618 30 196617 t b b;#P newex 799 643 27 196617 i;#P button 867 683 15 0;#P newex 799 663 41 196617 sel 0 1;#P toggle 927 652 15 0;#P button 850 683 15 0;#N comlet outvaldisp;#P outlet 977 220 15 0;#P newex 934 197 73 196617 prepend range;#P newex 934 178 54 196617 pack 0. 0.;#P newex 847 196 19 196617 t f;#N comlet outvaldispn;#P outlet 983 237 15 0;#P newex 859 77 81 196617 sprintf %s-disp;#P newex 847 147 44 196617 receive;#B color 11;#P button 815 683 15 0;#P button 799 683 15 0;#N vpatcher 49 340 762 795;#P button 405 34 15 0;#N comlet bang to show all;#P inlet 384 35 15 0;#P button 384 156 15 0;#P window setfont "Sans Serif" 9.;#P newex 384 130 54 196617 onebang 1;#P newex 408 177 31 196617 t b 1;#P button 335 34 15 0;#P button 216 36 15 0;#P button 137 36 15 0;#P button 62 33 15 0;#P newex 372 177 31 196617 t b 2;#P window setfont Times 9.;#P message 558 254 87 1310729 outbang \, outtrigtext;#P window setfont "Sans Serif" 9.;#P newex 530 272 38 196617 gate 2;#P newex 530 315 109 196617 sprintf script hide %s;#P newex 558 294 114 196617 sprintf script show %s;#N comlet bang to show all;#P inlet 314 35 15 0;#P button 314 156 15 0;#P newex 314 130 54 196617 onebang 1;#P button 16 334 15 0;#P message 16 352 142 196617 script sendtoback background;#P newex 195 151 54 196617 onebang 1;#P newex 117 103 54 196617 onebang 1;#P newex 40 63 54 196617 onebang 1;#P newex 195 181 40 196617 t b 1 2;#P window setfont Times 9.;#P message 228 254 227 1310729 invaldispn \, invaldispntext \, outvaldispn \, outvaldispntext;#P window setfont "Sans Serif" 9.;#P newex 200 272 38 196617 gate 2;#P newex 200 315 109 196617 sprintf script hide %s;#P newex 228 294 114 196617 sprintf script show %s;#P newex 61 272 38 196617 gate 2;#P newex 117 183 31 196617 t b 2;#P newex 40 183 31 196617 t b 1;#P newex 61 315 114 196617 sprintf script show %s;#P newex 89 294 109 196617 sprintf script hide %s;#P window setfont Times 9.;#P message 89 224 207 1310729 invaldisp \, outvaldisp \, invaldisptext \, outvaldisptext;#N comlet bang if not trig;#P inlet 40 35 15 0;#N comlet bang if trig;#P inlet 117 35 15 0;#N comlet bang to show all;#P inlet 195 35 15 0;#P outlet 165 414 15 0;#P connect 9 1 19 0;#P connect 9 0 19 0;#P connect 19 0 18 0;#P connect 28 0 15 0;#P connect 3 0 15 0;#P connect 15 0 7 0;#P connect 14 1 9 0;#P connect 7 1 9 0;#P connect 8 1 9 0;#P connect 9 0 6 0;#P connect 16 0 15 1;#P lcolor 15;#P connect 17 0 15 1;#P lcolor 7;#P connect 14 0 4 0;#P connect 8 0 4 0;#P connect 7 0 4 0;#P connect 4 0 9 1;#P connect 9 1 5 0;#P connect 29 0 16 0;#P connect 2 0 16 0;#P connect 16 0 8 0;#P connect 15 0 16 1;#P lcolor 2;#P connect 17 0 16 1;#P lcolor 7;#P connect 23 0 0 0;#P connect 24 0 0 0;#P connect 18 0 0 0;#P connect 5 0 0 0;#P connect 6 0 0 0;#P connect 10 0 0 0;#P connect 11 0 0 0;#P connect 30 0 17 0;#P connect 1 0 17 0;#P connect 17 0 14 0;#P connect 7 1 12 0;#P connect 14 2 12 0;#P connect 8 1 12 0;#P connect 12 0 11 0;#P connect 14 0 13 0;#P connect 8 0 13 0;#P connect 7 0 13 0;#P connect 13 0 12 1;#P connect 12 1 10 0;#P connect 15 0 17 1;#P lcolor 2;#P connect 16 0 17 1;#P lcolor 15;#P connect 22 0 20 0;#P connect 31 0 20 0;#P connect 20 0 21 0;#P connect 33 0 20 1;#P connect 21 0 27 0;#P connect 36 0 33 0;#P connect 35 0 33 0;#P connect 33 0 34 0;#P connect 34 0 32 0;#P connect 20 0 33 1;#P connect 32 1 25 0;#P connect 14 1 25 0;#P connect 27 1 25 0;#P connect 25 0 24 0;#P connect 14 0 26 0;#P connect 32 0 26 0;#P connect 27 0 26 0;#P connect 26 0 25 1;#P connect 25 1 23 0;#P pop;#P newobj 799 702 79 196617 p hide/show;#B color 6;#P newex 744 188 73 196617 prepend range;#P newex 744 168 54 196617 pack 0. 0.;#P newex 960 257 130 196617 r $1/inval;#B color 11;#P newex 71 462 30 196617 t s s;#P newex 41 374 40 196617 t s s 1;#P newex 71 442 29 196617 gate;#P newex 101 441 31 196617 t 0 s;#P newex 101 421 69 196617 route symbol;#N coll $1/data 1;#P newobj 56 398 147 196617 coll $1/data 1;#B color 5;#P message 108 298 33 196617 clear;#P button 996 93 15 0;#P newex 996 112 147 196617 s $1/newcopy;#B color 11;#P window linecount 2;#P newex 8 562 65 196617 r $1/newcopy;#B color 11;#P button 950 115 15 0;#P window linecount 1;#P newex 950 134 126 196617 s $1/new;#B color 11;#P newex 80 179 123 196617 s $1/init;#B color 11;#P button 80 159 15 0;#P newex 137 112 29 196617 gate;#P newex 229 116 21 196617 t 0;#P newex 156 92 20 196617 t b;#P newex 162 724 29 196617 gate;#P message 8 596 40 196617 <none>;#P newex 8 616 53 196617 t s b s 0;#P message 510 332 72 196617 trig 0 0 0 0 0;#P newex 603 512 66 196617 t b s s b 0;#P newex 152 702 51 196617 zl slice 1;#P newex 864 534 29 196617 t 2 i;#P newex 838 534 21 196617 t 1;#P newex 838 512 36 196617 sel 0;#P newex 109 653 59 196617 t l b l;#P newex 109 674 51 196617 zl slice 1;#P message 988 525 14 196617 b;#P newex 208 601 47 196617 gate 2 1;#P newex 923 576 31 196617 t 2 s;#P newex 907 556 57 196617 route bang;#P newex 245 623 56 196617 zl join;#P newex 907 531 51 196617 tosymbol;#P newex 144 233 138 196617 t s s s;#P newex 236 679 82 196617 prepend subsym;#P newex 236 658 46 196617 pack s s;#P window linecount 4;#P newex 142 528 26 196617 s $1/fillmenu;#B color 11;#P window linecount 1;#P newex 208 478 62 196617 prepend set;#P newex 57 528 80 196617 prepend symbol;#P newex 122 503 53 196617 t s b s 0;#P button 223 524 15 0;#P newex 144 356 51 196617 tosymbol;#P newex 144 275 20 196617 t s;#P newex 223 543 31 196617 t b 1;#N vpatcher 715 157 1334 620;#N comlet bang for direct;#P inlet 292 35 15 0;#P window setfont Times 9.;#P window linecount 0;#P message 465 254 54 1310729 in1 \, in1text \, in2 \, in2text;#P window setfont "Sans Serif" 9.;#P window linecount 1;#P newex 292 99 54 196617 onebang 1;#P window setfont Times 9.;#P window linecount 2;#P message 27 211 54 1310729 in1 \, in1text \, in2 \, in2text;#P button 292 61 15 0;#P window setfont "Sans Serif" 9.;#P window linecount 1;#P newex 292 132 31 196617 t b 2;#P window setfont Times 9.;#P window linecount 3;#P message 292 153 287 1310729 in1 \, in1text \, in2 \, in2text \, out1 \, out1text \, out2 \, out2text \, curve \, curvdisp \, curvetext \, fliph \, fliphtext \, flipv \, flipvtext \, offseth \, offsethtext \, offsetv \, offsetvtext \, trigmess \, trigmesstext \, bforbangtext \, outbang \, outtrigtext;#P button 26 358 15 0;#P window setfont "Sans Serif" 9.;#P window linecount 1;#P message 26 376 142 196617 script sendtoback background;#P newex 195 151 54 196617 onebang 1;#P newex 117 103 54 196617 onebang 1;#P newex 40 63 54 196617 onebang 1;#P newex 195 181 40 196617 t b 1 2;#P window setfont Times 9.;#P message 228 254 233 1310729 trigmess \, trigmesstext \, bforbangtext \, outbang \, outtrigtext;#P window setfont "Sans Serif" 9.;#P newex 200 272 38 196617 gate 2;#P newex 200 315 109 196617 sprintf script hide %s;#P newex 228 294 114 196617 sprintf script show %s;#P newex 61 272 38 196617 gate 2;#P newex 117 183 31 196617 t b 2;#P newex 40 165 31 196617 t b 1;#P newex 61 315 114 196617 sprintf script show %s;#P newex 89 294 109 196617 sprintf script hide %s;#P window setfont Times 9.;#P window linecount 2;#P message 89 211 291 1310729 out1 \, out1text \, out2 \, out2text \, curve \, curvdisp \, curvetext \, fliph \, fliphtext \, flipv \, flipvtext \, offseth \, offsethtext \, offsetv \, offsetvtext \, ramp \, ramptext;#N comlet bang if not trig;#P inlet 40 35 15 0;#N comlet bang if trig;#P inlet 117 35 15 0;#N comlet bang to show all;#P inlet 195 35 15 0;#P outlet 165 414 15 0;#P connect 10 0 19 0;#P connect 5 0 19 0;#P connect 11 0 19 0;#P connect 6 0 19 0;#P connect 19 0 18 0;#P connect 7 0 23 0;#P connect 3 0 15 0;#P connect 15 0 7 0;#P connect 7 1 9 0;#P connect 21 1 9 0;#P connect 14 1 9 0;#P connect 8 1 9 0;#P connect 9 0 6 0;#P connect 17 0 15 1;#P lcolor 7;#P connect 16 0 15 1;#P lcolor 15;#P connect 24 0 15 1;#P connect 8 0 4 0;#P connect 14 0 4 0;#P connect 7 0 4 0;#P connect 23 0 9 1;#P connect 20 0 9 1;#P connect 4 0 9 1;#P connect 9 1 5 0;#P connect 2 0 16 0;#P connect 16 0 8 0;#P connect 17 0 16 1;#P lcolor 7;#P connect 15 0 16 1;#P lcolor 2;#P connect 24 0 16 1;#P connect 11 0 0 0;#P connect 10 0 0 0;#P connect 6 0 0 0;#P connect 5 0 0 0;#P connect 18 0 0 0;#P connect 1 0 17 0;#P connect 17 0 14 0;#P connect 8 1 12 0;#P connect 7 1 12 0;#P connect 14 2 12 0;#P connect 12 0 11 0;#P connect 8 0 13 0;#P connect 14 0 13 0;#P connect 7 0 13 0;#P connect 25 0 12 1;#P connect 13 0 12 1;#P connect 12 1 10 0;#P connect 16 0 17 1;#P lcolor 15;#P connect 15 0 17 1;#P lcolor 2;#P connect 24 0 17 1;#P connect 26 0 22 0;#P connect 22 0 24 0;#P connect 24 0 21 0;#P connect 21 0 20 0;#P connect 17 0 24 1;#P connect 16 0 24 1;#P connect 15 0 24 1;#P connect 8 0 25 0;#P pop;#P newobj 280 416 113 196617 p hide/show;#B color 6;#P newex 874 406 20 196617 t b;#P newex 907 403 20 196617 t b;#P newex 874 427 31 196617 t set;#P newex 907 427 36 196617 zl reg;#P newex 907 452 62 196617 prepend set;#P message 933 264 14 196617 b;#P newex 907 509 56 196617 route text;#N comlet trigmess;#P outlet 907 473 15 0;#P newex 593 242 350 196617 t l 0 b;#P message 838 451 39 196617 set \$1;#P newex 838 422 18 196617 t i;#P newex 838 365 92 196617 route int float;#P button 348 398 15 0;#P newex 359 276 27 196617 t b l;#P newex 359 313 36 196617 zl reg;#P newex 359 370 40 196617 t b b b;#P comment 763 313 115 196617 lcd \, dimmenions 27X27;#B frgb 255 0 0;#P newex 754 297 87 196617 multicurvdisp 27;#B color 5;#P newex 558 404 62 196617 prepend set;#P message 738 449 39 196617 set \$1;#P message 709 398 39 196617 set \$1;#P message 680 449 39 196617 set \$1;#P message 651 398 39 196617 set \$1;#P message 622 449 39 196617 set \$1;#P newex 593 298 155 196617 unpack s 0. 0 0 0. 0.;#P message 493 394 39 196617 set \$1;#P message 467 451 39 196617 set \$1;#P message 441 394 39 196617 set \$1;#P message 415 451 39 196617 set \$1;#P newex 415 294 88 196617 unpack 0. 0. 0. 0.;#P newex 378 179 51 196617 zl ecils 1;#P newex 378 159 49 196617 zl rot -1;#P newex 208 567 525 196617 pack s 0. 0. 0. 0. s 0. 0 0 0. 0.;#P newex 144 297 62 196617 prepend set;#P newex 144 254 64 196617 fromsymbol;#P newex 404 230 69 196617 route symbol;#N vpatcher 850 134 1314 391;#P window setfont "Sans Serif" 9.;#P window linecount 6;#P comment 260 139 151 196617 re-modif by tom \, delete done in multimap module not in editor \, so that editor is not required for delete. here there is only "fillmenu" and "load first mapping into editor.";#B color 14;#P window linecount 1;#P newex 216 97 30 196617 t b b;#P newex 216 75 50 196617 deferlow;#B color 14;#P newex 216 52 117 196617 r $1/delete;#B color 14;#P window linecount 2;#P comment 260 102 160 196617 mod by reno- \; delete one mapping with its index \;;#B color 14;#P outlet 23 212 15 0;#P window linecount 1;#P newex 176 52 20 196617 t b;#N comlet just delete;#P inlet 176 28 15 0;#P newex 57 211 144 196617 s $1/fillmenu;#B color 11;#P newex 57 81 30 196617 t b b;#P newex 77 130 75 196617 prepend delete;#N coll $1/data 1;#P newobj 77 152 147 196617 coll $1/data 1;#B color 5;#P newex 77 107 36 196617 zl reg;#P inlet 38 28 15 0;#N comlet delete + fill menu;#P inlet 57 52 15 0;#P connect 5 0 9 0;#P connect 13 0 9 0;#P connect 0 0 5 0;#P connect 5 0 6 0;#P connect 13 1 6 0;#P connect 5 1 2 0;#P connect 8 0 2 0;#P connect 2 0 4 0;#P connect 4 0 3 0;#P fasten 1 0 2 1 43 47 108 47;#P connect 7 0 8 0;#P connect 11 0 12 0;#P connect 12 0 13 0;#P pop;#P newobj 511 210 85 196617 p delete_current;#B color 6;#P button 1065 87 15 0;#N coll $1/data 1;#P newobj 208 724 147 196617 coll $1/data 1;#B color 5;#P newex 208 702 72 196617 prepend store;#P newex 30 61 32 196617 del 1;#P newex 30 41 20 196617 t b;#P newex 55 41 102 196617 r $1;#B color 11;#P newex 68 92 20 196617 t b;#P newex 172 66 124 196617 t dump clear 1;#P message 68 112 60 196617 start \, next;#N coll $1/data 1;#P newobj 68 134 147 196617 coll $1/data 1;#B color 5;#P button 314 398 15 0;#P button 280 398 15 0;#P newex 324 42 48 196617 t clear b;#P newex 324 22 123 196617 r $1/init;#B color 11;#P button 172 46 15 0;#P newex 172 22 144 196617 r $1/fillmenu;#B color 11;#P newex 339 184 26 196617 t s;#P newex 359 253 51 196617 zl slice 4;#N coll $1/data 1;#P newobj 359 210 147 196617 coll $1/data 1;#B color 5;#P newex 252 137 78 196617 prepend append;#P newex 252 116 69 196617 route symbol;#N coll $1/data 1;#P newobj 207 96 147 196617 coll $1/data 1;#B color 5;#P newex 593 262 51 196617 zl slice 6;#P comment 996 238 61 196617 outvaldispn;#P comment 1027 726 61 196617 thispatcher;#P connect 98 0 89 0;#P connect 89 0 88 0;#P connect 235 0 234 0;#P connect 234 0 236 0;#P connect 236 0 237 0;#P connect 237 0 238 0;#P connect 19 0 20 0;#P connect 20 0 21 0;#P connect 234 1 236 1;#P connect 65 0 106 0;#P connect 106 1 102 0;#P connect 67 0 68 0;#P connect 88 0 68 0;#P connect 80 0 68 0;#P connect 21 0 18 0;#P fasten 25 0 18 0 516 232 539 232 539 86 73 86;#P lcolor 4;#P connect 18 0 16 0;#P connect 16 0 15 0;#P fasten 68 0 15 0 62 549 25 549 25 130 73 130;#P connect 106 2 105 0;#P connect 104 0 105 0;#P connect 105 0 107 0;#P connect 93 0 94 0;#P connect 94 0 95 0;#P fasten 106 0 105 1 46 422 95 422;#P connect 102 1 103 0;#P connect 103 0 104 0;#P connect 238 0 81 0;#P connect 81 0 80 0;#P connect 104 1 67 0;#P connect 107 0 67 0;#P connect 17 2 93 0;#P connect 92 0 93 0;#P connect 67 1 70 0;#P connect 88 1 70 0;#P connect 81 1 70 0;#P connect 26 0 73 0;#P connect 31 1 73 0;#P connect 73 0 27 0;#P connect 27 0 64 0;#P connect 64 0 28 0;#P connect 28 0 215 0;#P connect 101 0 215 0;#P connect 216 0 65 0;#P connect 75 0 85 0;#P connect 78 0 85 0;#P connect 17 0 91 0;#P connect 91 0 93 1;#P connect 67 3 90 0;#P lcolor 1;#P connect 88 3 90 0;#P lcolor 1;#P connect 63 1 90 0;#P lcolor 1;#P connect 21 0 10 0;#P connect 9 0 10 0;#P connect 10 0 17 0;#P connect 85 0 90 1;#P connect 17 0 3 0;#P connect 73 1 69 0;#P connect 67 2 29 0;#P lcolor 1;#P connect 88 2 29 0;#P connect 63 0 29 0;#P connect 69 0 29 0;#P fasten 77 0 78 0 928 597 213 597;#P lcolor 5;#P fasten 84 0 78 0 869 597 213 597;#P lcolor 5;#P fasten 83 0 78 0 843 597 213 597;#P lcolor 5;#P connect 78 0 22 0;#P fasten 75 0 22 0 250 648 213 648;#P connect 81 2 22 0;#P connect 22 0 23 0;#P connect 72 0 23 0;#P connect 12 0 219 0;#P fasten 15 1 219 0 118 159 214 159;#P connect 17 1 219 0;#P connect 5 0 219 0;#P connect 168 0 66 0;#P connect 171 0 66 0;#P connect 176 0 66 0;#P connect 180 0 66 0;#P connect 184 0 66 0;#P connect 192 0 66 0;#P connect 188 0 66 0;#P connect 200 0 66 0;#P connect 208 0 66 0;#P connect 204 0 66 0;#P connect 212 0 66 0;#P connect 86 0 66 0;#P connect 66 0 63 0;#P connect 3 1 92 0;#P connect 107 1 71 0;#P connect 71 0 72 0;#P connect 29 0 78 1;#P connect 78 1 75 0;#P connect 3 1 4 0;#P connect 4 0 5 0;#P connect 32 0 29 1;#P lcolor 1;#P connect 212 0 29 1;#P connect 73 2 71 1;#P connect 138 2 13 0;#P connect 13 0 62 0;#P fasten 77 1 75 1 949 615 296 615;#P fasten 84 1 75 1 888 607 296 607;#P connect 32 1 29 2;#P lcolor 1;#P connect 204 0 29 2;#P connect 46 0 14 0;#P connect 14 0 62 1;#P connect 11 0 12 0;#P connect 90 0 8 0;#P lcolor 15;#P connect 220 0 8 0;#P connect 49 0 62 2;#P connect 156 0 129 0;#P connect 129 0 154 0;#P connect 8 0 6 0;#P connect 31 0 7 0;#P connect 6 0 7 0;#P connect 7 0 48 0;#P connect 48 0 47 0;#P connect 86 2 138 0;#P lcolor 6;#P connect 47 0 138 0;#P connect 138 0 46 0;#P connect 32 2 29 3;#P lcolor 1;#P connect 208 0 29 3;#P connect 225 0 130 0;#P connect 130 0 223 0;#P connect 231 0 30 0;#P connect 30 0 31 0;#P connect 12 1 232 0;#P connect 138 1 137 0;#P connect 137 0 62 3;#P connect 37 0 47 1;#P connect 160 0 128 0;#P connect 128 0 158 0;#P connect 137 0 139 0;#P connect 6 1 26 0;#P connect 232 0 233 0;#P connect 233 0 229 0;#P connect 229 0 230 0;#P connect 230 0 231 0;#P connect 32 3 29 4;#P lcolor 1;#P connect 200 0 29 4;#P connect 48 1 32 0;#P connect 32 0 33 0;#P connect 33 0 211 0;#P connect 233 1 229 1;#P connect 32 1 34 0;#P connect 34 0 203 0;#P connect 37 0 29 5;#P lcolor 1;#P connect 86 1 29 5;#P connect 32 2 35 0;#P connect 35 0 207 0;#P connect 32 3 36 0;#P connect 36 0 199 0;#P connect 46 2 87 0;#P connect 8 0 25 0;#P connect 136 0 29 6;#P lcolor 1;#P connect 188 0 29 6;#P connect 24 0 25 1;#P connect 37 0 43 0;#P connect 43 0 195 0;#P connect 135 0 29 7;#P lcolor 1;#P connect 192 0 29 7;#P connect 7 1 53 0;#P connect 53 0 2 0;#P connect 2 0 37 0;#P connect 87 0 37 0;#P connect 196 0 86 0;#P connect 134 0 29 8;#P lcolor 1;#P connect 184 0 29 8;#P fasten 131 0 136 0 921 352 627 352;#P lcolor 5;#P connect 37 1 136 0;#P connect 136 0 38 0;#P connect 38 0 187 0;#P fasten 131 0 135 0 921 352 656 352;#P lcolor 5;#P connect 37 2 135 0;#P connect 135 0 39 0;#P connect 39 0 191 0;#P connect 133 0 29 9;#P lcolor 1;#P connect 180 0 29 9;#P connect 40 0 183 0;#P fasten 131 0 134 0 921 352 685 352;#P lcolor 5;#P connect 37 3 134 0;#P connect 134 0 40 0;#P fasten 131 0 133 0 921 352 714 352;#P lcolor 5;#P connect 37 4 133 0;#P connect 133 0 41 0;#P connect 41 0 179 0;#P connect 132 0 29 10;#P lcolor 1;#P connect 176 0 29 10;#P fasten 131 0 132 0 921 352 743 352;#P lcolor 5;#P connect 37 5 132 0;#P connect 132 0 42 0;#P connect 42 0 175 0;#P connect 32 0 109 0;#P connect 109 0 110 0;#P fasten 2 0 44 0 598 289 759 289;#P connect 142 0 143 0;#P connect 46 2 127 0;#P connect 32 1 109 1;#P connect 122 0 125 0;#P connect 126 0 125 0;#P connect 127 0 125 0;#P connect 125 0 123 0;#P connect 123 0 112 0;#P connect 112 0 111 0;#P connect 73 2 142 0;#P connect 138 2 126 0;#P connect 123 1 113 0;#P connect 113 0 111 1;#P fasten 2 1 50 0 639 283 843 283;#P connect 131 0 51 0;#P connect 86 4 51 0;#P connect 50 0 51 0;#P connect 50 1 51 0;#P connect 53 1 51 0;#P connect 51 0 52 0;#P connect 52 0 173 0;#P connect 171 0 82 0;#P fasten 51 0 82 0 843 444 830 444 830 506 843 506;#P lcolor 13;#P connect 82 0 83 0;#P connect 140 0 114 0;#P connect 114 0 117 0;#P connect 127 1 121 0;#P connect 121 0 111 3;#P connect 142 1 115 0;#P connect 115 0 141 0;#P connect 141 0 140 0;#P connect 143 0 140 0;#P connect 82 1 84 0;#P connect 126 1 124 0;#P connect 124 0 111 4;#P connect 138 2 61 0;#P connect 61 0 59 0;#P connect 46 1 60 0;#P lcolor 15;#P connect 60 0 58 0;#P connect 58 0 57 0;#P connect 79 0 57 0;#P connect 59 0 54 0;#P connect 57 0 54 0;#P connect 168 0 55 0;#P connect 79 0 74 0;#P connect 55 0 74 0;#P fasten 58 0 76 0 912 448 930 448 930 551 912 551;#P lcolor 13;#P connect 74 0 76 0;#P connect 53 2 131 0;#P connect 76 1 77 0;#P connect 146 0 122 0;#P connect 139 0 122 0;#P connect 53 2 56 0;#P connect 86 3 56 0;#P lcolor 6;#P connect 56 0 58 1;#P connect 50 2 58 1;#P connect 114 0 227 0;#P connect 32 2 118 0;#P connect 118 0 119 0;#P connect 44 0 148 0;#P connect 166 0 97 0;#P connect 97 0 96 0;#P connect 108 0 150 0;#P connect 110 0 150 0;#P connect 108 0 152 0;#P fasten 117 0 120 0 852 217 982 217;#P connect 119 0 120 0;#P connect 32 3 118 1;#P connect 117 0 116 0;#P connect 76 0 79 0;#P connect 164 0 100 0;#P connect 100 0 99 0;#P connect 62 0 145 0;#P lcolor 15;#P connect 111 0 145 0;#P connect 162 0 24 0;#P pop;#P newobj 81 240 642 196626 p editor-works;#B color 6;#P window setfont "Sans Serif" 9.;#P newex 284 312 68 196617 pvar outbang;#P newex 270 200 54 196617 pvar out1;#P newex 216 156 48 196617 pvar in1;#P newex 307 178 54 196617 pvar out2;#P newex 324 156 63 196617 pvar type 2;#P newex 484 151 66 196617 pvar offseth;#P newex 515 172 67 196617 pvar offsetv;#P newex 546 192 57 196617 pvar ramp;#P newex 577 212 74 196617 pvar trigmess;#P newex 639 178 52 196617 pvar new;#P newex 670 199 73 196617 pvar newcopy;#P newex 701 219 76 196617 pvar deleteone;#P newex 171 135 73 196617 pvar speedlim;#P newex 74 104 65 196617 pvar slideup;#P newex 510 312 79 196617 pvar invaldispn;#P newex 582 149 89 196617 pvar dispbutton 2;#N thispatcher;#Q end;#P newobj 702 273 61 196617 thispatcher;#P newex 675 312 85 196617 pvar outvaldispn;#P newex 592 312 80 196617 pvar outvaldisp;#P newex 158 114 78 196617 pvar slidedown;#P newex 433 312 74 196617 pvar invaldisp;#P newex 356 312 73 196617 pvar curvdisp;#P newex 453 131 55 196617 pvar flipv;#P newex 422 111 54 196617 pvar fliph;#P newex 391 156 60 196617 pvar curve;#P newex 243 178 48 196617 pvar in2;#P window linecount 2;#P comment 108 74 604 196617 "[destination et agruments]" \, [in1] [in2] [out1] [out2] [type (norm \, sym \, updwn trig)] [curve (-1. to 1.)] [fliph (0-1)] [flipv (0-1)] [offseth (-1. to 1.)] [offsetv (-1. to 1.)] "[trig message]";#P window linecount 1;#P newex 41 144 63 196617 pvar sendto;#P newex 56 124 97 196617 pvar destinations 2;#P comment 532 39 117 196617 bpat bkgnd = 512 X 62;#P window setfont Times 9.;#P comment 283 30 32 1310729 edit->;#P number 66 46 38 9 0 0 1 20 0 0 0 221 221 221 222 222 222 0 0 0;#P objectname ramp;#P hidden comment 469 16 16 1310729 in;#B frgb 99 99 99;#P objectname invaldispntext;#P flonum 66 30 38 9 0. 99999. 3 20 0 0 0 221 221 221 222 222 222 0 0 0;#P objectname slidedown;#P flonum 66 16 38 9 0. 99999. 3 20 0 0 0 221 221 221 222 222 222 0 0 0;#P objectname slideup;#P number 66 2 38 9 0 99999 3 20 0 0 0 221 221 221 222 222 222 0 0 0;#P objectname speedlim;#P comment 24 3 44 1310729 /speedlim;#B frgb 0 0 200;#P comment 491 17 20 1310729 out;#B frgb 99 99 99;#P objectname outvaldisptext;#P comment 473 17 16 1310729 in;#B frgb 99 99 99;#P objectname invaldisptext;#P user ubutton 468 18 43 42 0 2;#P objectname dispbutton;#P hidden comment 211 17 36 1310729 outtrig;#P objectname outtrigtext;#P hidden button 199 17 13 0;#P noclick;#P objectname outbang;#P hidden comment 469 36 20 1310729 out;#B frgb 99 99 99;#P objectname outvaldispntext;#P hidden flonum 467 46 44 9 0 0 8224 20 0 0 0 221 221 221 222 222 222 0 0 0;#P noclick;#P objectname outvaldispn;#P user multiSlider 493 27 13 33 0. 1. 1 2681 15 0 0 1 0 0 0;#M frgb 0 0 0;#M brgb 255 255 255;#M rgb2 127 127 127;#M rgb3 0 0 0;#M rgb4 37 52 91;#M rgb5 74 105 182;#M rgb6 112 158 18;#M rgb7 149 211 110;#M rgb8 187 9 201;#M rgb9 224 62 37;#M rgb10 7 114 128;#P noclick;#P objectname outvaldisp;#P hidden flonum 467 26 44 9 0 0 8224 20 0 0 0 221 221 221 222 222 222 0 0 0;#P noclick;#P objectname invaldispn;#P user multiSlider 474 27 13 33 0. 127. 1 2681 15 0 0 1 0 0 0;#M frgb 0 0 0;#M brgb 255 255 255;#M rgb2 127 127 127;#M rgb3 0 0 0;#M rgb4 37 52 91;#M rgb5 74 105 182;#M rgb6 112 158 18;#M rgb7 149 211 110;#M rgb8 187 9 201;#M rgb9 224 62 37;#M rgb10 7 114 128;#P noclick;#P objectname invaldisp;#P hidden comment 167 48 77 1310729 (use 'b' for 'bang');#B frgb 200 0 0;#P objectname bforbangtext;#P comment 350 17 47 1310729 /newcopy;#B frgb 0 0 200;#P button 392 16 13 7;#P objectname newcopy;#P comment 308 17 26 1310729 /new;#B frgb 0 0 200;#P button 332 16 13 6;#P objectname new;#P comment 25 46 43 1310729 /destramp;#B frgb 140 10 10;#P objectname ramptext;#P comment 410 17 49 1310729 /deleteone;#B frgb 0 0 200;#P button 454 16 13 4;#P objectname deleteone;#P window setfont "Sans Serif" 9.;#P window linecount 0;#P comment 0 803 100 196617;#P window setfont Times 9.;#P window linecount 1;#P comment 280 47 35 1310729 sendto;#P user textedit 309 44 467 60 32896 20 9 <none>;#P objectname sendto;#P hidden comment 129 48 43 1310729 trigmess;#P objectname trigmesstext;#P flonum 129 45 42 9 0 0 0 20 0 0 0 221 221 221 222 222 222 0 0 0;#P objectname out2;#P comment 109 16 21 1310729 /in2;#B frgb 140 10 10;#P objectname in2text;#P flonum 129 16 42 9 0 0 0 20 0 0 0 221 221 221 222 222 222 0 0 0;#P objectname in2;#P user lcd 249 2 29 29 0 1 0 0 0;#P objectname curvdisp;#P comment 105 45 25 1310729 /out2;#B frgb 140 10 10;#P objectname out2text;#P comment 105 31 25 1310729 /out1;#B frgb 140 10 10;#P objectname out1text;#P comment 109 2 21 1310729 /in1;#B frgb 140 10 10;#P objectname in1text;#P flonum 129 31 42 9 0 0 0 20 0 0 0 221 221 221 222 222 222 0 0 0;#P objectname out1;#P flonum 129 2 42 9 0 0 0 20 0 0 0 221 221 221 222 222 222 0 0 0;#P objectname in1;#P comment 213 45 37 1310729 /offsetv;#B frgb 140 10 10;#P objectname offsetvtext;#P comment 213 31 37 1310729 /offseth;#B frgb 140 10 10;#P objectname offsethtext;#P comment 171 45 29 1310729 /flipv;#B frgb 140 10 10;#P objectname flipvtext;#P comment 171 31 29 1310729 /fliph;#B frgb 140 10 10;#P objectname fliphtext;#P toggle 199 45 14 0;#P objectname flipv;#P toggle 199 31 14 0;#P objectname fliph;#P comment 171 17 30 1310729 /curve;#B frgb 140 10 10;#P objectname curvetext;#P comment 175 2 25 1310729 /type;#B frgb 140 10 10;#P flonum 199 17 35 9 -1. 1. 3 20 0 0 0 221 221 221 222 222 222 0 0 0;#P objectname curve;#P flonum 249 45 32 9 -1. 1. 3 20 0 0 0 221 221 221 222 222 222 0 0 0;#P objectname offsetv;#P flonum 249 31 32 9 -1. 1. 3 20 0 0 0 221 221 221 222 222 222 0 0 0;#P objectname offseth;#P user ubumenu 199 2 42 1310729 0 1 1 0;#X add norm;#X add sym;#X add updwn;#X add trig;#X add direct;#X prefix_set 0 0 <none> 0;#P objectname type;#P user ubumenu 309 29 158 1310729 0 1 1 0;#X prefix_set 0 0 <none> 0;#P objectname destinations;#P hidden user textedit 129 31 278 50 32896 20 9;#P objectname trigmess;#P comment 20 31 48 1310729 /rampdown;#B frgb 0 0 200;#P objectname ramptext[2];#P comment 31 17 37 1310729 /rampup;#B frgb 0 0 200;#P objectname ramptext[1];#P user panel 21 1 84 44;#X brgb 198 198 198;#X frgb 0 0 0;#X border 1;#X rounded 0;#X shadow 0;#X done;#P window setfont "Sans Serif" 9.;#P window linecount 2;#P comment 532 7 353 196617 arg 1 : prefix \; arg 2 : color scheme choice (0 = movie \, 1 = tape \, 2 = camtrk \, 3 = conduite);#P bpatcher 0 0 512 62 0 0 bkgnd12.mxt 0 $1 0 $2;#P background;#P objectname background;#P connect 87 0 59 0;#P connect 59 0 88 0;#P connect 88 0 89 0;#P connect 87 1 58 0;#P connect 87 2 73 0;#P connect 89 1 87 0;#P connect 58 1 87 1;#P connect 73 0 87 2;#P connect 87 3 67 0;#P connect 87 4 74 0;#P connect 67 0 87 3;#P connect 74 0 87 4;#P connect 87 5 84 0;#P connect 84 0 87 5;#P connect 87 6 61 0;#P connect 61 0 87 6;#P connect 87 7 85 0;#P fasten 87 17 86 0 545 286 289 286;#P connect 85 0 87 7;#P connect 87 8 83 0;#P connect 87 9 82 0;#P connect 83 0 87 8;#P fasten 87 18 65 0 572 291 361 291;#P connect 82 1 87 9;#P connect 87 10 62 0;#P connect 62 0 87 10;#P connect 87 11 63 0;#P connect 63 0 87 11;#P fasten 87 19 66 0 599 296 438 296;#P connect 87 12 64 0;#P connect 64 0 87 12;#P connect 87 13 81 0;#P connect 81 0 87 13;#P fasten 87 20 72 0 626 301 515 301;#P connect 87 14 80 0;#P connect 80 0 87 14;#P connect 87 15 79 0;#P connect 79 0 87 15;#P connect 87 16 78 0;#P connect 78 0 87 16;#P fasten 87 21 68 0 653 306 597 306;#P fasten 71 1 87 17 666 174 613 174;#P connect 77 0 87 18;#P connect 76 0 87 19;#P connect 87 22 69 0;#P connect 89 0 75 0;#P lcolor 15;#P connect 75 0 87 20;#P connect 87 23 70 0;#P pop;