max v2;#N vpatcher 331 63 1391 901;#P window setfont "Sans Serif" 9.;#P comment 532 39 117 196617 bpat bkgnd = 512 X 62;#P message 765 136 103 196617 $1-none;#P newex 823 108 57 196617 route none;#P newex 870 159 51 196617 tosymbol;#P newex 870 184 62 196617 prepend set;#P newex 407 473 21 196617 t 1;#P newex 370 400 84 196617 route trig direct;#P button 393 456 15 0;#P newex 633 414 19 196617 t f;#P newex 662 414 19 196617 t f;#P newex 691 414 19 196617 t f;#P newex 720 414 19 196617 t f;#P newex 749 414 19 196617 t f;#P message 927 322 14 196617 0;#P window setfont Times 9.;#P comment 283 30 32 1310729 edit->;#P number 66 46 38 9 0 0 1 20 0 0 0 221 221 221 222 222 222 0 0 0;#P objectname ramp;#P hidden comment 469 16 16 1310729 in;#B frgb 99 99 99;#P objectname invaldispntext;#P flonum 66 30 38 9 0. 99999. 3 20 0 0 0 221 221 221 222 222 222 0 0 0;#P objectname slidedown;#P window setfont "Sans Serif" 9.;#P newex 569 189 78 196617 pvar slidedown;#P newex 569 168 246 196617 variedit $1/slidedown $1;#B color 11;#P newex 489 168 65 196617 pvar slideup;#P newex 489 144 238 196617 variedit $1/slideup $1;#B color 11;#P window setfont Times 9.;#P flonum 66 16 38 9 0. 99999. 3 20 0 0 0 221 221 221 222 222 222 0 0 0;#P objectname slideup;#P window setfont "Sans Serif" 9.;#P newex 489 124 73 196617 pvar speedlim;#P window setfont Times 9.;#P number 66 2 38 9 0 99999 3 20 0 0 0 221 221 221 222 222 222 0 0 0;#P objectname speedlim;#P comment 24 3 44 1310729 /speedlim;#B frgb 0 0 200;#P window setfont "Sans Serif" 9.;#P newex 489 103 241 196617 variedit $1/speedlim $1;#B color 11;#P window setfont Times 9.;#P comment 491 17 20 1310729 out;#B frgb 99 99 99;#P objectname outvaldisptext;#P comment 473 17 16 1310729 in;#B frgb 99 99 99;#P objectname invaldisptext;#P window setfont "Sans Serif" 9.;#P newex 779 677 30 196617 t b b;#P newex 826 676 30 196617 t b b;#P newex 810 701 27 196617 i;#P button 878 741 15 0;#P newex 810 721 41 196617 sel 0 1;#P newex 869 688 89 196617 pvar dispbutton 2;#P toggle 898 710 15 0;#P user ubutton 468 18 43 42 0 2;#P objectname dispbutton;#P window setfont Times 9.;#P hidden comment 211 17 36 1310729 outtrig;#P objectname outtrigtext;#P hidden button 199 17 13 0;#P noclick;#P objectname outbang;#P window setfont "Sans Serif" 9.;#P newex 870 227 68 196617 pvar outbang;#P button 861 741 15 0;#P window setfont Times 9.;#P hidden comment 469 36 20 1310729 out;#B frgb 99 99 99;#P objectname outvaldispntext;#P window setfont "Sans Serif" 9.;#P newex 945 278 80 196617 pvar outvaldisp;#P newex 945 255 73 196617 prepend range;#P newex 945 236 54 196617 pack 0. 0.;#P newex 858 254 19 196617 t f;#P newex 858 278 85 196617 pvar outvaldispn;#P newex 870 135 81 196617 sprintf %s-disp;#P newex 858 205 44 196617 receive;#B color 11;#P window setfont Times 9.;#P hidden flonum 467 46 44 9 0 0 8224 20 0 0 0 221 221 221 222 222 222 0 0 0;#P noclick;#P objectname outvaldispn;#P button 826 741 15 0;#P button 810 741 15 0;#P window setfont "Sans Serif" 9.;#N vpatcher 49 340 762 795;#P button 405 34 15 0;#N comlet bang to show all;#P inlet 384 35 15 0;#P button 384 156 15 0;#P window setfont "Sans Serif" 9.;#P newex 384 130 54 196617 onebang 1;#P newex 408 177 31 196617 t b 1;#P button 335 34 15 0;#P button 216 36 15 0;#P button 137 36 15 0;#P button 62 33 15 0;#P newex 372 177 31 196617 t b 2;#P window setfont Times 9.;#P message 558 254 87 1310729 outbang \, outtrigtext;#P window setfont "Sans Serif" 9.;#P newex 530 272 38 196617 gate 2;#P newex 530 315 109 196617 sprintf script hide %s;#P newex 558 294 114 196617 sprintf script show %s;#N comlet bang to show all;#P inlet 314 35 15 0;#P button 314 156 15 0;#P newex 314 130 54 196617 onebang 1;#P button 16 334 15 0;#P message 16 352 142 196617 script sendtoback background;#P newex 195 151 54 196617 onebang 1;#P newex 117 103 54 196617 onebang 1;#P newex 40 63 54 196617 onebang 1;#P newex 195 181 40 196617 t b 1 2;#P window setfont Times 9.;#P message 228 254 227 1310729 invaldispn \, invaldispntext \, outvaldispn \, outvaldispntext;#P window setfont "Sans Serif" 9.;#P newex 200 272 38 196617 gate 2;#P newex 200 315 109 196617 sprintf script hide %s;#P newex 228 294 114 196617 sprintf script show %s;#P newex 61 272 38 196617 gate 2;#P newex 117 183 31 196617 t b 2;#P newex 40 183 31 196617 t b 1;#P newex 61 315 114 196617 sprintf script show %s;#P newex 89 294 109 196617 sprintf script hide %s;#P window setfont Times 9.;#P message 89 224 207 1310729 invaldisp \, outvaldisp \, invaldisptext \, outvaldisptext;#N comlet bang if not trig;#P inlet 40 35 15 0;#N comlet bang if trig;#P inlet 117 35 15 0;#N comlet bang to show all;#P inlet 195 35 15 0;#P outlet 165 414 15 0;#P connect 9 1 19 0;#P connect 9 0 19 0;#P connect 19 0 18 0;#P connect 3 0 15 0;#P connect 28 0 15 0;#P connect 15 0 7 0;#P connect 14 1 9 0;#P connect 8 1 9 0;#P connect 7 1 9 0;#P connect 9 0 6 0;#P connect 16 0 15 1;#P lcolor 15;#P connect 17 0 15 1;#P lcolor 7;#P connect 14 0 4 0;#P connect 7 0 4 0;#P connect 8 0 4 0;#P connect 4 0 9 1;#P connect 9 1 5 0;#P connect 2 0 16 0;#P connect 29 0 16 0;#P connect 16 0 8 0;#P connect 15 0 16 1;#P lcolor 2;#P connect 17 0 16 1;#P lcolor 7;#P connect 11 0 0 0;#P connect 10 0 0 0;#P connect 6 0 0 0;#P connect 5 0 0 0;#P connect 18 0 0 0;#P connect 24 0 0 0;#P connect 23 0 0 0;#P connect 1 0 17 0;#P connect 30 0 17 0;#P connect 17 0 14 0;#P connect 8 1 12 0;#P connect 14 2 12 0;#P connect 7 1 12 0;#P connect 12 0 11 0;#P connect 14 0 13 0;#P connect 7 0 13 0;#P connect 8 0 13 0;#P connect 13 0 12 1;#P connect 12 1 10 0;#P connect 16 0 17 1;#P lcolor 15;#P connect 15 0 17 1;#P lcolor 2;#P connect 31 0 20 0;#P connect 22 0 20 0;#P connect 20 0 21 0;#P connect 33 0 20 1;#P connect 21 0 27 0;#P connect 35 0 33 0;#P connect 36 0 33 0;#P connect 33 0 34 0;#P connect 34 0 32 0;#P connect 20 0 33 1;#P connect 27 1 25 0;#P connect 14 1 25 0;#P connect 32 1 25 0;#P connect 25 0 24 0;#P connect 27 0 26 0;#P connect 32 0 26 0;#P connect 14 0 26 0;#P connect 26 0 25 1;#P connect 25 1 23 0;#P pop;#P newobj 810 760 79 196617 p hide/show;#B color 6;#N thispatcher;#Q end;#P newobj 810 779 61 196617 thispatcher;#P newex 661 233 79 196617 pvar invaldispn;#P user multiSlider 493 27 13 33 0. 1. 1 2681 15 0 0 1 0 0 0;#M frgb 0 0 0;#M brgb 255 255 255;#M rgb2 127 127 127;#M rgb3 0 0 0;#M rgb4 37 52 91;#M rgb5 74 105 182;#M rgb6 112 158 18;#M rgb7 149 211 110;#M rgb8 187 9 201;#M rgb9 224 62 37;#M rgb10 7 114 128;#P noclick;#P objectname outvaldisp;#P newex 644 260 74 196617 pvar invaldisp;#P newex 777 242 73 196617 prepend range;#P newex 777 222 54 196617 pack 0. 0.;#P window setfont Times 9.;#P hidden flonum 467 26 44 9 0 0 8224 20 0 0 0 221 221 221 222 222 222 0 0 0;#P noclick;#P objectname invaldispn;#P user multiSlider 474 27 13 33 0. 1. 1 2681 15 0 0 1 0 0 0;#M frgb 0 0 0;#M brgb 255 255 255;#M rgb2 127 127 127;#M rgb3 0 0 0;#M rgb4 37 52 91;#M rgb5 74 105 182;#M rgb6 112 158 18;#M rgb7 149 211 110;#M rgb8 187 9 201;#M rgb9 224 62 37;#M rgb10 7 114 128;#P noclick;#P objectname invaldisp;#P window setfont "Sans Serif" 9.;#P newex 644 210 130 196617 r $1/inval;#B color 11;#P newex 82 520 30 196617 t s s;#P newex 52 432 40 196617 t s s 1;#P newex 82 500 29 196617 gate;#P newex 112 499 31 196617 t 0 s;#P newex 112 479 69 196617 route symbol;#N coll $1/data 1;#P newobj 67 456 147 196617 coll $1/data 1;#B color 5;#P message 119 371 33 196617 clear;#P window setfont Times 9.;#P hidden comment 167 48 77 1310729 (use 'b' for 'bang');#B frgb 200 0 0;#P objectname bforbangtext;#P button 416 723 15 0;#P window setfont "Sans Serif" 9.;#P newex 416 742 147 196617 s $1/newcopy;#B color 11;#P window linecount 2;#P newex 19 620 65 196617 r $1/newcopy;#B color 11;#P window linecount 1;#P newex 416 703 73 196617 pvar newcopy;#P button 607 723 15 0;#P newex 607 742 126 196617 s $1/new;#B color 11;#P window linecount 2;#P newex 120 645 48 196617 r $1/new;#B color 11;#P window linecount 1;#P newex 148 244 123 196617 s $1/init;#B color 11;#P button 148 224 15 0;#P newex 148 170 29 196617 gate;#P newex 240 174 21 196617 t 0;#P newex 167 150 20 196617 t b;#P newex 173 782 29 196617 gate;#P message 19 654 30 196617 none;#P newex 19 674 53 196617 t s b s 0;#P window setfont Times 9.;#P comment 350 17 47 1310729 /newcopy;#B frgb 0 0 200;#P button 392 16 13 7;#P objectname newcopy;#P window setfont "Sans Serif" 9.;#P message 521 390 72 196617 trig 0 0 0 0 0;#P newex 614 570 66 196617 t b s s b 0;#P newex 163 760 51 196617 zl slice 1;#P window setfont Times 9.;#P comment 308 17 26 1310729 /new;#B frgb 0 0 200;#P button 332 16 13 6;#P objectname new;#P window setfont "Sans Serif" 9.;#P newex 607 703 52 196617 pvar new;#P newex 875 592 29 196617 t 2 i;#P newex 849 592 21 196617 t 1;#P newex 849 570 36 196617 sel 0;#P newex 120 711 59 196617 t l b l;#P newex 120 732 51 196617 zl slice 1;#P window linecount 2;#P message 120 679 86 196617 <none> 0 1 0 1 norm 0. 0 0 0. 0.;#P window linecount 1;#P message 992 578 14 196617 b;#P newex 219 659 47 196617 gate 2 1;#P newex 934 632 31 196617 t 2 s;#P newex 918 603 57 196617 route bang;#P newex 256 681 56 196617 zl join;#P newex 918 578 51 196617 tosymbol;#P newex 155 306 138 196617 t s s s;#P newex 247 737 82 196617 prepend subsym;#P newex 247 716 46 196617 pack s s;#P window linecount 4;#P newex 153 586 26 196617 s $1/fillmenu;#B color 11;#P window linecount 1;#P newex 219 536 62 196617 prepend set;#P newex 68 586 80 196617 prepend symbol;#P newex 133 561 53 196617 t s b s 0;#P newex 155 411 56 196617 route text;#P button 234 582 15 0;#P newex 155 432 51 196617 tosymbol;#P newex 155 348 20 196617 t s;#P newex 234 601 31 196617 t b 1;#N vpatcher 715 157 1334 620;#N comlet bang for direct;#P inlet 292 35 15 0;#P window setfont Times 9.;#P window linecount 0;#P message 465 254 54 1310729 in1 \, in1text \, in2 \, in2text;#P window setfont "Sans Serif" 9.;#P window linecount 1;#P newex 292 99 54 196617 onebang 1;#P window setfont Times 9.;#P window linecount 2;#P message 27 211 54 1310729 in1 \, in1text \, in2 \, in2text;#P button 292 61 15 0;#P window setfont "Sans Serif" 9.;#P window linecount 1;#P newex 292 132 31 196617 t b 2;#P window setfont Times 9.;#P window linecount 3;#P message 292 153 287 1310729 in1 \, in1text \, in2 \, in2text \, out1 \, out1text \, out2 \, out2text \, curve \, curvdisp \, curvetext \, fliph \, fliphtext \, flipv \, flipvtext \, offseth \, offsethtext \, offsetv \, offsetvtext \, trigmess \, trigmesstext \, bforbangtext \, outbang \, outtrigtext;#P button 26 358 15 0;#P window setfont "Sans Serif" 9.;#P window linecount 1;#P message 26 376 142 196617 script sendtoback background;#P newex 195 151 54 196617 onebang 1;#P newex 117 103 54 196617 onebang 1;#P newex 40 63 54 196617 onebang 1;#P newex 195 181 40 196617 t b 1 2;#P window setfont Times 9.;#P message 228 254 233 1310729 trigmess \, trigmesstext \, bforbangtext \, outbang \, outtrigtext;#P window setfont "Sans Serif" 9.;#P newex 200 272 38 196617 gate 2;#P newex 200 315 109 196617 sprintf script hide %s;#P newex 228 294 114 196617 sprintf script show %s;#P newex 61 272 38 196617 gate 2;#P newex 117 183 31 196617 t b 2;#P newex 40 165 31 196617 t b 1;#P newex 61 315 114 196617 sprintf script show %s;#P newex 89 294 109 196617 sprintf script hide %s;#P window setfont Times 9.;#P window linecount 2;#P message 89 211 291 1310729 out1 \, out1text \, out2 \, out2text \, curve \, curvdisp \, curvetext \, fliph \, fliphtext \, flipv \, flipvtext \, offseth \, offsethtext \, offsetv \, offsetvtext \, ramp \, ramptext;#N comlet bang if not trig;#P inlet 40 35 15 0;#N comlet bang if trig;#P inlet 117 35 15 0;#N comlet bang to show all;#P inlet 195 35 15 0;#P outlet 165 414 15 0;#P connect 6 0 19 0;#P connect 11 0 19 0;#P connect 5 0 19 0;#P connect 10 0 19 0;#P connect 19 0 18 0;#P connect 7 0 23 0;#P connect 3 0 15 0;#P connect 15 0 7 0;#P connect 8 1 9 0;#P connect 14 1 9 0;#P connect 21 1 9 0;#P connect 7 1 9 0;#P connect 9 0 6 0;#P connect 16 0 15 1;#P lcolor 15;#P connect 17 0 15 1;#P lcolor 7;#P connect 24 0 15 1;#P connect 8 0 4 0;#P connect 7 0 4 0;#P connect 14 0 4 0;#P connect 4 0 9 1;#P connect 20 0 9 1;#P connect 23 0 9 1;#P connect 9 1 5 0;#P connect 2 0 16 0;#P connect 16 0 8 0;#P connect 15 0 16 1;#P lcolor 2;#P connect 17 0 16 1;#P lcolor 7;#P connect 24 0 16 1;#P connect 18 0 0 0;#P connect 5 0 0 0;#P connect 6 0 0 0;#P connect 10 0 0 0;#P connect 11 0 0 0;#P connect 1 0 17 0;#P connect 17 0 14 0;#P connect 14 2 12 0;#P connect 7 1 12 0;#P connect 8 1 12 0;#P connect 12 0 11 0;#P connect 8 0 13 0;#P connect 7 0 13 0;#P connect 14 0 13 0;#P connect 13 0 12 1;#P connect 25 0 12 1;#P connect 12 1 10 0;#P connect 15 0 17 1;#P lcolor 2;#P connect 16 0 17 1;#P lcolor 15;#P connect 24 0 17 1;#P connect 26 0 22 0;#P connect 22 0 24 0;#P connect 24 0 21 0;#P connect 21 0 20 0;#P connect 15 0 24 1;#P connect 16 0 24 1;#P connect 17 0 24 1;#P connect 8 0 25 0;#P pop;#P newobj 291 474 113 196617 p hide/show;#B color 6;#P newex 885 464 20 196617 t b;#P newex 918 461 20 196617 t b;#P newex 885 485 31 196617 t set;#P newex 918 485 36 196617 zl reg;#P newex 918 515 62 196617 prepend set;#P message 944 322 14 196617 b;#P newex 918 556 56 196617 route text;#P newex 918 535 74 196617 pvar trigmess;#P newex 604 300 350 196617 t l 0 b;#P newex 849 528 57 196617 pvar ramp;#P message 849 509 39 196617 set \$1;#P newex 849 480 18 196617 t i;#P newex 849 423 92 196617 route int float;#P window setfont Times 9.;#P comment 40 46 32 1310729 /ramp;#B frgb 140 10 10;#P objectname ramptext;#P button 359 456 15 0;#P window setfont "Sans Serif" 9.;#P newex 370 334 27 196617 t b l;#P newex 370 371 36 196617 zl reg;#P newex 370 428 40 196617 t b b b;#P newex 765 384 73 196617 pvar curvdisp;#P comment 774 371 115 196617 lcd \, dimmenions 27X27;#B frgb 255 0 0;#P newex 765 355 87 196617 multicurvdisp 27;#B color 5;#P newex 561 526 63 196617 pvar type 2;#P newex 561 507 62 196617 prepend set;#P newex 749 526 67 196617 pvar offsetv;#P message 749 507 39 196617 set \$1;#P newex 720 486 66 196617 pvar offseth;#P newex 691 526 55 196617 pvar flipv;#P newex 662 486 54 196617 pvar fliph;#P newex 633 526 60 196617 pvar curve;#P message 720 467 39 196617 set \$1;#P message 691 507 39 196617 set \$1;#P message 662 467 39 196617 set \$1;#P message 633 507 39 196617 set \$1;#P newex 604 356 155 196617 unpack s 0. 0 0 0. 0.;#P newex 504 488 54 196617 pvar out2;#P newex 478 528 54 196617 pvar out1;#P newex 452 488 48 196617 pvar in2;#P newex 426 528 48 196617 pvar in1;#P message 504 469 39 196617 set \$1;#P message 478 509 39 196617 set \$1;#P message 452 469 39 196617 set \$1;#P message 426 509 39 196617 set \$1;#P newex 426 352 88 196617 unpack 0. 0. 0. 0.;#P newex 389 237 51 196617 zl ecils 1;#P newex 389 217 49 196617 zl rot -1;#P newex 219 625 525 196617 pack s 0. 0. 0. 0. s 0. 0 0 0. 0.;#P window linecount 2;#P comment 332 75 604 196617 "[destination et agruments]" \, [in1] [in2] [out1] [out2] [type (norm \, sym \, updwn trig)] [curve (-1. to 1.)] [fliph (0-1)] [flipv (0-1)] [offseth (-1. to 1.)] [offsetv (-1. to 1.)] "[trig message]";#P window linecount 1;#P newex 155 391 63 196617 pvar sendto;#P newex 155 370 62 196617 prepend set;#P newex 155 327 64 196617 fromsymbol;#P newex 415 288 69 196617 route symbol;#P message 389 198 156 196617 <none> 0 1 0 1 norm 0. 0 0 0. 0.;#N vpatcher 54 227 494 468;#P window setfont "Sans Serif" 9.;#P window linecount 6;#P comment 253 133 151 196617 re-modif by tom \, delete done in multimap module not in editor \, so that editor is not required for delete. here there is only "fillmenu" and "load first mapping into editor.";#B color 14;#P window linecount 1;#P newex 209 91 30 196617 t b b;#P newex 209 69 50 196617 deferlow;#B color 14;#P newex 209 46 117 196617 r $1/delete;#B color 14;#P window linecount 2;#P comment 253 96 160 196617 mod by reno- \; delete one mapping with its index \;;#B color 14;#P outlet 9 192 15 0;#P window linecount 1;#P newex 96 73 20 196617 t b;#N comlet just delete;#P inlet 96 51 15 0;#P window linecount 0;#P newex 43 191 144 196617 s $1/fillmenu;#B color 11;#P newex 43 70 30 196617 t b b;#P newex 63 119 75 196617 prepend delete;#N coll $1/data 1;#P newobj 63 141 147 196617 coll $1/data 1;#B color 5;#P newex 63 96 86 196617 zl reg;#P inlet 24 19 15 0;#N comlet delete + fill menu;#P inlet 56 47 15 0;#P connect 13 0 9 0;#P connect 5 0 9 0;#P connect 0 0 5 0;#P connect 13 1 6 0;#P connect 5 0 6 0;#P connect 8 0 2 0;#P connect 5 1 2 0;#P connect 2 0 4 0;#P connect 4 0 3 0;#P connect 7 0 8 0;#P fasten 1 0 2 1 29 41 144 41;#P lcolor 2;#P connect 11 0 12 0;#P connect 12 0 13 0;#P pop;#P newobj 522 268 85 196617 p delete_current;#B color 6;#P button 559 248 15 0;#N coll $1/data 1;#P newobj 219 782 147 196617 coll $1/data 1;#B color 5;#P newex 219 760 72 196617 prepend store;#P newex 559 228 76 196617 pvar deleteone;#P window setfont Times 9.;#P comment 410 17 49 1310729 /deleteone;#B frgb 0 0 200;#P button 454 16 13 4;#P objectname deleteone;#P window setfont "Sans Serif" 9.;#P newex 41 119 32 196617 del 1;#P newex 41 99 20 196617 t b;#P newex 66 99 102 196617 r $1;#B color 11;#P newex 79 150 20 196617 t b;#P window linecount 0;#P comment 0 803 100 196617;#P window setfont Times 9.;#P window linecount 1;#P comment 280 47 35 1310729 sendto;#P user textedit 309 44 467 60 32896 20 9 <none>;#P objectname sendto;#P window setfont "Sans Serif" 9.;#P newex 183 124 124 196617 t dump clear 1;#P message 79 170 60 196617 start \, next;#N coll $1/data 1;#P newobj 79 192 147 196617 coll $1/data 1;#B color 5;#P window setfont Times 9.;#P hidden comment 129 48 43 1310729 trigmess;#P objectname trigmesstext;#P button 325 456 15 0;#P button 291 456 15 0;#P window setfont "Sans Serif" 9.;#N thispatcher;#Q end;#P newobj 291 495 61 196617 thispatcher;#P newex 321 122 78 196617 t clear b;#P newex 321 101 123 196617 r $1/init;#B color 11;#P button 183 104 15 0;#P newex 183 80 144 196617 r $1/fillmenu;#B color 11;#P newex 263 222 97 196617 pvar destinations 2;#P window setfont Times 9.;#P flonum 129 45 42 9 0 0 0 20 0 0 0 221 221 221 222 222 222 0 0 0;#P objectname out2;#P comment 109 16 21 1310729 /in2;#B frgb 140 10 10;#P objectname in2text;#P flonum 129 16 42 9 0 0 0 20 0 0 0 221 221 221 222 222 222 0 0 0;#P objectname in2;#P window setfont "Sans Serif" 9.;#P newex 350 242 26 196617 t s;#P user lcd 249 2 29 29 0 1 0 0 0;#P objectname curvdisp;#P newex 370 311 51 196617 zl slice 4;#P window setfont Times 9.;#P comment 105 45 25 1310729 /out2;#B frgb 140 10 10;#P objectname out2text;#P comment 105 31 25 1310729 /out1;#B frgb 140 10 10;#P objectname out1text;#P comment 109 2 21 1310729 /in1;#B frgb 140 10 10;#P objectname in1text;#P flonum 129 31 42 9 0 0 0 20 0 0 0 221 221 221 222 222 222 0 0 0;#P objectname out1;#P flonum 129 2 42 9 0 0 0 20 0 0 0 221 221 221 222 222 222 0 0 0;#P objectname in1;#P comment 213 45 37 1310729 /offsetv;#B frgb 140 10 10;#P objectname offsetvtext;#P comment 213 31 37 1310729 /offseth;#B frgb 140 10 10;#P objectname offsethtext;#P comment 171 45 29 1310729 /flipv;#B frgb 140 10 10;#P objectname flipvtext;#P comment 171 31 29 1310729 /fliph;#B frgb 140 10 10;#P objectname fliphtext;#P toggle 199 45 14 0;#P objectname flipv;#P toggle 199 31 14 0;#P objectname fliph;#P comment 171 17 30 1310729 /curve;#B frgb 140 10 10;#P objectname curvetext;#P comment 175 2 25 1310729 /type;#B frgb 140 10 10;#P flonum 199 17 32 9 -1. 1. 3 20 0 0 0 221 221 221 222 222 222 0 0 0;#P objectname curve;#P flonum 249 45 32 9 -1. 1. 3 20 0 0 0 221 221 221 222 222 222 0 0 0;#P objectname offsetv;#P flonum 249 31 32 9 -1. 1. 3 20 0 0 0 221 221 221 222 222 222 0 0 0;#P objectname offseth;#P user ubumenu 199 2 42 1310729 0 1 1 0;#X add norm;#X add sym;#X add updwn;#X add trig;#X add direct;#X prefix_set 0 0 <none> 0;#P objectname type;#P window setfont "Sans Serif" 9.;#N coll $1/data 1;#P newobj 370 268 147 196617 coll $1/data 1;#B color 5;#P newex 263 195 78 196617 prepend append;#P newex 263 174 69 196617 route symbol;#P window setfont Times 9.;#P user ubumenu 309 29 158 1310729 0 1 1 0;#X prefix_set 0 0 <none> 0;#P objectname destinations;#P window setfont "Sans Serif" 9.;#N coll $1/data 1;#P newobj 218 154 147 196617 coll $1/data 1;#B color 5;#P newex 604 320 51 196617 zl slice 6;#P window setfont Times 9.;#P hidden user textedit 129 31 278 50 32896 20 9;#P objectname trigmess;#P comment 20 31 48 1310729 /slidedown;#B frgb 0 0 200;#P objectname ramptext[2];#P comment 31 17 37 1310729 /slideup;#B frgb 0 0 200;#P objectname ramptext[1];#P user panel 21 1 84 44;#X brgb 198 198 198;#X frgb 0 0 0;#X border 1;#X rounded 0;#X shadow 0;#X done;#P window setfont "Sans Serif" 9.;#P window linecount 2;#P comment 532 7 353 196617 arg 1 : prefix \; arg 2 : color scheme choice (0 = movie \, 1 = tape \, 2 = camtrk \, 3 = conduite);#P window linecount 1;#P comment 609 275 197 196617 <- modification inside for remote deleting;#B color 14;#P bpatcher 0 0 512 62 0 0 bkgnd12.mxt 0 $1 0 $2;#P background;#P objectname background;#P connect 159 0 148 0;#P connect 148 0 147 0;#P connect 52 0 53 0;#P connect 53 0 54 0;#P connect 117 0 168 0;#P connect 168 1 164 0;#P connect 134 0 121 0;#P connect 147 0 121 0;#P connect 120 0 121 0;#P connect 54 0 51 0;#P fasten 61 0 51 0 527 290 550 290 550 147 84 147;#P connect 51 0 46 0;#P fasten 121 0 45 0 73 607 36 607 36 188 84 188;#P connect 46 0 45 0;#P connect 166 0 167 0;#P connect 168 2 167 0;#P connect 167 0 169 0;#P fasten 168 0 167 1 57 480 106 480;#P connect 164 1 165 0;#P connect 165 0 166 0;#P connect 155 0 133 0;#P connect 133 0 135 0;#P connect 135 0 134 0;#P connect 169 0 120 0;#P connect 166 1 120 0;#P connect 151 0 152 0;#P connect 47 2 152 0;#P connect 152 0 153 0;#P connect 153 0 154 0;#P connect 135 1 123 0;#P connect 147 1 123 0;#P connect 120 1 123 0;#P connect 70 1 126 0;#P connect 63 0 126 0;#P connect 126 0 64 0;#P connect 64 0 116 0;#P connect 116 0 65 0;#P connect 65 0 66 0;#P connect 163 0 66 0;#P connect 66 0 119 0;#P connect 119 0 117 0;#P connect 131 0 142 0;#P connect 128 0 142 0;#P connect 47 0 150 0;#P connect 150 0 152 1;#P connect 115 1 149 0;#P lcolor 1;#P connect 147 3 149 0;#P lcolor 1;#P connect 120 3 149 0;#P lcolor 1;#P connect 37 0 38 0;#P connect 54 0 38 0;#P connect 38 0 47 0;#P connect 142 0 149 1;#P connect 47 0 8 0;#P connect 126 1 122 0;#P connect 122 0 68 0;#P connect 115 0 68 0;#P connect 147 2 68 0;#P connect 120 2 68 0;#P lcolor 1;#P fasten 137 0 131 0 854 655 224 655;#P lcolor 5;#P fasten 138 0 131 0 880 655 224 655;#P lcolor 5;#P fasten 130 0 131 0 939 655 224 655;#P lcolor 5;#P connect 135 2 58 0;#P fasten 128 0 58 0 261 706 224 706;#P connect 131 0 58 0;#P connect 125 0 59 0;#P connect 58 0 59 0;#P connect 106 0 118 0;#P connect 104 0 118 0;#P connect 90 0 118 0;#P connect 88 0 118 0;#P connect 87 0 118 0;#P connect 86 0 118 0;#P connect 85 0 118 0;#P connect 79 0 118 0;#P connect 78 0 118 0;#P connect 77 0 118 0;#P connect 76 0 118 0;#P connect 143 0 118 0;#P connect 118 0 115 0;#P connect 8 1 151 0;#P connect 169 1 124 0;#P connect 124 0 125 0;#P connect 68 0 131 1;#P connect 131 1 128 0;#P connect 8 1 10 0;#P connect 10 0 11 0;#P fasten 45 1 36 0 129 217 268 217;#P connect 11 0 36 0;#P connect 40 0 36 0;#P connect 47 1 36 0;#P connect 71 0 68 1;#P lcolor 1;#P connect 76 0 68 1;#P connect 126 2 124 1;#P connect 225 2 42 0;#P connect 42 0 114 0;#P connect 114 0 41 0;#P fasten 138 1 128 1 899 665 307 665;#P fasten 130 1 128 1 960 673 307 673;#P connect 39 0 40 0;#P connect 71 1 68 2;#P lcolor 1;#P connect 77 0 68 2;#P connect 96 0 43 0;#P connect 43 0 114 1;#P connect 149 0 32 0;#P lcolor 15;#P connect 36 1 32 0;#P connect 99 0 114 2;#P connect 32 0 12 0;#P connect 12 0 30 0;#P connect 70 0 30 0;#P connect 30 0 98 0;#P connect 98 0 97 0;#P connect 97 0 225 0;#P connect 143 2 225 0;#P lcolor 6;#P connect 225 0 96 0;#P connect 71 2 68 3;#P lcolor 1;#P connect 78 0 68 3;#P connect 40 1 62 0;#P connect 62 0 69 0;#P connect 69 0 70 0;#P connect 225 1 224 0;#P connect 224 0 114 3;#P connect 80 0 97 1;#P connect 224 0 226 0;#P connect 12 1 63 0;#P connect 158 0 161 0;#P connect 161 0 160 0;#P connect 71 3 68 4;#P lcolor 1;#P connect 79 0 68 4;#P connect 98 1 71 0;#P connect 71 0 72 0;#P connect 72 0 76 0;#P connect 71 1 73 0;#P connect 73 0 77 0;#P connect 80 0 68 5;#P lcolor 1;#P connect 143 1 68 5;#P connect 71 2 74 0;#P connect 74 0 78 0;#P fasten 208 0 205 0 494 143 487 143 487 101 494 101;#P connect 205 0 208 0;#P fasten 211 0 210 0 494 187 487 187 487 145 494 145;#P connect 210 0 211 0;#P connect 71 3 75 0;#P connect 75 0 79 0;#P connect 96 2 144 0;#P connect 32 0 61 0;#P connect 223 0 68 6;#P lcolor 1;#P connect 85 0 68 6;#P connect 57 0 60 0;#P connect 60 0 61 1;#P connect 80 0 91 0;#P connect 91 0 92 0;#P fasten 213 0 212 0 574 208 567 208 567 166 574 166;#P connect 212 0 213 0;#P connect 222 0 68 7;#P lcolor 1;#P connect 86 0 68 7;#P connect 30 1 105 0;#P connect 105 0 7 0;#P connect 7 0 80 0;#P connect 144 0 80 0;#P connect 139 0 157 0;#P connect 157 0 156 0;#P connect 92 1 143 0;#P connect 221 0 68 8;#P lcolor 1;#P connect 87 0 68 8;#P fasten 218 0 223 0 932 410 638 410;#P lcolor 5;#P connect 80 1 223 0;#P connect 223 0 81 0;#P connect 81 0 85 0;#P connect 174 0 175 0;#P connect 170 0 175 0;#P connect 170 0 177 0;#P fasten 218 0 222 0 932 410 667 410;#P lcolor 5;#P connect 80 2 222 0;#P connect 222 0 82 0;#P connect 82 0 86 0;#P connect 220 0 68 9;#P lcolor 1;#P connect 88 0 68 9;#P fasten 218 0 221 0 932 410 696 410;#P lcolor 5;#P connect 80 3 221 0;#P connect 221 0 83 0;#P connect 83 0 87 0;#P fasten 218 0 220 0 932 410 725 410;#P lcolor 5;#P connect 80 4 220 0;#P connect 220 0 84 0;#P connect 84 0 88 0;#P connect 219 0 68 10;#P lcolor 1;#P connect 90 0 68 10;#P fasten 218 0 219 0 932 410 754 410;#P lcolor 5;#P connect 80 5 219 0;#P connect 219 0 89 0;#P connect 89 0 90 0;#P connect 229 0 230 0;#P fasten 7 0 93 0 609 347 770 347;#P connect 93 0 95 0;#P connect 71 0 173 0;#P connect 173 0 174 0;#P connect 96 2 202 0;#P connect 202 0 200 0;#P connect 201 0 200 0;#P connect 196 0 200 0;#P connect 200 0 198 0;#P connect 198 0 180 0;#P connect 180 0 179 0;#P connect 179 0 178 0;#P connect 71 1 173 1;#P connect 126 2 229 0;#P connect 225 2 201 0;#P connect 198 1 181 0;#P connect 181 0 179 1;#P fasten 7 1 101 0 650 341 854 341;#P connect 105 1 102 0;#P connect 101 1 102 0;#P connect 101 0 102 0;#P connect 143 4 102 0;#P connect 218 0 102 0;#P connect 102 0 103 0;#P connect 103 0 104 0;#P fasten 102 0 136 0 854 502 841 502 841 564 854 564;#P lcolor 13;#P connect 104 0 136 0;#P connect 136 0 137 0;#P connect 227 0 183 0;#P connect 183 0 186 0;#P connect 186 0 185 0;#P connect 202 1 191 0;#P connect 191 0 179 3;#P connect 229 1 184 0;#P connect 184 0 228 0;#P connect 230 0 227 0;#P connect 228 0 227 0;#P connect 183 0 192 0;#P connect 136 1 138 0;#P connect 201 1 199 0;#P connect 199 0 179 4;#P connect 225 2 113 0;#P connect 113 0 111 0;#P connect 197 1 196 0;#P connect 226 0 196 0;#P connect 96 1 112 0;#P lcolor 15;#P connect 112 0 110 0;#P connect 110 0 109 0;#P connect 132 0 109 0;#P connect 111 0 106 0;#P connect 109 0 106 0;#P connect 106 0 107 0;#P connect 107 0 127 0;#P connect 132 0 127 0;#P connect 127 0 129 0;#P fasten 110 0 129 0 923 508 941 508 941 599 923 599;#P lcolor 13;#P connect 105 2 218 0;#P connect 129 1 130 0;#P connect 143 3 108 0;#P lcolor 6;#P connect 105 2 108 0;#P connect 101 2 110 1;#P connect 108 0 110 1;#P connect 71 2 187 0;#P connect 187 0 188 0;#P fasten 186 0 189 0 863 275 950 275;#P connect 188 0 189 0;#P connect 71 3 187 1;#P connect 129 0 132 0;#P pop;