max v2;#N vpatcher 111 44 1405 462;#P window setfont "Sans Serif" 9.;#P window linecount 1;#P newex 1051 96 237 196617 tm_editorbuilder /mapper /tapemovie 2 2 2 1000;#B color 6;#P button 1064 69 15 0;#P comment 1082 69 39 196617 delete;#P button 1051 48 15 0;#P comment 1068 48 31 196617 build;#N thispatcher;#Q end;#P newobj 1051 118 61 196617 thispatcher;#P window linecount 0;#P comment 2389 4011 100 196617;#P comment 1 1 100 196617;#P connect 4 0 7 0;#P connect 7 0 2 0;#P fasten 6 0 7 1 1069 90 1169 90;#P fasten 2 0 7 2 1056 140 1292 140 1292 92 1282 92;#P pop;