max v2;#N vpatcher 184 44 1007 535;#P outlet 505 445 15 0;#P window setfont "Sans Serif" 9.;#P window linecount 1;#P newex 670 335 20 196617 t b;#N comlet manual trig;#P inlet 670 317 15 0;#P newex 454 280 62 196617 prepend set;#P newex 620 184 20 196617 t b;#P newex 620 163 132 196617 r /regiontrig/assign/clear;#B color 11;#P message 486 202 14 196617 -;#P newex 549 299 38 196617 zl join;#P newex 549 276 36 196617 zl reg;#P newex 575 252 51 196617 route set;#P newex 268 276 112 196617 r /regiontrig/threshhi;#B color 11;#P newex 549 321 103 196617 s /regiontrig/assign;#B color 11;#P message 59 144 164 196617 $1;#P newex 13 144 44 196617 receive;#B color 11;#P newex 13 119 156 196617 sprintf set /regiontrig/%ld/list;#P newex 389 271 51 196617 zl join;#P newex 389 229 51 196617 t b s;#P message 389 251 37 196617 set \\\;;#P window linecount 2;#P message 389 382 249 196617 \; -;#P window linecount 1;#P message 447 78 21 196617 $3;#P message 412 78 21 196617 $2;#P message 358 78 48 196617 $1;#P newex 249 49 209 196617 t b b b b;#P newex 389 204 44 196617 receive;#B color 11;#P newex 389 179 226 196617 sprintf set /regiontrig/%ld/%ld-%ld/trigmess;#P newex 224 354 32 196617 sel 1;#P toggle 224 336 15 0;#P flonum 268 297 35 9 0 0 0 3 0 0 0 221 221 221 222 222 222 0 0 0;#P newex 224 316 54 196617 > 0.;#P outlet 454 300 15 0;#P window linecount 2;#P comment 562 97 222 196617 inlet 1 : region list defined by arg 1 columns \; outlet 1 : value of region list for given position;#P number 249 193 35 9 0 0 0 3 0 0 0 221 221 221 222 222 222 0 0 0;#P number 288 193 35 9 0 0 0 3 0 0 0 221 221 221 222 222 222 0 0 0;#P inlet 328 119 15 0;#P inlet 224 113 15 0;#P window linecount 1;#P newex 224 276 35 196617 zl nth;#P newex 249 28 48 196617 loadbang;#P message 249 140 72 196617 $2 $3;#P newex 288 211 27 196617 - 1;#P newex 249 249 27 196617 +;#P newex 288 231 80 196617 *;#P newex 249 172 49 196617 unpack;#P window linecount 3;#P comment 562 46 219 196617 arg 1 : number of columns \; arg 2 : position x (column number) to extract \; arg 3 : position y (row number) to extract;#P connect 21 0 28 0;#P connect 28 0 29 0;#P connect 28 0 30 0;#P connect 8 0 7 0;#P fasten 29 0 7 0 18 165 229 165;#P connect 7 0 14 0;#P connect 14 0 16 0;#P connect 16 0 17 0;#P connect 6 0 20 0;#P connect 20 0 5 0;#P connect 5 0 1 0;#P fasten 9 0 1 0 333 163 254 163;#P connect 1 0 11 0;#P connect 11 0 3 0;#P connect 3 0 7 1;#P connect 2 0 3 1;#P connect 32 0 15 0;#P connect 15 0 14 1;#P connect 1 1 10 0;#P connect 10 0 4 0;#P connect 4 0 2 0;#P connect 20 1 21 0;#P connect 21 0 2 1;#P connect 21 0 18 0;#P connect 18 0 19 0;#P connect 19 0 26 0;#P connect 36 0 26 0;#P connect 26 0 25 0;#P connect 25 0 27 0;#P fasten 17 0 24 0 229 376 394 376;#P connect 27 0 24 0;#P connect 41 0 24 0;#P connect 20 2 22 0;#P connect 26 1 27 1;#P connect 20 3 23 0;#P connect 26 1 39 0;#P connect 39 0 13 0;#P connect 38 0 36 0;#P fasten 22 0 18 1 417 172 502 172;#P connect 17 0 42 0;#P connect 26 0 34 0;#P connect 34 0 35 0;#P connect 35 0 31 0;#P connect 18 0 33 0;#P connect 33 0 34 1;#P connect 26 1 35 1;#P fasten 23 0 18 2 452 163 610 163;#P connect 37 0 38 0;#P connect 40 0 41 0;#P pop;