max v2;#N vpatcher 12 178 665 499;#P window setfont "Sans Serif" 9.;#P window linecount 1;#P newex 13 108 147 196617 r /tapemovie/registers/clear;#B color 12;#P newex 417 46 123 196617 s control_register/store;#B color 12;#P newex 417 25 93 196617 r control_register;#B color 12;#P newex 417 69 123 196617 r control_register/store;#B color 12;#P newex 404 202 70 196617 pak remove s;#P newex 464 168 133 196617 r control_register/remove;#B color 12;#P newex 183 46 122 196617 s module_register/store;#B color 12;#P newex 183 25 92 196617 r module_register;#B color 12;#P newex 169 202 70 196617 pak remove s;#P newex 229 168 132 196617 r module_register/remove;#B color 12;#P newex 13 131 77 196617 loadmess clear;#P newex 388 152 69 196617 pak store s 0;#N coll controllers 1;#P newobj 388 230 88 196617 coll controllers 1;#B color 5;#P newex 154 152 69 196617 pak store s 0;#P newex 183 69 122 196617 r module_register/store;#B color 12;#N coll modules 1;#P newobj 154 230 74 196617 coll modules 1;#B color 5;#P newex 435 97 128 196617 print storecontrolregister;#P newex 221 97 127 196617 print storemoduleregister;#P connect 17 0 7 0;#P connect 7 0 2 0;#P connect 9 0 2 0;#P connect 4 0 2 0;#P connect 10 0 11 0;#P connect 3 0 4 1;#P connect 8 0 9 1;#P connect 6 0 5 0;#P connect 13 0 5 0;#P connect 7 0 5 0;#P connect 15 0 16 0;#P connect 14 0 6 1;#P connect 12 0 13 1;#P pop;