max v2;#N vpatcher 65 44 1005 634;#P origin 0 -7;#P window setfont "Sans Serif" 9.;#P window linecount 1;#P newex 457 228 21 196617 t 1;#P flonum 51 63 35 9 0 0 0 3 0 0 0 221 221 221 222 222 222 0 0 0;#P number 50 133 23 9 0 0 0 3 0 0 0 221 221 221 222 222 222 0 0 0;#P window linecount 3;#P comment 530 519 344 196617 "trig" mode: inmin < inmax \, trig on thresh up plus grand ou Žgale ˆ inmax \; inmin > inmax \, trig on thresh down moins que ou egale ˆ inmax \; inmin = inmax \, trig on inmax ou trig quand valeur traverse inmax \;;#P window linecount 1;#P newex 50 153 47 196617 gate 3 2;#N vpatcher 535 102 984 640;#N comlet trig bang out;#P outlet 138 494 15 0;#P window setfont "Sans Serif" 9.;#P window linecount 0;#P newex 332 392 36 196617 t stop;#P newex 124 379 20 196617 t b;#P newex 22 347 32 196617 sel 1;#P newex 22 325 27 196617 > 0.;#P newex 84 346 32 196617 sel 1;#P newex 84 324 27 196617 < 0.;#P newex 283 391 44 196617 t stop b;#P button 317 457 15 0;#P newex 283 369 32 196617 sel 1;#P toggle 283 350 15 0;#P newex 283 329 34 196617 == 0.;#P button 236 457 15 0;#P button 186 457 15 0;#P newex 186 370 32 196617 sel 1;#P newex 236 426 45 196617 onebang;#P newex 186 427 45 196617 onebang;#P newex 236 368 32 196617 sel 1;#P toggle 186 350 15 0;#P toggle 236 349 15 0;#P newex 186 330 27 196617 < 0.;#P newex 236 329 27 196617 > 0.;#P newex 184 246 19 196617 t f;#P button 72 457 15 0;#P button 11 457 15 0;#P newex 11 409 45 196617 onebang;#P newex 72 409 45 196617 onebang;#P newex 72 377 32 196617 sel 1;#P newex 11 303 33 196617 <= 0.;#P newex 72 303 33 196617 >= 0.;#P newex 11 377 32 196617 sel 1;#P newex 332 115 18 196617 t i;#P newex 151 115 18 196617 t i;#P newex 126 244 29 196617 gate;#P newex 68 244 29 196617 gate;#P newex 11 244 29 196617 gate;#N comlet val;#P inlet 72 22 15 0;#P comment 88 22 22 196617 val;#P comment 291 22 22 196617 in2;#P window linecount 2;#P comment 193 159 75 196617 1 if left=right \, otherwise 0;#P comment 338 133 71 196617 1 if right>left \, otherwise 0;#P toggle 178 159 15 0;#P window linecount 1;#P newex 178 138 31 196617 == 0;#P newex 178 118 91 196617 ||;#P toggle 259 99 15 0;#P toggle 178 99 15 0;#P newex 259 79 27 196617 < 0.;#P newex 178 40 108 196617 bondo 2;#P newex 178 79 27 196617 > 0.;#N comlet in2;#P inlet 276 22 15 0;#N comlet in1;#P inlet 178 22 15 0;#P window linecount 2;#P comment 80 115 71 196617 1 if left>right \, otherwise 0;#P window linecount 1;#P comment 194 22 22 196617 in1;#P connect 20 0 17 0;#P connect 17 0 24 0;#P connect 24 0 22 0;#P connect 22 0 27 0;#P connect 27 0 28 0;#P connect 17 0 48 0;#P connect 48 0 49 0;#P connect 16 0 17 1;#P connect 30 0 24 1;#P connect 30 0 48 1;#P connect 50 0 27 1;#P fasten 49 0 27 1 27 372 51 372;#P connect 11 0 18 0;#P connect 19 0 23 0;#P connect 23 0 25 0;#P connect 25 0 26 0;#P connect 26 0 29 0;#P connect 19 0 46 0;#P connect 46 0 47 0;#P connect 16 0 18 1;#P connect 30 0 23 1;#P connect 30 0 46 1;#P fasten 47 0 26 1 89 370 112 370;#P connect 50 0 26 1;#P connect 21 0 50 0;#P connect 21 0 19 0;#P connect 28 0 52 0;#P connect 29 0 52 0;#P connect 39 0 52 0;#P connect 40 0 52 0;#P connect 44 0 52 0;#P connect 16 0 19 1;#P connect 7 0 20 0;#P connect 2 0 5 0;#P connect 5 0 4 0;#P connect 4 0 7 0;#P connect 7 0 9 0;#P connect 9 0 10 0;#P connect 10 0 11 0;#P connect 5 1 30 0;#P connect 18 0 32 0;#P connect 32 0 34 0;#P connect 34 0 38 0;#P connect 38 0 36 0;#P connect 51 0 36 0;#P connect 45 0 36 0;#P connect 36 0 39 0;#P connect 5 1 4 1;#P connect 30 0 32 1;#P connect 35 0 36 1;#P connect 18 0 31 0;#P connect 31 0 33 0;#P connect 33 0 35 0;#P connect 35 0 37 0;#P connect 45 0 37 0;#P connect 51 0 37 0;#P connect 37 0 40 0;#P connect 30 0 31 1;#P connect 5 0 6 0;#P connect 6 0 8 0;#P connect 8 0 9 1;#P connect 38 0 37 1;#P connect 3 0 5 1;#P connect 5 1 6 1;#P connect 18 0 41 0;#P connect 41 0 42 0;#P connect 42 0 43 0;#P connect 43 0 45 0;#P connect 30 0 41 1;#P connect 45 1 44 0;#P connect 8 0 21 0;#P connect 21 0 51 0;#P pop;#P newobj 221 196 70 196617 p thresh_trig;#B color 5;#P comment 530 496 255 196617 N.B. in "trig" mode \, only "inmin" and "inmax" function;#N comlet bang out (for trig mode);#P outlet 221 469 15 0;#P comment 237 469 117 196617 bang out (for trig mode);#P newex 420 228 21 196617 t 3;#P newex 494 228 29 196617 t l 2;#P newex 420 207 84 196617 route trig direct;#P newex 535 129 32 196617 sel 0;#P newex 283 165 147 196617 zl slice 4;#P newex 557 152 64 196617 fromsymbol;#P window setfont "Sans Serif" 18.;#P comment 530 317 135 196626 scalemulticurv;#P window setfont "Sans Serif" 9.;#P flonum 715 231 35 9 0 0 0 3 0 0 0 221 221 221 222 222 222 0 0 0;#P newex 513 183 27 196617 t l l;#P newex 535 87 48 196617 loadbang;#P message 535 107 317 196617 $5;#P window linecount 6;#P comment 530 361 379 196617 arg 1 : in1 \; arg 2 : in2 \; arg 3 : out1 \; arg 4 : out2 \; arg 5 : multiplexed params in "": "[type (norm" \, sym \, updwn \, trig)] [curve (-1. to 1.)] [fliph (0-1)] [flipv (0-1)] [offseth (-1. to 1.)] [offsetv (-1. to 1.)];#N comlet params : [type] [curve (norm \, sym \, updwn] [fliph (0-1)] [flipv (0-1)] [offseth (-1. to 1.)] [offsetv (-1. to 1.)];#P inlet 513 35 15 0;#P window linecount 2;#P comment 533 35 379 196617 params : [type (norm \, sym \, updwn \, trig)] [curve (-1. to 1.)] [fliph (0-1)] [flipv (0-1)] [offseth (-1. to 1.)] [offsetv (-1. to 1.)];#P window linecount 1;#P comment 530 460 109 196617 contact@tommays.net;#P comment 530 447 100 196617 patch by Tom Mays;#P newex 87 302 54 196617 multicurv;#B color 6;#P newex 130 84 89 196617 route int float list;#P newex 122 153 45 196617 minmaxf;#P newex 273 356 106 196617 minmaxf;#P newex 87 186 81 196617 clip 0. 127.;#P newex 306 115 45 196617 loadbang;#P newex 306 202 88 196617 unpack 0. 0. 0. 0.;#P message 306 138 173 196617 $1 $2 $3 $4;#P newex 251 112 27 196617 f;#P newex 130 112 27 196617 f;#P newex 87 406 196 196617 clip 0. 127.;#P newex 369 309 27 196617 f;#P newex 273 309 27 196617 f;#N comlet output max;#P inlet 369 289 15 0;#P comment 385 289 58 196617 output max;#N comlet output min;#P inlet 273 289 15 0;#P comment 289 289 55 196617 output min;#P newex 87 360 114 196617 scale 0. 1. 0. 127.;#N comlet input max;#P inlet 251 21 15 0;#P comment 267 21 52 196617 input max;#P newex 87 266 99 196617 scale 0. 127. 0. 1.;#N comlet int value out;#P outlet 162 505 15 0;#P window linecount 2;#P comment 178 505 49 196617 int value out;#P window linecount 1;#P newex 162 437 32 196617 + 0.5;#N comlet input min or [min/max in] [min/max out] [curve] list;#P inlet 130 21 15 0;#N comlet float value out;#P outlet 87 505 15 0;#N comlet value in;#P inlet 87 21 15 0;#P window linecount 2;#P comment 103 505 49 196617 float value out;#P window linecount 5;#P comment 145 21 82 196617 input min or [min/max in] [min/max out] [multicurv params] list;#P window linecount 1;#P comment 43 21 43 196617 value in;#P window linecount 0;#P message 530 284 317 196617;#P window linecount 1;#P newex 530 260 62 196617 prepend set;#P flonum 678 231 35 9 0 0 0 3 0 0 0 221 221 221 222 222 222 0 0 0;#P flonum 641 231 35 9 0 0 0 3 0 0 0 221 221 221 222 222 222 0 0 0;#P flonum 604 231 35 9 0 0 0 3 0 0 0 221 221 221 222 222 222 0 0 0;#P flonum 567 231 35 9 0 0 0 3 0 0 0 221 221 221 222 222 222 0 0 0;#P newex 530 207 197 196617 unpack s 0. 0. 0. 0. 0.;#P fasten 61 0 59 0 462 253 30 253 30 126 55 126;#P fasten 51 1 59 0 518 251 32 251 32 128 55 128;#P lcolor 2;#P fasten 52 0 59 0 425 249 34 249 34 130 55 130;#P lcolor 8;#P connect 59 0 57 0;#P connect 60 0 57 1;#P connect 10 0 57 1;#P connect 57 1 32 0;#P connect 32 0 16 0;#P connect 16 0 36 0;#P connect 36 0 19 0;#P connect 19 0 26 0;#P fasten 57 0 11 0 55 490 92 490;#P lcolor 13;#P connect 26 0 11 0;#P fasten 27 0 16 1 135 208 109 208;#P connect 28 0 16 2;#P connect 27 0 34 0;#P connect 34 0 32 1;#P connect 12 0 35 0;#P connect 35 0 27 0;#P connect 35 1 27 0;#P connect 30 0 27 0;#P lcolor 1;#P connect 51 0 36 1;#P connect 24 0 19 3;#P connect 28 0 34 1;#P connect 34 1 32 2;#P fasten 26 0 13 0 92 430 167 430;#P fasten 57 0 15 0 55 483 167 483;#P lcolor 13;#P connect 13 0 15 0;#P connect 25 0 19 4;#P fasten 33 0 26 1 278 387 185 387;#P connect 57 2 56 0;#P connect 56 0 54 0;#P connect 18 0 28 0;#P connect 30 1 28 0;#P lcolor 1;#P connect 27 0 56 1;#P connect 21 0 24 0;#P connect 30 2 24 0;#P lcolor 1;#P connect 24 0 33 0;#P fasten 33 1 26 2 374 397 278 397;#P connect 28 0 56 2;#P connect 35 2 48 0;#P connect 31 0 29 0;#P connect 48 0 30 0;#P connect 29 0 30 0;#P connect 23 0 25 0;#P connect 30 3 25 0;#P lcolor 1;#P connect 25 0 33 1;#P connect 48 1 50 0;#P connect 44 0 50 0;#P connect 50 0 52 0;#P connect 50 1 61 0;#P connect 50 2 51 0;#P connect 40 0 44 0;#P connect 47 0 44 0;#P connect 44 1 0 0;#P connect 0 0 5 0;#P connect 5 0 6 0;#P connect 43 0 42 0;#P connect 42 0 49 0;#P connect 49 1 47 0;#P connect 0 1 1 0;#P connect 0 2 2 0;#P connect 0 3 3 0;#P connect 0 4 4 0;#P connect 0 5 45 0;#P pop;