max v2;#N vpatcher 147 44 1278 644;#P origin 0 -7;#P window setfont "Sans Serif" 9.;#P window linecount 1;#P newex 494 255 51 196617 zl ecils 1;#N vpatcher 10 59 314 314;#P window setfont "Sans Serif" 9.;#P number 39 179 35 9 0 0 0 3 0 0 0 221 221 221 222 222 222 0 0 0;#P window linecount 1;#P newex 78 148 21 196617 t 0;#P outlet 39 204 15 0;#P window linecount 0;#P newex 39 62 30 196617 t s b;#P newex 39 148 21 196617 t 1;#P newex 39 85 215 196617 route clip reject both high low none wrap fold;#P inlet 39 42 15 0;#P connect 0 0 3 0;#P connect 3 0 1 0;#P connect 3 1 2 0;#P connect 1 8 2 0;#P connect 1 7 2 0;#P connect 1 6 2 0;#P connect 1 4 2 0;#P connect 1 3 2 0;#P connect 1 2 2 0;#P connect 1 0 2 0;#P connect 5 0 6 0;#P connect 2 0 6 0;#P connect 6 0 4 0;#P connect 1 5 5 0;#P connect 1 1 5 0;#P pop;#P newobj 535 279 63 196617 p clip_mode;#B color 6;#P window linecount 2;#P comment 644 545 344 196617 if clipmode is "reject" \, incoming values outside of scale range are rejected. If it is "clip" \, they are clipped. The default value is "clip".;#P number 879 227 35 9 0 0 0 3 0 0 0 221 221 221 222 222 222 0 0 0;#P window linecount 1;#P newex 116 207 47 196617 gate 1 1;#P newex 116 227 81 196617 clip 0. 127.;#P newex 457 228 21 196617 t 1;#P flonum 51 63 35 9 0 0 0 3 0 0 0 221 221 221 222 222 222 0 0 0;#P number 50 133 23 9 0 0 0 3 0 0 0 221 221 221 222 222 222 0 0 0;#P window linecount 3;#P comment 644 500 344 196617 "trig" mode: inmin < inmax \, trig on thresh up plus grand ou Žgale ˆ inmax \; inmin > inmax \, trig on thresh down moins que ou egale ˆ inmax \; inmin = inmax \, trig on inmax ou trig quand valeur traverse inmax \;;#P window linecount 1;#P newex 50 153 47 196617 gate 3 2;#N vpatcher 535 102 984 640;#N comlet trig bang out;#P outlet 138 494 15 0;#P window setfont "Sans Serif" 9.;#P window linecount 0;#P newex 332 392 36 196617 t stop;#P newex 124 379 20 196617 t b;#P newex 22 347 32 196617 sel 1;#P newex 22 325 27 196617 > 0.;#P newex 84 346 32 196617 sel 1;#P newex 84 324 27 196617 < 0.;#P newex 283 391 44 196617 t stop b;#P button 317 457 15 0;#P newex 283 369 32 196617 sel 1;#P toggle 283 350 15 0;#P newex 283 329 34 196617 == 0.;#P button 236 457 15 0;#P button 186 457 15 0;#P newex 186 370 32 196617 sel 1;#P newex 236 426 45 196617 onebang;#P newex 186 427 45 196617 onebang;#P newex 236 368 32 196617 sel 1;#P toggle 186 350 15 0;#P toggle 236 349 15 0;#P newex 186 330 27 196617 < 0.;#P newex 236 329 27 196617 > 0.;#P newex 184 246 19 196617 t f;#P button 72 457 15 0;#P button 11 457 15 0;#P newex 11 409 45 196617 onebang;#P newex 72 409 45 196617 onebang;#P newex 72 377 32 196617 sel 1;#P newex 11 303 33 196617 <= 0.;#P newex 72 303 33 196617 >= 0.;#P newex 11 377 32 196617 sel 1;#P newex 332 115 18 196617 t i;#P newex 151 115 18 196617 t i;#P newex 126 244 29 196617 gate;#P newex 68 244 29 196617 gate;#P newex 11 244 29 196617 gate;#N comlet val;#P inlet 72 22 15 0;#P comment 88 22 22 196617 val;#P comment 291 22 22 196617 in2;#P window linecount 2;#P comment 193 159 75 196617 1 if left=right \, otherwise 0;#P comment 338 133 71 196617 1 if right>left \, otherwise 0;#P toggle 178 159 15 0;#P window linecount 1;#P newex 178 138 31 196617 == 0;#P newex 178 118 91 196617 ||;#P toggle 259 99 15 0;#P toggle 178 99 15 0;#P newex 259 79 27 196617 < 0.;#P newex 178 40 108 196617 bondo 2;#P newex 178 79 27 196617 > 0.;#N comlet in2;#P inlet 276 22 15 0;#N comlet in1;#P inlet 178 22 15 0;#P window linecount 2;#P comment 80 115 71 196617 1 if left>right \, otherwise 0;#P window linecount 1;#P comment 194 22 22 196617 in1;#P connect 20 0 17 0;#P connect 17 0 24 0;#P connect 24 0 22 0;#P connect 22 0 27 0;#P connect 27 0 28 0;#P connect 17 0 48 0;#P connect 48 0 49 0;#P connect 16 0 17 1;#P connect 30 0 24 1;#P connect 30 0 48 1;#P connect 50 0 27 1;#P fasten 49 0 27 1 27 372 51 372;#P connect 11 0 18 0;#P connect 19 0 23 0;#P connect 23 0 25 0;#P connect 25 0 26 0;#P connect 26 0 29 0;#P connect 19 0 46 0;#P connect 46 0 47 0;#P connect 16 0 18 1;#P connect 30 0 23 1;#P connect 30 0 46 1;#P fasten 47 0 26 1 89 370 112 370;#P connect 50 0 26 1;#P connect 21 0 50 0;#P connect 21 0 19 0;#P connect 28 0 52 0;#P connect 29 0 52 0;#P connect 39 0 52 0;#P connect 40 0 52 0;#P connect 44 0 52 0;#P connect 16 0 19 1;#P connect 7 0 20 0;#P connect 2 0 5 0;#P connect 5 0 4 0;#P connect 4 0 7 0;#P connect 7 0 9 0;#P connect 9 0 10 0;#P connect 10 0 11 0;#P connect 5 1 30 0;#P connect 18 0 32 0;#P connect 32 0 34 0;#P connect 34 0 38 0;#P connect 38 0 36 0;#P connect 51 0 36 0;#P connect 45 0 36 0;#P connect 36 0 39 0;#P connect 5 1 4 1;#P connect 30 0 32 1;#P connect 35 0 36 1;#P connect 18 0 31 0;#P connect 31 0 33 0;#P connect 33 0 35 0;#P connect 35 0 37 0;#P connect 45 0 37 0;#P connect 51 0 37 0;#P connect 37 0 40 0;#P connect 30 0 31 1;#P connect 5 0 6 0;#P connect 6 0 8 0;#P connect 8 0 9 1;#P connect 38 0 37 1;#P connect 3 0 5 1;#P connect 5 1 6 1;#P connect 18 0 41 0;#P connect 41 0 42 0;#P connect 42 0 43 0;#P connect 43 0 45 0;#P connect 30 0 41 1;#P connect 45 1 44 0;#P connect 8 0 21 0;#P connect 21 0 51 0;#P pop;#P newobj 221 196 70 196617 p thresh_trig;#B color 5;#P comment 644 477 255 196617 N.B. in "trig" mode \, only "inmin" and "inmax" function;#N comlet bang out (for trig mode);#P outlet 221 469 15 0;#P comment 237 469 117 196617 bang out (for trig mode);#P newex 420 228 21 196617 t 3;#P newex 494 228 29 196617 t l 2;#P newex 420 207 84 196617 route trig direct;#P newex 649 125 32 196617 sel 0;#P newex 283 165 147 196617 zl slice 4;#P newex 671 148 64 196617 fromsymbol;#P window setfont "Sans Serif" 18.;#P comment 644 313 135 196626 scalemulticurv;#P window setfont "Sans Serif" 9.;#P flonum 829 227 35 9 0 0 0 3 0 0 0 221 221 221 222 222 222 0 0 0;#P newex 627 173 27 196617 t l l;#P newex 649 83 48 196617 loadbang;#P message 649 103 317 196617 $5;#P window linecount 6;#P comment 644 357 437 196617 arg 1 : in1 \; arg 2 : in2 \; arg 3 : out1 \; arg 4 : out2 \; arg 5 : multiplexed params in "": "[type (norm" \, sym \, updwn \, trig)] [curve (-1. to 1.)] [fliph (0-1)] [flipv (0-1)] [offseth (-1. to 1.)] [offsetv (-1. to 1.)] [clipmode (clip \, reject \, etc)];#N comlet params : [type] [curve (norm \, sym \, updwn] [fliph (0-1)] [flipv (0-1)] [offseth (-1. to 1.)] [offsetv (-1. to 1.)];#P inlet 627 31 15 0;#P window linecount 2;#P comment 647 31 379 196617 params : [type (norm \, sym \, updwn \, trig)] [curve (-1. to 1.)] [fliph (0-1)] [flipv (0-1)] [offseth (-1. to 1.)] [offsetv (-1. to 1.)] [clipmode (clip \, reject \, etc)];#P window linecount 1;#P comment 644 456 109 196617 contact@tommays.net;#P comment 644 443 100 196617 patch by Tom Mays;#P newex 87 302 54 196617 multicurv;#B color 6;#P newex 130 84 89 196617 route int float list;#P newex 122 153 45 196617 minmaxf;#P newex 87 186 81 196617 split 0. 127.;#P newex 306 115 45 196617 loadbang;#P newex 306 202 88 196617 unpack 0. 0. 0. 0.;#P message 306 138 173 196617 $1 $2 $3 $4;#P newex 251 112 27 196617 f;#P newex 130 112 27 196617 f;#P newex 369 327 27 196617 f;#P newex 273 327 27 196617 f;#N comlet output max;#P inlet 369 307 15 0;#P comment 385 307 58 196617 output max;#N comlet output min;#P inlet 273 307 15 0;#P comment 289 307 55 196617 output min;#P newex 87 365 114 196617 scale 0. 1. 0. 127.;#N comlet input max;#P inlet 251 21 15 0;#P comment 267 21 52 196617 input max;#P newex 87 266 99 196617 scale 0. 127. 0. 1.;#N comlet int value out;#P outlet 162 505 15 0;#P window linecount 2;#P comment 178 505 49 196617 int value out;#P window linecount 1;#P newex 162 450 32 196617 + 0.5;#N comlet input min or [min/max in] [min/max out] [curve] list;#P inlet 130 21 15 0;#N comlet float value out;#P outlet 87 505 15 0;#N comlet value in;#P inlet 87 21 15 0;#P window linecount 2;#P comment 103 505 49 196617 float value out;#P window linecount 5;#P comment 145 21 82 196617 input min or [min/max in] [min/max out] [multicurv params] list;#P window linecount 1;#P comment 43 21 43 196617 value in;#P message 644 280 317 196617 $5;#P newex 644 256 62 196617 prepend set;#P flonum 792 227 35 9 0 0 0 3 0 0 0 221 221 221 222 222 222 0 0 0;#P flonum 755 227 35 9 0 0 0 3 0 0 0 221 221 221 222 222 222 0 0 0;#P flonum 718 227 35 9 0 0 0 3 0 0 0 221 221 221 222 222 222 0 0 0;#P flonum 681 227 35 9 0 0 0 3 0 0 0 221 221 221 222 222 222 0 0 0;#P newex 644 203 232 196617 unpack s 0. 0. 0. 0. 0. 0;#P comment 915 227 64 196617 scale reject;#P window linecount 4;#P comment 109 386 89 196617 don't need output clip \, because redundant since input is clipped;#P fasten 61 0 59 0 462 253 30 253 30 126 55 126;#P fasten 51 1 59 0 518 251 32 251 32 128 55 128;#P lcolor 2;#P fasten 52 0 59 0 425 249 34 249 34 130 55 130;#P lcolor 8;#P connect 59 0 57 0;#P connect 60 0 57 1;#P connect 12 0 57 1;#P connect 57 1 33 0;#P connect 62 0 18 0;#P connect 33 0 18 0;#P connect 18 0 36 0;#P connect 36 0 21 0;#P fasten 57 0 13 0 55 490 92 490;#P lcolor 13;#P connect 21 0 13 0;#P fasten 28 0 18 1 135 137 109 137;#P connect 66 0 63 0;#P connect 63 0 62 0;#P connect 29 0 18 2;#P connect 28 0 34 0;#P connect 34 0 33 1;#P connect 14 0 35 0;#P connect 35 0 28 0;#P connect 35 1 28 0;#P connect 31 0 28 0;#P lcolor 1;#P connect 67 0 36 1;#P connect 26 0 21 3;#P connect 34 0 62 1;#P connect 33 1 63 1;#P connect 29 0 34 1;#P connect 34 1 33 2;#P fasten 21 0 15 0 92 438 167 438;#P fasten 57 0 17 0 55 483 167 483;#P lcolor 13;#P connect 15 0 17 0;#P connect 27 0 21 4;#P connect 34 1 62 2;#P connect 57 2 56 0;#P connect 56 0 54 0;#P connect 20 0 29 0;#P connect 31 1 29 0;#P lcolor 1;#P connect 28 0 56 1;#P connect 23 0 26 0;#P connect 31 2 26 0;#P lcolor 1;#P connect 29 0 56 2;#P connect 35 2 48 0;#P connect 32 0 30 0;#P connect 48 0 31 0;#P connect 30 0 31 0;#P connect 25 0 27 0;#P connect 31 3 27 0;#P lcolor 1;#P connect 48 1 50 0;#P connect 44 0 50 0;#P connect 50 0 52 0;#P connect 50 1 61 0;#P connect 50 2 51 0;#P connect 51 0 67 0;#P connect 67 1 66 0;#P connect 40 0 44 0;#P connect 47 0 44 0;#P connect 44 1 2 0;#P connect 2 0 7 0;#P connect 7 0 8 0;#P connect 43 0 42 0;#P connect 42 0 49 0;#P connect 49 1 47 0;#P connect 2 1 3 0;#P connect 2 2 4 0;#P connect 2 3 5 0;#P connect 2 4 6 0;#P connect 2 5 45 0;#P connect 2 6 64 0;#P pop;