max v2;#N vpatcher 20 85 420 385;#P origin 0 -25;#P window setfont "Sans Serif" 9.;#P window linecount 1;#P newex 180 44 30 196617 f $1;#P newex 70 134 50 196617 gate 2 1;#P newex 138 101 27 196617 + 1;#P newex 138 79 35 196617 == 0.;#N comlet in;#P inlet 110 80 15 0;#N comlet smoothing coef (0.-1.);#P inlet 180 21 15 0;#P flonum 202 158 35 9 0 0 0 3 0 0 0 221 221 221 222 222 222 0 0 0;#P newex 202 134 28 196617 !- 1.;#P flonum 180 81 35 9 0 0 0 3 0 0 0 221 221 221 222 222 222 0 0 0;#P newex 110 163 39 196617 * 0.25;#P newex 151 163 39 196617 * 0.75;#P newex 134 191 27 196617 + 0.;#N comlet out;#P outlet 134 268 15 0;#P connect 10 0 11 0;#P connect 8 0 11 1;#P connect 11 1 3 0;#P connect 3 0 1 0;#P connect 1 0 0 0;#P fasten 11 0 0 0 75 236 139 236;#P connect 12 0 9 0;#P connect 9 0 10 0;#P connect 6 0 3 1;#P fasten 1 0 2 0 139 214 186 214 186 152 156 152;#P connect 2 0 1 1;#P connect 7 0 12 0;#P connect 12 0 4 0;#P connect 4 0 2 1;#P connect 4 0 5 0;#P connect 5 0 6 0;#P pop;