max v2;#N vpatcher 28 157 600 599;#N comlet ramped \, speedlimited val out;#P outlet 43 393 15 0;#P window setfont "Sans Serif" 9.;#P window linecount 1;#P newex 22 110 127 196617 t f f b;#N comlet speedlim;#P inlet 197 36 15 0;#N comlet rampdown;#P inlet 520 36 15 0;#N comlet rampup;#P inlet 459 36 15 0;#N comlet val in;#P inlet 22 36 15 0;#P newex 197 270 62 196617 maximum 1;#P newex 197 248 27 196617 / 5.;#P newex 43 325 52 196617 change 0.;#P newex 22 84 49 196617 speedlim;#P newex 43 366 136 196617 speedlim;#P newex 114 179 32 196617 sel 1;#P newex 114 157 34 196617 == 0.;#P newex 114 199 21 196617 t 0;#P newex 78 200 21 196617 t 2;#P newex 43 200 21 196617 t 1;#P newex 78 179 32 196617 sel 1;#P newex 43 179 32 196617 sel 1;#P newex 43 228 49 196617 gate 2;#P newex 43 157 27 196617 > 0.;#P newex 78 157 27 196617 < 0.;#P flonum 43 346 35 9 0 0 0 3 0 0 0 221 221 221 222 222 222 0 0 0;#P newex 138 131 27 196617 f;#P newex 102 270 51 196617 pack 0. 5;#P newex 43 270 51 196617 pack 0. 5;#P newex 43 300 47 196617 line 0. 5;#P window linecount 3;#P comment 291 346 169 196617 arg 1 : speedlim time (def = 20) \; arg 2 : ramp up val ms (def = 5) \; arg 3 : ramp down val ms (def = 5);#P window linecount 1;#P message 462 76 53 196617 $3;#P newex 462 120 21 196617 t 5;#P newex 462 99 51 196617 sel 0;#P flonum 462 143 35 9 0 0 0 3 0 0 0 221 221 221 222 222 222 0 0 0;#P message 397 76 53 196617 $2;#P newex 397 120 21 196617 t 5;#P newex 397 99 51 196617 sel 0;#P flonum 397 143 35 9 0 0 0 3 0 0 0 221 221 221 222 222 222 0 0 0;#P message 333 76 53 196617 $1;#P flonum 197 98 35 9 0 0 0 3 0 0 0 221 221 221 222 222 222 0 0 0;#P window linecount 4;#P comment 291 169 101 196617 slightly different speedlim times to reduce synchronized control peaks.;#P window linecount 1;#P newex 256 76 64 196617 random 201;#P newex 316 39 27 196617 b 2;#P newex 316 18 48 196617 loadbang;#P newex 333 120 29 196617 t 20;#P newex 333 99 51 196617 sel 0;#P newex 256 99 40 196617 / 100.;#P newex 256 121 27 196617 - 1.;#P newex 256 169 34 196617 + 20.;#P flonum 333 143 35 9 0 0 0 3 0 0 0 221 221 221 222 222 222 0 0 0;#P window setfont "Sans Serif" 18.;#P comment 291 230 185 196626 speedsmooth;#P window setfont "Sans Serif" 9.;#P window linecount 5;#P comment 291 266 184 196617 simple speedlim and line smoothing for quick and easy data thinning and smoothing. Use with no arguments for default values or use with arguments for other values;#P connect 43 0 39 0;#P connect 39 0 47 0;#P connect 47 1 29 0;#P connect 29 0 31 0;#P connect 31 0 33 0;#P connect 33 0 30 0;#P connect 34 0 30 0;#P connect 35 0 30 0;#P connect 30 0 24 0;#P connect 25 0 23 0;#P connect 24 0 23 0;#P connect 23 0 40 0;#P connect 40 0 27 0;#P connect 27 0 38 0;#P connect 38 0 48 0;#P connect 26 0 29 1;#P connect 12 0 39 1;#P connect 47 1 28 0;#P connect 28 0 32 0;#P connect 32 0 34 0;#P connect 42 0 23 2;#P fasten 47 0 30 1 27 223 87 223;#P lcolor 2;#P connect 14 0 24 1;#P connect 26 0 28 1;#P connect 30 1 25 0;#P connect 47 1 36 0;#P connect 36 0 37 0;#P connect 37 0 35 0;#P connect 47 2 26 0;#P connect 26 0 36 1;#P connect 18 0 25 1;#P fasten 23 0 26 1 48 321 169 321 169 127 160 127;#P connect 12 0 38 1;#P connect 3 0 12 0;#P connect 46 0 12 0;#P connect 12 0 41 0;#P connect 41 0 42 0;#P connect 9 0 10 0;#P connect 10 0 5 0;#P connect 5 0 4 0;#P connect 4 0 3 0;#P connect 2 0 3 1;#P connect 8 0 9 0;#P connect 9 1 13 0;#P connect 13 0 6 0;#P connect 6 0 7 0;#P connect 7 0 2 0;#P fasten 6 1 2 0 379 140 338 140;#P connect 9 1 17 0;#P connect 17 0 15 0;#P connect 15 0 16 0;#P connect 16 0 14 0;#P fasten 15 1 14 0 443 140 402 140;#P connect 44 0 14 0;#P connect 9 1 21 0;#P connect 21 0 19 0;#P connect 19 0 20 0;#P connect 20 0 18 0;#P fasten 19 1 18 0 508 140 467 140;#P connect 45 0 18 0;#P pop;