max v2;#N vpatcher 739 376 1371 871;#P origin 33 0;#P window setfont "Sans Serif" 9.;#P newex 295 141 65 196617 s $1/in/val;#B color 12;#P newex 284 36 257 196617 makeparam $1/in/module $1 m <none>;#B color 12;#P objectname modules[45];#P newex 368 55 263 196617 makeparam $1/in/function $1 m <none>;#B color 12;#P objectname functions[2];#P button 353 76 15 0;#P newex 284 96 94 196617 sprintf set %s/%s;#P newex 284 115 14 196617 r;#P objectname modules[16];#P newex 33 85 29 196617 gate;#P newex 33 36 248 196617 makeswitch $1/sw $1 tapemovie_switchstate;#B color 12;#P window linecount 5;#P message 310 261 127 196617 \; $1/sw/init bang \; $1/in/module/init bang \; $1/in/function/init bang \; module_register $1 \;;#P window linecount 1;#P newex 310 211 108 196617 r $1/init;#B color 12;#P newex 117 376 86 196617 substitute b bang;#P newex 117 355 49 196617 zl rot -1;#P newex 117 334 38 196617 zl join;#P message 61 305 14 196617 b;#P newex 61 284 57 196617 route bang;#P newex 61 355 49 196617 zl rot -1;#P newex 121 195 43 196617 route 0;#P newex 107 153 21 196617 t 1;#P newex 154 218 29 196617 t 2 l;#P newex 61 334 38 196617 zl join;#P newex 33 263 38 196617 gate 2;#P newex 74 174 57 196617 zl slice 10;#P newex 33 218 79 196617 scalemulticurv;#B color 5;#P newex 209 150 68 196617 prepend send;#P newex 33 409 47 196617 forward;#B color 11;#P newex 33 153 51 196617 zl slice 1;#P newex 33 132 84 196617 zl ecils 1;#P newex 33 109 80 196617 tm_ctlmap_ $1;#P connect 20 0 21 0;#P connect 21 0 0 0;#P connect 0 0 1 0;#P connect 1 0 2 0;#P connect 2 0 5 0;#P connect 10 0 7 0;#P connect 9 0 7 0;#P connect 7 0 3 0;#P connect 12 0 3 0;#P fasten 4 0 3 0 214 402 38 402;#P connect 17 0 3 0;#P connect 6 0 5 1;#P connect 22 0 21 1;#P connect 5 2 7 1;#P connect 5 1 7 1;#P connect 7 1 13 0;#P connect 13 0 14 0;#P connect 13 1 8 0;#P connect 8 0 12 0;#P connect 2 1 6 0;#P connect 9 1 8 1;#P connect 1 1 10 0;#P connect 14 0 15 0;#P connect 15 0 16 0;#P connect 16 0 17 0;#P connect 6 1 11 0;#P connect 9 1 15 1;#P connect 11 1 9 0;#P connect 1 1 4 0;#P fasten 26 0 23 0 289 74 289 74;#P fasten 24 0 23 0 358 93 289 93;#P connect 23 0 22 0;#P connect 22 0 27 0;#P connect 18 0 19 0;#P fasten 25 0 24 0 373 74 358 74;#P fasten 25 0 23 1 373 96 373 96;#P pop;