max v2;#N vpatcher 314 243 601 712;#P button 70 459 15 0;#P window setfont "Sans Serif" 9.;#P window linecount 1;#P comment 88 459 39 196617 delete;#P button 4 459 15 0;#P comment 21 459 31 196617 build;#P hidden newex 148 490 169 196617 editorwindow /midi /tapemovie tm;#B color 6;#N thispatcher;#Q end;#P hidden newobj 148 520 61 196617 thispatcher;#P hidden newex 5 488 121 196617 tm_edit-builder midi 7 1;#B color 6;#P window linecount 0;#P comment 2376 0 100 196617;#P comment 1 0 100 196617;#P hidden connect 6 0 2 0;#P hidden connect 8 0 2 1;#P hidden fasten 3 0 4 0 153 541 342 541 342 486 153 486;#P hidden fasten 2 0 3 0 10 515 153 515;#P hidden connect 4 0 3 0;#P pop;