max v2;#N vpatcher 26 271 615 496;#P origin 0 38;#P window setfont "Sans Serif" 9.;#P window linecount 1;#P newex 1060 112 210 196617 tm_editorbuilder /visca /tapemovie 6 1 2;#B color 6;#P button 1073 85 15 0;#P comment 1091 85 39 196617 delete;#P button 1060 64 15 0;#P comment 1077 64 31 196617 build;#N thispatcher;#Q end;#P newobj 1060 134 61 196617 thispatcher;#P window linecount 0;#P comment 2376 96 100 196617;#P comment 1 -31 100 196617;#P connect 4 0 7 0;#P connect 7 0 2 0;#P fasten 6 0 7 1 1078 106 1165 106;#P fasten 2 0 7 2 1065 156 1309 156 1309 108 1265 108;#P pop;