max v2;#N vpatcher 0 44 1206 814;#P origin -19 -136;#P window setfont "Sans Serif" 9.;#P number 208 336 38 9 0 24 35 3 0 0 0 255 255 255 222 222 222 0 0 0;#P objectname pan;#P number 70 336 38 9 0 24 35 3 0 0 0 255 255 255 222 222 222 0 0 0;#P objectname tilt;#P window linecount 1;#P hidden newex 906 453 129 196617 sprintf append /serial.%ld;#P hidden newex 952 390 78 196617 prepend append;#P hidden newex 906 360 102 196617 t serial <none> clear;#P hidden newex 906 335 167 196617 r $1/init;#B color 12;#N coll tm_config 1;#P hidden newobj 906 422 83 196617 coll tm_config 1;#B color 5;#P comment 1 285 35 196617 /port;#B frgb 0 0 222;#P user ubumenu 31 283 100 196617 0 1 1 0;#X setrgb 31 31 31 255 255 255 234 234 234 4 4 4 141 141 141 112 112 112;#X add;#X prefix_set 0 0 <none> 0;#P objectname port;#P hidden newex 906 548 62 196617 pvar port 2;#P hidden newex 906 523 243 196617 variedit $1/port $1;#B color 12;#P hidden newex 334 791 74 196617 pvar pan;#P hidden newex 334 771 243 196617 variedit $1/pan $1;#B color 12;#P hidden newex 334 841 73 196617 pvar tilt;#P hidden newex 334 821 129 196617 variedit $1/tilt $1;#B color 12;#P hidden newex 334 683 74 196617 pvar panspeed;#P hidden newex 334 663 243 196617 variedit $1/pan/speed $1;#B color 12;#P hidden newex 334 733 73 196617 pvar tiltspeed;#P hidden newex 334 713 129 196617 variedit $1/tilt/speed $1;#B color 12;#P hidden newex 334 591 67 196617 pvar shutter;#P hidden newex 334 571 243 196617 variedit $1/shutter $1;#B color 12;#P hidden newex 334 539 57 196617 pvar iris;#P hidden newex 334 519 244 196617 variedit $1/iris $1;#B color 12;#P hidden newex 334 487 57 196617 pvar gain;#P hidden newex 334 467 243 196617 variedit $1/gain $1;#B color 12;#P hidden newex 334 435 57 196617 pvar mode;#P hidden newex 334 415 243 196617 variedit $1/mode $1;#B color 12;#P comment 3 211 39 196617 /mode;#B frgb 0 0 222;#P comment 3 265 49 196617 /iris;#B frgb 0 0 222;#P comment 3 246 49 196617 /shutter;#B frgb 0 0 222;#P comment 3 228 34 196617 /gain;#B frgb 0 0 222;#P message 206 316 45 196617 onepush;#B color 13;#P objectname whitepush;#P comment 113 317 97 196617 /whitebalance/trig;#B frgb 0 0 222;#P comment 113 300 74 196617 /whitebalance;#B frgb 0 0 222;#P comment 6 65 40 196617 /value;#B frgb 0 0 222;#P toggle 235 280 15 0;#P objectname freeze;#P comment 182 281 45 196617 /freeze;#B frgb 0 0 222;#P hidden newex 610 554 70 196617 pvar freeze;#P hidden newex 610 533 213 196617 variedit $1/freeze $1;#B color 12;#P hidden newex 610 449 70 196617 pvar reverse;#P hidden newex 610 428 213 196617 variedit $1/reverse $1;#B color 12;#P toggle 235 246 15 0;#P objectname reverse;#P comment 182 247 52 196617 /reverse;#B frgb 0 0 222;#P comment 158 211 24 196617 /fx;#B frgb 0 0 222;#P hidden newex 610 395 74 196617 pvar backlight;#P hidden newex 610 374 213 196617 variedit $1/backlight $1;#B color 12;#P toggle 235 229 15 0;#P objectname backlight;#P comment 182 230 56 196617 /backlight;#B frgb 0 0 222;#P toggle 235 263 15 0;#P objectname ir;#P comment 182 264 22 196617 /ir;#B frgb 0 0 222;#P hidden newex 610 502 42 196617 pvar ir;#P hidden newex 610 481 213 196617 variedit $1/ir $1;#B color 12;#P comment 1 148 40 196617 /near;#B frgb 0 0 222;#P comment 1 167 40 196617 /value;#B frgb 0 0 222;#P hidden newex 410 226 104 196617 pvar focusnearslider;#P hidden newex 322 224 78 196617 pvar focusnear;#P hidden newex 342 379 88 196617 pvar focusvalue;#P hidden newex 322 173 82 196617 pvar focusvalue;#P hidden newex 322 249 251 196617 variedit $1/focus/near $1;#B color 12;#P window setfont "Sans Serif" 12.;#N vpatcher 9 364 218 561;#P outlet 44 157 15 0;#P window setfont "Sans Serif" 9.;#P comment 8 29 34 196617 Focus;#P inlet 80 29 15 0;#P inlet 44 29 15 0;#P newex 44 109 42 196617 / 1000;#P newex 80 63 41 196617 - 4095;#P newex 44 87 46 196617 *;#P newex 44 131 42 196617 + 4096;#P comment 99 29 83 196617 Focus Near Limit;#P connect 5 0 2 0;#P connect 2 0 4 0;#P connect 4 0 1 0;#P connect 1 0 8 0;#P connect 6 0 3 0;#P connect 3 0 2 1;#P pop;#P hidden newobj 342 352 100 196620 p slider2num;#B color 6;#P window setfont "Sans Serif" 9.;#P hidden newex 322 192 246 196617 variedit $1/focus/value $1;#B color 12;#P comment 101 149 77 196617 (4096-49152);#B frgb 255 255 255;#P user multiSlider 37 147 161 15 4096. 49152. 1 2664 47 0 0 2 0 0 1;#M frgb 255 255 255;#M brgb 204 85 28;#M rgb2 127 127 127;#M rgb3 0 0 0;#M rgb4 37 52 91;#M rgb5 74 105 182;#M rgb6 112 158 18;#M rgb7 149 211 110;#M rgb8 187 9 201;#M rgb9 224 62 37;#M rgb10 7 114 128;#P objectname focusnearslider;#P number 199 147 50 9 4096 49152 163 3 0 0 0 255 255 255 222 222 222 0 0 0;#P objectname focusnear;#P number 199 164 50 9 0 28672 163 3 0 0 0 255 255 255 222 222 222 0 0 0;#P objectname focusvalue;#P comment 120 88 61 196617 /auto/sens;#B frgb 0 0 222;#P comment 104 130 55 196617 /speed;#B frgb 0 0 222;#P hidden newex 609 117 102 196617 pvar focusvarispeed;#P hidden newex 609 139 257 196617 variedit $1/focus/speed $1;#B color 12;#P comment 5 128 55 196617 /variable;#B frgb 0 0 222;#P comment 4 110 55 196617 /standard;#B frgb 0 0 222;#P hidden newex 325 63 92 196617 pvar focusnearfar;#P hidden newex 325 85 267 196617 variedit $1/focus/standard $1;#B color 12;#P hidden newex 325 116 107 196617 pvar focusnearmenu2;#P hidden newex 325 138 265 196617 variedit $1/focus/variable $1;#B color 12;#P toggle 103 87 15 0;#P objectname focusswitch;#P comment 70 88 35 196617 /auto;#B frgb 0 0 222;#P hidden newex 325 10 88 196617 pvar focusswitch;#P hidden newex 325 32 270 196617 variedit $1/focus/auto $1;#B color 12;#P window setfont "Sans Serif" 18.;#P comment 1 84 67 196626 /focus;#B frgb 0 0 222;#P comment 16 13 67 196626 /zoom;#B frgb 0 0 222;#P toggle 72 44 15 0;#P objectname zoomtype;#P window setfont "Sans Serif" 9.;#P hidden newex 1117 419 76 196617 pvar zoomstop;#P hidden newex 1117 441 271 196617 s $1/zoom/speed/stop;#B color 12;#P window setfont "Sans Serif" 12.;#N vpatcher 10 59 466 437;#P outlet 29 307 15 0;#P outlet 10 308 15 0;#P window setfont "Sans Serif" 9.;#P message 220 205 40 196617 28627;#P message 176 205 40 196617 16384;#P newex 176 182 98 196617 sel 0 1;#P newex 176 161 206 196617 r $1/zoom/digital/sw;#B color 12;#P newex 176 227 67 196617 prepend max;#P newex 301 57 54 196617 r $1dumbi;#P newex 50 50 166 196617 r $1/zoom/mode;#B color 12;#P newex 121 70 113 196617 r $1/zoom/digital/sw;#P newex 330 114 70 196617 prepend set 1;#P newex 301 92 39 196617 unpack;#N vpatcher 686 179 1073 508;#P outlet 154 234 15 0;#P window setfont "Sans Serif" 9.;#P newex 154 187 70 196617 prepend set 1;#P newex 41 186 61 196617 prepend set;#P message 278 105 55 196617 set 28627;#P message 217 105 55 196617 set 16384;#P newex 185 99 27 196617 + 1;#P newex 168 72 27 196617 t b i;#P newex 185 131 48 196617 switch 2;#P inlet 168 39 15 0;#P outlet 41 234 15 0;#P message 74 102 39 196617 16384;#P message 115 102 16 196617 0;#P newex 50 72 27 196617 t b i;#P newex 41 108 27 196617 + 1;#P newex 41 142 48 196617 switch 2;#P inlet 50 39 15 0;#P comment 127 24 75 196617 D-Zoom Off/On;#P comment 20 24 100 196617 Tele = 0 Wide =1;#P fasten 5 1 4 0 72 98 46 98;#P connect 4 0 3 0;#P connect 3 0 15 0;#P connect 15 0 8 0;#P connect 2 0 5 0;#P fasten 7 0 3 1 79 130 65 130;#P fasten 5 0 7 0 55 95 79 95;#P fasten 10 0 7 0 190 155 138 155 138 78 79 78;#P fasten 6 0 3 2 120 134 84 134;#P fasten 5 0 6 0 55 95 120 95;#P fasten 3 0 16 0 46 171 159 171;#P connect 16 0 17 0;#P connect 9 0 11 0;#P connect 11 1 12 0;#P connect 12 0 10 0;#P connect 13 0 10 1;#P connect 11 0 13 0;#P connect 14 0 10 2;#P connect 11 0 14 0;#P pop;#P newobj 50 97 81 196617 p zoomMinMax;#P connect 5 0 11 0;#P connect 0 0 11 0;#P connect 6 0 11 0;#P connect 0 1 12 0;#P connect 2 0 12 0;#P connect 4 0 0 0;#P fasten 3 0 0 1 126 95 126 95;#P connect 7 0 8 0;#P connect 8 0 9 0;#P connect 9 0 6 0;#P connect 10 0 6 0;#P connect 8 1 10 0;#P connect 5 0 1 0;#P fasten 1 1 2 0 335 114 335 114;#P pop;#P hidden newobj 1025 276 53 196620 p zoom;#B color 6;#P window setfont "Sans Serif" 9.;#P hidden comment 1029 231 38 196617 no init;#B frgb 222 0 0;#P hidden newex 1117 365 66 196617 pvar zoomOI;#P hidden newex 1117 387 271 196617 variedit $1/zoom/digital/sw $1;#B color 12;#P comment 90 21 63 196617 /digital/sw;#B frgb 0 0 222;#P comment 16 45 60 196617 /speed/sw;#B frgb 0 0 222;#P hidden comment 1010 212 39 196617 /mode;#B frgb 0 0 222;#P comment 90 45 41 196617 /speed;#B frgb 0 0 222;#P hidden newex 1210 312 83 196617 pvar zoomslider;#P hidden newex 1117 312 81 196617 pvar zoomvalue;#P hidden newex 1117 334 271 196617 variedit $1/zoom $1;#B color 12;#P hidden newex 1117 206 101 196617 pvar zoom_telewide;#P hidden newex 1117 228 270 196617 variedit $1/zoom/mode $1;#B color 12;#P hidden newex 1117 100 48 196617 pvar IDn;#P hidden newex 1117 122 270 196617 variedit $1/id $1;#B color 12;#P hidden newex 1117 45 62 196617 pvar power;#P hidden newex 1117 67 270 196617 variedit $1/sw $1;#B color 12;#P hidden newex 751 786 57 196617 pvar reset;#P hidden newex 751 807 95 196617 s $1-pan.tilt.reset;#P hidden newex 641 780 71 196617 pvar homebut;#P hidden newex 641 806 94 196617 s $1-pan.tilt.home;#P comment 6 354 70 196617 /tilt/speed;#B frgb 0 0 222;#P comment 144 354 70 196617 /pan/speed;#B frgb 0 0 222;#P number 208 353 38 9 0 24 35 3 0 0 0 255 255 255 222 222 222 0 0 0;#P objectname panspeed;#P number 70 353 38 9 0 24 35 3 0 0 0 255 255 255 222 222 222 0 0 0;#P objectname tiltspeed;#P message 111 353 31 196617 reset;#B color 13;#P objectname reset;#P message 111 337 29 196617 home;#B color 13;#P objectname homebut;#P comment 5 339 34 196617 /tilt;#B frgb 0 0 222;#P comment 143 339 34 196617 /pan;#B frgb 0 0 222;#P hidden newex 342 329 84 196617 pvar focusslider;#P hidden newex 758 89 139 196617 s $1-resetfocus;#B color 12;#P hidden newex 758 68 88 196617 pvar resetfocus;#P message 188 122 60 196617 reset focus;#B color 13;#P objectname resetfocus;#P hidden newex 151 543 53 196617 pvar actu;#P hidden newex 611 68 88 196617 pvar focusstop;#P hidden newex 611 89 137 196617 s $1-focus.stop;#B color 12;#P hidden newex 610 630 79 196617 pvar whitepush;#P hidden newex 610 651 165 196617 s $1/whitebalance/trig;#B color 12;#P hidden newex 600 235 101 196617 s $1-onepush;#P hidden newex 600 216 69 196617 pvar onepush;#P hidden newex 715 216 67 196617 pvar infinity;#P hidden newex 715 235 107 196617 s $1-infinity;#P hidden newex 151 577 129 196617 vari $1-actualizeGSI $1 b;#P hidden newex 610 604 48 196617 pvar WB;#P hidden newex 605 35 73 196617 pvar AFsens t;#P hidden newex 605 16 273 196617 variedit $1/focus/auto/sens $1;#B color 12;#P hidden newex 609 335 58 196617 pvar picEx;#P hidden newex 610 584 243 196617 variedit $1/whitebalance $1;#B color 12;#P message 94 242 51 196617 Actualize;#B color 13;#P objectname actu;#P window setfont "Sans Serif" 12.;#N vpatcher 27 550 320 798;#P window setfont "Sans Serif" 9.;#P newex 38 60 27 196617 t b i;#P number 55 100 46 9 0 0 0 3 0 0 0 221 221 221 222 222 222 0 0 0;#P comment 141 203 100 196617 Out to numSlider;#P outlet 143 184 15 0;#P newex 143 157 61 196617 prepend set;#P outlet 93 184 15 0;#P newex 93 129 49 196617 minimum;#P comment 141 43 86 196617 Focus Near Limit;#P inlet 124 43 15 0;#P inlet 38 41 15 0;#P comment 3 43 31 196617 Focus;#P comment 24 205 100 196617 Out to slider position;#P connect 2 0 11 0;#P fasten 5 0 10 0 98 157 43 157 43 96 60 96;#P connect 11 1 10 0;#P fasten 11 0 5 0 43 84 111 84 111 120 98 120;#P fasten 3 0 5 0 129 120 98 120;#P connect 5 0 6 0;#P fasten 10 0 5 1 60 124 137 124;#P connect 5 0 7 0;#P connect 7 0 8 0;#P pop;#P hidden newobj 342 273 96 196620 p minNLFocus;#B color 6;#N vpatcher 32 176 318 391;#P window setfont "Sans Serif" 9.;#P newex 41 150 71 196617 prepend set 1;#P newex 41 105 43 196617 * 1000;#P newex 74 56 27 196617 t b i;#P outlet 41 174 15 0;#P newex 41 127 60 196617 / 1.;#P newex 91 83 41 196617 - 4095;#P newex 41 83 41 196617 - 4095;#P comment 91 34 81 196617 Focus Near Limit;#P inlet 74 34 15 0;#P inlet 41 34 15 0;#P comment 7 34 31 196617 Focus;#P comment 114 154 146 196617 Slider Position \, range 0-1000;#P fasten 9 0 5 0 79 78 46 78;#P connect 2 0 5 0;#P connect 5 0 10 0;#P connect 10 0 7 0;#P connect 7 0 11 0;#P connect 11 0 8 0;#P connect 3 0 9 0;#P connect 9 1 6 0;#P connect 6 0 7 1;#P pop;#P hidden newobj 342 303 110 196620 p focussliderPos;#B color 6;#P window setfont "Sans Serif" 9.;#P hidden newex 609 313 153 196617 variedit $1/fx $1;#B color 12;#P number 49 263 35 9 0 15 99 3 0 0 0 255 255 255 222 222 222 0 0 0;#P objectname iris;#P number 49 245 35 9 0 15 99 3 66 66 66 255 255 255 222 222 222 0 0 0;#P objectname shutter;#P number 49 227 35 9 0 7 99 3 0 0 0 255 255 255 222 222 222 0 0 0;#P objectname gain;#P user ubumenu 193 297 58 196617 0 1 1 0;#X add Auto;#X add Indoor;#X add Outdoor;#X add One Push;#X add WB;#X add ATW;#X add Manual;#X prefix_set 0 0 <none> 0;#X pattrmode 1;#P objectname WB;#P user ubumenu 49 208 91 196617 0 1 1 0;#X setrgb 255 255 255 121 45 45 216 152 147 4 4 4 141 141 141 112 112 112;#X add FullAuto;#X add Manual;#X add ShutterPriority;#X add Iris Priority;#X add Gain Priority;#X add Bright;#X add Shutter Auto;#X add Iris Auto;#X add Gain Auto;#X prefix_set 0 0 <none> 0;#X pattrmode 1;#P objectname mode;#P window setfont "Sans Serif" 10.;#P user ubumenu 182 210 68 196618 0 1 1 0;#X setrgb 255 255 255 66 66 66 140 140 140 4 4 4 141 141 141 112 112 112;#X add <none>;#X add pastel;#X add neg.art;#X add sepia;#X add B&W;#X add solarize;#X add mosaic;#X add slim;#X add stretch;#X prefix_set 0 0 <none> 0;#X pattrmode 1;#P objectname picEx;#P user multiSlider 45 63 162 15 0. 28672. 1 2664 47 0 0 2 0 0 1;#M frgb 255 255 255;#M brgb 106 151 255;#M rgb2 127 127 127;#M rgb3 0 0 0;#M rgb4 37 52 91;#M rgb5 74 105 182;#M rgb6 112 158 18;#M rgb7 149 211 110;#M rgb8 187 9 201;#M rgb9 224 62 37;#M rgb10 7 114 128;#P objectname zoomslider;#P window setfont "Sans Serif" 9.;#P user ubumenu 176 87 72 196617 0 1 1 0;#X add AF Sens high;#X add AF Sens low;#X prefix_set 0 0 <none> 0;#X pattrmode 1;#P objectname AFsens;#P message 121 182 41 196617 Infinity;#P objectname infinity;#P message 164 182 85 196617 One Push Trigger;#P objectname onepush;#P number 140 128 35 9 0 7 3 3 0 0 0 221 221 221 222 222 222 0 0 0;#P objectname focusvarispeed;#P user ubumenu 59 126 40 196617 0 1 1 0;#X add Far;#X add Near;#X prefix_set 0 0 <none> 0;#X pattrmode 1;#P objectname focusnearmenu2;#P user ubumenu 59 108 40 196617 0 1 1 0;#X add Far;#X add Near;#X prefix_set 0 0 <none> 0;#X pattrmode 1;#P objectname focusnearfar;#P message 217 105 30 196617 Stop;#B color 13;#P objectname focusstop;#P message 220 43 30 196617 Stop;#B color 13;#P objectname zoomstop;#P number 127 43 29 9 0 7 35 3 0 0 0 255 255 255 222 222 222 0 0 0;#P objectname zoomspeed;#P hidden user ubumenu 1053 208 42 196617 0 1 1 0;#X setrgb 31 31 31 255 255 255 234 234 234 4 4 4 141 141 141 112 112 112;#X add Tele;#X add Wide;#X prefix_set 0 0 <none> 0;#X pattrmode 1;#P objectname zoom_telewide;#P user ubumenu 150 19 100 196617 0 1 1 0;#X setrgb 255 255 255 128 0 0 234 234 234 4 4 4 141 141 141 112 112 112;#X add D-Zoom off;#X add D-Zoom on;#X prefix_set 0 0 <none> 0;#X pattrmode 1;#P objectname zoomOI;#P user panel 1 330 254 4;#X brgb 223 223 223;#X frgb 116 116 116;#X border 1;#X rounded 5;#X shadow 0;#X done;#P hidden newex 1117 154 77 196617 pvar zoomtype;#P hidden newex 1117 176 270 196617 variedit $1/zoom/speed/sw $1;#B color 12;#P hidden newex 1117 259 82 196617 pvar zoomspeed;#P hidden newex 1117 281 271 196617 variedit $1/zoom/speed $1;#B color 12;#P comment 157 45 66 196617 /speed/stop;#B frgb 0 0 222;#P number 208 63 42 9 0 16384 35 3 0 0 0 255 255 255 222 222 222 0 0 0;#P objectname zoomvalue;#P comment 101 165 67 196617 (4096-near);#B frgb 255 255 255;#P user multiSlider 37 164 161 15 0. 1000. 1 2664 47 0 0 2 0 0 1;#M frgb 255 255 255;#M brgb 204 85 28;#M rgb2 127 127 127;#M rgb3 0 0 0;#M rgb4 37 52 91;#M rgb5 74 105 182;#M rgb6 112 158 18;#M rgb7 149 211 110;#M rgb8 187 9 201;#M rgb9 224 62 37;#M rgb10 7 114 128;#P objectname focusslider;#P user panel 1 84 251 120;#X brgb 255 255 255;#X frgb 116 116 116;#X border 1;#X rounded 5;#X shadow 0;#X done;#P bpatcher 0 0 256 372 0 0 bkgnd6.mxt 0 $1;#P hidden connect 47 0 38 0;#P hidden fasten 104 0 107 0 327 214 316 214 316 166 327 166;#P hidden connect 31 1 107 0;#P hidden connect 107 0 104 0;#P hidden fasten 106 0 109 0 327 271 318 271 318 220 327 220;#P hidden fasten 110 0 106 0 415 245 327 245;#P hidden connect 109 0 106 0;#P hidden fasten 86 0 87 0 330 55 318 55 318 5 330 5;#P hidden connect 87 0 86 0;#P hidden fasten 92 0 93 0 330 108 318 108 318 58 330 58;#P hidden connect 93 0 92 0;#P hidden fasten 90 0 91 0 330 161 318 161 318 111 330 111;#P hidden connect 91 0 90 0;#P hidden fasten 139 0 138 0 339 458 327 458 327 412 339 412;#P hidden connect 138 0 139 0;#P hidden fasten 141 0 140 0 339 510 327 510 327 464 339 464;#P hidden connect 140 0 141 0;#P hidden fasten 143 0 142 0 339 562 327 562 327 516 339 516;#P hidden connect 142 0 143 0;#P hidden fasten 145 0 144 0 339 614 327 614 327 568 339 568;#P hidden connect 144 0 145 0;#P hidden fasten 149 0 148 0 339 706 327 706 327 660 339 660;#P hidden connect 148 0 149 0;#P hidden fasten 147 0 146 0 339 756 327 756 327 710 339 710;#P hidden connect 146 0 147 0;#P hidden fasten 153 0 152 0 339 814 327 814 327 768 339 768;#P hidden connect 152 0 153 0;#P hidden fasten 151 0 150 0 339 864 327 864 327 818 339 818;#P hidden connect 150 0 151 0;#P hidden connect 104 1 31 0;#P hidden connect 31 0 30 0;#P hidden connect 30 0 51 0;#P hidden connect 51 0 105 0;#P hidden connect 105 0 108 0;#P hidden fasten 106 2 110 0 567 275 575 275 575 223 415 223;#P hidden connect 106 1 31 1;#P hidden connect 106 1 105 1;#P hidden connect 106 1 30 1;#P hidden connect 41 0 42 0;#P hidden connect 36 0 35 0;#P hidden connect 35 0 36 0;#P hidden fasten 96 0 97 0 614 162 602 162 602 112 614 112;#P hidden connect 97 0 96 0;#P hidden fasten 34 0 29 0 614 358 603 358 603 310 614 310;#P hidden connect 29 0 34 0;#P hidden fasten 120 0 119 0 615 418 606 418 606 368 609 368 615 368;#P hidden connect 119 0 120 0;#P hidden fasten 125 0 124 0 615 472 606 472 606 422 609 422 615 422;#P hidden connect 124 0 125 0;#P hidden fasten 114 0 113 0 615 525 606 525 606 475 609 475 615 475;#P hidden connect 113 0 114 0;#P hidden fasten 127 0 126 0 615 577 606 577 606 527 609 527 615 527;#P hidden connect 126 0 127 0;#P hidden fasten 37 0 33 0 615 627 603 627 603 581 615 581;#P hidden connect 33 0 37 0;#P hidden connect 44 0 43 0;#P hidden connect 46 0 45 0;#P hidden connect 61 0 60 0;#P hidden connect 40 0 39 0;#P hidden connect 63 0 62 0;#P hidden connect 49 0 50 0;#P hidden connect 159 0 160 0;#P hidden connect 160 0 158 0;#P hidden connect 158 0 162 0;#P hidden fasten 155 1 154 0 963 576 898 576 898 516 911 516;#P hidden connect 160 2 155 0;#P hidden connect 161 0 155 0;#P hidden connect 162 0 155 0;#P hidden connect 154 0 155 0;#P hidden connect 160 1 161 0;#P hidden fasten 64 0 65 0 1122 90 1110 90 1110 40 1122 40;#P hidden connect 65 0 64 0;#P hidden fasten 66 0 67 0 1122 145 1110 145 1110 95 1122 95;#P hidden connect 67 0 66 0;#P hidden fasten 8 0 9 0 1122 199 1110 199 1110 149 1122 149;#P hidden connect 9 0 8 0;#P hidden fasten 68 0 69 0 1122 251 1110 251 1110 201 1122 201;#P hidden connect 69 0 68 0;#P hidden fasten 6 0 7 0 1122 304 1110 304 1110 254 1122 254;#P hidden connect 7 0 6 0;#P hidden fasten 70 0 71 0 1122 357 1110 357 1110 307 1122 307;#P hidden connect 80 0 71 0;#P hidden connect 71 0 70 0;#P hidden fasten 72 0 70 0 1215 331 1122 331;#P hidden fasten 77 0 78 0 1122 410 1110 410 1110 360 1122 360;#P hidden connect 78 0 77 0;#P hidden connect 82 0 81 0;#P hidden fasten 70 2 72 0 1382 355 1393 355 1393 306 1215 306;#P hidden connect 80 1 72 0;#P pop;