max v2;#N vpatcher 117 158 738 627;#P window setfont "Sans Serif" 9.;#P window linecount 1;#P newex 280 278 111 196617 t_peakmeter_r $1;#B color 4;#P newex 445 329 101 196617 varims $1/in;#B color 6;#P newex 367 308 67 196617 pvar number;#P newex 280 308 61 196617 pvar meter;#P number 445 131 35 9 0 0 0 3 0 0 0 221 221 221 222 222 222 0 0 0;#P newex 161 84 40 196617 atoi;#P newex 445 111 27 196617 - 1;#P newex 445 91 50 196617 stripnum;#P newex 445 308 60 196617 pvar slider;#P user swatch 445 248 128 32;#P newex 445 171 34 196617 + 0.5;#P newex 445 191 40 196617 % 256;#P newex 445 150 47 196617 * 60.35;#P number 445 211 35 9 0 0 0 3 0 0 0 221 221 221 222 222 222 0 0 0;#P message 445 229 80 196617 hsl \$1 128 128;#P newex 445 283 67 196617 prepend frgb;#P user multiSlider 14 3 12 75 0. 2. 1 2937 47 0 0 2 0 0 1;#M frgb 192 64 64;#M brgb 255 255 255;#M rgb2 127 127 127;#M rgb3 0 0 0;#M rgb4 37 52 91;#M rgb5 74 105 182;#M rgb6 112 158 18;#M rgb7 149 211 110;#M rgb8 187 9 201;#M rgb9 224 62 37;#M rgb10 7 114 128;#P objectname slider;#P window setfont Times 9.;#P flonum 0 79 27 9 0 0 8352 20 0 50 255 221 221 221 222 222 222 0 0 0;#P objectname number;#P user meter~ 2 3 15 78 211 0 168 0 104 104 104 255 153 0 255 0 0 217 217 0 153 186 0 12 3 3 3 3;#P objectname meter;#P window setfont "Sans Serif" 9.;#P newex 133 221 38 196617 gate 2;#P newex 178 198 27 196617 + 1;#P newex 178 178 27 196617 > 9;#P newex 178 152 34 196617 zl len;#P newex 161 132 27 196617 t l l;#P message 309 45 40 196617 /adc.1;#P message 198 400 91 196617 script delete label;#P newex 161 317 40 196617 t b b s;#P message 161 339 119 196617 script bringtofront label;#P newex 181 377 260 196617 sprintf script new label comment 2 94 30 1310729 %s;#N thispatcher;#Q end;#P newobj 161 421 61 196617 thispatcher;#P newex 161 296 40 196617 itoa;#P newex 161 266 104 196617 zl join;#P newex 214 246 51 196617 zl ecils 2;#P newex 161 246 51 196617 zl slice 7;#P newex 161 107 49 196617 route 47;#P newex 161 61 20 196617 t s;#P message 161 42 101 196617 $1;#P newex 161 22 45 196617 loadbang;#P comment 8 143 138 196617 arg 1 : receive name prefix \;;#P window linecount 2;#P comment 9 161 100 196617 panel 28 x 120 \; space every 27 \;;#P user panel 0 0 28 120;#X brgb 223 223 223;#X frgb 0 0 0;#X border 1;#X rounded 0;#X shadow 0;#X done;#P background;#P connect 20 0 21 0;#P connect 3 0 4 0;#P connect 4 0 5 0;#P connect 16 0 5 0;#P connect 5 0 35 0;#P connect 35 0 6 0;#P connect 6 0 17 0;#P connect 6 1 17 0;#P connect 17 0 21 1;#P connect 21 1 7 0;#P connect 7 0 9 0;#P connect 9 0 10 0;#P connect 21 0 10 0;#P connect 10 0 14 0;#P connect 14 0 13 0;#P connect 15 0 11 0;#P connect 13 0 11 0;#P connect 12 0 11 0;#P connect 17 1 18 0;#P connect 18 0 19 0;#P connect 19 0 20 0;#P connect 14 2 12 0;#P connect 21 1 8 0;#P connect 8 1 9 1;#P connect 40 0 37 0;#P connect 40 1 38 0;#P fasten 5 0 33 0 166 81 450 81;#P connect 33 0 34 0;#P connect 34 0 36 0;#P connect 36 0 28 0;#P connect 28 0 30 0;#P connect 30 0 29 0;#P connect 29 0 27 0;#P connect 27 0 26 0;#P connect 26 0 31 0;#P connect 31 0 25 0;#P connect 25 0 32 0;#P fasten 39 0 32 0 450 351 441 351 441 305 450 305;#P connect 32 0 39 0;#P pop;