max v2;#N vpatcher 187 44 769 232;#P origin 0 -5;#P window setfont Times 18.;#N vpatcher 204 115 1249 692;#P bpatcher 1 375 512 186 0 0 t_zerocross.edit.mxt 0 $1/zcross;#P bpatcher 515 188 512 186 0 0 t_centroid.edit.mxt 0 $1/cntrd;#P bpatcher 1 188 512 186 0 0 t_pt.edit.mxt 0 $1/pt;#P window setfont "Sans Serif" 9.;#P hidden newex 557 474 70 196617 bgcolor 0 0 0;#P bpatcher 515 1 512 186 0 0 t_afol.edit.mxt 0 $1/afol;#P bpatcher 1 1 512 186 0 0 t_ngate.edit.mxt 0 $1/ngate;#P hidden newex 557 405 169 196617 r $1/more/editor;#B color 11;#N thispatcher;#Q end;#P hidden newobj 557 441 70 196617 thispatcher;#P connect 1 0 0 0;#P pop;#P newobj 298 118 61 1310738 p more;#B color 6;#P window setfont Times 9.;#P newex 28 120 37 1310729 pvar in;#B color 11;#P newex 92 120 151 1310729 variedit $1/in $1;#B color 12;#P window setfont "Sans Serif" 9.;#P comment 284 26 117 196617 bpat bkgnd = 256 X 62;#P comment 284 45 119 196617 bpat editor = 258 X 64;#P window setfont Times 9.;#P comment 45 25 16 1310729 in;#B frgb 0 0 200;#P flonum 59 25 30 9 0. 4. 3 20 0 0 0 221 221 221 222 222 222 0 0 0;#P objectname in;#P comment 85 76 82 1310729 arg 1 : prefix name \;;#P window setfont "Sans Serif" 9.;#N thispatcher;#Q end;#P newobj 0 73 61 196617 thispatcher;#P bpatcher 0 0 256 62 0 0 bkgnd.mxt 0 $1 1 1;#P objectname background;#P connect 7 0 8 0;#P connect 8 0 7 0;#P pop;