max v2;#N vpatcher 71 181 404 482;#P window setfont "Sans Serif" 9.;#P newex 21 39 90 196617 r $1/init;#B color 11;#P number 21 130 35 9 0 0 0 3 0 0 0 221 221 221 222 222 222 0 0 0;#P newex 21 108 40 196617 change;#P message 21 60 78 196617 $1;#P newex 21 80 50 196617 stripnum;#B color 6;#P message 21 152 48 196617 set 1 \$1;#P newex 21 173 40 196617 adc~ 1;#P window linecount 3;#P comment 118 130 152 196617 arg 1 : module prefix name (use name with ".#" for instance number \;;#P window linecount 2;#P comment 152 238 107 196617 patch by Tom Mays contact@tommays.net;#P window linecount 1;#P newex 21 200 174 196617 poly~ t_adcfilt_ 1 args $1;#B color 6;#P newex 21 244 111 196617 send $1/out~;#B color 4;#P connect 10 0 7 0;#P connect 7 0 6 0;#P connect 6 0 8 0;#P connect 8 0 9 0;#P connect 9 0 5 0;#P connect 5 0 4 0;#P connect 4 0 1 0;#P connect 1 0 0 0;#P pop;