max v2;#N vpatcher 169 164 676 683;#P hidden inlet 217 564 15 0;#P button 86 509 15 0;#P window setfont "Sans Serif" 9.;#P window linecount 1;#P comment 104 509 39 196617 delete;#P button 20 509 15 0;#P comment 37 509 31 196617 build;#P hidden newex 146 539 123 196617 editorwindow /adc /tape;#B color 6;#N thispatcher;#Q end;#P hidden newobj 146 569 61 196617 thispatcher;#P hidden newex 20 539 115 196617 t_editadc-builder adc 1;#B color 6;#P window linecount 0;#P comment 2376 0 100 196617;#P comment 1 0 100 196617;#P hidden connect 6 0 2 0;#P hidden connect 8 0 2 1;#P hidden fasten 3 0 4 0 151 590 301 590 301 535 151 535;#P hidden fasten 2 0 3 0 25 564 151 564;#P hidden connect 4 0 3 0;#P pop;