max v2;#N vpatcher 353 108 1285 614;#P window setfont "Sans Serif" 9.;#P window linecount 2;#P comment 673 238 198 196617 no longer need to send to module_register. happens in build.;#P window linecount 1;#P newex 411 324 27 196617 ||;#P newex 394 343 27 196617 ||;#P newex 377 362 27 196617 ||;#P newex 360 381 27 196617 ||;#P newex 502 266 120 196617 r $1/bonk/sw;#B color 11;#P newex 475 246 120 196617 r $1/zcross/sw;#B color 11;#P newex 448 226 120 196617 r $1/cntrd/sw;#B color 11;#P newex 421 206 120 196617 r $1/pt/sw;#B color 11;#P newex 63 334 192 196617 poly~ t_zerocross_ 1 args $1/zcross 1;#B color 7;#P newex 72 303 199 196617 poly~ t_centroid_ 1 args $1/cntrd 512 1;#B color 7;#P window linecount 2;#P message 673 271 158 196617 \; $1/bonk/init bang \;;#P window linecount 1;#P newex 83 274 177 196617 poly~ t_pt_ 1 args $1/pt 2048 20 1;#B color 7;#P newex 673 79 178 196617 moduleinit $1;#B color 13;#P newex 436 36 262 196617 makeswitch $1/sw $1 tape_switchstate;#B color 13;#P button 673 100 15 0;#P newex 645 321 195 196617 s $1/spat/init;#B color 11;#P newex 50 111 171 196617 poly~ t_source_ 1 args $1/simul 1;#B color 7;#P newex 106 52 260 196617 makeparam $1/in $1 f 1 0 4 2;#B color 13;#P newex 326 459 98 196617 s $1/sw;#B color 11;#P toggle 326 440 15 0;#P newex 326 419 27 196617 ||;#P newex 326 304 114 196617 unpack 0 0 0 0 0 0 0;#P newex 326 284 92 196617 pak 0 0 0 0 0 0 0;#P newex 343 400 27 196617 ||;#P newex 394 186 120 196617 r $1/afol/sw;#B color 11;#P newex 360 166 127 196617 r $1/ngate/sw;#B color 11;#P newex 326 146 127 196617 r $1/simul/sw;#B color 11;#P flonum 118 86 31 9 0. 4. 3 3 0 0 0 221 221 221 222 222 222 0 0 0;#P newex 22 85 94 196617 t_vol~ 2;#B color 5;#P comment 645 348 136 196617 arg 1 : module prefix name \;;#P newex 50 160 209 196617 t_peakmeter~ $1;#B color 5;#P newex 91 244 151 196617 poly~ t_afol_ 1 args $1/afol 1;#B color 7;#P newex 22 201 165 196617 t_ngate $1/ngate 1;#B color 7;#P newex 22 53 70 196617 t_dcremove~;#B color 6;#P newex 436 76 31 196617 == 0;#P newex 436 115 50 196617 thispoly~;#B color 5;#P toggle 436 57 15 0;#P message 436 96 45 196617 mute \$1;#P window setfont Times 9.;#N out~ 1;#P newobj 22 402 33 1310729 out~ 1;#N in~ 1;#P newobj 22 28 29 1310729 in~ 1;#P window setfont "Sans Serif" 9.;#P window linecount 9;#P message 673 123 157 196617 \; $1/sw/init bang \; $1/in/init bang \; $1/simul/init bang \; $1/ngate/init bang \; $1/afol/init bang \; $1/pt/init bang \; $1/cntrd/init bang \; $1/zcross/init bang \;;#P connect 1 0 7 0;#P connect 7 0 12 0;#P connect 12 0 8 0;#P connect 24 0 8 0;#P connect 8 0 2 0;#P connect 12 0 24 0;#P connect 24 0 10 0;#P connect 12 0 10 0;#P connect 8 0 32 0;#P connect 8 0 31 0;#P connect 8 0 29 0;#P connect 8 0 9 0;#P connect 13 0 12 1;#P connect 23 0 12 1;#P connect 12 1 13 0;#P connect 4 0 10 1;#P connect 14 0 18 0;#P connect 18 0 19 0;#P connect 19 0 20 0;#P connect 20 0 21 0;#P connect 21 0 22 0;#P connect 15 0 18 1;#P connect 19 1 17 0;#P connect 17 0 20 1;#P connect 16 0 18 2;#P connect 19 2 37 0;#P connect 37 0 17 1;#P connect 33 0 18 3;#P connect 19 3 38 0;#P connect 38 0 37 1;#P connect 34 0 18 4;#P connect 35 0 18 5;#P connect 19 4 39 0;#P connect 39 0 38 1;#P connect 36 0 18 6;#P connect 19 5 40 0;#P connect 40 0 39 1;#P connect 19 6 40 1;#P connect 27 0 4 0;#P connect 4 0 6 0;#P connect 6 0 3 0;#P connect 3 0 5 0;#P fasten 26 0 25 0 678 118 650 118;#P connect 28 0 26 0;#P connect 26 0 0 0;#P pop;