max v2;#N vpatcher 633 112 1168 579;#P origin 0 -22;#P window setfont "Sans Serif" 9.;#P newex 33 349 27 196617 t i b;#P message 50 370 56 196617 frgb 0 0 0;#P message 56 394 92 196617 frgb 221 221 221;#P newex 168 338 57 196617 r $1/done;#B color 12;#P newex 168 385 54 196617 pvar done;#B color 14;#P window setfont Verdana 12.;#P comment 107 43 37 -1006632948 /loop;#B frgb 0 0 222;#P toggle 144 44 15 0;#P objectname loop;#P window setfont "Sans Serif" 9.;#P newex 304 374 102 196617 variedit $1/loop $1;#B color 12;#P newex 304 354 52 196617 pvar loop;#B color 14;#P window setfont "Sans Serif" 12.;#P number 307 29 94 12 0 0 0 3 0 0 0 221 221 221 222 222 222 0 0 0;#P noclick;#P objectname val;#P window setfont Verdana 12.;#P comment 274 31 33 -1006632948 /val;#P window setfont "Sans Serif" 9.;#P newex 122 227 40 196617 t 1 b 0;#P newex 122 275 29 196617 gate;#P newex 122 207 61 196617 r $1/reset;#B color 12;#P newex 122 295 61 196617 s $1/reset;#B color 12;#P newex 141 248 58 196617 pvar reset;#B color 14;#P newex 33 227 40 196617 t 1 b 0;#P newex 33 275 29 196617 gate;#P newex 33 207 54 196617 r $1/trig;#B color 12;#P window setfont Verdana 12.;#P comment 107 25 37 -1006632948 /max;#B frgb 0 0 222;#P window setfont "Sans Serif" 12.;#P number 144 24 94 12 0 1000000000 3 3 0 0 0 221 221 221 222 222 222 0 0 0;#P objectname max;#P number 144 4 94 12 0 1000000000 3 3 0 0 0 221 221 221 222 222 222 0 0 0;#P objectname min;#P window setfont "Sans Serif" 9.;#P newex 304 313 103 196617 variedit $1/max $1;#B color 12;#P newex 304 293 53 196617 pvar max;#B color 14;#P newex 304 248 100 196617 variedit $1/min $1;#B color 12;#P newex 304 228 50 196617 pvar min;#B color 14;#P window setfont Verdana 12.;#P comment 111 5 37 -1006632948 /min;#B frgb 0 0 222;#P comment 408 31 43 -1006632948 /done;#P comment 30 33 43 -1006632948 /reset;#B frgb 0 0 222;#P button 74 32 19 0;#P objectname reset;#P window setfont "Sans Serif" 9.;#P newex 33 327 51 196617 r $1/val;#B color 12;#P newex 33 422 48 196617 pvar val;#B color 14;#P window setfont Verdana 12.;#P comment 42 10 36 -1006632948 /trig;#B frgb 0 0 222;#P button 74 9 19 0;#P objectname trig;#P window setfont "Sans Serif" 9.;#P newex 33 295 54 196617 s $1/trig;#B color 12;#P newex 52 248 51 196617 pvar trig;#B color 14;#P button 450 29 19 0;#P noclick;#P objectname done;#P bpatcher 0 61 512 124 0 0 multimapsendu.edit.mxt 0 $1 /tapemovie;#P background;#P bpatcher 0 0 512 62 0 0 bkgnd12.mxt 0 $1;#P background;#P objectname background;#P connect 20 0 22 0;#P connect 22 0 21 0;#P connect 22 2 21 0;#P connect 21 0 4 0;#P connect 8 0 38 0;#P connect 38 0 7 0;#P connect 36 0 7 0;#P connect 38 1 37 0;#P connect 22 1 3 0;#P connect 3 0 21 1;#P connect 25 0 36 0;#P connect 25 0 27 0;#P connect 27 2 26 0;#P connect 27 0 26 0;#P connect 26 0 24 0;#P connect 27 1 23 0;#P connect 23 0 26 1;#P fasten 35 0 34 0 173 359 173 359;#P fasten 14 0 13 0 309 268 300 268 300 220 309 220;#P connect 13 0 14 0;#P fasten 16 0 15 0 309 333 300 333 300 285 309 285;#P connect 15 0 16 0;#P fasten 31 0 30 0 309 394 300 394 300 346 309 346;#P connect 30 0 31 0;#P pop;