max v2;#N vpatcher 27 44 790 581;#P window setfont "Sans Serif" 9.;#P window linecount 1;#P newex 154 237 107 196617 variedit $1/ramp $1;#B color 12;#P newex 154 217 57 196617 pvar ramp;#B color 14;#P newex 318 414 103 196617 variedit $1/max $1;#B color 12;#P newex 318 394 53 196617 pvar max;#B color 14;#P newex 318 349 100 196617 variedit $1/min $1;#B color 12;#P newex 318 329 50 196617 pvar min;#B color 14;#P window setfont Verdana 12.;#P comment 94 36 43 1034747916 /min;#B frgb 0 0 222;#P window setfont "Sans Serif" 14.;#P flonum 145 33 108 14 0 0 32 3 0 0 0 255 255 255 222 222 222 0 0 0;#P objectname min;#P window setfont Verdana 12.;#P comment 254 35 43 1034747916 /max;#B frgb 0 0 222;#P window setfont "Sans Serif" 14.;#P flonum 296 32 118 14 0 0 32 3 0 0 0 255 255 255 222 222 222 0 0 0;#P objectname max;#P window setfont Verdana 12.;#P comment 449 14 43 1034747916 /end;#B frgb 0 0 222;#P button 494 15 15 0;#P objectname trig[1];#P window setfont "Sans Serif" 10.;#P message 84 392 34 196618 set 0;#P window setfont "Sans Serif" 9.;#P newex 84 373 61 196617 r $1/reset;#B color 12;#P newex 20 470 61 196617 s $1/reset;#B color 12;#P newex 20 448 58 196617 pvar reset;#B color 14;#P window setfont Verdana 12.;#P comment 22 40 43 1034747916 /reset;#B frgb 0 0 222;#P button 62 42 15 0;#P objectname reset;#P window setfont "Sans Serif" 9.;#P newex 20 378 51 196617 r $1/val;#B color 12;#P newex 20 420 48 196617 pvar val;#B color 14;#P window setfont "Sans Serif" 14.;#P flonum 415 35 97 14 0. 999999. 163 3 0 0 0 255 255 255 222 222 222 0 0 0;#P objectname val;#P window setfont "Sans Serif" 12.;#P user ubumenu 172 3 62 196620 0 1 1 0;#X setrgb 31 31 31 255 255 255 234 234 234 4 4 4 141 141 141 112 112 112;#X add up;#X add updown;#X prefix_set 0 0 <none> 0;#P objectname mode;#P window setfont Verdana 12.;#P comment 128 4 50 1034747916 /mode;#B frgb 0 0 222;#P comment 22 23 43 1034747916 /trig;#B frgb 0 0 222;#P button 62 24 15 0;#P objectname trig;#P window setfont "Sans Serif" 9.;#P newex 20 293 54 196617 s $1/trig;#B color 12;#P newex 20 273 51 196617 pvar trig;#B color 14;#P newex 76 349 107 196617 variedit $1/mode $1;#B color 12;#P newex 20 327 66 196617 pvar mode 2;#B color 14;#P button 432 14 15 0;#P window setfont Verdana 9.;#P comment 359 15 70 1034747913 /stoponnext;#B frgb 0 0 222;#P window setfont "Sans Serif" 9.;#P newex 574 77 127 196617 s $1/stoponnext;#P window setfont Verdana 12.;#P comment 22 4 43 1034747916 /step;#B frgb 0 0 222;#P bpatcher 0 61 512 128 0 0 multimapsendu.edit.mxt 0 $1 /tapemovie;#P window setfont "Sans Serif" 9.;#P newex 20 237 103 196617 variedit $1/step $1;#B color 12;#P newex 20 217 53 196617 pvar step;#B color 14;#P window setfont Verdana 9.;#P comment 233 14 58 1034747913 /ramp;#B frgb 0 0 222;#P window setfont "Sans Serif" 14.;#P flonum 62 1 67 14 0. 999999. 35 3 0 0 0 255 255 255 222 222 222 0 0 0;#P objectname step;#P window setfont "Sans Serif" 10.;#P number 290 13 60 10 0 0 32 3 0 0 0 255 255 255 222 222 222 0 0 0;#P objectname ramp;#P bpatcher 0 0 512 62 0 0 bkgnd12.mxt 0 $1;#P objectname background;#P fasten 5 0 4 0 25 259 16 259 16 211 25 211;#P connect 4 0 5 0;#P connect 13 0 14 0;#P fasten 12 0 11 0 81 369 16 369 16 321 25 321;#P connect 27 0 20 0;#P fasten 21 0 20 0 25 399 25 399;#P connect 24 0 25 0;#P connect 11 1 12 0;#P connect 26 0 27 0;#P fasten 39 0 38 0 159 259 150 259 150 211 159 211;#P connect 38 0 39 0;#P fasten 35 0 34 0 323 369 314 369 314 321 323 321;#P connect 34 0 35 0;#P fasten 37 0 36 0 323 434 314 434 314 386 323 386;#P connect 36 0 37 0;#P hidden connect 10 0 8 0;#P pop;