max v2;#N vpatcher 131 175 1032 638;#P window setfont "Sans Serif" 9.;#P window linecount 1;#P newex 639 188 151 196617 moduleinit $1;#B color 13;#P window linecount 13;#P message 639 214 179 196617 \; $1/C/init bang \; $1/C#/init bang \; $1/D/init bang \; $1/D#/init bang \; $1/E/init bang \; $1/F/init bang \; $1/F#/init bang \; $1/G/init bang \; $1/G#/init bang \; $1/A/init bang \; $1/A#/init bang \; $1/B/init bang \;;#P window linecount 1;#P newex 453 113 179 196617 makecontrol $1/B $1 f 0 1 /common;#P newex 425 134 187 196617 makecontrol $1/A# $1 f 0 1 /common;#P newex 397 156 180 196617 makecontrol $1/A $1 f 0 1 /common;#P newex 369 177 186 196617 makecontrol $1/G# $1 f 0 1 /common;#P newex 341 199 179 196617 makecontrol $1/G $1 f 0 1 /common;#P newex 313 220 185 196617 makecontrol $1/F# $1 f 0 1 /common;#P newex 285 242 178 196617 makecontrol $1/F $1 f 0 1 /common;#P newex 257 263 178 196617 makecontrol $1/E $1 f 0 1 /common;#P newex 229 285 186 196617 makecontrol $1/D# $1 f 0 1 /common;#P newex 201 306 179 196617 makecontrol $1/D $1 f 0 1 /common;#P newex 173 328 186 196617 makecontrol $1/C# $1 f 0 1 /common;#P newex 145 349 179 196617 makecontrol $1/C $1 f 0 1 /common;#P newex 145 63 326 196617 unpack 0. 0. 0. 0. 0. 0. 0. 0. 0. 0. 0. 0.;#P newex 145 34 252 196617 r $1/list;#P connect 0 0 1 0;#P connect 1 0 2 0;#P connect 1 1 3 0;#P connect 1 2 4 0;#P connect 1 3 5 0;#P connect 1 4 6 0;#P connect 1 5 7 0;#P connect 1 6 8 0;#P connect 1 7 9 0;#P connect 1 8 10 0;#P connect 1 9 11 0;#P connect 1 10 12 0;#P connect 1 11 13 0;#P connect 15 0 14 0;#P pop;