max v2;#N vpatcher 66 166 1097 486;#P origin 1903 40;#P window setfont "Sans Serif" 9.;#P window linecount 1;#P newex 1038 91 216 196617 tm_editorbuilder /lfo /tapemovie 4 2 2 2000;#B color 6;#P button 1051 64 15 0;#P comment 1069 64 39 196617 delete;#P button 1038 43 15 0;#P comment 1055 43 31 196617 build;#N thispatcher;#Q end;#P newobj 1038 113 61 196617 thispatcher;#P window linecount 0;#P comment 1 868 100 196617;#P connect 3 0 6 0;#P connect 6 0 1 0;#P fasten 5 0 6 1 1056 85 1146 85;#P fasten 1 0 6 2 1043 135 1259 135 1259 87 1249 87;#P pop;