max v2;#N vpatcher 430 345 1379 883;#P origin -389 -377;#P window setfont "Sans Serif" 9.;#P flonum 18 46 35 9 0 0 0 3 0 0 0 221 221 221 222 222 222 0 0 0;#P objectname rigidity;#P window linecount 1;#P comment 54 48 68 196617 /rigidity;#P flonum 18 32 35 9 0 0 0 3 0 0 0 221 221 221 222 222 222 0 0 0;#P objectname damp;#P comment 54 34 68 196617 /damp;#P flonum 18 18 35 9 0 0 0 3 0 0 0 221 221 221 222 222 222 0 0 0;#P objectname linkdamp;#P comment 54 20 68 196617 /link/damp;#P flonum 222 46 35 9 0 0 0 3 0 0 0 221 221 221 222 222 222 0 0 0;#P objectname lenghtmax;#P comment 258 48 68 196617 /lenght/max;#P flonum 222 32 35 9 0 0 0 3 0 0 0 221 221 221 222 222 222 0 0 0;#P objectname lenghtmin;#P comment 258 34 65 196617 /lenght/min;#P flonum 222 18 35 9 0. 1. 3 3 0 0 0 221 221 221 222 222 222 0 0 0;#P objectname lenght;#P comment 258 20 43 196617 /lenght;#P flonum 123 45 35 9 0 0 0 3 0 0 0 221 221 221 222 222 222 0 0 0;#P objectname valmax;#P comment 159 47 59 196617 /val/max;#P flonum 123 32 35 9 0 0 0 3 0 0 0 221 221 221 222 222 222 0 0 0;#P objectname valmin;#P comment 159 34 59 196617 /val/min;#P flonum 123 18 35 9 0 0 0 3 0 0 0 221 221 221 222 222 222 0 0 0;#P objectname val;#P comment 159 20 59 196617 /val;#P comment 389 26 59 196617 /vibe/trig;#P button 354 23 16 0;#P objectname vibetrig;#P flonum 353 44 35 9 0 0 0 3 0 0 0 221 221 221 222 222 222 0 0 0;#P objectname vibeamp;#P newex 268 382 67 196617 pvar valmax;#B color 12;#P newex 268 336 57 196617 pvar damp;#B color 12;#P newex 268 293 68 196617 pvar rigidity;#B color 12;#P newex 268 246 77 196617 pvar lenghtmin;#B color 12;#P newex 268 200 71 196617 pvar vibeamp;#B color 12;#P newex 27 428 48 196617 pvar val;#B color 12;#P newex 27 384 64 196617 pvar valmin;#B color 12;#P newex 27 338 73 196617 pvar linkdamp;#B color 12;#P newex 27 292 80 196617 pvar lenghtmax;#B color 12;#P newex 27 245 61 196617 pvar lenght;#B color 12;#P newex 27 200 70 196617 pvar vibetrig;#B color 12;#P newex 27 451 98 196617 variedit $1/val $1;#B color 12;#P newex 27 221 126 196617 variedit $1/vibe/trig $1;#B color 12;#P newex 268 221 127 196617 variedit $1/vibe/amp $1;#B color 12;#P newex 268 405 123 196617 variedit $1/val/max $1;#B color 12;#P newex 27 405 120 196617 variedit $1/val/min $1;#B color 12;#P newex 27 313 136 196617 variedit $1/length/max $1;#B color 12;#P newex 268 267 133 196617 variedit $1/length/min $1;#B color 12;#P newex 268 359 107 196617 variedit $1/damp $1;#B color 12;#P newex 27 359 129 196617 variedit $1/link/damp $1;#B color 12;#P newex 268 313 118 196617 variedit $1/rigidity $1;#B color 12;#P newex 27 267 111 196617 variedit $1/length $1;#B color 12;#P bpatcher 0 62 512 124 0 0 multimapsendu.edit.mxt 0 $1 /tapemovie;#P hidden newex 1008 631 93 196617 r $1/more/editor;#B color 11;#N thispatcher;#Q end;#P hidden newobj 1008 667 61 196617 thispatcher;#P comment 389 46 59 196617 /vibe/amp;#P bpatcher 0 0 512 62 0 0 bkgnd12.mxt 0 $1 1;#P objectname background;#P connect 14 0 16 0;#P connect 16 0 14 0;#P connect 5 0 17 0;#P connect 17 0 5 0;#P connect 10 0 18 0;#P connect 18 0 10 0;#P connect 7 0 19 0;#P connect 19 0 7 0;#P connect 11 0 20 0;#P connect 20 0 11 0;#P connect 15 0 21 0;#P connect 21 0 15 0;#P connect 13 0 22 0;#P connect 22 0 13 0;#P connect 9 0 23 0;#P connect 23 0 9 0;#P connect 6 0 24 0;#P connect 24 0 6 0;#P connect 8 0 25 0;#P connect 25 0 8 0;#P connect 12 0 26 0;#P connect 26 0 12 0;#P hidden connect 3 0 2 0;#P pop;