max v2;#N vpatcher 168 44 1230 896;#P origin 2892 34;#P window setfont "Sans Serif" 9.;#P window linecount 1;#P hidden newex 1061 113 237 196617 tm_editorbuilder /pmpd /tapemovie 3 2 2;#B color 6;#P button 1075 78 15 0;#P comment 1093 78 39 196617 delete;#P button 1061 59 15 0;#P comment 1078 59 31 196617 build;#N thispatcher;#Q end;#P hidden newobj 1061 133 61 196617 thispatcher;#P window linecount 0;#P comment 2383 7 100 196617;#P hidden connect 3 0 6 0;#P hidden connect 6 0 1 0;#P hidden connect 5 0 6 1;#P hidden connect 1 0 6 2;#P pop;