max v2;#N vpatcher 304 81 1162 507;#P window setfont "Sans Serif" 9.;#P window linecount 1;#P newex 117 272 27 196617 b 2;#P number 35 372 109 9 0 0 0 3 0 0 0 221 221 221 222 222 222 0 0 0;#P number 238 377 109 9 0 0 0 3 0 0 0 221 221 221 222 222 222 0 0 0;#P number 202 158 109 9 0 0 0 3 0 0 0 221 221 221 222 222 222 0 0 0;#P window linecount 9;#P message 554 197 211 196617 \; $1/sw/init bang \; $1/rate/init bang \; $1/system/init bang \; $1/tapemovie/init bang \; $1/lastinit/init bang \; $1/user/reset/init bang \; $1/user/init bang \; control_register/store $1 \;;#P window linecount 1;#P newex 334 183 131 196617 s /timer.1/tapemovie/init;#B color 12;#P newex 58 29 239 196617 makeparam $1/user/reset $1 b;#B color 12;#P newex 58 201 239 196617 makecontrol $1/user $1 i 0 0 /common;#B color 12;#P newex 15 339 204 196617 makecontrol $1/lastinit $1 i 0 0 /common;#B color 12;#P window setfont "Sans Serif" 10.;#N vpatcher 10 59 189 263;#P outlet 32 143 15 0;#P window setfont "Sans Serif" 9.;#P newex 32 121 27 196617 -;#P newex 49 69 50 196617 deferlow;#P newex 49 90 67 196617 i;#P inlet 122 64 15 0;#P inlet 49 40 15 0;#P fasten 1 0 4 0 127 112 37 112;#P lcolor 2;#P connect 4 0 5 0;#P connect 0 0 3 0;#P connect 3 0 2 0;#P connect 2 0 4 1;#P connect 1 0 2 1;#P pop;#P newobj 58 174 90 196618 p user;#N vpatcher 10 59 344 291;#P outlet 50 174 15 0;#P window setfont "Sans Serif" 9.;#P newex 50 151 27 196617 -;#P newex 67 99 50 196617 deferlow;#P newex 67 120 67 196617 i;#P inlet 140 94 15 0;#P inlet 67 59 15 0;#P fasten 1 0 4 0 145 142 55 142;#P lcolor 2;#P connect 4 0 5 0;#P connect 0 0 3 0;#P connect 3 0 2 0;#P connect 2 0 4 1;#P connect 1 0 2 1;#P pop;#P newobj 15 258 90 196618 p init;#P window setfont "Sans Serif" 9.;#P newex 15 232 151 196617 r /instruments/init;#B color 12;#P newex 117 314 310 196617 makecontrol $1/tapemovie $1 i 0 0 /common;#B color 12;#P newex 212 261 297 196617 makecontrol $1/system $1 i 0 0 /common;#B color 12;#P newex 253 77 294 196617 makeparam $1/rate $1 i 1000 1 10000 1;#B color 12;#P newex 197 49 304 196617 makeswitch $1/sw $1 common_switchstate;#B color 12;#P toggle 197 76 15 0;#P newex 197 104 66 196617 metro 1000;#P newex 197 128 45 196617 cpuclock;#B color 5;#P window setfont Helvetica 9.;#P comment 556 126 133 1376265 contact@tapemovie.org;#P comment 556 143 190 1376265 Tom Mays \, Olivier Pfeiffer & Renaud Rubiano;#B frgb 0 146 207;#P comment 556 116 133 1376265 m_timer is a part of tapemovie.;#P window setfont Helvetica 24.;#P comment 556 57 129 1376280 tm_timer;#B frgb 0 146 207;#P window setfont Helvetica 12.;#P window linecount 2;#P comment 556 84 191 1376268 $1 : prefix name \; $2 : name of the render associated \;;#P user panel 553 54 269 111;#X brgb 255 255 255;#X frgb 0 0 0;#X border 1;#X rounded 0;#X shadow 0;#X done;#P window setfont "Sans Serif" 9.;#P window linecount 1;#P newex 554 167 213 196617 moduleinit $1;#B color 13;#P window setfont "Sans Serif" 12.;#N vpatcher 10 59 472 244;#P window setfont "Sans Serif" 9.;#P newex 288 64 142 196617 expr ($f1% 60000.) / 1000.;#P newex 125 88 27 196617 int;#P newex 12 88 27 196617 int;#P newex 125 64 160 196617 expr ($f1% 3600000.) / 60000.;#P newex 12 64 107 196617 expr $f1 / 3600000.;#P outlet 288 117 15 0;#P outlet 125 117 15 0;#P outlet 12 117 15 0;#P inlet 12 29 15 0;#P fasten 0 0 4 0 17 54 17 54;#P connect 4 0 6 0;#P connect 6 0 1 0;#P fasten 0 0 5 0 17 54 130 54;#P connect 5 0 7 0;#P connect 7 0 2 0;#P fasten 0 0 8 0 17 54 293 54;#P connect 8 0 3 0;#P pop;#P newobj 444 328 93 196620 p ms_to_hms;#B color 6;#P window setfont "Sans Serif" 9.;#P flonum 518 358 35 9 0 0 0 3 0 0 0 221 221 221 222 222 222 0 0 0;#P number 481 358 35 9 0 0 0 3 0 0 0 221 221 221 222 222 222 0 0 0;#P number 444 358 35 9 0 0 0 3 0 0 0 221 221 221 222 222 222 0 0 0;#P window setfont "Sans Serif" 10.;#N vpatcher 20 74 230 268;#P window setfont "Sans Serif" 9.;#P newex 50 106 27 196617 -;#P newex 67 71 67 196617 i;#P inlet 142 43 15 0;#P inlet 67 30 15 0;#P outlet 50 128 15 0;#P fasten 2 0 4 0 147 95 55 95;#P lcolor 2;#P connect 4 0 0 0;#P connect 1 0 3 0;#P connect 3 0 4 1;#P connect 2 0 3 1;#P pop;#P newobj 117 290 90 196618 p tapemovie;#P window setfont "Sans Serif" 9.;#P newex 117 253 48 196617 loadbang;#B color 5;#P connect 20 0 21 0;#P connect 21 0 23 0;#P connect 21 0 30 0;#P connect 25 0 22 0;#P connect 22 0 24 0;#P fasten 13 0 21 1 202 252 100 252;#P connect 0 0 31 0;#P connect 31 0 1 0;#P connect 1 0 19 0;#P connect 13 0 22 1;#P connect 16 0 15 0;#P connect 15 0 14 0;#P connect 31 1 13 0;#P connect 14 0 13 0;#P connect 13 0 1 1;#P connect 13 0 28 0;#P connect 13 0 18 0;#P connect 1 0 29 0;#P connect 17 0 14 1;#P connect 5 0 2 0;#P connect 5 1 3 0;#P connect 5 2 4 0;#P connect 6 0 27 0;#P pop;