max v2;#N vpatcher 333 220 1395 792;#P origin -17 26;#P window setfont "Sans Serif" 9.;#P window linecount 1;#P newex 530 294 91 196617 r $1;#B color 5;#P newex 480 362 46 196617 t l clear;#P newex 334 362 46 196617 t l clear;#P newex 162 254 74 196617 t getinputlist l;#P message 598 467 61 196617 getvdevlist;#P newex 190 133 54 196617 zl_change;#B color 12;#P newex 45 256 27 196617 + 1;#B color 11;#P newex 45 222 247 196617 makeparam $1/simul/sw $1 t 0;#B color 11;#P newex 106 341 58 196617 switch 2 1;#P window setfont "Sans Serif" 12.;#N vpatcher 20 74 1316 525;#P origin -78 -267;#P window setfont "Sans Serif" 9.;#P newex 200 138 112 196617 r $1/simul;#B color 12;#P outlet 173 224 15 0;#P window setfont "Sans Serif" 12.;#N vpatcher 30 89 480 277;#P window setfont "Sans Serif" 9.;#P window linecount 1;#P newex 70 71 54 196617 onebang 1;#P newex 50 50 30 196617 t b b;#P window linecount 2;#P message 114 93 119 196617 \; $1/simul/dispose bang \;;#P inlet 50 30 15 0;#P outlet 50 72 15 0;#P window linecount 0;#P comment 42 131 381 196617 Filter the first init because if not /play is the first in temp store and it's not good.;#P connect 2 0 4 0;#P connect 4 0 1 0;#P connect 4 1 5 0;#P connect 5 1 3 0;#P pop;#P newobj 742 171 70 196620 p;#B color 6;#P window setfont "Sans Serif" 9.;#P newex 433 358 112 196617 s $1/simul;#B color 12;#P newex 433 333 77 196617 t getduration 0;#P window setfont "Sans Serif" 12.;#N qlist;#X append 100 \; $1/simul/sw/init bang \; $1/simul/read/init bang \; $1/simul/rate/init bang \; $1/simul/autostart/init bang \; $1/simul/play/init bang \; $1/simul/dim/x/init;#X append bang \; $1/simul/dim/y/init bang \; $1/simul/time/init bang \; $1/simul/loop/init bang \; $1/simul/loop/in/init bang \; $1/simul/loop/out/init bang \; $1/simul/highquality/init;#X append bang \; $1/simul/singlefield/init bang \; $1/simul/deinterlace/init bang \; $1/simul/interp/init bang \; $1/simul/preview/init bang \; $1/simul/vol/init bang \; $1/simul/loopreport_/init;#X append bang \; $1/simul/loadram/init bang \;;#P newobj 742 199 40 196620 qlist;#B color 5;#P window setfont "Sans Serif" 9.;#P newex 384 136 27 196617 t b l;#P newex 384 113 67 196617 prepend rate;#P newex 384 90 271 196617 makeparam $1/simul/rate $1 f 1 -100 100 1;#B color 12;#P newex 384 163 36 196617 zl reg;#P newex 559 312 120 196617 print $1/simul/loadram;#B color 14;#P objectname qtmovie[5];#P newex 472 313 164 196617 s $1/simul/loadramed;#B color 12;#P newex 472 291 110 196617 t -------DONE-------;#P newex 511 272 263 196617 makecontrol $1/simul/loopreport_ $1;#B color 12;#P objectname qtmovie[3];#P message 226 167 30 196617 read;#P newex 313 45 95 196617 r /movie/drawcpu;#B color 12;#P newex 550 249 121 196617 print $1/simul/dumpout;#B color 14;#P objectname qtmovie[1];#P message 649 168 67 196617 autostart \$1;#P newex 649 123 238 196617 makeparam $1/simul/autostart $1 t 0;#B color 12;#P newex 861 301 260 196617 makeparam $1/simul/preview $1 t 0 0 1 0;#B color 12;#P window setfont "Sans Serif" 14.;#N vpatcher 354 165 1454 740;#P origin 0 -1;#P window setfont "Sans Serif" 9.;#P window linecount 0;#P newex 141 43 96 196617 r $1/simul/update;#B color 12;#P window setfont Times 9.;#P newex 63 43 76 1310729 t b b;#P window setfont "Sans Serif" 9.;#P message 129 66 33 196617 clear;#P newex 807 361 150 196617 s $1/simul/read;#B color 12;#P newex 775 272 107 196617 r $1/simul/frommenu;#B color 12;#P newex 893 250 27 196617 + 1;#P newex 807 339 40 196617 itoa;#P newex 775 317 42 196617 zl slice;#P newex 893 210 34 196617 zl len;#P number 893 231 35 9 0 0 0 3 0 0 0 221 221 221 222 222 222 0 0 0;#P newex 893 190 40 196617 atoi;#P newex 775 293 40 196617 atoi;#P newex 636 410 62 196617 prepend vol;#P newex 636 387 253 196617 makeparam $1/simul/vol $1 f 1 0 1 1;#B color 12;#P toggle 313 338 15 0;#P newex 344 383 21 196617 t 0;#P window linecount 1;#P newex 344 357 29 196617 gate;#P message 366 328 14 196617 0;#P window linecount 0;#P message 344 328 14 196617 1;#P window linecount 1;#P newex 322 243 229 196617 r $1/simul/loopreport_;#B color 12;#P newex 344 301 32 196617 sel 0;#P newex 399 408 92 196617 pack;#P newex 399 432 93 196617 prepend looppoints;#P number 399 363 76 9 0 0 0 3 0 0 0 221 221 221 222 222 222 0 0 0;#P number 481 363 76 9 0 0 0 3 0 0 0 221 221 221 222 222 222 0 0 0;#P newex 399 387 92 196617 bondo 2 1;#P newex 481 342 314 196617 makeparam $1/simul/loop/out $1 i 0 0 0 1;#B color 12;#P newex 399 321 308 196617 makeparam $1/simul/loop/in $1 i 0 0 0 1;#B color 12;#P newex 385 301 65 196617 prepend loop;#P newex 385 277 229 196617 makeparam $1/simul/loop $1 m 1;#B color 12;#P newex 199 409 117 196617 t dispose 0 b;#P newex 199 388 123 196617 r $1/simul/dispose;#B color 12;#P window setfont Times 9.;#P newex 248 434 130 1310729 s $1/simul/play;#B color 11;#P window setfont "Sans Serif" 9.;#P newex 156 343 51 196617 tosymbol;#P message 63 289 35 196617 <none>;#P newex 241 293 51 196617 tosymbol;#P newex 156 365 105 196617 prepend read;#P newex 156 293 62 196617 projectpath;#B color 6;#P outlet 156 470 15 0;#P newex 156 270 95 196617 t b s;#P newex 156 319 142 196617 sprintf %smedia/movies/%s;#P newex 63 248 96 196617 route <none>;#P newex 63 221 221 196617 makeparam $1/simul/read $1 s <none>;#B color 12;#P newex 63 108 51 196617 tosymbol;#P newex 63 157 188 196617 s $1/simul/tomenu;#B color 12;#P newex 63 88 122 196617 sprintf %smedia/movies;#P newex 63 65 62 196617 projectpath;#B color 5;#P newex 63 21 130 196617 r $1/simul/init;#B color 12;#P newex 63 131 76 196617 prepend prefix;#P newex 156 387 40 196617 t b l 0;#P newex 96 387 57 196617 t b clear 0;#P window setfont Times 9.;#P newex 63 502 103 1310729 s $1/simul/name;#B color 11;#P connect 51 0 50 0;#P connect 4 0 50 0;#P connect 50 0 5 0;#P connect 5 0 6 0;#P connect 6 0 8 0;#P connect 8 0 3 0;#P connect 3 0 7 0;#P connect 49 0 7 0;#P connect 9 0 10 0;#P connect 10 0 17 0;#P connect 21 2 17 0;#P connect 16 0 0 0;#P connect 17 0 0 0;#P fasten 10 0 1 0 68 284 101 284;#P connect 50 1 49 0;#P connect 10 1 12 0;#P connect 12 0 14 0;#P connect 14 0 11 0;#P connect 11 0 18 0;#P connect 18 0 15 0;#P connect 15 0 2 0;#P fasten 21 0 13 0 204 437 161 437;#P fasten 39 0 13 0 641 469 161 469;#P fasten 23 0 13 0 390 461 161 461;#P fasten 29 0 13 0 404 464 161 464;#P fasten 2 1 13 0 176 437 161 437;#P connect 2 0 13 0;#P fasten 1 1 13 0 124 437 161 437;#P fasten 1 0 13 0 101 437 161 437;#P connect 20 0 21 0;#P connect 12 1 16 0;#P fasten 21 1 19 0 257 432 253 432;#P lcolor 15;#P connect 36 0 19 0;#P fasten 2 2 19 0 191 432 253 432;#P lcolor 15;#P fasten 1 2 19 0 147 432 253 432;#P lcolor 15;#P fasten 16 0 11 1 246 314 293 314;#P connect 34 0 37 0;#P connect 33 0 37 0;#P fasten 22 0 31 0 390 297 349 297;#P connect 31 0 33 0;#P connect 33 0 35 0;#P connect 34 0 35 0;#P connect 35 0 36 0;#P connect 32 0 35 1;#P connect 31 1 34 0;#P connect 22 0 23 0;#P connect 24 0 28 0;#P connect 28 0 26 0;#P connect 26 0 30 0;#P connect 30 0 29 0;#P connect 25 0 27 0;#P connect 27 0 26 1;#P connect 26 1 30 1;#P connect 38 0 39 0;#P connect 47 0 40 0;#P connect 40 0 44 0;#P fasten 46 0 44 1 898 313 812 313;#P connect 44 1 45 0;#P connect 45 0 48 0;#P connect 8 0 41 0;#P connect 41 0 43 0;#P connect 43 0 42 0;#P connect 42 0 46 0;#P pop;#P newobj 926 183 176 196622 p read dispose loop vol;#B color 6;#P window setfont "Sans Serif" 9.;#P message 531 168 29 196617 stop;#P message 495 168 33 196617 start;#P message 289 168 46 196617 loadram;#P newex 289 71 232 196617 makeparam $1/simul/loadram $1 t 0;#B color 12;#P newex 861 277 112 196617 s $1/simul;#B color 12;#P window setfont "Sans Serif" 14.;#N vpatcher 50 119 703 420;#P window setfont "Sans Serif" 9.;#P newex 271 124 343 196617 makeparam $1/simul/interp $1 t 0 0 1 0;#B color 12;#P toggle 271 144 15 0;#P message 271 163 52 196617 interp \$1;#P newex 180 92 366 196617 makeparam $1/simul/deinterlace $1 t 1 0 1 0;#B color 12;#P toggle 180 112 15 0;#P message 180 131 75 196617 deinterlace \$1;#P newex 101 67 362 196617 makeparam $1/simul/singlefield $1 t 1 0 1 0;#B color 12;#P toggle 101 87 15 0;#P message 101 106 71 196617 singlefield \$1;#P newex 22 42 365 196617 makeparam $1/simul/highquality $1 t 0 0 1 0;#B color 12;#P toggle 22 62 15 0;#P message 22 81 73 196617 highquality \$1;#P outlet 22 259 15 0;#P connect 3 0 2 0;#P connect 2 0 1 0;#P connect 10 0 0 0;#P connect 7 0 0 0;#P connect 4 0 0 0;#P connect 1 0 0 0;#P connect 6 0 5 0;#P connect 5 0 4 0;#P connect 9 0 8 0;#P connect 8 0 7 0;#P connect 12 0 11 0;#P connect 11 0 10 0;#P pop;#P newobj 954 211 76 196622 p options;#B color 6;#N vpatcher 555 456 1044 788;#N comlet to jit.qt.movie object;#P outlet 39 296 15 0;#P window setfont "Sans Serif" 9.;#P newex 39 246 53 196617 pack;#P newex 39 270 64 196617 prepend dim;#P newex 69 81 237 196617 s $1/simul/dim/y;#B color 12;#P newex 39 105 237 196617 s $1/simul/dim/x;#B color 12;#P number 39 201 35 9 0 0 0 3 0 0 0 221 221 221 222 222 222 0 0 0;#P number 82 201 35 9 0 0 0 3 0 0 0 221 221 221 222 222 222 0 0 0;#P newex 39 225 53 196617 bondo 2 1;#P newex 82 180 348 196617 makeparam $1/simul/dim/y $1 i $3 0 0 1;#B color 12;#P newex 39 159 348 196617 makeparam $1/simul/dim/x $1 i $2 0 0 1;#B color 12;#P newex 39 59 40 196617 unpack;#P newex 39 35 225 196617 r $1/simul/dim;#B color 12;#P connect 0 0 1 0;#P connect 1 0 7 0;#P connect 2 0 6 0;#P connect 6 0 4 0;#P connect 4 0 10 0;#P connect 10 0 9 0;#P connect 9 0 11 0;#P connect 1 1 8 0;#P connect 3 0 5 0;#P connect 5 0 4 1;#P connect 4 1 10 1;#P pop;#P newobj 907 155 47 196622 p dim;#B color 6;#P window setfont "Sans Serif" 9.;#P newex 495 123 233 196617 makeparam $1/simul/play $1 t 0 0 1;#B color 12;#P newex 495 145 83 196617 sel 1 0;#P number 134 101 35 9 20 0 1 3 0 0 0 221 221 221 222 222 222 0 0 0;#P newex 80 122 64 196617 metro 1000;#P newex 1 76 165 196617 m_colormode $1/simul;#B color 14;#P newex 355 394 161 196617 s $1/simul/duration_;#B color 12;#P newex 394 376 139 196617 s $1/simul/pos_;#B color 12;#P newex 174 21 355 196617 makeswitch $1/simul/sw $1 movie_switchstate;#B color 12;#P newex 212 45 126 196617 r $1/simul/in;#B color 12;#P toggle 174 45 15 0;#P newex 174 101 29 196617 gate;#N comlet need some bangs here;#P inlet 193 45 15 0;#P newex 742 150 133 196617 r $1/simul/init;#B color 12;#P message 80 149 44 196617 gettime;#P newex 355 225 209 196617 route duration time read loadram loopnotify;#P newex 174 202 191 196617 jit.qt.movie @loopreport 1 @adapt 1;#P objectname qtmovie;#P window setfont "Sans Serif" 10.;#P comment 367 202 368 196618 unique 0 beacause with unique 1 \, there is some problem with automatic 0;#P window setfont "Sans Serif" 9.;#P newex 861 136 68 196617 prepend time;#P newex 861 111 295 196617 makeparam $1/simul/time $1 i 0 0 -727379969 1;#B color 12;#P fasten 9 0 15 0 179 95 85 95;#P connect 15 0 5 0;#P connect 16 0 15 1;#P connect 3 0 45 0;#P connect 11 0 9 0;#P connect 9 0 8 0;#P fasten 24 0 3 0 500 191 179 191;#P connect 46 0 3 0;#P fasten 14 0 3 0 6 174 179 174;#P fasten 40 1 3 0 406 201 179 201;#P fasten 37 0 3 0 389 191 179 191;#P fasten 29 0 3 0 654 191 179 191;#P fasten 8 0 3 0 179 150 179 150;#P fasten 5 0 3 0 85 174 179 174;#P fasten 23 0 3 0 294 192 179 192;#P fasten 32 0 3 0 231 192 179 192;#P fasten 25 0 3 0 536 191 179 191;#P fasten 10 0 8 1 217 68 198 68;#P connect 7 0 8 1;#P fasten 31 0 8 1 318 68 198 68;#P connect 22 0 23 0;#P connect 3 1 4 0;#P fasten 4 0 13 0 360 286 360 286;#P connect 38 0 39 0;#P connect 39 0 40 0;#P connect 40 0 37 0;#P fasten 4 1 12 0 399 322 399 322;#P connect 25 0 37 1;#P connect 24 0 37 1;#P connect 4 2 42 0;#P connect 42 0 43 0;#P connect 4 3 34 0;#P connect 34 0 35 0;#P fasten 42 1 18 0 505 353 852 353 852 115 500 115;#P connect 18 0 17 0;#P connect 17 0 24 0;#P connect 4 4 33 0;#P fasten 17 1 25 0 536 165 536 165;#P connect 4 5 30 0;#P fasten 34 0 36 0 477 310 564 310;#P connect 28 0 29 0;#P connect 6 0 44 0;#P connect 44 0 41 0;#P connect 0 0 1 0;#P fasten 26 0 21 0 931 252 866 252;#P connect 1 0 21 0;#P fasten 20 0 21 0 959 269 866 269;#P fasten 19 0 21 0 912 241 866 241;#P pop;#P newobj 153 315 92 196620 p movie-simul;#B color 6;#P window setfont Helvetica 9.;#P comment 53 527 190 1376265 Tom Mays \, Olivier Pfeiffer & Renaud Rubiano;#B frgb 0 146 207;#P window linecount 2;#P comment 54 500 193 1376265 m_grab is a part of movie \, a part of tapemovie. contact@tapemovie.org;#P window setfont Helvetica 24.;#P window linecount 1;#P comment 54 421 107 1376280 m_grab;#B frgb 0 146 207;#P window setfont Helvetica 12.;#P window linecount 4;#P comment 54 448 260 1376268 $1 : prefix name \; $2 : initial dimension x \; $3 : initial dimension y \; $4 : name of the render associated \;;#P user panel 51 416 269 131;#X brgb 255 255 255;#X frgb 0 0 0;#X border 1;#X rounded 0;#X shadow 0;#X done;#P window setfont "Sans Serif" 9.;#P window linecount 1;#P newex 368 294 109 196617 r /movie/drawgpu;#B color 12;#P window linecount 2;#P newex 368 319 276 196617 jit.gl.texture $4 @name $1 @automatic 0 @defaultimage black;#B color 5;#P objectname qtmovie[1];#P window linecount 1;#P newex 275 29 94 196617 r /movie/drawcpu;#B color 12;#P message 861 266 52 196617 interp \$1;#P newex 861 218 168 196617 makeparam $1/interp $1 t 1;#B color 12;#P window setfont "Sans Serif" 14.;#N vpatcher 447 247 1213 719;#P origin 42 19;#P window setfont "Sans Serif" 9.;#P number 463 345 35 9 0 0 0 3 0 0 0 221 221 221 222 222 222 0 0 0;#P number 405 339 35 9 0 0 0 3 0 0 0 221 221 221 222 222 222 0 0 0;#P number 278 282 35 9 0 0 0 3 0 0 0 221 221 221 222 222 222 0 0 0;#P number 341 280 35 9 0 0 0 3 0 0 0 221 221 221 222 222 222 0 0 0;#P number 476 276 35 9 0 0 0 3 0 0 0 221 221 221 222 222 222 0 0 0;#P number 422 276 35 9 0 0 0 3 0 0 0 221 221 221 222 222 222 0 0 0;#P number 477 221 35 9 0 0 0 3 0 0 0 221 221 221 222 222 222 0 0 0;#P number 423 221 35 9 0 0 0 3 0 0 0 221 221 221 222 222 222 0 0 0;#P window linecount 1;#P newex 462 252 27 196617 -;#P newex 412 253 27 196617 -;#P newex 329 120 27 196617 f;#P newex 275 120 27 196617 f;#P message 329 93 50 196617 $3;#P window linecount 0;#P message 275 93 50 196617 $2;#P window linecount 1;#P newex 443 120 29 196617 t b f;#P window linecount 0;#P newex 393 120 29 196617 t b f;#P window linecount 1;#P newex 124 357 27 196617 -;#P newex 188 357 27 196617 -;#P newex 252 357 27 196617 +;#P window linecount 0;#P newex 316 357 27 196617 +;#P window linecount 1;#P newex 293 261 50 196617 t b f;#P newex 250 260 29 196617 t b f;#P window linecount 0;#P newex 91 151 119 196617 t b f;#P window linecount 1;#P newex 293 235 27 196617 / 1.;#P window linecount 0;#P newex 250 234 27 196617 / 1.;#P window linecount 1;#P newex 293 200 46 196617 f;#P window linecount 0;#P newex 250 200 35 196617 f;#P window linecount 1;#P newex 329 151 27 196617 / 2.;#P window linecount 0;#P newex 275 151 27 196617 / 2.;#P window linecount 1;#P newex 395 304 27 196617 f;#P window linecount 0;#P newex 445 304 27 196617 f;#P window linecount 1;#P newex 412 200 29 196617 * 0.;#P window linecount 0;#P newex 462 200 29 196617 * 0.;#P window linecount 1;#P newex 124 383 202 196617 pack 0 0 0 0;#N comlet srcrect message;#P outlet 124 438 15 0;#P message 19 411 72 196617 usesrcrect \$1;#P message 124 411 102 196617 srcrect \$1 \$2 \$3 \$4;#P toggle 19 60 15 0;#P newex 19 21 157 196617 makeparam $1/zoom/sw $1 t 0;#P window linecount 0;#P newex 275 66 48 196617 loadbang;#P window linecount 1;#P newex 443 93 288 196617 makeparam $1/zoom/offset/y $1 f 0.5 0. 1.;#B color 11;#P newex 393 70 290 196617 makeparam $1/zoom/offset/x $1 f 0.5 0. 1.;#B color 11;#P window linecount 0;#P newex 91 46 305 196617 makeparam $1/zoom/level $1 f 1. 0.1 5. 1;#B color 11;#P connect 4 0 5 0;#P connect 5 0 7 0;#P connect 0 0 20 0;#P connect 13 0 26 0;#P lcolor 10;#P connect 26 0 9 0;#P connect 9 0 6 0;#P connect 6 0 8 0;#P fasten 7 0 8 0 24 432 129 432;#P connect 21 1 26 1;#P lcolor 1;#P connect 12 0 25 0;#P lcolor 6;#P connect 25 0 9 1;#P connect 22 1 25 1;#P lcolor 2;#P connect 28 0 16 0;#P lcolor 7;#P connect 27 0 16 0;#P connect 20 0 16 0;#P lcolor 2;#P connect 16 0 18 0;#P connect 18 0 21 0;#P connect 13 0 24 0;#P lcolor 10;#P connect 24 0 9 2;#P connect 20 1 18 1;#P lcolor 1;#P fasten 21 1 24 1 274 317 274 317;#P lcolor 1;#P fasten 3 0 29 0 280 88 280 88;#P lcolor 1;#P connect 29 0 31 0;#P lcolor 1;#P connect 31 0 14 0;#P fasten 14 0 16 1 280 184 280 184;#P connect 21 1 40 0;#P connect 20 0 17 0;#P lcolor 2;#P connect 28 0 17 0;#P lcolor 7;#P connect 17 0 19 0;#P connect 19 0 22 0;#P connect 20 1 19 1;#P lcolor 1;#P connect 12 0 23 0;#P lcolor 6;#P connect 23 0 9 3;#P fasten 3 0 30 0 280 88 334 88;#P lcolor 1;#P connect 30 0 32 0;#P lcolor 1;#P connect 32 0 15 0;#P fasten 15 0 17 1 334 184 334 184;#P fasten 22 1 23 1 338 317 338 317;#P lcolor 2;#P connect 22 1 39 0;#P connect 1 0 27 0;#P connect 21 0 13 0;#P lcolor 8;#P connect 13 0 41 0;#P connect 27 1 11 0;#P connect 11 0 33 0;#P connect 33 0 13 1;#P connect 33 0 37 0;#P connect 11 0 35 0;#P connect 21 1 33 1;#P connect 29 0 11 1;#P lcolor 1;#P connect 2 0 28 0;#P connect 22 0 12 0;#P lcolor 14;#P connect 28 1 10 0;#P connect 10 0 34 0;#P connect 34 0 12 1;#P connect 12 0 42 0;#P connect 34 0 38 0;#P connect 10 0 36 0;#P connect 22 1 34 1;#P connect 30 0 10 1;#P lcolor 1;#P pop;#P newobj 755 258 61 196622 p zoom;#B color 6;#P window setfont "Sans Serif" 9.;#P newex 866 296 96 196617 r $1/status;#B color 12;#P newex 840 347 83 196617 route open close;#B color 12;#P window linecount 2;#P message 840 426 165 196617 \; $1/status/init bang \;;#P window linecount 1;#P newex 840 323 36 196617 zl reg;#B color 12;#P message 689 267 46 196617 settings;#P newex 689 218 168 196617 r $1/settings;#B color 12;#P newex 190 76 185 196617 makeparam $1/status $1 s close;#B color 12;#P newex 570 380 91 196617 s $1/dumpout;#B color 5;#P message 515 267 81 196617 codecquality \$1;#P number 515 246 35 9 0 0 0 3 0 0 0 221 221 221 222 222 222 0 0 0;#P message 19 196 86 196617 argb;#P window setfont "Sans Serif" 14.;#N vpatcher 50 94 515 333;#P window setfont "Sans Serif" 9.;#P newex 144 71 288 196617 makeparam $1/dim/y $3 i 480 0 768 1;#B color 11;#P newex 50 185 104 196617 pak dim 0 0;#P number 144 160 35 9 0 0 0 3 0 0 0 221 221 221 222 222 222 0 0 0;#P number 97 160 35 9 0 0 0 3 0 0 0 221 221 221 222 222 222 0 0 0;#P newex 97 50 264 196617 makeparam $1/dim/x $1 i $2 0 1024 1;#B color 11;#P outlet 50 207 15 0;#P connect 4 0 0 0;#P connect 1 0 2 0;#P connect 2 0 4 1;#P connect 5 0 3 0;#P connect 3 0 4 2;#P pop;#P newobj 373 258 47 196622 p dim;#B color 6;#N vpatcher 390 94 898 312;#P window setfont "Sans Serif" 9.;#P newex 91 50 299 196617 makeparam $1/gamma/red $1 f 0 0 1;#B color 12;#P newex 132 71 263 196617 makeparam $1/gamma/green $1 f 0 0 1;#B color 12;#P newex 173 92 256 196617 makeparam $1/gamma/blue $1 f 0 0 1;#B color 12;#P flonum 91 118 35 9 0 0 0 3 0 0 0 221 221 221 222 222 222 0 0 0;#P flonum 132 118 35 9 0 0 0 3 0 0 0 221 221 221 222 222 222 0 0 0;#P flonum 173 118 35 9 0 0 0 3 0 0 0 221 221 221 222 222 222 0 0 0;#P newex 50 144 134 196617 pak gamma 0. 0. 0.;#P outlet 50 166 15 0;#P connect 1 0 0 0;#P connect 7 0 4 0;#P fasten 4 0 1 1 96 132 96 132;#P connect 6 0 3 0;#P fasten 3 0 1 2 137 132 137 132;#P connect 5 0 2 0;#P fasten 2 0 1 3 178 132 178 132;#P pop;#P newobj 430 258 71 196622 p gamma;#B color 6;#P window setfont "Sans Serif" 9.;#P newex 515 218 168 196617 makeparam $1/quality $1 m 5;#B color 12;#P newex 360 234 87 196617 prepend standard;#P newex 360 156 239 196617 makeparam $1/standard $1 s pal;#B color 11;#P number 314 246 35 9 0 0 0 3 0 0 0 221 221 221 222 222 222 0 0 0;#P message 314 267 45 196617 field \$1;#P newex 314 136 213 196617 makeparam $1/field $1 i 0;#B color 11;#P newex 171 50 122 196617 r $1;#B color 11;#P number 204 171 35 9 0 0 1 3 0 0 0 221 221 221 222 222 222 0 0 0;#P number 266 180 35 9 0 0 1 3 0 0 0 221 221 221 222 222 222 0 0 0;#P newex 266 118 241 196617 makeparam $1/input $1 m 0;#B color 11;#P newex 204 98 230 196617 makeparam $1/vdevice $1 m 0 0 0;#B color 11;#P message 204 192 58 196617 vdevice \$1;#P message 266 201 45 196617 input \$1;#N comlet out;#P outlet 81 385 15 0;#P newex 106 392 120 196617 s $1/out;#B color 13;#P newex 480 439 143 196617 s $1/inputlist;#B color 11;#P newex 334 439 143 196617 s $1/vdevlist;#B color 11;#P comment 347 426 82 196617 video device list;#P newex 480 407 75 196617 prepend append;#P newex 480 387 45 196617 zl iter 1;#P newex 334 407 75 196617 prepend append;#P newex 334 386 45 196617 zl iter 1;#P newex 334 339 302 196617 route vdevlist inputlist;#P comment 493 426 48 196617 input list;#P newex 4 174 116 196617 m_colormode $1;#B color 14;#P newex 143 296 201 196617 jit.qt.grab;#B color 5;#N comlet in;#P inlet 155 55 15 0;#P newex 143 29 123 196617 r $1/in;#B color 13;#P user gswitch2 114 101 39 32 0 0;#P toggle 21 55 15 0;#P newex 21 9 201 196617 makeswitch $1/sw $1 movie_switchstate;#B color 11;#P newex 674 296 168 196617 moduleinit $1;#B color 11;#P window linecount 12;#P message 674 324 145 196617 \; $1/sw/init bang \; $1/simul/sw/init bang \; $1/quality/init bang \; $1/dim/x/init bang \; $1/dim/y/init bang \; $1/zoom/sw/init bang \; $1/zoom/offset/x/init bang \; $1/zoom/offset/y/init bang \; $1/zoom/level/init bang \; $1/interp/init bang \; $1/simul/init bang \;;#P fasten 8 1 35 0 115 193 24 193;#P connect 2 0 3 0;#P connect 59 0 60 0;#P connect 58 0 19 0;#P connect 4 0 19 0;#P connect 60 0 58 0;#P connect 58 0 18 0;#P fasten 3 0 4 0 26 85 119 85;#P connect 7 0 58 1;#P fasten 49 0 4 1 280 47 148 47;#P fasten 6 0 4 1 160 90 148 90;#P connect 5 0 4 1;#P connect 61 1 7 0;#P connect 62 0 7 0;#P fasten 46 0 7 0 760 289 148 289;#P fasten 28 0 7 0 319 289 148 289;#P fasten 26 0 7 0 176 145 148 145;#P fasten 8 0 7 0 9 215 148 215;#P fasten 33 0 7 0 435 289 148 289;#P fasten 34 0 7 0 378 289 148 289;#P fasten 31 0 7 0 365 289 148 289;#P fasten 37 0 7 0 520 289 148 289;#P fasten 41 0 7 0 694 289 148 289;#P fasten 48 0 7 0 866 289 148 289;#P connect 4 1 7 0;#P connect 20 0 7 0;#P connect 63 1 7 0;#P connect 63 0 7 0;#P connect 4 1 57 0;#P connect 57 0 58 2;#P connect 21 0 63 0;#P connect 39 0 61 0;#P connect 22 0 25 0;#P connect 25 0 21 0;#P connect 23 0 24 0;#P connect 24 0 20 0;#P connect 27 0 29 0;#P connect 29 0 28 0;#P connect 7 1 10 0;#P connect 10 0 64 0;#P connect 64 0 11 0;#P connect 11 0 12 0;#P connect 12 0 16 0;#P connect 64 1 16 0;#P connect 30 0 31 0;#P connect 58 0 50 0;#P connect 51 0 50 0;#P connect 66 0 50 0;#P connect 10 1 65 0;#P connect 65 0 13 0;#P connect 13 0 14 0;#P connect 14 0 17 0;#P connect 65 1 17 0;#P connect 32 0 36 0;#P connect 36 0 37 0;#P connect 50 1 38 0;#P connect 1 0 62 0;#P connect 1 0 0 0;#P connect 40 0 41 0;#P fasten 1 0 42 0 679 316 845 316;#P connect 42 0 44 0;#P connect 44 0 43 0;#P connect 47 0 48 0;#P connect 45 0 42 1;#P pop;