max v2;#N vpatcher 341 313 1226 684;#P origin -62 -119;#P window setfont "Sans Serif" 9.;#P window linecount 1;#P newex 641 27 56 196617 pvar interp;#P newex 641 48 209 196617 variedit $1/interp $1;#B color 12;#P toggle 241 16 13 0;#P objectname interp;#P window setfont Helvetica 9.;#P comment 205 15 40 1376265 /interp;#B frgb 0 0 222;#P button 239 45 16 0;#P objectname settings;#P comment 192 47 44 1376265 /settings;#B frgb 0 0 222;#P window setfont "Sans Serif" 9.;#P newex 270 260 143 196617 s $1/settings;#N vpatcher 468 270 636 432;#P window setfont "Sans Serif" 9.;#P message 50 74 50 196617 set close;#P objectname status[3];#P message 81 96 47 196617 set open;#P objectname status[2];#P newex 50 50 72 196617 sel open close;#P inlet 50 30 15 0;#P outlet 50 117 15 0;#P connect 1 0 2 0;#P connect 2 0 4 0;#P connect 3 0 0 0;#P connect 4 0 0 0;#P connect 2 1 3 0;#P pop;#P newobj 422 215 60 196617 p;#P newex 362 172 62 196617 pvar status;#P message 224 29 30 196617 open;#P objectname status;#P window setfont Helvetica 9.;#P comment 191 30 35 1376265 /status;#B frgb 0 0 222;#P window setfont "Sans Serif" 9.;#P newex 32 293 151 196617 makeparam $1/preview $1 t 0;#B color 12;#P message 4 157 14 196617 0;#P newex 4 127 133 196617 r $1/init;#B color 12;#P window setfont Helvetica 9.;#P comment 128 15 35 1376265 /dim/y;#B frgb 0 0 222;#P comment 72 15 35 1376265 /dim/x;#B frgb 0 0 222;#P window setfont Times 9.;#P number 158 15 28 9 0 768 8291 20 0 0 0 221 221 221 17 17 17 0 0 0;#P objectname dimy;#P number 101 15 28 9 0 1024 8291 20 0 0 0 221 221 221 25 25 25 0 0 0;#P objectname dimx;#P window setfont "Sans Serif" 9.;#P newex 620 180 56 196617 pvar dimy;#P newex 620 201 209 196617 variedit $1/dim/y $1;#B color 12;#P newex 620 128 56 196617 pvar dimx;#P newex 620 149 209 196617 variedit $1/dim/x $1;#B color 12;#P window setfont "Sans Serif" 20.;#N vpatcher 0 44 289 292;#P origin -5 -3;#P bpatcher 6 99 257 125 0 0 m_movie.edit.mxt 0 $1/simul;#P objectname mov.1[1];#P window setfont "Sans Serif" 9.;#P window linecount 1;#P hidden newex 902 293 106 196617 bgcolor 240 240 240;#P flonum 107 42 35 9 0 0 0 3 0 0 0 221 221 221 222 222 222 0 0 0;#P flonum 107 61 35 9 0 0 0 3 0 0 0 221 221 221 222 222 222 0 0 0;#P toggle 107 25 15 0;#P window linecount 0;#P hidden newex 170 25 318 196617 variedit $1/zoom/sw $1;#P window linecount 1;#P hidden newex 170 80 319 196617 variedit $1/zoom/level $1;#P hidden newex 170 61 320 196617 variedit $1/zoom/offset/y $1;#P window linecount 0;#P hidden newex 170 42 319 196617 variedit $1/zoom/offset/x $1;#P window linecount 1;#P comment 18 61 89 196617 /zoom/center/y;#P flonum 107 80 35 9 0 0 0 3 0 0 0 221 221 221 222 222 222 0 0 0;#P window linecount 0;#P hidden newex 789 217 93 196617 r $1/more/editor;#B color 11;#N thispatcher;#Q end;#P hidden newobj 891 258 70 196617 thispatcher;#P comment 18 42 89 196617 /zoom/center/x;#P comment 18 80 77 196617 /zoom/coeff;#P comment 18 25 100 196617 /zoom/sw;#P hidden connect 10 0 11 0;#P hidden connect 7 0 13 0;#P hidden connect 8 0 12 0;#P hidden connect 9 0 5 0;#P hidden connect 11 0 10 0;#P hidden connect 13 0 7 0;#P hidden connect 12 0 8 0;#P hidden connect 5 0 9 0;#P hidden connect 4 0 3 0;#P pop;#P newobj 272 26 78 196628 p more;#B color 6;#P window setfont "Sans Serif" 9.;#P newex 362 194 130 196617 variedit $1/status $1;#B color 12;#P newex 355 25 154 196617 variedit $1/vdevice $1;#B color 12;#P newex 355 112 81 196617 pvar grab-input;#P newex 355 86 141 196617 variedit $1/input $1;#B color 12;#P newex 21 157 151 196617 variedit $1/preview $1;#B color 12;#P newex 154 182 29 196617 gate;#P newex 184 122 90 196617 pvar grab-quality;#P newex 184 101 168 196617 variedit $1/quality $1;#B color 12;#P newex 512 25 110 196617 r $1/vdevlist;#B color 12;#P newex 499 86 112 196617 r $1/inputlist;#B color 12;#P newex 355 51 94 196617 pvar grab-vdevice;#P user ubumenu 72 42 103 196617 0 1 1 0;#X add;#X prefix_set 0 0 <none> 0;#X pattrmode 1;#P objectname grab-input;#P user ubumenu 72 28 103 196617 0 1 1 0;#X add;#X prefix_set 0 0 <none> 0;#X pattrmode 1;#P objectname grab-vdevice;#P window setfont Times 9.;#P message 216 71 44 1310729 /settings;#P objectname grab-settings;#P window setfont "Sans Serif" 9.;#P newex 270 235 70 196617 pvar settings;#P newex 154 205 71 196617 pvar preview;#P newex 21 182 89 196617 pvar preview-sw;#P user jit.pwindow 13 13 59 45 0 1 0 0 1 0;#P objectname preview;#P toggle 71 1 13 0;#P objectname preview-sw;#P window setfont Helvetica 9.;#P comment 84 1 40 1376265 /preview;#B frgb 0 0 222;#P window setfont Times 9.;#P comment 268 12 36 1310729 /quality;#B frgb 0 0 255;#P window setfont "Sans Serif" 9.;#P user ubumenu 302 9 45 196617 0 0 1 1;#X add min;#X add low;#X add normal;#X add high;#X add max;#X add lossless;#X prefix_set 0 0 <none> 0;#X pattrmode 1;#P objectname grab-quality;#P newex 201 182 94 196617 m_colormode $1;#B color 14;#P newex 173 157 133 196617 r $1/out;#B color 12;#P bpatcher 0 0 256 62 0 0 bkgnd.mxt 0 $1 1;#P objectname background;#P connect 34 0 35 0;#P connect 8 0 20 0;#P connect 20 0 8 0;#P connect 35 0 8 0;#P connect 20 1 19 0;#P fasten 2 0 9 0 206 201 159 201;#P fasten 19 0 9 0 159 201 159 201;#P connect 1 0 19 1;#P fasten 18 0 17 0 189 145 179 145 179 95 189 95;#P connect 17 0 18 0;#P connect 10 0 41 0;#P connect 14 0 23 0;#P fasten 23 0 14 0 360 47 360 47;#P fasten 16 0 14 0 517 46 360 46;#P connect 22 0 21 0;#P fasten 15 0 22 0 504 107 360 107;#P connect 21 0 22 0;#P connect 40 0 39 0;#P connect 39 0 24 0;#P connect 24 1 40 0;#P fasten 26 0 27 0 625 166 625 171 615 171 615 124 625 124;#P connect 27 0 26 0;#P fasten 28 0 29 0 625 218 625 223 615 223 615 176 625 176;#P connect 29 0 28 0;#P fasten 46 0 47 0 646 65 646 70 636 70 636 23 646 23;#P connect 47 0 46 0;#P pop;