max v2;#N vpatcher 444 279 1542 981;#P window setfont "Sans Serif" 9.;#P newex 171 566 62 196617 prepend set;#P newex 189 548 65 196617 prepend pict;#P user led 78 105 17 17 0 150;#P objectname loadram;#P newex 218 499 70 196617 r $1/dispose;#P newex 218 521 21 196617 t 0;#P newex 189 521 21 196617 t 1;#P newex 189 480 83 196617 r $1/loadramed;#B color 12;#P newex 627 96 131 196617 t 0 i i;#P message 264 279 30 196617 read;#P newex 223 412 48 196617 pvar vol;#B color 14;#P newex 223 433 98 196617 variedit $1/vol $1;#B color 12;#P button 108 28 15 0;#P newex 290 129 137 196617 r $1/loopreport_;#B color 12;#P objectname qtmovie[3];#P newex 431 486 48 196617 t s clear;#P newex 431 508 78 196617 prepend append;#P window setfont Times 9.;#P newex 431 462 130 1310729 r $1/name;#B color 11;#P window setfont "Sans Serif" 9.;#P newex 431 533 55 196617 pvar label;#B color 14;#P newex 236 347 117 196617 r $1/tomenu;#B color 12;#P newex 414 393 157 196617 s $1/frommenu;#B color 12;#P newex 236 371 188 196617 pvar ubu 2;#B color 14;#P newex 819 364 62 196617 prepend set;#P newex 819 337 169 196617 pak i i;#P newex 747 218 166 196617 unpack i i;#P hidden button 78 90 13 1;#P objectname update;#P user umenu 93 106 111 196647 3 64 122 1;#X add cloudy.mov;#P objectname label;#P newex 264 259 63 196617 sel BROWSE;#P newex 264 239 67 196617 pvar browse;#B color 14;#P toggle 136 32 15 0;#P objectname play;#P newex 424 99 137 196617 variedit $1/play;#P newex 424 76 53 196617 pvar play;#B color 14;#P message 14 226 123 196617 argb;#P window setfont Times 9.;#P comment 160 17 35 1310729 /dim/y;#B frgb 0 0 222;#P comment 105 17 35 1310729 /dim/x;#B frgb 0 0 222;#P number 188 17 28 9 0 0 96 20 0 0 0 221 221 221 222 222 222 0 0 0;#P objectname dimy;#P number 134 17 28 9 0 0 96 20 0 0 0 221 221 221 222 222 222 0 0 0;#P objectname dimx;#P window setfont "Sans Serif" 9.;#P newex 408 7 56 196617 pvar dimy;#B color 14;#P newex 408 28 112 196617 variedit $1/dim/y $1;#B color 11;#P newex 276 10 56 196617 pvar dimx;#B color 14;#P newex 276 31 112 196617 variedit $1/dim/x $1;#B color 11;#P toggle 1 106 13 0;#P objectname interp;#P window setfont Times 9.;#P comment 13 106 33 1310729 /interp;#B frgb 0 0 222;#P window setfont "Sans Serif" 9.;#P newex 10 507 61 196617 pvar interp;#B color 14;#P newex 10 528 111 196617 variedit $1/interp $1;#B color 12;#P newex 10 453 84 196617 pvar deinterlace;#B color 14;#P newex 10 474 134 196617 variedit $1/deinterlace $1;#B color 12;#P newex 10 399 80 196617 pvar singlefield;#B color 14;#P newex 10 420 130 196617 variedit $1/singlefield $1;#B color 12;#P toggle 1 92 13 0;#P objectname deinterlace;#P window setfont Times 9.;#P comment 13 92 59 1310729 /deinterlace;#B frgb 0 0 222;#P toggle 1 78 13 0;#P objectname singlefield;#P comment 13 78 59 1310729 /singlefield;#B frgb 0 0 222;#P window setfont "Sans Serif" 9.;#P newex 264 298 155 196617 s $1;#B color 12;#P newex 530 164 71 196617 prepend set 1;#P newex 460 164 62 196617 prepend set;#P window setfont Times 9.;#P comment 80 15 31 1310729 /loop;#B frgb 0 0 255;#P comment 81 40 42 1310729 /loop/in;#B frgb 0 0 222;#P comment 212 39 46 1310729 /loop/out;#B frgb 0 0 222;#P comment 212 62 25 1310729 time;#B frgb 0 0 222;#P comment 215 18 41 1310729 /duration;#B frgb 0 0 222;#P window setfont "Sans Serif" 9.;#P newex 460 137 103 196617 r $1/pos_;#B color 12;#P newex 460 235 100 196617 s $1/time;#B color 12;#P newex 31 155 121 196617 variedit $1/preview $1;#B color 11;#P window setfont Times 9.;#P comment 37 3 53 1310729 /preview;#B frgb 0 0 222;#P window setfont "Sans Serif" 9.;#P newex 430 442 192 196617 s $1/dispose;#B color 11;#P newex 430 421 63 196617 pvar dispose;#B color 14;#P window setfont Arial 9.;#P message 206 106 45 -1205862391 /dispose;#P objectname dispose;#P window setfont "Sans Serif" 9.;#P user ubumenu 92 89 162 196617 0 1 1 0;#X add;#X types "PNG " "JPG " JPEG MooV "PNG " "JPG " JPEG MooV;#X prefix_set 0 1 <none> 2;#X pattrmode 1;#P objectname ubu;#P newex 171 616 242 196617 s $1/loadram;#B color 12;#P newex 10 345 103 196617 pvar highquality;#P newex 10 366 133 196617 variedit $1/highquality $1;#B color 12;#P newex 171 595 112 196617 pvar loadram;#B color 14;#P toggle 1 64 13 0;#P objectname highquality;#P window setfont Times 9.;#P comment 41 107 40 1310729 /loadram;#B frgb 0 0 222;#P comment 13 64 59 1310729 /highquality;#B frgb 0 0 222;#P window setfont "Sans Serif" 9.;#P newex 903 306 76 196617 pvar out_point;#B color 14;#P newex 747 335 70 196617 pvar in_point;#B color 14;#P number 212 27 43 9 0 0 8352 3 50 50 50 221 221 221 50 50 50 0 0 0;#P objectname duration;#P user rslider 122 49 90 16 10600 1 0 0 1;#P objectname range;#P number 212 49 43 9 0 0 8224 3 50 50 50 221 221 221 0 0 0 0 0 0;#P objectname out_point;#P number 80 49 43 9 0 0 8224 3 0 0 0 221 221 221 50 50 50 0 0 0;#P objectname in_point;#P newex 747 168 66 196617 prepend size;#P newex 903 286 160 196617 variedit $1/loop/out;#B color 11;#P newex 747 312 149 196617 variedit $1/loop/in;#B color 11;#P newex 747 192 166 196617 pvar range 2;#B color 14;#P user multiSlider 122 73 90 13 0. 10600. 1 2664 47 0 0 2 0 0 0;#M frgb 0 0 0;#M brgb 255 255 255;#M rgb2 127 127 127;#M rgb3 0 0 0;#M rgb4 37 52 91;#M rgb5 74 105 182;#M rgb6 112 158 18;#M rgb7 149 211 110;#M rgb8 187 9 201;#M rgb9 224 62 37;#M rgb10 7 114 128;#P objectname rgsl;#P newex 7 205 131 196617 m_colormode $1;#B color 14;#P number 212 72 43 9 0 1714000 8227 3 50 50 50 221 221 221 0 0 0 0 0 0;#P objectname time;#P comment 152 34 35 196617 /play;#B frgb 0 0 255;#P toggle 23 3 13 0;#P objectname preview-sw;#P newex 142 205 27 196617 gate;#P newex 31 180 89 196617 pvar preview-sw;#B color 14;#P newex 142 253 71 196617 pvar preview;#B color 14;#P newex 159 179 115 196617 r $1/out;#B color 12;#P newex 460 199 54 196617 pvar time;#B color 14;#P newex 538 64 71 196617 pvar duration;#B color 14;#P newex 612 65 256 196617 r $1/duration;#B color 11;#P newex 530 199 61 196617 pvar rgsl 2;#B color 14;#P user jit.pwindow 17 17 59 45 0 0 0 0 1 0;#P objectname preview;#P window setfont Times 9.;#P message 76 2 46 1310729 BROWSE;#P objectname browse;#P window setfont Arial 9.;#P user ubumenu 79 27 27 -1205862391 0 0 1 0;#X add off;#X add ->;#X add <->;#X prefix_set 0 0 <none> 0;#X pattrmode 1;#P objectname loop;#P window setfont "Sans Serif" 9.;#P newex 4 260 77 196617 pvar loop;#P newex 4 281 224 196617 variedit $1/loop $1;#B color 11;#P newex 5 297 98 196617 pvar rate;#B color 14;#P newex 5 319 165 196617 variedit $1/rate $1;#B color 11;#P flonum 79 74 30 9 -100. 100. 8227 3 0 0 0 221 221 221 50 50 50 0 0 0;#P objectname rate;#P comment 79 64 35 196617 /rate;#B frgb 0 0 222;#P newex 612 137 106 196617 prepend setminmax 0;#P bpatcher 0 0 256 124 0 0 bkgnd2.mxt 0 $1 0;#P objectname background;#P newex 628 434 63 196617 pvar update;#B color 12;#P newex 693 434 85 196617 s movies/update;#B color 12;#P connect 8 0 9 0;#P connect 9 0 8 0;#P connect 6 0 7 0;#P connect 7 0 6 0;#P fasten 40 0 41 0 15 383 15 388 5 388 5 341 15 341;#P connect 41 0 40 0;#P fasten 63 0 64 0 15 437 15 442 5 442 5 395 15 395;#P connect 64 0 63 0;#P fasten 65 0 66 0 15 491 15 496 5 496 5 449 15 449;#P connect 66 0 65 0;#P fasten 67 0 68 0 15 545 15 550 5 550 5 503 15 503;#P connect 68 0 67 0;#P fasten 24 1 79 0 133 223 19 223;#P fasten 19 0 48 0 36 201 28 201 28 152 34 152 36 152;#P connect 48 0 19 0;#P hidden connect 97 0 98 0;#P fasten 48 1 20 0 91 176 147 176;#P fasten 24 0 18 0 12 244 147 244;#P connect 20 0 18 0;#P connect 17 0 20 1;#P connect 105 0 109 0;#P connect 104 0 109 0;#P connect 108 0 39 0;#P connect 109 0 39 0;#P connect 39 0 42 0;#P connect 103 0 104 0;#P connect 104 0 108 0;#P connect 105 0 108 0;#P connect 106 0 105 0;#P fasten 99 0 100 0 228 450 228 455 218 455 218 408 228 408;#P connect 100 0 99 0;#P connect 92 0 90 0;#P connect 83 0 84 0;#P connect 84 0 101 0;#P connect 101 0 58 0;#P fasten 71 0 72 0 281 48 281 53 271 53 271 6 281 6;#P connect 72 0 71 0;#P fasten 73 0 74 0 413 45 413 50 403 50 403 3 413 3;#P connect 74 0 73 0;#P connect 90 1 91 0;#P connect 81 0 80 0;#P connect 80 0 81 0;#P connect 45 0 46 0;#P connect 94 0 96 0;#P connect 96 0 95 0;#P connect 96 1 93 0;#P connect 95 0 93 0;#P connect 50 0 56 0;#P connect 13 0 56 0;#P connect 56 0 16 0;#P connect 16 0 49 0;#P connect 13 0 49 0;#P connect 50 0 57 0;#P connect 16 0 57 0;#P fasten 3 0 13 0 617 190 535 190;#P lcolor 15;#P connect 57 0 13 0;#P connect 14 0 15 0;#P connect 14 0 3 0;#P connect 14 0 102 0;#P connect 102 2 29 0;#P connect 29 0 26 0;#P fasten 89 0 26 0 824 390 716 390 716 188 752 188;#P connect 26 0 87 0;#P fasten 34 0 27 0 752 357 744 357 744 306 752 306;#P connect 87 0 27 0;#P connect 27 0 34 0;#P connect 102 0 34 0;#P connect 27 1 88 0;#P connect 88 0 89 0;#P fasten 35 0 28 0 908 331 899 331 899 280 908 280;#P connect 87 1 28 0;#P connect 28 0 35 0;#P connect 102 1 35 0;#P lcolor 3;#P connect 28 1 88 1;#P pop;