max v2;#N vpatcher 433 167 1513 837;#P origin -59 -98;#P window setfont "Sans Serif" 9.;#P newex 383 446 22 196617 b 1;#B color 12;#P message 418 489 40 196617 <none>;#P newex 407 241 27 196617 t b l;#B color 12;#P newex 431 288 14 196617 r;#B color 12;#P newex 431 267 120 196617 sprintf set %s/init;#B color 12;#P message 280 570 14 196617 0;#P message 254 597 33 196617 clear;#N vpatcher 30 89 547 352;#P origin 43 0;#P window setfont "Sans Serif" 9.;#P newex 145 154 21 196617 t 1;#P newex 364 101 52 196617 route 0 1;#B color 12;#P newex 252 76 234 196617 varieditu /loadram $1;#B color 12;#P newex 25 61 127 196617 sprintf set %s/loadramed;#B color 12;#P newex 26 191 62 196617 prepend set;#P newex 55 160 65 196617 prepend pict;#P newex 55 100 192 196617 r $1/dispose;#P newex 55 135 21 196617 t 0;#P newex 26 122 21 196617 t 1;#P newex 26 81 44 196617 receive;#B color 12;#P inlet 252 56 15 0;#P inlet 25 30 15 0;#P outlet 26 213 15 0;#P connect 1 0 9 0;#P connect 9 0 3 0;#P connect 3 0 4 0;#P connect 4 0 8 0;#P connect 12 0 8 0;#P connect 5 0 8 0;#P connect 7 0 0 0;#P connect 8 0 0 0;#P connect 11 0 5 0;#P connect 6 0 5 0;#P connect 5 0 7 0;#P connect 4 0 7 0;#P connect 11 1 12 0;#P connect 2 0 10 0;#P connect 10 1 11 0;#P fasten 1 0 10 2 30 49 405 49;#P pop;#P newobj 174 480 86 196617 p loadram return;#P message 353 327 68 196617 /update bang;#P newex 353 350 43 196617 s /mov;#B color 12;#P newex 353 302 63 196617 pvar update;#B color 14;#P newex 337 271 68 196617 prepend send;#B color 12;#N thispatcher;#Q end;#P newobj 11 136 61 196617 thispatcher;#P hidden button 712 432 15 0;#P hidden newex 700 474 81 196617 jit.matrix black;#P newex 520 301 120 196617 sprintf send %s/dispose;#B color 12;#P newex 460 114 102 196617 sprintf set %s/pos_;#B color 11;#P newex 176 157 95 196617 sprintf set %s/out;#B color 11;#P newex 273 59 134 196617 sprintf set %s/loopreport_;#B color 11;#P newex 611 45 132 196617 sprintf set %s/duration;#B color 11;#P newex 515 447 107 196617 sprintf set %s/read_;#B color 12;#P newex 506 415 120 196617 sprintf send %s/dispose;#B color 12;#P newex 427 371 132 196617 sprintf send %s/frommenu;#B color 12;#P newex 414 397 47 196617 forward;#B color 12;#P newex 236 327 113 196617 sprintf set %s/tomenu;#B color 12;#P inlet 310 95 15 0;#P newex 315 176 50 196617 deferlow;#P window setfont "Sans Serif" 12.;#N vpatcher 30 89 293 402;#P origin 0 -15;#P window setfont "Sans Serif" 9.;#P window linecount 0;#P newex 91 178 64 196617 sprintf %s_;#P window linecount 2;#P newex 50 138 39 196617 route symbol;#P window linecount 1;#P newex 50 87 46 196617 t dump l;#P newex 50 65 114 196617 sprintf refer %s/state;#P newex 50 254 47 196617 forward;#P window linecount 2;#P newex 91 210 42 196617 prepend send;#P newex 91 138 39 196617 route symbol;#P window linecount 1;#N coll /mov.1/state;#P newobj 50 114 134 196617 coll;#B color 5;#P inlet 50 21 15 0;#P connect 0 0 5 0;#P connect 5 0 6 0;#P connect 6 0 1 0;#P connect 6 1 1 0;#P connect 1 0 7 0;#P fasten 3 0 4 0 96 246 55 246;#P connect 7 0 4 0;#P fasten 7 1 4 0 84 191 55 191;#P connect 1 1 2 0;#P connect 2 0 8 0;#P connect 8 0 3 0;#P pop;#P newobj 315 205 109 196620 p re-send values;#B color 7;#P user led 78 106 17 17 0 150;#P objectname loadram;#P window setfont "Sans Serif" 9.;#P newex 627 97 131 196617 t 0 i i;#P newex 223 413 48 196617 pvar vol;#B color 14;#P newex 223 434 98 196617 varieditu /vol $1;#B color 12;#P button 108 29 15 0;#P newex 273 83 44 196617 receive;#B color 12;#P objectname qtmovie[3];#P newex 515 496 48 196617 t s clear;#P newex 515 518 78 196617 prepend append;#P window setfont Times 9.;#P newex 515 472 37 1310729 receive;#B color 11;#P window setfont "Sans Serif" 9.;#P newex 515 543 55 196617 pvar label;#B color 14;#P newex 236 349 44 196617 receive;#B color 12;#P newex 236 372 188 196617 pvar ubu 2;#B color 14;#P newex 819 365 62 196617 prepend set;#P newex 819 338 169 196617 pak i i;#P newex 747 219 166 196617 unpack i i;#P button 78 91 13 1;#P objectname update;#P user umenu 93 107 111 196647 3 64 123 1;#P objectname label;#P newex 275 240 67 196617 pvar browse;#B color 14;#P toggle 136 33 15 0;#P objectname play;#P newex 424 100 137 196617 varieditu /play $1;#P newex 424 77 53 196617 pvar play;#B color 14;#P message 19 231 123 196617 argb;#P window setfont Times 9.;#P comment 160 18 35 1310729 /dim/y;#B frgb 0 0 222;#P comment 105 18 35 1310729 /dim/x;#B frgb 0 0 222;#P number 188 18 28 9 0 0 96 20 0 0 0 221 221 221 222 222 222 0 0 0;#P objectname dimy;#P number 134 18 28 9 0 0 96 20 0 0 0 221 221 221 222 222 222 0 0 0;#P objectname dimx;#P window setfont "Sans Serif" 9.;#P newex 408 8 56 196617 pvar dimy;#B color 14;#P newex 408 29 112 196617 varieditu /dim/y $1;#B color 11;#P newex 276 11 56 196617 pvar dimx;#B color 14;#P newex 276 32 112 196617 varieditu /dim/x $1;#B color 11;#P toggle 1 107 13 0;#P objectname interp;#P window setfont Times 9.;#P comment 13 107 33 1310729 /interp;#B frgb 0 0 222;#P window setfont "Sans Serif" 9.;#P newex 15 512 61 196617 pvar interp;#B color 14;#P newex 15 533 111 196617 varieditu /interp $1;#B color 12;#P newex 15 458 84 196617 pvar deinterlace;#B color 14;#P newex 15 479 134 196617 varieditu /deinterlace $1;#B color 12;#P newex 15 404 80 196617 pvar singlefield;#B color 14;#P newex 15 425 130 196617 varieditu /singlefield $1;#B color 12;#P toggle 1 93 13 0;#P objectname deinterlace;#P window setfont Times 9.;#P comment 13 93 59 1310729 /deinterlace;#B frgb 0 0 222;#P toggle 1 79 13 0;#P objectname singlefield;#P comment 13 79 59 1310729 /singlefield;#B frgb 0 0 222;#P window setfont "Sans Serif" 9.;#P newex 300 298 47 196617 forward;#B color 12;#P newex 530 165 71 196617 prepend set 1;#P newex 460 165 62 196617 prepend set;#P window setfont Times 9.;#P comment 80 16 31 1310729 /loop;#B frgb 0 0 255;#P comment 81 41 42 1310729 /loop/in;#B frgb 0 0 222;#P comment 212 40 46 1310729 /loop/out;#B frgb 0 0 222;#P comment 212 63 25 1310729 time;#B frgb 0 0 222;#P comment 215 19 41 1310729 /duration;#B frgb 0 0 222;#P window setfont "Sans Serif" 9.;#P newex 460 138 44 196617 receive;#B color 12;#P newex 460 236 47 196617 forward;#B color 12;#P newex 36 160 121 196617 varieditu /preview $1;#B color 11;#P window setfont Times 9.;#P comment 37 4 53 1310729 /preview;#B frgb 0 0 222;#P window setfont "Sans Serif" 9.;#P newex 430 443 47 196617 forward;#B color 11;#P newex 430 416 63 196617 pvar dispose;#B color 14;#P window setfont Arial 9.;#P message 206 107 45 -1205862391 /dispose;#P objectname dispose;#P window setfont "Sans Serif" 9.;#P user ubumenu 90 90 162 196617 0 1 1 0;#X types "PNG " "JPG " JPEG MooV "PNG " "JPG " JPEG MooV;#X prefix_set 0 1 work:/Users/Renaud/SVNs/tllslo/ToLaLuSulO/media/movies/ 4;#X pattrmode 1;#P objectname ubu;#P newex 15 350 103 196617 pvar highquality;#P newex 15 371 133 196617 varieditu /highquality $1;#B color 12;#P newex 174 510 112 196617 pvar loadram;#B color 14;#P toggle 1 65 13 0;#P objectname highquality;#P window setfont Times 9.;#P comment 41 108 40 1310729 /loadram;#B frgb 0 0 222;#P comment 13 65 59 1310729 /highquality;#B frgb 0 0 222;#P window setfont "Sans Serif" 9.;#P newex 903 307 76 196617 pvar out_point;#B color 14;#P newex 747 336 70 196617 pvar in_point;#B color 14;#P number 212 28 43 9 0 0 8352 3 50 50 50 221 221 221 50 50 50 0 0 0;#P objectname duration;#P user rslider 122 50 90 16 10600 1 0 0 1;#P objectname range;#P number 212 50 43 9 0 0 8224 3 50 50 50 221 221 221 0 0 0 0 0 0;#P objectname out_point;#P number 80 50 43 9 0 0 8224 3 0 0 0 221 221 221 50 50 50 0 0 0;#P objectname in_point;#P newex 747 169 66 196617 prepend size;#P newex 903 287 160 196617 varieditu /loop/out $1;#B color 11;#P newex 747 313 149 196617 varieditu /loop/in $1;#B color 11;#P newex 747 193 166 196617 pvar range 2;#B color 14;#P user multiSlider 122 74 90 13 0. 10600. 1 2664 47 0 0 2 0 0 0;#M frgb 0 0 0;#M brgb 255 255 255;#M rgb2 127 127 127;#M rgb3 0 0 0;#M rgb4 37 52 91;#M rgb5 74 105 182;#M rgb6 112 158 18;#M rgb7 149 211 110;#M rgb8 187 9 201;#M rgb9 224 62 37;#M rgb10 7 114 128;#P objectname rgsl;#P newex 12 210 131 196617 m_colormode $1;#B color 14;#P number 212 73 43 9 0 1714000 8227 3 50 50 50 221 221 221 0 0 0 0 0 0;#P objectname time;#P comment 152 35 35 196617 /play;#B frgb 0 0 255;#P toggle 23 4 13 0;#P objectname preview-sw;#P newex 147 210 27 196617 gate;#P newex 36 185 89 196617 pvar preview-sw;#B color 14;#P newex 147 258 71 196617 pvar preview;#B color 14;#P newex 164 184 44 196617 receive;#B color 12;#P newex 460 200 54 196617 pvar time;#B color 14;#P newex 538 65 71 196617 pvar duration;#B color 14;#P newex 613 68 44 196617 receive;#B color 11;#P newex 530 200 52 196617 pvar rgsl;#B color 14;#P user jit.pwindow 17 18 59 45 0 0 0 0 1 0;#P objectname preview;#P window setfont Times 9.;#P message 90 3 23 1310729 read;#P objectname browse;#P window setfont Arial 9.;#P user ubumenu 79 28 27 -1205862391 0 0 1 0;#X add off;#X add ->;#X add <->;#X prefix_set 0 0 <none> 0;#X pattrmode 1;#P objectname loop;#P window setfont "Sans Serif" 9.;#P newex 9 265 77 196617 pvar loop;#P newex 9 286 224 196617 varieditu /loop $1;#B color 11;#P newex 10 302 98 196617 pvar rate;#B color 14;#P newex 10 324 165 196617 varieditu /rate $1;#B color 11;#P flonum 79 75 30 9 -100. 100. 8227 3 0 0 0 221 221 221 50 50 50 0 0 0;#P objectname rate;#P comment 79 65 35 196617 /rate;#B frgb 0 0 222;#P newex 612 138 106 196617 prepend setminmax 0;#P window setfont "Sans Serif" 18.;#P comment 289 593 116 196626 before save;#P bpatcher 0 1 256 124 0 0 bkgndu.mxt 0 mov 0 /movie 2 1;#P objectname background;#P hidden connect 101 0 0 0;#P connect 7 0 8 0;#P connect 8 0 7 0;#P connect 5 0 6 0;#P connect 6 0 5 0;#P hidden connect 0 0 114 0;#P fasten 39 0 40 0 20 388 20 393 10 393 10 346 20 346;#P connect 40 0 39 0;#P fasten 61 0 62 0 20 442 20 447 10 447 10 400 20 400;#P connect 62 0 61 0;#P fasten 63 0 64 0 20 496 20 501 10 501 10 454 20 454;#P connect 64 0 63 0;#P fasten 65 0 66 0 20 550 20 555 10 555 10 508 20 508;#P connect 66 0 65 0;#P hidden connect 112 0 11 0;#P fasten 23 1 77 0 138 228 24 228;#P fasten 18 0 46 0 41 206 33 206 33 157 39 157 41 157;#P connect 46 0 18 0;#P hidden connect 121 0 98 0;#P hidden connect 0 1 65 2;#P hidden connect 120 0 41 0;#P hidden connect 120 0 82 0;#P hidden connect 0 1 61 2;#P hidden connect 0 1 39 2;#P hidden connect 0 1 63 2;#P hidden connect 93 0 94 0;#P hidden connect 0 1 46 2;#P hidden connect 0 1 5 2;#P fasten 46 1 19 0 96 181 152 181;#P connect 19 0 17 0;#P fasten 23 0 17 0 17 249 152 249;#P hidden connect 0 1 7 2;#P connect 109 0 16 0;#P connect 16 0 19 1;#P hidden connect 0 1 119 0;#P connect 119 0 38 0;#P hidden connect 0 1 109 0;#P fasten 95 0 96 0 228 451 228 456 218 456 218 409 228 409;#P connect 96 0 95 0;#P hidden connect 0 1 102 0;#P connect 102 0 88 0;#P connect 88 0 87 0;#P fasten 38 0 119 1 179 543 293 543 293 473 255 473;#P hidden connect 0 1 108 0;#P connect 108 0 93 0;#P fasten 69 0 70 0 281 49 281 54 271 54 271 7 281 7;#P connect 70 0 69 0;#P hidden connect 0 1 95 2;#P connect 81 0 56 0;#P connect 115 0 56 0;#P hidden connect 0 1 100 0;#P connect 100 0 99 0;#P connect 100 0 115 0;#P hidden connect 0 1 69 2;#P connect 123 0 118 0;#P connect 116 0 118 0;#P connect 124 0 118 0;#P connect 118 0 117 0;#P connect 43 0 126 0;#P hidden connect 0 1 124 0;#P fasten 71 0 72 0 413 46 413 51 403 51 403 4 413 4;#P connect 72 0 71 0;#P connect 87 1 103 0;#P connect 104 0 103 0;#P connect 126 0 125 0;#P connect 79 0 78 0;#P connect 78 0 79 0;#P hidden connect 0 1 104 0;#P connect 105 0 44 0;#P connect 43 0 44 0;#P connect 124 1 122 0;#P connect 122 0 123 0;#P hidden connect 0 1 110 0;#P connect 110 0 48 0;#P connect 48 0 54 0;#P connect 12 0 54 0;#P connect 54 0 15 0;#P connect 15 0 47 0;#P connect 12 0 47 0;#P connect 111 0 47 0;#P hidden connect 0 1 71 2;#P hidden connect 0 1 105 0;#P hidden connect 0 1 79 2;#P hidden connect 0 1 106 0;#P connect 106 0 90 0;#P connect 90 0 92 0;#P connect 125 0 92 0;#P connect 92 0 91 0;#P connect 91 0 89 0;#P connect 92 1 89 0;#P hidden connect 0 1 111 0;#P connect 48 0 55 0;#P connect 15 0 55 0;#P fasten 2 0 12 0 617 191 535 191;#P lcolor 15;#P connect 55 0 12 0;#P connect 13 0 14 0;#P hidden connect 0 1 107 0;#P connect 13 0 2 0;#P connect 107 0 13 0;#P connect 13 0 97 0;#P hidden connect 113 0 112 0;#P hidden connect 0 1 113 0;#P connect 97 2 28 0;#P fasten 86 0 25 0 824 391 716 391 716 189 752 189;#P connect 28 0 25 0;#P connect 25 0 84 0;#P fasten 33 0 26 0 752 358 744 358 744 307 752 307;#P connect 84 0 26 0;#P connect 26 0 33 0;#P connect 97 0 33 0;#P connect 26 1 85 0;#P connect 85 0 86 0;#P hidden connect 0 1 26 2;#P fasten 34 0 27 0 908 332 899 332 899 281 908 281;#P connect 84 1 27 0;#P connect 27 0 34 0;#P connect 97 1 34 0;#P lcolor 3;#P connect 27 1 85 1;#P hidden connect 0 1 27 2;#P pop;