max v2;#N vpatcher 309 224 1010 702;#P origin 10 78;#P window setfont "Sans Serif" 9.;#P newex 382 381 199 196617 jit.gl.texture $4;#B color 5;#P objectname qtmovie[2];#P newex 128 231 55 196617 jit.matrix;#P window setfont Helvetica 9.;#P comment 26 418 190 1376265 Tom Mays \, Olivier Pfeiffer & Renaud Rubiano;#B frgb 0 146 207;#P window linecount 2;#P comment 27 391 220 1376265 m_noise is a part of movie \, a part of tapemovie. contact@tapemovie.org;#P window setfont Helvetica 24.;#P window linecount 1;#P comment 27 312 99 1376280 m_noise;#B frgb 0 146 207;#P window setfont Helvetica 12.;#P window linecount 4;#P comment 27 339 260 1376268 $1 : prefix name \; $2 : initial dimension x \; $3 : initial dimension y \; $4 : name of the render associated \;;#P user panel 24 307 269 131;#X brgb 255 255 255;#X frgb 0 0 0;#X border 1;#X rounded 0;#X shadow 0;#X done;#P window setfont "Sans Serif" 9.;#P window linecount 1;#P newex 199 226 109 196617 r /movie/drawgpu;#B color 12;#P window linecount 3;#P newex 199 254 158 196617 jit.gl.texture $4 @name $1 @automatic 0 @defaultimage black;#B color 5;#P objectname qtmovie[1];#P window linecount 1;#P newex 160 71 95 196617 r /movie/drawcpu;#B color 12;#P newex 91 72 27 196617 + 1;#P number 182 117 35 9 0 0 0 3 0 0 0 221 221 221 222 222 222 0 0 0;#P newex 182 94 311 196617 makeparam $1/speedlim $1 i 40 0 100000 1;#B color 12;#P newex 91 107 47 196617 gate 2 1;#P newex 239 175 98 196617 pak dim 0 0;#B color 13;#P flonum 327 155 35 9 0 0 0 3 0 0 0 221 221 221 222 222 222 0 0 0;#P flonum 283 155 35 9 0 0 0 3 0 0 0 221 221 221 222 222 222 0 0 0;#P newex 327 135 349 196617 makeparam $1/dim/y $1 i $3 0 1024 1;#B color 12;#P newex 283 115 349 196617 makeparam $1/dim/x $1 i $2 0 1024 1;#B color 12;#P button 378 221 15 0;#P outlet 361 224 15 0;#P newex 128 202 243 196617 jit.noise 4 char $2 $3;#N comlet in;#P inlet 140 72 15 0;#P newex 128 288 111 196617 s $1/out;#B color 13;#P newex 128 41 146 196617 r $1/in;#B color 13;#P toggle 91 52 15 0;#P newex 91 21 304 196617 makeswitch $1/sw $1 movie_switchstate;#B color 11;#P newex 378 201 168 196617 moduleinit $1;#B color 11;#P window linecount 5;#P message 378 241 116 196617 \; $1/sw/init bang \; $1/dim/x/init bang \; $1/dim/y/init bang \; $1/speedlim/init bang \;;#P window linecount 1;#P newex 128 137 64 196617 speedlim 40;#P connect 3 0 4 0;#P connect 4 0 19 0;#P fasten 19 0 16 0 96 98 96 98;#P fasten 20 0 16 1 165 103 133 103;#P connect 5 0 16 1;#P fasten 7 0 16 1 145 100 133 100;#P connect 16 1 0 0;#P connect 0 0 8 0;#P fasten 15 0 8 0 244 198 133 198;#P connect 20 0 28 0;#P connect 8 0 28 0;#P connect 28 0 6 0;#P connect 16 0 6 0;#P connect 17 0 18 0;#P connect 18 0 0 1;#P connect 29 0 21 0;#P connect 22 0 21 0;#P connect 11 0 13 0;#P connect 13 0 15 1;#P connect 12 0 14 0;#P connect 14 0 15 2;#P connect 8 1 9 0;#P connect 2 0 10 0;#P connect 10 0 1 0;#P connect 28 0 29 0;#P pop;