max v2;#N vpatcher 570 148 1095 634;#P origin -64 -51;#P window setfont "Sans Serif" 9.;#P window linecount 1;#P newex 281 345 22 196617 b 1;#P newex 281 325 67 196617 pvar browse;#P newex 281 366 195 196617 s $1/browse;#P message 78 1 43 196617 browse;#P objectname browse;#P window setfont Helvetica 9.;#P comment 37 1 44 1376265 /preview;#B frgb 0 0 222;#P window setfont "Sans Serif" 9.;#P message 28 390 123 196617 argb;#P newex 45 319 121 196617 variedit $1/preview $1;#B color 11;#P newex 21 369 131 196617 m_colormode $1;#B color 14;#P toggle 22 1 13 0;#P objectname preview-sw;#P newex 156 369 27 196617 gate;#P newex 45 344 89 196617 pvar preview-sw;#B color 14;#P newex 156 417 71 196617 pvar preview;#B color 14;#P newex 173 343 80 196617 receive $1/out;#B color 12;#P user jit.pwindow 16 15 59 45 0 0 0 0 1 0;#P objectname preview;#P window setfont Times 9.;#P newex 283 90 72 1310729 receive $1/name;#B color 11;#P window setfont "Sans Serif" 9.;#P newex 283 113 48 196617 t s clear;#P newex 283 135 78 196617 prepend append;#P newex 283 160 80 196617 pvar soundlabel;#P window setfont Helvetica 9.;#P comment 120 17 45 1376265 loaded :;#B frgb 0 0 200;#P user umenu 120 30 134 1376295 3 64 45 1;#X setrgb 237 236 191 132 132 132 255 255 255 221 221 221 170 170 170 119 119 119 187 187 187;#X add <none>;#P objectname soundlabel;#P window setfont "Sans Serif" 9.;#P newex 222 225 98 196617 receive $1/tomenu;#B color 12;#P newex 400 274 82 196617 s $1/frommenu;#B color 12;#P user ubumenu 119 44 134 196617 0 1 1 0;#X add;#X types "PNG " "JPG " JPEG MooV "PNG " "JPG " JPEG MooV;#X prefix_set 0 1 <none> 3;#X pattrmode 1;#P objectname ubu;#P newex 222 249 188 196617 pvar ubu 2;#P newex 12 257 56 196617 route text;#P newex 12 235 57 196617 pvar name;#P newex 12 279 190 196617 variedit $1/name $1;#P toggle 240 17 13 0;#P objectname interp;#P window setfont Helvetica 9.;#P comment 210 17 33 1376265 /interp;#B frgb 0 0 222;#P window setfont "Sans Serif" 9.;#P newex 12 183 61 196617 pvar interp;#P newex 12 204 194 196617 variedit $1/interp $1;#P window setfont Helvetica 9.;#P comment 76 36 35 1376265 /dim/y;#B frgb 0 0 222;#P comment 76 15 35 1376265 /dim/x;#B frgb 0 0 222;#P window setfont Times 9.;#P number 82 46 28 9 0 8192 35 20 0 0 0 221 221 221 222 222 222 0 0 0;#P objectname dimy;#P number 82 24 28 9 0 8192 35 20 0 0 0 221 221 221 222 222 222 0 0 0;#P objectname dimx;#P window setfont "Sans Serif" 9.;#P newex 12 129 56 196617 pvar dimy;#P newex 12 150 195 196617 variedit $1/dim/y $1;#P newex 12 77 56 196617 pvar dimx;#P newex 12 98 195 196617 variedit $1/dim/x $1;#P bpatcher 0 0 256 62 0 0 bkgnd.mxt 0 $1;#P objectname background;#P fasten 1 0 2 0 17 115 17 120 7 120 7 73 17 73;#P connect 2 0 1 0;#P fasten 3 0 4 0 17 167 17 172 7 172 7 125 17 125;#P connect 4 0 3 0;#P fasten 9 0 10 0 17 221 17 226 7 226 7 179 17 179;#P connect 10 0 9 0;#P fasten 13 0 14 0 17 302 8 302 8 231 17 231;#P connect 14 0 15 0;#P connect 15 0 13 0;#P fasten 32 1 34 0 147 387 33 387;#P fasten 29 0 33 0 50 365 42 365 42 316 48 316 50 316;#P connect 33 0 29 0;#P connect 33 1 30 0;#P connect 30 0 28 0;#P fasten 32 0 28 0 26 408 161 408;#P connect 27 0 30 1;#P connect 19 0 16 0;#P connect 38 0 39 0;#P connect 39 0 37 0;#P connect 25 0 24 0;#P connect 24 0 23 0;#P connect 24 1 22 0;#P connect 23 0 22 0;#P connect 16 1 18 0;#P pop;