max v2;#N vpatcher 626 386 1328 852;#P origin 29 28;#P window setfont "Sans Serif" 12.;#N vpatcher 567 209 1200 679;#P window setfont "Sans Serif" 9.;#P window linecount 1;#P newex 427 353 56 196617 opendialog;#P newex 427 331 113 196617 r $1/browse;#B color 12;#P newex 82 50 138 196617 r $1/update;#B color 12;#P window setfont Times 9.;#P newex 4 50 76 1310729 t b b;#P window setfont "Sans Serif" 9.;#P message 70 73 33 196617 clear;#P newex 229 189 150 196617 s $1/read;#B color 12;#P newex 197 100 107 196617 r $1/frommenu;#B color 12;#P newex 315 78 27 196617 + 1;#P newex 229 167 40 196617 itoa;#P newex 197 145 42 196617 zl slice;#P newex 315 38 34 196617 zl len;#P number 315 59 35 9 0 0 0 3 0 0 0 221 221 221 222 222 222 0 0 0;#P newex 315 18 40 196617 atoi;#P newex 197 121 40 196617 atoi;#P newex 4 115 51 196617 tosymbol;#P newex 4 164 188 196617 s $1/tomenu;#B color 12;#P newex 4 95 127 196617 sprintf %smedia/pictures;#P newex 4 72 62 196617 projectpath;#B color 5;#P newex 4 28 130 196617 r $1/init;#B color 12;#P newex 4 138 76 196617 prepend prefix;#P window linecount 0;#P newex 316 332 51 196617 tosymbol;#P message 230 278 40 196617 <none>;#P window setfont Times 9.;#P newex 480 429 130 1310729 s $1/name;#B color 11;#P window setfont "Sans Serif" 9.;#P newex 401 282 51 196617 tosymbol;#P newex 316 354 105 196617 prepend importmovie;#P newex 316 282 62 196617 projectpath;#B color 6;#P window setfont Times 9.;#P newex 316 398 130 1310729 s $1;#B color 11;#P window setfont "Sans Serif" 9.;#P newex 316 259 95 196617 t b s;#P newex 316 308 165 196617 sprintf %smedia/pictures/%s;#P newex 230 237 96 196617 route <none>;#P newex 230 210 221 196617 makeparam $1/read $1 s <none>;#B color 12;#P newex 316 376 27 196617 t b l;#P newex 266 377 48 196617 t b clear;#P connect 30 0 29 0;#P connect 14 0 29 0;#P connect 29 0 15 0;#P connect 15 0 16 0;#P connect 16 0 18 0;#P connect 18 0 13 0;#P connect 28 0 17 0;#P connect 13 0 17 0;#P connect 29 1 28 0;#P connect 26 0 19 0;#P connect 19 0 23 0;#P fasten 25 0 23 1 320 141 234 141;#P connect 23 1 24 0;#P connect 24 0 27 0;#P connect 2 0 3 0;#P connect 3 0 11 0;#P fasten 3 0 0 0 235 273 271 273;#P connect 18 0 20 0;#P connect 20 0 22 0;#P connect 22 0 21 0;#P connect 21 0 25 0;#P connect 3 1 5 0;#P connect 5 0 7 0;#P connect 7 0 4 0;#P connect 4 0 12 0;#P connect 32 0 8 0;#P connect 12 0 8 0;#P connect 8 0 1 0;#P connect 1 0 6 0;#P connect 1 1 6 0;#P connect 0 0 6 0;#P connect 0 1 6 0;#P connect 5 1 9 0;#P connect 31 0 32 0;#P fasten 9 0 4 1 406 303 476 303;#P fasten 11 0 10 0 235 418 485 418;#P fasten 9 0 10 0 406 303 485 303;#P pop;#P newobj 504 126 96 196620 p file and read;#B color 6;#P window setfont Helvetica 9.;#P comment 21 404 190 1376265 Tom Mays \, Olivier Pfeiffer & Renaud Rubiano;#B frgb 0 146 207;#P window linecount 2;#P comment 22 377 193 1376265 m_pict is a part of movie \, a part of tapemovie. contact@tapemovie.org;#P window setfont Helvetica 24.;#P window linecount 1;#P comment 24 298 107 1376280 m_pict;#B frgb 0 146 207;#P window setfont Helvetica 12.;#P window linecount 4;#P comment 22 325 260 1376268 $1 : prefix name \; $2 : initial dimension x \; $3 : initial dimension y \; $4 : name of the render associated \;;#P user panel 19 293 269 131;#X brgb 255 255 255;#X frgb 0 0 0;#X border 1;#X rounded 0;#X shadow 0;#X done;#P window setfont "Sans Serif" 9.;#P window linecount 1;#P newex 316 248 109 196617 r /movie/drawgpu;#B color 12;#P window linecount 3;#P newex 319 273 158 196617 jit.gl.texture $4 @name $1 @automatic 0 @defaultimage black;#B color 5;#P objectname qtmovie[1];#P window linecount 1;#P newex 164 41 95 196617 r /movie/drawcpu;#B color 12;#P newex 188 171 123 196617 r $1;#B color 12;#P newex 191 135 75 196617 prepend adapt;#P toggle 191 110 15 0;#P newex 191 70 220 196617 makeparam $1/adapt $1 t 1;#B color 12;#P newex 49 99 27 196617 + 1;#P newex 423 138 75 196617 prepend interp;#P toggle 423 113 15 0;#P newex 423 73 220 196617 makeparam $1/interp $1 t 0;#B color 12;#P newex 343 138 62 196617 pak dim 0 0;#P newex 395 52 263 196617 makeparam $1/dim/y $1 i $3 0 8192 1;#B color 12;#P newex 369 33 263 196617 makeparam $1/dim/x $1 i $2 0 8192 1;#B color 12;#P outlet 164 264 15 0;#P newex 185 264 129 196617 s $1/out;#B color 12;#P window linecount 7;#P message 482 187 105 196617 \; $1/sw/init bang \; $1/read/init bang \; $1/dim/x/init bang \; $1/dim/y/init bang \; $1/interp/init bang \; $1/adapt/init bang \;;#P window linecount 1;#P newex 482 162 168 196617 moduleinit $1;#B color 11;#P toggle 49 65 15 0;#P newex 49 138 125 196617 gate 2 1;#P newex 164 199 150 196617 jit.matrix $1/mtrx 4 char 1 1;#B color 5;#P newex 49 21 281 196617 makeswitch $1/sw $1 movie_switchstate;#B color 12;#P newex 304 224 152 196617 s $1_dumpout;#B color 12;#P connect 1 0 4 0;#P connect 4 0 15 0;#P connect 15 0 3 0;#P connect 20 0 3 1;#P fasten 14 0 2 0 428 160 169 160;#P fasten 11 0 2 0 348 160 169 160;#P connect 3 1 2 0;#P connect 18 0 2 0;#P connect 19 0 2 0;#P connect 2 0 8 0;#P connect 3 0 8 0;#P connect 2 0 7 0;#P connect 16 0 17 0;#P connect 17 0 18 0;#P connect 2 1 0 0;#P connect 2 0 21 0;#P connect 22 0 21 0;#P connect 9 0 11 1;#P connect 10 0 11 2;#P connect 12 0 13 0;#P connect 13 0 14 0;#P connect 5 0 6 0;#P pop;