max v2;#N vpatcher 68 66 653 316;#P window setfont Times 9.;#P comment 2 31 133 1310729 sw : $3;#B frgb 60 100 255;#P window linecount 5;#P comment 9 116 168 1310729 arg 1 : activeparams prefix name (i.e. activeparams) \; arg 2 : switch coll name (i.e. switchstate) \; arg 3 : matrix prefix name \; arg 4 : coll matrix name \;;#P window setfont "Sans Serif" 9.;#P window linecount 1;#P newex 151 70 192 196617 common_storeactivepath.mxt $1 $2 $3;#B color 6;#P window setfont Times 9.;#P newex 307 37 69 1310729 pvar openactive;#P newex 385 37 74 1310729 pvar writearchive;#P newex 151 37 69 1310729 pvar storeactive;#P window setfont "Sans Serif" 9.;#P comment 33 207 109 196617 contact@tommays.net;#P comment 33 194 100 196617 patch by Tom Mays;#P window setfont Times 9.;#P comment 2 20 94 1310729 sw : $2;#B frgb 60 100 255;#P newex 463 37 75 1310729 pvar recallarchive;#P message 36 85 28 1310729 recall;#B color 7;#P objectname recallarchive;#P comment 3 72 95 1310729 ---- archive presets ----;#P message 8 85 27 1310729 write;#B color 13;#P objectname writearchive;#P message 7 57 28 1310729 store;#B color 2;#P objectname storeactive;#P message 65 57 28 1310729 open;#B color 9;#P objectname openactive;#P window setfont Times 14.;#P comment 8 4 85 1310734 active params;#P window setfont Times 9.;#P newex 229 37 71 1310729 pvar recallactive;#P message 36 57 28 1310729 recall;#B color 7;#P objectname recallactive;#P comment 3 44 95 1310729 ------ temp preset -------;#P user panel 0 0 107 107;#X brgb 235 235 235;#X frgb 128 128 128;#X border 1;#X rounded 4;#X shadow 2;#X done;#P background;#P connect 14 0 17 0;#P connect 3 0 17 1;#P connect 16 0 17 2;#P connect 15 0 17 3;#P connect 10 0 17 4;#P pop;