max v2;#N vpatcher 289 55 1108 620;#P origin 0 5;#P window setfont "Sans Serif" 9.;#P newex 74 230 101 196617 r $1/init;#B color 11;#P newex 74 274 128 196617 substitute @mapminmax 0;#P newex 46 436 144 196617 zl join;#P window linecount 8;#P comment 245 431 532 196617 data types \; int (i) : [variable name] [data type] [init val] [min] [max] [dynamic] [min line grain] [mapper min] [mapper max] \; float (f) : [variable name] [data type] [init val] [min] [max] [dynamic] [min line grain] [mapper min] [mapper max] \; list (l) : [variable name] [data type] [init list] \; symbol (s) : [variable name] [data type] [init val] \; toggle (t) : [variable name] [data type] [init val] \; menu (m) : [variable name] [data type] [init val] \; bang (b) : [variable name] [data type] \;;#B frgb 255 0 0;#P window linecount 1;#P newex 74 405 91 196617 zl join;#P window setfont Times 9.;#P newex 226 339 107 1310729 route initlist mapminmax;#P newex 226 314 54 1310729 patcherargs;#P window setfont "Sans Serif" 9.;#P window linecount 3;#P comment 370 330 129 196617 for use with dynamically created slab-based texture processing modules;#P window linecount 1;#P newex 74 379 51 196617 zl slice 2;#P newex 46 359 38 196617 gate 2;#P newex 120 338 21 196617 t 1;#P newex 90 338 21 196617 t 2;#P newex 90 318 40 196617 route l;#P newex 90 298 67 196617 loadmess $3;#P comment 35 55 275 196617 ex: machin/scale machin l @initlist 0 127 0 1 0.1;#B frgb 255 0 0;#P window linecount 2;#P comment 35 26 275 196617 if type is "l" for list \, stop at arg 3 "l" then use patcherarg @initlist followed by list of init values for param;#B frgb 255 0 0;#P window linecount 1;#P comment 321 153 136 196617 2 = dyn but not use linecurv;#B frgb 255 0 0;#P window linecount 3;#P comment 277 196 137 196617 message /makeparam/reset pour refaire les coll params avec init suivant;#B frgb 255 0 0;#P window setfont "Sans Serif" 18.;#P window linecount 1;#P comment 370 300 93 196626 defparam;#P window setfont "Sans Serif" 9.;#P window linecount 2;#P comment 370 386 107 196617 patch by Tom Mays contact@tommays.net;#P window linecount 1;#P comment 321 165 127 196617 -only for dynamic params;#B frgb 255 0 0;#P window linecount 2;#P comment 321 129 132 196617 -for default min and max \, set 0 for min and 0 for max;#B frgb 255 0 0;#P window linecount 1;#P message 74 255 350 196617 $1 $3 $4 $5 $6 $7 $8;#P comment 14 165 122 196617 $8;#P comment 14 153 122 196617 $7;#P comment 14 141 122 196617 $6;#P comment 14 129 122 196617 $5;#P comment 14 117 122 196617 $4;#P comment 14 105 122 196617 $3;#P comment 14 93 122 196617 $2;#P newex 74 468 70 196617 prepend store;#N coll $2/params 1;#P newobj 74 505 134 196617 coll $2/params 1;#B color 5;#P window linecount 8;#P comment 136 81 185 196617 arg 1 - variable name \; arg 2 - module class name \; arg 3 - data type \; arg 4 - init value \; arg 5 - min \; arg 6 - max \; arg 7 - dynamic [0 1 2] \; arg 8 - min line grain time (20ms if 0);#P window linecount 1;#P comment 14 81 122 196617 $1;#P connect 22 0 24 0;#P connect 23 0 24 0;#P connect 24 0 31 0;#P connect 33 0 11 0;#P connect 11 0 32 0;#P connect 32 0 24 1;#P connect 24 1 25 0;#P connect 25 0 29 0;#P connect 29 0 3 0;#P connect 31 0 3 0;#P connect 3 0 2 0;#P connect 20 0 21 0;#P connect 21 0 22 0;#P connect 21 1 23 0;#P connect 28 0 29 1;#P connect 28 1 31 1;#P connect 27 1 28 0;#P pop;