max v2;#N vpatcher 133 84 1265 773;#P origin 0 5;#P window setfont "Sans Serif" 9.;#N coll $2/controls 1;#P newobj 862 428 131 196617 coll $2/controls 1;#B color 5;#P newex 328 380 18 196617 t i;#P newex 263 622 178 196617 prepend $1;#B color 11;#P newex 670 450 30 196617 t b b;#P message 702 456 68 196617 set -999999;#P newex 263 469 193 196617 s $1/external/sw;#B color 11;#P newex 263 449 193 196617 r $2/external/sw;#B color 11;#P newex 298 511 223 196617 r $1_;#B color 11;#P newex 356 597 175 196617 print $1_;#B color 11;#P newex 356 575 29 196617 gate;#P toggle 356 552 15 0;#P newex 356 532 225 196617 r $1/print/sw;#B color 11;#P newex 231 532 32 196617 sel 1;#P newex 263 646 62 196617 s /external;#B color 11;#P toggle 263 510 15 0;#P newex 263 490 193 196617 r $1/external/sw;#B color 11;#P newex 263 581 29 196617 gate;#P newex 298 563 36 196617 zl reg;#P newex 375 552 211 196617 r $1_;#B color 11;#P newex 72 548 40 196617 change;#P newex 728 377 51 196617 zl slice 2;#P newex 700 357 38 196617 gate 2;#P newex 774 336 21 196617 t 1;#P newex 744 336 21 196617 t 2;#P newex 744 316 40 196617 route l;#P newex 744 296 67 196617 loadmess $3;#P comment 545 57 275 196617 ex: machin/scale machin l @initlist 0 127 0 1 0.1;#B frgb 255 0 0;#P message 270 69 14 196617 f;#P message 254 69 14 196617 l;#P comment 252 49 57 196617 data type;#P newex 212 88 21 196617 t 2;#P newex 182 88 21 196617 t 1;#P newex 182 68 40 196617 route l;#P newex 182 48 67 196617 loadmess $3;#P window linecount 2;#P comment 545 28 275 196617 if type is "l" for list \, stop at arg 3 "l" then use patcherarg @initlist followed by list of init values for param;#B frgb 255 0 0;#P window setfont Times 9.;#P window linecount 1;#P newex 1017 455 53 1310729 prepend set;#P newex 1017 435 58 1310729 route initlist;#P newex 973 405 54 1310729 patcherargs;#P window setfont "Sans Serif" 9.;#P newex 83 135 38 196617 gate 2;#P comment 831 155 136 196617 2 = dyn but not use linecurv;#B frgb 255 0 0;#N comlet alternate non-receive input;#P inlet 80 26 15 0;#P window setfont Times 10.;#P window linecount 2;#P comment 222 347 46 1310730 min grain size;#N comlet min grain size;#P inlet 207 347 15 0;#N comlet current grain size;#P outlet 241 420 15 0;#P window setfont Times 9.;#P window linecount 1;#P comment 256 421 73 1310729 current grain size;#P window setfont "Sans Serif" 9.;#P window linecount 3;#P comment 931 199 137 196617 message /makeparam/reset pour refaire les coll params avec init suivant;#B frgb 255 0 0;#P window linecount 1;#P newex 824 231 48 196617 t b clear;#P newex 824 209 105 196617 r /makeparam/reset;#B color 11;#P newex 537 308 172 196617 s $1/print/sw;#B color 11;#P newex 537 288 21 196617 t 0;#P comment 381 159 57 196617 min / max;#P comment 708 503 52 196617 init value;#P newex 10 573 229 196617 s $1_;#B color 11;#P window setfont "Sans Serif" 18.;#P comment 992 524 111 196626 makeparam;#P window setfont "Sans Serif" 9.;#P newex 636 544 19 196617 t f;#P newex 602 544 18 196617 t i;#P newex 637 471 21 196617 t 3;#P newex 613 471 21 196617 t 2;#P newex 589 471 21 196617 t 1;#P newex 589 448 58 196617 route i f;#P newex 589 426 67 196617 loadmess $3;#P newex 602 515 78 196617 gate 3;#P window linecount 2;#P comment 992 556 107 196617 patch by Tom Mays contact@tommays.net;#P window linecount 1;#P comment 831 167 127 196617 -only for dynamic params;#B frgb 255 0 0;#P newex 670 210 101 196617 r $1/init;#B color 11;#P window linecount 2;#P comment 831 131 132 196617 -for default min and max \, set 0 for min and 0 for max;#B frgb 255 0 0;#P window linecount 1;#P newex 328 294 53 196617 t 100000;#P newex 328 274 64 196617 sel 0.;#P newex 328 174 175 196617 loadmess $5 $6;#P newex 185 465 21 196617 t 0;#P newex 728 249 54 196617 onebang 1;#P message 728 270 350 196617 $1 $3 $4 $5 $6 $7;#P newex 670 573 277 196617 s $1;#B color 11;#P message 670 485 231 196617 $4;#P button 670 233 15 0;#P newex 130 291 27 196617 + 1;#P newex 130 270 67 196617 loadmess $7;#P newex 161 465 21 196617 t 2;#P newex 137 465 21 196617 t 1;#P newex 137 442 58 196617 route i f;#P newex 137 420 67 196617 loadmess $3;#P newex 57 352 64 196617 gate 3;#P newex 72 527 18 196617 t i;#P newex 72 485 49 196617 gate 2;#P newex 72 506 34 196617 + 0.5;#P newex 328 316 83 196617 maximum 1000.;#P newex 328 195 65 196617 unpack 0. 0.;#P newex 383 215 37 196617 abs 0.;#P newex 328 235 65 196617 maximum 0.;#P newex 328 215 37 196617 abs 0.;#P newex 328 355 85 196617 !/ 1410065408.;#P comment 524 167 122 196617 $8;#P comment 524 155 122 196617 $7;#P newex 111 398 141 196617 linecurv 0. $8;#B color 5;#P window linecount 8;#P comment 985 83 64 196617 types : \; b : bang \; t : toggle \; i : int \; f : float \; m : menu \; s : symbol \; l : list \;;#B frgb 255 0 0;#P window linecount 1;#P comment 524 143 122 196617 $6;#P comment 524 131 122 196617 $5;#P comment 524 119 122 196617 $4;#P comment 524 107 122 196617 $3;#P comment 524 95 122 196617 $2;#P newex 728 402 70 196617 prepend store;#N coll $2/params 1;#P newobj 728 428 131 196617 coll $2/params 1;#B color 5;#P window linecount 2;#P comment 219 203 87 196617 bang when store to coll completed;#P window linecount 1;#P newex 141 183 155 196617 prepend $1;#P newex 141 206 70 196617 prepend store;#N coll $2/state 1;#P newobj 141 230 130 196617 coll $2/state 1;#B color 5;#P newex 141 160 49 196617 zl slice 1;#P newex 111 26 241 196617 r $1;#B color 11;#N comlet value out;#P outlet 57 620 15 0;#P window linecount 8;#P comment 646 83 185 196617 arg 1 - variable name \; arg 2 - module name \; arg 3 - data type \; arg 4 - init value \; arg 5 - min \; arg 6 - max \; arg 7 - dynamic [0 1 2] \; arg 8 - min line grain time (20ms if 0);#P window linecount 1;#P comment 524 83 122 196617 $1;#P window linecount 3;#P comment 398 234 100 196617 calculate correct floating point resolution multiplier;#P window linecount 1;#P comment 163 292 47 196617 dynamic;#P fasten 74 0 60 0 88 169 15 169;#P lcolor 7;#P connect 93 0 60 0;#P lcolor 7;#P connect 31 0 60 0;#P lcolor 7;#P connect 31 2 60 0;#P lcolor 7;#P connect 29 1 60 0;#P lcolor 7;#P connect 37 0 31 0;#P fasten 74 0 4 0 88 173 48 173 48 607 62 607;#P connect 93 0 4 0;#P fasten 31 2 4 0 116 383 62 383;#P lcolor 2;#P connect 31 0 4 0;#P fasten 29 1 4 0 116 604 62 604;#P connect 43 0 29 0;#P connect 35 0 29 0;#P connect 34 0 29 0;#P connect 29 0 28 0;#P connect 28 0 30 0;#P connect 30 0 93 0;#P connect 108 0 93 0;#P connect 81 0 74 0;#P connect 82 0 74 0;#P connect 5 0 74 1;#P connect 72 0 74 1;#P connect 74 1 31 1;#P connect 31 1 19 0;#P connect 19 0 29 1;#P connect 36 0 37 0;#P connect 32 0 33 0;#P connect 33 0 34 0;#P connect 74 1 6 0;#P connect 74 0 9 0;#P connect 6 0 9 0;#P connect 9 0 8 0;#P connect 8 0 7 0;#P connect 33 1 35 0;#P connect 79 0 80 0;#P connect 84 0 80 0;#P connect 85 0 80 0;#P connect 80 0 81 0;#P connect 33 2 43 0;#P connect 70 0 19 3;#P connect 80 1 82 0;#P connect 98 0 100 0;#P connect 111 0 19 4;#P connect 19 2 69 0;#P connect 106 0 107 0;#P connect 97 0 98 0;#P connect 98 0 96 0;#P connect 96 0 110 0;#P connect 110 0 99 0;#P connect 95 0 96 1;#P connect 105 0 95 0;#P connect 100 0 95 0;#P connect 44 0 26 0;#P connect 26 0 23 0;#P connect 23 0 24 0;#P connect 24 0 45 0;#P connect 45 0 46 0;#P connect 46 0 27 0;#P fasten 45 1 27 0 387 313 333 313;#P connect 27 0 22 0;#P connect 22 0 111 0;#P connect 101 0 102 0;#P connect 102 0 103 0;#P connect 103 0 104 0;#P connect 94 0 103 1;#P connect 26 1 25 0;#P connect 25 0 24 1;#P connect 38 0 63 0;#P connect 63 0 64 0;#P connect 52 0 53 0;#P connect 53 0 54 0;#P connect 56 0 51 0;#P connect 55 0 51 0;#P connect 54 0 51 0;#P connect 51 0 57 0;#P connect 53 1 55 0;#P connect 51 1 58 0;#P connect 53 2 56 0;#P connect 48 0 38 0;#P connect 38 0 109 0;#P connect 77 0 39 0;#P connect 109 0 39 0;#P connect 39 0 51 1;#P connect 57 0 40 0;#P connect 51 2 40 0;#P connect 58 0 40 0;#P connect 90 0 91 0;#P connect 89 0 91 0;#P connect 109 1 108 0;#P connect 38 0 42 0;#P connect 42 0 41 0;#P connect 41 0 91 1;#P connect 91 1 92 0;#P connect 92 0 12 0;#P fasten 91 0 12 0 705 399 733 399;#P fasten 66 1 11 0 867 423 733 423;#P connect 12 0 11 0;#P connect 87 0 88 0;#P connect 88 0 89 0;#P connect 66 0 42 1;#P connect 88 1 90 0;#P connect 65 0 66 0;#P fasten 12 0 112 0 733 423 867 423;#P connect 66 1 112 0;#P connect 75 1 76 0;#P connect 76 0 77 0;#P pop;