max v2;#N vpatcher 138 108 1373 812;#P origin 0 5;#P window setfont "Sans Serif" 9.;#P window linecount 1;#P newex 451 621 100 196617 r $2/external/dest;#B color 11;#P newex 451 644 68 196617 prepend send;#B color 11;#P newex 14 82 32 196617 print;#P newex 12 60 29 196617 gate;#P toggle 16 32 15 0;#P number 62 115 35 9 0 0 0 3 0 0 0 221 221 221 222 222 222 0 0 0;#P newex 1123 113 48 196617 loadbang;#P message 1123 165 21 196617 $3;#P number 72 467 35 9 0 0 0 3 0 0 0 221 221 221 222 222 222 0 0 0;#P message 1152 165 21 196617 $7;#P number 57 333 35 9 0 0 0 3 0 0 0 221 221 221 222 222 222 0 0 0;#P window setfont "Sans Serif" 14.;#N vpatcher 588 149 1026 687;#P origin 0 7;#P window setfont "Sans Serif" 9.;#P window linecount 0;#P newex 189 267 29 196617 t l 0;#P newex 54 254 29 196617 gate;#P newex 93 229 29 196617 t 1 l;#P message 114 486 139 196617;#P window linecount 1;#P newex 198 456 62 196617 prepend set;#P comment 206 238 164 196617 b is for bang only one value;#P window setfont "Sans Serif" 14.;#P window linecount 0;#N vpatcher 30 89 331 288;#P window setfont "Sans Serif" 9.;#P window linecount 1;#P comment 136 113 40 196617 max;#P comment 101 114 30 196617 min;#P window linecount 0;#P newex 50 95 65 196617 + 0.;#P newex 50 71 106 196617 !- 1.;#P newex 105 50 135 196617 unpack f f i f;#P newex 228 73 27 196617 f;#P newex 187 73 27 196617 i;#P comment 220 112 40 196617 courbe;#P comment 187 111 30 196617 time;#P inlet 105 30 15 0;#P inlet 50 51 15 0;#P outlet 228 95 15 0;#P outlet 187 95 15 0;#P outlet 50 117 15 0;#P connect 3 0 10 0;#P connect 10 0 11 0;#P connect 11 0 0 0;#P connect 4 0 9 0;#P connect 9 0 11 1;#P connect 9 1 10 1;#P connect 9 2 7 0;#P connect 7 0 1 0;#P connect 9 3 8 0;#P connect 8 0 2 0;#P pop;#P newobj 54 384 104 196622 p toggle-integers-float;#B color 6;#N vpatcher 30 89 320 513;#P window setfont "Sans Serif" 9.;#P newex 50 188 31 196617 == 1;#P newex 40 102 43 196617 zl reg;#P newex 40 152 27 196617 + 1;#P newex 40 128 36 196617 zl sub;#P newex 91 61 40 196617 t b b l;#P newex 151 312 31 196617 t b 0;#P newex 72 355 29 196617 gate;#P newex 91 235 131 196617 t s s 1;#P newex 162 262 62 196617 prepend set;#P newex 151 289 37 196617 match;#P newex 91 157 27 196617 t b i;#N counter 1 2;#X flags 0 0;#P newobj 91 132 66 196617 counter 1 2;#P newex 91 214 35 196617 zl nth;#P newex 183 84 34 196617 zl len;#P newex 91 185 43 196617 zl reg;#P newex 160 62 57 196617 t l l 1;#P inlet 91 41 15 0;#P inlet 160 42 15 0;#P outlet 72 377 15 0;#P connect 14 1 17 0;#P connect 17 0 15 0;#P connect 15 0 16 0;#P connect 15 1 18 0;#P connect 14 2 15 1;#P connect 11 2 12 0;#P connect 13 1 12 0;#P connect 18 0 12 0;#P connect 12 0 0 0;#P connect 3 0 17 1;#P connect 2 0 14 0;#P fasten 13 0 7 0 156 339 250 339 250 124 96 124;#P connect 14 0 7 0;#P connect 16 0 7 0;#P connect 7 0 8 0;#P connect 8 0 4 0;#P connect 4 0 6 0;#P connect 6 0 11 0;#P connect 11 0 12 1;#P connect 8 1 6 1;#P connect 3 2 7 2;#P connect 3 0 4 1;#P connect 5 0 7 4;#P connect 10 0 9 0;#P connect 11 1 9 0;#P connect 9 0 13 0;#P connect 1 0 3 0;#P connect 14 2 10 0;#P connect 3 1 5 0;#P pop;#P newobj 171 384 115 196622 p symbol-menu;#B color 6;#P window setfont "Sans Serif" 9.;#P newex 54 328 245 196617 gate 3;#P message 203 169 14 196617 2;#P newex 45 175 58 196617 zl slice 1;#P newex 45 130 46 196617 tosymbol;#P newex 45 152 40 196617 atoi;#P newex 28 220 55 196617 b 2;#P message 157 169 14 196617 1;#P newex 148 352 175 196617 gate 3;#P newex 159 144 66 196617 sel f i t m s;#P newex 159 121 163 196617 loadmess $3;#P newex 28 451 36 196617 zl reg;#P newex 41 474 55 196617 pak set i f;#P newex 28 497 40 196617 append;#P newex 28 518 174 196617 s $1;#B color 12;#N coll $2/state 1;#P newobj 54 297 261 196617 coll $2/state 1;#B color 5;#P message 54 278 125 196617 $1;#P window linecount 1;#P newex 45 111 58 196617 zl slice 1;#P newex 93 202 217 196617 route t b;#P newex 118 21 138 196617 r /tapemovie/shortcuts/sw;#B color 11;#P newex 45 91 131 196617 r $1/shortcut;#B color 11;#P newex 28 194 27 196617 sel;#P newex 28 69 47 196617 gate 1 1;#P newex 28 21 86 196617 r /shortcuts/sw;#B color 11;#P newex 65 45 40 196617 key;#P comment 206 220 181 196617 t is for toggle between several values;#P fasten 6 0 3 0 123 41 33 41;#P connect 2 0 3 0;#P connect 3 0 4 0;#P connect 4 0 19 0;#P connect 19 0 14 0;#P connect 13 0 12 0;#P connect 14 0 12 0;#P connect 29 0 11 0;#P connect 12 0 11 0;#P connect 5 0 8 0;#P connect 8 0 21 0;#P connect 21 0 20 0;#P connect 20 0 22 0;#P connect 22 0 4 1;#P fasten 30 0 31 0 98 249 59 249;#P lcolor 8;#P connect 32 1 31 0;#P connect 31 0 9 0;#P connect 9 0 10 0;#P connect 23 0 24 0;#P connect 18 0 24 0;#P connect 24 0 26 0;#P connect 26 0 14 1;#P connect 25 0 14 1;#P connect 26 1 13 1;#P connect 1 0 3 1;#P connect 19 1 31 1;#P lcolor 15;#P connect 26 2 13 2;#P connect 8 1 7 0;#P connect 7 0 30 0;#P connect 28 0 29 0;#P connect 19 0 29 0;#P connect 18 0 17 0;#P connect 23 0 17 0;#P connect 17 0 26 1;#P connect 16 2 18 0;#P connect 16 1 18 0;#P connect 16 0 18 0;#P connect 15 0 16 0;#P connect 24 1 25 0;#P connect 7 1 32 0;#P connect 32 0 28 0;#P connect 16 4 23 0;#P connect 16 3 23 0;#P connect 17 1 25 1;#P connect 10 0 24 1;#P connect 30 1 17 1;#P pop;#P newobj 386 60 83 196622 p shortcut;#B color 6;#P window setfont "Sans Serif" 9.;#P newex 276 128 49 196617 append 1;#P newex 223 128 49 196617 append 0;#P newex 223 93 31 196617 t set;#P newex 264 97 21 196617 t 2;#P newex 141 133 69 196617 route symbol;#P comment 646 144 185 196617 arg 8 - min line grain time (20ms if 0);#P comment 646 132 185 196617 arg 7 - dynamic [0 1 2];#P comment 646 120 185 196617 arg 6 - max;#P comment 646 108 185 196617 arg 5 - min;#P comment 646 96 185 196617 arg 4 - init value;#P comment 646 84 185 196617 arg 3 - data type;#P comment 646 72 185 196617 arg 2 - module name;#P comment 646 60 185 196617 arg 1 - variable name;#P window linecount 2;#P comment 560 282 111 196617 disconnect from toggle-external/sw;#P window linecount 1;#P newex 704 186 113 196617 s $1/editinit;#B color 11;#P newex 670 208 53 196617 t b b b b;#P toggle 471 341 15 0;#P newex 471 362 29 196617 gate;#P newex 471 386 105 196617 print $1/makeparam;#P toggle 700 339 15 0;#P button 772 229 15 0;#P newex 728 294 38 196617 zl join;#P newex 870 294 38 196617 zl join;#P newex 913 325 38 196617 zl join;#P newex 977 345 38 196617 zl join;#P newex 1055 345 38 196617 zl join;#P message 1101 326 24 196617 $7;#P message 1030 326 68 196617 $6;#P message 959 326 68 196617 $5;#P message 913 275 258 196617 $4;#P message 870 275 24 196617 $3;#P message 728 275 137 196617 $1;#P newex 1023 429 101 196617 r $1/initval;#B color 11;#P newex 328 380 18 196617 t i;#P newex 263 622 178 196617 prepend $1;#B color 11;#P newex 670 450 30 196617 t b b;#P message 702 456 68 196617 set -999999;#P newex 263 469 193 196617 s $1/external/sw;#B color 11;#P newex 263 449 193 196617 r $2/external/sw;#B color 11;#P newex 298 511 223 196617 r $1_;#B color 11;#P newex 356 597 175 196617 print $1_;#B color 11;#P newex 356 575 29 196617 gate;#P toggle 356 552 15 0;#P newex 356 532 225 196617 r $1/print/sw;#B color 11;#P newex 231 532 32 196617 sel 1;#P newex 263 666 47 196617 forward;#B color 11;#P toggle 263 510 15 0;#P newex 263 490 193 196617 r $1/external/sw;#B color 11;#P newex 263 581 29 196617 gate;#P newex 298 563 36 196617 zl reg;#P newex 375 552 211 196617 r $1_;#B color 11;#P newex 72 548 40 196617 change;#P newex 728 377 51 196617 zl slice 2;#P newex 700 357 38 196617 gate 2;#P newex 772 356 21 196617 t 1;#P newex 742 356 21 196617 t 2;#P newex 742 336 40 196617 route l;#P comment 545 43 275 196617 ex: machin/scale machin l @initlist 0 127 0 1 0.1;#B frgb 255 0 0;#P comment 211 52 57 196617 data type;#P newex 182 89 21 196617 t 1;#P newex 182 68 93 196617 route l t;#P window linecount 2;#P comment 545 14 275 196617 if type is "l" for list \, stop at arg 3 "l" then use patcherarg @initlist followed by list of init values for param;#B frgb 255 0 0;#P window setfont Times 9.;#P window linecount 1;#P newex 1012 454 53 1310729 prepend set;#P newex 1012 405 58 1310729 route initlist;#P newex 968 383 54 1310729 patcherargs;#P window setfont "Sans Serif" 9.;#P newex 83 135 38 196617 gate 2;#P comment 831 132 136 196617 2 = dyn but not use linecurv;#B frgb 255 0 0;#N comlet alternate non-receive input;#P inlet 80 26 15 0;#P window setfont Times 10.;#P window linecount 2;#P comment 222 347 46 1310730 min grain size;#N comlet min grain size;#P inlet 207 347 15 0;#N comlet current grain size;#P outlet 241 420 15 0;#P window setfont Times 9.;#P window linecount 1;#P comment 256 421 73 1310729 current grain size;#P window setfont "Sans Serif" 9.;#P window linecount 3;#P comment 931 199 137 196617 message /makeparam/reset pour refaire les coll params avec init suivant;#B frgb 255 0 0;#P window linecount 1;#P newex 824 231 48 196617 t b clear;#P newex 824 209 105 196617 r /makeparam/reset;#B color 11;#P newex 537 308 172 196617 s $1/print/sw;#B color 11;#P newex 537 288 21 196617 t 0;#P comment 381 159 57 196617 min / max;#P comment 708 503 52 196617 init value;#P newex 10 573 229 196617 s $1_;#B color 11;#P window setfont "Sans Serif" 18.;#P comment 992 524 111 196626 makeparam;#P window setfont "Sans Serif" 9.;#P newex 636 544 19 196617 t f;#P newex 602 544 18 196617 t i;#P newex 637 471 21 196617 t 3;#P newex 613 471 21 196617 t 2;#P newex 589 471 21 196617 t 1;#P newex 589 448 58 196617 route i f;#P newex 602 515 78 196617 gate 3;#P window linecount 2;#P comment 992 556 107 196617 patch by Tom Mays contact@tommays.net;#P window linecount 1;#P comment 831 144 127 196617 -only for dynamic params;#B frgb 255 0 0;#P newex 670 162 101 196617 r $1/init;#B color 11;#P window linecount 2;#P comment 831 108 132 196617 -for default min and max \, set 0 for min and 0 for max;#B frgb 255 0 0;#P window linecount 1;#P newex 328 294 53 196617 t 100000;#P newex 328 274 64 196617 sel 0.;#P newex 328 174 175 196617 loadmess $5 $6;#P newex 185 484 21 196617 t 0;#P newex 728 249 54 196617 onebang 1;#P newex 670 573 277 196617 s $1;#B color 11;#P message 670 485 231 196617 $4;#P button 670 183 15 0;#P newex 130 294 27 196617 + 1;#P newex 161 484 21 196617 t 2;#P newex 137 484 21 196617 t 1;#P newex 137 463 58 196617 route i f;#P newex 1123 141 54 196617 onebang 1;#P newex 57 352 64 196617 gate 3;#P newex 72 527 18 196617 t i;#P newex 72 485 49 196617 gate 2;#P newex 72 506 34 196617 + 0.5;#P newex 328 316 83 196617 maximum 1000.;#P newex 328 195 65 196617 unpack 0. 0.;#P newex 383 215 37 196617 abs 0.;#P newex 328 235 65 196617 maximum 0.;#P newex 328 215 37 196617 abs 0.;#P newex 328 355 85 196617 !/ 1410065408.;#P comment 524 144 122 196617 $8;#P comment 524 132 122 196617 $7;#P newex 111 398 141 196617 linecurv 0. $8;#B color 5;#P window linecount 8;#P comment 985 60 64 196617 types : \; b : bang \; t : toggle \; i : int \; f : float \; m : menu \; s : symbol \; l : list \;;#B frgb 255 0 0;#P window linecount 1;#P comment 524 120 122 196617 $6;#P comment 524 108 122 196617 $5;#P comment 524 96 122 196617 $4;#P comment 524 84 122 196617 $3;#P comment 524 72 122 196617 $2;#P newex 728 402 70 196617 prepend store;#N coll $2/params 1;#P newobj 728 428 131 196617 coll $2/params 1;#B color 5;#P window linecount 2;#P comment 219 203 87 196617 bang when store to coll completed;#P window linecount 1;#P newex 141 183 155 196617 prepend $1;#P newex 141 206 70 196617 prepend store;#N coll $2/state 1;#P newobj 141 230 130 196617 coll $2/state 1;#B color 5;#P newex 141 160 49 196617 zl slice 1;#P newex 111 26 241 196617 tm_alias $1;#B color 11;#N comlet value out;#P outlet 57 620 15 0;#P comment 524 60 122 196617 $1;#P window linecount 3;#P comment 398 234 100 196617 calculate correct floating point resolution multiplier;#P window linecount 1;#P comment 163 295 47 196617 dynamic;#P comment 151 554 111 196617 connect from zl reg;#P message 556 621 54 196617 /external;#P fasten 72 0 58 0 88 169 15 169;#P lcolor 7;#P connect 86 0 58 0;#P lcolor 7;#P connect 32 0 58 0;#P lcolor 7;#P connect 32 2 58 0;#P lcolor 7;#P connect 30 1 58 0;#P lcolor 7;#P connect 145 0 146 0;#P connect 146 0 147 0;#P connect 6 0 146 1;#P connect 37 0 139 0;#P connect 139 0 32 0;#P fasten 72 0 5 0 88 173 48 173 48 607 62 607;#P connect 86 0 5 0;#P fasten 32 2 5 0 116 383 62 383;#P lcolor 2;#P connect 32 0 5 0;#P fasten 30 1 5 0 116 604 62 604;#P connect 78 0 144 0;#P connect 134 0 144 0;#P connect 42 0 141 0;#P connect 36 0 141 0;#P connect 35 0 141 0;#P connect 141 0 30 0;#P connect 30 0 29 0;#P connect 29 0 31 0;#P connect 31 0 86 0;#P connect 101 0 86 0;#P connect 144 0 72 0;#P connect 70 0 72 1;#P connect 6 0 72 1;#P connect 72 1 32 1;#P connect 32 1 20 0;#P connect 20 0 30 1;#P connect 140 0 37 0;#P lcolor 1;#P connect 142 0 34 0;#P lcolor 1;#P connect 34 0 35 0;#P connect 72 1 133 0;#P connect 133 0 7 0;#P connect 133 1 7 0;#P connect 72 0 10 0;#P connect 7 0 10 0;#P connect 10 0 9 0;#P connect 9 0 8 0;#P connect 34 1 36 0;#P connect 142 0 77 0;#P lcolor 1;#P connect 77 0 78 0;#P connect 34 2 42 0;#P connect 68 0 20 3;#P connect 77 1 135 0;#P connect 135 0 136 0;#P connect 91 0 93 0;#P connect 104 0 20 4;#P connect 20 2 67 0;#P connect 99 0 100 0;#P connect 90 0 91 0;#P connect 91 0 89 0;#P connect 89 0 103 0;#P fasten 148 0 92 0 456 663 268 663;#P connect 103 0 92 0;#P connect 77 2 134 0;#P connect 77 1 134 0;#P connect 135 0 137 0;#P connect 88 0 89 1;#P connect 98 0 88 0;#P connect 93 0 88 0;#P connect 43 0 27 0;#P connect 27 0 24 0;#P connect 24 0 25 0;#P connect 25 0 44 0;#P connect 44 0 45 0;#P connect 45 0 28 0;#P fasten 44 1 28 0 387 313 333 313;#P connect 28 0 23 0;#P connect 23 0 104 0;#P connect 94 0 95 0;#P connect 95 0 96 0;#P connect 96 0 97 0;#P connect 87 0 96 1;#P connect 27 1 26 0;#P connect 26 0 25 1;#P fasten 0 0 148 0 561 640 456 640;#P connect 149 0 148 0;#P connect 121 0 120 0;#P connect 120 0 119 0;#P connect 13 0 120 1;#P connect 38 0 61 0;#P connect 61 0 62 0;#P connect 143 0 0 0;#P connect 142 0 51 0;#P lcolor 1;#P connect 51 0 52 0;#P connect 54 0 50 0;#P connect 53 0 50 0;#P connect 52 0 50 0;#P connect 50 0 55 0;#P connect 51 1 53 0;#P connect 50 1 56 0;#P connect 51 2 54 0;#P connect 47 0 38 0;#P connect 38 0 122 0;#P connect 122 0 102 0;#P connect 75 0 39 0;#P connect 102 0 39 0;#P connect 39 0 50 1;#P connect 55 0 40 0;#P connect 50 2 40 0;#P connect 56 0 40 0;#P connect 82 0 118 0;#P connect 83 0 118 0;#P connect 118 0 84 0;#P connect 102 1 101 0;#P connect 122 1 123 0;#P connect 122 2 41 0;#P connect 41 0 106 0;#P connect 106 0 116 0;#P connect 116 0 84 1;#P connect 84 1 85 0;#P connect 85 0 13 0;#P fasten 84 0 13 0 705 399 733 399;#P connect 13 0 12 0;#P fasten 64 1 12 0 867 423 733 423;#P connect 142 0 81 0;#P lcolor 1;#P connect 81 0 82 0;#P connect 115 0 116 1;#P connect 105 0 117 0;#P connect 117 0 41 1;#P connect 64 0 41 1;#P connect 81 1 83 0;#P connect 63 0 64 0;#P fasten 41 0 107 0 733 270 875 270;#P connect 107 0 115 0;#P connect 114 0 115 1;#P fasten 41 0 108 0 733 270 918 270;#P connect 75 0 108 0;#P connect 108 0 114 0;#P connect 113 0 114 1;#P fasten 41 0 109 0 733 270 964 270;#P connect 136 0 109 0;#P lcolor 1;#P connect 109 0 113 0;#P connect 112 0 113 1;#P connect 73 1 74 0;#P connect 105 0 75 0;#P connect 74 0 75 0;#P fasten 41 0 110 0 733 270 1035 270;#P connect 137 0 110 0;#P lcolor 1;#P connect 110 0 112 0;#P connect 111 0 112 1;#P fasten 41 0 111 0 733 270 1106 270;#P connect 143 0 33 0;#P connect 122 3 33 0;#P lcolor 2;#P connect 33 0 142 0;#P lcolor 1;#P connect 33 0 140 0;#P lcolor 1;#P pop;