max v2;#N vpatcher 48 230 919 847;#P window setfont "Sans Serif" 9.;#P window linecount 1;#P newex 418 247 128 196617 r $1/initval;#B color 11;#P newex 12 90 20 196617 t b;#P newex 352 177 152 196617 sprintf send %s/menuupdatesw;#P message 352 57 62 196617 $2;#P newex 352 156 40 196617 itoa;#P newex 352 135 42 196617 zl slice;#P newex 365 114 27 196617 - 1;#P newex 365 95 51 196617 zl sub 46;#P newex 352 75 40 196617 atoi;#P newex 22 272 47 196617 forward;#B color 11;#P newex 12 295 208 196617 s $2/menuupdatesw;#B color 11;#P newex 508 157 40 196617 itoa;#P newex 508 134 49 196617 route 47;#P newex 508 114 40 196617 atoi;#P window linecount 2;#P comment 495 314 52 196617 new init value;#N comlet init value;#P inlet 479 319 15 0;#P window linecount 1;#P newex 479 340 62 196617 prepend set;#P newex 61 510 178 196617 prepend $1;#B color 11;#P newex 61 357 193 196617 s $1/external/sw;#B color 11;#P newex 61 337 193 196617 r $2/external/sw;#B color 11;#P newex 96 399 223 196617 r $1_;#B color 11;#P newex 154 485 175 196617 print $1_;#B color 11;#P newex 154 463 29 196617 gate;#P toggle 154 440 15 0;#P newex 154 420 225 196617 r $1/print/sw;#B color 11;#P newex 29 420 32 196617 sel 1;#P newex 61 534 62 196617 s /external;#B color 11;#P toggle 61 398 15 0;#P newex 61 378 193 196617 r $1/external/sw;#B color 11;#P newex 61 469 29 196617 gate;#P newex 96 451 36 196617 zl reg;#P newex 173 440 211 196617 r $1_;#B color 11;#P newex 61 245 163 196617 s $1_;#B color 11;#P newex 486 46 44 196617 del 100;#P comment 371 545 95 196617 $4;#P window linecount 3;#P comment 709 259 135 196617 message /makeparam/reset pour refaire les coll params avec init suivant;#B frgb 255 0 0;#P window linecount 1;#P newex 601 289 48 196617 t b clear;#P newex 601 267 105 196617 r /makeparam/reset;#B color 11;#P newex 617 143 219 196617 r $2/switchstate_collname;#B color 11;#P comment 371 533 95 196617 $3;#P newex 90 176 208 196617 r $1/switchstatecoll;#B color 11;#N comlet new collname switchstate name;#P inlet 602 120 15 0;#P newex 508 180 72 196617 prepend refer;#P newex 486 92 32 196617 sel 0;#P newex 486 24 48 196617 loadbang;#P message 486 73 111 196617 $3;#P comment 618 120 152 196617 new collname switchstate name;#N coll switchstate 1;#P newobj 72 207 121 196617 coll switchstate 1;#B color 5;#P newex 302 350 155 196617 s $1/print/sw;#B color 11;#P newex 302 330 21 196617 t 0;#P window setfont "Sans Serif" 18.;#P comment 424 462 111 196626 makeswitch;#P window setfont "Sans Serif" 9.;#P window linecount 2;#P comment 578 458 107 196617 patch by Tom Mays contact@tommays.net;#P window linecount 1;#P newex 463 267 135 196617 r $1/init;#B color 11;#P newex 557 310 54 196617 onebang 1;#P message 557 335 148 196617 $1 t $4 0 1 0;#P newex 463 405 223 196617 s $1;#B color 11;#P message 463 372 87 196617 $4;#P button 463 294 15 0;#P comment 371 521 95 196617 $2;#P newex 557 354 70 196617 prepend store;#N coll $2/params 1;#P newobj 557 380 121 196617 coll $2/params 1;#B color 5;#P newex 72 94 155 196617 prepend $1;#P newex 72 117 70 196617 prepend store;#N coll $2/state 1;#P newobj 90 153 157 196617 coll $2/state 1;#B color 5;#P newex 72 71 49 196617 zl slice 1;#P newex 39 31 241 196617 tm_alias $1;#B color 11;#N comlet;#P outlet 39 246 15 0;#P window linecount 4;#P comment 547 509 254 196617 arg 1 - variable name \; arg 2 - module name \; arg 3 - switchstate coll name (default = switchstate) \; arg 4 - init value \;;#P window linecount 1;#P comment 371 509 95 196617 $1;#P comment 75 275 168 196617 send to update bkgndu editor menus;#P connect 4 0 68 0;#P connect 68 0 59 0;#P connect 68 0 60 0;#P connect 67 0 60 0;#P connect 42 0 44 0;#P connect 4 0 3 0;#P fasten 4 0 37 0 44 236 66 236;#P connect 50 0 51 0;#P connect 41 0 42 0;#P connect 42 0 40 0;#P connect 40 0 52 0;#P connect 52 0 43 0;#P connect 4 0 5 0;#P connect 5 0 8 0;#P connect 8 0 7 0;#P connect 7 0 22 0;#P fasten 27 0 22 0 513 202 77 202;#P connect 29 0 22 0;#P connect 39 0 40 1;#P connect 7 0 6 0;#P connect 44 0 39 0;#P connect 49 0 39 0;#P connect 45 0 46 0;#P connect 46 0 47 0;#P connect 47 0 48 0;#P connect 38 0 47 1;#P connect 12 0 20 0;#P connect 20 0 21 0;#P connect 25 0 66 0;#P connect 66 0 61 0;#P connect 61 0 64 0;#P connect 64 0 65 0;#P connect 65 0 67 0;#P connect 61 0 62 0;#P connect 62 0 63 0;#P connect 63 0 64 1;#P connect 17 0 12 0;#P connect 12 0 13 0;#P connect 53 0 13 0;#P connect 13 0 14 0;#P connect 69 0 53 0;#P lcolor 13;#P connect 54 0 53 0;#P connect 25 0 36 0;#P fasten 16 0 24 0 562 330 586 330 586 67 491 67;#P lcolor 7;#P connect 36 0 24 0;#P connect 24 0 26 0;#P connect 26 1 56 0;#P connect 56 0 57 0;#P connect 57 1 58 0;#P connect 57 0 58 0;#P connect 28 0 27 0;#P connect 31 0 27 0;#P connect 58 0 27 0;#P connect 12 0 16 0;#P connect 16 0 15 0;#P connect 15 0 10 0;#P fasten 33 1 9 0 644 375 562 375;#P connect 10 0 9 0;#P connect 32 0 33 0;#P connect 33 0 16 1;#P pop;