max v2;#N vpatcher 166 45 1366 737;#P origin 0 -2;#P window setfont "Sans Serif" 9.;#P window linecount 1;#P comment 524 150 122 196617 $9;#N coll $3/state 1;#P newobj 156 268 130 196617 coll $3/state 1;#B color 5;#P newex 718 194 113 196617 s $1/editinit;#B color 11;#P newex 670 215 40 196617 t b b b;#P toggle 471 348 15 0;#P newex 474 369 29 196617 gate;#P newex 484 392 105 196617 print $1/makeparam;#P toggle 700 346 15 0;#P button 772 236 15 0;#P newex 728 301 38 196617 zl join;#P newex 870 301 38 196617 zl join;#P newex 913 332 38 196617 zl join;#P newex 977 352 38 196617 zl join;#P newex 1055 352 38 196617 zl join;#P message 1101 333 21 196617 $8;#P message 1030 333 68 196617 $7;#P message 959 333 68 196617 $6;#P message 913 282 258 196617 $5;#P message 870 282 24 196617 $4;#P message 728 282 137 196617 $1;#P newex 1023 436 101 196617 r $1/initval;#B color 11;#P newex 328 387 18 196617 t i;#P newex 263 629 178 196617 prepend $1;#B color 11;#P newex 670 457 30 196617 t b b;#P message 702 463 68 196617 set -999999;#P newex 263 476 193 196617 s $1/external/sw;#B color 11;#P newex 263 456 193 196617 r $3/external/sw;#B color 11;#P newex 298 518 223 196617 r $1_;#B color 11;#P newex 356 604 175 196617 print $1_;#B color 11;#P newex 356 582 29 196617 gate;#P toggle 356 559 15 0;#P newex 356 539 225 196617 r $1/print/sw;#B color 11;#P newex 231 539 32 196617 sel 1;#P newex 263 653 62 196617 s /external;#B color 11;#P toggle 263 517 15 0;#P newex 263 497 193 196617 r $1/external/sw;#B color 11;#P newex 263 588 29 196617 gate;#P newex 298 570 36 196617 zl reg;#P newex 375 559 211 196617 r $1_;#B color 11;#P newex 72 555 40 196617 change;#P newex 728 384 51 196617 zl slice 2;#P newex 700 364 38 196617 gate 2;#P newex 772 363 21 196617 t 1;#P newex 742 363 21 196617 t 2;#P newex 742 343 40 196617 route l;#P newex 742 323 67 196617 loadmess $4;#P comment 545 37 446 196617 ex: /machin/scale/map/speedlim /machin/scale/map /machin/scale l @initlist 0 127 0 1 0.1;#B frgb 255 0 0;#P message 270 76 14 196617 f;#P message 254 76 14 196617 l;#P comment 252 56 57 196617 data type;#P newex 212 95 21 196617 t 2;#P newex 182 95 21 196617 t 1;#P newex 182 75 40 196617 route l;#P newex 182 55 67 196617 loadmess $4;#P comment 545 21 505 196617 if type is "l" for list \, stop at arg 4 "l" then use patcherarg @initlist followed by list of init values for param;#B frgb 255 0 0;#P window setfont Times 9.;#P newex 1012 461 53 1310729 prepend set;#P newex 1012 412 58 1310729 route initlist;#P newex 968 390 54 1310729 patcherargs;#P window setfont "Sans Serif" 9.;#P newex 83 142 38 196617 gate 2;#P comment 831 138 136 196617 2 = dyn but not use linecurv;#B frgb 255 0 0;#N comlet alternate non-receive input;#P inlet 80 33 15 0;#P window setfont Times 10.;#P window linecount 2;#P comment 222 354 46 1310730 min grain size;#N comlet min grain size;#P inlet 207 354 15 0;#N comlet current grain size;#P outlet 241 427 15 0;#P window setfont Times 9.;#P window linecount 1;#P comment 256 428 73 1310729 current grain size;#P window setfont "Sans Serif" 9.;#P window linecount 3;#P comment 931 206 137 196617 message /makeparam/reset pour refaire les coll params avec init suivant;#B frgb 255 0 0;#P window linecount 1;#P newex 824 238 48 196617 t b clear;#P newex 824 216 105 196617 r /makeparam/reset;#B color 11;#P newex 537 315 172 196617 s $1/print/sw;#B color 11;#P newex 537 295 21 196617 t 0;#P comment 381 166 57 196617 min / max;#P comment 708 510 52 196617 init value;#P newex 10 580 229 196617 s $1_;#B color 11;#P window setfont "Sans Serif" 18.;#P comment 992 531 111 196626 makeparam;#P window setfont "Sans Serif" 9.;#P newex 636 551 19 196617 t f;#P newex 602 551 18 196617 t i;#P newex 637 478 21 196617 t 3;#P newex 613 478 21 196617 t 2;#P newex 589 478 21 196617 t 1;#P newex 589 455 58 196617 route i f;#P newex 589 433 67 196617 loadmess $4;#P newex 602 522 78 196617 gate 3;#P window linecount 2;#P comment 992 563 107 196617 patch by Tom Mays contact@tommays.net;#P window linecount 1;#P comment 831 150 127 196617 -only for dynamic params;#B frgb 255 0 0;#P newex 670 169 101 196617 r $1/init;#B color 11;#P window linecount 2;#P comment 831 114 132 196617 -for default min and max \, set 0 for min and 0 for max;#B frgb 255 0 0;#P window linecount 1;#P newex 328 301 53 196617 t 100000;#P newex 328 281 64 196617 sel 0.;#P newex 328 181 175 196617 loadmess $6 $7;#P newex 185 472 21 196617 t 0;#P newex 728 256 54 196617 onebang 1;#P newex 670 580 277 196617 s $1;#B color 11;#P message 670 492 231 196617 $5;#P button 670 190 15 0;#P newex 130 320 27 196617 + 1;#P newex 130 299 67 196617 loadmess $8;#P newex 161 472 21 196617 t 2;#P newex 137 472 21 196617 t 1;#P newex 137 449 58 196617 route i f;#P newex 137 427 67 196617 loadmess $4;#P newex 57 359 64 196617 gate 3;#P newex 72 534 18 196617 t i;#P newex 72 492 49 196617 gate 2;#P newex 72 513 34 196617 + 0.5;#P newex 328 323 83 196617 maximum 1000.;#P newex 328 202 65 196617 unpack 0. 0.;#P newex 383 222 37 196617 abs 0.;#P newex 328 242 65 196617 maximum 0.;#P newex 328 222 37 196617 abs 0.;#P newex 328 362 85 196617 !/ 1410065408.;#P comment 524 138 122 196617 $8;#P comment 524 126 122 196617 $7;#P newex 111 405 141 196617 linecurv 0. $9;#B color 5;#P window linecount 8;#P comment 985 66 64 196617 types : \; b : bang \; t : toggle \; i : int \; f : float \; m : menu \; s : symbol \; l : list \;;#B frgb 255 0 0;#P window linecount 1;#P comment 524 114 122 196617 $6;#P comment 524 102 122 196617 $5;#P comment 524 90 122 196617 $4;#P comment 524 78 122 196617 $3;#P comment 524 66 122 196617 $2;#P newex 728 409 70 196617 prepend store;#N coll $3/params 1;#P newobj 728 435 131 196617 coll $3/params 1;#B color 5;#P window linecount 2;#P comment 219 210 87 196617 bang when store to coll completed;#P window linecount 1;#P newex 141 190 155 196617 prepend $1;#P newex 141 213 70 196617 prepend store;#N coll $2/state 1;#P newobj 141 237 130 196617 coll $2/state 1;#B color 5;#P newex 141 167 49 196617 zl slice 1;#P newex 111 33 241 196617 r $1;#B color 11;#N comlet value out;#P outlet 57 627 15 0;#P window linecount 9;#P comment 646 54 185 196617 arg 1 - variable name \; arg 2 - submodule name \; arg 3 - module name \; arg 4 - data type \; arg 5 - init value \; arg 6 - min \; arg 7 - max \; arg 8 - dynamic [0 1 2] \; arg 9 - min line grain time (20ms if 0);#P window linecount 1;#P comment 524 54 122 196617 $1;#P window linecount 3;#P comment 398 241 100 196617 calculate correct floating point resolution multiplier;#P window linecount 1;#P comment 163 321 47 196617 dynamic;#P window setfont "Sans Serif" 14.;#P window linecount 2;#P comment 351 77 134 196622 use "makeparam-" for submodules;#P fasten 74 0 60 0 88 176 15 176;#P lcolor 7;#P connect 30 1 60 0;#P lcolor 7;#P connect 32 2 60 0;#P lcolor 7;#P connect 32 0 60 0;#P lcolor 7;#P connect 93 0 60 0;#P lcolor 7;#P connect 38 0 32 0;#P fasten 74 0 5 0 88 180 48 180 48 614 62 614;#P fasten 30 1 5 0 116 611 62 611;#P connect 32 0 5 0;#P fasten 32 2 5 0 116 390 62 390;#P lcolor 2;#P connect 93 0 5 0;#P connect 35 0 30 0;#P connect 36 0 30 0;#P connect 43 0 30 0;#P connect 30 0 29 0;#P connect 29 0 31 0;#P connect 108 0 93 0;#P connect 31 0 93 0;#P connect 82 0 74 0;#P connect 81 0 74 0;#P connect 72 0 74 1;#P connect 6 0 74 1;#P connect 74 1 32 1;#P connect 32 1 20 0;#P connect 20 0 30 1;#P connect 37 0 38 0;#P connect 33 0 34 0;#P connect 34 0 35 0;#P connect 74 1 7 0;#P connect 7 0 10 0;#P connect 74 0 10 0;#P connect 10 0 9 0;#P connect 9 0 8 0;#P connect 9 0 131 0;#P connect 34 1 36 0;#P connect 79 0 80 0;#P connect 85 0 80 0;#P connect 84 0 80 0;#P connect 80 0 81 0;#P connect 34 2 43 0;#P connect 70 0 20 3;#P connect 80 1 82 0;#P connect 98 0 100 0;#P connect 111 0 20 4;#P connect 20 2 69 0;#P connect 106 0 107 0;#P connect 63 0 98 0;#P connect 97 0 98 0;#P connect 98 0 96 0;#P connect 96 0 110 0;#P connect 110 0 99 0;#P connect 95 0 96 1;#P connect 100 0 95 0;#P connect 105 0 95 0;#P connect 44 0 27 0;#P connect 27 0 24 0;#P connect 24 0 25 0;#P connect 25 0 45 0;#P connect 45 0 46 0;#P fasten 45 1 28 0 387 320 333 320;#P connect 46 0 28 0;#P connect 28 0 23 0;#P connect 23 0 111 0;#P connect 101 0 102 0;#P connect 102 0 103 0;#P connect 103 0 104 0;#P connect 94 0 103 1;#P connect 27 1 26 0;#P connect 26 0 25 1;#P connect 128 0 127 0;#P connect 127 0 126 0;#P connect 13 0 127 1;#P connect 39 0 63 0;#P connect 63 0 64 0;#P connect 52 0 53 0;#P connect 53 0 54 0;#P connect 54 0 51 0;#P connect 55 0 51 0;#P connect 56 0 51 0;#P connect 51 0 57 0;#P connect 53 1 55 0;#P connect 51 1 58 0;#P connect 53 2 56 0;#P connect 48 0 39 0;#P connect 39 0 129 0;#P connect 129 0 109 0;#P connect 77 0 40 0;#P connect 109 0 40 0;#P connect 40 0 51 1;#P connect 58 0 41 0;#P connect 51 2 41 0;#P connect 57 0 41 0;#P connect 90 0 125 0;#P connect 89 0 125 0;#P connect 125 0 91 0;#P connect 109 1 108 0;#P connect 129 1 130 0;#P connect 129 2 42 0;#P connect 42 0 113 0;#P connect 113 0 123 0;#P connect 123 0 91 1;#P connect 91 1 92 0;#P fasten 91 0 13 0 705 406 733 406;#P connect 92 0 13 0;#P connect 13 0 12 0;#P fasten 66 1 12 0 867 430 733 430;#P connect 87 0 88 0;#P connect 88 0 89 0;#P connect 122 0 123 1;#P connect 112 0 124 0;#P connect 66 0 42 1;#P connect 124 0 42 1;#P connect 88 1 90 0;#P connect 65 0 66 0;#P fasten 42 0 114 0 733 277 875 277;#P connect 114 0 122 0;#P connect 121 0 122 1;#P fasten 42 0 115 0 733 277 918 277;#P connect 77 0 115 0;#P connect 115 0 121 0;#P connect 120 0 121 1;#P fasten 42 0 116 0 733 277 964 277;#P connect 116 0 120 0;#P connect 119 0 120 1;#P connect 75 1 76 0;#P connect 76 0 77 0;#P connect 112 0 77 0;#P fasten 42 0 117 0 733 277 1035 277;#P connect 117 0 119 0;#P connect 118 0 119 1;#P fasten 42 0 118 0 733 277 1106 277;#P pop;