max v2;#N vpatcher 430 135 1301 752;#P window setfont "Sans Serif" 9.;#P newex 28 93 20 196617 t b;#P newex 371 200 152 196617 sprintf send %s/menuupdatesw;#P message 371 80 62 196617 $3;#P newex 371 179 40 196617 itoa;#P newex 371 158 42 196617 zl slice;#P newex 384 137 27 196617 - 1;#P newex 384 118 51 196617 zl sub 46;#P newex 371 98 40 196617 atoi;#P newex 38 275 47 196617 forward;#B color 11;#P newex 28 298 208 196617 s $3/menuupdatesw;#B color 11;#P newex 371 60 48 196617 loadbang;#P comment 91 278 168 196617 send to update bkgndu editor menus;#N coll $3/subparams 1;#P newobj 577 409 121 196617 coll $3/subparams 1;#B color 5;#N coll $3/substate 1;#P newobj 135 129 130 196617 coll $3/substate 1;#B color 5;#P window setfont "Sans Serif" 14.;#P window linecount 3;#P comment 711 425 134 196622 use "makesubswitch" for submodules;#P window setfont "Sans Serif" 9.;#P window linecount 2;#P comment 495 315 52 196617 new init value;#N comlet init value;#P inlet 479 320 15 0;#P window linecount 1;#P newex 479 341 62 196617 prepend set;#P newex 61 511 178 196617 prepend $1;#B color 11;#P newex 61 358 193 196617 s $1/external/sw;#B color 11;#P newex 61 338 193 196617 r $3/external/sw;#B color 11;#P newex 96 400 223 196617 r $1_;#B color 11;#P newex 154 486 175 196617 print $1_;#B color 11;#P newex 154 464 29 196617 gate;#P toggle 154 441 15 0;#P newex 154 421 225 196617 r $1/print/sw;#B color 11;#P newex 29 421 32 196617 sel 1;#P newex 61 535 62 196617 s /external;#B color 11;#P toggle 61 399 15 0;#P newex 61 379 193 196617 r $1/external/sw;#B color 11;#P newex 61 470 29 196617 gate;#P newex 96 452 36 196617 zl reg;#P newex 173 441 211 196617 r $1_;#B color 11;#P newex 82 245 163 196617 s $1_;#B color 11;#P comment 373 530 170 196617 $4;#P window linecount 3;#P comment 709 260 135 196617 message /makeparam/reset pour refaire les coll params avec init suivant;#B frgb 255 0 0;#P window linecount 1;#P newex 601 290 48 196617 t b clear;#P newex 601 268 105 196617 r /makeparam/reset;#B color 11;#P comment 373 518 170 196617 $3;#P newex 111 176 208 196617 r $1/switchstatecoll;#B color 11;#N coll $3/switchstate 1;#P newobj 93 207 165 196617 coll $3/switchstate 1;#B color 5;#P newex 302 351 155 196617 s $1/print/sw;#B color 11;#P newex 302 331 21 196617 t 0;#P window setfont "Sans Serif" 18.;#P comment 726 328 111 196626 makeswitch;#P window setfont "Sans Serif" 9.;#P window linecount 2;#P comment 721 371 107 196617 patch by Tom Mays contact@tommays.net;#P window linecount 1;#P newex 463 268 135 196617 r $1/init;#B color 11;#P newex 557 311 54 196617 onebang 1;#P message 557 336 148 196617 $1 t $4 0 1 0;#P newex 463 460 223 196617 s $1;#B color 11;#P message 463 373 87 196617 $4;#P button 463 295 15 0;#P comment 373 506 170 196617 $2;#P newex 557 355 70 196617 prepend store;#N coll $2/params 1;#P newobj 557 381 121 196617 coll $2/params 1;#B color 5;#P newex 93 82 155 196617 prepend $1;#P newex 93 105 70 196617 prepend store;#N coll $2/state 1;#P newobj 111 153 157 196617 coll $2/state 1;#B color 5;#P newex 93 59 49 196617 zl slice 1;#P newex 60 31 241 196617 r $1;#B color 11;#N comlet;#P outlet 60 246 15 0;#P window linecount 4;#P comment 544 494 245 196617 arg 1 - variable name \; arg 2 - submodule name \; arg 3 - module name \; arg 4 - init value \;;#P window linecount 1;#P comment 373 494 170 196617 $1;#P connect 3 0 61 0;#P connect 61 0 52 0;#P connect 33 0 35 0;#P connect 60 0 53 0;#P connect 61 0 53 0;#P connect 3 0 2 0;#P connect 41 0 42 0;#P connect 32 0 33 0;#P connect 33 0 31 0;#P connect 31 0 43 0;#P connect 43 0 34 0;#P connect 30 0 31 1;#P fasten 3 0 28 0 65 236 87 236;#P connect 3 0 4 0;#P connect 4 0 7 0;#P connect 7 0 6 0;#P connect 6 0 21 0;#P connect 40 0 30 0;#P connect 35 0 30 0;#P connect 6 0 5 0;#P connect 6 0 48 0;#P connect 36 0 37 0;#P connect 37 0 38 0;#P connect 38 0 39 0;#P connect 29 0 38 1;#P connect 11 0 19 0;#P connect 19 0 20 0;#P connect 51 0 59 0;#P connect 59 0 54 0;#P connect 54 0 57 0;#P connect 57 0 58 0;#P connect 58 0 60 0;#P connect 54 0 55 0;#P connect 55 0 56 0;#P connect 56 0 57 1;#P connect 16 0 11 0;#P connect 11 0 12 0;#P connect 44 0 12 0;#P connect 12 0 13 0;#P connect 45 0 44 0;#P connect 11 0 15 0;#P connect 15 0 14 0;#P connect 14 0 9 0;#P connect 9 0 8 0;#P fasten 25 1 8 0 644 376 562 376;#P connect 9 0 49 0;#P fasten 25 1 49 0 644 404 582 404;#P connect 24 0 25 0;#P connect 25 0 15 1;#P pop;