max v2;#N vpatcher 62 44 675 446;#P window setfont "Sans Serif" 9.;#P window linecount 1;#P comment 318 42 124 196617 This object manages lists;#N coll $2controls 1;#P newobj 352 247 121 196617 coll $2controls 1;#B color 5;#P comment 321 88 95 196617 $2;#N comlet value to set;#P inlet 292 99 15 0;#N comlet message without "set";#P outlet 81 166 15 0;#P newex 328 178 50 196617 deferlow;#P window linecount 8;#P comment 329 277 195 196617 N.B. min/max manager \; arg 3 (data type) is "i" or "f" \, than min and max values are used to clip the number boxes in the editor. If there is just the data type as argument and nothing for min \, max and dyn \, the min and max values are removed from the number box (if connected).;#P window linecount 1;#N vpatcher 10 59 324 402;#P window setfont "Sans Serif" 9.;#P window linecount 1;#P newex 86 227 29 196617 gate;#P window linecount 0;#P message 105 196 52 196617 min \, max;#P newex 105 154 32 196617 sel 0;#P newex 79 108 36 196617 zl reg;#P newex 41 108 36 196617 zl reg;#P newex 60 251 67 196617 prepend max;#P newex 22 275 64 196617 prepend min;#P newex 54 50 147 196617 t b l l l;#P newex 142 148 100 196617 &&;#P newex 60 200 29 196617 gate;#P newex 22 200 29 196617 gate;#P newex 262 126 21 196617 t 0;#P newex 232 126 21 196617 t 1;#P toggle 142 168 15 0;#P newex 142 126 55 196617 ||;#P newex 187 105 27 196617 != 0;#P newex 142 105 27 196617 != 0;#P newex 232 105 40 196617 sel f i;#P newex 144 76 44 196617 zl nth 4;#P newex 99 76 44 196617 zl nth 3;#P newex 189 76 44 196617 zl nth 2;#P inlet 54 30 15 0;#P outlet 60 305 15 0;#P connect 9 0 12 0;#P connect 12 0 16 0;#P connect 15 0 18 0;#P connect 18 0 12 1;#P connect 1 0 15 0;#P connect 9 0 13 0;#P connect 13 0 17 0;#P connect 17 0 0 0;#P connect 16 0 0 0;#P connect 22 0 0 0;#P connect 3 0 18 1;#P connect 15 0 19 0;#P connect 19 0 13 1;#P connect 11 0 22 0;#P connect 10 0 22 0;#P connect 15 1 3 0;#P connect 4 0 19 1;#P fasten 8 0 20 0 147 146 110 146;#P connect 20 0 21 0;#P connect 21 0 22 1;#P connect 3 0 6 0;#P connect 6 0 8 0;#P connect 8 0 14 0;#P connect 14 0 9 0;#P connect 15 2 4 0;#P connect 4 0 7 0;#P connect 7 0 8 1;#P connect 15 3 2 0;#P connect 2 0 5 0;#P connect 5 0 10 0;#P connect 5 1 10 0;#P connect 10 0 14 1;#P connect 11 0 14 1;#P connect 5 2 11 0;#P pop;#P newobj 214 274 97 196617 p minmax_manager;#B color 5;#P newex 328 158 155 196617 loadmess $1 l 0 0 0;#P newex 352 199 70 196617 prepend store;#N coll $2variables 1;#P newobj 373 223 121 196617 coll $2variables 1;#B color 5;#P comment 371 132 109 196617 contact@tommays.net;#P comment 371 119 100 196617 patch by Tom Mays;#P comment 135 225 162 196617 bang when store to coll completed;#P newex 144 151 155 196617 prepend $1;#P newex 144 174 70 196617 prepend store;#N coll $2state 1;#P newobj 144 198 121 196617 coll $2state 1;#B color 5;#P newex 10 165 60 196617 prepend set;#P window linecount 2;#P comment 27 22 100 196617 from slider/numbox output;#P window linecount 1;#P newex 10 50 277 196617 s $1;#N comlet from output of ui object;#P inlet 10 30 15 0;#P newex 10 98 277 196617 r $1;#N comlet to inlet of ui object;#P outlet 10 327 15 0;#P window linecount 3;#P comment 417 76 166 196617 arg 1 - variable name \; arg 2 - module name \; optional arguments (for mapping): \;;#P window linecount 1;#P comment 321 76 95 196617 $1;#P connect 4 0 5 0;#P fasten 3 0 7 0 15 140 15 140;#P fasten 17 0 2 0 219 299 15 299;#P connect 7 0 2 0;#P fasten 3 0 20 0 15 133 86 133;#P fasten 3 0 10 0 15 133 149 133;#P connect 10 0 9 0;#P connect 9 0 8 0;#P fasten 19 0 17 0 333 263 219 263;#P connect 16 0 19 0;#P connect 19 0 15 0;#P connect 15 0 23 0;#P connect 15 0 14 0;#P pop;