max v2;#N vpatcher 97 194 636 524;#P window setfont "Sans Serif" 9.;#P window linecount 1;#P newex 274 224 62 196617 prepend set;#P newex 274 202 169 196617 r $1/alias;#B color 11;#P newex 274 247 169 196617 receive;#B color 11;#P window linecount 3;#P comment 264 123 225 196617 automatic alias of name if 0.1 (name without .1) \; if other than 0.1 \, than no alias \; Additional alias by $1/alias is possible.;#N comlet from receive and alias;#P outlet 32 284 15 0;#P window linecount 1;#P newex 81 247 169 196617 r $1;#B color 11;#P newex 32 48 33 196617 t b b;#P newex 32 163 73 196617 t s 1;#P toggle 95 213 15 0;#P newex 140 188 21 196617 t 0;#P newex 32 235 29 196617 gate;#P button 140 163 15 0;#P newex 32 188 62 196617 prepend set;#P newex 32 212 44 196617 receive;#P message 32 69 211 196617 $1;#P newex 32 27 48 196617 loadbang;#P message 55 118 76 196617 substitute %0;#P newex 32 140 156 196617 regexp (.1);#P comment 264 101 100 196617 tm_alias;#P connect 3 0 12 0;#P connect 12 0 4 0;#P connect 4 0 1 0;#P connect 2 0 1 0;#P connect 1 0 11 0;#P connect 11 0 6 0;#P connect 6 0 5 0;#P connect 10 0 8 0;#P fasten 16 0 14 0 279 274 37 274;#P fasten 13 0 14 0 86 274 37 274;#P connect 8 0 14 0;#P connect 5 0 8 1;#P connect 12 1 2 0;#P connect 11 1 10 0;#P connect 9 0 10 0;#P connect 1 3 7 0;#P connect 7 0 9 0;#P connect 17 0 18 0;#P connect 18 0 16 0;#P pop;