max v2;#N vpatcher 68 66 615 220;#P origin -1 -2;#P window setfont Times 9.;#P window linecount 1;#P comment 4 56 94 1310729 sw : $5;#B frgb 60 100 255;#P comment 4 45 95 1310729 sw : $4;#B frgb 60 100 255;#P comment 4 33 94 1310729 sw : $3;#B frgb 60 100 255;#P window linecount 5;#P comment 194 134 209 1310729 arg 1 : activeparams prefix name (i.e. activeparams) \; arg 2 : switch coll name 1(i.e. switchstate) \; arg 3 : switch coll name 2 (i.e. switchstate) \; arg4 : switch coll name 3 (i.e. switchstate) \; arg5 : switch coll name 4 (i.e. switchstate);#P window setfont "Sans Serif" 9.;#P window linecount 1;#P newex 152 72 200 196617 tm_storeactivepath.mxt $1 $2 $3 $4 $5;#B color 6;#P window setfont Times 9.;#P newex 308 39 69 1310729 pvar openactive;#P newex 386 39 74 1310729 pvar writearchive;#P newex 152 39 69 1310729 pvar storeactive;#P window setfont "Sans Serif" 9.;#P comment 34 209 109 196617 contact@tommays.net;#P comment 34 196 100 196617 patch by Tom Mays;#P window setfont Times 9.;#P comment 4 22 94 1310729 sw : $2;#B frgb 60 100 255;#P newex 464 39 75 1310729 pvar recallarchive;#P message 37 113 28 1310729 recall;#B color 7;#P objectname recallarchive;#P comment 4 100 95 1310729 ---- archive presets ----;#P message 9 113 27 1310729 write;#B color 13;#P objectname writearchive;#P message 8 85 28 1310729 store;#B color 2;#P objectname storeactive;#P message 66 85 28 1310729 open;#B color 9;#P objectname openactive;#P window setfont Times 14.;#P comment 9 6 85 1310734 active params;#P window setfont Times 9.;#P newex 230 39 71 1310729 pvar recallactive;#P message 37 85 28 1310729 recall;#B color 7;#P objectname recallactive;#P comment 4 72 95 1310729 ------ temp preset -------;#P user panel 1 1 99 131;#X brgb 235 235 235;#X frgb 128 128 128;#X border 1;#X rounded 4;#X shadow 2;#X done;#P background;#P connect 14 0 17 0;#P connect 3 0 17 1;#P connect 16 0 17 2;#P connect 15 0 17 3;#P connect 10 0 17 4;#P pop;