max v2;#N vpatcher 148 120 994 648;#P origin 187 64;#P window setfont "Sans Serif" 9.;#P window linecount 1;#P newex 619 477 105 196617 print ##########;#P newex 459 418 27 196617 t i i;#P newex 459 451 44 196617 sel 255;#P newex 459 478 73 196617 zl group 4096;#P newex 489 392 287 196617 makeparam $1/viscamode $1 t 0;#B color 12;#P newex 19 494 150 196617 print $1-from;#P newex 19 461 29 196617 gate;#P newex 240 417 137 196617 print $1-to;#P newex 240 385 29 196617 gate;#P newex 240 339 287 196617 makeparam $1/print $1 t 0;#B color 12;#P newex 17 336 29 196617 gate;#P newex 6 51 91 196617 route <none>;#P newex 36 311 37 196617 metro;#P newex 63 288 292 196617 makeparam $1/rate $1 i 15 0 0 0;#B color 12;#P newex 76 311 200 196617 r $1;#B color 12;#P newex 502 151 298 196617 makeparam $1/chunk $1 i 0 0 0 0;#B color 12;#P newex 502 172 73 196617 prepend chunk;#P newex 433 130 287 196617 makeparam $1/dtr $1 t 0;#B color 12;#P newex 433 151 62 196617 prepend dtr;#P newex 351 109 301 196617 makeparam $1/parity $1 m no "no odd even";#B color 12;#P newex 351 130 76 196617 prepend parity;#P newex 262 88 309 196617 makeparam $1/stopbits $1 i 1 1 2 0;#B color 12;#P newex 262 109 84 196617 prepend stopbits;#P newex 174 67 309 196617 makeparam $1/databits $1 i 8 5 8 0;#B color 12;#P newex 174 88 84 196617 prepend databits;#P newex 100 46 586 196617 makeparam $1/baud $1 m 9600 "1200 2400 4800 9600 19200 38400" 0;#B color 12;#P newex 100 67 68 196617 prepend baud;#P newex 610 174 151 196617 moduleinit $1;#B color 13;#P newex 6 25 275 196617 makeparam $1/port $1 s <none>;#B color 12;#P newex 17 267 351 196617 makeswitch $1/sw $1 common_switchstate;#B color 12;#P newex 6 75 91 196617 prepend port;#P message 549 199 32 196617 print;#P newex 106 401 89 196617 t l clear;#P newex 106 422 47 196617 zl iter 1;#P newex 106 469 204 196617 s $1/port-list;#B color 12;#P newex 6 359 110 196617 serial;#B color 5;#P newex 106 443 78 196617 prepend append;#P newex 106 382 56 196617 route port;#P window linecount 12;#P message 610 199 198 196617 \; $1/sw/init bang \; $1/viscamode/init bang \; $1/print/init bang \; $1/port/init bang \; $1/rate/init bang \; $1/baud/init bang \; $1/databits/init bang \; $1/stopbits/init bang \; $1/parity/init bang \; $1/dtr/init bang \; $1/chunk/init bang \;;#P connect 10 0 27 0;#P fasten 27 1 8 0 92 71 11 71;#P connect 28 0 3 0;#P fasten 8 0 3 0 11 129 11 129;#P fasten 12 0 3 0 105 184 11 184;#P fasten 14 0 3 0 179 195 11 195;#P fasten 16 0 3 0 267 205 11 205;#P fasten 18 0 3 0 356 216 11 216;#P fasten 20 0 3 0 438 226 11 226;#P fasten 22 0 3 0 507 237 11 237;#P fasten 7 0 3 0 554 261 11 261;#P connect 9 0 28 0;#P connect 29 0 32 0;#P connect 32 0 33 0;#P connect 9 0 26 0;#P fasten 24 0 28 1 81 332 41 332;#P connect 26 0 28 1;#P connect 3 0 32 1;#P connect 25 0 26 1;#P connect 13 0 12 0;#P connect 3 1 1 0;#P connect 1 0 6 0;#P connect 6 0 5 0;#P connect 5 0 2 0;#P connect 2 0 4 0;#P fasten 6 1 4 0 190 463 111 463;#P connect 15 0 14 0;#P connect 29 0 30 0;#P connect 30 0 31 0;#P connect 24 0 30 1;#P connect 17 0 16 0;#P connect 19 0 18 0;#P connect 21 0 20 0;#P connect 37 0 36 0;#P connect 36 0 35 0;#P connect 37 1 35 0;#P connect 23 0 22 0;#P fasten 11 0 7 0 615 195 554 195;#P connect 11 0 0 0;#P connect 35 0 38 0;#P pop;