max v2;#N vpatcher 0 44 512 154;#P window setfont "Sans Serif" 9.;#P newex 403 195 50 196617 deferlow;#P newex 403 215 32 196617 b;#P newex 403 309 20 196617 t b;#P newex 403 289 125 196617 r /tapemovie/isruntime?;#B color 11;#P window linecount 2;#P message 403 258 191 196617 \; max getruntime /tapemovie/isruntime?;#P window linecount 1;#P newex 403 239 50 196617 deferlow;#P newex 403 175 64 196617 b;#P newex 403 328 50 196617 deferlow;#P newex 173 385 62 196617 prepend set;#P newex 173 366 132 196617 r /tapemovie/projectname;#B color 11;#P newex 173 347 129 196617 s /tapemovie/patcherpath;#B color 12;#P window linecount 2;#P newex 14 388 131 196617 s /tapemovie/chooseprojectwindow/open;#B color 11;#P user ubutton 20 75 84 20 0 2;#P user jsui 21 76 83 20 0 0 0 jsui_roundedlabel.js project;#P objectname project-label;#P user ubutton 66 41 84 20 0 2;#P objectname initubutton;#P user jsui 66 41 83 20 0 0 0 jsui_roundedlabel.js init;#P objectname init-label;#P user panel 65 40 85 22;#X brgb 255 255 255;#X frgb 240 240 240;#X border 1;#X rounded 0;#X shadow 0;#X done;#P objectname initoutline;#P window linecount 1;#P newex 33 365 117 196617 pvar project-open-bang;#B color 14;#P newex 112 122 34 196617 defer;#B color 14;#P objectname project-open-bang;#P user ubutton 112 76 259 19 0 2;#P hidden newex 390 78 34 196617 defer;#B color 14;#P objectname quitbutton;#P newex 158 501 146 196617 s /tapemovie/autoconfig/load;#B color 11;#P newex 306 501 121 196617 s /tapemovie/init/reset;#B color 11;#P hidden newex 46 309 55 196617 jit.matrix;#N standalone;#S creator TAMO;#S statusvisible 1;#S noloadbangdefeating 0;#S useownplist 0;#S preffilename "tapemovie Preferences";#S overdrive 0;#S allwindowsactive 0;#S searchformissingfiles 1;#S usesearchpath 0;#S cantclosetoplevelpatchers 0;#S audiosupport 1;#S midisupport 1;#P newobj 168 186 57 196617 standalone;#P user ubutton 55 12 108 28 0 2;#P objectname patcherubutton;#P message 409 621 30 196617 open;#P newex 409 639 166 196617 s /tapemovie/tm_patchers/editor;#B color 11;#P toggle 493 562 15 0;#P button 435 562 15 0;#P newex 408 540 110 196617 pvar patcherubutton 4;#B color 14;#P newex 494 580 32 196617 sel 0;#P message 462 582 29 196617 stop;#P button 409 603 15 0;#P newex 409 582 50 196617 del 1000;#P button 408 561 15 0;#P newex 220 520 151 196617 s /tapemovie/autoconfig/state;#B color 11;#P message 267 462 14 196617 0;#P newex 267 434 50 196617 del 1000;#P toggle 399 377 15 0;#P button 345 377 15 0;#P newex 318 355 91 196617 pvar initubutton 4;#B color 14;#P newex 404 433 32 196617 sel 0;#P newex 444 505 79 196617 pvar initoutline;#B color 14;#P newex 336 456 30 196617 t b b;#P newex 368 457 44 196617 del 100;#P message 372 434 29 196617 stop;#P newex 319 483 121 196617 s /tapemovie/buildreset;#B color 11;#P button 319 458 15 0;#P newex 319 434 50 196617 del 1000;#N vpatcher 907 223 1245 425;#P window setfont "Sans Serif" 9.;#P newex 274 50 32 196617 sel 0;#P message 23 112 92 196617 frgb 240 240 240;#P message 150 108 80 196617 frgb 0 146 207;#N comlet from mouse up bang;#P inlet 23 62 15 0;#N comlet from right outlet;#P inlet 274 30 15 0;#N comlet from mouse down bang;#P inlet 150 58 15 0;#N comlet to panel;#P outlet 150 151 15 0;#P connect 6 0 5 0;#P connect 3 0 5 0;#P connect 1 0 4 0;#P connect 5 0 0 0;#P connect 4 0 0 0;#P connect 2 0 6 0;#P pop;#P hidden newobj 409 77 79 196617 p updowncolors;#B color 6;#P user ubutton 397 76 84 20 0 2;#P user jsui 398 76 83 20 0 0 0 jsui_roundedlabel.js quit;#P objectname quit-label;#P user panel 397 75 85 22;#X brgb 255 255 255;#X frgb 240 240 240;#X border 1;#X rounded 0;#X shadow 0;#X done;#P user panel 380 72 120 28;#X brgb 235 235 235;#X frgb 62 41 109;#X border 1;#X rounded 4;#X shadow 2;#X done;#P window linecount 2;#P message 318 398 112 196617 \; /tapemovie/build bang;#P window linecount 1;#P hidden newex 17 46 34 196617 defer;#B color 14;#P objectname project-new-bang;#P newex 14 343 115 196617 pvar project-new-bang;#B color 14;#P button 318 376 15 0;#P hidden message 154 50 43 196617 nogrow;#P objectname nogrow;#P hidden message 154 36 33 196617 grow;#P objectname grow;#N vpatcher 907 223 1245 425;#P window setfont "Sans Serif" 9.;#P newex 274 50 32 196617 sel 0;#P message 23 112 92 196617 frgb 240 240 240;#P message 150 108 80 196617 frgb 0 146 207;#N comlet from mouse up bang;#P inlet 23 62 15 0;#N comlet from right outlet;#P inlet 274 30 15 0;#N comlet from mouse down bang;#P inlet 150 58 15 0;#N comlet to panel;#P outlet 150 151 15 0;#P connect 3 0 5 0;#P connect 6 0 5 0;#P connect 1 0 4 0;#P connect 4 0 0 0;#P connect 5 0 0 0;#P connect 2 0 6 0;#P pop;#P newobj 444 483 79 196617 p updowncolors;#B color 6;#P user hint 55 13 165 41 "© 2006-8 Tom Mays Olivier Pfeiffer Renaud Rubiano www.tapemovie.org" 100 100 0 65535 65535 52428 9 3 0 1 0 0 0;#P newex 278 199 79 196617 pvar quitbutton;#B color 14;#P newex 15 188 67 196617 pvar nogrow;#B color 14;#P newex 93 188 57 196617 pvar grow;#B color 14;#P newex 244 152 93 196617 fixedsize 512 110;#B color 6;#P newex 173 404 104 196617 pvar project-display;#P message 250 631 80 196617 frgb 0 146 207;#P newex 250 609 146 196617 r /tapemovie/labelcolors/init;#B color 11;#P newex 212 657 77 196617 pvar quit-label;#P message 28 631 93 196617 brgb 235 235 235;#P newex 28 657 75 196617 pvar init-label;#P newex 108 657 101 196617 pvar project-label;#P window setfont Times 9.;#P newex 154 543 198 1310729 sel 1 0;#P window setfont "Sans Serif" 9.;#P message 248 563 93 196617 brgb 247 247 247;#P message 154 563 93 196617 brgb 198 198 198;#P newex 305 587 88 196617 pvar light-label;#P newex 205 587 95 196617 pvar movie-label;#P newex 115 587 87 196617 pvar tape-label;#P message 173 304 29 196617 path;#N thispatcher;#Q end;#P newobj 173 322 61 196617 thispatcher;#P newex 403 155 48 196617 loadbang;#B color 14;#P message 148 123 22 196617 set;#P message 104 522 14 196617 0;#P window linecount 2;#P message 15 263 147 196617 window flags nogrow \, window flags noclose \, window exec;#P button 15 230 15 0;#P button 93 209 15 0;#P message 93 230 138 196617 window flags grow \, window flags close \, window exec;#P window linecount 1;#N vpatcher 907 223 1245 425;#P window setfont "Sans Serif" 9.;#P newex 274 50 32 196617 sel 0;#P message 23 112 92 196617 frgb 240 240 240;#P message 150 108 80 196617 frgb 0 146 207;#N comlet from mouse up bang;#P inlet 23 62 15 0;#N comlet from right outlet;#P inlet 274 30 15 0;#N comlet from mouse down bang;#P inlet 150 58 15 0;#N comlet to panel;#P outlet 150 151 15 0;#P connect 6 0 5 0;#P connect 3 0 5 0;#P connect 1 0 4 0;#P connect 5 0 0 0;#P connect 4 0 0 0;#P connect 2 0 6 0;#P pop;#P newobj 20 122 79 196617 p updowncolors;#B color 6;#N vpatcher 58 269 1359 882;#P origin 55 18;#P window setfont "Sans Serif" 9.;#P window linecount 0;#P newex 1086 426 30 196617 t b b;#P message 1138 511 103 196617 load t_audiotest.mxt;#P message 1086 536 30 196617 open;#P newex 1086 560 98 196617 s /audiotest/editor;#B color 11;#P message 1086 447 51 196617 audiotest;#P button 1138 491 15 0;#P button 1086 491 15 0;#P newex 1138 530 47 196617 pcontrol;#P newex 1086 468 62 196617 checkexist;#B color 6;#P newex 917 426 30 196617 t b b;#P message 969 511 113 196617 load tm_MIDI-test.mxt;#P message 917 536 30 196617 open;#P newex 917 560 114 196617 s /MIDI-tester/editor;#B color 11;#P message 917 447 63 196617 MIDI-tester;#P button 969 491 15 0;#P button 917 491 15 0;#P newex 969 530 47 196617 pcontrol;#P newex 917 468 62 196617 checkexist;#B color 6;#P newex 735 426 30 196617 t b b;#P message 787 511 127 196617 load tm_performance.mxt;#P message 735 536 30 196617 open;#P newex 735 560 114 196617 s /performance/editor;#B color 11;#P message 735 447 67 196617 performance;#P button 787 491 15 0;#P button 735 490 15 0;#P newex 787 530 47 196617 pcontrol;#P newex 735 468 62 196617 checkexist;#B color 6;#P newex 613 36 172 196617 r /tapemovie/preferencesmenu/fill;#B color 11;#P window linecount 2;#P message 702 92 297 196617 preferences \, tapemovie \, tm_config \, MIDI-tester \, performance \, tape \, t_config \, audiosettings \, audiotest \, movie \, m_config;#P window linecount 1;#P newex 580 426 30 196617 t b b;#P message 632 511 85 196617 load t_audio.mxt;#P message 580 536 30 196617 open;#P newex 580 560 116 196617 s /audiosettings/editor;#B color 11;#P message 580 447 69 196617 audiosettings;#P button 632 491 15 0;#P button 580 490 15 0;#P newex 632 530 47 196617 pcontrol;#P newex 580 468 62 196617 checkexist;#B color 6;#P newex 398 426 30 196617 t b b;#P newex 218 426 30 196617 t b b;#P newex 34 424 30 196617 t b b;#P message 450 511 116 196617 load t_configeditor.mxt;#P message 398 536 30 196617 open;#P newex 398 560 109 196617 s /tape/config/editor;#B color 11;#P message 398 447 62 196617 tape/config;#P button 450 491 15 0;#P button 398 490 15 0;#P newex 450 530 47 196617 pcontrol;#P newex 398 468 62 196617 checkexist;#B color 6;#P message 270 511 120 196617 load m_configeditor.mxt;#P message 218 536 30 196617 open;#P newex 218 560 117 196617 s /movie/config/editor;#B color 11;#P message 218 447 70 196617 movie/config;#P button 270 491 15 0;#P button 218 490 15 0;#P newex 270 530 47 196617 pcontrol;#P newex 218 468 62 196617 checkexist;#B color 6;#P message 86 511 124 196617 load tm_configeditor.mxt;#P message 34 536 30 196617 open;#P newex 34 560 136 196617 s /tapemovie/config/editor;#B color 11;#P message 34 447 89 196617 tapemovie/config;#P button 86 491 15 0;#P button 34 490 15 0;#P newex 86 530 47 196617 pcontrol;#P newex 34 468 62 196617 checkexist;#B color 6;#P newex 34 91 388 196617 route tm_config m_config t_config audiosettings performance MIDI-tester audiotest;#P message 613 125 226 196617 enableitem 1 0 \, enableitem 5 0 \, enableitem 9 0 \,;#P newex 702 146 78 196617 prepend append;#P button 586 36 15 0;#P newex 613 65 189 196617 t b b clear;#P message 193 284 33 196617 set 0;#N comlet back to ubumenu;#P outlet 702 191 15 0;#P newex 34 57 91 196617 route preferences;#P newex 67 304 51 196617 t open l b;#P newex 67 349 47 196617 forward;#P newex 67 250 172 196617 sprintf send /tapemovie/%s/editor;#N comlet from second menu output;#P inlet 34 31 15 0;#P connect 0 0 4 0;#P connect 4 1 11 0;#P connect 11 0 36 0;#P connect 36 0 16 0;#P connect 16 0 12 0;#P connect 12 0 14 0;#P connect 14 0 18 0;#P connect 18 0 17 0;#P connect 11 7 1 0;#P connect 1 0 3 0;#P connect 3 0 2 0;#P connect 3 1 2 0;#P connect 12 1 15 0;#P connect 15 0 19 0;#P connect 19 0 13 0;#P connect 67 1 6 0;#P connect 47 1 6 0;#P connect 3 2 6 0;#P connect 36 1 6 0;#P connect 37 1 6 0;#P connect 38 1 6 0;#P connect 58 1 6 0;#P connect 76 1 6 0;#P connect 11 1 37 0;#P connect 37 0 24 0;#P connect 24 0 20 0;#P connect 20 0 22 0;#P connect 22 0 26 0;#P connect 26 0 25 0;#P connect 20 1 23 0;#P connect 23 0 27 0;#P connect 27 0 21 0;#P connect 11 2 38 0;#P connect 38 0 32 0;#P connect 32 0 28 0;#P connect 28 0 30 0;#P connect 30 0 34 0;#P connect 34 0 33 0;#P connect 28 1 31 0;#P connect 31 0 35 0;#P connect 35 0 29 0;#P connect 11 3 47 0;#P connect 47 0 43 0;#P connect 43 0 39 0;#P connect 39 0 41 0;#P connect 41 0 45 0;#P connect 45 0 44 0;#P connect 8 0 7 0;#P connect 49 0 7 0;#P connect 7 0 10 0;#P connect 39 1 42 0;#P connect 42 0 46 0;#P connect 46 0 40 0;#P connect 7 1 48 0;#P connect 48 0 9 0;#P connect 10 0 5 0;#P connect 6 0 5 0;#P connect 9 0 5 0;#P fasten 7 2 5 0 796 176 707 176;#P connect 11 4 58 0;#P connect 58 0 54 0;#P connect 54 0 50 0;#P connect 50 0 52 0;#P connect 52 0 56 0;#P connect 56 0 55 0;#P connect 50 1 53 0;#P connect 53 0 57 0;#P connect 57 0 51 0;#P connect 11 5 67 0;#P connect 67 0 63 0;#P connect 63 0 59 0;#P connect 59 0 61 0;#P connect 61 0 65 0;#P connect 65 0 64 0;#P connect 59 1 62 0;#P connect 62 0 66 0;#P connect 66 0 60 0;#P connect 11 6 76 0;#P connect 76 0 72 0;#P connect 72 0 68 0;#P connect 68 0 70 0;#P connect 70 0 74 0;#P connect 74 0 73 0;#P connect 68 1 71 0;#P connect 71 0 75 0;#P connect 75 0 69 0;#P pop;#P hidden newobj 388 44 107 196617 p menu-open-config;#P window setfont "Sans Serif" 14.;#P user ubumenu 385 41 110 196622 0 1 1 0;#X setrgb 0 0 0 230 230 230 255 255 255 0 146 207 141 141 141 0 146 207;#X add preferences;#X add tapemovie;#X add tm_config;#X add MIDI-tester;#X add performance;#X add tape;#X add t_config;#X add audiosettings;#X add audiotest;#X add movie;#X add m_config;#X prefix_set 0 0 <none> 0;#P window setfont "Sans Serif" 9.;#N vpatcher 599 182 1397 870;#P origin 127 40;#P window setfont "Sans Serif" 9.;#P window linecount 0;#P newex 208 359 71 196617 t l 1;#P message 265 450 18 196617 0;#P window linecount 1;#P newex 255 472 29 196617 gate;#P newex 264 405 53 196617 sel noedit;#P window linecount 0;#P newex 399 415 50 196617 deferlow;#P newex 214 32 50 196617 deferlow;#P message 376 369 65 196617 symbol light;#P button 103 175 15 0;#P window linecount 2;#P newex 103 142 91 196617 r /tapemovie/instruments/open;#B color 11;#P window linecount 0;#P newex 41 177 30 196617 t b b;#P message 41 393 30 196617 open;#P newex 41 417 111 196617 s /instruments/editor;#B color 11;#P message 41 200 64 196617 instruments;#P newex 75 350 51 196617 tosymbol;#P newex 75 371 66 196617 prepend load;#P newex 75 293 87 196617 sprintf %sinstruments/instruments.mxt;#P newex 75 269 62 196617 projectpath;#B color 6;#P button 93 244 15 0;#P button 41 243 15 0;#P newex 75 392 47 196617 pcontrol;#P newex 41 221 62 196617 checkexist;#B color 6;#P message 602 136 110 196617 windows \, instruments;#P newex 208 571 31 196617 t 2 s;#P newex 128 571 38 196617 gate 2;#P newex 208 521 31 196617 t s 1;#P newex 156 593 83 196617 sprintf %s (%s);#N coll tm_shortcuts 1;#P newobj 208 549 99 196617 coll tm_shortcuts 1;#B color 5;#P newex 331 500 30 196617 t b b;#P newex 331 564 30 196617 i;#P message 331 591 82 196617 enableitem \$1 0;#P newex 236 162 120 196617 route editors editmodule;#P newex 214 81 262 196617 t b b;#P window linecount 1;#N counter 2 9999;#X flags 0 0;#P newobj 351 543 80 196617 counter 2 9999;#P newex 208 500 30 196617 t s b;#P newex 469 213 78 196617 prepend append;#P newex 376 499 36 196617 zl reg;#P newex 376 436 30 196617 t s s;#P newex 376 394 69 196617 route symbol;#P newex 253 616 78 196617 prepend append;#P newex 445 276 21 196617 t 1;#P newex 387 276 21 196617 t 2;#P window linecount 0;#P newex 387 255 68 196617 route plugins;#P window linecount 1;#P newex 208 338 38 196617 gate 2;#P newex 236 312 50 196617 zl reg;#P newex 208 478 43 196617 zl reg;#P newex 241 426 80 196617 route symbol;#P newex 208 447 32 196617 sel 1;#P newex 208 426 27 196617 > 0;#P newex 208 406 51 196617 zl slice 1;#P newex 236 291 35 196617 sel 1.;#P newex 236 250 50 196617 atoi;#P newex 236 271 136 196617 L==;#P newex 362 217 40 196617 atoi;#P newex 236 228 51 196617 zl slice 1;#P newex 236 186 200 196617 t dump b s;#P newex 236 142 69 196617 route symbol;#P window linecount 0;#P message 214 102 33 196617 dump;#P button 424 479 15 0;#P button 376 479 15 0;#P window linecount 1;#P newex 376 458 58 196617 checkexist;#B color 6;#N coll tm_config 1;#P newobj 208 381 83 196617 coll tm_config 1;#B color 5;#N coll tm_modules 1;#P newobj 236 207 92 196617 coll tm_modules 1;#B color 5;#N coll tm_build 1;#P newobj 214 121 77 196617 coll tm_build 1;#B color 5;#P window linecount 0;#P message 562 179 76 196617 enableitem 0 0;#P button 562 82 15 0;#P newex 562 104 90 196617 t b b clear;#P newex 598 44 167 196617 r /tapemovie/windowsmenu/clear;#B color 11;#P newex 602 157 78 196617 prepend append;#P button 453 16 15 0;#P message 187 206 33 196617 set 0;#P newex 41 42 133 196617 route windows instruments;#P window linecount 1;#P newex 214 8 157 196617 r /tapemovie/windowsmenu/fill;#B color 11;#P button 194 25 15 0;#P newex 214 55 358 196617 t b b;#N comlet to menu input;#P outlet 331 652 15 0;#P newex 41 104 54 196617 t front l b;#P newex 41 140 47 196617 forward;#P newex 41 77 120 196617 sprintf send /%s/editor;#N comlet from second menu output;#P inlet 41 17 15 0;#P connect 0 0 8 0;#P connect 8 2 1 0;#P connect 1 0 3 0;#P connect 3 0 2 0;#P connect 3 1 2 0;#P connect 8 1 69 0;#P connect 71 0 66 0;#P connect 69 0 66 0;#P connect 66 0 58 0;#P connect 58 0 60 0;#P connect 60 0 68 0;#P connect 68 0 67 0;#P connect 61 0 62 0;#P connect 62 0 63 0;#P connect 63 0 65 0;#P connect 65 0 64 0;#P connect 64 0 59 0;#P connect 58 1 61 0;#P connect 70 0 71 0;#P connect 56 0 55 0;#P connect 54 1 55 0;#P connect 54 0 55 1;#P connect 55 1 53 0;#P connect 3 2 9 0;#P connect 69 1 9 0;#P connect 7 0 6 0;#P connect 38 0 36 0;#P connect 39 0 36 0;#P connect 36 0 78 0;#P connect 78 0 18 0;#P connect 18 0 30 0;#P connect 30 0 31 0;#P connect 31 0 32 0;#P connect 76 0 34 0;#P connect 34 0 45 0;#P connect 45 0 54 0;#P connect 54 0 52 0;#P connect 52 0 56 0;#P connect 7 0 73 0;#P connect 10 0 73 0;#P connect 73 0 5 0;#P connect 5 0 47 0;#P connect 47 0 22 0;#P connect 22 0 16 0;#P connect 56 1 53 1;#P connect 16 1 23 0;#P connect 23 0 48 0;#P fasten 48 2 24 0 351 182 241 182;#P connect 24 0 17 0;#P connect 17 0 25 0;#P connect 25 0 28 0;#P connect 28 0 27 0;#P connect 27 0 29 0;#P connect 29 0 35 0;#P connect 35 0 36 1;#P connect 18 1 33 0;#P connect 33 0 34 1;#P connect 43 0 40 0;#P fasten 53 0 40 0 161 614 258 614;#P fasten 55 0 40 0 133 614 258 614;#P connect 78 1 76 0;#P connect 77 0 76 0;#P connect 30 1 75 0;#P connect 75 0 77 0;#P connect 32 0 76 1;#P connect 17 1 35 1;#P lcolor 7;#P connect 24 1 51 0;#P connect 51 0 50 0;#P connect 50 0 49 0;#P fasten 40 0 4 0 258 638 336 638;#P fasten 44 0 4 0 474 627 336 627;#P fasten 11 0 4 0 607 642 336 642;#P fasten 13 2 4 0 647 642 336 642;#P fasten 15 0 4 0 567 642 336 642;#P fasten 9 0 4 0 192 645 336 645;#P connect 49 0 4 0;#P connect 20 0 46 0;#P connect 51 1 46 0;#P connect 45 1 46 0;#P connect 46 0 50 1;#P connect 24 2 26 0;#P connect 26 0 27 1;#P connect 72 0 41 0;#P connect 36 1 41 0;#P connect 41 0 42 0;#P connect 42 0 19 0;#P connect 19 0 20 0;#P connect 20 0 43 0;#P connect 47 1 46 2;#P connect 24 2 37 0;#P connect 37 0 38 0;#P connect 42 1 43 1;#P connect 19 1 21 0;#P connect 37 1 39 0;#P connect 24 2 44 0;#P connect 12 0 14 0;#P connect 5 1 14 0;#P connect 14 0 13 0;#P connect 13 0 15 0;#P connect 13 1 57 0;#P connect 57 0 11 0;#P pop;#P hidden newobj 390 19 94 196617 p menu-windows;#P window setfont "Sans Serif" 14.;#P user ubumenu 385 17 110 196622 0 1 1 0;#X setrgb 0 0 0 230 230 230 255 255 255 0 146 207 141 141 141 0 146 207;#X add windows;#X add instruments;#X prefix_set 0 0 <none> 0;#P window setfont Times 9.;#P newex 28 504 18 1310729 t 1;#P newex 61 500 42 1310729 split 0 0;#P toggle 61 480 16 0;#P window setfont "Sans Serif" 9.;#P newex 61 460 151 196617 r /tapemovie/autoconfig/state;#B color 11;#P window setfont Times 9.;#P newex 13 481 40 1310729 sel 1 0;#P window setfont "Sans Serif" 9.;#P message 13 581 69 196617 brgb 128 0 0;#P toggle 13 461 16 0;#P newex 13 440 110 196617 r /tapemovie/building;#B color 11;#P toggle 28 530 15 0;#P window setfont Times 9.;#P newex 13 603 76 1310729 pvar mainpanel;#P window setfont "Sans Serif" 9.;#P newex 28 553 64 196617 tm_swcolor;#B color 5;#P newex 253 236 47 196617 pcontrol;#N vpatcher 101 49 401 174;#P window setfont "Sans Serif" 9.;#P window linecount 2;#P hidden message 221 200 165 196617 \; /tapemovie/windows/write bang \;;#P window linecount 1;#P hidden newex 178 174 38 196617 del 20;#P hidden newex 178 200 38 196617 del 50;#P hidden newex 178 122 20 196617 t b;#P window linecount 2;#P hidden message 178 143 164 196617 bang \; /tapemovie/windows/store bang \;;#P window setfont "Sans Serif" 24.;#P window linecount 1;#P comment 41 37 225 196632 you want to quit ?;#B frgb 0 146 192;#P window setfont "Sans Serif" 9.;#P hidden newex 344 258 37 196617 t open;#P hidden newex 344 237 38 196617 del 10;#N comlet bang to open;#P hidden inlet 178 101 15 0;#P hidden comment 193 102 64 196617 bang to open;#P hidden newex 178 325 156 196617 pack 0 0 0 0;#P hidden newex 322 304 37 196617 + 130;#P hidden newex 274 304 37 196617 + 400;#P hidden newex 226 304 27 196617 + 5;#P hidden newex 178 304 37 196617 + 100;#P window linecount 0;#P hidden newex 178 282 58 196617 unpack 0 0;#P window linecount 2;#P hidden message 178 346 228 196617 window flags nogrow \, window notitle \, window size \$1 \$2 \$3 \$4 \, window nofloat \, window exec;#P window linecount 0;#P hidden message 178 239 102 196617 /tapemovie/window;#P window linecount 1;#N coll tm_windows 1;#P hidden newobj 178 260 95 196617 coll tm_windows 1;#B color 5;#P hidden newex 623 157 44 196617 del 100;#P window linecount 2;#P hidden message 623 191 139 196617 \; /instruments/editor dispose;#P window linecount 1;#P hidden newex 555 216 50 196617 t clean;#P hidden newex 555 189 44 196617 del 100;#P hidden newex 494 244 50 196617 t dispose;#P hidden newex 494 216 44 196617 del 100;#P user jsui 142 76 79 25 1 0 0 jsui_roundedlabel.js QUIT;#P objectname quit;#P user jsui 61 76 79 25 1 0 0 jsui_roundedlabel.js CANCEL;#P objectname resume;#P hidden inlet 54 103 15 0;#P window linecount 0;#P hidden message 9 66 227 196617 window float \, window flags grow \, window title \, window size 100 100 900 520 \, window exec;#N thispatcher;#Q end;#P hidden newobj 25 154 61 196617 thispatcher;#P hidden newex 45 125 106 196617 bgcolor 240 240 200;#P hidden newex 470 76 48 196617 loadbang;#P hidden message 470 97 307 196617 brgb 240 240 240 \, frgb 240 240 240 \, border 1 \, rgb2 0 146 192;#P hidden newex 470 117 51 196617 pvar quit;#P hidden newex 401 139 67 196617 pvar resume;#P hidden outlet 401 327 15 0;#P hidden outlet 494 278 15 0;#P hidden newex 470 139 20 196617 t b;#P hidden newex 401 277 40 196617 t close;#P hidden comment 69 104 64 196617 for pcontrol;#P window setfont "Sans Serif" 24.;#P comment 66 8 157 196632 Are you sure;#B frgb 0 146 192;#P hidden connect 12 0 11 0;#P hidden fasten 24 0 11 0 183 386 12 386 12 144 30 144;#P hidden connect 32 0 37 0;#P hidden connect 37 0 36 0;#P hidden connect 36 0 39 0;#P hidden connect 39 0 38 0;#P hidden connect 38 0 23 0;#P hidden connect 23 0 22 0;#P hidden connect 22 0 25 0;#P hidden connect 25 0 26 0;#P hidden connect 26 0 30 0;#P hidden connect 30 0 24 0;#P hidden fasten 39 0 40 0 183 195 226 195;#P hidden connect 25 1 27 0;#P hidden connect 27 0 30 1;#P hidden connect 25 0 28 0;#P hidden connect 28 0 30 2;#P hidden connect 25 1 29 0;#P hidden connect 29 0 30 3;#P hidden fasten 38 0 33 0 183 232 349 232;#P hidden connect 33 0 34 0;#P hidden fasten 8 0 6 0 475 114 406 114;#P hidden connect 3 0 2 0;#P hidden connect 6 0 2 0;#P hidden connect 2 0 5 0;#P hidden connect 34 0 5 0;#P hidden connect 9 0 8 0;#P hidden connect 8 0 7 0;#P hidden connect 7 0 3 0;#P hidden connect 18 0 16 0;#P hidden connect 16 0 17 0;#P hidden fasten 19 0 4 0 560 271 499 271;#P hidden connect 17 0 4 0;#P hidden connect 21 0 18 0;#P hidden connect 18 0 19 0;#P hidden connect 3 0 21 0;#P hidden connect 21 0 20 0;#P pop;#P newobj 253 256 35 196617 p quit;#B color 14;#P button 278 219 15 0;#P window setfont Times 9.;#N thispatcher;#Q end;#P newobj 242 290 51 1310729 thispatcher;#P window setfont "Sans Serif" 20.;#P comment 54 13 111 196628 tapemovie;#B frgb 0 146 207;#P window setfont "Sans Serif" 9.;#N thispatcher;#Q end;#P newobj 244 173 61 196617 thispatcher;#P newex 244 132 181 196617 editorwindow /tapemovie /tapemovie;#B color 11;#P newex 125 147 106 196617 bgcolor 247 247 247;#P bpatcher 204 12 172 56 0 0 tm_snapshot.edit.mxt 0 tm_snapshot common_switchstate camtrkclient_switchstate camtrkclient movie_switchstate light_switchstate tape_switchstate /mtrx tape_matrix;#P user panel 380 12 120 56;#X brgb 235 235 235;#X frgb 62 41 109;#X border 1;#X rounded 4;#X shadow 2;#X done;#P user textedit 112 76 372 96 32817 3 9;#P objectname project-display;#P user panel 12 12 188 56;#X brgb 235 235 235;#X frgb 62 41 109;#X border 1;#X rounded 4;#X shadow 2;#X done;#P user panel 20 75 85 22;#X brgb 255 255 255;#X frgb 240 240 240;#X border 1;#X rounded 0;#X shadow 0;#X done;#P user panel 12 72 364 28;#X brgb 235 235 235;#X frgb 62 41 109;#X border 1;#X rounded 4;#X shadow 2;#X done;#P user panel 6 6 500 100;#X brgb 198 198 198;#X frgb 73 69 145;#X border 1;#X rounded 0;#X shadow 0;#X done;#P background;#P objectname mainpanel;#P connect 18 0 19 0;#P connect 19 0 21 0;#P connect 21 0 20 0;#P connect 15 0 16 0;#P connect 20 0 16 0;#P connect 62 0 108 0;#P connect 102 0 108 0;#P connect 55 0 33 0;#P connect 33 0 34 0;#P connect 118 1 34 0;#P hidden connect 107 0 63 0;#P hidden connect 30 0 2 0;#P hidden connect 107 0 30 0;#P connect 21 1 25 0;#P connect 35 0 17 0;#P connect 25 0 17 0;#P connect 24 0 17 0;#P connect 17 0 15 0;#P connect 113 1 48 0;#P connect 51 0 47 0;#P fasten 48 0 47 0 33 652 33 652;#P hidden connect 107 1 30 1;#P connect 22 0 23 0;#P connect 23 0 24 0;#P hidden connect 107 3 30 2;#P connect 54 0 32 0;#P connect 32 0 31 0;#P connect 113 1 35 0;#P connect 51 0 46 0;#P fasten 48 0 46 0 33 651 113 651;#P hidden connect 36 0 4 0;#P hidden connect 100 0 101 0;#P connect 43 0 40 0;#P connect 44 0 40 0;#P connect 51 0 40 0;#P fasten 113 1 36 0 462 199 472 199 472 119 153 119;#P connect 17 0 45 0;#P connect 45 0 43 0;#P connect 81 0 98 0;#P connect 112 0 39 0;#P connect 39 0 38 0;#P fasten 38 1 109 0 229 343 178 343;#P connect 110 0 111 0;#P connect 111 0 52 0;#P connect 43 0 41 0;#P connect 44 0 41 0;#P connect 51 0 41 0;#P connect 51 0 49 0;#P fasten 48 0 49 0 33 651 217 651;#P connect 82 0 83 0;#P connect 13 1 11 0;#P connect 31 0 11 0;#P connect 34 0 11 0;#P fasten 9 0 8 0 249 194 241 194 241 127 249 127;#P connect 8 0 53 0;#P connect 53 0 9 0;#P connect 45 1 44 0;#P connect 50 0 51 0;#P fasten 13 0 14 0 258 276 249 276 249 233 258 233;#P connect 14 0 13 0;#P connect 73 0 81 0;#P connect 70 0 81 0;#P connect 81 0 82 0;#P connect 56 0 12 0;#P connect 12 0 13 1;#P connect 43 0 42 0;#P connect 44 0 42 0;#P connect 51 0 42 0;#P connect 71 0 97 0;#P connect 78 0 61 0;#P connect 61 0 64 0;#P connect 79 0 70 0;#P connect 73 0 70 0;#P connect 70 0 71 0;#P connect 71 0 72 0;#P connect 81 0 75 0;#P connect 71 0 75 0;#P connect 78 1 79 0;#P connect 75 1 74 0;#P connect 61 0 73 0;#P connect 77 0 73 0;#P hidden connect 27 0 26 0;#P hidden connect 29 0 28 0;#P hidden connect 28 1 29 0;#P hidden connect 26 1 27 0;#P hidden connect 68 0 99 0;#P hidden connect 69 0 66 0;#P connect 78 3 80 0;#P connect 37 0 113 0;#P connect 113 0 119 0;#P connect 119 0 118 0;#P connect 118 0 114 0;#P connect 114 0 115 0;#P connect 116 0 117 0;#P connect 117 0 112 0;#P connect 80 0 77 0;#P connect 89 0 84 0;#P hidden connect 68 0 69 0;#P connect 90 0 85 0;#P connect 87 0 85 0;#P connect 85 0 86 0;#P connect 86 0 93 0;#P connect 93 0 92 0;#P connect 89 1 90 0;#P hidden connect 68 1 69 1;#P connect 61 0 58 0;#P connect 75 0 58 0;#P connect 58 0 76 0;#P connect 84 0 87 0;#P connect 88 0 87 0;#P hidden connect 68 3 69 2;#P connect 79 0 58 1;#P connect 74 0 58 1;#P connect 89 3 91 0;#P connect 91 0 88 0;#P connect 80 0 58 2;#P pop;