max v2;#N vpatcher 405 78 819 450;#P window setfont "Sans Serif" 9.;#P window linecount 1;#P message 156 198 17 196617 0.;#P newex 273 180 27 196617 del;#P newex 172 142 27 196617 i;#P newex 273 138 31 196617 t b 0;#P newex 258 111 41 196617 sel 1 0;#P toggle 258 91 15 0;#N comlet on/off;#P inlet 258 68 15 0;#P number 172 168 72 9 0 0 0 3 0 0 0 221 221 221 222 222 222 0 0 0;#P newex 172 118 37 196617 + 200;#P newex 172 98 58 196617 random 16;#P newex 172 69 32 196617 sel 0;#P newex 172 25 45 196617 loadbang;#P message 172 50 71 196617 $1;#P newex 178 259 65 196617 clip -127 18;#N comlet dB out (float);#P outlet 178 285 15 0;#N comlet sig out to meter~;#P outlet 27 329 15 0;#N comlet sig in;#P inlet 27 166 15 0;#P newex 178 233 100 196617 expr 20*log10($f1);#P newex 27 190 101 196617 peakamp~ 200;#P window linecount 3;#P comment 32 40 113 196617 arg 1: peakamp/interval time (if 0 then random 200-215);#P connect 3 0 1 0;#P connect 19 0 4 0;#P connect 1 0 4 0;#P connect 12 0 1 1;#P connect 18 0 19 0;#P connect 8 0 7 0;#P connect 7 0 9 0;#P connect 9 0 10 0;#P connect 10 0 11 0;#P connect 11 0 17 0;#P connect 9 1 17 0;#P connect 15 0 17 0;#P connect 16 1 12 0;#P connect 17 0 12 0;#P connect 19 0 2 0;#P fasten 1 0 2 0 32 219 183 219;#P connect 2 0 6 0;#P connect 6 0 5 0;#P connect 13 0 14 0;#P connect 14 0 15 0;#P connect 15 1 16 0;#P connect 16 0 18 0;#P connect 11 0 18 1;#P pop;