max v2;#N vpatcher 10 59 240 424;#P window setfont "Sans Serif" 9.;#P window linecount 1;#P comment 38 274 102 196617 extract project path;#P newex 38 118 64 196617 fromsymbol;#P newex 38 250 64 196617 sprintf %s/;#P newex 38 229 40 196617 itoa;#P newex 38 96 40 196617 itoa;#P newex 38 184 40 196617 atoi;#P newex 38 207 85 196617 substitute 32 47;#P newex 38 163 51 196617 tosymbol;#P newex 38 140 51 196617 zl ecils 1;#P newex 38 75 85 196617 substitute 47 32;#P newex 38 51 40 196617 atoi;#P connect 0 0 1 0;#P connect 1 0 6 0;#P connect 6 0 9 0;#P connect 9 0 2 0;#P connect 2 0 3 0;#P connect 3 0 5 0;#P connect 5 0 4 0;#P connect 4 0 7 0;#P connect 7 0 8 0;#P pop;