max v2;#N vpatcher 327 71 1243 802;#P origin 88 0;#P window setfont "Sans Serif" 9.;#P window linecount 1;#P newex 753 250 27 196617 - 1;#P newex 632 251 27 196617 - 1;#P newex 373 448 44 196617 clip 0 3;#P newex 497 445 44 196617 clip 0 3;#P button 363 563 15 0;#P button 492 555 15 0;#P newex 442 424 20 196617 t b;#P message 435 443 38 196617 set -1;#P newex 376 618 52 196617 pvar hms;#P newex 439 403 54 196617 split 0. 0.;#P newex 439 381 40 196617 change;#P number 495 399 35 9 0 0 0 3 0 0 0 221 221 221 222 222 222 0 0 0;#P newex 496 379 29 196617 gate;#P newex 488 236 27 196617 t i i;#P number 387 401 35 9 0 0 0 3 0 0 0 221 221 221 222 222 222 0 0 0;#P newex 388 381 29 196617 gate;#P newex 380 238 27 196617 t i i;#P toggle 428 356 15 0;#P newex 433 311 27 196617 pak;#P newex 432 334 27 196617 &&;#P newex 543 284 21 196617 t 0;#P newex 505 285 21 196617 t 1;#P newex 432 285 21 196617 t 0;#P newex 394 286 21 196617 t 1;#P newex 506 262 48 196617 split 0 0;#P newex 394 264 48 196617 split 0 0;#P newex 355 515 32 196617 t 1. i;#P newex 409 542 27 196617 t l b;#P newex 404 575 27 196617 i;#P number 366 539 35 9 0 0 0 3 0 0 0 221 221 221 222 222 222 0 0 0;#P newex 361 493 40 196617 change;#P newex 375 597 35 196617 zl rot;#P newex 411 500 38 196617 zl join;#P newex 411 520 51 196617 zl slice 4;#P number 372 471 35 9 0 0 0 3 0 0 0 221 221 221 222 222 222 0 0 0;#P number 661 185 35 9 0 0 0 3 0 0 0 221 221 221 222 222 222 0 0 0;#P newex 662 272 78 196617 prepend append;#P message 678 295 50 196617 0. 0. 0. 0.;#P newex 663 210 37 196617 t i set;#P newex 663 252 24 196617 t 0.;#P newex 663 231 40 196617 uzi;#P newex 480 511 32 196617 t 1. i;#P newex 534 538 27 196617 t l b;#P newex 529 571 27 196617 i;#P number 491 535 35 9 0 0 0 3 0 0 0 221 221 221 222 222 222 0 0 0;#P newex 486 489 40 196617 change;#P newex 500 593 35 196617 zl rot;#P newex 536 496 38 196617 zl join;#P newex 536 516 51 196617 zl slice 4;#P number 785 185 35 9 0 0 0 3 0 0 0 221 221 221 222 222 222 0 0 0;#P newex 786 272 78 196617 prepend append;#P message 802 295 50 196617 0. 0. 0. 0.;#P newex 787 210 37 196617 t i set;#P newex 787 252 24 196617 t 0.;#P newex 787 231 40 196617 uzi;#P message 760 163 14 196617 4;#P newex 750 207 27 196617 + 1;#P newex 751 185 32 196617 * 14;#P number 497 468 35 9 0 0 0 3 0 0 0 221 221 221 222 222 222 0 0 0;#P newex 497 424 31 196617 / 14;#P newex 372 428 31 196617 / 34;#P newex 659 122 48 196617 loadbang;#P newex 623 207 27 196617 + 1;#P newex 624 185 32 196617 * 34;#P message 636 162 14 196617 4;#P number 466 208 35 9 0 0 0 3 0 0 0 221 221 221 222 222 222 0 0 0;#P number 422 208 35 9 0 0 0 3 0 0 0 221 221 221 222 222 222 0 0 0;#P newex 504 617 53 196617 pvar vms;#P user multiSlider 50 36 137 15 0. 1. 4 2937 15 0 1 1 0 0 0;#M frgb 0 0 0;#M brgb 255 255 255;#M rgb2 127 127 127;#M rgb3 0 0 0;#M rgb4 37 52 91;#M rgb5 74 105 182;#M rgb6 112 158 18;#M rgb7 149 211 110;#M rgb8 187 9 201;#M rgb9 224 62 37;#M rgb10 7 114 128;#P objectname hms;#P user multiSlider 16 50 35 57 0. 1. 4 2936 15 0 1 2 0 0 0;#M frgb 0 0 0;#M brgb 255 255 255;#M rgb2 127 127 127;#M rgb3 0 0 0;#M rgb4 37 52 91;#M rgb5 74 105 182;#M rgb6 112 158 18;#M rgb7 149 211 110;#M rgb8 187 9 201;#M rgb9 224 62 37;#M rgb10 7 114 128;#P objectname vms;#P user panel 27 307 35 15;#X brgb 191 191 191;#X frgb 0 0 0;#X border 1;#X rounded 0;#X shadow 0;#X done;#P objectname row3;#P user panel 27 293 35 15;#X brgb 191 191 191;#X frgb 0 0 0;#X border 1;#X rounded 0;#X shadow 0;#X done;#P objectname row2;#P user panel 27 279 35 15;#X brgb 191 191 191;#X frgb 0 0 0;#X border 1;#X rounded 0;#X shadow 0;#X done;#P objectname row1;#P user panel 27 265 35 15;#X brgb 191 191 191;#X frgb 0 0 0;#X border 1;#X rounded 0;#X shadow 0;#X done;#P objectname row0;#P user panel 163 249 35 15;#X brgb 191 191 191;#X frgb 0 0 0;#X border 1;#X rounded 0;#X shadow 0;#X done;#P objectname col3;#P user panel 129 249 35 15;#X brgb 191 191 191;#X frgb 0 0 0;#X border 1;#X rounded 0;#X shadow 0;#X done;#P objectname col2;#P user panel 95 249 35 15;#X brgb 191 191 191;#X frgb 0 0 0;#X border 1;#X rounded 0;#X shadow 0;#X done;#P objectname col1;#P newex 466 187 30 196617 - 50;#P newex 422 187 30 196617 - 50;#P newex 420 28 48 196617 loadbang;#P window linecount 2;#P comment 511 152 45 196617 Hor. Delta;#P comment 466 152 42 196617 Ver. Position;#P comment 421 152 45 196617 Hor. Position;#P window linecount 1;#P comment 374 152 35 196617 Button;#P toggle 377 135 15 0;#P number 512 135 35 9 0 0 0 3 0 0 0 221 221 221 222 222 222 0 0 0;#P number 467 135 35 9 0 0 0 3 0 0 0 221 221 221 222 222 222 0 0 0;#P number 422 135 35 9 0 0 0 3 0 0 0 221 221 221 222 222 222 0 0 0;#P number 557 135 35 9 0 0 0 3 0 0 0 221 221 221 222 222 222 0 0 0;#P window linecount 2;#P comment 558 152 42 196617 Ver. Delta;#P window linecount 1;#P comment 515 92 275 196617 frontpatcher - mouse position relative to frontmost patcher;#P comment 516 70 272 196617 local - mouse position relative to mousestate's patcher;#P window linecount 2;#P comment 516 48 273 196617 global - mouse position relative to screen. This is the default.;#P window linecount 1;#P message 466 92 50 196617 mode 2;#P message 466 70 49 196617 mode 1;#P message 466 48 49 196617 mode 0;#P toggle 377 44 15 0;#P newex 377 65 52 196617 metro 10;#P newex 377 107 66 196617 mousestate;#P flonum 152 92 35 9 0 0 0 3 0 0 0 221 221 221 222 222 222 0 0 0;#P objectname f33;#P flonum 152 78 35 9 0 0 0 3 0 0 0 221 221 221 222 222 222 0 0 0;#P objectname f32;#P flonum 152 64 35 9 0 0 0 3 0 0 0 221 221 221 222 222 222 0 0 0;#P objectname f31;#P flonum 152 50 35 9 0 0 0 3 0 0 0 221 221 221 222 222 222 0 0 0;#P objectname f30;#P flonum 118 92 35 9 0 0 0 3 0 0 0 221 221 221 222 222 222 0 0 0;#P objectname f23;#P flonum 118 78 35 9 0 0 0 3 0 0 0 221 221 221 222 222 222 0 0 0;#P objectname f22;#P flonum 118 64 35 9 0 0 0 3 0 0 0 221 221 221 222 222 222 0 0 0;#P objectname f21;#P flonum 118 50 35 9 0 0 0 3 0 0 0 221 221 221 222 222 222 0 0 0;#P objectname f20;#P flonum 84 92 35 9 0 0 0 3 0 0 0 221 221 221 222 222 222 0 0 0;#P objectname f13;#P flonum 84 78 35 9 0 0 0 3 0 0 0 221 221 221 222 222 222 0 0 0;#P objectname f12;#P flonum 84 64 35 9 0 0 0 3 0 0 0 221 221 221 222 222 222 0 0 0;#P objectname f11;#P flonum 84 50 35 9 0 0 0 3 0 0 0 221 221 221 222 222 222 0 0 0;#P objectname f10;#P flonum 50 92 35 9 0 0 0 3 0 0 0 221 221 221 222 222 222 0 0 0;#P objectname f03;#P flonum 50 78 35 9 0 0 0 3 0 0 0 221 221 221 222 222 222 0 0 0;#P objectname f02;#P flonum 50 64 35 9 0 0 0 3 0 0 0 221 221 221 222 222 222 0 0 0;#P objectname f01;#P flonum 50 50 35 9 0 0 0 3 0 0 0 221 221 221 222 222 222 0 0 0;#P objectname f00;#P user panel 61 249 35 15;#X brgb 191 191 191;#X frgb 0 0 0;#X border 1;#X rounded 0;#X shadow 0;#X done;#P objectname col0;#P connect 85 0 89 0;#P connect 108 0 85 0;#P connect 81 0 85 0;#P connect 86 0 111 0;#P connect 89 1 86 0;#P connect 101 0 55 0;#P connect 113 0 81 0;#P connect 55 0 113 0;#P connect 88 0 84 0;#P connect 84 0 107 0;#P connect 19 0 18 0;#P connect 18 0 17 0;#P connect 20 0 17 0;#P connect 21 0 17 0;#P connect 22 0 17 0;#P connect 17 0 31 0;#P connect 49 0 99 0;#P connect 100 0 101 0;#P connect 98 0 100 0;#P connect 99 1 90 0;#P connect 90 0 92 0;#P connect 87 0 84 1;#P connect 88 1 87 0;#P connect 99 0 100 1;#P connect 114 0 113 2;#P connect 82 0 88 0;#P connect 106 0 83 0;#P connect 89 0 83 0;#P connect 83 0 82 0;#P connect 86 0 87 1;#P connect 17 1 28 0;#P connect 28 0 37 0;#P connect 37 0 49 0;#P connect 96 0 98 0;#P connect 53 0 90 2;#P connect 90 1 93 0;#P connect 97 0 96 0;#P connect 92 0 97 0;#P connect 93 0 97 0;#P connect 109 0 108 0;#P connect 98 0 105 0;#P connect 105 0 106 0;#P connect 78 0 83 1;#P connect 106 0 109 0;#P connect 95 0 97 1;#P connect 94 0 97 1;#P connect 77 0 82 1;#P connect 36 0 21 0;#P connect 29 0 38 0;#P connect 38 0 50 0;#P connect 17 2 29 0;#P connect 70 0 74 0;#P connect 108 0 70 0;#P connect 57 0 70 0;#P connect 50 0 102 0;#P connect 74 1 71 0;#P connect 71 0 110 0;#P connect 103 0 104 0;#P connect 98 0 103 0;#P connect 104 0 56 0;#P connect 56 0 112 0;#P connect 112 0 57 0;#P connect 73 0 69 0;#P connect 69 0 48 0;#P connect 91 0 94 0;#P connect 102 1 91 0;#P connect 17 3 30 0;#P connect 102 0 103 1;#P connect 72 0 69 1;#P connect 73 1 72 0;#P connect 115 0 112 2;#P connect 67 0 73 0;#P connect 106 0 68 0;#P connect 74 0 68 0;#P connect 68 0 67 0;#P connect 91 1 95 0;#P connect 59 0 91 2;#P connect 71 0 72 1;#P connect 17 4 27 0;#P connect 64 0 68 1;#P connect 63 0 67 1;#P connect 52 0 53 0;#P connect 51 0 52 0;#P connect 77 0 114 0;#P connect 54 0 51 0;#P connect 51 0 80 0;#P connect 76 0 79 0;#P connect 80 0 77 0;#P connect 77 0 75 0;#P connect 75 0 76 0;#P connect 77 1 78 0;#P connect 79 0 78 0;#P connect 75 1 78 0;#P connect 58 0 59 0;#P connect 60 0 58 0;#P connect 63 0 115 0;#P connect 54 0 60 0;#P connect 60 0 66 0;#P connect 62 0 65 0;#P connect 66 0 63 0;#P connect 63 0 61 0;#P connect 61 0 62 0;#P connect 61 1 64 0;#P connect 65 0 64 0;#P connect 63 1 64 0;#P pop;