max v2;#N vpatcher 604 100 1411 445;#P window setfont "Sans Serif" 14.;#P window linecount 1;#N vpatcher 519 179 1404 850;#P window setfont "Sans Serif" 9.;#P window linecount 1;#N coll /mapper.1/data;#P newobj 95 59 102 196617 coll /mapper.1/data;#B color 5;#P window linecount 0;#P newex 345 481 32 196617 print;#P window linecount 1;#P message 383 599 22 196617 set;#N qlist;#X append /mapper.1/sw 1 \; /mapper.1/source /adc.1/pt/pitch \; /mapper.1/speedlim 100 \; /mapper.1/slideup 0. \; /mapper.1/slidedown 5. \; /mapper.1 /filt.1/freq 56.;#X append 88. 150. 15000. norm 0.14 0 0 0. 0. 200 \;;#P newobj 431 624 40 196617 qlist;#P window linecount 0;#P newex 295 154 144 196617 sprintf refer %s/switchstate;#P newex 240 130 56 196617 t s dump s;#P newex 461 438 56 196617 t s dump s;#P newex 545 383 51 196617 zl ecils 5;#P newex 545 362 40 196617 atoi;#P newex 545 340 29 196617 gate;#N coll empty 1;#P newobj 710 93 66 196617 coll empty 1;#B color 5;#P message 639 94 65 196617 refer empty;#P button 564 50 15 0;#P newex 564 69 85 196617 t b b;#P newex 484 520 65 196617 route symbol;#P message 484 573 18 196617 \\\;;#P newex 484 609 75 196617 prepend append;#P newex 484 552 35 196617 t b l;#P newex 522 552 65 196617 route symbol;#N coll /mapper.1/state;#P newobj 484 490 125 196617 coll;#B color 5;#P newex 86 234 51 196617 zl ecils 4;#P newex 84 456 36 196617 zl reg;#P newex 64 426 30 196617 t s b;#N coll /mapper.1/data;#P newobj 50 399 53 196617 coll;#B color 5;#P newex 70 378 110 196617 sprintf refer %s/data;#P newex 50 353 70 196617 t dump s;#P newex 50 310 29 196617 gate;#P newex 86 213 41 196617 t l 0;#P newex 127 280 21 196617 t 1;#P newex 127 259 109 196617 match 47 109 97 112;#P newex 69 192 27 196617 t l l;#P newex 50 331 40 196617 itoa;#P newex 257 330 46 196617 t dump l;#N coll empty;#P newobj 257 406 110 196617 coll;#B color 5;#P newex 293 373 114 196617 sprintf refer %s/state;#P newex 293 351 40 196617 itoa;#P newex 257 296 51 196617 zl ecils 3;#P newex 257 272 40 196617 atoi;#P newex 257 226 32 196617 sel 1;#P newex 257 247 36 196617 zl reg;#P newex 316 208 69 196617 route symbol;#P newex 257 206 27 196617 > 0;#N coll empty;#P newobj 257 186 188 196617 coll;#B color 5;#P newex 484 413 40 196617 itoa;#P newex 484 383 51 196617 zl ecils 3;#P newex 484 362 40 196617 atoi;#P newex 564 292 55 196617 unpack s 0;#P newex 529 312 31 196617 == 1;#P newex 609 312 29 196617 == 0;#P newex 484 292 55 196617 unpack s 0;#P newex 484 340 29 196617 gate;#P newex 674 168 31 196617 t s 0;#P newex 530 264 44 196617 gate 2;#P newex 631 234 21 196617 t 1;#P newex 728 234 21 196617 t 2;#P newex 728 214 136 196617 match 47 109 117 116 101;#P newex 631 214 94 196617 match 47 115 119;#P newex 674 190 40 196617 atoi;#P comment 708 355 109 196617 contact@tommays.net;#P comment 708 342 100 196617 patch by Tom Mays;#P window linecount 2;#P comment 679 304 167 196617 arg 1 : name of coll containing mute or switch state info \;;#P window linecount 1;#P newex 507 461 114 196617 sprintf refer %s/state;#P newex 564 160 35 196617 zl join;#P newex 564 181 42 196617 zl rot 1;#P newex 589 137 65 196617 route symbol;#P message 564 94 31 196617 dump;#N coll common_switchstate 1;#P newobj 564 114 133 196617 coll common_switchstate 1;#B color 5;#P inlet 564 30 15 0;#P outlet 484 631 15 0;#P connect 41 1 42 0;#P connect 40 0 42 0;#P connect 42 0 37 0;#P connect 63 0 43 0;#P connect 37 0 43 0;#P connect 57 0 45 0;#P lcolor 1;#P connect 44 0 45 0;#P connect 43 0 45 0;#P connect 45 1 46 0;#P fasten 32 0 38 0 262 321 244 321 244 181 74 181;#P connect 38 0 42 1;#P connect 43 1 44 0;#P connect 46 1 47 0;#P connect 38 1 41 0;#P connect 41 0 48 0;#P connect 43 1 47 1;#P connect 48 1 39 0;#P connect 39 0 40 0;#P fasten 62 0 63 0 466 460 456 460 456 118 245 118;#P connect 63 1 26 0;#P connect 64 0 26 0;#P connect 57 0 26 0;#P lcolor 1;#P connect 26 0 27 0;#P connect 27 0 30 0;#P connect 30 0 29 0;#P connect 29 0 31 0;#P connect 31 0 32 0;#P connect 32 0 36 0;#P connect 57 0 35 0;#P lcolor 1;#P connect 36 0 35 0;#P connect 34 0 35 0;#P connect 28 0 29 1;#P connect 36 1 33 0;#P connect 33 0 34 0;#P connect 63 2 64 0;#P connect 26 1 28 0;#P connect 62 0 67 0;#P connect 66 0 65 0;#P connect 52 0 65 0;#P connect 25 0 62 0;#P connect 16 0 19 0;#P connect 21 0 18 0;#P connect 18 0 23 0;#P connect 23 0 24 0;#P fasten 61 0 25 0 550 407 489 407;#P connect 24 0 25 0;#P connect 62 1 49 0;#P connect 7 0 49 0;#P fasten 45 0 54 0 55 513 489 513;#P lcolor 7;#P connect 35 0 54 0;#P connect 49 0 54 0;#P connect 54 0 51 0;#P connect 54 1 51 0;#P connect 51 0 53 0;#P connect 47 0 52 0;#P connect 53 0 52 0;#P connect 51 1 52 0;#P connect 50 0 52 0;#P connect 52 0 0 0;#P connect 19 0 18 1;#P connect 62 2 7 0;#P connect 46 0 50 0;#P lcolor 6;#P connect 35 1 50 0;#P lcolor 13;#P connect 49 1 50 0;#P connect 19 1 21 0;#P connect 17 1 16 0;#P lcolor 1;#P connect 14 0 16 0;#P connect 15 0 16 0;#P connect 20 0 59 0;#P connect 59 0 60 0;#P connect 60 0 61 0;#P connect 1 0 56 0;#P connect 56 0 55 0;#P connect 55 0 3 0;#P connect 3 0 2 0;#P connect 2 0 6 0;#P connect 6 0 5 0;#P connect 5 0 16 1;#P connect 16 1 22 0;#P connect 22 0 59 1;#P connect 2 1 4 0;#P connect 4 0 6 1;#P connect 22 1 20 0;#P connect 11 0 12 0;#P connect 12 0 15 0;#P connect 55 1 57 0;#P connect 4 0 17 0;#P connect 17 0 11 0;#P connect 11 0 13 0;#P connect 13 0 14 0;#P pop;#P newobj 33 241 192 196622 p store common snapshot;#B color 6;#N vpatcher 10 59 635 740;#P window setfont "Sans Serif" 9.;#P newex 133 375 32 196617 print;#P newex 74 294 51 196617 zl ecils 4;#P newex 329 261 40 196617 atoi;#P message 432 146 33 196617 dump;#P message 345 237 113 196617 /ct.1/A/cntrd/x/map;#N coll /ct.1/A/cntrd/x/map/state 1;#P newobj 372 207 170 196617 coll /ct.1/A/cntrd/x/map/state 1;#B color 5;#P button 191 595 15 0;#P newex 111 529 36 196617 zl reg;#P newex 66 495 30 196617 t s b;#N coll /ct.1/A/cntrd/x/map/data;#P newobj 52 466 53 196617 coll;#B color 5;#P newex 89 442 110 196617 sprintf refer %s/data;#P newex 51 419 48 196617 t dump s;#P newex 50 366 29 196617 gate;#P newex 105 318 29 196617 t l 0;#P newex 103 365 21 196617 t 1;#P newex 104 342 109 196617 match 47 109 97 112;#P newex 55 272 27 196617 t l l;#P newex 51 392 40 196617 itoa;#N coll empty 1;#P newobj 283 479 66 196617 coll empty 1;#B color 5;#P message 281 460 65 196617 refer empty;#P button 245 50 15 0;#P newex 214 504 65 196617 route symbol;#P message 214 558 18 196617 \\\;;#P newex 214 589 75 196617 prepend append;#P newex 214 535 35 196617 t b l;#P newex 258 532 65 196617 route symbol;#P message 554 175 22 196617 set;#P newex 245 74 315 196617 t b b b b;#N qlist;#X append /ct.1/A/cntrd/x/map/sw 1 \; /ct.1/A/cntrd/x/map/speedlim 0 \; /ct.1/A/cntrd/x/map/slideup 0. \; /ct.1/A/cntrd/x/map/slidedown 0. \; /ct.1/A/cntrd/x/map qwewqeqweqweewewe 0. 1. 0. 1.;#X append norm -0.1 0 0 0. 0. \; /ct.1/A/cntrd/x/map qwewqeqweqwe 0. 1. 0. 1. sym 0.29 0 0 0.;#X append 0. \; /ct.1/A/cntrd/x/map qweqwe 0. 1. 0. 1. updwn -0.21 0 0 0. 0. \;;#P newobj 214 617 40 196617 qlist;#B color 13;#P newex 193 387 46 196617 t dump l;#N coll empty;#P newobj 214 462 53 196617 coll;#B color 5;#P newex 221 437 114 196617 sprintf refer %s/state;#P newex 223 415 40 196617 itoa;#P newex 225 363 29 196617 gate;#P newex 282 328 29 196617 t l 0;#P newex 280 375 21 196617 t 1;#P newex 281 352 94 196617 match 47 115 119;#P newex 242 306 51 196617 zl ecils 3;#P newex 239 279 40 196617 atoi;#P newex 231 225 32 196617 sel 1;#P newex 239 253 36 196617 zl reg;#P newex 268 200 69 196617 route symbol;#P newex 238 200 27 196617 > 0;#P message 245 146 33 196617 dump;#N coll /ct.1/A/cntrd/x/map/switchstate 1;#P newobj 245 174 200 196617 coll /ct.1/A/cntrd/x/map/switchstate 1;#B color 5;#P connect 31 1 32 0;#P connect 30 0 32 0;#P connect 32 0 27 0;#P connect 27 0 33 0;#P connect 25 0 35 0;#P connect 34 0 35 0;#P connect 33 0 35 0;#P connect 7 0 28 0;#P connect 42 0 28 0;#P connect 35 1 36 0;#P connect 28 0 32 1;#P connect 28 1 43 0;#P connect 33 1 34 0;#P connect 29 0 30 0;#P connect 31 0 29 0;#P connect 43 1 31 0;#P connect 36 1 37 0;#P connect 31 0 44 0;#P connect 33 1 37 1;#P connect 11 0 15 0;#P connect 15 0 14 0;#P connect 13 0 14 0;#P connect 25 0 14 0;#P connect 14 0 23 0;#P fasten 35 0 23 0 57 489 219 489;#P fasten 39 0 23 0 377 500 219 500;#P connect 23 0 20 0;#P connect 23 1 20 0;#P connect 20 0 22 0;#P connect 22 0 21 0;#P connect 20 1 21 0;#P connect 19 0 21 0;#P connect 37 0 21 0;#P fasten 18 0 16 0 559 610 219 610;#P connect 21 0 16 0;#P connect 38 0 16 0;#P connect 12 0 13 0;#P connect 15 1 12 0;#P connect 9 0 11 0;#P connect 10 1 11 0;#P connect 2 0 5 0;#P connect 0 0 2 0;#P connect 5 0 4 0;#P connect 4 0 6 0;#P connect 6 0 7 0;#P connect 7 0 11 1;#P connect 24 0 17 0;#P connect 17 0 1 0;#P connect 1 0 0 0;#P connect 14 1 19 0;#P connect 36 0 19 0;#P fasten 39 1 19 0 430 527 263 527;#P connect 3 0 4 1;#P connect 0 1 3 0;#P connect 8 0 9 0;#P connect 10 0 8 0;#P connect 17 3 25 0;#P connect 7 1 10 0;#P connect 40 0 42 0;#P connect 17 1 40 0;#P connect 41 0 39 0;#P connect 17 2 41 0;#P connect 17 3 18 0;#P pop;#P newobj 34 205 154 196622 p store sub modules;#B color 6;#N vpatcher 768 231 1364 864;#P window setfont "Sans Serif" 9.;#P newex 46 103 126 196617 storetemppath /random.1;#B color 6;#P newex 45 69 112 196617 storetemppath /midi.1;#B color 6;#N coll /ct.1/state 1;#P newobj 368 24 91 196617 coll /ct.1/state 1;#B color 5;#N coll /ct.1/switchstate 1;#P newobj 241 24 121 196617 coll /ct.1/switchstate 1;#B color 5;#N coll /midi.1/state 1;#P newobj 385 125 101 196617 coll /midi.1/state 1;#B color 5;#P button 191 546 15 0;#P newex 111 480 36 196617 zl reg;#P newex 66 446 30 196617 t s b;#N coll /midi.1/cc.2/map/data;#P newobj 52 417 53 196617 coll;#B color 5;#P newex 89 393 110 196617 sprintf refer %s/data;#P newex 51 370 48 196617 t dump s;#P newex 50 317 29 196617 gate;#P newex 105 269 29 196617 t l 0;#P newex 103 316 21 196617 t 1;#P newex 104 293 109 196617 match 47 109 97 112;#P newex 54 245 27 196617 t l l;#P newex 51 343 40 196617 itoa;#N coll empty 1;#P newobj 283 430 66 196617 coll empty 1;#B color 5;#P message 281 411 65 196617 refer empty;#P button 245 50 15 0;#P newex 214 455 65 196617 route symbol;#P message 214 509 18 196617 \\\;;#P newex 214 540 75 196617 prepend append;#P newex 214 486 35 196617 t b l;#P newex 258 483 65 196617 route symbol;#P message 530 128 22 196617 set;#P newex 245 74 245 196617 t b b;#N qlist;#X append /midi.1/type/out BCF2000 \; /midi.1/channel/out 1 \; /midi.1/sw 1 \; /midi.1/cc.1/midicc 1 \; /midi.1/cc.2/midicc 2 \; /midi.1/cc.3/midicc 3 \;;#X append /midi.1/cc.4/midicc 4 \; /midi.1/cc.5/midicc 5 \; /midi.1/cc.6/midicc 6 \; /midi.1/cc.7/midicc 7 \; /midi.1/cc.8/midicc 8 \; /midi.1/cc.9/midicc 9 \;;#X append /midi.1/cc.10/midicc 10 \; /midi.1/cc.11/midicc 11 \; /midi.1/cc.12/midicc 12 \; /midi.1/cc.13/midicc 13 \; /midi.1/cc.14/midicc 14 \; /midi.1/cc.15/midicc 15 \;;#X append /midi.1/cc.16/midicc 16 \; /midi.1/cc.17/midicc 17 \; /midi.1/cc.18/midicc 18 \; /midi.1/cc.19/midicc 19 \; /midi.1/cc.20/midicc 20 \; /midi.1/cc.21/midicc 21 \;;#X append /midi.1/cc.22/midicc 22 \; /midi.1/cc.23/midicc 23 \; /midi.1/cc.24/midicc 24 \; /midi.1/cc.25/midicc 25 \; /midi.1/cc.26/midicc 26 \; /midi.1/cc.27/midicc 27 \;;#X append /midi.1/cc.28/midicc 28 \; /midi.1/cc.29/midicc 29 \; /midi.1/cc.30/midicc 30 \; /midi.1/cc.31/midicc 31 \; /midi.1/cc.32/midicc 32 \; /midi.1/cc.33/midicc 33 \;;#X append /midi.1/cc.34/midicc 34 \; /midi.1/cc.35/midicc 35 \; /midi.1/cc.36/midicc 36 \; /midi.1/cc.37/midicc 37 \; /midi.1/cc.38/midicc 38 \; /midi.1/cc.39/midicc 39 \;;#X append /midi.1/cc.40/midicc 40 \; /midi.1/cc.41/midicc 41 \; /midi.1/cc.42/midicc 42 \; /midi.1/cc.43/midicc 43 \; /midi.1/cc.44/midicc 44 \; /midi.1/cc.2/map/sw 1 \;;#X append /midi.1/cc.2/map/speedlim 0 \; /midi.1/cc.2/map/slideup 0. \; /midi.1/cc.2/map/slidedown 0. \; /midi.1/cc.2/map wqeqweqw 0. 1. 0. 1. norm 0.14 0;#X append 0 0. 0. \;;#P newobj 214 568 40 196617 qlist;#B color 13;#P newex 193 338 46 196617 t dump l;#N coll /midi.1/cc.2/map/state;#P newobj 214 413 53 196617 coll;#B color 5;#P newex 221 388 114 196617 sprintf refer %s/state;#P newex 223 366 40 196617 itoa;#P newex 225 314 29 196617 gate;#P newex 282 279 29 196617 t l 0;#P newex 280 326 21 196617 t 1;#P newex 281 303 94 196617 match 47 115 119;#P newex 242 257 51 196617 zl ecils 3;#P newex 239 230 40 196617 atoi;#P newex 231 176 32 196617 sel 1;#P newex 239 204 36 196617 zl reg;#P newex 268 151 69 196617 route symbol;#P newex 238 151 27 196617 > 0;#P message 245 97 33 196617 dump;#N coll /midi.1/switchstate 1;#P newobj 245 125 131 196617 coll /midi.1/switchstate 1;#B color 5;#P connect 30 0 32 0;#P connect 31 1 32 0;#P connect 32 0 27 0;#P connect 27 0 33 0;#P connect 25 0 35 0;#P connect 33 0 35 0;#P connect 34 0 35 0;#P connect 7 0 28 0;#P connect 35 1 36 0;#P connect 28 0 32 1;#P connect 33 1 34 0;#P connect 29 0 30 0;#P connect 31 0 29 0;#P connect 28 1 31 0;#P connect 36 1 37 0;#P connect 33 1 37 1;#P connect 11 0 15 0;#P connect 25 0 14 0;#P connect 13 0 14 0;#P connect 15 0 14 0;#P fasten 35 0 23 0 57 440 219 440;#P connect 14 0 23 0;#P fasten 39 0 23 0 390 451 219 451;#P connect 23 1 20 0;#P connect 23 0 20 0;#P connect 20 0 22 0;#P connect 37 0 21 0;#P connect 19 0 21 0;#P connect 20 1 21 0;#P connect 22 0 21 0;#P connect 38 0 16 0;#P connect 21 0 16 0;#P fasten 18 0 16 0 535 561 219 561;#P connect 12 0 13 0;#P connect 15 1 12 0;#P connect 10 1 11 0;#P connect 9 0 11 0;#P connect 2 0 5 0;#P connect 0 0 2 0;#P connect 5 0 4 0;#P connect 4 0 6 0;#P connect 6 0 7 0;#P connect 7 0 11 1;#P connect 24 0 17 0;#P connect 17 0 1 0;#P connect 1 0 0 0;#P connect 36 0 19 0;#P connect 14 1 19 0;#P fasten 39 1 19 0 420 478 263 478;#P connect 3 0 4 1;#P connect 0 1 3 0;#P connect 8 0 9 0;#P connect 10 0 8 0;#P connect 17 1 25 0;#P connect 7 1 10 0;#P fasten 1 0 39 0 250 118 390 118;#P connect 17 1 18 0;#P pop;#P newobj 36 166 263 196622 p store modules and its submodules;#B color 6;#P window setfont "Sans Serif" 9.;#N vpatcher 227 303 1167 717;#P window setfont "Sans Serif" 9.;#P message 85 239 33 196617 clear;#P window linecount 1;#N coll /ct.1/A/cntrd/x/map/data 1;#P newobj 88 268 166 196617 coll /ct.1/A/cntrd/x/map/data 1;#P newex 435 120 166 196617 r /ct.1/A/cntrd/x/map/speedlim;#P newex 210 120 166 196617 r /ct.1/A/cntrd/x/map/speedlim;#P window linecount 0;#P newex 385 249 140 196617 r /ct.1/A/cntrd/x/map/sw;#P comment 284 49 227 196617 /ct.1/A/cntrd/x/map/sw 1 \; /ct.1/A/cntrd/x/map/speedlim 0 \; /ct.1/A/cntrd/x/map/slideup 0. \; /ct.1/A/cntrd/x/map/slidedown 0. \;;#P connect 5 0 4 0;#P pop;#P newobj 346 136 97 196617 p autoinit mapper ?;#B color 6;#P number 615 103 35 9 0 0 0 3 0 0 0 221 221 221 222 222 222 0 0 0;#P number 620 58 35 9 0 0 0 3 0 0 0 221 221 221 222 222 222 0 0 0;#P message 550 31 37 196617 length;#N coll /ct.2/switchstate 1;#P newobj 618 83 121 196617 coll /ct.2/switchstate 1;#B color 5;#N coll /ct.1/switchstate 1;#P newobj 621 37 121 196617 coll /ct.1/switchstate 1;#B color 5;#N coll common_switchstate;#P newobj 62 41 124 196617 coll common_switchstate;#N coll /ct.1/A/cntrd/x/map/state 1;#P newobj 441 81 170 196617 coll /ct.1/A/cntrd/x/map/state 1;#N coll /ct.1/submodules 1;#P newobj 358 50 119 196617 coll /ct.1/submodules 1;#N coll /ct.1/A/cntrd/x/map/params 1;#P newobj 227 95 180 196617 coll /ct.1/A/cntrd/x/map/params 1;#N coll /ct.1/subparams 1;#P newobj 214 49 116 196617 coll /ct.1/subparams 1;#N coll /ct.1/substate 1;#P newobj 68 120 106 196617 coll /ct.1/substate 1;#N coll /ct.1/state 1;#P newobj 65 72 91 196617 coll /ct.1/state 1;#P connect 8 0 11 0;#P connect 9 0 8 0;#P connect 7 0 10 0;#P connect 9 0 7 0;#P pop;