max v2;#N vpatcher 181 86 1199 870;#P origin 24 -170;#P button 452 488 15 0;#P window setfont "Sans Serif" 9.;#P window linecount 1;#P newex 452 512 62 196617 t soundfiles;#P message 612 608 64 196617 types WAVE;#P button 421 544 15 0;#P newex 431 617 69 196617 route symbol;#N coll filepaths.txt;#P newobj 433 595 85 196617 coll filepaths.txt;#B color 5;#P message 755 582 51 196617 types AU;#P message 684 576 58 196617 types AIFF;#P newex 528 602 73 196617 prepend types;#P newex 420 566 97 196617 t b soundfiles wave;#P button 409 639 15 0;#P newex 440 694 41 196617 print 2;#P newex 444 661 37 196617 folder;#P newex 694 434 54 196617 print asdf;#P window linecount 2;#P message 425 306 390 196617 /tompro/Volumes/there/projects1/SON_VID-environment/TAPE-MOVIE/tapemovie-public/branches/active/tapemovie-lib/default-project/media/samples/;#P message 630 475 314 196617 there:/projects1/SON_VID-environment/TAPE-MOVIE/tapemovie-public/branches/active/tapemovie-lib/default-project/media/;#P window linecount 1;#P newex 536 418 69 196617 route symbol;#P newex 617 450 62 196617 prepend set;#P button 517 443 15 0;#P newex 534 500 41 196617 print 2;#P button 535 347 15 0;#P newex 536 368 53 196617 t samples;#N coll filepaths.txt;#P newobj 536 393 85 196617 coll filepaths.txt;#B color 5;#P newex 538 467 37 196617 folder;#N coll samples_folder 1;#P newobj 506 536 107 196617 coll samples_folder 1;#B color 5;#P newex 65 142 118 196617 r /tape/modules/editor;#B color 11;#P newex 505 142 125 196617 r /tape/shortcuts/editor;#B color 11;#P newex 365 142 106 196617 r /tape/spats/editor;#B color 11;#P newex 215 142 109 196617 r /tape/config/editor;#B color 11;#P newex 234 473 44 196617 del 100;#P newex 549 231 122 196617 r /tape/shortcuts/reset;#B color 11;#P newex 55 169 60 196617 route front;#P message 55 188 30 196617 open;#P newex 495 169 60 196617 route front;#P message 495 188 30 196617 open;#P newex 355 169 60 196617 route front;#P message 355 188 30 196617 open;#P newex 205 169 60 196617 route front;#P message 205 188 30 196617 open;#P newex 43 547 44 196617 del 500;#P newex 43 445 44 196617 del 500;#N vpatcher 30 89 333 347;#P window setfont "Sans Serif" 9.;#P window linecount 1;#P newex 122 138 32 196617 t sub;#P newex 122 117 57 196617 route subb;#P window linecount 0;#P newex 50 189 47 196617 forward;#P newex 122 164 131 196617 sprintf send /%s/shortcut;#P newex 50 95 69 196617 route symbol;#P newex 122 95 69 196617 route symbol;#P newex 95 50 40 196617 t dump;#N coll t_shortcuts 1;#P newobj 95 73 91 196617 coll t_shortcuts 1;#B color 5;#P inlet 95 30 15 0;#P connect 1 0 4 0;#P connect 4 0 6 0;#P connect 5 0 6 0;#P connect 0 0 2 0;#P connect 2 0 1 0;#P connect 1 1 3 0;#P connect 3 0 7 0;#P connect 7 0 8 0;#P fasten 7 1 5 0 174 160 127 160;#P connect 8 0 5 0;#P pop;#P newobj 537 274 84 196617 p send shortcuts;#B color 6;#P button 537 255 15 0;#P newex 483 109 151 196617 sprintf read %st_shortcuts.txt;#B color 5;#N coll t_shortcuts 1;#P newobj 483 208 91 196617 coll t_shortcuts 1;#B color 5;#P window setfont Times 18.;#P newex 841 632 69 1310738 t_samps;#B color 1;#P window setfont "Sans Serif" 9.;#P newex 43 727 128 196617 deletebuild /tape/samples;#B color 3;#P button 43 708 15 6;#P comment 58 709 31 196617 build;#P window linecount 2;#P message 91 339 47 196617 \; dsp stop;#P window setfont Times 18.;#P window linecount 1;#N vpatcher 697 297 1401 623;#P origin 24 -111;#P window setfont "Sans Serif" 9.;#P window linecount 0;#P newex 72 204 106 196617 s tape_sflist/preload;#B color 11;#P newex 72 183 112 196617 r /tape/sflist/preload;#B color 11;#P newex 505 39 108 196617 r /tape/samplist/init;#B color 9;#P window setfont "Sans Serif" 12.;#P newex 320 245 128 196620 sampgroups-builder;#B color 6;#P button 505 62 15 0;#P window setfont "Sans Serif" 9.;#P newex 505 80 44 196617 del 100;#P newex 505 162 38 196617 zl join;#P newex 505 141 44 196617 zl nth 1;#P newex 505 183 72 196617 prepend store;#P message 505 100 33 196617 dump;#N coll tape_samplist 1;#P newobj 505 119 101 196617 coll tape_samplist 1;#B color 5;#N coll tape_samplist-r 1;#P newobj 505 204 111 196617 coll tape_samplist-r 1;#B color 5;#P newex 321 54 60 196617 route front;#P newex 321 141 60 196617 route front;#P newex 321 121 135 196617 r /tape/sampgroups/editor;#B color 11;#P window linecount 2;#P message 162 145 131 196617 \; /tape/sflist/preload bang \;;#B color 4;#P window linecount 1;#P newex 321 34 120 196617 r /tape/samplist/editor;#B color 11;#P button 28 61 15 0;#P newex 28 40 106 196617 r /tape/sflist/editor;#B color 11;#P message 28 80 30 196617 open;#P message 321 160 30 196617 open;#P message 321 73 30 196617 open;#N vpatcher 50 119 541 374;#P inlet 29 162 15 0;#P window setfont "Sans Serif" 9.;#P window linecount 0;#P newex 159 72 20 196617 t b;#P newex 222 124 48 196617 loadbang;#P message 340 66 22 196617 set;#P message 208 82 154 196617 tape_sampgroups.txt;#P newex 208 61 62 196617 prepend set;#P window linecount 2;#P message 222 148 198 196617 \; /t_sampgroups/file tape_sampgroups.txt;#P window linecount 1;#P newex 190 36 108 196617 r /t_sampgroups/file;#B color 9;#P button 37 49 15 0;#P newex 59 73 44 196617 t config;#P newex 59 49 108 196617 r /t_sampgroups/init;#B color 9;#P newex 59 132 141 196617 sprintf read %s/data/%s;#B color 5;#N coll filepaths.txt;#P newobj 59 99 85 196617 coll filepaths.txt;#B color 5;#N coll tape_sampgroups 1;#P newobj 59 191 116 196617 coll tape_sampgroups 1;#B color 5;#P connect 3 0 4 0;#P connect 5 0 4 0;#P connect 12 0 4 0;#P connect 4 0 1 0;#P connect 1 0 2 0;#P connect 13 0 0 0;#P connect 2 0 0 0;#P connect 6 0 12 0;#P connect 6 0 2 1;#P connect 6 0 8 0;#P connect 8 0 9 0;#P connect 10 0 9 0;#P connect 11 0 7 0;#P pop;#P newobj 321 178 121 196617 p tape_sampgroups_data;#B color 5;#N vpatcher 50 119 474 373;#P inlet 29 162 15 0;#P window setfont "Sans Serif" 9.;#P window linecount 0;#P newex 144 72 20 196617 t b;#P newex 213 125 48 196617 loadbang;#P message 325 66 22 196617 set;#P message 193 82 154 196617 tape_samplist.txt;#P newex 193 61 62 196617 prepend set;#P window linecount 2;#P message 213 149 168 196617 \; /t_samplist/file tape_samplist.txt;#P window linecount 1;#P newex 175 36 93 196617 r /t_samplist/file;#B color 9;#P button 37 49 15 0;#P newex 59 73 44 196617 t config;#P newex 59 49 93 196617 r /t_samplist/init;#B color 9;#P newex 59 132 126 196617 sprintf read %s/data/%s;#B color 5;#N coll filepaths.txt;#P newobj 59 99 85 196617 coll filepaths.txt;#B color 5;#N coll tape_samplist 1;#P newobj 59 191 101 196617 coll tape_samplist 1;#B color 5;#P connect 12 0 4 0;#P connect 5 0 4 0;#P connect 3 0 4 0;#P connect 4 0 1 0;#P connect 1 0 2 0;#P connect 13 0 0 0;#P connect 2 0 0 0;#P connect 6 0 12 0;#P connect 6 0 2 1;#P connect 6 0 8 0;#P connect 10 0 9 0;#P connect 8 0 9 0;#P connect 11 0 7 0;#P pop;#P newobj 321 90 106 196617 p tape_samplist_data;#B color 5;#N vpatcher 477 117 890 387;#P inlet 27 162 15 0;#P window setfont "Sans Serif" 9.;#P window linecount 0;#P newex 142 72 20 196617 t b;#P newex 211 125 48 196617 loadbang;#P message 323 66 22 196617 set;#P message 191 82 154 196617 tape_sflist.txt;#P newex 191 61 62 196617 prepend set;#P window linecount 2;#P message 211 149 155 196617 \; /tape/sflist/file tape_sflist.txt;#P window linecount 1;#P newex 173 35 94 196617 r /tape/sflist/file;#B color 9;#P button 35 49 15 0;#P newex 57 73 44 196617 t config;#P newex 57 35 94 196617 r /tape/sflist/init;#B color 9;#P newex 57 132 126 196617 sprintf read %s/data/%s;#B color 5;#N coll filepaths.txt;#P newobj 57 99 85 196617 coll filepaths.txt;#B color 5;#N coll tape_sflist_data 1;#P newobj 57 191 112 196617 coll tape_sflist_data 1;#B color 5;#P connect 5 0 4 0;#P connect 12 0 4 0;#P connect 3 0 4 0;#P connect 4 0 1 0;#P connect 1 0 2 0;#P connect 2 0 0 0;#P connect 13 0 0 0;#P connect 6 0 12 0;#P connect 6 0 2 1;#P connect 6 0 8 0;#P connect 8 0 9 0;#P connect 10 0 9 0;#P connect 11 0 7 0;#P pop;#P newobj 28 97 92 196617 p tape_sflist_data;#B color 5;#P newex 28 145 114 196617 t_sfpreload tape_sflist;#B color 4;#P window setfont "Sans Serif" 18.;#P comment 1 1 61 196626 adcs;#P connect 8 0 9 0;#P connect 9 0 7 0;#P connect 7 0 2 0;#P connect 25 0 26 0;#P connect 10 0 14 0;#P connect 14 0 5 0;#P connect 5 0 3 0;#P connect 12 0 13 0;#P connect 13 0 6 0;#P connect 6 0 4 0;#P connect 24 0 22 0;#P connect 22 0 21 0;#P connect 21 0 17 0;#P connect 17 0 16 0;#P connect 16 0 19 0;#P connect 19 0 20 0;#P connect 20 0 18 0;#P connect 18 0 15 0;#P connect 16 1 20 1;#P pop;#P newobj 841 600 54 1310738 p data;#B color 1;#P button 109 668 15 13;#P window setfont "Sans Serif" 9.;#P comment 124 669 37 196617 delete;#P button 87 291 15 0;#P newex 43 316 54 196617 onebang 1;#P window linecount 10;#P message 234 554 144 196617 \; /tape/recallallwindows bang \; /tape/sflist/preload bang \; /makeparam/reset bang \; /tape/editorsmenu/fill bang \; /tape/datamenu/fill bang \; /tape/audiomenu/fill bang \; /tape/archmenu/fill bang \; /tape/shortcuts/reset bang \; /dac/vol 1 \;;#P window setfont Times 9.;#P window linecount 1;#N thispatcher;#Q end;#P newobj 841 551 53 1310729 thispatcher;#P window setfont "Sans Serif" 9.;#P message 841 353 30 196617 done;#P newex 841 371 96 196617 print /tape/initdsp;#P button 43 668 15 6;#P comment 58 669 31 196617 build;#N vpatcher 647 71 1191 635;#P window setfont "Sans Serif" 9.;#P window linecount 1;#P newex 164 46 31 196617 t b 1;#P window linecount 0;#P newex 50 46 78 196617 t b 2;#P window linecount 1;#P newex 291 146 38 196617 gate 2;#N comlet fin;#P outlet 224 493 15 0;#P button 224 473 15 0;#P newex 224 452 44 196617 del 100;#P window linecount 0;#P newex 88 305 69 196617 route symbol;#P newex 103 411 32 196617 del 1;#P newex 180 371 36 196617 zl reg;#P newex 103 382 41 196617 sel 0 1;#P newex 103 362 27 196617 > 0;#P newex 103 341 51 196617 zl slice 1;#N comlet build (delete first);#P inlet 50 28 15 0;#P newex 160 324 56 196617 route spat;#P newex 160 304 69 196617 route symbol;#P newex 50 174 88 196617 t b start b;#P newex 50 153 32 196617 del 1;#P message 50 77 37 196617 length;#P button 50 196 15 0;#P newex 50 133 56 196617 t b i;#P newex 50 246 73 196617 t b next pause;#P newex 50 221 56 196617 uzi;#P number 50 115 35 9 0 0 0 3 0 0 0 221 221 221 222 222 222 0 0 0;#P newex 50 95 99 196617 grab;#P newex 103 460 50 196617 t resume;#N coll t_config 1;#P newobj 139 281 75 196617 coll t_config 1;#B color 5;#P button 291 391 15 0;#P newex 319 365 45 196617 onebang;#P button 319 346 15 0;#P newex 319 305 132 196617 sprintf set /tape/%s/built;#P newex 319 326 44 196617 receive;#P newex 319 285 47 196617 forward;#P newex 339 263 139 196617 sprintf send /tape/%s/build;#P newex 319 236 105 196617 t b s b;#P newex 319 214 81 196617 zl reg;#P button 319 195 15 0;#P newex 319 172 45 196617 onebang;#P button 319 125 15 0;#P newex 260 84 47 196617 forward;#P newex 260 39 105 196617 t b s b;#P newex 319 84 144 196617 sprintf set /tape/%s/deleted;#P newex 319 105 44 196617 receive;#P newex 280 62 145 196617 sprintf send /tape/%s/delete;#N comlet delete only;#P inlet 164 28 15 0;#P comment 65 29 93 196617 build (delete first);#P comment 179 28 59 196617 delete only;#P connect 33 0 44 0;#P connect 44 0 28 0;#P connect 45 0 28 0;#P connect 28 0 22 0;#P connect 22 0 23 0;#P connect 23 0 26 0;#P connect 26 0 29 0;#P connect 29 0 30 0;#P connect 30 0 27 0;#P connect 27 0 24 0;#P fasten 21 0 24 0 108 483 45 483 45 216 55 216;#P fasten 25 2 24 0 117 267 126 267 126 217 55 217;#P lcolor 2;#P connect 24 0 25 0;#P connect 20 0 39 0;#P connect 26 1 24 1;#P connect 39 1 34 0;#P connect 34 0 35 0;#P connect 35 0 36 0;#P connect 36 0 38 0;#P connect 32 0 21 0;#P connect 19 0 21 0;#P connect 38 0 21 0;#P connect 30 1 20 0;#P connect 22 1 20 0;#P connect 25 1 20 0;#P connect 20 1 31 0;#P connect 31 0 32 0;#P connect 2 0 45 0;#P connect 36 1 37 0;#P connect 32 1 37 1;#P connect 24 1 40 0;#P connect 40 0 41 0;#P connect 41 0 42 0;#P connect 37 0 6 0;#P connect 3 0 7 0;#P connect 6 0 7 0;#P connect 6 1 3 0;#P connect 44 1 43 0;#P connect 45 1 43 0;#P connect 43 0 19 0;#P connect 18 0 19 0;#P connect 6 1 5 0;#P connect 5 0 4 0;#P connect 4 0 8 0;#P connect 8 0 43 1;#P connect 43 1 9 0;#P connect 9 0 10 0;#P connect 10 0 11 0;#P connect 11 0 12 0;#P connect 12 0 14 0;#P connect 13 0 14 0;#P connect 12 1 16 0;#P connect 16 0 15 0;#P connect 15 0 17 0;#P connect 17 0 18 0;#P connect 12 1 13 0;#P connect 6 2 9 1;#P connect 12 2 18 1;#P connect 6 1 11 1;#P pop;#P newobj 43 687 76 196617 p build-editors;#B color 6;#P newex 43 340 44 196617 del 500;#P newex 234 494 31 196617 t b 0;#P newex 277 531 132 196617 s /tape/autoconfig/buildng;#B color 11;#P window linecount 2;#P message 841 244 112 196617 \; /autoconfig/build bang;#P window linecount 1;#P newex 43 647 134 196617 deletebuild /tape/fxmeters;#B color 6;#P button 43 629 15 6;#P comment 58 630 31 196617 build;#P newex 43 609 132 196617 deletebuild /tape/iometers;#B color 6;#P button 43 591 15 6;#P comment 58 592 31 196617 build;#P newex 43 570 116 196617 deletebuild /tape/spats;#B color 6;#P button 43 528 15 6;#P comment 58 529 31 196617 build;#P newex 43 507 107 196617 deletebuild /tape/dsp;#B color 6;#P button 816 48 15 0;#P newex 653 109 147 196617 sprintf read %st_windows.txt;#B color 5;#N coll t_windows 1;#P newobj 653 131 87 196617 coll t_windows 1;#B color 5;#P newex 816 68 44 196617 t config;#P newex 816 27 119 196617 r /tape/windows/write;#B color 11;#P newex 816 113 152 196617 sprintf write %st_windows.txt;#B color 5;#N coll filepaths.txt;#P newobj 816 89 85 196617 coll filepaths.txt;#B color 5;#N vpatcher 823 66 1240 678;#P outlet 73 314 15 0;#P window setfont "Sans Serif" 9.;#P window linecount 1;#P newex 257 484 36 196617 zl reg;#P newex 193 397 49 196617 zl rot -1;#P newex 193 376 51 196617 zl slice 2;#P newex 193 352 56 196617 route spat;#P newex 193 332 44 196617 zl rot 1;#P newex 139 290 69 196617 route symbol;#P newex 193 312 38 196617 zl join;#P newex 211 290 69 196617 route symbol;#P newex 50 147 88 196617 t b start b;#P newex 50 126 32 196617 del 1;#P message 50 50 37 196617 length;#P button 50 169 15 0;#P newex 50 243 41 196617 del 10;#P newex 50 106 56 196617 t b i;#P newex 50 219 73 196617 t b next pause;#P newex 50 194 56 196617 uzi;#P number 50 88 35 9 0 0 0 3 0 0 0 221 221 221 222 222 222 0 0 0;#P newex 50 68 99 196617 grab;#P newex 50 264 50 196617 t resume;#N coll t_config 1;#P newobj 139 265 75 196617 coll t_config 1;#B color 5;#P newex 193 418 57 196617 unpack 0 s;#P newex 257 526 68 196617 prepend send;#P newex 223 462 78 196617 t b b i;#P newex 257 504 105 196617 sprintf /%s.%ld/init;#P newex 193 440 40 196617 uzi;#P newex 223 551 47 196617 forward;#N comlet init dsp modules;#P inlet 50 30 15 0;#P window linecount 0;#P comment 68 30 82 196617 init dsp modules;#P comment 88 314 30 196617 done;#P connect 2 0 18 0;#P connect 18 0 11 0;#P connect 11 0 12 0;#P connect 12 0 15 0;#P connect 15 0 19 0;#P connect 19 0 20 0;#P connect 20 0 17 0;#P fasten 14 2 13 0 117 240 126 240 126 188 55 188;#P lcolor 2;#P fasten 10 0 13 0 55 284 45 284 45 191 55 191;#P connect 17 0 13 0;#P connect 13 0 14 0;#P connect 14 0 16 0;#P connect 16 0 10 0;#P connect 13 1 29 0;#P connect 15 1 13 1;#P connect 14 1 9 0;#P connect 11 1 9 0;#P connect 20 1 9 0;#P connect 9 0 23 0;#P connect 23 1 22 0;#P connect 23 0 22 0;#P connect 22 0 24 0;#P connect 24 0 25 0;#P connect 25 1 26 0;#P connect 26 0 27 0;#P connect 27 0 8 0;#P connect 8 0 4 0;#P fasten 9 1 21 0 165 286 216 286;#P connect 21 0 22 1;#P connect 4 2 6 0;#P connect 7 0 3 0;#P connect 6 0 3 0;#P connect 6 1 28 0;#P connect 28 0 5 0;#P connect 5 0 7 0;#P connect 8 1 28 1;#P connect 6 2 5 1;#P pop;#P newobj 841 332 96 196617 p init_dsp_modules;#B color 6;#P toggle 841 429 64 0;#P noclick;#P newex 841 409 99 196617 r /autoconfig/state;#B color 11;#P newex 277 323 21 196617 t 1;#P newex 290 346 124 196617 s /tape/autoconfig/state;#B color 11;#P newex 41 263 122 196617 r /tape/autoconfig/build;#B color 11;#P newex 235 263 128 196617 r /tape/autoconfig/delete;#B color 11;#P window linecount 5;#P message 235 369 143 196617 bang \; /tape/dsp/delete bang \; /tape/spats/delete bang \; /tape/iometers/delete bang \; /tape/fxmeters/delete bang \;;#P window linecount 1;#P newex 841 284 79 196617 r /tape/initdsp;#B color 11;#P button 841 305 24 0;#P newex 247 347 21 196617 t 0;#P button 235 284 24 0;#P button 43 284 24 0;#P newex 43 467 66 196617 onebang;#P button 43 425 15 0;#P newex 43 361 30 196617 t b b;#P newex 43 384 82 196617 s /mtrx/create;#B color 11;#P newex 43 405 110 196617 r /mtrx/matrix/built;#B color 11;#P button 43 488 15 6;#P comment 58 489 31 196617 build;#P newex 343 109 132 196617 sprintf read %st_spats.txt;#B color 5;#N coll t_spats 1;#P newobj 343 208 72 196617 coll t_spats 1;#B color 5;#P newex 193 109 135 196617 sprintf read %st_config.txt;#B color 5;#N coll t_config 1;#P newobj 193 208 75 196617 coll t_config 1;#B color 5;#P button 43 41 15 0;#P newex 43 59 44 196617 t config;#P newex 43 21 119 196617 r /tape/autoconfig/load;#B color 11;#P newex 43 109 144 196617 sprintf read %st_modules.txt;#B color 5;#N coll filepaths.txt;#P newobj 43 80 85 196617 coll filepaths.txt;#B color 5;#N coll t_modules 1;#P newobj 43 208 84 196617 coll t_modules 1;#B color 5;#P comment 874 311 64 196617 init modules;#P comment 841 497 92 196617 ˆ faire: editors;#P user dropfile 687 364 782 420 0;#P connect 6 0 8 0;#P connect 8 0 7 0;#P connect 7 0 4 0;#P connect 4 0 5 0;#P lcolor 7;#P connect 83 0 3 0;#P connect 5 0 3 0;#P connect 27 0 20 0;#P connect 20 0 61 0;#P connect 61 0 53 0;#P connect 53 0 17 0;#P connect 17 0 16 0;#P connect 15 0 18 0;#P connect 18 0 75 0;#P connect 75 0 19 0;#P connect 19 0 14 0;#P connect 14 0 40 0;#P connect 40 0 42 0;#P connect 42 0 76 0;#P connect 76 0 43 0;#P connect 43 0 45 0;#P connect 45 0 46 0;#P connect 46 0 48 0;#P connect 48 0 49 0;#P connect 49 0 56 0;#P connect 56 0 54 0;#P connect 54 0 68 0;#P connect 68 0 69 0;#P connect 90 0 84 0;#P connect 84 0 83 0;#P connect 52 0 61 1;#P connect 62 0 61 1;#P connect 61 0 66 0;#P connect 17 1 19 1;#P connect 25 0 64 0;#P connect 64 0 54 1;#P fasten 4 0 10 0 48 103 198 103;#P lcolor 7;#P connect 77 0 9 0;#P connect 10 0 9 0;#P connect 87 0 78 0;#P connect 78 0 77 0;#P connect 69 0 86 0;#P connect 86 0 52 0;#P connect 52 0 60 0;#P connect 26 0 21 0;#P connect 21 0 25 0;#P connect 21 0 22 0;#P connect 20 0 29 0;#P connect 52 1 51 0;#P connect 29 0 51 0;#P connect 22 0 28 0;#P connect 29 0 28 0;#P fasten 4 0 12 0 48 103 348 103;#P lcolor 7;#P connect 79 0 11 0;#P connect 12 0 11 0;#P connect 88 0 80 0;#P connect 80 0 79 0;#P connect 106 0 105 0;#P connect 112 0 106 0;#P connect 110 0 111 0;#P connect 114 0 110 0;#P connect 106 1 110 0;#P connect 103 0 104 0;#P connect 113 0 103 0;#P connect 111 0 103 0;#P connect 107 0 103 0;#P connect 105 0 103 0;#P connect 115 0 114 0;#P fasten 4 0 72 0 48 103 488 103;#P lcolor 7;#P connect 81 0 71 0;#P connect 72 0 71 0;#P connect 89 0 82 0;#P connect 82 0 81 0;#P connect 106 2 107 0;#P connect 92 0 96 0;#P connect 95 0 94 0;#P connect 94 0 93 0;#P connect 93 0 99 0;#P connect 71 2 73 0;#P connect 85 0 73 0;#P connect 73 0 74 0;#P connect 99 0 92 0;#P connect 97 0 92 0;#P connect 101 0 92 0;#P connect 100 0 92 0;#P connect 0 0 98 0;#P connect 99 0 98 0;#P connect 98 0 100 0;#P fasten 4 0 38 0 48 103 658 103;#P lcolor 7;#P connect 34 0 37 0;#P connect 38 0 37 0;#P connect 0 0 102 0;#P connect 35 0 39 0;#P connect 39 0 36 0;#P connect 36 0 33 0;#P connect 33 0 34 0;#P connect 24 0 23 0;#P connect 23 0 32 0;#P connect 32 0 58 0;#P connect 58 0 57 0;#P connect 30 0 31 0;#P pop;