max v2;#N vpatcher 156 60 1058 590;#P origin 0 6;#P window setfont "Sans Serif" 9.;#P newex 57 395 145 196617 t_fxmetersend $1;#B color 4;#P window linecount 2;#P comment 369 357 198 196617 no longer need to send to module_register. happens in build.;#P window setfont Times 9.;#P message 521 448 60 1310729 \; $1/freqrand 0;#P message 312 450 177 1310729 \; $1/freqrand 1 1000 4000 5000 8000 50 100;#P toggle 73 456 15 0;#P window linecount 1;#P newex 90 455 208 1310729 proc-randtransf $1/freqrand $1/freq 2;#B color 6;#P button 369 205 15 0;#P window setfont "Sans Serif" 9.;#P newex 353 391 133 196617 s $1/spat/init;#B color 11;#P newex 51 302 252 196617 makeparam $1/vol $1 f 1 0 2 1;#B color 13;#P newex 611 217 262 196617 makeswitch $1/sw $1 tape_switchstate;#B color 13;#P newex 498 109 250 196617 makeparam $1/q $1 f 0.707 0.5 25 1;#B color 13;#P newex 385 88 244 196617 makeparam $1/gain $1 f 0 -24 24 1;#B color 13;#P newex 229 67 282 196617 makeparam $1/freq $1 f 22050 20 22050 1;#B color 13;#P newex 152 44 245 196617 makeparam $1/gainenable $1 t 0 0 1;#B color 13;#P newex 43 21 233 196617 makeparam $1/type $1 s lowpass;#B color 13;#P window setfont Times 9.;#P window linecount 2;#P message 521 417 59 1310729 \; $1/volrand 0;#P message 312 419 171 1310729 \; $1/volrand 1 0.8 1. 3000 5000 50 100 1 4;#P toggle 73 425 15 0;#P window linecount 1;#P newex 90 424 208 1310729 proc-randtransf0 $1/volrand $1/vol 2;#B color 6;#P window setfont "Sans Serif" 9.;#P flonum 65 328 35 9 0. 2. 3 3 0 0 0 221 221 221 222 222 222 0 0 0;#P newex 12 327 49 196617 t_vol~ 2;#B color 6;#P window setfont Times 9.;#P newex 242 370 73 1310729 s $1/q;#B color 11;#P newex 156 370 82 1310729 s $1/vol;#B color 11;#P newex 242 349 41 1310729 r /filts/q;#B color 11;#P newex 156 349 50 1310729 r /filts/vol;#B color 11;#P window setfont "Sans Serif" 9.;#P window linecount 2;#P comment 102 356 50 196617 param groupings;#P comment 587 346 107 196617 patch by Tom Mays contact@tommays.net;#P window linecount 1;#P newex 611 262 31 196617 == 0;#P newex 12 269 79 196617 biquad~;#P window setfont Times 9.;#N out~ 1;#P newobj 12 359 33 1310729 out~ 1;#N in~ 1;#P newobj 12 184 29 1310729 in~ 1;#P window setfont "Sans Serif" 9.;#P newex 611 301 50 196617 thispoly~;#B color 5;#P toggle 611 243 15 0;#P message 611 282 45 196617 mute \$1;#P window setfont Times 9.;#P newex 473 201 85 1310729 s $1/init;#B color 11;#P newex 473 178 51 1310729 r /tape/init;#B color 11;#P window setfont "Sans Serif" 9.;#P newex 103 278 146 196617 s $1/coefs;#B color 11;#P toggle 152 94 15 0;#P message 152 115 64 196617 gainmode \$1;#P comment 243 255 27 196617 q;#P comment 187 255 27 196617 gain;#P flonum 174 238 54 9 0 0 0 3 0 0 0 221 221 221 222 222 222 0 0 0;#P flonum 230 238 54 9 0 0 0 3 0 0 0 221 221 221 222 222 222 0 0 0;#P flonum 118 238 54 9 0 0 0 3 0 0 0 221 221 221 222 222 222 0 0 0;#P window setfont Times 9.;#P newex 385 116 99 1310729 expr pow(10\\\,($f1/20));#P window setfont "Sans Serif" 9.;#P flonum 385 137 54 9 0 0 0 3 0 0 0 221 221 221 222 222 222 0 0 0;#P flonum 498 137 54 9 0 0 0 3 0 0 0 221 221 221 222 222 222 0 0 0;#P newex 369 184 89 196617 r $1/init;#B color 11;#P window linecount 10;#P message 369 228 123 196617 \; $1/volrand 0 \; $1/freqrand 0 \; $1/sw/init bang \; $1/type/init bang \; $1/gainenable/init bang \; $1/freq/init bang \; $1/gain/init bang \; $1/q/init bang \; $1/vol/init bang \;;#P window linecount 1;#P newex 12 240 79 196617 biquad~;#P newex 43 77 78 196617 prepend symbol;#P flonum 229 137 54 9 0 0 0 3 0 0 0 221 221 221 222 222 222 0 0 0;#P user umenu 43 124 70 196647 1 64 140 0;#X add display;#X add lowpass;#X add highpass;#X add bandpass;#X add bandstop;#X add peaknotch;#X add lowshelf;#X add highshelf;#X add resonant;#X add allpass;#P comment 50 110 75 196617 filter modes:;#P window setfont Helvetica 9.;#P user filtergraph~ 103 172 100 50 21 9 20. 22050. 0.0625 16. 0 1 1 0 0 1 1;#X frgb 170 170 170;#X brgb 210 210 210;#X rgb2 0 0 0;#X rgb3 130 130 130;#X rgb4 0 0 0;#X rgb5 118 121 166;#X rgb6 122 74 74;#X rgb7 255 22 22;#X linmarkers 5512.5 11025. 16537.5;#X logmarkers 50. 500. 5000.;#X nfilters 1;#X setfilter 0 1 0 0 0 19845. 1. 0.707 30. 19845. 0.0625 16. 0.5 25.;#X done;#P window setfont "Sans Serif" 9.;#P comment 131 255 27 196617 freq;#P connect 25 0 6 0;#P connect 6 0 27 0;#P connect 27 0 35 0;#P connect 35 0 26 0;#P fasten 1 0 6 1 108 232 30 232;#P fasten 1 0 27 1 108 262 30 262;#P connect 41 0 5 0;#P connect 5 0 3 0;#P connect 36 0 35 1;#P connect 47 0 35 1;#P fasten 35 0 55 0 17 353 62 353;#P connect 35 1 36 0;#P hidden connect 37 0 38 0;#P hidden connect 50 0 51 0;#P connect 3 1 1 0;#P fasten 17 0 1 0 157 149 108 149;#P connect 1 0 19 0;#P connect 1 1 12 0;#P connect 42 0 18 0;#P connect 18 0 17 0;#P connect 31 0 33 0;#P fasten 4 0 1 5 234 155 168 155;#P fasten 1 2 14 0 138 232 179 232;#P fasten 10 0 1 6 390 161 180 161;#P fasten 9 0 1 7 503 167 192 167;#P connect 43 0 4 0;#P fasten 1 3 13 0 153 227 235 227;#P connect 32 0 34 0;#P fasten 49 0 48 0 374 223 358 223;#P connect 8 0 49 0;#P connect 49 0 7 0;#P connect 44 0 11 0;#P connect 11 0 10 0;#P connect 20 0 21 0;#P connect 45 0 9 0;#P connect 46 0 23 0;#P connect 23 0 28 0;#P connect 28 0 22 0;#P connect 22 0 24 0;#P pop;