max v2;#N vpatcher 36 82 587 805;#P toggle 305 507 15 0;#P window setfont "Sans Serif" 9.;#P window linecount 1;#P newex 306 531 41 196617 sel 0 1;#P newex 350 564 44 196617 t 0 157;#P newex 299 564 44 196617 t 157 0;#P number 153 567 35 9 0 0 0 3 0 0 0 221 221 221 222 222 222 0 0 0;#P number 306 465 35 9 0 0 0 3 0 0 0 221 221 221 222 222 222 0 0 0;#P newex 306 441 40 196617 key;#P newex 306 485 38 196617 sel 32;#P number 57 250 35 9 0 2 3 3 0 0 0 221 221 221 222 222 222 0 0 0;#P message 57 268 50 196617 interp \$1;#P newex 41 111 31 196617 !/ 1.;#P newex 41 138 29 196617 * 1.;#P newex 41 86 27 196617 1.;#P flonum 184 134 35 9 0 0 0 3 0 0 0 221 221 221 222 222 222 0 0 0;#P newex 91 336 31 196617 != 0.;#P newex 153 156 27 196617 1.;#P button 125 62 15 0;#P user number~ 203 431 242 446 9 3 3 2 0. 0. 0 0. 20 0. 0 0 0 221 221 221 222 222 222 0 0 0;#P newex 114 574 31 196617 dac~;#P user gain~ 124 437 24 100 158 0 1.071519 7.94321 10.;#P message 92 380 14 196617 0;#P newex 91 358 32 196617 sel 1;#P newex 125 357 29 196617 sig~;#P newex 131 408 87 196617 groove~ sample1;#P flonum 306 352 81 9 0 0 0 3 0 0 0 221 221 221 222 222 222 0 0 0;#P number 319 303 60 9 0 0 0 3 0 0 0 221 221 221 222 222 222 0 0 0;#P newex 306 329 76 196617 peek~ sample1;#P button 216 32 29 0;#P newex 22 470 31 196617 dac~;#P user number~ 62 224 101 239 9 3 3 2 0. 0. 0 0. 20 0. 0 0 0 221 221 221 222 222 222 0 0 0;#P newex 208 187 30 196617 t b s;#P newex 204 256 62 196617 pack s 0. 0.;#P newex 144 281 62 196617 prepend set;#P message 45 167 44 196617 0 \, 1 \$1;#P number 254 76 35 9 0 0 0 3 0 0 0 221 221 221 222 222 222 0 0 0;#P flonum 276 230 81 9 0 0 0 3 0 0 0 221 221 221 222 222 222 0 0 0;#P newex 285 174 62 196617 prepend set;#P newex 255 151 40 196617 t s b s;#P newex 252 130 48 196617 unpack s;#P newex 270 197 105 196617 info~ sample1;#N coll tape_samplist 1;#P newobj 255 101 101 196617 coll tape_samplist 1;#B color 5;#P newex 43 197 32 196617 line~;#P user gain~ 32 333 24 100 158 0 1.071519 7.94321 10.;#P newex 28 297 80 196617 wave~ sample1;#P connect 1 0 15 0;#P connect 34 0 0 0;#P connect 2 0 0 0;#P connect 11 0 0 0;#P connect 40 1 1 0;#P connect 41 1 1 0;#P connect 0 0 1 0;#P connect 27 0 31 0;#P connect 31 0 33 0;#P connect 33 0 32 0;#P connect 10 0 2 0;#P connect 1 0 15 1;#P connect 32 0 10 0;#P connect 35 0 34 0;#P connect 30 0 31 1;#P connect 8 0 32 1;#P connect 2 0 14 0;#P connect 28 0 29 0;#P connect 29 0 22 0;#P connect 22 0 23 0;#P connect 24 0 25 0;#P connect 40 0 24 0;#P connect 41 0 24 0;#P connect 20 0 24 0;#P connect 16 0 27 0;#P connect 28 0 21 0;#P connect 7 0 20 0;#P connect 23 0 20 0;#P connect 21 0 20 0;#P connect 24 0 25 1;#P connect 12 0 11 0;#P connect 27 0 28 0;#P connect 24 1 39 0;#P connect 30 0 28 1;#P connect 20 1 26 0;#P connect 13 1 12 0;#P connect 6 0 13 0;#P connect 3 0 5 0;#P connect 16 0 9 0;#P connect 9 0 3 0;#P connect 5 0 6 0;#P connect 8 0 12 2;#P connect 7 0 4 0;#P connect 6 1 4 0;#P connect 4 6 8 0;#P connect 6 2 7 0;#P connect 42 0 40 0;#P connect 36 0 43 0;#P connect 7 0 17 0;#P connect 18 0 17 0;#P connect 17 0 19 0;#P connect 37 0 38 0;#P connect 38 0 36 0;#P connect 43 0 42 0;#P connect 42 1 41 0;#P pop;