max v2;#N vpatcher 460 179 1427 576;#P window setfont "Sans Serif" 9.;#P newex 92 238 248 196617 variedit $1/shutter $1;#B color 5;#P newex 92 219 67 196617 pvar shutter;#P toggle 221 28 31 0;#P objectname shutter;#P comment 189 18 49 196617 /shutter;#B frgb 0 0 200;#P message 82 284 22 196617 set;#P comment 13 46 37 196617 /alias;#B frgb 0 0 200;#P newex 18 319 56 196617 route text;#P newex 18 360 284 196617 variedit $1/shutter/alias $1;#B color 5;#P newex 18 300 55 196617 pvar alias;#P user textedit 43 42 181 61 32896 3 9;#P objectname alias;#P newex 17 199 56 196617 pvar print;#P newex 17 179 284 196617 vari $1/print;#B color 5;#P window linecount 4;#P comment 271 63 124 196617 hardwired! - arg 2 : color scheme choice (0=movie \, 1=tape \, 2=camtrk \, 3=common);#P window setfont "Sans Serif" 14.;#P window linecount 2;#P comment 105 413 138 196622 use in conjunction with "udpsender-";#P window setfont "Sans Serif" 9.;#P comment 105 465 107 196617 patch by Tom Mays contact@tommays.net;#P window setfont "Sans Serif" 12.;#P window linecount 1;#P comment 37 79 59 196620 udpsend;#B frgb 255 0 0;#P window setfont "Sans Serif" 9.;#P newex 17 140 70 196617 pvar activity;#P newex 17 119 145 196617 r $1/activity;#B color 5;#P message 751 441 37 196617 select;#P number 751 460 35 9 0 0 0 3 0 0 0 221 221 221 222 222 222 0 0 0;#P newex 699 421 62 196617 pvar port 2;#P message 699 402 37 196617 select;#P message 622 404 37 196617 select;#P message 545 404 37 196617 select;#P message 468 404 37 196617 select;#P window linecount 2;#P message 589 26 108 196617 \; $1/host 192.168.1.2;#P window linecount 1;#P newex 411 18 130 196617 r $1/host;#B color 11;#P newex 364 471 130 196617 s $1/host;#B color 11;#P newex 642 381 67 196617 pvar hostd 2;#P newex 565 381 67 196617 pvar hostc 2;#P newex 488 381 67 196617 pvar hostb 2;#P newex 642 342 62 196617 prepend set;#P newex 565 342 62 196617 prepend set;#P newex 488 342 62 196617 prepend set;#P newex 411 342 62 196617 prepend set;#P newex 411 381 67 196617 pvar hosta 2;#P number 115 23 30 9 0 255 67 3 0 0 0 221 221 221 222 222 222 0 0 0;#P objectname hostc;#P number 79 23 30 9 0 255 67 3 0 0 0 221 221 221 222 222 222 0 0 0;#P objectname hostb;#P number 151 23 30 9 0 255 67 3 0 0 0 221 221 221 222 222 222 0 0 0;#P objectname hostd;#P number 43 23 30 9 0 255 67 3 0 0 0 221 221 221 222 222 222 0 0 0;#P objectname hosta;#P newex 364 449 241 196617 sprintf %ld.%ld.%ld.%ld;#P newex 364 428 241 196617 bondo 4 1;#P newex 565 277 51 196617 zl ecils 1;#P newex 488 277 51 196617 zl ecils 1;#P newex 642 321 64 196617 fromsymbol;#P newex 642 300 40 196617 itoa;#P number 642 234 35 9 0 0 0 3 0 0 0 221 221 221 222 222 222 0 0 0;#P newex 642 213 27 196617 !-;#P number 520 233 35 9 0 0 0 3 0 0 0 221 221 221 222 222 222 0 0 0;#P newex 520 212 27 196617 !-;#P newex 411 277 51 196617 zl ecils 1;#P newex 565 321 64 196617 fromsymbol;#P newex 565 300 40 196617 itoa;#P number 659 183 35 9 0 0 0 3 0 0 0 221 221 221 222 222 222 0 0 0;#P newex 565 255 87 196617 zl slice;#P newex 488 321 64 196617 fromsymbol;#P newex 488 300 40 196617 itoa;#P number 537 183 35 9 0 0 0 3 0 0 0 221 221 221 222 222 222 0 0 0;#P newex 488 254 42 196617 zl slice;#P newex 411 321 64 196617 fromsymbol;#P newex 411 300 40 196617 itoa;#P newex 411 81 67 196617 t l l;#P newex 411 39 124 196617 t s b;#P number 443 183 35 9 0 0 0 3 0 0 0 221 221 221 222 222 222 0 0 0;#P newex 468 154 86 196617 unpack 0 0 0;#P message 525 108 70 196617 mode group 3;#P newex 411 253 42 196617 zl slice;#P newex 468 133 55 196617 zl group 3;#P newex 468 103 51 196617 zl sub 46;#P newex 411 60 40 196617 atoi;#P comment 14 25 35 196617 /host;#B frgb 0 0 200;#P number 49 5 57 9 0 99999 67 3 0 0 0 221 221 221 222 222 222 0 0 0;#P objectname port;#P comment 19 6 35 196617 /port;#B frgb 0 0 200;#P comment 271 41 124 196617 arg 1 : module name \;;#P comment 271 24 100 196617 panel = 256 X 62;#P newex 18 262 284 196617 variedit $1/port $1;#B color 5;#P newex 18 243 53 196617 pvar port;#P comment 271 7 118 196617 <- name = "background";#P window setfont Times 18.;#P comment 71 22 12 1310738 .;#P comment 143 22 12 1310738 .;#P comment 107 22 12 1310738 .;#P window setfont "Sans Serif" 9.;#P comment 82 200 108 196617 not saved in as param;#P bpatcher 0 1 256 62 0 0 bkgnd.mxt 0 $1 0;#P objectname background;#P connect 65 0 66 0;#P fasten 72 0 71 0 22 219 13 219 13 176 22 176;#P connect 71 0 72 0;#P fasten 7 0 6 0 23 281 15 281 15 241 23 241;#P connect 6 0 7 0;#P connect 78 0 74 0;#P fasten 75 0 74 0 23 384 15 384 15 298 23 298;#P connect 74 0 76 0;#P connect 76 0 75 0;#P fasten 82 0 81 0 97 257 89 257 89 217 97 217;#P connect 81 0 82 0;#P connect 48 0 41 0;#P connect 47 0 41 0;#P connect 41 0 42 0;#P connect 42 0 55 0;#P connect 56 0 20 0;#P connect 20 0 13 0;#P connect 13 0 21 0;#P connect 21 0 16 0;#P connect 16 0 32 0;#P connect 32 0 22 0;#P connect 22 0 23 0;#P connect 23 0 48 0;#P connect 48 0 47 0;#P connect 49 0 41 1;#P connect 52 0 41 1;#P connect 41 1 42 1;#P connect 18 0 19 0;#P connect 19 0 16 1;#P connect 21 1 14 0;#P connect 17 0 15 0;#P connect 14 0 15 0;#P connect 15 0 18 0;#P connect 47 1 58 0;#P connect 16 1 24 0;#P connect 24 0 39 0;#P connect 39 0 26 0;#P connect 26 0 27 0;#P connect 27 0 49 0;#P connect 58 0 52 0;#P connect 49 0 52 0;#P connect 50 0 41 2;#P connect 53 0 41 2;#P connect 41 2 42 2;#P connect 19 0 33 0;#P connect 33 0 34 0;#P connect 34 0 24 1;#P connect 20 1 17 0;#P connect 18 1 25 0;#P connect 25 0 33 1;#P connect 52 1 59 0;#P connect 24 1 28 0;#P connect 28 0 40 0;#P connect 40 0 30 0;#P connect 30 0 31 0;#P connect 31 0 50 0;#P connect 59 0 53 0;#P connect 50 0 53 0;#P connect 51 0 41 3;#P connect 54 0 41 3;#P connect 41 3 42 3;#P connect 53 1 60 0;#P connect 25 0 35 0;#P connect 35 0 36 0;#P connect 36 0 28 1;#P connect 28 1 37 0;#P connect 37 0 38 0;#P connect 38 0 51 0;#P connect 60 0 54 0;#P connect 51 0 54 0;#P connect 18 2 29 0;#P connect 29 0 35 1;#P connect 54 1 61 0;#P connect 61 0 62 0;#P connect 62 1 64 0;#P connect 64 0 63 0;#P pop;