max v2;#N vpatcher 49 46 812 664;#P window setfont "Sans Serif" 9.;#P window linecount 1;#P comment 8 152 30 196617 distr;#P comment 408 482 26 196617 max;#P comment 168 482 26 196617 sum;#P comment 278 370 24 196617 min;#P comment 231 393 24 196617 min;#P comment 13 393 30 196617 distr;#P comment 344 393 26 196617 max;#N comlet from sum;#P inlet 115 406 15 0;#N comlet from distrib;#P inlet 21 406 15 0;#N comlet from max;#P inlet 349 406 15 0;#N comlet from min;#P inlet 235 406 15 0;#N comlet to min;#P outlet 282 355 15 0;#N comlet to max;#P outlet 413 467 15 0;#N comlet to distrib;#P outlet 14 137 15 0;#N comlet to sum;#P outlet 174 467 15 0;#N comlet from del 8;#P inlet 678 406 15 0;#N comlet from del 7;#P inlet 648 406 15 0;#N comlet from del 6;#P inlet 618 406 15 0;#N comlet from del 5;#P inlet 588 406 15 0;#N comlet from del 4;#P inlet 558 406 15 0;#N comlet from del 3;#P inlet 528 406 15 0;#N comlet from del 2;#P inlet 498 406 15 0;#N comlet from del 1;#P inlet 468 406 15 0;#N comlet to del 1;#P outlet 468 231 15 0;#N comlet to del 2;#P outlet 499 231 15 0;#N comlet to del 3;#P outlet 530 231 15 0;#N comlet to del 4;#P outlet 561 231 15 0;#N comlet to del 5;#P outlet 592 231 15 0;#N comlet to del 6;#P outlet 623 231 15 0;#N comlet to del 7;#P outlet 654 231 15 0;#N comlet to del 8;#P outlet 685 231 15 0;#P window setfont Times 9.;#P newex 349 424 40 1310729 t b f;#P newex 349 467 59 1310729 pack 0. 0.;#P window linecount 2;#P message 349 522 83 1310729 $1 delay minmax \$1 \$2;#P window linecount 1;#P newex 507 154 157 1310729 unpack 0. 0. 0. 0. 0. 0. 0. 0.;#P message 685 198 31 1310729 set \$1;#P message 654 198 31 1310729 set \$1;#P message 592 198 31 1310729 set \$1;#P message 623 198 31 1310729 set \$1;#P message 561 198 31 1310729 set \$1;#P message 468 198 31 1310729 set \$1;#P message 499 198 31 1310729 set \$1;#P newex 46 50 289 1310729 route delay delays;#P newex 507 130 62 1310729 r $0-list;#B color 11;#P message 14 118 31 1310729 set \$1;#P message 174 445 31 1310729 set \$1;#P newex 115 467 56 1310729 pack 0. 0.;#P newex 360 500 83 1310729 s $0-minmax;#B color 11;#P newex 125 500 84 1310729 s $0-minsum;#B color 11;#P message 530 198 31 1310729 set \$1;#P window linecount 2;#P message 21 522 60 1310729 $1 delay distr \$1;#P window linecount 1;#P newex 32 500 72 1310729 s $0-distr;#B color 11;#P newex 21 424 18 1310729 t f;#P newex 398 424 63 1310729 r $0-max;#B color 11;#P newex 115 424 28 1310729 t b f;#P message 413 445 31 1310729 set \$1;#P message 282 337 31 1310729 set \$1;#P newex 161 424 65 1310729 r $0-sum;#B color 11;#P newex 148 316 64 1310729 r $0-min;#B color 11;#P window linecount 2;#P message 115 522 82 1310729 $1 delay minsum \$1 \$2;#P window linecount 1;#P newex 349 445 27 1310729 0.;#P newex 115 445 43 1310729 0.;#N comlet messages out;#P outlet 719 576 15 0;#P newex 512 61 88 1310729 route bang $1;#P newex 551 100 91 1310729 s $0-display;#B color 11;#P message 512 81 218 1310729 delay distr 0.5 \, delay minmax 51.13 98.07;#N comlet messages in;#P inlet 719 36 15 0;#P newex 245 500 83 1310729 s $0-minmax;#B color 11;#P window linecount 2;#P message 235 522 77 1310729 $1 delay minmax \$1;#P window linecount 1;#P newex 235 424 18 1310729 t f;#P newex 46 100 167 1310729 route distr minmax minsum count;#P newex 64 146 82 1310729 s $0-minmax;#B color 11;#P newex 85 127 82 1310729 s $0-minsum;#B color 11;#P newex 46 165 82 1310729 s $0-distr;#B color 11;#P message 558 445 89 1310729 $1 delay \$1 \$2;#P message 468 424 30 1310729 1 \$1;#P message 528 424 30 1310729 3 \$1;#P message 588 424 30 1310729 5 \$1;#P message 648 424 30 1310729 7 \$1;#P message 678 424 30 1310729 8 \$1;#P message 618 424 30 1310729 6 \$1;#P message 558 424 30 1310729 4 \$1;#P message 498 424 30 1310729 2 \$1;#P newex 46 29 95 1310729 r $0-display;#B color 11;#P newex 468 177 258 1310729 route 1 2 3 4 5 6 7 8;#P newex 93 284 73 1310729 s $0-list;#B color 11;#P newex 169 284 73 1310729 s $0-max;#B color 11;#P newex 245 284 78 1310729 s $0-sum;#B color 11;#P newex 11 226 65 1310729 unpack 0. 0.;#P newex 93 190 85 1310729 r $0-minmax;#B color 11;#P newex 119 234 60 1310729 unpack 0. 0.;#P newex 119 213 93 1310729 r $0-minsum;#B color 11;#P newex 11 262 78 1310729 s $0-min;#B color 11;#P newex 228 213 78 1310729 r $0-distr;#B color 11;#P newex 228 234 27 1310729 t b f;#P newex 93 262 239 1310729 delgen $2;#P window setfont "Sans Serif" 9.;#P comment 109 393 26 196617 sum;#P fasten 7 0 8 0 98 219 16 219;#P connect 6 0 4 0;#P connect 8 0 4 0;#P connect 26 0 52 0;#P connect 52 0 83 0;#P connect 88 0 44 0;#P connect 44 0 46 0;#P connect 44 0 45 0;#P connect 13 0 54 0;#P connect 54 0 26 0;#P connect 26 0 23 0;#P fasten 26 1 25 0 90 119 69 119;#P fasten 26 2 24 0 129 124 90 124;#P connect 7 0 1 0;#P connect 6 0 1 0;#P connect 2 0 1 0;#P connect 1 0 11 0;#P connect 89 0 42 0;#P connect 42 0 35 0;#P connect 35 0 50 0;#P connect 50 0 37 0;#P connect 5 0 6 0;#P connect 50 0 48 0;#P connect 38 0 35 1;#P connect 39 0 50 1;#P connect 42 1 50 1;#P connect 6 1 1 1;#P connect 1 1 10 0;#P connect 39 0 51 0;#P connect 51 0 82 0;#P connect 3 0 2 0;#P connect 86 0 27 0;#P connect 27 0 28 0;#P connect 2 1 1 2;#P connect 1 2 9 0;#P connect 27 0 29 0;#P fasten 38 0 40 0 153 335 287 335;#P connect 40 0 85 0;#P fasten 26 3 1 3 168 181 326 181;#P connect 87 0 65 0;#P connect 65 0 36 0;#P connect 36 0 64 0;#P connect 64 0 63 0;#P connect 64 0 49 0;#P fasten 38 0 36 1 153 385 371 385;#P connect 43 0 64 1;#P connect 65 1 64 1;#P connect 43 0 41 0;#P connect 41 0 84 0;#P connect 26 4 12 0;#P connect 12 0 56 0;#P connect 62 0 56 0;#P connect 56 0 73 0;#P connect 74 0 21 0;#P connect 75 0 14 0;#P connect 12 1 55 0;#P connect 62 1 55 0;#P connect 55 0 72 0;#P connect 53 0 62 0;#P connect 54 1 62 0;#P fasten 30 0 33 0 724 57 517 57;#P connect 33 0 31 0;#P connect 76 0 20 0;#P connect 12 2 47 0;#P connect 62 2 47 0;#P connect 47 0 71 0;#P connect 31 0 32 0;#P connect 33 1 32 0;#P connect 77 0 15 0;#P connect 14 0 22 0;#P connect 15 0 22 0;#P connect 16 0 22 0;#P connect 17 0 22 0;#P connect 18 0 22 0;#P connect 20 0 22 0;#P connect 19 0 22 0;#P connect 21 0 22 0;#P connect 12 3 57 0;#P connect 62 3 57 0;#P connect 57 0 70 0;#P connect 78 0 19 0;#P connect 12 4 59 0;#P connect 62 4 59 0;#P connect 59 0 69 0;#P connect 79 0 16 0;#P connect 12 5 58 0;#P connect 62 5 58 0;#P connect 58 0 68 0;#P connect 80 0 18 0;#P connect 12 6 60 0;#P connect 62 6 60 0;#P connect 60 0 67 0;#P connect 81 0 17 0;#P connect 12 7 61 0;#P connect 62 7 61 0;#P connect 61 0 66 0;#P fasten 22 0 34 0 563 569 724 569;#P fasten 28 0 34 0 240 569 724 569;#P fasten 37 0 34 0 120 569 724 569;#P fasten 46 0 34 0 26 569 724 569;#P fasten 63 0 34 0 354 569 724 569;#P pop;