max v2;#N vpatcher 201 44 1084 679;#P origin 25 -215;#P window setfont "Sans Serif" 9.;#P window linecount 1;#P newex 153 480 53 196617 *~ 0.707;#P newex 153 501 145 196617 t_fxmetersend $1;#B color 4;#P window linecount 2;#P comment 368 531 198 196617 no longer need to send to module_register. happens in build.;#P number 668 303 35 9 0 0 0 3 0 0 0 221 221 221 222 222 222 0 0 0;#P window linecount 1;#P newex 668 283 31 196617 == 1;#P newex 668 203 44 196617 del 500;#P newex 668 183 48 196617 loadbang;#P number 668 264 35 9 0 0 0 3 0 0 0 221 221 221 222 222 222 0 0 0;#P message 668 224 66 196617 $1;#P newex 668 243 50 196617 stripnum;#P toggle 259 293 15 0;#P message 259 337 36 196617 clear;#P message 259 311 59 196617 bypass \$1;#P newex 414 147 346 196617 makeparam $1/dry $1 f -3 -90 0 1;#B color 13;#P newex 367 127 411 196617 makeparam $1/tail $1 f -11 -90 0 1;#B color 13;#P newex 315 104 414 196617 makeparam $1/early $1 f -9 -90 0 1;#B color 13;#P newex 244 84 435 196617 makeparam $1/bandwidth $1 f 0.69 0 1 1;#B color 13;#P newex 176 65 441 196617 makeparam $1/revtime $1 f 2.3 0.1 120 1;#B color 13;#P newex 104 45 426 196617 makeparam $1/damping $1 f 0.41 0 1 1;#B color 13;#P newex 35 25 433 196617 makeparam $1/roomsize $1 f 50 1 300 0;#B color 13;#P message 414 187 42 196617 dry \$1;#P flonum 414 168 35 9 -90. 0. 3 3 0 0 0 221 221 221 222 222 222 0 0 0;#P message 367 166 40 196617 tail \$1;#P flonum 367 147 35 9 -90. 0. 3 3 0 0 0 221 221 221 222 222 222 0 0 0;#P flonum 176 86 35 9 0.1 360. 3 3 0 0 0 221 221 221 222 222 222 0 0 0;#P message 176 106 64 196617 revtime \$1;#P flonum 104 68 35 9 0. 1. 3 3 0 0 0 221 221 221 222 222 222 0 0 0;#P flonum 35 50 35 9 1. 300. 3 3 0 0 0 221 221 221 222 222 222 0 0 0;#P flonum 244 105 35 9 0. 1. 3 3 0 0 0 221 221 221 222 222 222 0 0 0;#P message 315 146 46 196617 early \$1;#P message 244 125 69 196617 bandwidth \$1;#P message 104 86 64 196617 damping \$1;#P message 35 68 65 196617 roomsize \$1;#P flonum 315 127 35 9 -90. 0. 3 3 0 0 0 221 221 221 222 222 222 0 0 0;#P button 368 379 15 0;#P newex 347 566 133 196617 s $1/spat/init;#B color 11;#P newex 149 423 164 196617 makeparam $1/vol $1 f 1 0 1 1;#B color 13;#P newex 389 236 262 196617 makeswitch $1/sw $1 tape_switchstate $2;#B color 13;#P newex 389 276 31 196617 == 0;#P newex 389 315 50 196617 thispoly~;#B color 5;#P toggle 389 257 15 0;#P message 389 296 45 196617 mute \$1;#P window setfont Times 9.;#P newex 17 264 40 1310729 t_dither;#P window setfont "Sans Serif" 9.;#P flonum 161 451 35 9 0. 2. 3 3 0 0 0 221 221 221 222 222 222 0 0 0;#P newex 17 450 143 196617 t_vol2~ 2;#B color 6;#P window linecount 10;#P message 368 401 194 196617 \; $1/sw/init bang \; $1/roomsize/init bang \; $1/damping/init bang \; $1/revtime/init bang \; $1/bandwidth/init bang \; $1/early/init bang \; $1/tail/init bang \; $1/dry/init bang \; $1/vol/init bang \;;#P window linecount 1;#P newex 368 357 148 196617 moduleinit $1;#B color 13;#N in~ 1;#P newobj 17 242 31 196617 in~ 1;#N out~ 2;#P newobj 83 484 35 196617 out~ 2;#N out~ 1;#P newobj 17 484 35 196617 out~ 1;#P window setfont "Sans Serif" 18.;#P newex 17 355 170 196626 gigaverb~ 300 15;#B color 6;#P window setfont "Sans Serif" 9.;#P window linecount 2;#P comment 27 538 157 196617 arg 1 : module prefix name \; arg 2 : init switch state (0 or 1);#P window linecount 6;#P comment 740 200 100 196617 if rev.1 \, then switch init value is 1 since rev.1 works as basic spat reverb for tape and must never be muted.;#P connect 5 0 10 0;#P connect 32 0 2 0;#P connect 30 0 2 0;#P connect 23 0 2 0;#P connect 22 0 2 0;#P connect 27 0 2 0;#P connect 21 0 2 0;#P connect 20 0 2 0;#P connect 10 0 2 0;#P connect 41 0 2 0;#P connect 40 0 2 0;#P connect 2 0 8 0;#P connect 8 0 3 0;#P connect 33 0 25 0;#P connect 25 0 20 0;#P fasten 2 1 8 1 182 409 88 409;#P connect 8 1 4 0;#P connect 34 0 26 0;#P connect 26 0 21 0;#P connect 16 0 8 2;#P connect 9 0 8 2;#P connect 8 1 52 0;#P connect 8 0 52 0;#P connect 52 0 51 0;#P connect 8 2 9 0;#P connect 35 0 28 0;#P connect 28 0 27 0;#P connect 36 0 24 0;#P connect 24 0 22 0;#P connect 42 0 40 0;#P connect 37 0 19 0;#P connect 19 0 23 0;#P fasten 18 0 17 0 373 397 352 397;#P connect 38 0 29 0;#P connect 29 0 30 0;#P connect 6 0 18 0;#P connect 18 0 7 0;#P fasten 49 0 15 0 673 324 659 324 659 227 394 227;#P connect 15 0 12 0;#P connect 12 0 14 0;#P connect 14 0 11 0;#P connect 11 0 13 0;#P connect 39 0 31 0;#P connect 31 0 32 0;#P connect 46 0 47 0;#P connect 47 0 44 0;#P connect 44 0 43 0;#P connect 43 0 45 0;#P connect 45 0 48 0;#P connect 48 0 49 0;#P pop;