max v2;#N vpatcher 299 44 1100 584;#P window setfont "Sans Serif" 9.;#P window linecount 1;#P newex 507 227 148 196617 moduleinit $1;#B color 13;#P number 296 442 35 9 0 0 0 3 0 0 0 221 221 221 222 222 222 0 0 0;#P newex 296 422 31 196617 == 1;#P newex 296 342 44 196617 del 500;#P newex 296 322 48 196617 loadbang;#P number 296 403 35 9 0 0 0 3 0 0 0 221 221 221 222 222 222 0 0 0;#P message 296 363 66 196617 $1;#P newex 296 382 50 196617 stripnum;#P window linecount 6;#P comment 364 339 100 196617 if rev.1 \, then switch init value is 1 since rev.1 works as basic spat reverb for tape and must never be muted.;#P button 507 249 15 0;#P window linecount 1;#P newex 486 488 133 196617 s $1/spat/init;#B color 11;#P newex 157 212 164 196617 makeparam $1/vol $1 f 1 0 1 1;#B color 13;#P newex 22 375 262 196617 makeswitch $1/sw $1 tape_switchstate $2;#B color 13;#P newex 79 54 164 196617 makeparam $1/invol $1 f 1 0 1 1;#B color 13;#P newex 22 415 31 196617 == 0;#P newex 22 454 50 196617 thispoly~;#B color 5;#P toggle 22 396 15 0;#P message 22 435 45 196617 mute \$1;#P window setfont Times 9.;#P newex 25 53 40 1310729 t_dither;#P window setfont "Sans Serif" 12.;#P newex 515 191 159 196620 t_revvar-convert $1;#B color 6;#P window setfont "Sans Serif" 9.;#P flonum 93 79 35 9 0. 2. 3 3 0 0 0 221 221 221 222 222 222 0 0 0;#P newex 25 78 64 196617 t_vol~ 2;#B color 6;#P flonum 169 240 35 9 0. 2. 3 3 0 0 0 221 221 221 222 222 222 0 0 0;#P newex 25 239 143 196617 t_vol2~ 2;#B color 6;#P window linecount 17;#P message 507 271 192 196617 \; $1/sw/init bang \; $1/paramdisp bang \; $1/invol/init bang \; $1/vol/init bang \; $1/gain/init bang \; $1/gainlo/init bang \; $1/gainmid/init bang \; $1/gainhi/init bang \; $1/time/init bang \; $1/timelo/init bang \; $1/timemid/init bang \; $1/timehi/init bang \; $1/delmin/init bang \; $1/delmax/init bang \; $1/inf/init bang \; module_register $1 \;;#P window linecount 1;#P newex 527 70 116 196617 r $1/display/open;#B color 11;#P message 527 90 28 196617 open;#P newex 527 108 45 196617 pcontrol;#P window setfont "Sans Serif" 14.;#P comment 576 108 168 196622 open to adjust params;#P window setfont "Sans Serif" 18.;#P newex 515 129 254 196626 t_hlsh_dec_del $1 0. 8;#B color 6;#P window setfont "Sans Serif" 9.;#P newex 515 47 88 196617 r $1/display;#B color 11;#P window setfont "Sans Serif" 12.;#P newex 515 164 175 196620 t_revparams-send $1;#B color 6;#P window setfont "Sans Serif" 9.;#N in~ 1;#P newobj 25 31 31 196617 in~ 1;#N out~ 2;#P newobj 91 273 35 196617 out~ 2;#N out~ 1;#P newobj 25 273 35 196617 out~ 1;#P newex 165 116 130 196617 r $1/param;#B color 11;#P window setfont "Sans Serif" 18.;#P newex 25 144 196 196626 t_spatverb~ 500;#B color 6;#P window setfont "Sans Serif" 9.;#P window linecount 2;#P comment 35 327 157 196617 arg 1 : module prefix name \; arg 2 : init switch state (0 or 1);#P fasten 36 0 25 0 301 464 289 464 289 370 27 370;#P connect 25 0 21 0;#P connect 21 0 23 0;#P connect 23 0 20 0;#P connect 20 0 22 0;#P connect 5 0 19 0;#P connect 19 0 16 0;#P connect 16 0 1 0;#P connect 1 0 14 0;#P connect 14 0 3 0;#P connect 17 0 16 1;#P connect 24 0 16 1;#P fasten 1 1 14 1 92 199 96 199;#P connect 14 1 4 0;#P connect 16 1 17 0;#P connect 15 0 14 2;#P connect 26 0 14 2;#P connect 14 2 15 0;#P fasten 2 0 1 1 170 138 216 138;#P connect 33 0 34 0;#P connect 34 0 31 0;#P connect 31 0 30 0;#P connect 30 0 32 0;#P connect 32 0 35 0;#P connect 35 0 36 0;#P fasten 28 0 27 0 512 267 491 267;#P connect 37 0 28 0;#P connect 28 0 13 0;#P connect 10 0 8 0;#P connect 7 0 8 0;#P connect 8 0 6 0;#P connect 12 0 11 0;#P connect 11 0 10 0;#P pop;