max v2;#N vpatcher 276 171 976 644;#P button 42 130 15 0;#N comlet params in;#P inlet 29 56 15 0;#P window setfont "Sans Serif" 10.;#P window linecount 8;#P comment 497 31 142 196618 dB level parameter shows in dBs in the display \, but both the reverb params input and the display input accept amplitude coefficient instead. (i.e. - to set a level of 0 dBs \, one must send 1.0. For -3 dBs \, 0.5 \, etc.);#P window linecount 1;#P comment 485 188 55 196618 dB value;#P flonum 541 187 35 10 0 0 0 3 0 0 0 221 221 221 222 222 222 0 0 0;#P flonum 541 225 35 10 0 0 0 3 0 0 0 221 221 221 222 222 222 0 0 0;#P window setfont "Lucida Grande" 9.;#P newex 541 203 125 67108873 expr pow(10\\\,($f1/10));#P newex 541 164 102 67108873 expr 10*log10($f1);#P window setfont "Sans Serif" 10.;#P window linecount 2;#P comment 435 146 106 196618 amplitude coefficient;#P comment 433 224 106 196618 amplitude coefficient;#P window setfont "Lucida Grande" 9.;#P window linecount 1;#P message 541 144 50 67108873 0.5;#P window setfont "Sans Serif" 10.;#P comment 205 78 88 196618 Init description :;#P window linecount 2;#P comment 224 94 155 196618 Initial bang sets default values.;#P window setfont "Lucida Grande" 9.;#P window linecount 1;#P newex 42 107 70 67108873 r $1/init;#P newex 29 77 74 67108873 route $1;#P button 10 139 15 0;#P window linecount 2;#P message 271 255 103 67108873 \; $1/display $1 \$1;#P window linecount 1;#P newex 186 247 80 67108873 prepend $1;#P newex 131 221 120 67108873 route bang float;#P button 131 245 15 0;#P newex 131 269 86 67108873 s $1/display;#P newex 29 221 97 67108873 s $1/param;#P window setfont "Sans Serif" 10.;#P comment 147 207 62 196618 for display;#P window setfont "Lucida Grande" 9.;#P newex 56 176 99 67108873 r $1/paramdisp;#P window setfont "Sans Serif" 10.;#P window linecount 10;#P comment 234 315 193 196618 tr0 (decay time \, 0.1s to 10s) \; trl (low freq decay time \, 0.1s to 10s) \; trm (mid freq decay time \, 0.1s to 10s) \; trh (high freq decay time \, 0.1s to 10s) \; fl (filter low value \, 16 to 16k hz) \; fh (filter high value \, 16 to 16k hz) \; abs (infinite - 0 = on \, 1 = off);#P window linecount 5;#P comment 438 314 234 196618 delay distr () \; delay minsum () \; delay minmax [min time in ms] [max time in ms] \; delay [delay # 1-6] [time in ms];#P window linecount 1;#P comment 425 302 98 196618 delay params :;#P comment 219 300 98 196618 decay params :;#P window linecount 6;#P comment 31 314 193 196618 float (dB level) \; Gl (low freq gain \, -30. to 30. db) \; Gm (mid freq gain \, -30. to 30. db) \; Gh (high freq gain \, -30. to 30. db) \; fl (filter low value \, 16 to 16k hz) \; fh (filter high value \, 16 to 16k hz);#P window linecount 1;#P comment 16 299 98 196618 hlshelf1_ params :;#P connect 28 0 15 0;#P connect 6 0 8 0;#P connect 29 0 8 0;#P connect 14 0 8 0;#P connect 15 0 8 0;#P connect 16 0 29 0;#P connect 6 0 11 0;#P connect 29 0 11 0;#P connect 11 0 10 0;#P connect 12 0 9 0;#P connect 10 0 9 0;#P connect 11 2 12 0;#P connect 11 1 13 0;#P connect 19 0 22 0;#P connect 22 0 25 0;#P connect 25 0 23 0;#P connect 23 0 24 0;#P pop;