max v2;#N vpatcher 21 368 1200 710;#P window setfont "Sans Serif" 9.;#P newex 790 149 305 196617 makeparam $1/delmax $1 f 83 0.1 500 0;#B color 13;#P newex 738 128 301 196617 makeparam $1/delmin $1 f 30 0.1 500 0;#B color 13;#P newex 1003 215 146 196617 s $1/delmax;#B color 11;#P newex 951 240 143 196617 s $1/delmin;#B color 11;#P newex 951 194 62 196617 unpack 0. 0.;#P newex 951 173 153 196617 r $1/delminmax;#B color 11;#P newex 660 105 248 196617 makeparam $1/inf $1 t 0 0 1;#B color 13;#P newex 576 86 297 196617 makeparam $1/timehi $1 f 0.8 0.1 99 0;#B color 13;#P newex 488 65 305 196617 makeparam $1/timemid $1 f 0.9 0.1 99 0;#B color 13;#P newex 411 44 291 196617 makeparam $1/timelo $1 f 1. 0.1 99 0;#B color 13;#P newex 334 25 295 196617 makeparam $1/time $1 f 1.55 0.1 99 0;#B color 13;#P newex 257 86 293 196617 makeparam $1/gainhi $1 f -4 -30 30 1;#B color 13;#P newex 169 65 301 196617 makeparam $1/gainmid $1 f -2 -30 30 1;#B color 13;#P newex 92 44 288 196617 makeparam $1/gainlo $1 f 0 -30 30 1;#B color 13;#P newex 15 25 286 196617 makeparam $1/gain $1 f 0 -127 18 1;#B color 13;#P flonum 790 194 47 9 0.1 500. 3 3 0 0 0 221 221 221 222 222 222 0 0 0;#P flonum 738 194 47 9 0.1 500. 3 3 0 0 0 221 221 221 222 222 222 0 0 0;#P newex 738 213 62 196617 bondo 2 1;#P newex 738 242 135 196617 sprintf delay minmax %f %f;#P newex 334 293 99 196617 s $1/paramdisp;#B color 11;#P newex 660 196 61 196617 prepend abs;#P newex 576 177 60 196617 prepend trh;#P newex 488 177 63 196617 prepend trm;#P newex 411 177 58 196617 prepend trl;#P newex 334 177 61 196617 prepend tr0;#P newex 257 177 55 196617 prepend Gh;#P newex 169 177 60 196617 prepend Gm;#P newex 92 177 55 196617 prepend Gl;#P newex 15 177 58 196617 prepend G0;#P newex 660 176 29 196617 == 0;#P toggle 660 158 15 0;#P flonum 576 158 47 9 0.1 99. 3 3 0 0 0 221 221 221 222 222 222 0 0 0;#P flonum 488 158 47 9 0.1 99. 3 3 0 0 0 221 221 221 222 222 222 0 0 0;#P flonum 411 158 47 9 0.1 99. 3 3 0 0 0 221 221 221 222 222 222 0 0 0;#P flonum 334 158 47 9 0.1 99. 3 3 0 0 0 221 221 221 222 222 222 0 0 0;#P flonum 257 158 47 9 -30. 30. 3 3 0 0 0 221 221 221 222 222 222 0 0 0;#P flonum 169 158 47 9 -30. 30. 3 3 0 0 0 221 221 221 222 222 222 0 0 0;#P flonum 92 158 47 9 -30. 30. 3 3 0 0 0 221 221 221 222 222 222 0 0 0;#P flonum 15 158 47 9 -127. 18. 3 3 0 0 0 221 221 221 222 222 222 0 0 0;#P connect 24 0 0 0;#P connect 0 0 10 0;#P connect 25 0 1 0;#P connect 1 0 11 0;#P connect 26 0 2 0;#P connect 2 0 12 0;#P connect 27 0 3 0;#P connect 3 0 13 0;#P connect 28 0 4 0;#P connect 4 0 14 0;#P connect 18 0 19 0;#P connect 17 0 19 0;#P connect 16 0 19 0;#P connect 15 0 19 0;#P connect 14 0 19 0;#P connect 13 0 19 0;#P connect 12 0 19 0;#P connect 11 0 19 0;#P connect 10 0 19 0;#P connect 20 0 19 0;#P connect 29 0 5 0;#P connect 5 0 15 0;#P connect 30 0 6 0;#P connect 6 0 16 0;#P connect 31 0 7 0;#P connect 7 0 17 0;#P connect 32 0 8 0;#P connect 8 0 9 0;#P connect 9 0 18 0;#P connect 37 0 22 0;#P connect 22 0 21 0;#P connect 21 0 20 0;#P connect 38 0 23 0;#P connect 23 0 21 1;#P fasten 21 1 20 1 795 236 868 236;#P connect 33 0 34 0;#P connect 34 0 35 0;#P connect 34 1 36 0;#P pop;