max v2;#N vpatcher 10 84 612 491;#P window setfont "Sans Serif" 9.;#P window linecount 1;#P comment 39 138 117 196617 bpat bkgnd = 256 X 124;#P comment 39 157 119 196617 bpat editor = 258 X 126;#P window setfont Times 9.;#P newex 284 314 56 1310729 pvar delmax;#B color 12;#P newex 374 314 191 1310729 variedit $1/delmax $1;#B color 11;#P newex 284 290 55 1310729 pvar delmin;#B color 12;#P newex 374 290 190 1310729 variedit $1/delmin $1;#B color 11;#P flonum 181 102 34 9 0.1 500. 3 20 0 0 0 221 221 221 222 222 222 0 0 0;#P objectname delmax;#P flonum 181 87 34 9 0.1 500. 3 20 0 0 0 221 221 221 222 222 222 0 0 0;#P objectname delmin;#P comment 145 103 40 1310729 /delmax;#P comment 145 88 39 1310729 /delmin;#P comment 38 106 22 1310729 /inf;#P toggle 78 105 15 0;#P objectname inf;#P newex 284 338 40 1310729 pvar inf;#B color 12;#P newex 374 338 175 1310729 variedit $1/inf $1;#B color 11;#P comment 145 69 38 1310729 /timehi;#P comment 145 54 44 1310729 /timemid;#P comment 145 39 38 1310729 /timelo;#P comment 142 24 30 1310729 /time;#P flonum 184 68 31 9 0.1 99. 3 20 0 0 0 221 221 221 222 222 222 0 0 0;#P objectname timehi;#P flonum 184 53 31 9 0.1 99. 3 20 0 0 0 221 221 221 222 222 222 0 0 0;#P objectname timemid;#P flonum 184 38 31 9 0.1 99. 3 20 0 0 0 221 221 221 222 222 222 0 0 0;#P objectname timelo;#P flonum 181 23 31 9 0.1 99. 3 20 0 0 0 221 221 221 222 222 222 0 0 0;#P objectname time;#P comment 37 87 38 1310729 /gainhi;#P comment 37 72 44 1310729 /gainmid;#P comment 37 57 38 1310729 /gainlo;#P flonum 78 86 31 9 -30. 30. 3 20 0 0 0 221 221 221 222 222 222 0 0 0;#P objectname gainhi;#P flonum 78 71 31 9 -30. 30. 3 20 0 0 0 221 221 221 222 222 222 0 0 0;#P objectname gainmid;#P flonum 78 56 31 9 -30. 30. 3 20 0 0 0 221 221 221 222 222 222 0 0 0;#P objectname gainlo;#P flonum 75 22 31 9 0. 1. 3 20 0 0 0 221 221 221 222 222 222 115 115 115;#P objectname vol;#P comment 35 23 24 1310729 /vol;#P flonum 75 7 31 9 0. 1. 3 20 0 0 0 221 221 221 222 222 222 115 115 115;#P objectname invol;#P comment 35 8 34 1310729 /invol;#P newex 284 266 54 1310729 pvar timehi;#B color 12;#P newex 374 266 189 1310729 variedit $1/timehi $1;#B color 11;#P newex 284 243 60 1310729 pvar timemid;#B color 12;#P newex 374 243 195 1310729 variedit $1/timemid $1;#B color 11;#P newex 284 220 54 1310729 pvar timelo;#B color 12;#P newex 374 220 189 1310729 variedit $1/timelo $1;#B color 11;#P newex 284 197 46 1310729 pvar time;#B color 12;#P newex 374 197 181 1310729 variedit $1/time $1;#B color 11;#P newex 284 174 54 1310729 pvar gainhi;#B color 12;#P newex 374 174 189 1310729 variedit $1/gainhi $1;#B color 11;#P newex 284 151 60 1310729 pvar gainmid;#B color 12;#P newex 374 151 195 1310729 variedit $1/gainmid $1;#B color 11;#P newex 284 128 54 1310729 pvar gainlo;#B color 12;#P newex 374 128 189 1310729 variedit $1/gainlo $1;#B color 11;#P newex 284 105 46 1310729 pvar gain;#B color 12;#P newex 374 105 181 1310729 variedit $1/gain $1;#B color 11;#P newex 284 82 42 1310729 pvar vol;#B color 12;#P newex 374 82 177 1310729 variedit $1/vol $1;#B color 11;#P newex 284 59 50 1310729 pvar invol;#B color 12;#P newex 374 59 185 1310729 variedit $1/invol $1;#B color 11;#P comment 35 42 30 1310729 /gain;#P flonum 75 41 31 9 -127. 18. 3 20 0 0 0 221 221 221 222 222 222 0 0 0;#P objectname gain;#P window linecount 2;#P comment 72 215 117 1310729 the bpat for the background must be named "background";#P window linecount 1;#P comment 72 198 82 1310729 arg 1 : prefix name \;;#P window setfont "Sans Serif" 9.;#N thispatcher;#Q end;#P newobj 0 201 61 196617 thispatcher;#P bpatcher 0 0 256 124 0 0 bkgnd2.mxt 0 $1 0 1;#P objectname background;#P connect 6 0 7 0;#P connect 8 0 9 0;#P connect 10 0 11 0;#P connect 12 0 13 0;#P connect 14 0 15 0;#P connect 16 0 17 0;#P connect 18 0 19 0;#P connect 20 0 21 0;#P connect 22 0 23 0;#P connect 24 0 25 0;#P connect 52 0 53 0;#P connect 54 0 55 0;#P connect 44 0 45 0;#P connect 7 0 6 0;#P connect 9 0 8 0;#P connect 11 0 10 0;#P connect 13 0 12 0;#P connect 15 0 14 0;#P connect 17 0 16 0;#P connect 19 0 18 0;#P connect 21 0 20 0;#P connect 23 0 22 0;#P connect 25 0 24 0;#P connect 53 0 52 0;#P connect 55 0 54 0;#P connect 45 0 44 0;#P pop;