max v2;#N vpatcher 176 80 565 331;#P origin 0 -25;#P window setfont "Sans Serif" 9.;#P window linecount 2;#P comment 184 27 157 196617 arg 1 : module prefix name \; arg 2 : init switch state (0 or 1);#P window linecount 1;#P newex 105 156 121 196617 send $1/out~;#B color 4;#P newex 105 133 27 196617 +~;#P window linecount 2;#P message 224 76 126 196617 \; $1-display_open bang;#P window linecount 1;#P newex 202 191 117 196617 send $1R/out~;#B color 4;#P newex 46 80 166 196617 poly~ t_rev_ 1 args $1 $2;#B color 6;#P newex 46 191 117 196617 send $1L/out~;#B color 4;#P newex 46 29 119 196617 receive~ $1/in~;#B color 4;#P connect 0 0 2 0;#P connect 2 0 1 0;#P connect 2 0 5 0;#P connect 5 0 6 0;#P connect 2 1 5 1;#P connect 2 1 3 0;#P pop;