max v2;#N vpatcher 314 119 668 395;#P window setfont Times 9.;#P newex 73 79 115 1310729 route tr0 trl trm trh abs delay;#N comlet out 4;#P outlet 166 208 15 0;#N comlet out 3;#P outlet 129 208 15 0;#N comlet out 2;#P outlet 92 208 15 0;#N comlet out 1;#P outlet 55 208 15 0;#N comlet control messages;#P inlet 199 38 15 0;#N comlet sig in to reverb;#P inlet 55 38 15 0;#P window setfont Helvetica 14.;#P newex 55 141 159 1376270 reverb8~ 500.;#P window setfont Helvetica 10.;#P newex 55 176 122 1376266 shuffle4~;#P newex 55 111 61 1376266 hlshelf1~ 1.;#P window setfont "Sans Serif" 9.;#P comment 218 39 85 196617 control messages;#P connect 4 0 1 0;#P connect 1 0 3 0;#P connect 3 0 2 0;#P connect 2 0 6 0;#P connect 5 0 10 0;#P connect 3 1 2 1;#P connect 2 1 7 0;#P connect 10 6 1 1;#P connect 3 2 2 2;#P connect 2 2 8 0;#P connect 3 3 2 3;#P connect 2 3 9 0;#P connect 5 0 3 8;#P pop;