max v2;#N vpatcher 10 59 507 441;#P window setfont "Sans Serif" 9.;#P window linecount 1;#P newex 54 65 32 196617 t 1 0;#P newex 11 65 32 196617 t 0 1;#P newex 11 43 95 196617 sel program run;#P newex 11 21 85 196617 r /modul8/mode;#B color 12;#P newex 324 200 29 196617 gate;#P window linecount 2;#P comment 55 323 262 196617 mode run : laucune info n'arrive de modul8 \, on se sert de tapemovie pour faire la manipulation;#P window linecount 1;#P newex 54 178 29 196617 gate;#P newex 155 252 184 196617 s $2;#B color 12;#P newex 73 93 390 196617 makeparam $2 $3 $4 $5 $6 $7 $8 $9;#B color 12;#P newex 92 134 186 196617 t b i;#P newex 155 200 166 196617 prepend set 1;#P inlet 92 112 15 0;#P newex 343 177 78 196617 r /frommodul8;#B color 12;#P newex 155 228 90 196617 OSC-route /layer;#P message 92 157 174 196617 $1;#P newex 92 200 62 196617 prepend set;#P newex 92 180 186 196617 sprintf /md8key/ctrl_layer_%s/%ld;#P newex 54 228 45 196617 prepend;#P outlet 54 252 15 0;#P window linecount 2;#P comment 55 284 262 196617 mode program : le makeparam ne sort pas d'info \, on se sert de modul8 et les états sont stockés dans tapemovie;#P connect 16 0 17 0;#P connect 17 0 18 0;#P connect 17 1 19 0;#P connect 19 0 13 0;#P connect 18 0 13 0;#P fasten 4 0 2 0 97 222 59 222;#P connect 13 0 2 0;#P connect 2 0 1 0;#P connect 11 0 13 1;#P connect 8 0 10 0;#P connect 10 0 5 0;#P connect 5 0 3 0;#P connect 3 0 4 0;#P connect 3 0 9 0;#P connect 9 0 6 0;#P fasten 15 0 6 0 329 222 160 222;#P connect 6 0 12 0;#P connect 10 1 3 1;#P connect 19 1 15 0;#P connect 18 1 15 0;#P connect 7 0 15 1;#P pop;