max v2;#N vpatcher 743 228 1520 577;#P window setfont "Sans Serif" 9.;#P window linecount 1;#P newex 54 273 65 196617 s /tomodul8;#P newex 178 248 93 196617 route symbol;#P newex 178 273 64 196617 fromsymbol;#P newex 178 302 260 196617 s $2;#B color 12;#P newex 159 202 88 196617 sprintf re %s(.+);#P newex 158 225 91 196617 regexp /layer(.+);#P newex 54 65 32 196617 t 1 0;#P newex 11 65 32 196617 t 0 1;#P newex 11 43 98 196617 sel program run;#P newex 11 21 85 196617 r /modul8/mode;#B color 12;#P newex 324 200 29 196617 gate;#P window linecount 2;#P comment 109 56 262 196617 mode run : laucune info n'arrive de modul8 \, on se sert de tapemovie pour faire la manipulation;#P window linecount 1;#P newex 54 178 29 196617 gate;#P newex 73 93 686 196617 makeparam $2 $3 $4 $5 $6 $7 $8 $9;#B color 12;#P newex 92 133 48 196617 loadbang;#P newex 343 177 78 196617 r /frommodul8;#B color 12;#P message 92 157 174 196617 $1;#P newex 92 202 62 196617 prepend set;#P newex 92 180 178 196617 sprintf /md8key/ctrl_master_%s/0;#P newex 54 228 45 196617 prepend;#P window linecount 2;#P comment 109 26 262 196617 mode program : le makeparam ne sort pas d'info \, on se sert de modul8 et les états sont stockés dans tapemovie;#P connect 11 0 12 0;#P connect 12 0 13 0;#P connect 12 1 14 0;#P connect 13 0 8 0;#P connect 14 0 8 0;#P connect 8 0 1 0;#P fasten 3 0 1 0 97 224 59 224;#P connect 1 0 20 0;#P connect 7 0 8 1;#P connect 6 0 4 0;#P connect 4 0 2 0;#P connect 2 0 3 0;#P fasten 10 0 15 0 329 221 163 221;#P connect 16 0 15 0;#P fasten 2 0 16 0 97 199 164 199;#P connect 15 1 19 0;#P connect 19 0 18 0;#P fasten 19 1 17 0 266 295 183 295;#P connect 18 0 17 0;#P connect 13 1 10 0;#P lcolor 1;#P connect 14 1 10 0;#P lcolor 1;#P connect 5 0 10 1;#P pop;