max v2;#N vpatcher 199 374 717 654;#P outlet 132 206 15 0;#P window setfont "Sans Serif" 9.;#P window linecount 1;#P newex 285 159 166 196617 sprintf set 1 /%ld;#P newex 132 183 99 196617 OSC-route /number;#P newex 36 51 240 196617 t b b i;#P newex 116 130 166 196617 sprintf set 1 /ctrl_layer_%s;#P inlet 36 29 15 0;#P newex 304 130 78 196617 r /frommodul8;#B color 12;#P newex 132 159 90 196617 OSC-route /layer;#P message 36 81 174 196617 $1;#P newex 219 80 57 196617 i;#P newex 36 126 62 196617 prepend set;#P newex 36 106 193 196617 sprintf /md8key/ctrl_layer_%s/%ld;#P newex 17 159 45 196617 prepend;#P inlet 17 29 15 0;#P outlet 17 206 15 0;#P fasten 4 0 2 0 41 149 22 149;#P connect 1 0 2 0;#P connect 2 0 0 0;#P connect 9 0 11 0;#P connect 11 0 6 0;#P connect 6 0 3 0;#P connect 3 0 4 0;#P connect 6 0 10 0;#P fasten 8 0 7 0 309 153 137 153;#P lcolor 2;#P connect 10 0 7 0;#P connect 7 0 12 0;#P fasten 13 0 12 0 290 179 137 179;#P connect 12 0 14 0;#P connect 11 1 5 0;#P connect 5 0 3 1;#P connect 11 2 5 1;#P fasten 5 0 13 0 224 102 290 102;#P lcolor 7;#P pop;