max v2;#N vpatcher 42 44 1054 994;#P window setfont "Sans Serif" 9.;#P window linecount 1;#N thispatcher;#Q end;#P hidden newobj 3 134 61 196617 thispatcher;#P comment 187 107 50 196617 /scratch;#B frgb 0 0 222;#P comment 187 95 63 196617 /entrypoint;#B frgb 0 0 222;#P newex 139 491 131 196617 varieditu /scratch $1;#P newex 49 491 68 196617 pvar scratch;#P user multiSlider 4 108 184 11 0. 1. 1 2936 47 0 0 2 0 0 0;#M frgb 0 0 0;#M brgb 255 255 255;#M rgb2 127 127 127;#M rgb3 0 0 0;#M rgb4 37 52 91;#M rgb5 74 105 182;#M rgb6 112 158 18;#M rgb7 149 211 110;#M rgb8 187 9 201;#M rgb9 224 62 37;#M rgb10 7 114 128;#P objectname scratch;#P newex 215 525 50 196617 deferlow;#P window setfont "Sans Serif" 12.;#N vpatcher 30 89 293 402;#P origin 0 -15;#P window setfont "Sans Serif" 9.;#P window linecount 0;#P newex 91 178 64 196617 sprintf %s_;#P window linecount 2;#P newex 50 138 39 196617 route symbol;#P window linecount 1;#P newex 50 87 46 196617 t dump l;#P newex 50 65 114 196617 sprintf refer %s/state;#P newex 50 254 47 196617 forward;#P window linecount 2;#P newex 91 210 42 196617 prepend send;#P newex 91 138 39 196617 route symbol;#P window linecount 1;#N coll /modul8.1/state;#P newobj 50 114 134 196617 coll;#B color 5;#P inlet 50 21 15 0;#P connect 0 0 5 0;#P connect 5 0 6 0;#P connect 6 1 1 0;#P connect 6 0 1 0;#P connect 1 0 7 0;#P fasten 3 0 4 0 96 246 55 246;#P connect 7 0 4 0;#P fasten 7 1 4 0 84 191 55 191;#P connect 1 1 2 0;#P connect 2 0 8 0;#P connect 8 0 3 0;#P pop;#P newobj 215 554 109 196620 p re-send values;#B color 7;#P window setfont "Sans Serif" 9.;#P newex 140 471 131 196617 varieditu /entrypoint $1;#P newex 50 471 81 196617 pvar entrypoint;#P user multiSlider 4 100 184 11 0. 1. 1 2936 47 0 0 2 0 0 0;#M frgb 0 0 0;#M brgb 255 255 255;#M rgb2 127 127 127;#M rgb3 0 0 0;#M rgb4 37 52 91;#M rgb5 74 105 182;#M rgb6 112 158 18;#M rgb7 149 211 110;#M rgb8 187 9 201;#M rgb9 224 62 37;#M rgb10 7 114 128;#P objectname entrypoint;#P window setfont "Sans Serif" 14.;#P user ubumenu 19 38 86 196622 0 0 1 1;#X add loop;#X add palindrome;#X add oneshot;#X prefix_set 0 0 <none> 0;#P objectname loop;#P window setfont "Sans Serif" 9.;#P newex 49 230 52 196617 pvar loop;#P newex 129 228 102 196617 varieditu /loop $1;#P comment 230 83 30 196617 /out;#B frgb 0 0 222;#P comment 188 83 48 196617 /loop/in;#B frgb 0 0 222;#P newex 152 431 40 196617 / 100.;#P newex 110 405 52 196617 unpack i i;#P newex 110 359 62 196617 prepend set;#P user rslider 4 82 181 14 100 1 0 0 1;#P objectname looppoints;#P newex 155 312 41 196617 * 100.;#P newex 110 315 41 196617 * 100.;#P newex 110 431 40 196617 / 100.;#P newex 110 338 39 196617 pak f f;#P newex 118 289 122 196617 varieditu /loop/out $1;#P newex 57 255 116 196617 varieditu /loop/in $1;#P comment 216 67 35 196617 /rate;#B frgb 0 0 222;#P user multiSlider 92 66 129 14 0. 1. 1 2936 47 0 0 2 0 0 0;#M frgb 0 0 0;#M brgb 255 255 255;#M rgb2 127 127 127;#M rgb3 0 0 0;#M rgb4 37 52 91;#M rgb5 74 105 182;#M rgb6 112 158 18;#M rgb7 149 211 110;#M rgb8 187 9 201;#M rgb9 224 62 37;#M rgb10 7 114 128;#P objectname rate;#P newex 129 203 103 196617 varieditu /rate $1;#P newex 49 203 53 196617 pvar rate;#P window setfont "Sans Serif" 10.;#P user ubumenu 5 64 30 196618 0 0 1 1;#X add ->;#X add <-;#X prefix_set 0 0 <none> 0;#P objectname direction;#P window setfont "Sans Serif" 9.;#P comment 32 67 56 196617 /direction;#B frgb 0 0 222;#P newex 129 177 124 196617 varieditu /direction $1;#P newex 49 177 74 196617 pvar direction;#P comment 219 43 39 196617 /name;#B frgb 0 0 222;#P window setfont "Sans Serif" 14.;#P number 189 37 34 14 0 127 35 3 0 0 0 221 221 221 222 222 222 0 0 0;#P objectname media;#P window setfont "Sans Serif" 9.;#P newex 129 151 107 196617 varieditu /name $1;#P newex 49 151 60 196617 pvar media;#P newex 360 252 57 196617 pvar alpha;#P newex 216 253 136 196617 varieditu /color/alpha $1;#P user multiSlider 17 18 238 17 0. 1. 1 2936 47 0 0 2 0 0 0;#M frgb 0 0 0;#M brgb 255 255 255;#M rgb2 127 127 127;#M rgb3 0 0 0;#M rgb4 37 52 91;#M rgb5 74 105 182;#M rgb6 112 158 18;#M rgb7 149 211 110;#M rgb8 187 9 201;#M rgb9 224 62 37;#M rgb10 7 114 128;#P objectname alpha;#P newex 110 380 79 196617 pvar looppoints;#P comment 105 43 34 196617 /loop;#B frgb 0 0 222;#P bpatcher 0 0 256 124 0 0 bkgndu.mxt 0 modul8 0 /tapemovie 2 1;#P objectname background;#P hidden connect 0 0 43 0;#P connect 7 0 6 0;#P connect 11 0 10 0;#P connect 15 2 14 0;#P connect 30 0 31 0;#P connect 40 2 39 0;#P connect 35 2 34 0;#P fasten 21 0 18 0 115 454 53 454 53 253 62 253;#P connect 18 1 22 0;#P connect 22 0 20 0;#P connect 20 0 25 0;#P connect 25 0 2 0;#P connect 2 0 26 0;#P connect 26 0 21 0;#P fasten 27 0 19 0 157 453 266 453 266 284 123 284;#P connect 0 1 18 2;#P connect 6 0 7 0;#P connect 10 0 11 0;#P connect 14 0 15 0;#P connect 31 0 30 0;#P connect 23 0 20 1;#P connect 39 0 40 0;#P connect 34 0 35 0;#P connect 26 1 27 0;#P connect 19 1 23 0;#P connect 0 1 30 2;#P connect 0 1 15 2;#P connect 0 1 19 2;#P connect 0 1 7 2;#P connect 0 1 11 2;#P connect 0 1 37 0;#P connect 37 0 36 0;#P connect 5 0 4 0;#P connect 0 1 35 2;#P connect 0 1 4 2;#P connect 4 2 5 0;#P pop;