max v2;#N vpatcher 0 44 652 380;#P origin -82 22;#P button 133 78 15 0;#P window setfont "Sans Serif" 9.;#P window linecount 1;#P newex 133 55 151 196617 moduleinit $1;#B color 13;#P newex 185 105 298 196617 makeswitch $1/sw $1 common_switchstate;#B color 5;#P newex 12 105 81 196617 excludeinstance;#B color 5;#P newex 12 31 48 196617 loadbang;#B color 14;#P message 12 55 99 196617 $1;#N qlist;#X append $1/name/init bang \; $1/direction/init bang \; $1/rate/init bang \; $1/loop/init bang \; $1/loop/in/init bang \; $1/loop/out/init bang \;;#X append $1/entrypoint/init bang \; $1/color/alpha/init bang \;;#P newobj 133 105 40 196617 qlist;#B color 5;#P newex 155 267 471 196617 makeparam-m8 movie_shuttle1 $1/entrypoint $1 f 0 0 1 1;#P newex 119 204 432 196617 makeparam-m8 movie_loopMode $1/loop $1 m 0 2;#P newex 143 246 475 196617 makeparam-m8 movie_positionOut $1/loop/out $1 f 1 0 1 1;#P newex 131 225 462 196617 makeparam-m8 movie_positionIn $1/loop/in $1 f 0 0 1 1;#P newex 107 183 475 196617 makeparam-m8 movie_speedFactor $1/rate $1 f 0.25 0 1 1;#P newex 95 162 460 196617 makeparam-m8 movie_playDirection $1/direction $1 t 0;#P newex 83 141 426 196617 makeparam-m8 media $1/name $1 i 129 0 135 1;#P newex 177 287 429 196617 makeparam-m8 alpha $1/color/alpha $1 f 0 0 1 1;#P connect 10 0 9 0;#P connect 9 0 11 0;#P connect 11 1 1 0;#P lcolor 1;#P connect 11 1 2 0;#P lcolor 1;#P connect 11 1 3 0;#P lcolor 1;#P connect 11 1 6 0;#P lcolor 1;#P connect 11 1 4 0;#P lcolor 1;#P connect 13 0 14 0;#P connect 14 0 8 0;#P connect 11 1 5 0;#P lcolor 1;#P connect 11 1 7 0;#P lcolor 1;#P connect 11 1 0 0;#P lcolor 1;#P pop;