max v2;#N vpatcher 541 395 1123 787;#P origin 13 0;#P window setfont Helvetica 9.;#P window linecount 1;#P comment 23 107 190 1376265 Tom Mays \, Olivier Pfeiffer & Renaud Rubiano;#B frgb 0 146 207;#P window linecount 2;#P comment 24 83 220 1376265 m_blurm is a part of movie \, a part of tapemovie. contact@tapemovie.org;#P window setfont Helvetica 24.;#P window linecount 1;#P comment 24 28 99 1376280 m_blurm;#B frgb 0 146 207;#P window setfont Helvetica 12.;#P window linecount 2;#P comment 24 55 256 1376268 $1 : prefix name \; $4 : name of the render associated \;;#P user panel 21 25 269 96;#X brgb 255 255 255;#X frgb 0 0 0;#X border 1;#X rounded 0;#X shadow 0;#X done;#P window setfont "Sans Serif" 9.;#P window linecount 1;#P newex 410 229 48 196617 loadbang;#P message 485 254 71 196617 $3;#P message 410 254 71 196617 $2;#P window setfont "Sans Serif" 14.;#P newex 53 301 224 196622 m_jeffect $1 $4;#B color 6;#P window setfont "Sans Serif" 9.;#P newex 316 323 60 196617 pack;#P message 316 343 54 196617 dim \$1 \$2;#P number 366 304 35 9 0 0 0 3 0 0 0 221 221 221 222 222 222 0 0 0;#P number 316 304 35 9 0 0 0 3 0 0 0 221 221 221 222 222 222 0 0 0;#P newex 366 283 29 196617 * 0.;#P newex 316 283 29 196617 * 0.;#P newex 53 240 165 196617 jit.matrix 4 char $2 $3 @thru 1;#B color 5;#P newex 53 266 213 196617 jit.matrix 4 char $2 $3 @thru 1 @interp 1;#B color 5;#P newex 53 132 277 196617 makeparam $1/feedback $1 f 0 0 1 1;#B color 11;#P flonum 53 154 35 9 0. 1. 3 3 0 0 0 221 221 221 222 222 222 0 0 0;#P message 53 174 50 196617 xfade \$1;#P newex 53 201 45 196617 jit.xfade;#B color 5;#P flonum 316 176 35 9 0. 1. 3 3 0 0 0 221 221 221 222 222 222 0 0 0;#P newex 316 197 152 196617 scalecurv 0. 1. 1 0.004 -0.25;#B color 6;#P flonum 316 220 35 9 0. 1. 3 3 0 0 0 221 221 221 222 222 222 0 0 0;#P newex 316 28 168 196617 moduleinit $1;#B color 11;#P window linecount 5;#P message 316 50 225 196617 \; $1/sw/init bang \; $1/source/init bang \; $1/amount/init bang \; $1/feedback/init bang \;;#P window linecount 1;#P newex 316 155 247 196617 makeparam $1/amount $1 f 0 0 1 1;#B color 11;#P connect 9 0 8 0;#P connect 8 0 7 0;#P connect 7 0 6 0;#P fasten 18 0 6 0 58 334 38 334 38 196 58 196;#P fasten 16 0 11 0 321 361 308 361 308 232 58 232;#P connect 6 0 11 0;#P connect 11 0 10 0;#P connect 10 0 18 0;#P fasten 10 0 6 1 58 289 286 289 286 193 93 193;#P connect 2 0 1 0;#P connect 0 0 5 0;#P connect 5 0 4 0;#P connect 4 0 3 0;#P connect 3 0 12 0;#P connect 12 0 14 0;#P connect 14 0 17 0;#P connect 17 0 16 0;#P connect 19 0 12 1;#P connect 3 0 13 0;#P connect 13 0 15 0;#P connect 15 0 17 1;#P connect 20 0 13 1;#P connect 21 0 19 0;#P connect 21 0 20 0;#P pop;