max v2;#N vpatcher 740 380 1128 658;#P window setfont "Sans Serif" 9.;#P window linecount 1;#P message 128 100 33 196617 clear;#P newex 15 211 223 196617 variedit $1/feedback $1;#B color 11;#P newex 15 189 73 196617 pvar feedback;#P comment 151 22 49 196617 feedback;#P flonum 153 35 35 9 0 0 0 3 0 0 0 221 221 221 222 222 222 0 0 0;#P objectname feedback;#P number 68 35 35 9 0 0 0 3 0 0 0 221 221 221 222 222 222 0 0 0;#P objectname amount;#P window setfont "Sans Serif" 12.;#P newex 195 100 133 196620 m_inputmenucpu $1;#B color 6;#P window setfont "Sans Serif" 9.;#P newex 195 77 77 196617 pvar texture 2;#P window setfont Times 10.;#P user ubumenu 63 1 59 1310730 0 0 1 0;#X prefix_set 0 0 <none> 0;#P objectname texture;#P window setfont "Sans Serif" 9.;#P comment 67 22 39 196617 amount;#P newex 15 153 222 196617 variedit $1/amount $1;#B color 11;#P newex 15 131 66 196617 pvar amount;#P bpatcher 0 0 256 62 0 0 bkgnd.mxt 0 $1;#P objectname background;#P fasten 2 0 1 0 20 175 11 175 11 125 20 125;#P connect 1 0 2 0;#P fasten 11 0 10 0 20 233 11 233 11 183 20 183;#P connect 10 0 11 0;#P connect 12 0 5 0;#P fasten 6 0 5 0 200 127 191 127 191 73 200 73;#P fasten 5 1 6 0 267 97 200 97;#P pop;