max v2;#N vpatcher 525 292 836 682;#P origin -18 -38;#P window setfont Times 9.;#P window linecount 1;#P comment 112 48 34 1310729 (satur);#B frgb 100 100 100;#P comment 70 48 47 1310729 (contrast);#B frgb 100 100 100;#P comment 28 48 40 1310729 (bright);#B frgb 100 100 100;#P comment 204 48 34 1310729 (b&w);#B frgb 100 100 100;#P comment 153 48 49 1310729 (negative);#B frgb 100 100 100;#P window setfont "Sans Serif" 9.;#P comment 206 20 29 196617 /bw;#B frgb 0 0 200;#P comment 163 20 31 196617 /neg;#B frgb 0 0 200;#P toggle 209 32 15 0;#P objectname bw;#P toggle 168 32 15 0;#P objectname neg;#P flonum 113 32 33 9 -500. 500. 35 3 0 0 0 221 221 221 222 222 222 0 0 0;#P objectname sa;#P flonum 72 32 33 9 -100. 100. 35 3 0 0 0 221 221 221 222 222 222 0 0 0;#P objectname co;#P flonum 31 32 33 9 0. 500. 35 3 0 0 0 221 221 221 222 222 222 0 0 0;#P objectname br;#P comment 113 20 24 196617 /sa;#B frgb 0 0 200;#P comment 72 20 24 196617 /co;#B frgb 0 0 200;#P comment 31 20 24 196617 /br;#B frgb 0 0 200;#P window setfont "Sans Serif" 12.;#P newex 111 112 133 196620 m_inputmenucpu $1;#B color 6;#P window setfont "Sans Serif" 9.;#P newex 111 89 77 196617 pvar texture 2;#P window setfont Times 10.;#P user ubumenu 63 1 59 1310730 0 0 1 0;#X add none;#X add /ch.1;#X add /ch.2;#X add /ch.3;#X add /ch.4;#X prefix_set 0 0 <none> 0;#P objectname texture;#P window setfont "Sans Serif" 9.;#P newex 27 296 194 196617 variedit $1/neg;#B color 12;#P newex 27 274 49 196617 pvar neg;#P newex 27 340 195 196617 variedit $1/bw;#B color 12;#P newex 27 318 47 196617 pvar bw;#P newex 27 252 194 196617 variedit $1/sa $1;#B color 12;#P newex 27 208 194 196617 variedit $1/co $1;#B color 12;#P newex 27 164 194 196617 variedit $1/br $1;#B color 12;#P newex 27 230 44 196617 pvar sa;#P newex 27 186 44 196617 pvar co;#P newex 27 142 44 196617 pvar br;#P bpatcher 0 0 256 62 0 0 bkgnd.mxt 0 $1 0;#P objectname background;#P connect 4 0 1 0;#P connect 1 0 4 0;#P connect 5 0 2 0;#P fasten 2 0 5 0 32 213 32 213;#P connect 6 0 3 0;#P connect 3 0 6 0;#P connect 10 0 9 0;#P connect 9 0 10 0;#P connect 8 0 7 0;#P connect 7 0 8 0;#P fasten 13 0 12 0 116 139 107 139 107 85 116 85;#P fasten 12 1 13 0 183 109 116 109;#P pop;