max v2;#N vpatcher 545 327 1187 780;#P origin 91 86;#P window setfont "Sans Serif" 14.;#P newex 53 393 224 196622 m_jeffect $1 $4;#B color 6;#P window setfont "Sans Serif" 9.;#N vpatcher 50 119 352 310;#P window setfont "Sans Serif" 9.;#P newex 63 50 122 196617 r $1/init;#P newex 50 112 199 196617 jit.matrix 1 char $2 $3;#P message 63 72 96 196617 setcell 0 0 val 255;#P newex 50 90 105 196617 jit.matrix 1 char 1 1;#P inlet 50 32 15 0;#P outlet 50 134 15 0;#P connect 1 0 2 0;#P connect 3 0 2 0;#P connect 2 0 4 0;#P connect 4 0 0 0;#P connect 5 0 3 0;#P pop;#P newobj 83 245 66 196617 p bogusmtrx;#B color 6;#P newex 66 221 27 196617 t l b;#P newex 83 339 66 196617 jit.unpack;#P newex 97 371 219 196617 jit.pack;#P newex 151 340 71 196617 jit.unpack;#P newex 254 155 27 196617 + 0.;#P newex 228 134 27 196617 + 0.;#P newex 202 113 27 196617 + 0.;#P newex 176 93 27 196617 + 0.;#P newex 421 272 115 196617 moduleinit $1;#B color 11;#P window linecount 7;#P message 421 301 177 196617 \; $1/sw/init bang \; $1/source/init bang \; $1/left/init bang \; $1/right/init bang \; $1/top/init bang \; $1/bot/init bang \;;#P window linecount 1;#P newex 254 95 296 196617 makeparam $1/bot $1 i $3 -1000 1000 1;#B color 12;#P newex 228 71 296 196617 makeparam $1/right $1 i $2 -1000 1000 1;#B color 12;#P newex 202 47 284 196617 makeparam $1/top $1 i 0 -1000 1000 1;#B color 12;#P newex 176 23 286 196617 makeparam $1/left $1 i 0 -1000 1000 1;#B color 12;#P newex 155 252 46 196617 t l clear;#P window linecount 3;#P newex 83 283 71 196617 jit.matrix @usesrcdim 1 @usedstdim 1;#B color 5;#P window linecount 1;#P message 165 201 175 196617 dstdimstart \$1 \$2 \, dstdimend \$3 \$4;#P message 176 225 177 196617 srcdimstart \$1 \$2 \, srcdimend \$3 \$4;#P newex 176 176 90 196617 pak 0 0 0 0;#P connect 16 0 20 0;#P fasten 20 0 18 0 58 422 45 422 45 209 71 209;#P connect 18 1 19 0;#P fasten 4 1 3 0 196 277 88 277;#P fasten 4 0 3 0 160 277 88 277;#P connect 19 0 3 0;#P connect 3 0 17 0;#P connect 17 1 16 0;#P fasten 18 0 15 0 71 331 156 331;#P lcolor 15;#P fasten 2 0 4 0 170 224 160 224;#P lcolor 1;#P fasten 1 0 4 0 181 246 160 246;#P lcolor 2;#P fasten 0 0 2 0 181 195 170 195;#P lcolor 1;#P connect 15 1 16 1;#P connect 5 0 11 0;#P connect 11 0 0 0;#P fasten 0 0 1 0 181 208 181 208;#P lcolor 2;#P connect 6 0 12 0;#P connect 12 0 0 1;#P connect 7 0 13 0;#P connect 13 0 0 2;#P fasten 15 2 16 2 186 366 240 366;#P connect 8 0 14 0;#P connect 14 0 0 3;#P fasten 15 3 16 3 201 361 309 361;#P connect 10 0 9 0;#P pop;