max v2;#N vpatcher 96 428 724 803;#P window setfont "Sans Serif" 12.;#P window linecount 1;#P newex 404 184 133 196620 m_inputmenucpu $1;#B color 6;#P window setfont "Sans Serif" 9.;#P newex 404 161 77 196617 pvar texture 2;#P window setfont Times 10.;#P user ubumenu 63 1 59 1310730 0 0 1 0;#X add none;#X add /ch.1;#X add /ch.2;#X add /ch.3;#X add /ch.4;#X prefix_set 0 0 <none> 0;#P objectname texture;#P window setfont "Sans Serif" 9.;#P newex 132 289 208 196617 variedit $1/bot $1;#P newex 132 264 48 196617 pvar bot;#P newex 132 233 201 196617 variedit $1/top $1;#P newex 132 208 48 196617 pvar top;#P newex 132 177 209 196617 variedit $1/right $1;#P newex 132 152 56 196617 pvar right;#P newex 132 121 208 196617 variedit $1/left $1;#P newex 132 96 50 196617 pvar left;#P number 134 33 35 9 0 1024 3 3 0 0 0 221 221 221 222 222 222 0 0 0;#P objectname bot;#P comment 101 35 38 196617 /bot;#P number 134 17 35 9 0 1024 3 3 0 0 0 221 221 221 222 222 222 0 0 0;#P objectname top;#P comment 101 19 32 196617 /top;#P number 201 23 35 9 0 1024 3 3 0 0 0 221 221 221 222 222 222 0 0 0;#P objectname right;#P comment 168 25 38 196617 /right;#P number 65 24 35 9 0 1024 3 3 0 0 0 221 221 221 222 222 222 0 0 0;#P objectname left;#P comment 32 26 32 196617 /left;#P bpatcher 0 0 256 62 0 0 bkgnd.mxt 0 $1;#P objectname background;#P connect 10 0 9 0;#P connect 9 0 10 0;#P connect 12 0 11 0;#P connect 11 0 12 0;#P connect 14 0 13 0;#P connect 13 0 14 0;#P connect 16 0 15 0;#P connect 15 0 16 0;#P fasten 19 0 18 0 409 211 400 211 400 157 409 157;#P fasten 18 1 19 0 476 181 409 181;#P pop;