max v2;#N vpatcher 27 46 660 547;#P window setfont "Sans Serif" 9.;#P window linecount 1;#P newex 24 377 268 196617 variedit $1/dim/y $1;#B color 12;#P newex 24 353 56 196617 pvar dimy;#P newex 24 325 268 196617 variedit $1/dim/x $1;#B color 12;#P newex 24 301 56 196617 pvar dimx;#P newex 24 277 257 196617 variedit $1/mix $1;#B color 12;#P newex 24 253 51 196617 pvar mix;#P number 51 103 35 9 0 0 0 3 0 0 0 221 221 221 222 222 222 0 0 0;#P objectname dimy;#P number 51 85 35 9 0 0 0 3 0 0 0 221 221 221 222 222 222 0 0 0;#P objectname dimx;#P comment 93 93 44 196617 /mix;#B frgb 0 0 222;#P flonum 126 92 35 9 0 0 0 3 0 0 0 221 221 221 222 222 222 0 0 0;#P objectname mix;#P comment 9 86 44 196617 /dim/x;#B frgb 0 0 222;#P comment 8 105 44 196617 /dim/y;#B frgb 0 0 222;#P newex 473 67 88 196617 pvar texture-2 2;#P window setfont Times 10.;#P user ubumenu 197 107 59 1310730 0 0 1 0;#X prefix_set 0 0 <none> 0;#P objectname texture-2;#P window setfont "Sans Serif" 9.;#P comment 148 109 52 196617 /source2;#B frgb 0 0 222;#P comment 185 22 40 196617 /filter;#B frgb 0 0 222;#P flonum 221 20 35 9 0 0 0 3 0 0 0 221 221 221 222 222 222 0 0 0;#P objectname filter;#P newex 304 150 58 196617 pvar filter;#P newex 304 174 286 196617 variedit $1/cell/filter $1;#B color 12;#P comment 188 40 35 196617 /coef;#B frgb 182 0 0;#P flonum 220 38 35 9 0 0 0 3 0 0 0 221 221 221 222 222 222 0 0 0;#P objectname coef;#P comment 170 58 53 196617 /slideup;#B frgb 0 0 222;#P flonum 220 56 35 9 0. 500. 3 3 0 0 0 221 221 221 222 222 222 0 0 0;#P objectname slideup;#P comment 157 76 66 196617 /slidedown;#B frgb 0 0 222;#P flonum 219 74 35 9 0. 500. 3 3 0 0 0 221 221 221 222 222 222 0 0 0;#P objectname slidedown;#P newex 304 199 53 196617 pvar coef;#P newex 304 249 65 196617 pvar slideup;#P newex 304 298 78 196617 pvar slidedown;#P newex 304 223 281 196617 variedit $1/cell/coef $1;#B color 12;#P newex 304 273 137 196617 variedit $1/cell/slideup $1;#B color 12;#P newex 304 322 150 196617 variedit $1/cell/slidedown $1;#B color 12;#P message 283 39 33 196617 clear;#P newex 24 223 256 196617 variedit $1/cell $1;#B color 12;#P newex 24 199 50 196617 pvar cell;#P comment 22 35 49 196617 /cell;#B frgb 0 0 222;#P number 24 48 35 9 0 0 0 3 0 0 0 221 221 221 222 222 222 0 0 0;#P objectname cell;#P number 24 18 35 9 0 0 0 3 0 0 0 221 221 221 222 222 222 0 0 0;#P objectname val;#P window setfont "Sans Serif" 12.;#P newex 283 89 277 196620 m_inputmenucpu2 $1;#B color 6;#P window setfont "Sans Serif" 9.;#P newex 283 67 77 196617 pvar texture 2;#P window setfont Times 10.;#P user ubumenu 63 2 59 1310730 0 0 1 0;#X prefix_set 0 0 <none> 0;#P objectname texture;#P window setfont "Sans Serif" 9.;#P comment 23 5 39 196617 /val;#B frgb 0 0 222;#P newex 24 175 254 196617 variedit $1/val $1;#B color 12;#P newex 24 151 48 196617 pvar val;#P bpatcher 0 1 256 124 0 0 bkgnd2.mxt 0 $1;#P objectname background;#P connect 2 0 1 0;#P connect 1 0 2 0;#P connect 11 0 10 0;#P connect 10 0 11 0;#P connect 39 0 38 0;#P connect 38 0 39 0;#P connect 41 0 40 0;#P connect 40 0 41 0;#P connect 43 0 42 0;#P connect 42 0 43 0;#P connect 12 0 5 0;#P fasten 6 0 5 0 288 117 279 117 279 63 288 63;#P fasten 5 1 6 0 355 87 288 87;#P connect 25 0 26 0;#P connect 26 0 25 0;#P connect 15 0 18 0;#P connect 18 0 15 0;#P connect 14 0 17 0;#P connect 17 0 14 0;#P connect 13 0 16 0;#P connect 16 0 13 0;#P fasten 12 0 31 0 288 60 478 60;#P fasten 6 1 31 0 555 118 567 118 567 60 478 60;#P connect 31 1 6 1;#P pop;