max v2;#N vpatcher 784 210 1335 783;#P origin -19 -138;#P window setfont "Sans Serif" 12.;#P window linecount 1;#P newex 43 99 133 196620 m_inputmenucpu $1;#B color 6;#P window setfont "Sans Serif" 9.;#P newex 43 76 77 196617 pvar texture 2;#P window setfont Times 10.;#P user ubumenu 63 0 59 1310730 0 0 1 0;#X add none;#X add /ch.1;#X add /ch.2;#X add /ch.3;#X add /ch.4;#X prefix_set 0 0 <none> 0;#P objectname texture;#P window setfont Times 9.;#P comment 220 34 42 1310729 /zoom/y;#P comment 13 34 43 1310729 /offset/x;#P comment 136 34 47 1310729 /anchor/y;#P comment 52 34 43 1310729 /offset/y;#P window setfont "Sans Serif" 9.;#P message 227 106 33 196617 set 1;#P newex 227 133 57 196617 pvar zoom;#P newex 227 82 51 196617 r $1/init;#P flonum 140 46 33 9 0 0 32 3 0 0 0 221 221 221 222 222 222 0 0 0;#P objectname anchory;#P flonum 101 46 33 9 0 0 32 3 0 0 0 221 221 221 222 222 222 0 0 0;#P objectname anchorx;#P window setfont Times 9.;#P comment 96 34 47 1310729 /anchor/x;#P window setfont "Sans Serif" 9.;#P flonum 56 45 33 9 -480. 480. 35 3 0 0 0 221 221 221 222 222 222 0 0 0;#P objectname offsety;#P flonum 18 46 33 9 -640. 640. 35 3 0 0 0 221 221 221 222 222 222 0 0 0;#P objectname offsetx;#P newex 26 524 289 196617 variedit $1/anchor/y $1;#B color 12;#P newex 26 502 70 196617 pvar anchory;#P newex 25 472 289 196617 variedit $1/anchor/x $1;#B color 12;#P newex 25 450 70 196617 pvar anchorx;#P newex 26 418 286 196617 variedit $1/offset/y $1;#B color 12;#P newex 26 396 67 196617 pvar offsety;#P newex 25 366 286 196617 variedit $1/offset/x $1;#B color 12;#P newex 25 344 67 196617 pvar offsetx;#P flonum 222 18 33 9 -10. 10. 35 3 0 0 0 221 221 221 222 222 222 0 0 0;#P objectname zoom;#P flonum 223 46 33 9 -10. 10. 35 3 0 0 0 221 221 221 222 222 222 0 0 0;#P objectname zoomy;#P newex 26 314 282 196617 variedit $1/zoom/y $1;#B color 12;#P newex 26 292 63 196617 pvar zoomy;#P newex 25 262 282 196617 variedit $1/zoom/x $1;#B color 12;#P newex 25 240 63 196617 pvar zoomx;#P number 171 16 35 9 0 4 35 3 0 0 0 221 221 221 222 222 222 0 0 0;#P objectname boundmode;#P window setfont Times 9.;#P comment 120 19 56 1310729 /boundmode;#P window setfont "Sans Serif" 9.;#P newex 27 213 281 196617 variedit $1/boundmode $1;#B color 12;#P newex 27 164 252 196617 variedit $1/theta $1;#B color 12;#P newex 27 191 82 196617 pvar boundmode;#P newex 27 142 53 196617 pvar rota;#P flonum 186 46 33 9 -10. 10. 35 3 0 0 0 221 221 221 222 222 222 0 0 0;#P objectname zoomx;#P flonum 87 17 33 9 -6.28 6.28 35 3 0 0 0 221 221 221 222 222 222 0 0 0;#P objectname rota;#P window setfont Times 9.;#P comment 185 34 42 1310729 /zoom/x;#P comment 60 18 32 1310729 /theta;#P bpatcher 0 0 256 62 0 0 bkgnd.mxt 0 $1 0;#P objectname background;#P fasten 12 0 11 0 30 280 30 284 21 284 21 237 30 237;#P connect 11 0 12 0;#P fasten 18 0 17 0 30 384 30 388 21 388 21 341 30 341;#P connect 17 0 18 0;#P fasten 22 0 21 0 30 490 30 494 21 494 21 447 30 447;#P connect 21 0 22 0;#P fasten 14 0 13 0 31 332 31 336 22 336 22 289 31 289;#P connect 13 0 14 0;#P fasten 20 0 19 0 31 436 31 440 22 440 22 393 31 393;#P connect 19 0 20 0;#P fasten 24 0 23 0 31 542 31 546 22 546 22 499 31 499;#P connect 23 0 24 0;#P fasten 7 0 5 0 32 182 32 186 23 186 23 139 32 139;#P connect 5 0 7 0;#P fasten 8 0 6 0 32 229 32 234 21 234 21 190 32 190;#P fasten 6 0 8 0 32 210 32 210;#P fasten 39 0 38 0 48 126 39 126 39 72 48 72;#P fasten 38 1 39 0 115 96 48 96;#P hidden connect 16 0 4 0;#P hidden connect 16 0 15 0;#P connect 30 0 32 0;#P connect 32 0 31 0;#P pop;