max v2;#N vpatcher 452 80 988 368;#P origin -17 -108;#P window setfont Helvetica 9.;#P window linecount 1;#P comment 32 243 190 1376265 Tom Mays \, Olivier Pfeiffer & Renaud Rubiano;#B frgb 0 146 207;#P window linecount 2;#P comment 33 219 220 1376265 m_slidem is a part of movie \, a part of tapemovie. contact@tapemovie.org;#P window setfont Helvetica 24.;#P window linecount 1;#P comment 33 164 109 1376280 m_slidem;#B frgb 0 146 207;#P window setfont Helvetica 12.;#P window linecount 2;#P comment 33 191 263 1376268 $1 : prefix name \; $2 : name of the render associated \;;#P user panel 30 161 269 96;#X brgb 255 255 255;#X frgb 0 0 0;#X border 1;#X rounded 0;#X shadow 0;#X done;#P window setfont "Sans Serif" 14.;#P window linecount 1;#P newex 26 126 185 196622 m_jeffect $1 $4;#B color 6;#P window setfont "Sans Serif" 9.;#P newex 26 102 45 196617 jit.slide;#P newex 141 50 345 196617 makeparam $1/slidedown $1 f 0 0 99999 1;#B color 11;#P newex 26 29 332 196617 makeparam $1/slideup $1 f 0 0 99999 1;#B color 11;#P message 141 73 75 196617 slide_down \$1;#P message 26 73 62 196617 slide_up \$1;#P newex 227 72 168 196617 moduleinit $1;#B color 11;#P window linecount 5;#P message 227 99 153 196617 \; $1/sw/init bang \; $1/source/init bang \; $1/slideup/init bang \; $1/slidedown/init bang \;;#P connect 4 0 2 0;#P fasten 3 0 6 0 146 97 31 97;#P fasten 2 0 6 0 31 97 31 97;#P fasten 7 0 6 0 31 158 21 158 21 93 31 93;#P connect 6 0 7 0;#P connect 5 0 3 0;#P connect 1 0 0 0;#P pop;