max v2;#N vpatcher 510 284 1028 691;#P origin 0 67;#P window setfont Helvetica 9.;#P window linecount 1;#P comment 23 333 190 1376265 Tom Mays \, Olivier Pfeiffer & Renaud Rubiano;#B frgb 0 146 207;#P window linecount 2;#P comment 24 309 220 1376265 m_wakem is a part of movie \, a part of tapemovie. contact@tapemovie.org;#P window setfont Helvetica 24.;#P window linecount 1;#P comment 24 254 119 1376280 m_wakem;#B frgb 0 146 207;#P window setfont Helvetica 12.;#P window linecount 2;#P comment 24 281 263 1376268 $1 : prefix name \; $2 : name of the render associated \;;#P user panel 21 251 269 96;#X brgb 255 255 255;#X frgb 0 0 0;#X border 1;#X rounded 0;#X shadow 0;#X done;#P window setfont "Sans Serif" 14.;#P window linecount 1;#P newex 23 207 224 196622 m_jeffect $1 $4;#B color 6;#P window setfont "Sans Serif" 9.;#P newex 189 108 249 196617 makeparam $1/normalize $1 t 0;#B color 11;#P message 189 130 65 196617 normalize \$1;#P newex 140 89 251 196617 makeparam $1/gain $1 f 1 0 50 1;#B color 11;#P message 140 130 41 196617 gain \$1;#P newex 91 70 256 196617 makeparam $1/bleed $1 f 0.15 -5 5 1;#B color 11;#P message 91 130 45 196617 bleed \$1;#P newex 57 51 272 196617 makeparam $1/feedback $1 f 0.6 0 1 1;#B color 11;#P newex 23 32 269 196617 makeparam $1/feedfwd $1 f 0.1 0 50 1;#B color 11;#P message 57 130 32 196617 fb \$1;#P message 23 130 31 196617 ff \$1;#P newex 23 185 45 196617 jit.wake;#B color 5;#P newex 302 134 168 196617 moduleinit $1;#B color 11;#P window linecount 8;#P message 302 154 165 196617 \; $1/sw/init bang \; $1/source/init bang \; $1/feedfwd/init bang \; $1/feedback/init bang \; $1/bleed/init bang \; $1/gain/init bang \; $1/normalize/init bang \;;#P connect 5 0 3 0;#P fasten 13 0 2 0 28 240 16 240 16 178 28 178;#P fasten 11 0 2 0 194 178 28 178;#P fasten 9 0 2 0 145 178 28 178;#P fasten 7 0 2 0 96 178 28 178;#P fasten 3 0 2 0 28 178 28 178;#P fasten 4 0 2 0 62 178 28 178;#P connect 2 0 13 0;#P connect 6 0 4 0;#P connect 8 0 7 0;#P connect 10 0 9 0;#P connect 12 0 11 0;#P connect 1 0 0 0;#P pop;