max v2;#N vpatcher 556 44 1347 763;#P origin 0 -9;#P window setfont "Sans Serif" 9.;#P window linecount 1;#P newex 550 362 30 196617 t b b;#P comment 35 622 204 196617 fade [soundfile name] [temps en ms];#P comment 35 603 284 196617 play [soundfile name] [amp en dB] [seek millisecondes (opt) ];#P comment 35 585 204 196617 cue [sflist name] [cue number] [amp en dB];#P newex 492 283 27 196617 del;#P number 492 263 55 9 0 0 0 3 0 0 0 221 221 221 222 222 222 0 0 0;#P newex 473 242 29 196617 t 0 i;#P newex 473 222 109 196617 i;#P newex 473 202 29 196617 gate;#P newex 492 151 30 196617 t b s;#P newex 492 95 90 196617 unpack s 0;#P newex 492 73 104 196617 r $1/fade;#B color 11;#P flonum 242 201 97 9 0 0 0 3 0 0 0 221 221 221 222 222 222 0 0 0;#P newex 242 178 79 196617 sfinfo~;#B color 7;#P newex 415 627 27 196617 / 1.;#P newex 341 589 47 196617 t b f;#P newex 341 628 27 196617 i;#P newex 341 670 126 196617 s $1/position;#B color 11;#P newex 341 648 84 196617 pack 0 0. 0.;#P newex 276 457 27 196617 *~;#N out~ 8;#P newobj 276 510 39 196617 out~ 8;#P newex 240 457 27 196617 *~;#N out~ 7;#P newobj 240 510 39 196617 out~ 7;#P user number~ 312 569 388 584 9 3 3 2 0. 0. 0 0. 20 0. 0 0 0 221 221 221 222 222 222 0 0 0;#P newex 595 616 121 196617 s $1/playing;#B color 11;#P newex 595 595 59 196617 pack 0 s 0.;#P newex 595 574 42 196617 i;#P newex 595 531 34 196617 t b s;#P newex 666 593 103 196617 s $1/stopping;#B color 11;#P newex 666 573 29 196617 gate;#P newex 685 552 47 196617 pack 0 s;#P newex 685 531 27 196617 i;#P newex 685 503 30 196617 t b s;#P newex 685 481 36 196617 zl reg;#P newex 92 215 68 196617 prepend seek;#P newex 92 191 126 196617 i;#P newex 92 155 50 196617 deferlow;#N vpatcher 10 59 276 296;#P window setfont "Sans Serif" 9.;#P newex 50 124 51 196617 tosymbol;#P newex 135 73 51 196617 tosymbol;#P newex 50 147 68 196617 prepend open;#P newex 50 73 62 196617 projectpath;#B color 6;#P newex 50 50 95 196617 t b s;#P newex 50 99 155 196617 sprintf %smedia/soundfiles/%s;#P inlet 50 30 15 0;#P outlet 50 169 15 0;#P connect 1 0 3 0;#P connect 3 0 4 0;#P connect 4 0 2 0;#P connect 2 0 7 0;#P connect 7 0 5 0;#P connect 5 0 0 0;#P connect 3 1 6 0;#P connect 6 0 2 1;#P pop;#P newobj 156 155 78 196617 p open_tape_sf;#B color 5;#P newex 92 125 74 196617 t b s;#P newex 92 96 127 196617 unpack s 0. 0;#P newex 293 96 21 196617 t 0;#P newex 92 75 231 196617 t l b;#P newex 512 180 59 196617 zl compare;#P newex 607 90 21 196617 t 0;#P newex 24 54 146 196617 route cue play;#P newex 429 490 47 196617 t b i;#P newex 429 525 27 196617 i;#P newex 429 567 126 196617 s $1/playingcue;#B color 11;#P newex 429 545 84 196617 pack 0 0 0.;#P newex 226 364 32 196617 line~;#P flonum 226 326 60 9 0 0 0 3 0 0 0 221 221 221 222 222 222 0 0 0;#P newex 226 300 34 196617 dbtoa;#P newex 24 271 166 196617 unpack s 0 0.;#P newex 348 412 62 196617 t_delvect 1;#B color 6;#P newex 204 457 27 196617 *~;#P newex 168 457 27 196617 *~;#P newex 132 457 27 196617 *~;#P newex 96 457 27 196617 *~;#P newex 60 457 27 196617 *~;#P newex 24 457 27 196617 *~;#N out~ 6;#P newobj 204 510 35 196617 out~ 6;#N out~ 5;#P newobj 168 510 35 196617 out~ 5;#N out~ 4;#P newobj 132 510 35 196617 out~ 4;#N out~ 3;#P newobj 96 510 35 196617 out~ 3;#P number 58 306 35 9 0 0 0 3 0 0 0 221 221 221 222 222 222 0 0 0;#P button 337 329 15 0;#P newex 349 304 138 196617 r $1/allnotesoff;#B color 11;#P newex 24 348 44 196617 pack s 0;#P newex 58 328 27 196617 + 1;#P newex 534 389 32 196617 t 1 0;#P newex 550 341 45 196617 loadbang;#N out~ 2;#P newobj 60 510 35 196617 out~ 2;#N out~ 1;#P newobj 24 510 35 196617 out~ 1;#N sfplay~  8 161280 1 ;#P newobj 24 391 339 196617 sfplay~ 8 161280 1;#B color 7;#P newex 337 347 29 196617 t b 0;#P newex 337 283 76 196617 r allnotesoff;#B color 11;#P newex 470 389 61 196617 t 0 1;#P message 470 420 45 196617 mute \$1;#N out 1;#P newobj 340 510 31 196617 out 1;#P newex 426 389 40 196617 t 0 1 b;#P toggle 521 450 15 0;#P newex 24 251 350 196617 t l b;#P number 521 498 35 9 0 0 0 3 0 0 0 221 221 221 222 222 222 0 0 0;#P newex 521 476 50 196617 thispoly~;#N in 1;#P newobj 24 21 25 196617 in 1;#P comment 46 239 186 196617 [sflist name] [cue number] [amp en dB];#P comment 90 546 100 196617 arg 1 : prefix name \;;#P connect 2 0 42 0;#P connect 42 0 5 0;#P connect 5 0 34 0;#P connect 34 0 19 0;#P fasten 52 0 13 0 97 376 29 376;#P fasten 12 1 13 0 361 386 29 386;#P connect 19 0 13 0;#P fasten 49 0 13 0 161 380 29 380;#P lcolor 15;#P connect 13 0 27 0;#P connect 27 0 14 0;#P connect 37 0 27 1;#P lcolor 7;#P connect 34 1 22 0;#P connect 22 0 18 0;#P connect 18 0 19 1;#P connect 13 1 28 0;#P connect 28 0 15 0;#P connect 37 0 28 1;#P lcolor 7;#P connect 42 1 45 0;#P connect 45 0 47 0;#P connect 47 0 48 0;#P connect 48 0 50 0;#P connect 50 0 51 0;#P connect 51 0 52 0;#P connect 13 2 29 0;#P connect 29 0 23 0;#P connect 37 0 29 1;#P lcolor 7;#P connect 13 3 30 0;#P connect 30 0 24 0;#P connect 37 0 30 1;#P lcolor 7;#P connect 48 1 49 0;#P connect 13 4 31 0;#P connect 31 0 25 0;#P connect 37 0 31 1;#P lcolor 7;#P connect 13 5 32 0;#P connect 32 0 26 0;#P connect 47 2 51 1;#P connect 46 0 51 1;#P connect 37 0 32 1;#P lcolor 7;#P fasten 47 1 35 0 155 121 231 121;#P connect 34 2 35 0;#P connect 35 0 36 0;#P connect 80 0 36 0;#P connect 36 0 37 0;#P connect 13 6 65 0;#P connect 65 0 64 0;#P connect 49 0 73 0;#P connect 73 3 74 0;#P connect 81 0 37 1;#P connect 37 0 65 1;#P lcolor 7;#P connect 13 7 67 0;#P connect 67 0 66 0;#P connect 45 1 46 0;#P connect 37 0 67 1;#P lcolor 7;#P connect 13 8 63 0;#P connect 11 0 21 0;#P connect 20 0 21 0;#P fasten 82 0 21 0 497 325 342 325;#P connect 21 0 12 0;#P connect 63 1 71 0;#P connect 71 0 70 0;#P connect 70 0 68 0;#P connect 68 0 69 0;#P connect 13 9 33 0;#P connect 4 0 70 1;#P connect 71 1 68 1;#P connect 71 1 72 0;#P connect 72 0 68 2;#P fasten 33 0 7 0 353 434 414 434 414 383 431 383;#P connect 12 0 7 0;#P connect 22 0 41 0;#P lcolor 1;#P connect 41 0 40 0;#P connect 40 0 38 0;#P connect 38 0 39 0;#P connect 74 0 72 1;#P lcolor 1;#P connect 4 0 40 1;#P connect 41 1 38 1;#P connect 5 1 10 0;#P connect 45 1 10 0;#P connect 10 0 9 0;#P fasten 7 1 9 0 446 415 475 415;#P connect 17 0 9 0;#P connect 44 0 78 0;#P connect 78 0 79 0;#P connect 79 0 80 0;#P connect 75 0 76 0;#P connect 76 0 77 0;#P connect 77 0 78 1;#P connect 80 1 81 0;#P connect 81 0 82 0;#P connect 34 2 38 2;#P lcolor 1;#P connect 77 1 44 0;#P connect 10 1 6 0;#P fasten 7 0 6 0 431 442 526 442;#P connect 17 1 6 0;#P connect 6 0 3 0;#P connect 9 0 3 0;#P fasten 86 1 3 0 575 470 526 470;#P connect 3 0 4 0;#P connect 86 0 17 0;#P connect 16 0 86 0;#P connect 48 1 44 1;#P lcolor 1;#P connect 43 0 44 1;#P connect 76 1 79 1;#P fasten 48 1 59 0 161 146 600 146;#P lcolor 5;#P connect 59 0 60 0;#P connect 60 0 61 0;#P connect 61 0 62 0;#P fasten 2 0 43 0 29 43 612 43;#P connect 59 1 61 1;#P connect 4 0 60 1;#P fasten 47 1 61 2 155 118 648 118;#P lcolor 6;#P connect 6 0 57 0;#P connect 57 0 58 0;#P connect 7 2 53 0;#P connect 53 0 54 0;#P connect 54 0 55 0;#P connect 55 0 56 0;#P connect 56 0 57 1;#P connect 4 0 55 1;#P connect 59 1 53 1;#P connect 54 1 56 1;#P pop;