max v2;#N vpatcher 275 84 1382 763;#P setbglock 1;#P window setfont Times 9.;#P number 279 353 92 9 0 0 0 20 0 0 0 221 221 221 222 222 222 0 0 0;#P user multiSlider 207 353 70 14 0. 1. 1 2680 15 0 0 2 0 0 0;#M frgb 0 0 0;#M brgb 255 255 255;#M rgb2 127 127 127;#M rgb3 0 0 0;#M rgb4 37 52 91;#M rgb5 74 105 182;#M rgb6 112 158 18;#M rgb7 149 211 110;#M rgb8 187 9 201;#M rgb9 224 62 37;#M rgb10 7 114 128;#P noclick;#P number 279 340 92 9 0 0 0 20 0 0 0 221 221 221 222 222 222 0 0 0;#P user multiSlider 207 340 70 14 0. 1. 1 2680 15 0 0 2 0 0 0;#M frgb 0 0 0;#M brgb 255 255 255;#M rgb2 127 127 127;#M rgb3 0 0 0;#M rgb4 37 52 91;#M rgb5 74 105 182;#M rgb6 112 158 18;#M rgb7 149 211 110;#M rgb8 187 9 201;#M rgb9 224 62 37;#M rgb10 7 114 128;#P noclick;#P number 279 327 92 9 0 0 0 20 0 0 0 221 221 221 222 222 222 0 0 0;#P user multiSlider 207 327 70 14 0. 1. 1 2680 15 0 0 2 0 0 0;#M frgb 0 0 0;#M brgb 255 255 255;#M rgb2 127 127 127;#M rgb3 0 0 0;#M rgb4 37 52 91;#M rgb5 74 105 182;#M rgb6 112 158 18;#M rgb7 149 211 110;#M rgb8 187 9 201;#M rgb9 224 62 37;#M rgb10 7 114 128;#P noclick;#P number 279 314 92 9 0 0 0 20 0 0 0 221 221 221 222 222 222 0 0 0;#P user multiSlider 207 314 70 14 0. 1. 1 2680 15 0 0 2 0 0 0;#M frgb 0 0 0;#M brgb 255 255 255;#M rgb2 127 127 127;#M rgb3 0 0 0;#M rgb4 37 52 91;#M rgb5 74 105 182;#M rgb6 112 158 18;#M rgb7 149 211 110;#M rgb8 187 9 201;#M rgb9 224 62 37;#M rgb10 7 114 128;#P noclick;#P number 279 301 92 9 0 0 0 20 0 0 0 221 221 221 222 222 222 0 0 0;#P user multiSlider 207 301 70 14 0. 1. 1 2680 15 0 0 2 0 0 0;#M frgb 0 0 0;#M brgb 255 255 255;#M rgb2 127 127 127;#M rgb3 0 0 0;#M rgb4 37 52 91;#M rgb5 74 105 182;#M rgb6 112 158 18;#M rgb7 149 211 110;#M rgb8 187 9 201;#M rgb9 224 62 37;#M rgb10 7 114 128;#P noclick;#P number 279 288 92 9 0 0 0 20 0 0 0 221 221 221 222 222 222 0 0 0;#P user multiSlider 207 288 70 14 0. 1. 1 2680 15 0 0 2 0 0 0;#M frgb 0 0 0;#M brgb 255 255 255;#M rgb2 127 127 127;#M rgb3 0 0 0;#M rgb4 37 52 91;#M rgb5 74 105 182;#M rgb6 112 158 18;#M rgb7 149 211 110;#M rgb8 187 9 201;#M rgb9 224 62 37;#M rgb10 7 114 128;#P noclick;#P number 279 275 92 9 0 0 0 20 0 0 0 221 221 221 222 222 222 0 0 0;#P user multiSlider 207 275 70 14 0. 1. 1 2680 15 0 0 2 0 0 0;#M frgb 0 0 0;#M brgb 255 255 255;#M rgb2 127 127 127;#M rgb3 0 0 0;#M rgb4 37 52 91;#M rgb5 74 105 182;#M rgb6 112 158 18;#M rgb7 149 211 110;#M rgb8 187 9 201;#M rgb9 224 62 37;#M rgb10 7 114 128;#P noclick;#P user textedit 31 353 205 367 32897 20 9;#P user textedit 31 340 205 354 32897 20 9;#P user textedit 31 327 205 341 32897 20 9;#P user textedit 31 314 205 328 32897 20 9;#P user textedit 31 301 205 315 32897 20 9;#P user textedit 31 288 205 302 32897 20 9;#P user textedit 31 275 205 289 32897 20 9;#P user textedit 31 262 205 276 32897 20 9;#P number 279 262 92 9 0 0 0 20 0 0 0 221 221 221 222 222 222 0 0 0;#P user multiSlider 207 262 70 14 0. 1. 1 2680 15 0 0 2 0 0 0;#M frgb 0 0 0;#M brgb 255 255 255;#M rgb2 127 127 127;#M rgb3 0 0 0;#M rgb4 37 52 91;#M rgb5 74 105 182;#M rgb6 112 158 18;#M rgb7 149 211 110;#M rgb8 187 9 201;#M rgb9 224 62 37;#M rgb10 7 114 128;#P noclick;#P bpatcher 468 257 28 100 0 0 t_fxmeter.mxt 0 $1/8;#P objectname filt.6[4];#P bpatcher 441 257 28 100 0 0 t_fxmeter.mxt 0 $1/7;#P objectname filt.6[5];#P bpatcher 414 257 28 100 0 0 t_fxmeter.mxt 0 $1/6;#P objectname filt.6[6];#P bpatcher 387 257 28 100 0 0 t_fxmeter.mxt 0 $1/5;#P objectname filt.6[7];#P bpatcher 468 158 28 100 0 0 t_fxmeter.mxt 0 $1/4;#P objectname filt.6[2];#P bpatcher 441 158 28 100 0 0 t_fxmeter.mxt 0 $1/3;#P objectname filt.6[3];#P bpatcher 414 158 28 100 0 0 t_fxmeter.mxt 0 $1/2;#P objectname filt.6[1];#P bpatcher 387 158 28 100 0 0 t_fxmeter.mxt 0 $1/1;#P objectname filt.6;#P bpatcher 256 554 256 62 0 0 t_spat4-short.edit.mxt 0 $1/8;#P bpatcher 0 554 256 62 0 0 t_spat4-short.edit.mxt 0 $1/7;#P bpatcher 256 493 256 62 0 0 t_spat4-short.edit.mxt 0 $1/6;#P bpatcher 0 493 256 62 0 0 t_spat4-short.edit.mxt 0 $1/5;#P bpatcher 256 432 256 62 0 0 t_spat4-short.edit.mxt 0 $1/4;#P bpatcher 0 432 256 62 0 0 t_spat4-short.edit.mxt 0 $1/3;#P bpatcher 256 371 256 62 0 0 t_spat4-short.edit.mxt 0 $1/2;#P bpatcher 0 371 256 62 0 0 t_spat4-short.edit.mxt 0 $1/1;#P window setfont "Sans Serif" 9.;#N vpatcher 57 112 1217 465;#P origin 49 0;#P window setfont "Sans Serif" 9.;#P window linecount 1;#P message 1083 113 23 196617 0 0;#P newex 1614 147 61 196617 unpack 0 0.;#P newex 1544 147 61 196617 unpack 0 0.;#P newex 1474 147 61 196617 unpack 0 0.;#P newex 1404 147 61 196617 unpack 0 0.;#P newex 1334 147 61 196617 unpack 0 0.;#P newex 1264 147 61 196617 unpack 0 0.;#P newex 1194 147 61 196617 unpack 0 0.;#P newex 1124 147 61 196617 unpack 0 0.;#P newex 1124 98 570 196617 route 9 10 11 12 13 14 15 16;#N comlet progress1;#P outlet 1175 169 15 0;#N comlet progress2;#P outlet 1245 169 15 0;#N comlet progress3;#P outlet 1315 169 15 0;#N comlet progress4;#P outlet 1385 169 15 0;#N comlet progress5;#P outlet 1455 169 15 0;#N comlet progress6;#P outlet 1525 169 15 0;#N comlet progress7;#P outlet 1595 169 15 0;#N comlet progress8;#P outlet 1665 169 15 0;#N comlet time1;#P outlet 1124 169 15 0;#N comlet time2;#P outlet 1194 169 15 0;#N comlet time3;#P outlet 1264 169 15 0;#N comlet time4;#P outlet 1334 169 15 0;#N comlet time5;#P outlet 1404 169 15 0;#N comlet time6;#P outlet 1474 169 15 0;#N comlet time7;#P outlet 1544 169 15 0;#N comlet time8;#P outlet 1614 169 15 0;#P newex 351 262 62 196617 prepend set;#P newex 337 244 62 196617 prepend set;#P newex 323 226 62 196617 prepend set;#P newex 309 208 62 196617 prepend set;#P newex 295 190 62 196617 prepend set;#P newex 281 172 62 196617 prepend set;#P newex 267 154 62 196617 prepend set;#P newex 253 136 62 196617 prepend set;#P outlet 351 284 15 0;#P outlet 337 266 15 0;#P outlet 323 248 15 0;#P outlet 309 230 15 0;#P outlet 295 212 15 0;#P outlet 281 194 15 0;#P outlet 267 176 15 0;#P outlet 253 158 15 0;#P window linecount 0;#P message 440 105 23 196617 0 0;#P newex 971 135 61 196617 unpack 0 0.;#P newex 901 135 61 196617 unpack 0 0.;#P newex 831 135 61 196617 unpack 0 0.;#P newex 761 135 61 196617 unpack 0 0.;#P newex 691 135 61 196617 unpack 0 0.;#P newex 621 135 61 196617 unpack 0 0.;#P newex 551 135 61 196617 unpack 0 0.;#P newex 239 262 62 196617 prepend set;#P newex 225 244 62 196617 prepend set;#P newex 211 226 62 196617 prepend set;#P newex 197 208 62 196617 prepend set;#P newex 183 190 62 196617 prepend set;#P newex 169 172 62 196617 prepend set;#P newex 155 154 62 196617 prepend set;#P newex 141 136 62 196617 prepend set;#P newex 1 255 102 196617 r /sf8to4p.1/busy;#P message 30 115 22 196617 set;#P newex 30 95 44 196617 del 100;#P newex 30 25 52 196617 r $1/init;#P newex 263 90 63 196617 append done;#P newex 263 70 74 196617 r $1/stopping;#P newex 141 111 247 196617 route 1 2 3 4 5 6 7 8 9 10 11 12 13 14 15 16;#P newex 141 89 69 196617 r $1/playing;#P newex 481 135 61 196617 unpack 0 0.;#P newex 481 98 570 196617 route 1 2 3 4 5 6 7 8;#P newex 481 76 72 196617 r $1/position;#P outlet 239 284 15 0;#P outlet 225 266 15 0;#P outlet 211 248 15 0;#P outlet 197 230 15 0;#P outlet 183 212 15 0;#P outlet 169 194 15 0;#P outlet 155 176 15 0;#N comlet busy;#P outlet 1 277 15 0;#P outlet 141 158 15 0;#N comlet progress1;#P outlet 532 157 15 0;#N comlet progress2;#P outlet 602 157 15 0;#N comlet progress3;#P outlet 672 157 15 0;#N comlet progress4;#P outlet 742 157 15 0;#N comlet progress5;#P outlet 812 157 15 0;#N comlet progress6;#P outlet 882 157 15 0;#N comlet progress7;#P outlet 952 157 15 0;#N comlet progress8;#P outlet 1022 157 15 0;#N comlet time1;#P outlet 481 157 15 0;#N comlet time2;#P outlet 551 157 15 0;#N comlet time3;#P outlet 621 157 15 0;#N comlet time4;#P outlet 691 157 15 0;#N comlet time5;#P outlet 761 157 15 0;#N comlet time6;#P outlet 831 157 15 0;#N comlet time7;#P outlet 901 157 15 0;#N comlet time8;#P outlet 971 157 15 0;#P connect 35 0 17 0;#P connect 32 0 33 0;#P connect 33 0 34 0;#P connect 31 0 29 0;#P connect 28 0 29 0;#P connect 29 0 36 0;#P connect 34 0 16 0;#P connect 36 0 16 0;#P connect 29 1 37 0;#P connect 34 0 18 0;#P connect 37 0 18 0;#P connect 29 2 38 0;#P connect 34 0 19 0;#P connect 38 0 19 0;#P connect 29 3 39 0;#P connect 34 0 20 0;#P connect 39 0 20 0;#P connect 29 4 40 0;#P connect 34 0 21 0;#P connect 40 0 21 0;#P connect 29 5 41 0;#P connect 34 0 22 0;#P connect 41 0 22 0;#P connect 29 6 42 0;#P connect 34 0 23 0;#P connect 42 0 23 0;#P connect 29 7 43 0;#P connect 43 0 24 0;#P connect 34 0 24 0;#P connect 29 8 60 0;#P connect 60 0 52 0;#P connect 30 0 31 0;#P connect 29 9 61 0;#P connect 61 0 53 0;#P connect 29 10 62 0;#P connect 62 0 54 0;#P connect 29 11 63 0;#P connect 63 0 55 0;#P connect 29 12 64 0;#P connect 64 0 56 0;#P connect 29 13 65 0;#P connect 65 0 57 0;#P connect 29 14 66 0;#P connect 66 0 58 0;#P connect 29 15 67 0;#P connect 67 0 59 0;#P fasten 32 0 51 0 35 56 445 56;#P connect 25 0 26 0;#P connect 51 0 27 0;#P connect 26 0 27 0;#P connect 27 0 7 0;#P connect 27 1 15 0;#P connect 51 0 44 0;#P connect 26 1 44 0;#P connect 44 0 6 0;#P connect 44 1 14 0;#P connect 51 0 45 0;#P connect 26 2 45 0;#P connect 45 0 5 0;#P connect 45 1 13 0;#P connect 51 0 46 0;#P connect 26 3 46 0;#P connect 46 0 4 0;#P connect 46 1 12 0;#P connect 51 0 47 0;#P connect 26 4 47 0;#P connect 47 0 3 0;#P connect 47 1 11 0;#P connect 51 0 48 0;#P connect 26 5 48 0;#P connect 48 0 2 0;#P connect 48 1 10 0;#P connect 51 0 49 0;#P connect 26 6 49 0;#P connect 49 0 1 0;#P connect 49 1 9 0;#P connect 26 7 50 0;#P connect 51 0 50 0;#P connect 50 0 0 0;#P connect 50 1 8 0;#P fasten 32 0 93 0 35 56 1088 56;#P connect 26 8 84 0;#P connect 93 0 85 0;#P connect 84 0 85 0;#P connect 85 0 75 0;#P connect 85 1 83 0;#P connect 93 0 86 0;#P connect 84 1 86 0;#P connect 86 0 74 0;#P connect 86 1 82 0;#P connect 93 0 87 0;#P connect 84 2 87 0;#P connect 87 0 73 0;#P connect 87 1 81 0;#P connect 93 0 88 0;#P connect 84 3 88 0;#P connect 88 0 72 0;#P connect 88 1 80 0;#P connect 93 0 89 0;#P connect 84 4 89 0;#P connect 89 0 71 0;#P connect 89 1 79 0;#P connect 93 0 90 0;#P connect 84 5 90 0;#P connect 90 0 70 0;#P connect 90 1 78 0;#P connect 93 0 91 0;#P connect 84 6 91 0;#P connect 91 0 69 0;#P connect 91 1 77 0;#P connect 93 0 92 0;#P connect 84 7 92 0;#P connect 92 0 68 0;#P connect 92 1 76 0;#P pop;#P hidden newobj 77 188 731 196617 p;#P window setfont Times 9.;#P number 279 249 92 9 0 0 0 20 0 0 0 221 221 221 222 222 222 0 0 0;#P user multiSlider 207 249 70 14 0. 1. 1 2680 15 0 0 2 0 0 0;#M frgb 0 0 0;#M brgb 255 255 255;#M rgb2 127 127 127;#M rgb3 0 0 0;#M rgb4 37 52 91;#M rgb5 74 105 182;#M rgb6 112 158 18;#M rgb7 149 211 110;#M rgb8 187 9 201;#M rgb9 224 62 37;#M rgb10 7 114 128;#P noclick;#P number 279 236 92 9 0 0 0 20 0 0 0 221 221 221 222 222 222 0 0 0;#P user multiSlider 207 236 70 14 0. 1. 1 2680 15 0 0 2 0 0 0;#M frgb 0 0 0;#M brgb 255 255 255;#M rgb2 127 127 127;#M rgb3 0 0 0;#M rgb4 37 52 91;#M rgb5 74 105 182;#M rgb6 112 158 18;#M rgb7 149 211 110;#M rgb8 187 9 201;#M rgb9 224 62 37;#M rgb10 7 114 128;#P noclick;#P number 279 223 92 9 0 0 0 20 0 0 0 221 221 221 222 222 222 0 0 0;#P user multiSlider 207 223 70 14 0. 1. 1 2680 15 0 0 2 0 0 0;#M frgb 0 0 0;#M brgb 255 255 255;#M rgb2 127 127 127;#M rgb3 0 0 0;#M rgb4 37 52 91;#M rgb5 74 105 182;#M rgb6 112 158 18;#M rgb7 149 211 110;#M rgb8 187 9 201;#M rgb9 224 62 37;#M rgb10 7 114 128;#P noclick;#P number 279 210 92 9 0 0 0 20 0 0 0 221 221 221 222 222 222 0 0 0;#P user multiSlider 207 210 70 14 0. 1. 1 2680 15 0 0 2 0 0 0;#M frgb 0 0 0;#M brgb 255 255 255;#M rgb2 127 127 127;#M rgb3 0 0 0;#M rgb4 37 52 91;#M rgb5 74 105 182;#M rgb6 112 158 18;#M rgb7 149 211 110;#M rgb8 187 9 201;#M rgb9 224 62 37;#M rgb10 7 114 128;#P noclick;#P number 279 197 92 9 0 0 0 20 0 0 0 221 221 221 222 222 222 0 0 0;#P user multiSlider 207 197 70 14 0. 1. 1 2680 15 0 0 2 0 0 0;#M frgb 0 0 0;#M brgb 255 255 255;#M rgb2 127 127 127;#M rgb3 0 0 0;#M rgb4 37 52 91;#M rgb5 74 105 182;#M rgb6 112 158 18;#M rgb7 149 211 110;#M rgb8 187 9 201;#M rgb9 224 62 37;#M rgb10 7 114 128;#P noclick;#P number 279 184 92 9 0 0 0 20 0 0 0 221 221 221 222 222 222 0 0 0;#P user multiSlider 207 184 70 14 0. 1. 1 2680 15 0 0 2 0 0 0;#M frgb 0 0 0;#M brgb 255 255 255;#M rgb2 127 127 127;#M rgb3 0 0 0;#M rgb4 37 52 91;#M rgb5 74 105 182;#M rgb6 112 158 18;#M rgb7 149 211 110;#M rgb8 187 9 201;#M rgb9 224 62 37;#M rgb10 7 114 128;#P noclick;#P number 279 171 92 9 0 0 0 20 0 0 0 221 221 221 222 222 222 0 0 0;#P user multiSlider 207 171 70 14 0. 1. 1 2680 15 0 0 2 0 0 0;#M frgb 0 0 0;#M brgb 255 255 255;#M rgb2 127 127 127;#M rgb3 0 0 0;#M rgb4 37 52 91;#M rgb5 74 105 182;#M rgb6 112 158 18;#M rgb7 149 211 110;#M rgb8 187 9 201;#M rgb9 224 62 37;#M rgb10 7 114 128;#P noclick;#P user textedit 31 249 205 263 32897 20 9;#P user textedit 31 236 205 250 32897 20 9;#P user textedit 31 223 205 237 32897 20 9;#P user textedit 31 210 205 224 32897 20 9;#P user textedit 31 197 205 211 32897 20 9;#P user textedit 31 184 205 198 32897 20 9;#P user textedit 31 171 205 185 32897 20 9;#P window setfont "Sans Serif" 10.;#P user textedit 15 156 31 368 32897 3 10 0 0 0 0 0 0 0 0 0 0 0 0 0 0 0 0;#P window setfont Times 9.;#P user textedit 31 158 205 172 32897 20 9;#P number 279 158 92 9 0 0 0 20 0 0 0 221 221 221 222 222 222 0 0 0;#P user multiSlider 207 158 70 14 0. 1. 1 2680 15 0 0 2 0 0 0;#M frgb 0 0 0;#M brgb 255 255 255;#M rgb2 127 127 127;#M rgb3 0 0 0;#M rgb4 37 52 91;#M rgb5 74 105 182;#M rgb6 112 158 18;#M rgb7 149 211 110;#M rgb8 187 9 201;#M rgb9 224 62 37;#M rgb10 7 114 128;#P noclick;#P button 824 66 15 0;#P window setfont "Sans Serif" 9.;#P message 824 84 33 196617 set 0;#P newex 824 46 150 196617 r $1/init;#B color 12;#P comment 236 69 43 196617 stop all;#P window linecount 2;#P message 229 81 57 196617 \; $1/play 0;#P window setfont Times 9.;#P window linecount 1;#P comment 385 121 97 1310729 connect to dacs and rev;#B frgb 132 132 132;#P button 370 120 15 0;#P window setfont "Sans Serif" 9.;#N vpatcher 20 74 296 462;#P window setfont "Sans Serif" 9.;#P newex 66 37 44 196617 del 100;#N comlet bang to connect;#P inlet 66 18 15 0;#P button 66 58 15 0;#P window linecount 1;#P newex 94 250 103 196617 sprintf %s.1 dac.1 0;#P newex 80 232 103 196617 sprintf %s.2 dac.2 0;#P newex 66 214 103 196617 sprintf %s.3 dac.3 0;#P newex 52 196 103 196617 sprintf %s.4 dac.4 0;#P newex 38 313 82 196617 prepend connect;#P newex 66 100 20 196617 t s;#P newex 38 178 104 196617 sprintf %s.5 rev.1 0;#N vpatcher 10 59 225 276;#P outlet 36 154 15 0;#P window setfont "Sans Serif" 9.;#P window linecount 1;#P newex 36 121 40 196617 itoa;#P window linecount 0;#P newex 36 95 49 196617 route 47;#P newex 36 67 40 196617 atoi;#P inlet 36 41 15 0;#P connect 0 0 1 0;#P connect 1 0 2 0;#P connect 2 1 3 0;#P connect 2 0 3 0;#P connect 3 0 4 0;#P pop;#P newobj 66 123 75 196617 p removeslash;#B color 6;#P window setfont Times 9.;#P message 66 80 134 1310729 $1;#P window setfont "Sans Serif" 9.;#P window linecount 0;#P newex 38 334 47 196617 s /mtrx;#B color 11;#P connect 2 0 3 0;#P connect 3 0 5 0;#P connect 9 0 5 0;#P connect 8 0 5 0;#P connect 7 0 5 0;#P connect 6 0 5 0;#P connect 5 0 0 0;#P connect 2 0 6 0;#P connect 11 0 12 0;#P connect 12 0 10 0;#P connect 10 0 1 0;#P connect 1 0 4 0;#P connect 4 0 2 0;#P connect 2 0 7 0;#P connect 2 0 8 0;#P connect 2 0 9 0;#P pop;#P newobj 582 161 93 196617 p connect_to_dacs;#B color 6;#P window linecount 4;#P comment 368 70 134 196617 The spats here are WITHIN the module. Click here to connect to dacs \, or go to mtrx and connect manually.;#P window linecount 1;#P newex 580 348 80 196617 prepend symbol;#P newex 712 308 221 196617 unpack s 0. 0;#P newex 795 268 29 196617 t l 0;#P message 982 278 22 196617 set;#P newex 762 246 43 196617 route 0;#P comment 30 19 278 196617 Plays 8 channel files and pans each channel within 4 ch spat;#P comment 143 34 282 196617 /play [soundfile name] [amp en dB] [seek millisecondes (opt)];#B frgb 0 0 200;#P window setfont Times 9.;#P newex 745 463 80 1310729 pvar openmessage;#P window setfont "Sans Serif" 9.;#P comment 78 142 149 196617 Open message to copy contents;#P button 64 141 15 0;#P objectname openmessage;#P comment 64 100 94 196617 Click to play sound;#P window linecount 0;#P message 64 112 303 196617;#P objectname messagebox;#P window linecount 1;#P message 918 455 115 196617 $1/play;#P newex 834 433 179 196617 t l b b;#P message 745 483 30 196617 open;#P message 1037 364 37 196617 set \\\;;#P comment 16 34 127 196617 Fabricate a play message:;#P window setfont Times 9.;#P comment 15 49 54 1310729 sound name;#B frgb 132 132 132;#P comment 22 83 46 1310729 seek time;#B frgb 132 132 132;#P window setfont "Sans Serif" 9.;#P newex 834 411 120 196617 zl slice 2;#P newex 944 389 27 196617 + 2;#P newex 944 367 27 196617 > 0;#P window setfont Times 9.;#P comment 19 66 49 1310729 amp en dB;#B frgb 132 132 132;#P window setfont "Sans Serif" 9.;#P flonum 64 65 38 9 -127. 18. 3 3 0 0 0 221 221 221 222 222 222 0 0 0;#P objectname db;#P number 64 82 54 9 0 1215752192 3 3 0 0 0 221 221 221 222 222 222 0 0 0;#P objectname seek;#P newex 834 478 78 196617 prepend append;#P newex 834 389 99 196617 pak s 0. 0;#P window setfont Times 9.;#P newex 834 504 76 1310729 pvar messagebox;#P newex 922 344 46 1310729 pvar seek;#P newex 878 344 38 1310729 pvar db;#P window setfont "Sans Serif" 9.;#P newex 762 224 150 196617 r $1/play;#B color 12;#P comment 535 546 173 196617 fade [soundfile name] [temps en ms];#P comment 535 530 287 196617 /play [soundfile name] [amp en dB] [seek millisecondes (opt)];#P newex 834 572 120 196617 s $1/soundmenu/update;#B color 12;#P button 834 554 15 0;#P window setfont Times 9.;#P newex 834 534 95 1310729 pvar soundmenuupdate;#P window setfont "Sans Serif" 9.;#P newex 761 344 113 196617 r $1/soundmenuchoice;#B color 12;#P window linecount 2;#P comment 662 389 123 196617 ubumenu filtered types: AIFF \, WAVE \, Sd2f \, NxTS;#P window linecount 1;#P newex 648 419 174 196617 s $1/fromsoundmenu;#B color 12;#P newex 601 369 161 196617 r $1/tosoundmenu;#B color 12;#P window setfont Times 9.;#P newex 580 395 78 1310729 pvar soundmenu 2;#P window setfont "Sans Serif" 9.;#P comment 547 618 117 196617 bpat bkgnd = 256 X 62;#P comment 547 637 119 196617 bpat editor = 258 X 64;#P window setfont Times 9.;#P comment 284 49 56 1310729 update menu;#B frgb 132 132 132;#P button 271 48 15 0;#P objectname soundmenuupdate;#P window setfont "Sans Serif" 9.;#P user ubumenu 64 47 206 196617 0 1 1 0;#X add apass;#X add apass/a_pas+0.env2-01(8tr).aif;#X add apass/a_pas+0.env2-02(8tr).aif;#X add apass/a_pas+0.env2-03(8tr).aif;#X add apass/a_pas+0.env2-04(8tr).aif;#X add apass/a_pas+0.env2-05(8tr).aif;#X add apass/a_pas+0.env2-06(8tr).aif;#X add apass/a_pas+0.env2-07(8tr).aif;#X add apass/a_pas+0.env2-08(8tr).aif;#X add apass/a_pas+108.env10-01(8tr).aif;#X add apass/a_pas+108.env10-02(8tr).aif;#X add apass/a_pas+108.env10-03(8tr).aif;#X add apass/a_pas+108.env10-04(8tr).aif;#X add apass/a_pas+108.env10-05(8tr).aif;#X add apass/a_pas+108.env10-06(8tr).aif;#X add apass/a_pas+108.env10-07(8tr).aif;#X add apass/a_pas+108.env10-08(8tr).aif;#X add apass/a_pas+12.env3-01(8tr).aif;#X add apass/a_pas+12.env3-02(8tr).aif;#X add apass/a_pas+12.env3-03(8tr).aif;#X add apass/a_pas+12.env3-04(8tr).aif;#X add apass/a_pas+12.env3-05(8tr).aif;#X add apass/a_pas+12.env3-06(8tr).aif;#X add apass/a_pas+12.env3-07(8tr).aif;#X add apass/a_pas+12.env3-08(8tr).aif;#X add apass/a_pas+120.env11-01(8tr).aif;#X add apass/a_pas+120.env11-02(8tr).aif;#X add apass/a_pas+120.env11-03(8tr).aif;#X add apass/a_pas+120.env11-04(8tr).aif;#X add apass/a_pas+120.env11-05(8tr).aif;#X add apass/a_pas+120.env11-06(8tr).aif;#X add apass/a_pas+120.env11-07(8tr).aif;#X add apass/a_pas+120.env11-08(8tr).aif;#X add apass/a_pas+132.env12-01(8tr).aif;#X add apass/a_pas+132.env12-02(8tr).aif;#X add apass/a_pas+132.env12-03(8tr).aif;#X add apass/a_pas+132.env12-04(8tr).aif;#X add apass/a_pas+132.env12-05(8tr).aif;#X add apass/a_pas+132.env12-06(8tr).aif;#X add apass/a_pas+132.env12-07(8tr).aif;#X add apass/a_pas+132.env12-08(8tr).aif;#X add apass/a_pas+144.env13-01(8tr).aif;#X add apass/a_pas+144.env13-02(8tr).aif;#X add apass/a_pas+144.env13-03(8tr).aif;#X add apass/a_pas+144.env13-04(8tr).aif;#X add apass/a_pas+144.env13-05(8tr).aif;#X add apass/a_pas+144.env13-06(8tr).aif;#X add apass/a_pas+144.env13-07(8tr).aif;#X add apass/a_pas+144.env13-08(8tr).aif;#X add apass/a_pas+156.env14-01(8tr).aif;#X add apass/a_pas+156.env14-02(8tr).aif;#X add apass/a_pas+156.env14-03(8tr).aif;#X add apass/a_pas+156.env14-04(8tr).aif;#X add apass/a_pas+156.env14-05(8tr).aif;#X add apass/a_pas+156.env14-06(8tr).aif;#X add apass/a_pas+156.env14-07(8tr).aif;#X add apass/a_pas+156.env14-08(8tr).aif;#X add apass/a_pas+36.env4-01(8tr).aif;#X add apass/a_pas+36.env4-02(8tr).aif;#X add apass/a_pas+36.env4-03(8tr).aif;#X add apass/a_pas+36.env4-04(8tr).aif;#X add apass/a_pas+36.env4-05(8tr).aif;#X add apass/a_pas+36.env4-06(8tr).aif;#X add apass/a_pas+36.env4-07(8tr).aif;#X add apass/a_pas+36.env4-08(8tr).aif;#X add apass/a_pas+72.env7-01(8tr).aif;#X add apass/a_pas+72.env7-02(8tr).aif;#X add apass/a_pas+72.env7-03(8tr).aif;#X add apass/a_pas+72.env7-04(8tr).aif;#X add apass/a_pas+72.env7-05(8tr).aif;#X add apass/a_pas+72.env7-06(8tr).aif;#X add apass/a_pas+72.env7-07(8tr).aif;#X add apass/a_pas+72.env7-08(8tr).aif;#X add apass/a_pas+84.env8-01(8tr).aif;#X add apass/a_pas+84.env8-02(8tr).aif;#X add apass/a_pas+84.env8-03(8tr).aif;#X add apass/a_pas+84.env8-04(8tr).aif;#X add apass/a_pas+84.env8-05(8tr).aif;#X add apass/a_pas+84.env8-06(8tr).aif;#X add apass/a_pas+84.env8-07(8tr).aif;#X add apass/a_pas+84.env8-08(8tr).aif;#X add apass/a_pas+96.env9-01(8tr).aif;#X add apass/a_pas+96.env9-02(8tr).aif;#X add apass/a_pas+96.env9-03(8tr).aif;#X add apass/a_pas+96.env9-04(8tr).aif;#X add apass/a_pas+96.env9-05(8tr).aif;#X add apass/a_pas+96.env9-06(8tr).aif;#X add apass/a_pas+96.env9-07(8tr).aif;#X add apass/a_pas+96.env9-08(8tr).aif;#X add attack4-1.aif;#X add attack4-2.aif;#X add attack4-3.aif;#X add attack4-4.aif;#X add bigbangtail8(8tr).aif;#X add breathinto8(8tr).aif;#X add breathinto8-st12.aif;#X add breathinto8-st34.aif;#X add breathinto8-st56.aif;#X add breathinto8-st78.aif;#X add earlylows-spat8(8tr).aif;#X add envstat-fixed8(8tr).aif;#X prefix_set 0 1 everywhere:/proj-archive/l'instant/l'instant2011-karlax/l'instant2011-proj/media/soundfiles/ 5;#P objectname soundmenu;#P comment 438 21 30 196617 /vol;#B frgb 0 0 200;#P flonum 464 19 34 9 0. 4. 3 3 0 0 0 221 221 221 222 222 222 0 0 0;#P objectname vol;#P newex 567 95 232 196617 variedit $1/vol $1;#B color 11;#P window setfont Times 9.;#P newex 567 115 42 1310729 pvar vol;#P comment 561 582 82 1310729 arg 1 : prefix name \;;#P window setfont "Sans Serif" 12.;#P comment 29 1 176 196620 Polyphonic soundfile player.;#B frgb 255 0 0;#P bpatcher 0 0 512 372 0 0 bkgnd62.mxt 0 $1 0 1;#P background;#P objectname background;#P hidden connect 87 0 65 0;#P hidden connect 87 1 64 0;#P hidden connect 87 2 66 0;#P hidden connect 87 3 67 0;#P hidden connect 87 4 68 0;#P hidden connect 87 5 69 0;#P hidden connect 87 6 70 0;#P hidden connect 87 7 71 0;#P hidden connect 87 8 72 0;#P hidden connect 87 9 106 0;#P hidden connect 87 10 107 0;#P hidden connect 87 11 108 0;#P hidden connect 87 12 109 0;#P hidden connect 87 13 110 0;#P hidden connect 87 14 111 0;#P hidden connect 87 15 112 0;#P hidden connect 87 16 113 0;#P hidden connect 87 18 62 0;#P hidden connect 87 20 73 0;#P hidden connect 87 22 75 0;#P hidden connect 87 24 77 0;#P hidden connect 87 26 79 0;#P hidden connect 87 28 81 0;#P hidden connect 87 30 83 0;#P hidden connect 87 32 85 0;#P hidden connect 87 34 104 0;#P hidden connect 87 36 114 0;#P hidden connect 87 38 116 0;#P hidden connect 87 40 118 0;#P hidden connect 87 42 120 0;#P hidden connect 87 44 122 0;#P hidden connect 87 46 124 0;#P hidden connect 87 48 126 0;#P hidden connect 87 17 63 0;#P hidden connect 87 19 74 0;#P hidden connect 87 21 76 0;#P hidden connect 87 23 78 0;#P hidden connect 87 25 80 0;#P hidden connect 87 27 82 0;#P hidden connect 87 29 84 0;#P hidden connect 87 31 86 0;#P hidden connect 87 33 105 0;#P hidden connect 87 35 115 0;#P hidden connect 87 37 117 0;#P hidden connect 87 39 119 0;#P hidden connect 87 41 121 0;#P hidden connect 87 43 123 0;#P hidden connect 87 45 125 0;#P hidden connect 87 47 127 0;#P fasten 3 0 4 0 572 136 560 136 560 90 572 90;#P connect 4 0 3 0;#P connect 51 0 52 0;#P connect 13 0 12 0;#P connect 52 0 12 0;#P hidden connect 55 0 54 0;#P connect 12 1 14 0;#P connect 50 0 51 0;#P connect 45 0 38 0;#P connect 22 0 48 0;#P connect 48 1 50 0;#P connect 59 0 61 0;#P connect 61 0 60 0;#P connect 16 0 26 0;#P connect 26 0 33 0;#P connect 33 0 39 0;#P connect 39 0 27 0;#P connect 40 0 27 0;#P connect 27 0 25 0;#P fasten 37 0 25 0 1042 408 839 408;#P connect 38 0 25 0;#P connect 49 0 25 0;#P connect 17 0 18 0;#P connect 18 0 19 0;#P connect 60 0 23 0;#P connect 51 1 23 0;#P connect 23 0 26 1;#P connect 39 1 40 0;#P connect 50 1 24 0;#P connect 51 2 24 0;#P connect 60 0 24 0;#P connect 24 0 26 2;#P connect 24 0 31 0;#P connect 31 0 32 0;#P connect 32 0 33 1;#P connect 61 0 49 0;#P connect 39 2 37 0;#P pop;