max v2;#N vpatcher 218 228 1300 884;#P origin -2 -21;#P window setfont "Sans Serif" 9.;#P newex 740 97 88 196617 r tape_sflist_init;#B color 12;#P button 332 185 15 0;#P newex 332 163 144 196617 r $1/fileplay;#B color 12;#P toggle 101 290 15 0;#P newex 101 393 29 196617 gate;#P newex 16 322 29 196617 gate;#P window setfont Times 9.;#P newex 101 269 106 1310729 r $1/sw;#B color 11;#P newex 101 466 118 1310729 s $1/fileplay;#B color 11;#P newex 120 369 59 1310729 pvar fileplay;#P button 101 418 15 0;#P window setfont "Sans Serif" 9.;#P newex 101 443 36 196617 zl reg;#P window setfont Times 9.;#P newex 16 352 38 1310729 del 100;#P comment 26 49 40 1310729 fileplay;#B frgb 50 100 120;#P button 15 49 13 0;#P objectname fileplay;#P window setfont "Sans Serif" 9.;#P newex 485 83 69 196617 route symbol;#P newex 485 35 132 196617 r $1/cueplay;#B color 12;#N coll tape_sflist_data 1;#P newobj 485 63 112 196617 coll tape_sflist_data 1;#B color 5;#P window setfont Times 9.;#P newex 236 391 18 1310729 t 1;#P newex 336 463 53 1310729 prepend set;#P newex 336 443 27 1310729 - 1;#P newex 168 421 51 1310729 pvar sound;#P newex 257 511 27 1310729 + 1;#P button 257 287 15 0;#P window setfont "Sans Serif" 9.;#P newex 341 264 113 196617 r $1/sflistmenuupdate;#B color 12;#P button 386 31 15 0;#P window setfont Times 9.;#P newex 386 11 212 1310729 r $1_done;#B color 11;#P window setfont "Sans Serif" 9.;#P newex 570 168 40 196617 t clear;#P newex 581 144 117 196617 r $1/stop;#B color 12;#P newex 485 194 97 196617 pvar lastsoundlabel;#P window setfont Times 9.;#P comment 21 0 45 1310729 playing :;#B frgb 0 0 200;#P user umenu 21 10 100 1310759 3 64 25 1;#X setrgb 237 236 191 132 132 132 255 255 255 221 221 221 170 170 170 119 119 119 187 187 187;#P objectname lastsoundlabel;#P window setfont "Sans Serif" 9.;#P newex 485 169 78 196617 prepend append;#P newex 426 142 128 196617 t b s clear;#P window setfont Times 9.;#P newex 426 121 119 1310729 r $1/fileplay;#B color 11;#P newex 257 305 64 1310729 t b b;#P window setfont "Sans Serif" 9.;#P comment 23 162 117 196617 bpat bkgnd = 256 X 62;#P comment 23 181 119 196617 bpat editor = 258 X 64;#P newex 163 87 140 196617 r $1/stop_edit;#B color 12;#P message 287 160 33 196617 set 1;#P message 228 160 33 196617 set 0;#P newex 228 113 117 196617 r $1/stop;#B color 12;#P newex 287 132 132 196617 r $1/cueplay;#B color 12;#P window setfont Times 9.;#P newex 228 190 68 1310729 pvar play_stop;#P window linecount 2;#P comment 135 18 36 1310729 cueplay (1/0);#B frgb 0 0 200;#P toggle 169 20 20 0;#P objectname play_stop;#P window linecount 1;#P newex 35 284 61 1310729 pvar fileopen;#P newex 257 264 78 1310729 pvar sound-update;#P window setfont "Sans Serif" 9.;#P newex 228 216 209 196617 s $1/play_stop;#B color 12;#P newex 245 421 166 196617 variedit $1/sound $1;#B color 12;#P window setfont Times 9.;#P newex 257 489 71 1310729 pvar soundmenu;#P comment 59 45 34 1310729 update;#B frgb 0 0 200;#P window setfont "Sans Serif" 9.;#P message 311 328 33 196617 clear;#P button 88 44 15 0;#P objectname sound-update;#P message 257 328 33 196617 dump;#P newex 257 391 78 196617 prepend append;#P newex 257 368 65 196617 route symbol;#N coll tape_sflist_data 1;#P newobj 257 347 112 196617 coll tape_sflist_data 1;#B color 5;#P user ubumenu 104 43 148 196617 0 1 1 0;#X add;#X prefix_set 0 0 <none> 5;#P objectname soundmenu;#P window setfont Times 9.;#P flonum 44 25 30 9 -100. 100. 3 20 0 0 0 221 221 221 222 222 222 0 0 0;#P objectname speed;#P window setfont "Sans Serif" 9.;#P newex 16 443 68 196617 prepend open;#P newex 16 472 31 196617 s $1;#P window setfont Times 9.;#P comment 26 38 42 1310729 fileopen;#B frgb 50 100 120;#P window setfont "Sans Serif" 9.;#P newex 34 408 49 196617 strippath;#B color 5;#P button 15 38 13 0;#P objectname fileopen;#P newex 16 377 54 196617 opendialog;#P toggle 97 25 15 0;#P objectname loop;#P window setfont Times 9.;#P comment 75 25 26 1310729 loop;#B frgb 0 0 200;#P window setfont "Sans Serif" 9.;#P newex 493 300 236 196617 variedit $1/loop $1;#B color 11;#P window setfont Times 9.;#P newex 493 320 47 1310729 pvar loop;#P window setfont "Sans Serif" 9.;#P newex 493 249 243 196617 variedit $1/speed $1;#B color 11;#P window setfont Times 9.;#P newex 493 269 50 1310729 pvar speed;#P comment 18 25 31 1310729 speed;#B frgb 0 0 200;#P comment 204 25 21 1310729 vol;#B frgb 0 0 200;#P flonum 222 25 30 9 0. 2. 3 20 0 0 0 221 221 221 222 222 222 0 0 0;#P objectname vol;#P window setfont "Sans Serif" 9.;#P newex 493 351 232 196617 variedit $1/vol $1;#B color 11;#P window setfont Times 9.;#P newex 493 371 42 1310729 pvar vol;#P window linecount 2;#P comment 37 126 82 1310729 arg 1 : prefix name \; arg 2 : max del time;#P window setfont "Sans Serif" 9.;#P window linecount 1;#N thispatcher;#Q end;#P newobj 0 215 61 196617 thispatcher;#P bpatcher 0 1 256 62 0 0 bkgnd.mxt 0 $1 0 1;#P objectname background;#P connect 75 0 73 0;#P connect 73 0 67 0;#P connect 67 0 14 0;#P connect 14 0 19 0;#P connect 19 0 18 0;#P connect 14 0 16 0;#P connect 33 0 73 1;#P connect 72 0 75 0;#P connect 75 0 74 0;#P connect 74 0 69 0;#P connect 69 0 68 0;#P connect 68 0 71 0;#P connect 70 0 74 1;#P connect 16 0 68 1;#P connect 30 0 58 0;#P connect 54 0 39 0;#P connect 38 0 39 0;#P connect 41 0 39 0;#P connect 40 0 36 0;#P connect 39 0 36 0;#P connect 36 0 31 0;#P fasten 44 0 61 0 262 325 241 325;#P connect 61 0 30 0;#P fasten 57 0 30 0 262 532 240 532 240 417 250 417;#P connect 58 0 30 0;#P fasten 55 0 56 0 346 284 262 284;#P connect 32 0 56 0;#P connect 56 0 44 0;#P connect 44 0 25 0;#P connect 25 0 22 0;#P connect 22 0 23 0;#P connect 23 0 24 0;#P connect 27 0 29 0;#P connect 24 0 29 0;#P fasten 60 0 29 0 341 484 262 484;#P connect 29 0 57 0;#P connect 37 0 40 0;#P connect 77 0 40 0;#P connect 44 1 27 0;#P connect 76 0 77 0;#P fasten 30 1 59 0 406 441 341 441;#P connect 59 0 60 0;#P connect 53 0 54 0;#P connect 45 0 46 0;#P connect 63 0 62 0;#P connect 62 0 64 0;#P connect 46 1 47 0;#P connect 64 0 47 0;#P connect 46 2 50 0;#P connect 47 0 50 0;#P connect 52 0 50 0;#P fasten 8 0 9 0 498 290 488 290 488 244 498 244;#P connect 9 0 8 0;#P fasten 10 0 11 0 498 341 488 341 488 295 498 295;#P connect 11 0 10 0;#P fasten 3 0 4 0 498 392 486 392 486 346 498 346;#P connect 4 0 3 0;#P fasten 54 0 52 0 391 116 575 116;#P connect 51 0 52 0;#P pop;