max v2;#N vpatcher 482 150 1035 359;#P hidden inlet 209 247 15 0;#P button 89 196 15 0;#P window setfont "Sans Serif" 9.;#P window linecount 1;#P comment 107 196 39 196617 delete;#P button 23 196 15 0;#P comment 40 196 31 196617 build;#P hidden newex 138 224 125 196617 editorwindow /sfm /tape;#B color 6;#N thispatcher;#Q end;#P hidden newobj 138 254 61 196617 thispatcher;#P window linecount 0;#P comment 2376 0 100 196617;#P window linecount 1;#P hidden newex 23 224 102 196617 t_edit-builder sfm 1;#B color 6;#P window linecount 0;#P comment 1 0 100 196617;#P hidden connect 6 0 1 0;#P hidden connect 8 0 1 1;#P hidden fasten 3 0 4 0 143 275 265 275 265 220 143 220;#P hidden fasten 1 0 3 0 28 249 143 249;#P hidden connect 4 0 3 0;#P pop;