max v2;#N vpatcher 107 44 1267 871;#P origin 34 0;#P window setfont "Sans Serif" 9.;#P window linecount 1;#P newex 691 253 105 196617 t_fxmetersend $1/8;#B color 4;#P newex 677 235 105 196617 t_fxmetersend $1/7;#B color 4;#P newex 663 217 105 196617 t_fxmetersend $1/6;#B color 4;#P newex 649 199 105 196617 t_fxmetersend $1/5;#B color 4;#P newex 125 601 105 196617 t_fxmetersend $1/4;#B color 4;#P newex 111 583 105 196617 t_fxmetersend $1/3;#B color 4;#P newex 97 565 105 196617 t_fxmetersend $1/2;#B color 4;#P newex 83 547 105 196617 t_fxmetersend $1/1;#B color 4;#P window setfont Times 9.;#P newex 14 189 39 1310729 gate;#P window setfont "Sans Serif" 9.;#P newex 951 771 150 196617 s $1/soundmenuchoice;#B color 12;#P newex 919 682 107 196617 r $1/fromsoundmenu;#B color 12;#P newex 919 625 94 196617 s $1/tosoundmenu;#B color 12;#P newex 1037 660 27 196617 + 1;#P newex 951 749 40 196617 itoa;#P newex 919 727 42 196617 zl slice;#P newex 1037 620 34 196617 zl len;#P number 1037 641 35 9 0 0 0 3 0 0 0 221 221 221 222 222 222 0 0 0;#P newex 1037 600 40 196617 atoi;#P newex 919 703 40 196617 atoi;#P newex 919 582 51 196617 tosymbol;#P window setfont Times 9.;#P newex 919 561 113 1310729 sprintf %smedia/soundfiles;#P window setfont "Sans Serif" 9.;#P newex 919 538 62 196617 projectpath;#B color 6;#P newex 919 603 76 196617 prepend prefix;#P button 919 495 15 0;#P newex 919 474 120 196617 r $1/soundmenu/update;#B color 12;#P window setfont Times 9.;#P newex 919 515 76 1310729 t b b;#P window setfont "Sans Serif" 9.;#P message 985 538 33 196617 clear;#P window linecount 2;#P comment 908 644 123 196617 ubumenu filtered types: AIFF \, WAVE \, Sd2f \, NxTS;#P window setfont Times 9.;#P window linecount 1;#P newex 289 84 127 1310729 s $1/allnotesoff;#B color 11;#P window setfont "Sans Serif" 9.;#P newex 216 51 43 196617 route 0;#P newex 216 29 229 196617 makeparam $1/play $1 l 0;#B color 13;#P comment 492 725 173 196617 fade [soundfile name] [temps en ms];#P comment 492 709 281 196617 play [soundfile name] [amp en dB] [seek millisecondes (opt)];#N vpatcher 10 59 456 267;#P window setfont "Sans Serif" 9.;#P newex 18 118 346 196617 zl join;#N comlet ramp time;#P inlet 354 36 15 0;#P number 354 59 57 9 0 0 0 3 0 0 0 221 221 221 222 222 222 0 0 0;#P window linecount 1;#P message 258 83 40 196617 7 4 \$1;#P message 198 83 40 196617 7 3 \$1;#P message 138 83 40 196617 7 2 \$1;#P message 78 83 40 196617 7 1 \$1;#P window linecount 0;#P message 18 83 40 196617 7 0 \$1;#P flonum 258 60 58 9 0 0 0 3 0 0 0 221 221 221 222 222 222 0 0 0;#N comlet vol to rev;#P inlet 258 37 15 0;#P flonum 198 60 58 9 0 0 0 3 0 0 0 221 221 221 222 222 222 0 0 0;#N comlet vol 4;#P inlet 198 37 15 0;#P flonum 138 60 58 9 0 0 0 3 0 0 0 221 221 221 222 222 222 0 0 0;#N comlet vol 3;#P inlet 138 37 15 0;#P flonum 78 60 58 9 0 0 0 3 0 0 0 221 221 221 222 222 222 0 0 0;#N comlet vol 2;#P inlet 78 37 15 0;#P flonum 18 60 58 9 0 0 0 3 0 0 0 221 221 221 222 222 222 0 0 0;#N comlet vol 1;#P inlet 18 37 15 0;#P outlet 18 153 15 0;#P connect 1 0 2 0;#P connect 2 0 11 0;#P connect 11 0 18 0;#P connect 12 0 18 0;#P connect 13 0 18 0;#P connect 14 0 18 0;#P connect 15 0 18 0;#P connect 18 0 0 0;#P connect 3 0 4 0;#P connect 4 0 12 0;#P connect 5 0 6 0;#P connect 6 0 13 0;#P connect 7 0 8 0;#P connect 8 0 14 0;#P connect 9 0 10 0;#P connect 10 0 15 0;#P connect 17 0 16 0;#P connect 16 0 18 1;#P pop;#P newobj 758 369 99 196617 p vols8;#B color 6;#P window setfont Times 9.;#P window linecount 2;#P newex 758 324 95 1310729 t_mspat4ctlrsub $1/8 0 0 $1;#B color 5;#P window setfont "Sans Serif" 9.;#P window linecount 1;#N vpatcher 10 59 456 267;#P window setfont "Sans Serif" 9.;#P newex 18 118 346 196617 zl join;#N comlet ramp time;#P inlet 354 36 15 0;#P number 354 59 57 9 0 0 0 3 0 0 0 221 221 221 222 222 222 0 0 0;#P window linecount 1;#P message 258 83 40 196617 6 4 \$1;#P message 198 83 40 196617 6 3 \$1;#P message 138 83 40 196617 6 2 \$1;#P message 78 83 40 196617 6 1 \$1;#P window linecount 0;#P message 18 83 40 196617 6 0 \$1;#P flonum 258 60 58 9 0 0 0 3 0 0 0 221 221 221 222 222 222 0 0 0;#N comlet vol to rev;#P inlet 258 37 15 0;#P flonum 198 60 58 9 0 0 0 3 0 0 0 221 221 221 222 222 222 0 0 0;#N comlet vol 4;#P inlet 198 37 15 0;#P flonum 138 60 58 9 0 0 0 3 0 0 0 221 221 221 222 222 222 0 0 0;#N comlet vol 3;#P inlet 138 37 15 0;#P flonum 78 60 58 9 0 0 0 3 0 0 0 221 221 221 222 222 222 0 0 0;#N comlet vol 2;#P inlet 78 37 15 0;#P flonum 18 60 58 9 0 0 0 3 0 0 0 221 221 221 222 222 222 0 0 0;#N comlet vol 1;#P inlet 18 37 15 0;#P outlet 18 153 15 0;#P connect 1 0 2 0;#P connect 2 0 11 0;#P connect 15 0 18 0;#P connect 14 0 18 0;#P connect 13 0 18 0;#P connect 12 0 18 0;#P connect 11 0 18 0;#P connect 18 0 0 0;#P connect 3 0 4 0;#P connect 4 0 12 0;#P connect 5 0 6 0;#P connect 6 0 13 0;#P connect 7 0 8 0;#P connect 8 0 14 0;#P connect 9 0 10 0;#P connect 10 0 15 0;#P connect 17 0 16 0;#P connect 16 0 18 1;#P pop;#P newobj 653 369 99 196617 p vols7;#B color 6;#P window setfont Times 9.;#P window linecount 2;#P newex 653 324 95 1310729 t_mspat4ctlrsub $1/7 0 0 $1;#B color 5;#P window setfont "Sans Serif" 9.;#P window linecount 1;#N vpatcher 10 59 456 267;#P window setfont "Sans Serif" 9.;#P newex 18 118 346 196617 zl join;#N comlet ramp time;#P inlet 354 36 15 0;#P number 354 59 57 9 0 0 0 3 0 0 0 221 221 221 222 222 222 0 0 0;#P window linecount 1;#P message 258 83 40 196617 5 4 \$1;#P message 198 83 40 196617 5 3 \$1;#P message 138 83 40 196617 5 2 \$1;#P message 78 83 40 196617 5 1 \$1;#P window linecount 0;#P message 18 83 40 196617 5 0 \$1;#P flonum 258 60 58 9 0 0 0 3 0 0 0 221 221 221 222 222 222 0 0 0;#N comlet vol to rev;#P inlet 258 37 15 0;#P flonum 198 60 58 9 0 0 0 3 0 0 0 221 221 221 222 222 222 0 0 0;#N comlet vol 4;#P inlet 198 37 15 0;#P flonum 138 60 58 9 0 0 0 3 0 0 0 221 221 221 222 222 222 0 0 0;#N comlet vol 3;#P inlet 138 37 15 0;#P flonum 78 60 58 9 0 0 0 3 0 0 0 221 221 221 222 222 222 0 0 0;#N comlet vol 2;#P inlet 78 37 15 0;#P flonum 18 60 58 9 0 0 0 3 0 0 0 221 221 221 222 222 222 0 0 0;#N comlet vol 1;#P inlet 18 37 15 0;#P outlet 18 153 15 0;#P connect 1 0 2 0;#P connect 2 0 11 0;#P connect 11 0 18 0;#P connect 12 0 18 0;#P connect 13 0 18 0;#P connect 14 0 18 0;#P connect 15 0 18 0;#P connect 18 0 0 0;#P connect 3 0 4 0;#P connect 4 0 12 0;#P connect 5 0 6 0;#P connect 6 0 13 0;#P connect 7 0 8 0;#P connect 8 0 14 0;#P connect 9 0 10 0;#P connect 10 0 15 0;#P connect 17 0 16 0;#P connect 16 0 18 1;#P pop;#P newobj 548 369 99 196617 p vols6;#B color 6;#P window setfont Times 9.;#P window linecount 2;#P newex 548 324 95 1310729 t_mspat4ctlrsub $1/6 0 0 $1;#B color 5;#P window setfont "Sans Serif" 9.;#P window linecount 1;#N vpatcher 10 59 456 267;#P window setfont "Sans Serif" 9.;#P newex 18 118 346 196617 zl join;#N comlet ramp time;#P inlet 354 36 15 0;#P number 354 59 57 9 0 0 0 3 0 0 0 221 221 221 222 222 222 0 0 0;#P window linecount 1;#P message 258 83 40 196617 4 4 \$1;#P message 198 83 40 196617 4 3 \$1;#P message 138 83 40 196617 4 2 \$1;#P message 78 83 40 196617 4 1 \$1;#P window linecount 0;#P message 18 83 40 196617 4 0 \$1;#P flonum 258 60 58 9 0 0 0 3 0 0 0 221 221 221 222 222 222 0 0 0;#N comlet vol to rev;#P inlet 258 37 15 0;#P flonum 198 60 58 9 0 0 0 3 0 0 0 221 221 221 222 222 222 0 0 0;#N comlet vol 4;#P inlet 198 37 15 0;#P flonum 138 60 58 9 0 0 0 3 0 0 0 221 221 221 222 222 222 0 0 0;#N comlet vol 3;#P inlet 138 37 15 0;#P flonum 78 60 58 9 0 0 0 3 0 0 0 221 221 221 222 222 222 0 0 0;#N comlet vol 2;#P inlet 78 37 15 0;#P flonum 18 60 58 9 0 0 0 3 0 0 0 221 221 221 222 222 222 0 0 0;#N comlet vol 1;#P inlet 18 37 15 0;#P outlet 18 153 15 0;#P connect 1 0 2 0;#P connect 2 0 11 0;#P connect 15 0 18 0;#P connect 14 0 18 0;#P connect 13 0 18 0;#P connect 12 0 18 0;#P connect 11 0 18 0;#P connect 18 0 0 0;#P connect 3 0 4 0;#P connect 4 0 12 0;#P connect 5 0 6 0;#P connect 6 0 13 0;#P connect 7 0 8 0;#P connect 8 0 14 0;#P connect 9 0 10 0;#P connect 10 0 15 0;#P connect 17 0 16 0;#P connect 16 0 18 1;#P pop;#P newobj 443 369 99 196617 p vols5;#B color 6;#P window setfont Times 9.;#P window linecount 2;#P newex 443 324 95 1310729 t_mspat4ctlrsub $1/5 0 0 $1;#B color 5;#P window setfont "Sans Serif" 9.;#P window linecount 1;#N vpatcher 10 59 456 267;#P window setfont "Sans Serif" 9.;#P newex 18 118 346 196617 zl join;#N comlet ramp time;#P inlet 354 36 15 0;#P number 354 59 57 9 0 0 0 3 0 0 0 221 221 221 222 222 222 0 0 0;#P window linecount 1;#P message 258 83 40 196617 3 4 \$1;#P message 198 83 40 196617 3 3 \$1;#P message 138 83 40 196617 3 2 \$1;#P message 78 83 40 196617 3 1 \$1;#P window linecount 0;#P message 18 83 40 196617 3 0 \$1;#P flonum 258 60 58 9 0 0 0 3 0 0 0 221 221 221 222 222 222 0 0 0;#N comlet vol to rev;#P inlet 258 37 15 0;#P flonum 198 60 58 9 0 0 0 3 0 0 0 221 221 221 222 222 222 0 0 0;#N comlet vol 4;#P inlet 198 37 15 0;#P flonum 138 60 58 9 0 0 0 3 0 0 0 221 221 221 222 222 222 0 0 0;#N comlet vol 3;#P inlet 138 37 15 0;#P flonum 78 60 58 9 0 0 0 3 0 0 0 221 221 221 222 222 222 0 0 0;#N comlet vol 2;#P inlet 78 37 15 0;#P flonum 18 60 58 9 0 0 0 3 0 0 0 221 221 221 222 222 222 0 0 0;#N comlet vol 1;#P inlet 18 37 15 0;#P outlet 18 153 15 0;#P connect 1 0 2 0;#P connect 2 0 11 0;#P connect 11 0 18 0;#P connect 12 0 18 0;#P connect 13 0 18 0;#P connect 14 0 18 0;#P connect 15 0 18 0;#P connect 18 0 0 0;#P connect 3 0 4 0;#P connect 4 0 12 0;#P connect 5 0 6 0;#P connect 6 0 13 0;#P connect 7 0 8 0;#P connect 8 0 14 0;#P connect 9 0 10 0;#P connect 10 0 15 0;#P connect 17 0 16 0;#P connect 16 0 18 1;#P pop;#P newobj 338 369 99 196617 p vols4;#B color 6;#P window setfont Times 9.;#P window linecount 2;#P newex 338 324 95 1310729 t_mspat4ctlrsub $1/4 0 0 $1;#B color 5;#P window setfont "Sans Serif" 9.;#P window linecount 1;#N vpatcher 10 59 456 267;#P window setfont "Sans Serif" 9.;#P newex 18 118 346 196617 zl join;#N comlet ramp time;#P inlet 354 36 15 0;#P number 354 59 57 9 0 0 0 3 0 0 0 221 221 221 222 222 222 0 0 0;#P window linecount 1;#P message 258 83 40 196617 2 4 \$1;#P message 198 83 40 196617 2 3 \$1;#P message 138 83 40 196617 2 2 \$1;#P message 78 83 40 196617 2 1 \$1;#P window linecount 0;#P message 18 83 40 196617 2 0 \$1;#P flonum 258 60 58 9 0 0 0 3 0 0 0 221 221 221 222 222 222 0 0 0;#N comlet vol to rev;#P inlet 258 37 15 0;#P flonum 198 60 58 9 0 0 0 3 0 0 0 221 221 221 222 222 222 0 0 0;#N comlet vol 4;#P inlet 198 37 15 0;#P flonum 138 60 58 9 0 0 0 3 0 0 0 221 221 221 222 222 222 0 0 0;#N comlet vol 3;#P inlet 138 37 15 0;#P flonum 78 60 58 9 0 0 0 3 0 0 0 221 221 221 222 222 222 0 0 0;#N comlet vol 2;#P inlet 78 37 15 0;#P flonum 18 60 58 9 0 0 0 3 0 0 0 221 221 221 222 222 222 0 0 0;#N comlet vol 1;#P inlet 18 37 15 0;#P outlet 18 153 15 0;#P connect 1 0 2 0;#P connect 2 0 11 0;#P connect 15 0 18 0;#P connect 14 0 18 0;#P connect 13 0 18 0;#P connect 12 0 18 0;#P connect 11 0 18 0;#P connect 18 0 0 0;#P connect 3 0 4 0;#P connect 4 0 12 0;#P connect 5 0 6 0;#P connect 6 0 13 0;#P connect 7 0 8 0;#P connect 8 0 14 0;#P connect 9 0 10 0;#P connect 10 0 15 0;#P connect 17 0 16 0;#P connect 16 0 18 1;#P pop;#P newobj 233 369 99 196617 p vols3;#B color 6;#P window setfont Times 9.;#P window linecount 2;#P newex 233 324 95 1310729 t_mspat4ctlrsub $1/3 0 0 $1;#B color 5;#P window setfont "Sans Serif" 9.;#P window linecount 1;#N vpatcher 10 59 456 267;#P window setfont "Sans Serif" 9.;#P newex 18 118 346 196617 zl join;#N comlet ramp time;#P inlet 354 36 15 0;#P number 354 59 57 9 0 0 0 3 0 0 0 221 221 221 222 222 222 0 0 0;#P window linecount 1;#P message 258 83 40 196617 1 4 \$1;#P message 198 83 40 196617 1 3 \$1;#P message 138 83 40 196617 1 2 \$1;#P message 78 83 40 196617 1 1 \$1;#P window linecount 0;#P message 18 83 40 196617 1 0 \$1;#P flonum 258 60 58 9 0 0 0 3 0 0 0 221 221 221 222 222 222 0 0 0;#N comlet vol to rev;#P inlet 258 37 15 0;#P flonum 198 60 58 9 0 0 0 3 0 0 0 221 221 221 222 222 222 0 0 0;#N comlet vol 4;#P inlet 198 37 15 0;#P flonum 138 60 58 9 0 0 0 3 0 0 0 221 221 221 222 222 222 0 0 0;#N comlet vol 3;#P inlet 138 37 15 0;#P flonum 78 60 58 9 0 0 0 3 0 0 0 221 221 221 222 222 222 0 0 0;#N comlet vol 2;#P inlet 78 37 15 0;#P flonum 18 60 58 9 0 0 0 3 0 0 0 221 221 221 222 222 222 0 0 0;#N comlet vol 1;#P inlet 18 37 15 0;#P outlet 18 153 15 0;#P connect 1 0 2 0;#P connect 2 0 11 0;#P connect 11 0 18 0;#P connect 12 0 18 0;#P connect 13 0 18 0;#P connect 14 0 18 0;#P connect 15 0 18 0;#P connect 18 0 0 0;#P connect 3 0 4 0;#P connect 4 0 12 0;#P connect 5 0 6 0;#P connect 6 0 13 0;#P connect 7 0 8 0;#P connect 8 0 14 0;#P connect 9 0 10 0;#P connect 10 0 15 0;#P connect 17 0 16 0;#P connect 16 0 18 1;#P pop;#P newobj 128 369 99 196617 p vols2;#B color 6;#P window setfont Times 9.;#P window linecount 2;#P newex 128 324 95 1310729 t_mspat4ctlrsub $1/2 0 0 $1;#B color 5;#P window setfont "Sans Serif" 9.;#P window linecount 1;#P newex 14 404 751 196617 matrix~ 8 5 1.;#P toggle 14 144 15 0;#P window setfont Times 9.;#P newex 14 162 40 1310729 gate 1 1;#P window setfont "Sans Serif" 9.;#P newex 77 141 31 196617 == 0;#P window setfont Times 9.;#P newex 77 118 104 1310729 r $1/inhibit;#B color 11;#P window setfont "Sans Serif" 9.;#P newex 216 84 67 196617 prepend play;#P newex 74 64 63 196617 prepend cue;#P window setfont Times 9.;#P newex 93 41 101 1310729 r $1/note;#B color 11;#P newex 74 21 101 1310729 r $1/cue;#B color 11;#P newex 637 114 144 1310729 s $1/showbusy;#B color 11;#P button 594 148 15 0;#P newex 594 171 127 1310729 s $1/allnotesoff;#B color 11;#P window setfont "Sans Serif" 9.;#P newex 594 62 261 196617 makeswitch $1/sw $1 tape_switchstate;#B color 13;#P newex 594 120 32 196617 sel 0;#P toggle 594 83 15 0;#P window setfont Times 9.;#P window linecount 32;#P message 898 50 179 1310729 \; $1/sw/init bang \; $1/play/init bang \; $1/inhibit 0 \; $1/steal 0 \; $1/vol/init bang \; $1/1/out/initval 0 \; $1/2/out/initval 0 \; $1/3/out/initval 0 \; $1/4/out/initval 0 \; $1/5/out/initval 0 \; $1/6/out/initval 0 \; $1/7/out/initval 0 \; $1/8/out/initval 0 \; $1/1/az/initval 22.5 \; $1/2/az/initval 337.5 \; $1/3/az/initval 67.5 \; $1/4/az/initval 292.5 \; $1/5/az/initval 112.5 \; $1/6/az/initval 247.5 \; $1/7/az/initval 157.5 \; $1/8/az/initval 202.5 \; $1/1/spat/init bang \; $1/2/spat/init bang \; $1/3/spat/init bang \; $1/4/spat/init bang \; $1/5/spat/init bang \; $1/6/spat/init bang \; $1/7/spat/init bang \; $1/8/spat/init bang \; $1/soundmenu/update bang \; module_register $1;#P window setfont "Sans Serif" 9.;#P window linecount 1;#P newex 898 26 148 196617 moduleinit $1;#B color 13;#P toggle 14 58 15 0;#P window setfont Times 9.;#P newex 14 115 36 1310729 gate;#P newex 14 34 53 1310729 dspstate~;#P newex 425 177 35 1310729 unpack;#P number 460 211 35 9 0 0 0 20 0 0 0 221 221 221 222 222 222 0 0 0;#P newex 425 154 45 1310729 t l 100;#P newex 425 132 122 1310729 r $1/showbusy;#B color 11;#P toggle 425 215 15 0;#P newex 425 234 45 1310729 metro;#P message 425 254 49 1310729 busymap 1;#P message 158 254 38 1310729 steal \$1;#P newex 14 211 59 1310729 prepend note;#P newex 854 413 120 1310729 s $1/busy;#B color 11;#P message 76 254 34 1310729 open 1;#P number 282 226 35 9 0 32 3 20 0 0 0 221 221 221 222 222 222 0 0 0;#P newex 282 205 127 1310729 r $1/polyphony;#B color 11;#P toggle 158 226 15 0;#P newex 158 205 102 1310729 r $1/steal;#B color 11;#P newex 33 233 102 1310729 r $1/poly;#B color 11;#P message 282 254 45 1310729 voices \$1;#P window setfont "Sans Serif" 18.;#P newex 14 281 857 196626 poly~ t_sf8p_ $2 args $1;#B color 6;#P window setfont Times 9.;#P window linecount 2;#P comment 318 226 36 1310729 also resets;#P comment 524 655 164 1310729 arg 1: main prefix name (i.e. "sf8to4p") \; arg 2 : number of voices \;;#P window setfont "Sans Serif" 9.;#P window linecount 1;#P newex 728 543 145 196617 t_fxmetersend $1;#B color 4;#P window setfont Times 9.;#P newex 606 519 113 1310729 send $1.5/out~;#B color 4;#P window setfont "Sans Serif" 9.;#P newex 728 502 47 196617 *~ 0.25;#P comment 615 507 100 196617 connect to reverb!;#P newex 743 524 105 196617 send $1/out~;#B color 4;#P newex 754 438 327 196617 makeparam $1/vol $1 f 1 0. 2. 1 20;#B color 13;#P flonum 769 460 35 9 0. 1. 3 3 0 0 0 221 221 221 222 222 222 0 0 0;#P newex 14 460 751 196617 t_vol5~ 2;#N vpatcher 10 59 456 267;#P window setfont "Sans Serif" 9.;#P newex 18 118 346 196617 zl join;#N comlet ramp time;#P inlet 354 36 15 0;#P number 354 59 57 9 0 0 0 3 0 0 0 221 221 221 222 222 222 0 0 0;#P window linecount 1;#P message 258 83 40 196617 0 4 \$1;#P message 198 83 40 196617 0 3 \$1;#P message 138 83 40 196617 0 2 \$1;#P message 78 83 40 196617 0 1 \$1;#P window linecount 0;#P message 18 83 40 196617 0 0 \$1;#P flonum 258 60 58 9 0 0 0 3 0 0 0 221 221 221 222 222 222 0 0 0;#N comlet vol to rev;#P inlet 258 37 15 0;#P flonum 198 60 58 9 0 0 0 3 0 0 0 221 221 221 222 222 222 0 0 0;#N comlet vol 4;#P inlet 198 37 15 0;#P flonum 138 60 58 9 0 0 0 3 0 0 0 221 221 221 222 222 222 0 0 0;#N comlet vol 3;#P inlet 138 37 15 0;#P flonum 78 60 58 9 0 0 0 3 0 0 0 221 221 221 222 222 222 0 0 0;#N comlet vol 2;#P inlet 78 37 15 0;#P flonum 18 60 58 9 0 0 0 3 0 0 0 221 221 221 222 222 222 0 0 0;#N comlet vol 1;#P inlet 18 37 15 0;#P outlet 18 153 15 0;#P connect 1 0 2 0;#P connect 2 0 11 0;#P connect 15 0 18 0;#P connect 14 0 18 0;#P connect 13 0 18 0;#P connect 12 0 18 0;#P connect 11 0 18 0;#P connect 18 0 0 0;#P connect 3 0 4 0;#P connect 4 0 12 0;#P connect 5 0 6 0;#P connect 6 0 13 0;#P connect 7 0 8 0;#P connect 8 0 14 0;#P connect 9 0 10 0;#P connect 10 0 15 0;#P connect 17 0 16 0;#P connect 16 0 18 1;#P pop;#P newobj 23 369 99 196617 p vols1;#B color 6;#P window setfont Times 9.;#P window linecount 2;#P newex 23 324 95 1310729 t_mspat4ctlrsub $1/1 0 0 $1;#B color 5;#P window setfont "Sans Serif" 9.;#P window linecount 1;#P comment 380 679 37 196617 337.5;#P comment 411 710 37 196617 292.5;#P comment 411 752 37 196617 247.5;#P comment 381 786 37 196617 202.5;#P comment 330 787 37 196617 157.5;#P comment 292 751 37 196617 112.5;#P comment 294 711 31 196617 67.5;#P comment 332 678 31 196617 22.5;#P button 427 768 15 0;#P button 299 768 15 0;#P comment 374 774 43 196617 pair 4R;#P comment 324 774 42 196617 pair 4L;#P comment 404 741 43 196617 pair 3R;#P comment 287 740 42 196617 pair 3L;#P comment 404 698 43 196617 pair 2R;#P comment 288 698 42 196617 pair 2L;#P comment 373 666 43 196617 pair 1R;#P comment 325 666 42 196617 pair 1L;#P button 426 667 15 0;#P button 298 667 15 0;#P button 72 700 15 0;#P button 72 743 15 0;#P button 107 776 15 0;#P button 152 776 15 0;#P button 183 743 15 0;#P button 183 700 15 0;#P button 152 668 15 0;#P button 107 668 15 0;#P comment 250 721 25 196617 ==>;#P comment 143 763 43 196617 pair 4R;#P comment 93 763 42 196617 pair 4L;#P comment 173 730 43 196617 pair 3R;#P comment 56 729 42 196617 pair 3L;#P comment 173 687 43 196617 pair 2R;#P comment 57 687 42 196617 pair 2L;#P comment 142 655 43 196617 pair 1R;#P comment 94 655 42 196617 pair 1L;#P comment 220 639 208 196617 8 channel file in stereo pairs to normal quad;#P newex 458 519 146 196617 send $1.4/out~;#B color 4;#P newex 310 519 146 196617 send $1.3/out~;#B color 4;#P newex 162 519 146 196617 send $1.2/out~;#B color 4;#P window linecount 2;#P comment 753 29 107 196617 patch by Tom Mays contact@tommays.net;#P window linecount 1;#P newex 14 519 146 196617 send $1.1/out~;#B color 4;#P connect 73 0 75 0;#P connect 75 0 74 0;#P connect 89 0 91 0;#P connect 91 0 90 0;#P connect 78 0 131 0;#P connect 131 0 64 0;#P fasten 57 0 55 0 38 273 19 273;#P fasten 66 0 55 0 430 273 19 273;#P fasten 65 0 55 0 163 273 19 273;#P fasten 56 0 55 0 287 273 19 273;#P fasten 62 0 55 0 81 273 19 273;#P connect 64 0 55 0;#P connect 55 0 92 0;#P connect 106 0 92 0;#P connect 104 0 92 0;#P connect 102 0 92 0;#P connect 100 0 92 0;#P connect 98 0 92 0;#P connect 96 0 92 0;#P connect 94 0 92 0;#P connect 44 0 92 0;#P connect 92 0 45 0;#P connect 45 0 0 0;#P connect 43 0 44 0;#P fasten 86 0 74 1 79 98 45 98;#P fasten 87 0 74 1 221 109 45 109;#P connect 43 1 44 1;#P connect 90 0 131 1;#P fasten 74 0 90 1 19 134 49 134;#P connect 43 2 44 2;#P connect 85 0 86 0;#P connect 84 0 86 0;#P connect 43 3 44 3;#P connect 88 0 89 0;#P connect 55 0 132 0;#P connect 43 4 44 4;#P connect 55 1 133 0;#P connect 43 5 44 5;#P connect 55 2 134 0;#P connect 55 1 92 1;#P connect 55 3 135 0;#P connect 93 0 94 0;#P connect 93 1 94 1;#P connect 58 0 59 0;#P connect 59 0 65 0;#P connect 93 2 94 2;#P connect 92 1 45 1;#P connect 45 1 2 0;#P connect 93 3 94 3;#P connect 93 4 94 4;#P connect 93 5 94 5;#P connect 109 0 110 0;#P connect 110 1 87 0;#P connect 55 2 92 2;#P connect 95 0 96 0;#P connect 95 1 96 1;#P connect 95 2 96 2;#P connect 60 0 61 0;#P connect 61 0 56 0;#P connect 95 3 96 3;#P connect 110 0 111 0;#P connect 95 4 96 4;#P connect 92 2 45 2;#P connect 45 2 3 0;#P connect 95 5 96 5;#P connect 55 3 92 3;#P connect 97 0 98 0;#P connect 97 1 98 1;#P connect 97 2 98 2;#P connect 97 3 98 3;#P connect 97 4 98 4;#P connect 97 5 98 5;#P connect 69 0 70 0;#P connect 70 0 72 0;#P connect 72 0 68 0;#P connect 68 0 67 0;#P connect 67 0 66 0;#P connect 55 4 92 4;#P connect 99 0 100 0;#P connect 92 3 45 3;#P connect 45 3 4 0;#P connect 70 1 71 0;#P connect 72 1 71 0;#P connect 71 0 67 1;#P connect 99 1 100 1;#P connect 99 2 100 2;#P connect 99 3 100 3;#P connect 99 4 100 4;#P connect 99 5 100 5;#P connect 55 5 92 5;#P connect 101 0 102 0;#P connect 101 1 102 1;#P connect 101 2 102 2;#P connect 80 0 78 0;#P connect 78 0 79 0;#P connect 79 0 82 0;#P connect 82 0 81 0;#P connect 101 3 102 3;#P connect 92 4 45 4;#P connect 45 4 51 0;#P connect 101 4 102 4;#P connect 101 5 102 5;#P connect 78 0 83 0;#P connect 55 6 92 6;#P connect 55 4 136 0;#P connect 103 0 104 0;#P connect 55 5 137 0;#P connect 103 1 104 1;#P connect 55 6 138 0;#P connect 103 2 104 2;#P connect 55 7 139 0;#P connect 103 3 104 3;#P connect 103 4 104 4;#P connect 45 0 50 0;#P connect 45 1 50 0;#P connect 45 2 50 0;#P connect 45 3 50 0;#P connect 45 4 50 0;#P connect 50 0 52 0;#P connect 103 5 104 5;#P connect 50 0 48 0;#P connect 55 7 92 7;#P connect 47 0 45 5;#P connect 46 0 45 5;#P connect 105 0 106 0;#P connect 45 5 46 0;#P connect 105 1 106 1;#P connect 105 2 106 2;#P connect 105 3 106 3;#P connect 105 4 106 4;#P connect 105 5 106 5;#P connect 55 8 63 0;#P connect 76 0 77 0;#P connect 115 0 116 0;#P connect 116 0 114 0;#P connect 114 0 118 0;#P connect 118 0 119 0;#P connect 119 0 120 0;#P connect 120 0 117 0;#P connect 117 0 128 0;#P connect 113 0 128 0;#P connect 129 0 121 0;#P connect 121 0 125 0;#P fasten 127 0 125 1 1042 723 956 723;#P connect 125 1 126 0;#P connect 126 0 130 0;#P connect 114 1 113 0;#P connect 120 0 122 0;#P connect 122 0 124 0;#P connect 124 0 123 0;#P connect 123 0 127 0;#P pop;