max v2;#N vpatcher 436 44 1518 700;#P origin 0 -21;#P window setfont "Sans Serif" 9.;#P newex 740 96 88 196617 r tape_sflist_init;#B color 12;#P button 332 184 15 0;#P newex 332 162 144 196617 r $1/fileplay;#B color 12;#P toggle 101 289 15 0;#P newex 101 392 29 196617 gate;#P newex 16 321 29 196617 gate;#P window setfont Times 9.;#P newex 101 268 106 1310729 r $1/sw;#B color 11;#P newex 101 465 118 1310729 s $1/fileplay;#B color 11;#P newex 120 368 59 1310729 pvar fileplay;#P button 101 417 15 0;#P window setfont "Sans Serif" 9.;#P newex 101 442 36 196617 zl reg;#P window setfont Times 9.;#P newex 16 351 38 1310729 del 100;#P comment 26 48 40 1310729 fileplay;#B frgb 50 100 120;#P button 15 48 13 0;#P objectname fileplay;#P window setfont "Sans Serif" 9.;#P newex 485 82 69 196617 route symbol;#P newex 485 34 132 196617 r $1/cueplay;#B color 12;#N coll tape_sflist_data 1;#P newobj 485 62 112 196617 coll tape_sflist_data 1;#B color 5;#P window setfont Times 9.;#P newex 236 390 18 1310729 t 1;#P newex 336 462 53 1310729 prepend set;#P newex 336 442 27 1310729 - 1;#P newex 168 420 51 1310729 pvar sound;#P number 237 43 17 9 1 99 35 20 0 0 0 221 221 221 222 222 222 0 0 0;#P objectname sound;#P newex 257 510 27 1310729 + 1;#P button 257 286 15 0;#P window setfont "Sans Serif" 9.;#P newex 341 263 113 196617 r $1/sflistmenuupdate;#B color 12;#P button 386 30 15 0;#P window setfont Times 9.;#P newex 386 10 212 1310729 r $1_done;#B color 11;#P window setfont "Sans Serif" 9.;#P newex 570 167 40 196617 t clear;#P newex 581 143 117 196617 r $1/stop;#B color 12;#P newex 485 193 97 196617 pvar lastsoundlabel;#P window setfont Times 9.;#P comment 21 -1 45 1310729 playing :;#B frgb 0 0 200;#P user umenu 21 9 100 1310759 3 64 24 1;#X setrgb 237 236 191 132 132 132 255 255 255 221 221 221 170 170 170 119 119 119 187 187 187;#P objectname lastsoundlabel;#P window setfont "Sans Serif" 9.;#P newex 485 168 78 196617 prepend append;#P newex 426 141 128 196617 t b s clear;#P window setfont Times 9.;#P newex 426 120 119 1310729 r $1/fileplay;#B color 11;#P newex 257 304 64 1310729 t b b;#P window setfont "Sans Serif" 9.;#P comment 23 161 117 196617 bpat bkgnd = 256 X 62;#P comment 23 180 119 196617 bpat editor = 258 X 64;#P newex 163 86 140 196617 r $1/stop_edit;#B color 12;#P message 287 159 33 196617 set 1;#P message 228 159 33 196617 set 0;#P newex 228 112 117 196617 r $1/stop;#B color 12;#P newex 287 131 132 196617 r $1/cueplay;#B color 12;#P window setfont Times 9.;#P newex 228 189 68 1310729 pvar play_stop;#P window linecount 2;#P comment 135 17 36 1310729 cueplay (1/0);#B frgb 0 0 200;#P toggle 169 19 20 0;#P objectname play_stop;#P window linecount 1;#P newex 35 283 61 1310729 pvar fileopen;#P newex 257 263 78 1310729 pvar sound-update;#P window setfont "Sans Serif" 9.;#P newex 228 215 209 196617 s $1/play_stop;#B color 12;#P newex 245 420 166 196617 variedit $1/sound $1;#B color 12;#P window setfont Times 9.;#P newex 257 488 71 1310729 pvar soundmenu;#P comment 59 44 34 1310729 update;#B frgb 0 0 200;#P window setfont "Sans Serif" 9.;#P message 311 327 33 196617 clear;#P button 88 43 15 0;#P objectname sound-update;#P message 257 327 33 196617 dump;#P newex 257 390 78 196617 prepend append;#P newex 257 367 65 196617 route symbol;#N coll tape_sflist_data 1;#P newobj 257 346 112 196617 coll tape_sflist_data 1;#B color 5;#P user ubumenu 104 42 132 196617 0 1 1 0;#X add;#X prefix_set 0 0 <none> 0;#P objectname soundmenu;#P window setfont Times 9.;#P flonum 44 24 30 9 -100. 100. 3 20 0 0 0 221 221 221 222 222 222 0 0 0;#P objectname speed;#P window setfont "Sans Serif" 9.;#P newex 16 442 68 196617 prepend open;#P newex 16 471 31 196617 s $1;#P window setfont Times 9.;#P comment 26 37 42 1310729 fileopen;#B frgb 50 100 120;#P window setfont "Sans Serif" 9.;#P newex 34 407 49 196617 strippath;#B color 5;#P button 15 37 13 0;#P objectname fileopen;#P newex 16 376 54 196617 opendialog;#P toggle 97 24 15 0;#P objectname loop;#P window setfont Times 9.;#P comment 75 24 26 1310729 loop;#B frgb 0 0 200;#P window setfont "Sans Serif" 9.;#P newex 493 299 236 196617 variedit $1/loop $1;#B color 11;#P window setfont Times 9.;#P newex 493 319 47 1310729 pvar loop;#P window setfont "Sans Serif" 9.;#P newex 493 248 243 196617 variedit $1/speed $1;#B color 11;#P window setfont Times 9.;#P newex 493 268 50 1310729 pvar speed;#P comment 18 24 31 1310729 speed;#B frgb 0 0 200;#P comment 204 24 21 1310729 vol;#B frgb 0 0 200;#P flonum 222 24 30 9 0. 2. 3 20 0 0 0 221 221 221 222 222 222 0 0 0;#P objectname vol;#P window setfont "Sans Serif" 9.;#P newex 493 350 232 196617 variedit $1/vol $1;#B color 11;#P window setfont Times 9.;#P newex 493 370 42 1310729 pvar vol;#P window linecount 2;#P comment 37 125 82 1310729 arg 1 : prefix name \; arg 2 : max del time;#P window setfont "Sans Serif" 9.;#P window linecount 1;#N thispatcher;#Q end;#P newobj 0 214 61 196617 thispatcher;#P bpatcher 0 0 256 62 0 0 bkgnd.mxt 0 $1 0 1;#P objectname background;#P hidden connect 0 0 1 0;#P connect 76 0 74 0;#P connect 74 0 68 0;#P connect 68 0 14 0;#P connect 14 0 19 0;#P connect 19 0 18 0;#P connect 14 0 16 0;#P connect 33 0 74 1;#P connect 73 0 76 0;#P connect 76 0 75 0;#P connect 75 0 70 0;#P connect 70 0 69 0;#P connect 69 0 72 0;#P connect 71 0 75 1;#P connect 16 0 69 1;#P connect 30 0 59 0;#P connect 54 0 39 0;#P connect 41 0 39 0;#P connect 38 0 39 0;#P connect 39 0 36 0;#P connect 40 0 36 0;#P connect 36 0 31 0;#P fasten 44 0 62 0 262 324 241 324;#P connect 59 0 30 0;#P fasten 57 0 30 0 262 531 240 531 240 416 250 416;#P connect 62 0 30 0;#P connect 32 0 56 0;#P fasten 55 0 56 0 346 283 262 283;#P connect 56 0 44 0;#P connect 44 0 25 0;#P connect 25 0 22 0;#P connect 22 0 23 0;#P connect 23 0 24 0;#P fasten 61 0 29 0 341 483 262 483;#P connect 24 0 29 0;#P connect 27 0 29 0;#P connect 29 0 57 0;#P connect 78 0 40 0;#P connect 37 0 40 0;#P connect 44 1 27 0;#P connect 77 0 78 0;#P fasten 30 1 60 0 406 440 341 440;#P connect 60 0 61 0;#P connect 53 0 54 0;#P connect 45 0 46 0;#P connect 64 0 63 0;#P connect 63 0 65 0;#P connect 65 0 47 0;#P connect 46 1 47 0;#P connect 52 0 50 0;#P connect 47 0 50 0;#P connect 46 2 50 0;#P fasten 8 0 9 0 498 289 488 289 488 243 498 243;#P connect 9 0 8 0;#P fasten 10 0 11 0 498 340 488 340 488 294 498 294;#P connect 11 0 10 0;#P fasten 3 0 4 0 498 391 486 391 486 345 498 345;#P connect 4 0 3 0;#P connect 51 0 52 0;#P fasten 54 0 52 0 391 115 575 115;#P pop;