max v2;#N vpatcher 199 56 1325 772;#P origin 0 -29;#P window setfont "Sans Serif" 9.;#P window linecount 1;#P comment 62 547 18 196617 C;#P comment 217 547 18 196617 Rs;#P comment 167 547 18 196617 Ls;#P comment 117 547 18 196617 R;#P comment 24 547 18 196617 L;#P window setfont Times 9.;#N out~ 5;#P newobj 172 642 34 1310729 out~ 5;#P window setfont "Sans Serif" 9.;#P comment 181 659 18 196617 C;#P flonum 224 615 35 9 0 0 0 3 0 0 0 221 221 221 222 222 222 0 0 0;#P newex 268 652 292 196617 makeparam $1/vol $1 f 1 0. 4. 1 20;#B color 13;#P window setfont Times 9.;#N out~ 4;#P newobj 133 642 34 1310729 out~ 4;#N out~ 3;#P newobj 94 642 34 1310729 out~ 3;#P window setfont "Sans Serif" 9.;#P comment 142 659 18 196617 Rs;#P comment 104 659 18 196617 Ls;#P button 646 462 15 0;#P newex 646 439 47 196617 gate 1 1;#P newex 646 418 31 196617 == 0;#P toggle 646 400 15 0;#P newex 646 380 54 196617 dspstate~;#P message 710 375 40 196617 <none>;#P message 724 473 33 196617 clear;#P button 674 356 15 0;#P window setfont Times 9.;#P newex 904 526 130 1310729 s $1/name;#B color 11;#P window setfont "Sans Serif" 9.;#P newex 904 448 49 196617 strippath;#B color 5;#P newex 760 430 51 196617 tosymbol;#P newex 845 379 51 196617 tosymbol;#P newex 760 453 68 196617 prepend open;#P newex 760 379 62 196617 projectpath;#B color 6;#P window setfont Times 9.;#P newex 760 492 130 1310729 s $1;#B color 11;#P window setfont "Sans Serif" 9.;#P newex 760 356 95 196617 t b s;#P newex 760 405 155 196617 sprintf %smedia/soundfiles/%s;#P newex 674 334 96 196617 route <none>;#P newex 674 307 221 196617 makeparam $1/read $1 s <none>;#B color 12;#P newex 16 614 205 196617 t_vol5~ 2;#P window setfont Times 9.;#N out~ 2;#P newobj 55 642 34 1310729 out~ 2;#N out~ 1;#P newobj 16 642 34 1310729 out~ 1;#P window setfont "Sans Serif" 9.;#P comment 64 659 18 196617 R;#P comment 26 659 18 196617 L;#P newex 498 631 150 196617 s $1/read;#B color 12;#P newex 466 542 107 196617 r $1/fromsoundmenu;#B color 12;#P newex 466 485 94 196617 s $1/tosoundmenu;#B color 12;#P newex 584 520 27 196617 + 1;#P newex 498 609 40 196617 itoa;#P newex 466 587 42 196617 zl slice;#P newex 584 480 34 196617 zl len;#P number 584 501 35 9 0 0 0 3 0 0 0 221 221 221 222 222 222 0 0 0;#P newex 584 460 40 196617 atoi;#P newex 466 563 40 196617 atoi;#P newex 466 442 51 196617 tosymbol;#P window setfont Times 9.;#P newex 466 421 113 1310729 sprintf %smedia/soundfiles;#P window setfont "Sans Serif" 9.;#P newex 466 398 62 196617 projectpath;#B color 6;#P newex 466 463 76 196617 prepend prefix;#P button 466 355 15 0;#P newex 466 334 120 196617 r $1/soundmenu/update;#B color 12;#P window setfont Times 9.;#P newex 466 375 76 1310729 t b b;#P window setfont "Sans Serif" 9.;#P message 532 398 33 196617 clear;#P window linecount 2;#P comment 455 504 123 196617 ubumenu filtered types: AIFF \, WAVE \, Sd2f \, NxTS;#P window setfont Times 9.;#P window linecount 1;#P newex 865 250 130 1310729 s $1/name;#B color 11;#P newex 726 250 130 1310729 s $1/play;#B color 11;#P button 842 121 15 0;#P newex 842 140 38 1310729 del 100;#P window setfont "Sans Serif" 9.;#P newex 865 196 49 196617 strippath;#B color 5;#P newex 842 165 54 196617 opendialog;#P window setfont Times 9.;#P newex 842 99 99 1310729 r $1/open;#B color 11;#P newex 431 46 18 1310729 t 0;#P newex 431 67 99 1310729 s $1/play;#B color 11;#P window setfont "Sans Serif" 9.;#P newex 150 46 252 196617 makeparam $1/play $1 t 0 0 1 0;#B color 13;#P newex 150 67 41 196617 sel 1 0;#P button 367 139 15 0;#P window setfont Times 9.;#P newex 354 291 119 1310729 s $1/spat/init;#B color 11;#P window setfont "Sans Serif" 9.;#P newex 41 256 254 196617 r $1/trsp;#B color 11;#P window setfont Times 9.;#P comment 75 389 31 1310729 speed;#P flonum 41 389 35 9 0 0 0 20 0 0 0 221 221 221 222 222 222 0 0 0;#P window setfont "Sans Serif" 9.;#P newex 41 366 279 196617 makeparam $1/speed $1 f 1. -20 20 1;#B color 13;#P newex 156 410 252 196617 makeparam $1/loop $1 t 0 0 1 0;#B color 13;#P newex 634 42 261 196617 makeswitch $1/sw $1 tape_switchstate;#B color 13;#P newex 634 85 31 196617 == 0;#P newex 634 124 50 196617 thispoly~;#B color 5;#P toggle 634 66 15 0;#P message 634 105 45 196617 mute \$1;#P window setfont Times 9.;#P newex 261 551 122 1310729 s $1_done;#B color 11;#P window setfont "Sans Serif" 9.;#P newex 41 329 248 196617 s $1/speed;#B color 11;#P newex 41 308 115 196617 expr pow(2\\\,($f1/12));#P message 41 410 48 196617 speed \$1;#P newex 726 217 21 196617 t 1;#P newex 17 106 27 196617 + 1;#P comment 536 243 107 196617 modified by olivier;#B color 12;#P window setfont Times 9.;#P newex 223 123 18 1310729 t 1;#P button 223 104 15 0;#P window setfont "Sans Serif" 9.;#P window linecount 2;#P comment 543 215 107 196617 patch by Tom Mays contact@tommays.net;#P window linecount 1;#P newex 785 196 68 196617 prepend open;#P window setfont Times 9.;#P newex 785 223 130 1310729 s $1;#B color 11;#P window setfont "Sans Serif" 9.;#P newex 726 159 69 196617 t b s;#P window setfont Times 9.;#P newex 726 99 110 1310729 r $1/fileplay;#B color 11;#P newex 17 83 100 1310729 r $1/cueplay;#B color 11;#P newex 156 472 130 1310729 r $1;#B color 11;#P window setfont "Sans Serif" 9.;#P message 156 450 50 196617 loop \$1;#P toggle 156 432 15 0;#P window setfont Times 9.;#P window linecount 10;#P message 367 163 157 1310729 \; $1/sw/init bang \; $1/read/init bang \; $1/loop/init bang \; $1/trsp 0 \; $1/speed/init bang \; $1/vol/init bang \; $1/play/init bang \; $1/soundmenu/update bang \; module_register $1 \;;#P window setfont "Sans Serif" 9.;#P window linecount 1;#P newex 367 119 148 196617 moduleinit $1;#B color 13;#P button 132 103 15 0;#P window setfont Times 9.;#P newex 132 121 18 1310729 t 0;#P newex 431 25 88 1310729 r $1/stop;#B color 11;#P window linecount 2;#P comment 30 172 56 1310729 [sflist name] [cue number];#P window linecount 1;#P comment 77 290 23 1310729 trsp;#P flonum 41 289 35 9 0 0 0 20 0 0 0 221 221 221 222 222 222 0 0 0;#P newex 16 151 74 1310729 pak tape_sflist 0;#N sfplay~  5 120960 0 ;#P newobj 16 530 257 1310729 sfplay~ 5;#B color 7;#P window setfont "Sans Serif" 9.;#P window linecount 2;#P comment 156 494 100 196617 any sfplay message to this variable;#P window linecount 1;#P newex 726 196 38 196617 del 10;#P window setfont "Sans Serif" 20.;#P window linecount 2;#P comment 674 571 425 196628 files in format L C R Ls Rs \; connection to matrix in format L R Ls Rs C;#B frgb 200 0 0;#P connect 4 0 3 0;#P fasten 23 0 3 0 228 211 21 211;#P connect 14 0 3 0;#P connect 27 0 3 0;#P fasten 9 0 3 0 137 204 21 204;#P connect 15 0 3 0;#P connect 3 0 77 0;#P connect 77 0 75 0;#P connect 16 0 25 0;#P connect 40 0 5 0;#P connect 5 0 28 0;#P connect 28 0 29 0;#P connect 37 0 38 0;#P connect 38 0 27 0;#P connect 3 2 77 1;#P connect 77 1 76 0;#P fasten 25 0 4 1 22 135 85 135;#P connect 3 3 77 2;#P connect 77 2 99 0;#P connect 43 1 10 0;#P connect 10 0 9 0;#P connect 3 4 77 3;#P connect 77 3 100 0;#P connect 44 0 43 0;#P connect 36 0 13 0;#P connect 13 0 14 0;#P connect 3 1 77 4;#P connect 77 4 104 0;#P connect 102 0 77 5;#P fasten 101 0 77 5 273 676 263 676 263 609 216 609;#P connect 43 0 22 0;#P connect 43 2 22 0;#P connect 22 0 23 0;#P connect 77 5 102 0;#P connect 3 5 30 0;#P fasten 42 0 41 0 372 158 359 158;#P connect 11 0 42 0;#P connect 42 0 12 0;#P connect 8 0 46 0;#P connect 46 0 45 0;#P connect 57 0 58 0;#P connect 58 0 56 0;#P connect 56 0 60 0;#P connect 60 0 61 0;#P connect 61 0 62 0;#P connect 62 0 59 0;#P connect 59 0 70 0;#P connect 55 0 70 0;#P connect 71 0 63 0;#P connect 63 0 67 0;#P fasten 69 0 67 1 589 583 503 583;#P connect 67 1 68 0;#P connect 68 0 72 0;#P connect 56 1 55 0;#P connect 62 0 64 0;#P connect 64 0 66 0;#P connect 66 0 65 0;#P connect 65 0 69 0;#P connect 35 0 32 0;#P connect 32 0 34 0;#P connect 34 0 31 0;#P connect 31 0 33 0;#P connect 92 0 93 0;#P connect 93 0 94 0;#P connect 94 0 95 0;#P connect 95 0 96 0;#P connect 78 0 79 0;#P connect 79 0 89 0;#P connect 89 0 95 1;#P connect 89 0 91 0;#P connect 95 0 90 0;#P connect 17 0 18 0;#P connect 18 0 1 0;#P connect 1 0 26 0;#P connect 26 0 52 0;#P connect 79 1 81 0;#P connect 81 0 83 0;#P connect 83 0 80 0;#P connect 80 0 86 0;#P connect 86 0 84 0;#P connect 90 0 82 0;#P connect 84 0 82 0;#P connect 48 0 20 0;#P connect 18 1 20 0;#P connect 20 0 19 0;#P connect 47 0 51 0;#P connect 51 0 50 0;#P connect 50 0 48 0;#P connect 81 1 85 0;#P connect 18 1 49 0;#P connect 48 0 49 0;#P connect 49 0 53 0;#P connect 86 0 87 0;#P connect 87 0 88 0;#P fasten 91 0 88 0 715 515 909 515;#P connect 85 0 80 1;#P pop;