max v2;#N vpatcher 482 150 1034 423;#P hidden inlet 204 308 15 0;#P button 85 258 15 0;#P window setfont "Sans Serif" 9.;#P window linecount 1;#P comment 103 258 39 196617 delete;#P button 19 258 15 0;#P comment 36 258 31 196617 build;#P hidden newex 134 286 126 196617 editorwindow /sfst /tape;#B color 6;#N thispatcher;#Q end;#P hidden newobj 134 316 61 196617 thispatcher;#P window linecount 0;#P comment 2376 0 100 196617;#P window linecount 1;#P hidden newex 19 286 103 196617 t_edit-builder sfst 1;#B color 6;#P window linecount 0;#P comment 1 0 100 196617;#P hidden connect 6 0 1 0;#P hidden connect 8 0 1 1;#P hidden fasten 3 0 4 0 139 337 282 337 282 282 139 282;#P hidden connect 4 0 3 0;#P hidden fasten 1 0 3 0 24 311 139 311;#P pop;