max v2;#N vpatcher 189 142 723 779;#P origin 10 -10;#P window setfont "Sans Serif" 9.;#P window linecount 1;#N thispatcher;#Q end;#P hidden newobj 1045 105 61 196617 thispatcher;#P hidden newex 1045 84 191 196617 tm_editorbuilder /sf8to4p /tape 10 2 2;#B color 6;#P hidden inlet 1245 84 15 0;#P button 1045 62 15 0;#P comment 1063 62 39 196617 delete;#P button 1045 44 15 0;#P comment 1062 44 31 196617 build;#P window linecount 0;#P comment 2366 10 100 196617;#P comment -9 10 100 196617;#P hidden connect 3 0 7 0;#P hidden connect 7 0 8 0;#P hidden connect 5 0 7 1;#P hidden fasten 8 0 7 2 1050 126 1240 126 1240 80 1230 80;#P pop;