max v2;#N vpatcher 71 148 455 377;#P window setfont "Sans Serif" 9.;#P window linecount 1;#P newex 74 114 155 196617 send $1/out~;#B color 4;#P newex 74 91 52 196617 *~ 0.707;#P newex 169 143 147 196617 send $1R/out~;#B color 4;#P window linecount 2;#P comment 55 170 107 196617 patch by Tom Mays contact@tommays.net;#P window linecount 1;#P newex 21 58 158 196617 poly~ t_sfst_ 1 args $1;#B color 6;#P newex 21 143 146 196617 send $1L/out~;#B color 4;#P comment 21 24 132 196617 arg 1 : module prefix name;#P connect 2 0 1 0;#P connect 2 0 5 0;#P connect 5 0 6 0;#P connect 2 1 5 1;#P connect 2 1 4 0;#P pop;