max v2;#N vpatcher 90 169 1157 379;#P window setfont "Sans Serif" 9.;#P window linecount 1;#N thispatcher;#Q end;#P hidden newobj 1055 95 61 196617 thispatcher;#P hidden newex 1055 74 180 196617 tm_editorbuilder /sf8to4 /tape 1 1 4;#B color 6;#P hidden inlet 1248 74 15 0;#P button 1055 52 15 0;#P comment 1073 52 39 196617 delete;#P button 1055 34 15 0;#P comment 1072 34 31 196617 build;#P window linecount 0;#P comment 2376 0 100 196617;#P comment 1 0 100 196617;#P hidden connect 3 0 7 0;#P hidden connect 7 0 8 0;#P hidden connect 5 0 7 1;#P hidden fasten 8 0 7 2 1060 116 1243 116 1243 70 1230 70;#P pop;