max v2;#N vpatcher 284 89 1338 784;#P origin 0 -29;#P window setfont "Sans Serif" 9.;#P window linecount 2;#P comment 367 276 198 196617 no longer need to send to module_register. happens in build.;#P button 626 464 15 0;#P window linecount 1;#P newex 626 441 47 196617 gate 1 1;#P newex 626 420 31 196617 == 0;#P toggle 626 402 15 0;#P newex 626 382 54 196617 dspstate~;#P message 690 377 40 196617 <none>;#P message 704 475 33 196617 clear;#P button 654 358 15 0;#P newex 475 631 150 196617 s $1/read;#B color 12;#P newex 443 542 176 196617 r $1/fromsoundmenu;#B color 12;#P newex 376 485 166 196617 s $1/tosoundmenu;#B color 12;#P newex 561 520 27 196617 + 1;#P newex 475 609 40 196617 itoa;#P newex 443 587 42 196617 zl slice;#P newex 561 480 34 196617 zl len;#P number 561 501 35 9 0 0 0 3 0 0 0 221 221 221 222 222 222 0 0 0;#P newex 561 460 40 196617 atoi;#P newex 443 563 40 196617 atoi;#P newex 443 442 51 196617 tosymbol;#P window setfont Times 9.;#P newex 443 421 113 1310729 sprintf %smedia/soundfiles;#P window setfont "Sans Serif" 9.;#P newex 443 398 62 196617 projectpath;#B color 6;#P newex 443 463 76 196617 prepend prefix;#P button 443 355 15 0;#P newex 443 334 189 196617 r $1/soundmenu/update;#B color 12;#P window setfont Times 9.;#P newex 443 375 76 1310729 t b b;#P window setfont "Sans Serif" 9.;#P message 509 398 33 196617 clear;#P window linecount 2;#P comment 432 504 123 196617 ubumenu filtered types: AIFF \, WAVE \, Sd2f \, NxTS;#P window setfont Times 9.;#P window linecount 1;#P newex 884 528 130 1310729 s $1/name;#B color 11;#P window setfont "Sans Serif" 9.;#P newex 884 450 49 196617 strippath;#B color 5;#P window setfont Times 9.;#P newex 865 250 130 1310729 s $1/name;#B color 11;#P newex 726 250 130 1310729 s $1/play;#B color 11;#P button 842 121 15 0;#P newex 842 140 38 1310729 del 100;#P window setfont "Sans Serif" 9.;#P newex 865 196 49 196617 strippath;#B color 5;#P newex 842 165 54 196617 opendialog;#P window setfont Times 9.;#P newex 842 99 99 1310729 r $1/open;#B color 11;#P newex 431 46 18 1310729 t 0;#P newex 431 67 99 1310729 s $1/play;#B color 11;#P window setfont "Sans Serif" 9.;#P newex 150 46 252 196617 makeparam $1/play $1 t 0 0 1 0;#B color 13;#P newex 740 432 51 196617 tosymbol;#P newex 825 381 51 196617 tosymbol;#P newex 740 455 68 196617 prepend open;#P newex 740 381 62 196617 projectpath;#B color 6;#P window setfont Times 9.;#P newex 740 494 130 1310729 s $1;#B color 11;#P window setfont "Sans Serif" 9.;#P newex 740 358 95 196617 t b s;#P newex 740 407 155 196617 sprintf %smedia/soundfiles/%s;#P newex 654 336 96 196617 route <none>;#P newex 654 309 221 196617 makeparam $1/read $1 s <none>;#B color 12;#P newex 150 67 41 196617 sel 1 0;#P button 367 139 15 0;#P window setfont Times 9.;#P newex 354 310 119 1310729 s $1/spat/init;#B color 11;#P window setfont "Sans Serif" 9.;#P newex 41 256 254 196617 r $1/trsp;#B color 11;#P window setfont Times 9.;#P comment 75 389 31 1310729 speed;#P flonum 41 389 35 9 0 0 0 20 0 0 0 221 221 221 222 222 222 0 0 0;#P window setfont "Sans Serif" 9.;#P newex 41 366 279 196617 makeparam $1/speed $1 f 1. -20 20 1;#B color 13;#P flonum 72 604 35 9 0 0 0 3 0 0 0 221 221 221 222 222 222 0 0 0;#P newex 16 604 49 196617 t_vol~ 2;#P newex 55 580 330 196617 makeparam $1/vol $1 f 1 0. 4. 1 20;#B color 13;#P newex 156 410 252 196617 makeparam $1/loop $1 t 0 0 1 0;#B color 13;#P newex 634 42 261 196617 makeswitch $1/sw $1 tape_switchstate;#B color 13;#P newex 634 85 31 196617 == 0;#P newex 634 124 50 196617 thispoly~;#B color 5;#P toggle 634 66 15 0;#P message 634 105 45 196617 mute \$1;#P window setfont Times 9.;#P newex 193 551 122 1310729 s $1_done;#B color 11;#P window setfont "Sans Serif" 9.;#P newex 41 329 248 196617 s $1/speed;#B color 11;#P newex 41 308 115 196617 expr pow(2\\\,($f1/12));#P message 41 410 48 196617 speed \$1;#P newex 726 217 21 196617 t 1;#P newex 17 106 27 196617 + 1;#P comment 536 243 107 196617 modified by olivier;#B color 12;#P window setfont Times 9.;#P newex 223 123 18 1310729 t 1;#P button 223 104 15 0;#P window setfont "Sans Serif" 9.;#P window linecount 2;#P comment 543 215 107 196617 patch by Tom Mays contact@tommays.net;#P window linecount 1;#P newex 785 196 68 196617 prepend open;#P window setfont Times 9.;#P newex 785 223 130 1310729 s $1;#B color 11;#P window setfont "Sans Serif" 9.;#P newex 726 159 69 196617 t b s;#P window setfont Times 9.;#P newex 726 99 110 1310729 r $1/fileplay;#B color 11;#P newex 17 83 100 1310729 r $1/cueplay;#B color 11;#P newex 156 472 130 1310729 r $1;#B color 11;#N out~ 1;#P newobj 16 632 34 1310729 out~ 1;#P window setfont "Sans Serif" 9.;#P message 156 450 50 196617 loop \$1;#P toggle 156 432 15 0;#P window setfont Times 9.;#P window linecount 9;#P message 367 163 157 1310729 \; $1/sw/init bang \; $1/read/init bang \; $1/loop/init bang \; $1/trsp 0 \; $1/speed/init bang \; $1/vol/init bang \; $1/play/init bang \; $1/soundmenu/update bang \;;#P window setfont "Sans Serif" 9.;#P window linecount 1;#P newex 367 119 148 196617 moduleinit $1;#B color 13;#P button 132 103 15 0;#P window setfont Times 9.;#P newex 132 121 18 1310729 t 0;#P newex 431 25 88 1310729 r $1/stop;#B color 11;#P window linecount 2;#P comment 30 172 56 1310729 [sflist name] [cue number];#P window linecount 1;#P comment 77 290 23 1310729 trsp;#P flonum 41 289 35 9 0 0 0 20 0 0 0 221 221 221 222 222 222 0 0 0;#P newex 16 151 74 1310729 pak tape_sflist 0;#N sfplay~  1 120960 0 ;#P newobj 16 530 187 1310729 sfplay~;#B color 7;#P window setfont "Sans Serif" 9.;#P window linecount 2;#P comment 156 494 100 196617 any sfplay message to this variable;#P window linecount 1;#P newex 726 196 38 196617 del 10;#P connect 15 0 2 0;#P fasten 8 0 2 0 137 204 21 204;#P connect 27 0 2 0;#P connect 13 0 2 0;#P fasten 23 0 2 0 228 211 21 211;#P connect 3 0 2 0;#P connect 2 0 38 0;#P connect 38 0 14 0;#P connect 16 0 25 0;#P connect 43 0 4 0;#P connect 4 0 28 0;#P connect 28 0 29 0;#P connect 40 0 41 0;#P connect 41 0 27 0;#P connect 39 0 38 1;#P connect 37 0 38 1;#P connect 38 1 39 0;#P fasten 25 0 3 1 22 135 85 135;#P connect 46 1 9 0;#P connect 9 0 8 0;#P connect 56 0 46 0;#P connect 36 0 12 0;#P connect 12 0 13 0;#P connect 2 1 30 0;#P connect 46 0 22 0;#P connect 46 2 22 0;#P connect 22 0 23 0;#P fasten 45 0 44 0 372 158 359 158;#P connect 10 0 45 0;#P connect 45 0 11 0;#P connect 73 0 84 0;#P connect 69 0 84 0;#P connect 7 0 58 0;#P connect 58 0 57 0;#P connect 71 0 72 0;#P connect 72 0 70 0;#P connect 70 0 74 0;#P connect 74 0 75 0;#P connect 75 0 76 0;#P connect 76 0 73 0;#P connect 85 0 77 0;#P connect 77 0 81 0;#P fasten 83 0 81 1 566 583 480 583;#P connect 81 1 82 0;#P connect 82 0 86 0;#P connect 70 1 69 0;#P connect 76 0 78 0;#P connect 78 0 80 0;#P connect 80 0 79 0;#P connect 79 0 83 0;#P connect 90 0 91 0;#P connect 91 0 92 0;#P connect 92 0 93 0;#P connect 93 0 94 0;#P connect 35 0 32 0;#P connect 32 0 34 0;#P connect 34 0 31 0;#P connect 31 0 33 0;#P connect 47 0 48 0;#P connect 48 0 87 0;#P connect 87 0 93 1;#P connect 87 0 89 0;#P connect 93 0 88 0;#P connect 17 0 18 0;#P connect 18 0 0 0;#P connect 0 0 26 0;#P connect 26 0 64 0;#P connect 48 1 50 0;#P connect 50 0 52 0;#P connect 52 0 49 0;#P connect 49 0 55 0;#P connect 55 0 53 0;#P connect 88 0 51 0;#P connect 53 0 51 0;#P connect 60 0 20 0;#P connect 18 1 20 0;#P connect 20 0 19 0;#P connect 50 1 54 0;#P connect 59 0 63 0;#P connect 63 0 62 0;#P connect 62 0 60 0;#P connect 18 1 61 0;#P connect 60 0 61 0;#P connect 61 0 65 0;#P connect 55 0 66 0;#P connect 66 0 67 0;#P fasten 89 0 67 0 695 517 889 517;#P connect 54 0 49 1;#P pop;