max v2;#N vpatcher 119 124 1105 827;#P origin 0 -36;#P window setfont "Sans Serif" 9.;#P newex 230 67 41 196617 sel 1 0;#P newex 776 324 70 196617 s $1/replace;#B color 4;#P newex 729 253 95 196617 sprintf open %s%s;#P newex 729 213 108 196617 t soundfiles s;#N coll filepaths 1;#P newobj 729 233 77 196617 coll filepaths 1;#B color 5;#P newex 729 193 121 196617 r $1/replace;#B color 4;#P newex 729 273 97 196617 s $1;#B color 4;#P newex 776 300 112 196617 r $1/loadfile;#B color 11;#P button 376 141 15 0;#P window setfont Times 9.;#P newex 363 281 119 1310729 s $1/spat/init;#B color 11;#P newex 136 44 41 1310729 sel 0. 1.;#P newex 136 22 107 1310729 r $1/playstop;#B color 11;#P newex 690 130 92 1310729 s $1/init;#B color 11;#P newex 690 107 51 1310729 r /tape/init;#B color 11;#P window setfont "Sans Serif" 9.;#P newex 45 318 254 196617 r $1/trsp;#B color 11;#P newex 666 542 288 196617 makeparam $1/sound $1 i 1 0 100000 0;#B color 13;#P newex 493 490 162 196617 r $1/play_stop;#B color 12;#P newex 493 514 41 196617 sel 1 0;#P newex 508 534 137 196617 s $1/stop;#B color 12;#P newex 493 567 183 196617 i;#P newex 493 592 184 196617 s $1/cueplay;#B color 12;#P window setfont Times 9.;#P comment 79 437 31 1310729 speed;#P flonum 45 437 35 9 0 0 0 20 0 0 0 221 221 221 222 222 222 0 0 0;#P window setfont "Sans Serif" 9.;#P newex 45 414 279 196617 makeparam $1/speed $1 f 1. -20 20 1;#B color 13;#P flonum 76 616 35 9 0 0 0 3 0 0 0 221 221 221 222 222 222 0 0 0;#P newex 20 616 55 196617 t_vol2~ 2;#P newex 64 589 330 196617 makeparam $1/vol $1 f 1 0. 2. 1 20;#B color 13;#P newex 318 433 252 196617 makeparam $1/loop $1 t 0 0 1 0;#B color 13;#P newex 576 63 261 196617 makeswitch $1/sw $1 tape_switchstate;#B color 13;#P newex 576 106 31 196617 == 0;#P newex 576 145 50 196617 thispoly~;#B color 5;#P toggle 576 87 15 0;#P message 576 126 45 196617 mute \$1;#P window setfont Times 9.;#P newex 194 570 122 1310729 s $1_done;#B color 11;#P window setfont "Sans Serif" 9.;#P newex 45 391 248 196617 s $1/speed;#B color 11;#P newex 45 370 115 196617 expr pow(2\\\,($f1/12));#P message 45 458 48 196617 speed \$1;#P newex 319 91 68 196617 prepend open;#P window setfont Times 9.;#P newex 319 69 90 1310729 r $1/open;#B color 11;#P window setfont "Sans Serif" 9.;#P newex 546 274 21 196617 t 1;#P newex 21 92 27 196617 + 1;#P comment 641 372 107 196617 modified by olivier;#B color 12;#P window setfont Times 9.;#P newex 227 109 18 1310729 t 1;#P button 227 90 15 0;#P window setfont "Sans Serif" 9.;#P window linecount 2;#P comment 648 344 107 196617 patch by Tom Mays contact@tommays.net;#P window linecount 1;#P newex 605 253 68 196617 prepend open;#P window setfont Times 9.;#P newex 546 300 130 1310729 s $1;#B color 11;#P window setfont "Sans Serif" 9.;#P newex 546 231 69 196617 t b s;#P window setfont Times 9.;#P newex 546 209 58 1310729 r $1/fileplay;#B color 11;#P newex 21 69 100 1310729 r $1/cueplay;#B color 11;#P newex 318 495 130 1310729 r $1;#B color 11;#N out~ 2;#P newobj 78 644 34 1310729 out~ 2;#N out~ 1;#P newobj 20 644 34 1310729 out~ 1;#P window setfont "Sans Serif" 9.;#P message 318 473 50 196617 loop \$1;#P toggle 318 455 15 0;#P window setfont Times 9.;#P window linecount 9;#P message 376 164 111 1310729 \; $1/sw/init bang \; $1/sflistmenuupdate bang \; $1/stop bang \; $1/loop/init bang \; $1/trsp 0 \; $1/speed/init bang \; $1/vol/init bang \; module_register $1 \;;#P window linecount 1;#P newex 376 121 84 1310729 r $1/init;#B color 11;#P button 136 89 15 0;#P newex 136 107 18 1310729 t 0;#P newex 136 69 88 1310729 r $1/stop;#B color 11;#P newex 233 43 88 1310729 r $1/play;#B color 11;#P window setfont "Sans Serif" 9.;#P comment 87 661 18 196617 R;#P window setfont Times 9.;#P window linecount 2;#P comment 34 158 56 1310729 [sflist name] [cue number];#P window linecount 1;#P comment 81 352 23 1310729 trsp;#P flonum 45 351 35 9 0 0 0 20 0 0 0 221 221 221 222 222 222 0 0 0;#P newex 20 137 74 1310729 pak tape_sflist 0;#N sfplay~  2 120960 0 ;#P newobj 20 550 185 1310729 sfplay~ 2;#B color 7;#P window setfont "Sans Serif" 9.;#P comment 30 661 18 196617 L;#P window linecount 2;#P comment 318 517 100 196617 any sfplay message to this variable;#P window linecount 1;#P newex 546 253 38 196617 del 10;#P fasten 11 0 3 0 141 190 25 190;#P connect 33 0 3 0;#P connect 16 0 3 0;#P connect 19 0 3 0;#P fasten 27 0 3 0 232 197 25 197;#P connect 4 0 3 0;#P fasten 32 0 3 0 324 204 25 204;#P connect 3 0 44 0;#P connect 44 0 17 0;#P connect 20 0 29 0;#P fasten 3 1 44 1 112 580 47 580;#P connect 55 0 5 0;#P connect 5 0 34 0;#P connect 34 0 35 0;#P connect 46 0 47 0;#P connect 47 0 33 0;#P connect 45 0 44 2;#P connect 43 0 44 2;#P connect 44 2 45 0;#P fasten 44 1 18 0 47 638 83 638;#P fasten 29 0 4 1 26 121 89 121;#P connect 58 0 59 0;#P connect 69 1 12 0;#P connect 10 0 12 0;#P connect 59 0 12 0;#P connect 12 0 11 0;#P connect 3 2 36 0;#P connect 69 2 26 0;#P connect 69 0 26 0;#P connect 59 1 26 0;#P connect 26 0 27 0;#P connect 9 0 69 0;#P connect 42 0 15 0;#P connect 15 0 16 0;#P connect 31 0 32 0;#P fasten 61 0 60 0 381 160 368 160;#P connect 13 0 61 0;#P connect 61 0 14 0;#P connect 53 0 52 0;#P connect 52 0 50 0;#P connect 50 0 49 0;#P connect 52 1 51 0;#P connect 21 0 22 0;#P connect 22 0 0 0;#P connect 0 0 30 0;#P fasten 24 0 23 0 610 295 551 295;#P connect 30 0 23 0;#P connect 41 0 38 0;#P connect 38 0 40 0;#P connect 40 0 37 0;#P connect 37 0 39 0;#P connect 22 1 24 0;#P connect 54 0 50 1;#P connect 56 0 57 0;#P connect 64 0 66 0;#P connect 66 0 65 0;#P connect 65 0 67 0;#P connect 67 0 63 0;#P connect 62 0 68 0;#P connect 66 1 67 1;#P pop;