max v2;#N vpatcher 26 44 1320 816;#P window setfont "Sans Serif" 9.;#P newex 986 27 151 196617 moduleinit $1;#B color 13;#P newex 882 590 30 196617 pack;#P newex 882 689 278 196617 makecontrol $1/strippitchvel $1 li 0 127 /common;#B color 5;#P newex 923 712 278 196617 makecontrol $1/pitchvel $1 li 0 127 /common;#B color 5;#P window setfont "Sans Serif" 14.;#N vpatcher 10 59 453 514;#P window setfont "Sans Serif" 18.;#P comment 1 1 250 196626 PCR-300 assignement data;#B frgb 0 0 200;#P user fpic 26 26 380 388 pcr-assign-default.png 0 0 0 0. 0 0 0;#P pop;#P newobj 550 69 108 196622 p assign_data;#B color 13;#P window setfont "Sans Serif" 9.;#P comment 550 93 163 196617 uses default program for PCR-300;#B frgb 255 0 0;#P comment 550 56 133 196617 PCR-300 assignement data;#P button 986 47 15 0;#P newex 986 65 40 196617 t b b b;#P window linecount 22;#P message 879 107 189 196617 \; $1/B1/init bang \; $1/B2/init bang \; $1/B3/init bang \; $1/B4/init bang \; $1/B5/init bang \; $1/B6/init bang \; $1/B7/init bang \; $1/B8/init bang \; $1/B9/init bang \; $1/C1/init bang \; $1/C2/init bang \; $1/C3/init bang \; $1/H1/init bang \; $1/H2/init bang \; $1/L1/init bang \; $1/L2/init bang \; $1/L3/init bang \; $1/L4/init bang \; $1/prog/init bang \; $1/channel/init bang \; control_register/store $1 \;;#P window linecount 1;#P newex 100 120 83 196617 s $1/midiinputs;#B color 6;#P newex 780 20 48 196617 loadbang;#P message 780 40 60 196617 controllers;#P newex 780 79 178 196617 s $1/mididevicemenu;#B color 12;#P window linecount 38;#P message 1080 107 175 196617 \; $1/sw/init bang \; $1/pitch/init bang \; $1/vel/init bang \; $1/strippitch/init bang \; $1/stripvel/init bang \; $1/bend/init bang \; $1/mod/init bang \; $1/aft/init bang \; $1/P1/init bang \; $1/P2/init bang \; $1/S1/init bang \; $1/S2/init bang \; $1/S3/init bang \; $1/S4/init bang \; $1/S5/init bang \; $1/S6/init bang \; $1/S7/init bang \; $1/S8/init bang \; $1/S9/init bang \; $1/R1/init bang \; $1/R2/init bang \; $1/R3/init bang \; $1/R4/init bang \; $1/R5/init bang \; $1/R6/init bang \; $1/R7/init bang \; $1/R8/init bang \; $1/R9/init bang \; $1/A1/init bang \; $1/A2/init bang \; $1/A3/init bang \; $1/A4/init bang \; $1/A5/init bang \; $1/A6/init bang \; $1/A7/init bang \; $1/A8/init bang \; $1/A9/init bang \;;#P window linecount 1;#P newex 780 59 45 196617 midiinfo;#B color 5;#P newex 43 51 67 196617 route <none>;#P newex 43 31 188 196617 makeparam $1/mididevice $1 s <none>;#B color 12;#P newex 379 101 114 196617 pvar mididevicemenu 2;#P newex 379 28 125 196617 r $1/mididevicemenu;#B color 6;#P toggle 137 77 15 0;#P message 137 97 53 196617 enable \$1;#P newex 137 55 221 196617 makeswitch $1/sw $1 common_switchstate 0;#B color 12;#P newex 394 78 62 196617 prepend set;#P newex 394 58 125 196617 r $1/mididevice;#B color 6;#P user umenu 520 31 174 196647 1 64 47 1;#X add "to MaxMSP 1";#X add "to MaxMSP 2";#P objectname mididevicemenu;#P newex 379 129 125 196617 s $1/mididevice;#B color 6;#P newex 759 521 211 196617 makecontrol $1/channel $1 i 1 16 /common;#B color 5;#P newex 745 503 204 196617 makecontrol $1/prog $1 i 0 127 /common;#B color 5;#P newex 731 485 197 196617 makecontrol $1/aft $1 i 0 127 /common;#B color 5;#P newex 717 467 196 196617 makecontrol $1/P2 $1 i 0 127 /common;#B color 5;#P newex 703 449 196 196617 makecontrol $1/P1 $1 i 0 127 /common;#B color 5;#P newex 689 431 202 196617 makecontrol $1/mod $1 i 0 127 /common;#B color 5;#P newex 675 413 204 196617 makecontrol $1/bend $1 i 0 127 /common;#B color 5;#P newex 871 541 74 196617 t l l;#P newex 912 642 300 196617 makecontrol $1/stripvel $1 i 0 127 /common;#B color 5;#P newex 871 661 308 196617 makecontrol $1/strippitch $1 i 0 127 /common;#B color 5;#P number 935 585 35 9 0 0 0 3 0 0 0 221 221 221 222 222 222 0 0 0;#P number 973 585 35 9 0 0 0 3 0 0 0 221 221 221 222 222 222 0 0 0;#P newex 871 565 51 196617 stripnote;#P newex 935 565 48 196617 unpack;#P newex 973 604 278 196617 makecontrol $1/vel $1 i 0 127 /common;#B color 5;#P newex 935 623 286 196617 makecontrol $1/pitch $1 i 0 127 /common;#B color 5;#P newex 745 293 36 196617 pgmin;#P newex 661 725 195 196617 makecontrol $1/L4 $1 i 0 127 /common;#B color 5;#P newex 647 707 195 196617 makecontrol $1/L3 $1 i 0 127 /common;#B color 5;#P newex 633 689 195 196617 makecontrol $1/L2 $1 i 0 127 /common;#B color 5;#P newex 619 671 195 196617 makecontrol $1/L1 $1 i 0 127 /common;#B color 5;#P newex 605 653 196 196617 makecontrol $1/H2 $1 i 0 127 /common;#B color 5;#P newex 591 635 196 196617 makecontrol $1/H1 $1 i 0 127 /common;#B color 5;#P newex 577 617 196 196617 makecontrol $1/C3 $1 i 0 127 /common;#B color 5;#P newex 563 599 196 196617 makecontrol $1/C2 $1 i 0 127 /common;#B color 5;#P newex 549 581 196 196617 makecontrol $1/C1 $1 i 0 127 /common;#B color 5;#P newex 535 557 196 196617 makecontrol $1/B9 $1 i 0 127 /common;#B color 5;#P newex 521 539 196 196617 makecontrol $1/B8 $1 i 0 127 /common;#B color 5;#P newex 507 521 196 196617 makecontrol $1/B7 $1 i 0 127 /common;#B color 5;#P newex 493 503 196 196617 makecontrol $1/B6 $1 i 0 127 /common;#B color 5;#P newex 479 485 196 196617 makecontrol $1/B5 $1 i 0 127 /common;#B color 5;#P newex 465 467 196 196617 makecontrol $1/B4 $1 i 0 127 /common;#B color 5;#P newex 451 449 196 196617 makecontrol $1/B3 $1 i 0 127 /common;#B color 5;#P newex 437 431 196 196617 makecontrol $1/B2 $1 i 0 127 /common;#B color 5;#P newex 423 413 196 196617 makecontrol $1/B1 $1 i 0 127 /common;#B color 5;#P newex 409 727 197 196617 makecontrol $1/A9 $1 i 0 127 /common;#B color 5;#P newex 395 709 197 196617 makecontrol $1/A8 $1 i 0 127 /common;#B color 5;#P newex 381 691 197 196617 makecontrol $1/A7 $1 i 0 127 /common;#B color 5;#P newex 367 673 197 196617 makecontrol $1/A6 $1 i 0 127 /common;#B color 5;#P newex 353 655 197 196617 makecontrol $1/A5 $1 i 0 127 /common;#B color 5;#P newex 339 637 197 196617 makecontrol $1/A4 $1 i 0 127 /common;#B color 5;#P newex 325 619 197 196617 makecontrol $1/A3 $1 i 0 127 /common;#B color 5;#P newex 311 601 197 196617 makecontrol $1/A2 $1 i 0 127 /common;#B color 5;#P newex 297 583 197 196617 makecontrol $1/A1 $1 i 0 127 /common;#B color 5;#P newex 283 557 196 196617 makecontrol $1/R9 $1 i 0 127 /common;#B color 5;#P newex 269 539 196 196617 makecontrol $1/R8 $1 i 0 127 /common;#B color 5;#P newex 255 521 196 196617 makecontrol $1/R7 $1 i 0 127 /common;#B color 5;#P newex 241 503 196 196617 makecontrol $1/R6 $1 i 0 127 /common;#B color 5;#P newex 227 485 196 196617 makecontrol $1/R5 $1 i 0 127 /common;#B color 5;#P newex 213 467 196 196617 makecontrol $1/R4 $1 i 0 127 /common;#B color 5;#P newex 199 449 196 196617 makecontrol $1/R3 $1 i 0 127 /common;#B color 5;#P newex 185 431 196 196617 makecontrol $1/R2 $1 i 0 127 /common;#B color 5;#P newex 171 413 196 196617 makecontrol $1/R1 $1 i 0 127 /common;#B color 5;#P newex 157 727 196 196617 makecontrol $1/S9 $1 i 0 127 /common;#B color 5;#P newex 143 709 196 196617 makecontrol $1/S8 $1 i 0 127 /common;#B color 5;#P newex 129 691 196 196617 makecontrol $1/S7 $1 i 0 127 /common;#B color 5;#P newex 115 673 196 196617 makecontrol $1/S6 $1 i 0 127 /common;#B color 5;#P newex 101 655 196 196617 makecontrol $1/S5 $1 i 0 127 /common;#B color 5;#P newex 87 637 196 196617 makecontrol $1/S4 $1 i 0 127 /common;#B color 5;#P newex 73 619 196 196617 makecontrol $1/S3 $1 i 0 127 /common;#B color 5;#P newex 59 601 196 196617 makecontrol $1/S2 $1 i 0 127 /common;#B color 5;#N vpatcher 23 484 1036 706;#P window setfont "Sans Serif" 9.;#P window linecount 1;#P comment 674 145 21 196617 aft;#P number 668 156 35 9 0 0 0 3 0 0 0 221 221 221 222 222 222 0 0 0;#N comlet aft;#P hidden outlet 930 290 15 0;#N comlet aft;#P hidden inlet 930 241 15 0;#P hidden comment 928 228 21 196617 aft;#P comment 586 67 20 196617 H2;#P user hslider 479 65 18 91 128 1 0 0;#N comlet H2;#P hidden outlet 717 290 15 0;#N comlet H1;#P hidden outlet 700 290 15 0;#N comlet H2;#P hidden inlet 717 241 15 0;#N comlet H1;#P hidden inlet 700 241 15 0;#P hidden comment 717 228 20 196617 H2;#P hidden comment 700 228 20 196617 H1;#N comlet C3;#P hidden outlet 677 290 15 0;#N comlet C2;#P hidden outlet 660 290 15 0;#N comlet C1;#P hidden outlet 643 290 15 0;#N comlet C3;#P hidden inlet 677 241 15 0;#N comlet C2;#P hidden inlet 660 241 15 0;#N comlet C1;#P hidden inlet 643 241 15 0;#P hidden comment 677 228 20 196617 C3;#P hidden comment 660 228 20 196617 C2;#P hidden comment 643 228 20 196617 C1;#P comment 547 106 20 196617 C3;#P comment 522 106 20 196617 C2;#P comment 497 106 20 196617 C1;#P toggle 546 117 20 0;#P toggle 521 117 20 0;#P toggle 496 117 20 0;#P comment 463 50 20 196617 H1;#P user hslider 479 48 18 91 128 1 0 0;#N comlet l4;#P hidden outlet 794 290 15 0;#N comlet l4;#P hidden inlet 794 241 15 0;#P hidden comment 794 228 20 196617 L4;#P comment 102 35 20 196617 L4;#P toggle 101 46 20 0;#P comment 423 72 20 196617 A9;#P comment 388 72 20 196617 A8;#P comment 353 72 20 196617 A7;#P toggle 422 83 20 0;#P toggle 387 83 20 0;#P toggle 352 83 20 0;#P comment 318 72 20 196617 A6;#P comment 283 72 20 196617 A5;#P comment 248 72 20 196617 A4;#P comment 213 72 20 196617 A3;#P comment 178 72 20 196617 A2;#P comment 143 72 20 196617 A1;#P toggle 317 83 20 0;#P toggle 282 83 20 0;#P toggle 247 83 20 0;#P toggle 212 83 20 0;#P toggle 177 83 20 0;#P toggle 142 83 20 0;#N comlet a9;#P hidden outlet 458 290 15 0;#N comlet a8;#P hidden outlet 441 290 15 0;#N comlet a7;#P hidden outlet 424 290 15 0;#N comlet a9;#P hidden inlet 458 241 15 0;#N comlet a8;#P hidden inlet 441 241 15 0;#N comlet a7;#P hidden inlet 424 241 15 0;#P hidden comment 458 228 20 196617 A9;#P hidden comment 441 228 20 196617 A8;#P hidden comment 424 228 20 196617 A7;#N comlet a6;#P hidden outlet 407 290 15 0;#N comlet a5;#P hidden outlet 390 290 15 0;#N comlet a4;#P hidden outlet 373 290 15 0;#N comlet a3;#P hidden outlet 356 290 15 0;#N comlet a2;#P hidden outlet 339 290 15 0;#N comlet a1;#P hidden outlet 322 290 15 0;#N comlet a6;#P hidden inlet 407 241 15 0;#N comlet a5;#P hidden inlet 390 241 15 0;#N comlet a4;#P hidden inlet 373 241 15 0;#N comlet a3;#P hidden inlet 356 241 15 0;#N comlet a2;#P hidden inlet 339 241 15 0;#N comlet a1;#P hidden inlet 322 241 15 0;#P hidden comment 407 228 20 196617 A6;#P hidden comment 390 228 20 196617 A5;#P hidden comment 373 228 20 196617 A4;#P hidden comment 356 228 20 196617 A3;#P hidden comment 339 228 20 196617 A2;#P hidden comment 322 228 20 196617 A1;#N comlet b9;#P hidden outlet 622 290 15 0;#N comlet b8;#P hidden outlet 605 290 15 0;#N comlet b7;#P hidden outlet 588 290 15 0;#N comlet b9;#P hidden inlet 622 241 15 0;#N comlet b8;#P hidden inlet 605 241 15 0;#N comlet b7;#P hidden inlet 588 241 15 0;#P hidden comment 622 228 20 196617 B9;#P hidden comment 605 228 20 196617 B8;#P hidden comment 588 228 20 196617 B7;#P comment 423 106 20 196617 B9;#P comment 388 106 20 196617 B8;#P comment 353 106 20 196617 B7;#P toggle 422 117 20 0;#P toggle 387 117 20 0;#P toggle 352 117 20 0;#P comment 430 3 20 196617 R9;#P number 422 51 36 9 0 0 0 3 0 0 0 221 221 221 222 222 222 0 0 0;#P user dial 422 14 36 36 128 1 0 0 223 270 2 0.3125 170 170 170 221 221 221 120 120 120 225 225 225 0 0 0 0 0 0;#N comlet r9;#P hidden outlet 298 290 15 0;#N comlet r9;#P hidden inlet 298 241 15 0;#P hidden comment 298 228 20 196617 R9;#P comment 887 3 20 196617 S9;#P number 880 122 36 9 0 0 0 3 0 0 0 221 221 221 222 222 222 0 0 0;#P user uslider 888 14 18 91 128 1 0 0;#N comlet s9;#P hidden outlet 142 290 15 0;#N comlet s9;#P hidden inlet 142 241 15 0;#P hidden comment 142 228 20 196617 S9;#P hidden newex 24 -15 99 196617 fixedsize 1015 220;#B color 6;#P hidden newex 24 -35 180 196617 editorwindow $1/display /tapemovie;#B color 11;#N thispatcher;#Q end;#P hidden newobj 24 5 70 196617 thispatcher;#P comment 817 153 38 196617 chanel;#P window setfont "Sans Serif" 12.;#P number 817 165 39 12 0 127 3 3 0 0 0 221 221 221 222 222 222 0 0 0;#P window setfont "Sans Serif" 9.;#P comment 774 153 30 196617 prog;#P window setfont "Sans Serif" 12.;#P number 774 165 39 12 0 127 3 3 0 0 0 221 221 221 222 222 222 0 0 0;#N comlet channel;#P hidden outlet 1032 290 15 0;#N comlet channel;#P hidden inlet 1032 241 15 0;#P window setfont "Sans Serif" 9.;#P hidden comment 1027 228 43 196617 channel;#N comlet prog;#P hidden outlet 955 290 15 0;#N comlet prog;#P hidden inlet 955 241 15 0;#P hidden comment 950 228 30 196617 prog;#P window linecount 0;#P comment 926 3 20 196617 P1;#P toggle 921 14 29 0;#P hidden newex 994 270 29 196617 pack;#P number 951 122 36 9 0 0 0 3 0 0 0 221 221 221 222 222 222 0 0 0;#P comment 955 3 30 196617 P2;#P user uslider 951 14 36 91 128 1 0 0;#P number 3 117 31 9 0 0 0 3 0 0 0 221 221 221 222 222 222 0 0 0;#P number 65 159 31 9 0 0 0 3 0 0 0 221 221 221 222 222 222 0 0 0;#P comment 328 188 99 196617 range for oct trsp 0;#P comment 6 104 26 196617 mod;#P comment 35 160 29 196617 bend;#P user pictslider 35 83 75 75 4 4 4 4 SliderDefaultKnob.pct 1 SliderDefaultBkgnd.pct 1 2163 0 8323072 127 1. 1.;#P comment 77 35 20 196617 L3;#P comment 52 35 20 196617 L2;#P comment 27 35 20 196617 L1;#P comment 318 106 20 196617 B6;#P comment 283 106 20 196617 B5;#P comment 248 106 20 196617 B4;#P comment 213 106 20 196617 B3;#P comment 178 106 20 196617 B2;#P comment 143 106 20 196617 B1;#P comment 395 3 20 196617 R8;#P comment 360 3 20 196617 R7;#P comment 325 3 20 196617 R6;#P comment 290 3 20 196617 R5;#P comment 255 3 20 196617 R4;#P comment 220 3 20 196617 R3;#P comment 185 3 20 196617 R2;#P comment 150 3 20 196617 R1;#P comment 852 3 20 196617 S8;#P comment 817 3 20 196617 S7;#P comment 782 3 20 196617 S6;#P comment 747 3 20 196617 S5;#P comment 712 3 20 196617 S4;#P comment 677 3 20 196617 S3;#P comment 642 3 20 196617 S2;#P comment 607 3 20 196617 S1;#P message 636 181 32 196617 clear;#P user panel 668 145 14 36;#X brgb 255 255 255;#X frgb 255 255 255;#X border 1;#X rounded 0;#X shadow 0;#X done;#P number 179 181 35 9 0 0 0 3 0 0 0 221 221 221 222 222 222 0 0 0;#P number 142 181 35 9 0 0 0 3 0 0 0 221 221 221 222 222 222 0 0 0;#P user kslider 142 145 35 1 0 132 19 7 1 92 150 206 92 150 206 255 255 255 0 0 0 0 0 0;#P toggle 76 46 20 0;#P toggle 51 46 20 0;#P toggle 26 46 20 0;#P toggle 317 117 20 0;#P toggle 282 117 20 0;#P toggle 247 117 20 0;#P toggle 212 117 20 0;#P toggle 177 117 20 0;#P toggle 142 117 20 0;#P number 845 122 36 9 0 0 0 3 0 0 0 221 221 221 222 222 222 0 0 0;#P user uslider 853 14 18 91 128 1 0 0;#P number 810 122 36 9 0 0 0 3 0 0 0 221 221 221 222 222 222 0 0 0;#P user uslider 818 14 18 91 128 1 0 0;#P number 775 122 36 9 0 0 0 3 0 0 0 221 221 221 222 222 222 0 0 0;#P user uslider 783 14 18 91 128 1 0 0;#P number 740 122 36 9 0 0 0 3 0 0 0 221 221 221 222 222 222 0 0 0;#P user uslider 748 14 18 91 128 1 0 0;#P number 705 122 36 9 0 0 0 3 0 0 0 221 221 221 222 222 222 0 0 0;#P user uslider 713 14 18 91 128 1 0 0;#P number 670 122 36 9 0 0 0 3 0 0 0 221 221 221 222 222 222 0 0 0;#P user uslider 678 14 18 91 128 1 0 0;#P number 635 122 36 9 0 0 0 3 0 0 0 221 221 221 222 222 222 0 0 0;#P user uslider 643 14 18 91 128 1 0 0;#P number 600 122 36 9 0 0 0 3 0 0 0 221 221 221 222 222 222 0 0 0;#P number 387 51 36 9 0 0 0 3 0 0 0 221 221 221 222 222 222 0 0 0;#P user dial 387 14 36 36 128 1 0 0 223 270 2 0.3125 170 170 170 221 221 221 120 120 120 225 225 225 0 0 0 0 0 0;#P number 352 51 36 9 0 0 0 3 0 0 0 221 221 221 222 222 222 0 0 0;#P user dial 352 14 36 36 128 1 0 0 223 270 2 0.3125 170 170 170 221 221 221 120 120 120 225 225 225 0 0 0 0 0 0;#P number 317 51 36 9 0 0 0 3 0 0 0 221 221 221 222 222 222 0 0 0;#P user dial 317 14 36 36 128 1 0 0 223 270 2 0.3125 170 170 170 221 221 221 120 120 120 225 225 225 0 0 0 0 0 0;#P number 282 51 36 9 0 0 0 3 0 0 0 221 221 221 222 222 222 0 0 0;#P user dial 282 14 36 36 128 1 0 0 223 270 2 0.3125 170 170 170 221 221 221 120 120 120 225 225 225 0 0 0 0 0 0;#P number 247 51 36 9 0 0 0 3 0 0 0 221 221 221 222 222 222 0 0 0;#P user dial 247 14 36 36 128 1 0 0 223 270 2 0.3125 170 170 170 221 221 221 120 120 120 225 225 225 0 0 0 0 0 0;#P number 212 51 36 9 0 0 0 3 0 0 0 221 221 221 222 222 222 0 0 0;#P user dial 212 14 36 36 128 1 0 0 223 270 2 0.3125 170 170 170 221 221 221 120 120 120 225 225 225 0 0 0 0 0 0;#P number 177 51 36 9 0 0 0 3 0 0 0 221 221 221 222 222 222 0 0 0;#P user dial 177 14 36 36 128 1 0 0 223 270 2 0.3125 170 170 170 221 221 221 120 120 120 225 225 225 0 0 0 0 0 0;#P number 142 51 36 9 0 0 0 3 0 0 0 221 221 221 222 222 222 0 0 0;#P user uslider 608 14 18 91 128 1 0 0;#P user dial 142 14 36 36 128 1 0 0 223 270 2 0.3125 170 170 170 221 221 221 120 120 120 225 225 225 0 0 0 0 0 0;#N comlet pitchvel;#P hidden outlet 994 290 15 0;#N comlet expr;#P hidden outlet 903 290 15 0;#N comlet sus;#P hidden outlet 880 290 15 0;#N comlet mod;#P hidden outlet 854 290 15 0;#N comlet bend;#P hidden outlet 825 290 15 0;#N comlet l3;#P hidden outlet 777 290 15 0;#N comlet l2;#P hidden outlet 760 290 15 0;#N comlet l1;#P hidden outlet 743 290 15 0;#N comlet b6;#P hidden outlet 571 290 15 0;#N comlet b5;#P hidden outlet 554 290 15 0;#N comlet b4;#P hidden outlet 537 290 15 0;#N comlet b3;#P hidden outlet 520 290 15 0;#N comlet b2;#P hidden outlet 503 290 15 0;#N comlet b1;#P hidden outlet 486 290 15 0;#N comlet r8;#P hidden outlet 281 290 15 0;#N comlet r7;#P hidden outlet 264 290 15 0;#N comlet r6;#P hidden outlet 247 290 15 0;#N comlet r5;#P hidden outlet 230 290 15 0;#N comlet r4;#P hidden outlet 213 290 15 0;#N comlet r3;#P hidden outlet 196 290 15 0;#N comlet r2;#P hidden outlet 179 290 15 0;#N comlet r1;#P hidden outlet 162 290 15 0;#N comlet s8;#P hidden outlet 124 290 15 0;#N comlet s7;#P hidden outlet 107 290 15 0;#N comlet s6;#P hidden outlet 90 290 15 0;#N comlet s5;#P hidden outlet 73 290 15 0;#N comlet s4;#P hidden outlet 56 290 15 0;#N comlet s3;#P hidden outlet 39 290 15 0;#N comlet s2;#P hidden outlet 22 290 15 0;#N comlet s1;#P hidden outlet 5 290 15 0;#N comlet pitchvel;#P hidden inlet 993 241 15 0;#P hidden comment 981 228 45 196617 pitchvel;#N comlet expr;#P hidden inlet 903 241 15 0;#N comlet sus;#P hidden inlet 880 241 15 0;#N comlet mod;#P hidden inlet 854 241 15 0;#N comlet bend;#P hidden inlet 825 241 15 0;#P hidden comment 898 228 30 196617 expr;#P hidden comment 875 228 23 196617 sus;#P hidden comment 849 228 26 196617 mod;#P hidden comment 820 228 29 196617 bend;#N comlet l3;#P hidden inlet 777 241 15 0;#N comlet l2;#P hidden inlet 760 241 15 0;#N comlet l1;#P hidden inlet 743 241 15 0;#P hidden comment 777 228 20 196617 L3;#P hidden comment 760 228 20 196617 L2;#P hidden comment 743 228 20 196617 L1;#N comlet b6;#P hidden inlet 571 241 15 0;#N comlet b5;#P hidden inlet 554 241 15 0;#N comlet b4;#P hidden inlet 537 241 15 0;#N comlet b3;#P hidden inlet 520 241 15 0;#N comlet b2;#P hidden inlet 503 241 15 0;#N comlet b1;#P hidden inlet 486 241 15 0;#P hidden comment 571 228 20 196617 B6;#P hidden comment 554 228 20 196617 B5;#P hidden comment 537 228 20 196617 B4;#P hidden comment 520 228 20 196617 B3;#P hidden comment 503 228 20 196617 B2;#P hidden comment 486 228 20 196617 B1;#N comlet r8;#P hidden inlet 281 241 15 0;#N comlet r7;#P hidden inlet 264 241 15 0;#N comlet r6;#P hidden inlet 247 241 15 0;#N comlet r5;#P hidden inlet 230 241 15 0;#N comlet r4;#P hidden inlet 213 241 15 0;#N comlet r3;#P hidden inlet 196 241 15 0;#N comlet r2;#P hidden inlet 179 241 15 0;#N comlet r1;#P hidden inlet 162 241 15 0;#P hidden comment 281 228 20 196617 R8;#P hidden comment 264 228 20 196617 R7;#P hidden comment 247 228 20 196617 R6;#P hidden comment 230 228 20 196617 R5;#P hidden comment 213 228 20 196617 R4;#P hidden comment 196 228 20 196617 R3;#P hidden comment 179 228 20 196617 R2;#P hidden comment 162 228 20 196617 R1;#N comlet s8;#P hidden inlet 124 241 15 0;#N comlet s7;#P hidden inlet 107 241 15 0;#N comlet s6;#P hidden inlet 90 241 15 0;#N comlet s5;#P hidden inlet 73 241 15 0;#N comlet s4;#P hidden inlet 56 241 15 0;#N comlet s3;#P hidden inlet 39 241 15 0;#N comlet s2;#P hidden inlet 22 241 15 0;#N comlet s1;#P hidden inlet 5 241 15 0;#P hidden comment 124 228 20 196617 S8;#P hidden comment 107 228 20 196617 S7;#P hidden comment 90 228 20 196617 S6;#P hidden comment 73 228 20 196617 S5;#P hidden comment 56 228 20 196617 S4;#P hidden comment 39 228 20 196617 S3;#P hidden comment 22 228 20 196617 S2;#P hidden comment 5 228 20 196617 S1;#P comment 307 180 143 196617 |--------------------------|;#P comment 919 138 73 196617 --- pedals ---;#P hidden connect 163 1 168 0;#P hidden connect 109 0 62 0;#P hidden connect 111 0 63 0;#P hidden connect 186 0 187 0;#P hidden connect 187 0 185 0;#P hidden connect 49 0 130 0;#P hidden connect 56 0 163 0;#P hidden connect 113 0 64 0;#P hidden connect 50 0 131 0;#P hidden connect 115 0 65 0;#P hidden connect 163 0 167 0;#P hidden connect 117 0 66 0;#P hidden connect 51 0 132 0;#P hidden connect 119 0 67 0;#P hidden connect 57 0 163 1;#P hidden connect 263 0 260 0;#P hidden connect 121 0 68 0;#P hidden connect 123 0 69 0;#P hidden connect 26 0 92 0;#P hidden connect 92 0 94 0;#P hidden connect 221 0 242 0;#P hidden connect 40 0 124 0;#P hidden connect 137 0 133 0;#P hidden connect 61 0 133 0;#P hidden connect 133 0 134 0;#P hidden connect 192 0 190 0;#P hidden connect 94 0 70 0;#P hidden connect 27 0 95 0;#P hidden connect 95 0 96 0;#P hidden connect 222 0 243 0;#P hidden connect 41 0 125 0;#P hidden connect 133 1 135 0;#P hidden connect 96 0 71 0;#P hidden connect 98 0 72 0;#P hidden connect 28 0 97 0;#P hidden connect 97 0 98 0;#P hidden connect 223 0 244 0;#P hidden connect 42 0 126 0;#P hidden connect 100 0 73 0;#P hidden connect 102 0 74 0;#P hidden connect 29 0 99 0;#P hidden connect 99 0 100 0;#P hidden connect 224 0 245 0;#P hidden connect 43 0 127 0;#P hidden connect 104 0 75 0;#P hidden connect 106 0 76 0;#P hidden connect 108 0 77 0;#P hidden connect 30 0 101 0;#P hidden connect 101 0 102 0;#P hidden connect 225 0 246 0;#P hidden connect 44 0 128 0;#P hidden connect 198 0 196 0;#P hidden connect 31 0 103 0;#P hidden connect 103 0 104 0;#P hidden connect 226 0 247 0;#P hidden connect 45 0 129 0;#P hidden connect 242 0 227 0;#P hidden connect 243 0 228 0;#P hidden connect 32 0 105 0;#P hidden connect 105 0 106 0;#P hidden connect 236 0 254 0;#P hidden connect 209 0 200 0;#P hidden connect 244 0 229 0;#P hidden connect 245 0 230 0;#P hidden connect 33 0 107 0;#P hidden connect 107 0 108 0;#P hidden connect 237 0 255 0;#P hidden connect 210 0 201 0;#P hidden connect 246 0 231 0;#P hidden connect 247 0 232 0;#P hidden connect 195 0 197 0;#P hidden connect 197 0 198 0;#P hidden connect 238 0 256 0;#P hidden connect 211 0 202 0;#P hidden connect 254 0 239 0;#P hidden connect 255 0 240 0;#P hidden connect 256 0 241 0;#P hidden connect 284 0 265 0;#P hidden connect 285 0 288 0;#P hidden connect 124 0 78 0;#P hidden connect 276 0 267 0;#P hidden connect 125 0 79 0;#P hidden connect 126 0 80 0;#P hidden connect 277 0 268 0;#P hidden connect 127 0 81 0;#P hidden connect 278 0 269 0;#P hidden connect 128 0 82 0;#P hidden connect 129 0 83 0;#P hidden connect 200 0 212 0;#P hidden connect 93 0 109 0;#P hidden connect 201 0 213 0;#P hidden connect 10 0 93 0;#P hidden connect 202 0 214 0;#P hidden connect 110 0 111 0;#P hidden connect 11 0 110 0;#P hidden connect 267 0 279 0;#P hidden connect 268 0 280 0;#P hidden connect 291 0 293 0;#P hidden connect 112 0 113 0;#P hidden connect 269 0 281 0;#P hidden connect 12 0 112 0;#P hidden connect 265 0 286 0;#P hidden connect 114 0 115 0;#P hidden connect 13 0 114 0;#P hidden connect 288 0 287 0;#P hidden connect 116 0 117 0;#P hidden connect 130 0 84 0;#P hidden connect 14 0 116 0;#P hidden connect 131 0 85 0;#P hidden connect 176 0 181 0;#P hidden connect 118 0 119 0;#P hidden connect 132 0 86 0;#P hidden connect 15 0 118 0;#P hidden connect 260 0 264 0;#P hidden connect 120 0 121 0;#P hidden connect 179 0 183 0;#P hidden connect 16 0 120 0;#P hidden connect 167 0 87 0;#P hidden connect 122 0 123 0;#P hidden connect 17 0 122 0;#P hidden connect 168 0 88 0;#P hidden connect 191 0 192 0;#P hidden connect 173 0 89 0;#P hidden connect 189 0 191 0;#P hidden connect 171 0 90 0;#P hidden connect 58 0 173 0;#P hidden connect 293 0 292 0;#P hidden connect 59 0 169 0;#P hidden connect 169 0 171 0;#P hidden connect 181 0 177 0;#P hidden connect 134 0 172 0;#P hidden connect 172 0 91 0;#P hidden connect 135 0 172 1;#P hidden connect 183 0 180 0;#P pop;#P newobj 45 377 740 196617 p PCR-300_display;#B color 5;#P newex 45 583 196 196617 makecontrol $1/S1 $1 i 0 127 /common;#B color 5;#P newex 731 274 42 196617 touchin;#P newex 717 255 54 196617 ctlin 11;#P newex 703 236 54 196617 ctlin 64;#P newex 689 217 54 196617 ctlin 1;#P newex 675 198 54 196617 bendin;#P number 785 352 35 9 0 0 0 3 0 0 0 221 221 221 222 222 222 0 0 0;#P newex 791 293 35 196617 pack;#P newex 791 273 60 196617 notein;#P newex 440 332 60 196617 ctlin 82 11;#P newex 440 313 60 196617 ctlin 82 15;#P newex 440 294 60 196617 ctlin 82 14;#P newex 440 275 60 196617 ctlin 82 9;#P newex 440 256 54 196617 ctlin 19 2;#P newex 440 237 54 196617 ctlin 19 1;#P newex 440 218 54 196617 ctlin 82 3;#P newex 440 199 54 196617 ctlin 82 2;#P newex 440 180 54 196617 ctlin 82 1;#P newex 337 332 54 196617 ctlin 83 2;#P newex 337 313 54 196617 ctlin 81 8;#P newex 337 294 54 196617 ctlin 81 7;#P newex 337 275 54 196617 ctlin 81 6;#P newex 337 256 54 196617 ctlin 81 5;#P newex 337 237 54 196617 ctlin 81 4;#P newex 337 218 54 196617 ctlin 81 3;#P newex 337 199 54 196617 ctlin 81 2;#P newex 337 180 54 196617 ctlin 81 1;#P newex 235 332 54 196617 ctlin 83 1;#P newex 235 313 54 196617 ctlin 80 8;#P newex 235 294 54 196617 ctlin 80 7;#P newex 235 275 54 196617 ctlin 80 6;#P newex 235 256 54 196617 ctlin 80 5;#P newex 235 237 54 196617 ctlin 80 4;#P newex 235 218 54 196617 ctlin 80 3;#P newex 235 199 54 196617 ctlin 80 2;#P newex 235 180 54 196617 ctlin 80 1;#P newex 133 332 54 196617 ctlin 18 1;#P newex 133 313 54 196617 ctlin 16 8;#P newex 133 294 54 196617 ctlin 16 7;#P newex 133 275 54 196617 ctlin 16 6;#P newex 133 256 54 196617 ctlin 16 5;#P newex 133 237 54 196617 ctlin 16 4;#P newex 133 218 54 196617 ctlin 16 3;#P newex 133 199 54 196617 ctlin 16 2;#P newex 133 180 54 196617 ctlin 16 1;#P newex 34 332 54 196617 ctlin 18 2;#P newex 34 313 54 196617 ctlin 17 8;#P newex 34 294 54 196617 ctlin 17 7;#P newex 34 275 54 196617 ctlin 17 6;#P newex 34 256 54 196617 ctlin 17 5;#P newex 34 237 54 196617 ctlin 17 4;#P newex 34 218 54 196617 ctlin 17 3;#P newex 34 199 54 196617 ctlin 17 2;#P newex 547 160 83 196617 r $1/midiinputs;#B color 6;#P newex 34 180 54 196617 ctlin 17 1;#P hidden connect 1 0 0 0;#P lcolor 1;#P hidden connect 1 0 2 0;#P lcolor 1;#P hidden connect 1 0 3 0;#P lcolor 1;#P hidden connect 1 0 4 0;#P lcolor 1;#P hidden connect 1 0 5 0;#P lcolor 1;#P hidden connect 1 0 6 0;#P lcolor 1;#P hidden connect 1 0 7 0;#P lcolor 1;#P hidden connect 1 0 8 0;#P lcolor 1;#P hidden connect 1 0 9 0;#P lcolor 1;#P connect 126 0 127 0;#P connect 0 0 55 0;#P connect 55 0 54 0;#P connect 2 0 55 1;#P connect 55 1 56 0;#P connect 3 0 55 2;#P connect 55 2 57 0;#P connect 4 0 55 3;#P connect 55 3 58 0;#P connect 122 0 133 0;#P connect 127 1 133 0;#P connect 5 0 55 4;#P connect 55 4 59 0;#P connect 6 0 55 5;#P connect 55 5 60 0;#P connect 7 0 55 6;#P connect 55 6 61 0;#P hidden connect 1 0 10 0;#P lcolor 1;#P hidden connect 1 0 11 0;#P lcolor 1;#P hidden connect 1 0 12 0;#P lcolor 1;#P hidden connect 1 0 13 0;#P lcolor 1;#P hidden connect 1 0 14 0;#P lcolor 1;#P hidden connect 1 0 15 0;#P lcolor 1;#P hidden connect 1 0 16 0;#P lcolor 1;#P hidden connect 1 0 17 0;#P lcolor 1;#P hidden connect 1 0 18 0;#P lcolor 1;#P connect 121 0 123 0;#P connect 123 0 122 0;#P connect 8 0 55 7;#P connect 55 7 62 0;#P connect 9 0 55 8;#P connect 55 8 63 0;#P connect 10 0 55 9;#P connect 55 9 64 0;#P connect 11 0 55 10;#P connect 55 10 65 0;#P connect 12 0 55 11;#P connect 55 11 66 0;#P connect 13 0 55 12;#P connect 55 12 67 0;#P connect 14 0 55 13;#P connect 55 13 68 0;#P hidden connect 1 0 19 0;#P lcolor 1;#P hidden connect 1 0 20 0;#P lcolor 1;#P hidden connect 1 0 21 0;#P lcolor 1;#P hidden connect 1 0 22 0;#P lcolor 1;#P hidden connect 1 0 23 0;#P lcolor 1;#P hidden connect 1 0 24 0;#P lcolor 1;#P hidden connect 1 0 25 0;#P lcolor 1;#P hidden connect 1 0 26 0;#P lcolor 1;#P hidden connect 1 0 27 0;#P lcolor 1;#P connect 15 0 55 14;#P connect 55 14 69 0;#P connect 16 0 55 15;#P connect 55 15 70 0;#P connect 17 0 55 16;#P connect 55 16 71 0;#P connect 18 0 55 17;#P connect 55 17 72 0;#P connect 19 0 55 18;#P connect 55 18 73 0;#P connect 20 0 55 19;#P connect 55 19 74 0;#P connect 21 0 55 20;#P connect 55 20 75 0;#P hidden connect 1 0 28 0;#P lcolor 1;#P hidden connect 1 0 29 0;#P lcolor 1;#P hidden connect 1 0 30 0;#P lcolor 1;#P hidden connect 1 0 31 0;#P lcolor 1;#P hidden connect 1 0 32 0;#P lcolor 1;#P hidden connect 1 0 33 0;#P lcolor 1;#P hidden connect 1 0 34 0;#P lcolor 1;#P hidden connect 1 0 35 0;#P lcolor 1;#P hidden connect 1 0 36 0;#P lcolor 1;#P connect 22 0 55 21;#P connect 55 21 76 0;#P connect 23 0 55 22;#P connect 55 22 77 0;#P connect 24 0 55 23;#P connect 55 23 78 0;#P connect 120 0 125 0;#P connect 124 0 125 0;#P fasten 125 1 117 0 488 123 384 123;#P connect 25 0 55 24;#P connect 55 24 79 0;#P connect 119 0 120 0;#P connect 26 0 55 25;#P connect 55 25 80 0;#P connect 27 0 55 26;#P connect 55 26 81 0;#P connect 28 0 55 27;#P connect 55 27 82 0;#P connect 29 0 55 28;#P connect 55 28 83 0;#P hidden connect 1 0 37 0;#P lcolor 1;#P hidden connect 1 0 38 0;#P lcolor 1;#P hidden connect 1 0 39 0;#P lcolor 1;#P hidden connect 1 0 40 0;#P lcolor 1;#P hidden connect 1 0 41 0;#P lcolor 1;#P hidden connect 1 0 42 0;#P lcolor 1;#P hidden connect 1 0 43 0;#P lcolor 1;#P hidden connect 1 0 44 0;#P lcolor 1;#P hidden connect 1 0 45 0;#P lcolor 1;#P connect 30 0 55 29;#P connect 55 29 84 0;#P connect 31 0 55 30;#P connect 55 30 85 0;#P connect 32 0 55 31;#P connect 55 31 86 0;#P connect 33 0 55 32;#P connect 55 32 87 0;#P connect 34 0 55 33;#P connect 55 33 88 0;#P connect 35 0 55 34;#P connect 55 34 89 0;#P connect 36 0 55 35;#P connect 55 35 90 0;#P connect 37 0 55 36;#P connect 55 36 91 0;#P connect 38 0 55 37;#P connect 55 37 92 0;#P connect 39 0 55 38;#P connect 55 38 93 0;#P connect 40 0 55 39;#P connect 55 39 94 0;#P connect 41 0 55 40;#P connect 55 40 95 0;#P connect 42 0 55 41;#P connect 55 41 96 0;#P connect 43 0 55 42;#P connect 55 42 97 0;#P connect 44 0 55 43;#P connect 55 43 98 0;#P connect 45 0 55 44;#P connect 55 44 99 0;#P hidden connect 1 0 49 0;#P lcolor 1;#P connect 49 0 55 45;#P connect 55 45 110 0;#P hidden connect 1 0 50 0;#P lcolor 1;#P connect 50 0 55 46;#P connect 55 46 111 0;#P hidden connect 1 0 51 0;#P lcolor 1;#P connect 51 0 55 47;#P connect 55 47 112 0;#P hidden connect 1 0 52 0;#P lcolor 1;#P connect 52 0 55 48;#P connect 55 48 113 0;#P hidden connect 1 0 53 0;#P lcolor 1;#P connect 53 0 55 49;#P connect 55 49 114 0;#P hidden connect 1 0 100 0;#P lcolor 1;#P connect 100 0 55 50;#P connect 55 50 115 0;#P connect 47 0 55 51;#P connect 55 52 116 0;#P connect 48 0 55 52;#P connect 132 0 131 0;#P connect 135 0 131 0;#P connect 131 0 128 0;#P connect 128 0 130 0;#P connect 100 1 48 0;#P connect 46 2 48 0;#P connect 52 1 48 0;#P connect 51 1 48 0;#P connect 50 1 48 0;#P connect 49 1 48 0;#P connect 53 1 48 0;#P hidden connect 1 0 46 0;#P lcolor 1;#P connect 46 0 47 0;#P connect 46 1 47 1;#P connect 55 51 109 0;#P connect 109 0 104 0;#P connect 104 0 107 0;#P fasten 135 1 134 0 1006 100 884 100;#P connect 104 0 142 0;#P connect 142 0 141 0;#P connect 104 1 142 1;#P connect 104 1 108 0;#P fasten 109 1 140 0 940 561 928 561;#P connect 109 1 103 0;#P connect 103 0 106 0;#P connect 106 0 101 0;#P connect 103 1 105 0;#P connect 105 0 102 0;#P connect 143 0 136 0;#P connect 136 0 135 0;#P fasten 135 2 129 0 1021 102 1085 102;#P pop;