max v2;#N vpatcher 224 100 1412 820;#P window setfont "Sans Serif" 9.;#P newex 1006 58 151 196617 moduleinit $1;#B color 13;#P newex 623 246 30 196617 pack;#P newex 688 154 278 196617 makecontrol $1/strippitchvel $1 li 0 127 /common;#B color 5;#P newex 704 180 278 196617 makecontrol $1/pitchvel $1 li 0 127 /common;#B color 5;#P window setfont "Sans Serif" 14.;#N vpatcher 10 59 644 765;#P window setfont "Sans Serif" 18.;#P comment 1 1 250 196626 PCR-M30 assignement data;#B frgb 0 0 200;#P user fpic 0 26 618 664 basic25-polypressure.png 0 0 0 0. 0 0 0;#P pop;#P newobj 804 39 108 196622 p assign_data;#B color 13;#P window setfont "Sans Serif" 9.;#P newex 613 204 74 196617 t l l;#N vpatcher 323 97 1167 317;#P window setfont "Sans Serif" 9.;#P window linecount 1;#P hidden newex 24 -15 93 196617 fixedsize 845 220;#B color 6;#P hidden newex 24 -35 180 196617 editorwindow $1/display /tapemovie;#B color 11;#N thispatcher;#Q end;#P hidden newobj 24 5 70 196617 thispatcher;#P comment 781 161 38 196617 chanel;#P window setfont "Sans Serif" 12.;#P number 781 173 39 12 0 127 3 3 0 0 0 221 221 221 222 222 222 0 0 0;#P window setfont "Sans Serif" 9.;#P comment 738 161 30 196617 prog;#P window setfont "Sans Serif" 12.;#P number 738 173 39 12 0 127 3 3 0 0 0 221 221 221 222 222 222 0 0 0;#N comlet channel;#P hidden outlet 739 289 15 0;#N comlet channel;#P hidden inlet 739 240 15 0;#P window setfont "Sans Serif" 9.;#P hidden comment 734 227 43 196617 channel;#N comlet prog;#P hidden outlet 705 289 15 0;#N comlet prog;#P hidden inlet 705 240 15 0;#P hidden comment 700 227 30 196617 prog;#P window linecount 0;#P comment 759 3 20 196617 sus;#P toggle 754 14 29 0;#P hidden newex 661 270 29 196617 pack;#P number 784 122 36 9 0 0 0 3 0 0 0 221 221 221 222 222 222 0 0 0;#P comment 788 3 30 196617 expr;#P user uslider 784 14 36 91 128 1 0 0;#P number 3 118 31 9 0 0 0 3 0 0 0 221 221 221 222 222 222 0 0 0;#P number 65 160 31 9 0 0 0 3 0 0 0 221 221 221 222 222 222 0 0 0;#P comment 328 188 99 196617 range for oct trsp 0;#P comment 6 105 26 196617 mod;#P comment 35 161 29 196617 bend;#P user pictslider 35 84 75 75 4 4 4 4 SliderDefaultKnob.pct 1 SliderDefaultBkgnd.pct 1 2163 0 8323072 127 1. 1.;#P comment 98 34 20 196617 L3;#P comment 63 34 20 196617 L2;#P comment 28 34 20 196617 L1;#P comment 399 74 20 196617 B6;#P comment 364 74 20 196617 B5;#P comment 329 74 20 196617 B4;#P comment 294 74 20 196617 B3;#P comment 259 74 20 196617 B2;#P comment 224 74 20 196617 B1;#P comment 395 3 20 196617 R8;#P comment 360 3 20 196617 R7;#P comment 325 3 20 196617 R6;#P comment 290 3 20 196617 R5;#P comment 255 3 20 196617 R4;#P comment 220 3 20 196617 R3;#P comment 185 3 20 196617 R2;#P comment 150 3 20 196617 R1;#P comment 690 3 20 196617 S8;#P comment 655 3 20 196617 S7;#P comment 620 3 20 196617 S6;#P comment 585 3 20 196617 S5;#P comment 550 3 20 196617 S4;#P comment 515 3 20 196617 S3;#P comment 480 3 20 196617 S2;#P comment 445 3 20 196617 S1;#P message 636 181 32 196617 clear;#P user panel 668 145 14 36;#X brgb 255 255 255;#X frgb 255 255 255;#X border 1;#X rounded 0;#X shadow 0;#X done;#P number 179 181 35 9 0 0 0 3 0 0 0 221 221 221 222 222 222 0 0 0;#P number 142 181 35 9 0 0 0 3 0 0 0 221 221 221 222 222 222 0 0 0;#P user kslider 142 145 35 1 0 132 19 7 1 92 150 206 92 150 206 255 255 255 0 0 0 0 0 0;#P toggle 93 45 29 0;#P toggle 58 45 29 0;#P toggle 23 45 29 0;#P toggle 394 85 29 0;#P toggle 359 85 29 0;#P toggle 324 85 29 0;#P toggle 289 85 29 0;#P toggle 254 85 29 0;#P toggle 219 85 29 0;#P number 683 122 36 9 0 0 0 3 0 0 0 221 221 221 222 222 222 0 0 0;#P user uslider 691 14 18 91 128 1 0 0;#P number 648 122 36 9 0 0 0 3 0 0 0 221 221 221 222 222 222 0 0 0;#P user uslider 656 14 18 91 128 1 0 0;#P number 613 122 36 9 0 0 0 3 0 0 0 221 221 221 222 222 222 0 0 0;#P user uslider 621 14 18 91 128 1 0 0;#P number 578 122 36 9 0 0 0 3 0 0 0 221 221 221 222 222 222 0 0 0;#P user uslider 586 14 18 91 128 1 0 0;#P number 543 122 36 9 0 0 0 3 0 0 0 221 221 221 222 222 222 0 0 0;#P user uslider 551 14 18 91 128 1 0 0;#P number 508 122 36 9 0 0 0 3 0 0 0 221 221 221 222 222 222 0 0 0;#P user uslider 516 14 18 91 128 1 0 0;#P number 473 122 36 9 0 0 0 3 0 0 0 221 221 221 222 222 222 0 0 0;#P user uslider 481 14 18 91 128 1 0 0;#P number 438 122 36 9 0 0 0 3 0 0 0 221 221 221 222 222 222 0 0 0;#P number 387 51 36 9 0 0 0 3 0 0 0 221 221 221 222 222 222 0 0 0;#P user dial 387 14 36 36 128 1 0 0 223 270 2 0.3125 170 170 170 221 221 221 120 120 120 225 225 225 0 0 0 0 0 0;#P number 352 51 36 9 0 0 0 3 0 0 0 221 221 221 222 222 222 0 0 0;#P user dial 352 14 36 36 128 1 0 0 223 270 2 0.3125 170 170 170 221 221 221 120 120 120 225 225 225 0 0 0 0 0 0;#P number 317 51 36 9 0 0 0 3 0 0 0 221 221 221 222 222 222 0 0 0;#P user dial 317 14 36 36 128 1 0 0 223 270 2 0.3125 170 170 170 221 221 221 120 120 120 225 225 225 0 0 0 0 0 0;#P number 282 51 36 9 0 0 0 3 0 0 0 221 221 221 222 222 222 0 0 0;#P user dial 282 14 36 36 128 1 0 0 223 270 2 0.3125 170 170 170 221 221 221 120 120 120 225 225 225 0 0 0 0 0 0;#P number 247 51 36 9 0 0 0 3 0 0 0 221 221 221 222 222 222 0 0 0;#P user dial 247 14 36 36 128 1 0 0 223 270 2 0.3125 170 170 170 221 221 221 120 120 120 225 225 225 0 0 0 0 0 0;#P number 212 51 36 9 0 0 0 3 0 0 0 221 221 221 222 222 222 0 0 0;#P user dial 212 14 36 36 128 1 0 0 223 270 2 0.3125 170 170 170 221 221 221 120 120 120 225 225 225 0 0 0 0 0 0;#P number 177 51 36 9 0 0 0 3 0 0 0 221 221 221 222 222 222 0 0 0;#P user dial 177 14 36 36 128 1 0 0 223 270 2 0.3125 170 170 170 221 221 221 120 120 120 225 225 225 0 0 0 0 0 0;#P number 142 51 36 9 0 0 0 3 0 0 0 221 221 221 222 222 222 0 0 0;#P user uslider 446 14 18 91 128 1 0 0;#P user dial 142 14 36 36 128 1 0 0 223 270 2 0.3125 170 170 170 221 221 221 120 120 120 225 225 225 0 0 0 0 0 0;#N comlet pitchvel;#P hidden outlet 661 290 15 0;#N comlet expr;#P hidden outlet 620 290 15 0;#N comlet sus;#P hidden outlet 586 290 15 0;#N comlet mod;#P hidden outlet 552 290 15 0;#N comlet bend;#P hidden outlet 518 290 15 0;#N comlet l3;#P hidden outlet 479 290 15 0;#N comlet l2;#P hidden outlet 462 290 15 0;#N comlet l1;#P hidden outlet 445 290 15 0;#N comlet b6;#P hidden outlet 411 290 15 0;#N comlet b5;#P hidden outlet 394 290 15 0;#N comlet b4;#P hidden outlet 377 290 15 0;#N comlet b3;#P hidden outlet 360 290 15 0;#N comlet b2;#P hidden outlet 343 290 15 0;#N comlet b1;#P hidden outlet 326 290 15 0;#N comlet r8;#P hidden outlet 281 290 15 0;#N comlet r7;#P hidden outlet 264 290 15 0;#N comlet r6;#P hidden outlet 247 290 15 0;#N comlet r5;#P hidden outlet 230 290 15 0;#N comlet r4;#P hidden outlet 213 290 15 0;#N comlet r3;#P hidden outlet 196 290 15 0;#N comlet r2;#P hidden outlet 179 290 15 0;#N comlet r1;#P hidden outlet 162 290 15 0;#N comlet s8;#P hidden outlet 124 290 15 0;#N comlet s7;#P hidden outlet 107 290 15 0;#N comlet s6;#P hidden outlet 90 290 15 0;#N comlet s5;#P hidden outlet 73 290 15 0;#N comlet s4;#P hidden outlet 56 290 15 0;#N comlet s3;#P hidden outlet 39 290 15 0;#N comlet s2;#P hidden outlet 22 290 15 0;#N comlet s1;#P hidden outlet 5 290 15 0;#N comlet pitchvel;#P hidden inlet 660 241 15 0;#P hidden comment 648 228 45 196617 pitchvel;#N comlet expr;#P hidden inlet 620 241 15 0;#N comlet sus;#P hidden inlet 586 241 15 0;#N comlet mod;#P hidden inlet 552 241 15 0;#N comlet bend;#P hidden inlet 518 241 15 0;#P hidden comment 615 228 30 196617 expr;#P hidden comment 581 228 23 196617 sus;#P hidden comment 547 228 26 196617 mod;#P hidden comment 513 228 29 196617 bend;#N comlet l3;#P hidden inlet 479 241 15 0;#N comlet l2;#P hidden inlet 462 241 15 0;#N comlet l1;#P hidden inlet 445 241 15 0;#P hidden comment 479 228 20 196617 L3;#P hidden comment 462 228 20 196617 L2;#P hidden comment 445 228 20 196617 L1;#N comlet b6;#P hidden inlet 411 241 15 0;#N comlet b5;#P hidden inlet 394 241 15 0;#N comlet b4;#P hidden inlet 377 241 15 0;#N comlet b3;#P hidden inlet 360 241 15 0;#N comlet b2;#P hidden inlet 343 241 15 0;#N comlet b1;#P hidden inlet 326 241 15 0;#P hidden comment 411 228 20 196617 B6;#P hidden comment 394 228 20 196617 B5;#P hidden comment 377 228 20 196617 B4;#P hidden comment 360 228 20 196617 B3;#P hidden comment 343 228 20 196617 B2;#P hidden comment 326 228 20 196617 B1;#N comlet r8;#P hidden inlet 281 241 15 0;#N comlet r7;#P hidden inlet 264 241 15 0;#N comlet r6;#P hidden inlet 247 241 15 0;#N comlet r5;#P hidden inlet 230 241 15 0;#N comlet r4;#P hidden inlet 213 241 15 0;#N comlet r3;#P hidden inlet 196 241 15 0;#N comlet r2;#P hidden inlet 179 241 15 0;#N comlet r1;#P hidden inlet 162 241 15 0;#P hidden comment 281 228 20 196617 R8;#P hidden comment 264 228 20 196617 R7;#P hidden comment 247 228 20 196617 R6;#P hidden comment 230 228 20 196617 R5;#P hidden comment 213 228 20 196617 R4;#P hidden comment 196 228 20 196617 R3;#P hidden comment 179 228 20 196617 R2;#P hidden comment 162 228 20 196617 R1;#N comlet s8;#P hidden inlet 124 241 15 0;#N comlet s7;#P hidden inlet 107 241 15 0;#N comlet s6;#P hidden inlet 90 241 15 0;#N comlet s5;#P hidden inlet 73 241 15 0;#N comlet s4;#P hidden inlet 56 241 15 0;#N comlet s3;#P hidden inlet 39 241 15 0;#N comlet s2;#P hidden inlet 22 241 15 0;#N comlet s1;#P hidden inlet 5 241 15 0;#P hidden comment 124 228 20 196617 S8;#P hidden comment 107 228 20 196617 S7;#P hidden comment 90 228 20 196617 S6;#P hidden comment 73 228 20 196617 S5;#P hidden comment 56 228 20 196617 S4;#P hidden comment 39 228 20 196617 S3;#P hidden comment 22 228 20 196617 S2;#P hidden comment 5 228 20 196617 S1;#P comment 307 180 143 196617 |--------------------------|;#P comment 752 138 73 196617 --- pedals ---;#P hidden connect 163 1 168 0;#P hidden connect 109 0 62 0;#P hidden connect 111 0 63 0;#P hidden connect 49 0 130 0;#P hidden connect 186 0 187 0;#P hidden connect 187 0 185 0;#P hidden connect 56 0 163 0;#P hidden connect 113 0 64 0;#P hidden connect 115 0 65 0;#P hidden connect 50 0 131 0;#P hidden connect 163 0 167 0;#P hidden connect 117 0 66 0;#P hidden connect 119 0 67 0;#P hidden connect 51 0 132 0;#P hidden connect 57 0 163 1;#P hidden connect 121 0 68 0;#P hidden connect 123 0 69 0;#P hidden connect 26 0 92 0;#P hidden connect 92 0 94 0;#P hidden connect 137 0 133 0;#P hidden connect 61 0 133 0;#P hidden connect 133 0 134 0;#P hidden connect 94 0 70 0;#P hidden connect 27 0 95 0;#P hidden connect 95 0 96 0;#P hidden connect 133 1 135 0;#P hidden connect 96 0 71 0;#P hidden connect 98 0 72 0;#P hidden connect 28 0 97 0;#P hidden connect 97 0 98 0;#P hidden connect 100 0 73 0;#P hidden connect 40 0 124 0;#P hidden connect 102 0 74 0;#P hidden connect 29 0 99 0;#P hidden connect 99 0 100 0;#P hidden connect 104 0 75 0;#P hidden connect 41 0 125 0;#P hidden connect 106 0 76 0;#P hidden connect 108 0 77 0;#P hidden connect 30 0 101 0;#P hidden connect 101 0 102 0;#P hidden connect 42 0 126 0;#P hidden connect 31 0 103 0;#P hidden connect 103 0 104 0;#P hidden connect 43 0 127 0;#P hidden connect 124 0 78 0;#P hidden connect 125 0 79 0;#P hidden connect 32 0 105 0;#P hidden connect 105 0 106 0;#P hidden connect 44 0 128 0;#P hidden connect 126 0 80 0;#P hidden connect 127 0 81 0;#P hidden connect 33 0 107 0;#P hidden connect 107 0 108 0;#P hidden connect 45 0 129 0;#P hidden connect 128 0 82 0;#P hidden connect 129 0 83 0;#P hidden connect 93 0 109 0;#P hidden connect 130 0 84 0;#P hidden connect 10 0 93 0;#P hidden connect 131 0 85 0;#P hidden connect 110 0 111 0;#P hidden connect 132 0 86 0;#P hidden connect 11 0 110 0;#P hidden connect 112 0 113 0;#P hidden connect 12 0 112 0;#P hidden connect 167 0 87 0;#P hidden connect 114 0 115 0;#P hidden connect 13 0 114 0;#P hidden connect 168 0 88 0;#P hidden connect 116 0 117 0;#P hidden connect 14 0 116 0;#P hidden connect 173 0 89 0;#P hidden connect 118 0 119 0;#P hidden connect 171 0 90 0;#P hidden connect 15 0 118 0;#P hidden connect 120 0 121 0;#P hidden connect 16 0 120 0;#P hidden connect 134 0 172 0;#P hidden connect 172 0 91 0;#P hidden connect 135 0 172 1;#P hidden connect 122 0 123 0;#P hidden connect 17 0 122 0;#P hidden connect 181 0 177 0;#P hidden connect 176 0 181 0;#P hidden connect 183 0 180 0;#P hidden connect 58 0 173 0;#P hidden connect 179 0 183 0;#P hidden connect 59 0 169 0;#P hidden connect 169 0 171 0;#P pop;#P newobj 69 325 445 196617 p PCR-M30_display;#B color 5;#P newex 599 344 297 196617 makecontrol $1/channel $1 i 1 16 /common;#B color 5;#P number 600 173 35 9 0 0 0 3 0 0 0 221 221 221 222 222 222 0 0 0;#P newex 525 438 284 196617 makecontrol $1/bend $1 i 0 127 /common;#B color 5;#P number 559 173 35 9 0 0 0 3 0 0 0 221 221 221 222 222 222 0 0 0;#P newex 590 365 284 196617 makecontrol $1/prog $1 i 0 127 /common;#B color 5;#P number 518 173 35 9 0 0 0 3 0 0 0 221 221 221 222 222 222 0 0 0;#P newex 543 420 282 196617 makecontrol $1/mod $1 i 0 127 /common;#B color 5;#P newex 579 384 276 196617 makecontrol $1/P2 $1 i 0 127 /common;#B color 5;#P newex 561 402 276 196617 makecontrol $1/P1 $1 i 0 127 /common;#B color 5;#P number 470 260 35 9 0 0 0 3 0 0 0 221 221 221 222 222 222 0 0 0;#P number 430 260 35 9 0 0 0 3 0 0 0 221 221 221 222 222 222 0 0 0;#P number 390 260 35 9 0 0 0 3 0 0 0 221 221 221 222 222 222 0 0 0;#P newex 390 239 90 196617 gate 3;#P newex 473 212 21 196617 t 3;#P newex 450 212 21 196617 t 2;#P newex 427 212 21 196617 t 1;#P newex 427 191 81 196617 sel 64 11 1;#P newex 390 170 47 196617 swap;#P newex 19 48 67 196617 route <none>;#P newex 19 28 188 196617 makeparam $1/mididevice $1 s <none>;#B color 12;#P newex 654 301 300 196617 makecontrol $1/stripvel $1 i 0 127 /common;#B color 5;#P newex 613 320 308 196617 makecontrol $1/strippitch $1 i 0 127 /common;#B color 5;#P number 677 244 35 9 0 0 0 3 0 0 0 221 221 221 222 222 222 0 0 0;#P number 715 244 35 9 0 0 0 3 0 0 0 221 221 221 222 222 222 0 0 0;#P newex 613 224 51 196617 stripnote;#P newex 677 224 48 196617 unpack;#P newex 715 263 278 196617 makecontrol $1/vel $1 i 0 127 /common;#B color 5;#P newex 677 282 286 196617 makecontrol $1/pitch $1 i 0 127 /common;#B color 5;#P newex 502 474 275 196617 makecontrol $1/L3 $1 i 0 127 /common;#B color 5;#P newex 488 492 275 196617 makecontrol $1/L2 $1 i 0 127 /common;#B color 5;#P newex 474 510 275 196617 makecontrol $1/L1 $1 i 0 127 /common;#B color 5;#P newex 480 573 276 196617 makecontrol $1/B6 $1 i 0 127 /common;#B color 5;#P newex 466 591 276 196617 makecontrol $1/B5 $1 i 0 127 /common;#B color 5;#P newex 452 609 276 196617 makecontrol $1/B4 $1 i 0 127 /common;#B color 5;#P newex 438 627 276 196617 makecontrol $1/B3 $1 i 0 127 /common;#B color 5;#P newex 424 645 276 196617 makecontrol $1/B2 $1 i 0 127 /common;#B color 5;#P newex 410 663 276 196617 makecontrol $1/B1 $1 i 0 127 /common;#B color 5;#P newex 279 384 276 196617 makecontrol $1/R8 $1 i 0 127 /common;#B color 5;#P newex 265 402 276 196617 makecontrol $1/R7 $1 i 0 127 /common;#B color 5;#P newex 251 420 276 196617 makecontrol $1/R6 $1 i 0 127 /common;#B color 5;#P newex 237 438 276 196617 makecontrol $1/R5 $1 i 0 127 /common;#B color 5;#P newex 223 456 276 196617 makecontrol $1/R4 $1 i 0 127 /common;#B color 5;#P newex 209 474 276 196617 makecontrol $1/R3 $1 i 0 127 /common;#B color 5;#P newex 195 492 276 196617 makecontrol $1/R2 $1 i 0 127 /common;#B color 5;#P newex 181 510 276 196617 makecontrol $1/R1 $1 i 0 127 /common;#B color 5;#P newex 167 537 276 196617 makecontrol $1/S8 $1 i 0 127 /common;#B color 5;#P newex 153 555 276 196617 makecontrol $1/S7 $1 i 0 127 /common;#B color 5;#P newex 139 573 276 196617 makecontrol $1/S6 $1 i 0 127 /common;#B color 5;#P newex 125 591 276 196617 makecontrol $1/S5 $1 i 0 127 /common;#B color 5;#P newex 111 609 276 196617 makecontrol $1/S4 $1 i 0 127 /common;#B color 5;#P newex 97 627 276 196617 makecontrol $1/S3 $1 i 0 127 /common;#B color 5;#P newex 83 645 276 196617 makecontrol $1/S2 $1 i 0 127 /common;#B color 5;#P newex 19 132 92 196617 midiparse;#P newex 434 102 114 196617 pvar mididevicemenu 2;#P newex 434 29 125 196617 r $1/mididevicemenu;#B color 6;#P newex 929 560 48 196617 loadbang;#P toggle 99 75 15 0;#P message 99 95 53 196617 enable \$1;#P newex 99 53 221 196617 makeswitch $1/sw $1 common_switchstate 0;#B color 12;#P newex 19 111 37 196617 midiin;#P newex 69 663 276 196617 makecontrol $1/S1 $1 i 0 127 /common;#B color 5;#P message 929 582 60 196617 controllers;#P newex 929 621 178 196617 s $1/mididevicemenu;#B color 12;#P window linecount 40;#P message 1006 86 135 196617 bang \; $1/sw/init bang \; $1/pitch/init bang \; $1/vel/init bang \; $1/pitchvel/init bang \; $1/strippitch/init bang \; $1/stripvel/init bang \; $1/strippitchvel/init bang \; $1/bend/init bang \; $1/mod/init bang \; $1/P1/init bang \; $1/P2/init bang \; $1/S1/init bang \; $1/S2/init bang \; $1/S3/init bang \; $1/S4/init bang \; $1/S5/init bang \; $1/S6/init bang \; $1/S7/init bang \; $1/S8/init bang \; $1/R1/init bang \; $1/R2/init bang \; $1/R3/init bang \; $1/R4/init bang \; $1/R5/init bang \; $1/R6/init bang \; $1/R7/init bang \; $1/R8/init bang \; $1/B1/init bang \; $1/B2/init bang \; $1/B3/init bang \; $1/B4/init bang \; $1/B5/init bang \; $1/B6/init bang \; $1/L1/init bang \; $1/L2/init bang \; $1/L3/init bang \; $1/prog/init bang \; $1/channel/init bang \; control_register/store $1 \;;#P window linecount 1;#P newex 929 601 45 196617 midiinfo;#B color 5;#P number 69 259 35 9 0 0 0 3 0 0 0 221 221 221 222 222 222 0 0 0;#P number 32 259 35 9 0 0 0 3 0 0 0 221 221 221 222 222 222 0 0 0;#P window linecount 4;#P comment 804 63 163 196617 uses poly aftertouch. send bulk dump "basic25-polypressure.mid" (in /pcrm-mapdata) if not already loaded into PCR-M30;#B frgb 255 0 0;#P window linecount 1;#P newex 69 290 459 196617 gate 33;#P newex 32 236 47 196617 swap;#P newex 449 79 62 196617 prepend set;#P newex 449 59 125 196617 r $1/mididevice;#B color 6;#P user umenu 604 36 174 196647 1 64 52 1;#X add "to MaxMSP 1";#X add "to MaxMSP 2";#P objectname mididevicemenu;#P newex 434 130 125 196617 s $1/mididevice;#B color 6;#P comment 804 26 133 196617 PCR-M30 assignement data;#P connect 55 0 56 0;#P connect 17 0 15 0;#P connect 56 1 15 0;#P connect 15 0 22 0;#P connect 22 1 5 0;#P lcolor 7;#P connect 5 0 8 0;#P connect 5 1 9 0;#P connect 9 0 6 0;#P connect 6 0 75 0;#P connect 75 0 14 0;#P connect 6 1 75 1;#P connect 75 1 23 0;#P connect 6 2 75 2;#P connect 75 2 24 0;#P connect 16 0 18 0;#P connect 18 0 17 0;#P connect 6 3 75 3;#P connect 75 3 25 0;#P connect 6 4 75 4;#P connect 75 4 26 0;#P connect 6 5 75 5;#P connect 75 5 27 0;#P connect 6 6 75 6;#P connect 75 6 28 0;#P connect 6 7 75 7;#P connect 75 7 29 0;#P connect 6 10 75 8;#P connect 75 8 30 0;#P connect 6 11 75 9;#P connect 75 9 31 0;#P connect 6 12 75 10;#P connect 75 10 32 0;#P connect 6 13 75 11;#P connect 75 11 33 0;#P connect 6 14 75 12;#P connect 75 12 34 0;#P connect 6 15 75 13;#P connect 75 13 35 0;#P connect 6 16 75 14;#P connect 75 14 36 0;#P connect 6 17 75 15;#P connect 75 15 37 0;#P connect 6 20 75 16;#P connect 6 21 75 17;#P connect 6 22 75 18;#P connect 6 23 75 19;#P connect 6 24 75 20;#P connect 6 25 75 21;#P connect 6 30 75 22;#P fasten 22 2 57 0 50 165 395 165;#P connect 61 0 62 0;#P connect 60 0 62 0;#P connect 59 0 62 0;#P connect 62 0 63 0;#P connect 6 31 75 23;#P connect 6 32 75 24;#P connect 75 16 38 0;#P connect 71 0 75 25;#P connect 75 17 39 0;#P connect 57 1 58 0;#P connect 58 0 59 0;#P connect 62 1 64 0;#P connect 65 0 75 26;#P connect 4 0 21 0;#P connect 20 0 21 0;#P fasten 21 1 1 0 543 124 439 124;#P connect 75 18 40 0;#P connect 63 0 75 27;#P connect 3 0 4 0;#P connect 58 1 60 0;#P connect 75 19 41 0;#P connect 64 0 75 28;#P connect 75 20 42 0;#P connect 57 0 62 1;#P connect 62 2 65 0;#P connect 58 2 61 0;#P connect 75 22 44 0;#P connect 22 0 75 29;#P connect 75 21 43 0;#P connect 75 23 45 0;#P connect 69 0 75 30;#P connect 75 24 46 0;#P connect 73 0 75 31;#P fasten 22 3 69 0 63 162 523 162;#P fasten 8 0 6 1 37 281 523 281;#P lcolor 7;#P connect 75 25 72 0;#P connect 75 26 68 0;#P fasten 22 5 71 0 89 159 564 159;#P connect 75 27 66 0;#P connect 75 28 67 0;#P connect 75 30 70 0;#P connect 75 31 74 0;#P fasten 22 6 73 0 102 156 605 156;#P connect 75 29 76 0;#P connect 76 0 50 0;#P connect 50 0 53 0;#P connect 50 0 80 0;#P connect 50 1 80 1;#P connect 50 1 54 0;#P connect 76 1 49 0;#P connect 49 0 52 0;#P connect 52 0 47 0;#P connect 80 0 79 0;#P connect 76 1 78 0;#P connect 49 1 51 0;#P connect 51 0 48 0;#P connect 11 0 13 0;#P connect 19 0 13 0;#P connect 13 0 10 0;#P connect 10 0 12 0;#P connect 81 0 11 0;#P pop;