max v2;#N vpatcher 417 197 1015 440;#P button 247 45 15 0;#P window setfont "Sans Serif" 9.;#P newex 247 24 99 196617 r /instruments/init;#B color 9;#P newex 13 17 189 196617 editorwindow /instruments /tapemovie;#B color 6;#N thispatcher;#Q end;#P newobj 13 37 61 196617 thispatcher;#P window setfont "Sans Serif" 18.;#P window linecount 6;#P comment 16 66 560 196626 The "instruments" patcher is an available space for creating project-specific instruments \, algorithms \, functions \, devices \, or any patcher that does not have a place in the permanent tapemovie structure. These can often be tape and movie elements in the same instrument \, so that is why "instruments" is common to the whole environment.;#P window setfont "Sans Serif" 9.;#P window linecount 1;#P comment 347 25 182 196617 <- inits with each /tapemovie/init_all;#P fasten 2 0 3 0 18 57 9 57 9 14 18 14;#P connect 3 0 2 0;#P connect 4 0 5 0;#P pop;