max v2;#N vpatcher 98 293 885 740;#P window setfont "Sans Serif" 9.;#P window linecount 1;#P newex 82 391 145 196617 t_fxmetersend $1;#B color 4;#P newex 224 89 278 196617 makeparam $1/swapLR $1 f 0 0. 1. 1;#B color 13;#P newex 152 281 261 196617 makeswitch $1/sw $1 tape_switchstate;#B color 13;#P newex 152 324 31 196617 == 0;#P newex 152 363 50 196617 thispoly~;#B color 5;#P toggle 152 305 15 0;#P message 152 344 45 196617 mute \$1;#P window linecount 2;#P comment 538 282 198 196617 no longer need to send to module_register. happens in build.;#P button 538 108 15 0;#P window linecount 1;#P newex 521 313 133 196617 s $1/spat/init;#B color 11;#P window linecount 7;#P message 538 140 211 196617 \; $1/sw/init bang \; $1/volrand 0 \; $1/inL/init bang \; $1/inR/init bang \; $1/swapLR/init bang \; $1/vol/init bang \;;#P window linecount 1;#P newex 538 87 148 196617 moduleinit $1;#B color 13;#P flonum 81 276 35 9 0 0 0 3 0 0 0 221 221 221 222 222 222 0 0 0;#P newex 30 276 49 196617 t_vol~ 2;#P newex 69 247 289 196617 makeparam $1/vol $1 f 1 0. 2. 1;#B color 13;#P window setfont Times 9.;#N out~ 1;#P newobj 30 316 33 1310729 out~ 1;#P window setfont "Sans Serif" 9.;#P newex 166 52 264 196617 makeparam $1/inR $1 f 1 0. 2. 1;#B color 13;#P newex 69 25 265 196617 makeparam $1/inL $1 f 1 0. 2. 1;#B color 13;#P window setfont Times 9.;#N in~ 2;#P newobj 127 52 30 1310729 in~ 2;#N in~ 1;#P newobj 30 52 29 1310729 in~ 1;#P window setfont "Sans Serif" 9.;#P flonum 178 86 35 9 0 0 0 3 0 0 0 221 221 221 222 222 222 0 0 0;#P newex 127 86 49 196617 t_vol~ 2;#P flonum 81 86 35 9 0 0 0 3 0 0 0 221 221 221 222 222 222 0 0 0;#P newex 30 86 49 196617 t_vol~ 2;#P toggle 244 345 15 0;#P newex 261 344 222 196617 proc-randtransf0 $1/volrand $1/vol 2;#B color 6;#P comment 261 328 100 196617 volume with 0prob;#P flonum 324 114 35 9 0 0 0 3 0 0 0 221 221 221 222 222 222 0 0 0;#P newex 224 114 96 196617 route int float list;#P window linecount 2;#P comment 373 118 103 196617 [-1 (BA) \, 0 (both) \, 1 (AB)] [time (opt.)];#P window linecount 1;#P newex 224 135 55 196617 pack 0. 20;#P newex 30 170 204 196617 t_swapx~;#B color 6;#P newex 30 213 157 196617 pfft~ t_fftsf~ 512 2;#B color 5;#P window setfont "Sans Serif" 18.;#P comment 295 200 116 196626 source-filtre;#P connect 14 0 10 0;#P connect 10 0 2 0;#P connect 2 0 1 0;#P connect 1 0 20 0;#P connect 20 0 18 0;#P connect 11 0 10 1;#P connect 16 0 10 1;#P connect 21 0 20 1;#P connect 19 0 20 1;#P connect 10 1 11 0;#P connect 20 1 21 0;#P fasten 20 0 33 0 35 302 87 302;#P connect 15 0 12 0;#P connect 12 0 2 1;#P connect 31 0 28 0;#P connect 28 0 30 0;#P connect 30 0 27 0;#P connect 27 0 29 0;#P connect 13 0 12 1;#P connect 17 0 12 1;#P fasten 2 1 1 1 132 191 182 191;#P connect 12 1 13 0;#P connect 32 0 5 0;#P connect 5 0 3 0;#P connect 5 1 3 0;#P connect 3 0 2 2;#P fasten 5 2 2 2 285 160 229 160;#P hidden connect 8 0 9 0;#P fasten 32 0 6 0 229 110 329 110;#P fasten 25 0 24 0 543 126 526 126;#P connect 22 0 25 0;#P connect 25 0 23 0;#P pop;