max v2;#N vpatcher 808 105 1296 613;#P window setfont Times 9.;#P window linecount 1;#P comment 124 16 114 1310729 generalized cross synthesis;#B frgb 99 99 99;#P comment 108 34 47 1310729 0=L \, 1=R;#P comment 40 34 47 1310729 0=L \, 1=R;#P flonum 198 30 32 9 0. 1. 3 20 0 0 0 221 221 221 222 222 222 0 0 0;#P objectname comod;#P comment 164 31 38 1310729 /comod;#B frgb 0 0 200;#P flonum 112 45 32 9 0. 1. 3 20 0 0 0 221 221 221 222 222 222 0 0 0;#P objectname phases;#P comment 78 46 39 1310729 /phases;#B frgb 0 0 200;#P flonum 45 45 32 9 0. 1. 3 20 0 0 0 221 221 221 222 222 222 0 0 0;#P objectname amps;#P comment 17 46 33 1310729 /amps;#B frgb 0 0 200;#P flonum 79 12 32 9 0. 1. 3 20 0 0 0 221 221 221 222 222 222 0 0 0;#P objectname swapAB;#P comment 77 0 44 1310729 /swapLR;#B frgb 0 0 200;#P comment 23 20 25 1310729 /inR;#B frgb 0 0 200;#P flonum 45 19 30 9 0. 2. 3 20 0 0 0 221 221 221 222 222 222 0 0 0;#P objectname inB;#P comment 23 5 25 1310729 /inL;#B frgb 0 0 200;#P flonum 45 4 30 9 0. 2. 3 20 0 0 0 221 221 221 222 222 222 0 0 0;#P objectname inA;#P window setfont "Sans Serif" 9.;#P newex 199 349 235 196617 variedit $1/comod $1;#B color 11;#P window setfont Times 9.;#P newex 199 369 54 1310729 pvar comod;#P window setfont "Sans Serif" 9.;#P newex 199 297 237 196617 variedit $1/phases $1;#B color 11;#P window setfont Times 9.;#P newex 199 317 55 1310729 pvar phases;#P window setfont "Sans Serif" 9.;#P newex 199 246 230 196617 variedit $1/amps $1;#B color 11;#P window setfont Times 9.;#P newex 199 266 49 1310729 pvar amps;#P window setfont "Sans Serif" 9.;#P newex 199 193 241 196617 variedit $1/swapLR $1;#B color 11;#P window setfont Times 9.;#P newex 199 213 60 1310729 pvar swapAB;#P window setfont "Sans Serif" 9.;#P newex 199 143 221 196617 variedit $1/inR $1;#B color 11;#P window setfont Times 9.;#P newex 199 163 43 1310729 pvar inB;#P window setfont "Sans Serif" 9.;#P comment 15 108 117 196617 bpat bkgnd = 256 X 62;#P comment 15 127 119 196617 bpat editor = 258 X 64;#P newex 200 401 221 196617 variedit $1/vol $1;#B color 11;#P window setfont Times 9.;#P newex 200 421 42 1310729 pvar vol;#P window setfont "Sans Serif" 9.;#P newex 199 92 220 196617 variedit $1/inL $1;#B color 11;#P window setfont Times 9.;#P newex 199 112 43 1310729 pvar inA;#P comment 81 73 82 1310729 arg 1 : prefix name;#P comment 177 46 21 1310729 /vol;#B frgb 0 0 200;#P flonum 198 45 30 9 0. 2. 3 20 0 0 0 221 221 221 222 222 222 0 0 0;#P objectname vol;#P window setfont "Sans Serif" 9.;#N thispatcher;#Q end;#P newobj 0 75 61 196617 thispatcher;#P bpatcher 0 0 256 62 0 0 bkgnd.mxt 0 $1 0 1;#P objectname background;#P fasten 5 0 6 0 204 133 194 133 194 87 204 87;#P connect 6 0 5 0;#P fasten 11 0 12 0 204 184 194 184 194 138 204 138;#P connect 12 0 11 0;#P fasten 13 0 14 0 204 234 194 234 194 188 204 188;#P connect 14 0 13 0;#P fasten 15 0 16 0 204 287 194 287 194 241 204 241;#P connect 16 0 15 0;#P fasten 17 0 18 0 204 338 194 338 194 292 204 292;#P connect 18 0 17 0;#P fasten 19 0 20 0 204 390 194 390 194 344 204 344;#P connect 20 0 19 0;#P fasten 7 0 8 0 205 442 195 442 195 396 205 396;#P connect 8 0 7 0;#P pop;