max v2;#N vpatcher 465 194 1354 807;#P window setfont "Sans Serif" 9.;#P window linecount 1;#P hidden newex 147 313 68 196617 prepend crop;#P hidden newex 147 280 57 196617 r $1/crop;#P window setfont Times 18.;#N vpatcher 177 175 453 303;#P origin 7 -15;#P window setfont Times 9.;#P window linecount 1;#P hidden newex 303 120 44 1310729 pvar size;#B color 11;#P window setfont "Sans Serif" 9.;#P window linecount 2;#P hidden message 291 189 127 196617 \; $1/size \$1;#P window setfont Times 9.;#P window linecount 1;#P comment 116 42 32 1310729 size;#B frgb 0 0 200;#P window setfont "Sans Serif" 9.;#P number 11 41 104 9 0 0 0 3 0 0 0 221 221 221 222 222 222 0 0 0;#P objectname size;#P window setfont Times 9.;#P comment 182 21 32 1310729 write;#B frgb 0 0 200;#P comment 95 21 32 1310729 crop;#B frgb 0 0 200;#P button 207 21 15 0;#P objectname write;#P button 117 21 15 0;#P objectname crop;#P window setfont "Sans Serif" 9.;#P window linecount 2;#P hidden message 488 114 72 196617 \; $1/crop bang;#P window setfont Times 9.;#P window linecount 1;#P hidden newex 488 93 46 1310729 pvar crop;#B color 11;#P hidden newex 364 92 48 1310729 pvar write;#B color 11;#P window setfont "Sans Serif" 9.;#P window linecount 0;#P hidden message 364 119 67 196617 \; $1 writeaiff;#P user meter~ 1 79 258 99 50 0 168 0 103 103 103 255 153 0 255 0 0 217 217 0 153 186 0 12 3 3 3 3;#P hidden newex 23 79 86 196617 receive~ $1/in~;#P window setfont Times 9.;#P window linecount 1;#P comment 16 21 32 1310729 rec;#B frgb 0 0 200;#P toggle 38 21 15 0;#P objectname rec;#P hidden newex 363 158 40 1310729 pvar rec;#B color 11;#P hidden newex 498 158 77 1310729 variedit $1/rec $1;#B color 3;#P window setfont "Sans Serif" 9.;#P hidden comment 172 146 88 196617 bpat = 258 X 126;#N thispatcher;#Q end;#P hidden newobj 1 145 61 196617 thispatcher;#P bpatcher 1 1 256 74 0 0 bkgnd-.mxt 0 $1 1;#P objectname background;#P window linecount 0;#P hidden newex 56 279 70 196617 bgcolor 0 0 0;#P hidden newex 56 210 159 196617 r $1/more/editor;#B color 11;#N thispatcher;#Q end;#P hidden newobj 56 246 70 196617 thispatcher;#P hidden connect 10 0 11 0;#P hidden connect 3 0 4 0;#P connect 1 0 0 0;#P connect 23 0 22 0;#P hidden connect 6 0 7 0;#P hidden connect 13 0 12 0;#P hidden connect 14 0 15 0;#P hidden connect 7 0 6 0;#P pop;#P newobj 306 126 61 1310738 p more;#B color 6;#P window setfont Times 9.;#P flonum 50 133 31 9 0 0 0 20 0 0 0 221 221 221 222 222 222 0 0 0;#P objectname simulspeed;#P newex 401 569 71 1310729 pvar simulspeed;#B color 11;#P newex 536 569 181 1310729 variedit $1/speed $1;#B color 3;#P window setfont "Sans Serif" 9.;#P user waveform~ 35 35 200 76 3 9;#W mode move;#W mouseoutput continuous;#W unit ms;#W grid 1000.;#W ticks 8;#W labels 1;#W vlabels 0;#W vticks 1;#W bpm 120. 4.;#W frgb 33 0 0;#W brgb 60 178 173;#W rgb2 0 95 255;#W rgb3 0 0 0;#W rgb4 0 0 0;#W rgb5 190 137 255;#W rgb6 100 100 100;#W rgb7 100 100 100;#P objectname simulwf;#P window setfont Times 9.;#P window linecount 2;#P comment 73 212 117 1310729 the bpat for the background must be named "background";#P window setfont "Sans Serif" 9.;#P window linecount 1;#P comment 276 24 117 196617 bpat bkgnd = 256 X 186;#P comment 276 43 119 196617 bpat editor = 258 X 188;#P window setfont Times 9.;#P comment 73 195 82 1310729 arg 1 : prefix name \;;#P window setfont "Sans Serif" 9.;#N thispatcher;#Q end;#P newobj 1 198 61 196617 thispatcher;#P window setfont Times 9.;#P flonum 132 148 33 9 20. 9999. 3 20 0 0 0 221 221 221 222 222 222 0 0 0;#P objectname simultonefreq;#P comment 200 169 21 1310729 vol;#B frgb 0 0 200;#P flonum 219 168 30 9 0. 2. 3 20 0 0 0 221 221 221 222 222 222 0 0 0;#P objectname simulvol;#P toggle 219 117 15 0;#P objectname simulpulsesw;#P number 219 148 31 9 10 9999 3 20 0 0 0 221 221 221 222 222 222 0 0 0;#P objectname simulpulsewidth;#P number 219 133 31 9 10 9999 3 20 0 0 0 221 221 221 222 222 222 0 0 0;#P objectname simulpulseperiod;#P toggle 132 117 15 0;#P objectname simultestsw;#P comment 90 134 44 1310729 tonelevel;#B frgb 0 0 200;#P flonum 132 133 31 9 -127. 18. 3 20 0 0 0 221 221 221 222 222 222 0 0 0;#P objectname simultonelevel;#P comment 173 149 49 1310729 pulsewidth;#B frgb 0 0 200;#P comment 169 134 52 1310729 pulseperiod;#B frgb 0 0 200;#P comment 184 118 38 1310729 pulsesw;#B frgb 0 0 200;#P comment 86 164 48 1310729 noiselevel;#B frgb 0 0 200;#P comment 95 149 39 1310729 tonefreq;#B frgb 0 0 200;#P flonum 132 163 31 9 -127. 18. 3 20 0 0 0 221 221 221 222 222 222 0 0 0;#P objectname simulnoiselevel;#P comment 102 118 32 1310729 testsw;#B frgb 0 0 200;#P button 66 116 15 0;#P objectname simulemptybuffer;#P button 50 116 15 0;#P objectname simulloadbuffer;#P comment 5 149 48 1310729 samplevel;#B frgb 0 0 200;#P flonum 50 148 31 9 -127. 17. 3 20 0 0 0 221 221 221 222 222 222 0 0 0;#P objectname simulsamplevel;#P comment 24 134 31 1310729 speed;#B frgb 0 0 200;#P toggle 50 163 15 0;#P objectname simulloop;#P comment 26 164 26 1310729 loop;#B frgb 0 0 200;#P comment 2 117 53 1310729 load/empty;#B frgb 0 0 200;#P comment 228 107 36 1310729 resume;#P button 237 96 15 9;#P objectname simulresume;#P comment 234 73 25 1310729 stop;#P comment 234 23 25 1310729 play;#P user multiSlider 35 23 200 12 0. 0. 1 2680 47 0 0 2 0 0 0;#M frgb 0 0 0;#M brgb 255 255 255;#M rgb2 127 127 127;#M rgb3 0 0 0;#M rgb4 37 52 91;#M rgb5 74 105 182;#M rgb6 112 158 18;#M rgb7 149 211 110;#M rgb8 187 9 201;#M rgb9 224 62 37;#M rgb10 7 114 128;#P objectname simulplaypos;#P button 235 55 20 13;#P objectname simulstop;#P button 235 35 20 6;#P objectname simulplay;#P user pictslider 16 35 19 76 0 0 0 0 wfknob.pct 1 wfmodes.pct 1 2146 0 0 196608 1. 1.;#P objectname tools;#P newex 346 365 96 1310729 pvar simulemptybuffer;#B color 11;#P newex 346 343 88 1310729 pvar simulloadbuffer;#B color 11;#P newex 346 270 67 1310729 pvar simulstop;#B color 11;#P newex 346 290 67 1310729 pvar simulplay;#B color 11;#P newex 346 310 76 1310729 pvar simulresume;#B color 11;#P newex 579 17 56 1310729 pvar tools 2;#P newex 400 173 81 1310729 pvar simulplaypos;#B color 11;#P newex 457 87 205 1310729 pvar simulwf 6;#B color 11;#P bpatcher 1 1 256 186 0 0 bkgnd3.mxt 0 $1 1 1;#P objectname background;#P newex 481 310 138 1310729 s $1/resume;#B color 11;#P newex 400 546 63 1310729 pvar simulvol;#B color 11;#P newex 535 546 162 1310729 variedit $1/vol $1;#B color 3;#P newex 574 188 175 1310729 variedit $1/loophi $1;#B color 3;#P newex 535 161 175 1310729 variedit $1/looplo $1;#B color 3;#P newex 481 365 158 1310729 s $1/emptybuffer;#B color 11;#P newex 400 245 89 1310729 pvar simulsamplevel;#B color 11;#P newex 535 246 188 1310729 variedit $1/samplevel $1;#B color 3;#P newex 481 343 150 1310729 s $1/loadbuffer;#B color 11;#P newex 457 59 101 1310729 r $1/wf;#B color 11;#P newex 400 34 158 1310729 r $1/playpos_;#B color 11;#P newex 457 131 52 1310729 pack 0. 0.;#P newex 457 151 71 1310729 prepend range;#P newex 499 111 27 1310729 + 0.;#P newex 481 270 129 1310729 s $1/stop;#B color 11;#P newex 481 290 147 1310729 s $1/playloop;#B color 11;#N coll ;#T flags 1 0;#T 0 mode select;#T 1 mode loop;#T 2 mode move;#T 3 mode draw;#P newobj 579 42 53 1310729 coll;#B color 5;#N vpatcher 185 64 477 374;#P button 89 83 15 0;#P window setfont "Sans Serif" 9.;#P newex 38 158 60 196617 prepend set;#N comlet waveform~ mode messages;#P inlet 38 134 15 0;#P newex 132 56 27 196617 << 1;#P newex 115 134 40 196617 change;#P newex 115 158 107 196617 select 0 1 2;#P newex 115 111 27 196617 |;#P outlet 201 265 15 0;#P newex 38 208 45 196617 loadbang;#P newex 64 31 78 196617 modifiers 100;#P message 179 182 58 196617 mode move;#P message 115 226 61 196617 mode select;#P message 147 204 52 196617 mode loop;#P connect 10 0 11 0;#P connect 9 0 12 0;#P connect 12 0 6 0;#P connect 3 3 6 0;#P connect 6 0 8 0;#P connect 8 0 7 0;#P connect 4 0 1 0;#P connect 7 0 1 0;#P connect 11 0 1 0;#P connect 3 4 9 0;#P connect 9 0 6 1;#P connect 7 1 0 0;#P connect 7 2 2 0;#P fasten 0 0 5 0 152 222 206 222;#P fasten 1 0 5 0 120 245 206 245;#P fasten 2 0 5 0 184 200 206 200;#P pop;#P newobj 589 63 49 1310729 p wfkeys;#B color 6;#P newex 400 521 91 1310729 pvar simulpulsewidth;#B color 11;#P newex 400 500 94 1310729 pvar simulpulseperiod;#B color 11;#P newex 400 479 80 1310729 pvar simulpulsesw;#B color 11;#P newex 400 458 90 1310729 pvar simulnoiselevel;#B color 11;#P newex 400 437 81 1310729 pvar simultonefreq;#B color 11;#P newex 400 416 86 1310729 pvar simultonelevel;#B color 11;#P newex 400 395 74 1310729 pvar simultestsw;#B color 11;#P newex 400 224 68 1310729 pvar simulloop;#B color 11;#P newex 535 521 190 1310729 variedit $1/pulsewidth $1;#B color 3;#P newex 535 500 193 1310729 variedit $1/pulseperiod $1;#B color 3;#P newex 535 479 179 1310729 variedit $1/pulsesw $1;#B color 3;#P newex 535 458 189 1310729 variedit $1/noiselevel $1;#B color 3;#P newex 535 437 180 1310729 variedit $1/tonefreq $1;#B color 3;#P newex 535 416 185 1310729 variedit $1/tonelevel $1;#B color 3;#P newex 535 395 173 1310729 variedit $1/testsw $1;#B color 3;#P newex 535 224 167 1310729 variedit $1/loop $1;#B color 3;#P hidden connect 86 0 80 0;#P hidden connect 29 0 80 2;#P hidden connect 85 0 86 0;#P hidden connect 30 0 80 3;#P connect 23 0 36 0;#P fasten 21 0 36 0 462 170 405 170;#P connect 0 0 8 0;#P connect 26 0 27 0;#P connect 1 0 9 0;#P connect 2 0 10 0;#P connect 3 0 11 0;#P connect 4 0 12 0;#P connect 5 0 13 0;#P connect 6 0 14 0;#P connect 7 0 15 0;#P connect 31 0 32 0;#P connect 81 0 82 0;#P fasten 17 0 35 0 584 83 462 83;#P fasten 16 0 35 0 594 83 462 83;#P connect 24 0 35 0;#P connect 35 0 22 0;#P connect 22 0 21 0;#P connect 40 0 19 0;#P connect 39 0 18 0;#P connect 38 0 33 0;#P connect 41 0 25 0;#P connect 42 0 28 0;#P connect 35 0 20 0;#P connect 20 0 22 1;#P connect 35 1 20 1;#P connect 35 2 29 0;#P connect 8 0 0 0;#P connect 27 0 26 0;#P connect 9 0 1 0;#P connect 10 0 2 0;#P connect 11 0 3 0;#P connect 12 0 4 0;#P connect 13 0 5 0;#P connect 14 0 6 0;#P connect 15 0 7 0;#P connect 32 0 31 0;#P connect 82 0 81 0;#P connect 35 3 30 0;#P fasten 37 1 17 0 630 38 584 38;#P connect 17 0 16 0;#P pop;