max v2;#N vpatcher 207 143 742 633;#P hidden inlet 206 500 15 0;#P button 87 446 15 0;#P window setfont "Sans Serif" 9.;#P window linecount 1;#P comment 105 446 39 196617 delete;#P button 21 446 15 0;#P comment 38 446 31 196617 build;#P hidden newex 136 476 123 196617 editorwindow /src /tape;#B color 6;#N thispatcher;#Q end;#P hidden newobj 136 506 61 196617 thispatcher;#P window linecount 0;#P comment 2376 0 100 196617;#P window linecount 1;#P hidden newex 21 476 100 196617 t_edit-builder src 5;#B color 6;#P window linecount 0;#P comment 1 0 100 196617;#P hidden connect 6 0 1 0;#P hidden connect 8 0 1 1;#P hidden fasten 3 0 4 0 141 527 273 527 273 472 141 472;#P hidden connect 4 0 3 0;#P hidden fasten 1 0 3 0 26 501 141 501;#P pop;