max v2;#N vpatcher 536 99 1345 879;#P window setfont Times 9.;#P newex 664 63 101 1310729 r $1/wfR;#B color 11;#P newex 578 88 65 1310729 pvar simulwfR;#B color 11;#P window setfont "Sans Serif" 9.;#P user waveform~ 36 61 210 20 3 9;#W mode move;#W mouseoutput continuous;#W unit ms;#W grid 1000.;#W ticks 8;#W labels 0;#W vlabels 0;#W vticks 1;#W bpm 120. 4.;#W frgb 33 0 0;#W brgb 60 178 173;#W rgb2 0 95 255;#W rgb3 0 0 0;#W rgb4 0 0 0;#W rgb5 190 137 255;#W rgb6 100 100 100;#W rgb7 100 100 100;#P objectname simulwfR;#P user hint 55 5 105 19 "current play position" 100 100 0 65535 65535 52428 9 3 0 1 0 0 0;#P window setfont Times 9.;#P number 54 5 52 9 0 0 8352 20 66 66 66 221 221 221 222 222 222 0 0 0;#P objectname playposnumber;#P comment 104 5 19 1310729 ms;#B frgb 99 99 99;#P window setfont "Sans Serif" 9.;#P newex 328 194 62 196617 route range;#P window setfont Times 9.;#P window linecount 2;#P comment 114 189 53 1310729 lo and hi = 0 for full play;#B frgb 99 99 99;#P window linecount 1;#P newex 380 221 88 1310729 pvar playposnumber;#B color 11;#P window setfont "Sans Serif" 9.;#P comment 173 297 10 196617 |;#P comment 173 288 10 196617 |;#P comment 173 279 10 196617 |;#P comment 173 270 10 196617 |;#P comment 173 261 10 196617 |;#P comment 173 252 10 196617 |;#P comment 173 243 10 196617 |;#P comment 173 234 10 196617 |;#P comment 2 226 256 196617 _________________________________________;#P window setfont Times 9.;#P comment 233 155 18 1310729 dB;#P comment 16 202 39 1310729 /loophi;#B frgb 0 0 200;#P flonum 51 201 64 9 0. 0 1 20 0 0 0 221 221 221 222 222 222 0 0 0;#P objectname loophi;#P comment 17 187 39 1310729 /looplo;#B frgb 0 0 200;#P flonum 51 186 64 9 0. 0 1 20 0 0 0 221 221 221 222 222 222 0 0 0;#P objectname looplo;#P newex 573 234 55 1310729 pvar loophi;#B color 11;#P newex 534 178 55 1310729 pvar looplo;#B color 11;#P newex 399 679 69 1310729 s $1/resetloops;#B color 11;#P newex 399 656 69 1310729 pvar resetloops;#B color 11;#P comment 55 215 53 1310729 /resetloops;#B frgb 0 0 200;#P button 102 215 13 9;#P objectname resetloops;#P window setfont "Sans Serif" 9.;#P message 344 554 33 196617 clear;#P window linecount 4;#P message 31 431 26 196617 brgb 255 255 255;#P window linecount 1;#P message 184 434 93 196617 brgb 187 187 187;#P window linecount 4;#P message 8 633 27 196617 brgb 255 255 255;#P window linecount 1;#P message 169 634 93 196617 brgb 187 187 187;#P newex 118 591 31 196617 t 1 b;#P newex 119 406 31 196617 t 0 b;#P window setfont Times 9.;#P newex 128 614 68 1310729 pvar namelabel;#B color 11;#P window setfont "Sans Serif" 9.;#P user umenu 1 81 49 196647 3 64 97 0;#X add soundfile;#X add sample;#P objectname namelabel;#P window setfont Times 9.;#P newex 282 596 71 1310729 pvar soundname;#B color 11;#P window setfont "Sans Serif" 9.;#P newex 282 555 51 196617 strippath;#P newex 282 576 62 196617 prepend set;#P newex 48 591 67 196617 route <none>;#P newex 48 406 67 196617 route <none>;#P window setfont Times 9.;#P user textedit 50 81 246 97 32897 20 9;#P objectname soundname;#P comment 4 133 60 1310729 /replacesamp;#B frgb 0 0 200;#P comment 24 108 40 1310729 /replace;#B frgb 0 0 200;#P window setfont "Sans Serif" 9.;#P window linecount 2;#P comment 141 696 123 196617 ubumenu filtered types: AIFF \, WAVE \, Sd2f \, NxTS;#P window linecount 1;#P newex 125 726 195 196617 s $1/fromsamplesmenu;#B color 12;#P newex 69 676 182 196617 r $1/tosamplesmenu;#B color 12;#P newex 48 632 51 196617 tosymbol;#P newex 48 653 94 196617 prepend setsymbol;#P newex 48 570 154 196617 r $1/replacesamp;#B color 11;#P window setfont Times 9.;#P newex 48 702 87 1310729 pvar samplesmenu 2;#P comment 59 122 41 1310729 samples;#P window setfont "Sans Serif" 9.;#P user ubumenu 59 132 187 196617 0 1 1 0;#X setrgb 31 31 31 255 255 255 234 234 234 4 4 4 141 141 141 112 112 112;#X add;#X prefix_set 0 1 <none> 5;#P objectname samplesmenu;#P window linecount 2;#P comment 160 494 123 196617 ubumenu filtered types: AIFF \, WAVE \, Sd2f \, NxTS;#P window linecount 1;#P newex 148 524 195 196617 s $1/fromsoundfilesmenu;#B color 12;#P newex 88 474 182 196617 r $1/tosoundfilesmenu;#B color 12;#P newex 67 430 51 196617 tosymbol;#P newex 67 451 94 196617 prepend setsymbol;#P newex 48 385 154 196617 r $1/replace;#B color 11;#P window setfont Times 9.;#P newex 67 500 91 1310729 pvar soundfilesmenu 2;#P window setfont "Sans Serif" 9.;#P user ubumenu 59 107 187 196617 0 1 1 0;#X setrgb 31 31 31 255 255 255 234 234 234 4 4 4 141 141 141 112 112 112;#X add;#X prefix_set 0 1 <none> 5;#P objectname soundfilesmenu;#P window setfont Times 9.;#P comment 171 202 37 1310729 /empty;#B frgb 0 0 200;#P comment 25 155 30 1310729 /play;#B frgb 0 0 200;#P toggle 51 154 15 0;#P objectname play;#P newex 399 529 46 1310729 pvar play;#B color 11;#P newex 534 529 173 1310729 variedit $1/play $1;#B color 3;#P window setfont "Sans Serif" 9.;#P newex 217 359 68 196617 prepend crop;#P newex 217 336 128 196617 r $1/crop;#B color 11;#P window setfont Times 18.;#N vpatcher 231 202 512 332;#P origin 7 -22;#P window setfont Times 9.;#P hidden newex 299 98 44 1310729 pvar size;#B color 11;#P window setfont "Sans Serif" 9.;#P window linecount 2;#P hidden message 299 120 127 196617 \; $1/size \$1;#P window setfont Times 9.;#P window linecount 1;#P comment 126 46 32 1310729 size;#B frgb 0 0 200;#P window setfont "Sans Serif" 9.;#P number 21 45 104 9 0 0 0 3 0 0 0 221 221 221 222 222 222 0 0 0;#P objectname size;#P window setfont Times 9.;#P comment 195 25 32 1310729 write;#B frgb 0 0 200;#P comment 108 25 32 1310729 crop;#B frgb 0 0 200;#P button 220 25 15 0;#P objectname write;#P button 130 25 15 0;#P objectname crop;#P window setfont "Sans Serif" 9.;#P window linecount 2;#P hidden message 391 54 72 196617 \; $1/crop bang;#P window setfont Times 9.;#P window linecount 1;#P hidden newex 391 27 46 1310729 pvar crop;#B color 11;#P hidden newex 299 27 48 1310729 pvar write;#B color 11;#P window setfont "Sans Serif" 9.;#P window linecount 0;#P hidden message 299 54 51 196617 \; $1 write;#P user meter~ 3 78 259 98 50 0 168 0 103 103 103 255 153 0 255 0 0 217 217 0 153 186 0 12 3 3 3 3;#P hidden newex 92 176 86 196617 receive~ $1/in~;#P window setfont Times 9.;#P window linecount 1;#P comment 29 25 32 1310729 rec;#B frgb 0 0 200;#P toggle 51 25 15 0;#P objectname rec;#P hidden newex 312 191 40 1310729 pvar rec;#B color 11;#P hidden newex 299 166 77 1310729 variedit $1/rec $1;#B color 3;#P window setfont "Sans Serif" 9.;#P hidden comment 175 149 88 196617 bpat = 258 X 126;#N thispatcher;#Q end;#P hidden newobj 3 143 61 196617 thispatcher;#P window linecount 0;#P hidden newex 299 242 88 196617 bgcolor 32 32 32;#P hidden newex 64 214 159 196617 r $1/more/editor;#B color 11;#N thispatcher;#Q end;#P hidden newobj 64 240 70 196617 thispatcher;#P bpatcher 3 3 256 62 0 0 bkgnd-.mxt 0 $1 1;#P objectname background;#P hidden connect 10 0 11 0;#P hidden connect 2 0 1 0;#P hidden connect 13 0 12 0;#P hidden connect 23 0 22 0;#P hidden connect 7 0 6 0;#P hidden connect 6 0 7 0;#P hidden connect 14 0 15 0;#P pop;#P newobj 284 123 61 1310738 p more;#B color 6;#P window setfont Times 9.;#P flonum 203 170 31 9 -20. 20. 3 20 0 0 0 221 221 221 222 222 222 0 0 0;#P objectname simulspeed;#P newex 399 496 71 1310729 pvar simulspeed;#B color 11;#P newex 534 496 181 1310729 variedit $1/speed $1;#B color 3;#P window setfont "Sans Serif" 9.;#P user waveform~ 36 30 210 32 3 9;#W mode move;#W mouseoutput continuous;#W unit ms;#W grid 1000.;#W ticks 8;#W labels 1;#W vlabels 0;#W vticks 1;#W bpm 120. 4.;#W frgb 33 0 0;#W brgb 60 178 173;#W rgb2 0 95 255;#W rgb3 0 0 0;#W rgb4 0 0 0;#W rgb5 190 137 255;#W rgb6 100 100 100;#W rgb7 100 100 100;#P objectname simulwf;#P window setfont Times 9.;#P window linecount 2;#P comment 72 355 117 1310729 the bpat for the background must be named "background";#P window setfont "Sans Serif" 9.;#P window linecount 1;#P comment 275 23 117 196617 bpat bkgnd = 256 X 186;#P comment 275 42 119 196617 bpat editor = 258 X 188;#P window setfont Times 9.;#P comment 72 338 82 1310729 arg 1 : prefix name \;;#P flonum 51 287 35 9 20. 9999. 3 20 0 0 0 221 221 221 222 222 222 0 0 0;#P objectname simultonefreq;#P comment 188 267 24 1310729 /vol;#B frgb 0 0 200;#P flonum 209 266 30 9 0. 2. 3 20 0 0 0 221 221 221 222 222 222 0 0 0;#P objectname simulvol;#P toggle 137 241 15 0;#P objectname simulpulsesw;#P number 137 273 35 9 10 9999 3 20 0 0 0 221 221 221 222 222 222 0 0 0;#P objectname simulpulsewidth;#P number 137 257 35 9 10 9999 3 20 0 0 0 221 221 221 222 222 222 0 0 0;#P objectname simulpulseperiod;#P toggle 51 241 15 0;#P objectname simultestsw;#P comment 7 258 49 1310729 /tonelevel;#B frgb 0 0 200;#P flonum 51 257 35 9 -127. 18. 3 20 0 0 0 221 221 221 222 222 222 0 0 0;#P objectname simultonelevel;#P comment 88 274 54 1310729 /pulsewidth;#B frgb 0 0 200;#P comment 85 258 57 1310729 /pulseperiod;#B frgb 0 0 200;#P comment 99 242 43 1310729 /pulsesw;#B frgb 0 0 200;#P comment 3 273 53 1310729 /noiselevel;#B frgb 0 0 200;#P comment 12 288 44 1310729 /tonefreq;#B frgb 0 0 200;#P flonum 51 272 35 9 -127. 18. 3 20 0 0 0 221 221 221 222 222 222 0 0 0;#P objectname simulnoiselevel;#P comment 19 242 37 1310729 /testsw;#B frgb 0 0 200;#P button 203 201 14 0;#P objectname simulemptybuffer;#P button 203 186 14 0;#P objectname simulloadbuffer;#P comment 156 155 52 1310729 /samplevel;#B frgb 0 0 200;#P flonum 203 154 31 9 -127. 18. 3 20 0 0 0 221 221 221 222 222 222 0 0 0;#P objectname simulsamplevel;#P comment 174 170 34 1310729 /speed;#B frgb 0 0 200;#P toggle 51 170 15 0;#P objectname simulloop;#P comment 25 171 31 1310729 /loop;#B frgb 0 0 200;#P comment 179 187 29 1310729 /load;#B frgb 0 0 200;#P comment 69 155 39 1310729 /resume;#B frgb 0 0 200;#P button 102 155 13 9;#P objectname simulresume;#P user multiSlider 36 19 210 12 0. 291.666656 1 2680 47 0 0 2 0 0 0;#M frgb 0 0 0;#M brgb 255 255 255;#M rgb2 127 127 127;#M rgb3 0 0 0;#M rgb4 37 52 91;#M rgb5 74 105 182;#M rgb6 112 158 18;#M rgb7 149 211 110;#M rgb8 187 9 201;#M rgb9 224 62 37;#M rgb10 7 114 128;#P objectname simulplaypos;#P user pictslider 20 19 17 62 0 0 0 0 wfknob.pct 1 wfmodes.pct 1 2146 0 0 196608 1. 1.;#P objectname tools;#P newex 399 616 96 1310729 pvar simulemptybuffer;#B color 11;#P newex 399 594 88 1310729 pvar simulloadbuffer;#B color 11;#P newex 399 561 76 1310729 pvar simulresume;#B color 11;#P newex 578 14 56 1310729 pvar tools 2;#P newex 399 198 81 1310729 pvar simulplaypos;#B color 11;#P newex 456 111 205 1310729 pvar simulwf 6;#B color 11;#P newex 534 561 138 1310729 s $1/resume;#B color 11;#P newex 399 473 63 1310729 pvar simulvol;#B color 11;#P newex 534 473 162 1310729 variedit $1/vol $1;#B color 3;#P newex 573 213 175 1310729 variedit $1/loophi $1;#B color 3;#P newex 534 157 175 1310729 variedit $1/looplo $1;#B color 3;#P newex 534 616 158 1310729 s $1/emptybuffer;#B color 11;#P newex 399 298 89 1310729 pvar simulsamplevel;#B color 11;#P newex 534 299 188 1310729 variedit $1/samplevel $1;#B color 3;#P newex 534 594 150 1310729 s $1/loadbuffer;#B color 11;#P newex 456 58 101 1310729 r $1/wf;#B color 11;#P newex 399 33 158 1310729 r $1/playpos_;#B color 11;#P newex 456 156 52 1310729 pack 0. 0.;#P newex 456 176 71 1310729 prepend range;#P newex 498 135 27 1310729 + 0.;#N coll ;#T flags 1 0;#T 0 mode select;#T 1 mode loop;#T 2 mode move;#T 3 mode draw;#P newobj 578 39 53 1310729 coll;#B color 5;#N vpatcher 1028 412 1312 742;#P window setfont "Sans Serif" 9.;#P number 117 166 35 9 0 0 0 3 0 0 0 221 221 221 222 222 222 0 0 0;#P button 91 98 15 0;#P newex 40 183 60 196617 prepend set;#N comlet waveform~ mode messages;#P inlet 40 159 15 0;#P newex 134 71 27 196617 << 1;#P newex 117 142 40 196617 change;#P newex 117 186 107 196617 select 0 1 2;#P newex 117 119 27 196617 |;#P outlet 203 293 15 0;#P newex 40 236 45 196617 loadbang;#P newex 66 50 78 196617 modifiers 100;#P message 181 210 58 196617 mode move;#P message 117 254 61 196617 mode select;#P message 149 232 52 196617 mode loop;#P connect 10 0 11 0;#P connect 9 0 12 0;#P connect 12 0 6 0;#P connect 3 3 6 0;#P connect 6 0 8 0;#P connect 8 0 13 0;#P connect 13 0 7 0;#P connect 4 0 1 0;#P connect 7 0 1 0;#P connect 11 0 1 0;#P connect 3 4 9 0;#P connect 9 0 6 1;#P connect 7 1 0 0;#P connect 7 2 2 0;#P fasten 0 0 5 0 154 250 208 250;#P fasten 1 0 5 0 122 273 208 273;#P fasten 2 0 5 0 186 228 208 228;#P pop;#P newobj 591 61 49 1310729 p wfkeys;#B color 6;#P newex 399 448 91 1310729 pvar simulpulsewidth;#B color 11;#P newex 399 427 94 1310729 pvar simulpulseperiod;#B color 11;#P newex 399 406 80 1310729 pvar simulpulsesw;#B color 11;#P newex 399 385 90 1310729 pvar simulnoiselevel;#B color 11;#P newex 399 364 81 1310729 pvar simultonefreq;#B color 11;#P newex 399 343 86 1310729 pvar simultonelevel;#B color 11;#P newex 399 322 74 1310729 pvar simultestsw;#B color 11;#P newex 399 266 68 1310729 pvar simulloop;#B color 11;#P newex 534 448 190 1310729 variedit $1/pulsewidth $1;#B color 3;#P newex 534 427 193 1310729 variedit $1/pulseperiod $1;#B color 3;#P newex 534 406 179 1310729 variedit $1/pulsesw $1;#B color 3;#P newex 534 385 189 1310729 variedit $1/noiselevel $1;#B color 3;#P newex 534 364 180 1310729 variedit $1/tonefreq $1;#B color 3;#P newex 534 343 185 1310729 variedit $1/tonelevel $1;#B color 3;#P newex 534 322 173 1310729 variedit $1/testsw $1;#B color 3;#P newex 534 266 167 1310729 variedit $1/loop $1;#B color 3;#P comment 59 97 49 1310729 soundfiles;#P bpatcher 0 0 256 310 0 0 bkgnd5.mxt 0 $1 1 1;#P background;#P objectname background;#P connect 105 0 114 0;#P connect 104 0 116 0;#P hidden connect 78 0 72 0;#P connect 86 0 104 0;#P connect 95 0 105 0;#P connect 105 1 97 0;#P connect 97 0 96 0;#P connect 113 0 94 0;#P connect 114 0 94 0;#P connect 98 0 94 0;#P connect 96 0 94 0;#P connect 104 1 88 0;#P connect 88 0 87 0;#P connect 115 0 85 0;#P connect 116 0 85 0;#P connect 89 0 85 0;#P connect 87 0 85 0;#P connect 105 1 112 0;#P connect 104 1 111 0;#P connect 94 1 99 0;#P connect 112 0 110 0;#P connect 111 0 110 0;#P hidden connect 29 0 72 2;#P hidden connect 29 0 144 2;#P connect 85 1 90 0;#P connect 112 1 113 0;#P connect 111 1 115 0;#P hidden connect 30 0 72 3;#P hidden connect 30 0 144 3;#P connect 77 0 78 0;#P hidden connect 144 5 72 4;#P hidden connect 72 5 144 4;#P connect 97 0 107 0;#P connect 88 0 107 0;#P connect 107 0 106 0;#P connect 106 0 108 0;#P connect 117 0 108 0;#P fasten 23 0 140 0 404 158 333 158;#P connect 39 0 117 0;#P connect 140 1 138 0;#P fasten 21 0 35 0 461 195 404 195;#P connect 23 0 35 0;#P connect 2 0 10 0;#P connect 26 0 27 0;#P connect 3 0 11 0;#P connect 4 0 12 0;#P connect 5 0 13 0;#P connect 6 0 14 0;#P connect 7 0 15 0;#P connect 8 0 16 0;#P connect 9 0 17 0;#P connect 31 0 32 0;#P connect 73 0 74 0;#P connect 79 0 80 0;#P connect 120 0 121 0;#P fasten 19 0 34 0 583 82 461 82;#P connect 24 0 34 0;#P fasten 18 0 34 0 596 82 461 82;#P connect 34 0 22 0;#P connect 22 0 21 0;#P connect 34 0 20 0;#P connect 20 0 22 1;#P connect 34 1 20 1;#P fasten 122 0 29 0 539 199 531 199 531 155 539 155;#P connect 34 2 29 0;#P connect 29 0 122 0;#P connect 10 0 2 0;#P connect 27 0 26 0;#P connect 11 0 3 0;#P connect 12 0 4 0;#P connect 13 0 5 0;#P connect 14 0 6 0;#P connect 15 0 7 0;#P connect 16 0 8 0;#P connect 17 0 9 0;#P connect 32 0 31 0;#P connect 74 0 73 0;#P connect 80 0 79 0;#P connect 37 0 33 0;#P connect 38 0 25 0;#P connect 39 0 28 0;#P fasten 123 0 30 0 578 257 568 257 568 209 578 209;#P connect 34 3 30 0;#P connect 30 0 123 0;#P fasten 36 1 19 0 629 35 583 35;#P connect 146 0 145 0;#P connect 18 0 145 0;#P connect 19 0 145 0;#P connect 19 0 18 0;#P pop;