max v2;#N vpatcher 86 245 267 407;#P origin 1 -21;#P window setfont "Sans Serif" 9.;#P window linecount 1;#P message 27 56 33 196617 close;#P newex 27 104 64 196617 t_src2edit_;#B color 3;#P newex 27 79 47 196617 pcontrol;#P newex 27 33 107 196617 r /src2/editor/close;#B color 11;#P connect 0 0 3 0;#P connect 3 0 1 0;#P connect 1 0 2 0;#P pop;