max v2;#N vpatcher 119 44 1425 897;#P origin -157 36;#P window setfont "Sans Serif" 9.;#P message 724 418 34 196617 5000;#P message 467 560 83 196617 set $1/buffer 2;#P newex 467 578 96 196617 s $1/wfR;#B color 11;#P newex 180 676 27 196617 +~;#P window setfont Times 9.;#N out~ 2;#P newobj 180 775 34 1310729 out~ 2;#P window setfont "Sans Serif" 9.;#P newex 28 776 52 196617 *~ 0.707;#P window setfont Times 9.;#N in~ 2;#P newobj 45 694 30 1310729 in~ 2;#P window setfont "Sans Serif" 9.;#P newex 28 797 145 196617 t_fxmetersend $1;#B color 4;#P newex 725 275 33 196617 t 0. f;#P newex 550 291 52 196617 change 0.;#P newex 691 751 186 196617 s $1/resetloops;#B color 11;#P button 647 568 15 0;#P newex 453 753 85 196617 r $1/size;#B color 11;#P window setfont "Sans Serif" 12.;#N vpatcher 10 59 345 324;#P window setfont "Sans Serif" 9.;#P newex 50 158 21 196617 t 0;#P newex 50 50 95 196617 r $1/loop;#B color 11;#P newex 50 93 55 196617 gate;#P newex 50 180 132 196617 s $1/play;#B color 11;#P newex 50 137 32 196617 sel 1;#P newex 50 115 57 196617 > 0.99999;#P newex 50 70 31 196617 == 0;#P inlet 95 73 15 0;#P connect 6 0 1 0;#P connect 1 0 5 0;#P connect 5 0 2 0;#P connect 2 0 3 0;#P connect 3 0 7 0;#P connect 7 0 4 0;#P connect 0 0 5 1;#P pop;#P newobj 505 323 91 196620 p stop_t_end;#B color 6;#P window setfont "Sans Serif" 9.;#N vpatcher 10 59 419 457;#P window setfont "Sans Serif" 9.;#P message 50 50 296 196617 $1/sw/init bang \; $1/replace/init bang \; $1/replacesamp/init bang \; $1/loop/init bang \; $1/looplo/init bang \; $1/loophi/init bang \; $1/samplevel/init bang \; $1/play/init bang \; $1/testsw/init bang \; $1/tonelevel/init bang \; $1/tonefreq/init bang \; $1/noiselevel/init bang \; $1/pulsesw/init bang \; $1/pulseperiod/init bang \; $1/pulsewidth/init bang \; $1/speed/init bang \; $1/rec/init bang \; $1/vol/init bang \; $1/soundfilesmenu/update bang \; $1/samplesmenu/update bang \; // no longer need to send to module_register. happens in build. \; // module_register $1 \; 1 \; $1/resetloops bang \;;#P pop;#P newobj 1040 540 63 196617 p backupinit;#N qlist;#X append $1/sw/init bang \; $1/replace/init bang \; $1/replacesamp/init bang \; $1/loop/init bang \; $1/looplo/init bang \; $1/loophi/init bang \;;#X append $1/samplevel/init bang \; $1/play/init bang \; $1/testsw/init bang \; $1/tonelevel/init bang \; $1/tonefreq/init bang \; $1/noiselevel/init bang \;;#X append $1/pulsesw/init bang \; $1/pulseperiod/init bang \; $1/pulsewidth/init bang \; $1/speed/init bang \; $1/rec/init bang \; $1/vol/init bang \;;#X append $1/soundfilesmenu/update bang \; $1/samplesmenu/update bang \; // no longer need to send to module_register. happens in build. \;;#X append // module_register $1 \; 1 \; $1/resetloops bang \;;#P newobj 978 540 40 196617 qlist;#P newex 938 696 132 196617 s $1/loophi;#B color 11;#P newex 918 716 132 196617 s $1/looplo;#B color 11;#P newex 898 669 50 196617 t 0. 0. 0.;#P newex 725 296 54 196617 pack 0. 0.;#P window setfont Times 9.;#P newex 725 317 71 1310729 prepend range;#P window setfont "Sans Serif" 9.;#P newex 898 629 165 196617 r $1/resetloops;#B color 11;#P button 898 650 15 0;#P newex 386 61 88 196617 bondo 2;#P window setfont "Sans Serif" 18.;#N vpatcher 69 61 1091 507;#P window setfont "Sans Serif" 9.;#P window linecount 1;#P newex 99 145 47 196617 t <none>;#P newex 99 165 185 196617 s $1/replacesamp;#B color 4;#P newex 229 240 47 196617 t <none>;#P newex 229 261 162 196617 s $1/replace;#B color 4;#P newex 132 222 67 196617 route <none>;#P newex 132 200 196 196617 makeparam $1/replacesamp $1 s <none>;#B color 4;#P newex 23 127 67 196617 route <none>;#P newex 23 104 173 196617 makeparam $1/replace $1 s <none>;#B color 4;#P window linecount 2;#P newex 132 303 94 196617 sprintf %smedia/samples/%s;#P window linecount 1;#P newex 132 261 94 196617 t b s;#P newex 132 282 62 196617 projectpath;#B color 6;#P newex 23 339 51 196617 tosymbol;#P newex 23 359 81 196617 prepend replace;#P window linecount 2;#P newex 23 231 98 196617 sprintf %smedia/soundfiles/%s;#P window linecount 1;#P newex 23 390 97 196617 s $1;#B color 4;#P newex 23 189 98 196617 t b s;#P newex 23 211 62 196617 projectpath;#B color 6;#P newex 79 51 155 196617 r $1/load;#B color 11;#P newex 62 73 170 196617 s $1/replace;#B color 4;#P newex 62 29 170 196617 r $1/loadfile;#B color 11;#P newex 756 333 229 196617 s $1/replacesamp;#B color 12;#P newex 724 244 234 196617 r $1/fromsamplesmenu;#B color 12;#P newex 631 187 203 196617 s $1/tosamplesmenu;#B color 12;#P newex 842 222 27 196617 + 1;#P newex 756 311 40 196617 itoa;#P newex 724 289 42 196617 zl slice;#P newex 842 182 34 196617 zl len;#P number 842 203 35 9 0 0 0 3 0 0 0 221 221 221 222 222 222 0 0 0;#P newex 842 162 40 196617 atoi;#P newex 724 265 40 196617 atoi;#P newex 724 144 51 196617 tosymbol;#P window setfont Times 9.;#P newex 724 123 105 1310729 sprintf %smedia/samples;#P window setfont "Sans Serif" 9.;#P newex 724 100 62 196617 projectpath;#B color 6;#P newex 724 165 76 196617 prepend prefix;#P button 724 57 15 0;#P newex 724 36 240 196617 r $1/samplesmenu/update;#B color 12;#P window setfont Times 9.;#P newex 724 77 76 1310729 t b b;#P window setfont "Sans Serif" 9.;#P message 790 100 33 196617 clear;#P window linecount 2;#P comment 713 206 123 196617 ubumenu filtered types: AIFF \, WAVE \, Sd2f \, NxTS;#P window linecount 1;#P newex 467 333 229 196617 s $1/replace;#B color 12;#P newex 435 244 234 196617 r $1/fromsoundfilesmenu;#B color 12;#P newex 342 187 203 196617 s $1/tosoundfilesmenu;#B color 12;#P newex 553 222 27 196617 + 1;#P newex 467 311 40 196617 itoa;#P newex 435 289 42 196617 zl slice;#P newex 553 182 34 196617 zl len;#P number 553 203 35 9 0 0 0 3 0 0 0 221 221 221 222 222 222 0 0 0;#P newex 553 162 40 196617 atoi;#P newex 435 265 40 196617 atoi;#P newex 435 144 51 196617 tosymbol;#P window setfont Times 9.;#P newex 435 123 113 1310729 sprintf %smedia/soundfiles;#P window setfont "Sans Serif" 9.;#P newex 435 100 62 196617 projectpath;#B color 6;#P newex 435 165 76 196617 prepend prefix;#P button 435 57 15 0;#P newex 435 36 240 196617 r $1/soundfilesmenu/update;#B color 12;#P window setfont Times 9.;#P newex 435 77 76 1310729 t b b;#P window setfont "Sans Serif" 9.;#P message 501 100 33 196617 clear;#P window linecount 2;#P comment 424 206 123 196617 ubumenu filtered types: AIFF \, WAVE \, Sd2f \, NxTS;#P connect 50 0 51 0;#P connect 51 1 42 0;#P connect 42 0 41 0;#P connect 41 0 44 0;#P connect 49 0 46 0;#P connect 44 0 46 0;#P connect 46 0 45 0;#P connect 45 0 43 0;#P connect 40 0 39 0;#P connect 38 0 39 0;#P connect 51 1 57 0;#P connect 57 0 56 0;#P connect 42 1 44 1;#P connect 52 0 53 0;#P connect 53 1 48 0;#P connect 48 0 47 0;#P connect 47 0 49 0;#P connect 48 1 49 1;#P connect 53 1 55 0;#P connect 55 0 54 0;#P connect 5 0 16 0;#P connect 1 0 16 0;#P connect 3 0 4 0;#P connect 4 0 2 0;#P connect 2 0 6 0;#P connect 6 0 7 0;#P connect 7 0 8 0;#P connect 8 0 5 0;#P connect 17 0 9 0;#P connect 9 0 13 0;#P fasten 15 0 13 1 558 285 472 285;#P connect 13 1 14 0;#P connect 14 0 18 0;#P connect 2 1 1 0;#P connect 8 0 10 0;#P connect 10 0 12 0;#P connect 12 0 11 0;#P connect 11 0 15 0;#P connect 24 0 35 0;#P connect 20 0 35 0;#P connect 22 0 23 0;#P connect 23 0 21 0;#P connect 21 0 25 0;#P connect 25 0 26 0;#P connect 26 0 27 0;#P connect 27 0 24 0;#P connect 36 0 28 0;#P connect 28 0 32 0;#P fasten 34 0 32 1 847 285 761 285;#P connect 32 1 33 0;#P connect 33 0 37 0;#P connect 21 1 20 0;#P connect 27 0 29 0;#P connect 29 0 31 0;#P connect 31 0 30 0;#P connect 30 0 34 0;#P pop;#P newobj 696 575 211 196626 p replace/replacesamp;#B color 6;#P window setfont "Sans Serif" 9.;#P newex 83 116 21 196617 t 1;#P newex 139 116 159 196617 s $1/play;#B color 11;#P newex 105 116 32 196617 del 1;#P newex 8 214 47 196617 gate 1 1;#P newex 591 137 21 196617 t 0;#P newex 566 117 21 196617 t 1;#P newex 566 158 195 196617 s $1/play;#B color 11;#P toggle 17 66 15 0;#P newex 17 46 252 196617 makeparam $1/play $1 t 0 0 1 0;#B color 13;#P newex 591 446 89 196617 prepend writeaiff;#P newex 591 413 62 196617 r $1/write;#B color 11;#P newex 17 85 41 196617 sel 1 0;#P flonum 126 231 35 9 0 0 0 3 0 0 0 221 221 221 222 222 222 0 0 0;#P button 270 538 15 0;#P newex 714 488 96 196617 prepend size;#P newex 707 452 85 196617 r $1/size;#B color 11;#P newex 561 730 33 196617 t 0. f;#P newex 584 751 63 196617 s $1/loophi;#B color 11;#P newex 561 709 29 196617 gate;#P user number~ 225 798 289 813 9 3 3 2 0. 0. 0 0. 20 0. 0 0 0 222 222 222 222 222 222 0 0 0;#P newex 561 772 63 196617 s $1/looplo;#B color 11;#P newex 580 688 88 196617 scale 0. 1 0 1000;#P newex 601 591 30 196617 t 0 f;#P newex 225 727 230 196617 makeparam $1/rec $1 t 0;#B color 13;#P newex 225 775 239 196617 record~ $1/buffer 2;#B color 13;#P window setfont Times 9.;#N in~ 1;#P newobj 11 694 30 1310729 in~ 1;#P button 978 515 15 0;#P window setfont "Sans Serif" 9.;#P newex 952 593 195 196617 s $1/spat/init;#B color 11;#P comment 978 467 136 196617 arg 1 : module prefix name \;;#P newex 978 495 127 196617 moduleinit $1;#B color 13;#P newex 108 205 29 196617 gate;#P newex 127 183 279 196617 makeparam $1/speed $1 f 1 -20 20 1;#B color 13;#P newex 69 205 27 196617 f;#P newex 259 607 283 196617 makeparam $1/testsw $1 t 0 0 1;#B color 13;#P newex 217 334 264 196617 makeparam $1/samplevel $1 f 0 -127 18 2;#B color 13;#P flonum 230 357 35 9 -127. 18. 3 3 0 0 0 221 221 221 222 222 222 0 0 0;#P newex 143 356 84 196617 t_gain2~;#B color 11;#P newex 291 18 295 196617 makeparam $1/loop $1 t 0;#B color 13;#P newex 386 40 309 196617 makeparam $1/looplo $1 m 0.;#B color 13;#P newex 482 60 282 196617 makeparam $1/loophi $1 m 0.;#B color 13;#P newex 843 100 371 196617 makeparam $1/tonefreq $1 f 440 20 9999 1;#B color 13;#P newex 906 146 319 196617 makeparam $1/tonelevel $1 f -127 -127 18 2;#B color 13;#P flonum 919 168 35 9 -127. 18. 3 3 0 0 0 221 221 221 222 222 222 0 0 0;#P newex 843 168 73 196617 t_gain~;#B color 11;#P newex 869 52 345 196617 makeparam $1/noiselevel $1 f -127 -127 18 2;#B color 13;#P newex 910 303 375 196617 makeparam $1/pulsewidth $1 i 250. 10 9999 1;#B color 13;#P newex 895 261 384 196617 makeparam $1/pulseperiod $1 i 1000. 10 9999 1;#B color 13;#P newex 843 239 298 196617 makeparam $1/pulsesw $1 t 0 0 1;#B color 13;#P newex 843 435 416 196617 makeswitch $1/sw $1 tape_switchstate;#B color 13;#P newex 843 474 31 196617 == 0;#P newex 843 513 50 196617 thispoly~;#B color 5;#P toggle 843 455 15 0;#P message 843 494 45 196617 mute \$1;#P flonum 231 699 35 9 0 0 0 3 0 0 0 221 221 221 222 222 222 0 0 0;#P newex 143 698 84 196617 t_vol2~ 2;#P newex 217 676 273 196617 makeparam $1/vol $1 f 1 0. 2. 1 20;#B color 13;#P window setfont Times 9.;#N out~ 1;#P newobj 143 775 33 1310729 out~ 1;#P window setfont "Sans Serif" 9.;#P newex 105 95 78 196617 t b 1 0;#P newex 105 75 159 196617 r $1/resume;#B color 11;#P newex 497 536 50 196617 del 5000;#P newex 497 516 50 196617 loadbang;#P newex 341 496 87 196617 r $1;#B color 11;#P button 309 433 15 0;#P button 371 415 15 0;#P newex 309 451 47 196617 t b b b;#P message 367 560 83 196617 set $1/buffer 1;#P newex 371 433 49 196617 b;#P newex 367 578 96 196617 s $1/wf;#B color 11;#P newex 410 473 150 196617 s $1/stop;#B color 11;#P button 410 455 15 0;#P message 371 473 37 196617 size 1;#P newex 371 395 201 196617 r $1/emptybuffer;#B color 11;#P newex 309 374 171 196617 r $1/loadbuffer;#B color 11;#P message 327 473 41 196617 replace;#P newex 327 521 160 196617 buffer~ $1/buffer -1 2;#B color 13;#P newex 632 360 110 196617 s $1/playpos_;#B color 11;#P flonum 632 337 74 9 0 0 0 3 0 0 0 221 221 221 222 222 222 0 0 0;#P newex 632 317 88 196617 scale 0. 1 0 1000;#P user number~ 481 292 545 307 9 3 3 2 0. 0. 0 0. 20 0. 0 0 0 222 222 222 222 222 222 0 0 0;#P newex 499 183 30 196617 sel 0;#P newex 386 160 99 196617 unpack 0. 0.;#P newex 386 123 123 196617 t l l;#P newex 386 102 106 196617 pack 0. 0.;#P flonum 386 218 56 9 0 0 0 3 0 0 0 221 221 221 222 222 222 0 0 0;#P newex 458 187 27 196617 gate;#P toggle 499 164 15 0;#P newex 499 144 29 196617 != 0.;#P flonum 481 230 74 9 0 0 0 3 0 0 0 221 221 221 222 222 222 0 0 0;#P toggle 291 48 15 0;#P message 291 67 41 196617 loop \$1;#P newex 58 115 21 196617 t 0;#P newex 17 159 113 196617 t startloop b 1;#P newex 566 97 195 196617 r $1/playloop;#B color 11;#P flonum 482 83 56 9 0 0 0 3 0 0 0 221 221 221 222 222 222 0 0 0;#P flonum 386 83 56 9 0 0 0 3 0 0 0 221 221 221 222 222 222 0 0 0;#P newex 69 236 35 196617 sig~ 0;#P newex 291 271 201 196617 groove~ $1/buffer 2;#B color 13;#P newex 843 121 27 196617 sig~;#P newex 843 412 178 196617 s $1/testsw;#B color 11;#P number 895 283 46 9 0 0 0 3 0 0 0 221 221 221 222 222 222 0 0 0;#P number 910 324 46 9 0 0 0 3 0 0 0 221 221 221 222 222 222 0 0 0;#P toggle 843 260 15 0;#P newex 862 370 21 196617 t 0;#P toggle 843 392 15 0;#P newex 843 329 29 196617 t 1 b;#P newex 862 350 58 196617 del 100;#P newex 843 307 62 196617 metro 1000;#P flonum 880 73 35 9 -127. 18. 3 3 0 0 0 221 221 221 222 222 222 0 0 0;#P newex 820 194 33 196617 +~;#P newex 820 73 59 196617 t_gain~;#B color 11;#P toggle 259 628 15 0;#P newex 259 647 51 196617 selector~;#P newex 143 676 27 196617 +~;#P newex 843 146 59 196617 cycle~ 440;#P newex 820 46 35 196617 noise~;#P newex 591 117 195 196617 r $1/stop;#B color 11;#P newex 499 206 134 196617 info~ $1/buffer;#B color 13;#P connect 59 2 113 0;#P connect 116 0 113 0;#P connect 108 0 109 0;#P connect 109 0 105 0;#P connect 105 0 25 0;#P connect 105 2 25 0;#P connect 62 1 136 0;#P connect 62 0 136 0;#P connect 136 0 134 0;#P connect 25 0 113 1;#P connect 105 1 26 0;#P connect 25 1 84 0;#P fasten 26 0 21 0 63 229 74 229;#P connect 84 0 21 0;#P connect 86 0 21 0;#P connect 114 0 116 0;#P connect 85 0 84 1;#P connect 58 0 59 0;#P connect 59 0 114 0;#P connect 26 0 86 0;#P connect 25 2 86 0;#P connect 26 0 104 0;#P connect 84 0 104 0;#P connect 86 0 104 0;#P connect 85 0 86 1;#P connect 59 1 115 0;#P fasten 20 0 80 0 296 303 148 303;#P connect 80 0 4 0;#P connect 4 0 62 0;#P connect 62 0 60 0;#P fasten 5 0 4 1 264 668 165 668;#P fasten 20 1 80 1 391 315 185 315;#P connect 80 1 138 0;#P connect 138 0 62 1;#P connect 62 1 137 0;#P fasten 5 0 138 1 264 668 202 668;#P connect 81 0 80 2;#P connect 82 0 80 2;#P connect 61 0 62 2;#P connect 63 0 62 2;#P connect 93 0 92 0;#P connect 91 0 92 0;#P connect 92 0 97 0;#P connect 80 2 81 0;#P connect 62 2 63 0;#P connect 83 0 6 0;#P connect 6 0 5 0;#P connect 101 0 103 0;#P connect 79 0 28 0;#P connect 28 0 27 0;#P fasten 113 0 20 0 13 266 296 266;#P fasten 21 0 20 0 74 260 296 260;#P connect 27 0 20 0;#P connect 8 0 5 1;#P connect 135 0 92 1;#P connect 44 0 54 0;#P connect 54 0 52 0;#P connect 52 1 43 0;#P connect 107 0 42 0;#P connect 102 0 42 0;#P connect 55 0 42 0;#P connect 43 0 42 0;#P fasten 46 0 42 0 376 490 332 490;#P connect 42 1 51 0;#P fasten 52 0 51 0 314 547 372 547;#P connect 103 0 51 0;#P connect 57 0 51 0;#P connect 51 0 49 0;#P connect 45 0 53 0;#P connect 53 0 50 0;#P connect 50 0 46 0;#P connect 94 0 92 2;#P connect 78 0 118 0;#P connect 118 0 22 0;#P connect 22 0 34 0;#P connect 34 0 35 0;#P connect 35 0 36 0;#P connect 36 0 33 0;#P connect 33 0 20 1;#P connect 50 1 47 0;#P connect 52 2 47 0;#P connect 47 0 48 0;#P connect 94 1 92 3;#P connect 129 0 92 3;#P connect 31 0 32 0;#P connect 77 0 118 1;#P connect 42 1 140 0;#P fasten 52 0 140 0 314 547 472 547;#P connect 57 0 140 0;#P connect 140 0 139 0;#P connect 36 1 32 1;#P fasten 0 6 29 0 606 227 486 227;#P fasten 32 0 29 0 463 217 486 217;#P connect 29 0 20 2;#P connect 20 2 38 0;#P connect 118 1 23 0;#P connect 23 0 34 1;#P connect 56 0 57 0;#P connect 35 1 30 0;#P connect 30 0 31 0;#P connect 31 0 37 0;#P connect 37 0 0 0;#P connect 38 1 128 0;#P connect 38 1 132 0;#P connect 93 0 98 0;#P connect 98 0 100 0;#P connect 100 0 96 0;#P connect 24 0 111 0;#P connect 111 0 110 0;#P connect 112 0 110 0;#P connect 97 1 95 0;#P connect 95 0 98 1;#P connect 100 1 99 0;#P connect 1 0 112 0;#P connect 106 0 107 0;#P connect 0 6 94 0;#P connect 94 0 95 3;#P connect 132 0 39 0;#P connect 39 0 40 0;#P fasten 121 0 41 0 730 356 637 356;#P connect 40 0 41 0;#P connect 101 0 95 4;#P connect 94 1 95 4;#P connect 42 1 130 0;#P fasten 33 0 39 3 391 262 682 262;#P lcolor 14;#P connect 130 0 131 0;#P connect 101 0 39 4;#P fasten 29 0 39 4 486 254 697 254;#P connect 101 0 102 0;#P connect 141 0 102 0;#P connect 0 6 133 0;#P connect 133 0 122 0;#P connect 122 0 121 0;#P connect 133 1 122 1;#P connect 2 0 7 0;#P connect 7 0 8 0;#P connect 76 0 19 0;#P connect 19 0 3 0;#P connect 3 0 73 0;#P connect 73 0 8 1;#P connect 69 0 15 0;#P connect 15 0 10 0;#P connect 10 0 12 0;#P connect 14 0 13 0;#P connect 12 0 13 0;#P connect 13 0 18 0;#P connect 68 0 65 0;#P connect 65 0 67 0;#P connect 67 0 64 0;#P connect 64 0 66 0;#P connect 12 1 11 0;#P connect 11 0 14 0;#P connect 72 0 7 1;#P connect 9 0 7 1;#P connect 7 1 9 0;#P connect 70 0 17 0;#P connect 17 0 10 1;#P connect 120 0 119 0;#P connect 119 0 123 0;#P connect 75 0 73 1;#P connect 74 0 73 1;#P connect 71 0 16 0;#P connect 16 0 11 1;#P connect 123 1 124 0;#P connect 73 1 74 0;#P connect 123 0 125 0;#P connect 123 2 125 0;#P fasten 90 0 89 0 983 534 957 534;#P connect 87 0 90 0;#P connect 90 0 126 0;#P pop;