max v2;#N vpatcher 35 309 333 544;#P hidden inlet 223 300 15 0;#P button 76 250 15 0;#P window setfont "Sans Serif" 9.;#P window linecount 1;#P comment 94 250 39 196617 delete;#P button 10 250 15 0;#P comment 27 250 31 196617 build;#P hidden newex 146 278 146 196617 editorwindow /sndmass /tape;#B color 6;#N thispatcher;#Q end;#P hidden newobj 146 308 61 196617 thispatcher;#P window linecount 0;#P comment 2376 0 100 196617;#P window linecount 1;#P hidden newex 10 278 123 196617 t_edit-builder sndmass 1;#B color 6;#P window linecount 0;#P comment 1 0 100 196617;#P hidden connect 6 0 1 0;#P hidden connect 8 0 1 1;#P hidden fasten 3 0 4 0 151 329 296 329 296 274 151 274;#P hidden fasten 1 0 3 0 15 303 151 303;#P hidden connect 4 0 3 0;#P pop;