max v2;#N vpatcher 277 130 965 689;#P origin 0 -20;#P window setfont Times 9.;#P comment 65 16 45 1310729 /beatamp;#B frgb 0 0 200;#P flonum 35 16 30 9 0. 100. 3 20 0 0 0 221 221 221 222 222 222 0 0 0;#P objectname beatamp;#P window setfont "Sans Serif" 9.;#P newex 333 43 262 196617 variedit $1/beatamp $1;#B color 11;#P window setfont Times 9.;#P newex 333 63 59 1310729 pvar beatamp;#P window setfont "Sans Serif" 9.;#P newex 294 413 294 196617 variedit $1/amp3 $1 f 0 200 1;#B color 11;#P window setfont Times 9.;#P newex 294 433 50 1310729 pvar amp3;#P window setfont "Sans Serif" 9.;#P newex 294 359 295 196617 variedit $1/note3 $1 f 0 200 1;#B color 11;#P window setfont Times 9.;#P newex 294 379 51 1310729 pvar note3;#P comment 167 45 34 1310729 /amp3;#B frgb 0 0 200;#P flonum 138 45 30 9 0. 200. 3 20 0 0 0 221 221 221 222 222 222 0 0 0;#P objectname amp3;#P comment 106 45 34 1310729 /amp2;#B frgb 0 0 200;#P flonum 77 45 30 9 0. 200. 3 20 0 0 0 221 221 221 222 222 222 0 0 0;#P objectname amp2;#P comment 45 45 34 1310729 /amp1;#B frgb 0 0 200;#P flonum 16 45 30 9 0. 200. 3 20 0 0 0 221 221 221 222 222 222 0 0 0;#P objectname amp1;#P comment 167 31 35 1310729 /note3;#B frgb 0 0 200;#P flonum 138 31 30 9 0. 200. 3 20 0 0 0 221 221 221 222 222 222 0 0 0;#P objectname note3;#P comment 106 31 35 1310729 /note2;#B frgb 0 0 200;#P flonum 77 31 30 9 0. 200. 3 20 0 0 0 221 221 221 222 222 222 0 0 0;#P objectname note2;#P comment 45 31 35 1310729 /note1;#B frgb 0 0 200;#P flonum 16 31 30 9 0. 200. 3 20 0 0 0 221 221 221 222 222 222 0 0 0;#P objectname note1;#P window setfont "Sans Serif" 9.;#P newex 294 308 294 196617 variedit $1/amp2 $1 f 0 200 1;#B color 11;#P window setfont Times 9.;#P newex 294 328 50 1310729 pvar amp2;#P window setfont "Sans Serif" 9.;#P newex 294 200 294 196617 variedit $1/amp1 $1 f 0 200 1;#B color 11;#P window setfont Times 9.;#P newex 294 220 50 1310729 pvar amp1;#P window setfont "Sans Serif" 9.;#P newex 294 254 295 196617 variedit $1/note2 $1 f 0 200 1;#B color 11;#P window setfont Times 9.;#P newex 294 274 51 1310729 pvar note2;#P window setfont "Sans Serif" 9.;#P newex 294 146 295 196617 variedit $1/note1 $1 f 0 200 1;#B color 11;#P window setfont Times 9.;#P newex 294 166 51 1310729 pvar note1;#P comment 64 2 43 1310729 /beatfreq;#B frgb 0 0 200;#P window setfont "Sans Serif" 9.;#P comment 23 161 117 196617 bpat bkgnd = 256 X 62;#P comment 23 180 119 196617 bpat editor = 258 X 64;#P window setfont Times 9.;#P flonum 35 2 30 9 0. 100. 3 20 0 0 0 221 221 221 222 222 222 0 0 0;#P objectname beatfreq;#P window setfont "Sans Serif" 9.;#P newex 294 95 262 196617 variedit $1/beatfreq $1;#B color 11;#P window setfont Times 9.;#P newex 294 115 59 1310729 pvar beatfreq;#P comment 221 33 24 1310729 /vol;#B frgb 0 0 200;#P flonum 221 45 30 9 0. 2. 3 20 0 0 0 221 221 221 222 222 222 0 0 0;#P objectname vol;#P window setfont "Sans Serif" 9.;#P newex 295 463 272 196617 variedit $1/vol $1 f 0 2 1;#B color 11;#P window setfont Times 9.;#P newex 295 483 42 1310729 pvar vol;#P window linecount 2;#P comment 37 125 82 1310729 arg 1 : prefix name \; arg 2 : max del time;#P window setfont "Sans Serif" 9.;#P window linecount 1;#N thispatcher;#Q end;#P newobj 0 214 61 196617 thispatcher;#P bpatcher 0 0 256 62 0 0 bkgnd.mxt 0 $1 0 1;#P objectname background;#P fasten 7 0 8 0 299 136 289 136 289 90 299 90;#P connect 8 0 7 0;#P fasten 13 0 14 0 299 187 289 187 289 141 299 141;#P connect 14 0 13 0;#P fasten 17 0 18 0 299 241 289 241 289 195 299 195;#P connect 18 0 17 0;#P fasten 15 0 16 0 299 295 289 295 289 249 299 249;#P connect 16 0 15 0;#P fasten 19 0 20 0 299 349 289 349 289 303 299 303;#P connect 20 0 19 0;#P fasten 33 0 34 0 299 400 289 400 289 354 299 354;#P connect 34 0 33 0;#P fasten 35 0 36 0 299 454 289 454 289 408 299 408;#P connect 36 0 35 0;#P fasten 3 0 4 0 300 504 288 504 288 458 300 458;#P connect 4 0 3 0;#P fasten 37 0 38 0 338 84 328 84 328 38 338 38;#P connect 38 0 37 0;#P pop;