max v2;#N vpatcher 186 349 1204 807;#P origin -118 -233;#P window setfont Times 9.;#P window linecount 1;#P newex 637 314 57 1310729 prepend read;#P newex 637 294 47 1310729 tosymbol;#P newex 481 311 61 1310729 prepend write;#P newex 481 290 47 1310729 tosymbol;#P newex 637 256 47 1310729 tosymbol;#P newex 481 248 47 1310729 tosymbol;#P window setfont "Sans Serif" 9.;#P message 203 315 35 196617 write;#P button 503 38 15 0;#P window setfont Times 9.;#P newex 673 127 27 1310729 b 2;#P window setfont "Sans Serif" 9.;#P newex 665 71 66 196617 route archiv;#P newex 290 116 66 196617 pvar menu 2;#P newex 290 94 62 196617 prepend set;#P newex 290 70 27 196617 i 0;#P newex 243 28 225 196617 route active store recall open store+open write;#P window setfont "Sans Serif" 14.;#P user ubumenu 17 117 125 196622 0 1 1 0;#X setrgb 0 0 0 205 205 205 240 240 240 0 146 207 141 141 141 112 112 112;#X add active params;#X add store;#X add recall;#X add open;#X add store+open;#X add <separator>;#X add write archiv;#X add recall archiv;#X prefix_set 0 0 <none> 0;#P objectname menu;#P button 330 305 15 0;#P window setfont "Sans Serif" 9.;#P message 298 307 30 196617 open;#P button 214 274 15 0;#P window setfont Times 9.;#P comment 28 34 37 1310729 presets;#P message 88 30 28 1310729 recall;#B color 7;#P objectname recallarchive;#P comment 28 27 38 1310729 archive;#P message 60 30 27 1310729 write;#B color 13;#P objectname writearchive;#P message 3 2 14 1310729 S;#B color 2;#P objectname storeactive;#P message 3 30 14 1310729 O;#B color 9;#P objectname openactive;#P window setfont Times 14.;#P comment 17 -1 99 1310734 $1;#P window setfont Times 9.;#P message 3 16 14 1310729 R;#B color 7;#P objectname recallactive;#P window linecount 2;#P newex 565 117 89 1310729 s /movie/activeparams/request;#P window linecount 1;#P newex 583 195 48 1310729 t b b;#P newex 637 275 146 1310729 sprintf %sconfig/temp/%s-temp.txt;#P message 637 219 37 1310729 project;#N coll filepaths 1;#P newobj 637 237 68 1310729 coll filepaths 1;#B color 5;#P message 696 216 56 1310729 $1;#P newex 583 166 45 1310729 loadbang;#P newex 769 170 27 1310729 t b b;#P newex 425 153 53 1310729 r storetemp;#P newex 481 269 148 1310729 sprintf %scongig/temp/%s-temp.txt;#P message 481 205 37 1310729 project;#N coll filepaths 1;#P newobj 481 227 75 1310729 coll filepaths 1;#B color 5;#P comment 16 10 37 1310729 sw : $2;#B frgb 99 99 99;#P window setfont "Sans Serif" 9.;#P comment 79 247 109 196617 contact@tommays.net;#P comment 79 234 100 196617 patch by Tom Mays;#P window setfont Times 9.;#P comment 16 19 18 1310729 $3;#B frgb 99 99 99;#P newex 312 204 52 1310729 t b $3 clear;#N vpatcher 274 44 649 375;#P window setfont "Sans Serif" 9.;#P window linecount 0;#P newex 44 197 30 196617 t b s;#P newex 44 224 36 196617 zl reg;#P window linecount 1;#P comment 121 34 98 196617 matrix prefix name;#P inlet 105 33 15 0;#P newex 105 81 108 196617 sprintf refer %sstate;#P newex 44 143 69 196617 route symbol;#P newex 72 166 69 196617 route symbol;#P outlet 44 282 15 0;#P button 44 70 15 0;#P newex 44 248 242 196617 sprintf append %s connect %s %s\\\;;#P message 44 90 31 196617 dump;#N coll empty 1;#P newobj 44 121 96 196617 coll empty 1;#B color 5;#P window linecount 2;#P comment 193 117 134 196617 arg 1 : matrix prefix name \; arg 2 : coll matrix name \;;#P connect 9 0 4 0;#P connect 4 0 2 0;#P connect 2 0 1 0;#P fasten 8 0 1 0 110 114 49 114;#P connect 1 0 7 0;#P connect 7 0 12 0;#P connect 12 0 11 0;#P connect 11 0 3 0;#P connect 3 0 5 0;#P connect 9 0 11 1;#P connect 1 1 6 0;#P connect 9 0 8 0;#P fasten 12 1 3 1 69 218 165 218;#P fasten 6 0 3 2 77 190 281 190;#P pop;#P newobj 373 255 90 1310729 p make-connect-qlist;#B color 6;#P newex 874 300 35 1310729 t read b;#P newex 872 229 75 1310729 pvar recallarchive;#P newex 200 228 74 1310729 pvar writearchive;#P newex 268 256 100 1310729 activeparamsnoset $2 1;#B color 6;#P window linecount 3;#P comment 15 149 209 1310729 arg 1 : activeparams prefix name (i.e. activeparams) \; arg 2 : switch coll name (i.e. switchstate) \; arg 3 : input matrix prefix name (i.e. inmtrx) \;;#P window linecount 1;#P newex 481 178 27 1310729 b;#P newex 768 148 71 1310729 pvar recallactive;#P newex 283 359 41 1310729 onebang;#P newex 306 281 69 1310729 pvar openactive;#P newex 481 151 69 1310729 pvar storeactive;#P button 253 306 15 0;#N qlist;#P newobj 253 338 40 1310729 qlist;#P user panel 0 0 119 48;#X brgb 235 235 235;#X frgb 128 128 128;#X border 1;#X rounded 4;#X shadow 2;#X done;#P connect 39 0 50 0;#P connect 43 5 39 0;#P connect 10 0 39 0;#P connect 46 1 43 0;#P fasten 5 0 2 0 288 381 247 381 247 301 258 301;#P fasten 56 0 1 0 642 334 258 334;#P fasten 54 0 1 0 486 333 258 333;#P connect 50 0 1 0;#P connect 14 2 1 0;#P fasten 13 0 1 0 378 335 258 335;#P fasten 9 0 1 0 273 331 258 331;#P fasten 12 0 1 0 879 333 258 333;#P lcolor 1;#P connect 2 0 1 0;#P connect 40 0 1 0;#P connect 14 0 9 0;#P connect 1 2 5 0;#P connect 47 0 44 0;#P connect 47 1 44 0;#P connect 43 4 44 0;#P connect 43 1 44 0;#P connect 43 3 44 0;#P connect 49 0 44 0;#P connect 44 0 45 0;#P connect 45 0 46 0;#P connect 41 0 40 0;#P fasten 7 1 14 0 503 198 558 198 558 136 317 136;#P fasten 23 1 5 1 791 344 319 344;#P fasten 12 1 5 1 904 355 319 355;#P connect 4 0 41 0;#P connect 48 0 41 0;#P connect 43 3 41 0;#P connect 14 1 13 0;#P fasten 22 0 7 0 430 174 486 174;#P connect 3 0 7 0;#P connect 43 1 7 0;#P connect 7 0 20 0;#P connect 20 0 19 0;#P connect 19 0 51 0;#P connect 51 0 21 0;#P connect 21 0 53 0;#P connect 53 0 54 0;#P connect 43 5 49 0;#P connect 7 1 30 0;#P connect 24 0 29 0;#P fasten 23 0 29 0 774 191 588 191;#P connect 25 0 21 1;#P fasten 29 0 27 0 588 215 642 215;#P connect 27 0 26 0;#P connect 26 0 52 0;#P connect 52 0 28 0;#P connect 28 0 55 0;#P connect 55 0 56 0;#P connect 43 2 47 0;#P connect 43 4 48 0;#P connect 29 1 25 0;#P connect 6 0 23 0;#P connect 48 1 23 0;#P connect 47 1 23 0;#P connect 25 0 28 1;#P connect 11 0 12 0;#P connect 47 0 12 0;#P pop;