max v2;#N vpatcher 23 101 673 575;#P origin 27 0;#P window setfont "Sans Serif" 9.;#P window linecount 1;#N coll m_effects 1;#P newobj 448 298 84 196617 coll m_effects 1;#P newex 448 253 51 196617 zl ecils 7;#P newex 407 232 51 196617 zl slice 2;#P newex 448 330 21 196617 t 0;#P newex 448 274 40 196617 itoa;#P newex 283 167 40 196617 t l l 1;#P newex 264 270 29 196617 gate;#P newex 298 210 119 196617 zl slice 4;#P newex 298 189 40 196617 atoi;#P comment 129 323 109 196617 contact@tommays.net;#P comment 129 310 100 196617 patch by Tom Mays;#P number 46 264 35 9 0 0 0 3 0 0 0 221 221 221 222 222 222 0 0 0;#P message 191 225 14 196617 3;#P message 176 225 14 196617 5;#P newex 176 204 40 196617 sel 0 1;#P newex 176 151 45 196617 loadbang;#P message 176 173 60 196617 $2;#P window linecount 4;#P comment 165 68 167 196617 arg 1 : name of coll containing mutestate info \; arg 2 : 0 for mute state detecting \, 1 for switch state detecting.;#N comlet bang to trigger;#P inlet 24 43 15 0;#N comlet to comment or message box;#P outlet 7 399 15 0;#P window linecount 1;#P newex 36 342 87 196617 sprintf %s/state;#P newex 7 322 39 196617 t b s;#P newex 7 379 77 196617 makeqlistnoset;#B color 6;#P newex 7 302 27 196617 itoa;#P newex 7 282 49 196617 zl ecils 5;#P newex 69 213 29 196617 == 0;#P newex 7 261 27 196617 atoi;#P newex 7 241 27 196617 gate;#P newex 24 145 35 196617 zl join;#P newex 24 166 42 196617 zl rot 1;#P newex 64 122 65 196617 route symbol;#P message 24 82 31 196617 dump;#N coll $1 1;#P newobj 24 100 132 196617 coll $1 1;#B color 5;#P newex 24 191 55 196617 unpack s 0;#P connect 8 0 6 0;#P connect 6 0 7 0;#P connect 7 0 9 0;#P connect 9 0 10 0;#P connect 10 0 12 0;#P connect 12 0 11 0;#P connect 11 0 14 0;#P connect 15 0 2 0;#P connect 2 0 1 0;#P connect 1 0 5 0;#P connect 5 0 4 0;#P connect 27 0 0 0;#P connect 0 0 6 1;#P connect 12 1 13 0;#P connect 21 0 22 0;#P connect 20 0 22 0;#P connect 22 0 9 1;#P connect 3 0 5 1;#P connect 1 1 3 0;#P connect 0 1 8 0;#P fasten 13 0 11 1 41 369 79 369;#P connect 17 0 8 1;#P connect 18 0 17 0;#P connect 17 0 19 0;#P connect 19 0 20 0;#P connect 19 1 21 0;#P connect 28 2 27 0;#P connect 30 0 27 0;#P connect 4 0 28 0;#P connect 28 0 27 1;#P connect 28 1 25 0;#P connect 25 0 26 0;#P connect 26 1 31 0;#P connect 31 1 32 0;#P connect 32 0 29 0;#P connect 29 0 33 0;#P connect 33 0 30 0;#P pop;