max v2;#N vpatcher 356 228 1305 765;#P origin 0 -14;#P window setfont "Sans Serif" 9.;#P window linecount 1;#P message 563 80 14 196617 1;#P message 820 110 14 196617 0;#P newex 820 130 71 196617 s $1/shooter;#B color 12;#P newex 538 78 21 196617 t 1;#P newex 538 107 124 196617 gate;#P newex 538 33 59 196617 t b 0;#P newex 609 31 143 196617 r $1/time/out;#P newex 538 56 81 196617 del;#P newex 541 11 150 196617 r $1/shoot/live;#P newex 17 144 219 196617 t b stop;#P toggle 538 129 15 0;#P button 232 296 15 0;#P newex 17 369 84 196617 s $1/shoot;#B color 12;#P newex 698 196 149 196617 r $1/shoot/live;#B color 12;#P newex 17 123 91 196617 r $1/shoot/freez;#B color 12;#P newex 538 148 41 196617 sel 0 1;#P newex 553 173 159 196617 s $1/shoot/freez;#B color 12;#P newex 538 197 152 196617 s $1/shoot/live;#B color 12;#P window linecount 2;#P newex 242 454 98 196617 sprintf send /%s.%ld/color/alpha;#P window linecount 1;#P message 242 433 80 196617 $3;#P newex 721 406 64 196617 fromsymbol;#P newex 721 386 40 196617 itoa;#P newex 680 366 51 196617 zl ecils 1;#P newex 680 345 40 196617 atoi;#P message 680 326 98 196617 $1;#P newex 182 409 70 196617 t l b;#B color 12;#P newex 652 82 129 196617 r $1/shooter;#B color 12;#P newex 820 81 48 196617 loadbang;#P window setfont "Sans Serif" 12.;#P comment 563 349 69 196620 FADE OUT;#P comment 414 294 72 196620 WAIT TIME;#P window setfont "Sans Serif" 9.;#P newex 104 341 21 196617 t 0;#B color 12;#P newex 240 97 151 196617 t b b;#B color 12;#P newex 240 52 269 196617 makeparam $1/shoot/auto $1 t 0;#B color 12;#P newex 104 368 156 196617 s $1/shoot/auto;#B color 12;#P newex 17 192 32 196617 f 1.;#P newex 39 169 190 196617 makeparam $1/alpha_max $2 f 1 0 1 1;#B color 12;#P newex 396 271 318 196617 makeparam $1/time/wait $2 i 1000 0 20000 1;#B color 12;#P newex 279 293 127 196617 delay 0;#P newex 39 485 125 196617 s $1/info;#B color 12;#P newex 39 462 125 196617 prepend $1;#P newex 226 338 127 196617 delay 0;#P newex 240 73 32 196617 sel 1;#B color 12;#P newex 294 372 165 196617 pack 0. 0 -0.17;#P newex 182 485 90 196617 forward;#B color 12;#P newex 461 372 166 196617 pack 1. 0 0.17;#P newex 240 242 127 196617 delay 0;#P newex 344 312 318 196617 makeparam $1/time/out $2 i 5000 0 200000 1;#B color 12;#P newex 357 217 312 196617 makeparam $1/time/in $2 i 5000 0 20000 1;#B color 12;#P window setfont "Sans Serif" 12.;#P comment 370 239 56 196620 FADE IN;#P window setfont "Sans Serif" 9.;#P window linecount 2;#P comment 670 101 115 196617 from editor or mapper only received here;#P connect 35 0 40 0;#P connect 40 0 15 0;#P connect 19 0 37 0;#P connect 15 0 37 0;#P connect 14 0 15 1;#P fasten 7 0 10 0 299 393 44 393;#P lcolor 15;#P fasten 5 0 10 0 466 429 44 429;#P lcolor 15;#P connect 10 0 11 0;#P connect 9 0 19 0;#P connect 19 0 16 0;#P connect 7 0 24 0;#P connect 5 0 24 0;#P fasten 31 0 6 0 247 484 187 484;#P connect 24 0 6 0;#P connect 40 1 9 0;#P connect 38 0 9 0;#P connect 36 0 38 0;#P connect 17 0 8 0;#P connect 8 0 18 0;#P connect 18 0 4 0;#P connect 24 1 30 0;#P connect 30 0 31 0;#P connect 40 1 12 0;#P connect 4 0 12 0;#P connect 38 0 7 0;#P fasten 29 0 31 1 726 448 335 448;#P connect 3 0 9 1;#P connect 2 0 4 1;#P connect 3 0 7 1;#P connect 13 0 12 1;#P connect 15 0 5 0;#P connect 41 0 44 0;#P connect 44 0 42 0;#P connect 42 0 46 0;#P connect 44 1 45 0;#P connect 46 0 45 0;#P connect 49 0 45 0;#P connect 45 0 39 0;#P connect 39 0 34 0;#P connect 34 0 32 0;#P connect 12 0 32 0;#P connect 2 0 5 1;#P lcolor 5;#P connect 18 1 33 0;#P connect 34 1 33 0;#P connect 22 0 49 0;#P connect 43 0 42 1;#P connect 23 0 45 1;#P connect 22 0 25 0;#P connect 25 0 26 0;#P connect 26 0 27 0;#P connect 27 1 28 0;#P connect 28 0 29 0;#P connect 22 0 48 0;#P connect 48 0 47 0;#P pop;