max v2;#N vpatcher 20 74 386 401;#P window setfont "Sans Serif" 9.;#P window linecount 1;#P comment 217 192 109 196617 contact@tommays.net;#P comment 217 179 100 196617 patch by Tom Mays;#P button 16 171 15 0;#N comlet to jit.gl.slab;#P outlet 87 281 15 0;#N comlet from jit.gl.slab out2;#P inlet 87 15 15 0;#N coll $1-params 1;#P newobj 127 226 89 196617 coll $1-params 1;#B color 5;#P newex 16 193 74 196617 t open b clear;#N comlet getparamlist bang;#P inlet 16 151 15 0;#P newex 127 203 72 196617 prepend store;#P newex 127 182 69 196617 zl join;#P newex 169 137 27 196617 t b l;#P newex 127 162 36 196617 zl reg;#P newex 87 57 86 196617 substitute float f;#P newex 87 34 76 196617 substitute int i;#P newex 169 117 38 196617 zl join;#P newex 87 255 110 196617 prepend getparamtype;#P newex 201 255 121 196617 prepend getparamdefault;#P newex 87 81 193 196617 route paramlist paramtype paramdefault;#P newex 87 102 47 196617 zl iter 1;#P message 16 256 67 196617 getparamlist;#P comment 32 172 23 196617 <--;#P connect 13 0 18 0;#P connect 18 0 14 0;#P connect 14 1 1 0;#P connect 16 0 7 0;#P connect 7 1 8 0;#P connect 7 0 8 0;#P connect 8 0 3 0;#P connect 8 1 3 0;#P connect 3 0 2 0;#P connect 2 0 5 0;#P connect 1 0 17 0;#P connect 4 0 17 0;#P connect 5 0 17 0;#P connect 10 0 9 0;#P connect 9 0 11 0;#P connect 11 0 12 0;#P fasten 14 0 15 0 21 222 132 222;#P fasten 14 2 15 0 85 222 132 222;#P connect 12 0 15 0;#P connect 2 0 9 1;#P connect 3 1 6 0;#P connect 6 0 10 0;#P connect 10 1 11 1;#P connect 3 2 6 1;#P fasten 2 0 4 0 92 250 206 250;#P lcolor 2;#P pop;