max v2;#N vpatcher 0 44 336 366;#P origin -84 -479;#P window setfont "Sans Serif" 9.;#P hidden message 400 92 196 196617 window size 0 44 336 366 \, window exec;#P hidden newex 4 -25 71 196617 pvar preview;#P hidden message 21 15 184 196617 window size 0 44 \$1 \$2 \, window exec;#N thispatcher;#Q end;#P hidden newobj 0 80 61 196617 thispatcher;#P number 200 41 51 9 24 480 3 3 0 0 0 221 221 221 222 222 222 0 0 0;#P objectname sizey;#P number 200 23 51 9 32 640 3 3 0 0 0 221 221 221 222 222 222 0 0 0;#P objectname sizex;#P comment 151 42 46 196617 /size/y;#P comment 151 24 46 196617 /size/x;#P comment 41 25 47 196617 preview;#P comment 41 41 68 196617 main window;#P user radiogroup 27 23 18 32;#X size 2;#X offset 16;#X inactive 0;#X itemtype 0;#X flagmode 0;#X set 0;#X done;#P objectname window-switch;#P hidden newex 130 -130 246 196617 variedit $1/preview $1;#B color 12;#P hidden newex 130 -107 246 196617 variedit $1/size/y $1;#B color 12;#P hidden newex 130 -84 246 196617 variedit $1/size/x $1;#B color 12;#P hidden newex 67 -109 58 196617 pvar sizey;#B color 14;#P hidden newex 67 -86 58 196617 pvar sizex;#B color 14;#P user jit.pwindow -1 63 322 242 0 1 0 0 1 0;#X name movie-review;#P objectname preview;#P hidden newex 22 -130 103 196617 pvar window-switch;#B color 14;#P window setfont "Sans Serif" 18.;#N vpatcher 548 353 1222 653;#P window setfont "Sans Serif" 9.;#P newex 237 156 37 196617 + 126;#P newex 187 145 31 196617 + 16;#P outlet 235 212 15 0;#P newex 235 189 27 196617 pak;#P outlet 50 135 15 0;#P button 501 184 15 0;#P window linecount 0;#P newex 375 50 152 196617 makeparam $1/preview $1 t 0;#B color 12;#P window linecount 4;#P message 518 212 114 196617 \; $1/size/x/init bang \; $1/size/y/init bang \; $1/preview/init bang \;;#P window linecount 1;#P newex 518 185 52 196617 r $1/init;#P newex 50 112 88 196617 pak size 320 240;#P newex 128 84 201 196617 makeparam $1/size/y $1 i 240 24 480 0;#B color 12;#P newex 89 63 201 196617 makeparam $1/size/x $1 i 320 32 640 0;#B color 12;#P window linecount 2;#P message 397 98 168 196617 \; /movie/gl drawto movie-preview \;;#P message 375 128 126 196617 \; /movie/gl drawto movie \;;#P window linecount 1;#P newex 375 76 32 196617 sel 1;#P connect 5 0 10 0;#P connect 3 0 5 1;#P connect 4 0 5 2;#P connect 3 0 13 0;#P connect 13 0 11 0;#P connect 11 0 12 0;#P connect 4 0 14 0;#P connect 14 0 11 1;#P connect 8 0 0 0;#P connect 0 0 1 0;#P connect 0 1 2 0;#P connect 9 0 7 0;#P connect 6 0 7 0;#P pop;#P hidden newobj 4 -60 84 196626 p engine;#B color 6;#P bpatcher 0 0 256 62 0 0 bkgnd.mxt 0 $1 0;#P objectname background;#P hidden connect 0 0 16 0;#P hidden connect 17 0 16 0;#P hidden connect 1 0 18 0;#P hidden connect 1 1 17 0;#P hidden connect 8 0 2 0;#P hidden connect 7 0 5 0;#P hidden connect 6 0 4 0;#P hidden connect 2 0 8 0;#P hidden connect 5 0 7 0;#P hidden connect 4 0 6 0;#P pop;