max v2;#N vpatcher 270 271 1005 620;#P origin 0 -40;#N comlet read preset;#P inlet 659 216 15 0;#P inlet 297 36 15 0;#P inlet 278 36 15 0;#P window setfont "Sans Serif" 9.;#P newex 451 249 68 196617 prepend read;#P newex 451 228 51 196617 tosymbol;#P newex 295 249 73 196617 prepend write;#P newex 295 228 51 196617 tosymbol;#P message 17 253 35 196617 write;#P newex 278 74 27 196617 b 2;#P button 105 229 15 0;#P message 105 248 30 196617 open;#P button 17 232 15 0;#P newex 312 142 158 196617 s /movie/activeparams/request;#B color 12;#P newex 451 116 20 196617 t b;#P window linecount 2;#P newex 451 191 149 196617 sprintf %sconfig/temp/%s-temp.txt;#P window linecount 1;#P newex 451 165 62 196617 projectpath;#B color 5;#P message 590 163 86 196617 $1;#P newex 590 136 48 196617 loadbang;#P newex 502 87 145 196617 t b b;#P newex 318 74 64 196617 r storetemp;#B color 12;#P window linecount 2;#P newex 295 191 142 196617 sprintf %sconfig/temp/%s-temp.txt;#P window linecount 1;#P newex 295 165 62 196617 projectpath;#B color 5;#P newex 80 143 181 196617 t b clear;#P newex 659 240 45 196617 t read b;#P newex 80 170 134 196617 m_activeparamsnoset $2 1;#B color 6;#P newex 295 116 27 196617 b;#P inlet 258 36 15 0;#P newex 90 300 45 196617 onebang;#P inlet 238 36 15 0;#P button 60 247 15 0;#N qlist;#P newobj 60 279 40 196617 qlist;#P fasten 29 0 19 0 302 65 22 65;#P lcolor 2;#P connect 19 0 23 0;#P fasten 3 0 1 0 95 322 54 322 54 242 65 242;#P fasten 8 1 0 0 256 272 65 272;#P fasten 27 0 0 0 456 272 65 272;#P fasten 25 0 0 0 300 272 65 272;#P connect 23 0 0 0;#P fasten 7 0 0 0 664 272 65 272;#P lcolor 1;#P connect 1 0 0 0;#P connect 20 0 0 0;#P fasten 6 0 0 0 85 269 65 269;#P fasten 5 1 8 0 317 136 372 136 372 102 85 102;#P lcolor 13;#P connect 8 0 6 0;#P connect 0 2 3 0;#P fasten 22 0 21 0 283 217 110 217;#P lcolor 2;#P connect 21 0 20 0;#P fasten 12 1 3 1 642 292 130 292;#P fasten 7 1 3 1 699 292 130 292;#P connect 28 0 22 0;#P lcolor 5;#P fasten 11 0 5 0 323 112 300 112;#P connect 22 1 5 0;#P fasten 2 0 5 0 243 106 300 106;#P lcolor 7;#P connect 5 0 9 0;#P connect 9 0 10 0;#P connect 10 0 24 0;#P connect 24 0 25 0;#P connect 5 1 18 0;#P fasten 14 0 10 1 595 187 432 187;#P fasten 12 0 17 0 507 112 456 112;#P connect 17 0 15 0;#P connect 15 0 16 0;#P connect 16 0 26 0;#P connect 26 0 27 0;#P fasten 4 0 12 0 263 59 507 59;#P lcolor 1;#P connect 13 0 14 0;#P connect 14 0 16 1;#P connect 30 0 7 0;#P pop;