max v2;#N vpatcher 597 73 1170 802;#P origin 250 255;#P window setfont "Sans Serif" 14.;#N vpatcher 10 59 434 391;#P window setfont "Sans Serif" 9.;#P newex 108 231 227 196617 prepend $1/brcosa/enable;#B color 12;#P newex 108 119 275 196617 makeparam $1/brcosa/enable $1 t 0;#B color 12;#P newex 60 187 245 196617 prepend $1/brcosa/saturation;#B color 12;#P newex 18 146 246 196617 prepend $1/brcosa/brightness;#B color 12;#P newex 39 166 237 196617 prepend $1/brcosa/contrast;#B color 12;#P newex 60 75 329 196617 makeparam $1/brcosa/saturation $1 f 0.2 0. 1. 1;#B color 12;#P newex 18 34 330 196617 makeparam $1/brcosa/brightness $1 f 0.2 0. 1. 1;#B color 12;#P newex 39 54 321 196617 makeparam $1/brcosa/contrast $1 f 0.2 0. 1. 1;#B color 12;#P outlet 18 285 15 0;#P connect 2 0 5 0;#P connect 6 0 0 0;#P connect 4 0 0 0;#P connect 5 0 0 0;#P connect 8 0 0 0;#P connect 1 0 4 0;#P connect 3 0 6 0;#P connect 7 0 8 0;#P pop;#P newobj 102 319 72 196622 p brcosa;#B color 6;#N vpatcher 10 59 434 391;#P window setfont "Sans Serif" 9.;#P newex 108 231 129 196617 prepend $1/rotate/enable;#B color 12;#P newex 108 119 177 196617 makeparam $1/rotate/enable $1 t 0;#B color 12;#P newex 60 187 106 196617 prepend $1/rotate/z;#B color 12;#P newex 18 146 107 196617 prepend $1/rotate/x;#B color 12;#P newex 39 166 107 196617 prepend $1/rotate/y;#B color 12;#P newex 60 75 190 196617 makeparam $1/rotate/z $1 f 1. 0. 1. 1;#B color 12;#P newex 18 34 191 196617 makeparam $1/rotate/x $1 f 0. 0. 1. 1;#B color 12;#P newex 39 54 191 196617 makeparam $1/rotate/y $1 f 0. 0. 1. 1;#B color 12;#P outlet 18 285 15 0;#P connect 2 0 5 0;#P connect 6 0 0 0;#P connect 4 0 0 0;#P connect 5 0 0 0;#P connect 8 0 0 0;#P connect 1 0 4 0;#P connect 3 0 6 0;#P connect 7 0 8 0;#P pop;#P newobj 87 287 79 196622 p rotation;#B color 6;#N vpatcher 10 59 434 391;#P window setfont "Sans Serif" 9.;#P newex 108 231 219 196617 prepend $1/crop/enable;#B color 12;#P newex 108 119 208 196617 makeparam $1/crop/enable $1 t 0;#B color 12;#P newex 60 187 237 196617 prepend $1/crop/right;#B color 12;#P newex 18 146 231 196617 prepend $1/crop/left;#B color 12;#P newex 81 208 229 196617 prepend $1/crop/top;#B color 12;#P newex 39 166 246 196617 prepend $1/crop/bottom;#B color 12;#P newex 60 75 275 196617 makeparam $1/crop/right $1 f 1. 0. 1. 1;#B color 12;#P newex 18 34 317 196617 makeparam $1/crop/left $1 f 0. 0. 1. 1;#B color 12;#P newex 81 96 254 196617 makeparam $1/crop/top $1 f 1. 0. 1. 1;#B color 12;#P newex 39 54 295 196617 makeparam $1/crop/bottom $1 f 0. 0. 1. 1;#B color 12;#P outlet 18 285 15 0;#P connect 3 0 7 0;#P connect 7 0 0 0;#P connect 5 0 0 0;#P connect 8 0 0 0;#P connect 6 0 0 0;#P connect 10 0 0 0;#P connect 1 0 5 0;#P connect 4 0 8 0;#P connect 2 0 6 0;#P connect 9 0 10 0;#P pop;#P newobj 74 258 56 196622 p crop;#B color 6;#N vpatcher 10 59 601 405;#P inlet 384 32 15 0;#P window setfont "Sans Serif" 9.;#P window linecount 1;#P newex 384 61 89 196617 t l b;#P message 463 81 33 196617 clear;#P newex 384 81 51 196617 tosymbol;#P newex 384 124 188 196617 s $1/tomenu;#B color 12;#P newex 384 101 76 196617 prepend prefix;#P newex 209 41 151 196617 r $1/init;#B color 13;#P newex 160 132 98 196617 r $1/mediabin/link;#B color 12;#P newex 160 156 47 196617 gate 1 1;#P newex 73 243 49 196617 append 1;#P newex 140 243 49 196617 append 0;#P newex 73 222 77 196617 t l l;#P newex 16 71 67 196617 route <none>;#P newex 73 200 157 196617 sprintf /mediabin.1/read/%s;#P newex 73 97 134 196617 t s b;#P newex 160 179 130 196617 zl reg;#P message 209 66 66 196617 $1;#P newex 209 91 81 196617 excludeinstance;#P newex 280 134 27 196617 - 1;#P number 280 114 35 9 0 0 0 3 0 0 0 221 221 221 222 222 222 0 0 0;#P message 280 156 134 196617 /mediabin.1/dest \$1;#P window setfont "Sans Serif" 20.;#P window linecount 3;#P comment 192 232 374 196628 include mediabin.1 now… we have to found a better solution for mediabin… it needs to be a node and a module;#P inlet 16 51 15 0;#P outlet 73 280 15 0;#P connect 1 0 11 0;#P connect 11 1 9 0;#P connect 9 0 10 0;#P connect 10 0 12 0;#P connect 12 0 14 0;#P connect 14 0 0 0;#P fasten 13 0 0 0 145 270 78 270;#P connect 8 0 0 0;#P connect 12 1 13 0;#P connect 16 0 15 0;#P connect 15 0 8 0;#P connect 9 1 15 1;#P connect 17 0 7 0;#P connect 7 0 6 0;#P connect 6 1 4 0;#P connect 4 0 5 0;#P connect 5 0 3 0;#P connect 3 0 8 1;#P connect 23 0 22 0;#P connect 22 0 20 0;#P connect 20 0 18 0;#P connect 18 0 19 0;#P fasten 21 0 19 0 468 99 389 99;#P connect 22 1 21 0;#P pop;#P newobj 63 231 145 196622 p mediabin-handling;#B color 6;#N vpatcher 10 59 610 459;#P window setfont "Sans Serif" 9.;#P newex 50 50 309 196617 makeparam $1/scale/mode $1 m Fit;#B color 12;#P newex 167 86 336 196617 makeparam $1/scale/y $1 f 0.25 0.1 1;#B color 12;#P newex 110 68 316 196617 makeparam $1/scale/x $1 f 0.25 0. 1 1;#B color 12;#P newex 50 158 119 196617 prepend $1/scale/mode;#B color 12;#P newex 167 114 102 196617 prepend $1/scale/y;#B color 12;#P newex 110 134 102 196617 prepend $1/scale/x;#B color 12;#P outlet 50 199 15 0;#P connect 6 0 3 0;#P connect 3 0 0 0;#P connect 1 0 0 0;#P connect 2 0 0 0;#P connect 4 0 1 0;#P connect 5 0 2 0;#P pop;#P newobj 39 118 60 196622 p scale;#B color 6;#N vpatcher 10 59 523 424;#P window setfont "Sans Serif" 9.;#P newex 51 50 330 196617 makeparam $1/position/mode $1 m Onscreen;#B color 12;#P newex 167 86 301 196617 makeparam $1/position/y $1 f 0.5 0 1 1;#B color 12;#P newex 109 68 301 196617 makeparam $1/position/x $1 f 0.5 0 1 1;#B color 12;#P newex 50 160 131 196617 prepend $1/position/mode;#B color 12;#P newex 167 111 114 196617 prepend $1/position/y;#B color 12;#P newex 109 135 114 196617 prepend $1/position/x;#B color 12;#P outlet 50 307 15 0;#P connect 6 0 3 0;#P connect 3 0 0 0;#P connect 1 0 0 0;#P connect 2 0 0 0;#P connect 4 0 1 0;#P connect 5 0 2 0;#P pop;#P newobj 25 90 79 196622 p position;#B color 6;#N vpatcher 10 59 540 311;#P origin 0 81;#P window setfont "Sans Serif" 9.;#P newex 183 93 326 196617 makeparam $1/color/alpha $1 f 1 0 1 1;#B color 12;#P newex 125 75 321 196617 makeparam $1/color/blue $1 f 1 0 1 1;#B color 12;#P newex 67 57 328 196617 makeparam $1/color/green $1 f 1 0 1 1;#B color 12;#P newex 9 39 318 196617 makeparam $1/color/red $1 f 1 0 1 1;#B color 12;#P newex 183 118 119 196617 prepend $1/color/alpha;#B color 12;#P newex 125 136 114 196617 prepend $1/color/blue;#B color 12;#P newex 67 154 121 196617 prepend $1/color/green;#B color 12;#P newex 9 172 111 196617 prepend $1/color/red;#B color 12;#P outlet 9 202 15 0;#P connect 5 0 1 0;#P connect 1 0 0 0;#P connect 2 0 0 0;#P connect 3 0 0 0;#P connect 4 0 0 0;#P connect 6 0 2 0;#P connect 7 0 3 0;#P connect 8 0 4 0;#P pop;#P newobj 13 65 59 196622 p color;#B color 6;#P window setfont "Sans Serif" 9.;#P newex 63 190 265 196617 makeparam $1/media/read $1 s <none>;#B color 12;#P newex 198 210 221 196617 makeparam $1/media/path $1 s default;#B color 12;#P newex 5 429 49 196617 s /vdmx;#P newex 49 146 314 196617 makeparam $1/blend/mode $1 m "OpenGL- Add";#B color 12;#P newex 5 23 260 196617 makeparam $1/sw $1 t 1;#B color 12;#P newex 180 268 164 196617 moduleinit $1;#B color 13;#P window linecount 28;#P message 180 298 264 196617 \; $1/sw/init bang \; $1/color/red/init bang \; $1/color/green/init bang \; $1/color/blue/init bang \; $1/color/alpha/init bang \; $1/media/path/init bang \; $1/media/read/init bang \; $1/blend/mode/init bang \; $1/position/mode/init bang \; $1/position/x/init bang \; $1/position/y/init bang \; $1/scale/mode/init bang \; $1/scale/x/init bang \; $1/scale/y/init bang \; $1/crop/enable/init bang \; $1/crop/top/init bang \; $1/crop/left/init bang \; $1/crop/bottom/init bang \; $1/crop/right/init bang \; $1/brcosa/enable/init bang \; $1/brcosa/brightness/init bang \; $1/brcosa/contrast/init bang \; $1/brcosa/saturation/init bang \; $1/rotate/enable/init bang \; $1/rotate/x/init bang \; $1/rotate/y/init bang \; $1/rotate/z/init bang \;;#P window linecount 1;#P newex 49 165 119 196617 prepend $1/blend/mode;#B color 12;#P newex 5 47 80 196617 prepend $1/sw;#B color 12;#P connect 4 0 0 0;#P fasten 15 0 6 0 107 386 10 386;#P fasten 14 0 6 0 92 370 10 370;#P fasten 0 0 6 0 10 246 10 246;#P fasten 1 0 6 0 54 305 10 305;#P fasten 9 0 6 0 18 259 10 259;#P fasten 10 0 6 0 30 271 10 271;#P fasten 11 0 6 0 44 285 10 285;#P fasten 12 0 6 0 68 342 10 342;#P fasten 13 0 6 0 79 356 10 356;#P connect 5 0 1 0;#P connect 8 0 12 0;#P connect 3 0 2 0;#P connect 7 0 12 1;#P pop;