max v2;#N vpatcher 649 327 1461 797;#P origin 0 18;#P outlet 55 379 15 0;#P window setfont "Sans Serif" 9.;#P newex 130 196 68 196617 prepend read;#P message 83 154 143 196617 $2;#P newex 83 174 57 196617 route none;#P inlet 30 378 15 0;#P newex 17 400 338 196617 jit.gl.slab $3 @type float32 @dim 640 480 @file $4;#B color 12;#P newex 17 427 189 196617 s $1/slab/out;#B color 12;#P window setfont Helvetica 9.;#P comment 521 197 190 1376265 Tom Mays \, Olivier Pfeiffer & Renaud Rubiano;#B frgb 0 146 207;#P window linecount 2;#P comment 522 171 220 1376265 m_2slab is a part of movie \, a part of tapemovie. contact@tapemovie.org;#P window setfont Helvetica 24.;#P window linecount 1;#P comment 522 93 98 1376280 m_2slab;#B frgb 0 146 207;#P window setfont Helvetica 12.;#P window linecount 4;#P comment 522 120 255 1376268 $1 : prefix name \; $2 : shader file name $3 : name of the render associated \; $4 : name of the second shader file;#P user panel 519 90 269 128;#X brgb 255 255 255;#X frgb 0 0 0;#X border 1;#X rounded 0;#X shadow 0;#X done;#P window setfont "Sans Serif" 9.;#P window linecount 1;#P newex 195 65 69 196617 route symbol;#P newex 17 55 27 196617 t i i;#P button 97 54 15 0;#P newex 47 54 40 196617 change;#P newex 62 107 45 196617 onebang;#P newex 38 222 175 196617 r $1;#B color 12;#P newex 345 427 133 196617 s $1/dumpout;#B color 12;#P message 570 324 113 196617 argb;#P newex 563 304 179 196617 m_colormode $1;#B color 14;#P newex 390 241 189 196617 r $1/getparamlist;#B color 11;#P button 390 262 15 0;#P newex 390 281 196 196617 m_getparamlist $1;#B color 14;#P newex 331 61 268 196617 r $1/dumpout;#B color 12;#P newex 331 102 181 196617 prepend store $1;#P newex 331 81 80 196617 route out_name;#P message 390 376 67 196617 getout_name;#P newex 390 354 159 196617 r $1/init;#B color 11;#P newex 62 127 50 196617 t dump b;#P newex 85 290 68 196617 prepend send;#P newex 85 269 69 196617 route symbol;#P newex 62 316 47 196617 forward;#B color 12;#N coll $1/state 1;#P newobj 62 247 161 196617 coll $1/state 1;#B color 5;#P newex 347 130 78 196617 sprintf %s/out;#P message 17 96 43 196617 dispose;#P newex 252 151 69 196617 route symbol;#N coll m_textures 1;#P newobj 252 130 91 196617 coll m_textures 1;#B color 5;#P toggle 17 37 15 0;#P newex 17 16 311 196617 makeswitch $1/sw $1 movie_switchstate;#B color 11;#P newex 347 151 62 196617 prepend set;#P newex 161 130 31 196617 t set;#P newex 195 130 51 196617 t texture;#P newex 195 90 67 196617 route <none>;#P newex 252 172 82 196617 prepend texture;#P newex 195 41 323 196617 makeparam $1/source $1 s <none>;#B color 12;#P newex 17 358 223 196617 jit.gl.slab $3 @type float32 @dim 640 480;#B color 12;#P newex 264 222 124 196617 b;#P newex 17 76 100 196617 sel 0 1;#P newex 264 246 111 196617 s $1/out;#B color 12;#P newex 264 200 44 196617 receive;#B color 12;#P connect 11 0 12 0;#P connect 12 0 37 0;#P connect 37 0 2 0;#P connect 2 0 15 0;#P connect 33 0 4 0;#P fasten 30 0 4 0 568 351 22 351;#P fasten 3 1 4 0 383 347 22 347;#P connect 6 0 4 0;#P lcolor 7;#P connect 15 0 4 0;#P connect 8 0 4 0;#P lcolor 2;#P connect 27 0 4 0;#P connect 49 0 4 0;#P connect 4 0 45 0;#P fasten 23 0 45 0 395 395 22 395;#P connect 46 0 45 0;#P connect 45 0 44 0;#P connect 37 1 35 0;#P connect 4 0 50 0;#P connect 2 1 34 0;#P connect 34 0 21 0;#P connect 21 0 17 0;#P connect 17 0 18 0;#P fasten 20 0 18 0 90 311 67 311;#P connect 21 1 48 0;#P connect 48 0 47 0;#P connect 17 1 19 0;#P connect 19 0 20 0;#P connect 35 0 36 0;#P connect 36 0 34 1;#P connect 47 1 49 0;#P connect 7 0 9 0;#P connect 5 0 38 0;#P connect 38 1 7 0;#P connect 38 0 7 0;#P connect 7 0 8 0;#P connect 7 1 13 0;#P connect 25 0 13 0;#P connect 13 0 14 0;#P connect 14 0 6 0;#P fasten 9 0 0 0 166 195 269 195;#P fasten 10 0 0 0 352 195 269 195;#P connect 0 0 3 0;#P connect 3 0 1 0;#P connect 26 0 24 0;#P connect 24 0 25 0;#P connect 45 1 32 0;#P fasten 7 1 16 0 257 125 352 125;#P connect 16 0 10 0;#P connect 29 0 28 0;#P connect 28 0 27 0;#P connect 22 0 23 0;#P fasten 30 1 31 0 737 322 575 322;#P connect 26 0 27 1;#P pop;