max v2;#N vpatcher 8 44 1414 818;#P window setfont "Sans Serif" 9.;#P message 1313 331 43 196617 glgroup;#N comlet name out;#P outlet 1284 581 15 0;#N comlet input to menu;#P inlet 1362 415 15 0;#P newex 1284 526 44 196617 del 100;#P window linecount 2;#P message 1284 547 86 196617 script sendtoback background;#P window linecount 1;#P newex 1284 505 20 196617 t b;#P message 1321 369 39 196617 /wii.1;#P message 1328 487 33 196617 clear;#N comlet name out;#P outlet 1348 456 15 0;#P message 1313 350 35 196617 fshift;#P newex 1292 419 66 196617 pvar menu 2;#N vpatcher 27 202 745 855;#P window setfont "Sans Serif" 12.;#P window linecount 2;#N vpatcher 20 74 426 436;#P origin -66 0;#P window setfont "Sans Serif" 9.;#P newex 0 50 306 196617 t b dump clear;#P inlet 0 28 15 0;#P outlet 0 327 15 0;#P newex 178 291 117 196617 sprintf append /%s.%ld;#P newex 178 269 58 196617 zl reg;#P newex 178 247 78 196617 t b i;#P newex 148 225 40 196617 uzi;#N coll m_config 1;#P newobj 148 203 79 196617 coll m_config 1;#B color 5;#P newex 148 181 88 196617 t s s;#P newex 148 159 78 196617 zl reg;#P newex 148 137 20 196617 t b;#P newex 148 115 45 196617 route gl;#P newex 148 93 65 196617 route output;#P newex 216 94 69 196617 route symbol;#N coll m_modules;#P newobj 148 71 215 196617 coll m_modules;#P connect 13 0 14 0;#P connect 14 2 12 0;#P lcolor 12;#P fasten 11 0 12 0 183 317 5 317;#P connect 14 0 12 0;#P connect 14 1 0 0;#P connect 0 0 2 0;#P connect 2 0 3 0;#P connect 3 0 4 0;#P connect 4 0 5 0;#P connect 5 0 6 0;#P connect 6 0 7 0;#P connect 7 0 8 0;#P connect 8 2 9 0;#P connect 9 0 10 0;#P connect 10 0 11 0;#P connect 0 1 1 0;#P connect 1 0 5 1;#P connect 6 1 10 1;#P connect 9 1 11 1;#P pop;#P newobj 227 332 60 196620 p load gl outputs;#B color 6;#P window setfont "Sans Serif" 9.;#P window linecount 1;#P newex 228 141 70 196617 route glgroup;#P window linecount 0;#P message 426 477 33 196617 clear;#P window linecount 1;#P newex 232 518 27 196617 - 1;#P newex 194 516 32 196617 sel 0;#P newex 194 559 49 196617 zl rot -1;#P newex 194 538 48 196617 pack;#P message 331 399 30 196617 next;#P message 362 399 33 196617 start;#P newex 331 376 40 196617 uzi;#P number 331 357 35 9 0 0 0 3 0 0 0 221 221 221 222 222 222 0 0 0;#N coll /wii.1/submodules;#P newobj 331 336 53 196617 coll;#B color 5;#P message 245 559 85 196617 checkitem \$1 \$2;#P newex 545 417 135 196617 sprintf refer /%s/substate;#P button 385 531 15 0;#P newex 194 473 77 196617 sprintf %s/sw;#P message 608 113 70 196617 setcheck 165;#P user ubumenu 385 511 100 196617 0 1 1 0;#X prefix_set 0 0 <none> 0;#N coll /wii.1/substate;#P newobj 194 495 53 196617 coll;#B color 5;#P message 427 346 65 196617 refer empty;#N coll empty 1;#P newobj 612 208 66 196617 coll empty 1;#B color 5;#P message 393 140 44 196617 fshift.1;#P message 368 162 33 196617 wii.1;#P message 355 140 35 196617 fshift;#P newex 345 575 123 196617 substitute symbol append;#P newex 331 308 107 196617 t length clear s b;#P newex 331 283 40 196617 itoa;#P newex 288 283 40 196617 itoa;#P newex 288 227 53 196617 route 47;#P newex 288 206 68 196617 t l l;#P newex 288 261 53 196617 gate 2;#P newex 387 267 27 196617 + 1;#P newex 387 247 27 196617 > 0;#P newex 346 227 51 196617 zl sub 46;#P newex 288 186 40 196617 atoi;#P message 323 161 39 196617 /wii.1;#P message 308 140 41 196617 /fshift;#P newex 395 417 148 196617 sprintf refer /%s/submodules;#N coll /wii.1/submodules;#P newobj 331 446 53 196617 coll;#B color 5;#P newex 17 165 96 196617 t b s s b;#P button 17 393 15 0;#P window linecount 3;#P comment 303 76 209 196617 module "little" name without instance number for "instance" mode \, WITH instance number for "submodule" mode;#P outlet 31 601 15 0;#P window linecount 1;#P newex 520 69 103 196617 t b b;#P newex 520 111 43 196617 route 0;#P newex 45 367 38 196617 zl reg;#P newex 45 298 140 196617 t i clear;#P newex 45 391 112 196617 sprintf append /%s.%i;#P newex 45 340 40 196617 uzi;#P newex 45 278 51 196617 zl slice 1;#P number 45 321 35 9 0 0 0 3 0 0 0 221 221 221 222 222 222 0 0 0;#P message 520 91 107 196617 $1;#P message 101 186 70 196617 $3;#P message 221 206 43 196617 /movie;#P message 182 206 35 196617 /tape;#P message 114 206 62 196617 /tapemovie;#P newex 101 278 118 196617 sprintf refer %s_config;#P message 189 256 16 196617 m;#P message 145 256 14 196617 t;#P message 101 256 20 196617 tm;#P newex 101 233 142 196617 sel /tapemovie /tape /movie;#N coll tm_config;#P newobj 45 257 53 196617 coll;#B color 5;#N comlet loadbang;#P inlet 520 49 15 0;#N comlet module "little" name without instance number for "instance" mode \, WITH instance number for "submodule" mode;#P inlet 288 98 15 0;#P window linecount 0;#P comment 535 50 48 196617 loadbang;#P fasten 37 0 25 0 293 310 275 310 275 160 22 160;#P connect 25 0 24 0;#P connect 48 0 22 0;#P connect 40 0 22 0;#P connect 39 1 22 0;#P connect 18 1 22 0;#P fasten 17 0 22 0 50 416 36 416;#P fasten 24 0 22 0 22 416 36 416;#P connect 26 3 22 0;#P connect 64 0 22 0;#P connect 25 1 3 0;#P connect 8 0 3 0;#P connect 3 0 15 0;#P connect 15 0 18 0;#P connect 18 0 14 0;#P connect 14 0 16 0;#P connect 16 0 19 0;#P connect 19 0 17 0;#P connect 25 2 19 1;#P connect 25 3 12 0;#P connect 12 0 4 0;#P connect 11 0 4 0;#P connect 10 0 4 0;#P connect 9 0 4 0;#P connect 4 0 5 0;#P connect 5 0 8 0;#P connect 6 0 8 0;#P connect 7 0 8 0;#P connect 4 1 6 0;#P connect 16 2 17 1;#P connect 4 2 7 0;#P connect 26 1 49 0;#P connect 49 0 46 0;#P connect 51 0 46 0;#P connect 46 0 60 0;#P connect 60 1 58 0;#P connect 58 0 59 0;#P connect 63 0 64 0;#P fasten 1 0 63 0 293 127 233 127;#P fasten 20 1 63 0 558 134 233 134;#P connect 55 2 61 0;#P connect 61 0 58 1;#P connect 59 0 52 0;#P connect 43 0 30 0;#P connect 41 0 30 0;#P connect 42 0 30 0;#P connect 28 0 30 0;#P connect 29 0 30 0;#P connect 63 1 30 0;#P connect 30 0 35 0;#P connect 35 0 36 0;#P connect 33 0 34 0;#P connect 34 0 37 0;#P connect 36 0 34 1;#P connect 36 1 34 1;#P connect 34 1 38 0;#P connect 38 0 39 0;#P connect 45 0 53 0;#P connect 39 0 53 0;#P connect 27 0 53 0;#P connect 53 0 54 0;#P connect 54 0 55 0;#P connect 55 0 57 0;#P connect 57 0 26 0;#P connect 56 0 26 0;#P connect 27 0 26 0;#P connect 45 0 26 0;#P connect 26 1 40 0;#P connect 35 1 31 0;#P connect 39 3 56 0;#P connect 48 0 47 0;#P connect 40 0 47 0;#P connect 39 1 47 0;#P connect 52 0 47 0;#P connect 62 0 47 0;#P connect 47 0 50 0;#P connect 31 1 32 0;#P connect 32 0 33 0;#P connect 39 2 27 0;#P connect 39 3 45 0;#P connect 2 0 21 0;#P connect 21 0 13 0;#P connect 13 0 20 0;#P fasten 39 2 51 0 400 375 550 375;#P lcolor 2;#P connect 21 1 48 0;#P pop;#P newobj 1292 393 77 196617 p load menu;#B color 6;#P window linecount 3;#P comment 1175 366 117 196617 module "little" name without instance number and without slash;#P window linecount 1;#N vpatcher 10 59 249 246;#P window setfont "Sans Serif" 9.;#P message 65 88 84 196617 script hide more;#P message 50 106 89 196617 script show more;#P toggle 50 50 15 0;#P newex 50 68 41 196617 sel 1 0;#P inlet 50 30 15 0;#P outlet 50 126 15 0;#P connect 1 0 3 0;#P connect 3 0 2 0;#P connect 2 0 4 0;#P connect 5 0 0 0;#P connect 4 0 0 0;#P connect 2 1 5 0;#P pop;#P newobj 1073 304 94 196617 p show/hide_more;#B color 6;#N comlet module "little" name without instance number and without slash;#P inlet 1292 363 15 0;#P message 1209 288 50 196617 $4;#P message 1266 288 50 196617 $5;#P number 1209 308 35 9 0 0 0 3 0 0 0 221 221 221 222 222 222 0 0 0;#P number 1266 308 35 9 0 0 0 3 0 0 0 221 221 221 222 222 222 0 0 0;#P window setfont "Sans Serif" 14.;#N vpatcher 159 199 819 568;#P window setfont "Sans Serif" 9.;#P window linecount 0;#P newex 576 85 50 196617 clip 0. 4.;#P newex 460 85 56 196617 clip 0. 12.;#P newex 532 85 21 196617 t 1;#P flonum 576 108 35 9 0 0 0 3 0 0 0 221 221 221 222 222 222 0 0 0;#P newex 532 64 54 196617 split 0. 0.;#P newex 532 43 37 196617 abs 0.;#P newex 416 85 21 196617 t 1;#P flonum 460 108 35 9 0 0 0 3 0 0 0 221 221 221 222 222 222 0 0 0;#P newex 416 64 54 196617 split 0. 0.;#P newex 416 43 37 196617 abs 0.;#P newex 242 266 50 196617 deferlow;#P newex 242 244 20 196617 t b;#P window linecount 1;#P message 242 293 165 196617 script sendtoback backgroundpanel;#P newex 416 224 66 196617 bondo 2 1;#P number 416 204 35 9 0 0 0 3 0 0 0 221 221 221 222 222 222 0 0 0;#P number 532 201 35 9 0 0 0 3 0 0 0 221 221 221 222 222 222 0 0 0;#N vpatcher 10 59 192 206;#P window setfont "Sans Serif" 9.;#P newex 50 70 18 196617 t i;#P newex 50 50 34 196617 + 0.5;#P inlet 50 30 15 0;#P outlet 50 92 15 0;#P connect 1 0 2 0;#P connect 2 0 3 0;#P connect 3 0 0 0;#P pop;#P newobj 416 171 53 196617 p rounder;#B color 6;#N vpatcher 10 59 192 206;#P window setfont "Sans Serif" 9.;#P newex 50 70 18 196617 t i;#P newex 50 50 34 196617 + 0.5;#P inlet 50 30 15 0;#P outlet 50 92 15 0;#P connect 1 0 2 0;#P connect 2 0 3 0;#P connect 3 0 0 0;#P pop;#P newobj 532 171 53 196617 p rounder;#B color 6;#P message 132 293 104 196617 script move sw \$1 1;#P newex 97 260 30 196617 - 20;#P newex 58 260 36 196617 - 136;#P number 58 236 35 9 0 0 0 3 0 0 0 221 221 221 222 222 222 0 0 0;#P message 16 293 114 196617 script move menu \$1 1;#P newex 416 248 66 196617 swap;#P newex 532 149 41 196617 * 256.;#P newex 416 270 66 196617 pack 256 62;#P newex 416 149 35 196617 * 62.;#P flonum 416 129 35 9 0 0 0 3 0 0 0 221 221 221 222 222 222 0 0 0;#P flonum 532 129 35 9 0 0 0 3 0 0 0 221 221 221 222 222 222 0 0 0;#P message 416 292 164 196617 script size backgroundpanel \$1 \$2;#P inlet 416 23 15 0;#P inlet 532 23 15 0;#P outlet 16 324 15 0;#P connect 12 0 10 0;#P connect 10 0 0 0;#P connect 3 0 0 0;#P connect 14 0 0 0;#P connect 20 0 0 0;#P connect 15 0 11 0;#P connect 11 0 12 0;#P connect 11 0 13 0;#P connect 13 0 14 0;#P connect 7 0 21 0;#P connect 21 0 22 0;#P connect 22 0 20 0;#P connect 2 0 23 0;#P connect 23 0 24 0;#P connect 24 0 26 0;#P connect 25 0 5 0;#P connect 26 0 5 0;#P connect 5 0 6 0;#P connect 6 0 16 0;#P connect 16 0 18 0;#P connect 18 0 19 0;#P connect 19 0 9 0;#P connect 9 0 7 0;#P connect 7 0 3 0;#P connect 24 1 31 0;#P connect 31 0 25 0;#P connect 17 0 19 1;#P connect 19 1 9 1;#P connect 9 1 7 1;#P connect 1 0 27 0;#P connect 27 0 28 0;#P connect 28 0 30 0;#P connect 30 0 4 0;#P connect 29 0 4 0;#P connect 4 0 8 0;#P connect 8 0 15 0;#P connect 15 0 17 0;#P connect 28 1 32 0;#P connect 32 0 29 0;#P pop;#P newobj 1209 332 89 196622 p panelsize;#B color 6;#P window setfont "Sans Serif" 9.;#P newex 1110 665 141 196617 route border shadow rounded;#P window setfont Times 9.;#P user ubumenu 120 1 115 1310729 0 1 1 0;#X setrgb 92 122 84 240 255 240 234 234 234 4 4 4 141 141 141 112 112 112;#X prefix_set 0 0 <none> 0;#P objectname menu;#P window setfont "Sans Serif" 9.;#P newex 1142 217 102 196617 sprintf send %s/init;#P comment 1099 237 44 196617 $1/init;#P newex 1051 235 47 196617 forward;#B color 11;#P comment 1148 622 42 196617 $1/sw;#P comment 1102 484 85 196617 $1/more/editor;#P newex 1120 448 143 196617 sprintf send %s/more/editor;#P window setfont "Sans Serif" 12.;#P comment 1051 149 234 196620 u for "universal";#P window setfont "Sans Serif" 9.;#P newex 1110 643 131 196617 colorchooser $3;#B color 5;#P window linecount 7;#P comment 1051 57 326 196617 arg 1 : module "little" name without instance number for "instance" mode \, WITH instance number for "submodule" mode. (i.e. fshift for instance mode \, wii.1 for submodule mode \, / is optional \; arg 2 : "more" button hide/show (0/1) \; arg 3 : environment name (i.e. /tapemovie \, /tape \, /movie \, /cue-list) \; arg 4 : vertical background units (def = 1) \; arg 5 : horizontal background units (def = 1) \;;#P window setfont Times 9.;#P window linecount 1;#P newex 1051 210 18 1310729 t b;#P window setfont "Sans Serif" 9.;#P comment 1095 192 176 196617 init and module param register write;#P window linecount 2;#P comment 1219 545 37 196617 temp-preset;#P window linecount 1;#P newex 1051 481 47 196617 forward;#B color 11;#P newex 1051 262 48 196617 loadbang;#P message 1051 419 81 196617 brgb 0 200 180;#P user jsui 236 1 19 15 1 0 0 m_toggle.js off on;#P objectname sw;#P newex 1051 457 40 196617 t front;#P newex 1051 437 57 196617 pvar more;#N thispatcher;#Q end;#P newobj 1073 376 61 196617 thispatcher;#P message 1073 286 21 196617 $2;#P user jsui 23 1 30 15 1 0 0 jsui_textbutton.js more;#P objectname more;#P window setfont Times 9.;#P newex 1051 190 43 1310729 pvar init;#P message 1 1 19 1310729 init;#B color 12;#P objectname init;#P newex 1051 513 48 1310729 pvar open;#P newex 1155 513 50 1310729 pvar recall;#P newex 1103 513 48 1310729 pvar store;#P message 1 32 13 1310729 R;#B color 7;#P objectname recall;#P message 1 18 13 1310729 S;#B color 2;#P objectname store;#P message 1 46 13 1310729 O;#B color 9;#P objectname open;#P window setfont "Sans Serif" 9.;#P newex 1110 622 18 196617 t i;#P window setfont Times 9.;#P newex 1051 542 167 1310729 storetemppathu;#B color 6;#P window setfont "Sans Serif" 9.;#P newex 1051 579 52 196617 pvar sw;#P newex 1051 599 187 196617 varieditu /sw $1;#B color 5;#P user hint 2 46 15 60 "open temp preset text (qlist)" 750 100 0 65535 65535 52428 9 3 0 1 0 0 0;#P user hint 2 32 15 47 "recall temp preset" 750 100 0 65535 65535 52428 9 3 0 1 0 0 0;#P user hint 2 18 15 32 "store temp preset" 750 100 0 65535 65535 52428 9 3 0 1 0 0 0;#P user hint 2 1 21 15 "initialize this module" 750 100 0 65535 65535 52428 9 3 0 1 0 0 0;#P user panel 0 0 256 62;#X brgb 255 255 255;#X frgb 198 198 198;#X border 1;#X rounded 4;#X shadow 0;#X done;#P background;#P objectname backgroundpanel;#P connect 16 0 28 0;#P connect 37 0 35 0;#P connect 28 0 35 0;#P connect 24 0 23 0;#P connect 23 0 20 0;#P connect 20 0 21 0;#P fasten 32 0 25 0 1125 477 1056 477;#P connect 21 0 25 0;#P connect 14 0 7 0;#P fasten 5 0 6 0 1056 621 1047 621 1047 575 1056 575;#P connect 6 0 5 0;#P fasten 24 0 18 0 1056 283 1078 283;#P connect 18 0 46 0;#P fasten 40 0 19 0 1214 360 1078 360;#P connect 46 0 19 0;#P connect 12 0 7 1;#P connect 5 1 8 0;#P connect 8 0 30 0;#P connect 30 0 39 0;#P connect 49 1 32 0;#P fasten 49 1 37 0 1353 441 1382 441 1382 213 1147 213;#P connect 13 0 7 2;#P connect 49 1 5 2;#P connect 49 1 7 3;#P fasten 24 0 44 0 1056 283 1214 283;#P connect 44 0 42 0;#P connect 42 0 40 0;#P fasten 24 0 43 0 1056 283 1271 283;#P connect 43 0 41 0;#P connect 40 0 54 0;#P connect 54 0 56 0;#P connect 56 0 55 0;#P connect 55 0 58 0;#P connect 41 0 40 1;#P connect 53 0 48 0;#P connect 50 0 48 0;#P connect 45 0 48 0;#P connect 59 0 48 0;#P fasten 39 3 49 0 1244 689 1273 689 1273 415 1297 415;#P connect 52 0 49 0;#P connect 48 0 49 0;#P connect 57 0 49 0;#P connect 49 1 51 0;#P fasten 24 0 48 1 1056 283 1364 283;#P pop;