max v2;#N vpatcher 256 248 850 481;#P origin 1 25;#P window setfont "Sans Serif" 24.;#P comment 431 94 111 196632 m_blend;#P toggle 15 116 15 0;#P window setfont "Sans Serif" 9.;#P newex 15 138 105 196617 prepend blend_enable;#P newex 15 21 237 196617 makeparam $1/blend $1 t 1 0 1 0;#B color 12;#P newex 258 134 142 196617 r $1/m_blend/init;#B color 12;#P window linecount 4;#P message 258 155 144 196617 \; $1/blend/init bang \; $1/blendmode/src/init bang \; $1/blendmode/dst/init bang \;;#P window linecount 1;#P newex 160 162 62 196617 prepend set;#P outlet 160 185 15 0;#P newex 131 116 27 196617 pak;#B color 11;#P newex 287 61 285 196617 makeparam $1/blendmode/dst $1 m 7;#B color 11;#P newex 131 138 100 196617 prepend blend_mode;#P newex 131 41 286 196617 makeparam $1/blendmode/src $1 m 6;#B color 11;#P outlet 131 185 15 0;#P connect 9 0 11 0;#P connect 11 0 10 0;#P connect 1 0 4 0;#P connect 4 0 2 0;#P connect 2 0 0 0;#P fasten 10 0 0 0 20 182 136 182;#P connect 3 0 4 1;#P fasten 2 0 6 0 136 157 165 157;#P connect 6 0 5 0;#P connect 8 0 7 0;#P pop;