max v2;#N vpatcher 25 98 402 324;#P origin 72 -55;#P window setfont "Sans Serif" 9.;#P newex 124 125 74 196617 loadmess argb;#P window setfont "Sans Serif" 24.;#P comment 119 21 168 196632 m_colormode;#P window setfont "Sans Serif" 9.;#P newex 112 106 179 196617 makeparam $1/colormode $1 m argb;#B color 12;#P window linecount 2;#P comment 95 74 223 196617 arg 1 : prefix name \; arg 2 : disable global colormode message (1/0);#P toggle 15 80 15 0;#P window linecount 1;#P newex 15 30 67 196617 loadmess $2;#P newex 15 56 31 196617 == 0;#P newex 15 106 64 196617 gate 1;#P newex 69 56 103 196617 r /movie/colormode;#B color 12;#P newex 112 152 62 196617 prepend set;#P outlet 15 192 15 0;#P newex 15 153 94 196617 prepend colormode;#P outlet 112 192 15 0;#P connect 7 0 6 0;#P connect 6 0 8 0;#P connect 8 0 5 0;#P connect 5 0 1 0;#P connect 12 0 1 0;#P connect 10 0 1 0;#P connect 1 0 2 0;#P connect 4 0 5 1;#P connect 5 0 3 0;#P connect 10 0 3 0;#P connect 12 0 3 0;#P connect 3 0 0 0;#P pop;