max v2;#N vpatcher 479 434 939 651;#P window setfont "Sans Serif" 9.;#P newex 196 115 80 196617 pvar fpswanted;#B color 14;#P newex 196 137 229 196617 variedit /framemotor/fps $1;#B color 12;#P window setfont "Sans Serif" 10.;#P number 2 3 35 10 0 999 8227 3 0 0 0 255 255 255 0 0 0 0 0 0;#P objectname fpswanted;#P window setfont "Sans Serif" 9.;#P newex 113 67 134 196617 r /framemotor/peak/reset;#B color 12;#P message 113 117 26 196617 100;#P newex 34 157 54 196617 pvar peak;#B color 14;#P newex 113 97 58 196617 pvar reset;#B color 14;#P newex 34 137 89 196617 trough;#P newex 34 118 57 196617 pvar frate;#B color 14;#P newex 34 37 97 196617 r /movie/fpsoutint;#B color 12;#P window setfont Times 9.;#P comment 104 4 23 1310729 min;#P window setfont "Sans Serif" 10.;#P comment 56 2 23 196618 fps;#P number 29 3 31 10 0 0 8352 3 232 16 16 221 221 221 222 222 222 0 0 0;#P objectname frate;#P user ubutton 84 3 43 14 0 2;#P objectname reset;#P window setfont Times 9.;#P number 82 4 25 9 0 0 8352 20 232 16 16 221 221 221 222 222 222 0 0 0;#P objectname peak;#P connect 5 0 6 0;#P connect 6 0 7 0;#P connect 7 0 9 0;#P connect 11 0 8 0;#P connect 8 0 10 0;#P connect 10 0 7 1;#P fasten 13 0 14 0 201 159 190 159 190 110 201 110;#P connect 14 0 13 0;#P pop;