max v2;#N vpatcher 0 44 1440 896;#P inlet 359 8 15 0;#P window setfont "Sans Serif" 9.;#P message 1018 381 33 196617 clear;#P window setfont "Sans Serif" 12.;#P newex 1127 51 217 196620 m_rendermenuu $1;#B color 6;#P window setfont "Sans Serif" 9.;#P newex 1060 29 75 196617 pvar drawto 2;#P user panel 7 373 246 5;#X brgb 191 191 191;#X frgb 191 191 191;#X border 1;#X rounded 0;#X shadow 0;#X done;#P user panel 4 494 246 5;#X brgb 191 191 191;#X frgb 191 191 191;#X border 1;#X rounded 0;#X shadow 0;#X done;#P user panel 7 298 246 5;#X brgb 191 191 191;#X frgb 191 191 191;#X border 1;#X rounded 0;#X shadow 0;#X done;#P comment 13 336 64 196617 /fog;#B frgb 9 9 9;#P toggle 159 473 13 0;#P objectname materialinherit;#P toggle 4 387 13 0;#P objectname automaterial;#P newex 215 938 206 196617 variedit $1/shininess $1;#B color 12;#P newex 215 914 76 196617 pvar Shininess;#P newex 953 881 246 196617 variedit $1/mat/specular/alpha $1;#B color 12;#P newex 711 881 241 196617 variedit $1/mat/specular/blue $1;#B color 12;#P newex 212 881 238 196617 variedit $1/mat/specular/red $1;#B color 12;#P newex 462 881 248 196617 variedit $1/mat/specular/green $1;#B color 12;#P newex 711 858 77 196617 pvar specularb;#P newex 462 858 77 196617 pvar specularg;#P newex 212 858 77 196617 pvar specularr;#P newex 953 858 74 196617 pvar speculara;#P newex 953 833 247 196617 variedit $1/mat/emission/alpha $1;#B color 12;#P newex 711 833 242 196617 variedit $1/mat/emission/blue $1;#B color 12;#P newex 212 833 239 196617 variedit $1/mat/emission/red $1;#B color 12;#P newex 462 833 249 196617 variedit $1/mat/emission/green $1;#B color 12;#P newex 711 810 78 196617 pvar emissionb;#P newex 462 810 78 196617 pvar emissiong;#P newex 212 810 78 196617 pvar emissionr;#P newex 953 810 78 196617 pvar emissiona;#P newex 953 783 239 196617 variedit $1/mat/diffuse/alpha $1;#B color 12;#P newex 711 783 234 196617 variedit $1/mat/diffuse/blue $1;#B color 12;#P newex 212 783 231 196617 variedit $1/mat/diffuse/red $1;#B color 12;#P newex 462 783 241 196617 variedit $1/mat/diffuse/green $1;#B color 12;#P newex 711 760 70 196617 pvar diffuseb;#P newex 462 760 70 196617 pvar diffuseg;#P newex 212 760 70 196617 pvar diffuser;#P newex 953 760 70 196617 pvar diffusea;#P newex 953 631 208 196617 variedit $1/fog/amount $1;#B color 12;#P newex 711 631 191 196617 variedit $1/fog/end $1;#B color 12;#P newex 212 685 206 196617 variedit $1/fog/inherit $1;#B color 12;#P newex 953 591 199 196617 variedit $1/fog/alpha $1;#B color 12;#P newex 462 631 199 196617 variedit $1/fog/start $1;#B color 12;#P newex 711 591 194 196617 variedit $1/fog/blue $1;#B color 12;#P newex 212 631 209 196617 variedit $1/fog/density $1;#B color 12;#P newex 462 591 201 196617 variedit $1/fog/green $1;#B color 12;#P newex 212 591 191 196617 variedit $1/fog/red $1;#B color 12;#P newex 953 735 243 196617 variedit $1/mat/ambient/alpha $1;#B color 12;#P newex 711 735 238 196617 variedit $1/mat/ambient/blue $1;#B color 12;#P newex 212 735 235 196617 variedit $1/mat/ambient/red $1;#B color 12;#P newex 462 735 245 196617 variedit $1/mat/ambient/green $1;#B color 12;#P newex 953 610 48 196617 pvar fog;#P newex 212 657 78 196617 pvar foginherit;#P newex 711 712 74 196617 pvar ambientb;#P newex 462 712 74 196617 pvar ambientg;#P newex 212 712 74 196617 pvar ambientr;#P newex 711 610 63 196617 pvar fogend;#P newex 462 610 71 196617 pvar fogstart;#P newex 212 610 68 196617 pvar fogdens;#P newex 953 570 53 196617 pvar foga;#P newex 711 570 53 196617 pvar fogb;#P newex 462 570 55 196617 pvar fogg;#P newex 212 570 53 196617 pvar fogr;#P flonum 89 470 40 9 0. 255. 8227 3 0 0 0 221 221 221 222 222 222 0 0 0;#P objectname Shininess;#P comment 2 472 76 196617 Shininess:;#P flonum 89 453 40 9 0. 1. 8227 3 0 0 0 221 221 221 222 222 222 0 0 0;#P objectname specularr;#P flonum 215 453 40 9 0. 1. 8227 3 0 0 0 221 221 221 222 222 222 0 0 0;#P objectname speculara;#P flonum 173 453 40 9 0. 1. 8227 3 0 0 0 221 221 221 222 222 222 0 0 0;#P objectname specularb;#P flonum 131 453 40 9 0. 1. 8227 3 0 0 0 221 221 221 222 222 222 0 0 0;#P objectname specularg;#P comment 2 455 76 196617 Specular light:;#P flonum 89 435 40 9 0. 1. 8227 3 0 0 0 221 221 221 222 222 222 0 0 0;#P objectname emissionr;#P flonum 215 435 40 9 0. 1. 8227 3 0 0 0 221 221 221 222 222 222 0 0 0;#P objectname emissiona;#P flonum 173 435 40 9 0. 1. 8227 3 0 0 0 221 221 221 222 222 222 0 0 0;#P objectname emissionb;#P flonum 131 435 40 9 0. 1. 8227 3 0 0 0 221 221 221 222 222 222 0 0 0;#P objectname emissiong;#P comment 2 437 79 196617 Emission light:;#P flonum 89 417 40 9 0. 1. 8227 3 0 0 0 221 221 221 222 222 222 0 0 0;#P objectname diffuser;#P flonum 215 417 40 9 0. 1. 8227 3 0 0 0 221 221 221 222 222 222 0 0 0;#P objectname diffusea;#P flonum 173 417 40 9 0. 1. 8227 3 0 0 0 221 221 221 222 222 222 0 0 0;#P objectname diffuseb;#P flonum 131 417 40 9 0. 1. 8227 3 0 0 0 221 221 221 222 222 222 0 0 0;#P objectname diffuseg;#P comment 2 419 70 196617 Diffuse light:;#P flonum 89 399 40 9 0. 1. 8227 3 0 0 0 221 221 221 222 222 222 0 0 0;#P objectname ambientr;#P flonum 215 399 40 9 0. 1. 8227 3 0 0 0 221 221 221 222 222 222 0 0 0;#P objectname ambienta;#P flonum 173 399 40 9 0. 1. 8227 3 0 0 0 221 221 221 222 222 222 0 0 0;#P objectname ambientb;#P flonum 131 399 40 9 0. 1. 8227 3 0 0 0 221 221 221 222 222 222 0 0 0;#P objectname ambientg;#P comment 215 382 38 196617 /alpha;#P comment 173 382 38 196617 /blue;#P comment 131 382 38 196617 /green;#P comment 89 382 38 196617 /red;#P comment 2 401 74 196617 Ambient light:;#P flonum 76 351 40 9 0. 1. 8227 3 0 0 0 221 221 221 222 222 222 0 0 0;#P objectname fogdens;#P flonum 202 351 40 9 0. 1. 8227 3 0 0 0 221 221 221 222 222 222 0 0 0;#P objectname fogamount;#P flonum 160 351 40 9 0. 0 8225 3 0 0 0 221 221 221 222 222 222 0 0 0;#P objectname fogend;#P flonum 118 351 40 9 0. 0 8225 3 0 0 0 221 221 221 222 222 222 0 0 0;#P objectname fogstart;#P comment 202 335 44 196617 /amount;#P comment 160 335 38 196617 /end;#P comment 118 335 38 196617 /start;#P comment 76 335 44 196617 /density;#B frgb 9 9 9;#P comment 25 353 45 196617 Inherit;#P user radiogroup 10 351 73 16;#X size 1;#X offset 16;#X inactive 0;#X itemtype 1;#X flagmode 0;#X set 0;#X done;#P objectname inherit_fog;#P flonum 76 318 40 9 0. 1. 8227 3 9 9 9 221 221 221 222 222 222 0 0 0;#P objectname fogr;#P flonum 202 318 40 9 0. 1. 8227 3 0 0 0 221 221 221 222 222 222 0 0 0;#P objectname foga;#P flonum 160 318 40 9 0. 1. 8227 3 0 0 0 221 221 221 222 222 222 0 0 0;#P objectname fogb;#P flonum 118 318 40 9 0. 1. 8227 3 0 0 0 221 221 221 222 222 222 0 0 0;#P objectname fogg;#P comment 202 305 38 196617 /alpha;#P comment 160 305 38 196617 /blue;#P comment 118 305 38 196617 /green;#B frgb 17 17 17;#P comment 76 305 38 196617 /red;#P newex 953 712 74 196617 pvar ambienta;#P comment 173 473 84 196617 material/inherit;#P comment 15 387 58 196617 /mat/auto;#P comment 14 305 64 196617 /fog/color;#B frgb 9 9 9;#P newex 285 482 202 196617 varieditu /poly_mode/y $1;#B color 12;#P newex 285 461 100 196617 pvar /poly_mode/y;#P newex 285 429 202 196617 varieditu /poly_mode/x $1;#B color 12;#P newex 285 405 100 196617 pvar /poly_mode/x;#P window setfont Times 9.;#P number 6 264 30 9 0 1536 35 20 0 0 0 221 221 221 222 222 222 0 0 0;#P objectname /poly_mode/y;#P window setfont "Sans Serif" 9.;#P comment 35 265 76 196617 /poly_mode/y;#P window setfont Times 9.;#P number 6 249 30 9 0 2048 35 20 0 0 0 221 221 221 222 222 222 0 0 0;#P objectname /poly_mode/x;#P window setfont "Sans Serif" 9.;#P comment 35 250 76 196617 /poly_mode/x;#P newex 665 246 200 196617 varieditu /smoothshading $1;#B color 12;#P newex 665 223 99 196617 pvar smoothshading;#P toggle 167 179 13 0;#P objectname smoothshading;#P comment 178 180 81 196617 /smoothshading;#P newex 501 482 188 196617 varieditu /point_size $1;#B color 12;#P newex 501 461 80 196617 pvar point_size;#P comment 142 266 63 196617 /point_size;#P window setfont Times 9.;#P flonum 112 250 31 9 0. 1000. 35 20 0 0 0 221 221 221 222 222 222 0 0 0;#P objectname line_width;#P window setfont "Sans Serif" 9.;#P newex 454 246 194 196617 varieditu /matrixoutput $1;#B color 12;#P newex 454 223 93 196617 pvar matrixoutput;#P toggle 74 179 13 0;#P objectname matrixoutput;#P comment 86 180 75 196617 /matrixoutput;#P newex 501 429 189 196617 varieditu /line_width $1;#B color 12;#P newex 501 405 81 196617 pvar line_width;#P comment 142 251 63 196617 /line_width;#P newex 927 245 186 196617 varieditu /enable $1;#B color 12;#P newex 928 223 62 196617 pvar enable;#P comment 18 506 60 196617 /enable;#P toggle 6 505 13 0;#P objectname enable;#P window setfont Times 9.;#P number 74 224 30 9 0 1536 35 20 0 0 0 221 221 221 222 222 222 0 0 0;#P objectname dest_dimy;#P window setfont "Sans Serif" 9.;#P comment 103 225 69 196617 /dest_dim/y;#P newex 454 382 188 196617 varieditu /dest_dim/y $1;#B color 12;#P newex 454 360 140 196617 pvar dest_dimy;#P window setfont Times 9.;#P number 74 209 30 9 0 2048 35 20 0 0 0 221 221 221 222 222 222 0 0 0;#P objectname dest_dimx;#P window setfont "Sans Serif" 9.;#P comment 103 210 69 196617 /dest_dim/x;#P newex 454 335 188 196617 varieditu /dest_dim/x $1;#B color 12;#P newex 454 311 140 196617 pvar dest_dimx;#P window setfont Times 9.;#P number 74 194 30 9 0 2 35 20 0 0 0 221 221 221 222 222 222 0 0 0;#P objectname cull_face;#P window setfont "Sans Serif" 9.;#P comment 103 195 57 196617 /cull_face;#P newex 454 289 189 196617 varieditu /cull_face $1;#B color 12;#P newex 454 265 75 196617 pvar cull_face;#P user ubumenu 95 160 159 196617 0 1 1 0;#X add 0: zero;#X add 1: one;#X add 2: destination color;#X add 3: source color;#X add 4: one minus destination color;#X add 5: one minus source color;#X add 6: source alpha;#X add 7: one minus source alpha;#X add 8: destination alpha;#X add 9: one minus destination alpha;#X add 10: source alpha saturate;#X prefix_set 0 0 <none> 0;#P objectname blendmode-dst;#P user ubumenu 95 143 159 196617 0 1 1 0;#X add 0: zero;#X add 1: one;#X add 2: destination color;#X add 3: source color;#X add 4: one minus destination color;#X add 5: one minus source color;#X add 6: source alpha;#X add 7: one minus source alpha;#X add 8: destination alpha;#X add 9: one minus destination alpha;#X add 10: source alpha saturate;#X prefix_set 0 0 <none> 0;#P objectname blendmode-src;#P inlet 322 8 15 0;#P newex 822 437 50 196617 deferlow;#P window setfont "Sans Serif" 12.;#N vpatcher 30 89 293 402;#P origin 0 -15;#P window setfont "Sans Serif" 9.;#P window linecount 0;#P newex 91 178 64 196617 sprintf %s_;#P window linecount 2;#P newex 50 138 39 196617 route symbol;#P window linecount 1;#P newex 50 87 46 196617 t dump l;#P newex 50 65 114 196617 sprintf refer %s/state;#P newex 50 254 47 196617 forward;#P window linecount 2;#P newex 91 210 42 196617 prepend send;#P newex 91 138 39 196617 route symbol;#P window linecount 1;#N coll /grid.1/state;#P newobj 50 114 134 196617 coll;#B color 5;#P inlet 50 21 15 0;#P connect 0 0 5 0;#P connect 5 0 6 0;#P connect 6 1 1 0;#P connect 6 0 1 0;#P connect 1 0 7 0;#P fasten 7 1 4 0 84 191 55 191;#P connect 7 0 4 0;#P fasten 3 0 4 0 96 246 55 246;#P connect 1 1 2 0;#P connect 2 0 8 0;#P connect 8 0 3 0;#P pop;#P newobj 822 466 109 196620 p re-send values;#B color 7;#P window setfont "Sans Serif" 9.;#P newex 1126 244 186 196617 varieditu /layer $1;#B color 12;#P newex 1127 222 58 196617 pvar layer;#P user panel 4 134 246 5;#X brgb 191 191 191;#X frgb 191 191 191;#X border 1;#X rounded 0;#X shadow 0;#X done;#P user panel 6 62 246 5;#X brgb 191 191 191;#X frgb 191 191 191;#X border 1;#X rounded 0;#X shadow 0;#X done;#P newex 285 538 183 196617 varieditu /texmap $1;#B color 12;#P newex 285 516 67 196617 pvar texmap;#P user ubumenu 7 280 69 196617 0 0 1 0;#X add object_linear;#X add sphere_map;#X add eye_linear;#X prefix_set 0 0 <none> 0;#P objectname texmap;#P comment 77 282 49 196617 /texmap;#P message 1126 318 33 196617 dump;#P window setfont Times 9.;#P user ubumenu 79 521 52 1310729 0 0 1 0;#X prefix_set 0 0 <none> 0;#P objectname drawto;#P window setfont "Sans Serif" 9.;#P comment 129 523 48 196617 /drawto;#P flonum 126 99 62 9 -360. 360. 8227 3 0 0 0 221 221 221 50 50 50 0 0 0;#P objectname roty;#P flonum 190 99 62 9 -360. 360. 8227 3 0 0 0 221 221 221 0 0 0 0 0 0;#P objectname rotz;#P flonum 62 99 62 9 -360. 360. 8227 3 33 33 33 221 221 221 9 9 9 0 0 0;#P objectname rotx;#P flonum 190 117 61 9 -10. 10. 8227 3 0 0 0 221 221 221 0 0 0 0 0 0;#P objectname scalez;#P flonum 126 117 61 9 -10. 10. 8227 3 9 9 9 221 221 221 33 33 33 0 0 0;#P objectname scaley;#P flonum 62 117 61 9 -10. 10. 8227 3 33 33 33 221 221 221 25 25 25 0 0 0;#P objectname scalex;#P flonum 190 81 62 9 -100. 100. 8227 3 0 0 0 221 221 221 0 0 0 0 0 0;#P objectname posz;#P flonum 126 81 62 9 -100. 100. 8227 3 0 0 0 221 221 221 0 0 0 0 0 0;#P objectname posy;#P flonum 62 81 62 9 -100. 100. 8227 3 0 0 0 221 221 221 33 33 33 0 0 0;#P objectname posx;#P comment 194 68 19 196617 /z;#B frgb 50 50 50;#P comment 128 68 20 196617 /y;#B frgb 9 9 9;#P comment 62 68 20 196617 /x;#B frgb 42 42 42;#P comment 3 102 47 196617 /rotxyz;#B frgb 42 42 42;#P comment 3 121 39 196617 /scale;#B frgb 33 33 33;#P comment 3 84 31 196617 /pos;#B frgb 42 42 42;#P window setfont Times 9.;#P number 79 504 30 9 0 1999 35 20 0 0 0 221 221 221 222 222 222 0 0 0;#P objectname layer;#P window setfont "Sans Serif" 9.;#P comment 110 504 40 196617 /layer;#P newex 840 127 170 196617 varieditu /rotxyz/z $1;#B color 12;#P newex 777 127 53 196617 pvar rotz;#P newex 591 127 171 196617 varieditu /rotxyz/y $1;#B color 12;#P newex 523 127 54 196617 pvar roty;#P newex 349 129 171 196617 varieditu /rotxyz/x $1;#B color 12;#P newex 283 129 54 196617 pvar rotx;#P newex 840 146 162 196617 varieditu /scale/z $1;#B color 12;#P newex 777 146 62 196617 pvar scalez;#P newex 591 146 163 196617 varieditu /scale/y $1;#B color 12;#P newex 523 146 63 196617 pvar scaley;#P newex 349 148 163 196617 varieditu /scale/x $1;#B color 12;#P newex 283 148 63 196617 pvar scalex;#P newex 840 105 154 196617 varieditu /pos/z $1;#B color 12;#P newex 777 105 54 196617 pvar posz;#P newex 591 105 155 196617 varieditu /pos/y $1;#B color 12;#P newex 523 105 55 196617 pvar posy;#P newex 349 107 155 196617 varieditu /pos/x $1;#B color 12;#P newex 283 107 55 196617 pvar posx;#P window setfont "Sans Serif" 12.;#P newex 350 52 140 196620 m_inputmenugpuu $1;#B color 6;#P window setfont "Sans Serif" 9.;#P newex 283 30 77 196617 pvar texture 2;#P user ubumenu 22 1 98 196617 0 1 1 0;#X prefix_set 0 0 <none> 0;#P objectname texture;#P newex 3 934 93 196617 fixedsize 535 284;#P newex 3 913 168 196617 editorwindow $1/more $1;#P toggle 6 522 13 0;#P objectname automatic;#P toggle 5 209 13 0;#P objectname antialias;#P toggle 5 194 13 0;#P objectname lighting;#P comment 18 195 44 196617 /lighting;#P comment 18 523 60 196617 /automatic;#P comment 18 210 54 196617 /antialias;#B frgb 9 9 9;#P toggle 167 225 13 0;#P objectname depthinherit;#P toggle 167 195 13 0;#P objectname depth;#P toggle 167 210 13 0;#P objectname depth-clear;#P toggle 5 179 13 0;#P objectname blend;#P toggle 18 41 13 0;#P objectname colorinherit;#N thispatcher;#Q end;#P newobj 3 955 70 196617 thispatcher;#P newex 429 938 226 196617 variedit $1/mat/inherit $1;#B color 12;#P newex 429 914 102 196617 pvar materialinherit;#P newex 282 289 168 196617 varieditu /lighting $1;#B color 12;#P newex 926 311 198 196617 varieditu /automatic $1;#B color 12;#P newex 282 335 173 196617 varieditu /antialias $1;#B color 12;#P newex 282 311 72 196617 pvar antialias;#P newex 665 289 159 196617 varieditu /depth $1;#B color 12;#P newex 665 265 58 196617 pvar depth;#P newex 665 335 188 196617 varieditu /depth/clear $1;#B color 12;#P newex 665 360 88 196617 pvar depthinherit;#P newex 665 311 86 196617 pvar depth-clear;#P newex 691 52 239 196617 variedit $1/color/inherit $1;#B color 12;#P newex 601 52 87 196617 pvar colorinherit;#P newex 591 84 181 196617 varieditu /color/green $1;#B color 12;#P newex 523 84 62 196617 pvar colorg;#P newex 1082 84 179 196617 varieditu /color/alpha $1;#B color 12;#P newex 840 84 174 196617 varieditu /color/blue $1;#B color 12;#P newex 1019 84 62 196617 pvar colora;#P newex 777 84 62 196617 pvar colorb;#P newex 349 84 171 196617 varieditu /color/red $1;#B color 12;#P newex 283 84 62 196617 pvar colorr;#P newex 282 246 158 196617 varieditu /blend $1;#B color 12;#P newex 282 223 57 196617 pvar blend;#P newex 497 200 208 196617 varieditu /blendmode/dst $1;#B color 12;#P newex 281 200 209 196617 varieditu /blendmode/src $1;#B color 12;#P newex 497 174 99 196617 pvar blendmode-dst;#P newex 281 174 100 196617 pvar blendmode-src;#P comment 8 162 89 196617 /blendmode/dst;#P newex 926 288 78 196617 pvar automatic;#P newex 462 683 288 196617 variedit $1/mat/auto $1;#B color 12;#P newex 462 662 91 196617 pvar automaterial;#P newex 282 265 67 196617 pvar lighting;#P comment 178 195 45 196617 /depth;#B frgb 9 9 9;#P comment 178 210 69 196617 /depth/clear;#P comment 178 225 76 196617 /depth/inherit;#P comment 30 42 46 196617 /inherit;#P comment 8 145 83 196617 /blendmode/src;#P comment 18 180 45 196617 /blend;#P newex 665 382 195 196617 varieditu /depth/inherit $1;#B color 12;#P comment 80 23 39 196617 /red;#P flonum 81 40 40 9 0. 1. 8227 3 0 0 0 221 221 221 222 222 222 0 0 0;#P objectname colorr;#P flonum 212 40 40 9 0. 1. 8227 3 0 0 0 221 221 221 222 222 222 0 0 0;#P objectname colora;#P flonum 170 40 40 9 0. 1. 8227 3 9 9 9 221 221 221 222 222 222 0 0 0;#P objectname colorb;#P comment 212 23 39 196617 /alpha;#P comment 169 23 34 196617 /blue;#B frgb 9 9 9;#P comment 123 23 41 196617 /green;#P window setfont "Sans Serif" 12.;#P comment 24 21 47 196620 /color;#B frgb 9 9 9;#P window setfont "Sans Serif" 9.;#P flonum 126 40 40 9 0. 1. 8227 3 0 0 0 221 221 221 222 222 222 0 0 0;#P objectname colorg;#P window setfont Times 9.;#P flonum 112 265 31 9 0. 100. 35 20 0 0 0 221 221 221 222 222 222 0 0 0;#P objectname point_size;#P user panel 6 241 246 5;#X brgb 191 191 191;#X frgb 191 191 191;#X border 1;#X rounded 0;#X shadow 0;#X done;#P bpatcher 1 0 256 558 0 0 m_bkgndu.mxt 0 glgroup 0 /movie 9 1;#P objectname background;#P hidden connect 116 0 0 0;#P fasten 51 0 63 0 8 978 -3 978 -3 906 8 906;#P connect 63 0 64 0;#P connect 0 0 51 0;#P connect 64 0 51 0;#P connect 222 0 206 0;#P connect 206 0 222 0;#P connect 224 0 210 0;#P connect 210 0 224 0;#P connect 228 0 216 0;#P connect 216 0 228 0;#P connect 219 0 213 0;#P connect 213 0 219 0;#P connect 236 0 232 0;#P connect 232 0 236 0;#P connect 244 0 240 0;#P connect 240 0 244 0;#P connect 252 0 248 0;#P connect 248 0 252 0;#P connect 256 0 255 0;#P connect 255 0 256 0;#P hidden connect 266 0 0 1;#P connect 26 0 24 0;#P connect 24 0 26 0;#P connect 29 0 28 0;#P connect 28 0 29 0;#P connect 48 0 19 0;#P connect 19 0 48 0;#P connect 46 0 45 0;#P connect 45 0 46 0;#P connect 265 0 66 0;#P fasten 67 0 66 0 355 79 277 79 277 22 288 22;#P connect 31 0 30 0;#P connect 69 0 68 0;#P connect 81 0 80 0;#P connect 75 0 74 0;#P connect 155 0 154 0;#P connect 154 0 155 0;#P connect 157 0 156 0;#P connect 156 0 157 0;#P connect 109 0 108 0;#P connect 108 0 109 0;#P connect 30 0 31 0;#P connect 68 0 69 0;#P connect 80 0 81 0;#P connect 74 0 75 0;#P connect 66 1 67 0;#P hidden connect 0 1 29 2;#P hidden connect 0 1 48 2;#P hidden connect 0 1 46 2;#P hidden connect 0 1 109 2;#P hidden connect 0 1 26 2;#P hidden connect 0 1 155 2;#P hidden connect 0 1 157 2;#P connect 50 0 49 0;#P connect 49 0 50 0;#P hidden connect 0 1 69 2;#P hidden connect 0 1 75 2;#P connect 141 0 140 0;#P connect 140 0 141 0;#P connect 120 0 119 0;#P connect 119 0 120 0;#P connect 124 0 123 0;#P connect 123 0 124 0;#P connect 128 0 127 0;#P connect 127 0 128 0;#P hidden connect 0 1 31 2;#P hidden connect 0 1 81 2;#P connect 223 0 207 0;#P connect 207 0 223 0;#P connect 211 0 226 0;#P connect 21 0 20 0;#P connect 20 0 21 0;#P connect 218 0 214 0;#P connect 214 0 218 0;#P connect 235 0 233 0;#P connect 233 0 235 0;#P connect 243 0 241 0;#P connect 241 0 243 0;#P connect 251 0 249 0;#P connect 249 0 251 0;#P hidden connect 0 1 67 1;#P connect 27 0 25 0;#P connect 25 0 27 0;#P connect 137 0 136 0;#P connect 136 0 137 0;#P connect 145 0 144 0;#P connect 144 0 145 0;#P connect 37 0 36 0;#P connect 71 0 70 0;#P connect 83 0 82 0;#P connect 77 0 76 0;#P hidden connect 0 1 120 2;#P hidden connect 0 1 124 2;#P hidden connect 0 1 128 2;#P hidden connect 0 1 141 2;#P connect 36 0 37 0;#P connect 70 0 71 0;#P connect 82 0 83 0;#P connect 76 0 77 0;#P connect 39 0 38 0;#P hidden connect 0 1 137 2;#P hidden connect 0 1 145 2;#P hidden connect 0 1 27 2;#P connect 149 0 148 0;#P connect 148 0 149 0;#P connect 44 0 43 0;#P connect 43 0 44 0;#P connect 42 0 40 0;#P connect 40 0 42 0;#P connect 12 0 41 0;#P connect 41 0 12 0;#P hidden connect 0 1 71 2;#P connect 38 0 39 0;#P hidden connect 0 1 77 2;#P hidden connect 0 1 83 2;#P hidden connect 0 1 37 2;#P connect 225 0 208 0;#P connect 208 0 225 0;#P connect 212 0 229 0;#P connect 220 0 215 0;#P connect 215 0 220 0;#P connect 237 0 234 0;#P connect 234 0 237 0;#P connect 245 0 242 0;#P connect 242 0 245 0;#P connect 253 0 250 0;#P connect 250 0 253 0;#P hidden connect 0 1 44 2;#P connect 34 0 32 0;#P connect 73 0 72 0;#P connect 85 0 84 0;#P connect 79 0 78 0;#P hidden connect 0 1 42 2;#P hidden connect 0 1 12 2;#P hidden connect 0 1 149 2;#P hidden connect 0 1 115 0;#P connect 115 0 114 0;#P connect 32 0 34 0;#P connect 72 0 73 0;#P connect 84 0 85 0;#P connect 78 0 79 0;#P connect 47 0 22 0;#P connect 22 0 47 0;#P connect 133 0 134 0;#P connect 134 0 133 0;#P hidden connect 0 1 73 2;#P hidden connect 0 1 79 2;#P hidden connect 0 1 85 2;#P hidden connect 0 1 34 2;#P connect 227 0 209 0;#P connect 209 0 227 0;#P connect 217 0 230 0;#P connect 221 0 161 0;#P connect 161 0 221 0;#P connect 238 0 231 0;#P connect 231 0 238 0;#P connect 246 0 239 0;#P connect 239 0 246 0;#P connect 254 0 247 0;#P connect 247 0 254 0;#P connect 35 0 33 0;#P hidden connect 0 1 134 2;#P hidden connect 0 1 47 2;#P fasten 264 0 263 0 1132 76 1053 70 1053 22 1065 22;#P connect 265 0 263 0;#P connect 33 0 35 0;#P connect 112 0 113 0;#P connect 263 1 264 0;#P connect 113 0 112 0;#P hidden connect 0 1 35 2;#P hidden connect 0 1 113 2;#P hidden connect 0 1 264 1;#P pop;