max v2;#N vpatcher 485 263 778 629;#P origin 0 24;#P window setfont "Sans Serif" 9.;#P message 13 43 31 196617 /pop;#N coll ;#P newobj 51 135 53 196617 coll;#B color 5;#P window setfont "Sans Serif" 12.;#N vpatcher 20 74 426 436;#P origin -66 0;#P window setfont "Sans Serif" 9.;#P newex 0 50 306 196617 t dump dump clear;#P inlet 0 28 15 0;#P outlet 0 327 15 0;#P newex 178 291 154 196617 sprintf store /%s.%ld /%s.%ld;#P newex 178 269 58 196617 zl reg;#P newex 178 247 78 196617 t b i;#P newex 148 225 40 196617 uzi;#N coll m_config;#P newobj 148 203 70 196617 coll m_config;#B color 5;#P newex 148 181 88 196617 t s s;#P newex 148 159 78 196617 zl reg;#P newex 148 137 20 196617 t b;#P newex 148 115 45 196617 route gl;#P newex 148 93 65 196617 route output;#P newex 216 94 69 196617 route symbol;#N coll m_modules;#P newobj 148 71 215 196617 coll m_modules;#B color 5;#P connect 13 0 14 0;#P connect 14 2 12 0;#P lcolor 12;#P connect 14 0 12 0;#P fasten 11 0 12 0 183 317 5 317;#P connect 14 1 0 0;#P connect 0 0 2 0;#P connect 2 0 3 0;#P connect 3 0 4 0;#P connect 4 0 5 0;#P connect 5 0 6 0;#P connect 6 0 7 0;#P connect 7 0 8 0;#P connect 8 2 9 0;#P connect 9 0 10 0;#P connect 10 0 11 0;#P connect 0 1 1 0;#P connect 1 0 5 1;#P connect 6 1 10 1;#P connect 9 1 11 1;#P connect 10 0 11 2;#P connect 9 1 11 3;#P pop;#P newobj 51 109 110 196620 p load gl outputs;#B color 6;#P newex 88 319 58 196620 forward;#B color 12;#P window setfont "Sans Serif" 9.;#P newex 51 260 101 196617 substitute bong bang;#P newex 144 201 101 196617 substitute bang bong;#P newex 51 42 94 196617 receive /movie/gl;#B color 12;#P newex 51 87 185 196617 t b s;#P newex 51 231 103 196617 zl reg;#P newex 51 65 68 196617 zl slice 1;#P newex 88 296 36 196617 thru;#P newex 51 157 47 196617 t b s;#P newex 88 178 148 196617 sprintf send %s%s;#P connect 12 0 3 0;#P connect 6 0 3 0;#P connect 3 0 5 0;#P connect 5 0 10 0;#P connect 10 0 11 0;#P connect 11 0 1 0;#P connect 1 0 4 0;#P connect 4 0 8 0;#P connect 1 1 0 0;#P connect 0 0 2 0;#P fasten 8 1 2 0 147 289 93 289;#P fasten 8 0 2 0 56 289 93 289;#P connect 2 0 9 0;#P connect 3 1 7 0;#P fasten 7 1 4 1 240 224 149 224;#P connect 7 0 4 1;#P connect 5 1 0 1;#P pop;