max v2;#N vpatcher 344 210 1344 754;#P window setfont "Sans Serif" 12.;#P window linecount 1;#P newex 169 465 133 196620 s $1;#B color 12;#P window setfont "Sans Serif" 9.;#P newex 584 413 99 196617 prepend /off/pos/z;#P newex 584 387 342 196617 makeparam $1/off/pos/z $1 f 0 -100 100 1;#B color 12;#P newex 502 386 100 196617 prepend /off/pos/y;#P newex 502 363 319 196617 makeparam $1/off/pos/y $1 f 0 -100 100 1;#B color 12;#P newex 420 362 100 196617 prepend /off/pos/x;#P newex 420 339 319 196617 makeparam $1/off/pos/x $1 f 0 -100 100 1;#B color 12;#P newex 543 231 98 196617 prepend /off/rot/z;#P newex 543 205 342 196617 makeparam $1/off/rot/z $1 f 0 -360 360 1;#B color 12;#P newex 440 204 99 196617 prepend /off/rot/y;#P newex 440 181 319 196617 makeparam $1/off/rot/y $1 f 0 -360 360 1;#B color 12;#P newex 336 180 99 196617 prepend /off/rot/x;#P newex 336 157 319 196617 makeparam $1/off/rot/x $1 f 0 -360 360 1;#B color 12;#P newex 333 132 99 196617 prepend /off/pos/z;#P newex 333 106 342 196617 makeparam $1/off/pos/z $1 f 0 -100 100 1;#B color 12;#P newex 251 105 100 196617 prepend /off/pos/y;#P newex 251 82 319 196617 makeparam $1/off/pos/y $1 f 0 -100 100 1;#B color 12;#P newex 169 81 100 196617 prepend /off/pos/x;#P newex 169 58 319 196617 makeparam $1/off/pos/x $1 f 0 -100 100 1;#B color 12;#P window setfont "Sans Serif" 12.;#P newex 11 30 133 196620 r $1;#B color 12;#P window setfont "Sans Serif" 9.;#P newex 11 171 30 196617 t b s;#P message 11 109 78 196617 $1;#P newex 11 149 47 196617 zl iter 1;#B color 5;#N coll m_group;#P newobj 11 127 68 196617 coll m_group;#B color 5;#P newex 11 88 113 196617 t b s;#P newex 11 215 129 196617 zl reg;#P newex 11 56 129 196617 zl slice 1;#P window setfont "Sans Serif" 12.;#P newex 11 241 58 196620 forward;#B color 12;#P window setfont "Sans Serif" 9.;#P newex 31 192 93 196617 sprintf send %s%s;#P connect 9 0 2 0;#P connect 2 0 4 0;#P connect 4 0 7 0;#P connect 7 0 5 0;#P connect 5 0 6 0;#P connect 6 0 8 0;#P connect 8 0 3 0;#P connect 3 0 1 0;#P connect 0 0 1 0;#P connect 8 1 0 0;#P connect 4 1 0 1;#P connect 2 1 3 1;#P connect 10 0 11 0;#P fasten 27 0 28 0 589 447 174 447;#P fasten 23 0 28 0 425 422 174 422;#P fasten 25 0 28 0 507 434 174 434;#P fasten 21 0 28 0 548 334 174 334;#P fasten 19 0 28 0 445 282 174 282;#P fasten 17 0 28 0 341 331 174 331;#P fasten 11 0 28 0 174 281 174 281;#P fasten 13 0 28 0 256 293 174 293;#P fasten 15 0 28 0 338 307 174 307;#P connect 12 0 13 0;#P connect 14 0 15 0;#P connect 16 0 17 0;#P connect 22 0 23 0;#P connect 18 0 19 0;#P connect 24 0 25 0;#P connect 20 0 21 0;#P connect 26 0 27 0;#P pop;