max v2;#N vpatcher 731 282 1277 539;#P origin 0 -6;#P window setfont "Sans Serif" 9.;#P window linecount 1;#P message 292 171 14 196617 0;#P newex 292 197 148 196617 s $1/automatic;#P newex 243 128 259 196617 route /render.1 /route /render.1 /render.3 /render.4;#P comment 331 114 159 196617 wildcard for instance is welcome;#P newex 220 55 236 196617 varieditu /source2 $1;#B color 12;#P inlet 220 31 15 0;#P inlet 97 24 15 0;#P newex 109 129 98 196617 route $1;#P newex 109 158 78 196617 prepend append;#P newex 59 131 40 196617 t clear;#P newex 59 109 60 196617 route clear;#P newex 59 80 128 196617 r /movie/totexturemenus;#B color 12;#P newex 25 48 119 196617 varieditu /source $1;#B color 12;#P inlet 25 24 15 0;#P outlet 25 192 15 0;#P outlet 220 199 15 0;#P connect 2 0 3 0;#P connect 6 0 1 0;#P connect 3 0 1 0;#P connect 7 0 1 0;#P connect 4 0 5 0;#P connect 5 0 6 0;#P connect 9 0 3 2;#P connect 5 1 8 0;#P fasten 8 1 7 0 202 152 114 152;#P connect 10 0 11 0;#P connect 11 0 0 0;#P connect 7 0 0 0;#P connect 6 0 0 0;#P connect 11 1 13 0;#P connect 3 1 13 0;#P connect 13 4 15 0;#P connect 13 3 15 0;#P connect 13 2 15 0;#P connect 13 1 15 0;#P connect 13 0 15 0;#P connect 15 0 14 0;#P pop;