max v2;#N vpatcher 20 284 616 560;#P origin 0 -6;#P window setfont "Sans Serif" 9.;#P window linecount 1;#P message 103 179 14 196617 0;#P newex 103 205 148 196617 s $1/automatic;#P newex 54 136 259 196617 route /render.1 /route /render.1 /render.3 /render.4;#P comment 142 122 159 196617 wildcard for instance is welcome;#P newex 387 142 98 196617 route $1;#P newex 387 171 78 196617 prepend append;#P newex 337 144 40 196617 t clear;#P newex 337 122 60 196617 route clear;#P newex 337 93 128 196617 r /movie/totexturemenus;#B color 12;#P newex 303 61 236 196617 variedit $1/source2 $1;#B color 12;#P inlet 303 37 15 0;#P outlet 303 205 15 0;#P newex 26 61 236 196617 variedit $1/source $1;#B color 12;#P inlet 26 37 15 0;#P outlet 26 205 15 0;#P connect 1 0 2 0;#P connect 8 0 0 0;#P connect 2 0 0 0;#P connect 9 0 0 0;#P connect 5 1 12 0;#P connect 2 1 12 0;#P connect 12 4 14 0;#P connect 12 3 14 0;#P connect 12 2 14 0;#P connect 12 1 14 0;#P connect 12 0 14 0;#P connect 14 0 13 0;#P connect 4 0 5 0;#P connect 5 0 3 0;#P connect 9 0 3 0;#P connect 8 0 3 0;#P connect 6 0 7 0;#P connect 7 0 8 0;#P connect 7 1 10 0;#P fasten 10 1 9 0 480 165 392 165;#P pop;