max v2;#N vpatcher 731 282 1203 551;#P origin 0 -6;#P window setfont "Sans Serif" 9.;#P window linecount 1;#P message 215 129 14 196617 0;#P newex 215 155 148 196617 s $1/automatic;#P newex 166 86 226 196617 route /render.1 /render.2 /render.3 /render.4;#P newex 84 136 98 196617 route $1;#P newex 84 165 78 196617 prepend append;#P newex 34 138 40 196617 t clear;#P newex 34 116 60 196617 route clear;#P newex 34 87 128 196617 r /movie/totexturemenus;#B color 12;#P newex 25 52 293 196617 variedit $1/source $1;#B color 12;#P inlet 25 28 15 0;#P outlet 25 203 15 0;#P comment 254 72 159 196617 wildcard for instance is welcome;#P connect 2 0 3 0;#P connect 6 0 1 0;#P connect 7 0 1 0;#P connect 3 0 1 0;#P connect 4 0 5 0;#P connect 5 0 6 0;#P connect 5 1 8 0;#P fasten 8 1 7 0 177 159 89 159;#P connect 3 1 9 0;#P connect 9 0 11 0;#P connect 9 1 11 0;#P connect 9 2 11 0;#P connect 9 3 11 0;#P connect 11 0 10 0;#P pop;