max v2;#N vpatcher 462 567 814 812;#P origin 0 -6;#P window setfont "Sans Serif" 9.;#P window linecount 1;#P newex 103 133 98 196617 route $1;#P newex 103 162 78 196617 prepend append;#P newex 53 135 40 196617 t clear;#P newex 53 113 60 196617 route clear;#P newex 53 84 129 196617 r /movie/tojmatrixmenus;#B color 12;#P newex 25 48 293 196617 variedit $1/source $1;#B color 12;#P inlet 25 24 15 0;#P outlet 25 202 15 0;#P connect 1 0 2 0;#P connect 5 0 0 0;#P connect 6 0 0 0;#P connect 2 0 0 0;#P connect 3 0 4 0;#P connect 4 0 5 0;#P connect 4 1 7 0;#P fasten 7 1 6 0 196 156 108 156;#P pop;