max v2;#N vpatcher 79 62 818 349;#P origin 17 6;#P window setfont "Sans Serif" 9.;#P newex 45 45 109 196617 r /movie/drawgpu;#B color 12;#P newex 45 75 227 196617 jit.gl.texture $2 @name $1;#B color 5;#P objectname qtmovie[1];#P newex 480 135 96 196617 receive $1;#B color 12;#P inlet 24 45 15 0;#P outlet 159 223 15 0;#P newex 60 148 27 196617 + 1;#P newex 436 106 95 196617 sprintf set %s/out;#P toggle 60 127 15 0;#P newex 60 106 311 196617 makeswitch $1/sw $1 movie_switchstate;#B color 11;#P newex 379 106 31 196617 t set;#P newex 379 75 67 196617 route <none>;#P newex 379 45 323 196617 makeparam $1/source $1 s <none>;#B color 12;#P newex 45 180 124 196617 gate 2 1;#P newex 24 223 112 196617 s $1/out;#B color 12;#P newex 379 135 96 196617 receive;#B color 12;#P connect 11 0 1 0;#P connect 2 0 1 0;#P fasten 2 0 13 0 50 205 38 205 38 66 50 66;#P lcolor 14;#P connect 11 0 13 0;#P connect 14 0 13 0;#P connect 9 0 2 0;#P connect 6 0 7 0;#P connect 7 0 9 0;#P fasten 0 0 2 1 384 163 164 163;#P connect 2 1 10 0;#P fasten 12 0 10 0 485 208 164 208;#P connect 3 0 4 0;#P connect 4 0 5 0;#P connect 8 0 0 0;#P fasten 5 0 0 0 384 119 384 119;#P fasten 4 1 8 0 441 93 441 93;#P pop;