max v2;#N vpatcher 0 44 1440 896;#P origin -12 -66;#P window setfont "Sans Serif" 9.;#P flonum 415 912 35 9 0 0 0 3 0 0 0 221 221 221 222 222 222 0 0 0;#P window setfont "Sans Serif" 14.;#P window linecount 2;#P comment 12 318 69 196622 /light /spot;#P window setfont "Sans Serif" 9.;#P window linecount 1;#P newex 817 239 87 196617 pvar light0cutoff;#P newex 817 263 294 196617 varieditu /material/light0/spot/cutoff $1;#P newex 620 161 326 196617 varieditu /material/lightmodel/local_viewer $1;#P newex 620 114 325 196617 varieditu /material/lightmodel/two_side $1;#P newex 620 141 99 196617 pvar /local_viewer;#P newex 620 92 81 196617 pvar /two_side;#P newex 534 383 236 196617 varieditu /material/lightmodel/ambient/alpha $1;#P newex 534 333 231 196617 varieditu /material/lightmodel/ambient/blue $1;#P newex 534 279 238 196617 varieditu /material/lightmodel/ambient/green $1;#P newex 534 227 228 196617 varieditu /material/lightmodel/ambient/red $1;#P newex 534 357 113 196617 pvar lightmodambalpha;#P newex 534 308 108 196617 pvar lightmodambblue;#P newex 534 258 115 196617 pvar lightmodambgreen;#P newex 534 206 105 196617 pvar lightmodambred;#P window setfont "Sans Serif" 10.;#P comment 213 19 43 196618 /alpha;#P comment 179 19 32 196618 /blue;#P comment 140 19 43 196618 /green;#P comment 107 19 32 196618 /red;#P comment 216 99 43 196618 /alpha;#P comment 182 99 32 196618 /blue;#P comment 143 99 43 196618 /green;#P comment 110 99 32 196618 /red;#P window setfont "Sans Serif" 9.;#P newex 1043 973 189 196617 varieditu /light/pos/w $1;#P newex 1020 928 186 196617 varieditu /light/pos/z $1;#P newex 991 881 187 196617 varieditu /light/pos/y $1;#P newex 964 838 219 196617 varieditu /light/pos/x $1;#P newex 1043 952 83 196617 pvar light0posw;#P newex 1020 906 80 196617 pvar light0posz;#P newex 991 859 81 196617 pvar light0posy;#P newex 964 816 81 196617 pvar light0posx;#N thispatcher;#Q end;#P newobj 0 378 61 196617 thispatcher;#P inlet 543 89 15 0;#P newex 246 379 50 196617 deferlow;#P window setfont "Sans Serif" 12.;#N vpatcher 30 89 293 402;#P origin 0 -15;#P window setfont "Sans Serif" 9.;#P window linecount 0;#P newex 91 178 64 196617 sprintf %s_;#P window linecount 2;#P newex 50 138 39 196617 route symbol;#P window linecount 1;#P newex 50 87 46 196617 t dump l;#P newex 50 65 114 196617 sprintf refer %s/state;#P newex 50 254 47 196617 forward;#P window linecount 2;#P newex 91 210 42 196617 prepend send;#P newex 91 138 39 196617 route symbol;#P window linecount 1;#N coll /mdlgrp.1/state;#P newobj 50 114 134 196617 coll;#B color 5;#P inlet 50 21 15 0;#P connect 0 0 5 0;#P connect 5 0 6 0;#P connect 6 0 1 0;#P connect 6 1 1 0;#P connect 1 0 7 0;#P fasten 3 0 4 0 96 246 55 246;#P connect 7 0 4 0;#P fasten 7 1 4 0 84 191 55 191;#P connect 1 1 2 0;#P connect 2 0 8 0;#P connect 8 0 3 0;#P pop;#P newobj 246 400 109 196620 p re-send values;#B color 7;#P window setfont "Sans Serif" 9.;#P newex 770 974 227 196617 varieditu /light/specular/alpha $1;#P newex 747 929 222 196617 varieditu /light/specular/blue $1;#P newex 718 882 229 196617 varieditu /light/specular/green $1;#P newex 691 839 219 196617 varieditu /light/specular/red $1;#P newex 770 953 103 196617 pvar light0specalpha;#P newex 747 907 98 196617 pvar light0specblue;#P newex 718 860 105 196617 pvar light0specgreen;#P newex 691 817 95 196617 pvar light0specred;#P newex 483 976 220 196617 varieditu /light/diffuse/alpha $1;#P newex 460 931 215 196617 varieditu /light/diffuse/blue $1;#P newex 431 882 222 196617 varieditu /light/diffuse/green $1;#P newex 404 841 212 196617 varieditu /light/diffuse/red $1;#P newex 483 955 114 196617 pvar light0diffusealpha;#P newex 460 909 109 196617 pvar light0diffuseblue;#P newex 431 862 116 196617 pvar light0diffusegreen;#P newex 404 819 106 196617 pvar light0diffusered;#P newex 212 974 224 196617 varieditu /light/ambient/alpha $1;#P newex 187 928 219 196617 varieditu /light/ambient/blue $1;#P newex 160 882 168 196617 varieditu /light/ambient/green $1;#P newex 133 839 216 196617 varieditu /light/ambient/red $1;#P newex 212 951 101 196617 pvar light0ambalpha;#P newex 189 907 96 196617 pvar light0ambblue;#P newex 160 860 103 196617 pvar light0ambgreen;#P newex 133 817 93 196617 pvar light0ambred;#P newex 946 760 220 196617 varieditu /material/back/shininess $1;#P newex 946 786 89 196617 pvar shininess[1];#P newex 702 786 222 196617 varieditu /material/back/emission/alpha $1;#P newex 679 741 217 196617 varieditu /material/back/emission/blue $1;#P newex 650 694 224 196617 varieditu /material/back/emission/green $1;#P newex 623 651 214 196617 varieditu /material/back/emission/red $1;#P newex 702 765 132 196617 pvar matfrontemisalpha[1];#P newex 679 719 127 196617 pvar matfrontemisblue[1];#P newex 650 672 134 196617 pvar matfrontemisgreen[1];#P newex 623 629 124 196617 pvar matfrontemisred[1];#P newex 429 783 221 196617 varieditu /material/back/specular/alpha $1;#P newex 408 739 216 196617 varieditu /material/back/specular/blue $1;#P newex 379 692 223 196617 varieditu /material/back/specular/green $1;#P newex 352 649 213 196617 varieditu /material/back/specular/red $1;#P newex 431 763 131 196617 pvar matfrontspecalpha[1];#P newex 408 717 126 196617 pvar matfrontspecblue[1];#P newex 379 670 133 196617 pvar matfrontspecgreen[1];#P newex 352 627 123 196617 pvar matfrontspecred[1];#P newex 192 778 177 196617 varieditu /material/back/alpha $1;#P newex 169 733 172 196617 varieditu /material/back/blue $1;#P newex 140 686 179 196617 varieditu /material/back/green $1;#P newex 113 643 169 196617 varieditu /material/back/red $1;#P newex 192 757 129 196617 pvar matfrontambalpha[1];#P newex 169 711 124 196617 pvar matfrontambblue[1];#P newex 140 664 131 196617 pvar matfrontambgreen[1];#P newex 113 621 121 196617 pvar matfrontambred[1];#P newex 863 562 220 196617 varieditu /material/front/shininess $1;#P newex 863 588 75 196617 pvar shininess;#P newex 620 603 225 196617 varieditu /material/front/emission/alpha $1;#P newex 597 558 220 196617 varieditu /material/front/emission/blue $1;#P newex 568 509 227 196617 varieditu /material/front/emission/green $1;#P newex 541 468 217 196617 varieditu /material/front/emission/red $1;#P newex 620 582 118 196617 pvar matfrontemisalpha;#P newex 597 536 113 196617 pvar matfrontemisblue;#P newex 568 489 120 196617 pvar matfrontemisgreen;#P newex 541 446 110 196617 pvar matfrontemisred;#P newex 349 601 224 196617 varieditu /material/front/specular/alpha $1;#P newex 326 556 219 196617 varieditu /material/front/specular/blue $1;#P newex 297 509 226 196617 varieditu /material/front/specular/green $1;#P newex 270 466 216 196617 varieditu /material/front/specular/red $1;#P newex 349 580 115 196617 pvar matfrontspecalpha;#P newex 326 534 112 196617 pvar matfrontspecblue;#P newex 297 487 119 196617 pvar matfrontspecgreen;#P newex 270 444 109 196617 pvar matfrontspecred;#P newex 110 595 180 196617 varieditu /material/front/alpha $1;#P newex 87 550 175 196617 varieditu /material/front/blue $1;#P newex 58 503 182 196617 varieditu /material/front/green $1;#P newex 31 460 172 196617 varieditu /material/front/red $1;#P newex 110 574 115 196617 pvar matfrontambalpha;#P newex 87 528 110 196617 pvar matfrontambblue;#P newex 58 481 117 196617 pvar matfrontambgreen;#P newex 31 438 107 196617 pvar matfrontambred;#P flonum 212 334 35 9 0. 128. 3 3 0 0 0 221 221 221 222 222 222 0 0 0;#P objectname light0exponent;#P flonum 117 334 35 9 0. 90. 3 3 0 0 0 221 221 221 222 222 222 0 0 0;#P objectname light0cutoff;#P window setfont "Sans Serif" 10.;#P comment 74 334 44 196618 /cutoff;#P window setfont "Sans Serif" 9.;#P flonum 212 317 35 9 0 0 0 3 0 0 0 221 221 221 222 222 222 0 0 0;#P objectname light0dirz;#P flonum 176 317 35 9 0 0 0 3 0 0 0 221 221 221 222 222 222 0 0 0;#P objectname light0diry;#P window setfont "Sans Serif" 10.;#P comment 76 317 60 196618 /direction;#P window setfont "Sans Serif" 9.;#P flonum 217 164 35 9 0. 1000. 3 3 0 0 0 221 221 221 222 222 222 0 0 0;#P objectname shininess[1];#P window setfont "Sans Serif" 10.;#P comment 144 165 62 196618 /shininess;#P window setfont "Sans Serif" 9.;#P flonum 217 147 35 9 0 0 0 3 0 0 0 221 221 221 222 222 222 0 0 0;#P objectname matfrontemisalpha[1];#P flonum 181 147 35 9 0 0 0 3 0 0 0 221 221 221 222 222 222 0 0 0;#P objectname matfrontemisblue[1];#P flonum 145 147 35 9 0 0 0 3 0 0 0 221 221 221 222 222 222 0 0 0;#P objectname matfrontemisgreen[1];#P flonum 109 147 35 9 0 0 0 3 0 0 0 221 221 221 222 222 222 0 0 0;#P objectname matfrontemisred[1];#P window setfont "Sans Serif" 10.;#P comment 13 148 92 196618 /emission;#P window setfont "Sans Serif" 9.;#P flonum 217 131 35 9 0 0 0 3 0 0 0 221 221 221 222 222 222 0 0 0;#P objectname matfrontspecalpha[1];#P flonum 181 131 35 9 0 0 0 3 0 0 0 221 221 221 222 222 222 0 0 0;#P objectname matfrontspecblue[1];#P flonum 145 131 35 9 0 0 0 3 0 0 0 221 221 221 222 222 222 0 0 0;#P objectname matfrontspecgreen[1];#P flonum 109 131 35 9 0 0 0 3 0 0 0 221 221 221 222 222 222 0 0 0;#P objectname matfrontspecred[1];#P window setfont "Sans Serif" 10.;#P comment 13 132 92 196618 /specular;#P window setfont "Sans Serif" 9.;#P flonum 217 115 35 9 0 0 0 3 0 0 0 221 221 221 222 222 222 0 0 0;#P objectname matfrontambalpha[1];#P flonum 181 115 35 9 0 0 0 3 0 0 0 221 221 221 222 222 222 0 0 0;#P objectname matfrontambblue[1];#P flonum 145 115 35 9 0 0 0 3 0 0 0 221 221 221 222 222 222 0 0 0;#P objectname matfrontambgreen[1];#P flonum 109 115 35 9 0 0 0 3 0 0 0 221 221 221 222 222 222 0 0 0;#P objectname matfrontambred[1];#P window setfont "Sans Serif" 14.;#P comment 53 112 50 196622 /back;#P window setfont "Sans Serif" 9.;#P window linecount 2;#P comment 267 324 249 196617 <- only available when the 'w' parameter for light position is not equal to zero;#P flonum 216 294 35 9 0 0 0 3 0 0 0 221 221 221 222 222 222 0 0 0;#P objectname light0posw;#P flonum 180 294 35 9 0 0 0 3 0 0 0 221 221 221 222 222 222 0 0 0;#P objectname light0posz;#P flonum 144 294 35 9 0 0 0 3 0 0 0 221 221 221 222 222 222 0 0 0;#P objectname light0posy;#P flonum 108 294 35 9 0 0 0 3 0 0 0 221 221 221 222 222 222 0 0 0;#P objectname light0posx;#P window setfont "Sans Serif" 10.;#P window linecount 1;#P comment 13 295 92 196618 /pos;#P window setfont "Sans Serif" 9.;#P flonum 216 278 35 9 0 0 0 3 0 0 0 221 221 221 222 222 222 0 0 0;#P objectname light0specalpha;#P flonum 180 278 35 9 0 0 0 3 0 0 0 221 221 221 222 222 222 0 0 0;#P objectname light0specblue;#P flonum 144 278 35 9 0 0 0 3 0 0 0 221 221 221 222 222 222 0 0 0;#P objectname light0specgreen;#P flonum 108 278 35 9 0 0 0 3 0 0 0 221 221 221 222 222 222 0 0 0;#P objectname light0specred;#P window setfont "Sans Serif" 10.;#P comment 13 279 92 196618 /specular;#P window setfont "Sans Serif" 9.;#P flonum 216 262 35 9 0 0 0 3 0 0 0 221 221 221 222 222 222 0 0 0;#P objectname light0diffusealpha;#P flonum 180 262 35 9 0 0 0 3 0 0 0 221 221 221 222 222 222 0 0 0;#P objectname light0diffuseblue;#P flonum 144 262 35 9 0 0 0 3 0 0 0 221 221 221 222 222 222 0 0 0;#P objectname light0diffusegreen;#P flonum 108 262 35 9 0 0 0 3 0 0 0 221 221 221 222 222 222 0 0 0;#P objectname light0diffusered;#P window setfont "Sans Serif" 10.;#P comment 13 263 92 196618 /diffuse;#P window setfont "Sans Serif" 9.;#P flonum 216 246 35 9 0 0 0 3 0 0 0 221 221 221 222 222 222 0 0 0;#P objectname light0ambalpha;#P flonum 180 246 35 9 0 0 0 3 0 0 0 221 221 221 222 222 222 0 0 0;#P objectname light0ambblue;#P flonum 144 246 35 9 0 0 0 3 0 0 0 221 221 221 222 222 222 0 0 0;#P objectname light0ambgreen;#P flonum 108 246 35 9 0 0 0 3 0 0 0 221 221 221 222 222 222 0 0 0;#P objectname light0ambred;#P window setfont "Sans Serif" 10.;#P comment 13 247 92 196618 /ambient;#P window setfont "Sans Serif" 14.;#P comment 12 225 55 196622 /light;#P window setfont "Sans Serif" 9.;#P window linecount 3;#P comment 264 88 254 196617 only seen when the 'back face' is visible. try changing the polymode or cullface settings - lightmodel two_side needs to be enabled;#P comment 264 125 252 196617 the glmaterial (front and back) and lightmodel parameters are global and affect all lights that are enabled. They act as a scaling factor.;#P toggle 228 208 15 0;#P objectname /local_viewer;#P window setfont "Sans Serif" 10.;#P window linecount 1;#P comment 133 209 92 196618 /local_viewer;#P toggle 110 207 15 0;#P objectname /two_side;#P comment 15 208 92 196618 /two_side;#P window setfont "Sans Serif" 9.;#P flonum 218 190 35 9 0 0 0 3 0 0 0 221 221 221 222 222 222 0 0 0;#P objectname lightmodambalpha;#P flonum 182 190 35 9 0 0 0 3 0 0 0 221 221 221 222 222 222 0 0 0;#P objectname lightmodambblue;#P flonum 146 190 35 9 0 0 0 3 0 0 0 221 221 221 222 222 222 0 0 0;#P objectname lightmodambgreen;#P window setfont "Sans Serif" 10.;#P comment 15 191 92 196618 /ambient;#P window setfont "Sans Serif" 9.;#P flonum 217 82 35 9 0. 1000. 3 3 0 0 0 221 221 221 222 222 222 0 0 0;#P objectname shininess;#P window setfont "Sans Serif" 10.;#P comment 144 83 62 196618 /shininess;#P window setfont "Sans Serif" 9.;#P flonum 217 65 35 9 0 0 0 3 0 0 0 221 221 221 222 222 222 0 0 0;#P objectname matfrontemisalpha;#P flonum 181 65 35 9 0 0 0 3 0 0 0 221 221 221 222 222 222 0 0 0;#P objectname matfrontemisblue;#P flonum 145 65 35 9 0 0 0 3 0 0 0 221 221 221 222 222 222 0 0 0;#P objectname matfrontemisgreen;#P flonum 109 65 35 9 0 0 0 3 0 0 0 221 221 221 222 222 222 0 0 0;#P objectname matfrontemisred;#P window setfont "Sans Serif" 10.;#P comment 13 66 92 196618 /emission;#P window setfont "Sans Serif" 9.;#P flonum 217 49 35 9 0 0 0 3 0 0 0 221 221 221 222 222 222 0 0 0;#P objectname matfrontspecalpha;#P flonum 181 49 35 9 0 0 0 3 0 0 0 221 221 221 222 222 222 0 0 0;#P objectname matfrontspecblue;#P flonum 145 49 35 9 0 0 0 3 0 0 0 221 221 221 222 222 222 0 0 0;#P objectname matfrontspecgreen;#P flonum 109 49 35 9 0 0 0 3 0 0 0 221 221 221 222 222 222 0 0 0;#P objectname matfrontspecred;#P window setfont "Sans Serif" 10.;#P comment 13 50 92 196618 /specular;#P window setfont "Sans Serif" 9.;#P flonum 217 33 35 9 0 0 0 3 0 0 0 221 221 221 222 222 222 0 0 0;#P objectname matfrontambalpha;#P flonum 181 33 35 9 0 0 0 3 0 0 0 221 221 221 222 222 222 0 0 0;#P objectname matfrontambblue;#P flonum 145 33 35 9 0 0 0 3 0 0 0 221 221 221 222 222 222 0 0 0;#P objectname matfrontambgreen;#P flonum 109 33 35 9 0 0 0 3 0 0 0 221 221 221 222 222 222 0 0 0;#P objectname matfrontambred;#P window setfont "Sans Serif" 10.;#P comment 157 334 59 196618 /exponent;#P window setfont "Sans Serif" 9.;#P flonum 140 317 35 9 0 0 0 3 0 0 0 221 221 221 222 222 222 0 0 0;#P objectname light0dirx;#P window setfont "Sans Serif" 14.;#P comment 14 168 115 196622 /gllightmodel;#P window setfont "Sans Serif" 9.;#P flonum 110 190 35 9 0 0 0 3 0 0 0 221 221 221 222 222 222 0 0 0;#P objectname lightmodambred;#P window setfont "Sans Serif" 14.;#P comment 54 13 51 196622 /front;#P bpatcher 0 1 256 372 0 0 m_bkgndu.mxt 0 mdlgrp 1 /movie 6 1;#P objectname background;#P hidden connect 0 0 156 0;#P fasten 81 0 77 0 36 481 25 481 25 433 36 433;#P connect 77 0 81 0;#P fasten 82 0 78 0 63 528 53 528 53 479 63 479;#P connect 78 0 82 0;#P fasten 83 0 79 0 92 570 82 570 82 525 92 525;#P connect 79 0 83 0;#P fasten 84 0 80 0 115 617 106 617 106 570 115 570;#P connect 80 0 84 0;#P fasten 107 0 103 0 118 664 107 664 107 616 118 616;#P connect 103 0 107 0;#P fasten 133 0 129 0 138 860 127 860 127 812 138 812;#P connect 129 0 133 0;#P connect 0 1 81 2;#P fasten 108 0 104 0 145 711 135 711 135 662 145 662;#P connect 104 0 108 0;#P fasten 134 0 130 0 165 907 155 907 155 858 165 858;#P connect 130 0 134 0;#P fasten 109 0 105 0 174 753 164 753 164 708 174 708;#P connect 105 0 109 0;#P connect 0 1 82 2;#P connect 131 0 135 0;#P fasten 135 0 131 0 192 949 184 949 184 904 194 904;#P fasten 110 0 106 0 197 800 188 800 188 753 197 753;#P connect 106 0 110 0;#P connect 0 1 83 2;#P fasten 136 0 132 0 217 996 208 996 208 949 217 949;#P connect 132 0 136 0;#P connect 0 1 107 2;#P connect 0 1 84 2;#P connect 155 0 0 1;#P hidden connect 0 1 154 0;#P connect 154 0 153 0;#P connect 0 1 108 2;#P connect 0 1 134 2;#P connect 0 1 133 2;#P fasten 89 0 85 0 275 487 264 487 264 439 275 439;#P connect 85 0 89 0;#P connect 0 1 109 2;#P fasten 90 0 86 0 302 534 292 534 292 485 302 485;#P connect 86 0 90 0;#P connect 0 1 110 2;#P connect 0 1 135 2;#P fasten 91 0 87 0 331 576 321 576 321 531 331 531;#P connect 87 0 91 0;#P fasten 92 0 88 0 354 623 345 623 345 576 354 576;#P connect 88 0 92 0;#P fasten 115 0 111 0 357 670 346 670 346 622 357 622;#P connect 111 0 115 0;#P connect 0 1 136 2;#P fasten 116 0 112 0 384 717 374 717 374 668 384 668;#P connect 112 0 116 0;#P fasten 141 0 137 0 409 862 398 862 398 814 409 814;#P connect 137 0 141 0;#P connect 0 1 89 2;#P fasten 117 0 113 0 413 759 403 759 403 714 413 714;#P connect 113 0 117 0;#P connect 142 0 188 0;#P connect 114 0 118 0;#P fasten 118 0 114 0 434 806 427 806 427 759 436 759;#P fasten 142 0 138 0 436 909 426 909 426 860 436 860;#P connect 138 0 142 0;#P connect 0 1 90 2;#P fasten 143 0 139 0 465 951 455 951 455 906 465 906;#P connect 139 0 143 0;#P connect 0 1 91 2;#P fasten 144 0 140 0 488 998 479 998 479 951 488 951;#P connect 140 0 144 0;#P connect 0 1 115 2;#P fasten 0 1 92 2 496 600;#P connect 0 1 116 2;#P fasten 177 0 173 0 539 252 528 252 528 198 539 198;#P connect 173 0 177 0;#P fasten 178 0 174 0 539 300 528 300 528 246 539 246;#P connect 174 0 178 0;#P fasten 179 0 175 0 539 356 525 356 525 301 539 301;#P connect 175 0 179 0;#P fasten 180 0 176 0 539 404 529 404 529 354 539 354;#P connect 176 0 180 0;#P connect 0 1 141 2;#P fasten 97 0 93 0 546 489 535 489 535 441 546 441;#P connect 93 0 97 0;#P connect 0 1 117 2;#P fasten 98 0 94 0 573 536 563 536 563 487 573 487;#P connect 94 0 98 0;#P connect 0 1 118 2;#P connect 0 1 142 2;#P connect 0 1 143 2;#P fasten 99 0 95 0 602 578 592 578 592 533 602 533;#P connect 95 0 99 0;#P fasten 183 0 181 0 625 135 614 135 614 88 625 88;#P connect 181 0 183 0;#P fasten 184 0 182 0 625 181 615 181 615 139 625 139;#P connect 182 0 184 0;#P fasten 100 0 96 0 625 625 616 625 616 578 625 578;#P connect 96 0 100 0;#P fasten 123 0 119 0 628 672 617 672 617 624 628 624;#P connect 119 0 123 0;#P connect 0 1 144 2;#P fasten 124 0 120 0 655 719 645 719 645 670 655 670;#P connect 120 0 124 0;#P connect 0 1 177 2;#P connect 0 1 97 2;#P fasten 125 0 121 0 684 761 674 761 674 716 684 716;#P connect 121 0 125 0;#P connect 0 1 179 2;#P connect 0 1 180 2;#P connect 0 1 178 2;#P fasten 149 0 145 0 696 860 685 860 685 812 696 812;#P connect 145 0 149 0;#P fasten 126 0 122 0 707 808 698 808 698 761 707 761;#P connect 122 0 126 0;#P connect 0 1 98 2;#P fasten 150 0 146 0 723 907 713 907 713 858 723 858;#P connect 146 0 150 0;#P connect 0 1 99 2;#P fasten 151 0 147 0 752 949 742 949 742 904 752 904;#P connect 147 0 151 0;#P connect 0 1 123 2;#P connect 0 1 100 2;#P fasten 152 0 148 0 775 996 766 996 766 949 775 949;#P connect 148 0 152 0;#P connect 0 1 124 2;#P fasten 185 0 186 0 822 285 808 285 808 232 822 232;#P connect 186 0 185 0;#P connect 0 1 125 2;#P connect 0 1 149 2;#P connect 0 1 183 2;#P connect 0 1 184 2;#P connect 0 1 126 2;#P fasten 101 0 102 0 868 610 856 610 856 556 868 556;#P connect 102 0 101 0;#P connect 0 1 150 2;#P connect 0 1 151 2;#P connect 0 1 152 2;#P fasten 127 0 128 0 951 808 939 808 939 754 951 754;#P connect 128 0 127 0;#P fasten 161 0 157 0 969 859 958 859 958 811 969 811;#P connect 157 0 161 0;#P fasten 162 0 158 0 996 906 986 906 986 857 996 857;#P connect 158 0 162 0;#P connect 0 1 102 2;#P connect 0 1 185 2;#P fasten 163 0 159 0 1025 948 1015 948 1015 903 1025 903;#P connect 159 0 163 0;#P fasten 164 0 160 0 1048 995 1039 995 1039 948 1048 948;#P connect 160 0 164 0;#P connect 0 1 128 2;#P connect 0 1 161 2;#P connect 0 1 162 2;#P connect 0 1 163 2;#P connect 0 1 164 2;#P pop;