max v2;#N vpatcher 436 226 1070 764;#P window setfont "Sans Serif" 9.;#P window linecount 1;#P newex 91 408 93 196617 r $1/commandlist;#B color 12;#P newex 42 26 205 196617 r $1/lightFile;#B color 12;#P newex 295 157 27 196617 t l b;#P newex 312 218 43 196617 route 0;#P newex 295 92 29 196617 t l 1;#N counter;#X flags 0 0;#P newobj 312 189 120 196617 counter;#P newex 345 245 183 196617 gate 4;#P newex 295 132 116 196617 prepend set drawobject;#P newex 295 112 47 196617 zl iter 1;#P newex 295 69 205 196617 r $1/objects2draw;#B color 12;#P message 51 333 86 196617 gltranslate 0 0 0;#P message 76 306 124 196617 drawobject /mdl.23;#P message 101 284 124 196617 drawobject /mdl.22;#P message 126 267 124 196617 drawobject /mdl.21;#P newex 26 239 112 196617 b 5;#N vpatcher 50 119 348 317;#P window setfont "Sans Serif" 9.;#P newex 48 143 68 196617 prepend read;#P newex 48 123 51 196617 tosymbol;#P newex 48 78 62 196617 projectpath;#B color 5;#P newex 48 56 168 196617 t b s;#P newex 48 99 145 196617 sprintf %sconfig/m_light/%s;#P inlet 48 30 15 0;#P outlet 48 163 15 0;#P connect 1 0 3 0;#P connect 3 0 4 0;#P connect 4 0 2 0;#P connect 2 0 5 0;#P connect 5 0 6 0;#P connect 6 0 0 0;#P connect 3 1 2 1;#P pop;#P newobj 74 75 69 196617 p project path;#P newex 50 125 69 196617 route symbol;#B color 2;#P newex 50 149 49 196617 zl join;#P newex 50 168 44 196617 zl rot 1;#P newex 50 189 105 196617 prepend cmd_replace;#N coll m_lights 1;#P newobj 50 105 130 196617 coll m_lights 1;#B color 5;#P newex 146 75 37 196617 t open;#P newex 26 49 83 196617 t b dump s reset;#P inlet 26 8 15 0;#P inlet 146 55 15 0;#P outlet 26 449 15 0;#P comment 122 125 100 196617 Tx to pelado;#P message 26 353 146 196617 drawobject /mdl.24;#P window linecount 2;#P message 325 377 255 196617 \; $1/objects2draw /mdl.21 /mdl.22 /mdl.23 /mdl.24 \;;#P message 328 341 231 196617 \; $1/objects2draw /mdl.1 /mdl.2 /mdl.3 /mdl.4 \;;#P connect 28 0 7 0;#P connect 6 0 7 0;#P connect 7 0 15 0;#P connect 23 3 2 0;#P connect 15 0 2 0;#P connect 2 0 4 0;#P connect 16 0 4 0;#P connect 17 0 4 0;#P connect 18 0 4 0;#P connect 19 0 4 0;#P fasten 7 3 4 0 103 70 137 70 137 45 288 45 288 392 31 392;#P connect 10 0 4 0;#P connect 29 0 4 0;#P connect 14 0 9 0;#P fasten 7 1 9 0 55 85 55 85;#P fasten 8 0 9 0 151 101 55 101;#P connect 9 0 13 0;#P connect 13 0 12 0;#P fasten 13 1 12 0 114 145 55 145;#P connect 12 0 11 0;#P connect 11 0 10 0;#P connect 15 1 19 0;#P connect 7 2 14 0;#P connect 23 2 18 0;#P connect 15 2 18 0;#P connect 9 1 12 1;#P connect 23 1 17 0;#P connect 15 3 17 0;#P connect 23 0 16 0;#P connect 15 4 16 0;#P connect 5 0 8 0;#P connect 20 0 25 0;#P connect 25 0 21 0;#P connect 21 0 22 0;#P connect 22 0 27 0;#P connect 27 1 24 0;#P connect 24 0 26 0;#P connect 26 1 23 0;#P connect 25 1 24 2;#P connect 27 0 23 1;#P pop;