max v2;#N vpatcher 293 174 829 403;#P window setfont "Sans Serif" 9.;#P newex 245 28 179 196617 r $1/light/init;#B color 12;#P window linecount 6;#P message 245 54 170 196617 \; $1/light/ambient/init bang \; $1/light/diffuse/init bang \; $1/light/global_ambient/init bang \; $1/light/position/init bang \; $1/light/specular/init bang \;;#P window linecount 1;#N vpatcher 50 40 540 274;#P window setfont "Sans Serif" 9.;#P window linecount 5;#P message 219 140 232 196617 \; $1/light/specular/red/init bang \; $1/light/specular/green/init bang \; $1/light/specular/blue/init bang \; $1/light/specular/alpha/init bang \;;#P window linecount 1;#P newex 219 116 182 196617 r $1/light/specular/init;#B color 11;#P newex 134 85 279 196617 makeparam $1/light/specular/alpha $1 f 1 0 1 1;#B color 11;#P newex 97 63 274 196617 makeparam $1/light/specular/blue $1 f 1 0 1 1;#B color 11;#P newex 60 42 281 196617 makeparam $1/light/specular/green $1 f 1 0 1 1;#B color 11;#P newex 23 21 279 196617 makeparam $1/light/specular/red $1 f 1 0 1 1;#B color 11;#P outlet 23 196 15 0;#P flonum 134 114 35 9 0 0 0 3 0 0 0 221 221 221 222 222 222 0 0 0;#P newex 23 134 123 196617 bondo 4 1;#P newex 23 175 112 196617 prepend light_specular;#P flonum 97 114 35 9 0 0 0 3 0 0 0 221 221 221 222 222 222 0 0 0;#P flonum 60 114 35 9 0 0 0 3 0 0 0 221 221 221 222 222 222 0 0 0;#P newex 23 155 121 196617 pack 0. 0. 0. 0.;#P flonum 23 114 35 9 0 0 0 3 0 0 0 221 221 221 222 222 222 0 0 0;#P connect 8 0 0 0;#P connect 0 0 5 0;#P connect 5 0 1 0;#P connect 1 0 4 0;#P connect 4 0 7 0;#P connect 9 0 2 0;#P connect 2 0 5 1;#P connect 5 1 1 1;#P connect 10 0 3 0;#P connect 3 0 5 2;#P connect 5 2 1 2;#P connect 11 0 6 0;#P connect 6 0 5 3;#P connect 5 3 1 3;#P connect 12 0 13 0;#P pop;#P newobj 102 121 79 196617 p light-specular;#B color 12;#N vpatcher 50 40 557 295;#P window setfont "Sans Serif" 9.;#P window linecount 5;#P message 218 151 244 196617 \; $1/light/position/red/init bang \; $1/light/position/green/init bang \; $1/light/position/blue/init bang \; $1/light/position/alpha/init bang \;;#P window linecount 1;#P newex 218 127 194 196617 r $1/light/position/init;#B color 11;#P newex 133 96 291 196617 makeparam $1/light/position/alpha $1 f 1 0 1 1;#B color 11;#P newex 96 74 286 196617 makeparam $1/light/position/blue $1 f 1 0 1 1;#B color 11;#P newex 59 53 293 196617 makeparam $1/light/position/green $1 f 1 0 1 1;#B color 11;#P newex 22 32 283 196617 makeparam $1/light/position/red $1 f 1 0 1 1;#B color 11;#P outlet 22 207 15 0;#P flonum 133 125 35 9 0 0 0 3 0 0 0 221 221 221 222 222 222 0 0 0;#P window linecount 0;#P newex 22 145 123 196617 bondo 4 1;#P newex 22 186 105 196617 prepend light_position;#P flonum 96 125 35 9 0 0 0 3 0 0 0 221 221 221 222 222 222 0 0 0;#P flonum 59 125 35 9 0 0 0 3 0 0 0 221 221 221 222 222 222 0 0 0;#P newex 22 166 121 196617 pack 0. 0. 0. 0.;#P flonum 22 125 35 9 0 0 0 3 0 0 0 221 221 221 222 222 222 0 0 0;#P connect 8 0 0 0;#P connect 0 0 5 0;#P connect 5 0 1 0;#P connect 1 0 4 0;#P connect 4 0 7 0;#P connect 9 0 2 0;#P connect 2 0 5 1;#P connect 5 1 1 1;#P connect 10 0 3 0;#P connect 3 0 5 2;#P connect 5 2 1 2;#P connect 11 0 6 0;#P connect 6 0 5 3;#P connect 5 3 1 3;#P connect 12 0 13 0;#P pop;#P newobj 81 100 75 196617 p light-position;#B color 12;#N vpatcher 50 40 570 276;#P window setfont "Sans Serif" 9.;#P window linecount 5;#P message 215 134 263 196617 \; $1/light/global_ambient/red/init bang \; $1/light/global_ambient/green/init bang \; $1/light/global_ambient/blue/init bang \; $1/light/global_ambient/alpha/init bang \;;#P window linecount 1;#P newex 215 110 213 196617 r $1/light/global_ambient/init;#B color 11;#P newex 127 79 337 196617 makeparam $1/light/global_ambient/alpha $1 f 1 0 1 1;#B color 11;#P newex 90 57 332 196617 makeparam $1/light/global_ambient/blue $1 f 0.2 0 1 1;#B color 11;#P newex 53 36 339 196617 makeparam $1/light/global_ambient/green $1 f 0.2 0 1 1;#B color 11;#P newex 16 15 329 196617 makeparam $1/light/global_ambient/red $1 f 0.2 0 1 1;#B color 11;#P outlet 16 191 15 0;#P flonum 127 109 35 9 0 0 0 3 0 0 0 221 221 221 222 222 222 0 0 0;#P window linecount 0;#P newex 16 129 123 196617 bondo 4 1;#P newex 16 170 139 196617 prepend light_global_ambient;#P flonum 90 109 35 9 0 0 0 3 0 0 0 221 221 221 222 222 222 0 0 0;#P flonum 53 109 35 9 0 0 0 3 0 0 0 221 221 221 222 222 222 0 0 0;#P newex 16 150 121 196617 pack 0. 0. 0. 0.;#P flonum 16 109 35 9 0 0 0 3 0 0 0 221 221 221 222 222 222 0 0 0;#P connect 8 0 0 0;#P connect 0 0 5 0;#P connect 5 0 1 0;#P connect 1 0 4 0;#P connect 4 0 7 0;#P connect 9 0 2 0;#P connect 2 0 5 1;#P connect 5 1 1 1;#P connect 10 0 3 0;#P connect 3 0 5 2;#P connect 5 2 1 2;#P connect 11 0 6 0;#P connect 6 0 5 3;#P connect 5 3 1 3;#P connect 12 0 13 0;#P pop;#P newobj 62 80 102 196617 p light-globalambient;#B color 12;#N vpatcher 50 40 504 286;#P window setfont "Sans Serif" 9.;#P window linecount 5;#P message 217 152 219 196617 \; $1/light/diffuse/red/init bang \; $1/light/diffuse/green/init bang \; $1/light/diffuse/blue/init bang \; $1/light/diffuse/alpha/init bang \;;#P window linecount 1;#P newex 217 128 169 196617 r $1/light/diffuse/init;#B color 11;#P newex 132 97 275 196617 makeparam $1/light/diffuse/alpha $1 f 1 0 1 1;#B color 11;#P newex 95 75 270 196617 makeparam $1/light/diffuse/blue $1 f 1 0 1 1;#B color 11;#P newex 58 54 277 196617 makeparam $1/light/diffuse/green $1 f 1 0 1 1;#B color 11;#P newex 21 33 267 196617 makeparam $1/light/diffuse/red $1 f 1 0 1 1;#B color 11;#P outlet 21 209 15 0;#P flonum 132 127 35 9 0 0 0 3 0 0 0 221 221 221 222 222 222 0 0 0;#P window linecount 0;#P newex 21 147 123 196617 bondo 4 1;#P newex 21 188 103 196617 prepend light_diffuse;#P flonum 95 127 35 9 0 0 0 3 0 0 0 221 221 221 222 222 222 0 0 0;#P flonum 58 127 35 9 0 0 0 3 0 0 0 221 221 221 222 222 222 0 0 0;#P newex 21 168 121 196617 pack 0. 0. 0. 0.;#P flonum 21 127 35 9 0 0 0 3 0 0 0 221 221 221 222 222 222 0 0 0;#P connect 8 0 0 0;#P connect 0 0 5 0;#P connect 5 0 1 0;#P connect 1 0 4 0;#P connect 4 0 7 0;#P connect 9 0 2 0;#P connect 2 0 5 1;#P connect 5 1 1 1;#P connect 10 0 3 0;#P connect 3 0 5 2;#P connect 5 2 1 2;#P connect 11 0 6 0;#P connect 6 0 5 3;#P connect 5 3 1 3;#P connect 12 0 13 0;#P pop;#P newobj 44 60 72 196617 p light-diffuse;#B color 12;#N vpatcher 50 40 496 281;#P origin 0 -22;#P window setfont "Sans Serif" 9.;#P message 217 140 213 196617 \; $1/light/ambient/red/init bang \; $1/light/ambient/green/init bang \; $1/light/ambient/blue/init bang \; $1/light/ambient/alpha/init bang \;;#P window linecount 1;#P newex 217 116 186 196617 r $1/light/ambient/init;#B color 11;#P newex 135 85 275 196617 makeparam $1/light/ambient/alpha $1 f 1 0 1 1;#B color 11;#P newex 98 63 270 196617 makeparam $1/light/ambient/blue $1 f 0 0 1 1;#B color 11;#P newex 61 42 277 196617 makeparam $1/light/ambient/green $1 f 0 0 1 1;#B color 11;#P outlet 24 190 15 0;#P flonum 135 108 35 9 0 0 0 3 0 0 0 221 221 221 222 222 222 0 0 0;#P window linecount 0;#P newex 24 128 123 196617 bondo 4 1;#P newex 24 169 105 196617 prepend light_ambient;#P newex 24 21 267 196617 makeparam $1/light/ambient/red $1 f 0 0 1 1;#B color 11;#P flonum 98 108 35 9 0 0 0 3 0 0 0 221 221 221 222 222 222 0 0 0;#P flonum 61 108 35 9 0 0 0 3 0 0 0 221 221 221 222 222 222 0 0 0;#P newex 24 149 121 196617 pack 0. 0. 0. 0.;#P flonum 24 108 35 9 0 0 0 3 0 0 0 221 221 221 222 222 222 0 0 0;#P connect 4 0 0 0;#P connect 0 0 6 0;#P connect 6 0 1 0;#P connect 1 0 5 0;#P connect 5 0 8 0;#P connect 9 0 2 0;#P connect 2 0 6 1;#P connect 6 1 1 1;#P connect 10 0 3 0;#P connect 3 0 6 2;#P connect 6 2 1 2;#P connect 11 0 7 0;#P connect 7 0 6 3;#P connect 6 3 1 3;#P connect 12 0 13 0;#P pop;#P newobj 25 39 75 196617 p light-ambient;#B color 12;#N comlet to render;#P outlet 25 178 15 0;#P comment 43 178 50 196617 to render;#P comment 117 177 165 196617 arg 1 : render prefix (i.e. render1);#P connect 3 0 2 0;#P connect 4 0 2 0;#P connect 5 0 2 0;#P connect 6 0 2 0;#P connect 9 0 8 0;#P pop;