max v2;#N vpatcher 520 303 1202 636;#P window setfont "Sans Serif" 9.;#P newex 79 219 267 196617 makeparam $1/mtrxctl/show $1 t 0;#B color 11;#P toggle 79 243 15 0;#P message 79 263 58 196617 ctlshow \$1;#P newex 161 109 309 196617 makeparam $1/closed/x $1 t 0;#B color 12;#P newex 192 132 309 196617 makeparam $1/closed/y $1 t 0;#B color 12;#P toggle 192 159 15 0;#P toggle 161 159 15 0;#P newex 130 181 73 196617 pak closed 0 0;#P newex 13 114 128 196617 pak dim i i;#P window setfont "Sans Serif" 12.;#N vpatcher 354 44 1283 838;#P origin -174 -258;#P window setfont "Sans Serif" 9.;#P window linecount 1;#P newex 641 179 57 196617 r $1/hehe;#B color 12;#P newex 643 206 29 196617 gate;#B color 12;#P newex 282 684 98 196617 prepend slide_down;#P newex 191 664 85 196617 prepend slide_up;#P newex 282 664 290 196617 makeparam $1/mtrxctl/slidedown $1 f 15 0 500 1;#B color 12;#P newex 191 636 277 196617 makeparam $1/mtrxctl/slideup $1 f 15 0 500 1;#B color 12;#P newex 67 711 45 196617 jit.slide;#B color 5;#P newex 86 578 180 196617 s $1/mtrxctl;#B color 12;#P window linecount 0;#P newex 67 606 267 196617 r $1/mtrxctl;#B color 12;#P newex 472 491 45 196617 print bb;#B color 12;#P newex 505 459 45 196617 print aa;#B color 12;#P newex 67 731 89 196617 prepend ctlmatrix;#P newex 755 205 115 196617 jit.dimmap @invert 0 1;#B color 12;#P newex 708 182 57 196617 route bang;#B color 12;#P newex 608 118 94 196617 t /movie/drawcpu;#P newex 608 67 257 196617 makeparam $1/mtrxctl/source $1 m <none>;#B color 12;#P newex 708 118 78 196617 sprintf %s/out;#P newex 708 140 62 196617 prepend set;#P newex 608 89 110 196617 route <none>;#P newex 708 161 44 196617 receive;#B color 13;#P newex 755 230 66 196617 jit.rgb2luma;#B color 12;#P newex 312 586 56 196617 pak dim i i;#P window linecount 1;#P newex 358 562 369 196617 makeparam $1/mtrxctl/dim/y $1 i 20 0 500 1;#B color 12;#P newex 335 539 369 196617 makeparam $1/mtrxctl/dim/x $1 i 20 0 500 1;#B color 12;#P newex 474 269 71 196617 prepend name;#B color 12;#P newex 385 323 47 196617 zl iter 3;#P newex 445 323 122 196617 t 0 clear;#P newex 385 248 188 196617 route symbol jit_matrix;#B color 12;#P newex 385 269 64 196617 fromsymbol;#B color 12;#P newex 385 457 28 196617 t b l;#P newex 146 402 215 196617 t f b b;#P newex 146 440 73 196617 prepend xfade;#P newex 146 500 267 196617 jit.xfade;#P window linecount 2;#P newex 248 461 73 196617 jit.matrix 1 float32 20 20;#P window linecount 1;#P newex 146 380 202 196617 makeparam $1/mtrxctl/coeff $1 f 1 0 1 1;#B color 12;#P newex 385 298 70 196617 route list;#P window linecount 2;#P newex 445 345 75 196617 jit.fill $1/nurbsZ 0;#B color 5;#P window linecount 1;#P newex 86 545 89 196617 jit.pack 3;#P outlet 67 757 15 0;#P window linecount 0;#P message 385 345 53 196617 setcell \$1 \$2 val \$3 \, bang;#P newex 385 423 107 196617 jit.matrix $1/nurbsZ 1 float32 20 20;#P newex 146 521 28 196617 t b l;#P newex 385 227 353 196617 makeparam $1/mtrxctl/list $1 l @initlist 0;#B color 12;#P newex 225 200 79 196617 pak f f f f;#P newex 294 179 341 196617 makeparam $1/y4 $1 f 1 -10 10 1;#B color 12;#P newex 271 159 341 196617 makeparam $1/y3 $1 f 1 -10 10 1;#B color 12;#P newex 248 139 346 196617 makeparam $1/y2 $1 f -1 -10 10 1;#B color 12;#P newex 225 119 346 196617 makeparam $1/y1 $1 f -1 -10 10 1;#B color 12;#P newex 86 119 79 196617 pak f f f f;#P newex 155 99 341 196617 makeparam $1/x4 $1 f 1 -10 10 1;#B color 12;#P newex 132 79 346 196617 makeparam $1/x3 $1 f -1 -10 10 1;#B color 12;#P newex 109 59 341 196617 makeparam $1/x2 $1 f 1 -10 10 1;#B color 12;#P newex 86 39 346 196617 makeparam $1/x1 $1 f -1 -10 10 1;#B color 12;#P newex 86 307 88 196617 jit.unpack 2;#P newex 86 283 177 196617 jit.matrix 2 float32 20 20 @interp 1;#P window setfont "Sans Serif" 12.;#P comment 322 223 15 196620 Y;#P comment 183 223 15 196620 X;#P window setfont "Sans Serif" 9.;#P newex 86 223 87 196617 jit.fill $1nurbs 0;#B color 5;#P newex 225 223 87 196617 jit.fill $1nurbs 1;#B color 5;#P newex 86 258 159 196617 jit.matrix $1nurbs 2 float32 2 2;#P window linecount 16;#P message 603 311 162 196617 \; $1/x1/init bang \; $1/x2/init bang \; $1/x3/init bang \; $1/x4/init bang \; $1/y1/init bang \; $1/y2/init bang \; $1/y3/init bang \; $1/y4/init bang \; $1/mtrxctl/source/init bang \; $1/mtrxctl/coeff/init bang \; $1/mtrxctl/list/init bang \; $1/mtrxctl/dim/x/init bang \; $1/mtrxctl/dim/y/init bang \; $1/mtrxctl/slideup/init bang \; $1/mtrxctl/slidedown/init bang \;;#P window linecount 1;#P newex 603 289 196 196617 r $1/mtrxctl/init;#B color 12;#P newex 474 298 116 196617 t b l;#B color 12;#P window linecount 0;#P comment 531 208 100 196617 DISCONNECT ---->;#P connect 55 0 57 0;#P fasten 60 0 57 0 196 685 72 685;#P fasten 61 0 57 0 287 704 72 704;#P connect 57 0 52 0;#P connect 52 0 25 0;#P connect 11 0 15 0;#P connect 15 0 6 0;#P fasten 5 0 4 0 230 250 91 250;#P connect 6 0 4 0;#P connect 4 0 9 0;#P connect 9 0 10 0;#P connect 22 0 26 0;#P connect 10 0 26 0;#P connect 26 0 56 0;#P connect 12 0 15 1;#P connect 10 1 26 1;#P connect 13 0 15 2;#P connect 29 0 33 0;#P connect 33 0 32 0;#P fasten 30 0 31 0 253 496 151 496;#P connect 32 0 31 0;#P connect 31 0 22 0;#P connect 14 0 15 3;#P connect 22 1 26 2;#P connect 58 0 60 0;#P connect 16 0 20 0;#P connect 20 0 5 0;#P connect 17 0 20 1;#P connect 42 0 30 0;#P lcolor 13;#P connect 33 1 30 0;#P fasten 34 0 30 0 390 482 334 482 334 454 253 454;#P connect 18 0 20 2;#P connect 59 0 61 0;#P connect 19 0 20 3;#P connect 40 0 42 1;#P connect 41 0 42 2;#P connect 21 0 36 0;#P connect 36 0 35 0;#P connect 35 0 28 0;#P fasten 36 2 28 0 568 293 390 293;#P lcolor 13;#P connect 28 0 38 0;#P connect 38 0 24 0;#P fasten 1 1 23 0 585 417 390 417;#P fasten 1 0 23 0 479 405 390 405;#P connect 62 0 23 0;#P connect 42 0 23 0;#P lcolor 13;#P connect 43 0 23 0;#P fasten 27 0 23 0 450 398 390 398;#P fasten 33 2 23 0 355 421 390 421;#P connect 24 0 23 0;#P fasten 37 1 23 0 562 411 390 411;#P connect 23 0 34 0;#P connect 34 1 31 1;#P connect 28 1 37 0;#P connect 37 0 27 0;#P connect 1 0 54 0;#P connect 36 1 39 0;#P connect 39 0 1 0;#P lcolor 2;#P connect 1 1 53 0;#P connect 2 0 3 0;#P connect 48 0 45 0;#P fasten 45 0 49 0 613 109 613 109;#P connect 63 0 62 0;#P connect 50 0 62 1;#P fasten 45 1 47 0 713 113 713 113;#P fasten 49 0 46 0 613 138 713 138;#P connect 47 0 46 0;#P connect 46 0 44 0;#P connect 44 0 50 0;#P connect 50 1 51 0;#P connect 51 0 43 0;#P pop;#P newobj 28 137 67 196620 p mtrxctl;#B color 6;#P window setfont "Sans Serif" 9.;#P newex 70 32 177 196617 r $1/dim;#B color 12;#P newex 131 83 309 196617 makeparam $1/dim/y $1 i 150 1 1024 1;#B color 12;#P newex 72 56 309 196617 makeparam $1/dim/x $1 i 150 1 1024 1;#B color 12;#P window linecount 7;#P message 416 197 227 196617 \; $1/dim/x/init bang \; $1/dim/y/init bang \; $1/mtrxctl/init bang \; $1/mtrxctl/show/init bang \; $1/closed/x/init bang \; $1/closed/y/init bang \;;#P window linecount 1;#P newex 416 167 193 196617 r $1/properties/init;#B color 11;#P outlet 13 237 15 0;#P connect 13 0 0 0;#P fasten 7 0 0 0 18 173 18 173;#P connect 6 0 0 0;#P connect 8 0 0 0;#P connect 5 0 3 0;#P connect 3 0 7 1;#P connect 15 0 14 0;#P connect 14 0 13 0;#P connect 5 0 4 0;#P connect 4 0 7 2;#P connect 12 0 9 0;#P connect 9 0 8 1;#P connect 11 0 10 0;#P connect 10 0 8 2;#P connect 1 0 2 0;#P pop;