max v2;#N vpatcher 731 282 989 484;#P origin 0 -6;#P inlet 97 32 15 0;#P window setfont "Sans Serif" 9.;#P window linecount 1;#P newex 109 124 78 196617 prepend append;#P newex 59 124 40 196617 t clear;#P newex 59 102 60 196617 route clear;#P newex 59 80 124 196617 r /movie/torendermenus;#B color 12;#P newex 25 56 119 196617 varieditu /drawto $1;#B color 12;#P inlet 25 32 15 0;#P outlet 25 162 15 0;#P connect 1 0 2 0;#P fasten 2 0 0 0 30 113 30 113;#P fasten 6 0 0 0 114 151 30 151;#P fasten 5 0 0 0 64 151 30 151;#P connect 3 0 4 0;#P connect 4 0 5 0;#P connect 7 0 2 2;#P connect 4 1 6 0;#P pop;