max v2;#N vpatcher 328 50 1443 574;#P origin 0 42;#P window setfont "Sans Serif" 9.;#P window linecount 1;#P newex 786 251 69 196617 route symbol;#P newex 729 186 69 196617 route symbol;#P newex 786 291 80 196617 t b l;#P newex 786 317 36 196617 zl reg;#P newex 786 271 62 196617 prepend set;#P newex 786 339 40 196617 append;#N coll m_textures 1;#P newobj 786 231 91 196617 coll m_textures 1;#B color 5;#P newex 729 237 39 196617 t b set;#P newex 729 210 67 196617 route <none>;#P newex 729 165 323 196617 makeparam $1/source3 $1 s <none>;#B color 12;#P newex 241 160 113 196617 prepend jit_gl_texture;#P newex 636 156 69 196617 route symbol;#P newex 579 91 69 196617 route symbol;#P newex 636 196 80 196617 t b l;#P newex 636 222 36 196617 zl reg;#P newex 636 176 62 196617 prepend set;#P newex 636 244 40 196617 append;#N coll m_textures 1;#P newobj 636 136 91 196617 coll m_textures 1;#B color 5;#P newex 579 142 39 196617 t b set;#P newex 579 115 67 196617 route <none>;#P newex 579 70 323 196617 makeparam $1/source2 $1 s <none>;#B color 12;#P newex 379 308 158 196617 t s s;#P newex 166 299 175 196617 r $1/in2;#B color 12;#P newex 336 341 221 196617 r $1/slab/process/out2;#B color 12;#P newex 336 363 222 196617 s $1/dumpout;#B color 12;#P newex 7 391 221 196617 r $1/slab/process/out;#B color 12;#P newex 6 368 223 196617 s $1/slab/process/in;#B color 12;#P newex 137 177 68 196617 prepend read;#P message 90 135 143 196617 $2;#P newex 90 155 57 196617 route none;#P newex 7 413 222 196617 s $1/slab/out;#B color 12;#P newex 184 49 69 196617 route symbol;#P newex 6 44 27 196617 t i i;#P button 86 43 15 0;#P newex 36 43 40 196617 change;#P newex 51 96 45 196617 onebang;#P newex 27 206 175 196617 r $1;#B color 12;#P message 559 308 113 196617 argb;#P newex 552 288 179 196617 m_colormode $1;#B color 14;#P newex 379 205 189 196617 r $1/getparamlist;#B color 11;#P button 379 226 15 0;#P newex 379 245 196 196617 m_getparamlist $1;#B color 14;#P newex 320 45 268 196617 r $1/dumpout;#B color 12;#P newex 320 86 181 196617 prepend store $1;#P newex 320 65 80 196617 route out_name;#P message 379 289 67 196617 getout_name;#P newex 379 267 159 196617 r $1/init;#B color 11;#P newex 51 113 50 196617 t dump b;#P newex 74 274 68 196617 prepend send;#P newex 74 253 69 196617 route symbol;#P newex 51 300 47 196617 forward;#B color 12;#N coll $1/state 1;#P newobj 51 231 161 196617 coll $1/state 1;#B color 5;#P newex 336 114 78 196617 sprintf %s/out;#P message 6 85 43 196617 dispose;#P newex 241 135 69 196617 route symbol;#N coll m_textures 1;#P newobj 241 114 91 196617 coll m_textures 1;#B color 5;#P toggle 6 26 15 0;#P newex 6 5 311 196617 makeswitch $1/sw $1 movie_switchstate;#B color 11;#P newex 336 135 62 196617 prepend set;#P newex 150 114 31 196617 t set;#P newex 184 74 67 196617 route <none>;#P newex 184 25 323 196617 makeparam $1/source $1 s <none>;#B color 12;#P newex 6 342 325 196617 jit.gl.slab $3 @type float32 @dim 640 480;#B color 12;#P newex 253 206 124 196617 b;#P newex 6 65 100 196617 sel 0 1;#P newex 253 230 111 196617 s $1/out;#B color 12;#P newex 253 184 44 196617 receive;#B color 12;#P window setfont Helvetica 9.;#P comment 286 482 190 1376265 Tom Mays \, Olivier Pfeiffer & Renaud Rubiano;#B frgb 0 146 207;#P window linecount 2;#P comment 287 454 220 1376265 m_plane is a part of movie \, a part of tapemovie. contact@tapemovie.org;#P window setfont Helvetica 24.;#P window linecount 1;#P comment 287 387 98 1376280 m_slab3;#B frgb 0 146 207;#P window setfont Helvetica 12.;#P window linecount 3;#P comment 287 414 263 1376268 $1 : prefix name \; $2 : name of the render associated \; $3 : shader name file;#P user panel 284 384 269 111;#X brgb 255 255 255;#X frgb 0 0 0;#X border 1;#X rounded 0;#X shadow 0;#X done;#P connect 14 0 15 0;#P connect 15 0 39 0;#P connect 39 0 7 0;#P connect 7 0 18 0;#P connect 66 0 9 0;#P connect 44 0 9 0;#P connect 30 0 9 0;#P connect 18 0 9 0;#P fasten 8 1 9 0 372 331 11 331;#P fasten 33 0 9 0 557 335 11 335;#P connect 35 0 9 0;#P connect 50 1 9 0;#P connect 50 0 45 0;#P connect 9 0 45 0;#P connect 46 0 41 0;#P connect 39 1 37 0;#P connect 7 1 36 0;#P connect 36 0 24 0;#P connect 24 0 20 0;#P fasten 23 0 21 0 79 295 56 295;#P connect 20 0 21 0;#P connect 20 1 22 0;#P connect 22 0 23 0;#P connect 37 0 38 0;#P connect 38 0 36 1;#P connect 24 1 43 0;#P connect 43 0 42 0;#P connect 42 1 44 0;#P connect 11 0 12 0;#P connect 10 0 40 0;#P connect 40 0 11 0;#P connect 40 1 11 0;#P connect 11 1 16 0;#P connect 28 0 16 0;#P connect 16 0 17 0;#P connect 17 1 61 0;#P connect 17 0 61 0;#P fasten 13 0 5 0 341 179 258 179;#P fasten 12 0 5 0 155 179 258 179;#P connect 5 0 8 0;#P connect 8 0 6 0;#P connect 29 0 27 0;#P connect 27 0 28 0;#P connect 49 0 9 1;#P fasten 11 1 19 0 246 109 341 109;#P connect 19 0 13 0;#P connect 48 0 47 0;#P connect 9 1 47 0;#P connect 32 0 31 0;#P connect 31 0 30 0;#P connect 25 0 26 0;#P connect 26 0 50 0;#P fasten 33 1 34 0 726 306 564 306;#P connect 29 0 30 1;#P connect 51 0 59 0;#P connect 59 0 52 0;#P connect 59 1 52 0;#P connect 52 0 53 0;#P connect 52 1 54 0;#P connect 54 0 60 0;#P connect 60 0 56 0;#P connect 56 0 58 0;#P connect 61 0 57 0;#P connect 58 0 57 0;#P fasten 53 0 57 0 584 216 641 216;#P lcolor 15;#P fasten 58 1 55 0 711 241 641 241;#P fasten 57 0 55 0 641 240 641 240;#P fasten 53 1 55 0 613 241 641 241;#P lcolor 12;#P connect 62 0 70 0;#P connect 70 1 63 0;#P connect 70 0 63 0;#P connect 63 0 64 0;#P connect 63 1 65 0;#P connect 65 0 71 0;#P connect 71 0 67 0;#P connect 67 0 69 0;#P connect 55 0 68 0;#P fasten 64 0 68 0 734 311 791 311;#P lcolor 15;#P connect 69 0 68 0;#P fasten 64 1 66 0 763 336 791 336;#P lcolor 12;#P fasten 68 0 66 0 791 335 791 335;#P fasten 69 1 66 0 861 336 791 336;#P pop;