max v2;#N vpatcher 684 214 1440 802;#P origin 0 18;#P window setfont "Sans Serif" 9.;#P newex 563 341 151 196617 r $1/getparamlist;#B color 11;#P button 563 362 15 0;#P newex 563 381 157 196617 m_getparamlist $1;#B color 14;#P newex 440 161 268 196617 r $1/dumpout;#B color 12;#P newex 406 544 221 196617 s $1/slab/process/out;#B color 12;#P newex 425 501 223 196617 r $1/slab/process/in;#B color 12;#P newex 406 522 29 196617 gate;#P newex 406 478 31 196617 == 0;#P newex 406 456 67 196617 loadmess $4;#P newex 264 110 30 196617 t s s;#P window linecount 0;#P message 252 342 270 196617;#P window linecount 1;#P newex 41 474 95 196617 r /movie/drawgpu;#P newex 18 530 222 196617 s $1/slab/out;#B color 12;#P newex 18 502 325 196617 jit.gl.texture $3 @automatic 0 @name $1;#B color 12;#P message 331 82 146 196617 $1;#P message 79 200 43 196617 dispose;#P newex 333 373 175 196617 r $1/in2;#B color 12;#P newex 344 395 221 196617 r $1/slab/process/out2;#B color 12;#P newex 344 436 222 196617 s $1/dumpout;#B color 12;#P newex 18 445 221 196617 r $1/slab/process/out;#B color 12;#P newex 17 422 223 196617 s $1/slab/process/in;#B color 12;#P newex 148 193 68 196617 prepend read;#P message 101 151 143 196617 $2;#P newex 101 171 57 196617 route none;#P window setfont Helvetica 9.;#P comment 410 315 190 1376265 Tom Mays \, Olivier Pfeiffer & Renaud Rubiano;#B frgb 0 146 207;#P window linecount 2;#P comment 411 290 261 1376265 m_slab is a part of movie \, a part of tapemovie. contact@tapemovie.org;#P window setfont Helvetica 24.;#P window linecount 1;#P comment 411 213 99 1376280 m_slab;#B frgb 0 146 207;#P window setfont Helvetica 12.;#P window linecount 4;#P comment 411 240 263 1376268 $1 : prefix name \; $2 : shader file name \; $3 : name of the render associated \; $4 : 0/1 - use an auxillairy process;#P user panel 408 210 269 122;#X brgb 255 255 255;#X frgb 0 0 0;#X border 1;#X rounded 0;#X shadow 0;#X done;#P window setfont "Sans Serif" 9.;#P window linecount 1;#P newex 195 65 69 196617 route symbol;#P newex 17 60 27 196617 t i i;#P button 97 59 15 0;#P newex 47 59 40 196617 change;#P newex 62 112 45 196617 onebang;#P newex 38 222 175 196617 r $1;#B color 12;#P message 182 294 113 196617 argb;#P newex 175 274 179 196617 m_colormode $1;#B color 14;#P newex 331 61 268 196617 loadbang;#B color 12;#P newex 331 102 181 196617 prepend store $1;#P newex 62 129 50 196617 t dump b;#P newex 85 290 68 196617 prepend send;#P newex 85 269 69 196617 route symbol;#P newex 62 316 47 196617 forward;#B color 12;#N coll $1/state 1;#P newobj 62 247 161 196617 coll $1/state 1;#B color 5;#P newex 264 140 78 196617 sprintf %s/out;#P message 17 101 43 196617 dispose;#P newex 364 163 69 196617 route symbol;#N coll m_textures 1;#P newobj 364 142 91 196617 coll m_textures 1;#B color 5;#P toggle 17 42 15 0;#P newex 17 21 311 196617 makeswitch $1/sw $1 movie_switchstate;#B color 11;#P newex 264 161 62 196617 prepend set;#P newex 161 130 31 196617 t set;#P newex 195 90 78 196617 route <none>;#P newex 364 184 130 196617 prepend set jit_gl_texture;#P newex 195 41 323 196617 makeparam $1/source $1 s <none>;#B color 12;#P newex 17 395 325 196617 jit.gl.slab $3 @automatic 0;#B color 12;#P newex 264 222 124 196617 b;#P newex 17 81 100 196617 sel 0 1;#P newex 264 246 111 196617 s $1/out;#B color 12;#P newex 264 200 44 196617 receive;#B color 12;#P connect 10 0 11 0;#P connect 11 0 29 0;#P connect 29 0 2 0;#P connect 2 0 14 0;#P connect 57 0 4 0;#P connect 49 0 4 0;#P connect 44 0 4 0;#P connect 38 0 4 0;#P connect 25 0 4 0;#P connect 23 0 4 0;#P connect 14 0 4 0;#P connect 4 0 39 0;#P connect 40 0 46 0;#P connect 48 0 46 0;#P connect 46 0 47 0;#P connect 29 1 27 0;#P connect 2 1 26 0;#P connect 26 0 20 0;#P connect 20 0 16 0;#P connect 16 0 17 0;#P fasten 19 0 17 0 90 311 67 311;#P connect 36 0 44 0;#P connect 16 1 18 0;#P connect 18 0 19 0;#P connect 27 0 28 0;#P connect 28 0 26 1;#P connect 20 1 37 0;#P connect 37 0 36 0;#P connect 36 1 38 0;#P connect 7 0 8 0;#P fasten 23 1 24 0 349 292 187 292;#P connect 5 0 30 0;#P connect 30 1 7 0;#P connect 30 0 7 0;#P connect 8 0 49 0;#P connect 3 1 49 0;#P connect 6 0 49 0;#P connect 7 1 50 0;#P connect 50 0 15 0;#P connect 15 0 9 0;#P fasten 9 0 0 0 269 195 269 195;#P fasten 8 0 0 0 166 195 269 195;#P connect 0 0 3 0;#P connect 3 0 1 0;#P connect 22 0 45 0;#P connect 45 0 21 0;#P connect 43 0 4 1;#P connect 4 1 41 0;#P connect 42 0 41 0;#P connect 50 1 12 0;#P connect 21 0 12 0;#P connect 12 0 13 0;#P connect 13 0 6 0;#P connect 51 0 52 0;#P connect 52 0 53 0;#P connect 53 0 55 0;#P connect 54 0 53 1;#P connect 59 0 58 0;#P connect 58 0 57 0;#P connect 56 0 57 1;#P pop;