max v2;#N vpatcher 10 249 830 455;#P origin -56 -32;#P window setfont Times 9.;#P comment 19 19 100 1310729 sw : $3;#B frgb 60 100 255;#P window linecount 5;#P comment 16 124 168 1310729 arg 1 : activeparams prefix name (i.e. activeparams) \; arg 2 : switch coll name (i.e. switchstate) \; arg 3 : matrix prefix name \; arg 4 : coll matrix name \;;#P window setfont "Sans Serif" 9.;#P window linecount 1;#P newex 158 78 325 196617 t_storeactivepath $1 $2 $3 $4;#B color 6;#P window setfont Times 9.;#P newex 314 45 69 1310729 pvar openactive;#P newex 392 45 74 1310729 pvar writearchive;#P newex 158 45 69 1310729 pvar storeactive;#P window setfont "Sans Serif" 9.;#P comment 40 215 109 196617 contact@tommays.net;#P comment 40 202 100 196617 patch by Tom Mays;#P window setfont Times 9.;#P newex 470 45 75 1310729 pvar recallarchive;#P newex 236 45 71 1310729 pvar recallactive;#P comment 19 5 100 1310729 sw : $2;#B frgb 60 100 255;#P comment 28 35 37 1310729 presets;#P message 88 31 28 1310729 recall;#B color 7;#P objectname recallarchive;#P comment 28 28 38 1310729 archive;#P message 60 31 27 1310729 write;#B color 13;#P objectname writearchive;#P message 3 3 14 1310729 S;#B color 2;#P objectname storeactive;#P message 3 31 14 1310729 O;#B color 9;#P objectname openactive;#P window setfont Times 14.;#P comment 171 9 85 1310734 active params;#P window setfont Times 9.;#P message 3 17 14 1310729 R;#B color 7;#P objectname recallactive;#P user panel 0 1 119 48;#X brgb 235 235 235;#X frgb 128 128 128;#X border 1;#X rounded 4;#X shadow 2;#X done;#P connect 14 0 17 0;#P connect 10 0 17 1;#P connect 16 0 17 2;#P connect 15 0 17 3;#P connect 11 0 17 4;#P pop;