max v2;#N vpatcher 20 116 664 565;#P window setfont "Sans Serif" 9.;#P window linecount 1;#P newex 312 232 51 196617 tosymbol;#P message 312 210 88 196617 $1 connections;#P window linecount 2;#P newex 348 323 264 196617 sprintf ** ---------------------------------------- %s ----------------------------------------;#P newex 312 284 269 196617 sprintf append ** ---------------------------------------- %s ----------------------------------------\\\;;#P window linecount 1;#P newex 71 323 268 196617 sprintf $1 connect %s %s %ld;#N comlet no append \, no semicolon;#P outlet 71 388 15 0;#P comment 193 181 109 196617 contact@tommays.net;#P comment 193 168 100 196617 patch by Tom Mays;#N comlet to textedit;#P outlet 33 359 15 0;#P button 50 53 15 0;#N comlet bang to create message box;#P inlet 50 34 15 0;#P newex 33 277 49 196617 zl slice 3;#P newex 33 298 268 196617 sprintf append $1 connect %s %s %ld\\\;;#P newex 109 228 58 196617 &&;#P newex 157 206 29 196617 == 2;#P newex 33 256 27 196617 gate;#P newex 109 206 45 196617 != -127.;#P newex 67 183 101 196617 unpack s s 0. 0;#P newex 50 141 61 196617 prepend list;#P newex 50 162 27 196617 t l l;#P message 50 102 31 196617 dump;#N coll $2 1;#P newobj 50 120 121 196617 coll $2 1;#B color 5;#P window linecount 2;#P comment 180 116 134 196617 arg 1 : matrix prefix name \; arg 2 : coll matrix name \;;#P connect 9 0 7 0;#P connect 7 0 11 0;#P connect 11 0 10 0;#P connect 10 0 14 0;#P connect 19 0 14 0;#P connect 12 0 13 0;#P connect 13 0 2 0;#P connect 2 0 1 0;#P connect 1 0 4 0;#P connect 4 0 3 0;#P connect 3 0 7 1;#P connect 3 1 5 0;#P connect 11 0 18 0;#P connect 20 0 17 0;#P connect 18 0 17 0;#P connect 5 2 6 0;#P connect 6 0 9 0;#P connect 5 3 8 0;#P connect 8 0 9 1;#P fasten 13 0 21 0 55 92 317 92;#P connect 21 0 22 0;#P connect 22 0 19 0;#P connect 22 0 20 0;#P pop;