max v2;#N vpatcher 49 97 523 334;#P window setfont "Sans Serif" 9.;#P window linecount 1;#P newex 89 164 21 196617 t 0;#P newex 89 143 30 196617 del 1;#P newex 74 121 40 196617 sel 1 0;#P newex 140 30 50 196617 dspstate~;#P window setfont Times 9.;#P comment 63 17 26 1310729 reset;#P comment 63 3 26 1310729 peak;#P window setfont Times 10.;#P comment 3 0 33 1310730 cpu %;#P window setfont "Sans Serif" 9.;#P newex 49 193 142 196617 s $1-peakreset;#B color 9;#P button 48 17 13 13;#P window setfont Times 9.;#P number 45 2 26 9 0 0 8352 20 232 16 16 221 221 221 222 222 222 0 0 0;#P window setfont "Sans Serif" 12.;#P number 1 13 44 12 0 0 8352 3 232 16 16 221 221 221 222 222 222 0 0 0;#P window setfont "Sans Serif" 9.;#P newex 292 60 142 196617 r $1-peakreset;#B color 9;#P newex 262 158 118 196617 s $1-peak;#B color 9;#P newex 262 24 93 196617 r $1;#B color 9;#P message 292 95 14 196617 0;#P newex 262 118 40 196617 peak;#P newex 140 159 93 196617 s $1;#B color 9;#P toggle 140 87 15 0;#P newex 140 114 55 196617 metro 125;#P newex 140 134 64 196617 adstatus cpu;#P comment 292 46 55 196617 reset peak;#P window linecount 2;#P comment 261 187 126 196617 arg 1 : cpu usage prefixname (i.e. cpuusage);#P hidden connect 21 0 11 0;#P hidden connect 2 0 11 0;#P hidden connect 6 0 12 0;#P hidden connect 13 0 14 0;#P connect 19 0 14 0;#P connect 18 0 19 0;#P connect 19 1 20 0;#P connect 20 0 21 0;#P connect 18 0 4 0;#P connect 4 0 3 0;#P connect 3 0 2 0;#P connect 21 0 5 0;#P connect 2 0 5 0;#P connect 8 0 6 0;#P connect 6 0 9 0;#P connect 10 0 7 0;#P connect 7 0 6 1;#P pop;