max v2;#N vpatcher 10 59 490 304;#P window setfont "Sans Serif" 9.;#N vpatcher 10 59 185 294;#P window setfont "Sans Serif" 9.;#P window linecount 2;#P message 72 72 45 196617 \; dsp stop;#P window linecount 1;#P newex 38 47 79 196617 sel 1 0;#P window linecount 2;#P message 16 72 49 196617 \; dsp start;#P inlet 38 28 15 0;#P outlet 38 179 15 0;#P window linecount 1;#P newex 38 156 60 196617 prepend set;#P newex 38 133 50 196617 dspstate~;#P connect 5 0 4 0;#P connect 3 0 5 0;#P connect 0 0 1 0;#P connect 1 0 2 0;#P connect 5 1 6 0;#P pop;#P newobj 88 89 46 196617 p dspsw;#B color 6;#P message 32 109 21 196617 off;#P message 11 109 18 196617 on;#P newex 11 131 55 196617 print audio;#P newex 88 130 40 196617 sel 0 1;#P newex 88 109 50 196617 route set;#P message 147 70 14 196617 0;#P message 147 53 14 196617 1;#P user ubutton 5 8 78 21 0 3;#P window setfont "Sans Serif" 12.;#P user umenu 5 8 79 196659 3 64 28 0;#X add audio is off;#X add audio is on;#P window setfont "Sans Serif" 9.;#P message 1 70 129 196617 brgb 30 52 155 \, shadow 5;#P message 1 53 134 196617 brgb 211 53 57 \, shadow -4;#P user panel 0 0 88 36;#X brgb 30 52 155;#X frgb 0 0 0;#X border 1;#X rounded 7;#X shadow 5;#X done;#P hidden connect 2 0 0 0;#P hidden connect 1 0 0 0;#P hidden connect 4 1 1 0;#P connect 8 1 1 0;#P hidden connect 4 0 2 0;#P connect 8 0 2 0;#P hidden connect 7 0 3 0;#P hidden connect 6 0 3 0;#P hidden connect 5 0 3 0;#P connect 8 1 10 0;#P connect 11 0 9 0;#P connect 10 0 9 0;#P connect 8 0 11 0;#P connect 6 0 12 0;#P connect 5 0 12 0;#P connect 12 0 7 0;#P connect 7 0 8 0;#P hidden connect 4 1 5 0;#P hidden connect 4 0 6 0;#P pop;