max v2;#N vpatcher 40 55 252 296;#P window setfont "Sans Serif" 9.;#P window linecount 2;#P message 103 77 45 196617 \; dsp stop;#P window linecount 1;#P newex 69 52 79 196617 sel 1 0;#P window linecount 2;#P message 47 77 49 196617 \; dsp start;#P inlet 69 33 15 0;#P outlet 69 184 15 0;#P window linecount 1;#P newex 69 161 60 196617 prepend set;#P newex 69 138 50 196617 dspstate~;#P connect 5 0 4 0;#P connect 3 0 5 0;#P connect 0 0 1 0;#P connect 1 0 2 0;#P connect 5 1 6 0;#P pop;