max v2;#N vpatcher 10 59 517 412;#P window setfont "Sans Serif" 9.;#P window linecount 1;#N vpatcher 10 59 185 294;#P window setfont "Sans Serif" 9.;#P window linecount 2;#P message 72 72 45 196617 \; dsp stop;#P window linecount 1;#P newex 38 47 79 196617 sel 1 0;#P window linecount 2;#P message 16 72 49 196617 \; dsp start;#P inlet 38 28 15 0;#P outlet 38 179 15 0;#P window linecount 1;#P newex 38 156 60 196617 prepend set;#P newex 38 133 50 196617 dspstate~;#P connect 5 0 4 0;#P connect 3 0 5 0;#P connect 0 0 1 0;#P connect 1 0 2 0;#P connect 5 1 6 0;#P pop;#P newobj 87 89 46 196617 p dspsw;#B color 6;#P message 31 109 21 196617 off;#P message 10 109 18 196617 on;#P newex 10 131 55 196617 print audio;#P newex 87 130 40 196617 sel 0 1;#P newex 87 109 50 196617 route set;#P message 146 70 14 196617 0;#P message 146 53 14 196617 1;#P user ubutton 2 1 79 17 0 3;#P window setfont "Sans Serif" 12.;#P user umenu 4 0 80 196659 3 64 20 0;#X add audio is off;#X add audio is on;#P window setfont "Sans Serif" 9.;#P message 0 70 130 196617 brgb 30 52 155 \, shadow 3;#P message 0 53 135 196617 brgb 211 53 57 \, shadow -2;#P user panel 0 0 84 20;#X brgb 30 52 155;#X frgb 0 0 0;#X border 1;#X rounded 7;#X shadow 3;#X done;#P hidden connect 1 0 0 0;#P hidden connect 2 0 0 0;#P hidden connect 4 1 1 0;#P connect 8 1 1 0;#P hidden connect 4 0 2 0;#P connect 8 0 2 0;#P hidden connect 7 0 3 0;#P hidden connect 6 0 3 0;#P hidden connect 5 0 3 0;#P connect 8 1 10 0;#P connect 10 0 9 0;#P connect 11 0 9 0;#P connect 8 0 11 0;#P connect 6 0 12 0;#P connect 5 0 12 0;#P connect 12 0 7 0;#P connect 7 0 8 0;#P hidden connect 4 1 5 0;#P hidden connect 4 0 6 0;#P pop;