max v2;#N vpatcher 10 59 569 501;#P origin -1 -1;#P window setfont "Sans Serif" 9.;#P window linecount 1;#P message 487 45 43 196617 /mod.4;#P message 433 45 48 196617 /harm.2;#P newex 306 224 27 196617 * 2;#P newex 306 243 27 196617 - 3;#P newex 306 204 27 196617 !- 7;#P newex 306 184 44 196617 clip 1 6;#P message 364 45 58 196617 /sndmas.2;#P newex 133 197 38 196617 gate 2;#P newex 178 174 27 196617 + 1;#P newex 178 154 27 196617 > 9;#P newex 178 128 34 196617 zl len;#P newex 161 108 27 196617 t l l;#P message 309 45 35 196617 /ad.2;#P message 198 376 91 196617 script delete label;#P newex 161 293 40 196617 t b b s;#P message 161 315 119 196617 script bringtofront label;#P newex 181 353 260 196617 sprintf script new label comment 0 77 28 1310729 %s;#N thispatcher;#Q end;#P newobj 161 397 61 196617 thispatcher;#P newex 161 272 40 196617 itoa;#P newex 161 242 104 196617 zl join;#P newex 214 222 51 196617 zl ecils 2;#P newex 161 222 51 196617 zl slice 7;#P newex 161 83 49 196617 route 47;#P newex 161 61 40 196617 atoi;#P message 161 42 101 196617 $1;#P number 41 83 35 9 0 0 0 3 0 0 0 221 221 221 222 222 222 0 0 0;#P newex 41 100 83 196617 prepend interval;#P newex 41 64 35 196617 + 150;#P newex 41 44 55 196617 random 30;#P newex 41 24 45 196617 loadbang;#P newex 41 3 138 196617 r $1/out~;#B color 4;#P user meter~ 8 3 21 78 165 0 168 0 50 50 50 255 153 0 255 0 0 217 217 0 153 186 0 12 3 3 3 3;#P comment 7 127 138 196617 arg 1 : receive name prefix \;;#P window linecount 2;#P comment 3 145 100 196617 panel 28 x 100 \; space every 27 \;;#P user panel 0 0 28 100;#X brgb 223 223 223;#X frgb 0 0 0;#X border 1;#X rounded 0;#X shadow 0;#X done;#P background;#P hidden connect 4 0 3 0;#P hidden connect 8 0 3 0;#P connect 5 0 6 0;#P connect 6 0 7 0;#P connect 7 0 9 0;#P connect 9 0 8 0;#P connect 26 0 27 0;#P connect 5 0 10 0;#P connect 10 0 11 0;#P connect 22 0 11 0;#P connect 28 0 11 0;#P connect 33 0 11 0;#P connect 34 0 11 0;#P connect 11 0 12 0;#P connect 12 0 23 0;#P connect 12 1 23 0;#P connect 23 0 27 1;#P connect 27 1 13 0;#P connect 13 0 15 0;#P connect 15 0 16 0;#P connect 27 0 16 0;#P connect 16 0 20 0;#P connect 20 0 19 0;#P connect 18 0 17 0;#P connect 21 0 17 0;#P connect 19 0 17 0;#P connect 23 1 24 0;#P connect 24 0 25 0;#P connect 25 0 26 0;#P connect 20 2 18 0;#P connect 27 1 14 0;#P connect 14 1 15 1;#P connect 24 0 29 0;#P connect 29 0 30 0;#P connect 30 0 32 0;#P connect 32 0 31 0;#P pop;