max v2;#N vpatcher 802 71 1361 535;#P window setfont "Sans Serif" 9.;#P window linecount 1;#P message 487 66 43 196617 /mod.4;#P message 433 66 48 196617 /harm.2;#P newex 306 245 27 196617 * 2;#P newex 306 264 27 196617 - 3;#P newex 306 225 27 196617 !- 7;#P newex 306 205 44 196617 clip 1 6;#P message 364 66 58 196617 /sndmas.2;#P newex 133 218 38 196617 gate 2;#P newex 178 195 27 196617 + 1;#P newex 178 175 27 196617 > 9;#P newex 178 149 34 196617 zl len;#P newex 161 129 27 196617 t l l;#P message 309 66 35 196617 /ad.2;#P message 198 397 91 196617 script delete label;#P newex 161 314 40 196617 t b b s;#P message 161 336 119 196617 script bringtofront label;#P newex 181 374 260 196617 sprintf script new label comment 0 77 28 1310729 %s;#N thispatcher;#Q end;#P newobj 161 418 61 196617 thispatcher;#P newex 161 293 40 196617 itoa;#P newex 161 263 104 196617 zl join;#P newex 214 243 51 196617 zl ecils 2;#P newex 161 243 51 196617 zl slice 7;#P newex 161 104 49 196617 route 47;#P newex 161 82 40 196617 atoi;#P message 161 63 101 196617 $1;#P newex 161 44 45 196617 loadbang;#P newex 41 21 138 196617 r $1/meter;#B color 4;#P user meter~ 8 3 21 78 50 0 168 0 50 50 50 255 153 0 255 0 0 217 217 0 153 186 0 12 3 3 3 3;#P comment 7 148 138 196617 arg 1 : receive name prefix \;;#P window linecount 2;#P comment 3 166 100 196617 panel 28 x 100 \; space every 27 \;;#P user panel 0 0 28 100;#X brgb 223 223 223;#X frgb 0 0 0;#X border 1;#X rounded 0;#X shadow 0;#X done;#P background;#P hidden connect 4 0 3 0;#P connect 22 0 23 0;#P connect 5 0 6 0;#P connect 30 0 7 0;#P connect 29 0 7 0;#P connect 24 0 7 0;#P connect 18 0 7 0;#P connect 6 0 7 0;#P connect 7 0 8 0;#P connect 8 1 19 0;#P connect 8 0 19 0;#P connect 19 0 23 1;#P connect 23 1 9 0;#P connect 9 0 11 0;#P connect 23 0 12 0;#P connect 11 0 12 0;#P connect 12 0 16 0;#P connect 16 0 15 0;#P connect 15 0 13 0;#P connect 17 0 13 0;#P connect 14 0 13 0;#P connect 19 1 20 0;#P connect 20 0 21 0;#P connect 21 0 22 0;#P connect 16 2 14 0;#P connect 23 1 10 0;#P connect 10 1 11 1;#P connect 20 0 25 0;#P connect 25 0 26 0;#P connect 26 0 28 0;#P connect 28 0 27 0;#P pop;