max v2;#N vpatcher 40 104 431 465;#N comlet bang to init mesage or qlist;#P outlet 53 200 15 0;#P window setfont "Sans Serif" 9.;#P window linecount 1;#P newex 33 230 50 196617 deferlow;#P newex 33 249 139 196617 s $1/init/done;#B color 11;#P newex 33 157 131 196617 r $1/init;#B color 12;#P newex 33 177 30 196617 t b b;#P toggle 33 83 15 0;#P newex 33 102 44 196617 gate;#P newex 33 62 31 196617 == 0;#P newex 33 42 111 196617 loadmess $2;#P newex 33 123 123 196617 s $1/init;#B color 11;#P newex 67 62 64 196617 r /tape/init;#B color 11;#P comment 33 25 85 196617 global init inhibit;#P window linecount 2;#P comment 64 293 258 196617 arg 1 : module prefix name \; arg 2 : global init inhibit (0 = inhibit off \, 1 = inhibit on);#P connect 4 0 5 0;#P connect 5 0 7 0;#P connect 7 0 6 0;#P connect 6 0 3 0;#P connect 9 0 8 0;#P connect 8 0 11 0;#P connect 11 0 10 0;#P connect 8 1 12 0;#P connect 2 0 6 1;#P pop;