max v2;#N vpatcher 55 280 468 449;#P window setfont "Sans Serif" 9.;#P window linecount 1;#P newex 195 69 69 196617 pak store s 0;#P newex 224 41 102 196617 r t_control_register;#B color 12;#N coll t_controlers 1;#P newobj 195 93 95 196617 coll t_controlers 1;#B color 5;#P newex 38 69 69 196617 pak store s 0;#P newex 67 41 102 196617 r t_module_register;#B color 12;#N coll t_modules 1;#P newobj 38 93 84 196617 coll t_modules 1;#B color 5;#P connect 2 0 0 0;#P connect 1 0 2 1;#P connect 5 0 3 0;#P connect 4 0 5 1;#P pop;