max v2;#N vpatcher 31 106 973 494;#P origin 0 -30;#P window setfont Times 9.;#P window linecount 1;#P newex 365 217 40 1310729 zl reg;#P newex 395 157 85 1310729 sprintf %s-temp.txt;#P window setfont "Sans Serif" 9.;#P message 270 113 14 196617 2;#P window setfont Times 9.;#P newex 296 129 79 1310729 gate 2 1;#P newex 485 125 54 1310729 projectpath;#B color 6;#P newex 296 158 54 1310729 projectpath;#B color 6;#P newex 485 217 47 1310729 tosymbol;#P newex 296 217 47 1310729 tosymbol;#P newex 485 242 57 1310729 prepend read;#P newex 296 242 61 1310729 prepend write;#P newex 723 195 27 1310729 del 1;#P newex 761 194 125 1310729 s $1/storetemp;#B color 11;#P newex 723 174 48 1310729 t b b;#P newex 666 125 27 1310729 del 1;#P newex 704 127 125 1310729 s $1/storetemp;#B color 11;#P newex 666 104 48 1310729 t b b;#P button 723 217 15 0;#P window setfont "Sans Serif" 9.;#P message 723 235 35 196617 write;#P button 666 86 15 0;#P message 666 147 30 196617 open;#P window setfont Times 9.;#P newex 355 21 122 1310729 r $1/storetemp;#B color 11;#P newex 573 106 45 1310729 loadbang;#N comlet openactive;#P inlet 666 67 15 0;#N comlet writearchive;#P inlet 723 153 15 0;#N comlet storeactive;#P inlet 326 22 15 0;#N comlet recallarchive;#P inlet 816 222 15 0;#N comlet recallactive;#P inlet 616 44 15 0;#P newex 355 50 53 1310729 r storetemp;#B color 11;#P window setfont "Sans Serif" 9.;#P comment 682 67 58 196617 openactive;#P comment 738 153 70 196617 writearchive;#P comment 261 22 64 196617 storeactive;#P window setfont Times 9.;#P window linecount 2;#P newex 296 184 119 1310729 sprintf %sconfig/temp/%s-temp.txt;#P window linecount 1;#P newex 485 88 18 1310729 t b;#P window linecount 2;#P newex 485 184 117 1310729 sprintf %sconfig/temp/%s-temp.txt;#P window linecount 1;#P message 573 127 56 1310729 $1;#P window setfont "Sans Serif" 9.;#P comment 632 44 64 196617 recallactive;#P window setfont Times 9.;#P newex 132 199 140 1310729 t_activeconnections $3 $4;#B color 6;#P newex 65 177 144 1310729 t b b set;#P newex 816 241 35 1310729 t read b;#P newex 14 199 100 1310729 activeparamsnoset $2 1;#B color 6;#P window linecount 4;#P comment 369 311 209 1310729 arg 1 : activeparams prefix name (i.e. activeparams) \; arg 2 : switch coll name (i.e. switchstate) \; arg 3 : matrix prefix name \; arg 4 : coll matrix name \;;#P window linecount 1;#P newex 326 72 27 1310729 b;#P newex 616 64 27 1310729 t b b;#P newex 208 300 41 1310729 onebang;#P button 178 240 15 0;#N qlist;#P newobj 178 279 40 1310729 qlist;#P button 343 93 15 0;#P window setfont "Sans Serif" 9.;#P comment 832 222 70 196617 recallarchive;#P connect 10 0 8 0;#P connect 1 0 10 0;#P lcolor 1;#P connect 10 1 11 0;#P fasten 4 0 3 0 213 322 172 322 172 236 183 236;#P fasten 30 0 2 0 728 270 183 270;#P fasten 28 0 2 0 671 270 183 270;#P connect 8 0 2 0;#P fasten 9 0 2 0 821 272 183 272;#P lcolor 1;#P connect 3 0 2 0;#P connect 11 0 2 0;#P fasten 10 2 2 0 204 265 183 265;#P fasten 38 0 2 0 301 270 183 270;#P fasten 39 0 2 0 490 270 183 270;#P connect 2 2 4 0;#P fasten 5 1 4 1 638 289 244 289;#P fasten 9 1 4 1 846 296 244 296;#P connect 2 2 45 0;#P connect 45 0 44 0;#P connect 44 0 42 0;#P connect 42 0 16 0;#P connect 16 0 40 0;#P fasten 47 0 38 0 370 238 301 238;#P connect 40 0 38 0;#P connect 27 0 6 0;#P connect 20 0 6 0;#P connect 23 0 6 0;#P connect 6 1 1 0;#P fasten 6 0 44 1 331 116 370 116;#P connect 44 1 47 0;#P connect 13 0 46 0;#P connect 46 0 47 1;#P connect 13 0 16 1;#P fasten 5 0 15 0 621 84 490 84;#P connect 15 0 43 0;#P connect 43 0 14 0;#P connect 14 0 41 0;#P connect 41 0 39 0;#P connect 26 0 13 0;#P connect 13 0 14 1;#P connect 21 0 5 0;#P connect 25 0 29 0;#P connect 29 0 32 0;#P connect 32 0 34 0;#P connect 34 0 28 0;#P connect 24 0 35 0;#P connect 35 0 37 0;#P connect 37 0 31 0;#P connect 31 0 30 0;#P connect 35 1 36 0;#P connect 22 0 9 0;#P pop;