max v2;#N vpatcher 23 139 625 397;#P origin 0 -4;#P window setfont "Sans Serif" 9.;#P window linecount 1;#P newex 425 55 151 196617 moduleinit $1;#B color 13;#P newex 425 31 139 196617 initnamer $1 $2;#B color 6;#P window linecount 3;#P message 425 78 126 196617 \; $1/sw 0 \; $1-port 44100;#P window linecount 2;#P comment 266 194 107 196617 patch by Tom Mays contact@tommays.net;#P window linecount 1;#P newex 29 127 85 196617 r $1;#B color 11;#P newex 149 91 32 196617 sel 1;#P newex 274 134 36 196617 zl reg;#P newex 172 133 36 196617 zl reg;#P newex 127 194 104 196617 s $1_dumpout;#B color 13;#P newex 127 169 61 196617 jit.net.send;#P newex 300 110 67 196617 prepend port;#P newex 300 89 98 196617 r $1-port;#B color 5;#P newex 198 110 56 196617 prepend ip;#P newex 198 89 98 196617 r $1-ip;#B color 5;#P newex 137 50 97 196617 r $1-in;#B color 13;#P newex 90 95 29 196617 gate;#P window setfont Times 18.;#P window linecount 2;#P comment 424 128 109 1310738 jitnetsender for jit.net.send;#P toggle 90 47 15 0;#P window setfont "Sans Serif" 9.;#P window linecount 1;#P newex 90 25 85 196617 r $1/sw;#B color 11;#N comlet jitter stream in;#P inlet 109 47 15 0;#P window setfont Times 9.;#P window linecount 4;#P comment 424 173 136 1310729 arg 1: prefix name \; arg 2: init environment receive name prefix (i.e. tape \, movie \, camtrk...);#P connect 2 0 3 0;#P connect 3 0 5 0;#P connect 1 0 5 1;#P connect 6 0 5 1;#P fasten 5 0 11 0 95 119 132 119;#P connect 13 0 11 0;#P connect 14 0 11 0;#P connect 16 0 11 0;#P connect 11 0 12 0;#P connect 3 0 15 0;#P connect 15 0 13 0;#P connect 7 0 8 0;#P connect 8 0 13 1;#P connect 15 0 14 0;#P connect 9 0 10 0;#P connect 10 0 14 1;#P connect 20 0 18 0;#P pop;