max v2;#N vpatcher 243 46 1095 565;#P window setfont "Sans Serif" 9.;#P window linecount 2;#P comment 672 53 107 196617 patch by Tom Mays contact@tommays.net;#P window setfont "Sans Serif" 12.;#P window linecount 1;#P comment 32 0 78 196620 jit.net.send;#B frgb 255 0 0;#P window setfont "Sans Serif" 9.;#P newex 118 136 78 196617 pvar connected;#P toggle 236 39 15 0;#P noclick;#P objectname connected;#P newex 118 115 81 196617 route connected;#P newex 118 92 145 196617 r $1-dumpout;#B color 5;#P message 756 439 37 196617 select;#P number 756 458 35 9 0 0 0 3 0 0 0 221 221 221 222 222 222 0 0 0;#P newex 704 419 62 196617 pvar port 2;#P message 704 400 37 196617 select;#P message 627 402 37 196617 select;#P message 550 402 37 196617 select;#P message 473 402 37 196617 select;#P newex 416 16 130 196617 r $1-ip;#B color 11;#P newex 369 469 130 196617 s $1-ip;#B color 11;#P newex 647 379 67 196617 pvar hostd 2;#P newex 570 379 67 196617 pvar hostc 2;#P newex 493 379 67 196617 pvar hostb 2;#P newex 647 340 62 196617 prepend set;#P newex 570 340 62 196617 prepend set;#P newex 493 340 62 196617 prepend set;#P newex 416 340 62 196617 prepend set;#P newex 416 379 67 196617 pvar hosta 2;#P number 120 23 30 9 0 255 67 3 0 0 0 221 221 221 222 222 222 0 0 0;#P objectname hostc;#P number 84 23 30 9 0 255 67 3 0 0 0 221 221 221 222 222 222 0 0 0;#P objectname hostb;#P number 156 23 30 9 0 255 67 3 0 0 0 221 221 221 222 222 222 0 0 0;#P objectname hostd;#P number 48 23 30 9 0 255 67 3 0 0 0 221 221 221 222 222 222 0 0 0;#P objectname hosta;#P newex 369 447 241 196617 sprintf %ld.%ld.%ld.%ld;#P newex 369 426 241 196617 bondo 4 1;#P newex 570 275 51 196617 zl ecils 1;#P newex 493 275 51 196617 zl ecils 1;#P newex 647 319 64 196617 fromsymbol;#P newex 647 298 40 196617 itoa;#P number 647 232 35 9 0 0 0 3 0 0 0 221 221 221 222 222 222 0 0 0;#P newex 647 211 27 196617 !-;#P number 525 231 35 9 0 0 0 3 0 0 0 221 221 221 222 222 222 0 0 0;#P newex 525 210 27 196617 !-;#P newex 416 275 51 196617 zl ecils 1;#P newex 570 319 64 196617 fromsymbol;#P newex 570 298 40 196617 itoa;#P number 664 181 35 9 0 0 0 3 0 0 0 221 221 221 222 222 222 0 0 0;#P newex 570 253 87 196617 zl slice;#P newex 493 319 64 196617 fromsymbol;#P newex 493 298 40 196617 itoa;#P number 542 181 35 9 0 0 0 3 0 0 0 221 221 221 222 222 222 0 0 0;#P newex 493 252 42 196617 zl slice;#P newex 416 319 64 196617 fromsymbol;#P newex 416 298 40 196617 itoa;#P newex 416 79 67 196617 t l l;#P newex 416 37 124 196617 t s b;#P number 448 181 35 9 0 0 0 3 0 0 0 221 221 221 222 222 222 0 0 0;#P newex 473 152 86 196617 unpack 0 0 0;#P message 530 106 70 196617 mode group 3;#P newex 416 251 42 196617 zl slice;#P newex 473 131 55 196617 zl group 3;#P newex 473 101 51 196617 zl sub 46;#P newex 416 58 40 196617 atoi;#P window setfont Times 9.;#P comment 193 40 48 1310729 connected;#P comment 34 25 16 1310729 ip;#P window setfont "Sans Serif" 9.;#P number 48 41 57 9 0 99999 67 3 0 0 0 221 221 221 222 222 222 0 0 0;#P objectname port;#P window setfont Times 9.;#P comment 26 42 24 1310729 port;#P window setfont "Sans Serif" 9.;#P window linecount 4;#P comment 276 39 124 196617 arg 1 : module name \; arg 2 : color scheme choice (0=movie \, 1=tape \, 2=camtrk \, 3=conduite);#P window linecount 1;#P comment 276 22 100 196617 panel = 256 X 62;#N thispatcher;#Q end;#P newobj 0 71 61 196617 thispatcher;#P newex 23 196 271 196617 param $1-ip $1 s;#B color 5;#P newex 23 245 284 196617 param $1-port $1 i 0 99999 0;#B color 5;#P newex 23 226 53 196617 pvar port;#P comment 276 5 118 196617 <- name = "background";#P window setfont Times 18.;#P comment 76 22 12 1310738 .;#P comment 148 22 12 1310738 .;#P comment 112 22 12 1310738 .;#P bpatcher 0 0 256 62 0 0 bkgnd.mxt 0 $1 0 $2;#P objectname background;#P fasten 6 0 5 0 28 264 20 264 20 224 28 224;#P connect 5 0 6 0;#P connect 66 0 67 0;#P connect 67 0 69 0;#P connect 50 0 43 0;#P connect 49 0 43 0;#P connect 43 0 44 0;#P connect 44 0 57 0;#P connect 58 0 22 0;#P connect 22 0 15 0;#P connect 15 0 23 0;#P connect 23 0 18 0;#P connect 18 0 34 0;#P connect 34 0 24 0;#P connect 24 0 25 0;#P connect 25 0 50 0;#P connect 50 0 49 0;#P connect 51 0 43 1;#P connect 54 0 43 1;#P connect 43 1 44 1;#P connect 20 0 21 0;#P connect 21 0 18 1;#P connect 23 1 16 0;#P connect 19 0 17 0;#P connect 16 0 17 0;#P connect 17 0 20 0;#P connect 49 1 59 0;#P connect 18 1 26 0;#P connect 26 0 41 0;#P connect 41 0 28 0;#P connect 28 0 29 0;#P connect 29 0 51 0;#P connect 59 0 54 0;#P connect 51 0 54 0;#P connect 52 0 43 2;#P connect 55 0 43 2;#P connect 43 2 44 2;#P connect 21 0 35 0;#P connect 35 0 36 0;#P connect 36 0 26 1;#P connect 22 1 19 0;#P connect 20 1 27 0;#P connect 27 0 35 1;#P connect 54 1 60 0;#P connect 26 1 30 0;#P connect 30 0 42 0;#P connect 42 0 32 0;#P connect 32 0 33 0;#P connect 33 0 52 0;#P connect 60 0 55 0;#P connect 52 0 55 0;#P connect 53 0 43 3;#P connect 56 0 43 3;#P connect 43 3 44 3;#P connect 55 1 61 0;#P connect 27 0 37 0;#P connect 37 0 38 0;#P connect 38 0 30 1;#P connect 30 1 39 0;#P connect 39 0 40 0;#P connect 40 0 53 0;#P connect 61 0 56 0;#P connect 53 0 56 0;#P connect 20 2 31 0;#P connect 31 0 37 1;#P connect 56 1 62 0;#P connect 62 0 63 0;#P connect 63 1 65 0;#P connect 65 0 64 0;#P pop;