max v2;#N vpatcher 252 364 760 697;#P window setfont Times 9.;#P window linecount 1;#P comment 208 22 32 1310729 /print;#B frgb 99 99 99;#P toggle 236 21 15 0;#P objectname print;#P comment 197 43 43 1310729 /activity;#B frgb 0 0 200;#P button 236 42 15 0;#P objectname activity;#P window setfont "Sans Serif" 9.;#P number 48 41 57 9 0 99999 67 3 0 0 0 221 221 221 222 222 222 0 0 0;#P objectname port;#P window setfont Times 9.;#P comment 24 42 24 1310729 /port;#B frgb 0 0 200;#P window setfont "Sans Serif" 9.;#P newex 34 169 56 196617 pvar print;#P newex 34 149 284 196617 vari $1/print;#B color 5;#P comment 99 170 108 196617 not saved in as param;#P window linecount 4;#P comment 276 57 141 196617 arg 1 : module name \; hardwired! - arg 2: color scheme choice (0=movie \, 1=tape \, 2=camtrk \, 3=conduite);#P window linecount 2;#P comment 286 246 107 196617 patch by Tom Mays contact@tommays.net;#P window setfont "Sans Serif" 12.;#P window linecount 1;#P comment 34 1 75 196620 udpreceive;#B frgb 255 0 0;#P window setfont "Sans Serif" 9.;#P newex 33 112 70 196617 pvar activity;#P newex 33 86 145 196617 r $1/activity;#B color 5;#P comment 276 39 141 196617 arg 1 : module name \;;#P comment 276 22 100 196617 panel = 256 X 62;#P newex 34 222 161 196617 vari $1/port;#B color 5;#P newex 34 203 53 196617 pvar port;#P comment 276 5 118 196617 <- name = "background";#P bpatcher 0 0 256 62 0 0 bkgnd.mxt 0 $1 0 3;#P objectname background;#P connect 6 0 7 0;#P fasten 13 0 12 0 39 189 30 189 30 146 39 146;#P connect 12 0 13 0;#P fasten 3 0 2 0 39 241 31 241 31 201 39 201;#P connect 2 0 3 0;#P pop;