max v2;#N vpatcher 33 296 723 619;#P origin 51 -4;#P window setfont "Sans Serif" 9.;#P newex 67 189 228 196617 r $1/speedlim;#B color 13;#P newex 13 210 64 196617 speedlim 40;#P toggle 150 120 15 0;#P newex 442 47 151 196617 moduleinit $1;#B color 13;#P newex 169 117 155 196617 r $1/activity;#B color 5;#P newex 150 168 160 196617 print $1/activity;#P newex 150 143 29 196617 gate;#P newex 150 97 150 196617 r $1/print;#B color 12;#P window linecount 5;#P message 442 73 184 196617 \; $1/sw/init bang \; $1/port/init bang \; $1/speedlim 40 \; $1/print 0 \;;#P window linecount 1;#P newex 39 59 328 196617 makeparam $1/port $1 i 44000 0 99999;#B color 13;#P newex 13 29 189 196617 makeswitch $1/sw $1 $2_switchstate;#B color 13;#P window linecount 2;#P comment 327 245 107 196617 patch by Tom Mays contact@tommays.net;#P window linecount 1;#P newex 106 223 153 196617 s $1/activity;#B color 5;#P window setfont Times 9.;#P window linecount 4;#P comment 327 194 169 1310729 arg 1: prefix name \; arg 2: environment name for active params switchstate and for init (i.e. tape \, movie \, camtrk...);#N comlet messages to forward;#P outlet 11 264 15 0;#P toggle 13 74 15 0;#P window setfont "Sans Serif" 9.;#P number 39 100 81 9 0 0 0 3 0 0 0 221 221 221 222 222 222 0 0 0;#P window linecount 1;#P newex 39 122 67 196617 prepend port;#P newex 13 168 36 196617 gate;#P window setfont "Sans Serif" 14.;#P newex 11 230 90 196622 udpforward;#B color 6;#P window setfont "Sans Serif" 9.;#P newex 39 146 68 196617 udpreceive 0;#P window setfont "Sans Serif" 24.;#P comment 108 251 136 196632 udpreceive;#P connect 20 0 2 0;#P connect 2 0 7 0;#P connect 11 0 6 0;#P connect 6 0 3 0;#P connect 3 0 20 0;#P connect 12 0 5 0;#P connect 5 0 4 0;#P connect 4 0 1 0;#P connect 1 0 3 1;#P connect 21 0 20 1;#P connect 3 0 9 0;#P connect 14 0 19 0;#P connect 19 0 15 0;#P connect 15 0 16 0;#P connect 17 0 15 1;#P connect 18 0 13 0;#P pop;