max v2;#N vpatcher 26 271 586 399;#P origin -1 -1;#P window setfont "Sans Serif" 9.;#P window linecount 1;#P newex 1069 103 247 196617 tm_editorbuilder /oscreceive /tapemovie 1 1 4 500;#B color 6;#P button 1082 76 15 0;#P comment 1100 76 39 196617 delete;#P button 1069 55 15 0;#P comment 1086 55 31 196617 build;#N thispatcher;#Q end;#P newobj 1069 125 61 196617 thispatcher;#P window linecount 0;#P comment 2377 1 100 196617;#P comment 2 1 100 196617;#P connect 4 0 7 0;#P connect 7 0 2 0;#P fasten 6 0 7 1 1087 97 1192 97;#P fasten 2 0 7 2 1074 147 1316 147 1316 99 1310 99;#P pop;