max v2;#N vpatcher 121 263 1172 391;#P origin -1 -1;#P window setfont "Sans Serif" 9.;#P window linecount 1;#P newex 1062 96 233 196617 tm_editorbuilder /oscsend /tapemovie 1 1 4 500;#B color 6;#P button 1075 69 15 0;#P comment 1093 69 39 196617 delete;#P button 1062 48 15 0;#P comment 1079 48 31 196617 build;#N thispatcher;#Q end;#P newobj 1062 118 61 196617 thispatcher;#P window linecount 0;#P comment 2377 1 100 196617;#P comment 2 1 100 196617;#P connect 4 0 7 0;#P connect 7 0 2 0;#P fasten 6 0 7 1 1080 90 1178 90;#P fasten 2 0 7 2 1067 140 1309 140 1309 92 1289 92;#P pop;