max v2;#N vpatcher 205 190 446 413;#P window setfont "Sans Serif" 9.;#P window linecount 1;#P newex 32 46 100 196617 substitute bang bong;#P newex 32 128 99 196617 substitute bong bang;#P newex 32 96 67 196617 zl ecils 1;#P newex 139 128 65 196617 prepend send;#P newex 32 171 45 196617 forward;#P newex 32 72 45 196617 zl rot -1;#N comlet osc messages;#P inlet 32 23 15 0;#N comlet data out;#P outlet 89 171 15 0;#P connect 1 0 7 0;#P connect 7 0 2 0;#P fasten 7 1 2 0 127 67 37 67;#P connect 2 0 5 0;#P connect 5 0 6 0;#P fasten 6 1 3 0 126 158 37 158;#P connect 6 0 3 0;#P fasten 4 0 3 0 144 158 37 158;#P connect 6 1 0 0;#P connect 6 0 0 0;#P fasten 5 1 4 0 94 119 144 119;#P pop;