max v2;#N vpatcher 770 600 1437 868;#P origin -10 12;#P window setfont "Sans Serif" 9.;#P window linecount 1;#P newex 210 117 90 196617 prepend $1/mode;#P newex 210 89 165 196617 makeparam $1/mode $1 f 1 0 1 1;#B color 11;#P newex 112 89 87 196617 prepend $1/time;#P newex 112 61 162 196617 makeparam $1/time $1 f 1 0 1 1;#B color 11;#P newex 19 61 86 196617 prepend $1/rate;#P newex 19 33 161 196617 makeparam $1/rate $1 f 0 0 1 1;#B color 11;#P window setfont Helvetica 9.;#P comment 409 111 190 1376265 Tom Mays \, Olivier Pfeiffer & Renaud Rubiano;#B frgb 0 146 207;#P window linecount 2;#P comment 410 84 199 1376265 vx.lfo is a part of movie \, a part of tapemovie. contact@tapemovie.org;#P window setfont Helvetica 24.;#P window linecount 1;#P comment 410 41 107 1376280 vx.lfo;#B frgb 0 146 207;#P window setfont Helvetica 12.;#P comment 410 68 97 1376268 $1 : prefix name \;;#P user panel 405 34 208 93;#X brgb 255 255 255;#X frgb 0 0 0;#X border 1;#X rounded 0;#X shadow 0;#X done;#P window setfont "Sans Serif" 9.;#P newex 19 190 49 196617 s /vdmx;#B color 12;#P newex 402 141 168 196617 moduleinit $1;#B color 11;#P window linecount 4;#P message 402 167 100 196617 \; $1/rate/init bang \; $1/time/init bang \; $1/mode/init bang \;;#P connect 8 0 9 0;#P connect 13 0 2 0;#P connect 11 0 2 0;#P connect 9 0 2 0;#P connect 10 0 11 0;#P connect 12 0 13 0;#P fasten 1 0 0 0 407 162 407 162;#P pop;