max v2;#N vpatcher 1 44 686 394;#P origin -10 12;#P window setfont "Sans Serif" 9.;#P window linecount 1;#P newex 174 257 82 196617 prepend $1/red;#P newex 174 229 157 196617 makeparam $1/red $1 f 1 0 1 1;#B color 11;#P newex 149 201 92 196617 prepend $1/green;#P newex 149 173 167 196617 makeparam $1/green $1 f 1 0 1 1;#B color 11;#P newex 124 145 85 196617 prepend $1/blue;#P newex 124 117 160 196617 makeparam $1/blue $1 f 1 0 1 1;#B color 11;#P newex 112 89 86 196617 prepend $1/rate;#P newex 112 61 324 196617 makeparam $1/rate $1 f 0 0 1 1;#B color 11;#P newex 19 61 90 196617 prepend $1/alpha;#P newex 19 33 294 196617 makeparam $1/alpha $1 f 0 0 1 1;#B color 11;#P window setfont Helvetica 9.;#P comment 449 116 190 1376265 Tom Mays \, Olivier Pfeiffer & Renaud Rubiano;#B frgb 0 146 207;#P window linecount 2;#P comment 450 89 199 1376265 tm_vdmx is a part of movie \, a part of tapemovie. contact@tapemovie.org;#P window setfont Helvetica 24.;#P window linecount 1;#P comment 450 46 107 1376280 tm_vdmx;#B frgb 0 146 207;#P window setfont Helvetica 12.;#P comment 450 73 97 1376268 $1 : prefix name \;;#P user panel 445 39 208 93;#X brgb 255 255 255;#X frgb 0 0 0;#X border 1;#X rounded 0;#X shadow 0;#X done;#P window setfont "Sans Serif" 9.;#P newex 19 312 49 196617 s /vdmx;#B color 12;#P newex 442 146 168 196617 moduleinit $1;#B color 11;#P window linecount 6;#P message 442 172 102 196617 \; $1/red/init bang \; $1/green/init bang \; $1/blue/init bang \; $1/alpha/init bang \; $1/rate/init bang \;;#P connect 8 0 9 0;#P connect 17 0 2 0;#P connect 15 0 2 0;#P connect 13 0 2 0;#P connect 11 0 2 0;#P connect 9 0 2 0;#P connect 10 0 11 0;#P connect 12 0 13 0;#P connect 14 0 15 0;#P connect 16 0 17 0;#P fasten 1 0 0 0 447 167 447 167;#P pop;