max v2;#N vpatcher 494 478 1621 1039;#P window setfont "Sans Serif" 9.;#P flonum 32 89 30 9 -360. 360. 8227 3 33 33 33 221 221 221 9 9 9 0 0 0;#P objectname rota;#P window setfont "Sans Serif" 14.;#P comment 423 110 233 196622 look at the [sprintf %s_] object;#P comment 365 81 128 196622 VERY IMPORTANT;#P window setfont "Sans Serif" 9.;#N thispatcher;#Q end;#P newobj 0 139 61 196617 thispatcher;#N comlet this inlet is to select which instance to use;#P inlet 281 50 15 0;#P newex 313 81 50 196617 deferlow;#P window setfont "Sans Serif" 12.;#N vpatcher 30 89 293 402;#P origin 0 -15;#P window setfont "Sans Serif" 9.;#P window linecount 0;#P newex 91 178 64 196617 sprintf %s_;#P window linecount 2;#P newex 50 138 39 196617 route symbol;#P window linecount 1;#P newex 50 87 46 196617 t dump l;#P newex 50 65 114 196617 sprintf refer %s/state;#P newex 50 254 47 196617 forward;#P window linecount 2;#P newex 91 210 42 196617 prepend send;#P newex 91 138 39 196617 route symbol;#P window linecount 1;#N coll /plan.1/state;#P newobj 50 114 134 196617 coll;#B color 5;#P inlet 50 21 15 0;#P connect 0 0 5 0;#P connect 5 0 6 0;#P connect 6 1 1 0;#P connect 6 0 1 0;#P connect 1 0 7 0;#P fasten 7 1 4 0 84 191 55 191;#P connect 7 0 4 0;#P fasten 3 0 4 0 96 246 55 246;#P connect 1 1 2 0;#P connect 2 0 8 0;#P connect 8 0 3 0;#P pop;#P newobj 313 110 109 196620 p re-send values;#B color 7;#P window setfont "Sans Serif" 9.;#P comment 103 19 34 196617 /alpha;#B frgb 50 50 50;#P flonum 104 29 30 9 0. 1. 8227 3 0 0 0 221 221 221 0 0 0 0 0 0;#P objectname alphanumb;#P flonum 80 29 30 9 0. 1. 8227 3 0 0 0 221 221 221 0 0 0 0 0 0;#P objectname blue;#P flonum 51 29 30 9 0. 1. 8227 3 0 0 0 221 221 221 0 0 0 0 0 0;#P objectname green;#P flonum 22 29 30 9 0. 1. 8227 3 0 0 0 221 221 221 33 33 33 0 0 0;#P objectname red;#P comment 78 19 34 196617 /blue;#B frgb 50 50 50;#P comment 47 19 41 196617 /green;#B frgb 9 9 9;#P comment 19 19 31 196617 /red;#B frgb 42 42 42;#P flonum 89 89 30 9 -360. 360. 8227 3 0 0 0 221 221 221 50 50 50 0 0 0;#P objectname roty;#P flonum 60 89 30 9 -360. 360. 8227 3 33 33 33 221 221 221 9 9 9 0 0 0;#P objectname rotx;#P flonum 89 107 30 9 -100. 100. 8227 3 9 9 9 221 221 221 33 33 33 0 0 0;#P objectname scaley;#P flonum 60 107 30 9 -100. 100. 8227 3 33 33 33 221 221 221 25 25 25 0 0 0;#P objectname scalex;#P flonum 78 71 39 9 -100. 100. 35 3 0 0 0 255 255 255 255 255 255 0 0 0;#P objectname posy;#P flonum 39 71 39 9 -100. 100. 35 3 0 0 0 255 255 255 255 255 255 0 0 0;#P objectname posx;#P comment 89 58 20 196617 /y;#B frgb 9 9 9;#P comment 60 58 20 196617 /x;#B frgb 42 42 42;#P comment 1 90 30 196617 /rot;#B frgb 42 42 42;#P comment 1 108 39 196617 /scale;#B frgb 33 33 33;#P comment 1 71 31 196617 /pos;#B frgb 42 42 42;#P user panel 12 53 140 4;#X brgb 190 190 190;#X frgb 190 190 190;#X border 1;#X rounded 0;#X shadow 0;#X done;#P user multiSlider 15 42 126 8 0. 1. 1 2936 47 0 0 2 0 0 0;#M frgb 0 0 0;#M brgb 255 255 255;#M rgb2 127 127 127;#M rgb3 0 0 0;#M rgb4 37 52 91;#M rgb5 74 105 182;#M rgb6 112 158 18;#M rgb7 149 211 110;#M rgb8 187 9 201;#M rgb9 224 62 37;#M rgb10 7 114 128;#P objectname alpha;#P newex 674 275 52 196617 pvar blue;#P newex 674 249 112 196617 varieditu /blue /vdmx;#B color 12;#P newex 451 275 59 196617 pvar green;#P newex 451 249 119 196617 varieditu /green /vdmx;#B color 12;#P newex 238 275 49 196617 pvar red;#P newex 238 249 109 196617 varieditu /red /vdmx;#B color 12;#P newex 15 274 80 196617 pvar alphanumb;#P newex 119 481 119 196617 varieditu /rot/z /vdmx;#B color 12;#P newex 37 481 53 196617 pvar rotz;#P newex 119 459 120 196617 varieditu /rot/y /vdmx;#B color 12;#P newex 37 459 54 196617 pvar roty;#P newex 119 437 120 196617 varieditu /rot/x /vdmx;#B color 12;#P newex 37 437 54 196617 pvar rotx;#P newex 119 396 129 196617 varieditu /scale/y /vdmx;#B color 12;#P newex 37 396 63 196617 pvar scaley;#P newex 119 375 129 196617 varieditu /scale/x /vdmx;#B color 12;#P newex 37 375 63 196617 pvar scalex;#P newex 119 332 121 196617 varieditu /pos/y /vdmx;#B color 12;#P newex 37 332 55 196617 pvar posy;#P newex 119 310 121 196617 varieditu /pos/x /vdmx;#B color 12;#P newex 37 310 55 196617 pvar posx;#P newex 167 272 57 196617 pvar alpha;#P newex 15 248 117 196617 varieditu /alpha /vdmx;#B color 12;#P window setfont "Sans Serif" 14.;#P comment 298 50 309 196622 this inlet is to select which instance to use;#P bpatcher 0 0 257 125 0 0 m_bkgndu.mxt 0 plan 0 /movie 2 1;#P objectname background;#P connect 0 0 49 0;#P connect 18 0 2 0;#P connect 3 0 2 0;#P connect 2 0 18 0;#P connect 5 0 4 0;#P connect 7 0 6 0;#P connect 9 0 8 0;#P connect 11 0 10 0;#P connect 13 0 12 0;#P connect 15 0 14 0;#P connect 17 0 16 0;#P connect 0 1 2 2;#P connect 4 0 5 0;#P connect 6 0 7 0;#P connect 8 0 9 0;#P connect 10 0 11 0;#P connect 12 0 13 0;#P connect 14 0 15 0;#P connect 16 0 17 0;#P connect 2 2 3 0;#P connect 0 1 13 2;#P connect 0 1 15 2;#P connect 0 1 17 2;#P connect 0 1 5 2;#P connect 0 1 7 2;#P connect 0 1 9 2;#P connect 0 1 11 2;#P connect 20 0 19 0;#P connect 19 0 20 0;#P connect 48 0 0 1;#P connect 0 1 19 2;#P connect 0 1 47 0;#P connect 47 0 46 0;#P connect 22 0 21 0;#P connect 21 0 22 0;#P connect 0 1 21 2;#P connect 24 0 23 0;#P connect 23 0 24 0;#P connect 0 1 23 2;#P pop;