max v2;#N vpatcher 27 47 957 856;#P window setfont "Sans Serif" 9.;#P window linecount 1;#P message 674 415 42 196617 noteoff;#P message 584 467 53 196617 freevoice;#P message 594 439 30 196617 edge;#P message 642 438 39 196617 noteon;#P newex 647 469 63 196617 pack s $1 0;#P number 758 276 35 9 0 0 0 3 0 0 0 221 221 221 222 222 222 0 0 0;#P newex 822 136 48 196617 loadbang;#P newex 648 496 93 196617 print edge-delvect;#P newex 155 449 31 196617 t 0 b;#P window linecount 15;#P comment 12 29 125 196617 [filter pitch (midicents)] \; [velocity (i)] \; [filt type (s)] \; [filt amp dB (f)] \; [filt q (f)] \; [amp vel follow (i)] \; [filt pitch vel follow (i)] \; [amp env att (ms)] \; [amp env dec (ms)] \; [amp env sus (i=0-127)] \; [amp env rel] (ms) \; [filt env att] (ms) \; [filt env dec] (ms) \; [filt env sus] (i=0-127) \; [filt env rel] (ms) \;;#P button 221 412 15 0;#P window linecount 2;#P comment 712 157 34 196617 active voice;#P button 109 631 15 0;#P window linecount 1;#P newex 109 582 36 196617 edge~;#P number 341 438 35 9 0 0 0 3 0 0 0 221 221 221 222 222 222 0 0 0;#P newex 151 155 27 196617 t l b;#P newex 536 372 18 196617 t l;#P newex 377 372 18 196617 t l;#P user number~ 127 538 188 553 9 3 3 2 0. 0. 0 0. 250 0. 0 0 0 221 221 221 222 222 222 0 0 0;#P newex 608 286 40 196617 / 127.;#P newex 604 354 36 196617 zl reg;#P newex 536 331 54 196617 prepend 1;#P newex 630 331 54 196617 prepend 0;#P newex 536 311 60 196617 pack 0 0. 0;#P newex 564 265 76 196617 unpack 0 0 0 0;#P newex 449 286 40 196617 / 127.;#P user number~ 283 542 344 557 9 3 3 2 0. 0. 0 0. 250 0. 0 0 0 221 221 221 222 222 222 0 0 0;#P user number~ 204 630 260 645 9 3 3 2 0. 0. 0 0. 250 0. 0 0 0 221 221 221 222 222 222 0 0 0;#P newex 192 541 29 196617 sig~;#P newex 359 503 32 196617 line~;#P newex 283 521 27 196617 *~;#P newex 283 498 29 196617 sig~;#P comment 179 158 42 196617 note on;#P button 263 150 15 0;#P newex 196 105 27 196617 + 1;#P newex 196 85 31 196617 == 0;#P newex 151 132 38 196617 gate 2;#P newex 196 64 44 196617 zl nth 2;#P newex 179 43 27 196617 t l l;#P newex 445 354 36 196617 zl reg;#P newex 377 331 54 196617 prepend 1;#P newex 471 331 54 196617 prepend 0;#P newex 377 311 60 196617 pack 0 0. 0;#P newex 405 265 76 196617 unpack 0 0 0 0;#P message 543 635 123 196617 gainlpass;#P newex 543 615 62 196617 prepend set;#N vpatcher 20 74 408 280;#P window setfont "Sans Serif" 9.;#P newex 114 134 20 196617 t s;#P message 246 88 53 196617 gainapass;#P message 202 70 67 196617 gainresonant;#P message 158 88 52 196617 gainbstop;#P message 114 70 53 196617 gainbpass;#P message 70 88 53 196617 gainhpass;#P message 26 70 51 196617 gainlpass;#P newex 26 47 319 196617 sel lowpass highpass bandpass bandstop resonant allpass display;#P inlet 26 27 15 0;#P outlet 114 156 15 0;#P connect 1 0 2 0;#P connect 2 0 3 0;#P connect 2 1 4 0;#P connect 2 2 5 0;#P connect 8 0 9 0;#P connect 7 0 9 0;#P connect 6 0 9 0;#P connect 5 0 9 0;#P connect 4 0 9 0;#P connect 3 0 9 0;#P fasten 2 7 9 0 339 115 119 115;#P connect 9 0 0 0;#P connect 2 3 6 0;#P connect 2 4 7 0;#P connect 2 5 8 0;#P pop;#P newobj 529 585 102 196617 p filter-type-change;#B color 6;#P newex 192 663 66 196617 filtercoeff~;#B color 6;#P newex 178 713 82 196617 biquad~;#P newex 178 688 82 196617 biquad~;#P newex 109 511 32 196617 line~;#P newex 71 529 27 196617 *~;#P message 574 236 123 196617 0 300 64 2000;#P newex 574 214 62 196617 prepend set;#P message 416 238 123 196617 1 300 0 1000;#P newex 416 216 62 196617 prepend set;#P newex 564 179 51 196617 zl slice 4;#P newex 405 179 51 196617 zl slice 4;#P newex 151 179 251 196617 zl slice 7;#P newex 109 609 62 196617 t_delvect 2;#B color 6;#P newex 758 182 32 196617 t 0 1;#P toggle 706 215 15 0;#P message 706 233 45 196617 mute \$1;#P newex 706 182 32 196617 t 0 1;#P toggle 758 215 15 0;#P newex 758 254 52 196617 thispoly~;#P number 192 500 55 9 0 12700 3 3 0 0 0 221 221 221 222 222 222 0 0 0;#P newex 192 478 77 196617 pvar midicents;#B color 13;#P number 118 419 35 9 0 0 0 3 0 0 0 221 221 221 222 222 222 0 0 0;#P newex 71 364 71 196617 pvar velocity;#B color 13;#P comment 178 311 47 196617 velocity;#P comment 151 342 53 196617 midicents;#P comment 286 279 70 196617 ampvelfollow;#P newex 118 398 94 196617 pvar ampvelfollow;#B color 13;#P comment 313 247 88 196617 filtpitchvelfollow;#P number 286 263 35 9 -127 127 3 3 0 0 0 221 221 221 222 222 222 0 0 0;#P objectname ampvelfollow;#P number 313 232 35 9 -127 127 3 3 0 0 0 221 221 221 222 222 222 0 0 0;#P objectname filtpitchvelfollow;#P newex 341 417 112 196617 pvar filtpitchvelfollow;#B color 13;#P newex 459 562 53 196617 pvar filtq;#B color 13;#P comment 259 311 29 196617 filtq;#P flonum 259 295 44 9 0 0 0 3 0 0 0 221 221 221 222 222 222 0 0 0;#P objectname filtq;#P comment 205 267 44 196617 filttype;#P newex 322 562 76 196617 pvar filtampdb;#B color 13;#P newex 322 585 61 196617 clip -24 24;#P newex 459 585 59 196617 clip 0.5 25;#P newex 192 609 80 196617 clip~ 30 19845;#P flonum 322 625 100 9 0 0 0 3 0 0 0 221 221 221 222 222 222 0 0 0;#P flonum 232 326 35 9 0 0 0 3 0 0 0 221 221 221 222 222 222 0 0 0;#P objectname filtampdb;#P newex 529 562 77 196617 pvar filttype 2;#B color 13;#P newex 205 230 80 196617 prepend symbol;#P user umenu 205 250 70 196647 1 64 266 0;#X add lowpass;#X add highpass;#X add bandpass;#X add bandstop;#X add peaknotch;#X add lowshelf;#X add highshelf;#X add resonant;#X add allpass;#P objectname filttype;#P number 178 295 35 9 0 127 3 3 0 0 0 221 221 221 222 222 222 0 0 0;#P objectname velocity;#P number 151 326 55 9 0 12700 3 3 0 0 0 221 221 221 222 222 222 0 0 0;#P objectname midicents;#P flonum 283 479 68 9 0 0 0 3 0 0 0 221 221 221 222 222 222 0 0 0;#P flonum 283 435 35 9 0. 127. 3 3 0 0 0 221 221 221 222 222 222 0 0 0;#P newex 283 457 68 196617 midifollow+-;#B color 13;#P newex 192 587 37 196617 mtof~;#P newex 192 565 34 196617 +~ 0.;#P newex 192 520 40 196617 / 100.;#P number 71 416 35 9 0 127 3 3 0 0 0 221 221 221 222 222 222 0 0 0;#P number 71 460 35 9 0 0 0 3 0 0 0 221 221 221 222 222 222 0 0 0;#P newex 322 605 124 196617 expr pow(10\\\,($f1/20));#P newex 151 206 177 196617 unpack 0 0 s 0. 0. 0 0;#P newex 71 438 57 196617 midifollow;#B color 13;#P flonum 459 625 54 9 0 0 0 3 0 0 0 221 221 221 222 222 222 0 0 0;#P newex 71 503 29 196617 sig~;#P newex 17 547 27 196617 *~;#P newex 71 480 40 196617 / 127.;#P comment 232 342 52 196617 filtampdb;#P newex 17 478 39 196617 noise~;#P comment 250 135 45 196617 note off;#P newex 109 560 34 196617 !=~ 0;#P window linecount 2;#P comment 768 157 31 196617 free voice;#P window linecount 1;#P newex 221 392 140 196617 r $1/allnotesoff;#B color 11;#P newex 178 735 55 196617 clip~ -1 1;#N out 1;#P newobj 336 764 33 196617 out 1;#N in 1;#P newobj 179 22 25 196617 in 1;#N out~ 1;#P newobj 178 764 35 196617 out~ 1;#P comment 204 24 135 196617 [pitch midicents] [velocity];#P connect 9 0 12 0;#P connect 67 0 12 1;#P connect 49 0 19 0;#P connect 19 0 15 0;#P connect 15 0 18 0;#P connect 18 0 11 0;#P connect 11 0 13 0;#P connect 13 0 67 0;#P connect 68 0 67 1;#P connect 110 0 68 0;#P lcolor 13;#P connect 101 0 68 0;#P lcolor 7;#P connect 68 0 7 0;#P connect 7 0 105 0;#P connect 105 1 59 0;#P connect 110 1 59 0;#P connect 59 0 106 0;#P connect 45 0 50 0;#P connect 50 0 15 1;#P connect 68 0 100 0;#P connect 84 0 82 0;#P connect 82 0 103 0;#P connect 103 0 60 0;#P connect 60 0 16 0;#P connect 16 0 26 0;#P connect 108 0 110 0;#P connect 16 1 27 0;#P fasten 12 0 69 0 22 658 183 658;#P connect 69 0 70 0;#P connect 70 0 4 0;#P connect 4 0 1 0;#P connect 2 0 80 0;#P connect 80 0 82 1;#P connect 51 0 52 0;#P connect 52 0 20 0;#P connect 20 0 90 0;#P connect 90 0 21 0;#P connect 21 0 22 0;#P connect 22 0 33 0;#P fasten 72 0 71 0 534 654 197 654;#P connect 33 0 71 0;#P connect 71 0 69 1;#P connect 71 0 70 1;#P connect 80 1 81 0;#P connect 81 0 83 0;#P connect 83 0 84 0;#P connect 33 0 91 0;#P connect 16 2 29 0;#P connect 29 0 28 0;#P connect 71 1 69 2;#P connect 71 1 70 2;#P connect 88 0 21 1;#P connect 32 0 71 1;#P connect 71 2 69 3;#P connect 71 2 70 3;#P connect 5 0 108 0;#P connect 16 3 31 0;#P connect 71 3 69 4;#P connect 71 3 70 4;#P connect 14 0 71 2;#P connect 71 4 69 5;#P connect 71 4 70 5;#P connect 16 4 38 0;#P connect 82 1 85 0;#P fasten 49 0 24 0 76 386 288 386;#P connect 24 0 23 0;#P connect 23 0 25 0;#P connect 25 0 87 0;#P connect 87 0 88 0;#P connect 88 0 92 0;#P connect 16 5 43 0;#P connect 89 0 88 1;#P connect 16 6 42 0;#P connect 36 0 35 0;#P connect 35 0 17 0;#P connect 17 0 32 0;#P connect 41 0 104 0;#P connect 104 0 23 1;#P connect 102 0 89 0;#P lcolor 7;#P connect 75 0 76 0;#P connect 76 0 78 0;#P connect 78 0 101 0;#P connect 79 0 101 0;#P connect 93 0 76 1;#P connect 60 1 61 0;#P connect 61 0 75 0;#P connect 64 0 75 0;#P connect 61 0 63 0;#P connect 63 0 64 0;#P connect 75 1 76 2;#P connect 85 0 79 0;#P connect 75 2 93 0;#P connect 40 0 34 0;#P connect 34 0 14 0;#P connect 75 3 77 0;#P connect 77 0 79 1;#P fasten 30 1 72 0 601 582 534 582;#P connect 94 0 95 0;#P connect 95 0 97 0;#P connect 97 0 102 0;#P connect 98 0 102 0;#P connect 72 0 73 0;#P connect 73 0 74 0;#P connect 99 0 95 1;#P connect 61 1 62 0;#P connect 62 0 94 0;#P connect 66 0 94 0;#P connect 62 0 65 0;#P connect 65 0 66 0;#P connect 94 1 95 2;#P connect 85 0 98 0;#P connect 94 2 99 0;#P connect 94 3 96 0;#P connect 96 0 98 1;#P connect 117 0 114 0;#P connect 116 0 114 0;#P connect 115 0 114 0;#P connect 118 0 114 0;#P connect 114 0 111 0;#P connect 113 0 114 2;#P fasten 103 1 55 0 173 174 711 174;#P connect 55 0 57 0;#P connect 58 1 57 0;#P connect 57 0 56 0;#P connect 106 0 58 0;#P lcolor 5;#P connect 112 0 58 0;#P connect 55 1 54 0;#P connect 58 0 54 0;#P connect 54 0 53 0;#P connect 56 0 53 0;#P connect 112 0 53 0;#P connect 53 0 113 0;#P pop;