max v2;#N vpatcher 241 60 1271 852;#P origin -51 122;#P window setfont "Sans Serif" 18.;#N vpatcher 16 245 1346 546;#P origin 396 0;#P window setfont "Sans Serif" 9.;#P comment 1215 235 100 196617;#P window setfont Times 9.;#P flonum 1041 178 42 9 0 0 0 20 0 0 0 221 221 221 222 222 222 0 0 0;#P window linecount 1;#P newex 1041 85 82 1310729 r $1/f3/fshift/amp-;#B color 11;#P flonum 997 178 42 9 0 0 0 20 0 0 0 221 221 221 222 222 222 0 0 0;#P newex 997 66 82 1310729 r $1/f2/fshift/amp-;#B color 11;#P flonum 953 178 42 9 0 0 0 20 0 0 0 221 221 221 222 222 222 0 0 0;#P newex 953 47 82 1310729 r $1/f1/fshift/amp-;#B color 11;#P flonum 909 178 42 9 0 0 0 20 0 0 0 221 221 221 222 222 222 0 0 0;#P newex 909 28 82 1310729 r $1/f0/fshift/amp-;#B color 11;#P flonum 865 178 42 9 0 0 0 20 0 0 0 221 221 221 222 222 222 0 0 0;#P newex 865 85 80 1310729 r $1/f3/fshift/freq-;#B color 11;#P flonum 821 178 42 9 0 0 0 20 0 0 0 221 221 221 222 222 222 0 0 0;#P newex 821 66 80 1310729 r $1/f2/fshift/freq-;#B color 11;#P flonum 777 178 42 9 0 0 0 20 0 0 0 221 221 221 222 222 222 0 0 0;#P newex 777 47 80 1310729 r $1/f1/fshift/freq-;#B color 11;#P flonum 733 178 42 9 0 0 0 20 0 0 0 221 221 221 222 222 222 0 0 0;#P newex 733 28 80 1310729 r $1/f0/fshift/freq-;#B color 11;#P newex -181 147 126 1310729 r $1/f3/cf/makenote;#B color 11;#P newex -225 128 126 1310729 r $1/f2/cf/makenote;#B color 11;#P newex -269 109 126 1310729 r $1/f1/cf/makenote;#B color 11;#P flonum 1217 178 42 9 0 0 0 20 0 0 0 221 221 221 222 222 222 0 0 0;#P window linecount 0;#P newex 1217 83 87 1310729 r $1/f3/pan-;#B color 11;#P flonum 1173 178 42 9 0 0 0 20 0 0 0 221 221 221 222 222 222 0 0 0;#P newex 1173 64 87 1310729 r $1/f2/pan-;#B color 11;#P flonum 1129 178 42 9 0 0 0 20 0 0 0 221 221 221 222 222 222 0 0 0;#P newex 1129 45 87 1310729 r $1/f1/pan-;#B color 11;#P flonum 1085 178 42 9 0 0 0 20 0 0 0 221 221 221 222 222 222 0 0 0;#P newex 1085 26 87 1310729 r $1/f0/pan-;#B color 11;#P flonum 689 178 42 9 0 0 0 20 0 0 0 221 221 221 222 222 222 0 0 0;#P newex 689 85 83 1310729 r $1/f3/rel-;#B color 11;#P flonum 645 178 42 9 0 0 0 20 0 0 0 221 221 221 222 222 222 0 0 0;#P newex 645 66 85 1310729 r $1/f3/sus-;#B color 11;#P flonum 601 178 42 9 0 0 0 20 0 0 0 221 221 221 222 222 222 0 0 0;#P newex 601 47 85 1310729 r $1/f3/dec-;#B color 11;#P flonum 557 178 42 9 0 0 0 20 0 0 0 221 221 221 222 222 222 0 0 0;#P newex 557 28 83 1310729 r $1/f3/att-;#B color 11;#P flonum 513 178 42 9 0 0 0 20 0 0 0 221 221 221 222 222 222 0 0 0;#P newex 513 85 83 1310729 r $1/f2/rel-;#B color 11;#P flonum 469 178 42 9 0 0 0 20 0 0 0 221 221 221 222 222 222 0 0 0;#P newex 469 66 85 1310729 r $1/f2/sus-;#B color 11;#P flonum 425 178 42 9 0 0 0 20 0 0 0 221 221 221 222 222 222 0 0 0;#P newex 425 47 85 1310729 r $1/f2/dec-;#B color 11;#P flonum 381 178 42 9 0 0 0 20 0 0 0 221 221 221 222 222 222 0 0 0;#P newex 381 28 83 1310729 r $1/f2/att-;#B color 11;#P flonum 337 178 42 9 0 0 0 20 0 0 0 221 221 221 222 222 222 0 0 0;#P newex 337 85 83 1310729 r $1/f1/rel-;#B color 11;#P flonum 293 178 42 9 0 0 0 20 0 0 0 221 221 221 222 222 222 0 0 0;#P newex 293 66 85 1310729 r $1/f1/sus-;#B color 11;#P flonum 249 178 42 9 0 0 0 20 0 0 0 221 221 221 222 222 222 0 0 0;#P newex 249 47 85 1310729 r $1/f1/dec-;#B color 11;#P flonum 205 178 42 9 0 0 0 20 0 0 0 221 221 221 222 222 222 0 0 0;#P newex 205 28 83 1310729 r $1/f1/att-;#B color 11;#P flonum 161 178 42 9 0 0 0 20 0 0 0 221 221 221 222 222 222 0 0 0;#P newex 161 85 83 1310729 r $1/f0/rel-;#B color 11;#P flonum 117 178 42 9 0 0 0 20 0 0 0 221 221 221 222 222 222 0 0 0;#P newex 117 66 85 1310729 r $1/f0/sus-;#B color 11;#P flonum 73 178 42 9 0 0 0 20 0 0 0 221 221 221 222 222 222 0 0 0;#P newex 73 47 85 1310729 r $1/f0/dec-;#B color 11;#P flonum 29 178 42 9 0 0 0 20 0 0 0 221 221 221 222 222 222 0 0 0;#P newex 29 28 83 1310729 r $1/f0/att-;#B color 11;#P flonum -15 178 42 9 0 0 0 20 0 0 0 221 221 221 222 222 222 0 0 0;#P newex -15 85 89 1310729 r $1/f3/amp-;#B color 11;#P flonum -59 178 42 9 0 0 0 20 0 0 0 221 221 221 222 222 222 0 0 0;#P newex -59 66 89 1310729 r $1/f2/amp-;#B color 11;#P flonum -103 178 42 9 0 0 0 20 0 0 0 221 221 221 222 222 222 0 0 0;#P newex -103 47 89 1310729 r $1/f1/amp-;#B color 11;#P flonum -147 178 42 9 0 0 0 20 0 0 0 221 221 221 222 222 222 0 0 0;#P newex -147 28 89 1310729 r $1/f0/amp-;#B color 11;#P flonum -191 178 42 9 0 0 0 20 0 0 0 221 221 221 222 222 222 0 0 0;#P newex -191 85 80 1310729 r $1/f3/cf-;#B color 11;#P flonum -235 178 42 9 0 0 0 20 0 0 0 221 221 221 222 222 222 0 0 0;#P newex -235 66 80 1310729 r $1/f2/cf-;#B color 11;#P flonum -279 178 42 9 0 0 0 20 0 0 0 221 221 221 222 222 222 0 0 0;#P newex -279 47 80 1310729 r $1/f1/cf-;#B color 11;#P window setfont "Sans Serif" 9.;#P window linecount 3;#P comment -202 241 645 196617 [pitch midicents] [vel(>0)] [cf1] [cf2] [cf3] [amp0 (0.-1.)] [amp1 (0.-1.)] [amp2 (0.-1.)] [amp3 (0.-1.)] [att0] [dec0] [sus0 (0.-1.)] [rel0] [att1] [dec1] [sus1 (0.-1.)] [rel1] [att2] [dec2] [sus2 (0.-1.)] [rel2] [att3] [dec3] [sus3 (0.-1.)] [rel3] [fshiftfreq0] [fshiftfreq1] [fshiftfreq2] [fshiftfreq3] [fshiftamp0] [fshiftamp1] [fshiftamp2] [fshiftamp3] [pan0 (0.-1.)] [pan1 (0.-1.)] [pan2 (0.-1.)] [pan3 (0.-1.)];#P window setfont Times 9.;#P flonum -323 178 35 9 0 0 0 20 0 0 0 221 221 221 222 222 222 0 0 0;#P flonum -367 178 35 9 0 0 0 20 0 0 0 221 221 221 222 222 222 0 0 0;#P window linecount 1;#P newex -367 75 54 1310729 unpack 0. 0.;#P newex -367 28 97 1310729 r $1/pitchvel;#B color 11;#P newex -367 243 156 1310729 s $1/note;#B color 11;#P window setfont "Sans Serif" 9.;#P newex -367 207 1599 196617 pack 0. 0. 0. 0. 0. 0. 0. 0. 0. 0. 0. 0. 0. 0. 0. 0. 0. 0. 0. 0. 0. 0. 0. 0. 0. 0. 0. 0. 0. 0. 0. 0. 0. 0. 0. 0. 0.;#P window linecount 0;#P comment -376 264 100 196617;#P connect 3 0 4 0;#P connect 4 0 5 0;#P connect 5 0 1 0;#P connect 1 0 2 0;#P connect 4 1 6 0;#P connect 6 0 1 1;#P connect 8 0 9 0;#P connect 62 0 9 0;#P connect 9 0 1 2;#P connect 10 0 11 0;#P connect 63 0 11 0;#P connect 11 0 1 3;#P connect 12 0 13 0;#P connect 64 0 13 0;#P connect 13 0 1 4;#P connect 14 0 15 0;#P connect 15 0 1 5;#P connect 16 0 17 0;#P connect 17 0 1 6;#P connect 18 0 19 0;#P connect 19 0 1 7;#P connect 20 0 21 0;#P connect 21 0 1 8;#P connect 22 0 23 0;#P connect 23 0 1 9;#P connect 24 0 25 0;#P connect 25 0 1 10;#P connect 26 0 27 0;#P connect 27 0 1 11;#P connect 28 0 29 0;#P connect 29 0 1 12;#P connect 30 0 31 0;#P connect 31 0 1 13;#P connect 32 0 33 0;#P connect 33 0 1 14;#P connect 34 0 35 0;#P connect 35 0 1 15;#P connect 36 0 37 0;#P connect 37 0 1 16;#P connect 38 0 39 0;#P connect 39 0 1 17;#P connect 40 0 41 0;#P connect 41 0 1 18;#P connect 42 0 43 0;#P connect 43 0 1 19;#P connect 44 0 45 0;#P connect 45 0 1 20;#P connect 46 0 47 0;#P connect 47 0 1 21;#P connect 48 0 49 0;#P connect 49 0 1 22;#P connect 50 0 51 0;#P connect 51 0 1 23;#P connect 52 0 53 0;#P connect 53 0 1 24;#P connect 65 0 66 0;#P connect 66 0 1 25;#P connect 67 0 68 0;#P connect 68 0 1 26;#P connect 69 0 70 0;#P connect 70 0 1 27;#P connect 71 0 72 0;#P connect 72 0 1 28;#P connect 73 0 74 0;#P connect 74 0 1 29;#P connect 75 0 76 0;#P connect 76 0 1 30;#P connect 77 0 78 0;#P connect 78 0 1 31;#P connect 79 0 80 0;#P connect 80 0 1 32;#P connect 54 0 55 0;#P connect 55 0 1 33;#P connect 56 0 57 0;#P connect 57 0 1 34;#P connect 58 0 59 0;#P connect 59 0 1 35;#P connect 60 0 61 0;#P connect 61 0 1 36;#P pop;#P newobj 287 671 114 196626 p makenote;#B color 6;#P window setfont "Sans Serif" 9.;#P window linecount 24;#P message 641 90 143 196617 \; $1/f0/sus/init bang \; $1/f1/sus/init bang \; $1/f2/sus/init bang \; $1/f3/sus/init bang \; $1/f0/rel/init bang \; $1/f1/rel/init bang \; $1/f2/rel/init bang \; $1/f3/rel/init bang \; $1/f0/fshift/freq/init bang \; $1/f1/fshift/freq/init bang \; $1/f2/fshift/freq/init bang \; $1/f3/fshift/freq/init bang \; $1/f0/fshift/amp/init bang \; $1/f1/fshift/amp/init bang \; $1/f2/fshift/amp/init bang \; $1/f3/fshift/amp/init bang \; $1/f0/pan/init bang \; $1/f1/pan/init bang \; $1/f2/pan/init bang \; $1/f3/pan/init bang \; $1/vol/init bang \; $1/allnotesoff bang \; module_register $1 \;;#P window linecount 1;#N vpatcher -3 81 367 525;#P window setfont "Sans Serif" 9.;#P newex 37 334 134 196617 s $1/f0/fshift/amp-;#B color 11;#P newex 37 312 279 196617 makeparam $1/f0/fshift/amp $1 f 0. 0. 1. 0;#B color 13;#P newex 37 290 134 196617 s $1/f0/fshift/freq-;#B color 11;#P newex 37 268 279 196617 makeparam $1/f0/fshift/freq $1 f 0. 0. 22050. 0;#B color 13;#P newex 37 381 136 196617 s $1/f0/pan-;#B color 11;#P newex 37 359 251 196617 makeparam $1/f0/pan $1 f 0.35 0. 1. 0;#B color 13;#P newex 37 245 134 196617 s $1/f0/rel-;#B color 11;#P newex 37 223 279 196617 makeparam $1/f0/rel $1 f 400. 0. 65535. 0;#B color 13;#P newex 37 200 136 196617 s $1/f0/sus-;#B color 11;#P newex 37 178 257 196617 makeparam $1/f0/sus $1 f 0.33 0. 1.;#B color 13;#P newex 37 155 136 196617 s $1/f0/dec-;#B color 11;#P newex 37 133 275 196617 makeparam $1/f0/dec $1 f 20. 0. 65535. 0;#B color 13;#P newex 37 110 134 196617 s $1/f0/att-;#B color 11;#P newex 37 88 267 196617 makeparam $1/f0/att $1 f 5. 0. 65535. 0;#B color 13;#P newex 37 65 139 196617 s $1/f0/amp-;#B color 11;#P newex 37 43 260 196617 makeparam $1/f0/amp $1 f 0.67 0. 1. 1;#B color 13;#P connect 0 0 1 0;#P connect 2 0 3 0;#P connect 4 0 5 0;#P connect 6 0 7 0;#P connect 8 0 9 0;#P connect 12 0 13 0;#P connect 14 0 15 0;#P connect 10 0 11 0;#P pop;#P newobj 63 520 80 196617 p makeparams0;#B color 6;#P flonum 562 636 45 9 0. 1. 3 3 0 0 0 221 221 221 222 222 222 0 0 0;#P window setfont Times 9.;#P newex 562 654 67 1310729 vari $1/f0/amp;#B color 11;#P window setfont "Sans Serif" 9.;#P newex 196 302 179 196617 s $1/velexponantfactor-;#B color 11;#P flonum 196 284 45 9 0. 4. 3 3 0 0 0 221 221 221 222 222 222 0 0 0;#P newex 196 263 351 196617 makeparam $1/velexponantfactor $1 f 1.38 0. 4. 1 20;#B color 13;#P newex 196 239 179 196617 s $1/velexponant-;#B color 11;#P flonum 196 221 45 9 0. 4. 3 3 0 0 0 221 221 221 222 222 222 0 0 0;#P newex 196 200 351 196617 makeparam $1/velexponant $1 f 1.5 0. 4. 1 20;#B color 13;#P flonum 856 597 45 9 0. 1. 3 3 0 0 0 221 221 221 222 222 222 0 0 0;#P flonum 709 597 45 9 0. 1. 3 3 0 0 0 221 221 221 222 222 222 0 0 0;#P flonum 562 597 45 9 0. 1. 3 3 0 0 0 221 221 221 222 222 222 0 0 0;#P window setfont Times 9.;#P newex 856 615 67 1310729 vari $1/f3/amp;#B color 11;#P newex 709 615 67 1310729 vari $1/f2/amp;#B color 11;#P newex 562 615 67 1310729 vari $1/f1/amp;#B color 11;#P window setfont "Sans Serif" 9.;#P flonum 856 556 45 9 0. 4. 3 3 0 0 0 221 221 221 222 222 222 0 0 0;#P flonum 709 556 45 9 0. 4. 3 3 0 0 0 221 221 221 222 222 222 0 0 0;#P flonum 562 556 45 9 0. 4. 3 3 0 0 0 221 221 221 222 222 222 0 0 0;#P window setfont Times 9.;#P newex 856 574 96 1310729 vari $1/f3/bw/ctlrange;#B color 11;#P newex 709 574 96 1310729 vari $1/f2/bw/ctlrange;#B color 11;#P newex 562 574 96 1310729 vari $1/f1/bw/ctlrange;#B color 11;#P window setfont "Sans Serif" 9.;#P flonum 856 456 45 9 0. 22050. 3 3 0 0 0 221 221 221 222 222 222 0 0 0;#P flonum 709 456 45 9 0. 22050. 3 3 0 0 0 221 221 221 222 222 222 0 0 0;#P flonum 562 456 45 9 0. 22050. 3 3 0 0 0 221 221 221 222 222 222 0 0 0;#N vpatcher 336 74 732 651;#P window setfont "Sans Serif" 9.;#P newex 47 469 134 196617 s $1/f3/fshift/amp-;#B color 11;#P newex 47 447 279 196617 makeparam $1/f3/fshift/amp $1 f 0. 0. 1. 0;#B color 13;#P newex 47 425 134 196617 s $1/f3/fshift/freq-;#B color 11;#P newex 47 403 279 196617 makeparam $1/f3/fshift/freq $1 f 0. 0. 22050. 0;#B color 13;#P newex 47 516 136 196617 s $1/f3/pan-;#B color 11;#P newex 47 494 251 196617 makeparam $1/f3/pan $1 f 0.95 0. 1. 0;#B color 13;#P newex 47 380 134 196617 s $1/f3/rel-;#B color 11;#P newex 47 358 279 196617 makeparam $1/f3/rel $1 f 100. 0. 65535. 0;#B color 13;#P newex 47 335 136 196617 s $1/f3/sus-;#B color 11;#P newex 47 313 257 196617 makeparam $1/f3/sus $1 f 0.33 0. 1.;#B color 13;#P newex 47 290 136 196617 s $1/f3/dec-;#B color 11;#P newex 47 268 275 196617 makeparam $1/f3/dec $1 f 20. 0. 65535. 0;#B color 13;#P newex 47 245 134 196617 s $1/f3/att-;#B color 11;#P newex 47 223 267 196617 makeparam $1/f3/att $1 f 5. 0. 65535. 0;#B color 13;#P newex 47 200 139 196617 s $1/f3/amp-;#B color 11;#P newex 47 178 260 196617 makeparam $1/f3/amp $1 f 0.25 0. 1. 1;#B color 13;#P newex 47 155 174 196617 s $1/f3/bw/ctlrange-;#B color 11;#P newex 47 111 149 196617 s $1/f3/bw/ctl-;#B color 11;#P newex 47 67 127 196617 s $1/f3/cf-;#B color 11;#P newex 47 133 298 196617 makeparam $1/f3/bw/ctlrange $1 f 2. 0. 4. 1 20;#B color 13;#P newex 47 89 291 196617 makeparam $1/f3/bw/ctl $1 f 32. 0. 127. 1 20;#B color 13;#P newex 47 45 287 196617 makeparam $1/f3/cf $1 f 300. 0. 22050. 1 20;#B color 13;#P connect 0 0 3 0;#P connect 1 0 4 0;#P connect 2 0 5 0;#P connect 6 0 7 0;#P connect 8 0 9 0;#P connect 10 0 11 0;#P connect 12 0 13 0;#P connect 14 0 15 0;#P connect 18 0 19 0;#P connect 20 0 21 0;#P connect 16 0 17 0;#P pop;#P newobj 380 520 80 196617 p makeparams3;#B color 6;#N vpatcher 427 78 805 655;#P window setfont "Sans Serif" 9.;#P newex 37 467 134 196617 s $1/f2/fshift/amp-;#B color 11;#P newex 37 445 279 196617 makeparam $1/f2/fshift/amp $1 f 0. 0. 1. 0;#B color 13;#P newex 37 423 134 196617 s $1/f2/fshift/freq-;#B color 11;#P newex 37 401 279 196617 makeparam $1/f2/fshift/freq $1 f 0. 0. 22050. 0;#B color 13;#P newex 37 515 136 196617 s $1/f2/pan-;#B color 11;#P newex 37 493 251 196617 makeparam $1/f2/pan $1 f 0.05 0. 1. 0;#B color 13;#P newex 37 378 134 196617 s $1/f2/rel-;#B color 11;#P newex 37 356 279 196617 makeparam $1/f2/rel $1 f 200. 0. 65535. 0;#B color 13;#P newex 37 333 136 196617 s $1/f2/sus-;#B color 11;#P newex 37 311 257 196617 makeparam $1/f2/sus $1 f 0.33 0. 1.;#B color 13;#P newex 37 288 136 196617 s $1/f2/dec-;#B color 11;#P newex 37 266 275 196617 makeparam $1/f2/dec $1 f 20. 0. 65535. 0;#B color 13;#P newex 37 243 134 196617 s $1/f2/att-;#B color 11;#P newex 37 221 267 196617 makeparam $1/f2/att $1 f 5. 0. 65535. 0;#B color 13;#P newex 37 198 139 196617 s $1/f2/amp-;#B color 11;#P newex 37 176 260 196617 makeparam $1/f2/amp $1 f 0.5 0. 1. 1;#B color 13;#P newex 37 153 174 196617 s $1/f2/bw/ctlrange-;#B color 11;#P newex 37 109 149 196617 s $1/f2/bw/ctl-;#B color 11;#P newex 37 65 127 196617 s $1/f2/cf-;#B color 11;#P newex 37 131 298 196617 makeparam $1/f2/bw/ctlrange $1 f 3.5 0. 4. 1 20;#B color 13;#P newex 37 87 291 196617 makeparam $1/f2/bw/ctl $1 f 32. 0. 127. 1 20;#B color 13;#P newex 37 43 287 196617 makeparam $1/f2/cf $1 f 200. 0. 22050. 1 20;#B color 13;#P connect 0 0 3 0;#P connect 1 0 4 0;#P connect 2 0 5 0;#P connect 6 0 7 0;#P connect 8 0 9 0;#P connect 10 0 11 0;#P connect 12 0 13 0;#P connect 14 0 15 0;#P connect 18 0 19 0;#P connect 20 0 21 0;#P connect 16 0 17 0;#P pop;#P newobj 271 520 80 196617 p makeparams2;#B color 6;#P newex 48 708 121 196617 send $1R/out~;#B color 4;#P newex 26 734 120 196617 send $1L/out~;#B color 4;#P newex 84 661 52 196617 *~ 0.707;#P flonum 85 625 35 9 0 0 0 3 0 0 0 221 221 221 222 222 222 0 0 0;#P comment 344 109 265 196617 [pitch] [vel (>0)] [att] [dec] [sus] [rel] [cf1] [cf2] [cf3];#P window setfont "Sans Serif" 18.;#P comment 358 83 232 196626 paff for "fixed" cf version;#P window setfont "Sans Serif" 9.;#P number 33 300 55 9 0 0 0 3 0 0 0 221 221 221 222 222 222 0 0 0;#P window linecount 2;#P comment 192 155 152 196617 converts automatically to midicents if pitch <= 140 \,;#P window setfont Times 9.;#P window linecount 1;#P newex 71 258 30 1310729 + 0.5;#P newex 33 279 16 1310729 t i;#P newex 33 258 35 1310729 * 100.;#P window setfont "Sans Serif" 9.;#P newex 33 237 48 196617 gate 2;#P newex 88 210 27 196617 + 1;#P newex 88 189 39 196617 > 140.;#P newex 71 168 27 196617 t f f;#P flonum 71 147 66 9 0 0 0 3 0 0 0 221 221 221 222 222 222 0 0 0;#P window setfont Times 9.;#P newex 14 394 47 1310729 s $1/poly;#B color 11;#P window setfont "Sans Serif" 9.;#N vpatcher 350 79 773 639;#P window setfont "Sans Serif" 9.;#P window linecount 1;#P newex 43 460 134 196617 s $1/f1/fshift/amp-;#B color 11;#P newex 43 438 279 196617 makeparam $1/f1/fshift/amp $1 f 0. 0. 1. 0;#B color 13;#P newex 43 416 134 196617 s $1/f1/fshift/freq-;#B color 11;#P newex 43 394 279 196617 makeparam $1/f1/fshift/freq $1 f 0. 0. 22050. 0;#B color 13;#P newex 43 508 136 196617 s $1/f1/pan-;#B color 11;#P newex 43 486 251 196617 makeparam $1/f1/pan $1 f 0.65 0. 1. 0;#B color 13;#P newex 43 369 134 196617 s $1/f1/rel-;#B color 11;#P newex 43 347 279 196617 makeparam $1/f1/rel $1 f 300. 0. 65535. 0;#B color 13;#P newex 43 324 136 196617 s $1/f1/sus-;#B color 11;#P newex 43 302 257 196617 makeparam $1/f1/sus $1 f 0.33 0. 1.;#B color 13;#P newex 43 279 136 196617 s $1/f1/dec-;#B color 11;#P newex 43 257 275 196617 makeparam $1/f1/dec $1 f 20. 0. 65535. 0;#B color 13;#P newex 43 234 134 196617 s $1/f1/att-;#B color 11;#P newex 43 212 267 196617 makeparam $1/f1/att $1 f 5. 0. 65535. 0;#B color 13;#P newex 43 189 139 196617 s $1/f1/amp-;#B color 11;#P newex 43 167 260 196617 makeparam $1/f1/amp $1 f 1. 0. 1. 1;#B color 13;#P window linecount 0;#P newex 43 144 174 196617 s $1/f1/bw/ctlrange-;#B color 11;#P newex 43 100 149 196617 s $1/f1/bw/ctl-;#B color 11;#P newex 43 56 127 196617 s $1/f1/cf-;#B color 11;#P newex 43 122 298 196617 makeparam $1/f1/bw/ctlrange $1 f 4. 0. 4. 1 20;#B color 13;#P newex 43 78 291 196617 makeparam $1/f1/bw/ctl $1 f 32. 0. 127. 1 20;#B color 13;#P newex 43 34 287 196617 makeparam $1/f1/cf $1 f 100. 0. 22050. 1 20;#B color 13;#P connect 0 0 3 0;#P connect 1 0 4 0;#P connect 2 0 5 0;#P connect 6 0 7 0;#P connect 8 0 9 0;#P connect 10 0 11 0;#P connect 12 0 13 0;#P connect 14 0 15 0;#P connect 18 0 19 0;#P connect 20 0 21 0;#P connect 16 0 17 0;#P pop;#P newobj 162 520 80 196617 p makeparams1;#B color 6;#P window setfont Times 9.;#P newex 856 532 75 1310729 vari $1/f3/bw/ctl;#B color 11;#P newex 856 474 58 1310729 vari $1/f3/cf;#B color 11;#P user hslider 856 511 18 128 128 1 0 0;#P newex 709 532 75 1310729 vari $1/f2/bw/ctl;#B color 11;#P newex 709 474 58 1310729 vari $1/f2/cf;#B color 11;#P user hslider 709 511 18 128 128 1 0 0;#P newex 562 532 75 1310729 vari $1/f1/bw/ctl;#B color 11;#P newex 562 474 58 1310729 vari $1/f1/cf;#B color 11;#P user hslider 562 511 18 128 128 1 0 0;#P window setfont "Sans Serif" 9.;#P newex 84 681 145 196617 t_fxmetersend $1;#B color 4;#P window setfont Times 9.;#P newex 210 572 120 1310729 s $1_busy;#B color 11;#P window setfont "Sans Serif" 9.;#P newex 26 624 55 196617 t_vol2~ 2;#P newex 70 601 351 196617 makeparam $1/vol $1 f 1. 0. 2. 1 20;#B color 13;#P newex 14 369 29 196617 gate;#P newex 14 12 261 196617 makeswitch $1/sw $1 tape_switchstate;#B color 13;#P button 641 59 15 0;#P newex 609 401 165 196617 s $1/spat/init;#B color 11;#P newex 641 30 148 196617 moduleinit $1;#B color 13;#P window linecount 27;#P message 826 90 170 196617 \; $1/sw/init bang \; $1/steal 1 \; $1/polyphony 32 \; $1/velexponant/init bang \; $1/velexponantfactor/init bang \; $1/f1/cf/init bang \; $1/f2/cf/init bang \; $1/f3/cf/init bang \; $1/f1/bw/ctl/init bang \; $1/f2/bw/ctl/init bang \; $1/f3/bw/ctl/init bang \; $1/f1/bw/ctlrange/init bang \; $1/f2/bw/ctlrange/init bang \; $1/f3/bw/ctlrange/init bang \; $1/f0/amp/init bang \; $1/f1/amp/init bang \; $1/f2/amp/init bang \; $1/f3/amp/init bang \; $1/f0/att/init bang \; $1/f1/att/init bang \; $1/f2/att/init bang \; $1/f3/att/init bang \; $1/f0/dec/init bang \; $1/f1/dec/init bang \; $1/f2/dec/init bang \; $1/f3/dec/init bang \;;#P number 152 417 35 9 0 0 64 3 0 0 0 221 221 221 222 222 222 0 0 0;#P window setfont Times 9.;#P window linecount 1;#P message 152 436 41 1310729 open \$1;#P newex 33 322 123 1310729 zl join;#P newex 71 113 85 1310729 zl slice 1;#P toggle 71 70 15 0;#P newex 71 91 36 1310729 gate;#P newex 71 46 53 1310729 dspstate~;#P newex 465 359 35 1310729 unpack;#P number 500 393 35 9 0 0 0 20 0 0 0 221 221 221 222 222 222 0 0 0;#P newex 465 336 45 1310729 t l 100;#P newex 97 69 45 1310729 r $1/note;#B color 11;#P newex 465 314 66 1310729 r $1/showbusy;#B color 11;#P toggle 465 397 15 0;#P newex 465 416 45 1310729 metro;#P message 465 436 49 1310729 busymap 1;#P message 232 435 38 1310729 steal \$1;#P newex 33 344 76 1310729 prepend midinote;#P message 116 436 34 1310729 open 1;#P number 322 418 35 9 0 32 3 20 0 0 0 221 221 221 222 222 222 0 0 0;#P newex 322 397 71 1310729 r $1/polyphony;#B color 11;#P toggle 232 417 15 0;#P newex 232 396 46 1310729 r $1/steal;#B color 11;#P newex 26 436 46 1310729 r $1/poly;#B color 11;#P message 322 436 45 1310729 voices \$1;#P comment 358 418 50 1310729 also resets;#P window setfont "Sans Serif" 9.;#P comment 343 22 132 196617 arg 1 : module prefix name \;;#P window linecount 2;#P comment 498 33 107 196617 patch by Tom Mays contact@tommays.net;#P window linecount 1;#P newex 26 550 195 196617 poly~ t_paff_ 32 args $1;#B color 6;#P connect 32 0 33 0;#P connect 33 0 48 0;#P fasten 10 0 0 0 121 507 31 507;#P fasten 26 0 0 0 157 507 31 507;#P fasten 12 0 0 0 237 507 31 507;#P fasten 4 0 0 0 327 507 31 507;#P connect 5 0 0 0;#P fasten 13 0 0 0 470 507 31 507;#P connect 0 0 35 0;#P connect 35 0 63 0;#P connect 52 0 53 0;#P connect 53 0 54 0;#P connect 54 0 55 0;#P connect 56 0 55 0;#P connect 55 0 58 0;#P connect 58 0 25 0;#P connect 25 0 11 0;#P connect 11 0 33 1;#P fasten 0 1 35 1 123 579 53 579;#P connect 35 1 64 0;#P connect 34 0 35 2;#P connect 61 0 35 2;#P connect 21 0 23 0;#P connect 23 0 22 0;#P connect 22 0 24 0;#P connect 24 0 49 0;#P connect 49 0 50 0;#P connect 50 0 53 1;#P connect 53 1 56 0;#P connect 35 1 62 0;#P connect 35 0 62 0;#P connect 62 0 37 0;#P connect 35 2 61 0;#P connect 50 1 51 0;#P connect 51 0 52 0;#P connect 17 0 22 1;#P connect 24 1 25 1;#P connect 27 0 26 0;#P connect 82 0 83 0;#P connect 83 0 84 0;#P connect 85 0 86 0;#P connect 86 0 87 0;#P connect 0 2 36 0;#P connect 6 0 7 0;#P connect 7 0 12 0;#P connect 8 0 9 0;#P connect 9 0 4 0;#P connect 16 0 18 0;#P connect 18 0 20 0;#P connect 20 0 15 0;#P connect 15 0 14 0;#P connect 14 0 13 0;#P connect 20 1 19 0;#P connect 18 1 19 0;#P connect 19 0 14 1;#P connect 39 0 67 0;#P connect 67 0 39 0;#P connect 40 0 38 0;#P connect 38 0 40 0;#P connect 70 0 73 0;#P connect 73 0 70 0;#P connect 76 0 79 0;#P connect 79 0 76 0;#P connect 88 0 89 0;#P connect 89 0 88 0;#P fasten 31 0 30 0 646 80 614 80;#P connect 29 0 31 0;#P connect 31 0 91 0;#P connect 42 0 68 0;#P connect 68 0 42 0;#P connect 43 0 41 0;#P connect 41 0 43 0;#P connect 71 0 74 0;#P connect 74 0 71 0;#P connect 77 0 80 0;#P connect 80 0 77 0;#P fasten 31 0 28 0 646 77 831 77;#P connect 45 0 69 0;#P connect 69 0 45 0;#P connect 46 0 44 0;#P connect 44 0 46 0;#P connect 72 0 75 0;#P connect 75 0 72 0;#P connect 78 0 81 0;#P connect 81 0 78 0;#P pop;