max v2;#N vpatcher 171 52 1339 793;#P origin 0 -1;#P window setfont "Sans Serif" 9.;#P newex 903 240 83 196617 pvar fshiftamp3;#P newex 903 260 83 196617 pvar fshiftamp2;#P newex 903 280 83 196617 pvar fshiftamp1;#P newex 903 300 83 196617 pvar fshiftamp0;#P newex 801 240 84 196617 pvar fshiftfreq3;#P newex 801 260 84 196617 pvar fshiftfreq2;#P newex 801 280 84 196617 pvar fshiftfreq1;#P newex 801 300 84 196617 pvar fshiftfreq0;#P flonum 114 522 35 9 0 0 0 3 0 0 0 153 153 255 222 222 222 0 0 0;#P objectname fshiftamp0;#P comment 148 522 59 196617 fshiftamp0;#P flonum 101 504 35 9 0 0 0 3 0 0 0 153 153 255 222 222 222 0 0 0;#P objectname fshiftfreq0;#P comment 135 504 60 196617 fshiftfreq0;#P flonum 836 522 35 9 0 0 0 3 0 0 0 153 153 255 222 222 222 0 0 0;#P objectname fshiftamp3;#P comment 870 522 59 196617 fshiftamp3;#P flonum 822 504 35 9 0 0 0 3 0 0 0 153 153 255 222 222 222 0 0 0;#P objectname fshiftfreq3;#P comment 856 504 60 196617 fshiftfreq3;#P flonum 568 522 35 9 0 0 0 3 0 0 0 153 153 255 222 222 222 0 0 0;#P objectname fshiftamp2;#P comment 602 522 59 196617 fshiftamp2;#P flonum 554 504 35 9 0 0 0 3 0 0 0 153 153 255 222 222 222 0 0 0;#P objectname fshiftfreq2;#P comment 588 504 60 196617 fshiftfreq2;#P flonum 300 522 35 9 0 0 0 3 0 0 0 153 153 255 222 222 222 0 0 0;#P objectname fshiftamp1;#P comment 334 522 59 196617 fshiftamp1;#P flonum 286 504 35 9 0 0 0 3 0 0 0 153 153 255 222 222 222 0 0 0;#P objectname fshiftfreq1;#P comment 320 504 60 196617 fshiftfreq1;#P newex 70 287 32 196617 t 0 0;#P newex 586 697 62 196617 pvar active;#B color 13;#P newex 586 676 21 196617 t 0;#P newex 586 654 36 196617 edge~;#P newex 586 632 37 196617 ==~ 0;#P flonum 724 378 49 9 0 0 0 3 0 0 0 153 153 255 222 222 222 0 0 0;#P objectname cf3;#P comment 774 378 23 196617 cf3;#P comment 885 540 31 196617 pan3;#P comment 843 486 29 196617 rel3;#P comment 829 468 31 196617 sus3;#P comment 815 450 31 196617 dec3;#P comment 801 432 29 196617 att3;#P comment 787 414 30 196617 vel3;#N vpatcher 325 295 1327 844;#P window setfont Times 9.;#P window linecount 1;#P newex 399 274 49 1310729 pipe 0. 20;#P window setfont "Sans Serif" 9.;#P flonum 125 289 42 9 0 0 0 3 0 0 0 221 221 221 222 222 222 0 0 0;#P flonum 31 233 42 9 0 0 0 3 0 0 0 221 221 221 222 222 222 0 0 0;#P message 44 313 33 196617 debug;#P window setfont Times 9.;#P newex 215 240 27 1310729 t f 0;#P window setfont "Sans Serif" 9.;#P message 358 297 31 196617 \$1 0;#P newex 278 72 141 196617 r $1/f3/bw/ctlrange-;#B color 11;#P newex 185 46 116 196617 r $1/f3/bw/ctl-;#B color 11;#P newex 113 24 94 196617 r $1/f3/cf-;#B color 11;#P newex 298 190 103 196617 r $1/f3/amp1-;#B color 11;#N vpatcher 677 76 878 274;#P inlet 104 30 15 0;#P window setfont Times 9.;#P newex 31 120 46 1310729 +~;#P newex 67 90 76 1310729 *~;#P newex 67 62 47 1310729 freqshift~;#P inlet 133 31 15 0;#P inlet 31 31 15 0;#P outlet 31 142 15 0;#P connect 1 0 5 0;#P connect 5 0 0 0;#P connect 1 0 3 0;#P connect 3 0 4 0;#P connect 4 0 5 1;#P connect 6 0 3 1;#P connect 2 0 4 1;#P pop;#P newobj 31 399 770 196617 p fshift-vib;#B color 6;#P window setfont Times 9.;#P newex 596 354 30 1310729 line~;#P window setfont "Sans Serif" 9.;#P newex 596 310 54 196617 pack 0. 5;#P flonum 596 291 42 9 0. 1. 3 3 0 0 0 221 221 221 222 222 222 0 0 0;#P window setfont Times 9.;#P newex 596 270 54 1310729 unpack 0. 0;#P newex 596 249 27 1310729 t l 5;#P window setfont "Sans Serif" 9.;#P newex 596 227 177 196617 r $1/f3/fshift/freq-;#B color 11;#P inlet 616 333 15 0;#P window setfont Times 9.;#P newex 791 354 30 1310729 line~;#P window setfont "Sans Serif" 9.;#P newex 791 310 54 196617 pack 0. 5;#P flonum 791 291 42 9 0. 1. 3 3 0 0 0 221 221 221 222 222 222 0 0 0;#P window setfont Times 9.;#P newex 791 270 54 1310729 unpack 0. 0;#P newex 791 249 27 1310729 t l 5;#P window setfont "Sans Serif" 9.;#P newex 791 227 176 196617 r $1/f3/fshift/amp-;#B color 11;#P inlet 811 333 15 0;#P window linecount 0;#P message 436 251 46 196617 legato 1;#P newex 436 229 48 196617 loadbang;#N comlet cf;#P inlet 125 269 15 0;#N comlet amp;#P inlet 358 278 15 0;#P newex 31 275 67 196617 prepend freq;#P message 113 247 31 196617 \$1 5;#P flonum 113 214 42 9 0 0 0 3 0 0 0 221 221 221 222 222 222 0 0 0;#P newex 113 189 40 196617 line 0.;#P flonum 278 92 42 9 0 0 0 3 0 0 0 221 221 221 222 222 222 0 0 0;#P flonum 295 136 42 9 0 0 0 3 0 0 0 221 221 221 222 222 222 0 0 0;#P window setfont Times 9.;#P newex 278 115 27 1310729 t b f;#P window setfont "Sans Serif" 9.;#P flonum 185 262 42 9 0 0 0 3 0 0 0 221 221 221 222 222 222 0 0 0;#P window setfont Times 9.;#P newex 185 215 27 1310729 t b f;#P window setfont "Sans Serif" 9.;#P flonum 185 196 42 9 0 0 0 3 0 0 0 221 221 221 222 222 222 0 0 0;#P window setfont Times 9.;#P newex 185 154 33 1310729 pow 2;#P newex 185 175 66 1310729 zmap 0 1 0 4;#P newex 185 133 33 1310729 / 127.;#P newex 185 241 27 1310729 * 0.;#P window setfont "Sans Serif" 9.;#P flonum 185 114 42 9 0. 127. 3 3 0 0 0 221 221 221 222 222 222 0 0 0;#P window setfont Times 9.;#P newex 185 88 68 1310729 unpack 0. 0;#P newex 185 66 27 1310729 t l 5;#P window setfont "Sans Serif" 9.;#P newex 185 281 51 196617 pack 0. 5;#P newex 185 303 61 196617 prepend bw;#P flonum 113 142 42 9 0 0 0 3 0 0 0 221 221 221 222 222 222 0 0 0;#P window setfont Times 9.;#P newex 113 116 54 1310729 unpack 0. 0;#P newex 113 95 27 1310729 t l 0;#P window setfont "Sans Serif" 9.;#P newex 113 167 54 196617 pack 0. 0;#N vpatcher 187 44 398 281;#P outlet 88 170 15 0;#P outlet 40 170 15 0;#P window setfont "Sans Serif" 9.;#P window linecount 1;#P newex 86 84 30 196617 !- 1.;#P newex 86 106 29 196617 sqrt;#P window linecount 0;#P newex 129 85 29 196617 sqrt;#P inlet 109 49 15 0;#P window linecount 1;#P newex 88 147 27 196617 *~;#P window linecount 0;#P newex 40 146 27 196617 *~;#P inlet 40 49 15 0;#P connect 0 0 1 0;#P connect 1 0 7 0;#P connect 5 0 1 1;#P connect 3 0 6 0;#P connect 6 0 5 0;#P connect 0 0 2 0;#P connect 2 0 8 0;#P connect 4 0 2 1;#P connect 3 0 4 0;#P pop;#P newobj 31 475 33 196617 p pan;#B color 6;#P window setfont Times 9.;#P newex 399 319 163 1310729 adsr~;#P newex 298 318 58 1310729 prepend amp;#P window setfont "Sans Serif" 9.;#P newex 298 276 54 196617 pack 0. 5;#P flonum 298 257 42 9 0. 1. 3 3 0 0 0 221 221 221 222 222 222 0 0 0;#P window setfont Times 9.;#P newex 298 236 54 1310729 unpack 0. 0;#P newex 298 215 27 1310729 t l 5;#P newex 31 445 27 1310729 *~;#N comlet pan;#P inlet 857 459 15 0;#P inlet 31 25 15 0;#N comlet vel;#P inlet 399 250 15 0;#N comlet att;#P inlet 437 299 15 0;#N comlet dec;#P inlet 475 299 15 0;#N comlet sus;#P inlet 513 299 15 0;#N comlet rel;#P inlet 551 299 15 0;#P outlet 54 497 15 0;#P outlet 31 497 15 0;#N comlet mute;#P outlet 418 350 15 0;#P window setfont "Sans Serif" 9.;#P newex 31 364 30 196617 paf~;#B color 5;#P newex 113 333 57 196617 prepend cf;#P connect 10 0 69 0;#P connect 69 0 42 0;#P connect 42 0 1 0;#P connect 0 0 1 0;#P connect 24 0 1 0;#P connect 17 0 1 0;#P connect 68 0 1 0;#P connect 1 0 61 0;#P connect 61 0 12 0;#P connect 12 0 19 0;#P connect 19 0 3 0;#P fasten 18 0 12 1 404 436 53 436;#P connect 11 0 19 1;#P connect 19 1 4 0;#P connect 63 0 21 0;#P connect 21 0 22 0;#P connect 22 0 23 0;#P connect 23 0 20 0;#P connect 20 0 39 0;#P connect 39 0 40 0;#P connect 40 0 41 0;#P connect 70 0 0 0;#P connect 41 0 0 0;#P connect 44 0 70 0;#P connect 21 1 20 1;#P connect 22 1 20 1;#P connect 64 0 26 0;#P connect 26 0 27 0;#P connect 36 0 28 0;#P connect 27 0 28 0;#P connect 28 0 30 0;#P connect 30 0 32 0;#P connect 32 0 31 0;#P connect 31 0 33 0;#P connect 33 0 34 0;#P connect 67 0 29 0;#P connect 40 0 29 0;#P connect 34 0 29 0;#P connect 29 0 35 0;#P connect 35 0 25 0;#P connect 25 0 24 0;#P connect 34 1 29 1;#P connect 70 0 67 0;#P connect 67 1 25 1;#P connect 26 1 25 1;#P connect 27 1 25 1;#P connect 37 0 31 4;#P connect 65 0 38 0;#P connect 38 0 36 0;#P connect 36 1 37 0;#P connect 62 0 13 0;#P connect 13 0 14 0;#P connect 14 0 15 0;#P connect 15 0 16 0;#P connect 16 0 17 0;#P connect 66 0 17 0;#P connect 13 1 16 1;#P connect 14 1 16 1;#P connect 43 0 66 0;#P connect 9 0 71 0;#P connect 71 0 18 0;#P connect 46 0 18 0;#P connect 60 0 61 1;#P connect 18 0 2 0;#P connect 45 0 46 0;#P connect 8 0 18 1;#P connect 7 0 18 2;#P connect 6 0 18 3;#P connect 5 0 18 4;#P connect 55 0 56 0;#P connect 56 0 57 0;#P connect 57 0 58 0;#P connect 58 0 59 0;#P connect 54 0 60 0;#P connect 59 0 60 0;#P connect 56 1 59 1;#P connect 57 1 59 1;#P connect 48 0 49 0;#P connect 49 0 50 0;#P connect 50 0 51 0;#P connect 51 0 52 0;#P connect 52 0 53 0;#P connect 47 0 53 0;#P connect 53 0 61 2;#P connect 50 1 52 1;#P connect 49 1 52 1;#P pop;#P newobj 710 564 154 196617 p F3(paf);#B color 6;#P flonum 850 540 35 9 0 0 0 3 0 0 0 153 153 255 222 222 222 0 0 0;#P objectname pan3;#P flonum 738 396 35 9 0 0 0 3 0 0 0 153 153 255 222 222 222 0 0 0;#P objectname amp3;#P flonum 752 414 35 9 0 0 0 3 0 0 0 153 153 255 222 222 222 0 0 0;#P objectname vel3;#P flonum 808 486 35 9 0. 0 1 3 0 0 0 153 153 255 222 222 222 0 0 0;#P objectname rel3;#P flonum 794 468 35 9 0. 0 1 3 0 0 0 153 153 255 222 222 222 0 0 0;#P objectname sus3;#P flonum 780 450 35 9 0. 0 1 3 0 0 0 153 153 255 222 222 222 0 0 0;#P objectname dec3;#P flonum 766 432 35 9 0. 0 1 3 0 0 0 153 153 255 222 222 222 0 0 0;#P objectname att3;#P comment 772 396 34 196617 amp3;#P flonum 456 378 49 9 0 0 0 3 0 0 0 153 153 255 222 222 222 0 0 0;#P objectname cf2;#P comment 506 378 23 196617 cf2;#P comment 617 540 31 196617 pan2;#P comment 575 486 29 196617 rel2;#P comment 561 468 31 196617 sus2;#P comment 547 450 31 196617 dec2;#P comment 533 432 29 196617 att2;#P comment 519 414 30 196617 vel2;#N vpatcher 470 130 1472 679;#P window setfont Times 9.;#P window linecount 1;#P newex 401 270 49 1310729 pipe 0. 20;#P window setfont "Sans Serif" 9.;#P flonum 31 217 42 9 0 0 0 3 0 0 0 221 221 221 222 222 222 0 0 0;#P flonum 127 286 42 9 0 0 0 3 0 0 0 221 221 221 222 222 222 0 0 0;#P message 44 313 33 196617 debug;#P window setfont Times 9.;#P newex 215 240 27 1310729 t f 0;#P window setfont "Sans Serif" 9.;#P newex 278 72 141 196617 r $1/f2/bw/ctlrange-;#B color 11;#P newex 185 46 116 196617 r $1/f2/bw/ctl-;#B color 11;#P newex 113 24 94 196617 r $1/f2/cf-;#B color 11;#P newex 298 190 103 196617 r $1/f2/amp1-;#B color 11;#N vpatcher 677 76 878 274;#P inlet 104 30 15 0;#P window setfont Times 9.;#P newex 31 120 46 1310729 +~;#P newex 67 90 76 1310729 *~;#P newex 67 62 47 1310729 freqshift~;#P inlet 133 31 15 0;#P inlet 31 31 15 0;#P outlet 31 142 15 0;#P connect 1 0 5 0;#P connect 5 0 0 0;#P connect 1 0 3 0;#P connect 3 0 4 0;#P connect 4 0 5 1;#P connect 6 0 3 1;#P connect 2 0 4 1;#P pop;#P newobj 31 399 770 196617 p fshift-vib;#B color 6;#P window setfont Times 9.;#P newex 596 354 30 1310729 line~;#P window setfont "Sans Serif" 9.;#P newex 596 310 54 196617 pack 0. 5;#P flonum 596 291 42 9 0. 1. 3 3 0 0 0 221 221 221 222 222 222 0 0 0;#P window setfont Times 9.;#P newex 596 270 54 1310729 unpack 0. 0;#P newex 596 249 27 1310729 t l 5;#P window setfont "Sans Serif" 9.;#P newex 596 227 177 196617 r $1/f2/fshift/freq-;#B color 11;#P inlet 616 333 15 0;#P window setfont Times 9.;#P newex 791 354 30 1310729 line~;#P window setfont "Sans Serif" 9.;#P newex 791 310 54 196617 pack 0. 5;#P flonum 791 291 42 9 0. 1. 3 3 0 0 0 221 221 221 222 222 222 0 0 0;#P window setfont Times 9.;#P newex 791 270 54 1310729 unpack 0. 0;#P newex 791 249 27 1310729 t l 5;#P window setfont "Sans Serif" 9.;#P newex 791 227 176 196617 r $1/f2/fshift/amp-;#B color 11;#P inlet 811 333 15 0;#P window linecount 0;#P message 438 248 46 196617 legato 1;#P newex 438 226 48 196617 loadbang;#N comlet cf;#P inlet 127 267 15 0;#N comlet amp;#P inlet 358 276 15 0;#P newex 31 275 67 196617 prepend freq;#P message 113 247 31 196617 \$1 5;#P flonum 113 214 42 9 0 0 0 3 0 0 0 221 221 221 222 222 222 0 0 0;#P newex 113 189 40 196617 line 0.;#P flonum 278 92 42 9 0 0 0 3 0 0 0 221 221 221 222 222 222 0 0 0;#P flonum 295 136 42 9 0 0 0 3 0 0 0 221 221 221 222 222 222 0 0 0;#P window setfont Times 9.;#P newex 278 115 27 1310729 t b f;#P window setfont "Sans Serif" 9.;#P flonum 185 262 42 9 0 0 0 3 0 0 0 221 221 221 222 222 222 0 0 0;#P window setfont Times 9.;#P newex 185 215 27 1310729 t b f;#P window setfont "Sans Serif" 9.;#P flonum 185 196 42 9 0 0 0 3 0 0 0 221 221 221 222 222 222 0 0 0;#P window setfont Times 9.;#P newex 185 154 33 1310729 pow 2;#P newex 185 175 66 1310729 zmap 0 1 0 4;#P newex 185 133 33 1310729 / 127.;#P newex 185 241 27 1310729 * 0.;#P window setfont "Sans Serif" 9.;#P flonum 185 114 42 9 0. 127. 3 3 0 0 0 221 221 221 222 222 222 0 0 0;#P window setfont Times 9.;#P newex 185 88 68 1310729 unpack 0. 0;#P newex 185 66 27 1310729 t l 5;#P window setfont "Sans Serif" 9.;#P newex 185 281 51 196617 pack 0. 5;#P newex 185 303 61 196617 prepend bw;#P flonum 113 142 42 9 0 0 0 3 0 0 0 221 221 221 222 222 222 0 0 0;#P window setfont Times 9.;#P newex 113 116 54 1310729 unpack 0. 0;#P newex 113 95 27 1310729 t l 0;#P window setfont "Sans Serif" 9.;#P newex 113 167 54 196617 pack 0. 0;#N vpatcher 187 44 398 281;#P outlet 88 170 15 0;#P outlet 40 170 15 0;#P window setfont "Sans Serif" 9.;#P window linecount 1;#P newex 86 84 30 196617 !- 1.;#P newex 86 106 29 196617 sqrt;#P window linecount 0;#P newex 129 85 29 196617 sqrt;#P inlet 109 49 15 0;#P window linecount 1;#P newex 88 147 27 196617 *~;#P window linecount 0;#P newex 40 146 27 196617 *~;#P inlet 40 49 15 0;#P connect 0 0 1 0;#P connect 1 0 7 0;#P connect 5 0 1 1;#P connect 3 0 6 0;#P connect 6 0 5 0;#P connect 0 0 2 0;#P connect 2 0 8 0;#P connect 4 0 2 1;#P connect 3 0 4 0;#P pop;#P newobj 31 475 33 196617 p pan;#B color 6;#P window setfont Times 9.;#P newex 401 316 163 1310729 adsr~;#P newex 298 318 58 1310729 prepend amp;#P window setfont "Sans Serif" 9.;#P newex 298 276 54 196617 pack 0. 5;#P flonum 298 257 42 9 0. 1. 3 3 0 0 0 221 221 221 222 222 222 0 0 0;#P window setfont Times 9.;#P newex 298 236 54 1310729 unpack 0. 0;#P newex 298 215 27 1310729 t l 5;#P newex 31 445 27 1310729 *~;#N comlet pan;#P inlet 857 459 15 0;#P inlet 31 25 15 0;#N comlet vel;#P inlet 401 243 15 0;#N comlet att;#P inlet 439 296 15 0;#N comlet dec;#P inlet 477 296 15 0;#N comlet sus;#P inlet 515 296 15 0;#N comlet rel;#P inlet 553 296 15 0;#P outlet 54 497 15 0;#P outlet 31 497 15 0;#N comlet mute;#P outlet 420 347 15 0;#P window setfont "Sans Serif" 9.;#P newex 31 364 30 196617 paf~;#B color 5;#P newex 113 326 57 196617 prepend cf;#P connect 10 0 69 0;#P connect 69 0 42 0;#P connect 17 0 1 0;#P connect 24 0 1 0;#P connect 0 0 1 0;#P connect 42 0 1 0;#P connect 67 0 1 0;#P connect 1 0 61 0;#P connect 61 0 12 0;#P connect 12 0 19 0;#P connect 19 0 3 0;#P fasten 18 0 12 1 406 436 53 436;#P connect 11 0 19 1;#P connect 19 1 4 0;#P connect 63 0 21 0;#P connect 21 0 22 0;#P connect 22 0 23 0;#P connect 23 0 20 0;#P connect 20 0 39 0;#P connect 39 0 40 0;#P connect 40 0 41 0;#P connect 68 0 0 0;#P connect 41 0 0 0;#P connect 44 0 68 0;#P connect 22 1 20 1;#P connect 21 1 20 1;#P connect 64 0 26 0;#P connect 26 0 27 0;#P connect 27 0 28 0;#P connect 36 0 28 0;#P connect 28 0 30 0;#P connect 30 0 32 0;#P connect 32 0 31 0;#P connect 31 0 33 0;#P connect 33 0 34 0;#P connect 66 0 29 0;#P connect 34 0 29 0;#P connect 40 0 29 0;#P connect 29 0 35 0;#P connect 35 0 25 0;#P connect 25 0 24 0;#P connect 34 1 29 1;#P connect 68 0 66 0;#P connect 66 1 25 1;#P connect 27 1 25 1;#P connect 26 1 25 1;#P connect 37 0 31 4;#P connect 65 0 38 0;#P connect 38 0 36 0;#P connect 36 1 37 0;#P connect 62 0 13 0;#P connect 13 0 14 0;#P connect 14 0 15 0;#P connect 15 0 16 0;#P connect 43 0 17 0;#P connect 16 0 17 0;#P connect 14 1 16 1;#P connect 13 1 16 1;#P connect 9 0 70 0;#P connect 70 0 18 0;#P connect 46 0 18 0;#P connect 60 0 61 1;#P connect 18 0 2 0;#P connect 45 0 46 0;#P connect 8 0 18 1;#P connect 7 0 18 2;#P connect 6 0 18 3;#P connect 5 0 18 4;#P connect 55 0 56 0;#P connect 56 0 57 0;#P connect 57 0 58 0;#P connect 58 0 59 0;#P connect 59 0 60 0;#P connect 54 0 60 0;#P connect 57 1 59 1;#P connect 56 1 59 1;#P connect 48 0 49 0;#P connect 49 0 50 0;#P connect 50 0 51 0;#P connect 51 0 52 0;#P connect 47 0 53 0;#P connect 52 0 53 0;#P connect 53 0 61 2;#P connect 49 1 52 1;#P connect 50 1 52 1;#P pop;#P newobj 442 564 154 196617 p F2(paf);#B color 6;#P flonum 582 540 35 9 0 0 0 3 0 0 0 153 153 255 222 222 222 0 0 0;#P objectname pan2;#P flonum 470 396 35 9 0 0 0 3 0 0 0 153 153 255 222 222 222 0 0 0;#P objectname amp2;#P flonum 484 414 35 9 0 0 0 3 0 0 0 153 153 255 222 222 222 0 0 0;#P objectname vel2;#P flonum 540 486 35 9 0. 0 1 3 0 0 0 153 153 255 222 222 222 0 0 0;#P objectname rel2;#P flonum 526 468 35 9 0. 0 1 3 0 0 0 153 153 255 222 222 222 0 0 0;#P objectname sus2;#P flonum 512 450 35 9 0. 0 1 3 0 0 0 153 153 255 222 222 222 0 0 0;#P objectname dec2;#P flonum 498 432 35 9 0. 0 1 3 0 0 0 153 153 255 222 222 222 0 0 0;#P objectname att2;#P comment 504 396 34 196617 amp2;#P flonum 188 378 49 9 0 0 0 3 0 0 0 153 153 255 222 222 222 0 0 0;#P objectname cf1;#P comment 238 378 23 196617 cf1;#P comment 349 540 31 196617 pan1;#P comment 307 486 29 196617 rel1;#P comment 293 468 31 196617 sus1;#P comment 279 450 31 196617 dec1;#P comment 265 432 29 196617 att1;#P comment 251 414 30 196617 vel1;#N vpatcher 23 112 1025 661;#P window setfont "Sans Serif" 9.;#P flonum 31 206 42 9 0 0 0 3 0 0 0 221 221 221 222 222 222 0 0 0;#P window setfont Times 9.;#P window linecount 1;#P newex 381 273 49 1310729 pipe 0. 20;#P window setfont "Sans Serif" 9.;#P flonum 125 289 42 9 0 0 0 3 0 0 0 221 221 221 222 222 222 0 0 0;#P message 31 246 31 196617 \$1 0;#P message 44 313 33 196617 debug;#P window setfont Times 9.;#P newex 215 241 27 1310729 t f 0;#P window setfont "Sans Serif" 9.;#P newex 278 72 141 196617 r $1/f1/bw/ctlrange-;#B color 11;#P newex 185 46 116 196617 r $1/f1/bw/ctl-;#B color 11;#P newex 113 24 94 196617 r $1/f1/cf-;#B color 11;#P newex 272 189 103 196617 r $1/f1/amp1-;#B color 11;#N vpatcher 677 76 878 274;#P inlet 104 30 15 0;#P window setfont Times 9.;#P newex 31 120 46 1310729 +~;#P newex 67 90 76 1310729 *~;#P newex 67 62 47 1310729 freqshift~;#P inlet 133 31 15 0;#P inlet 31 31 15 0;#P outlet 31 142 15 0;#P connect 1 0 5 0;#P connect 5 0 0 0;#P connect 1 0 3 0;#P connect 3 0 4 0;#P connect 4 0 5 1;#P connect 6 0 3 1;#P connect 2 0 4 1;#P pop;#P newobj 31 399 770 196617 p fshift-vib;#B color 6;#P window setfont Times 9.;#P newex 596 354 30 1310729 line~;#P window setfont "Sans Serif" 9.;#P newex 596 310 54 196617 pack 0. 5;#P flonum 596 291 42 9 0. 1. 3 3 0 0 0 221 221 221 222 222 222 0 0 0;#P window setfont Times 9.;#P newex 596 270 54 1310729 unpack 0. 0;#P newex 596 249 27 1310729 t l 5;#P window setfont "Sans Serif" 9.;#P newex 596 227 177 196617 r $1/f1/fshift/freq-;#B color 11;#P inlet 616 333 15 0;#P window setfont Times 9.;#P newex 791 354 30 1310729 line~;#P window setfont "Sans Serif" 9.;#P newex 791 310 54 196617 pack 0. 5;#P flonum 791 291 42 9 0. 1. 3 3 0 0 0 221 221 221 222 222 222 0 0 0;#P window setfont Times 9.;#P newex 791 270 54 1310729 unpack 0. 0;#P newex 791 249 27 1310729 t l 5;#P window setfont "Sans Serif" 9.;#P newex 791 227 176 196617 r $1/f1/fshift/amp-;#B color 11;#P inlet 811 333 15 0;#P window linecount 0;#P message 418 249 46 196617 legato 1;#P newex 418 227 48 196617 loadbang;#N comlet cf;#P inlet 125 270 15 0;#N comlet amp;#P inlet 332 276 15 0;#P newex 31 275 67 196617 prepend freq;#P message 113 247 31 196617 \$1 5;#P flonum 113 214 42 9 0 0 0 3 0 0 0 221 221 221 222 222 222 0 0 0;#P newex 113 189 40 196617 line 0.;#P flonum 278 92 42 9 0 0 0 3 0 0 0 221 221 221 222 222 222 0 0 0;#P flonum 295 136 42 9 0 0 0 3 0 0 0 221 221 221 222 222 222 0 0 0;#P window setfont Times 9.;#P newex 278 115 27 1310729 t b f;#P window setfont "Sans Serif" 9.;#P flonum 185 262 42 9 0 0 0 3 0 0 0 221 221 221 222 222 222 0 0 0;#P window setfont Times 9.;#P newex 185 215 27 1310729 t b f;#P window setfont "Sans Serif" 9.;#P flonum 185 196 42 9 0 0 0 3 0 0 0 221 221 221 222 222 222 0 0 0;#P window setfont Times 9.;#P newex 185 154 33 1310729 pow 2;#P newex 185 175 66 1310729 zmap 0 1 0 4;#P newex 185 133 33 1310729 / 127.;#P newex 185 241 27 1310729 * 0.;#P window setfont "Sans Serif" 9.;#P flonum 185 114 42 9 0. 127. 3 3 0 0 0 221 221 221 222 222 222 0 0 0;#P window setfont Times 9.;#P newex 185 88 68 1310729 unpack 0. 0;#P newex 185 66 27 1310729 t l 5;#P window setfont "Sans Serif" 9.;#P newex 185 281 51 196617 pack 0. 5;#P newex 185 303 61 196617 prepend bw;#P flonum 113 142 42 9 0 0 0 3 0 0 0 221 221 221 222 222 222 0 0 0;#P window setfont Times 9.;#P newex 113 116 54 1310729 unpack 0. 0;#P newex 113 95 27 1310729 t l 0;#P window setfont "Sans Serif" 9.;#P newex 113 167 54 196617 pack 0. 0;#N vpatcher 187 44 398 281;#P outlet 88 170 15 0;#P outlet 40 170 15 0;#P window setfont "Sans Serif" 9.;#P window linecount 1;#P newex 86 84 30 196617 !- 1.;#P newex 86 106 29 196617 sqrt;#P window linecount 0;#P newex 129 85 29 196617 sqrt;#P inlet 109 49 15 0;#P window linecount 1;#P newex 88 147 27 196617 *~;#P window linecount 0;#P newex 40 146 27 196617 *~;#P inlet 40 49 15 0;#P connect 0 0 1 0;#P connect 1 0 7 0;#P connect 5 0 1 1;#P connect 3 0 6 0;#P connect 6 0 5 0;#P connect 0 0 2 0;#P connect 2 0 8 0;#P connect 4 0 2 1;#P connect 3 0 4 0;#P pop;#P newobj 31 475 33 196617 p pan;#B color 6;#P window setfont Times 9.;#P newex 381 317 163 1310729 adsr~;#P newex 272 317 58 1310729 prepend amp;#P window setfont "Sans Serif" 9.;#P newex 272 275 54 196617 pack 0. 5;#P flonum 272 256 42 9 0. 1. 3 3 0 0 0 221 221 221 222 222 222 0 0 0;#P window setfont Times 9.;#P newex 272 235 54 1310729 unpack 0. 0;#P newex 272 214 27 1310729 t l 5;#P newex 31 445 27 1310729 *~;#N comlet pan;#P inlet 857 459 15 0;#P inlet 31 25 15 0;#N comlet vel;#P inlet 381 245 15 0;#N comlet att;#P inlet 419 297 15 0;#N comlet dec;#P inlet 457 297 15 0;#N comlet sus;#P inlet 495 297 15 0;#N comlet rel;#P inlet 533 297 15 0;#P outlet 54 497 15 0;#P outlet 31 497 15 0;#N comlet mute;#P outlet 400 348 15 0;#P window setfont "Sans Serif" 9.;#P newex 31 364 30 196617 paf~;#B color 5;#P newex 113 332 57 196617 prepend cf;#P connect 10 0 71 0;#P connect 71 0 68 0;#P connect 68 0 42 0;#P connect 42 0 1 0;#P connect 0 0 1 0;#P connect 24 0 1 0;#P connect 17 0 1 0;#P connect 67 0 1 0;#P connect 1 0 61 0;#P connect 61 0 12 0;#P connect 12 0 19 0;#P connect 19 0 3 0;#P fasten 18 0 12 1 386 436 53 436;#P connect 11 0 19 1;#P connect 19 1 4 0;#P connect 63 0 21 0;#P connect 21 0 22 0;#P connect 22 0 23 0;#P connect 23 0 20 0;#P connect 20 0 39 0;#P connect 39 0 40 0;#P connect 40 0 41 0;#P connect 69 0 0 0;#P connect 41 0 0 0;#P connect 44 0 69 0;#P connect 21 1 20 1;#P connect 22 1 20 1;#P connect 64 0 26 0;#P connect 26 0 27 0;#P connect 36 0 28 0;#P connect 27 0 28 0;#P connect 28 0 30 0;#P connect 30 0 32 0;#P connect 32 0 31 0;#P connect 31 0 33 0;#P connect 33 0 34 0;#P connect 66 0 29 0;#P connect 40 0 29 0;#P connect 34 0 29 0;#P connect 29 0 35 0;#P connect 35 0 25 0;#P connect 25 0 24 0;#P connect 34 1 29 1;#P connect 69 0 66 0;#P connect 66 1 25 1;#P connect 26 1 25 1;#P connect 27 1 25 1;#P connect 37 0 31 4;#P connect 62 0 13 0;#P connect 13 0 14 0;#P connect 14 0 15 0;#P connect 15 0 16 0;#P connect 43 0 17 0;#P connect 16 0 17 0;#P connect 65 0 38 0;#P connect 38 0 36 0;#P connect 36 1 37 0;#P connect 13 1 16 1;#P connect 14 1 16 1;#P connect 9 0 70 0;#P connect 70 0 18 0;#P connect 46 0 18 0;#P connect 18 0 2 0;#P connect 60 0 61 1;#P connect 45 0 46 0;#P connect 8 0 18 1;#P connect 7 0 18 2;#P connect 6 0 18 3;#P connect 5 0 18 4;#P connect 55 0 56 0;#P connect 56 0 57 0;#P connect 57 0 58 0;#P connect 58 0 59 0;#P connect 54 0 60 0;#P connect 59 0 60 0;#P connect 56 1 59 1;#P connect 57 1 59 1;#P connect 48 0 49 0;#P connect 49 0 50 0;#P connect 50 0 51 0;#P connect 51 0 52 0;#P connect 52 0 53 0;#P connect 47 0 53 0;#P connect 53 0 61 2;#P connect 50 1 52 1;#P connect 49 1 52 1;#P pop;#P newobj 174 564 154 196617 p F1(paf);#B color 6;#P flonum 314 540 35 9 0 0 0 3 0 0 0 153 153 255 222 222 222 0 0 0;#P objectname pan1;#P flonum 202 396 35 9 0 0 0 3 0 0 0 153 153 255 222 222 222 0 0 0;#P objectname amp1;#P flonum 216 414 35 9 0 0 0 3 0 0 0 153 153 255 222 222 222 0 0 0;#P objectname vel1;#P flonum 272 486 35 9 0. 0 1 3 0 0 0 153 153 255 222 222 222 0 0 0;#P objectname rel1;#P flonum 258 468 35 9 0. 0 1 3 0 0 0 153 153 255 222 222 222 0 0 0;#P objectname sus1;#P flonum 244 450 35 9 0. 0 1 3 0 0 0 153 153 255 222 222 222 0 0 0;#P objectname dec1;#P flonum 230 432 35 9 0. 0 1 3 0 0 0 153 153 255 222 222 222 0 0 0;#P objectname att1;#P comment 236 396 34 196617 amp1;#P comment 162 540 30 196617 pan0;#P comment 123 486 30 196617 rel0;#P comment 110 468 30 196617 sus0;#P comment 97 450 30 196617 dec0;#P comment 84 432 30 196617 att0;#P comment 71 414 30 196617 vel0;#N vpatcher 116 157 911 546;#P window setfont "Sans Serif" 9.;#N vpatcher 677 76 878 274;#P inlet 104 30 15 0;#P window setfont Times 9.;#P newex 31 120 46 1310729 +~;#P newex 67 90 76 1310729 *~;#P newex 67 62 47 1310729 freqshift~;#P inlet 133 31 15 0;#P inlet 31 31 15 0;#P outlet 31 142 15 0;#P connect 1 0 5 0;#P connect 5 0 0 0;#P connect 1 0 3 0;#P connect 3 0 4 0;#P connect 4 0 5 1;#P connect 6 0 3 1;#P connect 2 0 4 1;#P pop;#P newobj 50 226 542 196617 p fshift-vib;#B color 6;#P window setfont Times 9.;#P window linecount 1;#P newex 387 181 30 1310729 line~;#P window setfont "Sans Serif" 9.;#P newex 387 137 54 196617 pack 0. 5;#P flonum 387 118 42 9 0. 1. 3 3 0 0 0 221 221 221 222 222 222 0 0 0;#P window setfont Times 9.;#P newex 387 97 54 1310729 unpack 0. 0;#P newex 387 76 27 1310729 t l 5;#P window setfont "Sans Serif" 9.;#P newex 387 54 177 196617 r $1/f0/fshift/freq-;#B color 11;#P inlet 407 160 15 0;#P window setfont Times 9.;#P newex 582 181 30 1310729 line~;#P window setfont "Sans Serif" 9.;#P newex 582 137 54 196617 pack 0. 5;#P flonum 582 118 42 9 0. 1. 3 3 0 0 0 221 221 221 222 222 222 0 0 0;#P window setfont Times 9.;#P newex 582 97 54 1310729 unpack 0. 0;#P newex 582 76 27 1310729 t l 5;#P window setfont "Sans Serif" 9.;#P newex 582 54 176 196617 r $1/f0/fshift/amp-;#B color 11;#P inlet 602 160 15 0;#P window linecount 0;#N vpatcher 187 44 398 281;#P outlet 88 170 15 0;#P outlet 40 170 15 0;#P window setfont "Sans Serif" 9.;#P window linecount 1;#P newex 86 84 30 196617 !- 1.;#P newex 86 106 29 196617 sqrt;#P window linecount 0;#P newex 129 85 29 196617 sqrt;#P inlet 109 49 15 0;#P window linecount 1;#P newex 88 147 27 196617 *~;#P window linecount 0;#P newex 40 146 27 196617 *~;#P inlet 40 49 15 0;#P connect 0 0 1 0;#P connect 1 0 7 0;#P connect 5 0 1 1;#P connect 3 0 6 0;#P connect 6 0 5 0;#P connect 0 0 2 0;#P connect 2 0 8 0;#P connect 4 0 2 1;#P connect 3 0 4 0;#P pop;#P newobj 50 295 33 196617 p pan;#B color 6;#P window setfont Times 9.;#P newex 189 133 163 1310729 adsr~;#P newex 99 177 30 1310729 line~;#P newex 50 202 27 1310729 *~;#P window setfont "Sans Serif" 9.;#P newex 99 133 54 196617 pack 0. 5;#P flonum 99 114 42 9 0. 1. 3 3 0 0 0 221 221 221 222 222 222 0 0 0;#P window setfont Times 9.;#P newex 99 93 54 1310729 unpack 0. 0;#P newex 99 72 27 1310729 t l 5;#P window setfont "Sans Serif" 9.;#P newex 99 50 145 196617 r $1/f0/amp-;#B color 11;#P window setfont Times 9.;#P newex 50 271 27 1310729 *~;#P window setfont "Sans Serif" 9.;#P newex 50 158 40 196617 cycle~;#B color 5;#P inlet 699 279 15 0;#P inlet 119 156 15 0;#P inlet 50 138 15 0;#P inlet 189 113 15 0;#P inlet 227 113 15 0;#P inlet 265 113 15 0;#P inlet 303 113 15 0;#P inlet 341 113 15 0;#P outlet 73 317 15 0;#P outlet 50 317 15 0;#P outlet 209 171 15 0;#P connect 8 0 11 0;#P connect 11 0 18 0;#P connect 18 0 36 0;#P connect 36 0 12 0;#P connect 12 0 21 0;#P connect 21 0 1 0;#P connect 19 0 18 1;#P fasten 20 0 12 1 194 258 72 258;#P connect 10 0 21 1;#P connect 21 1 2 0;#P connect 13 0 14 0;#P connect 14 0 15 0;#P connect 15 0 16 0;#P connect 16 0 17 0;#P connect 17 0 19 0;#P connect 9 0 19 0;#P connect 15 1 17 1;#P connect 14 1 17 1;#P connect 7 0 20 0;#P connect 20 0 0 0;#P connect 6 0 20 1;#P connect 5 0 20 2;#P connect 4 0 20 3;#P connect 35 0 36 1;#P connect 3 0 20 4;#P connect 30 0 31 0;#P connect 31 0 32 0;#P connect 32 0 33 0;#P connect 33 0 34 0;#P connect 34 0 35 0;#P connect 29 0 35 0;#P connect 32 1 34 1;#P connect 31 1 34 1;#P connect 23 0 24 0;#P connect 24 0 25 0;#P connect 25 0 26 0;#P connect 26 0 27 0;#P connect 22 0 28 0;#P connect 27 0 28 0;#P connect 28 0 36 2;#P connect 24 1 27 1;#P connect 25 1 27 1;#P pop;#P newobj 10 564 134 196617 p F0(cycle);#B color 6;#P newex 377 648 47 196617 *~ 0.25;#N out~ 2;#P newobj 377 678 39 196617 out~ 2;#P flonum 127 540 35 9 0 0 0 3 0 0 0 153 153 255 222 222 222 0 0 0;#P objectname pan0;#P flonum 23 396 35 9 0 0 0 3 0 0 0 153 153 255 222 222 222 0 0 0;#P objectname amp0;#P newex 235 291 54 196617 pvar vel3;#P newex 195 312 54 196617 pvar vel2;#P newex 155 291 54 196617 pvar vel1;#P newex 115 312 54 196617 pvar vel0;#P newex 1018 240 55 196617 pvar pan3;#P newex 1018 260 55 196617 pvar pan2;#P newex 1018 280 55 196617 pvar pan1;#P newex 1018 300 55 196617 pvar pan0;#P newex 732 300 53 196617 pvar rel3;#P newex 732 280 55 196617 pvar sus3;#P newex 732 260 55 196617 pvar dec3;#P newex 732 240 53 196617 pvar att3;#P newex 662 300 53 196617 pvar rel2;#P newex 662 280 55 196617 pvar sus2;#P newex 662 260 55 196617 pvar dec2;#P newex 662 240 53 196617 pvar att2;#P newex 592 300 53 196617 pvar rel1;#P newex 592 280 55 196617 pvar sus1;#P newex 592 260 55 196617 pvar dec1;#P newex 592 240 53 196617 pvar att1;#P window setfont Times 9.;#P flonum 177 125 35 9 0. 0 1 20 0 0 0 221 221 221 222 222 222 0 0 0;#P flonum 132 252 35 9 0. 0 1 20 0 0 0 221 221 221 222 222 222 0 0 0;#P flonum 172 252 35 9 0. 0 1 20 0 0 0 221 221 221 222 222 222 0 0 0;#P flonum 212 252 35 9 0. 0 1 20 0 0 0 221 221 221 222 222 222 0 0 0;#P flonum 252 252 35 9 0. 0 1 20 0 0 0 221 221 221 222 222 222 0 0 0;#P window setfont "Sans Serif" 9.;#P newex 235 270 27 196617 pow;#P window setfont Times 9.;#P newex 325 107 28 1310729 t b f;#P newex 273 145 27 1310729 * 0.;#P newex 243 145 27 1310729 * 0.;#P newex 177 146 63 1310729 * 0.;#P flonum 325 89 65 9 0. 0 1 20 0 0 0 221 221 221 222 222 222 0 0 0;#P window setfont "Sans Serif" 9.;#P newex 325 68 168 196617 r $1/velexponantfactor-;#B color 11;#P newex 177 68 140 196617 r $1/velexponant-;#B color 11;#P newex 454 240 58 196617 pvar amp3;#P newex 454 260 58 196617 pvar amp2;#P newex 454 280 58 196617 pvar amp1;#P newex 454 300 58 196617 pvar amp0;#P newex 392 251 49 196617 pvar cf3;#P newex 341 251 49 196617 pvar cf2;#P newex 290 251 49 196617 pvar cf1;#P newex 522 300 53 196617 pvar rel0;#P newex 522 280 55 196617 pvar sus0;#P newex 522 260 55 196617 pvar dec0;#P newex 522 240 53 196617 pvar att0;#P flonum 36 414 35 9 0 0 0 3 0 0 0 153 153 255 222 222 222 0 0 0;#P objectname vel0;#P flonum 88 486 35 9 0. 0 1 3 0 0 0 153 153 255 222 222 222 0 0 0;#P objectname rel0;#P flonum 75 468 35 9 0. 0 1 3 0 0 0 153 153 255 222 222 222 0 0 0;#P objectname sus0;#P flonum 62 450 35 9 0. 0 1 3 0 0 0 153 153 255 222 222 222 0 0 0;#P objectname dec0;#P flonum 49 432 35 9 0. 0 1 3 0 0 0 153 153 255 222 222 222 0 0 0;#P objectname att0;#P flonum 10 352 68 9 0 0 0 3 0 0 0 221 221 221 222 222 222 0 0 0;#P newex 10 332 29 196617 mtof;#P comment 72 49 574 196617 [-] [vel(=0)] [-] [-] [-] [-] [-] [-] [-] [-] [-] [-] [-] [-] [-] [-] [rel0] [-] [-] [-] [rel1] [-] [-] [-] [rel2] [-] [-] [-] [rel3];#P window linecount 2;#P comment 72 21 962 196617 [pitch midicents] [vel(>0)] [cf1] [cf2] [cf3] [amp0 (0.-1.)] [amp1 (0.-1.)] [amp2 (0.-1.)] [amp3 (0.-1.)] [att0] [dec0] [sus0 (0.-1.)] [rel0] [att1] [dec1] [sus1 (0.-1.)] [rel1] [att2] [dec2] [sus2 (0.-1.)] [rel2] [att3] [dec3] [sus3 (0.-1.)] [rel3] [fshiftfreq0] [fshiftfreq1] [fshiftfreq2] [fshiftfreq3] [fshiftamp0] [fshiftamp1] [fshiftamp2] [fshiftamp3] [pan0 (0.-1.)] [pan1 (0.-1.)] [pan2 (0.-1.)] [pan3 (0.-1.)];#P window setfont "Sans Serif" 18.;#P window linecount 1;#P comment 598 97 232 196626 paff for "fixed" cf version;#P window setfont "Sans Serif" 9.;#P comment 646 49 202 196617 (for release \, all ignored except vel and rel);#P newex 91 131 62 196617 pvar active;#B color 13;#P newex 91 111 48 196617 split 1 1;#P newex 91 91 27 196617 != 0;#P newex 52 170 778 196617 unpack 0. 0. 0. 0. 0. 0. 0. 0. 0. 0. 0. 0. 0. 0. 0. 0. 0. 0. 0. 0. 0. 0. 0. 0. 0.;#P newex 10 170 38 196617 gate 2;#P newex 55 111 27 196617 + 1;#P newex 55 91 31 196617 == 0;#P newex 55 68 44 196617 zl nth 2;#P button 930 449 15 0;#P newex 930 468 31 196617 t b 0;#P newex 930 429 192 196617 r $1/allnotesoff;#B color 11;#P button 902 377 15 0;#P newex 23 265 29 196617 t b f;#P newex 10 289 27 196617 + 0.;#P window setfont Times 9.;#P newex 23 243 71 1310729 r $1/bend;#B color 11;#P window setfont "Sans Serif" 9.;#P newex 10 218 41 196617 * 0.01;#P newex 195 270 27 196617 pow;#P newex 155 270 27 196617 pow;#P newex 318 648 47 196617 *~ 0.25;#P newex 10 195 1040 196617 unpack 0. 0. 0. 0. 0. 0. 0. 0. 0. 0. 0. 0. 0. 0. 0. 0. 0. 0. 0. 0. 0. 0. 0. 0. 0. 0. 0. 0. 0. 0. 0. 0. 0. 0. 0. 0. 0.;#P newex 115 270 27 196617 pow;#P newex 115 229 40 196617 / 127.;#P flonum 10 313 51 9 0 0 0 3 0 0 0 221 221 221 222 222 222 0 0 0;#P objectname pitch;#P number 1059 608 35 9 0 0 0 3 0 0 0 221 221 221 222 222 222 0 0 0;#P newex 1078 546 48 196617 loadbang;#N out 1;#P newobj 440 678 33 196617 out 1;#P newex 1059 471 60 196617 loadmess 0;#P message 1011 549 47 196617 mute \$1;#P newex 1011 526 31 196617 == 0;#P newex 1059 585 50 196617 thispoly~;#P newex 902 396 21 196617 t 0;#P newex 902 357 194 196617 r $1/allnotesrelease;#B color 11;#P newex 38 48 27 196617 t l l;#P toggle 1059 496 15 0;#P objectname active;#N in 1;#P newobj 38 28 25 196617 in 1;#N out~ 1;#P newobj 318 678 35 196617 out~ 1;#P comment 1074 497 38 196617 active;#P comment 57 396 34 196617 amp0;#P connect 32 0 33 0;#P connect 33 0 18 0;#P connect 18 0 22 0;#P connect 22 0 24 0;#P connect 25 0 24 0;#P connect 24 0 15 0;#P connect 15 0 42 0;#P connect 42 0 43 0;#P connect 43 0 97 0;#P connect 23 0 25 0;#P connect 93 0 97 1;#P connect 25 1 24 1;#P connect 7 0 48 0;#P connect 48 0 97 2;#P connect 3 0 5 0;#P connect 5 0 33 1;#P connect 44 0 97 3;#P connect 33 1 34 0;#P connect 5 1 30 0;#P connect 30 0 31 0;#P connect 31 0 32 0;#P connect 45 0 97 4;#P connect 34 1 159 0;#P connect 46 0 97 5;#P connect 28 1 47 0;#P connect 47 0 97 6;#P connect 30 0 35 0;#P connect 35 0 36 0;#P connect 36 0 37 0;#P connect 173 0 97 7;#P connect 175 0 97 8;#P connect 18 1 16 0;#P connect 16 0 17 0;#P connect 159 0 89 0;#P connect 159 1 89 0;#P connect 17 0 89 0;#P connect 94 0 97 9;#P connect 72 0 71 0;#P connect 71 0 17 1;#P fasten 16 0 20 0 120 248 160 248;#P connect 159 0 90 0;#P connect 159 1 90 0;#P connect 20 0 90 0;#P connect 63 0 70 0;#P connect 70 0 20 1;#P fasten 43 0 112 0 15 372 179 372;#P connect 66 0 72 0;#P connect 60 0 72 0;#P connect 72 0 63 0;#P connect 120 0 112 1;#P fasten 16 0 21 0 120 248 200 248;#P connect 159 0 91 0;#P connect 159 1 91 0;#P connect 21 0 91 0;#P connect 110 0 112 2;#P connect 64 0 69 0;#P connect 69 0 21 1;#P connect 7 0 109 0;#P connect 109 0 112 3;#P connect 66 1 63 1;#P connect 105 0 112 4;#P fasten 16 0 67 0 120 248 240 248;#P connect 67 0 92 0;#P connect 159 0 92 0;#P connect 159 1 92 0;#P connect 63 0 64 0;#P connect 106 0 112 5;#P connect 65 0 68 0;#P connect 68 0 67 1;#P connect 107 0 112 6;#P connect 66 1 64 1;#P connect 28 1 108 0;#P connect 108 0 112 7;#P connect 64 0 65 0;#P connect 161 0 112 8;#P connect 66 1 65 1;#P connect 18 2 53 0;#P connect 163 0 112 9;#P connect 111 0 112 10;#P connect 146 0 19 0;#P connect 129 0 19 0;#P connect 97 0 19 0;#P connect 112 0 19 0;#P connect 19 0 2 0;#P connect 61 0 62 0;#P connect 62 0 66 0;#P connect 18 3 54 0;#P connect 146 1 96 0;#P connect 129 1 96 0;#P connect 97 1 96 0;#P connect 112 1 96 0;#P connect 96 0 95 0;#P connect 18 4 55 0;#P fasten 43 0 129 0 15 372 447 372;#P connect 18 8 59 0;#P connect 18 7 58 0;#P connect 18 6 57 0;#P connect 18 5 56 0;#P connect 137 0 129 1;#P connect 127 0 129 2;#P connect 7 0 126 0;#P connect 126 0 129 3;#P connect 122 0 129 4;#P connect 123 0 129 5;#P connect 18 9 49 0;#P connect 18 10 50 0;#P connect 18 11 51 0;#P connect 18 12 52 0;#P connect 34 12 52 0;#P connect 124 0 129 6;#P connect 28 1 125 0;#P connect 125 0 129 7;#P connect 165 0 129 8;#P connect 167 0 129 9;#P connect 128 0 129 10;#P connect 146 2 155 0;#P connect 129 2 155 0;#P connect 97 2 155 0;#P connect 112 2 155 0;#P connect 155 0 156 0;#P connect 156 0 157 0;#P connect 157 0 158 0;#P connect 18 13 73 0;#P connect 18 14 74 0;#P connect 18 15 75 0;#P connect 18 16 76 0;#P connect 34 16 76 0;#P connect 18 17 77 0;#P connect 18 18 78 0;#P connect 18 19 79 0;#P connect 18 20 80 0;#P connect 34 20 80 0;#P fasten 43 0 146 0 15 372 715 372;#P connect 154 0 146 1;#P connect 18 21 81 0;#P connect 18 22 82 0;#P connect 18 23 83 0;#P connect 18 24 84 0;#P connect 34 24 84 0;#P connect 144 0 146 2;#P connect 7 0 143 0;#P connect 143 0 146 3;#P connect 139 0 146 4;#P connect 140 0 146 5;#P connect 141 0 146 6;#P connect 18 28 179 0;#P connect 18 27 178 0;#P connect 18 26 177 0;#P connect 18 25 176 0;#P connect 28 1 142 0;#P connect 142 0 146 7;#P connect 169 0 146 8;#P connect 171 0 146 9;#P connect 145 0 146 10;#P connect 6 0 26 0;#P connect 28 0 7 0;#P connect 26 0 7 0;#P connect 18 32 183 0;#P connect 18 31 182 0;#P connect 18 30 181 0;#P connect 18 29 180 0;#P connect 27 0 29 0;#P connect 29 0 28 0;#P connect 4 0 9 0;#P connect 9 0 10 0;#P connect 18 36 88 0;#P connect 18 35 87 0;#P connect 18 34 86 0;#P connect 18 33 85 0;#P connect 11 0 4 0;#P connect 4 0 8 0;#P connect 13 0 8 0;#P connect 10 0 8 0;#P connect 8 0 14 0;#P pop;