max v2;#N vpatcher 22 44 982 858;#P window setfont Times 9.;#P window linecount 1;#P newex 530 434 54 1310729 r $1/shift3-;#B color 11;#P newex 510 414 47 1310729 r $1/vfr3-;#B color 11;#P newex 490 394 49 1310729 r $1/vib3-;#B color 11;#P window setfont "Sans Serif" 9.;#P flonum 450 376 35 9 0 0 0 3 0 0 0 221 221 221 222 222 222 0 0 0;#P objectname bw3base;#P flonum 410 376 35 9 0 0 0 3 0 0 0 221 221 221 222 222 222 0 0 0;#P objectname cf3base;#N vpatcher 52 164 756 621;#N comlet shift;#P inlet 592 213 15 0;#N comlet vfr;#P inlet 517 213 15 0;#N comlet vib;#P inlet 442 213 15 0;#P window setfont Times 9.;#P window linecount 1;#P newex 344 162 33 1310729 gate 2;#P window setfont "Sans Serif" 9.;#P flonum 344 139 35 9 0 0 0 3 0 0 0 221 221 221 222 222 222 0 0 0;#P window setfont Times 9.;#P newex 344 64 40 1310729 t b f 2;#P newex 344 118 78 1310729 zmap 0 127 0 127;#P newex 344 97 27 1310729 f;#P window setfont "Sans Serif" 9.;#P flonum 26 65 68 9 0 0 0 3 0 0 0 221 221 221 222 222 222 0 0 0;#P window setfont Times 9.;#P newex 138 162 33 1310729 gate 2;#P window setfont "Sans Serif" 9.;#P flonum 138 139 35 9 0 0 0 3 0 0 0 221 221 221 222 222 222 0 0 0;#P window setfont Times 9.;#P newex 138 64 40 1310729 t b f 2;#P newex 138 118 78 1310729 zmap 0 127 0 127;#P newex 138 97 27 1310729 f;#N comlet /bw/ctl - base;#P inlet 344 32 15 0;#N comlet /cf/ctl - base;#P inlet 138 32 15 0;#P window setfont "Sans Serif" 9.;#P flonum 274 308 42 9 0 0 0 3 0 0 0 221 221 221 222 222 222 0 0 0;#P flonum 162 308 42 9 0 0 0 3 0 0 0 221 221 221 222 222 222 0 0 0;#P flonum 592 301 42 9 0 0 0 3 0 0 0 221 221 221 222 222 222 0 0 0;#P flonum 517 301 42 9 0 0 0 3 0 0 0 221 221 221 222 222 222 0 0 0;#P flonum 442 301 42 9 0 0 0 3 0 0 0 221 221 221 222 222 222 0 0 0;#P window setfont Times 9.;#P window linecount 0;#P newex 592 275 54 1310729 unpack 0. 0;#P newex 592 254 30 1310729 t l 50;#P window setfont "Sans Serif" 9.;#P newex 592 347 69 196617 prepend shift;#P newex 592 326 58 196617 pack 0. 50;#P window setfont Times 9.;#P newex 517 275 54 1310729 unpack 0. 0;#P newex 517 254 30 1310729 t l 50;#P window setfont "Sans Serif" 9.;#P newex 517 347 63 196617 prepend vfr;#P newex 517 326 58 196617 pack 0. 50;#P window setfont Times 9.;#P newex 442 275 54 1310729 unpack 0. 0;#P newex 442 254 30 1310729 t l 50;#P window setfont "Sans Serif" 9.;#P newex 442 347 62 196617 prepend vib;#P newex 442 326 58 196617 pack 0. 50;#P window setfont Times 9.;#P newex 187 72 54 1310729 unpack 0. 0;#P newex 187 52 40 1310729 t l 1 50;#P newex 404 72 54 1310729 unpack 0. 0;#P newex 404 52 40 1310729 t l 1 50;#P window setfont "Sans Serif" 9.;#P newex 274 178 33 196617 - 24.;#P newex 274 347 61 196617 prepend bw;#P newex 274 326 58 196617 pack 0. 50;#P newex 274 198 70 196617 t b f;#P flonum 274 270 35 9 0 0 0 3 0 0 0 221 221 221 222 222 222 0 0 0;#P newex 274 250 93 196617 zmap 0 127 0 128;#P window setfont Times 9.;#P window linecount 1;#P newex 274 229 27 1310729 f;#P window setfont "Sans Serif" 9.;#P window linecount 0;#P newex 274 288 29 196617 mtof;#P newex 162 347 57 196617 prepend cf;#P newex 162 326 58 196617 pack 0. 50;#P newex 138 197 83 196617 t 50 b f 0;#P flonum 162 270 35 9 0 0 0 3 0 0 0 221 221 221 222 222 222 0 0 0;#P newex 162 250 93 196617 zmap 0 127 0 128;#P window setfont Times 9.;#P window linecount 1;#P newex 162 229 27 1310729 f;#P window setfont "Sans Serif" 9.;#P window linecount 0;#P message 84 290 20 196617 0.5;#P newex 84 269 45 196617 loadbang;#P newex 162 288 29 196617 mtof;#P message 98 347 60 196617 phase 0 0 0;#P flonum 84 309 35 9 0. 1. 3 3 0 0 0 221 221 221 222 222 222 0 0 0;#P message 84 329 43 196617 amp \$1;#P newex 26 226 29 196617 mtof;#P message 26 249 44 196617 freq \$1;#P newex 26 385 30 196617 paf~;#B color 5;#P inlet 26 32 15 0;#N comlet /bw/ctl;#P inlet 404 32 15 0;#N comlet /cf/ctl;#P inlet 187 32 15 0;#P outlet 26 407 15 0;#P connect 3 0 55 0;#P connect 55 0 6 0;#P connect 6 0 5 0;#P fasten 25 0 4 0 279 372 31 372;#P fasten 18 0 4 0 167 372 31 372;#P connect 5 0 4 0;#P fasten 7 0 4 0 89 372 31 372;#P fasten 9 0 4 0 103 372 31 372;#P fasten 32 0 4 0 447 372 31 372;#P fasten 36 0 4 0 522 372 31 372;#P fasten 40 0 4 0 597 372 31 372;#P connect 4 0 0 0;#P connect 11 0 12 0;#P connect 12 0 8 0;#P connect 8 0 7 0;#P connect 11 0 9 0;#P connect 48 0 52 0;#P connect 52 0 50 0;#P connect 30 0 50 0;#P connect 50 0 51 0;#P connect 51 0 53 0;#P connect 29 1 54 0;#P connect 52 2 54 0;#P connect 55 0 16 0;#P connect 53 0 54 1;#P connect 54 0 13 0;#P connect 16 1 13 0;#P connect 13 0 14 0;#P connect 14 0 15 0;#P connect 15 0 10 0;#P connect 10 0 46 0;#P connect 46 0 17 0;#P connect 17 0 18 0;#P connect 54 1 13 1;#P connect 1 0 29 0;#P connect 29 0 30 0;#P connect 52 1 51 3;#P connect 29 2 17 1;#P connect 16 0 17 1;#P connect 30 1 17 1;#P connect 16 3 17 1;#P connect 16 2 14 3;#P connect 15 0 26 0;#P connect 26 0 23 0;#P connect 60 0 20 0;#P connect 23 0 20 0;#P connect 20 0 21 0;#P connect 21 0 22 0;#P connect 22 0 19 0;#P connect 19 0 47 0;#P connect 47 0 24 0;#P connect 24 0 25 0;#P connect 60 1 20 1;#P connect 30 1 24 1;#P connect 29 2 24 1;#P connect 16 3 24 1;#P connect 16 0 24 1;#P connect 27 2 24 1;#P connect 28 1 24 1;#P connect 23 1 21 3;#P connect 49 0 58 0;#P connect 58 0 56 0;#P connect 28 0 56 0;#P connect 56 0 57 0;#P connect 57 0 59 0;#P connect 58 2 60 0;#P connect 27 1 60 0;#P connect 59 0 60 1;#P connect 58 1 57 3;#P connect 2 0 27 0;#P connect 27 0 28 0;#P connect 61 0 33 0;#P connect 33 0 34 0;#P connect 34 0 43 0;#P connect 43 0 31 0;#P connect 31 0 32 0;#P connect 33 1 31 1;#P connect 34 1 31 1;#P connect 62 0 37 0;#P connect 37 0 38 0;#P connect 38 0 44 0;#P connect 44 0 35 0;#P connect 35 0 36 0;#P connect 38 1 35 1;#P connect 37 1 35 1;#P connect 63 0 41 0;#P connect 41 0 42 0;#P connect 42 0 45 0;#P connect 45 0 39 0;#P connect 39 0 40 0;#P connect 41 1 39 1;#P connect 42 1 39 1;#P pop;#P newobj 390 464 150 196617 p formant;#B color 6;#P window setfont Times 9.;#P newex 430 334 56 1310729 r $1/cf3/ctl-;#B color 11;#P newex 470 354 60 1310729 r $1/bw3/ctl-;#B color 11;#P newex 340 434 54 1310729 r $1/shift2-;#B color 11;#P newex 320 414 47 1310729 r $1/vfr2-;#B color 11;#P newex 300 394 49 1310729 r $1/vib2-;#B color 11;#P window setfont "Sans Serif" 9.;#P flonum 260 376 35 9 0 0 0 3 0 0 0 221 221 221 222 222 222 0 0 0;#P objectname bw2base;#P flonum 220 376 35 9 0 0 0 3 0 0 0 221 221 221 222 222 222 0 0 0;#P objectname cf2base;#N vpatcher 52 164 756 621;#N comlet shift;#P inlet 592 213 15 0;#N comlet vfr;#P inlet 517 213 15 0;#N comlet vib;#P inlet 442 213 15 0;#P window setfont Times 9.;#P window linecount 1;#P newex 344 162 33 1310729 gate 2;#P window setfont "Sans Serif" 9.;#P flonum 344 139 35 9 0 0 0 3 0 0 0 221 221 221 222 222 222 0 0 0;#P window setfont Times 9.;#P newex 344 64 40 1310729 t b f 2;#P newex 344 118 78 1310729 zmap 0 127 0 127;#P newex 344 97 27 1310729 f;#P window setfont "Sans Serif" 9.;#P flonum 26 65 68 9 0 0 0 3 0 0 0 221 221 221 222 222 222 0 0 0;#P window setfont Times 9.;#P newex 138 162 33 1310729 gate 2;#P window setfont "Sans Serif" 9.;#P flonum 138 139 35 9 0 0 0 3 0 0 0 221 221 221 222 222 222 0 0 0;#P window setfont Times 9.;#P newex 138 64 40 1310729 t b f 2;#P newex 138 118 78 1310729 zmap 0 127 0 127;#P newex 138 97 27 1310729 f;#N comlet /bw/ctl - base;#P inlet 344 32 15 0;#N comlet /cf/ctl - base;#P inlet 138 32 15 0;#P window setfont "Sans Serif" 9.;#P flonum 274 308 42 9 0 0 0 3 0 0 0 221 221 221 222 222 222 0 0 0;#P flonum 162 308 42 9 0 0 0 3 0 0 0 221 221 221 222 222 222 0 0 0;#P flonum 592 301 42 9 0 0 0 3 0 0 0 221 221 221 222 222 222 0 0 0;#P flonum 517 301 42 9 0 0 0 3 0 0 0 221 221 221 222 222 222 0 0 0;#P flonum 442 301 42 9 0 0 0 3 0 0 0 221 221 221 222 222 222 0 0 0;#P window setfont Times 9.;#P window linecount 0;#P newex 592 275 54 1310729 unpack 0. 0;#P newex 592 254 30 1310729 t l 50;#P window setfont "Sans Serif" 9.;#P newex 592 347 69 196617 prepend shift;#P newex 592 326 58 196617 pack 0. 50;#P window setfont Times 9.;#P newex 517 275 54 1310729 unpack 0. 0;#P newex 517 254 30 1310729 t l 50;#P window setfont "Sans Serif" 9.;#P newex 517 347 63 196617 prepend vfr;#P newex 517 326 58 196617 pack 0. 50;#P window setfont Times 9.;#P newex 442 275 54 1310729 unpack 0. 0;#P newex 442 254 30 1310729 t l 50;#P window setfont "Sans Serif" 9.;#P newex 442 347 62 196617 prepend vib;#P newex 442 326 58 196617 pack 0. 50;#P window setfont Times 9.;#P newex 187 72 54 1310729 unpack 0. 0;#P newex 187 52 40 1310729 t l 1 50;#P newex 404 72 54 1310729 unpack 0. 0;#P newex 404 52 40 1310729 t l 1 50;#P window setfont "Sans Serif" 9.;#P newex 274 178 33 196617 - 24.;#P newex 274 347 61 196617 prepend bw;#P newex 274 326 58 196617 pack 0. 50;#P newex 274 198 70 196617 t b f;#P flonum 274 270 35 9 0 0 0 3 0 0 0 221 221 221 222 222 222 0 0 0;#P newex 274 250 93 196617 zmap 0 127 0 128;#P window setfont Times 9.;#P window linecount 1;#P newex 274 229 27 1310729 f;#P window setfont "Sans Serif" 9.;#P window linecount 0;#P newex 274 288 29 196617 mtof;#P newex 162 347 57 196617 prepend cf;#P newex 162 326 58 196617 pack 0. 50;#P newex 138 197 83 196617 t 50 b f 0;#P flonum 162 270 35 9 0 0 0 3 0 0 0 221 221 221 222 222 222 0 0 0;#P newex 162 250 93 196617 zmap 0 127 0 128;#P window setfont Times 9.;#P window linecount 1;#P newex 162 229 27 1310729 f;#P window setfont "Sans Serif" 9.;#P window linecount 0;#P message 84 290 20 196617 0.5;#P newex 84 269 45 196617 loadbang;#P newex 162 288 29 196617 mtof;#P message 98 347 60 196617 phase 0 0 0;#P flonum 84 309 35 9 0. 1. 3 3 0 0 0 221 221 221 222 222 222 0 0 0;#P message 84 329 43 196617 amp \$1;#P newex 26 226 29 196617 mtof;#P message 26 249 44 196617 freq \$1;#P newex 26 385 30 196617 paf~;#B color 5;#P inlet 26 32 15 0;#N comlet /bw/ctl;#P inlet 404 32 15 0;#N comlet /cf/ctl;#P inlet 187 32 15 0;#P outlet 26 407 15 0;#P connect 3 0 55 0;#P connect 55 0 6 0;#P connect 6 0 5 0;#P fasten 40 0 4 0 597 372 31 372;#P fasten 36 0 4 0 522 372 31 372;#P fasten 32 0 4 0 447 372 31 372;#P fasten 9 0 4 0 103 372 31 372;#P fasten 7 0 4 0 89 372 31 372;#P connect 5 0 4 0;#P fasten 18 0 4 0 167 372 31 372;#P fasten 25 0 4 0 279 372 31 372;#P connect 4 0 0 0;#P connect 11 0 12 0;#P connect 12 0 8 0;#P connect 8 0 7 0;#P connect 11 0 9 0;#P connect 48 0 52 0;#P connect 30 0 50 0;#P connect 52 0 50 0;#P connect 50 0 51 0;#P connect 51 0 53 0;#P connect 52 2 54 0;#P connect 29 1 54 0;#P connect 55 0 16 0;#P connect 53 0 54 1;#P connect 16 1 13 0;#P connect 54 0 13 0;#P connect 13 0 14 0;#P connect 14 0 15 0;#P connect 15 0 10 0;#P connect 10 0 46 0;#P connect 46 0 17 0;#P connect 17 0 18 0;#P connect 54 1 13 1;#P connect 1 0 29 0;#P connect 29 0 30 0;#P connect 52 1 51 3;#P connect 16 3 17 1;#P connect 30 1 17 1;#P connect 16 0 17 1;#P connect 29 2 17 1;#P connect 16 2 14 3;#P connect 15 0 26 0;#P connect 26 0 23 0;#P connect 23 0 20 0;#P connect 60 0 20 0;#P connect 20 0 21 0;#P connect 21 0 22 0;#P connect 22 0 19 0;#P connect 19 0 47 0;#P connect 47 0 24 0;#P connect 24 0 25 0;#P connect 60 1 20 1;#P connect 28 1 24 1;#P connect 27 2 24 1;#P connect 16 0 24 1;#P connect 16 3 24 1;#P connect 29 2 24 1;#P connect 30 1 24 1;#P connect 23 1 21 3;#P connect 49 0 58 0;#P connect 28 0 56 0;#P connect 58 0 56 0;#P connect 56 0 57 0;#P connect 57 0 59 0;#P connect 27 1 60 0;#P connect 58 2 60 0;#P connect 59 0 60 1;#P connect 58 1 57 3;#P connect 2 0 27 0;#P connect 27 0 28 0;#P connect 61 0 33 0;#P connect 33 0 34 0;#P connect 34 0 43 0;#P connect 43 0 31 0;#P connect 31 0 32 0;#P connect 34 1 31 1;#P connect 33 1 31 1;#P connect 62 0 37 0;#P connect 37 0 38 0;#P connect 38 0 44 0;#P connect 44 0 35 0;#P connect 35 0 36 0;#P connect 37 1 35 1;#P connect 38 1 35 1;#P connect 63 0 41 0;#P connect 41 0 42 0;#P connect 42 0 45 0;#P connect 45 0 39 0;#P connect 39 0 40 0;#P connect 42 1 39 1;#P connect 41 1 39 1;#P pop;#P newobj 200 464 150 196617 p formant;#B color 6;#P window setfont Times 9.;#P newex 240 334 56 1310729 r $1/cf2/ctl-;#B color 11;#P newex 280 354 60 1310729 r $1/bw2/ctl-;#B color 11;#P newex 150 434 54 1310729 r $1/shift1-;#B color 11;#P newex 130 414 47 1310729 r $1/vfr1-;#B color 11;#P newex 110 394 49 1310729 r $1/vib1-;#B color 11;#P window setfont "Sans Serif" 9.;#P flonum 70 376 35 9 0 0 0 3 0 0 0 221 221 221 222 222 222 0 0 0;#P objectname bw1base;#P flonum 30 376 35 9 0 0 0 3 0 0 0 221 221 221 222 222 222 0 0 0;#P objectname cf1base;#N vpatcher 52 164 756 621;#N comlet shift;#P inlet 592 213 15 0;#N comlet vfr;#P inlet 517 213 15 0;#N comlet vib;#P inlet 442 213 15 0;#P window setfont Times 9.;#P window linecount 1;#P newex 344 162 33 1310729 gate 2;#P window setfont "Sans Serif" 9.;#P flonum 344 139 35 9 0 0 0 3 0 0 0 221 221 221 222 222 222 0 0 0;#P window setfont Times 9.;#P newex 344 64 40 1310729 t b f 2;#P newex 344 118 78 1310729 zmap 0 127 0 127;#P newex 344 97 27 1310729 f;#P window setfont "Sans Serif" 9.;#P flonum 26 65 68 9 0 0 0 3 0 0 0 221 221 221 222 222 222 0 0 0;#P window setfont Times 9.;#P newex 138 162 33 1310729 gate 2;#P window setfont "Sans Serif" 9.;#P flonum 138 139 35 9 0 0 0 3 0 0 0 221 221 221 222 222 222 0 0 0;#P window setfont Times 9.;#P newex 138 64 40 1310729 t b f 2;#P newex 138 118 78 1310729 zmap 0 127 0 127;#P newex 138 97 27 1310729 f;#N comlet /bw/ctl - base;#P inlet 344 32 15 0;#N comlet /cf/ctl - base;#P inlet 138 32 15 0;#P window setfont "Sans Serif" 9.;#P flonum 274 308 42 9 0 0 0 3 0 0 0 221 221 221 222 222 222 0 0 0;#P flonum 162 308 42 9 0 0 0 3 0 0 0 221 221 221 222 222 222 0 0 0;#P flonum 592 301 42 9 0 0 0 3 0 0 0 221 221 221 222 222 222 0 0 0;#P flonum 517 301 42 9 0 0 0 3 0 0 0 221 221 221 222 222 222 0 0 0;#P flonum 442 301 42 9 0 0 0 3 0 0 0 221 221 221 222 222 222 0 0 0;#P window setfont Times 9.;#P window linecount 0;#P newex 592 275 54 1310729 unpack 0. 0;#P newex 592 254 30 1310729 t l 50;#P window setfont "Sans Serif" 9.;#P newex 592 347 69 196617 prepend shift;#P newex 592 326 58 196617 pack 0. 50;#P window setfont Times 9.;#P newex 517 275 54 1310729 unpack 0. 0;#P newex 517 254 30 1310729 t l 50;#P window setfont "Sans Serif" 9.;#P newex 517 347 63 196617 prepend vfr;#P newex 517 326 58 196617 pack 0. 50;#P window setfont Times 9.;#P newex 442 275 54 1310729 unpack 0. 0;#P newex 442 254 30 1310729 t l 50;#P window setfont "Sans Serif" 9.;#P newex 442 347 62 196617 prepend vib;#P newex 442 326 58 196617 pack 0. 50;#P window setfont Times 9.;#P newex 187 72 54 1310729 unpack 0. 0;#P newex 187 52 40 1310729 t l 1 50;#P newex 404 72 54 1310729 unpack 0. 0;#P newex 404 52 40 1310729 t l 1 50;#P window setfont "Sans Serif" 9.;#P newex 274 178 33 196617 - 24.;#P newex 274 347 61 196617 prepend bw;#P newex 274 326 58 196617 pack 0. 50;#P newex 274 198 70 196617 t b f;#P flonum 274 270 35 9 0 0 0 3 0 0 0 221 221 221 222 222 222 0 0 0;#P newex 274 250 93 196617 zmap 0 127 0 128;#P window setfont Times 9.;#P window linecount 1;#P newex 274 229 27 1310729 f;#P window setfont "Sans Serif" 9.;#P window linecount 0;#P newex 274 288 29 196617 mtof;#P newex 162 347 57 196617 prepend cf;#P newex 162 326 58 196617 pack 0. 50;#P newex 138 197 83 196617 t 50 b f 0;#P flonum 162 270 35 9 0 0 0 3 0 0 0 221 221 221 222 222 222 0 0 0;#P newex 162 250 93 196617 zmap 0 127 0 128;#P window setfont Times 9.;#P window linecount 1;#P newex 162 229 27 1310729 f;#P window setfont "Sans Serif" 9.;#P window linecount 0;#P message 84 290 20 196617 0.5;#P newex 84 269 45 196617 loadbang;#P newex 162 288 29 196617 mtof;#P message 98 347 60 196617 phase 0 0 0;#P flonum 84 309 35 9 0. 1. 3 3 0 0 0 221 221 221 222 222 222 0 0 0;#P message 84 329 43 196617 amp \$1;#P newex 26 226 29 196617 mtof;#P message 26 249 44 196617 freq \$1;#P newex 26 385 30 196617 paf~;#B color 5;#P inlet 26 32 15 0;#N comlet /bw/ctl;#P inlet 404 32 15 0;#N comlet /cf/ctl;#P inlet 187 32 15 0;#P outlet 26 407 15 0;#P connect 3 0 55 0;#P connect 55 0 6 0;#P connect 6 0 5 0;#P fasten 25 0 4 0 279 372 31 372;#P fasten 18 0 4 0 167 372 31 372;#P connect 5 0 4 0;#P fasten 7 0 4 0 89 372 31 372;#P fasten 9 0 4 0 103 372 31 372;#P fasten 32 0 4 0 447 372 31 372;#P fasten 36 0 4 0 522 372 31 372;#P fasten 40 0 4 0 597 372 31 372;#P connect 4 0 0 0;#P connect 11 0 12 0;#P connect 12 0 8 0;#P connect 8 0 7 0;#P connect 11 0 9 0;#P connect 48 0 52 0;#P connect 52 0 50 0;#P connect 30 0 50 0;#P connect 50 0 51 0;#P connect 51 0 53 0;#P connect 29 1 54 0;#P connect 52 2 54 0;#P connect 55 0 16 0;#P connect 53 0 54 1;#P connect 54 0 13 0;#P connect 16 1 13 0;#P connect 13 0 14 0;#P connect 14 0 15 0;#P connect 15 0 10 0;#P connect 10 0 46 0;#P connect 46 0 17 0;#P connect 17 0 18 0;#P connect 54 1 13 1;#P connect 1 0 29 0;#P connect 29 0 30 0;#P connect 52 1 51 3;#P connect 29 2 17 1;#P connect 16 0 17 1;#P connect 30 1 17 1;#P connect 16 3 17 1;#P connect 16 2 14 3;#P connect 15 0 26 0;#P connect 26 0 23 0;#P connect 60 0 20 0;#P connect 23 0 20 0;#P connect 20 0 21 0;#P connect 21 0 22 0;#P connect 22 0 19 0;#P connect 19 0 47 0;#P connect 47 0 24 0;#P connect 24 0 25 0;#P connect 60 1 20 1;#P connect 30 1 24 1;#P connect 29 2 24 1;#P connect 16 3 24 1;#P connect 16 0 24 1;#P connect 27 2 24 1;#P connect 28 1 24 1;#P connect 23 1 21 3;#P connect 49 0 58 0;#P connect 58 0 56 0;#P connect 28 0 56 0;#P connect 56 0 57 0;#P connect 57 0 59 0;#P connect 58 2 60 0;#P connect 27 1 60 0;#P connect 59 0 60 1;#P connect 58 1 57 3;#P connect 2 0 27 0;#P connect 27 0 28 0;#P connect 61 0 33 0;#P connect 33 0 34 0;#P connect 34 0 43 0;#P connect 43 0 31 0;#P connect 31 0 32 0;#P connect 33 1 31 1;#P connect 34 1 31 1;#P connect 62 0 37 0;#P connect 37 0 38 0;#P connect 38 0 44 0;#P connect 44 0 35 0;#P connect 35 0 36 0;#P connect 38 1 35 1;#P connect 37 1 35 1;#P connect 63 0 41 0;#P connect 41 0 42 0;#P connect 42 0 45 0;#P connect 45 0 39 0;#P connect 39 0 40 0;#P connect 41 1 39 1;#P connect 42 1 39 1;#P pop;#P newobj 10 464 150 196617 p formant;#B color 6;#P window setfont Times 9.;#P newex 50 334 56 1310729 r $1/cf1/ctl-;#B color 11;#P newex 90 354 60 1310729 r $1/bw1/ctl-;#B color 11;#P window setfont "Sans Serif" 9.;#P newex 658 206 73 196617 pvar bw3base;#P newex 640 228 69 196617 pvar cf3base;#P newex 532 206 73 196617 pvar bw2base;#P newex 514 228 69 196617 pvar cf2base;#P newex 406 206 73 196617 pvar bw1base;#P newex 388 228 69 196617 pvar cf1base;#P comment 72 37 482 196617 [-] [vel (=0)] [-] [-] [-] [rel] [-] [-] [-] [-] [-] [-];#P comment 72 25 525 196617 [pitch midicents] [vel (>0)] [att] [dec] [sus] [rel] [cf1base] [bw1base] [cf2base] [bw2base] [cf3base] [bw3base];#P comment 557 37 202 196617 (for release \, all ignored except vel and rel);#P newex 91 130 62 196617 pvar active;#B color 13;#P newex 91 110 48 196617 split 1 1;#P newex 91 90 27 196617 != 0;#P newex 55 155 590 196617 unpack 0. 0 0. 0. 0. 0. 0. 0. 0. 0. 0. 0.;#P newex 10 154 38 196617 gate 2;#P newex 55 110 27 196617 + 1;#P newex 55 90 31 196617 == 0;#P newex 55 67 44 196617 zl nth 2;#P button 679 463 15 0;#P newex 679 482 32 196617 t 0 0;#P newex 679 443 248 196617 r $1/allnotesoff;#B color 11;#P button 648 440 15 0;#P newex 434 751 62 196617 pvar active;#B color 13;#P newex 434 730 21 196617 t 0;#P newex 23 253 29 196617 t b f;#P newex 10 277 27 196617 + 0.;#P window setfont Times 9.;#P newex 23 231 46 1310729 r $1/bend;#B color 11;#P window setfont "Sans Serif" 9.;#P newex 434 708 36 196617 edge~;#P newex 434 686 37 196617 ==~ 0;#P newex 10 206 41 196617 * 0.01;#P newex 191 252 58 196617 pvar amp3;#P newex 191 231 37 196617 pow 4;#P newex 132 252 58 196617 pvar amp2;#P newex 132 231 37 196617 pow 3;#P newex 390 691 27 196617 *~;#P flonum 407 554 35 9 0 0 0 3 0 0 0 221 221 221 222 222 222 0 0 0;#P objectname amp3;#P newex 407 651 66 196617 adsr~;#P newex 200 691 27 196617 *~;#P flonum 217 554 35 9 0 0 0 3 0 0 0 221 221 221 222 222 222 0 0 0;#P objectname amp2;#P newex 217 651 66 196617 adsr~;#P newex 10 691 27 196617 *~;#P newex 10 732 32 196617 *~ 1;#P newex 73 252 58 196617 pvar amp1;#P newex 325 203 47 196617 pvar rel;#P newex 262 203 49 196617 pvar sus;#P newex 199 203 49 196617 pvar dec;#P flonum 532 534 35 9 0 0 0 3 0 0 0 221 221 221 222 222 222 0 0 0;#P objectname att;#P newex 136 203 47 196617 pvar att;#P newex 10 179 706 196617 unpack 0. 0 0. 0. 0. 0. 0. 0. 0. 0. 0. 0.;#P message 689 614 46 196617 legato 1;#P newex 689 592 48 196617 loadbang;#P comment 615 594 65 196617 release (ms);#P comment 600 575 139 196617 sustain (factor of amplitude);#P comment 586 554 59 196617 decay (ms);#P flonum 27 554 35 9 0 0 0 3 0 0 0 221 221 221 222 222 222 0 0 0;#P objectname amp1;#P flonum 574 594 35 9 0 0 0 3 0 0 0 221 221 221 222 222 222 0 0 0;#P objectname rel;#P flonum 560 574 35 9 0 0 0 3 0 0 0 221 221 221 222 222 222 0 0 0;#P objectname sus;#P flonum 546 554 35 9 0 0 0 3 0 0 0 221 221 221 222 222 222 0 0 0;#P objectname dec;#P newex 27 651 66 196617 adsr~;#P comment 487 534 61 196617 attack (ms);#P newex 73 231 37 196617 pow 2;#P newex 73 203 40 196617 / 127.;#P flonum 10 301 51 9 0 0 0 3 0 0 0 221 221 221 222 222 222 0 0 0;#P objectname pitch;#P comment 649 357 188 196617 shift: frequency shift;#P comment 649 341 188 196617 vfr: vibrato frequency;#P comment 649 326 188 196617 vib: vibrato depth;#P comment 649 311 188 196617 bw: bandwidth of formant;#P comment 649 296 188 196617 cf: center frequency of formant;#P comment 649 281 188 196617 amp: amplitude;#P comment 649 266 188 196617 freq: fundamental frequency;#P window linecount 3;#P comment 648 373 189 196617 phase: phase arguements \, base osculator \, frequency shift \, osculator vibrato osculator;#P number 829 646 35 9 0 0 0 3 0 0 0 221 221 221 222 222 222 0 0 0;#P window linecount 1;#P newex 848 584 48 196617 loadbang;#N out 1;#P newobj 113 762 33 196617 out 1;#P newex 829 509 60 196617 loadmess 0;#P message 775 587 47 196617 mute \$1;#P newex 775 564 31 196617 == 0;#P newex 829 623 50 196617 thispoly~;#P newex 648 459 21 196617 t 0;#P newex 648 420 250 196617 r $1/allnotesrelease;#B color 11;#P newex 38 47 27 196617 t l l;#P toggle 829 534 15 0;#P objectname active;#N in 1;#P newobj 38 27 25 196617 in 1;#N out~ 1;#P newobj 10 762 35 196617 out~ 1;#P window linecount 2;#P comment 844 535 57 196617 Žtat (actif \, inactif);#P connect 69 0 70 0;#P connect 70 0 36 0;#P connect 36 0 55 0;#P connect 60 0 59 0;#P connect 55 0 59 0;#P connect 59 0 22 0;#P connect 22 0 86 0;#P connect 86 0 44 0;#P connect 44 0 43 0;#P connect 47 0 43 0;#P connect 50 0 43 0;#P connect 43 0 1 0;#P connect 58 0 60 0;#P connect 60 1 59 1;#P connect 6 0 30 0;#P connect 65 0 30 0;#P connect 35 0 26 0;#P connect 30 0 26 0;#P connect 26 0 44 1;#P connect 87 0 86 1;#P connect 2 0 4 0;#P connect 4 0 70 1;#P connect 38 0 26 1;#P connect 85 0 86 2;#P connect 4 1 67 0;#P connect 67 0 68 0;#P connect 68 0 69 0;#P connect 70 1 71 0;#P connect 27 0 26 2;#P connect 28 0 26 3;#P connect 88 0 86 3;#P connect 36 1 23 0;#P connect 71 1 23 0;#P connect 23 0 24 0;#P connect 24 0 42 0;#P connect 29 0 26 4;#P connect 84 0 86 4;#P connect 67 0 72 0;#P connect 72 0 73 0;#P connect 73 0 74 0;#P connect 89 0 86 5;#P connect 90 0 86 6;#P connect 23 0 51 0;#P connect 51 0 52 0;#P connect 36 2 37 0;#P connect 91 0 86 7;#P connect 23 0 53 0;#P connect 53 0 54 0;#P connect 36 3 39 0;#P fasten 22 0 94 0 15 324 205 324;#P connect 94 0 47 0;#P connect 6 0 46 0;#P connect 65 0 46 0;#P connect 35 0 45 0;#P connect 46 0 45 0;#P connect 45 0 47 1;#P connect 95 0 94 1;#P connect 38 0 45 1;#P connect 93 0 94 2;#P connect 27 0 45 2;#P connect 28 0 45 3;#P connect 96 0 94 3;#P connect 36 4 40 0;#P connect 29 0 45 4;#P connect 92 0 94 4;#P connect 97 0 94 5;#P connect 98 0 94 6;#P connect 36 5 41 0;#P connect 71 5 41 0;#P connect 99 0 94 7;#P connect 36 6 78 0;#P fasten 22 0 102 0 15 324 395 324;#P connect 102 0 50 0;#P connect 36 7 79 0;#P connect 6 0 49 0;#P connect 65 0 49 0;#P connect 49 0 48 0;#P connect 35 0 48 0;#P connect 48 0 50 1;#P connect 103 0 102 1;#P connect 38 0 48 1;#P connect 101 0 102 2;#P connect 26 0 56 0;#P connect 45 0 56 0;#P connect 48 0 56 0;#P connect 56 0 57 0;#P connect 57 0 61 0;#P connect 61 0 62 0;#P connect 27 0 48 2;#P connect 28 0 48 3;#P connect 104 0 102 3;#P connect 29 0 48 4;#P connect 100 0 102 4;#P connect 105 0 102 5;#P connect 106 0 102 6;#P connect 36 8 80 0;#P connect 107 0 102 7;#P connect 36 9 81 0;#P connect 65 1 29 0;#P connect 36 10 82 0;#P connect 5 0 63 0;#P connect 63 0 6 0;#P connect 36 11 83 0;#P connect 64 0 66 0;#P connect 66 0 65 0;#P connect 34 0 35 0;#P connect 3 0 8 0;#P connect 8 0 9 0;#P connect 10 0 3 0;#P connect 9 0 7 0;#P connect 12 0 7 0;#P connect 3 0 7 0;#P connect 7 0 13 0;#P pop;