max v2;#N vpatcher 519 44 1549 894;#P window setfont "Sans Serif" 9.;#P window linecount 1;#P newex 469 207 38 196617 bendin;#P newex 551 278 87 196617 zmap 64 127 0 2;#P newex 469 278 80 196617 zmap 0 64 -2 0;#P newex 469 255 54 196617 split 0 64;#P window setfont Times 9.;#P newex 469 301 47 1310729 s $1/bend;#B color 11;#P window setfont "Sans Serif" 9.;#P comment 469 220 53 196617 /bend;#P user hslider 469 233 18 128 128 1 0 0;#P newex 276 204 58 196617 pvar amp3;#P newex 276 183 37 196617 pow 4;#P newex 217 204 58 196617 pvar amp2;#P newex 217 183 37 196617 pow 3;#P newex 255 491 27 196617 *~;#P flonum 272 366 35 9 0 0 0 3 0 0 0 221 221 221 222 222 222 0 0 0;#P objectname amp3;#P newex 272 463 66 196617 adsr~;#P newex 151 491 27 196617 *~;#P flonum 168 366 35 9 0 0 0 3 0 0 0 221 221 221 222 222 222 0 0 0;#P objectname amp2;#P newex 168 463 66 196617 adsr~;#P newex 43 491 27 196617 *~;#P newex 43 532 32 196617 *~ 1;#N vpatcher 236 284 939 648;#P window setfont "Sans Serif" 9.;#P flonum 298 194 42 9 0 0 0 3 0 0 0 221 221 221 222 222 222 0 0 0;#P flonum 186 194 42 9 0 0 0 3 0 0 0 221 221 221 222 222 222 0 0 0;#P flonum 590 187 42 9 0 0 0 3 0 0 0 221 221 221 222 222 222 0 0 0;#P flonum 515 187 42 9 0 0 0 3 0 0 0 221 221 221 222 222 222 0 0 0;#P flonum 440 187 42 9 0 0 0 3 0 0 0 221 221 221 222 222 222 0 0 0;#P window setfont Times 9.;#P newex 590 161 54 1310729 unpack 0. 0;#P newex 590 140 30 1310729 t l 50;#P window setfont "Sans Serif" 9.;#P newex 590 233 69 196617 prepend shift;#P newex 590 212 58 196617 pack 0. 50;#P window setfont Times 9.;#P newex 590 120 46 1310729 r $1/shift;#B color 11;#P newex 515 161 54 1310729 unpack 0. 0;#P newex 515 140 30 1310729 t l 50;#P window setfont "Sans Serif" 9.;#P newex 515 233 63 196617 prepend vfr;#P newex 515 212 58 196617 pack 0. 50;#P window setfont Times 9.;#P newex 515 120 39 1310729 r $1/vfr;#B color 11;#P newex 440 161 54 1310729 unpack 0. 0;#P newex 440 140 30 1310729 t l 50;#P window setfont "Sans Serif" 9.;#P newex 440 233 62 196617 prepend vib;#P newex 440 212 58 196617 pack 0. 50;#P window setfont Times 9.;#P newex 440 120 41 1310729 r $1/vib;#B color 11;#P newex 211 70 54 1310729 unpack 0. 0;#P newex 211 50 30 1310729 t l 50;#P newex 372 91 54 1310729 unpack 0. 0;#P newex 372 71 30 1310729 t l 50;#P window setfont "Sans Serif" 9.;#P newex 298 68 33 196617 - 24.;#P newex 298 233 61 196617 prepend bw;#P newex 298 212 58 196617 pack 0. 50;#P newex 298 88 70 196617 t b f;#P flonum 298 156 35 9 0 0 0 3 0 0 0 221 221 221 222 222 222 0 0 0;#P newex 298 136 93 196617 zmap 0 127 0 128;#P flonum 298 118 35 9 0 0 0 3 0 0 0 221 221 221 222 222 222 0 0 0;#P newex 298 174 29 196617 mtof;#P newex 186 233 57 196617 prepend cf;#P newex 186 212 58 196617 pack 0. 50;#P newex 162 93 83 196617 t 50 b f 0;#P flonum 186 156 35 9 0 0 0 3 0 0 0 221 221 221 222 222 222 0 0 0;#P newex 186 136 93 196617 zmap 0 127 0 128;#P flonum 186 118 35 9 0 0 0 3 0 0 0 221 221 221 222 222 222 0 0 0;#P message 108 176 20 196617 0.5;#P newex 108 155 45 196617 loadbang;#P newex 186 174 29 196617 mtof;#P message 122 233 60 196617 phase 0 0 0;#P flonum 108 195 35 9 0. 1. 3 3 0 0 0 221 221 221 222 222 222 0 0 0;#P message 108 215 43 196617 amp \$1;#P newex 50 112 29 196617 mtof;#P message 50 135 44 196617 freq \$1;#P newex 50 289 30 196617 paf~;#B color 5;#P inlet 50 30 15 0;#P inlet 372 51 15 0;#P inlet 211 30 15 0;#P outlet 50 311 15 0;#P connect 3 0 6 0;#P connect 6 0 5 0;#P fasten 43 0 4 0 595 258 55 258;#P fasten 38 0 4 0 520 258 55 258;#P fasten 33 0 4 0 445 258 55 258;#P fasten 25 0 4 0 303 258 55 258;#P fasten 18 0 4 0 191 258 55 258;#P fasten 9 0 4 0 127 258 55 258;#P fasten 7 0 4 0 113 258 55 258;#P connect 5 0 4 0;#P connect 4 0 0 0;#P connect 11 0 12 0;#P connect 12 0 8 0;#P connect 8 0 7 0;#P connect 11 0 9 0;#P connect 3 0 16 0;#P connect 30 0 13 0;#P connect 16 1 13 0;#P connect 13 0 14 0;#P connect 14 0 15 0;#P connect 15 0 10 0;#P connect 10 0 49 0;#P connect 49 0 17 0;#P connect 17 0 18 0;#P connect 1 0 29 0;#P connect 29 0 30 0;#P connect 29 1 17 1;#P connect 16 0 17 1;#P connect 30 1 17 1;#P connect 16 3 17 1;#P connect 16 2 14 3;#P connect 15 0 26 0;#P connect 26 0 23 0;#P connect 28 0 20 0;#P connect 23 0 20 0;#P connect 20 0 21 0;#P connect 21 0 22 0;#P connect 22 0 19 0;#P connect 19 0 50 0;#P connect 50 0 24 0;#P connect 24 0 25 0;#P connect 30 1 24 1;#P connect 29 1 24 1;#P connect 16 3 24 1;#P connect 16 0 24 1;#P connect 28 1 24 1;#P connect 27 1 24 1;#P connect 23 1 21 3;#P connect 2 0 27 0;#P connect 27 0 28 0;#P connect 31 0 34 0;#P connect 34 0 35 0;#P connect 35 0 46 0;#P connect 46 0 32 0;#P connect 32 0 33 0;#P connect 35 1 32 1;#P connect 34 1 32 1;#P connect 36 0 39 0;#P connect 39 0 40 0;#P connect 40 0 47 0;#P connect 47 0 37 0;#P connect 37 0 38 0;#P connect 39 1 37 1;#P connect 40 1 37 1;#P connect 41 0 44 0;#P connect 44 0 45 0;#P connect 45 0 48 0;#P connect 48 0 42 0;#P connect 42 0 43 0;#P connect 45 1 42 1;#P connect 44 1 42 1;#P pop;#P newobj 255 305 60 196617 p formant1;#B color 6;#P window setfont Times 9.;#P newex 280 261 53 1310729 r $1/cf3/ctl;#B color 11;#P newex 305 282 57 1310729 r $1/bw3/ctl;#B color 11;#P window setfont "Sans Serif" 9.;#N vpatcher 236 284 939 648;#P window setfont "Sans Serif" 9.;#P flonum 298 194 42 9 0 0 0 3 0 0 0 221 221 221 222 222 222 0 0 0;#P flonum 186 194 42 9 0 0 0 3 0 0 0 221 221 221 222 222 222 0 0 0;#P flonum 590 187 42 9 0 0 0 3 0 0 0 221 221 221 222 222 222 0 0 0;#P flonum 515 187 42 9 0 0 0 3 0 0 0 221 221 221 222 222 222 0 0 0;#P flonum 440 187 42 9 0 0 0 3 0 0 0 221 221 221 222 222 222 0 0 0;#P window setfont Times 9.;#P newex 590 161 54 1310729 unpack 0. 0;#P newex 590 140 30 1310729 t l 50;#P window setfont "Sans Serif" 9.;#P newex 590 233 69 196617 prepend shift;#P newex 590 212 58 196617 pack 0. 50;#P window setfont Times 9.;#P newex 590 120 46 1310729 r $1/shift;#B color 11;#P newex 515 161 54 1310729 unpack 0. 0;#P newex 515 140 30 1310729 t l 50;#P window setfont "Sans Serif" 9.;#P newex 515 233 63 196617 prepend vfr;#P newex 515 212 58 196617 pack 0. 50;#P window setfont Times 9.;#P newex 515 120 39 1310729 r $1/vfr;#B color 11;#P newex 440 161 54 1310729 unpack 0. 0;#P newex 440 140 30 1310729 t l 50;#P window setfont "Sans Serif" 9.;#P newex 440 233 62 196617 prepend vib;#P newex 440 212 58 196617 pack 0. 50;#P window setfont Times 9.;#P newex 440 120 41 1310729 r $1/vib;#B color 11;#P newex 211 70 54 1310729 unpack 0. 0;#P newex 211 50 30 1310729 t l 50;#P newex 372 91 54 1310729 unpack 0. 0;#P newex 372 71 30 1310729 t l 50;#P window setfont "Sans Serif" 9.;#P newex 298 68 33 196617 - 24.;#P newex 298 233 61 196617 prepend bw;#P newex 298 212 58 196617 pack 0. 50;#P newex 298 88 70 196617 t b f;#P flonum 298 156 35 9 0 0 0 3 0 0 0 221 221 221 222 222 222 0 0 0;#P newex 298 136 93 196617 zmap 0 127 0 128;#P flonum 298 118 35 9 0 0 0 3 0 0 0 221 221 221 222 222 222 0 0 0;#P newex 298 174 29 196617 mtof;#P newex 186 233 57 196617 prepend cf;#P newex 186 212 58 196617 pack 0. 50;#P newex 162 93 83 196617 t 50 b f 0;#P flonum 186 156 35 9 0 0 0 3 0 0 0 221 221 221 222 222 222 0 0 0;#P newex 186 136 93 196617 zmap 0 127 0 128;#P flonum 186 118 35 9 0 0 0 3 0 0 0 221 221 221 222 222 222 0 0 0;#P message 108 176 20 196617 0.5;#P newex 108 155 45 196617 loadbang;#P newex 186 174 29 196617 mtof;#P message 122 233 60 196617 phase 0 0 0;#P flonum 108 195 35 9 0. 1. 3 3 0 0 0 221 221 221 222 222 222 0 0 0;#P message 108 215 43 196617 amp \$1;#P newex 50 112 29 196617 mtof;#P message 50 135 44 196617 freq \$1;#P newex 50 289 30 196617 paf~;#B color 5;#P inlet 50 30 15 0;#P inlet 372 51 15 0;#P inlet 211 30 15 0;#P outlet 50 311 15 0;#P connect 3 0 6 0;#P connect 6 0 5 0;#P connect 5 0 4 0;#P fasten 7 0 4 0 113 258 55 258;#P fasten 9 0 4 0 127 258 55 258;#P fasten 18 0 4 0 191 258 55 258;#P fasten 25 0 4 0 303 258 55 258;#P fasten 33 0 4 0 445 258 55 258;#P fasten 38 0 4 0 520 258 55 258;#P fasten 43 0 4 0 595 258 55 258;#P connect 4 0 0 0;#P connect 11 0 12 0;#P connect 12 0 8 0;#P connect 8 0 7 0;#P connect 11 0 9 0;#P connect 3 0 16 0;#P connect 16 1 13 0;#P connect 30 0 13 0;#P connect 13 0 14 0;#P connect 14 0 15 0;#P connect 15 0 10 0;#P connect 10 0 49 0;#P connect 49 0 17 0;#P connect 17 0 18 0;#P connect 1 0 29 0;#P connect 29 0 30 0;#P connect 16 3 17 1;#P connect 30 1 17 1;#P connect 16 0 17 1;#P connect 29 1 17 1;#P connect 16 2 14 3;#P connect 15 0 26 0;#P connect 26 0 23 0;#P connect 23 0 20 0;#P connect 28 0 20 0;#P connect 20 0 21 0;#P connect 21 0 22 0;#P connect 22 0 19 0;#P connect 19 0 50 0;#P connect 50 0 24 0;#P connect 24 0 25 0;#P connect 27 1 24 1;#P connect 28 1 24 1;#P connect 16 0 24 1;#P connect 16 3 24 1;#P connect 29 1 24 1;#P connect 30 1 24 1;#P connect 23 1 21 3;#P connect 2 0 27 0;#P connect 27 0 28 0;#P connect 31 0 34 0;#P connect 34 0 35 0;#P connect 35 0 46 0;#P connect 46 0 32 0;#P connect 32 0 33 0;#P connect 34 1 32 1;#P connect 35 1 32 1;#P connect 36 0 39 0;#P connect 39 0 40 0;#P connect 40 0 47 0;#P connect 47 0 37 0;#P connect 37 0 38 0;#P connect 40 1 37 1;#P connect 39 1 37 1;#P connect 41 0 44 0;#P connect 44 0 45 0;#P connect 45 0 48 0;#P connect 48 0 42 0;#P connect 42 0 43 0;#P connect 44 1 42 1;#P connect 45 1 42 1;#P pop;#P newobj 151 305 60 196617 p formant1;#B color 6;#P window setfont Times 9.;#P newex 176 261 53 1310729 r $1/cf2/ctl;#B color 11;#P newex 201 282 57 1310729 r $1/bw2/ctl;#B color 11;#P newex 792 175 58 1310729 s $1/bw3/ctl;#B color 11;#P newex 792 154 55 1310729 pack 0. 100;#P newex 792 92 54 1310729 s $1/cf3/ctl;#B color 11;#P newex 792 71 55 1310729 pack 0. 200;#P window setfont "Sans Serif" 9.;#P comment 792 119 53 196617 /bw3/ctl;#P user hslider 792 132 18 128 128 1 0 0;#P user hslider 792 48 18 128 128 1 0 0;#P comment 792 34 49 196617 /cf3/ctl;#P window setfont Times 9.;#P newex 645 175 58 1310729 s $1/bw2/ctl;#B color 11;#P newex 645 154 55 1310729 pack 0. 100;#P newex 645 92 54 1310729 s $1/cf2/ctl;#B color 11;#P newex 645 71 55 1310729 pack 0. 200;#P window setfont "Sans Serif" 9.;#P comment 645 119 53 196617 /bw2/ctl;#P user hslider 645 132 18 128 128 1 0 0;#P user hslider 645 48 18 128 128 1 0 0;#P comment 645 34 49 196617 /cf2/ctl;#N vpatcher 236 284 939 648;#P window setfont "Sans Serif" 9.;#P flonum 298 194 42 9 0 0 0 3 0 0 0 221 221 221 222 222 222 0 0 0;#P flonum 186 194 42 9 0 0 0 3 0 0 0 221 221 221 222 222 222 0 0 0;#P flonum 590 187 42 9 0 0 0 3 0 0 0 221 221 221 222 222 222 0 0 0;#P flonum 515 187 42 9 0 0 0 3 0 0 0 221 221 221 222 222 222 0 0 0;#P flonum 440 187 42 9 0 0 0 3 0 0 0 221 221 221 222 222 222 0 0 0;#P window setfont Times 9.;#P window linecount 0;#P newex 590 161 54 1310729 unpack 0. 0;#P newex 590 140 30 1310729 t l 50;#P window setfont "Sans Serif" 9.;#P newex 590 233 69 196617 prepend shift;#P newex 590 212 58 196617 pack 0. 50;#P window setfont Times 9.;#P newex 590 120 46 1310729 r $1/shift;#B color 11;#P newex 515 161 54 1310729 unpack 0. 0;#P newex 515 140 30 1310729 t l 50;#P window setfont "Sans Serif" 9.;#P newex 515 233 63 196617 prepend vfr;#P newex 515 212 58 196617 pack 0. 50;#P window setfont Times 9.;#P newex 515 120 39 1310729 r $1/vfr;#B color 11;#P newex 440 161 54 1310729 unpack 0. 0;#P newex 440 140 30 1310729 t l 50;#P window setfont "Sans Serif" 9.;#P newex 440 233 62 196617 prepend vib;#P newex 440 212 58 196617 pack 0. 50;#P window setfont Times 9.;#P newex 440 120 41 1310729 r $1/vib;#B color 11;#P newex 211 70 54 1310729 unpack 0. 0;#P newex 211 50 30 1310729 t l 50;#P newex 372 91 54 1310729 unpack 0. 0;#P newex 372 71 30 1310729 t l 50;#P window setfont "Sans Serif" 9.;#P newex 298 68 33 196617 - 24.;#P newex 298 233 61 196617 prepend bw;#P newex 298 212 58 196617 pack 0. 50;#P newex 298 88 70 196617 t b f;#P flonum 298 156 35 9 0 0 0 3 0 0 0 221 221 221 222 222 222 0 0 0;#P newex 298 136 93 196617 zmap 0 127 0 128;#P flonum 298 118 35 9 0 0 0 3 0 0 0 221 221 221 222 222 222 0 0 0;#P newex 298 174 29 196617 mtof;#P newex 186 233 57 196617 prepend cf;#P newex 186 212 58 196617 pack 0. 50;#P newex 162 93 83 196617 t 50 b f 0;#P flonum 186 156 35 9 0 0 0 3 0 0 0 221 221 221 222 222 222 0 0 0;#P newex 186 136 93 196617 zmap 0 127 0 128;#P flonum 186 118 35 9 0 0 0 3 0 0 0 221 221 221 222 222 222 0 0 0;#P message 108 176 20 196617 0.5;#P newex 108 155 45 196617 loadbang;#P newex 186 174 29 196617 mtof;#P message 122 233 60 196617 phase 0 0 0;#P flonum 108 195 35 9 0. 1. 3 3 0 0 0 221 221 221 222 222 222 0 0 0;#P message 108 215 43 196617 amp \$1;#P newex 50 112 29 196617 mtof;#P message 50 135 44 196617 freq \$1;#P newex 50 289 30 196617 paf~;#B color 5;#P inlet 50 30 15 0;#P inlet 372 51 15 0;#P inlet 211 30 15 0;#P outlet 50 311 15 0;#P connect 3 0 6 0;#P connect 6 0 5 0;#P fasten 43 0 4 0 595 258 55 258;#P fasten 38 0 4 0 520 258 55 258;#P fasten 33 0 4 0 445 258 55 258;#P fasten 25 0 4 0 303 258 55 258;#P fasten 18 0 4 0 191 258 55 258;#P fasten 9 0 4 0 127 258 55 258;#P fasten 7 0 4 0 113 258 55 258;#P connect 5 0 4 0;#P connect 4 0 0 0;#P connect 11 0 12 0;#P connect 12 0 8 0;#P connect 8 0 7 0;#P connect 11 0 9 0;#P connect 3 0 16 0;#P connect 30 0 13 0;#P connect 16 1 13 0;#P connect 13 0 14 0;#P connect 14 0 15 0;#P connect 15 0 10 0;#P connect 10 0 49 0;#P connect 49 0 17 0;#P connect 17 0 18 0;#P connect 1 0 29 0;#P connect 29 0 30 0;#P connect 29 1 17 1;#P connect 16 0 17 1;#P connect 30 1 17 1;#P connect 16 3 17 1;#P connect 16 2 14 3;#P connect 15 0 26 0;#P connect 26 0 23 0;#P connect 28 0 20 0;#P connect 23 0 20 0;#P connect 20 0 21 0;#P connect 21 0 22 0;#P connect 22 0 19 0;#P connect 19 0 50 0;#P connect 50 0 24 0;#P connect 24 0 25 0;#P connect 30 1 24 1;#P connect 29 1 24 1;#P connect 16 3 24 1;#P connect 16 0 24 1;#P connect 28 1 24 1;#P connect 27 1 24 1;#P connect 23 1 21 3;#P connect 2 0 27 0;#P connect 27 0 28 0;#P connect 31 0 34 0;#P connect 34 0 35 0;#P connect 35 0 46 0;#P connect 46 0 32 0;#P connect 32 0 33 0;#P connect 35 1 32 1;#P connect 34 1 32 1;#P connect 36 0 39 0;#P connect 39 0 40 0;#P connect 40 0 47 0;#P connect 47 0 37 0;#P connect 37 0 38 0;#P connect 39 1 37 1;#P connect 40 1 37 1;#P connect 41 0 44 0;#P connect 44 0 45 0;#P connect 45 0 48 0;#P connect 48 0 42 0;#P connect 42 0 43 0;#P connect 45 1 42 1;#P connect 44 1 42 1;#P pop;#P newobj 43 305 60 196617 p formant1;#B color 6;#P window setfont Times 9.;#P newex 783 600 73 1310729 zmap 0 1 0 1000;#P newex 783 578 36 1310729 pow 2.;#P newex 783 557 33 1310729 / 127.;#P window setfont "Sans Serif" 9.;#P flonum 740 539 35 9 0 0 0 3 0 0 0 221 221 221 222 222 222 0 0 0;#P window setfont Times 9.;#P newex 783 642 47 1310729 s $1/shift;#B color 11;#P newex 783 621 55 1310729 pack 0. 150;#P window setfont "Sans Serif" 9.;#P comment 783 523 47 196617 /shift;#P user hslider 783 536 18 128 128 1 0 0;#P window setfont Times 9.;#P newex 780 455 66 1310729 zmap 0 1 0 10;#P newex 780 433 41 1310729 pow 2.5;#P newex 780 412 33 1310729 / 127.;#P window setfont "Sans Serif" 9.;#P flonum 737 394 35 9 0 0 0 3 0 0 0 221 221 221 222 222 222 0 0 0;#P window setfont Times 9.;#P newex 780 497 40 1310729 s $1/vfr;#B color 11;#P newex 780 476 55 1310729 pack 0. 150;#P window setfont "Sans Serif" 9.;#P comment 780 378 47 196617 /vfr;#P user hslider 780 391 18 128 128 1 0 0;#P window setfont Times 9.;#P newex 781 310 66 1310729 zmap 0 1 0 10;#P newex 781 288 41 1310729 pow 2.5;#P newex 781 267 33 1310729 / 127.;#P window setfont "Sans Serif" 9.;#P flonum 738 249 35 9 0 0 0 3 0 0 0 221 221 221 222 222 222 0 0 0;#P window setfont Times 9.;#P newex 781 352 42 1310729 s $1/vib;#B color 11;#P newex 781 331 55 1310729 pack 0. 150;#P window setfont "Sans Serif" 9.;#P comment 781 233 47 196617 /vib;#P user hslider 781 246 18 128 128 1 0 0;#P window setfont Times 9.;#P newex 498 175 58 1310729 s $1/bw1/ctl;#B color 11;#P newex 498 154 55 1310729 pack 0. 100;#P newex 68 261 53 1310729 r $1/cf1/ctl;#B color 11;#P newex 498 92 54 1310729 s $1/cf1/ctl;#B color 11;#P newex 498 71 55 1310729 pack 0. 200;#P newex 93 282 57 1310729 r $1/bw1/ctl;#B color 11;#P window setfont "Sans Serif" 9.;#P comment 498 119 53 196617 /bw1/ctl;#P user hslider 498 132 18 128 128 1 0 0;#P user hslider 498 48 18 128 128 1 0 0;#P comment 498 34 49 196617 /cf1/ctl;#P newex 114 155 56 196617 pvar pitch;#P newex 158 204 58 196617 pvar amp1;#P newex 374 154 47 196617 pvar rel;#P newex 323 154 49 196617 pvar sus;#P newex 272 154 49 196617 pvar dec;#P flonum 399 346 35 9 0 0 0 3 0 0 0 221 221 221 222 222 222 0 0 0;#P objectname att;#P newex 223 154 47 196617 pvar att;#P newex 152 131 215 196617 unpack 0. 0 0. 0. 0. 0.;#P newex 152 108 123 196617 pack 0. 0 1. 20. 0.7 500.;#P comment 150 694 212 196617 [pitch] [vel] [att] [dec] [sus] [rel];#P newex 87 28 40 196617 notein;#P message 53 40 33 196617 clear;#P message 556 426 46 196617 legato 1;#P newex 556 404 48 196617 loadbang;#P message 64 549 26 196617 110;#P comment 482 406 65 196617 release (ms);#P comment 467 387 139 196617 sustain (factor of amplitude);#P comment 453 366 59 196617 decay (ms);#P flonum 60 366 35 9 0 0 0 3 0 0 0 221 221 221 222 222 222 0 0 0;#P objectname amp1;#P flonum 441 406 35 9 0 0 0 3 0 0 0 221 221 221 222 222 222 0 0 0;#P objectname rel;#P flonum 427 386 35 9 0 0 0 3 0 0 0 221 221 221 222 222 222 0 0 0;#P objectname sus;#P flonum 413 366 35 9 0 0 0 3 0 0 0 221 221 221 222 222 222 0 0 0;#P objectname dec;#P newex 60 463 66 196617 adsr~;#P comment 437 346 61 196617 attack (ms);#P newex 158 183 37 196617 pow 2;#P newex 176 156 40 196617 / 127.;#P flonum 43 229 35 9 0 0 0 3 0 0 0 221 221 221 222 222 222 0 0 0;#P objectname pitch;#P user kslider 87 63 35 1 12 96 19 7 1 128 128 128 128 128 128 255 255 255 0 0 0 0 0 0;#P user gain~ 43 572 24 25 158 0 1.071519 7.94321 10.;#P comment 158 623 188 196617 shift: frequency shift;#P comment 158 607 188 196617 vfr: vibrato frequency;#P comment 158 592 188 196617 vib: vibrato depth;#P comment 158 577 188 196617 bw: bandwidth of formant;#P comment 158 562 188 196617 cf: center frequency of formant;#P comment 158 547 188 196617 amp: amplitude;#P newex 43 629 29 196617 dac~;#B color 5;#P comment 71 603 42 196617 volume;#P comment 158 532 188 196617 freq: fundamental frequency;#P window linecount 3;#P comment 157 639 189 196617 phase: phase arguements \, base osculator \, frequency shift \, osculator vibrato osculator;#P connect 12 0 73 0;#P connect 73 0 97 0;#P connect 97 0 96 0;#P connect 100 0 96 0;#P connect 103 0 96 0;#P connect 24 0 10 0;#P connect 96 0 10 0;#P connect 10 0 3 0;#P connect 26 0 16 0;#P connect 20 0 16 0;#P connect 16 0 97 1;#P connect 10 0 3 1;#P connect 46 0 73 1;#P connect 33 0 16 1;#P connect 28 0 11 0;#P connect 27 0 11 0;#P connect 17 0 16 2;#P connect 43 0 73 2;#P connect 18 0 16 3;#P connect 31 0 38 0;#P connect 19 0 16 4;#P fasten 12 0 92 0 48 251 156 251;#P connect 92 0 100 0;#P connect 11 0 30 0;#P connect 30 0 31 0;#P connect 13 0 14 0;#P connect 14 0 37 0;#P connect 26 0 98 0;#P connect 99 0 98 0;#P connect 98 0 100 1;#P connect 11 1 30 1;#P connect 31 1 13 0;#P connect 91 0 92 1;#P connect 33 0 98 1;#P connect 17 0 98 2;#P connect 90 0 92 2;#P connect 18 0 98 3;#P connect 13 0 104 0;#P connect 104 0 105 0;#P connect 31 2 32 0;#P connect 19 0 98 4;#P fasten 12 0 95 0 48 251 260 251;#P connect 95 0 103 0;#P connect 31 3 34 0;#P connect 102 0 101 0;#P connect 26 0 101 0;#P connect 101 0 103 1;#P connect 13 0 106 0;#P connect 106 0 107 0;#P connect 94 0 95 1;#P connect 33 0 101 1;#P connect 17 0 101 2;#P connect 93 0 95 2;#P connect 18 0 101 3;#P connect 31 4 35 0;#P connect 19 0 101 4;#P connect 31 5 36 0;#P connect 114 0 108 0;#P connect 108 0 111 0;#P connect 111 0 112 0;#P connect 113 0 110 0;#P connect 112 0 110 0;#P connect 28 1 11 1;#P connect 40 0 44 0;#P connect 44 0 45 0;#P connect 41 0 47 0;#P connect 47 0 48 0;#P connect 111 1 113 0;#P connect 25 0 26 0;#P connect 75 0 78 0;#P connect 78 0 79 0;#P connect 76 0 80 0;#P connect 80 0 81 0;#P connect 57 0 62 0;#P connect 62 0 63 0;#P connect 63 0 64 0;#P connect 61 0 59 0;#P connect 64 0 59 0;#P connect 59 0 60 0;#P connect 49 0 54 0;#P connect 54 0 55 0;#P connect 55 0 56 0;#P connect 53 0 51 0;#P connect 56 0 51 0;#P connect 51 0 52 0;#P connect 65 0 70 0;#P connect 70 0 71 0;#P connect 71 0 72 0;#P connect 69 0 67 0;#P connect 72 0 67 0;#P connect 67 0 68 0;#P connect 83 0 86 0;#P connect 86 0 87 0;#P connect 84 0 88 0;#P connect 88 0 89 0;#P pop;