max v2;#N vpatcher 143 44 1371 900;#P origin 0 -1;#P window setfont "Sans Serif" 9.;#P flonum 23 369 51 9 0 0 0 3 0 0 0 221 221 221 222 222 222 0 0 0;#P objectname pitch[2];#P flonum 10 330 51 9 0 0 0 3 0 0 0 221 221 221 222 222 222 0 0 0;#P objectname pitch[1];#P window linecount 1;#P newex 23 386 29 196617 t b f;#P newex 10 406 27 196617 + 0.;#P window setfont Times 9.;#P newex 23 350 87 1310729 r /tape/tuning/offset;#B color 11;#P window setfont "Sans Serif" 9.;#P newex 535 396 40 196617 line 0.;#P newex 217 395 61 196617 unpack 0. 0;#P newex 10 482 51 196617 pack 0. 0;#P newex 10 226 30 196617 t f 0;#P newex 809 400 62 196617 pvar active;#B color 13;#P newex 809 380 48 196617 split 1 1;#P newex 809 360 27 196617 > 0.;#P newex 535 355 118 196617 sprintf set %s/vel/%ld;#P newex 535 375 44 196617 receive;#B color 11;#P newex 217 355 126 196617 sprintf set %s/pitch/%ld;#P newex 217 375 44 196617 receive;#B color 11;#P message 1059 742 105 196617 $1 \$1;#P newex 88 387 124 196617 sprintf set %s/bend/%ld;#P newex 88 407 44 196617 receive;#B color 11;#P newex 1095 232 21 196617 t 0;#P newex 1095 259 81 196617 pvar interptime;#P flonum 658 393 79 9 0 0 0 3 0 0 0 153 153 255 222 222 222 0 0 0;#P objectname interptime;#P newex 903 259 83 196617 pvar fshiftamp3;#P newex 903 279 83 196617 pvar fshiftamp2;#P newex 903 299 83 196617 pvar fshiftamp1;#P newex 903 319 83 196617 pvar fshiftamp0;#P newex 801 259 84 196617 pvar fshiftfreq3;#P newex 801 279 84 196617 pvar fshiftfreq2;#P newex 801 299 84 196617 pvar fshiftfreq1;#P newex 801 319 84 196617 pvar fshiftfreq0;#P flonum 114 652 35 9 0 0 0 3 0 0 0 153 153 255 222 222 222 0 0 0;#P objectname fshiftamp0;#P comment 148 652 59 196617 fshiftamp0;#P flonum 101 634 35 9 0 0 0 3 0 0 0 153 153 255 222 222 222 0 0 0;#P objectname fshiftfreq0;#P comment 135 634 60 196617 fshiftfreq0;#P flonum 836 652 35 9 0 0 0 3 0 0 0 153 153 255 222 222 222 0 0 0;#P objectname fshiftamp3;#P comment 870 652 59 196617 fshiftamp3;#P flonum 822 634 35 9 0 0 0 3 0 0 0 153 153 255 222 222 222 0 0 0;#P objectname fshiftfreq3;#P comment 856 634 60 196617 fshiftfreq3;#P flonum 568 652 35 9 0 0 0 3 0 0 0 153 153 255 222 222 222 0 0 0;#P objectname fshiftamp2;#P comment 602 652 59 196617 fshiftamp2;#P flonum 554 634 35 9 0 0 0 3 0 0 0 153 153 255 222 222 222 0 0 0;#P objectname fshiftfreq2;#P comment 588 634 60 196617 fshiftfreq2;#P flonum 300 652 35 9 0 0 0 3 0 0 0 153 153 255 222 222 222 0 0 0;#P objectname fshiftamp1;#P comment 334 652 59 196617 fshiftamp1;#P flonum 286 634 35 9 0 0 0 3 0 0 0 153 153 255 222 222 222 0 0 0;#P objectname fshiftfreq1;#P comment 320 634 60 196617 fshiftfreq1;#P newex 70 306 32 196617 t 0 0;#P newex 586 810 62 196617 pvar active;#B color 13;#P newex 586 789 21 196617 t 0;#P newex 586 767 36 196617 edge~;#P newex 586 745 37 196617 ==~ 0;#P flonum 724 508 49 9 0 0 0 3 0 0 0 153 153 255 222 222 222 0 0 0;#P objectname cf3;#P comment 774 508 23 196617 cf3;#P comment 885 670 31 196617 pan3;#P comment 843 616 29 196617 rel3;#P comment 829 598 31 196617 sus3;#P comment 815 580 31 196617 dec3;#P comment 801 562 29 196617 att3;#P comment 787 544 30 196617 vel3;#N vpatcher 194 165 1371 812;#P origin 0 -62;#P window setfont "Sans Serif" 9.;#P user number~ 975 533 1014 548 9 3 3 2 0. 0. 0 0. 250 0. 0 0 0 221 221 221 222 222 222 0 0 0;#P window linecount 1;#P newex 716 177 155 196617 sprintf set %s/f3/env/rel/%ld;#P newex 716 197 44 196617 receive;#B color 11;#P newex 664 154 157 196617 sprintf set %s/f3/env/sus/%ld;#P newex 664 174 44 196617 receive;#B color 11;#P newex 612 131 157 196617 sprintf set %s/f3/env/dec/%ld;#P newex 612 151 44 196617 receive;#B color 11;#P newex 560 108 155 196617 sprintf set %s/f3/env/att/%ld;#P newex 560 128 44 196617 receive;#B color 11;#P newex 999 329 135 196617 sprintf set %s/f3/pan/%ld;#P newex 999 349 44 196617 receive;#B color 11;#P window setfont Times 9.;#P newex 954 502 30 1310729 line~;#P window setfont "Sans Serif" 9.;#P newex 954 458 54 196617 pack 0. 5;#P flonum 954 439 42 9 0. 1. 3 3 0 0 0 221 221 221 222 222 222 0 0 0;#P window setfont Times 9.;#P newex 954 418 54 1310729 unpack 0. 0;#P newex 954 397 27 1310729 t l 5;#P window setfont "Sans Serif" 9.;#P newex 954 375 73 196617 r $1/f3/pan-;#B color 11;#N comlet pan;#P inlet 969 480 15 0;#P window linecount 0;#P newex 834 276 169 196617 sprintf set %s/f3/fshift/amp/%ld;#P newex 834 296 44 196617 receive;#B color 11;#P newex 616 271 170 196617 sprintf set %s/f3/fshift/freq/%ld;#P newex 616 291 44 196617 receive;#B color 11;#P newex 361 236 138 196617 sprintf set %s/f3/amp/%ld;#P newex 361 256 44 196617 receive;#B color 11;#P newex 333 121 176 196617 sprintf set %s/f3/bw/ctlrange/%ld;#P newex 333 141 44 196617 receive;#B color 11;#P newex 224 97 151 196617 sprintf set %s/f3/bw/ctl/%ld;#P newex 224 117 44 196617 receive;#B color 11;#P newex 145 61 129 196617 sprintf set %s/f3/cf/%ld;#P newex 145 81 44 196617 receive;#B color 11;#N comlet instance name and voice number;#P inlet 1069 21 15 0;#P comment 1085 21 65 196617 instance name and voice number;#P newex 379 340 52 196617 change 0.;#P flonum 1019 169 69 9 0 0 0 3 0 0 0 221 221 221 222 222 222 0 0 0;#N comlet interp time;#P inlet 1019 149 15 0;#P comment 1035 149 60 196617 interp time;#P flonum 48 177 42 9 0 0 0 3 0 0 0 221 221 221 222 222 222 0 0 0;#P flonum 123 384 42 9 0 0 0 3 0 0 0 221 221 221 222 222 222 0 0 0;#P message 42 408 33 196617 debug;#P window setfont Times 9.;#P newex 213 336 27 1310729 t f 0;#P window setfont "Sans Serif" 9.;#P newex 276 167 141 196617 r $1/f3/bw/ctlrange-;#B color 11;#P newex 183 141 116 196617 r $1/f3/bw/ctl-;#B color 11;#P newex 111 119 94 196617 r $1/f3/cf-;#B color 11;#P newex 270 284 103 196617 r $1/f3/amp-;#B color 11;#N vpatcher 677 76 878 274;#P inlet 104 30 15 0;#P window setfont Times 9.;#P newex 31 120 46 1310729 +~;#P newex 67 90 76 1310729 *~;#P newex 67 62 47 1310729 freqshift~;#P inlet 133 31 15 0;#P inlet 31 31 15 0;#P outlet 31 142 15 0;#P connect 1 0 5 0;#P connect 5 0 0 0;#P connect 1 0 3 0;#P connect 3 0 4 0;#P connect 4 0 5 1;#P connect 6 0 3 1;#P connect 2 0 4 1;#P pop;#P newobj 29 494 770 196617 p fshift-vib;#B color 6;#P window setfont Times 9.;#P newex 594 449 30 1310729 line~;#P window setfont "Sans Serif" 9.;#P newex 594 405 54 196617 pack 0. 5;#P flonum 594 386 42 9 0 0 0 3 0 0 0 221 221 221 222 222 222 0 0 0;#P window setfont Times 9.;#P newex 594 365 54 1310729 unpack 0. 0;#P newex 594 344 27 1310729 t l 5;#P window setfont "Sans Serif" 9.;#P newex 594 322 177 196617 r $1/f3/fshift/freq-;#B color 11;#P inlet 614 428 15 0;#P window setfont Times 9.;#P newex 789 449 30 1310729 line~;#P window setfont "Sans Serif" 9.;#P newex 789 405 54 196617 pack 0. 5;#P flonum 789 386 42 9 0. 1. 3 3 0 0 0 221 221 221 222 222 222 0 0 0;#P window setfont Times 9.;#P newex 789 365 54 1310729 unpack 0. 0;#P newex 789 344 27 1310729 t l 5;#P window setfont "Sans Serif" 9.;#P newex 789 322 176 196617 r $1/f3/fshift/amp-;#B color 11;#P inlet 809 428 15 0;#P message 453 349 46 196617 legato 1;#P newex 453 327 48 196617 loadbang;#N comlet cf;#P inlet 123 365 15 0;#N comlet amp;#P inlet 330 371 15 0;#P newex 29 370 67 196617 prepend freq;#P message 111 342 31 196617 \$1 5;#P flonum 111 309 42 9 0 0 0 3 0 0 0 221 221 221 222 222 222 0 0 0;#P newex 111 284 40 196617 line 0.;#P flonum 276 187 42 9 0 0 0 3 0 0 0 221 221 221 222 222 222 0 0 0;#P flonum 293 231 42 9 0 0 0 3 0 0 0 221 221 221 222 222 222 0 0 0;#P window setfont Times 9.;#P newex 276 210 27 1310729 t b f;#P window setfont "Sans Serif" 9.;#P flonum 183 357 42 9 0 0 0 3 0 0 0 221 221 221 222 222 222 0 0 0;#P window setfont Times 9.;#P newex 183 310 27 1310729 t b f;#P window setfont "Sans Serif" 9.;#P flonum 183 291 42 9 0 0 0 3 0 0 0 221 221 221 222 222 222 0 0 0;#P window setfont Times 9.;#P newex 183 249 33 1310729 pow 2;#P newex 183 270 66 1310729 zmap 0 1 0 4;#P newex 183 228 33 1310729 / 127.;#P newex 183 336 27 1310729 * 0.;#P window setfont "Sans Serif" 9.;#P flonum 183 209 42 9 0. 127. 3 3 0 0 0 221 221 221 222 222 222 0 0 0;#P window setfont Times 9.;#P newex 183 183 68 1310729 unpack 0. 0;#P newex 183 161 27 1310729 t l 5;#P window setfont "Sans Serif" 9.;#P newex 183 376 51 196617 pack 0. 5;#P newex 183 398 61 196617 prepend bw;#P flonum 111 237 42 9 0 0 0 3 0 0 0 221 221 221 222 222 222 0 0 0;#P window setfont Times 9.;#P newex 111 211 54 1310729 unpack 0. 0;#P newex 111 190 27 1310729 t l 0;#P window setfont "Sans Serif" 9.;#P newex 111 262 54 196617 pack 0. 0;#P window linecount 1;#N vpatcher 10 59 285 282;#P window setfont "Sans Serif" 9.;#P newex 121 50 47 196617 *~ 0.25;#P newex 161 99 31 196617 cos~;#P newex 121 99 31 196617 cos~;#P newex 98 131 27 196617 *~;#P newex 50 130 27 196617 *~;#P newex 161 78 48 196617 !-~ 0.25;#P inlet 121 30 15 0;#P inlet 50 55 15 0;#P outlet 98 153 15 0;#P outlet 50 152 15 0;#P connect 2 0 5 0;#P connect 5 0 0 0;#P connect 7 0 5 1;#P connect 2 0 6 0;#P connect 6 0 1 0;#P connect 8 0 6 1;#P connect 3 0 9 0;#P connect 9 0 7 0;#P connect 9 0 4 0;#P connect 4 0 8 0;#P pop;#P newobj 29 570 48 196617 p pancos;#B color 6;#P window setfont Times 9.;#P window linecount 0;#P newex 379 412 163 1310729 adsr~;#P newex 270 412 58 1310729 prepend amp;#P window setfont "Sans Serif" 9.;#P newex 270 370 54 196617 pack 0. 5;#P flonum 270 351 42 9 0. 1. 3 3 0 0 0 221 221 221 222 222 222 0 0 0;#P window setfont Times 9.;#P newex 270 330 54 1310729 unpack 0. 0;#P newex 270 309 27 1310729 t l 5;#P newex 29 540 27 1310729 *~;#P inlet 29 120 15 0;#N comlet vel;#P inlet 379 318 15 0;#N comlet att;#P inlet 417 392 15 0;#N comlet dec;#P inlet 455 392 15 0;#N comlet sus;#P inlet 493 392 15 0;#N comlet rel;#P inlet 531 392 15 0;#P outlet 67 591 15 0;#P outlet 29 592 15 0;#N comlet mute;#P outlet 398 443 15 0;#P window setfont "Sans Serif" 9.;#P newex 29 459 30 196617 paf~;#B color 5;#P newex 111 427 57 196617 prepend cf;#P connect 10 0 41 0;#P connect 66 0 1 0;#P connect 16 0 1 0;#P connect 23 0 1 0;#P connect 0 0 1 0;#P connect 41 0 1 0;#P connect 1 0 60 0;#P connect 60 0 11 0;#P connect 11 0 18 0;#P connect 18 0 3 0;#P fasten 17 0 11 1 384 531 51 531;#P connect 10 0 68 0;#P fasten 93 0 18 1 959 563 72 563;#P connect 18 1 4 0;#P connect 62 0 20 0;#P connect 75 0 20 0;#P connect 20 0 21 0;#P connect 21 0 22 0;#P connect 22 0 19 0;#P connect 19 0 38 0;#P connect 38 0 39 0;#P connect 39 0 40 0;#P connect 67 0 0 0;#P connect 40 0 0 0;#P connect 43 0 67 0;#P connect 74 0 76 0;#P connect 76 0 75 0;#P connect 21 1 19 1;#P connect 20 1 19 1;#P connect 63 0 25 0;#P connect 77 0 25 0;#P connect 25 0 26 0;#P connect 26 0 27 0;#P connect 35 0 27 0;#P connect 27 0 29 0;#P connect 29 0 31 0;#P connect 31 0 30 0;#P connect 30 0 32 0;#P connect 32 0 33 0;#P connect 33 0 28 0;#P connect 65 0 28 0;#P connect 39 0 28 0;#P connect 28 0 34 0;#P connect 34 0 24 0;#P connect 24 0 23 0;#P connect 33 1 28 1;#P connect 67 0 65 0;#P connect 74 0 78 0;#P connect 78 0 77 0;#P connect 26 1 24 1;#P connect 25 1 24 1;#P connect 65 1 24 1;#P connect 36 0 30 4;#P connect 61 0 12 0;#P connect 81 0 12 0;#P connect 12 0 13 0;#P connect 13 0 14 0;#P connect 14 0 15 0;#P connect 15 0 16 0;#P connect 42 0 16 0;#P connect 64 0 37 0;#P connect 79 0 37 0;#P connect 37 0 35 0;#P connect 35 1 36 0;#P connect 13 1 15 1;#P connect 12 1 15 1;#P connect 74 0 80 0;#P connect 80 0 79 0;#P connect 74 0 82 0;#P connect 82 0 81 0;#P connect 9 0 72 0;#P connect 45 0 17 0;#P connect 72 0 17 0;#P connect 17 0 2 0;#P connect 59 0 60 1;#P connect 8 0 17 1;#P connect 96 0 17 1;#P connect 44 0 45 0;#P connect 7 0 17 2;#P connect 98 0 17 2;#P connect 6 0 17 3;#P connect 100 0 17 3;#P connect 5 0 17 4;#P connect 102 0 17 4;#P connect 74 0 97 0;#P connect 97 0 96 0;#P connect 54 0 55 0;#P connect 83 0 55 0;#P connect 55 0 56 0;#P connect 56 0 57 0;#P connect 57 0 58 0;#P connect 58 0 59 0;#P connect 53 0 59 0;#P connect 74 0 99 0;#P connect 99 0 98 0;#P connect 71 0 59 1;#P connect 74 0 84 0;#P connect 84 0 83 0;#P connect 56 1 58 1;#P connect 55 1 58 1;#P connect 74 0 101 0;#P connect 101 0 100 0;#P connect 74 0 103 0;#P connect 103 0 102 0;#P connect 47 0 48 0;#P connect 85 0 48 0;#P connect 48 0 49 0;#P connect 49 0 50 0;#P connect 50 0 51 0;#P connect 46 0 52 0;#P connect 51 0 52 0;#P connect 52 0 60 2;#P connect 71 0 52 1;#P connect 48 1 51 1;#P connect 49 1 51 1;#P connect 74 0 86 0;#P connect 86 0 85 0;#P connect 94 0 89 0;#P connect 88 0 89 0;#P connect 89 0 90 0;#P connect 90 0 91 0;#P connect 91 0 92 0;#P connect 92 0 93 0;#P connect 87 0 93 0;#P connect 71 0 93 1;#P connect 93 0 104 0;#P connect 90 1 92 1;#P connect 89 1 92 1;#P connect 74 0 95 0;#P connect 95 0 94 0;#P connect 70 0 71 0;#P pop;#P newobj 710 694 183 196617 p F3(paf);#B color 6;#P flonum 850 670 35 9 0 0 0 3 0 0 0 153 153 255 222 222 222 0 0 0;#P objectname pan3;#P flonum 738 526 35 9 0 0 0 3 0 0 0 153 153 255 222 222 222 0 0 0;#P objectname amp3;#P flonum 752 544 35 9 0 0 0 3 0 0 0 153 153 255 222 222 222 0 0 0;#P objectname vel3;#P flonum 808 616 35 9 0. 0 1 3 0 0 0 153 153 255 222 222 222 0 0 0;#P objectname rel3;#P flonum 794 598 35 9 0. 0 1 3 0 0 0 153 153 255 222 222 222 0 0 0;#P objectname sus3;#P flonum 780 580 35 9 0. 0 1 3 0 0 0 153 153 255 222 222 222 0 0 0;#P objectname dec3;#P flonum 766 562 35 9 0. 0 1 3 0 0 0 153 153 255 222 222 222 0 0 0;#P objectname att3;#P comment 772 526 34 196617 amp3;#P flonum 456 508 49 9 0 0 0 3 0 0 0 153 153 255 222 222 222 0 0 0;#P objectname cf2;#P comment 506 508 23 196617 cf2;#P comment 617 670 31 196617 pan2;#P comment 575 616 29 196617 rel2;#P comment 561 598 31 196617 sus2;#P comment 547 580 31 196617 dec2;#P comment 533 562 29 196617 att2;#P comment 519 544 30 196617 vel2;#N vpatcher 194 165 1371 812;#P origin 0 -62;#P window setfont "Sans Serif" 9.;#P user number~ 969 547 1008 562 9 3 3 2 0. 0. 0 0. 250 0. 0 0 0 221 221 221 222 222 222 0 0 0;#P window linecount 1;#P newex 678 190 155 196617 sprintf set %s/f2/env/rel/%ld;#P newex 678 210 44 196617 receive;#B color 11;#P newex 629 169 157 196617 sprintf set %s/f2/env/sus/%ld;#P newex 629 190 44 196617 receive;#B color 11;#P newex 577 149 157 196617 sprintf set %s/f2/env/dec/%ld;#P newex 577 169 44 196617 receive;#B color 11;#P newex 525 126 155 196617 sprintf set %s/f2/env/att/%ld;#P newex 525 146 44 196617 receive;#B color 11;#P newex 1001 343 135 196617 sprintf set %s/f2/pan/%ld;#P newex 1001 363 44 196617 receive;#B color 11;#P window setfont Times 9.;#P newex 956 516 30 1310729 line~;#P window setfont "Sans Serif" 9.;#P newex 956 472 54 196617 pack 0. 5;#P flonum 956 453 42 9 0. 1. 3 3 0 0 0 221 221 221 222 222 222 0 0 0;#P window setfont Times 9.;#P newex 956 432 54 1310729 unpack 0. 0;#P newex 956 411 27 1310729 t l 5;#P window setfont "Sans Serif" 9.;#P newex 956 389 73 196617 r $1/f2/pan-;#B color 11;#N comlet pan;#P inlet 971 494 15 0;#P window linecount 3;#P comment 1073 21 70 196617 instance name and voice number;#P window linecount 0;#P newex 834 276 169 196617 sprintf set %s/f2/fshift/amp/%ld;#P newex 834 296 44 196617 receive;#B color 11;#P newex 653 276 170 196617 sprintf set %s/f2/fshift/freq/%ld;#P newex 653 296 44 196617 receive;#B color 11;#P newex 361 236 138 196617 sprintf set %s/f2/amp/%ld;#P newex 361 256 44 196617 receive;#B color 11;#P newex 333 121 176 196617 sprintf set %s/f2/bw/ctlrange/%ld;#P newex 333 141 44 196617 receive;#B color 11;#P newex 224 97 151 196617 sprintf set %s/f2/bw/ctl/%ld;#P newex 224 117 44 196617 receive;#B color 11;#P newex 145 61 129 196617 sprintf set %s/f2/cf/%ld;#P newex 145 81 44 196617 receive;#B color 11;#N comlet instance name and voice number;#P inlet 1058 21 15 0;#P newex 379 340 52 196617 change 0.;#P flonum 1019 155 69 9 0 0 0 3 0 0 0 221 221 221 222 222 222 0 0 0;#N comlet interp time;#P inlet 1019 135 15 0;#P comment 1035 135 60 196617 interp time;#P flonum 46 187 42 9 0 0 0 3 0 0 0 221 221 221 222 222 222 0 0 0;#P flonum 123 384 42 9 0 0 0 3 0 0 0 221 221 221 222 222 222 0 0 0;#P message 42 408 33 196617 debug;#P window setfont Times 9.;#P newex 213 336 27 1310729 t f 0;#P window setfont "Sans Serif" 9.;#P newex 276 167 141 196617 r $1/f2/bw/ctlrange-;#B color 11;#P newex 183 141 116 196617 r $1/f2/bw/ctl-;#B color 11;#P newex 111 119 94 196617 r $1/f2/cf-;#B color 11;#P newex 270 284 103 196617 r $1/f2/amp-;#B color 11;#N vpatcher 677 76 878 274;#P inlet 104 30 15 0;#P window setfont Times 9.;#P newex 31 120 46 1310729 +~;#P newex 67 90 76 1310729 *~;#P newex 67 62 47 1310729 freqshift~;#P inlet 133 31 15 0;#P inlet 31 31 15 0;#P outlet 31 142 15 0;#P connect 1 0 5 0;#P connect 5 0 0 0;#P connect 1 0 3 0;#P connect 3 0 4 0;#P connect 4 0 5 1;#P connect 6 0 3 1;#P connect 2 0 4 1;#P pop;#P newobj 29 494 770 196617 p fshift-vib;#B color 6;#P window setfont Times 9.;#P newex 606 459 30 1310729 line~;#P window setfont "Sans Serif" 9.;#P newex 606 415 54 196617 pack 0. 5;#P flonum 606 396 42 9 0 0 0 3 0 0 0 221 221 221 222 222 222 0 0 0;#P window setfont Times 9.;#P newex 606 375 54 1310729 unpack 0. 0;#P newex 606 354 27 1310729 t l 5;#P window setfont "Sans Serif" 9.;#P newex 606 332 177 196617 r $1/f2/fshift/freq-;#B color 11;#P inlet 626 438 15 0;#P window setfont Times 9.;#P newex 789 449 30 1310729 line~;#P window setfont "Sans Serif" 9.;#P newex 789 405 54 196617 pack 0. 5;#P flonum 789 386 42 9 0. 1. 3 3 0 0 0 221 221 221 222 222 222 0 0 0;#P window setfont Times 9.;#P newex 789 365 54 1310729 unpack 0. 0;#P newex 789 344 27 1310729 t l 5;#P window setfont "Sans Serif" 9.;#P newex 789 322 176 196617 r $1/f2/fshift/amp-;#B color 11;#P inlet 809 428 15 0;#P message 456 339 46 196617 legato 1;#P newex 456 317 48 196617 loadbang;#N comlet cf;#P inlet 123 365 15 0;#N comlet amp;#P inlet 330 371 15 0;#P newex 29 370 67 196617 prepend freq;#P message 111 342 31 196617 \$1 5;#P flonum 111 309 42 9 0 0 0 3 0 0 0 221 221 221 222 222 222 0 0 0;#P newex 111 284 40 196617 line 0.;#P flonum 276 187 42 9 0 0 0 3 0 0 0 221 221 221 222 222 222 0 0 0;#P flonum 293 231 42 9 0 0 0 3 0 0 0 221 221 221 222 222 222 0 0 0;#P window setfont Times 9.;#P newex 276 210 27 1310729 t b f;#P window setfont "Sans Serif" 9.;#P flonum 183 357 42 9 0 0 0 3 0 0 0 221 221 221 222 222 222 0 0 0;#P window setfont Times 9.;#P newex 183 310 27 1310729 t b f;#P window setfont "Sans Serif" 9.;#P flonum 183 291 42 9 0 0 0 3 0 0 0 221 221 221 222 222 222 0 0 0;#P window setfont Times 9.;#P newex 183 249 33 1310729 pow 2;#P newex 183 270 66 1310729 zmap 0 1 0 4;#P newex 183 228 33 1310729 / 127.;#P newex 183 336 27 1310729 * 0.;#P window setfont "Sans Serif" 9.;#P flonum 183 209 42 9 0. 127. 3 3 0 0 0 221 221 221 222 222 222 0 0 0;#P window setfont Times 9.;#P newex 183 183 68 1310729 unpack 0. 0;#P newex 183 161 27 1310729 t l 5;#P window setfont "Sans Serif" 9.;#P newex 183 376 51 196617 pack 0. 5;#P newex 183 398 61 196617 prepend bw;#P flonum 111 237 42 9 0 0 0 3 0 0 0 221 221 221 222 222 222 0 0 0;#P window setfont Times 9.;#P newex 111 211 54 1310729 unpack 0. 0;#P newex 111 190 27 1310729 t l 0;#P window setfont "Sans Serif" 9.;#P newex 111 262 54 196617 pack 0. 0;#P window linecount 1;#N vpatcher 10 59 285 282;#P window setfont "Sans Serif" 9.;#P newex 121 50 47 196617 *~ 0.25;#P newex 161 99 31 196617 cos~;#P newex 121 99 31 196617 cos~;#P newex 98 131 27 196617 *~;#P newex 50 130 27 196617 *~;#P newex 161 78 48 196617 !-~ 0.25;#P inlet 121 30 15 0;#P inlet 50 55 15 0;#P outlet 98 153 15 0;#P outlet 50 152 15 0;#P connect 2 0 5 0;#P connect 5 0 0 0;#P connect 7 0 5 1;#P connect 2 0 6 0;#P connect 6 0 1 0;#P connect 8 0 6 1;#P connect 3 0 9 0;#P connect 9 0 7 0;#P connect 9 0 4 0;#P connect 4 0 8 0;#P pop;#P newobj 29 570 48 196617 p pancos;#B color 6;#P window setfont Times 9.;#P window linecount 0;#P newex 379 412 163 1310729 adsr~;#P newex 270 412 58 1310729 prepend amp;#P window setfont "Sans Serif" 9.;#P newex 270 370 54 196617 pack 0. 5;#P flonum 270 351 42 9 0. 1. 3 3 0 0 0 221 221 221 222 222 222 0 0 0;#P window setfont Times 9.;#P newex 270 330 54 1310729 unpack 0. 0;#P newex 270 309 27 1310729 t l 5;#P newex 29 540 27 1310729 *~;#P inlet 29 120 15 0;#N comlet vel;#P inlet 379 318 15 0;#N comlet att;#P inlet 417 392 15 0;#N comlet dec;#P inlet 455 392 15 0;#N comlet sus;#P inlet 493 392 15 0;#N comlet rel;#P inlet 531 392 15 0;#P outlet 66 592 15 0;#P outlet 29 592 15 0;#N comlet mute;#P outlet 398 443 15 0;#P window setfont "Sans Serif" 9.;#P newex 29 459 30 196617 paf~;#B color 5;#P newex 111 427 57 196617 prepend cf;#P connect 10 0 41 0;#P connect 66 0 1 0;#P connect 16 0 1 0;#P connect 23 0 1 0;#P connect 0 0 1 0;#P connect 41 0 1 0;#P connect 1 0 60 0;#P connect 60 0 11 0;#P connect 11 0 18 0;#P connect 18 0 3 0;#P connect 10 0 68 0;#P fasten 17 0 11 1 384 531 51 531;#P connect 18 1 4 0;#P fasten 93 0 18 1 961 563 72 563;#P connect 62 0 20 0;#P connect 74 0 20 0;#P connect 20 0 21 0;#P connect 21 0 22 0;#P connect 22 0 19 0;#P connect 19 0 38 0;#P connect 38 0 39 0;#P connect 39 0 40 0;#P connect 67 0 0 0;#P connect 40 0 0 0;#P connect 43 0 67 0;#P connect 73 0 75 0;#P connect 75 0 74 0;#P connect 21 1 19 1;#P connect 20 1 19 1;#P connect 63 0 25 0;#P connect 76 0 25 0;#P connect 25 0 26 0;#P connect 26 0 27 0;#P connect 35 0 27 0;#P connect 27 0 29 0;#P connect 29 0 31 0;#P connect 31 0 30 0;#P connect 30 0 32 0;#P connect 32 0 33 0;#P connect 33 0 28 0;#P connect 65 0 28 0;#P connect 39 0 28 0;#P connect 28 0 34 0;#P connect 34 0 24 0;#P connect 24 0 23 0;#P connect 33 1 28 1;#P connect 67 0 65 0;#P connect 73 0 77 0;#P connect 77 0 76 0;#P connect 26 1 24 1;#P connect 25 1 24 1;#P connect 65 1 24 1;#P connect 36 0 30 4;#P connect 61 0 12 0;#P connect 80 0 12 0;#P connect 12 0 13 0;#P connect 13 0 14 0;#P connect 14 0 15 0;#P connect 15 0 16 0;#P connect 42 0 16 0;#P connect 64 0 37 0;#P connect 78 0 37 0;#P connect 37 0 35 0;#P connect 35 1 36 0;#P connect 13 1 15 1;#P connect 12 1 15 1;#P connect 73 0 79 0;#P connect 79 0 78 0;#P connect 73 0 81 0;#P connect 81 0 80 0;#P connect 9 0 72 0;#P connect 45 0 17 0;#P connect 72 0 17 0;#P connect 17 0 2 0;#P connect 59 0 60 1;#P connect 8 0 17 1;#P connect 96 0 17 1;#P connect 7 0 17 2;#P connect 98 0 17 2;#P connect 44 0 45 0;#P connect 6 0 17 3;#P connect 100 0 17 3;#P connect 73 0 97 0;#P connect 97 0 96 0;#P connect 5 0 17 4;#P connect 102 0 17 4;#P connect 73 0 99 0;#P connect 99 0 98 0;#P connect 54 0 55 0;#P connect 82 0 55 0;#P connect 55 0 56 0;#P connect 56 0 57 0;#P connect 57 0 58 0;#P connect 58 0 59 0;#P connect 53 0 59 0;#P connect 71 0 59 1;#P connect 73 0 101 0;#P connect 101 0 100 0;#P connect 56 1 58 1;#P connect 55 1 58 1;#P connect 73 0 83 0;#P connect 83 0 82 0;#P connect 73 0 103 0;#P connect 103 0 102 0;#P connect 47 0 48 0;#P connect 84 0 48 0;#P connect 48 0 49 0;#P connect 49 0 50 0;#P connect 50 0 51 0;#P connect 46 0 52 0;#P connect 51 0 52 0;#P connect 52 0 60 2;#P connect 71 0 52 1;#P connect 48 1 51 1;#P connect 49 1 51 1;#P connect 73 0 85 0;#P connect 85 0 84 0;#P connect 94 0 89 0;#P connect 88 0 89 0;#P connect 89 0 90 0;#P connect 90 0 91 0;#P connect 91 0 92 0;#P connect 92 0 93 0;#P connect 87 0 93 0;#P connect 93 0 104 0;#P connect 71 0 93 1;#P connect 90 1 92 1;#P connect 89 1 92 1;#P connect 73 0 95 0;#P connect 95 0 94 0;#P connect 70 0 71 0;#P pop;#P newobj 442 694 183 196617 p F2(paf);#B color 6;#P flonum 582 670 35 9 0 0 0 3 0 0 0 153 153 255 222 222 222 0 0 0;#P objectname pan2;#P flonum 470 526 35 9 0 0 0 3 0 0 0 153 153 255 222 222 222 0 0 0;#P objectname amp2;#P flonum 484 544 35 9 0 0 0 3 0 0 0 153 153 255 222 222 222 0 0 0;#P objectname vel2;#P flonum 540 616 35 9 0. 0 1 3 0 0 0 153 153 255 222 222 222 0 0 0;#P objectname rel2;#P flonum 526 598 35 9 0. 0 1 3 0 0 0 153 153 255 222 222 222 0 0 0;#P objectname sus2;#P flonum 512 580 35 9 0. 0 1 3 0 0 0 153 153 255 222 222 222 0 0 0;#P objectname dec2;#P flonum 498 562 35 9 0. 0 1 3 0 0 0 153 153 255 222 222 222 0 0 0;#P objectname att2;#P comment 504 526 34 196617 amp2;#P flonum 188 508 49 9 0 0 0 3 0 0 0 153 153 255 222 222 222 0 0 0;#P objectname cf1;#P comment 238 508 23 196617 cf1;#P comment 349 670 31 196617 pan1;#P comment 307 616 29 196617 rel1;#P comment 293 598 31 196617 sus1;#P comment 279 580 31 196617 dec1;#P comment 265 562 29 196617 att1;#P comment 251 544 30 196617 vel1;#N vpatcher 23 112 1246 762;#P origin 0 -62;#P window setfont "Sans Serif" 9.;#P user number~ 965 564 1004 579 9 3 3 2 0. 0. 0 0. 250 0. 0 0 0 221 221 221 222 222 222 0 0 0;#P window linecount 1;#P newex 709 178 155 196617 sprintf set %s/f1/env/rel/%ld;#P newex 709 198 44 196617 receive;#B color 11;#P newex 657 155 157 196617 sprintf set %s/f1/env/sus/%ld;#P newex 657 175 44 196617 receive;#B color 11;#P newex 605 132 157 196617 sprintf set %s/f1/env/dec/%ld;#P newex 605 152 44 196617 receive;#B color 11;#P newex 553 109 155 196617 sprintf set %s/f1/env/att/%ld;#P newex 553 129 44 196617 receive;#B color 11;#P newex 995 362 135 196617 sprintf set %s/f1/pan/%ld;#P newex 995 382 44 196617 receive;#B color 11;#P window setfont Times 9.;#P newex 950 535 30 1310729 line~;#P window setfont "Sans Serif" 9.;#P newex 950 491 54 196617 pack 0. 5;#P flonum 950 472 42 9 0. 1. 3 3 0 0 0 221 221 221 222 222 222 0 0 0;#P window setfont Times 9.;#P newex 950 451 54 1310729 unpack 0. 0;#P newex 950 430 27 1310729 t l 5;#P window setfont "Sans Serif" 9.;#P newex 950 408 73 196617 r $1/f1/pan-;#B color 11;#P window linecount 3;#P comment 1099 26 70 196617 instance name and voice number;#P window linecount 1;#P newex 834 276 169 196617 sprintf set %s/f1/fshift/amp/%ld;#P newex 834 296 44 196617 receive;#B color 11;#P newex 628 274 170 196617 sprintf set %s/f1/fshift/freq/%ld;#P newex 628 294 44 196617 receive;#B color 11;#P newex 361 236 138 196617 sprintf set %s/f1/amp/%ld;#P newex 361 256 44 196617 receive;#B color 11;#P newex 333 121 176 196617 sprintf set %s/f1/bw/ctlrange/%ld;#P newex 333 141 44 196617 receive;#B color 11;#P newex 224 97 151 196617 sprintf set %s/f1/bw/ctl/%ld;#P newex 224 117 44 196617 receive;#B color 11;#P newex 145 61 129 196617 sprintf set %s/f1/cf/%ld;#P newex 145 81 44 196617 receive;#B color 11;#N comlet instance name and voice number;#P inlet 1084 26 15 0;#P newex 379 340 52 196617 change 0.;#P flonum 1035 155 69 9 0 0 0 3 0 0 0 221 221 221 222 222 222 0 0 0;#N comlet interp time;#P inlet 1035 135 15 0;#P comment 1051 135 60 196617 interp time;#P flonum 47 175 42 9 0 0 0 3 0 0 0 221 221 221 222 222 222 0 0 0;#P flonum 123 384 42 9 0 0 0 3 0 0 0 221 221 221 222 222 222 0 0 0;#P message 42 408 33 196617 debug;#P window setfont Times 9.;#P newex 213 336 27 1310729 t f 0;#P window setfont "Sans Serif" 9.;#P newex 276 167 141 196617 r $1/f1/bw/ctlrange-;#B color 11;#P newex 183 141 116 196617 r $1/f1/bw/ctl-;#B color 11;#P newex 111 119 94 196617 r $1/f1/cf-;#B color 11;#P newex 270 284 103 196617 r $1/f1/amp-;#B color 11;#N vpatcher 677 76 878 274;#P inlet 104 30 15 0;#P window setfont Times 9.;#P newex 31 120 46 1310729 +~;#P newex 67 90 76 1310729 *~;#P newex 67 62 47 1310729 freqshift~;#P inlet 133 31 15 0;#P inlet 31 31 15 0;#P outlet 31 142 15 0;#P connect 1 0 5 0;#P connect 5 0 0 0;#P connect 1 0 3 0;#P connect 3 0 4 0;#P connect 4 0 5 1;#P connect 6 0 3 1;#P connect 2 0 4 1;#P pop;#P newobj 29 494 770 196617 p fshift-vib;#B color 6;#P window setfont Times 9.;#P newex 594 449 30 1310729 line~;#P window setfont "Sans Serif" 9.;#P newex 594 405 54 196617 pack 0. 5;#P flonum 594 386 42 9 0 0 0 3 0 0 0 221 221 221 222 222 222 0 0 0;#P window setfont Times 9.;#P newex 594 365 54 1310729 unpack 0. 0;#P newex 594 344 27 1310729 t l 5;#P window setfont "Sans Serif" 9.;#P newex 594 322 177 196617 r $1/f1/fshift/freq-;#B color 11;#P inlet 614 428 15 0;#P window setfont Times 9.;#P newex 789 449 30 1310729 line~;#P window setfont "Sans Serif" 9.;#P newex 789 405 54 196617 pack 0. 5;#P flonum 789 386 42 9 0. 1. 3 3 0 0 0 221 221 221 222 222 222 0 0 0;#P window setfont Times 9.;#P newex 789 365 54 1310729 unpack 0. 0;#P newex 789 344 27 1310729 t l 5;#P window setfont "Sans Serif" 9.;#P newex 789 322 176 196617 r $1/f1/fshift/amp-;#B color 11;#P inlet 809 428 15 0;#P window linecount 0;#P message 453 349 46 196617 legato 1;#P newex 453 327 48 196617 loadbang;#N comlet cf;#P inlet 123 365 15 0;#N comlet amp;#P inlet 330 371 15 0;#P newex 29 370 67 196617 prepend freq;#P message 111 342 31 196617 \$1 5;#P flonum 111 309 42 9 0 0 0 3 0 0 0 221 221 221 222 222 222 0 0 0;#P newex 111 284 40 196617 line 0.;#P flonum 276 187 42 9 0 0 0 3 0 0 0 221 221 221 222 222 222 0 0 0;#P flonum 293 231 42 9 0 0 0 3 0 0 0 221 221 221 222 222 222 0 0 0;#P window setfont Times 9.;#P newex 276 210 27 1310729 t b f;#P window setfont "Sans Serif" 9.;#P flonum 183 357 42 9 0 0 0 3 0 0 0 221 221 221 222 222 222 0 0 0;#P window setfont Times 9.;#P newex 183 310 27 1310729 t b f;#P window setfont "Sans Serif" 9.;#P flonum 183 291 42 9 0 0 0 3 0 0 0 221 221 221 222 222 222 0 0 0;#P window setfont Times 9.;#P newex 183 249 33 1310729 pow 2;#P newex 183 270 66 1310729 zmap 0 1 0 4;#P newex 183 228 33 1310729 / 127.;#P newex 183 336 27 1310729 * 0.;#P window setfont "Sans Serif" 9.;#P flonum 183 209 42 9 0. 127. 3 3 0 0 0 221 221 221 222 222 222 0 0 0;#P window setfont Times 9.;#P newex 183 183 68 1310729 unpack 0. 0;#P newex 183 161 27 1310729 t l 5;#P window setfont "Sans Serif" 9.;#P newex 183 376 51 196617 pack 0. 5;#P newex 183 398 61 196617 prepend bw;#P flonum 111 237 42 9 0 0 0 3 0 0 0 221 221 221 222 222 222 0 0 0;#P window setfont Times 9.;#P newex 111 211 54 1310729 unpack 0. 0;#P newex 111 190 27 1310729 t l 0;#P window setfont "Sans Serif" 9.;#P newex 111 262 54 196617 pack 0. 0;#P window linecount 1;#N vpatcher 10 59 285 282;#P window setfont "Sans Serif" 9.;#P newex 121 50 47 196617 *~ 0.25;#P newex 161 99 31 196617 cos~;#P newex 121 99 31 196617 cos~;#P newex 98 131 27 196617 *~;#P newex 50 130 27 196617 *~;#P newex 161 78 48 196617 !-~ 0.25;#P inlet 121 30 15 0;#P inlet 50 55 15 0;#P outlet 98 153 15 0;#P outlet 50 152 15 0;#P connect 2 0 5 0;#P connect 5 0 0 0;#P connect 7 0 5 1;#P connect 2 0 6 0;#P connect 6 0 1 0;#P connect 8 0 6 1;#P connect 3 0 9 0;#P connect 9 0 7 0;#P connect 9 0 4 0;#P connect 4 0 8 0;#P pop;#P newobj 29 570 48 196617 p pancos;#B color 6;#P window setfont Times 9.;#P window linecount 0;#P newex 379 412 163 1310729 adsr~;#P newex 270 412 58 1310729 prepend amp;#P window setfont "Sans Serif" 9.;#P newex 270 370 54 196617 pack 0. 5;#P flonum 270 351 42 9 0. 1. 3 3 0 0 0 221 221 221 222 222 222 0 0 0;#P window setfont Times 9.;#P newex 270 330 54 1310729 unpack 0. 0;#P newex 270 309 27 1310729 t l 5;#P newex 29 540 27 1310729 *~;#N comlet pan;#P inlet 965 513 15 0;#P inlet 29 120 15 0;#N comlet vel;#P inlet 379 318 15 0;#N comlet att;#P inlet 417 392 15 0;#N comlet dec;#P inlet 455 392 15 0;#N comlet sus;#P inlet 493 392 15 0;#N comlet rel;#P inlet 531 392 15 0;#P outlet 66 592 15 0;#P outlet 29 592 15 0;#N comlet mute;#P outlet 398 443 15 0;#P window setfont "Sans Serif" 9.;#P newex 29 459 30 196617 paf~;#B color 5;#P newex 111 427 57 196617 prepend cf;#P connect 10 0 42 0;#P connect 42 0 1 0;#P connect 0 0 1 0;#P connect 24 0 1 0;#P connect 17 0 1 0;#P connect 67 0 1 0;#P connect 1 0 61 0;#P connect 61 0 12 0;#P connect 12 0 19 0;#P connect 19 0 3 0;#P fasten 18 0 12 1 384 531 51 531;#P connect 10 0 69 0;#P connect 19 1 4 0;#P fasten 93 0 19 1 955 561 72 561;#P connect 75 0 21 0;#P connect 63 0 21 0;#P connect 21 0 22 0;#P connect 22 0 23 0;#P connect 23 0 20 0;#P connect 20 0 39 0;#P connect 39 0 40 0;#P connect 40 0 41 0;#P connect 68 0 0 0;#P connect 41 0 0 0;#P connect 44 0 68 0;#P connect 74 0 76 0;#P connect 76 0 75 0;#P connect 21 1 20 1;#P connect 22 1 20 1;#P connect 77 0 26 0;#P connect 64 0 26 0;#P connect 26 0 27 0;#P connect 36 0 28 0;#P connect 27 0 28 0;#P connect 28 0 30 0;#P connect 30 0 32 0;#P connect 32 0 31 0;#P connect 31 0 33 0;#P connect 33 0 34 0;#P connect 40 0 29 0;#P connect 66 0 29 0;#P connect 34 0 29 0;#P connect 29 0 35 0;#P connect 35 0 25 0;#P connect 25 0 24 0;#P connect 34 1 29 1;#P connect 68 0 66 0;#P connect 74 0 78 0;#P connect 78 0 77 0;#P connect 66 1 25 1;#P connect 26 1 25 1;#P connect 27 1 25 1;#P connect 37 0 31 4;#P connect 81 0 13 0;#P connect 62 0 13 0;#P connect 13 0 14 0;#P connect 14 0 15 0;#P connect 15 0 16 0;#P connect 43 0 17 0;#P connect 16 0 17 0;#P connect 79 0 38 0;#P connect 65 0 38 0;#P connect 38 0 36 0;#P connect 36 1 37 0;#P connect 13 1 16 1;#P connect 14 1 16 1;#P connect 74 0 80 0;#P connect 80 0 79 0;#P connect 74 0 82 0;#P connect 82 0 81 0;#P connect 9 0 73 0;#P connect 46 0 18 0;#P connect 73 0 18 0;#P connect 18 0 2 0;#P connect 60 0 61 1;#P connect 8 0 18 1;#P connect 96 0 18 1;#P connect 45 0 46 0;#P connect 7 0 18 2;#P connect 98 0 18 2;#P connect 6 0 18 3;#P connect 100 0 18 3;#P connect 5 0 18 4;#P connect 102 0 18 4;#P connect 74 0 97 0;#P connect 97 0 96 0;#P connect 83 0 56 0;#P connect 55 0 56 0;#P connect 56 0 57 0;#P connect 57 0 58 0;#P connect 58 0 59 0;#P connect 54 0 60 0;#P connect 59 0 60 0;#P connect 74 0 99 0;#P connect 99 0 98 0;#P connect 72 0 60 1;#P connect 74 0 84 0;#P connect 84 0 83 0;#P connect 56 1 59 1;#P connect 57 1 59 1;#P connect 74 0 101 0;#P connect 101 0 100 0;#P connect 74 0 103 0;#P connect 103 0 102 0;#P connect 85 0 49 0;#P connect 48 0 49 0;#P connect 49 0 50 0;#P connect 50 0 51 0;#P connect 51 0 52 0;#P connect 52 0 53 0;#P connect 47 0 53 0;#P connect 53 0 61 2;#P connect 72 0 53 1;#P connect 50 1 52 1;#P connect 49 1 52 1;#P connect 74 0 86 0;#P connect 86 0 85 0;#P connect 94 0 89 0;#P connect 88 0 89 0;#P connect 89 0 90 0;#P connect 90 0 91 0;#P connect 91 0 92 0;#P connect 92 0 93 0;#P connect 11 0 93 0;#P connect 93 0 104 0;#P connect 72 0 93 1;#P connect 89 1 92 1;#P connect 90 1 92 1;#P connect 74 0 95 0;#P connect 95 0 94 0;#P connect 71 0 72 0;#P pop;#P newobj 174 694 183 196617 p F1(paf);#B color 6;#P flonum 314 670 35 9 0 0 0 3 0 0 0 153 153 255 222 222 222 0 0 0;#P objectname pan1;#P flonum 202 526 35 9 0 0 0 3 0 0 0 153 153 255 222 222 222 0 0 0;#P objectname amp1;#P flonum 216 544 35 9 0 0 0 3 0 0 0 153 153 255 222 222 222 0 0 0;#P objectname vel1;#P flonum 272 616 35 9 0. 0 1 3 0 0 0 153 153 255 222 222 222 0 0 0;#P objectname rel1;#P flonum 258 598 35 9 0. 0 1 3 0 0 0 153 153 255 222 222 222 0 0 0;#P objectname sus1;#P flonum 244 580 35 9 0. 0 1 3 0 0 0 153 153 255 222 222 222 0 0 0;#P objectname dec1;#P flonum 230 562 35 9 0. 0 1 3 0 0 0 153 153 255 222 222 222 0 0 0;#P objectname att1;#P comment 236 526 34 196617 amp1;#P comment 162 670 30 196617 pan0;#P comment 123 616 30 196617 rel0;#P comment 110 598 30 196617 sus0;#P comment 97 580 30 196617 dec0;#P comment 84 562 30 196617 att0;#P comment 71 544 30 196617 vel0;#N vpatcher 35 92 1062 744;#P window setfont "Sans Serif" 9.;#N vpatcher 10 59 285 282;#P window setfont "Sans Serif" 9.;#P newex 121 50 47 196617 *~ 0.25;#P newex 161 99 31 196617 cos~;#P newex 121 99 31 196617 cos~;#P newex 98 131 27 196617 *~;#P newex 50 130 27 196617 *~;#P newex 161 78 48 196617 !-~ 0.25;#P inlet 121 30 15 0;#P inlet 50 55 15 0;#P outlet 98 153 15 0;#P outlet 50 152 15 0;#P connect 2 0 5 0;#P connect 5 0 0 0;#P connect 7 0 5 1;#P connect 2 0 6 0;#P connect 6 0 1 0;#P connect 8 0 6 1;#P connect 3 0 9 0;#P connect 9 0 7 0;#P connect 9 0 4 0;#P connect 4 0 8 0;#P pop;#P newobj 27 558 48 196617 p pancos;#B color 6;#P user number~ 796 514 835 529 9 3 3 2 0. 0. 0 0. 250 0. 0 0 0 221 221 221 222 222 222 0 0 0;#P window linecount 1;#P newex 378 142 155 196617 sprintf set %s/f0/env/rel/%ld;#P newex 378 162 44 196617 receive;#B color 11;#P newex 326 119 157 196617 sprintf set %s/f0/env/sus/%ld;#P newex 326 139 44 196617 receive;#B color 11;#P newex 274 96 157 196617 sprintf set %s/f0/env/dec/%ld;#P newex 274 116 44 196617 receive;#B color 11;#P newex 222 73 155 196617 sprintf set %s/f0/env/att/%ld;#P newex 222 93 44 196617 receive;#B color 11;#P newex 826 312 135 196617 sprintf set %s/f0/pan/%ld;#P newex 826 332 44 196617 receive;#B color 11;#P window setfont Times 9.;#P newex 781 485 30 1310729 line~;#P window setfont "Sans Serif" 9.;#P newex 781 441 54 196617 pack 0. 5;#P flonum 781 422 42 9 0. 1. 3 3 0 0 0 221 221 221 222 222 222 0 0 0;#P window setfont Times 9.;#P newex 781 401 54 1310729 unpack 0. 0;#P newex 781 380 27 1310729 t l 5;#P window setfont "Sans Serif" 9.;#P newex 781 358 73 196617 r $1/f0/pan-;#B color 11;#N comlet pan;#P inlet 796 463 15 0;#P newex 544 212 169 196617 sprintf set %s/f0/fshift/amp/%ld;#P newex 544 232 44 196617 receive;#B color 11;#P newex 344 212 170 196617 sprintf set %s/f0/fshift/freq/%ld;#P newex 344 232 44 196617 receive;#B color 11;#P window linecount 0;#P newex 49 212 138 196617 sprintf set %s/f0/amp/%ld;#P window linecount 1;#P newex 49 232 44 196617 receive;#B color 11;#N comlet instance name and voice number;#P inlet 893 32 15 0;#P window linecount 2;#P comment 909 32 85 196617 instance name and voice number;#P window linecount 1;#P message 241 297 46 196617 legato 1;#P newex 241 275 48 196617 loadbang;#P flonum 840 260 69 9 0 0 0 3 0 0 0 221 221 221 222 222 222 0 0 0;#N comlet interp time;#P inlet 840 240 15 0;#P window setfont Times 9.;#P newex 27 358 30 1310729 line~;#P window setfont "Sans Serif" 9.;#P window linecount 0;#P newex 166 309 52 196617 change 0.;#N vpatcher 677 76 878 274;#P inlet 104 30 15 0;#P window setfont Times 9.;#P newex 31 120 46 1310729 +~;#P newex 67 90 76 1310729 *~;#P newex 67 62 47 1310729 freqshift~;#P inlet 133 31 15 0;#P inlet 31 31 15 0;#P outlet 31 142 15 0;#P connect 1 0 5 0;#P connect 5 0 0 0;#P connect 1 0 3 0;#P connect 3 0 4 0;#P connect 4 0 5 1;#P connect 6 0 3 1;#P connect 2 0 4 1;#P pop;#P newobj 27 450 542 196617 p fshift-vib;#B color 6;#P window setfont Times 9.;#P window linecount 1;#P newex 364 405 30 1310729 line~;#P window setfont "Sans Serif" 9.;#P newex 364 361 54 196617 pack 0. 5;#P flonum 364 342 42 9 0 0 0 3 0 0 0 221 221 221 222 222 222 0 0 0;#P window setfont Times 9.;#P newex 364 321 54 1310729 unpack 0. 0;#P newex 364 300 27 1310729 t l 5;#P window setfont "Sans Serif" 9.;#P newex 364 256 177 196617 r $1/f0/fshift/freq-;#B color 11;#P inlet 384 384 15 0;#P window setfont Times 9.;#P newex 559 405 30 1310729 line~;#P window setfont "Sans Serif" 9.;#P newex 559 361 54 196617 pack 0. 5;#P flonum 559 342 42 9 0. 1. 3 3 0 0 0 221 221 221 222 222 222 0 0 0;#P window setfont Times 9.;#P newex 559 321 54 1310729 unpack 0. 0;#P newex 559 300 27 1310729 t l 5;#P window setfont "Sans Serif" 9.;#P newex 559 256 176 196617 r $1/f0/fshift/amp-;#B color 11;#P inlet 579 384 15 0;#P window setfont Times 9.;#P window linecount 0;#P newex 166 357 163 1310729 adsr~;#P newex 76 401 30 1310729 line~;#P newex 27 426 27 1310729 *~;#P window setfont "Sans Serif" 9.;#P newex 76 357 54 196617 pack 0. 5;#P flonum 76 338 42 9 0. 1. 3 3 0 0 0 221 221 221 222 222 222 0 0 0;#P window setfont Times 9.;#P newex 76 317 54 1310729 unpack 0. 0;#P newex 76 296 27 1310729 t l 5;#P window setfont "Sans Serif" 9.;#P newex 76 256 145 196617 r $1/f0/amp-;#B color 11;#P window setfont Times 9.;#P newex 27 495 27 1310729 *~;#P window setfont "Sans Serif" 9.;#P newex 27 382 40 196617 cycle~;#B color 5;#P inlet 96 380 15 0;#P inlet 27 308 15 0;#P inlet 166 289 15 0;#P inlet 204 337 15 0;#P inlet 242 337 15 0;#P inlet 280 337 15 0;#P inlet 318 337 15 0;#P outlet 65 588 15 0;#P outlet 27 587 15 0;#P outlet 186 395 15 0;#P comment 856 240 60 196617 interp time;#P connect 9 0 37 0;#P connect 37 0 11 0;#P connect 11 0 18 0;#P connect 18 0 35 0;#P connect 35 0 12 0;#P connect 12 0 68 0;#P connect 68 0 2 0;#P connect 19 0 18 1;#P fasten 20 0 12 1 171 482 49 482;#P connect 39 0 37 1;#P fasten 43 0 45 0 898 199 54 199;#P connect 45 0 44 0;#P connect 56 0 68 1;#P connect 68 1 3 0;#P connect 13 0 14 0;#P connect 44 0 14 0;#P connect 14 0 15 0;#P connect 15 0 16 0;#P connect 16 0 17 0;#P connect 17 0 19 0;#P connect 10 0 19 0;#P connect 39 0 19 1;#P connect 15 1 17 1;#P connect 14 1 17 1;#P connect 8 0 36 0;#P connect 41 0 20 0;#P connect 36 0 20 0;#P connect 20 0 1 0;#P connect 7 0 20 1;#P connect 59 0 20 1;#P connect 43 0 60 0;#P connect 60 0 59 0;#P connect 40 0 41 0;#P connect 6 0 20 2;#P connect 61 0 20 2;#P connect 43 0 62 0;#P connect 62 0 61 0;#P connect 5 0 20 3;#P connect 63 0 20 3;#P connect 34 0 35 1;#P connect 4 0 20 4;#P connect 65 0 20 4;#P connect 43 0 64 0;#P connect 64 0 63 0;#P fasten 43 0 47 0 898 199 349 199;#P connect 47 0 46 0;#P connect 29 0 30 0;#P connect 46 0 30 0;#P connect 30 0 31 0;#P connect 31 0 32 0;#P connect 32 0 33 0;#P connect 33 0 34 0;#P connect 28 0 34 0;#P connect 43 0 66 0;#P connect 66 0 65 0;#P connect 39 0 34 1;#P connect 31 1 33 1;#P connect 30 1 33 1;#P fasten 43 0 49 0 898 199 549 199;#P connect 49 0 48 0;#P connect 22 0 23 0;#P connect 48 0 23 0;#P connect 23 0 24 0;#P connect 24 0 25 0;#P connect 25 0 26 0;#P connect 21 0 27 0;#P connect 26 0 27 0;#P connect 27 0 35 2;#P connect 39 0 27 1;#P connect 23 1 26 1;#P connect 24 1 26 1;#P connect 57 0 52 0;#P connect 51 0 52 0;#P connect 52 0 53 0;#P connect 53 0 54 0;#P connect 54 0 55 0;#P connect 55 0 56 0;#P connect 50 0 56 0;#P connect 56 0 67 0;#P connect 39 0 56 1;#P connect 53 1 55 1;#P connect 52 1 55 1;#P connect 43 0 58 0;#P connect 58 0 57 0;#P connect 38 0 39 0;#P pop;#P newobj 10 694 156 196617 p F0(cycle);#B color 6;#P newex 377 761 47 196617 *~ 0.25;#N out~ 2;#P newobj 377 791 39 196617 out~ 2;#P flonum 127 670 35 9 0 0 0 3 0 0 0 153 153 255 222 222 222 0 0 0;#P objectname pan0;#P flonum 23 526 35 9 0 0 0 3 0 0 0 153 153 255 222 222 222 0 0 0;#P objectname amp0;#P newex 235 310 54 196617 pvar vel3;#P newex 195 331 54 196617 pvar vel2;#P newex 155 310 54 196617 pvar vel1;#P newex 115 331 54 196617 pvar vel0;#P newex 1018 259 55 196617 pvar pan3;#P newex 1018 279 55 196617 pvar pan2;#P newex 1018 299 55 196617 pvar pan1;#P newex 1018 319 55 196617 pvar pan0;#P newex 732 319 53 196617 pvar rel3;#P newex 732 299 55 196617 pvar sus3;#P newex 732 279 55 196617 pvar dec3;#P newex 732 259 53 196617 pvar att3;#P newex 662 319 53 196617 pvar rel2;#P newex 662 299 55 196617 pvar sus2;#P newex 662 279 55 196617 pvar dec2;#P newex 662 259 53 196617 pvar att2;#P newex 592 319 53 196617 pvar rel1;#P newex 592 299 55 196617 pvar sus1;#P newex 592 279 55 196617 pvar dec1;#P newex 592 259 53 196617 pvar att1;#P window setfont Times 9.;#P flonum 177 125 35 9 0. 0 1 20 0 0 0 221 221 221 222 222 222 0 0 0;#P flonum 132 271 35 9 0. 0 1 20 0 0 0 221 221 221 222 222 222 0 0 0;#P flonum 172 271 35 9 0. 0 1 20 0 0 0 221 221 221 222 222 222 0 0 0;#P flonum 212 271 35 9 0. 0 1 20 0 0 0 221 221 221 222 222 222 0 0 0;#P flonum 252 271 35 9 0. 0 1 20 0 0 0 221 221 221 222 222 222 0 0 0;#P window setfont "Sans Serif" 9.;#P newex 235 289 27 196617 pow;#P window setfont Times 9.;#P newex 325 107 28 1310729 t b f;#P newex 273 145 27 1310729 * 0.;#P newex 243 145 27 1310729 * 0.;#P newex 177 146 63 1310729 * 0.;#P flonum 325 89 65 9 0. 0 1 20 0 0 0 221 221 221 222 222 222 0 0 0;#P window setfont "Sans Serif" 9.;#P newex 325 68 168 196617 r $1/velexponantfactor-;#B color 11;#P newex 177 68 140 196617 r $1/velexponant-;#B color 11;#P newex 454 259 58 196617 pvar amp3;#P newex 454 279 58 196617 pvar amp2;#P newex 454 299 58 196617 pvar amp1;#P newex 454 319 58 196617 pvar amp0;#P newex 392 270 49 196617 pvar cf3;#P newex 341 270 49 196617 pvar cf2;#P newex 290 270 49 196617 pvar cf1;#P newex 522 319 53 196617 pvar rel0;#P newex 522 299 55 196617 pvar sus0;#P newex 522 279 55 196617 pvar dec0;#P newex 522 259 53 196617 pvar att0;#P flonum 36 544 35 9 0 0 0 3 0 0 0 153 153 255 222 222 222 0 0 0;#P objectname vel0;#P flonum 88 616 35 9 0. 0 1 3 0 0 0 153 153 255 222 222 222 0 0 0;#P objectname rel0;#P flonum 75 598 35 9 0. 0 1 3 0 0 0 153 153 255 222 222 222 0 0 0;#P objectname sus0;#P flonum 62 580 35 9 0. 0 1 3 0 0 0 153 153 255 222 222 222 0 0 0;#P objectname dec0;#P flonum 49 562 35 9 0. 0 1 3 0 0 0 153 153 255 222 222 222 0 0 0;#P objectname att0;#P flonum 10 464 68 9 0 0 0 3 0 0 0 221 221 221 222 222 222 0 0 0;#P newex 10 444 29 196617 mtof;#P comment 72 49 574 196617 [-] [vel(=0)] [-] [-] [-] [-] [-] [-] [-] [-] [-] [-] [-] [-] [-] [-] [rel0] [-] [-] [-] [rel1] [-] [-] [-] [rel2] [-] [-] [-] [rel3];#P window linecount 2;#P comment 72 21 962 196617 [pitch midicents] [vel(>0)] [cf1] [cf2] [cf3] [amp0 (0.-1.)] [amp1 (0.-1.)] [amp2 (0.-1.)] [amp3 (0.-1.)] [att0] [dec0] [sus0 (0.-1.)] [rel0] [att1] [dec1] [sus1 (0.-1.)] [rel1] [att2] [dec2] [sus2 (0.-1.)] [rel2] [att3] [dec3] [sus3 (0.-1.)] [rel3] [fshiftfreq0] [fshiftfreq1] [fshiftfreq2] [fshiftfreq3] [fshiftamp0] [fshiftamp1] [fshiftamp2] [fshiftamp3] [pan0 (0.-1.)] [pan1 (0.-1.)] [pan2 (0.-1.)] [pan3 (0.-1.)];#P window setfont "Sans Serif" 18.;#P window linecount 1;#P comment 598 97 232 196626 paff for "fixed" cf version;#P window setfont "Sans Serif" 9.;#P comment 646 49 202 196617 (for release \, all ignored except vel and rel);#P newex 52 170 778 196617 unpack 0. 0. 0. 0. 0. 0. 0. 0. 0. 0. 0. 0. 0. 0. 0. 0. 0. 0. 0. 0. 0. 0. 0. 0. 0.;#P newex 10 170 38 196617 gate 2;#P newex 55 111 27 196617 + 1;#P newex 55 91 31 196617 == 0;#P newex 55 68 44 196617 zl nth 2;#P button 930 562 15 0;#P newex 930 581 31 196617 t b 0;#P newex 930 542 192 196617 r $1/allnotesoff;#B color 11;#P button 902 490 15 0;#P newex 23 288 29 196617 t b f;#P newex 10 310 27 196617 + 0.;#P window setfont Times 9.;#P newex 23 268 71 1310729 r $1/bend;#B color 11;#P window setfont "Sans Serif" 9.;#P newex 10 248 41 196617 * 0.01;#P newex 195 289 27 196617 pow;#P newex 155 289 27 196617 pow;#P newex 318 761 47 196617 *~ 0.25;#P newex 10 205 1049 196617 unpack 0. 0. 0. 0. 0. 0. 0. 0. 0. 0. 0. 0. 0. 0. 0. 0. 0. 0. 0. 0. 0. 0. 0. 0. 0. 0. 0. 0. 0. 0. 0. 0. 0. 0. 0. 0. 0. 0.;#P newex 115 293 27 196617 pow;#P newex 115 248 40 196617 / 127.;#P flonum 10 426 51 9 0 0 0 3 0 0 0 221 221 221 222 222 222 0 0 0;#P objectname pitch;#P number 1059 721 35 9 0 0 0 3 0 0 0 221 221 221 222 222 222 0 0 0;#P newex 1078 659 48 196617 loadbang;#N out 1;#P newobj 440 791 33 196617 out 1;#P newex 1059 584 60 196617 loadmess 0;#P message 1011 662 47 196617 mute \$1;#P newex 1011 639 31 196617 == 0;#P newex 1059 698 50 196617 thispoly~;#P newex 902 509 21 196617 t 0;#P newex 902 470 194 196617 r $1/allnotesrelease;#B color 11;#P newex 38 48 27 196617 t l l;#P toggle 1059 609 15 0;#P objectname active;#N in 1;#P newobj 38 28 25 196617 in 1;#N out~ 1;#P newobj 318 791 35 196617 out~ 1;#P comment 1074 610 38 196617 active;#P comment 57 526 34 196617 amp0;#P newex 371 395 61 196617 unpack 0. 0;#P newex 371 355 150 196617 sprintf set %s/pitchcents/%ld;#P newex 371 375 44 196617 receive;#B color 11;#P connect 35 0 36 0;#P connect 36 0 21 0;#P connect 21 0 197 0;#P connect 2 0 25 0;#P connect 197 0 25 0;#P connect 199 0 27 0;#P connect 25 0 27 0;#P connect 28 0 27 0;#P connect 27 0 204 0;#P connect 204 0 202 0;#P connect 203 0 202 0;#P connect 202 0 18 0;#P connect 18 0 42 0;#P connect 42 0 43 0;#P connect 43 0 198 0;#P connect 198 0 97 0;#P connect 26 0 28 0;#P connect 187 0 28 0;#P connect 201 0 205 0;#P connect 205 0 203 0;#P connect 93 0 97 1;#P connect 28 1 27 1;#P connect 203 1 202 1;#P connect 10 0 48 0;#P connect 48 0 97 2;#P connect 6 0 8 0;#P connect 8 0 36 1;#P connect 44 0 97 3;#P connect 197 1 198 1;#P connect 2 1 198 1;#P connect 199 1 198 1;#P connect 36 1 37 0;#P connect 8 1 33 0;#P connect 33 0 34 0;#P connect 34 0 35 0;#P connect 45 0 97 4;#P connect 37 1 159 0;#P connect 46 0 97 5;#P connect 189 0 188 0;#P connect 188 0 187 0;#P connect 31 1 47 0;#P connect 47 0 97 6;#P connect 173 0 97 7;#P connect 175 0 97 8;#P connect 21 1 19 0;#P connect 200 0 19 0;#P connect 19 0 20 0;#P connect 159 0 89 0;#P connect 159 1 89 0;#P connect 20 0 89 0;#P connect 94 0 97 9;#P connect 72 0 71 0;#P connect 71 0 20 1;#P connect 184 0 97 10;#P connect 189 0 97 11;#P fasten 19 0 23 0 120 267 160 267;#P connect 159 0 90 0;#P connect 159 1 90 0;#P connect 23 0 90 0;#P connect 63 0 70 0;#P connect 70 0 23 1;#P fasten 198 0 112 0 15 503 179 503;#P connect 66 0 72 0;#P connect 60 0 72 0;#P connect 72 0 63 0;#P connect 120 0 112 1;#P fasten 19 0 24 0 120 267 200 267;#P connect 159 0 91 0;#P connect 159 1 91 0;#P connect 24 0 91 0;#P connect 110 0 112 2;#P connect 64 0 69 0;#P connect 69 0 24 1;#P connect 10 0 109 0;#P connect 109 0 112 3;#P connect 189 0 191 0;#P connect 191 0 190 0;#P connect 190 0 199 0;#P connect 66 1 63 1;#P connect 105 0 112 4;#P fasten 19 0 67 0 120 267 240 267;#P connect 67 0 92 0;#P connect 159 0 92 0;#P connect 159 1 92 0;#P connect 63 0 64 0;#P connect 106 0 112 5;#P connect 65 0 68 0;#P connect 68 0 67 1;#P connect 107 0 112 6;#P connect 66 1 64 1;#P connect 31 1 108 0;#P connect 108 0 112 7;#P connect 64 0 65 0;#P connect 161 0 112 8;#P connect 66 1 65 1;#P connect 21 2 53 0;#P connect 163 0 112 9;#P connect 111 0 112 10;#P connect 97 0 22 0;#P connect 112 0 22 0;#P connect 129 0 22 0;#P connect 146 0 22 0;#P connect 22 0 5 0;#P connect 61 0 62 0;#P connect 62 0 66 0;#P connect 184 0 112 11;#P connect 21 3 54 0;#P connect 189 0 112 12;#P connect 189 0 1 0;#P connect 1 0 0 0;#P connect 0 0 2 0;#P connect 97 1 96 0;#P connect 112 1 96 0;#P connect 129 1 96 0;#P connect 146 1 96 0;#P connect 96 0 95 0;#P connect 21 4 55 0;#P fasten 198 0 129 0 15 503 447 503;#P connect 21 8 59 0;#P connect 21 7 58 0;#P connect 21 6 57 0;#P connect 21 5 56 0;#P connect 137 0 129 1;#P connect 127 0 129 2;#P connect 10 0 126 0;#P connect 126 0 129 3;#P connect 122 0 129 4;#P connect 123 0 129 5;#P connect 21 9 49 0;#P connect 21 10 50 0;#P connect 21 11 51 0;#P connect 37 12 52 0;#P connect 21 12 52 0;#P connect 124 0 129 6;#P connect 189 0 193 0;#P connect 193 0 192 0;#P connect 192 0 200 0;#P connect 31 1 125 0;#P connect 125 0 129 7;#P connect 165 0 129 8;#P connect 167 0 129 9;#P connect 128 0 129 10;#P connect 97 2 155 0;#P connect 112 2 155 0;#P connect 129 2 155 0;#P connect 146 2 155 0;#P connect 155 0 156 0;#P connect 156 0 157 0;#P connect 157 0 158 0;#P connect 21 13 73 0;#P connect 21 14 74 0;#P connect 21 15 75 0;#P connect 37 16 76 0;#P connect 21 16 76 0;#P connect 184 0 129 11;#P connect 189 0 129 12;#P connect 21 17 77 0;#P connect 21 18 78 0;#P connect 21 19 79 0;#P connect 37 20 80 0;#P connect 21 20 80 0;#P fasten 198 0 146 0 15 503 715 503;#P connect 154 0 146 1;#P connect 21 21 81 0;#P connect 21 22 82 0;#P connect 21 23 83 0;#P connect 37 24 84 0;#P connect 21 24 84 0;#P connect 144 0 146 2;#P connect 10 0 143 0;#P connect 143 0 146 3;#P connect 139 0 146 4;#P connect 140 0 146 5;#P connect 141 0 146 6;#P connect 21 28 179 0;#P connect 21 27 178 0;#P connect 21 26 177 0;#P connect 21 25 176 0;#P connect 31 1 142 0;#P connect 142 0 146 7;#P connect 19 0 194 0;#P connect 194 0 195 0;#P connect 195 0 196 0;#P connect 169 0 146 8;#P connect 171 0 146 9;#P connect 145 0 146 10;#P connect 184 0 146 11;#P connect 189 0 146 12;#P connect 9 0 29 0;#P connect 31 0 10 0;#P connect 29 0 10 0;#P connect 21 32 183 0;#P connect 21 31 182 0;#P connect 21 30 181 0;#P connect 21 29 180 0;#P connect 30 0 32 0;#P connect 32 0 31 0;#P connect 7 0 12 0;#P connect 12 0 13 0;#P connect 21 36 88 0;#P connect 21 35 87 0;#P connect 21 34 86 0;#P connect 21 33 85 0;#P connect 14 0 7 0;#P connect 7 0 11 0;#P connect 16 0 11 0;#P connect 13 0 11 0;#P connect 11 0 17 0;#P connect 17 0 189 0;#P fasten 36 0 186 0 15 199 1100 199;#P lcolor 7;#P connect 186 0 185 0;#P connect 21 37 185 0;#P pop;