max v2;#N vpatcher 91 299 371 636;#P origin 0 -1;#P hidden inlet 218 373 15 0;#P button 75 323 15 0;#P window setfont "Sans Serif" 9.;#P window linecount 1;#P comment 93 323 39 196617 delete;#P button 9 323 15 0;#P comment 26 323 31 196617 build;#P hidden newex 145 351 126 196617 editorwindow /paff /tape;#B color 6;#N thispatcher;#Q end;#P hidden newobj 145 381 61 196617 thispatcher;#P window linecount 0;#P comment 2376 1 100 196617;#P window linecount 1;#P hidden newex 9 351 103 196617 t_edit-builder paff 2;#B color 6;#P window linecount 0;#P comment 1 1 100 196617;#P hidden connect 6 0 1 0;#P hidden connect 8 0 1 1;#P hidden fasten 3 0 4 0 150 402 295 402 295 347 150 347;#P hidden fasten 1 0 3 0 14 376 150 376;#P hidden connect 4 0 3 0;#P pop;