max v2;#N vpatcher 413 282 1061 534;#P origin -10 12;#P window setfont Helvetica 9.;#P window linecount 1;#P comment 19 194 190 1376265 Tom Mays \, Olivier Pfeiffer & Renaud Rubiano;#B frgb 0 146 207;#P window linecount 2;#P comment 20 167 220 1376265 m_mdl is a part of movie \, a part of tapemovie. contact@tapemovie.org;#P window setfont Helvetica 24.;#P window linecount 1;#P comment 20 108 99 1376280 m_mdl;#B frgb 0 146 207;#P window setfont Helvetica 12.;#P window linecount 2;#P comment 20 135 263 1376268 $1 : prefix name \; $2 : name of the render associated \;;#P user panel 17 105 269 111;#X brgb 255 255 255;#X frgb 0 0 0;#X border 1;#X rounded 0;#X shadow 0;#X done;#P window setfont "Sans Serif" 12.;#P window linecount 1;#P newex 149 50 138 196620 m_glgroup $1 $2;#B color 6;#P window setfont "Sans Serif" 9.;#P newex 473 169 44 196617 del 100;#P window setfont Times 9.;#P newex 473 190 85 1310729 s $1/built;#B color 11;#P window setfont "Sans Serif" 9.;#P newex 473 148 48 196617 loadbang;#P window linecount 3;#P comment 524 150 80 196617 Must be present in module for build to happen !;#P user panel 470 145 136 65;#X brgb 255 0 0;#X frgb 0 0 0;#X border 1;#X rounded 0;#X shadow 0;#X done;#P window setfont "Sans Serif" 12.;#P window linecount 1;#N vpatcher 213 76 777 598;#P origin 0 1;#P toggle 256 457 15 0;#P window setfont "Sans Serif" 9.;#P window linecount 1;#P message 256 480 92 196617 facet \$1;#P newex 256 433 193 196617 makeparam $1/facet $1 t 0;#B color 12;#P toggle 293 387 15 0;#P message 293 410 92 196617 material_mode \$1;#P newex 293 363 193 196617 makeparam $1/material_mode $1 t 1;#B color 12;#P outlet 44 451 15 0;#P window linecount 3;#P message 303 178 144 196617 \; $1/model/init bang \; $1/material_mode/init bang \; $1/facet/init bang \;;#P window linecount 1;#P newex 303 148 178 196617 r $1/properties/init;#B color 11;#P newex 67 304 92 196617 s $1/dispose;#B color 12;#P newex 160 387 29 196617 t 1 l;#P window linecount 0;#P message 44 417 53 196617 enable \$1;#P window linecount 1;#P newex 44 367 110 196617 r $1/dispose;#B color 12;#P newex 160 346 51 196617 tosymbol;#P newex 245 304 51 196617 tosymbol;#P newex 160 367 105 196617 prepend read;#P newex 160 304 62 196617 projectpath;#B color 6;#P newex 160 279 95 196617 t b s;#P newex 160 326 142 196617 sprintf %smedia/models/%s;#P newex 67 260 100 196617 route <none>;#P newex 67 241 221 196617 makeparam $1/model $1 s <none>;#B color 12;#P newex 67 107 51 196617 tosymbol;#P newex 67 149 188 196617 s $1/tomenu;#B color 12;#P newex 67 88 121 196617 sprintf %smedia/models;#P newex 67 68 62 196617 projectpath;#B color 5;#P newex 67 48 130 196617 r $1/init;#B color 12;#P newex 67 127 76 196617 prepend prefix;#P newex 44 390 21 196617 t 0;#P window setfont "Sans Serif" 14.;#P window linecount 0;#P comment 148 117 81 196622 fill-in menu;#P connect 16 0 1 0;#P connect 1 0 17 0;#P fasten 18 0 17 0 165 412 49 412;#P connect 18 1 22 0;#P connect 17 0 22 0;#P connect 24 0 22 0;#P connect 27 0 22 0;#P connect 3 0 4 0;#P connect 4 0 5 0;#P connect 5 0 7 0;#P connect 7 0 2 0;#P connect 2 0 6 0;#P connect 8 0 9 0;#P connect 9 0 19 0;#P connect 9 1 11 0;#P connect 11 0 12 0;#P connect 12 0 10 0;#P connect 10 0 15 0;#P connect 15 0 13 0;#P connect 13 0 18 0;#P connect 11 1 14 0;#P connect 26 0 28 0;#P connect 28 0 27 0;#P fasten 14 0 10 1 250 323 297 323;#P connect 23 0 25 0;#P connect 25 0 24 0;#P connect 20 0 21 0;#P pop;#P newobj 291 50 66 196620 p params;#B color 6;#P window setfont "Sans Serif" 9.;#P newex 415 108 138 196617 print $1/dumpout;#B color 13;#P newex 149 84 276 196617 thru2 jit.gl.model $2 @name $1 @automatic 0;#P newex 298 132 130 196617 r $1/init;#B color 11;#P window linecount 6;#P message 298 158 170 196617 \; $1/lighting/initval 1 \; $1/drawto/initval $2 \; $1/gl_group/init bang \; $1/properties/init bang \; module_register $1 \;;#P fasten 4 0 2 0 296 78 154 78;#P connect 10 0 2 0;#P fasten 1 0 0 0 303 153 303 153;#P connect 2 1 3 0;#P connect 7 0 9 0;#P connect 9 0 8 0;#P pop;