max v2;#N vpatcher 457 184 1159 607;#P origin -43 0;#P window setfont "Sans Serif" 9.;#P flonum 399 186 95 9 0 0 0 3 0 0 0 221 221 221 222 222 222 0 0 0;#P window linecount 1;#P newex 415 114 44 196617 togedge;#P newex 412 141 35 196617 timer;#P flonum 189 180 95 9 0 0 0 3 0 0 0 221 221 221 222 222 222 0 0 0;#P newex 196 128 44 196617 togedge;#P newex 193 155 35 196617 timer;#P button 218 108 15 0;#P button 396 64 15 0;#P newex 297 107 40 196617 line 0.;#P button 373 78 15 0;#P newex 350 49 50 196617 del 1000;#P newex 297 30 64 196617 random 100;#P newex 297 74 67 196617 append 1000;#P newex 297 50 27 196617 t i b;#P newex 143 73 48 196617 loadbang;#P button 143 101 15 0;#P newex 143 123 52 196617 s $1/init;#B color 12;#P flonum 526 341 35 9 0. 1. 3 3 0 0 0 221 221 221 222 222 222 0 0 0;#P newex 526 363 126 196617 variedit $1/threshold $1;#B color 12;#P flonum 526 279 35 9 0. 1. 3 3 0 0 0 221 221 221 222 222 222 0 0 0;#P newex 526 301 120 196617 variedit $1/damping $1;#B color 12;#P flonum 526 217 35 9 0. 1. 3 3 0 0 0 221 221 221 222 222 222 0 0 0;#P newex 526 239 118 196617 variedit $1/friction $1;#B color 12;#P flonum 526 155 35 9 0. 100. 3 3 0 0 0 221 221 221 222 222 222 0 0 0;#P newex 526 177 112 196617 variedit $1/spring $1;#B color 12;#P flonum 526 93 35 9 -100. 100. 3 3 0 0 0 221 221 221 222 222 222 0 0 0;#P newex 526 115 108 196617 variedit $1/force $1;#B color 12;#P button 309 203 15 0;#P flonum 297 176 95 9 0 0 0 3 0 0 0 221 221 221 222 222 222 0 0 0;#P newex 81 179 27 196617 f;#P user multiSlider 81 223 214 141 0. 100. 1 3449 15 0 0 2 0 0 0;#M frgb 0 0 0;#M brgb 255 255 255;#M rgb2 127 127 127;#M rgb3 0 0 0;#M rgb4 37 52 91;#M rgb5 74 105 182;#M rgb6 112 158 18;#M rgb7 149 211 110;#M rgb8 187 9 201;#M rgb9 224 62 37;#M rgb10 7 114 128;#P user multiSlider 297 223 214 141 0. 100. 1 3449 15 0 0 2 0 0 0;#M frgb 0 0 0;#M brgb 255 255 255;#M rgb2 127 127 127;#M rgb3 0 0 0;#M rgb4 37 52 91;#M rgb5 74 105 182;#M rgb6 112 158 18;#M rgb7 149 211 110;#M rgb8 187 9 201;#M rgb9 224 62 37;#M rgb10 7 114 128;#P newex 297 149 82 196617 mass-spring $1;#P connect 24 0 3 0;#P connect 3 0 2 0;#P connect 18 0 17 0;#P connect 17 0 16 0;#P connect 27 0 29 0;#P connect 28 0 27 0;#P connect 26 0 28 0;#P connect 24 0 26 0;#P connect 28 1 27 1;#P connect 22 0 21 0;#P connect 17 0 21 0;#P connect 21 0 19 0;#P connect 19 0 20 0;#P connect 20 0 24 0;#P connect 24 0 0 0;#P connect 0 0 4 0;#P connect 4 0 1 0;#P connect 4 0 5 0;#P connect 19 1 22 0;#P connect 22 0 23 0;#P connect 30 0 32 0;#P connect 31 0 30 0;#P connect 5 0 31 0;#P connect 31 1 30 1;#P fasten 6 0 7 0 531 137 517 137 517 86 531 86;#P connect 7 0 6 0;#P fasten 8 0 9 0 531 199 517 199 517 148 531 148;#P connect 9 0 8 0;#P fasten 10 0 11 0 531 261 517 261 517 210 531 210;#P connect 11 0 10 0;#P fasten 12 0 13 0 531 323 517 323 517 272 531 272;#P connect 13 0 12 0;#P fasten 14 0 15 0 531 385 517 385 517 334 531 334;#P connect 15 0 14 0;#P pop;