max v2;#N vpatcher 20 71 871 387;#P setbglock 1;#P button 450 22 13 0;#P noclick;#P objectname oscactivity;#P button 223 22 13 0;#P noclick;#P objectname midiactivity;#P window setfont "Sans Serif" 9.;#P window linecount 1;#P newex 424 241 89 196617 pvar midiactivity;#P newex 424 221 92 196617 r $1/midiactivity;#B color 12;#P newex 308 242 85 196617 pvar oscactivity;#P newex 308 222 88 196617 r $1/oscactivity;#B color 12;#P comment 237 22 61 196617 midi device;#P newex 580 212 219 196617 variedit $1/input $1;#B color 12;#P newex 568 235 88 196617 pvar inputmenu 2;#P comment 417 38 35 196617 /port;#B frgb 0 0 200;#P number 450 36 41 9 1024 9999 3 3 0 0 0 221 221 221 222 222 222 0 0 0;#P objectname port;#P comment 462 22 47 196617 udp port;#P newex 582 153 219 196617 variedit $1/port $1;#B color 12;#P newex 568 176 53 196617 pvar port;#P comment 51 38 38 196617 /input;#B frgb 0 0 200;#P user umenu 87 36 47 196647 1 64 52 1;#X add midi;#X add osc;#P objectname inputmenu;#P bpatcher 64 8 115 19 0 0 openbutton.mxt 0 $1/display "edirol PCR-300/800 display/simul" 115;#P newex 568 109 114 196617 pvar mididevicemenu 2;#P newex 568 36 125 196617 r $1/mididevicemenu;#B color 6;#P user umenu 222 36 174 196647 1 64 52 1;#X add "KARLAX1 Port 1";#X add "KARLAX1 Port 2";#X add "KARLAX1 Port 3";#X add "KARLAX1 Port 4";#X add "to MaxMSP 1";#X add "to MaxMSP 2";#P objectname mididevicemenu;#P newex 590 84 175 196617 variedit $1/mididevice $1;#B color 12;#P comment 162 38 64 196617 /mididevice;#B frgb 0 0 200;#P bpatcher 0 62 512 124 0 0 multimapsendu.edit.mxt 0 $1 /tapemovie;#P background;#P bpatcher 0 0 512 62 0 0 bkgnd12.mxt 0 $1 0 3;#P background;#P objectname background;#P connect 18 0 19 0;#P connect 20 0 21 0;#P connect 5 0 6 0;#P connect 3 0 6 0;#P connect 11 0 10 0;#P connect 16 0 15 0;#P connect 15 1 16 0;#P connect 10 0 11 0;#P connect 6 1 3 0;#P pop;