max v2;#N vpatcher 36 75 1375 839;#P origin 12 0;#P window setfont "Sans Serif" 9.;#P window linecount 1;#P newex 879 460 384 196617 makecontrol $1/inclin/trig/back $1 i 0 1 /common;#B color 5;#P newex 879 440 384 196617 makecontrol $1/inclin/trig/forward $1 i 0 1 /common;#B color 5;#P newex 879 380 384 196617 makecontrol $1/inclin/trig/right $1 i 0 1 /common;#B color 5;#P newex 879 360 384 196617 makecontrol $1/inclin/trig/left $1 i 0 1 /common;#B color 5;#P newex 879 400 384 196617 makecontrol $1/inclin/trig/down $1 i 0 1 /common;#B color 5;#P newex 879 420 384 196617 makecontrol $1/inclin/trig/up $1 i 0 1 /common;#B color 5;#P newex 1213 633 61 196617 s /backtrig;#B color 9;#P newex 1105 633 78 196617 s /forwardtrig;#B color 9;#P newex 1225 612 51 196617 s /uptrig;#B color 9;#P newex 1117 612 64 196617 s /downtrig;#B color 9;#P newex 1221 589 63 196617 s /righttrig;#B color 9;#P newex 1113 589 57 196617 s /lefttrig;#B color 9;#P window setfont "Sans Serif" 18.;#N vpatcher 118 44 1128 695;#N comlet back trig toggle;#P outlet 775 594 15 0;#N comlet forward trig toggle;#P outlet 666 593 15 0;#N comlet up trig toggle;#P outlet 463 596 15 0;#N comlet down trig toggle;#P outlet 354 594 15 0;#N comlet right trig toggle;#P outlet 154 589 15 0;#N comlet left trig toggle;#P outlet 53 586 15 0;#N comlet x input;#P inlet 68 33 15 0;#N comlet back trig bang;#P outlet 752 592 15 0;#N comlet up trig bang;#P outlet 437 595 15 0;#N comlet right trig bang;#P outlet 129 588 15 0;#N comlet forward trig bang;#P outlet 641 590 15 0;#N comlet down trig bang;#P outlet 328 594 15 0;#N comlet left trig bang;#P outlet 23 587 15 0;#P window setfont "Sans Serif" 9.;#P newex 239 548 20 196617 t b;#P newex 318 548 20 196617 t b;#P newex 610 552 20 196617 t b;#P newex 885 212 68 196617 minimum 64.;#P newex 945 235 41 196617 * 0.25;#P newex 885 234 35 196617 * 0.5;#P newex 764 196 68 196617 minimum 64.;#P flonum 807 261 35 9 0 0 0 3 0 0 0 221 221 221 222 222 222 0 0 0;#P newex 807 241 27 196617 - 0.;#P newex 824 219 41 196617 * 0.25;#P flonum 747 168 35 9 0 0 0 3 0 0 0 221 221 221 222 222 222 0 0 0;#P flonum 747 260 35 9 0 0 0 3 0 0 0 221 221 221 222 222 222 0 0 0;#P newex 747 240 27 196617 - 0.;#P newex 764 218 35 196617 * 0.5;#P flonum 928 278 35 9 0 0 0 3 0 0 0 221 221 221 222 222 222 0 0 0;#P newex 928 258 27 196617 + 0.;#P flonum 868 168 35 9 0 0 0 3 0 0 0 221 221 221 222 222 222 0 0 0;#P flonum 868 277 35 9 0 0 0 3 0 0 0 221 221 221 222 222 222 0 0 0;#P newex 868 257 27 196617 + 0.;#P newex 885 190 42 196617 !- 127.;#P newex 775 116 40 196617 line 0.;#P user hslider 775 144 18 128 128 1 0 0;#P newex 775 96 66 196617 pack 0 2000;#P newex 675 415 21 196617 t 1;#P toggle 696 436 15 0;#P newex 675 374 31 196617 t b 0;#P newex 675 395 44 196617 del 175;#P newex 783 414 21 196617 t 1;#P toggle 804 435 15 0;#P newex 783 373 31 196617 t b 0;#P newex 783 394 44 196617 del 175;#P newex 804 453 47 196617 gate 1 1;#P newex 696 454 47 196617 gate 1 1;#P button 763 508 25 0;#P toggle 774 559 28 0;#P message 826 508 14 196617 0;#P message 804 507 14 196617 1;#P newex 849 332 32 196617 sel 1;#P newex 849 310 39 196617 <= 92.;#P newex 804 483 55 196617 onebang 1;#P newex 802 332 32 196617 sel 1;#P newex 802 310 45 196617 >= 104.;#P user hslider 708 62 18 128 128 1 0 0;#P button 655 512 25 0;#P toggle 666 559 28 0;#P message 718 512 14 196617 0;#P message 696 511 14 196617 1;#P newex 739 332 32 196617 sel 1;#P newex 739 310 39 196617 >= 36.;#P newex 696 487 55 196617 onebang 1;#P newex 694 332 32 196617 sel 1;#P newex 694 310 39 196617 <= 24.;#P flonum 694 253 35 9 0 0 0 3 0 0 0 221 221 221 222 222 222 0 0 0;#N comlet z input;#P inlet 694 33 15 0;#P newex 572 212 68 196617 minimum 64.;#P newex 632 235 41 196617 * 0.25;#P newex 572 234 35 196617 * 0.5;#P newex 451 196 68 196617 minimum 64.;#P flonum 494 261 35 9 0 0 0 3 0 0 0 221 221 221 222 222 222 0 0 0;#P newex 494 241 27 196617 - 0.;#P newex 511 219 41 196617 * 0.25;#P flonum 434 168 35 9 0 0 0 3 0 0 0 221 221 221 222 222 222 0 0 0;#P flonum 434 260 35 9 0 0 0 3 0 0 0 221 221 221 222 222 222 0 0 0;#P newex 434 240 27 196617 - 0.;#P newex 451 218 35 196617 * 0.5;#P flonum 615 278 35 9 0 0 0 3 0 0 0 221 221 221 222 222 222 0 0 0;#P newex 615 258 27 196617 + 0.;#P flonum 555 168 35 9 0 0 0 3 0 0 0 221 221 221 222 222 222 0 0 0;#P flonum 555 277 35 9 0 0 0 3 0 0 0 221 221 221 222 222 222 0 0 0;#P newex 555 257 27 196617 + 0.;#P newex 572 190 42 196617 !- 127.;#P newex 462 116 40 196617 line 0.;#P user hslider 462 144 18 128 128 1 0 0;#P newex 462 96 66 196617 pack 0 2000;#P newex 362 415 21 196617 t 1;#P toggle 383 436 15 0;#P newex 362 374 31 196617 t b 0;#P newex 362 395 44 196617 del 175;#P newex 470 414 21 196617 t 1;#P toggle 491 435 15 0;#P newex 470 373 31 196617 t b 0;#P newex 470 394 44 196617 del 175;#P newex 491 453 47 196617 gate 1 1;#P newex 383 454 47 196617 gate 1 1;#P button 450 508 25 0;#P toggle 461 559 28 0;#P message 513 508 14 196617 0;#P message 491 507 14 196617 1;#P newex 536 332 32 196617 sel 1;#P newex 536 310 39 196617 <= 92.;#P newex 491 483 55 196617 onebang 1;#P newex 489 332 32 196617 sel 1;#P newex 489 310 45 196617 >= 104.;#P user hslider 395 62 18 128 128 1 0 0;#P button 342 512 25 0;#P toggle 353 559 28 0;#P message 405 512 14 196617 0;#P message 383 511 14 196617 1;#P newex 426 332 32 196617 sel 1;#P newex 426 310 39 196617 >= 36.;#P newex 383 487 55 196617 onebang 1;#P newex 381 332 32 196617 sel 1;#P newex 381 310 39 196617 <= 24.;#P flonum 381 253 35 9 0 0 0 3 0 0 0 221 221 221 222 222 222 0 0 0;#N comlet y input;#P inlet 381 33 15 0;#P newex 259 212 68 196617 minimum 64.;#P newex 319 235 41 196617 * 0.25;#P newex 259 234 35 196617 * 0.5;#P newex 138 196 68 196617 minimum 64.;#P flonum 181 261 35 9 0 0 0 3 0 0 0 221 221 221 222 222 222 0 0 0;#P newex 181 241 27 196617 - 0.;#P newex 198 219 41 196617 * 0.25;#P flonum 121 168 35 9 0 0 0 3 0 0 0 221 221 221 222 222 222 0 0 0;#P flonum 121 260 35 9 0 0 0 3 0 0 0 221 221 221 222 222 222 0 0 0;#P newex 121 240 27 196617 - 0.;#P newex 138 218 35 196617 * 0.5;#P flonum 302 278 35 9 0 0 0 3 0 0 0 221 221 221 222 222 222 0 0 0;#P newex 302 258 27 196617 + 0.;#P flonum 242 168 35 9 0 0 0 3 0 0 0 221 221 221 222 222 222 0 0 0;#P flonum 242 277 35 9 0 0 0 3 0 0 0 221 221 221 222 222 222 0 0 0;#P newex 242 257 27 196617 + 0.;#P newex 259 190 42 196617 !- 127.;#P newex 149 116 40 196617 line 0.;#P user hslider 149 144 18 128 128 1 0 0;#P newex 149 96 66 196617 pack 0 2000;#P newex 49 415 21 196617 t 1;#P toggle 70 436 15 0;#P newex 49 374 31 196617 t b 0;#P newex 49 395 44 196617 del 175;#P newex 157 414 21 196617 t 1;#P toggle 178 435 15 0;#P newex 157 373 31 196617 t b 0;#P newex 157 394 44 196617 del 175;#P newex 178 453 47 196617 gate 1 1;#P newex 70 454 47 196617 gate 1 1;#P button 137 508 25 0;#P toggle 151 554 28 0;#P message 200 508 14 196617 0;#P message 178 507 14 196617 1;#P newex 223 332 32 196617 sel 1;#P newex 223 310 39 196617 <= 92.;#P newex 178 483 55 196617 onebang 1;#P newex 176 332 32 196617 sel 1;#P newex 176 310 45 196617 >= 104.;#P user hslider 82 62 18 128 128 1 0 0;#P button 29 512 25 0;#P toggle 53 551 28 0;#P message 92 512 14 196617 0;#P message 70 511 14 196617 1;#P newex 113 332 32 196617 sel 1;#P newex 113 310 39 196617 >= 36.;#P newex 70 487 55 196617 onebang 1;#P newex 68 332 32 196617 sel 1;#P newex 68 310 39 196617 <= 24.;#P flonum 68 253 35 9 0 0 0 3 0 0 0 221 221 221 222 222 222 0 0 0;#P connect 9 0 155 0;#P connect 3 0 9 0;#P connect 153 0 27 0;#P connect 152 0 27 0;#P fasten 13 0 27 0 183 503 139 503 139 368 54 368;#P connect 27 0 26 0;#P connect 26 0 29 0;#P connect 6 0 8 0;#P connect 7 0 8 0;#P connect 8 0 162 0;#P connect 161 0 0 0;#P connect 0 0 1 0;#P connect 1 0 2 0;#P connect 29 0 28 0;#P connect 27 1 28 0;#P connect 28 0 20 0;#P connect 20 0 3 0;#P connect 3 0 6 0;#P connect 161 0 10 0;#P connect 3 1 7 0;#P connect 41 0 1 1;#P connect 2 0 20 1;#P connect 0 0 4 0;#P connect 4 0 5 0;#P connect 26 0 3 1;#P connect 5 0 3 1;#P connect 32 0 42 0;#P connect 42 0 40 0;#P connect 40 0 41 0;#P connect 19 0 158 0;#P connect 13 0 19 0;#P connect 42 0 46 0;#P connect 46 0 39 0;#P connect 39 0 40 1;#P connect 45 0 4 1;#P fasten 0 0 30 0 73 275 106 275 106 91 154 91;#P connect 30 0 32 0;#P connect 32 0 31 0;#P connect 16 0 18 0;#P connect 17 0 18 0;#P connect 18 0 163 0;#P connect 153 0 23 0;#P connect 152 0 23 0;#P connect 3 0 23 0;#P connect 23 0 22 0;#P connect 22 0 25 0;#P connect 0 0 11 0;#P connect 11 0 12 0;#P connect 23 1 24 0;#P connect 25 0 24 0;#P connect 24 0 21 0;#P connect 21 0 13 0;#P connect 13 0 16 0;#P fasten 42 0 44 0 126 186 186 186;#P connect 44 0 45 0;#P connect 46 0 43 0;#P connect 43 0 44 1;#P connect 13 1 17 0;#P connect 35 0 11 1;#P fasten 12 0 21 1 181 359 220 359;#P connect 0 0 14 0;#P connect 14 0 15 0;#P connect 22 0 13 1;#P connect 15 0 13 1;#P connect 9 0 154 0;#P connect 19 0 154 0;#P connect 32 0 36 0;#P connect 36 0 34 0;#P connect 34 0 35 0;#P connect 38 0 14 1;#P connect 36 0 33 0;#P connect 33 0 49 0;#P connect 49 0 47 0;#P connect 47 0 34 1;#P fasten 36 0 37 0 247 186 307 186;#P connect 37 0 38 0;#P connect 70 0 153 0;#P connect 60 0 153 0;#P connect 49 0 48 0;#P connect 48 0 37 1;#P connect 60 0 156 0;#P connect 54 0 60 0;#P connect 57 0 59 0;#P connect 58 0 59 0;#P connect 59 0 164 0;#P connect 154 0 78 0;#P fasten 64 0 78 0 496 503 452 503 452 368 367 368;#P connect 152 0 78 0;#P connect 78 0 77 0;#P connect 77 0 80 0;#P connect 50 0 51 0;#P connect 51 0 52 0;#P connect 52 0 53 0;#P connect 78 1 79 0;#P connect 80 0 79 0;#P connect 79 0 71 0;#P connect 71 0 54 0;#P connect 54 0 57 0;#P connect 50 0 61 0;#P connect 54 1 58 0;#P connect 92 0 52 1;#P connect 53 0 71 1;#P connect 51 0 55 0;#P connect 55 0 56 0;#P connect 77 0 54 1;#P connect 56 0 54 1;#P connect 83 0 93 0;#P connect 93 0 91 0;#P connect 91 0 92 0;#P connect 70 0 159 0;#P connect 64 0 70 0;#P connect 93 0 97 0;#P connect 97 0 90 0;#P connect 90 0 91 1;#P connect 96 0 55 1;#P connect 67 0 69 0;#P connect 68 0 69 0;#P fasten 51 0 81 0 386 275 419 275 419 91 467 91;#P connect 81 0 83 0;#P connect 83 0 82 0;#P connect 69 0 165 0;#P connect 154 0 74 0;#P connect 152 0 74 0;#P connect 54 0 74 0;#P connect 74 0 73 0;#P connect 73 0 76 0;#P connect 51 0 62 0;#P connect 62 0 63 0;#P connect 76 0 75 0;#P connect 74 1 75 0;#P connect 75 0 72 0;#P connect 72 0 64 0;#P connect 64 0 67 0;#P fasten 93 0 95 0 439 186 499 186;#P connect 95 0 96 0;#P connect 97 0 94 0;#P connect 94 0 95 1;#P connect 64 1 68 0;#P connect 86 0 62 1;#P fasten 63 0 72 1 494 359 533 359;#P connect 51 0 65 0;#P connect 65 0 66 0;#P connect 73 0 64 1;#P connect 66 0 64 1;#P connect 83 0 87 0;#P connect 87 0 85 0;#P connect 85 0 86 0;#P connect 89 0 65 1;#P connect 87 0 84 0;#P connect 84 0 100 0;#P connect 100 0 98 0;#P connect 98 0 85 1;#P connect 121 0 152 0;#P connect 111 0 152 0;#P fasten 87 0 88 0 560 186 620 186;#P connect 88 0 89 0;#P connect 100 0 99 0;#P connect 99 0 88 1;#P connect 111 0 157 0;#P connect 105 0 111 0;#P connect 108 0 110 0;#P connect 109 0 110 0;#P connect 110 0 166 0;#P fasten 115 0 129 0 809 503 765 503 765 368 680 368;#P connect 153 0 129 0;#P connect 154 0 129 0;#P connect 129 0 128 0;#P connect 128 0 131 0;#P connect 101 0 102 0;#P connect 102 0 103 0;#P connect 103 0 104 0;#P connect 131 0 130 0;#P connect 129 1 130 0;#P connect 130 0 122 0;#P connect 122 0 105 0;#P connect 105 0 108 0;#P connect 101 0 112 0;#P connect 105 1 109 0;#P connect 143 0 103 1;#P connect 104 0 122 1;#P connect 102 0 106 0;#P connect 106 0 107 0;#P connect 128 0 105 1;#P connect 107 0 105 1;#P connect 134 0 144 0;#P connect 144 0 142 0;#P connect 142 0 143 0;#P connect 121 0 160 0;#P connect 115 0 121 0;#P connect 144 0 148 0;#P connect 148 0 141 0;#P connect 141 0 142 1;#P connect 147 0 106 1;#P connect 118 0 120 0;#P connect 119 0 120 0;#P fasten 102 0 132 0 699 275 732 275 732 91 780 91;#P connect 132 0 134 0;#P connect 134 0 133 0;#P connect 120 0 167 0;#P connect 153 0 125 0;#P connect 154 0 125 0;#P connect 105 0 125 0;#P connect 125 0 124 0;#P connect 124 0 127 0;#P connect 102 0 113 0;#P connect 113 0 114 0;#P connect 125 1 126 0;#P connect 127 0 126 0;#P connect 126 0 123 0;#P connect 123 0 115 0;#P connect 115 0 118 0;#P fasten 144 0 146 0 752 186 812 186;#P connect 146 0 147 0;#P connect 148 0 145 0;#P connect 145 0 146 1;#P connect 115 1 119 0;#P connect 137 0 113 1;#P fasten 114 0 123 1 807 359 846 359;#P connect 102 0 116 0;#P connect 116 0 117 0;#P connect 124 0 115 1;#P connect 117 0 115 1;#P connect 134 0 138 0;#P connect 138 0 136 0;#P connect 136 0 137 0;#P connect 140 0 116 1;#P connect 138 0 135 0;#P connect 135 0 151 0;#P connect 151 0 149 0;#P connect 149 0 136 1;#P fasten 138 0 139 0 873 186 933 186;#P connect 139 0 140 0;#P connect 151 0 150 0;#P connect 150 0 139 1;#P pop;#P newobj 191 140 157 196626 p xyz-trigs;#B color 6;#P window setfont "Sans Serif" 9.;#P newex 974 237 306 196617 makecontrol $1/vert/dist $1 f 0 0 /common;#B color 5;#P newex 1052 211 306 196617 makecontrol $1/vert/az $1 f 0 0 /common;#B color 5;#P newex 974 99 103 196617 unpack 0. 0.;#P newex 974 79 49 196617 pak 0. 0.;#P flonum 974 191 35 9 0 0 0 3 0 0 0 221 221 221 222 222 222 0 0 0;#P flonum 1052 191 71 9 0 0 0 3 0 0 0 221 221 221 222 222 222 0 0 0;#P newex 1052 169 126 196617 expr $f1*180/3.141593;#P newex 974 146 88 196617 cartopol;#P newex 1067 122 91 196617 expr ($f1-0.5)*4;#P newex 974 122 91 196617 expr ($f1-0.5)*4;#P newex 974 55 40 196617 / 127.;#N vpatcher 639 155 1122 849;#P window setfont "Sans Serif" 9.;#P window linecount 17;#P message 58 50 135 196617 \; $1/LTB0/init bang \; $1/LTB1/init bang \; $1/LTB2/init bang \; $1/LTB3/init bang \; $1/LTB4/init bang \; $1/JR/init bang \; $1/JU/init bang \; $1/JL/init bang \; $1/JD/init bang \; $1/JC/init bang \; $1/channel/init bang \; $1/horiz/az/init bang \; $1/horiz/dist/init bang \; $1/vert/az/init bang \; $1/vert/dist/init bang \; control_register/store $1 \;;#P window linecount 53;#P message 248 50 167 196617 \; $1/sw/init bang \; $1/pitchvel/init bang \; $1/pitch/init bang \; $1/vel/init bang \; $1/strippitchvel/init bang \; $1/strippitch/init bang \; $1/stripvel/init bang \; $1/LC1/init bang \; $1/LC2/init bang \; $1/LC3/init bang \; $1/LC4/init bang \; $1/LC5/init bang \; $1/MC1/init bang \; $1/RC1/init bang \; $1/RC2/init bang \; $1/RC3/init bang \; $1/RC4/init bang \; $1/RC5/init bang \; $1/inclin/x/init bang \; $1/inclin/y/init bang \; $1/inclin/z/init bang \; $1/inclin/trig/left/init bang \; $1/inclin/trig/right/init bang \; $1/inclin/trig/down/init bang \; $1/inclin/trig/up/init bang \; $1/inclin/trig/forward/init bang \; $1/inclin/trig/back/init bang \; $1/MC1d/init bang \; $1/MC1u/init bang \; $1/accel/x/init bang \; $1/accel/y/init bang \; $1/accel/z/init bang \; $1/LN1/init bang \; $1/LN2/init bang \; $1/LN3/init bang \; $1/LN4/init bang \; $1/RN1/init bang \; $1/RN2/init bang \; $1/RN3/init bang \; $1/RN4/init bang \; $1/LB1/init bang \; $1/LB2/init bang \; $1/LB3/init bang \; $1/LB4/init bang \; $1/RB1/init bang \; $1/RB2/init bang \; $1/RB3/init bang \; $1/RB4/init bang \; $1/RTB1/init bang \; $1/RTB2/init bang \; $1/RTB3/init bang \; $1/RTB4/init bang \;;#P inlet 248 30 15 0;#P inlet 58 30 15 0;#P connect 0 0 3 0;#P connect 1 0 2 0;#P pop;#P newobj 650 145 61 196617 p init-mess;#B color 6;#P newex 759 296 306 196617 makecontrol $1/horiz/dist $1 f 0 0 /common;#B color 5;#P newex 837 270 306 196617 makecontrol $1/horiz/az $1 f 0 0 /common;#B color 5;#P newex 759 158 103 196617 unpack 0. 0.;#P newex 759 135 64 196617 pak 0. 0.;#P flonum 759 250 35 9 0 0 0 3 0 0 0 221 221 221 222 222 222 0 0 0;#P flonum 837 250 71 9 0 0 0 3 0 0 0 221 221 221 222 222 222 0 0 0;#P newex 837 228 126 196617 expr $f1*180/3.141593;#P newex 759 205 88 196617 cartopol;#P newex 852 181 91 196617 expr ($f1-0.5)*4;#P newex 759 181 91 196617 expr ($f1-0.5)*4;#P newex 813 112 40 196617 / 127.;#P newex 759 112 40 196617 / 127.;#P number 749 639 35 9 0 0 0 3 0 0 0 221 221 221 222 222 222 0 0 0;#P newex 785 638 286 196617 makecontrol $1/JR $1 i 0 127 /common;#B color 5;#P number 805 711 35 9 0 0 0 3 0 0 0 221 221 221 222 222 222 0 0 0;#P newex 841 710 286 196617 makecontrol $1/JC $1 i 0 127 /common;#B color 5;#P number 791 693 35 9 0 0 0 3 0 0 0 221 221 221 222 222 222 0 0 0;#P newex 827 692 286 196617 makecontrol $1/JD $1 i 0 127 /common;#B color 5;#P number 777 675 35 9 0 0 0 3 0 0 0 221 221 221 222 222 222 0 0 0;#P newex 813 674 286 196617 makecontrol $1/JL $1 i 0 127 /common;#B color 5;#P number 763 657 35 9 0 0 0 3 0 0 0 221 221 221 222 222 222 0 0 0;#P newex 799 656 290 196617 makecontrol $1/JU $1 i 0 127 /common;#B color 5;#P number 391 639 35 9 0 0 0 3 0 0 0 221 221 221 222 222 222 0 0 0;#P newex 427 638 286 196617 makecontrol $1/LTB0 $1 i 0 127 /common;#B color 5;#P number 447 711 35 9 0 0 0 3 0 0 0 221 221 221 222 222 222 0 0 0;#P newex 483 710 286 196617 makecontrol $1/LTB4 $1 i 0 127 /common;#B color 5;#P number 433 693 35 9 0 0 0 3 0 0 0 221 221 221 222 222 222 0 0 0;#P newex 469 692 286 196617 makecontrol $1/LTB3 $1 i 0 127 /common;#B color 5;#P number 419 675 35 9 0 0 0 3 0 0 0 221 221 221 222 222 222 0 0 0;#P newex 455 674 286 196617 makecontrol $1/LTB2 $1 i 0 127 /common;#B color 5;#P number 405 657 35 9 0 0 0 3 0 0 0 221 221 221 222 222 222 0 0 0;#P newex 441 656 286 196617 makecontrol $1/LTB1 $1 i 0 127 /common;#B color 5;#P number 518 52 35 9 0 0 0 3 0 0 0 221 221 221 222 222 222 0 0 0;#P newex 518 32 246 196617 makeparam $1/channel $1 i 1 1 16;#B color 12;#P newex 26 597 30 196617 pack;#P newex 26 696 329 196617 makecontrol $1/strippitchvel $1 li 0 127 /common;#B color 5;#P newex 67 719 307 196617 makecontrol $1/pitchvel $1 li 0 127 /common;#B color 5;#P newex 15 548 74 196617 t l l;#P newex 56 649 304 196617 makecontrol $1/stripvel $1 i 0 127 /common;#B color 5;#P newex 15 668 312 196617 makecontrol $1/strippitch $1 i 0 127 /common;#B color 5;#P number 79 592 31 9 0 0 0 3 0 0 0 221 221 221 222 222 222 0 0 0;#P number 117 592 31 9 0 0 0 3 0 0 0 221 221 221 222 222 222 0 0 0;#P newex 15 572 51 196617 stripnote;#P newex 79 572 40 196617 unpack;#P newex 117 611 282 196617 makecontrol $1/vel $1 i 0 127 /common;#B color 5;#P newex 79 630 290 196617 makecontrol $1/pitch $1 i 0 127 /common;#B color 5;#P number 617 589 35 9 0 0 0 3 0 0 0 221 221 221 222 222 222 0 0 0;#P newex 653 588 293 196617 makecontrol $1/RTB4 $1 i 0 127 /common;#B color 5;#P number 603 571 35 9 0 0 0 3 0 0 0 221 221 221 222 222 222 0 0 0;#P newex 639 570 293 196617 makecontrol $1/RTB3 $1 i 0 127 /common;#B color 5;#P number 589 553 35 9 0 0 0 3 0 0 0 221 221 221 222 222 222 0 0 0;#P newex 625 552 293 196617 makecontrol $1/RTB2 $1 i 0 127 /common;#B color 5;#P number 575 535 35 9 0 0 0 3 0 0 0 221 221 221 222 222 222 0 0 0;#P newex 611 534 293 196617 makecontrol $1/RTB1 $1 i 0 127 /common;#B color 5;#P number 561 517 35 9 0 0 0 3 0 0 0 221 221 221 222 222 222 0 0 0;#P newex 597 516 287 196617 makecontrol $1/RB4 $1 i 0 127 /common;#B color 5;#P number 547 499 35 9 0 0 0 3 0 0 0 221 221 221 222 222 222 0 0 0;#P newex 583 498 287 196617 makecontrol $1/RB3 $1 i 0 127 /common;#B color 5;#P number 533 481 35 9 0 0 0 3 0 0 0 221 221 221 222 222 222 0 0 0;#P newex 569 480 287 196617 makecontrol $1/RB2 $1 i 0 127 /common;#B color 5;#P number 519 463 35 9 0 0 0 3 0 0 0 221 221 221 222 222 222 0 0 0;#P newex 555 462 287 196617 makecontrol $1/RB1 $1 i 0 127 /common;#B color 5;#P number 505 445 35 9 0 0 0 3 0 0 0 221 221 221 222 222 222 0 0 0;#P newex 541 444 286 196617 makecontrol $1/LB4 $1 i 0 127 /common;#B color 5;#P number 491 427 35 9 0 0 0 3 0 0 0 221 221 221 222 222 222 0 0 0;#P newex 527 426 286 196617 makecontrol $1/LB3 $1 i 0 127 /common;#B color 5;#P number 477 409 35 9 0 0 0 3 0 0 0 221 221 221 222 222 222 0 0 0;#P newex 513 408 286 196617 makecontrol $1/LB2 $1 i 0 127 /common;#B color 5;#P number 463 391 35 9 0 0 0 3 0 0 0 221 221 221 222 222 222 0 0 0;#P newex 499 390 286 196617 makecontrol $1/LB1 $1 i 0 127 /common;#B color 5;#P number 449 373 35 9 0 0 0 3 0 0 0 221 221 221 222 222 222 0 0 0;#P newex 485 372 287 196617 makecontrol $1/RN4 $1 i 0 127 /common;#B color 5;#P number 435 355 35 9 0 0 0 3 0 0 0 221 221 221 222 222 222 0 0 0;#P newex 471 354 287 196617 makecontrol $1/RN3 $1 i 0 127 /common;#B color 5;#P number 421 337 35 9 0 0 0 3 0 0 0 221 221 221 222 222 222 0 0 0;#P newex 457 336 287 196617 makecontrol $1/RN2 $1 i 0 127 /common;#B color 5;#P number 407 319 35 9 0 0 0 3 0 0 0 221 221 221 222 222 222 0 0 0;#P newex 443 318 287 196617 makecontrol $1/RN1 $1 i 0 127 /common;#B color 5;#P number 393 301 35 9 0 0 0 3 0 0 0 221 221 221 222 222 222 0 0 0;#P newex 429 300 286 196617 makecontrol $1/LN4 $1 i 0 127 /common;#B color 5;#P number 379 283 35 9 0 0 0 3 0 0 0 221 221 221 222 222 222 0 0 0;#P newex 415 282 286 196617 makecontrol $1/LN3 $1 i 0 127 /common;#B color 5;#P number 365 265 35 9 0 0 0 3 0 0 0 221 221 221 222 222 222 0 0 0;#P newex 401 264 286 196617 makecontrol $1/LN2 $1 i 0 127 /common;#B color 5;#P number 351 247 35 9 0 0 0 3 0 0 0 221 221 221 222 222 222 0 0 0;#P newex 387 246 286 196617 makecontrol $1/LN1 $1 i 0 127 /common;#B color 5;#P number 242 574 35 9 0 0 0 3 0 0 0 221 221 221 222 222 222 0 0 0;#P number 228 556 35 9 0 0 0 3 0 0 0 221 221 221 222 222 222 0 0 0;#P number 214 538 35 9 0 0 0 3 0 0 0 221 221 221 222 222 222 0 0 0;#P newex 279 573 304 196617 makecontrol $1/accel/z $1 i 0 127 /common;#B color 5;#P newex 265 555 305 196617 makecontrol $1/accel/y $1 i 0 127 /common;#B color 5;#P newex 251 537 305 196617 makecontrol $1/accel/x $1 i 0 127 /common;#B color 5;#P number 201 520 35 9 0 0 0 3 0 0 0 221 221 221 222 222 222 0 0 0;#P newex 237 519 295 196617 makecontrol $1/MC1u $1 i 0 127 /common;#B color 5;#P number 187 502 35 9 0 0 0 3 0 0 0 221 221 221 222 222 222 0 0 0;#P newex 223 501 295 196617 makecontrol $1/MC1d $1 i 0 127 /common;#B color 5;#P number 173 484 35 9 0 0 0 3 0 0 0 221 221 221 222 222 222 0 0 0;#P newex 209 483 305 196617 makecontrol $1/inclin/z $1 i 0 127 /common;#B color 5;#P number 159 466 35 9 0 0 0 3 0 0 0 221 221 221 222 222 222 0 0 0;#P newex 195 465 306 196617 makecontrol $1/inclin/y $1 i 0 127 /common;#B color 5;#P number 145 448 35 9 0 0 0 3 0 0 0 221 221 221 222 222 222 0 0 0;#P newex 181 447 306 196617 makecontrol $1/inclin/x $1 i 0 127 /common;#B color 5;#P number 131 427 35 9 0 0 0 3 0 0 0 221 221 221 222 222 222 0 0 0;#P number 117 409 35 9 0 0 0 3 0 0 0 221 221 221 222 222 222 0 0 0;#P number 103 391 35 9 0 0 0 3 0 0 0 221 221 221 222 222 222 0 0 0;#P number 89 373 35 9 0 0 0 3 0 0 0 221 221 221 222 222 222 0 0 0;#P number 75 355 35 9 0 0 0 3 0 0 0 221 221 221 222 222 222 0 0 0;#P number 61 337 35 9 0 0 0 3 0 0 0 221 221 221 222 222 222 0 0 0;#P number 47 319 35 9 0 0 0 3 0 0 0 221 221 221 222 222 222 0 0 0;#P number 33 301 35 9 0 0 0 3 0 0 0 221 221 221 222 222 222 0 0 0;#P number 19 283 35 9 0 0 0 3 0 0 0 221 221 221 222 222 222 0 0 0;#P number 5 265 35 9 0 0 0 3 0 0 0 221 221 221 222 222 222 0 0 0;#P number -9 247 35 9 0 0 0 3 0 0 0 221 221 221 222 222 222 0 0 0;#P newex 167 426 288 196617 makecontrol $1/RC5 $1 i 0 127 /common;#B color 5;#P newex 153 408 288 196617 makecontrol $1/RC4 $1 i 0 127 /common;#B color 5;#P newex 139 390 288 196617 makecontrol $1/RC3 $1 i 0 127 /common;#B color 5;#P newex 125 372 288 196617 makecontrol $1/RC2 $1 i 0 127 /common;#B color 5;#P newex 111 354 288 196617 makecontrol $1/RC1 $1 i 0 127 /common;#B color 5;#P newex 97 336 290 196617 makecontrol $1/MC1 $1 i 0 127 /common;#B color 5;#P newex 83 318 287 196617 makecontrol $1/LC5 $1 i 0 127 /common;#B color 5;#P newex 69 300 287 196617 makecontrol $1/LC4 $1 i 0 127 /common;#B color 5;#P newex 55 282 287 196617 makecontrol $1/LC3 $1 i 0 127 /common;#B color 5;#P newex 41 264 287 196617 makecontrol $1/LC2 $1 i 0 127 /common;#B color 5;#P newex 100 192 57 196617 pack 0 0 0;#P newex 100 171 40 196617 notein;#P newex 27 192 57 196617 pack 0 0 0;#P newex 27 171 40 196617 ctlin;#P newex 613 58 151 196617 moduleinit $1;#B color 13;#P button 613 78 15 0;#P newex 613 96 78 196617 t b b b;#P newex 88 120 83 196617 s $1/midiinputs;#B color 6;#P newex 543 85 48 196617 loadbang;#P message 543 127 60 196617 controllers;#P newex 543 172 178 196617 s $1/mididevicemenu;#B color 12;#P newex 543 146 45 196617 midiinfo;#B color 5;#P newex 31 51 67 196617 route <none>;#P newex 31 31 188 196617 makeparam $1/mididevice $1 s <none>;#B color 12;#P newex 367 101 114 196617 pvar mididevicemenu 2;#P newex 367 28 125 196617 r $1/mididevicemenu;#B color 6;#P toggle 125 77 15 0;#P message 125 97 53 196617 enable \$1;#P newex 125 55 221 196617 makeswitch $1/sw $1 common_switchstate 0;#B color 12;#P newex 382 78 62 196617 prepend set;#P newex 382 58 125 196617 r $1/mididevice;#B color 6;#P newex 367 129 125 196617 s $1/mididevice;#B color 6;#N vpatcher 309 44 982 350;#P origin 0 2;#P setbglock 1;#P window setfont "Sans Serif" 9.;#P window linecount 1;#P comment 535 187 36 196617 /back;#P comment 479 164 47 196617 forward;#P comment 533 156 24 196617 /up;#P comment 535 196 39 196617 /down;#P comment 555 179 38 196617 /right;#P comment 481 187 32 196617 /left;#P comment 573 161 69 196617 /inclin/trig/;#N comlet back;#P hidden inlet 636 161 15 0;#N comlet forward;#P hidden inlet 620 161 15 0;#N comlet up;#P hidden inlet 604 161 15 0;#N comlet down;#P hidden inlet 588 161 15 0;#N comlet right;#P hidden inlet 574 161 15 0;#N comlet left;#P hidden inlet 558 161 15 0;#P button 522 179 15 0;#P button 517 173 15 0;#P button 520 194 15 0;#P button 519 156 15 0;#P button 542 173 15 0;#P button 499 173 15 0;#P outlet 894 596 15 0;#P outlet 879 596 15 0;#P outlet 864 596 15 0;#P outlet 849 596 15 0;#P newex 950 449 57 196617 pvar LTB0;#P comment 408 218 34 196617 LTB0;#P toggle 409 229 20 0;#P objectname LTB0;#P outlet 739 596 15 0;#P newex 939 504 57 196617 pvar LTB4;#P newex 920 486 57 196617 pvar LTB3;#P newex 901 468 57 196617 pvar LTB2;#P newex 882 450 57 196617 pvar LTB1;#P comment 553 251 34 196617 LTB4;#P toggle 556 262 20 0;#P objectname LTB4;#P comment 521 251 34 196617 LTB3;#P toggle 524 262 20 0;#P objectname LTB3;#P comment 553 219 34 196617 LTB2;#P toggle 556 230 20 0;#P objectname LTB2;#P comment 523 219 34 196617 LTB1;#P toggle 524 230 20 0;#P objectname LTB1;#P newex 853 522 46 196617 pvar JC;#P newex 843 504 46 196617 pvar JD;#P newex 831 486 45 196617 pvar JL;#P newex 819 468 46 196617 pvar JU;#P newex 807 450 46 196617 pvar JR;#P outlet 821 596 15 0;#P outlet 806 596 15 0;#P outlet 791 596 15 0;#P outlet 776 596 15 0;#P outlet 761 596 15 0;#P comment 489 221 20 196617 JC;#P comment 434 242 20 196617 JL;#P comment 465 215 20 196617 JU;#P comment 493 241 20 196617 JR;#P comment 465 269 20 196617 JD;#P toggle 465 255 15 0;#P objectname JD;#P toggle 451 241 15 0;#P objectname JL;#P toggle 465 227 15 0;#P objectname JU;#P toggle 479 241 15 0;#P objectname JR;#P toggle 465 241 15 0;#P objectname JC;#P outlet 669 596 15 0;#P comment 627 250 34 196617 RTB4;#P toggle 630 261 20 0;#P objectname RTB4;#P comment 595 250 34 196617 RTB3;#P toggle 598 261 20 0;#P objectname RTB3;#P comment 627 218 34 196617 RTB2;#P toggle 630 229 20 0;#P objectname RTB2;#P comment 595 218 34 196617 RTB1;#P toggle 598 229 20 0;#P objectname RTB1;#P outlet 613 596 15 0;#P outlet 598 596 15 0;#P outlet 583 596 15 0;#P outlet 568 596 15 0;#P outlet 553 596 15 0;#P outlet 538 596 15 0;#P outlet 523 596 15 0;#P outlet 508 596 15 0;#P outlet 493 596 15 0;#P outlet 478 596 15 0;#P outlet 463 596 15 0;#P outlet 448 596 15 0;#P outlet 433 596 15 0;#P outlet 418 596 15 0;#P outlet 403 596 15 0;#P outlet 388 596 15 0;#P outlet 373 596 15 0;#P outlet 358 596 15 0;#P outlet 343 596 15 0;#P outlet 328 596 15 0;#P outlet 313 596 15 0;#P outlet 298 596 15 0;#P outlet 283 596 15 0;#P outlet 268 596 15 0;#P outlet 253 596 15 0;#P outlet 238 596 15 0;#P outlet 223 596 15 0;#P outlet 208 596 15 0;#P outlet 193 596 15 0;#P outlet 178 596 15 0;#P outlet 163 596 15 0;#P outlet 148 596 15 0;#P outlet 133 596 15 0;#P outlet 118 596 15 0;#P outlet 103 596 15 0;#P outlet 88 596 15 0;#P outlet 73 596 15 0;#P outlet 58 596 15 0;#P outlet 43 596 15 0;#P newex 118 362 54 196617 pvar chan;#P comment 448 163 25 196617 RB4;#P comment 448 4 25 196617 RB2;#P comment 287 163 25 196617 RB3;#P comment 287 4 25 196617 RB1;#P comment 170 164 25 196617 LB3;#P comment 170 5 25 196617 LB1;#P comment 9 164 25 196617 LB4;#P comment 9 5 25 196617 LB2;#P newex 782 505 58 196617 pvar RTB4;#P newex 763 487 58 196617 pvar RTB3;#P newex 744 469 58 196617 pvar RTB2;#P newex 725 451 58 196617 pvar RTB1;#P newex 724 423 274 196617 route 104 105 102 103 96 97 98 99 100 94 93 92 91 95;#P toggle 448 176 25 0;#P objectname RB4;#P toggle 287 176 25 0;#P objectname RB3;#P toggle 448 17 25 0;#P objectname RB2;#P toggle 287 17 25 0;#P objectname RB1;#P toggle 170 177 25 0;#P objectname LB3;#P toggle 9 177 25 0;#P objectname LB4;#P toggle 170 18 25 0;#P objectname LB1;#P toggle 9 18 25 0;#P objectname LB2;#P newex 687 505 52 196617 pvar RB4;#P newex 668 487 52 196617 pvar RB3;#P newex 649 469 52 196617 pvar RB2;#P newex 630 451 52 196617 pvar RB1;#P newex 611 505 51 196617 pvar LB4;#P newex 592 487 51 196617 pvar LB3;#P newex 573 469 51 196617 pvar LB2;#P newex 554 451 51 196617 pvar LB1;#P newex 554 423 166 196617 route 84 101 85 86 87 88 106 89;#P comment 400 147 25 196617 RN4;#P number 400 186 25 9 0 0 32 3 0 0 0 221 221 221 222 222 222 0 0 0;#P user uslider 400 160 25 9 128 1 0 0;#P objectname RN4;#P comment 374 147 25 196617 RN3;#P number 374 186 25 9 0 0 32 3 0 0 0 221 221 221 222 222 222 0 0 0;#P user uslider 374 160 25 9 128 1 0 0;#P objectname RN3;#P comment 348 147 25 196617 RN2;#P number 348 186 25 9 0 0 32 3 0 0 0 221 221 221 222 222 222 0 0 0;#P user uslider 348 160 25 9 128 1 0 0;#P objectname RN2;#P comment 322 147 25 196617 RN1;#P number 322 186 25 9 0 0 32 3 0 0 0 221 221 221 222 222 222 0 0 0;#P user uslider 322 160 25 9 128 1 0 0;#P objectname RN1;#P newex 492 511 52 196617 pvar RN4;#P newex 478 493 52 196617 pvar RN3;#P newex 464 475 52 196617 pvar RN2;#P newex 450 457 52 196617 pvar RN1;#P newex 438 511 51 196617 pvar LN4;#P newex 424 493 51 196617 pvar LN3;#P newex 410 475 51 196617 pvar LN2;#P comment 122 148 25 196617 LN4;#P number 122 187 25 9 0 0 32 3 0 0 0 221 221 221 222 222 222 0 0 0;#P user uslider 122 161 25 9 128 1 0 0;#P objectname LN4;#P comment 96 148 25 196617 LN3;#P number 96 187 25 9 0 0 32 3 0 0 0 221 221 221 222 222 222 0 0 0;#P user uslider 96 161 25 9 128 1 0 0;#P objectname LN3;#P comment 70 148 25 196617 LN2;#P number 70 187 25 9 0 0 32 3 0 0 0 221 221 221 222 222 222 0 0 0;#P user uslider 70 161 25 9 128 1 0 0;#P objectname LN2;#P comment 625 18 13 196617 z;#P comment 600 18 14 196617 y;#P comment 575 18 14 196617 x;#P comment 540 18 13 196617 z;#P comment 515 18 14 196617 y;#P comment 490 18 14 196617 x;#P newex 396 457 51 196617 pvar LN1;#P comment 44 148 25 196617 LN1;#P number 44 187 25 9 0 0 32 3 0 0 0 221 221 221 222 222 222 0 0 0;#P user uslider 44 161 25 9 128 1 0 0;#P objectname LN1;#P newex 396 401 29 196617 gate;#P newex 396 375 30 196617 pack;#P newex 458 375 31 196617 == 1;#P newex 396 348 72 196617 unpack 0 0 0;#P newex 396 423 154 196617 route 60 61 62 63 64 65 66 67;#N comlet notein;#P inlet 396 330 15 0;#P comment 411 330 37 196617 notein;#P newex 304 504 68 196617 pvar accel/z;#P newex 290 486 69 196617 pvar accel/y;#P newex 276 468 69 196617 pvar accel/x;#P number 625 139 25 9 0 0 32 3 0 0 0 221 221 221 222 222 222 0 0 0;#P user uslider 625 31 13 91 128 1 0 0;#P objectname accel/z;#P number 600 139 25 9 0 0 32 3 0 0 0 221 221 221 222 222 222 0 0 0;#P user uslider 600 31 13 91 128 1 0 0;#P objectname accel/y;#P comment 588 4 35 196617 accel/;#P number 575 139 25 9 0 0 32 3 0 0 0 221 221 221 222 222 222 0 0 0;#P user uslider 575 31 13 91 128 1 0 0;#P objectname accel/x;#P number 540 139 25 9 0 0 32 3 0 0 0 221 221 221 222 222 222 0 0 0;#P user uslider 540 31 13 91 128 1 0 0;#P objectname inclin/z;#P number 515 139 25 9 0 0 32 3 0 0 0 221 221 221 222 222 222 0 0 0;#P user uslider 515 31 13 91 128 1 0 0;#P objectname inclin/y;#P comment 506 4 35 196617 inclin/;#P number 490 139 25 9 0 0 32 3 0 0 0 221 221 221 222 222 222 0 0 0;#P user uslider 490 31 13 91 128 1 0 0;#P objectname inclin/x;#P newex 225 504 69 196617 pvar inclin/z;#P newex 211 486 70 196617 pvar inclin/y;#P newex 197 468 70 196617 pvar inclin/x;#P comment 235 160 35 196617 MC1d;#P number 217 187 25 9 0 0 32 3 0 0 0 221 221 221 222 222 222 0 0 0;#P user uslider 217 146 18 24 128 1 0 0;#P objectname MC1d;#P comment 235 27 35 196617 MC1u;#P number 217 54 25 9 0 0 32 3 0 0 0 221 221 221 222 222 222 0 0 0;#P user uslider 217 13 18 24 128 1 0 0;#P objectname MC1u;#P newex 253 543 59 196617 pvar MC1u;#P newex 239 525 59 196617 pvar MC1d;#P newex 112 564 54 196617 pvar MC1;#P newex 183 543 52 196617 pvar RC5;#P newex 169 525 52 196617 pvar RC4;#P newex 155 507 52 196617 pvar RC3;#P newex 141 489 52 196617 pvar RC2;#P newex 127 471 52 196617 pvar RC1;#P comment 421 4 25 196617 RC5;#P number 425 125 25 9 0 0 32 3 0 0 0 221 221 221 222 222 222 0 0 0;#P user uslider 425 17 13 91 128 1 0 0;#P objectname RC5;#P comment 395 4 25 196617 RC4;#P number 400 125 25 9 0 0 32 3 0 0 0 221 221 221 222 222 222 0 0 0;#P user uslider 400 17 13 91 128 1 0 0;#P objectname RC4;#P comment 373 4 25 196617 RC3;#P number 374 125 25 9 0 0 32 3 0 0 0 221 221 221 222 222 222 0 0 0;#P user uslider 374 17 18 91 128 1 0 0;#P objectname RC3;#P comment 347 4 25 196617 RC2;#P number 348 125 25 9 0 0 32 3 0 0 0 221 221 221 222 222 222 0 0 0;#P user uslider 348 17 18 91 128 1 0 0;#P objectname RC2;#P comment 321 4 25 196617 RC1;#P number 322 125 25 9 0 0 32 3 0 0 0 221 221 221 222 222 222 0 0 0;#P user uslider 322 17 18 91 128 1 0 0;#P objectname RC1;#P newex 99 543 51 196617 pvar LC5;#P newex 85 525 51 196617 pvar LC4;#P newex 71 507 51 196617 pvar LC3;#P newex 57 489 51 196617 pvar LC2;#N comlet ctl in;#P inlet 31 334 15 0;#P newex 43 471 51 196617 pvar LC1;#P comment 143 5 25 196617 LC5;#P number 147 126 25 9 0 0 32 3 0 0 0 221 221 221 222 222 222 0 0 0;#P user uslider 147 18 13 91 128 1 0 0;#P objectname LC5;#P comment 117 5 25 196617 LC4;#P number 122 126 25 9 0 0 32 3 0 0 0 221 221 221 222 222 222 0 0 0;#P user uslider 122 18 13 91 128 1 0 0;#P objectname LC4;#P comment 95 5 25 196617 LC3;#P number 96 126 25 9 0 0 32 3 0 0 0 221 221 221 222 222 222 0 0 0;#P user uslider 96 18 18 91 128 1 0 0;#P objectname LC3;#P comment 69 5 25 196617 LC2;#P number 70 126 25 9 0 0 32 3 0 0 0 221 221 221 222 222 222 0 0 0;#P user uslider 70 18 18 91 128 1 0 0;#P objectname LC2;#P number 106 336 35 9 0 0 0 3 0 0 0 221 221 221 222 222 222 0 0 0;#P newex 106 316 119 196617 r $1/channel;#B color 12;#P newex 43 415 29 196617 gate;#P newex 85 393 31 196617 == 1;#P newex 43 442 267 196617 gate 19;#P newex 31 353 72 196617 unpack 0 0 0;#P newex 528 359 99 196617 fixedsize 1015 220;#B color 6;#P newex 528 339 180 196617 editorwindow $1/display /tapemovie;#B color 11;#N thispatcher;#Q end;#P newobj 528 379 70 196617 thispatcher;#P comment 360 236 38 196617 chanel;#P window setfont "Sans Serif" 12.;#P number 360 248 39 12 0 127 3 3 0 0 0 221 221 221 222 222 222 0 0 0;#P objectname chan;#P window setfont "Sans Serif" 9.;#P comment 13 276 42 196617 pistons;#P comment 248 94 27 196617 MC1;#P comment 43 5 25 196617 LC1;#P message 340 214 32 196617 clear;#P number 305 270 35 9 0 0 0 3 0 0 0 221 221 221 222 222 222 0 0 0;#P number 268 270 35 9 0 0 0 3 0 0 0 221 221 221 222 222 222 0 0 0;#P user kslider 3 214 54 0 60 48 31 12 1 92 150 206 92 150 206 255 255 255 0 0 0 0 0 0;#P objectname clav;#P number 44 126 25 9 0 0 32 3 0 0 0 221 221 221 222 222 222 0 0 0;#P number 211 119 36 9 0 0 0 3 0 0 0 221 221 221 222 222 222 0 0 0;#P user uslider 44 18 18 91 128 1 0 0;#P objectname LC1;#P user dial 211 82 36 36 128 1 0 0 223 270 2 0.3125 170 170 170 221 221 221 120 120 120 225 225 225 0 0 0 0 0 0;#P objectname MC1;#P comment 1 268 69 196617 |-----------|;#P comment 46 334 33 196617 ctl in;#P window linecount 0;#P comment 684 596 46 196617 pitchvel;#P user panel 481 1 175 210;#X brgb 191 191 191;#X frgb 0 0 0;#X border 1;#X rounded 0;#X shadow 0;#X done;#P background;#P user panel 204 1 75 210;#X brgb 191 191 191;#X frgb 0 0 0;#X border 1;#X rounded 0;#X shadow 0;#X done;#P background;#P user panel 280 1 200 210;#X brgb 191 191 191;#X frgb 0 0 0;#X border 1;#X rounded 0;#X shadow 0;#X done;#P background;#P user panel 3 1 200 210;#X brgb 191 191 191;#X frgb 0 0 0;#X border 1;#X rounded 0;#X shadow 0;#X done;#P background;#P hidden connect 102 0 11 0;#P hidden connect 14 0 11 0;#P connect 42 0 23 0;#P connect 25 0 26 0;#P connect 26 0 24 0;#P connect 24 0 41 0;#P hidden connect 10 0 172 0;#P connect 8 0 10 0;#P connect 103 0 104 0;#P connect 24 1 43 0;#P hidden connect 30 0 173 0;#P connect 23 1 26 1;#P connect 29 0 30 0;#P connect 113 0 114 0;#P connect 24 2 44 0;#P hidden connect 33 0 174 0;#P connect 23 2 25 0;#P connect 24 3 45 0;#P hidden connect 36 0 175 0;#P connect 32 0 33 0;#P connect 116 0 117 0;#P connect 24 4 46 0;#P hidden connect 39 0 176 0;#P connect 27 0 28 0;#P connect 28 0 25 1;#P connect 24 5 67 0;#P connect 28 0 171 0;#P hidden connect 9 0 177 0;#P connect 35 0 36 0;#P connect 119 0 120 0;#P connect 24 6 62 0;#P hidden connect 48 0 178 0;#P connect 24 7 63 0;#P connect 38 0 39 0;#P hidden connect 51 0 179 0;#P connect 24 8 64 0;#P hidden connect 54 0 180 0;#P connect 24 9 65 0;#P hidden connect 57 0 181 0;#P connect 24 10 66 0;#P hidden connect 60 0 182 0;#P connect 24 11 76 0;#P hidden connect 80 0 183 0;#P connect 7 0 9 0;#P connect 24 12 77 0;#P connect 70 0 71 0;#P connect 73 0 74 0;#P hidden connect 83 0 184 0;#P connect 24 13 78 0;#P hidden connect 85 0 185 0;#P connect 24 14 68 0;#P connect 24 15 69 0;#P hidden connect 74 0 186 0;#P hidden connect 11 0 12 0;#P hidden connect 71 0 187 0;#P connect 24 16 93 0;#P hidden connect 87 0 188 0;#P connect 24 17 94 0;#P hidden connect 90 0 189 0;#P fasten 23 0 24 1 36 437 305 437;#P lcolor 2;#P connect 24 18 95 0;#P hidden connect 11 1 13 0;#P hidden connect 92 0 190 0;#P connect 47 0 48 0;#P connect 129 0 130 0;#P hidden connect 104 0 191 0;#P hidden connect 114 0 192 0;#P connect 50 0 51 0;#P connect 132 0 133 0;#P hidden connect 117 0 193 0;#P hidden connect 120 0 194 0;#P connect 53 0 54 0;#P connect 135 0 136 0;#P hidden connect 130 0 195 0;#P connect 97 0 99 0;#P connect 99 0 101 0;#P connect 100 0 102 0;#P connect 102 0 98 0;#P connect 98 0 106 0;#P connect 56 0 57 0;#P connect 138 0 139 0;#P hidden connect 133 0 196 0;#P connect 98 1 122 0;#P connect 101 0 102 1;#P connect 99 1 101 1;#P hidden connect 136 0 197 0;#P connect 98 2 123 0;#P connect 59 0 60 0;#P hidden connect 139 0 198 0;#P connect 98 3 124 0;#P hidden connect 151 0 199 0;#P connect 98 4 125 0;#P connect 99 2 100 0;#P hidden connect 150 0 200 0;#P connect 98 5 126 0;#P connect 98 6 127 0;#P hidden connect 153 0 201 0;#P connect 28 0 100 1;#P connect 79 0 80 0;#P connect 98 7 128 0;#P hidden connect 152 0 202 0;#P hidden connect 266 0 260 0;#P hidden connect 154 0 203 0;#P connect 82 0 83 0;#P hidden connect 270 0 264 0;#P hidden connect 269 0 262 0;#P hidden connect 268 0 263 0;#P hidden connect 271 0 265 0;#P hidden connect 155 0 204 0;#P connect 21 0 22 0;#P connect 22 0 20 0;#P hidden connect 156 0 205 0;#P connect 84 0 85 0;#P hidden connect 267 0 261 0;#P hidden connect 157 0 206 0;#P connect 98 8 141 0;#P connect 141 0 142 0;#P hidden connect 211 0 207 0;#P connect 141 1 143 0;#P connect 86 0 87 0;#P hidden connect 213 0 208 0;#P connect 141 2 144 0;#P hidden connect 215 0 209 0;#P connect 89 0 90 0;#P connect 141 3 145 0;#P hidden connect 217 0 210 0;#P connect 91 0 92 0;#P connect 141 4 146 0;#P connect 141 5 147 0;#P connect 141 6 148 0;#P hidden connect 102 0 219 0;#P connect 141 7 149 0;#P connect 141 8 158 0;#P connect 158 0 159 0;#P hidden connect 253 0 252 0;#P connect 158 1 160 0;#P hidden connect 221 0 230 0;#P connect 158 2 161 0;#P hidden connect 222 0 231 0;#P connect 158 3 162 0;#P hidden connect 223 0 232 0;#P hidden connect 224 0 233 0;#P connect 158 4 235 0;#P connect 158 5 236 0;#P hidden connect 220 0 234 0;#P connect 158 6 237 0;#P connect 158 7 238 0;#P hidden connect 240 0 256 0;#P connect 158 8 239 0;#P hidden connect 242 0 257 0;#P hidden connect 244 0 258 0;#P connect 158 9 248 0;#P hidden connect 246 0 259 0;#P connect 158 10 249 0;#P connect 158 11 250 0;#P connect 158 12 251 0;#P connect 158 13 255 0;#P pop;#P newobj 27 220 569 196617 p karlax_display;#B color 5;#P newex 27 246 287 196617 makecontrol $1/LC1 $1 i 0 127 /common;#B color 5;#P newex 66 144 83 196617 r $1/midiinputs;#B color 6;#P connect 1 0 35 0;#P connect 25 0 36 0;#P connect 2 39 110 0;#P connect 110 0 105 0;#P connect 105 0 108 0;#P connect 26 0 37 0;#P connect 105 0 113 0;#P connect 113 0 112 0;#P connect 0 0 21 0;#P connect 21 0 22 0;#P connect 22 0 2 0;#P connect 2 0 1 0;#P connect 11 0 12 0;#P connect 27 0 38 0;#P connect 2 1 25 0;#P connect 105 1 113 1;#P connect 28 0 39 0;#P connect 21 1 22 1;#P connect 2 2 26 0;#P connect 105 1 109 0;#P connect 29 0 40 0;#P fasten 110 1 111 0 84 568 72 568;#P connect 2 3 27 0;#P connect 21 2 22 2;#P connect 30 0 41 0;#P connect 110 1 104 0;#P connect 104 0 107 0;#P connect 107 0 102 0;#P connect 2 4 28 0;#P connect 12 1 17 0;#P connect 7 0 17 0;#P connect 31 0 42 0;#P connect 2 5 29 0;#P connect 0 0 23 0;#P connect 23 0 24 0;#P connect 32 0 43 0;#P connect 24 0 2 1;#P connect 2 6 30 0;#P connect 33 0 44 0;#P connect 104 1 106 0;#P connect 106 0 103 0;#P connect 23 1 24 1;#P connect 6 0 8 0;#P connect 8 0 7 0;#P connect 2 7 31 0;#P connect 34 0 45 0;#P connect 2 8 32 0;#P connect 46 0 47 0;#P connect 23 2 24 2;#P connect 2 9 33 0;#P connect 48 0 49 0;#P connect 2 10 34 0;#P connect 50 0 51 0;#P connect 2 11 46 0;#P connect 160 0 2 2;#P connect 52 0 53 0;#P connect 2 11 160 0;#P connect 2 12 48 0;#P connect 54 0 55 0;#P connect 2 13 50 0;#P connect 56 0 59 0;#P connect 2 14 52 0;#P connect 57 0 60 0;#P connect 2 15 54 0;#P connect 58 0 61 0;#P connect 2 16 56 0;#P connect 2 12 160 1;#P connect 160 2 2 3;#P connect 2 17 57 0;#P connect 2 18 58 0;#P connect 2 13 160 2;#P connect 160 4 2 4;#P connect 62 0 63 0;#P connect 64 0 65 0;#P connect 9 0 10 0;#P connect 5 0 10 0;#P fasten 10 1 3 0 476 123 372 123;#P connect 66 0 67 0;#P connect 4 0 5 0;#P connect 2 19 62 0;#P connect 124 0 125 0;#P connect 68 0 69 0;#P connect 2 20 64 0;#P connect 116 0 117 0;#P connect 70 0 71 0;#P connect 2 21 66 0;#P connect 118 0 119 0;#P connect 72 0 73 0;#P connect 160 6 2 5;#P connect 2 40 124 0;#P connect 2 22 68 0;#P connect 120 0 121 0;#P connect 74 0 75 0;#P connect 2 46 116 0;#P connect 2 23 70 0;#P connect 122 0 123 0;#P connect 76 0 77 0;#P connect 2 47 118 0;#P connect 2 24 72 0;#P connect 78 0 79 0;#P connect 2 48 120 0;#P connect 2 25 74 0;#P connect 80 0 81 0;#P connect 2 49 122 0;#P connect 2 26 76 0;#P connect 82 0 83 0;#P connect 2 27 78 0;#P connect 160 8 2 6;#P connect 84 0 85 0;#P connect 2 28 80 0;#P connect 114 0 115 0;#P connect 86 0 87 0;#P connect 2 29 82 0;#P connect 88 0 89 0;#P connect 2 30 84 0;#P connect 18 0 15 0;#P connect 16 0 15 0;#P connect 15 0 13 0;#P connect 13 0 14 0;#P connect 90 0 91 0;#P connect 2 31 86 0;#P connect 92 0 93 0;#P connect 2 32 88 0;#P connect 94 0 95 0;#P connect 160 10 2 7;#P connect 2 33 90 0;#P connect 96 0 97 0;#P connect 2 34 92 0;#P connect 98 0 99 0;#P connect 2 35 94 0;#P connect 20 0 19 0;#P connect 19 0 18 0;#P connect 100 0 101 0;#P connect 2 36 96 0;#P connect 2 37 98 0;#P connect 18 1 148 0;#P connect 2 38 100 0;#P connect 18 2 148 1;#P connect 134 0 135 0;#P connect 2 13 136 0;#P connect 136 0 144 0;#P connect 144 0 145 0;#P connect 145 0 138 0;#P connect 138 0 140 0;#P connect 140 0 143 0;#P connect 143 0 147 0;#P connect 126 0 127 0;#P connect 128 0 129 0;#P connect 2 41 134 0;#P connect 130 0 131 0;#P connect 2 42 126 0;#P connect 132 0 133 0;#P connect 2 11 137 0;#P connect 137 0 144 1;#P connect 2 43 128 0;#P connect 2 44 130 0;#P connect 139 0 140 1;#P connect 140 1 141 0;#P connect 141 0 142 0;#P connect 142 0 146 0;#P connect 2 45 132 0;#P connect 145 1 139 0;#P connect 160 1 169 0;#P connect 160 3 170 0;#P connect 160 5 168 0;#P connect 160 7 167 0;#P connect 160 9 171 0;#P connect 160 11 172 0;#P connect 2 12 149 0;#P connect 149 0 156 0;#P connect 156 0 157 0;#P connect 157 0 150 0;#P connect 150 0 152 0;#P connect 152 0 155 0;#P connect 155 0 159 0;#P connect 137 0 156 1;#P connect 151 0 152 1;#P connect 152 1 153 0;#P connect 153 0 154 0;#P connect 154 0 158 0;#P connect 157 1 151 0;#P pop;