max v2;#N vpatcher 75 55 1312 868;#P origin 17 73;#P window setfont "Sans Serif" 9.;#P window linecount 1;#P newex 343 32 93 196617 zmap 0.3 0.7 0. 1.;#P newex 330 54 93 196617 zmap 0.3 0.7 1. 0.;#P flonum 483 772 43 9 0 0 0 3 0 0 0 221 221 221 222 222 222 0 0 0;#P flonum 483 752 43 9 0 0 0 3 0 0 0 221 221 221 222 222 222 0 0 0;#P flonum 483 732 43 9 0 0 0 3 0 0 0 221 221 221 222 222 222 0 0 0;#P flonum 483 712 43 9 0 0 0 3 0 0 0 221 221 221 222 222 222 0 0 0;#P flonum 483 692 43 9 0 0 0 3 0 0 0 221 221 221 222 222 222 0 0 0;#P flonum 483 672 43 9 0 0 0 3 0 0 0 221 221 221 222 222 222 0 0 0;#P newex 912 230 151 196617 makeparam $1/input $1 s midi;#B color 12;#P newex 893 25 299 196617 makeswitch $1/sw $1 common_switchstate 0;#B color 11;#N vpatcher 126 298 1347 888;#P window setfont "Sans Serif" 9.;#P newex 218 187 20 196617 t b;#P window linecount 1;#P newex 218 209 88 196617 s $1/oscactivity;#B color 12;#P number 422 150 42 9 0 0 0 3 0 0 0 221 221 221 222 222 222 0 0 0;#P window linecount 0;#P newex 422 130 43 196617 + 1023;#P newex 422 168 91 196617 s $1/port/initval;#B color 11;#P toggle 80 144 15 0;#P newex 80 124 35 196617 *;#P message 148 84 14 196617 1;#P message 116 84 14 196617 0;#P newex 80 104 35 196617 bondo;#P newex 116 64 74 196617 route midi osc;#P window linecount 1;#P newex 116 43 152 196617 r $1/input;#B color 12;#P window linecount 0;#P newex 592 510 18 196617 t l;#P window linecount 1;#P newex 807 466 18 196617 t i;#P newex 807 446 34 196617 + 0.5;#P newex 807 427 41 196617 * 127.;#P message 807 485 37 196617 67 \$1;#P newex 764 466 18 196617 t i;#P newex 764 446 34 196617 + 0.5;#P newex 764 427 41 196617 * 127.;#P message 764 485 37 196617 66 \$1;#P newex 721 466 18 196617 t i;#P newex 721 446 34 196617 + 0.5;#P newex 721 427 41 196617 * 127.;#P message 721 485 37 196617 65 \$1;#P newex 678 466 18 196617 t i;#P newex 678 446 34 196617 + 0.5;#P newex 678 427 41 196617 * 127.;#P message 678 485 37 196617 64 \$1;#P newex 635 466 18 196617 t i;#P newex 635 446 34 196617 + 0.5;#P newex 635 427 41 196617 * 127.;#P message 635 485 37 196617 63 \$1;#P newex 592 466 18 196617 t i;#P newex 592 446 34 196617 + 0.5;#P newex 592 427 41 196617 * 127.;#P message 592 485 37 196617 62 \$1;#P newex 549 466 18 196617 t i;#P newex 549 446 34 196617 + 0.5;#P newex 549 427 41 196617 * 127.;#P message 549 485 37 196617 61 \$1;#P newex 506 466 18 196617 t i;#P newex 506 446 34 196617 + 0.5;#P window linecount 0;#P newex 506 427 41 196617 * 127.;#P message 506 485 37 196617 60 \$1;#P window linecount 1;#P newex 970 310 225 196617 OSC-route /right /down /front /left /up /back;#P newex 836 285 117 196617 OSC-route /8 /9 /6 /7;#P newex 802 262 193 196617 OSC-route /right /up /left /down /push;#P newex 696 285 132 196617 OSC-route /4 /5 /2 /3 /1;#P newex 619 262 177 196617 OSC-route /1 /2 /3 /4 /5 /6 /7 /8;#P newex 515 285 172 196617 OSC-route /1 /2 /3 /4 /5 /6 /7 /8;#P newex 465 260 87 196617 OSC-route /x /y;#P newex 388 284 101 196617 OSC-route /x /y /z;#P newex 311 261 113 196617 OSC-route /left /right;#P newex 234 284 101 196617 OSC-route /x /y /z;#P newex 80 307 213 196617 OSC-route /1 /2 /3 /4 /5 /6 /7 /8 /9 /10;#P newex 80 239 862 196617 OSC-route /key /axis /acc /bend /gyro /inclin /piston /fsw /bsw /js /impulse/;#P newex 422 52 48 196617 loadbang;#P newex 422 91 50 196617 stripnum;#B color 11;#P message 422 72 37 196617 $1;#P newex 80 211 95 196617 OSC-route /karlax;#P toggle 80 43 15 0;#P newex 80 21 152 196617 r $1/sw;#B color 12;#P newex 137 187 76 196617 s $1/repeteur;#P newex 330 28 205 196617 makeparam $1/port $1 i 1024 1024 9999;#B color 11;#P number 330 48 59 9 0 0 0 3 0 0 0 221 221 221 222 222 222 0 0 0;#P newex 80 163 29 196617 gate;#P newex 330 67 67 196617 prepend port;#P newex 330 87 59 196617 udpreceive;#P window linecount 0;#P newex 157 261 37 196617 pow 3;#P newex 32 517 30 196617 pack;#P newex 69 438 74 196617 t l l;#P number 159 501 31 9 0 0 0 3 0 0 0 221 221 221 222 222 222 0 0 0;#P number 197 501 31 9 0 0 0 3 0 0 0 221 221 221 222 222 222 0 0 0;#P newex 69 482 51 196617 stripnote;#P newex 159 481 40 196617 unpack;#P outlet 1057 405 15 0;#P outlet 1043 405 15 0;#P outlet 1029 405 15 0;#P outlet 1015 405 15 0;#P outlet 1001 405 15 0;#P outlet 987 405 15 0;#P outlet 973 405 15 0;#P outlet 959 405 15 0;#P outlet 945 405 15 0;#P outlet 931 405 15 0;#P outlet 917 405 15 0;#P outlet 903 405 15 0;#P outlet 889 405 15 0;#P outlet 875 405 15 0;#P outlet 861 405 15 0;#P outlet 847 405 15 0;#P outlet 833 405 15 0;#P outlet 819 405 15 0;#P outlet 805 405 15 0;#P outlet 791 405 15 0;#P outlet 777 405 15 0;#P outlet 763 405 15 0;#P outlet 749 405 15 0;#P outlet 735 405 15 0;#P outlet 721 405 15 0;#P outlet 707 405 15 0;#P outlet 693 405 15 0;#P outlet 679 405 15 0;#P outlet 665 405 15 0;#P outlet 651 405 15 0;#P outlet 637 405 15 0;#P outlet 623 405 15 0;#P outlet 609 405 15 0;#P outlet 595 405 15 0;#P outlet 581 405 15 0;#P outlet 567 405 15 0;#P outlet 523 405 15 0;#P outlet 509 405 15 0;#P outlet 495 405 15 0;#P outlet 481 405 15 0;#P outlet 467 405 15 0;#P outlet 453 405 15 0;#P outlet 439 405 15 0;#P outlet 425 405 15 0;#P outlet 411 405 15 0;#P outlet 397 405 15 0;#P outlet 383 405 15 0;#P outlet 369 405 15 0;#P outlet 355 405 15 0;#P outlet 341 405 15 0;#P outlet 327 405 15 0;#P outlet 313 405 15 0;#P outlet 299 405 15 0;#P outlet 197 521 15 0;#P outlet 285 405 15 0;#P outlet 271 405 15 0;#P outlet 257 405 15 0;#P outlet 159 521 15 0;#P outlet 133 480 15 0;#P outlet 243 405 15 0;#P outlet 110 518 15 0;#P outlet 32 539 15 0;#P outlet 69 518 15 0;#P number 422 112 35 9 0 0 0 3 0 0 0 221 221 221 222 222 222 0 0 0;#P connect 65 0 69 0;#P connect 69 0 2 0;#P connect 65 1 69 1;#P connect 127 0 68 0;#P connect 68 0 65 0;#P connect 65 0 1 0;#P connect 77 0 78 0;#P connect 78 0 130 0;#P connect 130 0 133 0;#P connect 133 0 134 0;#P connect 134 0 73 0;#P connect 73 0 79 0;#P connect 79 0 83 0;#P connect 83 0 84 0;#P connect 71 0 73 1;#P connect 132 0 130 1;#P connect 131 0 130 1;#P connect 130 1 133 1;#P connect 65 1 3 0;#P connect 128 0 129 0;#P connect 129 0 131 0;#P connect 68 1 5 0;#P connect 73 0 76 0;#P connect 129 1 132 0;#P connect 83 1 70 0;#P connect 68 1 64 0;#P connect 64 0 67 0;#P connect 67 0 6 0;#P connect 64 1 66 0;#P connect 66 0 10 0;#P connect 73 0 139 0;#P connect 139 0 138 0;#P connect 83 2 85 0;#P connect 84 0 4 0;#P connect 84 1 7 0;#P connect 84 2 8 0;#P connect 84 3 9 0;#P connect 84 4 11 0;#P connect 83 3 86 0;#P connect 70 0 12 0;#P connect 84 5 13 0;#P connect 75 0 74 0;#P connect 74 0 72 0;#P connect 72 0 71 0;#P connect 84 6 14 0;#P connect 84 7 15 0;#P connect 84 8 16 0;#P connect 84 9 17 0;#P connect 83 4 87 0;#P connect 85 0 18 0;#P connect 85 1 19 0;#P connect 82 0 80 0;#P connect 80 0 81 0;#P connect 81 0 0 0;#P connect 0 0 136 0;#P connect 136 0 137 0;#P connect 137 0 135 0;#P connect 85 2 20 0;#P connect 86 0 21 0;#P connect 86 1 22 0;#P connect 83 5 88 0;#P connect 87 0 23 0;#P connect 87 1 24 0;#P connect 87 2 25 0;#P connect 89 0 96 0;#P connect 96 0 97 0;#P connect 97 0 98 0;#P connect 98 0 95 0;#P connect 88 0 26 0;#P connect 83 6 89 0;#P connect 88 1 27 0;#P connect 89 1 100 0;#P connect 100 0 101 0;#P connect 101 0 102 0;#P connect 102 0 99 0;#P connect 89 0 28 0;#P connect 89 1 29 0;#P connect 89 2 104 0;#P connect 104 0 105 0;#P connect 105 0 106 0;#P connect 106 0 103 0;#P connect 123 0 127 0;#P connect 119 0 127 0;#P connect 115 0 127 0;#P connect 111 0 127 0;#P connect 107 0 127 0;#P connect 103 0 127 0;#P connect 99 0 127 0;#P connect 95 0 127 0;#P connect 89 2 30 0;#P connect 89 3 31 0;#P connect 83 7 90 0;#P connect 89 4 32 0;#P connect 89 3 108 0;#P connect 108 0 109 0;#P connect 109 0 110 0;#P connect 110 0 107 0;#P connect 89 5 33 0;#P connect 89 6 34 0;#P connect 89 7 35 0;#P connect 89 4 112 0;#P connect 112 0 113 0;#P connect 113 0 114 0;#P connect 114 0 111 0;#P connect 90 0 36 0;#P connect 90 1 37 0;#P connect 83 8 91 0;#P connect 90 2 38 0;#P connect 90 3 39 0;#P connect 89 5 116 0;#P connect 116 0 117 0;#P connect 117 0 118 0;#P connect 118 0 115 0;#P connect 90 4 40 0;#P connect 90 5 41 0;#P connect 90 6 42 0;#P connect 89 6 120 0;#P connect 120 0 121 0;#P connect 121 0 122 0;#P connect 122 0 119 0;#P connect 90 7 43 0;#P connect 91 0 44 0;#P connect 83 9 92 0;#P connect 91 1 45 0;#P connect 89 7 124 0;#P connect 124 0 125 0;#P connect 125 0 126 0;#P connect 126 0 123 0;#P connect 91 2 46 0;#P connect 91 3 47 0;#P connect 91 5 93 0;#P connect 91 4 48 0;#P connect 92 0 49 0;#P connect 92 1 50 0;#P connect 92 2 51 0;#P connect 92 3 52 0;#P connect 92 4 53 0;#P connect 93 0 54 0;#P connect 93 1 55 0;#P connect 93 2 56 0;#P connect 83 10 94 0;#P connect 93 3 57 0;#P connect 94 0 58 0;#P connect 94 1 59 0;#P connect 94 2 60 0;#P connect 94 3 61 0;#P connect 94 4 62 0;#P connect 94 5 63 0;#P pop;#P newobj 5 9 820 196617 p osc-routers;#B color 6;#N vpatcher 104 44 1337 553;#P window setfont "Sans Serif" 9.;#P window linecount 1;#P newex 132 155 20 196617 t b;#P newex 132 177 92 196617 s $1/midiactivity;#B color 12;#P toggle 501 187 15 0;#P window linecount 0;#P newex 501 167 27 196617 *;#P message 569 127 14 196617 0;#P message 537 127 14 196617 1;#P newex 501 148 46 196617 pak;#P newex 537 107 74 196617 route midi osc;#P newex 537 86 152 196617 r $1/input;#B color 12;#P toggle 501 86 15 0;#P newex 501 64 152 196617 r $1/sw;#B color 12;#P newex 464 231 83 196617 s $1/midiinputs;#B color 6;#P newex 407 55 67 196617 route <none>;#P newex 407 35 188 196617 makeparam $1/mididevice $1 s <none>;#B color 12;#P newex 779 105 114 196617 pvar mididevicemenu 2;#P newex 779 32 125 196617 r $1/mididevicemenu;#B color 6;#P message 501 208 53 196617 enable \$1;#P newex 794 82 62 196617 prepend set;#P newex 794 62 125 196617 r $1/mididevice;#B color 6;#P newex 779 133 125 196617 s $1/mididevice;#B color 6;#P newex 1136 387 40 196617 / 127.;#P newex 655 355 40 196617 / 127.;#P newex 525 343 40 196617 / 127.;#P newex 310 407 37 196617 pow 3;#P newex 21 324 30 196617 pack;#P newex 58 245 74 196617 t l l;#P number 148 308 31 9 0 0 0 3 0 0 0 221 221 221 222 222 222 0 0 0;#P number 186 308 31 9 0 0 0 3 0 0 0 221 221 221 222 222 222 0 0 0;#P newex 58 289 51 196617 stripnote;#P newex 148 288 40 196617 unpack;#P newex 296 338 21 196617 t 0;#P newex 758 387 21 196617 t 0;#P newex 640 387 21 196617 t 0;#P newex 240 338 54 196617 split 1 21;#P newex 701 387 54 196617 split 1 32;#P number 701 368 35 9 0 0 0 3 0 0 0 221 221 221 222 222 222 0 0 0;#P newex 701 348 30 196617 - 83;#P newex 589 387 48 196617 split 1 8;#P newex 701 415 445 196617 gate 32;#P newex 589 309 40 196617 swap;#P number 589 368 35 9 0 0 0 3 0 0 0 221 221 221 222 222 222 0 0 0;#P newex 589 348 30 196617 - 59;#P newex 589 288 40 196617 unpack;#P newex 589 415 110 196617 gate 8;#P newex 240 313 40 196617 unpack;#P newex 240 366 295 196617 gate 21;#P newex 58 173 48 196617 pack 0 0;#P newex 58 114 87 196617 notein;#P newex 240 173 48 196617 pack 0 0;#P newex 240 114 86 196617 ctlin;#P newex 58 38 83 196617 r $1/midiinputs;#B color 6;#P comment 745 355 356 196617 C5 (84);#P outlet 1079 437 15 0;#P outlet 1065 437 15 0;#P outlet 1051 437 15 0;#P outlet 1037 437 15 0;#P outlet 1023 437 15 0;#P outlet 1009 437 15 0;#P outlet 995 437 15 0;#P outlet 981 437 15 0;#P outlet 967 437 15 0;#P outlet 953 437 15 0;#P outlet 939 437 15 0;#P outlet 925 437 15 0;#P outlet 911 437 15 0;#P outlet 897 437 15 0;#P outlet 883 437 15 0;#P outlet 869 437 15 0;#P outlet 855 437 15 0;#P outlet 841 437 15 0;#P outlet 827 437 15 0;#P outlet 813 437 15 0;#P outlet 799 437 15 0;#P outlet 785 437 15 0;#P outlet 771 437 15 0;#P outlet 757 437 15 0;#P outlet 743 437 15 0;#P outlet 729 437 15 0;#P outlet 715 437 15 0;#P outlet 701 437 15 0;#P outlet 687 437 15 0;#P outlet 673 437 15 0;#P outlet 659 437 15 0;#P outlet 645 437 15 0;#P outlet 631 437 15 0;#P outlet 617 437 15 0;#P outlet 603 437 15 0;#P outlet 589 437 15 0;#P outlet 520 388 15 0;#P outlet 506 388 15 0;#P outlet 492 388 15 0;#P outlet 478 388 15 0;#P outlet 464 388 15 0;#P outlet 450 388 15 0;#P outlet 436 388 15 0;#P outlet 422 388 15 0;#P outlet 408 388 15 0;#P outlet 394 388 15 0;#P outlet 380 388 15 0;#P outlet 366 388 15 0;#P outlet 352 388 15 0;#P outlet 338 388 15 0;#P outlet 324 388 15 0;#P outlet 310 429 15 0;#P outlet 296 388 15 0;#P outlet 186 328 15 0;#P outlet 282 388 15 0;#P outlet 268 388 15 0;#P outlet 254 388 15 0;#P outlet 148 328 15 0;#P outlet 122 287 15 0;#P outlet 240 388 15 0;#P outlet 99 325 15 0;#P outlet 21 346 15 0;#P outlet 58 325 15 0;#P connect 86 0 90 0;#P connect 90 0 1 0;#P connect 86 1 90 1;#P connect 64 0 67 0;#P connect 67 0 68 0;#P connect 68 0 89 0;#P connect 89 0 86 0;#P connect 86 0 0 0;#P connect 67 1 68 1;#P connect 86 1 2 0;#P connect 89 1 4 0;#P connect 65 0 114 0;#P connect 67 0 114 0;#P connect 114 0 113 0;#P connect 89 1 85 0;#P connect 85 0 88 0;#P connect 88 0 5 0;#P connect 85 1 87 0;#P connect 87 0 9 0;#P connect 64 0 65 0;#P connect 65 0 66 0;#P connect 66 0 70 0;#P connect 70 1 81 0;#P connect 84 0 69 0;#P connect 81 0 69 0;#P connect 69 0 3 0;#P connect 69 1 6 0;#P connect 69 2 7 0;#P connect 65 1 66 1;#P connect 69 3 8 0;#P connect 81 1 84 0;#P connect 69 4 10 0;#P connect 69 5 91 0;#P connect 91 0 11 0;#P connect 69 6 12 0;#P connect 69 7 13 0;#P connect 69 8 14 0;#P connect 69 9 15 0;#P connect 69 10 16 0;#P connect 69 11 17 0;#P connect 101 0 102 0;#P connect 69 12 18 0;#P connect 69 13 19 0;#P connect 69 14 20 0;#P connect 69 15 21 0;#P connect 98 0 103 0;#P connect 102 1 103 0;#P connect 69 16 22 0;#P connect 69 17 23 0;#P connect 69 18 24 0;#P connect 104 0 105 0;#P connect 105 0 108 0;#P connect 108 0 111 0;#P connect 111 0 112 0;#P connect 112 0 98 0;#P connect 69 19 25 0;#P connect 69 20 26 0;#P fasten 70 0 92 0 245 334 530 334;#P connect 92 0 69 1;#P connect 106 0 107 0;#P connect 107 0 109 0;#P connect 110 0 108 1;#P connect 109 0 108 1;#P connect 107 1 110 0;#P connect 68 0 72 0;#P connect 72 0 75 0;#P connect 75 1 73 0;#P connect 73 0 74 0;#P connect 74 0 77 0;#P connect 82 0 71 0;#P connect 77 0 71 0;#P connect 71 0 27 0;#P connect 71 1 28 0;#P connect 71 2 29 0;#P connect 72 1 75 1;#P connect 71 3 30 0;#P connect 77 1 82 0;#P connect 71 4 31 0;#P connect 75 0 93 0;#P connect 71 5 32 0;#P connect 71 6 33 0;#P connect 71 7 34 0;#P connect 93 0 71 1;#P connect 75 1 78 0;#P connect 78 0 79 0;#P connect 79 0 80 0;#P connect 83 0 76 0;#P connect 80 0 76 0;#P connect 76 0 35 0;#P connect 76 1 36 0;#P connect 76 2 37 0;#P connect 76 3 38 0;#P connect 76 4 39 0;#P connect 80 1 83 0;#P connect 76 5 40 0;#P connect 97 0 100 0;#P connect 99 0 100 0;#P fasten 100 1 95 0 888 127 784 127;#P connect 76 6 41 0;#P connect 96 0 97 0;#P connect 76 7 42 0;#P connect 76 8 43 0;#P connect 76 9 44 0;#P connect 76 10 45 0;#P connect 76 11 46 0;#P connect 76 12 47 0;#P connect 76 13 48 0;#P connect 76 14 49 0;#P connect 76 15 50 0;#P connect 76 16 51 0;#P connect 76 17 52 0;#P connect 76 18 53 0;#P connect 76 19 54 0;#P connect 76 20 55 0;#P connect 76 21 56 0;#P connect 76 22 57 0;#P connect 76 23 58 0;#P connect 76 24 59 0;#P connect 76 25 60 0;#P connect 76 26 61 0;#P connect 76 27 62 0;#P fasten 75 0 94 0 594 341 1141 341;#P connect 94 0 76 1;#P pop;#P newobj 5 76 820 196617 p midi-routers;#B color 6;#P comment 742 638 33 196617 RTB1;#P comment 730 620 33 196617 RTB2;#P comment 717 602 33 196617 RTB3;#P comment 704 584 33 196617 RTB4;#P comment 613 456 33 196617 LTB1;#P comment 627 475 33 196617 LTB0;#P newex 528 772 383 196617 makecontrol $1/acc/trig/back $1 i 0 1 /common;#B color 5;#P newex 528 752 386 196617 makecontrol $1/acc/trig/front $1 i 0 1 /common;#B color 5;#P newex 528 692 385 196617 makecontrol $1/acc/trig/right $1 i 0 1 /common;#B color 5;#P newex 528 672 379 196617 makecontrol $1/acc/trig/left $1 i 0 1 /common;#B color 5;#P newex 528 712 386 196617 makecontrol $1/acc/trig/down $1 i 0 1 /common;#B color 5;#P newex 528 732 373 196617 makecontrol $1/acc/trig/up $1 i 0 1 /common;#B color 5;#P window setfont "Sans Serif" 18.;#N vpatcher 362 44 1375 633;#P window setfont "Sans Serif" 9.;#P flonum 149 78 35 9 0 0 0 3 0 0 0 221 221 221 222 222 222 0 0 0;#P window linecount 1;#P newex 259 154 68 196617 minimum 0.5;#P newex 319 177 41 196617 * 0.25;#P newex 259 176 35 196617 * 0.5;#P newex 138 138 68 196617 minimum 0.5;#P flonum 181 203 35 9 0 0 0 3 0 0 0 221 221 221 222 222 222 0 0 0;#P newex 181 183 27 196617 - 0.;#P newex 198 161 41 196617 * 0.25;#P newex 121 106 27 196617 t f f;#P flonum 121 202 35 9 0 0 0 3 0 0 0 221 221 221 222 222 222 0 0 0;#P newex 121 182 27 196617 - 0.;#P newex 138 160 35 196617 * 0.5;#P flonum 302 220 35 9 0 0 0 3 0 0 0 221 221 221 222 222 222 0 0 0;#P newex 302 200 27 196617 + 0.;#P newex 242 106 27 196617 t f f;#P flonum 242 219 35 9 0 0 0 3 0 0 0 221 221 221 222 222 222 0 0 0;#P newex 242 199 27 196617 + 0.;#P newex 259 132 30 196617 !- 1.;#P newex 149 58 40 196617 line 0.;#P newex 149 38 69 196617 pack 0. 2000;#P newex 223 252 45 196617 <= 0.62;#P newex 176 252 45 196617 >= 0.75;#P newex 115 252 45 196617 >= 0.38;#P newex 68 252 45 196617 <= 0.25;#P flonum 68 195 35 9 0. 1. 3 3 0 0 0 221 221 221 222 222 222 0 0 0;#P flonum 462 78 35 9 0 0 0 3 0 0 0 221 221 221 222 222 222 0 0 0;#P newex 572 154 68 196617 minimum 0.5;#P newex 632 177 41 196617 * 0.25;#P newex 572 176 35 196617 * 0.5;#P newex 451 138 68 196617 minimum 0.5;#P flonum 494 203 35 9 0 0 0 3 0 0 0 221 221 221 222 222 222 0 0 0;#P newex 494 183 27 196617 - 0.;#P newex 511 161 41 196617 * 0.25;#P newex 434 106 27 196617 t f f;#P flonum 434 202 35 9 0 0 0 3 0 0 0 221 221 221 222 222 222 0 0 0;#P newex 434 182 27 196617 - 0.;#P newex 451 160 35 196617 * 0.5;#P flonum 615 220 35 9 0 0 0 3 0 0 0 221 221 221 222 222 222 0 0 0;#P newex 615 200 27 196617 + 0.;#P newex 555 106 27 196617 t f f;#P flonum 555 219 35 9 0 0 0 3 0 0 0 221 221 221 222 222 222 0 0 0;#P newex 555 199 27 196617 + 0.;#P newex 572 132 30 196617 !- 1.;#P newex 462 58 40 196617 line 0.;#P newex 462 38 69 196617 pack 0. 2000;#P newex 536 252 45 196617 <= 0.62;#P newex 489 252 45 196617 >= 0.75;#P newex 428 252 45 196617 >= 0.38;#P newex 381 252 45 196617 <= 0.25;#P flonum 381 195 35 9 0. 1. 3 3 0 0 0 221 221 221 222 222 222 0 0 0;#P flonum 775 79 35 9 0 0 0 3 0 0 0 221 221 221 222 222 222 0 0 0;#N comlet back trig toggle;#P outlet 775 537 15 0;#N comlet forward trig toggle;#P outlet 666 537 15 0;#N comlet up trig toggle;#P outlet 463 537 15 0;#N comlet down trig toggle;#P outlet 354 537 15 0;#N comlet right trig toggle;#P outlet 154 537 15 0;#N comlet left trig toggle;#P outlet 53 537 15 0;#N comlet x input;#P inlet 68 33 15 0;#P window linecount 0;#P newex 239 491 20 196617 t b;#P newex 318 491 20 196617 t b;#P newex 610 495 20 196617 t b;#P newex 885 155 68 196617 minimum 0.5;#P newex 945 178 41 196617 * 0.25;#P newex 885 177 35 196617 * 0.5;#P newex 764 139 68 196617 minimum 0.5;#P flonum 807 204 35 9 0 0 0 3 0 0 0 221 221 221 222 222 222 0 0 0;#P newex 807 184 27 196617 - 0.;#P newex 824 162 41 196617 * 0.25;#P window linecount 1;#P newex 747 107 27 196617 t f f;#P flonum 747 203 35 9 0 0 0 3 0 0 0 221 221 221 222 222 222 0 0 0;#P window linecount 0;#P newex 747 183 27 196617 - 0.;#P newex 764 161 35 196617 * 0.5;#P flonum 928 221 35 9 0 0 0 3 0 0 0 221 221 221 222 222 222 0 0 0;#P newex 928 201 27 196617 + 0.;#P window linecount 1;#P newex 868 107 27 196617 t f f;#P flonum 868 220 35 9 0 0 0 3 0 0 0 221 221 221 222 222 222 0 0 0;#P window linecount 0;#P newex 868 200 27 196617 + 0.;#P newex 885 133 30 196617 !- 1.;#P newex 775 59 40 196617 line 0.;#P newex 775 39 69 196617 pack 0. 2000;#P newex 675 358 21 196617 t 1;#P toggle 696 379 15 0;#P newex 675 317 31 196617 t b 0;#P newex 675 338 44 196617 del 250;#P newex 783 357 21 196617 t 1;#P toggle 804 378 15 0;#P newex 783 316 31 196617 t b 0;#P newex 783 337 44 196617 del 250;#P newex 804 396 47 196617 gate 1 1;#P newex 696 397 47 196617 gate 1 1;#P button 763 451 25 0;#P toggle 775 502 28 0;#P message 826 451 14 196617 0;#P message 804 450 14 196617 1;#P newex 849 275 32 196617 sel 1;#P window linecount 1;#P newex 849 253 45 196617 <= 0.62;#P window linecount 0;#P newex 804 426 55 196617 onebang 1;#P newex 802 275 32 196617 sel 1;#P window linecount 1;#P newex 802 253 45 196617 >= 0.75;#P button 655 455 25 0;#P toggle 666 502 28 0;#P window linecount 0;#P message 718 455 14 196617 0;#P message 696 454 14 196617 1;#P newex 741 275 32 196617 sel 1;#P window linecount 1;#P newex 741 253 45 196617 >= 0.38;#P window linecount 0;#P newex 696 430 55 196617 onebang 1;#P newex 694 275 32 196617 sel 1;#P window linecount 1;#P newex 694 253 45 196617 <= 0.25;#P flonum 694 196 35 9 0. 1. 3 3 0 0 0 221 221 221 222 222 222 0 0 0;#N comlet z input;#P inlet 694 33 15 0;#P window linecount 0;#P newex 362 358 21 196617 t 1;#P toggle 383 379 15 0;#P newex 362 317 31 196617 t b 0;#P newex 362 338 44 196617 del 250;#P newex 470 357 21 196617 t 1;#P toggle 491 378 15 0;#P newex 470 316 31 196617 t b 0;#P newex 470 337 44 196617 del 250;#P newex 491 396 47 196617 gate 1 1;#P newex 383 397 47 196617 gate 1 1;#P button 450 451 25 0;#P toggle 463 502 28 0;#P message 513 451 14 196617 0;#P message 491 450 14 196617 1;#P newex 536 275 32 196617 sel 1;#P newex 491 426 55 196617 onebang 1;#P newex 489 275 32 196617 sel 1;#P button 342 455 25 0;#P toggle 354 502 28 0;#P message 405 455 14 196617 0;#P message 383 454 14 196617 1;#P newex 428 275 32 196617 sel 1;#P newex 383 430 55 196617 onebang 1;#P newex 381 275 32 196617 sel 1;#N comlet y input;#P inlet 381 33 15 0;#P newex 49 358 21 196617 t 1;#P toggle 70 379 15 0;#P newex 49 317 31 196617 t b 0;#P newex 49 338 44 196617 del 250;#P newex 157 357 21 196617 t 1;#P toggle 178 378 15 0;#P newex 157 316 31 196617 t b 0;#P newex 157 337 44 196617 del 250;#P newex 178 396 47 196617 gate 1 1;#P newex 70 397 47 196617 gate 1 1;#P button 137 451 25 0;#P toggle 154 502 28 0;#P message 200 451 14 196617 0;#P message 178 450 14 196617 1;#P newex 223 275 32 196617 sel 1;#P newex 178 426 55 196617 onebang 1;#P newex 176 275 32 196617 sel 1;#P button 29 455 25 0;#P toggle 53 502 28 0;#P message 92 455 14 196617 0;#P message 70 454 14 196617 1;#P newex 115 275 32 196617 sel 1;#P newex 70 430 55 196617 onebang 1;#P newex 68 275 32 196617 sel 1;#P connect 1 0 6 0;#P connect 99 0 21 0;#P connect 98 0 21 0;#P fasten 8 0 21 0 183 446 139 446 139 311 54 311;#P connect 21 0 20 0;#P connect 20 0 23 0;#P connect 4 0 5 0;#P connect 3 0 5 0;#P connect 5 0 102 0;#P connect 101 0 134 0;#P connect 134 0 135 0;#P connect 135 0 0 0;#P connect 21 1 22 0;#P connect 23 0 22 0;#P connect 22 0 14 0;#P connect 14 0 1 0;#P connect 1 0 3 0;#P connect 1 1 4 0;#P connect 149 0 135 1;#P connect 0 0 14 1;#P connect 134 0 136 0;#P connect 136 0 2 0;#P connect 20 0 1 1;#P connect 2 0 1 1;#P connect 158 0 150 0;#P connect 150 0 148 0;#P connect 148 0 149 0;#P connect 8 0 13 0;#P connect 150 1 154 0;#P connect 154 0 147 0;#P connect 147 0 148 1;#P fasten 134 0 139 0 73 217 106 217 106 33 154 33;#P connect 139 0 140 0;#P connect 140 0 158 0;#P connect 153 0 136 1;#P connect 11 0 12 0;#P connect 10 0 12 0;#P connect 12 0 103 0;#P connect 99 0 17 0;#P connect 98 0 17 0;#P connect 1 0 17 0;#P connect 17 0 16 0;#P connect 16 0 19 0;#P connect 134 0 137 0;#P connect 137 0 7 0;#P connect 19 0 18 0;#P connect 17 1 18 0;#P connect 18 0 15 0;#P connect 15 0 8 0;#P connect 8 0 10 0;#P fasten 150 0 152 0 126 128 186 128;#P lcolor 3;#P connect 152 0 153 0;#P connect 154 0 151 0;#P connect 151 0 152 1;#P connect 8 1 11 0;#P connect 143 0 137 1;#P fasten 7 0 15 1 181 302 220 302;#P connect 134 0 138 0;#P connect 138 0 9 0;#P connect 16 0 8 1;#P connect 9 0 8 1;#P connect 13 0 100 0;#P connect 6 0 100 0;#P connect 158 0 144 0;#P connect 144 0 142 0;#P connect 142 0 143 0;#P connect 146 0 138 1;#P connect 144 1 141 0;#P connect 141 0 157 0;#P connect 157 0 155 0;#P connect 155 0 142 1;#P fasten 144 0 145 0 247 128 307 128;#P lcolor 3;#P connect 145 0 146 0;#P connect 38 0 99 0;#P connect 31 0 99 0;#P connect 157 0 156 0;#P connect 156 0 145 1;#P connect 26 0 31 0;#P connect 29 0 30 0;#P connect 28 0 30 0;#P connect 30 0 104 0;#P connect 100 0 46 0;#P fasten 33 0 46 0 496 446 452 446 452 311 367 311;#P connect 98 0 46 0;#P connect 46 0 45 0;#P connect 45 0 48 0;#P connect 24 0 109 0;#P connect 109 0 110 0;#P connect 110 0 25 0;#P connect 48 0 47 0;#P connect 46 1 47 0;#P connect 47 0 39 0;#P connect 39 0 26 0;#P connect 26 0 28 0;#P connect 26 1 29 0;#P connect 124 0 110 1;#P connect 25 0 39 1;#P connect 109 0 111 0;#P connect 111 0 27 0;#P connect 45 0 26 1;#P connect 27 0 26 1;#P connect 133 0 125 0;#P connect 125 0 123 0;#P connect 123 0 124 0;#P connect 33 0 38 0;#P connect 125 1 129 0;#P connect 129 0 122 0;#P connect 122 0 123 1;#P fasten 109 0 114 0 386 217 419 217 419 33 467 33;#P connect 114 0 115 0;#P connect 115 0 133 0;#P connect 128 0 111 1;#P connect 36 0 37 0;#P connect 35 0 37 0;#P connect 37 0 105 0;#P connect 100 0 42 0;#P connect 98 0 42 0;#P connect 26 0 42 0;#P connect 42 0 41 0;#P connect 41 0 44 0;#P connect 109 0 112 0;#P connect 112 0 32 0;#P connect 42 1 43 0;#P connect 44 0 43 0;#P connect 43 0 40 0;#P connect 40 0 33 0;#P connect 33 0 35 0;#P fasten 125 0 127 0 439 128 499 128;#P lcolor 3;#P connect 127 0 128 0;#P connect 129 0 126 0;#P connect 126 0 127 1;#P connect 33 1 36 0;#P connect 118 0 112 1;#P fasten 32 0 40 1 494 302 533 302;#P connect 109 0 113 0;#P connect 113 0 34 0;#P connect 41 0 33 1;#P connect 34 0 33 1;#P connect 133 0 119 0;#P connect 119 0 117 0;#P connect 117 0 118 0;#P connect 121 0 113 1;#P connect 119 1 116 0;#P connect 116 0 132 0;#P connect 132 0 130 0;#P connect 130 0 117 1;#P connect 68 0 98 0;#P connect 59 0 98 0;#P fasten 119 0 120 0 560 128 620 128;#P lcolor 3;#P connect 120 0 121 0;#P connect 132 0 131 0;#P connect 131 0 120 1;#P connect 53 0 59 0;#P connect 57 0 58 0;#P connect 56 0 58 0;#P connect 58 0 106 0;#P fasten 62 0 76 0 809 446 765 446 765 311 680 311;#P connect 100 0 76 0;#P connect 99 0 76 0;#P connect 76 0 75 0;#P connect 75 0 78 0;#P connect 49 0 50 0;#P connect 50 0 51 0;#P connect 51 0 52 0;#P connect 76 1 77 0;#P connect 78 0 77 0;#P connect 77 0 69 0;#P connect 69 0 53 0;#P connect 53 0 56 0;#P connect 53 1 57 0;#P connect 89 0 51 1;#P connect 52 0 69 1;#P connect 50 0 54 0;#P connect 54 0 55 0;#P connect 75 0 53 1;#P connect 55 0 53 1;#P connect 108 0 90 0;#P connect 90 0 88 0;#P connect 88 0 89 0;#P connect 62 0 68 0;#P connect 90 1 94 0;#P connect 94 0 87 0;#P connect 87 0 88 1;#P fasten 50 0 79 0 699 218 732 218 732 34 780 34;#P connect 79 0 80 0;#P connect 80 0 108 0;#P connect 66 0 67 0;#P connect 65 0 67 0;#P connect 67 0 107 0;#P connect 93 0 54 1;#P connect 100 0 72 0;#P connect 99 0 72 0;#P connect 53 0 72 0;#P connect 72 0 71 0;#P connect 71 0 74 0;#P connect 50 0 60 0;#P connect 60 0 61 0;#P connect 74 0 73 0;#P connect 72 1 73 0;#P connect 73 0 70 0;#P connect 70 0 62 0;#P connect 62 0 65 0;#P fasten 90 0 92 0 752 129 812 129;#P lcolor 3;#P connect 92 0 93 0;#P connect 94 0 91 0;#P connect 91 0 92 1;#P connect 62 1 66 0;#P connect 83 0 60 1;#P fasten 61 0 70 1 807 302 846 302;#P connect 50 0 63 0;#P connect 63 0 64 0;#P connect 71 0 62 1;#P connect 64 0 62 1;#P connect 108 0 84 0;#P connect 84 0 82 0;#P connect 82 0 83 0;#P connect 86 0 63 1;#P connect 84 1 81 0;#P connect 81 0 97 0;#P connect 97 0 95 0;#P connect 95 0 82 1;#P fasten 84 0 85 0 873 129 933 129;#P lcolor 3;#P connect 85 0 86 0;#P connect 97 0 96 0;#P connect 96 0 85 1;#P pop;#P newobj 528 635 157 196626 p xyz-trigs;#B color 6;#P window setfont "Sans Serif" 9.;#N vpatcher 10 59 501 339;#P window setfont "Sans Serif" 9.;#P comment 155 25 14 196617 y;#P comment 99 25 14 196617 x;#P newex 244 138 103 196617 unpack 0. 0.;#P newex 244 118 49 196617 pak 0. 0.;#P newex 322 208 126 196617 expr $f1*180/3.141593;#P newex 244 185 88 196617 cartopol;#P newex 337 161 91 196617 expr ($f1-0.5)*4;#P newex 244 161 91 196617 expr ($f1-0.5)*4;#P newex 29 112 103 196617 unpack 0. 0.;#P newex 29 89 64 196617 pak 0. 0.;#P newex 107 182 126 196617 expr $f1*180/3.141593;#P newex 29 159 88 196617 cartopol;#P newex 122 135 91 196617 expr ($f1-0.5)*4;#P newex 29 135 91 196617 expr ($f1-0.5)*4;#P comment 210 25 14 196617 z;#N comlet z;#P inlet 194 25 15 0;#N comlet x;#P inlet 83 25 15 0;#N comlet y;#P inlet 138 25 15 0;#N comlet h dist;#P outlet 29 181 15 0;#N comlet h az;#P outlet 107 204 15 0;#N comlet v dist;#P outlet 244 207 15 0;#N comlet v az;#P outlet 322 230 15 0;#P connect 6 0 12 0;#P connect 12 0 13 0;#P connect 13 0 8 0;#P connect 8 0 10 0;#P connect 10 0 3 0;#P connect 5 0 12 1;#P connect 9 0 10 1;#P connect 10 1 11 0;#P connect 11 0 2 0;#P connect 13 1 9 0;#P connect 4 0 18 0;#P connect 18 0 19 0;#P connect 19 0 14 0;#P connect 14 0 16 0;#P connect 16 0 1 0;#P connect 5 0 18 1;#P connect 15 0 16 1;#P connect 16 1 17 0;#P connect 17 0 0 0;#P connect 19 1 15 0;#P pop;#P newobj 48 594 181 196617 p az-dist;#B color 6;#P newex 162 656 290 196617 makecontrol $1/vert/dist $1 f 0 0 /common;#B color 5;#P newex 239 636 283 196617 makecontrol $1/vert/az $1 f 0 0 /common;#B color 5;#P flonum 162 615 35 9 0 0 0 3 0 0 0 221 221 221 222 222 222 0 0 0;#P flonum 239 615 71 9 0 0 0 3 0 0 0 221 221 221 222 222 222 0 0 0;#P newex 48 699 293 196617 makecontrol $1/horiz/dist $1 f 0 0 /common;#B color 5;#P newex 86 678 286 196617 makecontrol $1/horiz/az $1 f 0 0 /common;#B color 5;#P flonum 48 658 35 9 0 0 0 3 0 0 0 221 221 221 222 222 222 0 0 0;#P flonum 86 658 71 9 0 0 0 3 0 0 0 221 221 221 222 222 222 0 0 0;#P newex 5 196 302 196617 makecontrol $1/strippitchvel $1 li 0 127 /common;#B color 5;#P newex 44 141 280 196617 makecontrol $1/pitchvel $1 li 0 127 /common;#B color 5;#P newex 31 159 277 196617 makecontrol $1/stripvel $1 i 0 127 /common;#B color 5;#P newex 18 177 285 196617 makecontrol $1/strippitch $1 i 0 127 /common;#B color 5;#P newex 70 104 255 196617 makecontrol $1/vel $1 i 0 127 /common;#B color 5;#P newex 57 122 263 196617 makecontrol $1/pitch $1 i 0 127 /common;#B color 5;#P flonum 800 202 43 9 0 0 0 3 0 0 0 221 221 221 222 222 222 0 0 0;#P flonum 787 184 43 9 0 0 0 3 0 0 0 221 221 221 222 222 222 0 0 0;#P flonum 774 166 43 9 0 0 0 3 0 0 0 221 221 221 222 222 222 0 0 0;#P flonum 761 148 43 9 0 0 0 3 0 0 0 221 221 221 222 222 222 0 0 0;#P flonum 748 130 43 9 0 0 0 3 0 0 0 221 221 221 222 222 222 0 0 0;#P flonum 735 112 43 9 0 0 0 3 0 0 0 221 221 221 222 222 222 0 0 0;#P newex 854 200 345 196617 makecontrol $1/impulse/back $1 f 0 1 /common;#B color 11;#P newex 841 182 335 196617 makecontrol $1/impulse/up $1 f 0 1 /common;#B color 11;#P newex 828 164 341 196617 makecontrol $1/impulse/left $1 f 0 1 /common;#B color 11;#P newex 815 146 348 196617 makecontrol $1/impulse/front $1 f 0 1 /common;#B color 11;#P newex 802 128 348 196617 makecontrol $1/impulse/down $1 f 0 1 /common;#B color 11;#P newex 789 110 347 196617 makecontrol $1/impulse/right $1 f 0 1 /common;#B color 11;#P flonum 655 565 43 9 0 0 0 3 0 0 0 221 221 221 222 222 222 0 0 0;#P flonum 642 547 43 9 0 0 0 3 0 0 0 221 221 221 222 222 222 0 0 0;#P flonum 629 529 43 9 0 0 0 3 0 0 0 221 221 221 222 222 222 0 0 0;#P flonum 616 511 43 9 0 0 0 3 0 0 0 221 221 221 222 222 222 0 0 0;#P flonum 603 493 43 9 0 0 0 3 0 0 0 221 221 221 222 222 222 0 0 0;#P newex 672 492 316 196617 makecontrol $1/js/right $1 f 0 1 /common;#B color 12;#P newex 724 564 314 196617 makecontrol $1/js/push $1 f 0 1 /common;#B color 12;#P newex 711 546 317 196617 makecontrol $1/js/down $1 f 0 1 /common;#B color 12;#P newex 698 528 310 196617 makecontrol $1/js/left $1 f 0 1 /common;#B color 12;#P newex 685 510 304 196617 makecontrol $1/js/up $1 f 0 1 /common;#B color 12;#P flonum 701 636 43 9 0 0 0 3 0 0 0 221 221 221 222 222 222 0 0 0;#P flonum 688 618 43 9 0 0 0 3 0 0 0 221 221 221 222 222 222 0 0 0;#P flonum 675 600 43 9 0 0 0 3 0 0 0 221 221 221 222 222 222 0 0 0;#P flonum 662 582 43 9 0 0 0 3 0 0 0 221 221 221 222 222 222 0 0 0;#P comment 601 438 33 196617 LTB2;#P comment 588 420 33 196617 LTB3;#P comment 575 402 33 196617 LTB4;#P flonum 584 474 43 9 0 0 0 3 0 0 0 221 221 221 222 222 222 0 0 0;#P flonum 571 456 43 9 0 0 0 3 0 0 0 221 221 221 222 222 222 0 0 0;#P flonum 558 438 43 9 0 0 0 3 0 0 0 221 221 221 222 222 222 0 0 0;#P flonum 545 420 43 9 0 0 0 3 0 0 0 221 221 221 222 222 222 0 0 0;#P flonum 532 402 43 9 0 0 0 3 0 0 0 221 221 221 222 222 222 0 0 0;#P flonum 519 384 43 9 0 0 0 3 0 0 0 221 221 221 222 222 222 0 0 0;#P flonum 506 366 43 9 0 0 0 3 0 0 0 221 221 221 222 222 222 0 0 0;#P flonum 493 348 43 9 0 0 0 3 0 0 0 221 221 221 222 222 222 0 0 0;#P flonum 480 330 43 9 0 0 0 3 0 0 0 221 221 221 222 222 222 0 0 0;#P flonum 467 312 43 9 0 0 0 3 0 0 0 221 221 221 222 222 222 0 0 0;#P flonum 454 294 43 9 0 0 0 3 0 0 0 221 221 221 222 222 222 0 0 0;#P flonum 441 276 43 9 0 0 0 3 0 0 0 221 221 221 222 222 222 0 0 0;#P flonum 428 258 43 9 0 0 0 3 0 0 0 221 221 221 222 222 222 0 0 0;#P flonum 415 240 43 9 0 0 0 3 0 0 0 221 221 221 222 222 222 0 0 0;#P flonum 402 222 43 9 0 0 0 3 0 0 0 221 221 221 222 222 222 0 0 0;#P flonum 389 204 43 9 0 0 0 3 0 0 0 221 221 221 222 222 222 0 0 0;#P flonum 378 186 43 9 0 0 0 3 0 0 0 221 221 221 222 222 222 0 0 0;#P flonum 365 168 43 9 0 0 0 3 0 0 0 221 221 221 222 222 222 0 0 0;#P flonum 352 150 43 9 0 0 0 3 0 0 0 221 221 221 222 222 222 0 0 0;#P flonum 339 132 43 9 0 0 0 3 0 0 0 221 221 221 222 222 222 0 0 0;#P flonum 339 115 43 9 0 0 0 3 0 0 0 221 221 221 222 222 222 0 0 0;#P newex 607 402 309 196617 makecontrol $1/bsw/4 $1 f 0 1 /common;#B color 12;#P newex 659 474 309 196617 makecontrol $1/bsw/1 $1 f 0 1 /common;#B color 12;#P newex 646 456 309 196617 makecontrol $1/bsw/3 $1 f 0 1 /common;#B color 12;#P newex 633 438 309 196617 makecontrol $1/bsw/2 $1 f 0 1 /common;#B color 12;#P newex 620 420 309 196617 makecontrol $1/bsw/5 $1 f 0 1 /common;#B color 12;#P comment 561 384 26 196617 RB4;#P comment 548 366 25 196617 RB3;#P comment 535 348 25 196617 RB2;#P comment 522 330 25 196617 RB1;#P comment 509 312 25 196617 LB4;#P comment 496 294 25 196617 LB3;#P comment 483 276 25 196617 LB2;#P comment 470 258 25 196617 LB1;#P comment 457 240 26 196617 RN4;#P comment 444 222 26 196617 RN3;#P comment 431 204 26 196617 RN2;#P comment 418 186 26 196617 RN1;#P comment 405 168 25 196617 LN4;#P comment 392 150 25 196617 LN3;#P comment 379 132 25 196617 LN2;#P comment 380 116 25 196617 LN1;#P newex 776 636 309 196617 makecontrol $1/bsw/7 $1 f 0 1 /common;#B color 12;#P newex 763 618 309 196617 makecontrol $1/bsw/6 $1 f 0 1 /common;#B color 12;#P newex 750 600 309 196617 makecontrol $1/bsw/9 $1 f 0 1 /common;#B color 12;#P newex 737 582 309 196617 makecontrol $1/bsw/8 $1 f 0 1 /common;#B color 12;#P newex 594 384 308 196617 makecontrol $1/fsw/8 $1 f 0 1 /common;#B color 12;#P newex 581 366 308 196617 makecontrol $1/fsw/7 $1 f 0 1 /common;#B color 12;#P newex 568 348 308 196617 makecontrol $1/fsw/6 $1 f 0 1 /common;#B color 12;#P newex 555 330 308 196617 makecontrol $1/fsw/5 $1 f 0 1 /common;#B color 12;#P newex 542 312 308 196617 makecontrol $1/fsw/4 $1 f 0 1 /common;#B color 12;#P newex 529 294 308 196617 makecontrol $1/fsw/3 $1 f 0 1 /common;#B color 12;#P newex 516 276 308 196617 makecontrol $1/fsw/2 $1 f 0 1 /common;#B color 12;#P newex 503 258 308 196617 makecontrol $1/fsw/1 $1 f 0 1 /common;#B color 12;#P newex 490 240 318 196617 makecontrol $1/piston/8 $1 f 0 1 /common;#B color 12;#P newex 477 222 318 196617 makecontrol $1/piston/7 $1 f 0 1 /common;#B color 12;#P newex 464 204 318 196617 makecontrol $1/piston/6 $1 f 0 1 /common;#B color 12;#P newex 451 186 318 196617 makecontrol $1/piston/5 $1 f 0 1 /common;#B color 12;#P newex 438 168 318 196617 makecontrol $1/piston/4 $1 f 0 1 /common;#B color 12;#P newex 425 150 318 196617 makecontrol $1/piston/3 $1 f 0 1 /common;#B color 12;#P newex 412 132 318 196617 makecontrol $1/piston/2 $1 f 0 1 /common;#B color 12;#P newex 399 114 318 196617 makecontrol $1/piston/1 $1 f 0 1 /common;#B color 12;#P flonum 267 587 43 9 0 0 0 3 0 0 0 221 221 221 222 222 222 0 0 0;#P flonum 254 569 43 9 0 0 0 3 0 0 0 221 221 221 222 222 222 0 0 0;#P flonum 241 551 43 9 0 0 0 3 0 0 0 221 221 221 222 222 222 0 0 0;#P flonum 228 533 43 9 0 0 0 3 0 0 0 221 221 221 222 222 222 0 0 0;#P flonum 215 515 43 9 0 0 0 3 0 0 0 221 221 221 222 222 222 0 0 0;#P flonum 202 497 43 9 0 0 0 3 0 0 0 221 221 221 222 222 222 0 0 0;#P flonum 189 479 43 9 0 0 0 3 0 0 0 221 221 221 222 222 222 0 0 0;#P flonum 176 461 43 9 0 0 0 3 0 0 0 221 221 221 222 222 222 0 0 0;#P flonum 163 443 43 9 0 0 0 3 0 0 0 221 221 221 222 222 222 0 0 0;#P flonum 150 425 43 9 0 0 0 3 0 0 0 221 221 221 222 222 222 0 0 0;#P flonum 137 407 43 9 0 0 0 3 0 0 0 221 221 221 222 222 222 0 0 0;#P flonum 124 389 43 9 0 0 0 3 0 0 0 221 221 221 222 222 222 0 0 0;#P flonum 111 371 43 9 0 0 0 3 0 0 0 221 221 221 222 222 222 0 0 0;#P flonum 98 353 43 9 0 0 0 3 0 0 0 221 221 221 222 222 222 0 0 0;#P flonum 85 335 43 9 0 0 0 3 0 0 0 221 221 221 222 222 222 0 0 0;#P flonum 72 317 43 9 0 0 0 3 0 0 0 221 221 221 222 222 222 0 0 0;#P flonum 59 299 43 9 0 0 0 3 0 0 0 221 221 221 222 222 222 0 0 0;#P flonum 46 281 43 9 0 0 0 3 0 0 0 221 221 221 222 222 222 0 0 0;#P flonum 33 263 43 9 0 0 0 3 0 0 0 221 221 221 222 222 222 0 0 0;#P flonum 20 245 43 9 0 0 0 3 0 0 0 221 221 221 222 222 222 0 0 0;#P flonum 7 227 43 9 0 0 0 3 0 0 0 221 221 221 222 222 222 0 0 0;#P newex 343 587 288 196617 makecontrol $1/inclin/y $1 f 0 1 /common;#B color 12;#P newex 330 569 288 196617 makecontrol $1/inclin/x $1 f 0 1 /common;#B color 12;#P comment 285 551 33 196617 accel;#P comment 272 533 33 196617 accel;#P comment 259 515 33 196617 accel;#P comment 246 497 35 196617 MC1u;#P comment 233 479 35 196617 MC1d;#P comment 220 461 34 196617 inclin;#P comment 207 443 34 196617 inclin;#P comment 194 425 34 196617 inclin;#P comment 181 407 26 196617 RC5;#P comment 168 389 26 196617 RC4;#P comment 155 371 26 196617 RC3;#P comment 142 353 26 196617 RC2;#P comment 129 335 26 196617 RC1;#P comment 116 317 25 196617 MC1;#P comment 103 299 25 196617 LC5;#P comment 90 281 25 196617 LC4;#P comment 77 263 25 196617 LC3;#P comment 64 245 25 196617 LC2;#P newex 317 551 284 196617 makecontrol $1/gyro/z $1 f 0 1 /common;#B color 12;#P newex 304 533 285 196617 makecontrol $1/gyro/y $1 f 0 1 /common;#B color 12;#P newex 291 515 285 196617 makecontrol $1/gyro/x $1 f 0 1 /common;#B color 12;#P newex 278 497 300 196617 makecontrol $1/bend/right $1 f 0 1 /common;#B color 12;#P newex 265 479 294 196617 makecontrol $1/bend/left $1 f 0 1 /common;#B color 12;#P newex 252 461 278 196617 makecontrol $1/acc/z $1 f 0 1 /common;#B color 12;#P newex 239 443 279 196617 makecontrol $1/acc/y $1 f 0 1 /common;#B color 12;#P newex 226 425 279 196617 makecontrol $1/acc/x $1 f 0 1 /common;#B color 12;#P newex 213 407 286 196617 makecontrol $1/key/10 $1 f 0 1 /common;#B color 12;#P newex 200 389 280 196617 makecontrol $1/key/9 $1 f 0 1 /common;#B color 12;#P newex 187 371 280 196617 makecontrol $1/key/8 $1 f 0 1 /common;#B color 12;#P newex 174 353 280 196617 makecontrol $1/key/7 $1 f 0 1 /common;#B color 12;#P newex 161 335 280 196617 makecontrol $1/key/6 $1 f 0 1 /common;#B color 12;#P newex 148 317 271 196617 makecontrol $1/axis $1 f 0 1 /common;#B color 12;#P newex 135 299 280 196617 makecontrol $1/key/5 $1 f 0 1 /common;#B color 12;#P newex 122 281 280 196617 makecontrol $1/key/4 $1 f 0 1 /common;#B color 12;#P newex 109 263 280 196617 makecontrol $1/key/3 $1 f 0 1 /common;#B color 12;#P newex 96 245 280 196617 makecontrol $1/key/2 $1 f 0 1 /common;#B color 12;#P newex 83 227 280 196617 makecontrol $1/key/1 $1 f 0 1 /common;#B color 12;#P comment 51 227 25 196617 LC1;#N vpatcher 1092 117 1585 864;#P window setfont "Sans Serif" 9.;#P window linecount 34;#P message 58 50 144 196617 \; $1/bsw/1/init bang \; $1/bsw/2/init bang \; $1/bsw/3/init bang \; $1/bsw/4/init bang \; $1/bsw/5/init bang \; $1/bsw/6/init bang \; $1/bsw/7/init bang \; $1/bsw/8/init bang \; $1/bsw/9/init bang \; $1/js/right/init bang \; $1/js/left/init bang \; $1/js/up/init bang \; $1/js/down/init bang \; $1/js/push/init bang \; $1/impulse/right bang \; $1/impulse/down bang \; $1/impulse/front bang \; $1/impulse/left bang \; $1/impulse/up bang \; $1/impulse/back bang \; $1/acc/trig/left/init bang \; $1/acc/trig/right/init bang \; $1/acc/trig/down/init bang \; $1/acc/trig/up/init bang \; $1/acc/trig/front/init bang \; $1/acc/trig/back/init bang \; $1/horiz/az/init bang \; $1/horiz/dist/init bang \; $1/vert/az/init bang \; $1/vert/dist/init bang \; $1/port/init bang \; $1/input/init bang \; control_register/store $1 \;;#P window linecount 45;#P message 248 50 135 196617 \; $1/sw/init bang \; $1/pitchvel/init bang \; $1/pitch/init bang \; $1/vel/init bang \; $1/strippitchvel/init bang \; $1/strippitch/init bang \; $1/stripvel/init bang \; $1/key/1/init bang \; $1/key/2/init bang \; $1/key/3/init bang \; $1/key/4/init bang \; $1/key/5/init bang \; $1/axis/init bang \; $1/key/6/init bang \; $1/key/7/init bang \; $1/key/8/init bang \; $1/key/9/init bang \; $1/key/10/init bang \; $1/acc/x/init bang \; $1/acc/y/init bang \; $1/acc/z/init bang \; $1/bend/left/init bang \; $1/bend/right/init bang \; $1/gyro/x/init bang \; $1/gyro/y/init bang \; $1/gyro/z/init bang \; $1/inclin/x/init bang \; $1/inclin/y/init bang \; $1/piston/1/init bang \; $1/piston/2/init bang \; $1/piston/3/init bang \; $1/piston/4/init bang \; $1/piston/5/init bang \; $1/piston/6/init bang \; $1/piston/7/init bang \; $1/piston/8/init bang \; $1/fsw/1/init bang \; $1/fsw/2/init bang \; $1/fsw/3/init bang \; $1/fsw/4/init bang \; $1/fsw/5/init bang \; $1/fsw/6/init bang \; $1/fsw/7/init bang \; $1/fsw/8/init bang \;;#P inlet 248 30 15 0;#P inlet 58 30 15 0;#P connect 0 0 3 0;#P connect 1 0 2 0;#P pop;#P newobj 1028 338 61 196617 p init-mess;#B color 6;#P newex 994 269 151 196617 moduleinit $1;#B color 13;#P button 994 289 15 0;#P newex 994 307 78 196617 t b b b;#P newex 924 290 48 196617 loadbang;#P message 924 329 60 196617 controllers;#P newex 924 369 178 196617 s $1/mididevicemenu;#B color 12;#P newex 924 348 45 196617 midiinfo;#B color 5;#P window setfont "Sans Serif" 18.;#N vpatcher 636 44 1371 345;#P origin 1 -19;#P window setfont "Sans Serif" 9.;#P window linecount 0;#P comment 234 171 24 196617 left;#P comment 234 40 32 196617 right;#P newex 525 300 56 196617 pvar LN1n;#P newex 598 300 90 196617 vari $1/piston/1;#B color 12;#P newex 808 300 51 196617 pvar LN1;#P newex 733 426 71 196617 prepend set 1;#P newex 733 408 71 196617 prepend set 1;#P newex 733 390 71 196617 prepend set 1;#P newex 733 372 71 196617 prepend set 1;#P newex 733 354 71 196617 prepend set 1;#P newex 733 336 71 196617 prepend set 1;#P newex 733 318 71 196617 prepend set 1;#P newex 733 300 71 196617 prepend set 1;#P newex 292 409 34 196617 + 0.5;#P newex 475 390 40 196617 / 127.;#P newex 292 390 41 196617 * 127.;#P window linecount 1;#P newex 340 660 71 196617 prepend set 1;#P newex 340 642 71 196617 prepend set 1;#P newex 340 624 71 196617 prepend set 1;#P newex 340 606 71 196617 prepend set 1;#P newex 340 588 71 196617 prepend set 1;#P newex 340 570 71 196617 prepend set 1;#P newex 340 552 71 196617 prepend set 1;#P newex 340 534 71 196617 prepend set 1;#P newex 340 516 71 196617 prepend set 1;#P newex 340 498 71 196617 prepend set 1;#P newex 340 480 71 196617 prepend set 1;#P newex 340 462 71 196617 prepend set 1;#P newex 340 444 71 196617 prepend set 1;#P newex 340 426 71 196617 prepend set 1;#P newex 340 408 71 196617 prepend set 1;#P newex 340 390 62 196617 prepend set;#P newex 340 372 71 196617 prepend set 1;#P newex 340 354 71 196617 prepend set 1;#P newex 340 336 71 196617 prepend set 1;#P newex 340 318 71 196617 prepend set 1;#P newex 340 300 71 196617 prepend set 1;#P newex 848 648 32 196617 sel 1;#P newex 848 630 32 196617 sel 1;#P newex 848 612 32 196617 sel 1;#P newex 848 594 32 196617 sel 1;#P newex 848 576 32 196617 sel 1;#P newex 886 648 54 196617 pvar back;#P newex 886 630 51 196617 pvar fwd;#P newex 886 612 44 196617 pvar up;#P newex 886 594 57 196617 pvar down;#P newex 886 576 56 196617 pvar right;#P newex 886 558 50 196617 pvar left;#P newex 848 558 32 196617 sel 1;#P newex 953 648 115 196617 vari $1/acc/trig/back;#B color 5;#P newex 953 630 118 196617 vari $1/acc/trig/front;#B color 5;#P newex 953 576 117 196617 vari $1/acc/trig/right;#B color 5;#P newex 953 558 111 196617 vari $1/acc/trig/left;#B color 5;#P newex 953 594 118 196617 vari $1/acc/trig/down;#B color 5;#P newex 953 612 105 196617 vari $1/acc/trig/up;#B color 5;#P newex 883 475 50 196617 pvar vaz;#P newex 883 529 44 196617 pvar hd;#P newex 883 511 49 196617 pvar haz;#P newex 883 493 45 196617 pvar vd;#P comment 615 185 59 196617 /horiz/dist;#P comment 486 186 52 196617 /horiz/az;#P comment 615 167 59 196617 /vert/dist;#P comment 486 168 52 196617 /vert/az;#P flonum 674 184 35 9 0 0 0 3 0 0 0 221 221 221 222 222 222 0 0 0;#P objectname hd;#P flonum 537 184 71 9 0 0 0 3 0 0 0 221 221 221 222 222 222 0 0 0;#P objectname haz;#P flonum 674 166 35 9 0 0 0 3 0 0 0 221 221 221 222 222 222 0 0 0;#P objectname vd;#P flonum 537 166 71 9 0 0 0 3 0 0 0 221 221 221 222 222 222 0 0 0;#P objectname vaz;#P newex 953 493 94 196617 vari $1/vert/dist;#B color 5;#P newex 953 475 87 196617 vari $1/vert/az;#B color 5;#P newex 953 529 97 196617 vari $1/horiz/dist;#B color 5;#P newex 953 511 90 196617 vari $1/horiz/az;#B color 5;#P newex 882 392 58 196617 pvar RTB4;#P newex 882 446 58 196617 pvar RTB1;#P newex 882 428 58 196617 pvar RTB2;#P newex 882 410 58 196617 pvar RTB3;#P comment 406 147 25 196617 /8;#P comment 379 147 25 196617 /7;#P comment 354 147 25 196617 /6;#P comment 304 147 55 196617 /piston/5;#P newex 525 426 57 196617 pvar RN4n;#P newex 525 408 57 196617 pvar RN3n;#P newex 525 390 57 196617 pvar RN2n;#P newex 525 372 57 196617 pvar RN1n;#P newex 525 354 56 196617 pvar LN4n;#P newex 525 336 56 196617 pvar LN3n;#P newex 525 318 56 196617 pvar LN2n;#P newex 952 302 88 196617 vari $1/js/right;#B color 12;#P newex 952 374 86 196617 vari $1/js/push;#B color 12;#P newex 952 356 89 196617 vari $1/js/down;#B color 12;#P newex 952 338 82 196617 vari $1/js/left;#B color 12;#P newex 952 320 76 196617 vari $1/js/up;#B color 12;#P newex 598 594 81 196617 vari $1/bsw/4;#B color 12;#P newex 598 666 81 196617 vari $1/bsw/1;#B color 12;#P newex 598 648 81 196617 vari $1/bsw/3;#B color 12;#P newex 598 630 81 196617 vari $1/bsw/2;#B color 12;#P newex 598 612 81 196617 vari $1/bsw/5;#B color 12;#P newex 952 446 81 196617 vari $1/bsw/7;#B color 12;#P newex 952 428 81 196617 vari $1/bsw/6;#B color 12;#P newex 952 410 81 196617 vari $1/bsw/9;#B color 12;#P newex 952 392 81 196617 vari $1/bsw/8;#B color 12;#P newex 598 576 80 196617 vari $1/fsw/8;#B color 12;#P newex 598 558 80 196617 vari $1/fsw/7;#B color 12;#P newex 598 540 80 196617 vari $1/fsw/6;#B color 12;#P newex 598 522 80 196617 vari $1/fsw/5;#B color 12;#P newex 598 504 80 196617 vari $1/fsw/4;#B color 12;#P newex 598 486 80 196617 vari $1/fsw/3;#B color 12;#P newex 598 468 80 196617 vari $1/fsw/2;#B color 12;#P newex 598 450 80 196617 vari $1/fsw/1;#B color 12;#P newex 598 426 90 196617 vari $1/piston/8;#B color 12;#P newex 598 408 90 196617 vari $1/piston/7;#B color 12;#P newex 598 390 90 196617 vari $1/piston/6;#B color 12;#P newex 598 372 90 196617 vari $1/piston/5;#B color 12;#P newex 598 354 90 196617 vari $1/piston/4;#B color 12;#P newex 598 336 90 196617 vari $1/piston/3;#B color 12;#P newex 598 318 90 196617 vari $1/piston/2;#B color 12;#P newex 25 663 72 196617 pvar incl/FBn;#P newex 25 645 72 196617 pvar incl/LRn;#P newex 25 627 73 196617 pvar accel/zn;#P newex 25 609 74 196617 pvar accel/yn;#P newex 25 591 74 196617 pvar accel/xn;#P newex 25 536 74 196617 pvar inclin/zn;#P newex 25 518 75 196617 pvar inclin/yn;#P newex 25 500 75 196617 pvar inclin/xn;#P newex 25 572 64 196617 pvar MC1un;#P newex 25 554 64 196617 pvar MC1dn;#P newex 25 392 59 196617 pvar MC1n;#P newex 25 482 57 196617 pvar RC5n;#P newex 25 464 57 196617 pvar RC4n;#P newex 25 446 57 196617 pvar RC3n;#P newex 25 428 57 196617 pvar RC2n;#P newex 25 410 57 196617 pvar RC1n;#P newex 25 373 56 196617 pvar LC5n;#P newex 25 355 56 196617 pvar LC4n;#P newex 25 337 56 196617 pvar LC3n;#P newex 25 319 56 196617 pvar LC2n;#P newex 25 300 56 196617 pvar LC1n;#P comment 679 18 19 196617 FB;#P comment 656 18 19 196617 LR;#P flonum 681 139 27 9 0 0 32 3 0 0 0 221 221 221 222 222 222 0 0 0;#P objectname incl/FBn;#P user multiSlider 681 31 13 107 0. 1. 1 2937 47 0 0 2 0 0 0;#M frgb 0 0 0;#M brgb 255 255 255;#M rgb2 127 127 127;#M rgb3 0 0 0;#M rgb4 37 52 91;#M rgb5 74 105 182;#M rgb6 112 158 18;#M rgb7 149 211 110;#M rgb8 187 9 201;#M rgb9 224 62 37;#M rgb10 7 114 128;#P objectname incl/FB;#P comment 660 4 32 196617 incl/;#P flonum 656 139 27 9 0 0 32 3 0 0 0 221 221 221 222 222 222 0 0 0;#P objectname incl/LRn;#P user multiSlider 656 31 13 107 0. 1. 1 2937 47 0 0 2 0 0 0;#M frgb 0 0 0;#M brgb 255 255 255;#M rgb2 127 127 127;#M rgb3 0 0 0;#M rgb4 37 52 91;#M rgb5 74 105 182;#M rgb6 112 158 18;#M rgb7 149 211 110;#M rgb8 187 9 201;#M rgb9 224 62 37;#M rgb10 7 114 128;#P objectname incl/LR;#P newex 417 660 67 196617 pvar incl/FB;#P newex 417 642 67 196617 pvar incl/LR;#P newex 193 663 87 196617 vari $1/inclin/y;#B color 12;#P newex 193 645 87 196617 vari $1/inclin/x;#B color 12;#P newex 193 627 83 196617 vari $1/gyro/z;#B color 12;#P newex 193 609 84 196617 vari $1/gyro/y;#B color 12;#P newex 193 591 84 196617 vari $1/gyro/x;#B color 12;#P newex 193 572 99 196617 vari $1/bend/right;#B color 12;#P newex 193 554 93 196617 vari $1/bend/left;#B color 12;#P newex 193 536 77 196617 vari $1/acc/z;#B color 12;#P newex 193 518 78 196617 vari $1/acc/y;#B color 12;#P newex 193 500 78 196617 vari $1/acc/x;#B color 12;#P newex 193 482 85 196617 vari $1/key/10;#B color 12;#P newex 193 464 79 196617 vari $1/key/9;#B color 12;#P newex 193 446 79 196617 vari $1/key/8;#B color 12;#P newex 193 428 79 196617 vari $1/key/7;#B color 12;#P newex 193 410 79 196617 vari $1/key/6;#B color 12;#P newex 193 392 70 196617 vari $1/axis;#B color 12;#P newex 193 373 79 196617 vari $1/key/5;#B color 12;#P newex 193 355 79 196617 vari $1/key/4;#B color 12;#P newex 193 337 79 196617 vari $1/key/3;#B color 12;#P newex 193 319 79 196617 vari $1/key/2;#B color 12;#P newex 193 300 79 196617 vari $1/key/1;#B color 12;#P comment 336 248 36 196617 /back;#P comment 274 224 53 196617 /forward;#P comment 334 217 24 196617 /up;#P comment 336 257 39 196617 /down;#P comment 356 240 38 196617 /right;#P comment 282 248 32 196617 /left;#P comment 363 218 69 196617 /accel/trig/;#P button 323 240 15 0;#P objectname back;#P button 318 234 15 0;#P objectname fwd;#P button 321 255 15 0;#P objectname down;#P button 320 217 15 0;#P objectname up;#P button 343 234 15 0;#P objectname right;#P button 300 234 15 0;#P objectname left;#P newex 741 595 57 196617 pvar LTB4;#P comment 21 214 46 196617 /bsw/1;#P toggle 32 225 20 0;#P objectname LTB0;#P newex 741 667 57 196617 pvar LTB0;#P newex 741 649 57 196617 pvar LTB1;#P newex 741 631 57 196617 pvar LTB2;#P newex 741 613 57 196617 pvar LTB3;#P comment 109 247 20 196617 /4;#P toggle 109 258 20 0;#P objectname LTB4;#P comment 77 247 20 196617 /5;#P toggle 77 258 20 0;#P objectname LTB3;#P comment 109 215 20 196617 /2;#P toggle 109 226 20 0;#P objectname LTB2;#P comment 77 215 20 196617 /3;#P toggle 77 226 20 0;#P objectname LTB1;#P newex 882 374 46 196617 pvar JC;#P newex 882 356 46 196617 pvar JD;#P newex 882 338 45 196617 pvar JL;#P newex 882 320 46 196617 pvar JU;#P newex 882 302 46 196617 pvar JR;#P comment 527 226 45 196617 js/push;#P comment 460 242 41 196617 js/left;#P comment 497 215 41 196617 /js/up;#P comment 537 241 53 196617 /js/right;#P comment 496 269 54 196617 /js/down;#P toggle 511 255 15 0;#P objectname JD;#P toggle 497 241 15 0;#P objectname JL;#P toggle 511 227 15 0;#P objectname JU;#P toggle 525 241 15 0;#P objectname JR;#P toggle 511 241 15 0;#P objectname JC;#P comment 183 246 20 196617 /8;#P toggle 183 257 20 0;#P objectname RTB4;#P comment 151 246 20 196617 /9;#P toggle 151 257 20 0;#P objectname RTB3;#P comment 183 214 20 196617 /6;#P toggle 183 225 20 0;#P objectname RTB2;#P comment 151 214 20 196617 /7;#P toggle 151 225 20 0;#P objectname RTB1;#P comment 439 163 45 196617 /fsw/8;#P comment 439 42 45 196617 /fsw/6;#P comment 278 163 45 196617 /fsw/7;#P comment 278 42 45 196617 /fsw/5;#P comment 161 164 45 196617 /fsw/4;#P comment 161 43 45 196617 /fsw/2;#P comment 1 164 45 196617 /fsw/3;#P comment 1 43 45 196617 /fsw/1;#P toggle 447 176 25 0;#P objectname RB4;#P toggle 286 176 25 0;#P objectname RB3;#P toggle 447 17 25 0;#P objectname RB2;#P toggle 286 17 25 0;#P objectname RB1;#P toggle 169 177 25 0;#P objectname LB3;#P toggle 8 177 25 0;#P objectname LB4;#P toggle 169 18 25 0;#P objectname LB1;#P toggle 8 18 25 0;#P objectname LB2;#P newex 741 577 52 196617 pvar RB4;#P newex 741 559 52 196617 pvar RB3;#P newex 741 541 52 196617 pvar RB2;#P newex 741 523 52 196617 pvar RB1;#P newex 741 504 51 196617 pvar LB3;#P newex 741 486 51 196617 pvar LB4;#P newex 741 468 51 196617 pvar LB1;#P newex 741 450 51 196617 pvar LB2;#P flonum 399 186 27 9 0 0 32 3 0 0 0 221 221 221 222 222 222 0 0 0;#P objectname RN4n;#P user multiSlider 399 160 25 25 0. 1. 1 2937 47 0 0 2 0 0 0;#M frgb 0 0 0;#M brgb 255 255 255;#M rgb2 127 127 127;#M rgb3 0 0 0;#M rgb4 37 52 91;#M rgb5 74 105 182;#M rgb6 112 158 18;#M rgb7 149 211 110;#M rgb8 187 9 201;#M rgb9 224 62 37;#M rgb10 7 114 128;#P objectname RN4;#P flonum 373 186 27 9 0 0 32 3 0 0 0 221 221 221 222 222 222 0 0 0;#P objectname RN3n;#P user multiSlider 373 160 25 25 0. 1. 1 2937 47 0 0 2 0 0 0;#M frgb 0 0 0;#M brgb 255 255 255;#M rgb2 127 127 127;#M rgb3 0 0 0;#M rgb4 37 52 91;#M rgb5 74 105 182;#M rgb6 112 158 18;#M rgb7 149 211 110;#M rgb8 187 9 201;#M rgb9 224 62 37;#M rgb10 7 114 128;#P objectname RN3;#P flonum 347 186 27 9 0 0 32 3 0 0 0 221 221 221 222 222 222 0 0 0;#P objectname RN2n;#P user multiSlider 347 160 25 25 0. 1. 1 2937 47 0 0 2 0 0 0;#M frgb 0 0 0;#M brgb 255 255 255;#M rgb2 127 127 127;#M rgb3 0 0 0;#M rgb4 37 52 91;#M rgb5 74 105 182;#M rgb6 112 158 18;#M rgb7 149 211 110;#M rgb8 187 9 201;#M rgb9 224 62 37;#M rgb10 7 114 128;#P objectname RN2;#P flonum 321 186 27 9 0 0 32 3 0 0 0 221 221 221 222 222 222 0 0 0;#P objectname RN1n;#P user multiSlider 321 160 25 25 0. 1. 1 2937 47 0 0 2 0 0 0;#M frgb 0 0 0;#M brgb 255 255 255;#M rgb2 127 127 127;#M rgb3 0 0 0;#M rgb4 37 52 91;#M rgb5 74 105 182;#M rgb6 112 158 18;#M rgb7 149 211 110;#M rgb8 187 9 201;#M rgb9 224 62 37;#M rgb10 7 114 128;#P objectname RN1;#P newex 808 426 52 196617 pvar RN4;#P newex 808 408 52 196617 pvar RN3;#P newex 808 390 52 196617 pvar RN2;#P newex 808 372 52 196617 pvar RN1;#P newex 808 354 51 196617 pvar LN4;#P newex 808 336 51 196617 pvar LN3;#P newex 808 318 51 196617 pvar LN2;#P comment 125 148 20 196617 /4;#P flonum 121 187 27 9 0 0 32 3 0 0 0 221 221 221 222 222 222 0 0 0;#P objectname LN4n;#P user multiSlider 121 161 25 25 0. 1. 1 2937 47 0 0 2 0 0 0;#M frgb 0 0 0;#M brgb 255 255 255;#M rgb2 127 127 127;#M rgb3 0 0 0;#M rgb4 37 52 91;#M rgb5 74 105 182;#M rgb6 112 158 18;#M rgb7 149 211 110;#M rgb8 187 9 201;#M rgb9 224 62 37;#M rgb10 7 114 128;#P objectname LN4;#P comment 101 148 20 196617 /3;#P flonum 95 187 27 9 0 0 32 3 0 0 0 221 221 221 222 222 222 0 0 0;#P objectname LN3n;#P user multiSlider 95 161 25 25 0. 1. 1 2937 47 0 0 2 0 0 0;#M frgb 0 0 0;#M brgb 255 255 255;#M rgb2 127 127 127;#M rgb3 0 0 0;#M rgb4 37 52 91;#M rgb5 74 105 182;#M rgb6 112 158 18;#M rgb7 149 211 110;#M rgb8 187 9 201;#M rgb9 224 62 37;#M rgb10 7 114 128;#P objectname LN3;#P comment 74 148 20 196617 /2;#P flonum 69 187 27 9 0 0 32 3 0 0 0 221 221 221 222 222 222 0 0 0;#P objectname LN2n;#P user multiSlider 69 161 25 25 0. 1. 1 2937 47 0 0 2 0 0 0;#M frgb 0 0 0;#M brgb 255 255 255;#M rgb2 127 127 127;#M rgb3 0 0 0;#M rgb4 37 52 91;#M rgb5 74 105 182;#M rgb6 112 158 18;#M rgb7 149 211 110;#M rgb8 187 9 201;#M rgb9 224 62 37;#M rgb10 7 114 128;#P objectname LN2;#P comment 624 18 19 196617 /z;#P comment 599 18 20 196617 /y;#P comment 574 18 20 196617 /x;#P comment 539 18 19 196617 /z;#P comment 514 18 20 196617 /y;#P comment 489 18 20 196617 /x;#P comment 25 148 55 196617 /piston/1;#P flonum 43 187 27 9 0 0 32 3 0 0 0 221 221 221 222 222 222 0 0 0;#P objectname LN1n;#P user multiSlider 43 161 25 25 0. 1. 1 2937 47 0 0 2 0 0 0;#M frgb 0 0 0;#M brgb 255 255 255;#M rgb2 127 127 127;#M rgb3 0 0 0;#M rgb4 37 52 91;#M rgb5 74 105 182;#M rgb6 112 158 18;#M rgb7 149 211 110;#M rgb8 187 9 201;#M rgb9 224 62 37;#M rgb10 7 114 128;#P objectname LN1;#P newex 417 624 68 196617 pvar accel/z;#P newex 417 606 69 196617 pvar accel/y;#P newex 417 588 69 196617 pvar accel/x;#P flonum 624 139 27 9 0 0 32 3 0 0 0 221 221 221 222 222 222 0 0 0;#P objectname accel/zn;#P user multiSlider 624 31 13 107 0. 1. 1 2937 47 0 0 2 0 0 0;#M frgb 0 0 0;#M brgb 255 255 255;#M rgb2 127 127 127;#M rgb3 0 0 0;#M rgb4 37 52 91;#M rgb5 74 105 182;#M rgb6 112 158 18;#M rgb7 149 211 110;#M rgb8 187 9 201;#M rgb9 224 62 37;#M rgb10 7 114 128;#P objectname accel/z;#P flonum 599 139 27 9 0 0 32 3 0 0 0 221 221 221 222 222 222 0 0 0;#P objectname accel/yn;#P user multiSlider 599 31 13 107 0. 1. 1 2937 47 0 0 2 0 0 0;#M frgb 0 0 0;#M brgb 255 255 255;#M rgb2 127 127 127;#M rgb3 0 0 0;#M rgb4 37 52 91;#M rgb5 74 105 182;#M rgb6 112 158 18;#M rgb7 149 211 110;#M rgb8 187 9 201;#M rgb9 224 62 37;#M rgb10 7 114 128;#P objectname accel/y;#P comment 587 4 37 196617 /gyro;#P flonum 574 139 27 9 0 0 32 3 0 0 0 221 221 221 222 222 222 0 0 0;#P objectname accel/xn;#P user multiSlider 574 31 13 107 0. 1. 1 2937 47 0 0 2 0 0 0;#M frgb 0 0 0;#M brgb 255 255 255;#M rgb2 127 127 127;#M rgb3 0 0 0;#M rgb4 37 52 91;#M rgb5 74 105 182;#M rgb6 112 158 18;#M rgb7 149 211 110;#M rgb8 187 9 201;#M rgb9 224 62 37;#M rgb10 7 114 128;#P objectname accel/x;#P flonum 539 139 27 9 0 0 32 3 0 0 0 221 221 221 222 222 222 0 0 0;#P objectname inclin/zn;#P user multiSlider 539 31 13 107 0. 1. 1 2937 47 0 0 2 0 0 0;#M frgb 0 0 0;#M brgb 255 255 255;#M rgb2 127 127 127;#M rgb3 0 0 0;#M rgb4 37 52 91;#M rgb5 74 105 182;#M rgb6 112 158 18;#M rgb7 149 211 110;#M rgb8 187 9 201;#M rgb9 224 62 37;#M rgb10 7 114 128;#P objectname inclin/z;#P flonum 514 139 27 9 0 0 32 3 0 0 0 221 221 221 222 222 222 0 0 0;#P objectname inclin/yn;#P user multiSlider 514 31 13 107 0. 1. 1 2937 47 0 0 2 0 0 0;#M frgb 0 0 0;#M brgb 255 255 255;#M rgb2 127 127 127;#M rgb3 0 0 0;#M rgb4 37 52 91;#M rgb5 74 105 182;#M rgb6 112 158 18;#M rgb7 149 211 110;#M rgb8 187 9 201;#M rgb9 224 62 37;#M rgb10 7 114 128;#P objectname inclin/y;#P comment 509 4 31 196617 /acc;#P flonum 489 139 27 9 0 0 32 3 0 0 0 221 221 221 222 222 222 0 0 0;#P objectname inclin/xn;#P user multiSlider 489 31 13 107 0. 1. 1 2937 47 0 0 2 0 0 0;#M frgb 0 0 0;#M brgb 255 255 255;#M rgb2 127 127 127;#M rgb3 0 0 0;#M rgb4 37 52 91;#M rgb5 74 105 182;#M rgb6 112 158 18;#M rgb7 149 211 110;#M rgb8 187 9 201;#M rgb9 224 62 37;#M rgb10 7 114 128;#P objectname inclin/x;#P newex 417 534 69 196617 pvar inclin/z;#P newex 417 516 70 196617 pvar inclin/y;#P newex 417 498 70 196617 pvar inclin/x;#P comment 234 160 42 196617 /bend/;#P flonum 216 187 27 9 0 0 32 3 0 0 0 221 221 221 222 222 222 0 0 0;#P objectname MC1dn;#P user multiSlider 216 146 18 40 0. 1. 1 2937 47 0 0 2 0 0 0;#M frgb 0 0 0;#M brgb 255 255 255;#M rgb2 127 127 127;#M rgb3 0 0 0;#M rgb4 37 52 91;#M rgb5 74 105 182;#M rgb6 112 158 18;#M rgb7 149 211 110;#M rgb8 187 9 201;#M rgb9 224 62 37;#M rgb10 7 114 128;#P objectname MC1d;#P comment 234 27 42 196617 /bend/;#P flonum 216 54 27 9 0 0 32 3 0 0 0 221 221 221 222 222 222 0 0 0;#P objectname MC1un;#P user multiSlider 216 13 18 40 0. 1. 1 2937 47 0 0 2 0 0 0;#M frgb 0 0 0;#M brgb 255 255 255;#M rgb2 127 127 127;#M rgb3 0 0 0;#M rgb4 37 52 91;#M rgb5 74 105 182;#M rgb6 112 158 18;#M rgb7 149 211 110;#M rgb8 187 9 201;#M rgb9 224 62 37;#M rgb10 7 114 128;#P objectname MC1u;#P newex 417 570 59 196617 pvar MC1u;#P newex 417 552 59 196617 pvar MC1d;#P newex 417 390 54 196617 pvar MC1;#P newex 417 480 52 196617 pvar RC5;#P newex 417 462 52 196617 pvar RC4;#P newex 417 444 52 196617 pvar RC3;#P newex 417 426 52 196617 pvar RC2;#P newex 417 408 52 196617 pvar RC1;#P comment 418 4 26 196617 /10;#P flonum 424 125 27 9 0 0 32 3 0 0 0 221 221 221 222 222 222 0 0 0;#P objectname RC5n;#P user multiSlider 424 17 13 107 0. 1. 1 2937 47 0 0 2 0 0 0;#M frgb 0 0 0;#M brgb 255 255 255;#M rgb2 127 127 127;#M rgb3 0 0 0;#M rgb4 37 52 91;#M rgb5 74 105 182;#M rgb6 112 158 18;#M rgb7 149 211 110;#M rgb8 187 9 201;#M rgb9 224 62 37;#M rgb10 7 114 128;#P objectname RC5;#P comment 402 4 20 196617 /9;#P flonum 399 125 27 9 0 0 32 3 0 0 0 221 221 221 222 222 222 0 0 0;#P objectname RC4n;#P user multiSlider 405 17 13 107 0. 1. 1 2937 47 0 0 2 0 0 0;#M frgb 0 0 0;#M brgb 255 255 255;#M rgb2 127 127 127;#M rgb3 0 0 0;#M rgb4 37 52 91;#M rgb5 74 105 182;#M rgb6 112 158 18;#M rgb7 149 211 110;#M rgb8 187 9 201;#M rgb9 224 62 37;#M rgb10 7 114 128;#P objectname RC4;#P comment 372 4 20 196617 /8;#P flonum 373 125 27 9 0 0 32 3 0 0 0 221 221 221 222 222 222 0 0 0;#P objectname RC3n;#P user multiSlider 373 17 18 107 0. 1. 1 2937 47 0 0 2 0 0 0;#M frgb 0 0 0;#M brgb 255 255 255;#M rgb2 127 127 127;#M rgb3 0 0 0;#M rgb4 37 52 91;#M rgb5 74 105 182;#M rgb6 112 158 18;#M rgb7 149 211 110;#M rgb8 187 9 201;#M rgb9 224 62 37;#M rgb10 7 114 128;#P objectname RC3;#P comment 346 4 20 196617 /7;#P flonum 347 125 27 9 0 0 32 3 0 0 0 221 221 221 222 222 222 0 0 0;#P objectname RC2n;#P user multiSlider 347 17 18 107 0. 1. 1 2937 47 0 0 2 0 0 0;#M frgb 0 0 0;#M brgb 255 255 255;#M rgb2 127 127 127;#M rgb3 0 0 0;#M rgb4 37 52 91;#M rgb5 74 105 182;#M rgb6 112 158 18;#M rgb7 149 211 110;#M rgb8 187 9 201;#M rgb9 224 62 37;#M rgb10 7 114 128;#P objectname RC2;#P comment 307 4 44 196617 /key/6;#P flonum 321 125 27 9 0 0 32 3 0 0 0 221 221 221 222 222 222 0 0 0;#P objectname RC1n;#P user multiSlider 321 17 18 107 0. 1. 1 2937 47 0 0 2 0 0 0;#M frgb 0 0 0;#M brgb 255 255 255;#M rgb2 127 127 127;#M rgb3 0 0 0;#M rgb4 37 52 91;#M rgb5 74 105 182;#M rgb6 112 158 18;#M rgb7 149 211 110;#M rgb8 187 9 201;#M rgb9 224 62 37;#M rgb10 7 114 128;#P objectname RC1;#P newex 417 372 51 196617 pvar LC5;#P newex 417 354 51 196617 pvar LC4;#P newex 417 336 51 196617 pvar LC3;#P newex 417 318 51 196617 pvar LC2;#P newex 417 300 51 196617 pvar LC1;#P comment 142 5 20 196617 /5;#P flonum 146 126 27 9 0 0 32 3 0 0 0 221 221 221 222 222 222 0 0 0;#P objectname LC5n;#P user multiSlider 146 18 13 107 0. 1. 1 2937 47 0 0 2 0 0 0;#M frgb 0 0 0;#M brgb 255 255 255;#M rgb2 127 127 127;#M rgb3 0 0 0;#M rgb4 37 52 91;#M rgb5 74 105 182;#M rgb6 112 158 18;#M rgb7 149 211 110;#M rgb8 187 9 201;#M rgb9 224 62 37;#M rgb10 7 114 128;#P objectname LC5;#P comment 123 5 20 196617 /4;#P flonum 121 126 27 9 0 0 32 3 0 0 0 221 221 221 222 222 222 0 0 0;#P objectname LC4n;#P user multiSlider 127 18 13 107 0. 1. 1 2937 47 0 0 2 0 0 0;#M frgb 0 0 0;#M brgb 255 255 255;#M rgb2 127 127 127;#M rgb3 0 0 0;#M rgb4 37 52 91;#M rgb5 74 105 182;#M rgb6 112 158 18;#M rgb7 149 211 110;#M rgb8 187 9 201;#M rgb9 224 62 37;#M rgb10 7 114 128;#P objectname LC4;#P comment 93 5 20 196617 /3;#P flonum 95 126 27 9 0 0 32 3 0 0 0 221 221 221 222 222 222 0 0 0;#P objectname LC3n;#P user multiSlider 95 18 18 107 0. 1. 1 2937 47 0 0 2 0 0 0;#M frgb 0 0 0;#M brgb 255 255 255;#M rgb2 127 127 127;#M rgb3 0 0 0;#M rgb4 37 52 91;#M rgb5 74 105 182;#M rgb6 112 158 18;#M rgb7 149 211 110;#M rgb8 187 9 201;#M rgb9 224 62 37;#M rgb10 7 114 128;#P objectname LC3;#P comment 69 5 20 196617 /2;#P flonum 69 126 27 9 0 0 32 3 0 0 0 221 221 221 222 222 222 0 0 0;#P objectname LC2n;#P user multiSlider 69 18 18 107 0. 1. 1 2937 47 0 0 2 0 0 0;#M frgb 0 0 0;#M brgb 255 255 255;#M rgb2 127 127 127;#M rgb3 0 0 0;#M rgb4 37 52 91;#M rgb5 74 105 182;#M rgb6 112 158 18;#M rgb7 149 211 110;#M rgb8 187 9 201;#M rgb9 224 62 37;#M rgb10 7 114 128;#P objectname LC2;#P newex 749 103 99 196617 fixedsize 1015 220;#B color 6;#P newex 749 83 180 196617 editorwindow $1/display /tapemovie;#B color 11;#N thispatcher;#Q end;#P newobj 749 123 70 196617 thispatcher;#P comment 247 94 35 196617 /axis;#P comment 32 5 44 196617 /key/1;#P flonum 43 126 27 9 0 0 32 3 0 0 0 221 221 221 222 222 222 0 0 0;#P objectname LC1n;#P flonum 210 119 36 9 0 0 0 3 0 0 0 221 221 221 222 222 222 0 0 0;#P objectname MC1n;#P user multiSlider 43 18 18 107 0. 1. 1 2937 47 0 0 2 0 0 0;#M frgb 0 0 0;#M brgb 255 255 255;#M rgb2 127 127 127;#M rgb3 0 0 0;#M rgb4 37 52 91;#M rgb5 74 105 182;#M rgb6 112 158 18;#M rgb7 149 211 110;#M rgb8 187 9 201;#M rgb9 224 62 37;#M rgb10 7 114 128;#P objectname LC1;#P user dial 210 82 36 36 128 1 0 0 223 270 2 0.3125 170 170 170 221 221 221 120 120 120 225 225 225 0 0 0 0 0 0;#P objectname MC1;#P user panel 480 1 235 210;#X brgb 191 191 191;#X frgb 0 0 0;#X border 1;#X rounded 0;#X shadow 0;#X done;#P background;#P user panel 203 1 75 210;#X brgb 191 191 191;#X frgb 0 0 0;#X border 1;#X rounded 0;#X shadow 0;#X done;#P background;#P user panel 279 1 200 210;#X brgb 191 191 191;#X frgb 0 0 0;#X border 1;#X rounded 0;#X shadow 0;#X done;#P background;#P user panel 2 1 200 210;#X brgb 191 191 191;#X frgb 0 0 0;#X border 1;#X rounded 0;#X shadow 0;#X done;#P background;#P connect 187 0 217 0;#P connect 188 0 218 0;#P connect 189 0 219 0;#P connect 190 0 220 0;#P connect 191 0 221 0;#P connect 192 0 227 0;#P connect 338 0 227 0;#P connect 193 0 222 0;#P connect 194 0 223 0;#P connect 195 0 224 0;#P connect 196 0 225 0;#P connect 197 0 226 0;#P connect 198 0 230 0;#P connect 199 0 231 0;#P connect 200 0 232 0;#P connect 201 0 228 0;#P connect 202 0 229 0;#P connect 203 0 233 0;#P connect 204 0 234 0;#P connect 205 0 235 0;#P connect 206 0 236 0;#P connect 207 0 237 0;#P connect 5 0 7 0;#P connect 79 0 80 0;#P connect 13 0 14 0;#P connect 88 0 89 0;#P connect 16 0 17 0;#P connect 91 0 92 0;#P connect 19 0 20 0;#P connect 94 0 95 0;#P connect 22 0 23 0;#P connect 217 0 187 0;#P connect 218 0 188 0;#P connect 219 0 189 0;#P connect 220 0 190 0;#P connect 221 0 191 0;#P connect 227 0 192 0;#P connect 222 0 193 0;#P connect 223 0 194 0;#P connect 224 0 195 0;#P connect 225 0 196 0;#P connect 226 0 197 0;#P connect 230 0 198 0;#P connect 231 0 199 0;#P connect 232 0 200 0;#P connect 228 0 201 0;#P connect 229 0 202 0;#P connect 233 0 203 0;#P connect 234 0 204 0;#P connect 235 0 205 0;#P connect 236 0 206 0;#P connect 237 0 207 0;#P connect 53 0 54 0;#P connect 56 0 57 0;#P connect 192 1 337 0;#P connect 337 0 339 0;#P connect 30 0 31 0;#P connect 104 0 105 0;#P connect 187 1 316 0;#P connect 188 1 317 0;#P connect 189 1 318 0;#P connect 190 1 319 0;#P connect 191 1 320 0;#P connect 339 0 321 0;#P connect 193 1 322 0;#P connect 194 1 323 0;#P connect 195 1 324 0;#P connect 196 1 325 0;#P connect 197 1 326 0;#P connect 198 1 327 0;#P connect 199 1 328 0;#P connect 200 1 329 0;#P connect 201 1 330 0;#P connect 202 1 331 0;#P connect 203 1 332 0;#P connect 204 1 333 0;#P connect 205 1 334 0;#P connect 206 1 335 0;#P connect 207 1 336 0;#P connect 33 0 34 0;#P connect 106 0 107 0;#P connect 36 0 37 0;#P connect 108 0 109 0;#P connect 39 0 40 0;#P connect 110 0 111 0;#P connect 316 0 25 0;#P connect 317 0 26 0;#P connect 318 0 27 0;#P connect 319 0 28 0;#P connect 320 0 29 0;#P connect 321 0 50 0;#P connect 322 0 45 0;#P connect 323 0 46 0;#P connect 324 0 47 0;#P connect 325 0 48 0;#P connect 326 0 49 0;#P connect 327 0 59 0;#P connect 328 0 60 0;#P connect 329 0 61 0;#P connect 330 0 51 0;#P connect 331 0 52 0;#P connect 332 0 76 0;#P connect 333 0 77 0;#P connect 334 0 78 0;#P connect 335 0 208 0;#P connect 336 0 209 0;#P connect 42 0 43 0;#P connect 50 0 338 0;#P connect 62 0 63 0;#P connect 65 0 66 0;#P connect 349 0 350 0;#P connect 238 0 267 0;#P connect 239 0 268 0;#P connect 240 0 269 0;#P connect 241 0 270 0;#P connect 242 0 271 0;#P connect 243 0 272 0;#P connect 244 0 273 0;#P connect 67 0 68 0;#P connect 69 0 70 0;#P connect 350 0 349 0;#P connect 267 0 238 0;#P connect 268 0 239 0;#P connect 269 0 240 0;#P connect 270 0 241 0;#P connect 271 0 242 0;#P connect 272 0 243 0;#P connect 273 0 244 0;#P connect 112 0 245 0;#P connect 113 0 246 0;#P connect 114 0 247 0;#P connect 115 0 248 0;#P connect 116 0 249 0;#P connect 117 0 250 0;#P connect 118 0 251 0;#P connect 119 0 252 0;#P connect 173 0 261 0;#P connect 167 0 257 0;#P connect 168 0 258 0;#P connect 169 0 259 0;#P connect 170 0 260 0;#P connect 72 0 73 0;#P connect 74 0 75 0;#P connect 210 0 211 0;#P connect 213 0 214 0;#P connect 349 1 340 0;#P connect 238 1 341 0;#P connect 239 1 342 0;#P connect 240 1 343 0;#P connect 241 1 344 0;#P connect 242 1 345 0;#P connect 243 1 346 0;#P connect 244 1 347 0;#P connect 245 0 112 0;#P connect 246 0 113 0;#P connect 247 0 114 0;#P connect 248 0 115 0;#P connect 249 0 116 0;#P connect 250 0 117 0;#P connect 251 0 118 0;#P connect 252 0 119 0;#P connect 261 0 173 0;#P connect 257 0 167 0;#P connect 258 0 168 0;#P connect 259 0 169 0;#P connect 260 0 170 0;#P connect 11 0 12 0;#P connect 12 0 10 0;#P connect 340 0 348 0;#P connect 341 0 97 0;#P connect 342 0 98 0;#P connect 343 0 99 0;#P connect 344 0 100 0;#P connect 345 0 101 0;#P connect 346 0 102 0;#P connect 347 0 103 0;#P connect 300 1 304 0;#P connect 301 1 311 0;#P connect 299 1 312 0;#P connect 298 1 313 0;#P connect 302 1 314 0;#P connect 303 1 315 0;#P connect 266 0 154 0;#P connect 262 0 155 0;#P connect 263 0 156 0;#P connect 264 0 157 0;#P connect 265 0 158 0;#P connect 253 0 281 0;#P connect 254 0 278 0;#P connect 255 0 279 0;#P connect 256 0 280 0;#P connect 284 0 297 0;#P connect 285 0 294 0;#P connect 282 0 295 0;#P connect 283 0 296 0;#P connect 304 0 305 0;#P connect 311 0 306 0;#P connect 312 0 307 0;#P connect 313 0 308 0;#P connect 314 0 309 0;#P connect 315 0 310 0;#P connect 154 0 266 0;#P connect 155 0 262 0;#P connect 156 0 263 0;#P connect 157 0 264 0;#P connect 158 0 265 0;#P connect 281 0 253 0;#P connect 278 0 254 0;#P connect 279 0 255 0;#P connect 280 0 256 0;#P connect 297 0 284 0;#P connect 294 0 285 0;#P connect 295 0 282 0;#P connect 296 0 283 0;#P pop;#P newobj 933 58 151 196626 p karlax_display;#B color 5;#P connect 190 0 166 0;#P connect 189 0 166 0;#P connect 10 0 49 0;#P connect 190 1 163 0;#P connect 189 1 163 0;#P connect 11 0 50 0;#P connect 190 2 164 0;#P connect 189 2 164 0;#P connect 12 0 51 0;#P connect 190 3 165 0;#P connect 189 3 165 0;#P connect 13 0 52 0;#P connect 21 0 175 0;#P connect 175 0 168 0;#P connect 168 0 170 0;#P connect 190 4 161 0;#P connect 189 4 161 0;#P connect 14 0 53 0;#P connect 190 5 162 0;#P connect 189 5 162 0;#P connect 15 0 54 0;#P connect 189 6 10 0;#P connect 190 6 10 0;#P connect 16 0 55 0;#P connect 175 1 167 0;#P connect 167 0 169 0;#P connect 189 7 11 0;#P connect 190 7 11 0;#P connect 17 0 56 0;#P connect 189 8 12 0;#P connect 190 8 12 0;#P connect 18 0 57 0;#P connect 189 9 13 0;#P connect 190 9 13 0;#P connect 19 0 58 0;#P connect 22 0 175 1;#P connect 189 10 14 0;#P connect 190 10 14 0;#P connect 20 0 59 0;#P connect 189 11 15 0;#P connect 190 11 15 0;#P connect 21 0 60 0;#P connect 189 12 16 0;#P connect 190 12 16 0;#P connect 175 2 172 0;#P connect 172 0 174 0;#P connect 22 0 61 0;#P connect 189 13 17 0;#P connect 190 13 17 0;#P connect 23 0 62 0;#P connect 189 14 18 0;#P connect 190 14 18 0;#P connect 24 0 63 0;#P connect 189 15 19 0;#P connect 190 15 19 0;#P connect 25 0 64 0;#P connect 189 16 20 0;#P connect 190 16 20 0;#P connect 26 0 65 0;#P connect 23 0 175 2;#P connect 190 17 21 0;#P connect 189 17 21 0;#P connect 27 0 66 0;#P connect 190 18 22 0;#P connect 189 18 22 0;#P connect 175 3 171 0;#P connect 171 0 173 0;#P connect 28 0 67 0;#P connect 190 19 23 0;#P connect 189 19 23 0;#P connect 47 0 68 0;#P connect 189 20 24 0;#P connect 190 20 24 0;#P connect 48 0 69 0;#P connect 189 21 25 0;#P connect 190 21 25 0;#P connect 189 22 26 0;#P connect 190 22 26 0;#P connect 189 23 27 0;#P connect 190 23 27 0;#P connect 189 24 28 0;#P connect 190 24 28 0;#P connect 190 25 199 0;#P connect 199 0 47 0;#P connect 189 25 47 0;#P connect 70 0 111 0;#P connect 71 0 112 0;#P connect 190 26 200 0;#P connect 200 0 48 0;#P connect 189 26 48 0;#P connect 72 0 113 0;#P connect 73 0 114 0;#P connect 74 0 115 0;#P connect 75 0 116 0;#P connect 189 27 70 0;#P connect 190 27 70 0;#P connect 76 0 117 0;#P connect 189 28 71 0;#P connect 190 28 71 0;#P connect 77 0 118 0;#P connect 189 29 72 0;#P connect 190 29 72 0;#P connect 78 0 119 0;#P connect 189 30 73 0;#P connect 190 30 73 0;#P connect 79 0 120 0;#P connect 189 31 74 0;#P connect 190 31 74 0;#P connect 80 0 121 0;#P connect 189 32 75 0;#P connect 190 32 75 0;#P connect 81 0 122 0;#P connect 189 33 76 0;#P connect 190 33 76 0;#P connect 82 0 123 0;#P connect 179 0 193 0;#P connect 180 0 194 0;#P connect 178 0 195 0;#P connect 177 0 196 0;#P connect 181 0 197 0;#P connect 182 0 198 0;#P connect 189 34 77 0;#P connect 190 34 77 0;#P connect 83 0 124 0;#P connect 189 35 78 0;#P connect 190 35 78 0;#P connect 84 0 125 0;#P connect 189 36 79 0;#P connect 190 36 79 0;#P connect 85 0 126 0;#P connect 21 0 176 0;#P connect 176 0 179 0;#P connect 176 1 180 0;#P connect 176 2 178 0;#P connect 176 3 177 0;#P connect 176 4 181 0;#P connect 176 5 182 0;#P connect 189 37 80 0;#P connect 190 37 80 0;#P connect 110 0 127 0;#P connect 189 38 81 0;#P connect 190 38 81 0;#P connect 106 0 128 0;#P connect 189 39 82 0;#P connect 190 39 82 0;#P connect 107 0 129 0;#P connect 189 40 83 0;#P connect 190 40 83 0;#P connect 108 0 130 0;#P connect 189 41 84 0;#P connect 190 41 84 0;#P connect 109 0 131 0;#P connect 189 42 85 0;#P connect 190 42 85 0;#P connect 22 0 176 1;#P connect 143 0 144 0;#P connect 189 43 110 0;#P connect 190 43 110 0;#P connect 139 0 145 0;#P connect 189 44 106 0;#P connect 190 44 106 0;#P connect 140 0 146 0;#P connect 189 45 107 0;#P connect 190 45 107 0;#P connect 141 0 147 0;#P connect 189 46 108 0;#P connect 190 46 108 0;#P connect 142 0 148 0;#P connect 189 47 109 0;#P connect 190 47 109 0;#P connect 86 0 135 0;#P connect 189 48 143 0;#P connect 190 48 143 0;#P connect 23 0 176 2;#P connect 87 0 136 0;#P connect 189 49 139 0;#P connect 190 49 139 0;#P connect 88 0 137 0;#P connect 189 50 140 0;#P connect 190 50 140 0;#P connect 89 0 138 0;#P connect 189 51 141 0;#P connect 190 51 141 0;#P connect 189 52 142 0;#P connect 190 52 142 0;#P connect 149 0 155 0;#P connect 189 53 86 0;#P connect 190 53 86 0;#P connect 150 0 156 0;#P connect 189 54 87 0;#P connect 190 54 87 0;#P connect 151 0 157 0;#P connect 189 55 88 0;#P connect 190 55 88 0;#P connect 152 0 158 0;#P connect 189 56 89 0;#P connect 190 56 89 0;#P connect 153 0 159 0;#P connect 189 57 149 0;#P connect 190 57 149 0;#P connect 154 0 160 0;#P connect 189 58 150 0;#P connect 190 58 150 0;#P connect 189 59 151 0;#P connect 190 59 151 0;#P connect 189 60 152 0;#P connect 190 60 152 0;#P connect 189 61 153 0;#P connect 190 61 153 0;#P connect 189 62 154 0;#P connect 190 62 154 0;#P connect 5 0 3 0;#P connect 4 0 3 0;#P connect 3 0 1 0;#P connect 1 0 2 0;#P connect 7 0 6 0;#P connect 6 0 5 0;#P connect 5 1 8 0;#P connect 5 2 8 1;#P pop;