max v2;#N vpatcher 2 44 1331 900;#P origin 12 4;#P window setfont "Sans Serif" 9.;#P comment 921 899 33 196617 RTB1;#P comment 908 881 33 196617 RTB2;#P comment 894 863 33 196617 RTB3;#P comment 880 845 33 196617 RTB4;#P comment 782 717 33 196617 LTB1;#P comment 797 736 33 196617 LTB0;#P newex 403 903 366 196617 makecontrol $1/accel/trig/back $1 i 0 1 /common;#B color 5;#P newex 403 883 383 196617 makecontrol $1/accel/trig/forward $1 i 0 1 /common;#B color 5;#P newex 403 823 368 196617 makecontrol $1/accel/trig/right $1 i 0 1 /common;#B color 5;#P newex 403 803 362 196617 makecontrol $1/accel/trig/left $1 i 0 1 /common;#B color 5;#P newex 403 843 369 196617 makecontrol $1/accel/trig/down $1 i 0 1 /common;#B color 5;#P newex 403 863 356 196617 makecontrol $1/accel/trig/up $1 i 0 1 /common;#B color 5;#P window setfont "Sans Serif" 18.;#N vpatcher 118 44 1128 695;#N comlet back trig toggle;#P outlet 775 594 15 0;#N comlet forward trig toggle;#P outlet 666 593 15 0;#N comlet up trig toggle;#P outlet 463 596 15 0;#N comlet down trig toggle;#P outlet 354 594 15 0;#N comlet right trig toggle;#P outlet 154 589 15 0;#N comlet left trig toggle;#P outlet 53 586 15 0;#N comlet x input;#P inlet 68 33 15 0;#N comlet back trig bang;#P outlet 752 592 15 0;#N comlet up trig bang;#P outlet 437 595 15 0;#N comlet right trig bang;#P outlet 129 588 15 0;#N comlet forward trig bang;#P outlet 641 590 15 0;#N comlet down trig bang;#P outlet 328 594 15 0;#N comlet left trig bang;#P outlet 23 587 15 0;#P window setfont "Sans Serif" 9.;#P newex 239 548 20 196617 t b;#P newex 318 548 20 196617 t b;#P newex 610 552 20 196617 t b;#P newex 885 212 68 196617 minimum 64.;#P newex 945 235 41 196617 * 0.25;#P newex 885 234 35 196617 * 0.5;#P newex 764 196 68 196617 minimum 64.;#P flonum 807 261 35 9 0 0 0 3 0 0 0 221 221 221 222 222 222 0 0 0;#P newex 807 241 27 196617 - 0.;#P newex 824 219 41 196617 * 0.25;#P flonum 747 168 35 9 0 0 0 3 0 0 0 221 221 221 222 222 222 0 0 0;#P flonum 747 260 35 9 0 0 0 3 0 0 0 221 221 221 222 222 222 0 0 0;#P newex 747 240 27 196617 - 0.;#P newex 764 218 35 196617 * 0.5;#P flonum 928 278 35 9 0 0 0 3 0 0 0 221 221 221 222 222 222 0 0 0;#P newex 928 258 27 196617 + 0.;#P flonum 868 168 35 9 0 0 0 3 0 0 0 221 221 221 222 222 222 0 0 0;#P flonum 868 277 35 9 0 0 0 3 0 0 0 221 221 221 222 222 222 0 0 0;#P newex 868 257 27 196617 + 0.;#P newex 885 190 42 196617 !- 127.;#P newex 775 116 40 196617 line 0.;#P user hslider 775 144 18 128 128 1 0 0;#P newex 775 96 66 196617 pack 0 2000;#P newex 675 415 21 196617 t 1;#P toggle 696 436 15 0;#P newex 675 374 31 196617 t b 0;#P newex 675 395 44 196617 del 200;#P newex 783 414 21 196617 t 1;#P toggle 804 435 15 0;#P newex 783 373 31 196617 t b 0;#P newex 783 394 44 196617 del 200;#P newex 804 453 47 196617 gate 1 1;#P newex 696 454 47 196617 gate 1 1;#P button 763 508 25 0;#P toggle 774 559 28 0;#P message 826 508 14 196617 0;#P message 804 507 14 196617 1;#P newex 849 332 32 196617 sel 1;#P newex 849 310 39 196617 <= 92.;#P newex 804 483 55 196617 onebang 1;#P newex 802 332 32 196617 sel 1;#P newex 802 310 45 196617 >= 104.;#P user hslider 708 62 18 128 128 1 0 0;#P button 655 512 25 0;#P toggle 666 559 28 0;#P message 718 512 14 196617 0;#P message 696 511 14 196617 1;#P newex 739 332 32 196617 sel 1;#P newex 739 310 39 196617 >= 36.;#P newex 696 487 55 196617 onebang 1;#P newex 694 332 32 196617 sel 1;#P newex 694 310 39 196617 <= 24.;#P flonum 694 253 35 9 0 0 0 3 0 0 0 221 221 221 222 222 222 0 0 0;#N comlet z input;#P inlet 694 33 15 0;#P newex 572 212 68 196617 minimum 64.;#P newex 632 235 41 196617 * 0.25;#P newex 572 234 35 196617 * 0.5;#P newex 451 196 68 196617 minimum 64.;#P flonum 494 261 35 9 0 0 0 3 0 0 0 221 221 221 222 222 222 0 0 0;#P newex 494 241 27 196617 - 0.;#P newex 511 219 41 196617 * 0.25;#P flonum 434 168 35 9 0 0 0 3 0 0 0 221 221 221 222 222 222 0 0 0;#P flonum 434 260 35 9 0 0 0 3 0 0 0 221 221 221 222 222 222 0 0 0;#P newex 434 240 27 196617 - 0.;#P newex 451 218 35 196617 * 0.5;#P flonum 615 278 35 9 0 0 0 3 0 0 0 221 221 221 222 222 222 0 0 0;#P newex 615 258 27 196617 + 0.;#P flonum 555 168 35 9 0 0 0 3 0 0 0 221 221 221 222 222 222 0 0 0;#P flonum 555 277 35 9 0 0 0 3 0 0 0 221 221 221 222 222 222 0 0 0;#P newex 555 257 27 196617 + 0.;#P newex 572 190 42 196617 !- 127.;#P newex 462 116 40 196617 line 0.;#P user hslider 462 144 18 128 128 1 0 0;#P newex 462 96 66 196617 pack 0 2000;#P newex 362 415 21 196617 t 1;#P toggle 383 436 15 0;#P newex 362 374 31 196617 t b 0;#P newex 362 395 44 196617 del 200;#P newex 470 414 21 196617 t 1;#P toggle 491 435 15 0;#P newex 470 373 31 196617 t b 0;#P newex 470 394 44 196617 del 200;#P newex 491 453 47 196617 gate 1 1;#P newex 383 454 47 196617 gate 1 1;#P button 450 508 25 0;#P toggle 461 559 28 0;#P message 513 508 14 196617 0;#P message 491 507 14 196617 1;#P newex 536 332 32 196617 sel 1;#P newex 536 310 39 196617 <= 92.;#P newex 491 483 55 196617 onebang 1;#P newex 489 332 32 196617 sel 1;#P newex 489 310 45 196617 >= 104.;#P user hslider 395 62 18 128 128 1 0 0;#P button 342 512 25 0;#P toggle 353 559 28 0;#P message 405 512 14 196617 0;#P message 383 511 14 196617 1;#P newex 426 332 32 196617 sel 1;#P newex 426 310 39 196617 >= 36.;#P newex 383 487 55 196617 onebang 1;#P newex 381 332 32 196617 sel 1;#P newex 381 310 39 196617 <= 24.;#P flonum 381 253 35 9 0 0 0 3 0 0 0 221 221 221 222 222 222 0 0 0;#N comlet y input;#P inlet 381 33 15 0;#P newex 259 212 68 196617 minimum 64.;#P newex 319 235 41 196617 * 0.25;#P newex 259 234 35 196617 * 0.5;#P newex 138 196 68 196617 minimum 64.;#P flonum 181 261 35 9 0 0 0 3 0 0 0 221 221 221 222 222 222 0 0 0;#P newex 181 241 27 196617 - 0.;#P newex 198 219 41 196617 * 0.25;#P flonum 121 168 35 9 0 0 0 3 0 0 0 221 221 221 222 222 222 0 0 0;#P flonum 121 260 35 9 0 0 0 3 0 0 0 221 221 221 222 222 222 0 0 0;#P newex 121 240 27 196617 - 0.;#P newex 138 218 35 196617 * 0.5;#P flonum 302 278 35 9 0 0 0 3 0 0 0 221 221 221 222 222 222 0 0 0;#P newex 302 258 27 196617 + 0.;#P flonum 242 168 35 9 0 0 0 3 0 0 0 221 221 221 222 222 222 0 0 0;#P flonum 242 277 35 9 0 0 0 3 0 0 0 221 221 221 222 222 222 0 0 0;#P newex 242 257 27 196617 + 0.;#P newex 259 190 42 196617 !- 127.;#P newex 149 116 40 196617 line 0.;#P user hslider 149 144 18 128 128 1 0 0;#P newex 149 96 66 196617 pack 0 2000;#P newex 49 415 21 196617 t 1;#P toggle 70 436 15 0;#P newex 49 374 31 196617 t b 0;#P newex 49 395 44 196617 del 200;#P newex 157 414 21 196617 t 1;#P toggle 178 435 15 0;#P newex 157 373 31 196617 t b 0;#P newex 157 394 44 196617 del 200;#P newex 178 453 47 196617 gate 1 1;#P newex 70 454 47 196617 gate 1 1;#P button 137 508 25 0;#P toggle 151 554 28 0;#P message 200 508 14 196617 0;#P message 178 507 14 196617 1;#P newex 223 332 32 196617 sel 1;#P newex 223 310 39 196617 <= 92.;#P newex 178 483 55 196617 onebang 1;#P newex 176 332 32 196617 sel 1;#P newex 176 310 45 196617 >= 104.;#P user hslider 82 62 18 128 128 1 0 0;#P button 29 512 25 0;#P toggle 53 551 28 0;#P message 92 512 14 196617 0;#P message 70 511 14 196617 1;#P newex 113 332 32 196617 sel 1;#P newex 113 310 39 196617 >= 36.;#P newex 70 487 55 196617 onebang 1;#P newex 68 332 32 196617 sel 1;#P newex 68 310 39 196617 <= 24.;#P flonum 68 253 35 9 0 0 0 3 0 0 0 221 221 221 222 222 222 0 0 0;#P connect 9 0 155 0;#P connect 3 0 9 0;#P connect 153 0 27 0;#P connect 152 0 27 0;#P fasten 13 0 27 0 183 503 139 503 139 368 54 368;#P connect 27 0 26 0;#P connect 26 0 29 0;#P connect 6 0 8 0;#P connect 7 0 8 0;#P connect 8 0 162 0;#P connect 161 0 0 0;#P connect 0 0 1 0;#P connect 1 0 2 0;#P connect 29 0 28 0;#P connect 27 1 28 0;#P connect 28 0 20 0;#P connect 20 0 3 0;#P connect 3 0 6 0;#P connect 161 0 10 0;#P connect 3 1 7 0;#P connect 41 0 1 1;#P connect 2 0 20 1;#P connect 0 0 4 0;#P connect 4 0 5 0;#P connect 5 0 3 1;#P connect 26 0 3 1;#P connect 32 0 42 0;#P connect 42 0 40 0;#P connect 40 0 41 0;#P connect 19 0 158 0;#P connect 13 0 19 0;#P connect 42 0 46 0;#P connect 46 0 39 0;#P connect 39 0 40 1;#P connect 45 0 4 1;#P fasten 0 0 30 0 73 275 106 275 106 91 154 91;#P connect 30 0 32 0;#P connect 32 0 31 0;#P connect 16 0 18 0;#P connect 17 0 18 0;#P connect 18 0 163 0;#P connect 153 0 23 0;#P connect 152 0 23 0;#P connect 3 0 23 0;#P connect 23 0 22 0;#P connect 22 0 25 0;#P connect 0 0 11 0;#P connect 11 0 12 0;#P connect 23 1 24 0;#P connect 25 0 24 0;#P connect 24 0 21 0;#P connect 21 0 13 0;#P connect 13 0 16 0;#P fasten 42 0 44 0 126 186 186 186;#P connect 44 0 45 0;#P connect 46 0 43 0;#P connect 43 0 44 1;#P connect 13 1 17 0;#P connect 35 0 11 1;#P fasten 12 0 21 1 181 359 220 359;#P connect 0 0 14 0;#P connect 14 0 15 0;#P connect 15 0 13 1;#P connect 22 0 13 1;#P connect 9 0 154 0;#P connect 19 0 154 0;#P connect 32 0 36 0;#P connect 36 0 34 0;#P connect 34 0 35 0;#P connect 38 0 14 1;#P connect 36 0 33 0;#P connect 33 0 49 0;#P connect 49 0 47 0;#P connect 47 0 34 1;#P fasten 36 0 37 0 247 186 307 186;#P connect 37 0 38 0;#P connect 70 0 153 0;#P connect 60 0 153 0;#P connect 49 0 48 0;#P connect 48 0 37 1;#P connect 60 0 156 0;#P connect 54 0 60 0;#P connect 57 0 59 0;#P connect 58 0 59 0;#P connect 59 0 164 0;#P connect 154 0 78 0;#P fasten 64 0 78 0 496 503 452 503 452 368 367 368;#P connect 152 0 78 0;#P connect 78 0 77 0;#P connect 77 0 80 0;#P connect 50 0 51 0;#P connect 51 0 52 0;#P connect 52 0 53 0;#P connect 78 1 79 0;#P connect 80 0 79 0;#P connect 79 0 71 0;#P connect 71 0 54 0;#P connect 54 0 57 0;#P connect 50 0 61 0;#P connect 54 1 58 0;#P connect 92 0 52 1;#P connect 53 0 71 1;#P connect 51 0 55 0;#P connect 55 0 56 0;#P connect 56 0 54 1;#P connect 77 0 54 1;#P connect 83 0 93 0;#P connect 93 0 91 0;#P connect 91 0 92 0;#P connect 70 0 159 0;#P connect 64 0 70 0;#P connect 93 0 97 0;#P connect 97 0 90 0;#P connect 90 0 91 1;#P connect 96 0 55 1;#P connect 67 0 69 0;#P connect 68 0 69 0;#P fasten 51 0 81 0 386 275 419 275 419 91 467 91;#P connect 81 0 83 0;#P connect 83 0 82 0;#P connect 69 0 165 0;#P connect 154 0 74 0;#P connect 152 0 74 0;#P connect 54 0 74 0;#P connect 74 0 73 0;#P connect 73 0 76 0;#P connect 51 0 62 0;#P connect 62 0 63 0;#P connect 76 0 75 0;#P connect 74 1 75 0;#P connect 75 0 72 0;#P connect 72 0 64 0;#P connect 64 0 67 0;#P fasten 93 0 95 0 439 186 499 186;#P connect 95 0 96 0;#P connect 97 0 94 0;#P connect 94 0 95 1;#P connect 64 1 68 0;#P connect 86 0 62 1;#P fasten 63 0 72 1 494 359 533 359;#P connect 51 0 65 0;#P connect 65 0 66 0;#P connect 66 0 64 1;#P connect 73 0 64 1;#P connect 83 0 87 0;#P connect 87 0 85 0;#P connect 85 0 86 0;#P connect 89 0 65 1;#P connect 87 0 84 0;#P connect 84 0 100 0;#P connect 100 0 98 0;#P connect 98 0 85 1;#P connect 121 0 152 0;#P connect 111 0 152 0;#P fasten 87 0 88 0 560 186 620 186;#P connect 88 0 89 0;#P connect 100 0 99 0;#P connect 99 0 88 1;#P connect 111 0 157 0;#P connect 105 0 111 0;#P connect 108 0 110 0;#P connect 109 0 110 0;#P connect 110 0 166 0;#P fasten 115 0 129 0 809 503 765 503 765 368 680 368;#P connect 153 0 129 0;#P connect 154 0 129 0;#P connect 129 0 128 0;#P connect 128 0 131 0;#P connect 101 0 102 0;#P connect 102 0 103 0;#P connect 103 0 104 0;#P connect 131 0 130 0;#P connect 129 1 130 0;#P connect 130 0 122 0;#P connect 122 0 105 0;#P connect 105 0 108 0;#P connect 101 0 112 0;#P connect 105 1 109 0;#P connect 143 0 103 1;#P connect 104 0 122 1;#P connect 102 0 106 0;#P connect 106 0 107 0;#P connect 107 0 105 1;#P connect 128 0 105 1;#P connect 134 0 144 0;#P connect 144 0 142 0;#P connect 142 0 143 0;#P connect 121 0 160 0;#P connect 115 0 121 0;#P connect 144 0 148 0;#P connect 148 0 141 0;#P connect 141 0 142 1;#P connect 147 0 106 1;#P connect 118 0 120 0;#P connect 119 0 120 0;#P fasten 102 0 132 0 699 275 732 275 732 91 780 91;#P connect 132 0 134 0;#P connect 134 0 133 0;#P connect 120 0 167 0;#P connect 153 0 125 0;#P connect 154 0 125 0;#P connect 105 0 125 0;#P connect 125 0 124 0;#P connect 124 0 127 0;#P connect 102 0 113 0;#P connect 113 0 114 0;#P connect 125 1 126 0;#P connect 127 0 126 0;#P connect 126 0 123 0;#P connect 123 0 115 0;#P connect 115 0 118 0;#P fasten 144 0 146 0 752 186 812 186;#P connect 146 0 147 0;#P connect 148 0 145 0;#P connect 145 0 146 1;#P connect 115 1 119 0;#P connect 137 0 113 1;#P fasten 114 0 123 1 807 359 846 359;#P connect 102 0 116 0;#P connect 116 0 117 0;#P connect 117 0 115 1;#P connect 124 0 115 1;#P connect 134 0 138 0;#P connect 138 0 136 0;#P connect 136 0 137 0;#P connect 140 0 116 1;#P connect 138 0 135 0;#P connect 135 0 151 0;#P connect 151 0 149 0;#P connect 149 0 136 1;#P fasten 138 0 139 0 873 186 933 186;#P connect 139 0 140 0;#P connect 151 0 150 0;#P connect 150 0 139 1;#P pop;#P newobj 480 769 157 196626 p xyz-trigs;#B color 6;#P window setfont "Sans Serif" 9.;#N vpatcher 10 59 511 389;#P window setfont "Sans Serif" 9.;#P comment 157 35 14 196617 y;#P comment 101 35 14 196617 x;#P newex 246 187 103 196617 unpack 0. 0.;#P newex 246 167 49 196617 pak 0. 0.;#P newex 324 257 126 196617 expr $f1*180/3.141593;#P newex 246 234 88 196617 cartopol;#P newex 339 210 91 196617 expr ($f1-0.5)*4;#P newex 246 210 91 196617 expr ($f1-0.5)*4;#P newex 246 115 40 196617 / 127.;#P newex 31 161 103 196617 unpack 0. 0.;#P newex 31 138 64 196617 pak 0. 0.;#P newex 109 231 126 196617 expr $f1*180/3.141593;#P newex 31 208 88 196617 cartopol;#P newex 124 184 91 196617 expr ($f1-0.5)*4;#P newex 31 184 91 196617 expr ($f1-0.5)*4;#P newex 85 115 40 196617 / 127.;#P newex 31 115 40 196617 / 127.;#P comment 212 35 14 196617 z;#N comlet z;#P inlet 196 35 15 0;#N comlet x;#P inlet 85 35 15 0;#N comlet y;#P inlet 140 35 15 0;#N comlet h dist;#P outlet 31 230 15 0;#N comlet h az;#P outlet 109 253 15 0;#N comlet v dist;#P outlet 246 256 15 0;#N comlet v az;#P outlet 324 279 15 0;#P connect 6 0 8 0;#P connect 8 0 14 0;#P connect 14 0 15 0;#P connect 15 0 10 0;#P connect 10 0 12 0;#P connect 12 0 3 0;#P connect 5 0 9 0;#P connect 9 0 14 1;#P connect 11 0 12 1;#P connect 12 1 13 0;#P connect 13 0 2 0;#P connect 15 1 11 0;#P connect 4 0 16 0;#P connect 16 0 21 0;#P connect 21 0 22 0;#P connect 22 0 17 0;#P connect 17 0 19 0;#P connect 19 0 1 0;#P connect 9 0 21 1;#P connect 18 0 19 1;#P connect 19 1 20 0;#P connect 20 0 0 0;#P connect 22 1 18 0;#P pop;#P newobj 756 143 242 196617 p az-dist;#B color 6;#P newex 910 205 306 196617 makecontrol $1/vert/dist $1 f 0 0 /common;#B color 5;#P newex 987 184 306 196617 makecontrol $1/vert/az $1 f 0 0 /common;#B color 5;#P flonum 910 164 35 9 0 0 0 3 0 0 0 221 221 221 222 222 222 0 0 0;#P flonum 987 164 71 9 0 0 0 3 0 0 0 221 221 221 222 222 222 0 0 0;#P newex 756 248 306 196617 makecontrol $1/horiz/dist $1 f 0 0 /common;#B color 5;#P newex 833 227 306 196617 makecontrol $1/horiz/az $1 f 0 0 /common;#B color 5;#P flonum 756 207 35 9 0 0 0 3 0 0 0 221 221 221 222 222 222 0 0 0;#P flonum 833 207 71 9 0 0 0 3 0 0 0 221 221 221 222 222 222 0 0 0;#P newex 152 369 157 196617 expr 127*(pow(($f1/127)\\\,3));#P newex 42 767 30 196617 pack;#P newex 42 866 329 196617 makecontrol $1/strippitchvel $1 li 0 127 /common;#B color 5;#P newex 83 889 307 196617 makecontrol $1/pitchvel $1 li 0 127 /common;#B color 5;#P newex 31 718 74 196617 t l l;#P newex 72 819 304 196617 makecontrol $1/stripvel $1 i 0 127 /common;#B color 5;#P newex 31 838 312 196617 makecontrol $1/strippitch $1 i 0 127 /common;#B color 5;#P number 95 762 31 9 0 0 0 3 0 0 0 221 221 221 222 222 222 0 0 0;#P number 133 762 31 9 0 0 0 3 0 0 0 221 221 221 222 222 222 0 0 0;#P newex 31 742 51 196617 stripnote;#P newex 95 742 40 196617 unpack;#P newex 133 781 282 196617 makecontrol $1/vel $1 i 0 127 /common;#B color 5;#P newex 95 800 290 196617 makecontrol $1/pitch $1 i 0 127 /common;#B color 5;#P flonum 985 469 43 9 0 0 0 3 0 0 0 221 221 221 222 222 222 0 0 0;#P flonum 971 451 43 9 0 0 0 3 0 0 0 221 221 221 222 222 222 0 0 0;#P flonum 957 433 43 9 0 0 0 3 0 0 0 221 221 221 222 222 222 0 0 0;#P flonum 943 415 43 9 0 0 0 3 0 0 0 221 221 221 222 222 222 0 0 0;#P flonum 929 397 43 9 0 0 0 3 0 0 0 221 221 221 222 222 222 0 0 0;#P flonum 915 379 43 9 0 0 0 3 0 0 0 221 221 221 222 222 222 0 0 0;#P newex 1039 467 232 196617 makecontrol $1/impulse/back $1 i 0 1 /common;#B color 11;#P newex 1025 449 222 196617 makecontrol $1/impulse/up $1 i 0 1 /common;#B color 11;#P newex 1011 431 228 196617 makecontrol $1/impulse/left $1 i 0 1 /common;#B color 11;#P newex 997 413 249 196617 makecontrol $1/impulse/forward $1 i 0 1 /common;#B color 11;#P newex 983 395 235 196617 makecontrol $1/impulse/down $1 i 0 1 /common;#B color 11;#P newex 969 377 234 196617 makecontrol $1/impulse/right $1 i 0 1 /common;#B color 11;#P flonum 830 826 43 9 0 0 0 3 0 0 0 221 221 221 222 222 222 0 0 0;#P flonum 816 808 43 9 0 0 0 3 0 0 0 221 221 221 222 222 222 0 0 0;#P flonum 802 790 43 9 0 0 0 3 0 0 0 221 221 221 222 222 222 0 0 0;#P flonum 788 772 43 9 0 0 0 3 0 0 0 221 221 221 222 222 222 0 0 0;#P flonum 774 754 43 9 0 0 0 3 0 0 0 221 221 221 222 222 222 0 0 0;#P newex 844 753 290 196617 makecontrol $1/js/R $1 f 0 127 /common;#B color 12;#P newex 900 825 301 196617 makecontrol $1/js/push $1 f 0 127 /common;#B color 12;#P newex 886 807 304 196617 makecontrol $1/js/down $1 f 0 127 /common;#B color 12;#P newex 872 789 289 196617 makecontrol $1/js/L $1 f 0 127 /common;#B color 12;#P newex 858 771 295 196617 makecontrol $1/js/up $1 f 0 127 /common;#B color 12;#P newex 138 320 21 196617 t 0;#P newex 718 320 21 196617 t 0;#P newex 600 320 21 196617 t 0;#P flonum 880 897 43 9 0 0 0 3 0 0 0 221 221 221 222 222 222 0 0 0;#P flonum 866 879 43 9 0 0 0 3 0 0 0 221 221 221 222 222 222 0 0 0;#P flonum 852 861 43 9 0 0 0 3 0 0 0 221 221 221 222 222 222 0 0 0;#P flonum 838 843 43 9 0 0 0 3 0 0 0 221 221 221 222 222 222 0 0 0;#P comment 769 699 33 196617 LTB2;#P comment 755 681 33 196617 LTB3;#P comment 741 663 33 196617 LTB4;#P flonum 754 735 43 9 0 0 0 3 0 0 0 221 221 221 222 222 222 0 0 0;#P flonum 740 717 43 9 0 0 0 3 0 0 0 221 221 221 222 222 222 0 0 0;#P flonum 726 699 43 9 0 0 0 3 0 0 0 221 221 221 222 222 222 0 0 0;#P flonum 712 681 43 9 0 0 0 3 0 0 0 221 221 221 222 222 222 0 0 0;#P flonum 698 663 43 9 0 0 0 3 0 0 0 221 221 221 222 222 222 0 0 0;#P flonum 684 645 43 9 0 0 0 3 0 0 0 221 221 221 222 222 222 0 0 0;#P flonum 670 627 43 9 0 0 0 3 0 0 0 221 221 221 222 222 222 0 0 0;#P flonum 656 609 43 9 0 0 0 3 0 0 0 221 221 221 222 222 222 0 0 0;#P flonum 642 591 43 9 0 0 0 3 0 0 0 221 221 221 222 222 222 0 0 0;#P flonum 628 573 43 9 0 0 0 3 0 0 0 221 221 221 222 222 222 0 0 0;#P flonum 614 555 43 9 0 0 0 3 0 0 0 221 221 221 222 222 222 0 0 0;#P flonum 600 537 43 9 0 0 0 3 0 0 0 221 221 221 222 222 222 0 0 0;#P flonum 586 519 43 9 0 0 0 3 0 0 0 221 221 221 222 222 222 0 0 0;#P flonum 572 501 43 9 0 0 0 3 0 0 0 221 221 221 222 222 222 0 0 0;#P flonum 558 483 43 9 0 0 0 3 0 0 0 221 221 221 222 222 222 0 0 0;#P flonum 544 465 43 9 0 0 0 3 0 0 0 221 221 221 222 222 222 0 0 0;#P flonum 532 447 43 9 0 0 0 3 0 0 0 221 221 221 222 222 222 0 0 0;#P flonum 518 429 43 9 0 0 0 3 0 0 0 221 221 221 222 222 222 0 0 0;#P flonum 504 411 43 9 0 0 0 3 0 0 0 221 221 221 222 222 222 0 0 0;#P flonum 490 393 43 9 0 0 0 3 0 0 0 221 221 221 222 222 222 0 0 0;#P flonum 476 375 43 9 0 0 0 3 0 0 0 221 221 221 222 222 222 0 0 0;#P newex 773 663 307 196617 makecontrol $1/bsw4 $1 f 0 127 /common;#B color 12;#P newex 829 735 307 196617 makecontrol $1/bsw1 $1 f 0 127 /common;#B color 12;#P newex 815 717 303 196617 makecontrol $1/bsw3 $1 f 0 127 /common;#B color 12;#P newex 801 699 304 196617 makecontrol $1/bsw2 $1 f 0 127 /common;#B color 12;#P newex 787 681 307 196617 makecontrol $1/bsw5 $1 f 0 127 /common;#B color 12;#P comment 726 645 26 196617 RB4;#P comment 712 627 25 196617 RB3;#P comment 698 609 25 196617 RB2;#P comment 684 591 25 196617 RB1;#P comment 670 573 25 196617 LB4;#P comment 656 555 25 196617 LB3;#P comment 642 537 25 196617 LB2;#P comment 628 519 25 196617 LB1;#P comment 614 501 26 196617 RN4;#P comment 600 483 26 196617 RN3;#P comment 586 465 26 196617 RN2;#P comment 572 447 26 196617 RN1;#P comment 558 429 25 196617 LN4;#P comment 544 411 25 196617 LN3;#P comment 530 393 25 196617 LN2;#P comment 516 375 25 196617 LN1;#P newex 955 897 221 196617 makecontrol $1/bsw7 0. $1 f 0 127 /common;#B color 12;#P newex 941 879 306 196617 makecontrol $1/bsw6 $1 f 0 127 /common;#B color 12;#P newex 927 861 306 196617 makecontrol $1/bsw9 $1 f 0 127 /common;#B color 12;#P newex 913 843 294 196617 makecontrol $1/bsw8 $1 f 0 127 /common;#B color 12;#P newex 759 645 302 196617 makecontrol $1/fsw8 $1 f 0 127 /common;#B color 12;#P newex 745 627 302 196617 makecontrol $1/fsw7 $1 f 0 127 /common;#B color 12;#P newex 731 609 302 196617 makecontrol $1/fsw6 $1 f 0 127 /common;#B color 12;#P newex 717 591 302 196617 makecontrol $1/fsw5 $1 f 0 127 /common;#B color 12;#P newex 703 573 301 196617 makecontrol $1/fsw4 $1 f 0 127 /common;#B color 12;#P newex 689 555 301 196617 makecontrol $1/fsw3 $1 f 0 127 /common;#B color 12;#P newex 675 537 301 196617 makecontrol $1/fsw2 $1 f 0 127 /common;#B color 12;#P newex 661 519 301 196617 makecontrol $1/fsw1 $1 f 0 127 /common;#B color 12;#P newex 647 501 317 196617 makecontrol $1/piston8 $1 f 0 127 /common;#B color 12;#P newex 633 483 317 196617 makecontrol $1/piston7 $1 f 0 127 /common;#B color 12;#P newex 619 465 317 196617 makecontrol $1/piston6 $1 f 0 127 /common;#B color 12;#P newex 605 447 317 196617 makecontrol $1/piston5 $1 f 0 127 /common;#B color 12;#P newex 591 429 317 196617 makecontrol $1/piston4 $1 f 0 127 /common;#B color 12;#P newex 577 411 317 196617 makecontrol $1/piston3 $1 f 0 127 /common;#B color 12;#P newex 563 393 317 196617 makecontrol $1/piston2 $1 f 0 127 /common;#B color 12;#P newex 549 375 317 196617 makecontrol $1/piston1 $1 f 0 127 /common;#B color 12;#P flonum 286 749 43 9 0 0 0 3 0 0 0 221 221 221 222 222 222 0 0 0;#P flonum 272 731 43 9 0 0 0 3 0 0 0 221 221 221 222 222 222 0 0 0;#P flonum 258 713 43 9 0 0 0 3 0 0 0 221 221 221 222 222 222 0 0 0;#P flonum 244 695 43 9 0 0 0 3 0 0 0 221 221 221 222 222 222 0 0 0;#P flonum 230 677 43 9 0 0 0 3 0 0 0 221 221 221 222 222 222 0 0 0;#P flonum 216 659 43 9 0 0 0 3 0 0 0 221 221 221 222 222 222 0 0 0;#P flonum 202 641 43 9 0 0 0 3 0 0 0 221 221 221 222 222 222 0 0 0;#P flonum 188 623 43 9 0 0 0 3 0 0 0 221 221 221 222 222 222 0 0 0;#P flonum 174 605 43 9 0 0 0 3 0 0 0 221 221 221 222 222 222 0 0 0;#P flonum 160 587 43 9 0 0 0 3 0 0 0 221 221 221 222 222 222 0 0 0;#P flonum 146 569 43 9 0 0 0 3 0 0 0 221 221 221 222 222 222 0 0 0;#P flonum 132 551 43 9 0 0 0 3 0 0 0 221 221 221 222 222 222 0 0 0;#P flonum 118 533 43 9 0 0 0 3 0 0 0 221 221 221 222 222 222 0 0 0;#P flonum 104 515 43 9 0 0 0 3 0 0 0 221 221 221 222 222 222 0 0 0;#P flonum 90 497 43 9 0 0 0 3 0 0 0 221 221 221 222 222 222 0 0 0;#P flonum 76 479 43 9 0 0 0 3 0 0 0 221 221 221 222 222 222 0 0 0;#P flonum 62 461 43 9 0 0 0 3 0 0 0 221 221 221 222 222 222 0 0 0;#P flonum 48 443 43 9 0 0 0 3 0 0 0 221 221 221 222 222 222 0 0 0;#P flonum 34 425 43 9 0 0 0 3 0 0 0 221 221 221 222 222 222 0 0 0;#P flonum 20 407 43 9 0 0 0 3 0 0 0 221 221 221 222 222 222 0 0 0;#P flonum 6 389 43 9 0 0 0 3 0 0 0 221 221 221 222 222 222 0 0 0;#P newex 82 320 54 196617 split 1 21;#P comment 410 159 63 196617 conversion:;#P comment 410 173 242 196617 first replace accel with gyro \, then inclin with accel;#P newex 661 320 54 196617 split 1 32;#P number 661 301 35 9 0 0 0 3 0 0 0 221 221 221 222 222 222 0 0 0;#P newex 661 281 30 196617 - 83;#P newex 549 320 48 196617 split 1 8;#P newex 661 348 445 196617 gate 32;#P newex 549 242 40 196617 swap;#P number 549 301 35 9 0 0 0 3 0 0 0 221 221 221 222 222 222 0 0 0;#P newex 549 281 30 196617 - 59;#P newex 549 221 40 196617 unpack;#P newex 549 348 110 196617 gate 8;#P newex 362 749 360 196617 makecontrol $1/incl/FB $1 f 0 127 /common;#B color 12;#P newex 348 731 360 196617 makecontrol $1/incl/LR $1 f 0 127 /common;#B color 12;#P comment 302 713 33 196617 accel;#P comment 288 695 33 196617 accel;#P comment 274 677 33 196617 accel;#P comment 260 659 35 196617 MC1u;#P comment 246 641 35 196617 MC1d;#P comment 232 623 34 196617 inclin;#P comment 218 605 34 196617 inclin;#P comment 204 587 34 196617 inclin;#P comment 190 569 26 196617 RC5;#P comment 176 551 26 196617 RC4;#P comment 162 533 26 196617 RC3;#P comment 148 515 26 196617 RC2;#P comment 134 497 26 196617 RC1;#P comment 120 479 25 196617 MC1;#P comment 106 461 25 196617 LC5;#P comment 92 443 25 196617 LC4;#P comment 78 425 25 196617 LC3;#P comment 64 407 25 196617 LC2;#P newex 334 713 352 196617 makecontrol $1/gyro/z $1 f 0 127 /common;#B color 12;#P newex 320 695 353 196617 makecontrol $1/gyro/y $1 f 0 127 /common;#B color 12;#P newex 306 677 353 196617 makecontrol $1/gyro/x $1 f 0 127 /common;#B color 12;#P newex 292 659 352 196617 makecontrol $1/bendR $1 f 0 127 /common;#B color 12;#P newex 278 641 351 196617 makecontrol $1/bendL $1 f 0 127 /common;#B color 12;#P newex 264 623 355 196617 makecontrol $1/accel/z $1 f 0 127 /common;#B color 12;#P newex 250 605 356 196617 makecontrol $1/accel/y $1 f 0 127 /common;#B color 12;#P newex 236 587 356 196617 makecontrol $1/accel/x $1 f 0 127 /common;#B color 12;#P newex 222 569 337 196617 makecontrol $1/key10 $1 f 0 127 /common;#B color 12;#P newex 208 551 337 196617 makecontrol $1/key9 $1 f 0 127 /common;#B color 12;#P newex 194 533 337 196617 makecontrol $1/key8 $1 f 0 127 /common;#B color 12;#P newex 180 515 337 196617 makecontrol $1/key7 $1 f 0 127 /common;#B color 12;#P newex 166 497 337 196617 makecontrol $1/key6 $1 f 0 127 /common;#B color 12;#P newex 152 479 337 196617 makecontrol $1/axis $1 f 0 127 /common;#B color 12;#P newex 138 461 336 196617 makecontrol $1/key5 $1 f 0 127 /common;#B color 12;#P newex 124 443 336 196617 makecontrol $1/key4 $1 f 0 127 /common;#B color 12;#P newex 110 425 336 196617 makecontrol $1/key3 $1 f 0 127 /common;#B color 12;#P newex 96 407 336 196617 makecontrol $1/key2 $1 f 0 127 /common;#B color 12;#P newex 82 389 336 196617 makecontrol $1/key1 $1 f 0 127 /common;#B color 12;#P newex 82 295 40 196617 unpack;#P newex 82 348 295 196617 gate 21;#P newex 170 286 29 196617 gate;#P newex 189 208 51 196617 zl slice 2;#P newex 230 254 31 196617 == 1;#P newex 101 208 51 196617 zl slice 2;#P number 251 224 35 9 0 0 0 3 0 0 0 221 221 221 222 222 222 0 0 0;#P newex 251 203 119 196617 r $1/channel;#B color 12;#P newex 82 274 29 196617 gate;#P newex 142 251 31 196617 == 1;#P newex 189 180 57 196617 pack 0 0 0;#P newex 189 159 56 196617 notein;#P newex 101 180 57 196617 pack 0 0 0;#P newex 101 159 56 196617 ctlin;#P newex 189 126 83 196617 r $1/midiinputs;#B color 6;#P comment 50 389 25 196617 LC1;#P comment 705 288 356 196617 C5 (84);#N vpatcher 786 70 1271 790;#P window setfont "Sans Serif" 9.;#P window linecount 27;#P message 58 50 135 196617 \; $1/bsw1/init bang \; $1/bsw2/init bang \; $1/bsw3/init bang \; $1/bsw4/init bang \; $1/bsw5/init bang \; $1/bsw6/init bang \; $1/bsw7/init bang \; $1/bsw8/init bang \; $1/bsw9/init bang \; $1/js/R/init bang \; $1/js/L/init bang \; $1/js/up/init bang \; $1/js/down/init bang \; $1/js/push/init bang \; $1/impulse/right bang \; $1/impulse/down bang \; $1/impulse/forward bang \; $1/impulse/left bang \; $1/impulse/up bang \; $1/impulse/back bang \; $1/channel/init bang \; $1/horiz/az/init bang \; $1/horiz/dist/init bang \; $1/vert/az/init bang \; $1/vert/dist/init bang \; control_register/store $1 \;;#P window linecount 51;#P message 248 50 166 196617 \; $1/sw/init bang \; $1/pitchvel/init bang \; $1/pitch/init bang \; $1/vel/init bang \; $1/strippitchvel/init bang \; $1/strippitch/init bang \; $1/stripvel/init bang \; $1/key1/init bang \; $1/key2/init bang \; $1/key3/init bang \; $1/key4/init bang \; $1/key5/init bang \; $1/axis/init bang \; $1/key6/init bang \; $1/key7/init bang \; $1/key8/init bang \; $1/key9/init bang \; $1/key10/init bang \; $1/accel/x/init bang \; $1/accel/y/init bang \; $1/accel/z/init bang \; $1/accel/trig/left/init bang \; $1/accel/trig/right/init bang \; $1/accel/trig/down/init bang \; $1/accel/trig/up/init bang \; $1/accel/trig/forward/init bang \; $1/accel/trig/back/init bang \; $1/gyro/x/init bang \; $1/gyro/y/init bang \; $1/gyro/z/init bang \; $1/incl/LR/init bang \; $1/incl/FB/init bang \; $1/bendL/init bang \; $1/bendR/init bang \; $1/piston1/init bang \; $1/piston2/init bang \; $1/piston3/init bang \; $1/piston4/init bang \; $1/piston5/init bang \; $1/piston6/init bang \; $1/piston7/init bang \; $1/piston8/init bang \; $1/fsw1/init bang \; $1/fsw2/init bang \; $1/fsw3/init bang \; $1/fsw4/init bang \; $1/fsw5/init bang \; $1/fsw6/init bang \; $1/fsw7/init bang \; $1/fsw8/init bang \;;#P inlet 248 30 15 0;#P inlet 58 30 15 0;#P connect 0 0 3 0;#P connect 1 0 2 0;#P pop;#P newobj 873 91 61 196617 p init-mess;#B color 6;#P number 518 42 35 9 0 0 0 3 0 0 0 221 221 221 222 222 222 0 0 0;#P newex 518 22 246 196617 makeparam $1/channel $1 i 1 1 16;#B color 12;#P newex 839 22 151 196617 moduleinit $1;#B color 13;#P button 839 42 15 0;#P newex 839 60 78 196617 t b b b;#P newex 88 116 83 196617 s $1/midiinputs;#B color 6;#P newex 769 43 48 196617 loadbang;#P message 769 82 60 196617 controllers;#P newex 769 122 178 196617 s $1/mididevicemenu;#B color 12;#P newex 769 101 45 196617 midiinfo;#B color 5;#P newex 31 47 67 196617 route <none>;#P newex 31 27 188 196617 makeparam $1/mididevice $1 s <none>;#B color 12;#P newex 367 97 114 196617 pvar mididevicemenu 2;#P newex 367 24 125 196617 r $1/mididevicemenu;#B color 6;#P toggle 125 73 15 0;#P message 125 93 53 196617 enable \$1;#P newex 125 51 221 196617 makeswitch $1/sw $1 common_switchstate 0;#B color 12;#P newex 382 74 62 196617 prepend set;#P newex 382 54 125 196617 r $1/mididevice;#B color 6;#P newex 367 125 125 196617 s $1/mididevice;#B color 6;#P window setfont "Sans Serif" 18.;#N vpatcher 169 44 904 347;#P window setfont "Sans Serif" 9.;#P newex 791 650 32 196617 sel 1;#P newex 791 632 32 196617 sel 1;#P newex 791 614 32 196617 sel 1;#P newex 791 596 32 196617 sel 1;#P newex 791 578 32 196617 sel 1;#P newex 840 650 54 196617 pvar back;#P newex 840 632 51 196617 pvar fwd;#P newex 840 614 44 196617 pvar up;#P newex 840 596 57 196617 pvar down;#P newex 840 578 56 196617 pvar right;#P newex 840 560 50 196617 pvar left;#P newex 791 560 32 196617 sel 1;#P window linecount 1;#P newex 643 650 124 196617 vari $1/inclin/trig/back;#B color 5;#P newex 643 632 141 196617 vari $1/inclin/trig/forward;#B color 5;#P newex 643 578 126 196617 vari $1/inclin/trig/right;#B color 5;#P newex 643 560 120 196617 vari $1/inclin/trig/left;#B color 5;#P newex 643 596 127 196617 vari $1/inclin/trig/down;#B color 5;#P newex 643 614 114 196617 vari $1/inclin/trig/up;#B color 5;#P newex 573 477 50 196617 pvar vaz;#P newex 573 531 44 196617 pvar hd;#P newex 573 513 49 196617 pvar haz;#P newex 573 495 45 196617 pvar vd;#P comment 616 187 59 196617 /horiz/dist;#P comment 487 188 52 196617 /horiz/az;#P comment 616 169 59 196617 /vert/dist;#P comment 487 170 52 196617 /vert/az;#P flonum 675 186 35 9 0 0 0 3 0 0 0 221 221 221 222 222 222 0 0 0;#P objectname hd;#P flonum 538 186 71 9 0 0 0 3 0 0 0 221 221 221 222 222 222 0 0 0;#P objectname haz;#P flonum 675 168 35 9 0 0 0 3 0 0 0 221 221 221 222 222 222 0 0 0;#P objectname vd;#P flonum 538 168 71 9 0 0 0 3 0 0 0 221 221 221 222 222 222 0 0 0;#P objectname vaz;#P newex 643 495 94 196617 vari $1/vert/dist;#B color 5;#P newex 643 477 87 196617 vari $1/vert/az;#B color 5;#P newex 643 531 97 196617 vari $1/horiz/dist;#B color 5;#P newex 643 513 90 196617 vari $1/horiz/az;#B color 5;#P newex 573 394 58 196617 pvar RTB4;#P newex 573 448 58 196617 pvar RTB1;#P newex 573 430 58 196617 pvar RTB2;#P newex 573 412 58 196617 pvar RTB3;#P comment 407 149 25 196617 8;#P comment 380 149 25 196617 7;#P comment 355 149 25 196617 6;#P comment 316 149 43 196617 piston5;#P newex 319 428 57 196617 pvar RN4n;#P newex 319 410 57 196617 pvar RN3n;#P newex 319 392 57 196617 pvar RN2n;#P newex 319 374 57 196617 pvar RN1n;#P newex 319 356 56 196617 pvar LN4n;#P newex 319 338 56 196617 pvar LN3n;#P newex 319 320 56 196617 pvar LN2n;#P newex 319 302 56 196617 pvar LN1n;#P newex 643 304 66 196617 vari $1/jsR;#B color 12;#P newex 643 376 86 196617 vari $1/js/push;#B color 12;#P newex 643 358 89 196617 vari $1/js/down;#B color 12;#P newex 643 340 65 196617 vari $1/jsL;#B color 12;#P newex 643 322 71 196617 vari $1/jsUp;#B color 12;#P newex 460 590 75 196617 vari $1/bsw4;#B color 12;#P newex 460 662 75 196617 vari $1/bsw1;#B color 12;#P newex 460 644 75 196617 vari $1/bsw3;#B color 12;#P newex 460 626 75 196617 vari $1/bsw2;#B color 12;#P newex 460 608 75 196617 vari $1/bsw5;#B color 12;#P newex 643 448 75 196617 vari $1/bsw7;#B color 12;#P newex 643 430 75 196617 vari $1/bsw6;#B color 12;#P newex 643 412 75 196617 vari $1/bsw9;#B color 12;#P newex 643 394 75 196617 vari $1/bsw8;#B color 12;#P newex 460 572 74 196617 vari $1/fsw8;#B color 12;#P newex 460 554 74 196617 vari $1/fsw7;#B color 12;#P newex 460 536 74 196617 vari $1/fsw6;#B color 12;#P newex 460 518 74 196617 vari $1/fsw5;#B color 12;#P newex 460 500 74 196617 vari $1/fsw4;#B color 12;#P newex 460 482 74 196617 vari $1/fsw3;#B color 12;#P newex 460 464 74 196617 vari $1/fsw2;#B color 12;#P newex 460 446 74 196617 vari $1/fsw1;#B color 12;#P newex 460 428 84 196617 vari $1/piston8;#B color 12;#P newex 460 410 84 196617 vari $1/piston7;#B color 12;#P newex 460 392 84 196617 vari $1/piston6;#B color 12;#P newex 460 374 84 196617 vari $1/piston5;#B color 12;#P newex 460 356 84 196617 vari $1/piston4;#B color 12;#P newex 460 338 84 196617 vari $1/piston3;#B color 12;#P newex 460 320 84 196617 vari $1/piston2;#B color 12;#P newex 460 302 84 196617 vari $1/piston1;#B color 12;#P newex 26 665 72 196617 pvar incl/FBn;#P newex 26 647 72 196617 pvar incl/LRn;#P newex 26 629 73 196617 pvar accel/zn;#P newex 26 611 74 196617 pvar accel/yn;#P newex 26 593 74 196617 pvar accel/xn;#P newex 26 538 74 196617 pvar inclin/zn;#P newex 26 520 75 196617 pvar inclin/yn;#P newex 26 502 75 196617 pvar inclin/xn;#P newex 26 574 64 196617 pvar MC1un;#P newex 26 556 64 196617 pvar MC1dn;#P newex 26 394 59 196617 pvar MC1n;#P newex 26 484 57 196617 pvar RC5n;#P newex 26 466 57 196617 pvar RC4n;#P newex 26 448 57 196617 pvar RC3n;#P newex 26 430 57 196617 pvar RC2n;#P newex 26 412 57 196617 pvar RC1n;#P newex 26 375 56 196617 pvar LC5n;#P newex 26 357 56 196617 pvar LC4n;#P newex 26 339 56 196617 pvar LC3n;#P newex 26 321 56 196617 pvar LC2n;#P newex 26 302 56 196617 pvar LC1n;#P comment 680 20 19 196617 FB;#P comment 657 20 19 196617 LR;#P number 682 141 25 9 0 0 32 3 0 0 0 221 221 221 222 222 222 0 0 0;#P objectname incl/FBn;#P user uslider 682 33 13 91 128 1 0 0;#P objectname incl/FB;#P comment 661 6 32 196617 incl/;#P number 657 141 25 9 0 0 32 3 0 0 0 221 221 221 222 222 222 0 0 0;#P objectname incl/LRn;#P user uslider 657 33 13 91 128 1 0 0;#P objectname incl/LR;#P newex 112 665 67 196617 pvar incl/FB;#P newex 112 647 67 196617 pvar incl/LR;#P newex 194 665 84 196617 vari $1/incl/FB;#B color 12;#P newex 194 647 84 196617 vari $1/incl/LR;#B color 12;#P newex 194 629 83 196617 vari $1/gyro/z;#B color 12;#P newex 194 611 84 196617 vari $1/gyro/y;#B color 12;#P newex 194 593 84 196617 vari $1/gyro/x;#B color 12;#P newex 194 574 77 196617 vari $1/bendR;#B color 12;#P newex 194 556 76 196617 vari $1/bendL;#B color 12;#P newex 194 538 85 196617 vari $1/accel/z;#B color 12;#P newex 194 520 86 196617 vari $1/accel/y;#B color 12;#P newex 194 502 86 196617 vari $1/accel/x;#B color 12;#P newex 194 484 79 196617 vari $1/key10;#B color 12;#P newex 194 466 73 196617 vari $1/key9;#B color 12;#P newex 194 448 73 196617 vari $1/key8;#B color 12;#P newex 194 430 73 196617 vari $1/key7;#B color 12;#P newex 194 412 73 196617 vari $1/key6;#B color 12;#P newex 194 394 70 196617 vari $1/axis;#B color 12;#P newex 194 375 73 196617 vari $1/key5;#B color 12;#P newex 194 357 73 196617 vari $1/key4;#B color 12;#P newex 194 339 73 196617 vari $1/key3;#B color 12;#P newex 194 321 73 196617 vari $1/key2;#B color 12;#P newex 194 302 73 196617 vari $1/key1;#B color 12;#P window linecount 0;#P comment 337 250 36 196617 /back;#P comment 281 227 47 196617 forward;#P comment 335 219 24 196617 /up;#P comment 337 259 39 196617 /down;#P comment 357 242 38 196617 /right;#P comment 283 250 32 196617 /left;#P comment 364 220 69 196617 /accel/trig/;#P button 324 242 15 0;#P objectname back;#P button 319 236 15 0;#P objectname fwd;#P button 322 257 15 0;#P objectname down;#P button 321 219 15 0;#P objectname up;#P button 344 236 15 0;#P objectname right;#P button 301 236 15 0;#P objectname left;#P newex 384 591 57 196617 pvar LTB4;#P comment 449 220 40 196617 /bsw1;#P toggle 456 231 20 0;#P objectname LTB0;#P newex 384 663 57 196617 pvar LTB0;#P newex 384 645 57 196617 pvar LTB1;#P newex 384 627 57 196617 pvar LTB2;#P newex 384 609 57 196617 pvar LTB3;#P comment 597 253 40 196617 /bsw4;#P toggle 603 264 20 0;#P objectname LTB4;#P comment 560 253 40 196617 /bsw5;#P toggle 571 264 20 0;#P objectname LTB3;#P comment 597 221 40 196617 /bsw2;#P toggle 603 232 20 0;#P objectname LTB2;#P comment 562 221 40 196617 /bsw3;#P toggle 571 232 20 0;#P objectname LTB1;#P newex 573 376 46 196617 pvar JC;#P newex 573 358 46 196617 pvar JD;#P newex 573 340 45 196617 pvar JL;#P newex 573 322 46 196617 pvar JU;#P newex 573 304 46 196617 pvar JR;#P comment 528 228 45 196617 js/push;#P comment 475 244 30 196617 js/L;#P comment 498 217 41 196617 /js/up;#P comment 538 243 37 196617 /js/R;#P comment 497 271 54 196617 /js/down;#P toggle 512 257 15 0;#P objectname JD;#P toggle 498 243 15 0;#P objectname JL;#P toggle 512 229 15 0;#P objectname JU;#P toggle 526 243 15 0;#P objectname JR;#P toggle 512 243 15 0;#P objectname JC;#P comment 673 252 40 196617 /bsw8;#P toggle 677 263 20 0;#P objectname RTB4;#P comment 637 252 40 196617 /bsw9;#P toggle 645 263 20 0;#P objectname RTB3;#P comment 673 220 40 196617 /bsw6;#P toggle 677 231 20 0;#P objectname RTB2;#P comment 637 220 40 196617 /bsw7;#P toggle 645 231 20 0;#P objectname RTB1;#P comment 444 165 39 196617 /fsw8;#P comment 444 6 39 196617 /fsw6;#P comment 283 165 39 196617 /fsw7;#P comment 283 6 39 196617 /fsw5;#P comment 166 166 39 196617 /fsw4;#P comment 166 7 39 196617 /fsw2;#P comment 5 166 39 196617 /fsw3;#P comment 5 7 39 196617 /fsw1;#P toggle 448 178 25 0;#P objectname RB4;#P toggle 287 178 25 0;#P objectname RB3;#P toggle 448 19 25 0;#P objectname RB2;#P toggle 287 19 25 0;#P objectname RB1;#P toggle 170 179 25 0;#P objectname LB3;#P toggle 9 179 25 0;#P objectname LB4;#P toggle 170 20 25 0;#P objectname LB1;#P toggle 9 20 25 0;#P objectname LB2;#P newex 384 573 52 196617 pvar RB4;#P newex 384 555 52 196617 pvar RB3;#P newex 384 537 52 196617 pvar RB2;#P newex 384 519 52 196617 pvar RB1;#P newex 384 500 51 196617 pvar LB3;#P newex 384 482 51 196617 pvar LB4;#P newex 384 464 51 196617 pvar LB1;#P newex 384 446 51 196617 pvar LB2;#P number 400 188 25 9 0 0 32 3 0 0 0 221 221 221 222 222 222 0 0 0;#P objectname RN4n;#P user uslider 400 162 25 9 128 1 0 0;#P objectname RN4;#P number 374 188 25 9 0 0 32 3 0 0 0 221 221 221 222 222 222 0 0 0;#P objectname RN3n;#P user uslider 374 162 25 9 128 1 0 0;#P objectname RN3;#P number 348 188 25 9 0 0 32 3 0 0 0 221 221 221 222 222 222 0 0 0;#P objectname RN2n;#P user uslider 348 162 25 9 128 1 0 0;#P objectname RN2;#P number 322 188 25 9 0 0 32 3 0 0 0 221 221 221 222 222 222 0 0 0;#P objectname RN1n;#P user uslider 322 162 25 9 128 1 0 0;#P objectname RN1;#P newex 384 428 52 196617 pvar RN4;#P newex 384 410 52 196617 pvar RN3;#P newex 384 392 52 196617 pvar RN2;#P newex 384 374 52 196617 pvar RN1;#P newex 384 356 51 196617 pvar LN4;#P newex 384 338 51 196617 pvar LN3;#P newex 384 320 51 196617 pvar LN2;#P comment 129 150 25 196617 4;#P number 122 189 25 9 0 0 32 3 0 0 0 221 221 221 222 222 222 0 0 0;#P objectname LN4n;#P user uslider 122 163 25 9 128 1 0 0;#P objectname LN4;#P comment 102 150 25 196617 3;#P number 96 189 25 9 0 0 32 3 0 0 0 221 221 221 222 222 222 0 0 0;#P objectname LN3n;#P user uslider 96 163 25 9 128 1 0 0;#P objectname LN3;#P comment 77 150 25 196617 2;#P number 70 189 25 9 0 0 32 3 0 0 0 221 221 221 222 222 222 0 0 0;#P objectname LN2n;#P user uslider 70 163 25 9 128 1 0 0;#P objectname LN2;#P comment 625 20 19 196617 /z;#P comment 600 20 20 196617 /y;#P comment 575 20 20 196617 /x;#P comment 540 20 19 196617 /z;#P comment 515 20 20 196617 /y;#P comment 490 20 20 196617 /x;#P newex 384 302 51 196617 pvar LN1;#P comment 38 150 43 196617 piston1;#P number 44 189 25 9 0 0 32 3 0 0 0 221 221 221 222 222 222 0 0 0;#P objectname LN1n;#P user uslider 44 163 25 9 128 1 0 0;#P objectname LN1;#P newex 112 629 68 196617 pvar accel/z;#P newex 112 611 69 196617 pvar accel/y;#P newex 112 593 69 196617 pvar accel/x;#P number 625 141 25 9 0 0 32 3 0 0 0 221 221 221 222 222 222 0 0 0;#P objectname accel/zn;#P user uslider 625 33 13 91 128 1 0 0;#P objectname accel/z;#P number 600 141 25 9 0 0 32 3 0 0 0 221 221 221 222 222 222 0 0 0;#P objectname accel/yn;#P user uslider 600 33 13 91 128 1 0 0;#P objectname accel/y;#P comment 588 6 37 196617 /gyro;#P number 575 141 25 9 0 0 32 3 0 0 0 221 221 221 222 222 222 0 0 0;#P objectname accel/xn;#P user uslider 575 33 13 91 128 1 0 0;#P objectname accel/x;#P number 540 141 25 9 0 0 32 3 0 0 0 221 221 221 222 222 222 0 0 0;#P objectname inclin/zn;#P user uslider 540 33 13 91 128 1 0 0;#P objectname inclin/z;#P number 515 141 25 9 0 0 32 3 0 0 0 221 221 221 222 222 222 0 0 0;#P objectname inclin/yn;#P user uslider 515 33 13 91 128 1 0 0;#P objectname inclin/y;#P comment 506 6 35 196617 accel/;#P number 490 141 25 9 0 0 32 3 0 0 0 221 221 221 222 222 222 0 0 0;#P objectname inclin/xn;#P user uslider 490 33 13 91 128 1 0 0;#P objectname inclin/x;#P newex 112 538 69 196617 pvar inclin/z;#P newex 112 520 70 196617 pvar inclin/y;#P newex 112 502 70 196617 pvar inclin/x;#P comment 235 162 41 196617 /bendL;#P number 217 189 25 9 0 0 32 3 0 0 0 221 221 221 222 222 222 0 0 0;#P objectname MC1dn;#P user uslider 217 148 18 24 128 1 0 0;#P objectname MC1d;#P comment 235 29 42 196617 /bendR;#P number 217 56 25 9 0 0 32 3 0 0 0 221 221 221 222 222 222 0 0 0;#P objectname MC1un;#P user uslider 217 15 18 24 128 1 0 0;#P objectname MC1u;#P newex 112 574 59 196617 pvar MC1u;#P newex 112 556 59 196617 pvar MC1d;#P newex 112 394 54 196617 pvar MC1;#P newex 112 484 52 196617 pvar RC5;#P newex 112 466 52 196617 pvar RC4;#P newex 112 448 52 196617 pvar RC3;#P newex 112 430 52 196617 pvar RC2;#P newex 112 412 52 196617 pvar RC1;#P comment 416 6 38 196617 key10;#P number 425 127 25 9 0 0 32 3 0 0 0 221 221 221 222 222 222 0 0 0;#P objectname RC5n;#P user uslider 425 19 13 91 128 1 0 0;#P objectname RC5;#P comment 390 6 32 196617 key9;#P number 400 127 25 9 0 0 32 3 0 0 0 221 221 221 222 222 222 0 0 0;#P objectname RC4n;#P user uslider 400 19 13 91 128 1 0 0;#P objectname RC4;#P comment 368 6 32 196617 key8;#P number 374 127 25 9 0 0 32 3 0 0 0 221 221 221 222 222 222 0 0 0;#P objectname RC3n;#P user uslider 374 19 18 91 128 1 0 0;#P objectname RC3;#P comment 342 6 32 196617 key7;#P number 348 127 25 9 0 0 32 3 0 0 0 221 221 221 222 222 222 0 0 0;#P objectname RC2n;#P user uslider 348 19 18 91 128 1 0 0;#P objectname RC2;#P comment 316 6 32 196617 key6;#P number 322 127 25 9 0 0 32 3 0 0 0 221 221 221 222 222 222 0 0 0;#P objectname RC1n;#P user uslider 322 19 18 91 128 1 0 0;#P objectname RC1;#P newex 112 375 51 196617 pvar LC5;#P newex 112 357 51 196617 pvar LC4;#P newex 112 339 51 196617 pvar LC3;#P newex 112 321 51 196617 pvar LC2;#P newex 112 302 51 196617 pvar LC1;#P comment 142 7 32 196617 key5;#P number 147 128 25 9 0 0 32 3 0 0 0 221 221 221 222 222 222 0 0 0;#P objectname LC5n;#P user uslider 147 20 13 91 128 1 0 0;#P objectname LC5;#P comment 116 7 32 196617 key4;#P number 122 128 25 9 0 0 32 3 0 0 0 221 221 221 222 222 222 0 0 0;#P objectname LC4n;#P user uslider 122 20 13 91 128 1 0 0;#P objectname LC4;#P comment 94 7 32 196617 key3;#P number 96 128 25 9 0 0 32 3 0 0 0 221 221 221 222 222 222 0 0 0;#P objectname LC3n;#P user uslider 96 20 18 91 128 1 0 0;#P objectname LC3;#P comment 68 7 32 196617 key2;#P number 70 128 25 9 0 0 32 3 0 0 0 221 221 221 222 222 222 0 0 0;#P objectname LC2n;#P user uslider 70 20 18 91 128 1 0 0;#P objectname LC2;#P newex 750 105 99 196617 fixedsize 1015 220;#B color 6;#P newex 750 85 180 196617 editorwindow $1/display /tapemovie;#B color 11;#N thispatcher;#Q end;#P newobj 750 125 70 196617 thispatcher;#P comment 407 238 38 196617 chanel;#P window setfont "Sans Serif" 12.;#P number 407 250 39 12 0 127 3 3 0 0 0 221 221 221 222 222 222 0 0 0;#P objectname chan;#P window setfont "Sans Serif" 9.;#P comment 248 96 35 196617 /axis;#P comment 42 7 32 196617 key1;#P message 249 216 32 196617 clear;#P number 214 255 35 9 0 0 0 3 0 0 0 221 221 221 222 222 222 0 0 0;#P number 177 255 35 9 0 0 0 3 0 0 0 221 221 221 222 222 222 0 0 0;#P user kslider 3 216 35 1 60 60 19 7 1 92 150 206 92 150 206 255 255 255 0 0 0 0 0 0;#P objectname clav;#P number 44 128 25 9 0 0 32 3 0 0 0 221 221 221 222 222 222 0 0 0;#P objectname LC1n;#P number 211 121 36 9 0 0 0 3 0 0 0 221 221 221 222 222 222 0 0 0;#P objectname MC1n;#P user uslider 44 20 18 91 128 1 0 0;#P objectname LC1;#P user dial 211 84 36 36 128 1 0 0 223 270 2 0.3125 170 170 170 221 221 221 120 120 120 225 225 225 0 0 0 0 0 0;#P objectname MC1;#P user panel 481 3 235 210;#X brgb 191 191 191;#X frgb 0 0 0;#X border 1;#X rounded 0;#X shadow 0;#X done;#P background;#P user panel 204 3 75 210;#X brgb 191 191 191;#X frgb 0 0 0;#X border 1;#X rounded 0;#X shadow 0;#X done;#P background;#P user panel 280 3 200 210;#X brgb 191 191 191;#X frgb 0 0 0;#X border 1;#X rounded 0;#X shadow 0;#X done;#P background;#P user panel 3 3 200 210;#X brgb 191 191 191;#X frgb 0 0 0;#X border 1;#X rounded 0;#X shadow 0;#X done;#P background;#P hidden connect 11 0 8 0;#P connect 194 0 224 0;#P connect 195 0 225 0;#P connect 196 0 226 0;#P connect 197 0 227 0;#P connect 198 0 228 0;#P connect 199 0 234 0;#P connect 200 0 229 0;#P connect 201 0 230 0;#P connect 202 0 231 0;#P connect 203 0 232 0;#P connect 204 0 233 0;#P connect 205 0 237 0;#P connect 206 0 238 0;#P connect 207 0 239 0;#P connect 208 0 235 0;#P connect 209 0 236 0;#P connect 210 0 240 0;#P connect 211 0 241 0;#P connect 212 0 242 0;#P connect 213 0 243 0;#P connect 214 0 244 0;#P connect 5 0 7 0;#P connect 85 0 86 0;#P connect 19 0 20 0;#P connect 95 0 96 0;#P connect 22 0 23 0;#P connect 98 0 99 0;#P connect 194 0 31 0;#P connect 195 0 32 0;#P connect 196 0 33 0;#P connect 197 0 34 0;#P connect 198 0 35 0;#P connect 199 0 56 0;#P connect 200 0 51 0;#P connect 201 0 52 0;#P connect 202 0 53 0;#P connect 203 0 54 0;#P connect 204 0 55 0;#P connect 205 0 65 0;#P connect 206 0 66 0;#P connect 207 0 67 0;#P connect 208 0 57 0;#P connect 209 0 58 0;#P connect 210 0 82 0;#P connect 211 0 83 0;#P connect 212 0 84 0;#P connect 213 0 215 0;#P connect 214 0 216 0;#P connect 25 0 26 0;#P connect 101 0 102 0;#P connect 28 0 29 0;#P hidden connect 8 0 9 0;#P connect 224 0 194 0;#P connect 225 0 195 0;#P connect 226 0 196 0;#P connect 227 0 197 0;#P connect 228 0 198 0;#P connect 234 0 199 0;#P connect 229 0 200 0;#P connect 230 0 201 0;#P connect 231 0 202 0;#P connect 232 0 203 0;#P connect 233 0 204 0;#P connect 237 0 205 0;#P connect 238 0 206 0;#P connect 239 0 207 0;#P connect 235 0 208 0;#P connect 236 0 209 0;#P connect 240 0 210 0;#P connect 241 0 211 0;#P connect 242 0 212 0;#P connect 243 0 213 0;#P connect 244 0 214 0;#P connect 4 0 6 0;#P hidden connect 8 1 10 0;#P connect 59 0 60 0;#P connect 62 0 63 0;#P connect 245 0 275 0;#P connect 246 0 276 0;#P connect 247 0 277 0;#P connect 248 0 278 0;#P connect 249 0 279 0;#P connect 250 0 280 0;#P connect 251 0 281 0;#P connect 252 0 282 0;#P connect 36 0 37 0;#P connect 111 0 112 0;#P connect 39 0 40 0;#P connect 113 0 114 0;#P connect 42 0 43 0;#P connect 115 0 116 0;#P connect 245 0 88 0;#P connect 246 0 104 0;#P connect 247 0 105 0;#P connect 248 0 106 0;#P connect 249 0 107 0;#P connect 250 0 108 0;#P connect 251 0 109 0;#P connect 252 0 110 0;#P connect 253 0 119 0;#P connect 254 0 120 0;#P connect 255 0 121 0;#P connect 256 0 122 0;#P connect 257 0 123 0;#P connect 258 0 124 0;#P connect 259 0 125 0;#P connect 260 0 126 0;#P connect 269 0 180 0;#P connect 265 0 174 0;#P connect 266 0 175 0;#P connect 267 0 176 0;#P connect 268 0 177 0;#P connect 45 0 46 0;#P connect 117 0 118 0;#P connect 48 0 49 0;#P connect 275 0 245 0;#P connect 276 0 246 0;#P connect 277 0 247 0;#P connect 278 0 248 0;#P connect 279 0 249 0;#P connect 280 0 250 0;#P connect 281 0 251 0;#P connect 282 0 252 0;#P connect 119 0 253 0;#P connect 120 0 254 0;#P connect 121 0 255 0;#P connect 122 0 256 0;#P connect 123 0 257 0;#P connect 124 0 258 0;#P connect 125 0 259 0;#P connect 126 0 260 0;#P connect 180 0 269 0;#P connect 174 0 265 0;#P connect 175 0 266 0;#P connect 176 0 267 0;#P connect 177 0 268 0;#P connect 68 0 69 0;#P connect 71 0 72 0;#P connect 73 0 74 0;#P connect 274 0 161 0;#P connect 270 0 162 0;#P connect 271 0 163 0;#P connect 272 0 164 0;#P connect 273 0 165 0;#P connect 261 0 290 0;#P connect 262 0 287 0;#P connect 263 0 288 0;#P connect 264 0 289 0;#P connect 293 0 306 0;#P connect 294 0 303 0;#P connect 291 0 304 0;#P connect 292 0 305 0;#P connect 75 0 76 0;#P connect 78 0 79 0;#P connect 80 0 81 0;#P connect 161 0 274 0;#P connect 162 0 270 0;#P connect 163 0 271 0;#P connect 164 0 272 0;#P connect 165 0 273 0;#P connect 290 0 261 0;#P connect 287 0 262 0;#P connect 288 0 263 0;#P connect 289 0 264 0;#P connect 306 0 293 0;#P connect 303 0 294 0;#P connect 304 0 291 0;#P connect 305 0 292 0;#P connect 217 0 218 0;#P connect 220 0 221 0;#P connect 17 0 18 0;#P connect 18 0 16 0;#P connect 309 1 313 0;#P connect 310 1 320 0;#P connect 308 1 321 0;#P connect 307 1 322 0;#P connect 311 1 323 0;#P connect 312 1 324 0;#P connect 313 0 314 0;#P connect 320 0 315 0;#P connect 321 0 316 0;#P connect 322 0 317 0;#P connect 323 0 318 0;#P connect 324 0 319 0;#P pop;#P newobj 554 80 151 196626 p karlax_display;#B color 5;#P connect 39 0 91 0;#P connect 40 0 92 0;#P connect 9 0 10 0;#P connect 36 0 214 0;#P connect 214 0 209 0;#P connect 209 0 212 0;#P connect 41 0 93 0;#P connect 209 0 217 0;#P connect 217 0 216 0;#P connect 42 0 94 0;#P connect 43 0 95 0;#P connect 209 1 217 1;#P connect 209 1 213 0;#P connect 44 0 96 0;#P connect 29 0 30 0;#P connect 30 0 38 0;#P connect 38 1 90 0;#P connect 183 0 37 0;#P connect 90 0 37 0;#P connect 37 0 39 0;#P fasten 214 1 215 0 100 738 88 738;#P connect 5 0 15 0;#P connect 10 1 15 0;#P connect 45 0 97 0;#P connect 214 1 208 0;#P connect 208 0 211 0;#P connect 211 0 206 0;#P connect 37 1 40 0;#P connect 24 0 25 0;#P connect 25 0 26 0;#P connect 26 0 33 0;#P connect 33 0 30 1;#P connect 46 0 98 0;#P connect 37 2 41 0;#P connect 47 0 99 0;#P connect 25 1 26 1;#P connect 37 3 42 0;#P connect 4 0 6 0;#P connect 6 0 5 0;#P connect 48 0 100 0;#P connect 208 1 210 0;#P connect 210 0 207 0;#P connect 90 1 183 0;#P connect 37 4 43 0;#P connect 33 1 29 0;#P connect 49 0 101 0;#P connect 25 2 26 2;#P connect 37 5 218 0;#P connect 218 0 44 0;#P connect 50 0 102 0;#P connect 32 0 29 1;#P connect 37 6 45 0;#P connect 34 0 36 0;#P connect 51 0 103 0;#P connect 37 7 46 0;#P connect 52 0 104 0;#P connect 24 0 27 0;#P connect 27 0 28 0;#P connect 28 0 35 0;#P connect 35 0 36 1;#P connect 37 8 47 0;#P connect 53 0 105 0;#P connect 37 9 48 0;#P connect 27 1 28 1;#P connect 54 0 106 0;#P connect 37 10 49 0;#P connect 35 1 34 0;#P connect 55 0 107 0;#P connect 27 2 28 2;#P connect 37 11 50 0;#P connect 56 0 108 0;#P connect 37 12 51 0;#P connect 31 0 32 0;#P connect 32 0 34 1;#P connect 57 0 109 0;#P connect 37 13 52 0;#P connect 76 0 110 0;#P connect 37 14 53 0;#P connect 77 0 111 0;#P connect 37 15 54 0;#P connect 37 16 55 0;#P connect 37 17 56 0;#P connect 37 18 57 0;#P connect 37 19 76 0;#P connect 37 20 77 0;#P connect 3 0 8 0;#P connect 7 0 8 0;#P fasten 8 1 1 0 476 119 372 119;#P fasten 38 0 37 1 87 315 372 315;#P connect 2 0 3 0;#P connect 228 1 231 0;#P connect 228 3 232 0;#P connect 228 5 230 0;#P connect 228 7 229 0;#P connect 228 9 233 0;#P connect 228 11 234 0;#P connect 112 0 153 0;#P connect 50 0 228 0;#P connect 113 0 154 0;#P connect 114 0 155 0;#P connect 19 0 20 0;#P connect 115 0 156 0;#P connect 116 0 157 0;#P connect 117 0 158 0;#P connect 36 0 79 0;#P connect 79 0 82 0;#P connect 82 1 80 0;#P connect 80 0 81 0;#P connect 81 0 84 0;#P connect 181 0 78 0;#P connect 84 0 78 0;#P connect 78 0 112 0;#P connect 51 0 228 1;#P connect 118 0 159 0;#P connect 78 1 113 0;#P connect 119 0 160 0;#P connect 78 2 114 0;#P connect 79 1 82 1;#P connect 120 0 161 0;#P connect 78 3 115 0;#P connect 84 1 181 0;#P connect 121 0 162 0;#P connect 78 4 116 0;#P connect 122 0 163 0;#P connect 78 5 117 0;#P connect 52 0 228 2;#P connect 123 0 164 0;#P connect 78 6 118 0;#P connect 124 0 165 0;#P connect 78 7 119 0;#P fasten 82 0 78 1 554 276 654 276;#P connect 125 0 166 0;#P connect 82 1 85 0;#P connect 85 0 86 0;#P connect 86 0 87 0;#P connect 182 0 83 0;#P connect 87 0 83 0;#P connect 83 0 120 0;#P connect 126 0 167 0;#P connect 83 1 121 0;#P connect 127 0 168 0;#P connect 83 2 122 0;#P connect 152 0 169 0;#P connect 83 3 123 0;#P connect 148 0 170 0;#P connect 83 4 124 0;#P connect 87 1 182 0;#P connect 149 0 171 0;#P connect 83 5 125 0;#P connect 150 0 172 0;#P connect 83 6 126 0;#P connect 151 0 173 0;#P connect 50 0 227 0;#P connect 227 0 220 0;#P connect 220 0 222 0;#P connect 83 7 127 0;#P connect 14 0 13 0;#P connect 16 0 13 0;#P connect 13 0 11 0;#P connect 11 0 12 0;#P connect 83 8 152 0;#P connect 188 0 189 0;#P connect 83 9 148 0;#P connect 184 0 190 0;#P connect 83 10 149 0;#P connect 185 0 191 0;#P connect 83 11 150 0;#P connect 186 0 192 0;#P connect 83 12 151 0;#P connect 187 0 193 0;#P connect 227 1 219 0;#P connect 219 0 221 0;#P connect 128 0 177 0;#P connect 18 0 17 0;#P connect 17 0 16 0;#P connect 83 13 188 0;#P connect 129 0 178 0;#P connect 83 14 184 0;#P connect 130 0 179 0;#P connect 51 0 227 1;#P connect 83 15 185 0;#P connect 16 1 21 0;#P connect 131 0 180 0;#P connect 83 16 186 0;#P connect 83 17 187 0;#P connect 227 2 224 0;#P connect 224 0 226 0;#P connect 83 18 128 0;#P connect 194 0 200 0;#P connect 16 2 21 1;#P connect 83 19 129 0;#P connect 195 0 201 0;#P connect 83 20 130 0;#P connect 196 0 202 0;#P connect 83 21 131 0;#P connect 197 0 203 0;#P connect 83 22 194 0;#P connect 198 0 204 0;#P connect 83 23 195 0;#P connect 199 0 205 0;#P connect 227 3 223 0;#P connect 223 0 225 0;#P connect 52 0 227 2;#P connect 83 24 196 0;#P connect 83 25 197 0;#P connect 83 26 198 0;#P connect 83 27 199 0;#P fasten 82 0 83 1 554 276 1101 276;#P pop;