max v2;#N vpatcher 683 322 1201 712;#P origin 0 -17;#P window setfont "Sans Serif" 9.;#P newex 214 143 97 196617 v /tapemovie/type;#B color 14;#P newex 305 257 111 196617 v /tapemovie/version;#B color 14;#P newex 120 257 115 196617 v /tapemovie/appname;#B color 14;#P newex 120 235 381 196617 t b b application;#P newex 120 301 51 196617 tosymbol;#P newex 120 279 195 196617 sprintf ./%s-%s.app/Contents/support/;#P newex 220 92 87 196617 v /tapemovie/os;#B color 14;#P newex 168 27 137 196617 r /tapemovie/isruntimeXP?;#B color 12;#P newex 16 27 143 196617 r /tapemovie/isruntimeOSX?;#B color 12;#P toggle 37 108 15 0;#P newex 168 47 62 196617 t i windows;#B color 12;#P window linecount 2;#P message 205 165 293 196617 \; max system macintosh getruntime /tapemovie/isruntimeOSX?;#P window linecount 1;#P newex 120 121 76 196617 t s b 0 patch;#P window linecount 2;#P message 193 196 281 196617 \; max system windows getruntime /tapemovie/isruntimeXP?;#P window linecount 1;#P newex 16 47 68 196617 t i macintosh;#B color 12;#P outlet 16 336 15 0;#P toggle 16 108 15 0;#P newex 16 158 114 196617 gate 2 1;#P newex 16 129 27 196617 + 1;#P inlet 120 103 15 0;#P connect 11 0 5 0;#P fasten 7 2 3 0 169 146 203 146 203 88 21 88;#P lcolor 7;#P connect 5 0 3 0;#P connect 10 0 1 0;#P connect 3 0 1 0;#P connect 1 0 2 0;#P connect 2 0 4 0;#P fasten 15 0 4 0 125 327 21 327;#P fasten 7 2 10 0 169 143 198 143 198 94 42 94;#P fasten 9 0 10 0 173 81 42 81;#P connect 0 0 7 0;#P connect 7 0 2 1;#P connect 2 1 16 0;#P connect 16 0 17 0;#P connect 17 0 14 0;#P connect 14 0 15 0;#P connect 12 0 9 0;#P fasten 7 1 6 0 147 167 198 167;#P fasten 7 1 8 0 147 151 210 151;#P connect 7 3 19 0;#P connect 16 2 19 0;#P connect 5 1 13 0;#P connect 9 1 13 0;#P connect 16 1 18 0;#P connect 18 0 14 1;#P pop;