max v2;#N vpatcher 438 161 779 515;#P window setfont "Sans Serif" 9.;#P window linecount 1;#P newex 32 171 31 196617 t b 0;#P newex 32 258 41 196617 sel 1 0;#P newex 32 237 27 196617 i;#P newex 160 189 29 196617 gate;#B color 11;#P message 143 58 45 196617 cue-list;#P newex 160 209 21 196617 t 1;#P newex 32 87 138 196617 t b b s 0 1;#P message 101 58 37 196617 movie;#P message 67 58 29 196617 tape;#P newex 179 147 115 196617 sprintf set /%s/exists;#P newex 84 116 127 196617 sprintf send /%s/exists?;#P newex 64 143 47 196617 forward;#B color 11;#P button 32 285 15 0;#P button 60 285 15 0;#P newex 179 168 44 196617 receive;#B color 11;#N comlet name of plugin to test;#P inlet 32 32 15 0;#N comlet bang if does exists;#P outlet 32 305 15 0;#N comlet bang if does not exist;#P outlet 60 305 15 0;#P comment 47 33 135 196617 name like tape \, movie \, etc...;#P connect 10 0 12 0;#P connect 14 0 12 0;#P connect 11 0 12 0;#P connect 3 0 12 0;#P connect 12 0 18 0;#P connect 18 0 16 0;#P connect 16 0 17 0;#P connect 17 0 6 0;#P connect 6 0 2 0;#P connect 13 0 16 1;#P connect 12 3 16 1;#P connect 17 1 5 0;#P connect 5 0 1 0;#P connect 12 1 7 0;#P connect 8 0 7 0;#P connect 12 2 8 0;#P connect 18 1 15 0;#P connect 12 4 15 0;#P connect 15 0 13 0;#P connect 12 2 9 0;#P connect 9 0 4 0;#P connect 4 0 15 1;#P pop;