max v2;#N vpatcher 715 89 1127 681;#P window setfont "Sans Serif" 9.;#P window linecount 1;#P newex 49 442 73 196617 prepend write;#B color 5;#P newex 49 418 51 196617 tosymbol;#P newex 49 395 119 196617 zl reg;#P newex 252 399 36 196617 zl reg;#P newex 49 261 68 196617 prepend open;#P newex 49 281 54 196617 bytecount;#B color 5;#P newex 101 366 38 196617 del 10;#P newex 49 366 38 196617 del 10;#P newex 49 167 62 196617 projectpath;#B color 6;#P button 101 335 15 0;#P button 49 335 15 0;#P window linecount 3;#P comment 18 325 31 196617 does not exist;#P window linecount 1;#P newex 49 304 62 196617 sel -1;#P newex 49 239 51 196617 tosymbol;#P newex 49 203 122 196617 sprintf %sconfig/%s.txt;#B color 5;#P comment 116 335 38 196617 exists;#P newex 252 527 51 196617 route set;#N comlet NO SET text output by line message;#P outlet 252 550 15 0;#N comlet query result (number of lines);#P outlet 368 492 15 0;#P newex 107 89 21 196617 t 0;#P newex 49 113 47 196617 gate 1 1;#P newex 107 67 38 196617 sel 0;#P window linecount 2;#P comment 285 45 69 196617 alternate file name to read;#P inlet 284 70 15 0;#N comlet bang when read completed;#P outlet 310 503 15 0;#N comlet text output by line message;#P outlet 271 503 15 0;#N comlet to text inlet;#P inlet 225 441 15 0;#P window linecount 1;#P newex 86 22 48 196617 loadbang;#P message 86 43 157 196617 $1;#P button 49 146 15 0;#P newex 252 422 51 196617 tosymbol;#P newex 252 445 68 196617 prepend read;#P newex 252 468 127 196617 text;#B color 5;#P window linecount 8;#P comment 172 237 100 196617 create a text that reads a .txt file located in the project's config folder. Do not use .txt in the name but DO save the file as .txt. thank you.;#P connect 14 0 13 0;#P connect 13 0 4 0;#P connect 10 0 4 0;#P connect 4 0 25 0;#P connect 25 0 19 0;#P connect 19 0 20 0;#P connect 20 0 29 0;#P connect 29 0 28 0;#P connect 28 0 21 0;#P connect 21 0 23 0;#P connect 23 0 26 0;#P connect 26 0 31 0;#P connect 31 0 32 0;#P connect 32 0 33 0;#P connect 6 0 5 0;#P connect 5 0 13 1;#P connect 21 1 24 0;#P connect 24 0 27 0;#P connect 5 0 12 0;#P connect 12 0 14 0;#P fasten 19 0 31 1 54 232 163 232;#P connect 10 0 19 1;#P lcolor 7;#P fasten 13 0 19 1 54 138 166 138;#P lcolor 7;#P connect 27 0 30 0;#P connect 30 0 3 0;#P connect 3 0 2 0;#P connect 2 0 1 0;#P connect 7 0 1 0;#P connect 33 0 1 0;#P connect 1 0 17 0;#P connect 17 0 16 0;#P connect 1 0 8 0;#P fasten 19 0 30 1 54 224 283 224;#P connect 1 1 9 0;#P connect 1 2 15 0;#P pop;