max v2;#N vpatcher 186 114 1083 842;#P window setfont "Sans Serif" 9.;#P window linecount 1;#P message 272 137 55 196617 /adc.1/pt;#P message 270 114 70 196617 /adc.1/simul;#P message 269 90 40 196617 /adc.1;#P message 267 57 58 196617 /mapper.3;#P newex 212 634 44 196617 zl rot 1;#P newex 212 613 38 196617 zl join;#P newex 498 594 69 196617 route symbol;#P newex 65 317 51 196617 zl ecils 4;#P newex 29 390 29 196617 gate;#P newex 65 296 41 196617 t l 0;#P newex 106 363 21 196617 t 1;#P newex 106 342 109 196617 match 47 109 97 112;#P newex 48 275 27 196617 t l l;#P newex 29 411 40 196617 itoa;#P newex 212 558 65 196617 route symbol;#P newex 230 591 65 196617 route symbol;#P newex 212 468 46 196617 t dump l;#N coll empty 1;#P newobj 212 536 66 196617 coll empty 1;#B color 5;#P newex 248 511 114 196617 sprintf refer %s/state;#P newex 248 489 40 196617 itoa;#P newex 212 446 29 196617 gate;#P newex 272 400 29 196617 t l 0;#P newex 272 453 21 196617 t 1;#P newex 272 430 94 196617 match 47 115 119;#P newex 231 379 51 196617 zl ecils 3;#P newex 231 358 40 196617 atoi;#P newex 388 590 32 196617 sel 1;#P newex 388 611 46 196617 zl reg;#P newex 424 579 69 196617 route symbol;#P newex 388 570 27 196617 > 0;#N coll empty 1;#P newobj 388 549 95 196617 coll empty 1;#B color 5;#P message 269 35 37 196617 /lfo.1;#P message 40 130 48 196617 /tllslo.1;#P message 141 80 102 196617 /tllslo.1/buf/dim/x;#P message 130 61 113 196617 /tllslo.1/buf/loop/end;#P message 131 41 121 196617 /tllslo.1/buf/loop/begin;#P message 31 76 90 196617 /tllslo.1/buf/dim;#P message 10 36 92 196617 /tllslo.1/buf/loop;#P message 44 107 68 196617 /tllslo.1/buf;#P message 12 58 99 196617 /tllslo.1/buf/speed;#P newex 34 573 21 196617 t 1;#P newex 25 594 29 196617 gate;#P newex 29 456 94 196617 t s dump s b 0;#P newex 25 640 42 196617 zl join;#P newex 57 615 44 196617 zl rot 1;#P newex 57 594 38 196617 zl join;#P newex 85 573 69 196617 route symbol;#P message 113 501 65 196617 refer empty;#P newex 85 521 110 196617 sprintf refer %s/data;#N coll empty 1;#P newobj 57 549 96 196617 coll empty 1;#B color 5;#P message 517 76 254 196617 $1;#P newex 476 46 57 196617 route bang;#P newex 388 430 144 196617 sprintf refer %s/switchstate;#P newex 498 639 44 196617 zl rot 1;#P newex 498 618 38 196617 zl join;#P newex 526 573 69 196617 route symbol;#P newex 536 439 32 196617 sel 0;#P newex 558 482 87 196617 onebang;#P newex 476 97 261 196617 t s s s b;#P newex 558 525 40 196617 t dump;#P newex 442 525 66 196617 t dump dump;#P newex 743 450 58 196617 prepend re;#P newex 756 496 21 196617 t 1;#P newex 662 526 29 196617 gate;#P newex 681 448 40 196617 t s s 0;#P newex 696 475 133 196617 regexp;#N coll empty 1;#P newobj 663 425 66 196617 coll empty 1;#B color 5;#P newex 559 339 61 196617 t b s b 1;#P newex 513 502 55 196617 gate 2;#P newex 476 219 47 196617 zl iter 1;#P newex 476 199 37 196617 zl rev;#P newex 476 138 49 196617 t b l l;#P newex 476 179 46 196617 zl group;#N coll empty 1;#P newobj 498 552 95 196617 coll empty 1;#B color 5;#P newex 476 389 44 196617 t length;#P newex 558 462 20 196617 t b;#P message 593 366 65 196617 refer empty;#P newex 476 339 57 196617 t b s b 2;#P newex 526 389 114 196617 sprintf refer %s/state;#N coll empty 1;#P newobj 536 417 66 196617 coll empty 1;#B color 5;#P newex 476 319 40 196617 itoa;#P newex 476 259 42 196617 t b i;#P newex 476 239 27 196617 - 1;#P newex 476 299 42 196617 zl slice;#P newex 476 279 72 196617 zl reg;#P newex 495 158 51 196617 zl sub 47;#P newex 476 118 40 196617 atoi;#P window linecount 14;#P comment 569 146 89 196617 check to see if complete string is a module (contains "state" coll). If yes \, then dump entire state. If no \, go up heirarchy until find "state" coll \, then search that state coll for all params starting with complete string. It's that simple.;#P inlet 476 27 15 0;#P outlet 498 687 15 0;#P window linecount 1;#P comment 715 258 128 196617 arg 1 : optional node name;#P fasten 48 4 49 0 118 483 30 483;#P connect 50 0 49 0;#P connect 49 0 47 0;#P connect 81 1 82 0;#P connect 80 0 82 0;#P connect 82 0 77 0;#P connect 32 0 48 0;#P connect 77 0 48 0;#P connect 41 0 50 0;#P connect 48 0 49 1;#P fasten 66 0 78 0 236 401 224 401 224 270 53 270;#P connect 78 0 82 1;#P connect 14 0 41 0;#P connect 48 1 41 0;#P fasten 43 0 41 0 118 544 62 544;#P connect 42 0 41 0;#P connect 41 0 45 0;#P connect 45 0 46 0;#P connect 46 0 47 1;#P connect 78 1 81 0;#P connect 81 0 83 0;#P connect 48 2 42 0;#P connect 41 1 44 0;#P connect 44 0 45 1;#P connect 83 1 79 0;#P connect 79 0 80 0;#P connect 48 3 43 0;#P connect 68 0 70 0;#P connect 69 1 70 0;#P connect 70 0 74 0;#P connect 14 0 73 0;#P connect 72 0 73 0;#P connect 74 0 73 0;#P connect 73 0 76 0;#P connect 76 1 85 0;#P connect 76 0 85 0;#P connect 85 0 86 0;#P connect 73 1 75 0;#P fasten 63 0 65 0 393 633 378 633 378 353 236 353;#P connect 65 0 66 0;#P connect 66 0 70 1;#P connect 75 0 85 1;#P connect 74 1 71 0;#P connect 71 0 72 0;#P connect 66 1 69 0;#P connect 69 0 67 0;#P connect 67 0 68 0;#P connect 23 1 38 0;#P connect 14 0 60 0;#P connect 30 0 60 0;#P connect 38 0 60 0;#P connect 60 0 61 0;#P connect 61 0 64 0;#P connect 64 0 63 0;#P connect 60 1 62 0;#P connect 62 0 63 1;#P connect 22 0 30 0;#P connect 59 0 39 0;#P connect 2 0 39 0;#P connect 87 0 39 0;#P connect 88 0 39 0;#P connect 89 0 39 0;#P connect 90 0 39 0;#P fasten 40 0 32 0 522 94 481 94;#P fasten 39 1 32 0 528 69 481 69;#P connect 32 0 4 0;#P connect 4 0 19 0;#P connect 19 0 18 0;#P connect 5 0 18 0;#P connect 18 0 20 0;#P connect 20 0 21 0;#P connect 21 0 8 0;#P connect 8 0 9 0;#P connect 9 0 6 0;#P connect 6 0 7 0;#P connect 7 0 10 0;#P connect 10 0 13 0;#P connect 23 0 16 0;#P connect 13 0 16 0;#P connect 19 1 5 0;#P fasten 12 0 17 0 531 546 503 546;#P connect 14 0 17 0;#P connect 30 1 17 0;#P fasten 27 0 17 0 667 549 503 549;#P connect 17 0 84 0;#P connect 84 0 36 0;#P connect 84 1 36 0;#P connect 36 0 37 0;#P connect 37 0 1 0;#P fasten 47 0 1 0 30 677 503 677;#P fasten 86 0 1 0 217 667 503 667;#P connect 9 1 7 1;#P connect 13 3 22 0;#P connect 23 3 22 0;#P connect 39 0 40 0;#P connect 23 1 12 0;#P connect 13 1 12 0;#P connect 17 1 35 0;#P connect 35 0 36 1;#P connect 12 0 11 0;#P connect 14 0 11 0;#P connect 16 0 11 0;#P connect 11 0 34 0;#P connect 19 2 6 1;#P connect 34 1 15 0;#P connect 15 0 33 0;#P connect 33 0 22 1;#P connect 22 1 31 0;#P connect 32 1 23 0;#P connect 23 2 14 0;#P connect 13 2 14 0;#P connect 32 3 33 1;#P fasten 26 2 27 0 716 469 667 469;#P lcolor 7;#P connect 28 0 27 0;#P connect 12 0 24 0;#P connect 31 0 24 0;#P connect 14 0 24 0;#P connect 24 1 26 0;#P connect 26 0 27 1;#P fasten 29 0 25 0 748 472 701 472;#P connect 26 1 25 0;#P connect 32 2 29 0;#P connect 25 2 28 0;#P pop;