max v2;#N vpatcher 435 44 1193 878;#P window setfont "Sans Serif" 9.;#P newex 331 466 36 196617 zl reg;#P newex 254 493 131 196617 pack s 0;#P newex 273 446 20 196617 t b;#P newex 273 379 94 196617 t s s;#P newex 331 446 20 196617 t b;#P newex 273 353 56 196617 route spat;#P newex 273 330 112 196617 unpack s 0;#P newex 444 162 127 196617 sprintf refer %s_modules;#N coll t_modules;#P newobj 273 403 75 196617 coll;#B color 5;#P newex 273 426 68 196617 route plugins;#P newex 50 318 40 196617 t b 0 b;#P newex 153 724 29 196617 gate;#B color 14;#P newex 50 36 124 196617 t b 1 b;#P newex 454 590 44 196617 receive;#B color 11;#P newex 454 569 117 196617 sprintf set %s/verbose;#P newex 397 289 32 196617 del 1;#P newex 359 289 36 196617 t stop;#P newex 527 689 83 196617 t b b;#P message 527 713 70 196617 initmodules...;#P number 600 731 35 9 0 0 0 3 0 0 0 221 221 221 222 222 222 0 0 0;#P newex 600 711 35 196617 timer;#P message 600 749 126 196617 initmodules done in \$1 ms;#P number 163 120 35 9 0 0 0 3 0 0 0 221 221 221 222 222 222 0 0 0;#P message 473 732 106 196617 init /adc.11 ( \$1 ms);#P toggle 454 612 15 0;#P number 366 790 35 9 0 0 0 3 0 0 0 221 221 221 222 222 222 0 0 0;#P newex 366 770 35 196617 timer;#P newex 366 739 20 196617 t b;#P newex 473 658 170 196617 sprintf set init /%s.%ld in \\$1 ms.;#P newex 153 744 20 196617 t b;#P newex 172 704 44 196617 receive;#B color 11;#P newex 172 683 62 196617 prepend set;#P newex 172 662 131 196617 sprintf /%s.%ld/init/done;#P newex 153 770 50 196617 t resume;#P newex 50 222 80 196617 sel 30;#P newex 146 138 27 196617 + 1;#P newex 50 138 32 196617 del 1;#P newex 50 160 149 196617 t b start;#N coll t_config;#P newobj 50 79 53 196617 coll;#B color 5;#P number 146 182 35 9 0 0 0 3 0 0 0 221 221 221 222 222 222 0 0 0;#P newex 273 189 149 196617 t next b i;#P newex 50 118 108 196617 t b 1 b i;#P number 50 204 35 9 0 0 0 3 0 0 0 221 221 221 222 222 222 0 0 0;#N counter 1 30;#X flags 0 0;#P newobj 50 183 68 196617 counter 1 30;#P message 50 57 37 196617 length;#P number 50 100 35 9 0 0 0 3 0 0 0 221 221 221 222 222 222 0 0 0;#P message 380 132 17 196617 ct;#P message 425 80 48 196617 /camtrk;#P newex 454 754 29 196617 gate;#P newex 45 578 50 196617 deferlow;#P newex 248 37 48 196617 loadbang;#P message 248 59 78 196617 $1;#P message 375 80 43 196617 /movie;#P message 336 80 35 196617 /tape;#P message 268 80 62 196617 /tapemovie;#P newex 248 162 118 196617 sprintf refer %s_config;#P message 336 132 16 196617 m;#P message 292 132 14 196617 t;#P message 248 132 20 196617 tm;#P newex 248 109 187 196617 sel /tapemovie /tape /movie /camtrk;#P newex 45 556 20 196617 t b;#P button 21 40 15 0;#P newex 254 555 32 196617 sel 0;#P newex 454 779 145 196617 print $1;#P outlet 411 228 15 0;#P number 411 209 35 9 0 0 0 3 0 0 0 221 221 221 222 222 222 0 0 0;#P newex 50 293 50 196617 deferlow;#P newex 273 271 51 196617 zl slice 1;#P outlet 50 348 15 0;#P newex 344 627 36 196617 zl reg;#P newex 254 514 49 196617 zl rot -1;#P newex 273 311 44 196617 zl rot 1;#P newex 273 247 69 196617 route symbol;#P newex 273 291 82 196617 zl join;#P newex 345 247 69 196617 route symbol;#P newex 45 625 20 196617 t b;#N coll t_config;#P newobj 273 222 75 196617 coll;#B color 5;#P newex 254 535 57 196617 unpack 0 s;#P newex 344 695 68 196617 prepend send;#P newex 310 601 114 196617 t b b i pause;#P newex 344 668 105 196617 sprintf /%s.%ld/init;#P newex 276 575 45 196617 uzi;#P newex 310 720 47 196617 forward;#N comlet init dsp modules;#P inlet 21 22 15 0;#P comment 39 22 64 196617 init modules;#P comment 45 362 30 196617 done;#P comment 326 60 282 196617 arg 1 : environment name (i.e. /tapemovie \, /tape \, /movie) \;;#P connect 3 0 25 0;#P connect 5 1 26 0;#P connect 26 0 37 0;#P connect 37 0 11 0;#P connect 81 0 11 0;#P lcolor 1;#P connect 71 0 11 0;#P lcolor 1;#P connect 24 0 11 0;#P connect 84 0 11 0;#P lcolor 1;#P connect 25 0 74 0;#P connect 74 0 42 0;#P fasten 31 0 48 0 253 185 216 185 216 76 55 76;#P connect 42 0 48 0;#P connect 48 0 41 0;#P connect 41 0 45 0;#P connect 45 0 50 0;#P connect 50 0 49 0;#P connect 49 0 43 0;#P fasten 11 0 43 0 50 645 37 645 37 180 55 180;#P connect 43 0 44 0;#P connect 44 0 52 0;#P connect 52 0 20 0;#P connect 20 0 76 0;#P connect 76 0 18 0;#P connect 45 2 43 2;#P connect 51 0 43 4;#P connect 51 0 52 1;#P connect 45 3 51 0;#P connect 51 0 47 0;#P connect 74 1 75 0;#P lcolor 1;#P connect 76 1 75 0;#P lcolor 1;#P connect 75 0 57 0;#P connect 57 0 53 0;#P connect 64 0 51 1;#P connect 17 0 54 0;#P connect 54 0 55 0;#P connect 55 0 56 0;#P connect 56 0 75 1;#P connect 36 0 35 0;#P connect 35 0 27 0;#P connect 39 0 27 0;#P connect 34 0 27 0;#P connect 33 0 27 0;#P connect 32 0 27 0;#P connect 27 0 28 0;#P connect 29 0 31 0;#P connect 40 0 31 0;#P connect 28 0 31 0;#P connect 30 0 31 0;#P connect 86 0 85 0;#P connect 85 0 16 0;#P connect 16 0 9 0;#P connect 9 0 24 0;#P connect 52 1 46 0;#P connect 46 0 10 0;#P connect 49 1 10 0;#P connect 31 0 10 0;#P connect 10 0 14 0;#P connect 14 0 19 0;#P connect 14 1 19 0;#P connect 19 0 13 0;#P connect 13 0 15 0;#P connect 15 0 80 0;#P connect 80 0 81 0;#P connect 81 1 83 0;#P fasten 79 0 78 0 449 399 278 399;#P lcolor 1;#P connect 83 0 78 0;#P connect 78 0 77 0;#P connect 77 0 84 0;#P connect 24 1 5 0;#P connect 7 3 5 0;#P connect 53 0 5 0;#P connect 27 1 29 0;#P connect 7 2 54 1;#P connect 5 2 7 0;#P connect 8 0 4 0;#P connect 7 0 4 0;#P connect 77 1 82 0;#P connect 82 0 86 0;#P connect 27 2 30 0;#P connect 7 1 17 0;#P connect 17 0 6 0;#P connect 6 0 8 0;#P fasten 10 1 12 0 299 243 350 243;#P connect 12 0 13 1;#P connect 83 1 86 1;#P connect 10 1 70 0;#P connect 17 0 59 0;#P connect 59 0 60 0;#P connect 60 0 61 0;#P connect 9 1 17 1;#P connect 80 1 85 1;#P connect 27 3 40 0;#P connect 57 0 60 1;#P connect 46 1 71 0;#P connect 70 0 71 0;#P connect 46 2 21 0;#P connect 21 0 22 0;#P connect 7 2 6 1;#P connect 28 0 79 0;#P connect 29 0 79 0;#P connect 30 0 79 0;#P connect 40 0 79 0;#P connect 35 0 72 0;#P lcolor 1;#P connect 72 0 73 0;#P connect 73 0 62 0;#P connect 62 0 38 0;#P connect 38 0 23 0;#P fasten 65 0 23 0 605 774 459 774;#P connect 68 0 23 0;#P connect 17 0 58 0;#P connect 61 0 63 0;#P connect 58 0 63 0;#P connect 63 0 38 1;#P connect 74 2 69 0;#P lcolor 1;#P connect 69 0 68 0;#P connect 69 1 66 0;#P connect 66 0 67 0;#P connect 67 0 65 0;#P connect 76 2 66 1;#P lcolor 1;#P connect 7 2 58 1;#P pop;