max v2;#N vpatcher 500 106 1033 862;#P window setfont "Sans Serif" 9.;#P hidden newex 794 254 62 196617 prepend set;#P hidden newex 794 233 94 196617 v /movie/verbose;#B color 5;#P hidden newex 794 212 48 196617 loadbang;#P hidden newex 794 279 70 196617 pvar verbose;#B color 5;#P hidden newex 794 298 107 196617 vari /movie/verbose;#B color 5;#P user radiogroup 499 69 18 16;#X size 1;#X offset 16;#X inactive 0;#X itemtype 1;#X flagmode 0;#X set 1;#X done;#P objectname verbose;#P comment 454 71 52 196617 /verbose;#P hidden newex 816 80 57 196617 pvar clear;#B color 14;#P hidden button 440 71 13 0;#P objectname clear;#P hidden comment 433 61 33 196617 clear;#P hidden newex 592 437 83 196617 pvar configlcd 3;#P hidden newex 683 200 53 196617 closebang;#P hidden comment 699 62 78 196617 draw / redraw;#P window setfont "Sans Serif" 10.;#P comment 206 76 12 196618 |;#P comment 206 69 12 196618 |;#P comment 151 76 12 196618 |;#P comment 151 69 12 196618 |;#P comment 101 76 12 196618 |;#P comment 101 69 12 196618 |;#P comment 23 76 12 196618 |;#P comment 23 69 12 196618 |;#P comment 158 73 35 196618 TYPE;#P comment 109 73 26 196618 CAT;#P window setfont "Sans Serif" 9.;#P window linecount 0;#P comment 1 2802 100 196617;#P window linecount 1;#P hidden comment 780 65 54 196617 line space;#P hidden number 772 83 35 9 0 0 0 3 0 0 0 221 221 221 222 222 222 0 0 0;#P window setfont "Sans Serif" 12.;#N vpatcher 66 148 836 866;#P window setfont "Sans Serif" 9.;#P window linecount 1;#P newex 450 598 27 196617 -;#P window linecount 2;#P comment 577 612 109 196617 new erase methode compatible with max5;#P window linecount 1;#P newex 525 598 27 196617 + 2;#P newex 454 550 27 196617 -;#P number 525 620 35 9 0 0 0 3 0 0 0 221 221 221 222 222 222 0 0 0;#P number 486 619 35 9 0 0 0 3 0 0 0 221 221 221 222 222 222 0 0 0;#P number 450 619 35 9 0 0 0 3 0 0 0 221 221 221 222 222 222 0 0 0;#P button 384 616 15 0;#P newex 384 650 209 196617 pack paintrect 1 100 120 120 255 255 255;#P newex 223 136 46 196617 t l l;#P newex 102 336 65 196617 t writeagain;#P newex 287 507 45 196617 rounder;#P newex 287 487 34 196617 / 16.;#P newex 572 326 27 196617 / 2;#P newex 493 360 27 196617 + 4;#P newex 247 498 27 196617 - 2;#P newex 512 175 27 196617 - 4;#P window linecount 0;#P newex 248 207 51 196617 zl ecils 2;#P message 343 111 50 196617 0;#P newex 343 89 62 196617 prepend set;#P toggle 439 92 15 0;#P toggle 102 271 15 0;#N comlet length;#P inlet 589 389 15 0;#N comlet num col width;#P inlet 512 152 15 0;#P comment 527 152 72 196617 num col width;#N comlet line space;#P inlet 572 238 15 0;#N comlet left margin;#P inlet 236 441 15 0;#P comment 251 442 60 196617 left margin;#P number 572 260 35 9 0 0 0 3 0 0 0 221 221 221 222 222 222 0 0 0;#P newex 102 314 78 196617 t b l;#P number 160 272 35 9 0 0 0 3 0 0 0 221 221 221 222 222 222 0 0 0;#P newex 185 248 40 196617 +;#P newex 185 227 32 196617 * 10;#P newex 185 207 40 196617 unpack;#P newex 160 185 99 196617 gate 3;#P newex 160 165 34 196617 zl len;#P newex 223 116 46 196617 zl group;#P newex 223 95 30 196617 - 48;#P newex 223 75 60 196617 split 48 57;#P button 175 98 15 0;#P number 175 37 35 9 0 0 0 3 0 0 0 221 221 221 222 222 222 0 0 0;#P newex 175 55 58 196617 route 3 13;#P newex 175 17 40 196617 key;#P newex 572 304 27 196617 / 2;#P newex 493 340 27 196617 - 8;#P newex 572 281 49 196617 t i i;#P message 125 582 56 196617 frgb 0 0 0;#P newex 49 495 27 196617 t i b;#P newex 49 473 27 196617 i;#P message 307 600 69 196617 textface bold;#P message 176 559 68 196617 frgb 255 0 0;#P newex 147 450 27 196617 t i b;#P newex 49 582 73 196617 prepend write;#P newex 175 631 103 196617 s m_configedit-tolcd;#B color 11;#P message 274 582 92 196617 frgb 255 255 255;#P newex 210 518 27 196617 i;#P newex 193 434 27 196617 t i b;#P newex 184 582 81 196617 prepend moveto;#P newex 210 538 47 196617 pack;#P newex 170 395 27 196617 t i b;#P message 402 375 80 196617 set -99999999;#P newex 349 415 40 196617 change;#P newex 102 290 68 196617 gate;#N coll m_config 1;#P newobj 170 360 79 196617 coll m_config 1;#B color 5;#P newex 560 184 32 196617 sel 0;#P newex 439 64 122 196617 r m_configedit-fromlcd3;#B color 11;#P newex 439 127 29 196617 gate;#P button 534 289 15 0;#P newex 439 287 27 196617 t i i;#P newex 349 312 29 196617 gate;#P button 515 289 15 0;#P newex 496 266 41 196617 sel 1 0;#P newex 496 243 40 196617 change;#P number 349 376 35 9 0 0 0 3 0 0 0 221 221 221 222 222 222 0 0 0;#P newex 439 161 39 196617 swap;#P newex 349 354 27 196617 !-;#P number 405 315 35 9 0 0 0 3 0 0 0 221 221 221 222 222 222 0 0 0;#P newex 451 309 55 196617 first-thru;#B color 6;#P newex 349 477 50 196617 clip 0 20;#P number 247 519 35 9 0 0 0 3 0 0 0 221 221 221 222 222 222 0 0 0;#P newex 247 478 32 196617 * 16;#P message 170 336 64 196617 sub \$2 1 \$1;#P newex 349 499 46 196617 zl join;#P newex 415 509 69 196617 route symbol;#P newex 349 437 27 196617 +;#P number 493 537 35 9 0 0 0 3 0 0 0 221 221 221 222 222 222 0 0 0;#N coll m_config 1;#P newobj 493 516 79 196617 coll m_config 1;#B color 5;#P number 493 466 35 9 0 0 0 3 0 0 0 221 221 221 222 222 222 0 0 0;#P newex 349 395 27 196617 / 5;#P number 349 458 35 9 0 0 0 3 0 0 0 221 221 221 222 222 222 0 0 0;#P number 349 333 35 9 0 0 0 3 0 0 0 221 221 221 222 222 222 0 0 0;#P newex 512 221 21 196617 t 0;#P newex 493 424 56 196617 clip 1 999;#P newex 468 220 21 196617 t 1;#P newex 468 200 54 196617 split 0 25;#P newex 458 93 122 196617 r m_configedit-fromlcd1;#B color 11;#P newex 493 403 27 196617 + 1;#P newex 493 445 40 196617 change;#N coll m_configeditnums 1;#P newobj 493 487 119 196617 coll m_configeditnums 1;#B color 5;#P newex 493 383 31 196617 / 16;#P number 439 243 35 9 0 0 0 3 0 0 0 221 221 221 222 222 222 0 0 0;#P number 468 182 35 9 0 0 0 3 0 0 0 221 221 221 222 222 222 0 0 0;#P comment 603 390 50 196617 <- length;#P comment 607 260 67 196617 <- line space;#P connect 36 0 55 0;#P connect 55 0 56 0;#P connect 56 0 51 0;#P connect 52 0 51 0;#P connect 47 0 51 0;#P connect 44 0 55 1;#P connect 31 0 82 0;#P connect 82 0 41 0;#P connect 41 0 74 0;#P fasten 21 0 74 0 354 522 340 522 340 310 107 310;#P connect 74 0 93 0;#P connect 56 1 57 0;#P connect 44 0 52 0;#P connect 94 1 68 0;#P connect 68 0 69 0;#P connect 72 0 73 0;#P connect 69 0 73 0;#P connect 73 0 41 1;#P connect 74 1 22 0;#P connect 22 0 40 0;#P fasten 93 0 40 0 107 356 175 356;#P connect 40 0 44 0;#P connect 61 0 63 0;#P connect 63 0 62 0;#P connect 62 1 64 0;#P connect 62 0 64 0;#P connect 95 0 50 0;#P connect 57 0 50 0;#P connect 54 0 50 0;#P connect 53 0 50 0;#P connect 51 0 50 0;#P connect 46 0 50 0;#P connect 49 0 50 0;#P connect 52 1 53 0;#P connect 45 0 46 0;#P connect 69 1 70 0;#P connect 86 1 70 0;#P connect 70 0 71 0;#P connect 71 0 72 0;#P connect 56 1 48 0;#P connect 52 1 48 0;#P connect 47 1 48 0;#P connect 48 0 45 0;#P connect 70 1 72 1;#P connect 62 2 65 0;#P connect 65 0 66 0;#P connect 64 0 67 0;#P connect 66 0 67 0;#P connect 67 0 94 0;#P connect 77 0 48 1;#P connect 16 0 23 0;#P connect 23 0 88 0;#P connect 88 0 24 0;#P connect 24 0 45 1;#P connect 69 2 86 0;#P connect 94 0 69 1;#P connect 92 0 88 1;#P connect 75 0 23 1;#P connect 47 1 49 0;#P connect 75 0 91 0;#P connect 91 0 92 0;#P connect 52 1 54 0;#P connect 38 0 84 0;#P connect 84 0 85 0;#P connect 31 0 34 0;#P connect 34 0 13 0;#P connect 13 0 28 0;#P connect 28 0 30 0;#P connect 30 0 15 0;#P connect 43 0 42 0;#P connect 15 0 42 0;#P connect 42 0 19 0;#P connect 19 0 14 0;#P connect 14 0 25 0;#P connect 25 0 21 0;#P connect 27 0 28 1;#P connect 18 0 19 1;#P connect 35 0 34 1;#P connect 56 1 96 0;#P connect 44 1 96 0;#P connect 96 0 95 0;#P connect 20 0 21 1;#P connect 32 1 43 0;#P connect 26 0 27 0;#P connect 5 0 20 0;#P connect 38 0 83 0;#P connect 83 0 37 0;#P connect 12 0 37 0;#P connect 37 0 29 0;#P connect 29 0 3 0;#P connect 3 0 35 0;#P connect 97 0 95 2;#P connect 23 0 103 0;#P connect 103 0 97 0;#P connect 35 1 26 0;#P connect 75 0 100 0;#P connect 8 0 37 1;#P connect 100 0 103 1;#P connect 29 1 2 0;#P connect 2 0 9 0;#P connect 9 0 10 0;#P connect 98 0 95 3;#P connect 90 0 100 1;#P connect 87 0 98 0;#P connect 27 0 59 0;#P connect 59 0 89 0;#P connect 89 0 4 0;#P connect 4 0 7 0;#P connect 7 0 11 0;#P connect 11 0 6 0;#P connect 43 0 6 0;#P connect 6 0 16 0;#P connect 16 0 5 0;#P connect 5 0 17 0;#P connect 17 0 18 0;#P connect 10 0 31 0;#P connect 12 0 31 0;#P connect 31 0 32 0;#P connect 32 0 26 1;#P connect 99 0 95 4;#P connect 60 0 59 1;#P connect 90 0 89 1;#P connect 80 0 87 0;#P connect 87 0 9 2;#P connect 9 1 12 0;#P connect 39 0 12 0;#P fasten 58 1 4 1 616 381 519 381;#P connect 32 0 33 0;#P connect 23 0 101 0;#P connect 101 0 99 0;#P connect 32 1 36 0;#P connect 81 0 11 2;#P fasten 83 0 39 0 444 119 565 119;#P lcolor 7;#P connect 78 0 75 0;#P connect 75 0 58 0;#P connect 58 0 60 0;#P connect 60 0 90 0;#P pop;#P hidden newobj 728 131 97 196620 p edit;#B color 6;#P hidden button 728 80 15 0;#N vpatcher 553 123 1279 842;#P window setfont "Sans Serif" 9.;#P message 564 64 14 196617 1;#N comlet clear;#P inlet 564 24 15 0;#P button 564 44 15 0;#P window linecount 1;#P comment 578 24 33 196617 clear;#P number 595 158 35 9 0 0 0 3 0 0 0 221 221 221 222 222 222 0 0 0;#P newex 595 135 45 196617 rounder;#P newex 595 113 34 196617 / 16.;#P number 546 158 35 9 0 0 0 3 0 0 0 221 221 221 222 222 222 0 0 0;#P newex 546 135 45 196617 rounder;#P newex 546 113 27 196617 / 8.;#P number 496 150 35 9 0 0 0 3 0 0 0 221 221 221 222 222 222 0 0 0;#P newex 545 405 40 196617 t b 0 i;#P newex 545 383 27 196617 i;#P newex 499 383 27 196617 i;#P newex 644 353 35 196617 t 100;#P newex 608 353 35 196617 t 200;#P newex 608 332 83 196617 route gl jmatrix;#P newex 608 310 44 196617 zl nth 3;#P newex 453 383 27 196617 i;#P newex 499 405 40 196617 t b 0 i;#P window linecount 0;#P newex 453 405 40 196617 t b 0 i;#P newex 453 436 135 196617 pack frgb 0 0 0;#P window linecount 1;#P newex 248 586 20 196617 t b;#P message 248 607 56 196617 frgb 0 0 0;#P newex 453 350 150 196617 route source output effect;#P newex 453 328 44 196617 zl nth 2;#P newex 343 138 20 196617 t b;#P window linecount 0;#P newex 431 63 68 196617 t b b i;#P window linecount 1;#P newex 317 430 27 196617 - 2;#P newex 29 595 27 196617 - 4;#P newex 29 575 27 196617 i;#P newex 29 617 30 196617 pack;#P window linecount 0;#P message 29 639 182 196617 frgb 0 0 0 \, moveto \$1 0 \, lineto \$1 \$2;#P window linecount 1;#P newex 127 541 27 196617 + 2;#P window linecount 0;#P newex 185 541 27 196617 + 2;#P newex 489 124 27 196617 / 8;#P window linecount 1;#P newex 77 587 73 196617 prepend lineto;#P newex 165 587 81 196617 prepend moveto;#P newex 77 564 60 196617 pack 512 0;#P newex 165 564 30 196617 pack;#N comlet line space;#P inlet 431 24 15 0;#N comlet draw / redraw;#P inlet 229 24 15 0;#N comlet num col width;#P outlet 104 463 15 0;#N comlet left margin;#P outlet 60 413 15 0;#N comlet line space;#P outlet 369 97 15 0;#N comlet length out;#P outlet 387 240 15 0;#P window linecount 0;#P comment 74 477 72 196617 num col width;#P comment 42 399 60 196617 left margin;#P comment 447 24 54 196617 line space;#P message 485 476 56 196617 frgb 0 0 0;#P message 260 496 82 196617 textface normal;#P message 189 496 69 196617 textface bold \, frgb 0 0 0;#P newex 104 439 27 196617 +;#P newex 13 298 51 196617 zl slice 1;#P button 229 44 15 0;#N vpatcher 30 89 329 579;#N comlet bang;#P inlet 50 27 15 0;#N comlet done;#P outlet 178 440 15 0;#P window setfont "Sans Serif" 9.;#N coll m_config 1;#P newobj 50 412 79 196617 coll m_config 1;#B color 5;#P newex 50 272 149 196617 t dump clear;#P newex 50 388 72 196617 prepend store;#P newex 83 325 69 196617 route symbol;#P newex 50 367 44 196617 zl rot 1;#P newex 50 346 43 196617 zl join;#P button 50 50 15 0;#N coll ;#P newobj 50 298 110 196617 coll;#B color 5;#N coll m_config 1;#P newobj 106 171 90 196617 coll m_config 1;#B color 5;#P newex 91 145 40 196617 t s s 0;#P newex 91 248 72 196617 prepend store;#P newex 91 228 40 196617 zl join;#P newex 91 122 69 196617 route symbol;#P newex 50 72 172 196617 t dump clear;#N coll m_modules 1;#P newobj 50 94 133 196617 coll m_modules 1;#B color 5;#P connect 16 0 8 0;#P connect 8 0 1 0;#P connect 1 0 0 0;#P fasten 0 3 13 0 178 116 55 116;#P lcolor 7;#P connect 4 0 7 0;#P fasten 1 1 7 0 217 294 55 294;#P lcolor 6;#P connect 13 0 7 0;#P connect 7 0 9 0;#P connect 9 0 10 0;#P connect 10 0 12 0;#P fasten 13 1 14 0 194 408 55 408;#P connect 12 0 14 0;#P connect 7 1 11 0;#P connect 11 0 9 1;#P connect 0 1 2 0;#P connect 2 0 5 0;#P connect 5 0 3 0;#P connect 3 0 4 0;#P connect 5 1 6 0;#P connect 6 0 3 1;#P connect 5 2 3 1;#P connect 7 3 15 0;#P pop;#P newobj 229 67 89 196617 p clean-up_config;#B color 6;#P message 352 352 33 196617 clear;#P newex 302 352 38 196617 zl join;#P newex 278 296 32 196617 * 16;#N counter 1 99;#X flags 0 0;#P newobj 278 251 68 196617 counter 1 99;#N coll m_configeditnums 1;#P newobj 323 378 119 196617 coll m_configeditnums 1;#B color 5;#P newex 255 162 54 196617 t s b s;#P newex 146 482 32 196617 sel 0;#P newex 378 406 20 196617 t b;#P message 356 475 88 196617 font Helvetica 10;#P number 13 324 35 9 0 0 0 3 0 0 0 221 221 221 222 222 222 0 0 0;#P newex 33 352 112 196617 t i b;#P newex 94 411 29 196617 t 10;#N coll m_config 1;#P newobj 13 273 79 196617 coll m_config 1;#B color 5;#P newex 409 257 27 196617 + 2;#P message 409 297 64 196617 size 512 \$1;#P number 409 278 35 9 0 0 0 3 0 0 0 221 221 221 222 222 222 0 0 0;#P newex 409 237 32 196617 * 16;#P number 409 218 35 9 0 0 0 3 0 0 0 221 221 221 222 222 222 0 0 0;#P message 409 179 37 196617 length;#N coll m_modules 1;#P newobj 409 197 88 196617 coll m_modules 1;#B color 5;#P button 409 148 15 0;#P newex 239 435 21 196617 t 0;#P newex 69 440 20 196617 t b;#P newex 146 461 75 196617 accum;#P number 431 44 35 9 0 0 0 3 0 0 0 221 221 221 222 222 222 0 0 0;#P newex 229 411 29 196617 t 55;#P newex 190 411 29 196617 t 50;#P newex 158 411 29 196617 t 80;#P newex 127 411 29 196617 t 20;#P newex 149 378 111 196617 sel 1 2 3 4 5;#P newex 157 246 27 196617 t l l;#P newex 67 329 109 196617 t s b;#P newex 174 297 47 196617 zl iter 1;#P newex 107 297 51 196617 zl ecils 1;#P newex 174 274 51 196617 zl slice 3;#N counter 1 99;#X flags 0 0;#P newobj 166 352 88 196617 counter 1 99;#P newex 272 475 81 196617 prepend moveto;#P newex 272 454 30 196617 pack;#P message 449 475 33 196617 clear;#P newex 229 115 183 196617 t dump 0 b b;#P newex 33 491 73 196617 prepend write;#P newex 272 674 103 196617 s m_configedit-tolcd;#B color 11;#P newex 229 245 44 196617 zl rot 1;#P newex 229 224 38 196617 zl join;#P newex 299 185 69 196617 route symbol;#N coll m_modules 1;#P newobj 229 138 88 196617 coll m_modules 1;#B color 5;#P comment 243 24 78 196617 draw / redraw;#P connect 41 0 34 0;#P connect 34 0 49 0;#P connect 49 0 37 0;#P connect 40 0 72 0;#P connect 72 0 73 0;#P connect 73 0 71 0;#P connect 71 0 70 0;#P connect 37 0 36 0;#P connect 36 0 6 0;#P connect 15 0 6 0;#P connect 50 0 72 1;#P connect 31 0 71 1;#P connect 35 0 59 0;#P connect 13 1 15 0;#P connect 14 0 15 0;#P connect 19 0 24 0;#P connect 20 0 24 0;#P connect 35 0 24 0;#P connect 18 0 24 0;#P connect 21 0 24 0;#P connect 40 0 64 0;#P connect 64 0 66 0;#P connect 17 0 35 0;#P connect 35 0 50 0;#P connect 50 0 60 0;#P connect 16 0 13 0;#P connect 18 0 50 1;#P connect 17 1 18 0;#P connect 44 0 69 0;#P connect 69 0 64 1;#P connect 95 0 69 1;#P connect 7 1 23 0;#P connect 25 0 23 0;#P connect 24 0 23 0;#P connect 23 0 40 0;#P connect 11 0 17 0;#P connect 4 0 16 0;#P connect 17 2 19 0;#P connect 40 0 63 0;#P connect 63 0 65 0;#P connect 15 1 11 0;#P connect 36 1 11 0;#P connect 16 1 12 0;#P connect 12 0 14 0;#P connect 19 0 23 1;#P connect 21 0 23 1;#P connect 20 0 23 1;#P connect 35 0 23 1;#P connect 18 0 23 1;#P connect 44 0 68 0;#P connect 68 0 63 1;#P connect 36 1 51 0;#P connect 17 3 20 0;#P connect 95 0 68 1;#P connect 76 0 11 2;#P connect 41 1 11 2;#P connect 61 0 48 0;#P connect 75 1 48 0;#P connect 48 0 47 0;#P connect 47 0 7 0;#P connect 75 0 7 0;#P connect 7 0 1 0;#P connect 1 0 3 0;#P connect 3 0 4 0;#P connect 17 4 21 0;#P connect 41 1 25 0;#P connect 63 0 80 0;#P connect 80 0 79 0;#P connect 1 1 41 0;#P connect 2 0 3 1;#P connect 15 1 52 0;#P connect 40 1 9 0;#P connect 9 0 10 0;#P connect 70 0 5 0;#P connect 66 0 5 0;#P connect 53 0 5 0;#P connect 51 0 5 0;#P connect 52 0 5 0;#P connect 8 0 5 0;#P connect 32 0 5 0;#P connect 38 0 5 0;#P connect 10 0 5 0;#P connect 6 0 5 0;#P connect 65 0 5 0;#P connect 79 0 5 0;#P connect 81 0 5 0;#P connect 41 1 43 0;#P connect 43 0 44 0;#P connect 74 0 9 1;#P connect 41 2 2 0;#P connect 75 2 44 1;#P connect 43 0 45 0;#P connect 76 0 43 2;#P connect 44 0 74 0;#P connect 46 0 42 0;#P connect 45 0 42 0;#P connect 2 0 45 1;#P connect 98 0 74 1;#P connect 100 0 76 0;#P connect 7 2 76 0;#P connect 26 0 46 0;#P connect 39 0 38 0;#P connect 75 2 58 0;#P connect 76 0 39 0;#P connect 29 0 57 0;#P connect 7 3 26 0;#P connect 26 0 28 0;#P connect 28 0 27 0;#P connect 27 0 29 0;#P connect 29 0 30 0;#P connect 102 0 30 0;#P connect 30 0 33 0;#P connect 33 0 31 0;#P connect 31 0 32 0;#P connect 62 0 22 0;#P connect 22 0 75 0;#P connect 75 2 30 1;#P connect 39 0 8 0;#P connect 12 0 77 0;#P connect 77 0 78 0;#P connect 78 0 84 0;#P connect 84 0 82 0;#P connect 82 0 81 0;#P connect 83 0 81 0;#P connect 91 0 81 0;#P connect 87 0 84 1;#P connect 88 0 84 1;#P connect 39 0 53 0;#P connect 75 2 67 0;#P connect 83 1 81 1;#P connect 91 1 81 1;#P connect 82 2 81 1;#P connect 67 0 92 0;#P connect 78 1 89 0;#P connect 89 0 83 0;#P connect 87 0 89 1;#P connect 88 0 89 1;#P connect 82 1 81 2;#P connect 83 2 81 2;#P connect 91 1 81 2;#P connect 78 2 90 0;#P connect 90 0 91 0;#P connect 75 2 93 0;#P connect 93 0 94 0;#P connect 94 0 95 0;#P connect 87 0 90 1;#P connect 88 0 90 1;#P connect 101 0 100 0;#P connect 100 0 102 0;#P connect 91 2 81 3;#P connect 82 1 81 3;#P connect 83 1 81 3;#P connect 75 2 96 0;#P connect 96 0 97 0;#P connect 97 0 98 0;#P connect 12 0 85 0;#P connect 85 0 86 0;#P connect 86 0 87 0;#P connect 86 1 88 0;#P pop;#P hidden newobj 728 102 99 196620 p draw/redraw;#B color 6;#P window setfont "Sans Serif" 9.;#P hidden newex 592 482 122 196617 s m_configedit-fromlcd3;#B color 11;#P hidden newex 592 417 103 196617 r m_configedit-tolcd;#B color 11;#P hidden newex 592 458 122 196617 s m_configedit-fromlcd1;#B color 11;#P user lcd 1 89 512 744 0 1 0 0 0;#P objectname configlcd;#P hidden button 543 47 15 0;#N thispatcher;#Q end;#P hidden newobj 591 242 61 196617 thispatcher;#B color 5;#P hidden newex 591 223 195 196617 editorwindow /movie/config /tapemovie;#B color 5;#P hidden message 543 177 33 196617 clean;#P hidden newex 543 119 50 196617 deferlow;#P hidden button 543 148 15 0;#P hidden message 591 180 245 196617 script sendtoback init2 \, script sendtoback shortcuts;#N thispatcher;#Q end;#P hidden newobj 591 198 61 196617 thispatcher;#P hidden newex 543 27 48 196617 loadbang;#P window linecount 3;#P hidden message 596 80 124 196617 14 \; /movie/init2/sw 1 \; /movie/shortcuts/sw 1 \;;#P window linecount 1;#P hidden newex 699 362 50 196617 t write b;#P hidden newex 699 341 102 196617 pvar writeshortcuts;#B color 14;#P hidden newex 592 341 97 196617 pvar openshortcuts;#B color 14;#P hidden newex 592 362 37 196617 t open;#P hidden newex 592 386 166 196617 s /tapemovie/m_shortcuts/editor;#B color 12;#P hidden newex 699 319 84 196617 s m_init2/write;#B color 12;#P hidden newex 699 298 20 196617 t b;#P hidden newex 699 278 80 196617 pvar writeinit2;#B color 14;#P hidden newex 592 298 20 196617 t b;#P hidden newex 592 319 79 196617 s m_init2/open;#B color 12;#P hidden newex 592 278 75 196617 pvar openinit2;#B color 14;#P comment 296 42 213 196617 Write (save) movie shortcuts file to disk;#P window setfont Times 9.;#P message 265 23 31 1310729 Open;#B color 9;#P objectname openshortcuts;#P message 265 41 31 1310729 Write;#B color 13;#P objectname writeshortcuts;#P window setfont "Sans Serif" 9.;#P comment 296 24 194 196617 Open movie shortcuts file for editing;#P comment 40 42 191 196617 Write (save) movie init2 file to disk;#P window setfont Times 9.;#P message 9 23 31 1310729 Open;#B color 9;#P objectname openinit2;#P message 9 41 31 1310729 Write;#B color 13;#P objectname writeinit2;#P window setfont "Sans Serif" 9.;#P comment 40 24 172 196617 Open movie init2 file for editing;#P window setfont "Sans Serif" 10.;#P comment 213 73 76 196618 DESCRIPTION;#P comment 5 73 19 196618 NB;#P comment 28 73 35 196618 NAME;#P window setfont "Sans Serif" 9.;#P window linecount 0;#P comment 0 1 100 196617;#P window linecount 1;#P hidden newex 767 386 130 196617 s /movie/shortcuts/reset;#B color 12;#P bpatcher 1 2 256 62 0 0 bkgnd-.mxt 0 /movie/init2 0;#P background;#P objectname init2;#P bpatcher 257 2 256 62 0 0 bkgnd-.mxt 0 /movie/shortcuts 0;#P background;#P objectname shortcuts;#P hidden connect 27 0 35 0;#P hidden connect 35 0 31 0;#P hidden connect 31 0 30 0;#P hidden connect 30 0 32 0;#P hidden connect 30 0 29 0;#P hidden connect 29 0 28 0;#P hidden connect 32 0 28 0;#P hidden fasten 34 0 33 0 596 262 585 262 585 219 596 219;#P hidden connect 33 0 34 0;#P hidden connect 15 0 17 0;#P hidden connect 17 0 16 0;#P hidden connect 23 0 22 0;#P hidden connect 22 0 21 0;#P hidden connect 25 0 21 0;#P hidden connect 38 0 58 0;#P hidden connect 58 0 37 0;#P hidden fasten 58 2 39 0 669 478 597 478;#P hidden connect 35 0 26 0;#P hidden connect 57 0 33 1;#P hidden connect 18 0 19 0;#P hidden connect 19 0 20 0;#P hidden connect 24 0 25 0;#P hidden connect 41 0 40 0;#P hidden connect 40 0 42 0;#P hidden connect 40 1 42 1;#P hidden connect 25 1 2 0;#P hidden fasten 26 0 43 0 601 130 723 130 723 73 777 73;#P hidden connect 43 0 40 1;#P hidden connect 35 0 33 2;#P hidden connect 40 2 42 2;#P hidden connect 66 0 67 0;#P hidden connect 67 0 68 0;#P hidden connect 68 0 65 0;#P hidden fasten 64 0 65 0 799 320 790 320 790 274 799 274;#P hidden connect 65 0 64 0;#P hidden connect 40 3 42 3;#P connect 61 0 40 2;#P pop;