max v2;#N vpatcher 0 44 531 715;#P button 499 66 15 0;#P window setfont "Sans Serif" 9.;#P window linecount 1;#P hidden comment 844 62 33 196617 clear;#P hidden button 844 80 15 0;#P hidden comment 708 62 78 196617 draw / redraw;#P window setfont "Sans Serif" 10.;#P comment 207 76 12 196618 |;#P comment 207 69 12 196618 |;#P comment 152 76 12 196618 |;#P comment 152 69 12 196618 |;#P comment 102 76 12 196618 |;#P comment 102 69 12 196618 |;#P comment 24 76 12 196618 |;#P comment 24 69 12 196618 |;#P comment 159 73 35 196618 TYPE;#P comment 110 73 26 196618 CAT;#P window setfont "Sans Serif" 9.;#P window linecount 0;#P comment 2 2802 100 196617;#P window linecount 1;#P hidden comment 789 70 54 196617 line space;#P hidden number 781 83 35 9 0 0 0 3 0 0 0 221 221 221 222 222 222 0 0 0;#P window setfont "Sans Serif" 12.;#N vpatcher 707 177 1385 850;#P window setfont "Sans Serif" 9.;#P window linecount 1;#P newex 254 504 45 196617 rounder;#P newex 254 484 34 196617 / 16.;#P newex 539 323 27 196617 / 2;#P newex 460 357 27 196617 + 4;#P newex 214 495 27 196617 - 2;#P newex 479 172 27 196617 - 4;#P window linecount 0;#P newex 215 205 51 196617 zl ecils 2;#P message 310 108 50 196617 0;#P newex 310 86 62 196617 prepend set;#P toggle 406 89 15 0;#P toggle 96 280 15 0;#N comlet length;#P inlet 556 386 15 0;#N comlet num col width;#P inlet 479 149 15 0;#P comment 494 149 72 196617 num col width;#N comlet line space;#P inlet 539 235 15 0;#N comlet left margin;#P inlet 203 438 15 0;#P comment 218 439 60 196617 left margin;#P number 539 257 35 9 0 0 0 3 0 0 0 221 221 221 222 222 222 0 0 0;#P newex 96 318 51 196617 t b i;#P number 127 274 35 9 0 0 0 3 0 0 0 221 221 221 222 222 222 0 0 0;#P newex 152 248 40 196617 +;#P newex 152 227 32 196617 * 10;#P newex 152 207 40 196617 unpack;#P newex 127 184 99 196617 gate 3;#P newex 237 158 34 196617 zl len;#P newex 166 128 46 196617 zl group;#P newex 166 107 30 196617 - 48;#P newex 166 86 60 196617 split 48 57;#P button 142 104 15 0;#P number 142 43 35 9 0 0 0 3 0 0 0 221 221 221 222 222 222 0 0 0;#P newex 142 61 58 196617 route 3 13;#P newex 142 23 40 196617 key;#P newex 539 301 27 196617 / 2;#P newex 460 337 27 196617 - 8;#P newex 539 278 49 196617 t i i;#P message 92 579 56 196617 frgb 0 0 0;#P newex 16 492 27 196617 t i b;#P newex 16 470 27 196617 i;#P message 274 597 69 196617 textface bold;#P message 143 556 68 196617 frgb 255 0 0;#P newex 114 447 27 196617 t i b;#P newex 16 579 73 196617 prepend write;#P newex 142 628 103 196617 s m_configedit-tolcd;#B color 11;#P message 241 579 92 196617 frgb 255 255 255;#P newex 177 515 27 196617 i;#P newex 160 431 27 196617 t i b;#P newex 151 579 81 196617 prepend moveto;#P newex 177 535 47 196617 pack;#P newex 137 403 33 196617 swap;#P newex 137 381 55 196617 zl group 2;#P message 369 372 80 196617 set -99999999;#P newex 316 412 40 196617 change;#P newex 96 298 41 196617 gate;#N coll m_config 1;#P newobj 137 357 79 196617 coll m_config 1;#B color 5;#P newex 527 181 32 196617 sel 0;#P newex 406 61 122 196617 r m_configedit-fromlcd3;#B color 11;#P newex 406 124 29 196617 gate;#P button 501 286 15 0;#P newex 406 284 27 196617 t i i;#P newex 316 309 29 196617 gate;#P button 482 286 15 0;#P newex 463 263 41 196617 sel 1 0;#P newex 463 240 40 196617 change;#P number 316 373 35 9 0 0 0 3 0 0 0 221 221 221 222 222 222 0 0 0;#P newex 406 158 39 196617 swap;#P newex 316 351 27 196617 !-;#P number 372 312 35 9 0 0 0 3 0 0 0 221 221 221 222 222 222 0 0 0;#P newex 418 306 55 196617 first-thru;#B color 6;#P newex 316 474 50 196617 clip 0 20;#P number 214 516 35 9 0 0 0 3 0 0 0 221 221 221 222 222 222 0 0 0;#P newex 214 475 32 196617 * 16;#P message 137 338 83 196617 \$2 \, sub \$2 1 \$1;#P newex 316 496 46 196617 zl join;#P newex 382 506 69 196617 route symbol;#P newex 316 434 27 196617 +;#P number 460 534 35 9 0 0 0 3 0 0 0 221 221 221 222 222 222 0 0 0;#N coll m_config 1;#P newobj 460 513 79 196617 coll m_config 1;#B color 5;#P number 460 463 35 9 0 0 0 3 0 0 0 221 221 221 222 222 222 0 0 0;#P newex 316 392 27 196617 / 5;#P number 316 455 35 9 0 0 0 3 0 0 0 221 221 221 222 222 222 0 0 0;#P number 316 330 35 9 0 0 0 3 0 0 0 221 221 221 222 222 222 0 0 0;#P newex 479 218 21 196617 t 0;#P newex 460 421 56 196617 clip 1 999;#P newex 435 217 21 196617 t 1;#P newex 435 197 54 196617 split 0 25;#P newex 425 90 122 196617 r m_configedit-fromlcd1;#B color 11;#P newex 460 400 27 196617 + 1;#P newex 460 442 40 196617 change;#N coll m_configeditnums 1;#P newobj 460 484 119 196617 coll m_configeditnums 1;#B color 5;#P newex 460 380 31 196617 / 16;#P number 406 240 35 9 0 0 0 3 0 0 0 221 221 221 222 222 222 0 0 0;#P number 435 179 35 9 0 0 0 3 0 0 0 221 221 221 222 222 222 0 0 0;#P comment 570 387 50 196617 <- length;#P comment 574 257 67 196617 <- line space;#P connect 36 0 56 0;#P connect 56 0 57 0;#P connect 57 0 52 0;#P connect 53 0 52 0;#P connect 48 0 52 0;#P connect 45 0 56 1;#P connect 57 1 58 0;#P connect 31 0 83 0;#P connect 83 0 41 0;#P connect 41 0 75 0;#P connect 45 0 53 0;#P connect 69 0 70 0;#P connect 73 0 74 0;#P connect 70 0 74 0;#P connect 74 0 41 1;#P connect 75 1 22 0;#P connect 21 0 22 0;#P connect 22 0 40 0;#P connect 40 0 44 0;#P connect 44 0 45 0;#P connect 62 0 64 0;#P connect 64 0 63 0;#P connect 63 1 65 0;#P connect 63 0 65 0;#P connect 58 0 51 0;#P connect 55 0 51 0;#P connect 54 0 51 0;#P connect 52 0 51 0;#P connect 47 0 51 0;#P connect 50 0 51 0;#P connect 53 1 54 0;#P connect 46 0 47 0;#P connect 70 1 71 0;#P connect 87 1 71 0;#P connect 71 0 72 0;#P connect 72 0 73 0;#P connect 45 1 48 0;#P connect 63 2 66 0;#P connect 66 0 67 0;#P connect 65 0 68 0;#P connect 67 0 68 0;#P connect 48 1 49 0;#P connect 53 1 49 0;#P connect 57 1 49 0;#P connect 49 0 46 0;#P connect 71 1 73 1;#P connect 78 0 49 1;#P connect 16 0 23 0;#P connect 23 0 89 0;#P connect 89 0 24 0;#P connect 24 0 46 1;#P connect 70 2 87 0;#P connect 68 0 70 1;#P connect 93 0 89 1;#P connect 76 0 23 1;#P connect 68 0 69 0;#P connect 48 1 50 0;#P connect 76 0 92 0;#P connect 92 0 93 0;#P connect 48 1 55 0;#P connect 38 0 85 0;#P connect 85 0 86 0;#P connect 31 0 34 0;#P connect 34 0 13 0;#P connect 13 0 28 0;#P connect 28 0 30 0;#P connect 30 0 15 0;#P connect 43 0 42 0;#P connect 15 0 42 0;#P connect 42 0 19 0;#P connect 19 0 14 0;#P connect 14 0 25 0;#P connect 25 0 21 0;#P connect 27 0 28 1;#P connect 18 0 19 1;#P connect 35 0 34 1;#P connect 20 0 21 1;#P connect 32 1 43 0;#P connect 26 0 27 0;#P connect 5 0 20 0;#P connect 38 0 84 0;#P connect 84 0 37 0;#P connect 12 0 37 0;#P connect 37 0 29 0;#P connect 29 0 3 0;#P connect 3 0 35 0;#P connect 35 1 26 0;#P connect 8 0 37 1;#P connect 29 1 2 0;#P connect 2 0 9 0;#P connect 9 0 10 0;#P connect 27 0 60 0;#P connect 60 0 90 0;#P connect 90 0 4 0;#P connect 4 0 7 0;#P connect 7 0 11 0;#P connect 11 0 6 0;#P connect 43 0 6 0;#P connect 6 0 16 0;#P connect 16 0 5 0;#P connect 5 0 17 0;#P connect 17 0 18 0;#P connect 10 0 31 0;#P connect 12 0 31 0;#P connect 31 0 32 0;#P connect 32 0 26 1;#P connect 61 0 60 1;#P connect 91 0 90 1;#P connect 81 0 88 0;#P connect 88 0 9 2;#P connect 9 1 12 0;#P connect 39 0 12 0;#P fasten 59 1 4 1 583 378 486 378;#P connect 32 0 33 0;#P connect 32 1 36 0;#P connect 82 0 11 2;#P fasten 84 0 39 0 411 116 532 116;#P lcolor 7;#P connect 79 0 76 0;#P connect 76 0 59 0;#P connect 59 0 61 0;#P connect 61 0 91 0;#P pop;#P hidden newobj 737 131 97 196620 p edit;#B color 6;#P hidden button 737 80 15 0;#N vpatcher 652 137 1378 856;#P window setfont "Sans Serif" 9.;#P message 564 64 14 196617 1;#N comlet clear;#P inlet 564 24 15 0;#P button 564 44 15 0;#P window linecount 1;#P comment 578 24 33 196617 clear;#P number 595 158 35 9 0 0 0 3 0 0 0 221 221 221 222 222 222 0 0 0;#P newex 595 135 45 196617 rounder;#P newex 595 113 34 196617 / 16.;#P number 546 158 35 9 0 0 0 3 0 0 0 221 221 221 222 222 222 0 0 0;#P newex 546 135 45 196617 rounder;#P newex 546 113 27 196617 / 8.;#P number 496 150 35 9 0 0 0 3 0 0 0 221 221 221 222 222 222 0 0 0;#P newex 545 405 40 196617 t b 0 i;#P newex 545 383 27 196617 i;#P newex 499 383 27 196617 i;#P newex 644 353 35 196617 t 100;#P newex 608 353 35 196617 t 200;#P newex 608 332 83 196617 route gl jmatrix;#P newex 608 310 44 196617 zl nth 3;#P newex 453 383 27 196617 i;#P newex 499 405 40 196617 t b 0 i;#P window linecount 0;#P newex 453 405 40 196617 t b 0 i;#P newex 453 436 135 196617 pack frgb 0 0 0;#P window linecount 1;#P newex 248 586 20 196617 t b;#P message 248 607 56 196617 frgb 0 0 0;#P newex 453 350 150 196617 route source output effect;#P newex 453 328 44 196617 zl nth 2;#P newex 343 138 20 196617 t b;#P window linecount 0;#P newex 431 63 68 196617 t b b i;#P window linecount 1;#P newex 317 430 27 196617 - 2;#P newex 29 595 27 196617 - 4;#P newex 29 575 27 196617 i;#P newex 29 617 30 196617 pack;#P window linecount 0;#P message 29 639 182 196617 frgb 0 0 0 \, moveto \$1 0 \, lineto \$1 \$2;#P window linecount 1;#P newex 127 541 27 196617 + 2;#P window linecount 0;#P newex 185 541 27 196617 + 2;#P newex 489 124 27 196617 / 8;#P window linecount 1;#P newex 77 587 73 196617 prepend lineto;#P newex 165 587 81 196617 prepend moveto;#P newex 77 564 60 196617 pack 512 0;#P newex 165 564 30 196617 pack;#N comlet line space;#P inlet 431 24 15 0;#N comlet draw / redraw;#P inlet 229 24 15 0;#N comlet num col width;#P outlet 104 463 15 0;#N comlet left margin;#P outlet 60 413 15 0;#N comlet line space;#P outlet 369 97 15 0;#N comlet length out;#P outlet 387 240 15 0;#P window linecount 0;#P comment 74 477 72 196617 num col width;#P comment 42 399 60 196617 left margin;#P comment 447 24 54 196617 line space;#P message 471 476 56 196617 frgb 0 0 0;#P message 260 496 82 196617 textface normal;#P message 189 496 69 196617 textface bold \, frgb 0 0 0;#P newex 104 439 27 196617 +;#P newex 13 298 51 196617 zl slice 1;#P button 229 44 15 0;#N vpatcher 30 89 329 579;#N comlet bang;#P inlet 50 27 15 0;#N comlet done;#P outlet 178 440 15 0;#P window setfont "Sans Serif" 9.;#N coll m_config 1;#P newobj 50 412 79 196617 coll m_config 1;#B color 5;#P newex 50 272 149 196617 t dump clear;#P newex 50 388 72 196617 prepend store;#P newex 83 325 69 196617 route symbol;#P newex 50 367 44 196617 zl rot 1;#P newex 50 346 43 196617 zl join;#P button 50 50 15 0;#N coll ;#P newobj 50 298 110 196617 coll;#B color 5;#N coll m_config 1;#P newobj 106 171 90 196617 coll m_config 1;#B color 5;#P newex 91 145 40 196617 t s s 0;#P newex 91 248 72 196617 prepend store;#P newex 91 228 40 196617 zl join;#P newex 91 122 69 196617 route symbol;#P newex 50 72 172 196617 t dump clear;#N coll m_modules 1;#P newobj 50 94 133 196617 coll m_modules 1;#B color 5;#P connect 16 0 8 0;#P connect 8 0 1 0;#P connect 1 0 0 0;#P fasten 0 3 13 0 178 116 55 116;#P lcolor 7;#P connect 4 0 7 0;#P fasten 1 1 7 0 217 294 55 294;#P lcolor 6;#P connect 13 0 7 0;#P connect 7 0 9 0;#P connect 9 0 10 0;#P connect 10 0 12 0;#P fasten 13 1 14 0 194 408 55 408;#P connect 12 0 14 0;#P connect 7 1 11 0;#P connect 11 0 9 1;#P connect 0 1 2 0;#P connect 2 0 5 0;#P connect 5 0 3 0;#P connect 3 0 4 0;#P connect 5 1 6 0;#P connect 6 0 3 1;#P connect 5 2 3 1;#P connect 7 3 15 0;#P pop;#P newobj 229 67 89 196617 p clean-up_config;#B color 6;#P message 352 352 33 196617 clear;#P newex 302 352 38 196617 zl join;#P newex 278 296 32 196617 * 16;#N counter 1 99;#X flags 0 0;#P newobj 278 251 68 196617 counter 1 99;#N coll m_configeditnums 1;#P newobj 323 378 119 196617 coll m_configeditnums 1;#B color 5;#P newex 255 162 54 196617 t s b s;#P newex 146 482 32 196617 sel 0;#P newex 378 406 20 196617 t b;#P message 356 475 78 196617 font Geneva 10;#P number 13 324 35 9 0 0 0 3 0 0 0 221 221 221 222 222 222 0 0 0;#P newex 33 352 112 196617 t i b;#P newex 94 411 29 196617 t 10;#N coll m_config 1;#P newobj 13 273 79 196617 coll m_config 1;#B color 5;#P newex 409 257 27 196617 + 2;#P message 409 297 64 196617 size 512 \$1;#P number 409 278 35 9 0 0 0 3 0 0 0 221 221 221 222 222 222 0 0 0;#P newex 409 237 32 196617 * 16;#P number 409 218 35 9 0 0 0 3 0 0 0 221 221 221 222 222 222 0 0 0;#P message 409 179 37 196617 length;#N coll m_modules 1;#P newobj 409 197 88 196617 coll m_modules 1;#B color 5;#P button 409 148 15 0;#P newex 239 435 21 196617 t 0;#P newex 69 440 20 196617 t b;#P newex 146 461 75 196617 accum;#P number 431 44 35 9 0 0 0 3 0 0 0 221 221 221 222 222 222 0 0 0;#P newex 229 411 29 196617 t 55;#P newex 190 411 29 196617 t 50;#P newex 158 411 29 196617 t 80;#P newex 127 411 29 196617 t 20;#P newex 149 378 111 196617 sel 1 2 3 4 5;#P newex 157 246 27 196617 t l l;#P newex 67 329 109 196617 t s b;#P newex 174 297 47 196617 zl iter 1;#P newex 107 297 51 196617 zl ecils 1;#P newex 174 274 51 196617 zl slice 3;#N counter 1 99;#X flags 0 0;#P newobj 166 352 88 196617 counter 1 99;#P newex 272 475 81 196617 prepend moveto;#P newex 272 454 30 196617 pack;#P message 435 475 33 196617 clear;#P newex 229 115 183 196617 t dump 0 b b;#P newex 33 491 73 196617 prepend write;#P newex 272 674 103 196617 s m_configedit-tolcd;#B color 11;#P newex 229 245 44 196617 zl rot 1;#P newex 229 224 38 196617 zl join;#P newex 299 185 69 196617 route symbol;#N coll m_modules 1;#P newobj 229 138 88 196617 coll m_modules 1;#B color 5;#P comment 243 24 78 196617 draw / redraw;#P connect 41 0 34 0;#P connect 34 0 49 0;#P connect 49 0 37 0;#P connect 40 0 72 0;#P connect 72 0 73 0;#P connect 73 0 71 0;#P connect 71 0 70 0;#P connect 37 0 36 0;#P connect 36 0 6 0;#P connect 15 0 6 0;#P connect 50 0 72 1;#P connect 31 0 71 1;#P connect 35 0 59 0;#P connect 13 1 15 0;#P connect 14 0 15 0;#P connect 19 0 24 0;#P connect 20 0 24 0;#P connect 35 0 24 0;#P connect 18 0 24 0;#P connect 21 0 24 0;#P connect 40 0 64 0;#P connect 64 0 66 0;#P connect 17 0 35 0;#P connect 35 0 50 0;#P connect 50 0 60 0;#P connect 16 0 13 0;#P connect 18 0 50 1;#P connect 17 1 18 0;#P connect 44 0 69 0;#P connect 69 0 64 1;#P connect 95 0 69 1;#P connect 7 1 23 0;#P connect 25 0 23 0;#P connect 24 0 23 0;#P connect 23 0 40 0;#P connect 11 0 17 0;#P connect 4 0 16 0;#P connect 17 2 19 0;#P connect 40 0 63 0;#P connect 63 0 65 0;#P connect 15 1 11 0;#P connect 36 1 11 0;#P connect 16 1 12 0;#P connect 12 0 14 0;#P connect 19 0 23 1;#P connect 21 0 23 1;#P connect 20 0 23 1;#P connect 35 0 23 1;#P connect 18 0 23 1;#P connect 44 0 68 0;#P connect 68 0 63 1;#P connect 36 1 51 0;#P connect 17 3 20 0;#P connect 95 0 68 1;#P connect 76 0 11 2;#P connect 41 1 11 2;#P connect 61 0 48 0;#P connect 75 1 48 0;#P connect 48 0 47 0;#P connect 47 0 7 0;#P connect 75 0 7 0;#P connect 7 0 1 0;#P connect 1 0 3 0;#P connect 3 0 4 0;#P connect 17 4 21 0;#P connect 41 1 25 0;#P connect 63 0 80 0;#P connect 80 0 79 0;#P connect 1 1 41 0;#P connect 2 0 3 1;#P connect 15 1 52 0;#P connect 40 1 9 0;#P connect 9 0 10 0;#P connect 70 0 5 0;#P connect 66 0 5 0;#P connect 53 0 5 0;#P connect 51 0 5 0;#P connect 52 0 5 0;#P connect 8 0 5 0;#P connect 32 0 5 0;#P connect 38 0 5 0;#P connect 10 0 5 0;#P connect 6 0 5 0;#P connect 65 0 5 0;#P connect 79 0 5 0;#P connect 81 0 5 0;#P connect 41 1 43 0;#P connect 43 0 44 0;#P connect 74 0 9 1;#P connect 41 2 2 0;#P connect 75 2 44 1;#P connect 43 0 45 0;#P connect 76 0 43 2;#P connect 44 0 74 0;#P connect 46 0 42 0;#P connect 45 0 42 0;#P connect 2 0 45 1;#P connect 98 0 74 1;#P connect 100 0 76 0;#P connect 7 2 76 0;#P connect 26 0 46 0;#P connect 39 0 38 0;#P connect 75 2 58 0;#P connect 76 0 39 0;#P connect 29 0 57 0;#P connect 7 3 26 0;#P connect 26 0 28 0;#P connect 28 0 27 0;#P connect 27 0 29 0;#P connect 29 0 30 0;#P connect 102 0 30 0;#P connect 30 0 33 0;#P connect 33 0 31 0;#P connect 31 0 32 0;#P connect 62 0 22 0;#P connect 22 0 75 0;#P connect 75 2 30 1;#P connect 39 0 8 0;#P connect 12 0 77 0;#P connect 77 0 78 0;#P connect 78 0 84 0;#P connect 84 0 82 0;#P connect 82 0 81 0;#P connect 83 0 81 0;#P connect 91 0 81 0;#P connect 87 0 84 1;#P connect 88 0 84 1;#P connect 39 0 53 0;#P connect 75 2 67 0;#P connect 83 1 81 1;#P connect 91 1 81 1;#P connect 82 2 81 1;#P connect 67 0 92 0;#P connect 78 1 89 0;#P connect 89 0 83 0;#P connect 87 0 89 1;#P connect 88 0 89 1;#P connect 82 1 81 2;#P connect 83 2 81 2;#P connect 91 1 81 2;#P connect 78 2 90 0;#P connect 90 0 91 0;#P connect 75 2 93 0;#P connect 93 0 94 0;#P connect 94 0 95 0;#P connect 87 0 90 1;#P connect 88 0 90 1;#P connect 101 0 100 0;#P connect 100 0 102 0;#P connect 91 2 81 3;#P connect 82 1 81 3;#P connect 83 1 81 3;#P connect 75 2 96 0;#P connect 96 0 97 0;#P connect 97 0 98 0;#P connect 12 0 85 0;#P connect 85 0 86 0;#P connect 86 0 87 0;#P connect 86 1 88 0;#P pop;#P hidden newobj 737 102 99 196620 p draw/redraw;#B color 6;#P window setfont "Sans Serif" 9.;#P hidden newex 601 464 122 196617 s m_configedit-fromlcd3;#B color 11;#P hidden newex 601 417 103 196617 r m_configedit-tolcd;#B color 11;#P hidden newex 601 440 122 196617 s m_configedit-fromlcd1;#B color 11;#P user lcd 2 89 512 16 0 1 0 0 0;#P hidden button 552 47 15 0;#N thispatcher;#Q end;#P hidden newobj 600 242 61 196617 thispatcher;#B color 5;#P hidden newex 600 223 176 196617 editorwindow /movie/config /movie;#B color 5;#P hidden message 552 177 33 196617 clean;#P hidden newex 552 90 44 196617 del 200;#P hidden button 552 148 15 0;#P hidden message 600 180 245 196617 script sendtoback init2 \, script sendtoback shortcuts;#N thispatcher;#Q end;#P hidden newobj 600 198 61 196617 thispatcher;#P hidden newex 552 27 48 196617 loadbang;#P window linecount 3;#P hidden message 600 80 124 196617 14 \; /movie/init2/sw 1 \; /movie/shortcuts/sw 1 \;;#P window linecount 1;#P hidden newex 708 362 50 196617 t write b;#P hidden newex 708 341 102 196617 pvar writeshortcuts;#B color 14;#P hidden newex 601 341 97 196617 pvar openshortcuts;#B color 14;#P hidden newex 601 362 37 196617 t open;#P hidden newex 601 386 166 196617 s /tapemovie/m_shortcuts/editor;#B color 12;#P hidden newex 708 319 84 196617 s m_init2/write;#B color 12;#P hidden newex 708 298 20 196617 t b;#P hidden newex 708 278 80 196617 pvar writeinit2;#B color 14;#P hidden newex 601 298 20 196617 t b;#P hidden newex 601 319 79 196617 s m_init2/open;#B color 12;#P hidden newex 601 278 75 196617 pvar openinit2;#B color 14;#P comment 297 42 213 196617 Write (save) movie shortcuts file to disk;#P window setfont Times 9.;#P message 266 23 31 1310729 Open;#B color 9;#P objectname openshortcuts;#P message 266 41 31 1310729 Write;#B color 13;#P objectname writeshortcuts;#P window setfont "Sans Serif" 9.;#P comment 297 24 194 196617 Open movie shortcuts file for editing;#P comment 41 42 191 196617 Write (save) movie init2 file to disk;#P window setfont Times 9.;#P message 10 23 31 1310729 Open;#B color 9;#P objectname openinit2;#P message 10 41 31 1310729 Write;#B color 13;#P objectname writeinit2;#P window setfont "Sans Serif" 9.;#P comment 41 24 172 196617 Open movie init2 file for editing;#P window setfont "Sans Serif" 10.;#P comment 214 73 76 196618 DESCRIPTION;#P comment 6 73 19 196618 NB;#P comment 29 73 35 196618 NAME;#P window setfont "Sans Serif" 9.;#P window linecount 0;#P comment 1 1 100 196617;#P window linecount 1;#P hidden newex 776 386 130 196617 s /movie/shortcuts/reset;#B color 12;#P bpatcher 2 2 256 62 0 0 bkgnd-.mxt 0 /movie/init2 0;#P background;#P objectname init2;#P bpatcher 258 2 256 62 0 0 bkgnd-.mxt 0 /movie/shortcuts 0;#P background;#P objectname shortcuts;#P hidden connect 38 0 36 0;#P hidden connect 27 0 35 0;#P hidden connect 35 0 31 0;#P hidden connect 31 0 30 0;#P hidden connect 30 0 32 0;#P hidden connect 35 0 26 0;#P hidden connect 30 0 29 0;#P hidden connect 29 0 28 0;#P hidden connect 32 0 28 0;#P hidden fasten 34 0 33 0 605 262 594 262 594 219 605 219;#P hidden connect 33 0 34 0;#P hidden connect 15 0 17 0;#P hidden connect 17 0 16 0;#P hidden connect 23 0 22 0;#P hidden connect 22 0 21 0;#P hidden connect 25 0 21 0;#P hidden connect 36 0 37 0;#P hidden connect 36 2 39 0;#P hidden connect 18 0 19 0;#P hidden connect 19 0 20 0;#P hidden connect 24 0 25 0;#P hidden connect 59 0 41 0;#P hidden connect 41 0 40 0;#P hidden connect 40 0 42 0;#P hidden connect 40 1 42 1;#P hidden connect 25 1 2 0;#P hidden fasten 26 0 43 0 605 130 732 130 732 73 786 73;#P hidden connect 43 0 40 1;#P hidden connect 40 2 42 2;#P hidden connect 40 3 42 3;#P hidden connect 57 0 40 2;#P pop;