max v2;#N vpatcher 106 268 466 470;#P button 69 170 15 0;#P window setfont "Sans Serif" 9.;#P window linecount 1;#P comment 87 170 39 196617 delete;#P button 3 170 15 0;#P comment 20 170 31 196617 build;#P hidden newex 147 200 191 196617 editorwindow /sensors /tapemovie /tm;#B color 6;#N thispatcher;#Q end;#P hidden newobj 147 230 61 196617 thispatcher;#P hidden newex 3 200 128 196617 tm_edit-builder sensors 1;#B color 6;#P window linecount 0;#P comment 2376 0 100 196617;#P comment 1 0 100 196617;#P hidden connect 6 0 2 0;#P hidden connect 8 0 2 1;#P hidden fasten 3 0 4 0 152 251 341 251 341 196 152 196;#P hidden connect 4 0 3 0;#P hidden fasten 2 0 3 0 8 225 152 225;#P pop;