max v2;#N vpatcher 20 74 493 428;#P button 74 31 15 0;#P window setfont "Sans Serif" 9.;#P window linecount 1;#P message 33 142 33 196617 clear;#P hidden toggle 307 0 21 0;#P objectname noedit;#P newex 359 244 61 196617 pvar noedit;#B color 1;#P newex 215 176 67 196617 pvar inc-dec;#B color 1;#P window setfont "Sans Serif" 14.;#P hidden number 257 0 49 14 0 20 99 3 0 0 0 255 255 255 222 222 222 0 0 0;#P objectname numberbox;#P window setfont "Sans Serif" 9.;#N vpatcher 10 59 499 306;#P window setfont "Sans Serif" 9.;#P newex 12 53 54 196617 zl_change;#P newex 56 74 27 196617 t l b;#P message 97 144 316 196617 script show numberbox \, script show noedit \, script show editorlabel;#P message 73 96 301 196617 script hide numberbox \, script hide noedit \, script hide editorlabel;#P inlet 97 124 15 0;#P inlet 12 33 15 0;#P outlet 56 96 15 0;#P outlet 73 183 15 0;#P connect 2 0 7 0;#P connect 7 1 6 0;#P connect 6 0 1 0;#P connect 6 1 4 0;#P connect 4 0 0 0;#P connect 5 0 0 0;#P connect 3 0 5 0;#P pop;#P newobj 130 100 90 196617 p;#P window setfont "Sans Serif" 12.;#N vpatcher 354 421 760 721;#P outlet 137 220 15 0;#P window setfont "Sans Serif" 9.;#P window linecount 1;#P newex 199 195 62 196617 prepend set;#P newex 182 119 27 196617 t i b;#P newex 199 174 31 196617 == 0;#P outlet 199 219 15 0;#P newex 238 119 21 196617 t 1;#P newex 199 151 49 196617 i;#P newex 182 96 66 196617 zl slice 1;#P window linecount 0;#P newex 61 197 62 196617 prepend set;#P newex 13 174 58 196617 t b i;#P newex 13 151 179 196617 i;#N coll tm_config 1;#P newobj 182 68 83 196617 coll tm_config 1;#P newex 13 42 349 196617 t b s 0;#P inlet 13 22 15 0;#P outlet 13 219 15 0;#P outlet 61 219 15 0;#P connect 2 0 3 0;#P connect 3 0 5 0;#P connect 5 0 6 0;#P connect 6 0 1 0;#P connect 6 1 7 0;#P connect 7 0 0 0;#P fasten 6 1 15 0 66 194 142 194;#P connect 3 1 4 0;#P connect 4 0 8 0;#P connect 8 0 13 0;#P connect 13 0 5 1;#P connect 3 2 5 1;#P connect 13 1 9 0;#P connect 3 2 9 0;#P connect 9 0 12 0;#P connect 12 0 14 0;#P connect 14 0 11 0;#P connect 8 1 10 0;#P connect 10 0 9 1;#P pop;#P newobj 199 207 171 196620 p query;#B color 6;#N vpatcher 577 428 1024 717;#P origin 0 -1;#P inlet 77 27 15 0;#P window setfont "Sans Serif" 9.;#P window linecount 1;#P newex 168 157 105 196617 sprintf store %s %ld;#P newex 229 127 77 196617 zl reg;#P newex 332 120 77 196617 zl reg;#P newex 331 143 95 196617 sprintf remove %s;#P newex 177 52 58 196617 t i b;#P newex 177 80 41 196617 sel 0 1;#P inlet 177 22 15 0;#P newex 144 185 135 196617 sprintf store %s %ld noedit;#P newex 137 123 77 196617 zl reg;#P window linecount 0;#P newex 19 174 65 196617 t writeagain;#N coll tm_config 1;#P newobj 90 236 83 196617 coll tm_config 1;#P newex 19 153 81 196617 t b l;#P newex 19 130 105 196617 sprintf sub %s 1 %ld;#P newex 20 106 77 196617 zl reg;#P newex 20 56 70 196617 t b i;#P inlet 139 39 15 0;#P inlet 20 22 15 0;#P connect 3 0 4 0;#P connect 4 0 5 0;#P connect 9 0 5 0;#P connect 5 0 7 0;#P connect 0 0 2 0;#P connect 2 0 3 0;#P connect 1 0 3 1;#P connect 7 0 6 0;#P connect 5 1 6 0;#P connect 13 0 6 0;#P connect 16 0 6 0;#P connect 2 1 4 1;#P connect 17 0 4 1;#P connect 11 0 8 0;#P connect 8 0 9 0;#P connect 15 0 16 0;#P connect 10 0 12 0;#P connect 12 0 11 0;#P connect 1 0 8 1;#P connect 11 1 15 0;#P connect 2 1 16 1;#P connect 17 0 16 1;#P connect 2 1 9 1;#P connect 17 0 9 1;#P connect 1 0 15 1;#P connect 14 0 13 0;#P connect 12 1 14 0;#P connect 1 0 14 1;#P pop;#P newobj 221 270 210 196620 p writeconfig;#B color 6;#P window setfont "Sans Serif" 14.;#P user ubumenu 118 0 138 196622 0 1 1 0;#X prefix_set 0 0 <none> 0;#P objectname modules;#P user ubumenu 0 0 100 196622 0 1 1 0;#X prefix_set 0 0 <none> 0;#P objectname categories;#P window setfont "Sans Serif" 9.;#P newex 50 77 90 196617 pvar categories 2;#B color 1;#P newex 221 244 83 196617 pvar numberbox;#B color 1;#P newex 130 176 79 196617 pvar modules 2;#B color 1;#P window setfont "Sans Serif" 12.;#N vpatcher 519 162 743 472;#P outlet 110 256 15 0;#P window setfont "Sans Serif" 9.;#P message 114 195 14 196617 0;#P window linecount 1;#P newex 30 193 36 196617 zl reg;#P newex 57 92 69 196617 route symbol;#P window linecount 0;#P newex 30 224 78 196617 prepend append;#P newex 30 159 107 196617 routewithset;#P newex 30 130 51 196617 zl slice 1;#N coll tm_modules 1;#P newobj 30 65 92 196617 coll tm_modules 1;#B color 5;#P newex 30 44 129 196617 t dump clear s;#P inlet 30 24 15 0;#P outlet 30 256 15 0;#P connect 1 0 2 0;#P connect 2 0 3 0;#P connect 3 0 4 0;#P connect 4 0 5 0;#P connect 5 0 8 0;#P connect 8 0 6 0;#P connect 2 1 0 0;#P connect 6 0 0 0;#P connect 7 1 8 1;#P connect 7 0 8 1;#P connect 3 1 7 0;#P connect 9 0 10 0;#P connect 3 3 9 0;#P connect 2 2 5 1;#P pop;#P newobj 130 147 95 196620 p get-modules;#B color 6;#P window setfont "Sans Serif" 9.;#N thispatcher;#Q end;#P newobj 209 121 61 196617 thispatcher;#P window setfont "Sans Serif" 12.;#N vpatcher 10 59 384 284;#P window setfont "Sans Serif" 9.;#P newex 30 154 78 196617 prepend append;#P newex 30 112 54 196617 zl_change;#P newex 30 90 51 196617 zl slice 1;#N coll tm_modules 1;#P newobj 30 65 92 196617 coll tm_modules 1;#B color 5;#P newex 30 44 129 196617 t dump clear;#P inlet 30 24 15 0;#P outlet 30 184 15 0;#P connect 1 0 2 0;#P connect 2 0 3 0;#P connect 3 0 4 0;#P connect 4 0 5 0;#P connect 5 1 6 0;#P connect 6 0 0 0;#P fasten 2 1 0 0 154 176 35 176;#P pop;#P newobj 50 51 110 196620 p get-categories;#B color 6;#P user incdec 100 1 18 21 0 0;#P objectname inc-dec;#N comlet bang to actualize;#P inlet 50 31 15 0;#P window setfont "Sans Serif" 9.;#P hidden comment 329 4 37 196617 editor;#P objectname editorlabel;#P connect 19 0 3 0;#P connect 1 0 3 0;#P connect 18 0 8 0;#P connect 3 0 8 0;#P hidden connect 10 0 2 0;#P hidden connect 2 0 10 0;#P connect 8 1 13 0;#P connect 13 0 5 0;#P connect 5 1 6 0;#P connect 5 0 6 0;#P connect 18 0 6 0;#P connect 6 1 12 0;#P connect 13 1 4 0;#P fasten 12 0 13 1 204 298 439 298 439 92 215 92;#P connect 5 1 15 0;#P connect 12 1 7 0;#P connect 7 0 11 0;#P connect 12 2 11 1;#P fasten 6 1 11 2 204 202 358 202;#P connect 12 3 16 0;#P connect 16 0 11 3;#P pop;