max v2;#N vpatcher 678 44 1429 873;#P window setfont "Sans Serif" 9.;#P newex 397 309 32 196617 del 1;#P newex 34 557 20 196617 t b;#P newex 34 586 50 196617 deferlow;#P newex 333 418 36 196617 t stop;#P newex 430 449 38 196617 del 10;#P newex 320 458 36 196617 zl reg;#P newex 243 485 131 196617 pack s 0;#P newex 262 438 20 196617 t b;#P newex 262 369 178 196617 t s s b;#P newex 320 438 20 196617 t b;#P newex 262 345 56 196617 route spat;#P newex 262 322 112 196617 unpack s 0;#P newex 460 154 127 196617 sprintf refer %s_modules;#N coll ;#P newobj 262 395 53 196617 coll;#B color 5;#P newex 262 418 68 196617 route plugins;#P newex 39 310 40 196617 t b 0 b;#P newex 142 716 29 196617 gate;#B color 14;#P newex 39 28 124 196617 t b 1 b;#P newex 443 582 44 196617 receive;#B color 11;#P newex 443 561 117 196617 sprintf set %s/verbose;#P newex 348 281 36 196617 t stop;#P newex 516 681 83 196617 t b b;#P message 516 705 70 196617 initmodules...;#P number 589 723 35 9 0 0 0 3 0 0 0 221 221 221 222 222 222 0 0 0;#P newex 589 703 35 196617 timer;#P message 589 741 126 196617 initmodules done in \$1 ms;#P number 152 112 35 9 0 0 0 3 0 0 0 221 221 221 222 222 222 0 0 0;#P message 462 724 106 196617 init /adc.11 ( \$1 ms);#P toggle 443 604 15 0;#P number 355 782 35 9 0 0 0 3 0 0 0 221 221 221 222 222 222 0 0 0;#P newex 355 762 35 196617 timer;#P newex 355 731 20 196617 t b;#P newex 462 650 170 196617 sprintf set init /%s.%ld in \\$1 ms.;#P newex 142 736 20 196617 t b;#P newex 161 696 44 196617 receive;#B color 11;#P newex 161 675 62 196617 prepend set;#P newex 161 654 131 196617 sprintf /%s.%ld/init/done;#P newex 142 762 50 196617 t resume;#P newex 39 214 80 196617 sel 30;#P newex 135 130 27 196617 + 1;#P newex 39 130 32 196617 del 1;#P newex 39 152 149 196617 t b start;#N coll ;#P newobj 39 71 53 196617 coll;#B color 5;#P number 135 174 35 9 0 0 0 3 0 0 0 221 221 221 222 222 222 0 0 0;#P newex 262 181 149 196617 t next b i;#P newex 39 110 108 196617 t b 1 b i;#P number 39 196 35 9 0 0 0 3 0 0 0 221 221 221 222 222 222 0 0 0;#N counter 1 30;#X flags 0 0;#P newobj 39 175 68 196617 counter 1 30;#P message 39 49 37 196617 length;#P number 39 92 35 9 0 0 0 3 0 0 0 221 221 221 222 222 222 0 0 0;#P message 369 124 17 196617 ct;#P message 414 72 48 196617 /camtrk;#P newex 443 746 29 196617 gate;#P newex 237 29 48 196617 loadbang;#P message 237 51 78 196617 $1;#P message 364 72 43 196617 /movie;#P message 325 72 35 196617 /tape;#P message 257 72 62 196617 /tapemovie;#P newex 237 154 118 196617 sprintf refer %s_config;#P message 325 124 16 196617 m;#P message 281 124 14 196617 t;#P message 237 124 20 196617 tm;#P newex 237 101 187 196617 sel /tapemovie /tape /movie /camtrk;#P button 10 32 15 0;#P newex 243 547 32 196617 sel 0;#P newex 443 771 145 196617 print $1;#P outlet 400 220 15 0;#P number 400 201 35 9 0 0 0 3 0 0 0 221 221 221 222 222 222 0 0 0;#P newex 39 285 50 196617 deferlow;#P newex 262 263 51 196617 zl slice 1;#P outlet 39 340 15 0;#P newex 333 619 36 196617 zl reg;#P newex 243 506 49 196617 zl rot -1;#P newex 262 303 44 196617 zl rot 1;#P newex 262 239 69 196617 route symbol;#P newex 262 283 82 196617 zl join;#P newex 334 239 69 196617 route symbol;#P newex 34 611 20 196617 t b;#N coll ;#P newobj 262 214 53 196617 coll;#B color 5;#P newex 243 527 57 196617 unpack 0 s;#P newex 333 687 68 196617 prepend send;#P newex 299 593 114 196617 t b b i pause;#P newex 333 660 105 196617 sprintf /%s.%ld/init;#P newex 265 567 45 196617 uzi;#P newex 299 712 47 196617 forward;#N comlet init dsp modules;#P inlet 10 14 15 0;#P comment 28 14 64 196617 init modules;#P comment 34 354 30 196617 done;#P comment 315 52 282 196617 arg 1 : environment name (i.e. /tapemovie \, /tape \, /movie) \;;#P connect 3 0 25 0;#P connect 5 1 87 0;#P connect 24 0 86 0;#P connect 87 0 86 0;#P connect 88 0 11 0;#P lcolor 6;#P connect 86 0 11 0;#P connect 25 0 71 0;#P connect 71 0 40 0;#P fasten 30 0 46 0 242 177 205 177 205 68 44 68;#P connect 40 0 46 0;#P connect 46 0 39 0;#P connect 39 0 43 0;#P connect 43 0 48 0;#P connect 48 0 47 0;#P fasten 11 0 41 0 39 631 26 631 26 172 44 172;#P connect 47 0 41 0;#P connect 41 0 42 0;#P connect 42 0 50 0;#P connect 50 0 20 0;#P connect 20 0 73 0;#P connect 73 0 18 0;#P connect 43 2 41 2;#P connect 49 0 41 4;#P connect 49 0 50 1;#P connect 43 3 49 0;#P connect 49 0 45 0;#P connect 73 1 72 0;#P lcolor 1;#P connect 71 1 72 0;#P lcolor 1;#P connect 72 0 55 0;#P connect 55 0 51 0;#P connect 62 0 49 1;#P connect 17 0 52 0;#P connect 52 0 53 0;#P connect 53 0 54 0;#P connect 54 0 72 1;#P connect 35 0 34 0;#P connect 34 0 26 0;#P connect 31 0 26 0;#P connect 32 0 26 0;#P connect 33 0 26 0;#P connect 37 0 26 0;#P connect 26 0 27 0;#P connect 29 0 30 0;#P connect 27 0 30 0;#P connect 38 0 30 0;#P connect 28 0 30 0;#P connect 83 0 82 0;#P connect 82 0 16 0;#P connect 16 0 9 0;#P connect 9 0 24 0;#P connect 50 1 44 0;#P connect 44 0 10 0;#P connect 47 1 10 0;#P connect 30 0 10 0;#P connect 10 0 14 0;#P connect 14 1 19 0;#P connect 14 0 19 0;#P connect 19 0 13 0;#P connect 13 0 15 0;#P connect 15 0 77 0;#P connect 77 0 78 0;#P connect 78 1 80 0;#P connect 80 0 75 0;#P fasten 76 0 75 0 465 391 267 391;#P lcolor 1;#P connect 75 0 74 0;#P connect 84 0 81 0;#P connect 74 0 81 0;#P connect 7 3 5 0;#P connect 24 1 5 0;#P connect 51 0 5 0;#P connect 26 1 28 0;#P connect 7 2 52 1;#P connect 5 2 7 0;#P connect 8 0 4 0;#P connect 7 0 4 0;#P connect 74 1 79 0;#P connect 79 0 83 0;#P connect 26 2 29 0;#P fasten 75 0 85 0 267 415 338 415;#P connect 7 1 17 0;#P connect 17 0 6 0;#P connect 6 0 8 0;#P fasten 10 1 12 0 281 235 339 235;#P connect 12 0 13 1;#P connect 80 1 83 1;#P connect 10 1 68 0;#P connect 17 0 57 0;#P connect 57 0 58 0;#P connect 58 0 59 0;#P connect 9 1 17 1;#P connect 77 1 82 1;#P connect 26 3 38 0;#P connect 55 0 58 1;#P connect 68 0 88 0;#P connect 44 1 88 0;#P connect 78 0 88 0;#P lcolor 6;#P connect 81 0 88 0;#P lcolor 6;#P connect 44 2 21 0;#P connect 21 0 22 0;#P connect 7 2 6 1;#P connect 80 2 84 0;#P connect 85 0 84 0;#P connect 34 0 69 0;#P lcolor 1;#P connect 69 0 70 0;#P connect 70 0 60 0;#P connect 60 0 36 0;#P connect 66 0 23 0;#P fasten 63 0 23 0 594 766 448 766;#P connect 36 0 23 0;#P connect 38 0 76 0;#P connect 29 0 76 0;#P connect 28 0 76 0;#P connect 27 0 76 0;#P connect 17 0 56 0;#P connect 56 0 61 0;#P connect 59 0 61 0;#P connect 61 0 36 1;#P connect 71 2 67 0;#P lcolor 1;#P connect 67 0 66 0;#P connect 67 1 64 0;#P connect 64 0 65 0;#P connect 65 0 63 0;#P connect 73 2 64 1;#P lcolor 1;#P connect 7 2 56 1;#P pop;