max v2;#N vpatcher 174 44 1248 900;#P window setfont "Sans Serif" 9.;#P window linecount 1;#P newex 886 657 133 196617 s control_register/remove;#B color 11;#P newex 800 513 69 196617 route symbol;#P newex 800 570 46 196617 pack s s;#P newex 800 612 84 196617 sprintf /%s/%s;#P newex 800 536 47 196617 zl iter 1;#P newex 800 590 44 196617 zl rot 1;#P newex 841 429 27 196617 - 1;#P newex 809 471 40 196617 itoa;#P newex 809 450 42 196617 zl slice;#P newex 841 408 51 196617 zl sub 46;#P newex 809 386 40 196617 atoi;#N coll ;#P newobj 800 492 53 196617 coll;#B color 5;#P newex 886 570 64 196617 sprintf /%s;#P newex 894 636 132 196617 s module_register/remove;#B color 11;#P newex 703 531 69 196617 route symbol;#N coll ;#P newobj 685 482 64 196617 coll;#B color 5;#P newex 703 598 75 196617 prepend delete;#P newex 216 104 50 196617 deferlow;#P newex 734 230 142 196617 sprintf refer %s_submodules;#P newex 356 679 69 196617 route symbol;#P newex 356 722 73 196617 pack s s;#P newex 356 764 78 196617 sprintf %s/%s;#P newex 356 701 47 196617 zl iter 1;#P newex 356 742 44 196617 zl rot 1;#N coll ;#P newobj 356 658 53 196617 coll;#B color 5;#P newex 468 722 122 196617 s module_register/store;#B color 11;#P newex 468 672 84 196617 sprintf /%s.%ld;#P newex 588 682 115 196617 sprintf building %s.%ld;#P newex 139 584 50 196617 deferlow;#P newex 221 566 30 196617 t b b;#P newex 36 188 97 196617 t b b;#P button 88 606 15 0;#P number 25 642 35 9 0 0 0 3 0 0 0 221 221 221 222 222 222 0 0 0;#P newex 25 622 35 196617 timer;#P message 25 662 75 196617 built in \$1 ms.;#P message 102 662 53 196617 building...;#P newex 25 685 107 196617 prepend $2;#P newex 25 743 94 196617 print $1;#P newex 430 518 42 196617 t pause;#P newex 151 468 50 196617 deferlow;#P newex 304 378 36 196617 t stop;#P newex 343 378 32 196617 del 1;#P window linecount 4;#P comment 635 314 127 196617 $1 \; $2 \; $3 \; $4 \;;#B frgb 200 0 0;#P window linecount 1;#P newex 139 605 50 196617 t resume;#P newex 151 447 20 196617 t b;#P newex 151 490 50 196617 t resume;#N vpatcher 294 44 707 398;#N comlet to coll;#P inlet 342 245 15 0;#N comlet coll out 2;#P outlet 256 305 15 0;#P window setfont "Sans Serif" 9.;#P window linecount 1;#N coll tm_modules;#P newobj 229 279 91 196617 coll;#B color 5;#N comlet messages to uzi;#P inlet 24 190 15 0;#N comlet count display;#P outlet 293 245 15 0;#N comlet end;#P outlet 80 292 15 0;#N comlet coll out 1;#P outlet 229 305 15 0;#P inlet 57 29 15 0;#P window linecount 0;#P newex 57 167 88 196617 t b start b;#P newex 57 146 32 196617 del 1;#P message 57 70 37 196617 length;#P button 57 189 15 0;#P newex 57 126 56 196617 t b i;#P newex 57 239 111 196617 t b next pause i;#P newex 57 214 56 196617 uzi;#P number 57 108 35 9 0 0 0 3 0 0 0 221 221 221 222 222 222 0 0 0;#P newex 57 88 99 196617 grab;#P connect 9 0 6 0;#P connect 6 0 0 0;#P connect 0 0 1 0;#P connect 1 0 4 0;#P connect 4 0 7 0;#P connect 7 0 8 0;#P connect 8 0 5 0;#P connect 5 0 2 0;#P fasten 3 2 2 0 128 260 141 260 141 208 62 208;#P lcolor 2;#P connect 13 0 2 0;#P connect 2 2 3 0;#P connect 2 1 11 0;#P connect 4 1 2 1;#P connect 0 1 14 0;#P connect 3 1 14 0;#P connect 8 1 14 0;#P connect 16 0 14 0;#P connect 14 0 10 0;#P connect 14 1 15 0;#P connect 3 3 12 0;#P pop;#P newobj 224 227 63 196617 p length-uzi;#B color 6;#P newex 152 30 122 196617 sprintf set %s/%s/build;#P newex 215 60 128 196617 sprintf set %s/%s/delete;#P newex 42 308 127 196617 sprintf send %s/%s/built;#P newex 42 332 47 196617 forward;#B color 11;#P newex 682 38 48 196617 loadbang;#P newex 235 125 139 196617 sprintf send %s/%s/deleted;#P message 776 80 86 196617 $2;#P comment 469 346 141 196617 check modules for arguments;#P newex 707 207 127 196617 sprintf refer %s_modules;#P window linecount 4;#P comment 761 314 258 196617 arg1 = environnement (ex /tape \, /tapemovie \, /movie \; arg2 = type of module to build (i.e. devices \, osc...) \; arg3 = x position starting point for creating objects \; arg4 = object width \;;#P window linecount 1;#P newex 682 59 104 196617 t b b;#P message 682 80 78 196617 $1;#P message 803 102 43 196617 /movie;#P message 764 102 35 196617 /tape;#P message 696 102 62 196617 /tapemovie;#P newex 682 184 118 196617 sprintf refer %s_config;#P message 770 162 16 196617 m;#P message 726 162 14 196617 t;#P message 682 162 20 196617 tm;#P newex 682 139 142 196617 sel /tapemovie /tape /movie;#P newex 456 409 51 196617 zl ecils 1;#P newex 415 386 51 196617 zl slice 2;#N coll tm_modules;#P newobj 415 345 53 196617 coll;#B color 5;#P newex 357 607 31 196617 + 50;#P newex 456 430 29 196617 t l 2;#P comment 289 474 64 196617 modulename;#P comment 379 474 48 196617 filename;#P newex 415 365 42 196617 t l 1;#P comment 240 486 43 196617 number;#P comment 218 624 64 196617 modulename;#P comment 284 624 43 196617 number;#P comment 512 623 43 196617 instance;#P comment 447 623 64 196617 modulename;#P newex 373 455 51 196617 zl slice 1;#P newex 293 455 69 196617 route symbol;#N coll tm_config;#P newobj 241 345 167 196617 coll;#B color 5;#P button 36 171 15 0;#P newex 241 301 142 196617 t b b s;#P newex 241 321 37 196617 zl reg;#P newex 241 281 71 196617 route $2;#P newex 88 259 50 196617 deferlow;#P newex 216 146 47 196617 forward;#B color 11;#P button 216 127 15 0;#P message 516 203 33 196617 clear;#P newex 562 637 114 196617 sprintf store %s.%ld 0;#P newex 241 684 51 196617 zl join;#P newex 174 663 77 196617 gate 2;#P newex 169 60 44 196617 receive;#B color 11;#P newex 102 30 44 196617 receive;#B color 11;#P button 169 82 15 0;#P comment 187 82 39 196617 delete;#P button 102 82 15 0;#P comment 120 82 31 196617 build;#P newex 169 148 38 196617 del 10;#P newex 169 126 45 196617 onebang;#P newex 102 126 54 196617 onebang 1;#P newex 36 151 38 196617 del 10;#P message 553 203 33 196617 dump;#P message 357 584 33 196617 set 0;#P newex 316 575 37 196617 t b 20;#P newex 316 607 40 196617 accum;#P newex 241 588 36 196617 zl reg;#P newex 241 543 77 196617 uzi;#P number 241 499 35 9 0 0 0 3 0 0 0 221 221 221 222 222 222 0 0 0;#P newex 241 716 73 196617 prepend script;#P newex 241 637 315 196617 sprintf new %s.%ld newex $3 %ld $4 1310729 %s /%s.%ld;#P outlet 241 745 15 0;#P newex 241 467 41 196617 zl reg;#P newex 241 418 32 196617 sel 1;#P newex 241 397 27 196617 > 0;#P newex 241 372 51 196617 zl slice 1;#P comment 397 623 48 196617 filename;#P window linecount 4;#P comment 763 254 167 196617 checks tm_modules to see which modules are $2 \, then outputs those modules from tm_config and builds those that are > 0 in number.;#B frgb 200 0 0;#P fasten 17 0 86 0 107 146 30 146;#P connect 86 0 87 0;#P connect 87 0 85 0;#P connect 84 0 83 0;#P connect 85 0 83 0;#P connect 83 0 82 0;#P connect 92 0 82 0;#P fasten 17 0 16 0 107 147 41 147;#P connect 16 0 36 0;#P connect 36 0 89 0;#P connect 61 0 70 0;#P lcolor 1;#P connect 32 0 69 0;#P connect 70 0 69 0;#P connect 88 0 86 1;#P connect 73 0 32 0;#P connect 32 0 88 0;#P connect 72 0 24 0;#P connect 24 0 21 0;#P connect 21 0 17 0;#P connect 17 0 84 0;#P connect 90 0 91 0;#P connect 91 0 76 0;#P connect 18 0 17 1;#P connect 10 1 75 0;#P connect 78 0 75 0;#P connect 4 1 75 0;#P connect 33 1 75 0;#P connect 75 0 80 0;#P connect 80 0 74 0;#P connect 61 0 72 0;#P lcolor 1;#P connect 66 0 70 1;#P lcolor 1;#P connect 71 0 25 0;#P connect 25 0 23 0;#P connect 23 0 18 0;#P connect 18 0 19 0;#P connect 48 1 26 0;#P connect 45 1 26 0;#P connect 17 0 18 1;#P connect 61 0 71 0;#P lcolor 1;#P connect 18 1 102 0;#P connect 104 3 102 0;#P connect 102 0 30 0;#P connect 30 0 31 0;#P connect 67 0 31 0;#P connect 10 0 90 0;#P fasten 74 0 73 0 156 512 214 512 214 221 229 221;#P lcolor 6;#P connect 61 0 67 0;#P lcolor 1;#P connect 73 1 33 0;#P connect 33 0 35 0;#P connect 35 0 34 0;#P connect 34 0 37 0;#P connect 57 0 37 0;#P lcolor 1;#P connect 37 0 2 0;#P connect 2 0 3 0;#P connect 3 0 4 0;#P connect 4 0 5 0;#P connect 5 0 9 0;#P connect 9 0 10 0;#P fasten 76 0 10 0 144 625 131 625 131 539 246 539;#P connect 81 0 10 0;#P connect 90 1 11 0;#P connect 11 0 7 0;#P connect 7 0 26 1;#P connect 26 1 27 0;#P connect 26 0 8 0;#P connect 27 0 8 0;#P connect 103 0 8 0;#P connect 8 0 6 0;#P connect 89 0 73 1;#P connect 66 0 72 1;#P lcolor 1;#P connect 38 0 11 1;#P connect 73 2 34 1;#P fasten 2 0 5 1 246 393 277 393;#P lcolor 7;#P connect 64 0 73 2;#P lcolor 1;#P connect 48 0 27 1;#P connect 37 1 38 0;#P connect 10 2 7 1;#P connect 37 1 79 0;#P connect 10 2 13 0;#P connect 14 0 12 0;#P connect 13 0 12 0;#P connect 13 1 12 1;#P connect 66 0 71 1;#P lcolor 1;#P connect 35 1 78 0;#P connect 79 0 78 0;#P connect 101 0 95 0;#P connect 11 0 95 0;#P lcolor 13;#P connect 95 0 100 0;#P connect 100 0 97 0;#P connect 100 1 97 0;#P connect 97 0 99 0;#P connect 99 0 96 0;#P connect 96 0 98 0;#P connect 89 1 14 0;#P connect 12 0 49 0;#P connect 49 0 7 2;#P connect 66 0 67 1;#P lcolor 1;#P connect 35 2 39 0;#P fasten 34 0 50 0 246 341 420 341;#P lcolor 15;#P connect 64 0 50 0;#P lcolor 1;#P connect 50 0 45 0;#P connect 45 0 51 0;#P connect 93 0 99 1;#P connect 39 0 7 3;#P connect 10 2 81 0;#P connect 51 1 52 0;#P connect 52 0 48 0;#P connect 11 0 93 0;#P lcolor 13;#P connect 98 0 94 0;#P connect 93 0 94 0;#P connect 38 0 7 4;#P connect 89 1 29 0;#P connect 10 2 7 5;#P connect 19 0 15 0;#P connect 11 0 28 0;#P lcolor 7;#P connect 11 0 92 0;#P connect 10 2 28 1;#P lcolor 7;#P connect 68 0 62 0;#P connect 62 0 61 0;#P connect 58 0 53 0;#P connect 59 0 53 0;#P connect 60 0 53 0;#P connect 61 0 53 0;#P connect 53 0 54 0;#P connect 54 0 57 0;#P connect 55 0 57 0;#P connect 56 0 57 0;#P connect 15 0 104 0;#P connect 29 0 104 0;#P fasten 28 0 104 0 567 659 681 659 681 477 690 477;#P connect 10 2 92 1;#P connect 104 1 105 0;#P connect 105 0 103 0;#P connect 54 0 64 0;#P connect 55 0 64 0;#P connect 56 0 64 0;#P connect 53 1 55 0;#P connect 54 0 101 0;#P connect 55 0 101 0;#P connect 56 0 101 0;#P connect 53 2 56 0;#P connect 62 1 66 0;#P connect 112 0 108 0;#P connect 101 0 108 0;#P connect 108 0 118 0;#P connect 118 1 115 0;#P connect 118 0 115 0;#P connect 115 0 117 0;#P connect 117 0 114 0;#P connect 114 0 116 0;#P fasten 105 0 109 0 708 555 791 555 791 381 814 381;#P lcolor 15;#P connect 109 0 111 0;#P connect 111 0 112 0;#P connect 105 0 117 1;#P connect 109 0 110 0;#P connect 110 0 113 0;#P connect 113 0 111 1;#P connect 105 0 107 0;#P connect 107 0 119 0;#P connect 116 0 119 0;#P connect 107 0 106 0;#P connect 116 0 106 0;#P pop;