max v2;#N vpatcher 347 121 1319 834;#P window setfont "Sans Serif" 9.;#P window linecount 1;#P message 78 362 33 196617 built.;#P newex 78 382 107 196617 prepend $2;#P newex 166 30 122 196617 sprintf set %s/%s/build;#P newex 229 60 128 196617 sprintf set %s/%s/delete;#P newex 78 403 94 196617 print $1;#P newex 74 309 127 196617 sprintf send %s/%s/built;#P newex 50 330 47 196617 forward;#B color 11;#P newex 682 32 48 196617 loadbang;#P newex 255 121 139 196617 sprintf send %s/%s/deleted;#P message 776 74 86 196617 $2;#P comment 443 305 141 196617 check modules for arguments;#P newex 707 201 127 196617 sprintf refer %s_modules;#P window linecount 4;#P comment 664 343 258 196617 arg1 = environnement (ex /tape \, /tapemovie \, /movie \; arg2 = type of module to build (i.e. devices \, osc...) \; arg3 = x position starting point for creating objects \; arg4 = object width;#P window linecount 1;#P newex 682 53 104 196617 t b b;#P message 682 74 78 196617 $1;#P message 803 96 43 196617 /movie;#P message 764 96 35 196617 /tape;#P message 696 96 62 196617 /tapemovie;#P newex 682 178 118 196617 sprintf refer %s_config;#P message 770 156 16 196617 m;#P message 726 156 14 196617 t;#P message 682 156 20 196617 tm;#P newex 682 133 142 196617 sel /tapemovie /tape /movie;#P newex 430 368 51 196617 zl ecils 1;#P newex 389 345 51 196617 zl slice 2;#N coll tm_modules;#P newobj 389 304 53 196617 coll;#B color 5;#P newex 331 523 31 196617 + 50;#P newex 430 389 29 196617 t l 2;#P comment 263 433 64 196617 modulename;#P comment 353 433 48 196617 filename;#P newex 389 324 42 196617 t l 1;#P comment 214 433 43 196617 number;#P comment 192 540 64 196617 modulename;#P comment 258 540 43 196617 number;#P comment 486 539 43 196617 instance;#P comment 421 539 64 196617 modulename;#P newex 347 414 51 196617 zl slice 1;#P newex 267 414 69 196617 route symbol;#N coll tm_config;#P newobj 215 304 167 196617 coll;#B color 5;#P button 88 180 15 0;#P newex 88 198 264 196617 t b dump b;#P newex 215 260 82 196617 t b s;#P newex 215 280 37 196617 zl reg;#P newex 215 240 71 196617 route $2;#N coll tm_modules;#P newobj 215 219 91 196617 coll;#B color 5;#P newex 50 282 44 196617 del 200;#P newex 738 504 44 196617 del 100;#P newex 230 146 47 196617 forward;#B color 11;#P button 230 127 15 0;#P message 516 199 33 196617 clear;#P newex 536 553 114 196617 sprintf store %s.%ld 0;#P newex 215 600 51 196617 zl join;#P newex 148 579 77 196617 gate 2;#P newex 183 60 44 196617 receive;#B color 11;#P newex 116 30 44 196617 receive;#B color 11;#P button 183 82 15 0;#P comment 201 82 39 196617 delete;#P button 116 82 15 0;#P comment 134 82 31 196617 build;#P newex 183 104 50 196617 deferlow;#P newex 116 104 50 196617 deferlow;#P newex 183 148 38 196617 del 10;#P newex 183 126 45 196617 onebang;#P newex 116 126 54 196617 onebang 1;#P newex 116 150 44 196617 del 100;#P newex 689 531 69 196617 route symbol;#N coll ;#P newobj 671 504 64 196617 coll;#B color 5;#P message 553 199 33 196617 dump;#P newex 689 555 75 196617 prepend delete;#P message 331 500 33 196617 set 0;#P newex 290 491 37 196617 t b 20;#P newex 290 523 40 196617 accum;#P newex 215 486 36 196617 zl reg;#P newex 215 465 77 196617 uzi;#P number 215 446 35 9 0 0 0 3 0 0 0 221 221 221 222 222 222 0 0 0;#P newex 215 635 73 196617 prepend script;#P newex 215 553 315 196617 sprintf new %s.%ld newex $3 %ld $4 1310729 %s /%s.%ld;#P outlet 215 663 15 0;#P newex 215 414 41 196617 zl reg;#P newex 215 392 32 196617 sel 1;#P newex 215 371 27 196617 > 0;#P newex 215 346 51 196617 zl slice 1;#P comment 371 539 48 196617 filename;#P window linecount 4;#P comment 664 267 167 196617 checks tm_modules to see which modules are $2 \, then outputs those modules from tm_config and builds those that are > 0 in number.;#B frgb 200 0 0;#P connect 43 0 38 0;#P connect 38 0 77 0;#P connect 78 0 77 0;#P connect 69 0 78 0;#P lcolor 1;#P connect 38 0 83 0;#P connect 83 0 82 0;#P connect 82 0 79 0;#P connect 19 0 44 0;#P connect 44 0 43 0;#P connect 81 0 29 0;#P connect 29 0 26 0;#P connect 26 0 23 0;#P connect 23 0 20 0;#P connect 20 0 19 0;#P connect 53 1 31 0;#P connect 56 1 31 0;#P connect 21 0 20 1;#P connect 69 0 81 0;#P lcolor 1;#P connect 80 0 30 0;#P connect 30 0 28 0;#P connect 28 0 24 0;#P connect 24 0 21 0;#P connect 21 0 22 0;#P connect 74 0 78 1;#P lcolor 1;#P connect 72 0 39 0;#P lcolor 1;#P connect 43 1 39 0;#P connect 39 0 40 0;#P connect 40 0 42 0;#P connect 42 0 41 0;#P connect 41 0 45 0;#P connect 65 0 45 0;#P lcolor 1;#P connect 45 0 2 0;#P connect 2 0 3 0;#P connect 3 0 4 0;#P connect 4 0 5 0;#P connect 5 0 9 0;#P connect 9 0 10 0;#P connect 10 0 11 0;#P connect 11 0 7 0;#P connect 7 0 31 1;#P connect 31 1 32 0;#P fasten 15 0 8 0 694 623 220 623;#P connect 32 0 8 0;#P connect 31 0 8 0;#P connect 8 0 6 0;#P connect 20 0 21 1;#P connect 69 0 80 0;#P lcolor 1;#P connect 37 0 35 0;#P connect 21 1 35 0;#P connect 75 0 36 0;#P connect 35 0 36 0;#P connect 46 0 11 1;#P connect 39 1 41 1;#P fasten 2 0 5 1 220 366 251 366;#P lcolor 7;#P connect 69 0 75 0;#P lcolor 1;#P connect 56 0 32 1;#P connect 45 1 46 0;#P connect 10 2 7 1;#P connect 74 0 81 1;#P lcolor 1;#P connect 10 2 13 0;#P connect 13 0 12 0;#P connect 14 0 12 0;#P connect 13 1 12 1;#P connect 43 2 14 0;#P connect 12 0 57 0;#P connect 57 0 7 2;#P connect 74 0 80 1;#P lcolor 1;#P fasten 42 1 47 0 292 280 352 280;#P connect 74 0 75 1;#P lcolor 1;#P connect 72 0 58 0;#P lcolor 1;#P fasten 41 0 58 0 220 300 394 300;#P lcolor 15;#P connect 58 0 53 0;#P connect 53 0 59 0;#P connect 47 0 7 3;#P connect 59 1 60 0;#P connect 60 0 56 0;#P connect 46 0 7 4;#P connect 43 2 34 0;#P connect 10 2 7 5;#P connect 11 0 33 0;#P lcolor 7;#P connect 22 0 16 0;#P connect 10 2 33 1;#P lcolor 7;#P connect 16 0 17 0;#P connect 34 0 17 0;#P fasten 33 0 17 0 541 579 658 579 658 499 676 499;#P connect 76 0 70 0;#P connect 70 0 69 0;#P connect 69 0 61 0;#P connect 68 0 61 0;#P connect 67 0 61 0;#P connect 66 0 61 0;#P connect 61 0 62 0;#P connect 64 0 65 0;#P connect 62 0 65 0;#P connect 63 0 65 0;#P connect 17 1 18 0;#P connect 18 0 15 0;#P connect 64 0 72 0;#P connect 63 0 72 0;#P connect 62 0 72 0;#P connect 61 1 63 0;#P connect 17 3 37 0;#P connect 61 2 64 0;#P connect 70 1 74 0;#P pop;