max v2;#N vpatcher 322 130 832 550;#P window setfont "Sans Serif" 9.;#P window linecount 1;#P hidden newex 102 442 53 196617 closebang;#P hidden newex 11 489 93 196617 fixedsize 510 420;#B color 6;#P hidden newex 11 469 192 196617 editorwindow /performance /tapemovie;#B color 11;#P hidden newex 680 546 43 196617 del 100;#P window linecount 8;#P hidden message 680 571 239 196617 \; max getslop __gxorxgetslop__ \; max getsleep __gxorxgetsleep__ \; max getpollthrottle __gxorxgetpollthrottle__ \; max getqueuethrottle __gxorxgetqueuethrottle__ \; max geteventinterval __gxorxgeteventinterval__ \; max getrefreshrate __gxorxgetrefreshrate__ \; max getenablerefresh __gxorxgetenablerefresh__;#P window linecount 22;#P hidden message 494 519 179 196617 bang \; max setslop 25. \; max setsleep 2 \; max setpollthrottle 20 \; max setqueuethrottle 10 \; max seteventinterval 2 \; max refreshrate 30. \; max enablerefresh 1 \; max setslop 25. \; max setsleep 2 \; max setpollthrottle 20 \; max setqueuethrottle 10 \; max seteventinterval 2 \; max refreshrate 30. \; max enablerefresh 1 \; max setslop 25. \; max setsleep 2 \; max setpollthrottle 20 \; max setqueuethrottle 10 \; max seteventinterval 2 \; max refreshrate 30. \; max enablerefresh 1;#P window linecount 1;#P hidden message 461 469 45 196617 set bang;#P hidden message 217 598 14 196617 0;#P hidden newex 494 493 45 196617 gate 1 1;#P hidden message 883 336 85 196617 enablerefresh \$1;#P hidden message 883 318 75 196617 refreshrate \$1;#P hidden message 883 252 99 196617 seteventinterval \$1;#P hidden message 883 200 98 196617 setqueuethrottle \$1;#P hidden message 883 148 89 196617 setpollthrottle \$1;#P hidden message 883 92 61 196617 setsleep \$1;#P hidden message 883 38 55 196617 setslop \$1;#P hidden newex 529 470 112 196617 prepend append \\\; max;#N vpatcher 65 478 458 632;#P hidden inlet 352 33 15 0;#P window setfont "Sans Serif" 18.;#P comment 12 24 194 196626 Screen Refresh;#P window setfont "Sans Serif" 9.;#P comment 12 57 318 196617 Screen refresh is the rate at which Max attempts to update the interface. The actual refresh rate may be higher or lower depending on various application and operating system activities \, and overall system load.;#P pop;#P hidden newobj 699 374 121 196617 p About_Screen_Refresh;#P hidden newex 699 351 45 196617 pcontrol;#N vpatcher 65 415 462 561;#P hidden inlet 352 33 15 0;#P window setfont "Sans Serif" 18.;#P comment 12 24 257 196626 Scheduler Event Interval;#P window setfont "Sans Serif" 9.;#P comment 12 57 323 196617 Scheduler event interval is the amount of time between servicing the high priority event queue. High priority events include MIDI \, events generated by metro \, tempo \, line \, delay \, pipe \, snapshot~ \, and other scheduler based objects.;#P pop;#P hidden newobj 698 313 149 196617 p About_Timer_Event_Interval;#P hidden newex 698 290 45 196617 pcontrol;#N vpatcher 66 357 464 509;#P origin 0 3;#P hidden inlet 352 30 15 0;#P window setfont "Sans Serif" 18.;#P comment 12 21 265 196626 Low Priority Queue Throttle;#P window setfont "Sans Serif" 9.;#P comment 12 54 344 196617 Low priority queue throttle is the number of events processed per servicing of the low priority event queue. Low priority events include user interface events \, graphics operations \, reading files from disk \, and other expensive operations that would otherwise cause timing problems for the scheduler.;#P pop;#P hidden newobj 697 257 185 196617 p About_Low_Priority_Queue_Throttle;#P hidden newex 697 234 45 196617 pcontrol;#N vpatcher 78 302 470 463;#P hidden inlet 352 33 15 0;#P window setfont "Sans Serif" 18.;#P comment 12 24 214 196626 Scheduler Poll Throttle;#P window setfont "Sans Serif" 9.;#P comment 12 57 338 196617 Scheduler poll throttle is the number of events processed per servicing of the schdeduler's high priority event queue. High priority events include MIDI \, events generated by metro \, tempo \, line \, delay \, pipe \, snapshot~ \, and other scheduler based objects.;#P pop;#P hidden newobj 696 204 159 196617 p About_Scheduler_Poll_Throttle;#P hidden newex 696 181 45 196617 pcontrol;#N vpatcher 64 249 456 413;#P hidden inlet 352 33 15 0;#P window setfont "Sans Serif" 18.;#P comment 12 24 221 196626 Low Priority Sleep;#P window setfont "Sans Serif" 9.;#P comment 12 57 321 196617 Low priorty sleep is the amount of time the low priority thread sleeps between servicing the low priority event queue. Low priority events include user interface events \, graphics operations \, reading files from disk \, and other expensive operations that would otherwise cause timing problems for the scheduler.;#P pop;#P hidden newobj 695 150 140 196617 p About_Low_Priority_Sleep;#P hidden newex 695 127 45 196617 pcontrol;#N vpatcher 65 194 464 389;#P hidden inlet 352 33 15 0;#P window setfont "Sans Serif" 18.;#P comment 12 24 137 196626 Scheduler Slop;#P window setfont "Sans Serif" 9.;#P comment 12 57 328 196617 Scheduler slop is the amount of time the scheduler is permitted to fall behind actual time before correcting the scheduler time to actual time. The scheduler will fall behind actual time if there are more high priority events than can be processed in real time. Scheduler slop prevents the scheduler from backlogging in such a case with some threshold. This threshold is the "slop". Typcially some amount of slop is desired so that high priority events (like a metronome) will maintain long term temporal accuracy \, despite small temporal deviations.;#P pop;#P hidden newobj 694 96 118 196617 p About_Scheduler_Slop;#P hidden newex 694 73 45 196617 pcontrol;#N vpatcher 40 55 717 378;#P outlet 121 222 15 0;#P window setfont "Sans Serif" 9.;#P message 135 161 255 196617 script send __aboutrefreshbutton__ frgb 255 255 255;#P message 121 143 221 196617 script send __aboutrefreshbutton__ frgb 0 0 0;#P newex 144 55 40 196617 change;#P message 178 186 29 196617 open;#P newex 144 77 40 196617 sel 0 1;#P message 75 107 140 196617 shadow 2 \, brgb 200 200 200;#P message 109 125 145 196617 shadow -2 \, brgb 140 140 140;#P outlet 178 222 15 0;#P inlet 144 36 15 0;#P inlet 109 36 15 0;#P inlet 75 36 15 0;#P outlet 75 222 15 0;#P connect 1 0 6 0;#P connect 7 0 6 0;#P connect 5 0 0 0;#P connect 6 0 0 0;#P connect 7 1 5 0;#P connect 2 0 5 0;#P connect 1 0 10 0;#P connect 7 0 10 0;#P connect 10 0 12 0;#P connect 11 0 12 0;#P connect 2 0 11 0;#P connect 7 1 11 0;#P connect 3 0 9 0;#P connect 9 0 7 0;#P connect 1 0 8 0;#P connect 8 0 4 0;#P pop;#P hidden newobj 599 333 75 196617 p aboutrefresh;#P window setfont "Sans Serif" 10.;#P comment 435 333 48 196618 About...;#P objectname __aboutrefreshbutton__;#P user ubutton 424 330 65 22 0 6;#P user panel 424 330 65 21;#X brgb 200 200 200;#X frgb 0 0 0;#X border 1;#X rounded 8;#X shadow 2;#X done;#P window setfont "Sans Serif" 9.;#N vpatcher 40 55 717 378;#P outlet 121 222 15 0;#P window setfont "Sans Serif" 9.;#P message 135 161 248 196617 script send __abouteventbutton__ frgb 255 255 255;#P message 121 143 212 196617 script send __abouteventbutton__ frgb 0 0 0;#P newex 144 55 40 196617 change;#P message 178 186 29 196617 open;#P newex 144 77 40 196617 sel 0 1;#P message 75 107 140 196617 shadow 2 \, brgb 200 200 200;#P message 109 125 145 196617 shadow -2 \, brgb 140 140 140;#P outlet 178 222 15 0;#P inlet 144 36 15 0;#P inlet 109 36 15 0;#P inlet 75 36 15 0;#P outlet 75 222 15 0;#P connect 1 0 6 0;#P connect 7 0 6 0;#P connect 6 0 0 0;#P connect 5 0 0 0;#P connect 7 1 5 0;#P connect 2 0 5 0;#P connect 1 0 10 0;#P connect 7 0 10 0;#P connect 11 0 12 0;#P connect 10 0 12 0;#P connect 2 0 11 0;#P connect 7 1 11 0;#P connect 3 0 9 0;#P connect 9 0 7 0;#P connect 1 0 8 0;#P connect 8 0 4 0;#P pop;#P hidden newobj 599 272 65 196617 p aboutevent;#P window setfont "Sans Serif" 10.;#P comment 435 272 48 196618 About...;#P objectname __abouteventbutton__;#P user ubutton 424 269 65 22 0 6;#P user panel 424 269 65 21;#X brgb 200 200 200;#X frgb 0 0 0;#X border 1;#X rounded 8;#X shadow 2;#X done;#P window setfont "Sans Serif" 9.;#N vpatcher 40 55 717 378;#P outlet 121 222 15 0;#P window setfont "Sans Serif" 9.;#P message 135 161 248 196617 script send __aboutqueuebutton__ frgb 255 255 255;#P message 121 143 212 196617 script send __aboutqueuebutton__ frgb 0 0 0;#P newex 144 55 40 196617 change;#P message 178 186 29 196617 open;#P newex 144 77 40 196617 sel 0 1;#P message 75 107 140 196617 shadow 2 \, brgb 200 200 200;#P message 109 125 145 196617 shadow -2 \, brgb 140 140 140;#P outlet 178 222 15 0;#P inlet 144 36 15 0;#P inlet 109 36 15 0;#P inlet 75 36 15 0;#P outlet 75 222 15 0;#P connect 1 0 6 0;#P connect 7 0 6 0;#P connect 5 0 0 0;#P connect 6 0 0 0;#P connect 7 1 5 0;#P connect 2 0 5 0;#P connect 1 0 10 0;#P connect 7 0 10 0;#P connect 10 0 12 0;#P connect 11 0 12 0;#P connect 2 0 11 0;#P connect 7 1 11 0;#P connect 3 0 9 0;#P connect 9 0 7 0;#P connect 1 0 8 0;#P connect 8 0 4 0;#P pop;#P hidden newobj 599 216 65 196617 p aboutqueue;#P window setfont "Sans Serif" 10.;#P comment 435 216 48 196618 About...;#P objectname __aboutqueuebutton__;#P user ubutton 424 213 65 22 0 6;#P user panel 424 213 65 21;#X brgb 200 200 200;#X frgb 0 0 0;#X border 1;#X rounded 8;#X shadow 2;#X done;#P window setfont "Sans Serif" 9.;#N vpatcher 40 55 717 378;#P outlet 121 222 15 0;#P window setfont "Sans Serif" 9.;#P message 135 161 239 196617 script send __aboutpollbutton__ frgb 255 255 255;#P message 121 143 203 196617 script send __aboutpollbutton__ frgb 0 0 0;#P newex 144 55 40 196617 change;#P message 178 186 29 196617 open;#P newex 144 77 40 196617 sel 0 1;#P message 75 107 140 196617 shadow 2 \, brgb 200 200 200;#P message 109 125 145 196617 shadow -2 \, brgb 140 140 140;#P outlet 178 222 15 0;#P inlet 144 36 15 0;#P inlet 109 36 15 0;#P inlet 75 36 15 0;#P outlet 75 222 15 0;#P connect 1 0 6 0;#P connect 7 0 6 0;#P connect 6 0 0 0;#P connect 5 0 0 0;#P connect 7 1 5 0;#P connect 2 0 5 0;#P connect 1 0 10 0;#P connect 7 0 10 0;#P connect 11 0 12 0;#P connect 10 0 12 0;#P connect 2 0 11 0;#P connect 7 1 11 0;#P connect 3 0 9 0;#P connect 9 0 7 0;#P connect 1 0 8 0;#P connect 8 0 4 0;#P pop;#P hidden newobj 599 163 55 196617 p aboutpoll;#P window setfont "Sans Serif" 10.;#P comment 435 163 48 196618 About...;#P objectname __aboutpollbutton__;#P user ubutton 424 160 65 22 0 6;#P user panel 424 160 65 21;#X brgb 200 200 200;#X frgb 0 0 0;#X border 1;#X rounded 8;#X shadow 2;#X done;#P window setfont "Sans Serif" 9.;#N vpatcher 40 55 717 378;#P outlet 121 222 15 0;#P window setfont "Sans Serif" 9.;#P message 135 161 245 196617 script send __aboutsleepbutton__ frgb 255 255 255;#P message 121 143 210 196617 script send __aboutsleepbutton__ frgb 0 0 0;#P newex 144 55 40 196617 change;#P message 178 186 29 196617 open;#P newex 144 77 40 196617 sel 0 1;#P message 75 107 140 196617 shadow 2 \, brgb 200 200 200;#P message 109 125 145 196617 shadow -2 \, brgb 140 140 140;#P outlet 178 222 15 0;#P inlet 144 36 15 0;#P inlet 109 36 15 0;#P inlet 75 36 15 0;#P outlet 75 222 15 0;#P connect 1 0 6 0;#P connect 7 0 6 0;#P connect 5 0 0 0;#P connect 6 0 0 0;#P connect 7 1 5 0;#P connect 2 0 5 0;#P connect 1 0 10 0;#P connect 7 0 10 0;#P connect 10 0 12 0;#P connect 11 0 12 0;#P connect 2 0 11 0;#P connect 7 1 11 0;#P connect 3 0 9 0;#P connect 9 0 7 0;#P connect 1 0 8 0;#P connect 8 0 4 0;#P pop;#P hidden newobj 599 109 64 196617 p aboutsleep;#P window setfont "Sans Serif" 10.;#P comment 435 109 48 196618 About...;#P objectname __aboutsleepbutton__;#P user ubutton 424 106 65 22 0 6;#P user panel 424 106 65 21;#X brgb 200 200 200;#X frgb 0 0 0;#X border 1;#X rounded 8;#X shadow 2;#X done;#P window setfont "Sans Serif" 9.;#N vpatcher 40 55 717 378;#P outlet 121 222 15 0;#P window setfont "Sans Serif" 9.;#P message 135 161 241 196617 script send __aboutslopbutton__ frgb 255 255 255;#P message 121 143 205 196617 script send __aboutslopbutton__ frgb 0 0 0;#P newex 144 55 40 196617 change;#P message 178 186 29 196617 open;#P newex 144 77 40 196617 sel 0 1;#P message 75 107 140 196617 shadow 2 \, brgb 200 200 200;#P message 109 125 145 196617 shadow -2 \, brgb 140 140 140;#P outlet 178 222 15 0;#P inlet 144 36 15 0;#P inlet 109 36 15 0;#P inlet 75 36 15 0;#P outlet 75 222 15 0;#P connect 1 0 6 0;#P connect 7 0 6 0;#P connect 6 0 0 0;#P connect 5 0 0 0;#P connect 7 1 5 0;#P connect 2 0 5 0;#P connect 1 0 10 0;#P connect 7 0 10 0;#P connect 11 0 12 0;#P connect 10 0 12 0;#P connect 2 0 11 0;#P connect 7 1 11 0;#P connect 3 0 9 0;#P connect 9 0 7 0;#P connect 1 0 8 0;#P connect 8 0 4 0;#P pop;#P hidden newobj 599 55 59 196617 p aboutslop;#P window setfont "Sans Serif" 10.;#P comment 435 55 48 196618 About...;#P objectname __aboutslopbutton__;#P user ubutton 424 52 65 22 0 6;#P user panel 424 52 65 21;#X brgb 200 200 200;#X frgb 0 0 0;#X border 1;#X rounded 8;#X shadow 2;#X done;#P window setfont "Sans Serif" 9.;#P hidden newex 217 569 43 196617 del 500;#P objectname __gxorxgxorxpattr__;#P window linecount 8;#P hidden message 680 439 124 196617 bang \; max setslop 25 \; max setsleep 2 \; max setpollthrottle 20 \; max setqueuethrottle 10 \; max seteventinterval 2 \; max refreshrate 30 \; max enablerefresh 1 \;;#P window linecount 1;#N vpatcher 40 55 717 378;#P outlet 121 222 15 0;#P window setfont "Sans Serif" 9.;#P message 135 161 228 196617 script send __revertbutton__ frgb 255 255 255;#P message 121 143 192 196617 script send __revertbutton__ frgb 0 0 0;#P newex 144 55 40 196617 change;#P message 178 186 29 196617 bang;#P newex 144 77 40 196617 sel 0 1;#P message 75 107 140 196617 shadow 2 \, brgb 200 200 200;#P message 109 125 145 196617 shadow -2 \, brgb 140 140 140;#P outlet 178 222 15 0;#P inlet 144 36 15 0;#P inlet 109 36 15 0;#P inlet 75 36 15 0;#P outlet 75 222 15 0;#P connect 1 0 6 0;#P connect 7 0 6 0;#P connect 5 0 0 0;#P connect 6 0 0 0;#P connect 7 1 5 0;#P connect 2 0 5 0;#P connect 1 0 10 0;#P connect 7 0 10 0;#P connect 10 0 12 0;#P connect 11 0 12 0;#P connect 2 0 11 0;#P connect 7 1 11 0;#P connect 3 0 9 0;#P connect 9 0 7 0;#P connect 1 0 8 0;#P connect 8 0 4 0;#P pop;#P hidden newobj 657 387 45 196617 p revert;#P window setfont "Sans Serif" 10.;#P comment 319 387 43 196618 Revert;#P objectname __revertbutton__;#P user ubutton 296 384 89 22 0 6;#P user panel 296 384 89 21;#X brgb 200 200 200;#X frgb 0 0 0;#X border 1;#X rounded 8;#X shadow 2;#X done;#P window setfont "Sans Serif" 9.;#N vpatcher 40 55 717 378;#P outlet 121 222 15 0;#P window setfont "Sans Serif" 9.;#P message 135 161 235 196617 script send __defaultsbutton__ frgb 255 255 255;#P message 121 143 199 196617 script send __defaultsbutton__ frgb 0 0 0;#P newex 144 55 40 196617 change;#P message 178 186 29 196617 bang;#P newex 144 77 40 196617 sel 0 1;#P message 75 107 140 196617 shadow 2 \, brgb 200 200 200;#P message 109 125 145 196617 shadow -2 \, brgb 140 140 140;#P outlet 178 222 15 0;#P inlet 144 36 15 0;#P inlet 109 36 15 0;#P inlet 75 36 15 0;#P outlet 75 222 15 0;#P connect 1 0 6 0;#P connect 7 0 6 0;#P connect 5 0 0 0;#P connect 6 0 0 0;#P connect 7 1 5 0;#P connect 2 0 5 0;#P connect 1 0 10 0;#P connect 7 0 10 0;#P connect 10 0 12 0;#P connect 11 0 12 0;#P connect 2 0 11 0;#P connect 7 1 11 0;#P connect 3 0 9 0;#P connect 9 0 7 0;#P connect 1 0 8 0;#P connect 8 0 4 0;#P pop;#P hidden newobj 536 387 53 196617 p defaults;#P window setfont "Sans Serif" 10.;#P comment 130 387 52 196618 Defaults;#P objectname __defaultsbutton__;#P user ubutton 110 384 89 22 0 6;#P window setfont "Sans Serif" 9.;#P hidden newex 267 233 27 196617 - 1;#P hidden newex 267 179 27 196617 - 1;#P hidden newex 267 71 27 196617 - 1;#P hidden newex 267 287 27 196617 - 1;#P hidden newex 267 125 27 196617 - 1;#P hidden newex 267 351 27 196617 - 5;#P comment 310 69 88 196617 (100 ms);#P comment 305 56 105 196617 long term accuracy;#P comment 305 336 127 196617 faster \, more responsive;#P comment 310 349 88 196617 (60 Hz);#P comment 310 285 88 196617 (20 ms);#P comment 310 231 88 196617 (100 events);#P comment 310 177 88 196617 (100 events);#P comment 310 123 88 196617 (20 ms);#P comment 305 272 88 196617 less CPU usage;#P comment 305 218 116 196617 less event backlog;#P comment 305 164 88 196617 less event backlog;#P comment 305 110 126 196617 more time for other apps;#P comment 21 69 88 196617 (1 ms);#P comment 16 56 106 196617 short term accuracy;#P comment 15 336 112 196617 slower \, more efficient;#P comment 21 349 88 196617 (5 Hz);#P comment 21 285 88 196617 (1 ms);#P comment 21 231 88 196617 (1 event);#P comment 21 177 88 196617 (1 event);#P comment 21 123 88 196617 (1 ms);#P comment 16 272 88 196617 more accurate;#P comment 16 218 105 196617 less event clumping;#P comment 16 164 104 196617 less event clumping;#P comment 16 110 88 196617 more responsive;#P hidden message 11 357 239 196617 window flags nogrow \, savewindow 1 \, window exec;#P hidden message 11 375 159 196617 window flags grow \, window exec;#N thispatcher;#Q window flags nogrow close zoom nofloat;#Q window size 322 130 832 550;#Q window title;#Q window exec;#Q savewindow 1;#Q end;#P hidden newobj 11 444 60 196617 thispatcher;#P user umenu 255 316 52 196647 1 64 332 1;#X add Off;#X add On;#P objectname umenu;#P window setfont "Sans Serif" 10.;#P comment 123 147 196 196618 Scheduler Poll Throttle (events);#P comment 123 93 166 196618 Low Priority Sleep (ms.);#P comment 123 39 166 196618 Scheduler Slop (ms.);#P comment 123 317 166 196618 Screen Refresh (Hz.);#P comment 123 255 166 196618 Scheduler Event Interval (ms.);#P comment 123 201 200 196618 Low Priority Queue Throttle (events);#P window setfont "Sans Serif" 9.;#P comment 185 353 100 196617 | default 30;#P comment 133 289 100 196617 | default 2;#P comment 139 235 100 196617 | default 10;#P comment 152 181 100 196617 | default 20;#P comment 133 127 100 196617 | default 2;#P hidden message 318 318 38 196617 set \$1;#P window linecount 2;#P hidden message 559 347 108 196617 \; max enablerefresh \$1;#P window linecount 1;#P hidden newex 565 301 144 196617 r __gxorxgetenablerefresh__;#P hidden newex 217 441 45 196617 loadbang;#P hidden message 123 318 38 196617 set \$1;#P hidden message 267 318 38 196617 set \$1;#P flonum 267 335 35 9 5. 60. 3 3 0 0 0 221 221 221 222 222 222 0 0 0;#P objectname flonum;#P window linecount 2;#P hidden message 455 346 99 196617 \; max refreshrate \$1;#P window linecount 1;#P hidden newex 318 300 135 196617 r __gxorxgetrefreshrate__;#P user hslider 123 335 15 129 56 1 5 0;#P hidden message 123 92 38 196617 set \$1;#P hidden message 267 92 38 196617 set \$1;#P number 267 109 35 9 1 20 3 3 0 0 0 221 221 221 222 222 222 0 0 0;#P objectname number[1];#P window linecount 2;#P hidden message 455 125 83 196617 \; max setsleep \$1;#P window linecount 1;#P hidden newex 318 74 105 196617 r __gxorxgetsleep__;#P user hslider 123 109 15 129 20 1 1 0;#P hidden message 123 254 38 196617 set \$1;#P hidden message 267 254 38 196617 set \$1;#P number 267 271 35 9 1 20 3 3 0 0 0 221 221 221 222 222 222 0 0 0;#P objectname number[4];#P window linecount 2;#P hidden message 455 287 121 196617 \; max seteventinterval \$1;#P window linecount 1;#P hidden newex 318 236 143 196617 r __gxorxgeteventinterval__;#P user hslider 123 271 15 129 20 1 1 0;#P hidden message 123 200 38 196617 set \$1;#P hidden message 267 200 38 196617 set \$1;#P number 267 217 35 9 1 100 3 3 0 0 0 221 221 221 222 222 222 0 0 0;#P objectname number[3];#P window linecount 2;#P hidden message 455 233 120 196617 \; max setqueuethrottle \$1;#P window linecount 1;#P hidden newex 318 182 142 196617 r __gxorxgetqueuethrottle__;#P user hslider 123 217 15 129 100 1 1 0;#P hidden message 123 146 38 196617 set \$1;#P hidden message 267 146 38 196617 set \$1;#P number 267 163 35 9 1 100 3 3 0 0 0 221 221 221 222 222 222 0 0 0;#P objectname number[2];#P window linecount 2;#P hidden message 455 179 111 196617 \; max setpollthrottle \$1;#P window linecount 1;#P hidden newex 318 128 133 196617 r __gxorxgetpollthrottle__;#P user hslider 123 163 15 129 100 1 1 0;#P hidden message 123 38 38 196617 set \$1;#P hidden message 267 38 38 196617 set \$1;#P number 267 55 35 9 1 100 3 3 0 0 0 221 221 221 222 222 222 0 0 0;#P objectname number;#P window linecount 2;#P hidden message 455 71 78 196617 \; max setslop \$1;#P window linecount 8;#P hidden message 217 466 239 196617 bang \; max getslop __gxorxgetslop__ \; max getsleep __gxorxgetsleep__ \; max getpollthrottle __gxorxgetpollthrottle__ \; max getqueuethrottle __gxorxgetqueuethrottle__ \; max geteventinterval __gxorxgeteventinterval__ \; max getrefreshrate __gxorxgetrefreshrate__ \; max getenablerefresh __gxorxgetenablerefresh__;#P window linecount 1;#P hidden newex 318 20 100 196617 r __gxorxgetslop__;#P user hslider 123 55 15 129 100 1 1 0;#P comment 158 73 100 196617 | default 25;#P user panel 16 88 478 55;#X brgb 173 169 157;#X frgb 0 0 0;#X border 0;#X rounded 0;#X shadow 0;#X done;#P user panel 16 196 478 55;#X brgb 173 169 157;#X frgb 0 0 0;#X border 0;#X rounded 0;#X shadow 0;#X done;#P user panel 16 309 478 63;#X brgb 173 169 157;#X frgb 0 0 0;#X border 0;#X rounded 0;#X shadow 0;#X done;#P user panel 15 33 480 340;#X brgb 205 204 191;#X frgb 0 0 0;#X border 1;#X rounded 0;#X shadow 0;#X done;#P user panel 110 384 89 21;#X brgb 200 200 200;#X frgb 0 0 0;#X border 1;#X rounded 8;#X shadow 2;#X done;#P window linecount 3;#P hidden comment 264 567 205 196617 we need this big delay cause it sseems to take pattr some time after the patch is opened to be able to store the stuff;#P user panel 5 5 500 410;#X brgb 203 199 193;#X frgb 0 0 0;#X border 0;#X rounded 0;#X shadow 0;#X done;#P hidden fasten 154 0 61 0 16 511 5 511 5 436 16 436;#P hidden connect 63 0 61 0;#P hidden connect 62 0 61 0;#P hidden connect 96 1 61 0;#P hidden connect 100 1 61 0;#P hidden connect 106 1 61 0;#P hidden connect 110 1 61 0;#P hidden connect 114 1 61 0;#P hidden connect 118 1 61 0;#P hidden connect 122 1 61 0;#P hidden connect 126 1 61 0;#P hidden connect 61 0 153 0;#P hidden connect 153 0 154 0;#P hidden connect 155 0 153 1;#P hidden fasten 96 0 2 0 541 409 287 409 252 380 115 380;#P hidden connect 91 0 14 0;#P hidden connect 14 0 8 0;#P hidden connect 89 0 38 0;#P hidden connect 38 0 33 0;#P hidden connect 92 0 20 0;#P hidden connect 20 0 15 0;#P hidden connect 93 0 26 0;#P hidden connect 26 0 21 0;#P hidden connect 90 0 32 0;#P hidden connect 32 0 27 0;#P hidden connect 88 0 44 0;#P hidden connect 44 0 39 0;#P hidden connect 45 0 10 0;#P hidden connect 10 0 102 0;#P hidden connect 102 0 148 0;#P hidden connect 48 0 60 0;#P hidden connect 9 0 13 0;#P hidden connect 13 0 12 0;#P hidden connect 8 0 12 0;#P hidden connect 9 0 91 0;#P hidden connect 12 0 91 0;#P hidden connect 34 0 37 0;#P hidden connect 33 0 36 0;#P hidden connect 37 0 36 0;#P hidden connect 34 0 89 0;#P hidden connect 36 0 89 0;#P hidden connect 16 0 19 0;#P hidden connect 19 0 18 0;#P hidden connect 15 0 18 0;#P hidden connect 16 0 92 0;#P hidden connect 18 0 92 0;#P hidden connect 22 0 25 0;#P hidden connect 21 0 24 0;#P hidden connect 25 0 24 0;#P hidden connect 22 0 93 0;#P hidden connect 24 0 93 0;#P hidden connect 28 0 31 0;#P hidden connect 31 0 30 0;#P hidden connect 27 0 30 0;#P hidden connect 28 0 90 0;#P hidden connect 30 0 90 0;#P hidden connect 40 0 43 0;#P hidden connect 39 0 42 0;#P hidden connect 43 0 42 0;#P hidden connect 40 0 88 0;#P hidden connect 42 0 88 0;#P hidden fasten 100 0 97 0 662 409 515 409 480 380 301 380;#P hidden connect 46 0 48 0;#P hidden fasten 106 0 103 0 604 77 533 77 498 48 429 48;#P hidden fasten 110 0 107 0 604 131 533 131 498 102 429 102;#P hidden fasten 114 0 111 0 604 185 533 185 498 156 429 156;#P hidden fasten 118 0 115 0 604 238 533 238 498 209 429 209;#P hidden fasten 122 0 119 0 604 294 533 294 498 265 429 265;#P hidden fasten 126 0 123 0 604 355 533 355 498 326 429 326;#P hidden connect 12 0 11 0;#P hidden connect 36 0 35 0;#P hidden connect 18 0 17 0;#P hidden connect 24 0 23 0;#P hidden connect 30 0 29 0;#P hidden connect 42 0 41 0;#P hidden connect 45 0 149 0;#P hidden connect 148 0 147 0;#P hidden connect 100 2 150 0;#P hidden connect 149 0 150 0;#P hidden connect 147 0 150 0;#P hidden connect 146 0 139 0;#P hidden connect 145 0 139 0;#P hidden connect 144 0 139 0;#P hidden connect 143 0 139 0;#P hidden connect 142 0 139 0;#P hidden connect 141 0 139 0;#P hidden connect 140 0 139 0;#P hidden connect 139 0 147 1;#P hidden fasten 94 0 96 0 115 414 254 414 286 383 541 383;#P hidden fasten 94 1 96 1 141 412 253 412 285 381 562 381;#P hidden connect 60 0 47 0;#P hidden fasten 94 3 96 2 193 410 253 410 283 379 583 379;#P hidden fasten 104 0 106 0 429 82 500 82 532 51 604 51;#P hidden fasten 108 0 110 0 429 136 500 136 532 105 604 105;#P hidden fasten 112 0 114 0 429 190 500 190 532 159 604 159;#P hidden fasten 116 0 118 0 429 243 500 243 532 212 604 212;#P hidden fasten 120 0 122 0 429 299 500 299 532 268 604 268;#P hidden fasten 124 0 126 0 429 360 500 360 532 329 604 329;#P hidden fasten 112 1 114 1 447 188 499 188 531 157 626 157;#P hidden fasten 104 1 106 1 447 80 499 80 531 49 628 49;#P hidden fasten 108 1 110 1 447 134 499 134 531 103 631 103;#P hidden fasten 116 1 118 1 447 241 499 241 531 210 631 210;#P hidden fasten 120 1 122 1 447 297 499 297 531 266 631 266;#P hidden fasten 124 1 126 1 447 358 499 358 531 327 636 327;#P hidden fasten 112 3 114 2 483 186 499 186 529 155 648 155;#P hidden fasten 104 3 106 2 483 78 499 78 529 47 652 47;#P hidden fasten 108 3 110 2 483 132 499 132 529 101 658 101;#P hidden fasten 116 3 118 2 483 239 499 239 529 208 658 208;#P hidden fasten 120 3 122 2 483 295 499 295 529 264 658 264;#P hidden fasten 98 0 100 0 301 414 482 414 514 383 662 383;#P hidden fasten 124 3 126 2 483 356 499 356 529 325 668 325;#P hidden fasten 98 1 100 1 327 412 481 412 513 381 679 381;#P hidden connect 96 2 101 0;#P hidden connect 101 0 152 0;#P hidden connect 150 0 152 0;#P hidden connect 152 0 151 0;#P hidden fasten 98 3 100 2 379 410 481 410 511 379 696 379;#P hidden connect 106 2 127 0;#P hidden connect 127 0 128 0;#P hidden connect 110 2 129 0;#P hidden connect 129 0 130 0;#P hidden connect 114 2 131 0;#P hidden connect 131 0 132 0;#P hidden connect 118 2 133 0;#P hidden connect 133 0 134 0;#P hidden connect 122 2 135 0;#P hidden connect 135 0 136 0;#P hidden connect 126 2 137 0;#P hidden connect 137 0 138 0;#P hidden connect 9 0 140 0;#P hidden connect 34 0 141 0;#P hidden connect 16 0 142 0;#P hidden connect 22 0 143 0;#P hidden connect 28 0 144 0;#P hidden connect 40 0 145 0;#P hidden connect 46 0 146 0;#P pop;