max v2;#N vpatcher 325 44 1281 844;#P window setfont "Sans Serif" 9.;#P window linecount 1;#N vpatcher 30 89 334 260;#P toggle 50 69 15 0;#P window setfont "Sans Serif" 9.;#P newex 108 101 27 196617 - 0;#P newex 69 50 49 196617 t dump 1;#P newex 50 93 29 196617 gate;#P newex 125 80 154 196617 r $1/plugins/noopen;#P inlet 69 30 15 0;#P outlet 50 115 15 0;#P connect 5 0 6 0;#P connect 6 0 3 0;#P connect 3 0 0 0;#P connect 1 0 4 0;#P connect 4 0 3 1;#P connect 4 1 5 0;#P connect 2 0 5 1;#P pop;#P newobj 16 396 92 196617 p NO OPEN OPTION;#P newex 518 651 98 196617 sprintf /%s/loaded;#P newex 241 507 58 196617 checkexist;#B color 6;#P newex 241 485 36 196617 zl reg;#P newex 241 449 45 196617 t b b;#P newex 30 568 47 196617 forward;#B color 11;#P newex 30 510 45 196617 t open s;#P window linecount 2;#P newex 65 533 63 196617 sprintf send /%s/editor;#P window linecount 1;#P newex 30 488 69 196617 route symbol;#P newex 53 444 94 196617 sprintf store %s 0;#N coll ;#P newobj 16 467 53 196617 coll;#B color 5;#P newex 241 572 50 196617 deferlow;#P newex 504 684 54 196617 gate 1 $7;#P newex 453 651 62 196617 prepend set;#P newex 453 693 36 196617 zl reg;#P newex 453 724 74 196617 print tm_build;#P newex 453 672 44 196617 receive;#P newex 453 631 90 196617 sprintf /%s/built;#P newex 161 413 47 196617 del 1;#P newex 308 369 36 196617 t stop;#P newex 308 395 32 196617 del 1;#P window linecount 7;#P comment 538 441 127 196617 $1 \; $2 \; $3 \; $4 \; $5 \; $6 \; $7 \;;#B frgb 200 0 0;#P window linecount 1;#P newex 323 631 54 196617 gate 1 $6;#P newex 323 651 38 196617 t b s;#P newex 323 689 38 196617 zl join;#P message 323 671 41 196617 loading;#P number 23 156 35 9 0 0 0 3 0 0 0 221 221 221 222 222 222 0 0 0;#P newex 23 135 35 196617 t 100;#P newex 23 114 32 196617 sel 0;#P newex 23 73 48 196617 loadbang;#P message 23 95 78 196617 $5;#P newex 135 498 44 196617 del 100;#P newex 161 392 20 196617 t b;#P newex 161 435 50 196617 t resume;#N vpatcher 846 44 1259 398;#N comlet to coll;#P inlet 342 245 15 0;#N comlet coll out 2;#P outlet 256 305 15 0;#P window setfont "Sans Serif" 9.;#N coll ;#P newobj 229 279 91 196617 coll;#B color 5;#N comlet messages to uzi;#P inlet 24 190 15 0;#N comlet count display;#P outlet 293 245 15 0;#N comlet end;#P outlet 80 292 15 0;#N comlet coll out 1;#P outlet 229 305 15 0;#P inlet 57 29 15 0;#P newex 57 167 88 196617 t b start b;#P newex 57 146 32 196617 del 1;#P message 57 70 37 196617 length;#P button 57 189 15 0;#P newex 57 126 56 196617 t b i;#P newex 57 239 111 196617 t b next pause i;#P newex 57 214 56 196617 uzi;#P number 57 108 35 9 0 0 0 3 0 0 0 221 221 221 222 222 222 0 0 0;#P newex 57 88 99 196617 grab;#P connect 9 0 6 0;#P connect 6 0 0 0;#P connect 0 0 1 0;#P connect 1 0 4 0;#P connect 4 0 7 0;#P connect 7 0 8 0;#P connect 8 0 5 0;#P connect 13 0 2 0;#P fasten 3 2 2 0 128 260 141 260 141 208 62 208;#P lcolor 2;#P connect 5 0 2 0;#P connect 2 2 3 0;#P connect 2 1 11 0;#P connect 4 1 2 1;#P connect 0 1 14 0;#P connect 3 1 14 0;#P connect 8 1 14 0;#P connect 16 0 14 0;#P connect 14 0 10 0;#P connect 14 1 15 0;#P connect 3 3 12 0;#P pop;#P newobj 224 225 63 196617 p length-uzi;#B color 6;#P message 101 328 33 196617 built.;#P newex 101 348 107 196617 prepend $2;#P newex 166 30 122 196617 sprintf set %s/%s/build;#P newex 229 60 128 196617 sprintf set %s/%s/delete;#P newex 101 369 94 196617 print $1;#P newex 74 305 127 196617 sprintf send %s/%s/built;#P newex 50 326 47 196617 forward;#B color 11;#P newex 682 38 48 196617 loadbang;#P newex 255 121 139 196617 sprintf send %s/%s/deleted;#P message 776 80 86 196617 $2;#P comment 469 346 141 196617 check modules for arguments;#P newex 707 207 127 196617 sprintf refer %s_modules;#P window linecount 7;#P comment 664 441 258 196617 arg1 = environnement (ex /tape \, /tapemovie \, /movie \; arg2 = type of module to build (i.e. devices \, osc...) \; arg3 = x position starting point for creating objects \; arg4 = object width \; arg 5 : interinit del time (def = 100) \; arg 6 : print start build names 1/0 \; arg 7 : print end build names 1/0;#P window linecount 1;#P newex 682 59 104 196617 t b b;#P message 682 80 78 196617 $1;#P message 803 102 43 196617 /movie;#P message 764 102 35 196617 /tape;#P message 696 102 62 196617 /tapemovie;#P newex 682 184 118 196617 sprintf refer %s_config;#P message 770 162 16 196617 m;#P message 726 162 14 196617 t;#P message 682 162 20 196617 tm;#P newex 682 139 142 196617 sel /tapemovie /tape /movie;#P newex 456 409 51 196617 zl ecils 1;#P newex 415 386 51 196617 zl slice 2;#N coll ;#P newobj 415 345 53 196617 coll;#B color 5;#P newex 357 576 31 196617 + 50;#P newex 456 430 29 196617 t l 2;#P comment 289 474 64 196617 modulename;#P comment 379 474 48 196617 filename;#P newex 415 365 42 196617 t l 1;#P comment 245 593 64 196617 modulename;#P comment 497 592 64 196617 modulename;#P newex 373 455 51 196617 zl slice 1;#P newex 293 455 69 196617 route symbol;#N coll ;#P newobj 241 345 167 196617 coll;#B color 5;#P button 88 180 15 0;#P newex 88 198 264 196617 t b b b;#P newex 241 301 82 196617 t b s;#P newex 241 321 37 196617 zl reg;#P newex 241 281 71 196617 route $2;#P newex 50 278 32 196617 del 1;#P newex 764 557 44 196617 del 100;#P newex 230 146 47 196617 forward;#B color 11;#P button 230 127 15 0;#P message 516 199 33 196617 clear;#P newex 562 606 94 196617 sprintf store %s 0;#P newex 241 653 51 196617 zl join;#P newex 174 632 77 196617 gate 2;#P newex 183 60 44 196617 receive;#B color 11;#P newex 116 30 44 196617 receive;#B color 11;#P button 183 82 15 0;#P comment 201 82 39 196617 delete;#P button 116 82 15 0;#P comment 134 82 31 196617 build;#P newex 183 104 50 196617 deferlow;#P newex 116 104 50 196617 deferlow;#P newex 183 148 38 196617 del 10;#P newex 183 126 45 196617 onebang;#P newex 116 126 54 196617 onebang 1;#P newex 116 150 44 196617 del 100;#P newex 715 584 69 196617 route symbol;#N coll ;#P newobj 697 557 64 196617 coll;#B color 5;#P message 553 199 33 196617 dump;#P newex 715 608 75 196617 prepend delete;#P message 357 553 33 196617 set 0;#P newex 316 544 37 196617 t b 20;#P newex 316 576 40 196617 accum;#P newex 241 539 36 196617 zl reg;#P newex 241 688 73 196617 prepend script;#P newex 241 606 305 196617 sprintf new %s newex $3 %ld $4 1310729 %s /%s;#P outlet 241 714 15 0;#P newex 241 418 32 196617 sel 1;#P newex 241 397 27 196617 > 0;#P newex 241 372 51 196617 zl slice 1;#P comment 410 592 48 196617 filename;#P window linecount 4;#P comment 666 381 167 196617 checks tm_modules to see which modules are $2 \, then outputs those modules from tm_config and builds those that are > 0 in number.;#B frgb 200 0 0;#P connect 35 0 111 0;#P connect 111 0 101 0;#P connect 102 0 101 0;#P connect 82 0 81 0;#P connect 81 0 83 0;#P connect 83 0 84 0;#P connect 83 1 85 0;#P connect 84 0 85 0;#P connect 101 1 103 0;#P connect 103 0 105 0;#P connect 105 0 106 0;#P connect 104 0 106 0;#P connect 77 0 35 0;#P connect 35 0 70 0;#P connect 71 0 70 0;#P connect 37 0 102 0;#P connect 105 1 104 0;#P connect 62 0 71 0;#P lcolor 1;#P connect 16 0 40 0;#P connect 40 0 39 0;#P connect 35 0 76 0;#P connect 76 0 75 0;#P connect 75 0 72 0;#P connect 74 0 26 0;#P connect 26 0 23 0;#P connect 23 0 20 0;#P connect 20 0 17 0;#P connect 17 0 16 0;#P connect 95 0 80 0;#P lcolor 15;#P connect 18 0 17 1;#P connect 36 1 79 0;#P connect 4 1 79 0;#P connect 91 0 79 0;#P connect 79 0 93 0;#P connect 109 0 93 0;#P connect 93 0 78 0;#P connect 80 0 78 0;#P connect 62 0 74 0;#P lcolor 1;#P connect 85 0 80 1;#P connect 46 1 28 0;#P connect 49 1 28 0;#P connect 73 0 27 0;#P connect 27 0 25 0;#P connect 25 0 21 0;#P connect 21 0 18 0;#P connect 18 0 19 0;#P connect 67 0 71 1;#P lcolor 1;#P connect 17 0 18 1;#P fasten 78 0 77 0 166 454 214 454 214 221 229 221;#P lcolor 6;#P connect 62 0 73 0;#P lcolor 1;#P connect 34 0 32 0;#P connect 18 1 32 0;#P connect 68 0 33 0;#P connect 32 0 33 0;#P connect 77 1 36 0;#P connect 36 0 38 0;#P connect 38 0 37 0;#P connect 37 0 41 0;#P connect 58 0 41 0;#P lcolor 1;#P connect 41 0 2 0;#P connect 2 0 3 0;#P connect 3 0 4 0;#P connect 4 0 107 0;#P connect 107 0 108 0;#P connect 108 0 109 0;#P fasten 109 1 8 0 294 529 246 529;#P lcolor 3;#P connect 8 0 100 0;#P connect 100 0 6 0;#P connect 6 0 28 1;#P connect 28 1 29 0;#P fasten 12 0 7 0 720 676 246 676;#P lcolor 14;#P connect 29 0 7 0;#P connect 28 0 7 0;#P connect 7 0 5 0;#P connect 39 1 77 1;#P connect 62 0 68 0;#P lcolor 1;#P connect 42 0 108 1;#P connect 42 0 8 1;#P connect 77 2 37 1;#P connect 65 0 77 2;#P lcolor 1;#P connect 67 0 74 1;#P lcolor 1;#P connect 49 0 29 1;#P connect 41 1 42 0;#P connect 41 0 92 0;#P connect 38 0 91 0;#P connect 92 0 91 0;#P connect 107 1 10 0;#P connect 10 0 9 0;#P connect 11 0 9 0;#P connect 89 0 88 0;#P connect 88 0 86 0;#P connect 86 0 87 0;#P connect 10 1 9 1;#P connect 50 0 6 1;#P connect 67 0 73 1;#P lcolor 1;#P connect 88 1 87 1;#P connect 39 2 11 0;#P connect 9 0 50 0;#P connect 8 0 89 1;#P fasten 38 1 43 0 318 321 378 321;#P connect 67 0 68 1;#P lcolor 1;#P connect 65 0 51 0;#P lcolor 1;#P fasten 37 0 51 0 246 341 420 341;#P lcolor 15;#P connect 51 0 46 0;#P connect 46 0 52 0;#P connect 43 0 6 2;#P connect 8 0 94 0;#P connect 94 0 98 0;#P connect 98 0 95 0;#P connect 95 0 97 0;#P connect 87 0 96 0;#P fasten 99 0 96 0 509 716 458 716;#P connect 52 1 53 0;#P connect 53 0 49 0;#P connect 110 0 97 1;#P connect 39 2 31 0;#P connect 8 0 110 0;#P connect 42 0 6 3;#P connect 97 0 99 1;#P connect 19 0 13 0;#P connect 8 0 30 0;#P lcolor 7;#P connect 69 0 63 0;#P connect 63 0 62 0;#P connect 61 0 54 0;#P connect 60 0 54 0;#P connect 59 0 54 0;#P connect 62 0 54 0;#P connect 54 0 55 0;#P connect 57 0 58 0;#P connect 55 0 58 0;#P connect 56 0 58 0;#P connect 13 0 14 0;#P connect 31 0 14 0;#P fasten 30 0 14 0 567 632 684 632 684 552 702 552;#P connect 57 0 65 0;#P connect 56 0 65 0;#P connect 55 0 65 0;#P connect 14 1 15 0;#P connect 15 0 12 0;#P connect 54 1 56 0;#P connect 14 3 34 0;#P connect 54 2 57 0;#P connect 63 1 67 0;#P pop;