max v2;#N vpatcher 512 44 1024 154;#P window setfont "Sans Serif" 9.;#P newex 146 159 21 196617 t 0;#P newex 345 383 94 196617 s /tape/init/reset;#B color 11;#P user ubutton 85 14 48 27 0 2;#P objectname patcherubutton;#P message 169 385 30 196617 open;#P newex 169 403 131 196617 s /tape/t_patchers/editor;#B color 11;#P toggle 253 326 15 0;#P button 195 326 15 0;#P newex 168 304 110 196617 pvar patcherubutton 4;#B color 14;#P newex 254 344 32 196617 sel 0;#P message 222 346 29 196617 stop;#P button 169 367 15 0;#P newex 169 346 50 196617 del 1000;#P button 168 325 15 0;#P newex 311 403 124 196617 s /tape/autoconfig/state;#B color 11;#P message 311 337 14 196617 0;#P newex 311 308 50 196617 del 1000;#P user ubutton 65 41 84 20 0 2;#P objectname initubutton;#P toggle 443 251 15 0;#P button 389 251 15 0;#P newex 362 229 91 196617 pvar initubutton 4;#B color 14;#P newex 448 307 32 196617 sel 0;#P newex 464 384 79 196617 pvar initoutline;#B color 14;#P newex 380 334 30 196617 t b b;#P newex 412 335 44 196617 del 100;#P message 416 308 29 196617 stop;#P newex 363 364 94 196617 s /tape/buildreset;#B color 11;#P button 363 336 15 0;#P newex 363 308 50 196617 del 1000;#P window linecount 2;#P message 362 272 85 196617 \; /tape/build bang;#P button 362 250 15 0;#P window linecount 1;#N vpatcher 467 199 805 401;#P window setfont "Sans Serif" 9.;#P newex 274 50 32 196617 sel 0;#P message 23 112 92 196617 frgb 220 210 240;#P message 150 108 80 196617 frgb 0 146 207;#N comlet from mouse up bang;#P inlet 23 62 15 0;#N comlet from right outlet;#P inlet 274 30 15 0;#N comlet from mouse down bang;#P inlet 150 58 15 0;#N comlet to panel;#P outlet 150 151 15 0;#P connect 6 0 5 0;#P connect 3 0 5 0;#P connect 1 0 4 0;#P connect 5 0 0 0;#P connect 4 0 0 0;#P connect 2 0 6 0;#P pop;#P newobj 464 362 79 196617 p updowncolors;#B color 6;#P hidden message 153 49 43 196617 nogrow;#P objectname nogrow;#P hidden message 153 34 33 196617 grow;#P objectname grow;#N vpatcher 432 153 1303 693;#P origin 127 18;#P window setfont "Sans Serif" 9.;#P message 226 150 14 196617 0;#P window linecount 1;#P newex 225 131 53 196617 sel noedit;#P newex 254 202 29 196617 gate;#P newex 172 112 92 196617 t l 1;#P button 77 201 15 0;#P window linecount 2;#P newex 77 168 88 196617 r /tape/instruments/open;#B color 11;#P window linecount 1;#P newex 26 200 30 196617 t b b;#P window linecount 0;#P message 26 401 30 196617 open;#P window linecount 1;#P newex 26 425 111 196617 s /instruments/editor;#B color 11;#P window linecount 0;#P message 26 222 64 196617 instruments;#P window linecount 1;#P newex 60 358 51 196617 tosymbol;#P newex 60 379 66 196617 prepend load;#P window linecount 3;#P newex 60 313 88 196617 sprintf %sinstruments/instruments.mxt;#P window linecount 1;#P newex 60 291 62 196617 projectpath;#B color 6;#P button 78 266 15 0;#P button 26 265 15 0;#P window linecount 0;#P newex 60 400 47 196617 pcontrol;#P newex 26 243 62 196617 checkexist;#B color 6;#P window linecount 1;#P message 594 152 49 196617 windows;#P message 512 153 76 196617 enableitem 0 0;#P button 512 110 15 0;#P newex 512 131 174 196617 t b b clear;#P message 614 351 192 196617 windows \, instruments \, samples \, editors;#P message 532 329 149 196617 enableitem 0 0 \, enableitem 3 0;#P message 331 124 149 196617 enableitem 5 0 \, enableitem 0 0;#P message 410 91 42 196617 editors;#P message 453 91 203 196617 iometers \, fxmeters \, instruments \, samples;#P window linecount 0;#P message 293 91 33 196617 mtrx;#P button 532 286 15 0;#P window linecount 1;#P newex 532 307 174 196617 t b b clear;#P newex 532 264 140 196617 r /tape/windowsmenu/clear;#B color 11;#P newex 172 150 18 196617 t i;#P newex 172 193 32 196617 sel 1;#P newex 172 172 27 196617 > 0;#P newex 172 131 51 196617 zl slice 1;#P newex 172 222 53 196617 zl reg;#P window linecount 0;#P message 236 413 33 196617 set 0;#P window linecount 1;#P newex 26 80 133 196617 route windows instruments;#P newex 366 335 31 196617 t 2 s;#P newex 265 389 38 196617 gate 2;#P newex 293 333 34 196617 t s;#P newex 366 281 31 196617 t s 1;#P newex 225 285 55 196617 t sub subb;#P newex 293 413 83 196617 sprintf %s (%s);#N coll t_shortcuts 1;#P newobj 366 309 91 196617 coll t_shortcuts 1;#B color 5;#P window linecount 0;#P newex 206 29 130 196617 r /tape/windowsmenu/fill;#B color 11;#P newex 193 243 74 196617 route spat sub;#P button 186 29 15 0;#P newex 293 448 78 196617 prepend append;#P newex 206 60 318 196617 t dump b b b;#P newex 215 167 69 196617 route symbol;#N coll t_config 1;#P newobj 172 93 75 196617 coll t_config 1;#B color 5;#N comlet to menu input;#P outlet 293 480 15 0;#P newex 26 142 51 196617 t open l b;#P newex 26 169 47 196617 forward;#P newex 26 115 120 196617 sprintf send /%s/editor;#N comlet from second menu output;#P inlet 26 46 15 0;#P connect 0 0 19 0;#P connect 19 2 1 0;#P connect 1 0 3 0;#P connect 3 0 2 0;#P connect 3 1 2 0;#P connect 19 1 50 0;#P connect 52 0 47 0;#P connect 50 0 47 0;#P connect 47 0 39 0;#P connect 39 0 41 0;#P connect 41 0 49 0;#P connect 49 0 48 0;#P connect 42 0 43 0;#P connect 43 0 44 0;#P connect 44 0 46 0;#P connect 46 0 45 0;#P connect 45 0 40 0;#P connect 51 0 52 0;#P connect 39 1 42 0;#P fasten 7 0 5 0 211 86 177 86;#P connect 5 0 53 0;#P connect 53 0 22 0;#P connect 22 0 25 0;#P connect 25 0 23 0;#P connect 23 0 24 0;#P connect 54 0 21 0;#P connect 21 0 10 0;#P connect 9 0 7 0;#P connect 11 0 7 0;#P connect 5 1 6 0;#P connect 6 0 21 1;#P connect 22 1 55 0;#P connect 10 1 14 0;#P connect 55 0 56 0;#P connect 3 2 20 0;#P connect 50 1 20 0;#P connect 56 0 54 0;#P connect 53 1 54 0;#P connect 15 1 17 0;#P connect 18 0 17 0;#P connect 24 0 54 1;#P connect 10 2 16 0;#P connect 30 0 16 0;#P connect 14 0 16 0;#P connect 29 0 16 0;#P connect 16 0 17 1;#P connect 17 1 13 0;#P connect 38 0 8 0;#P connect 34 0 8 0;#P connect 13 0 8 0;#P connect 17 0 8 0;#P connect 31 0 8 0;#P connect 37 0 4 0;#P connect 35 2 4 0;#P connect 27 2 4 0;#P connect 33 0 4 0;#P connect 8 0 4 0;#P connect 20 0 4 0;#P connect 32 0 4 0;#P connect 7 2 32 0;#P connect 29 0 15 0;#P connect 10 2 15 0;#P connect 14 1 15 0;#P connect 30 0 15 0;#P connect 15 0 12 0;#P connect 12 0 18 0;#P connect 18 1 13 1;#P connect 7 2 31 0;#P connect 7 2 30 0;#P connect 7 3 36 0;#P connect 36 0 35 0;#P connect 35 0 37 0;#P connect 26 0 28 0;#P connect 28 0 27 0;#P connect 27 0 33 0;#P connect 35 1 38 0;#P connect 27 1 34 0;#P pop;#P hidden newobj 393 20 95 196617 p t_menu-windows;#P window setfont "Sans Serif" 14.;#P user ubumenu 385 17 110 196622 0 1 1 0;#X setrgb 0 0 0 220 210 240 240 240 240 0 146 207 141 141 141 0 77 166;#X add windows;#X add instruments;#X add samples;#X add editors;#X prefix_set 0 0 <none> 0;#P bpatcher 104 77 96 18 0 0 t_cpu.disp.mxt 1 cpuusage;#P window setfont Times 9.;#P hidden newex 427 77 60 1310729 prepend set 1;#P hidden newex 359 77 63 1310729 varin /dac/vol;#P comment 280 80 41 1310729 /dac/vol;#B frgb 0 0 200;#P window setfont Times 14.;#P flonum 316 77 37 14 0. 2. 3 20 0 0 0 221 221 221 222 222 222 0 0 0;#P user multiSlider 353 77 142 17 0. 2. 1 2936 47 0 0 2 0 0 0;#M frgb 0 135 166;#M brgb 32 32 32;#M rgb2 127 127 127;#M rgb3 62 41 109;#M rgb4 37 52 91;#M rgb5 74 105 182;#M rgb6 112 158 18;#M rgb7 149 211 110;#M rgb8 187 9 201;#M rgb9 224 62 37;#M rgb10 7 114 128;#P window setfont "Sans Serif" 9.;#P newex 225 121 67 196617 pvar nogrow;#B color 14;#P newex 375 121 57 196617 pvar grow;#B color 14;#P user hint 84 13 133 41 "© 2006-8 Tom Mays & Olivier Pfeiffer" 100 100 0 65535 65535 52428 9 3 0 1 0 0 0;#P bpatcher 204 12 172 56 0 0 t_snapshot.edit.mxt 0 t_snapshot tape_switchstate /mtrx tape_matrix;#P newex 371 197 93 196617 fixedsize 512 110;#B color 6;#P newex 171 159 20 196617 t b;#P window linecount 2;#P message 208 143 147 196617 window flags nogrow \, window flags noclose \, window exec;#P button 208 121 15 0;#P button 358 121 15 0;#P message 358 142 135 196617 window flags grow \, window flags close \, window exec;#P window linecount 1;#P newex 371 177 127 196617 editorwindow /tape /tape;#B color 6;#P bpatcher 17 76 84 20 0 0 t_dsponoffbutton.mxt 0;#N vpatcher 362 145 1345 564;#P origin -26 13;#P window setfont "Sans Serif" 9.;#P window linecount 1;#P message 733 133 222 196617 preferences \, t_config \, audiosettings \, audiotest;#P message 637 133 76 196617 enableitem 0 0;#P newex 181 263 98 196617 r /audiotest/editor;#B color 11;#P newex 398 80 30 196617 t b b;#P message 450 172 103 196617 load t_audiotest.mxt;#P message 398 197 30 196617 open;#P newex 398 221 98 196617 s /audiotest/editor;#B color 11;#P message 398 108 51 196617 audiotest;#P button 450 152 15 0;#P button 398 151 15 0;#P newex 450 191 47 196617 pcontrol;#P newex 398 129 62 196617 checkexist;#B color 6;#P message 544 232 33 196617 set 0;#P window linecount 0;#P newex 241 316 50 196617 deferlow;#P window linecount 1;#P newex 205 285 116 196617 r /audiosettings/editor;#B color 11;#P newex 247 80 30 196617 t b b;#P message 299 172 85 196617 load t_audio.mxt;#P message 247 197 30 196617 open;#P newex 247 221 116 196617 s /audiosettings/editor;#B color 11;#P message 247 108 69 196617 audiosettings;#P button 299 152 15 0;#P button 247 151 15 0;#P newex 299 191 47 196617 pcontrol;#P newex 247 129 62 196617 checkexist;#B color 6;#P newex 64 290 120 196617 r /tape/config/edit/init;#B color 11;#P newex 46 268 109 196617 r /tape/config/editor;#B color 11;#P newex 205 318 20 196617 t b;#P newex 64 80 30 196617 t b b;#P message 116 172 116 196617 load t_configeditor.mxt;#P message 64 197 30 196617 open;#P newex 64 221 109 196617 s /tape/config/editor;#B color 11;#P message 64 108 62 196617 tape/config;#P button 116 152 15 0;#P button 64 151 15 0;#P newex 116 191 47 196617 pcontrol;#P newex 64 129 62 196617 checkexist;#B color 6;#P window linecount 0;#P newex 733 158 78 196617 prepend append;#P newex 637 36 145 196617 r /tape/preferencesmenu/fill;#B color 11;#P button 617 36 15 0;#P newex 637 61 203 196617 t b b clear;#P message 205 340 33 196617 set 0;#N comlet back to ubumenu;#P outlet 293 373 15 0;#P newex 64 43 413 196617 route t_config audiosettings audiotest;#N comlet from second menu output;#P inlet 64 21 15 0;#P connect 0 0 1 0;#P connect 1 0 16 0;#P connect 16 0 12 0;#P connect 12 0 8 0;#P connect 8 0 10 0;#P connect 10 0 14 0;#P connect 14 0 13 0;#P connect 8 1 11 0;#P connect 11 0 15 0;#P connect 15 0 9 0;#P connect 29 0 17 0;#P fasten 19 0 17 0 69 314 210 314;#P fasten 18 0 17 0 51 314 210 314;#P connect 41 0 17 0;#P connect 30 0 3 0;#P connect 17 0 3 0;#P connect 35 0 30 0;#P connect 23 0 30 0;#P connect 11 0 30 0;#P connect 1 1 28 0;#P connect 28 0 24 0;#P connect 24 0 20 0;#P connect 20 0 22 0;#P connect 22 0 26 0;#P connect 26 0 25 0;#P connect 7 0 2 0;#P connect 31 0 2 0;#P fasten 4 2 2 0 834 335 298 335;#P connect 42 0 2 0;#P connect 20 1 23 0;#P connect 23 0 27 0;#P connect 27 0 21 0;#P connect 1 2 40 0;#P connect 40 0 36 0;#P connect 36 0 32 0;#P connect 32 0 34 0;#P connect 34 0 38 0;#P connect 38 0 37 0;#P connect 32 1 35 0;#P connect 35 0 39 0;#P connect 39 0 33 0;#P connect 16 1 31 0;#P connect 28 1 31 0;#P connect 40 1 31 0;#P connect 5 0 4 0;#P connect 6 0 4 0;#P connect 4 0 42 0;#P connect 4 1 43 0;#P connect 43 0 7 0;#P pop;#P hidden newobj 404 44 76 196617 p t_menu-arch;#P window setfont "Sans Serif" 14.;#P user ubumenu 385 41 110 196622 0 1 1 0;#X setrgb 0 0 0 220 210 240 240 240 240 0 146 207 141 141 141 0 77 166;#X add preferences;#X add t_config;#X add audiosettings;#X add audiotest;#X prefix_set 0 0 <none> 0;#P user jsui 66 41 83 20 0 0 0 jsui_roundedlabel.js init_tape;#P objectname init;#P user panel 65 40 85 22;#X brgb 255 255 255;#X frgb 220 210 240;#X border 1;#X rounded 0;#X shadow 0;#X done;#P objectname initoutline;#P window setfont "Sans Serif" 9.;#P newex 171 217 49 196617 pvar init;#P message 171 198 80 196617 frgb 0 146 207;#P message 189 179 93 196617 brgb 220 210 240;#P window setfont Times 9.;#P newex 106 317 42 1310729 split 0 0;#P toggle 106 298 16 0;#P window setfont "Sans Serif" 9.;#P newex 106 278 124 196617 r /tape/autoconfig/state;#B color 11;#P window setfont Times 9.;#P newex 77 317 18 1310729 t 1;#P newex 62 296 40 1310729 sel 1 0;#P window setfont "Sans Serif" 9.;#P message 21 349 69 196617 brgb 128 0 0;#P toggle 62 276 16 0;#P newex 62 256 83 196617 r /tape/building;#B color 11;#N standalone;#S creator TAPE;#S statusvisible 1;#S noloadbangdefeating 0;#S useownplist 0;#S preffilename "TAPE 0.1a Preferences";#S overdrive 0;#S allwindowsactive 0;#S searchformissingfiles 1;#S usesearchpath 0;#S cantclosetoplevelpatchers 1;#S audiosupport 1;#S midisupport 1;#P newobj 252 271 57 196617 standalone;#P toggle 146 218 15 0;#P window setfont Times 9.;#P newex 66 371 76 1310729 pvar mainpanel;#P window setfont "Sans Serif" 9.;#P newex 98 348 56 196617 t_swcolor;#B color 5;#N thispatcher;#Q end;#P newobj 306 187 61 196617 thispatcher;#P window setfont Times 9.;#P newex 252 246 76 1310729 bgcolor 64 64 64;#P window setfont "Sans Serif" 20.;#P comment 84 13 50 196628 tape;#B frgb 0 77 166;#P window setfont "Sans Serif" 9.;#P newex 155 121 45 196617 loadbang;#P window setfont Times 18.;#N vpatcher 474 184 997 670;#P origin 0 29;#P window setfont Times 18.;#P window linecount 0;#N vpatcher 20 74 344 392;#P window setfont "Sans Serif" 9.;#P newex 82 106 54 196617 onebang 1;#P newex 50 210 57 196617 pack 0. 10;#P newex 50 265 59 196617 s /dac/vol;#B color 11;#P newex 182 228 57 196617 pack 0. 10;#P button 182 136 15 0;#P newex 182 208 27 196617 f;#P newex 50 83 42 196617 t b b;#P message 150 64 20 196617 \$1;#P newex 150 44 59 196617 r /dac/vol;#B color 11;#P button 50 64 15 0;#P newex 50 45 87 196617 r /dac/vol/mute;#B color 11;#P newex 182 116 97 196617 r /dac/vol/unmute;#B color 11;#P newex 82 130 63 196617 f;#P connect 2 0 3 0;#P connect 3 0 6 0;#P connect 6 0 11 0;#P connect 11 0 10 0;#P connect 9 0 10 0;#P connect 6 1 12 0;#P connect 12 0 0 0;#P connect 8 0 12 1;#P connect 5 0 0 1;#P connect 4 0 5 0;#P connect 1 0 8 0;#P connect 8 0 7 0;#P connect 7 0 9 0;#P connect 0 0 7 1;#P pop;#P newobj 279 346 108 1310738 p dac_muting;#B color 11;#N vpatcher 741 130 1272 647;#P origin 49 0;#P window setfont "Sans Serif" 9.;#P window linecount 1;#P message 298 391 30 196617 done;#P message 347 391 41 196617 loading;#P newex 347 410 113 196617 print tape-config_colls;#B color 11;#P button 44 375 15 0;#P newex 44 396 145 196617 s /tape/autoconfig/load/done;#B color 11;#P message 194 345 30 196617 open;#P message 194 271 30 196617 open;#P message 194 245 30 196617 open;#P message 194 218 30 196617 open;#P message 194 192 30 196617 open;#P message 194 166 30 196617 open;#P message 194 140 30 196617 open;#P newex 44 344 136 196617 configcollreadlib t_windows;#B color 13;#P newex 44 271 140 196617 configcollreadlib t_shortcuts;#B color 13;#P newex 44 244 124 196617 configcollreadlib t_config;#B color 13;#P newex 44 217 121 196617 configcollreadlib t_spats;#B color 13;#P newex 44 191 148 196617 configcollreadlib t_submodules;#B color 13;#P newex 44 165 133 196617 configcollreadlib t_modules;#B color 13;#P newex 44 139 118 196617 configcollreadlib t_build;#B color 13;#P newex 98 72 44 196617 del 100;#P window linecount 2;#P message 98 91 135 196617 \; /tape/config/edit/init bang;#P button 44 61 15 0;#P window linecount 1;#P newex 44 38 119 196617 r /tape/autoconfig/load;#B color 11;#P newex 251 105 118 196617 s /tape/windows/store;#B color 11;#P newex 251 85 145 196617 r /tapemovie/windows/store;#B color 11;#P newex 251 144 119 196617 s /tape/autoconfig/load;#B color 11;#P newex 251 66 120 196617 s /tape/windows/recall;#B color 11;#P newex 251 46 147 196617 r /tapemovie/windows/recall;#B color 11;#P newex 251 124 146 196617 r /tapemovie/autoconfig/load;#B color 11;#P newex 249 235 62 196617 projectpath;#B color 6;#P newex 249 303 51 196617 tosymbol;#P newex 249 326 73 196617 prepend write;#P window linecount 0;#P newex 100 297 122 196617 r /tape/shortcuts/reset;#B color 11;#N vpatcher 30 89 345 298;#P window setfont "Sans Serif" 9.;#P newex 50 151 47 196617 forward;#P newex 122 126 131 196617 sprintf send /%s/shortcut;#P newex 50 95 69 196617 route symbol;#P newex 122 95 69 196617 route symbol;#P newex 95 50 40 196617 t dump;#N coll t_shortcuts 1;#P newobj 95 73 91 196617 coll t_shortcuts 1;#B color 5;#P inlet 95 30 15 0;#P connect 1 0 4 0;#P connect 5 0 6 0;#P connect 4 0 6 0;#P connect 0 0 2 0;#P connect 2 0 1 0;#P connect 1 1 3 0;#P connect 3 0 5 0;#P pop;#P newobj 81 319 84 196617 p send shortcuts;#B color 6;#P button 81 300 15 0;#P button 249 214 15 0;#P newex 249 193 119 196617 r /tape/windows/write;#B color 11;#P newex 249 279 157 196617 sprintf %sconfig/t_windows.txt;#B color 5;#P connect 15 0 16 0;#P connect 16 0 19 0;#P connect 19 0 20 0;#P connect 20 0 21 0;#P connect 21 0 22 0;#P connect 22 0 23 0;#P connect 23 0 24 0;#P connect 24 0 25 0;#P connect 25 0 34 0;#P connect 34 0 33 0;#P connect 24 0 3 0;#P connect 5 0 3 0;#P connect 3 0 4 0;#P connect 18 0 17 0;#P connect 26 0 19 1;#P connect 29 0 22 1;#P connect 30 0 23 1;#P connect 27 0 20 1;#P connect 32 0 25 1;#P connect 6 0 25 1;#P connect 31 0 24 1;#P connect 28 0 21 1;#P connect 1 0 2 0;#P connect 2 0 8 0;#P connect 8 0 0 0;#P connect 0 0 7 0;#P connect 7 0 6 0;#P connect 10 0 11 0;#P connect 13 0 14 0;#P connect 9 0 12 0;#P connect 34 0 37 0;#P connect 16 0 36 0;#P connect 36 0 35 0;#P connect 37 0 35 0;#P pop;#P newobj 41 61 133 1310738 p t_config_colls;#B color 6;#P newex 41 385 140 1310738 multimapper /tape;#B color 11;#P window setfont "Sans Serif" 12.;#P window linecount 2;#P comment 181 385 258 196620 <- this is where all the mappings happen ! (one of these per environnment (plugin);#B frgb 255 0 0;#P window setfont Times 9.;#P window linecount 1;#P newex 280 273 76 1310729 r module_register;#B color 11;#P window setfont "Sans Serif" 9.;#P newex 280 200 182 196617 editorwindow /tape/t_patchers /tape;#B color 6;#N thispatcher;#Q end;#P newobj 280 221 61 196617 thispatcher;#P window setfont Times 9.;#P newex 280 250 80 1310729 r /instruments/init;#B color 11;#P comment 303 53 118 1310729 NEW qlist comment variable;#P newex 279 51 23 1310729 r **;#B color 11;#P newex 279 31 19 1310729 r //;#B color 11;#P comment 298 33 95 1310729 qlist comment variable;#P window setfont "Sans Serif" 9.;#P window linecount 2;#P message 279 152 120 196617 \; /makeparam/reset bang;#P message 279 113 79 196617 \; storetemp bang;#P message 279 75 79 196617 \; /tape/init bang;#B color 6;#P window setfont Times 18.;#P window linecount 1;#N vpatcher 186 80 1042 808;#P origin 24 -170;#P window setfont "Sans Serif" 9.;#P window linecount 1;#P newex 284 139 50 196617 deferlow;#P newex 284 117 20 196617 t b;#P newex 439 649 50 196617 deferlow;#P window linecount 0;#P newex 43 124 38 196617 del 10;#P window linecount 1;#P newex 97 109 87 196617 s /dac/vol/mute;#B color 11;#P newex 93 591 97 196617 s /dac/vol/unmute;#B color 11;#P button 545 499 15 0;#P newex 439 540 45 196617 t b b;#P newex 439 625 45 196617 onebang;#P number 230 230 35 9 0 1 3 3 0 0 0 221 221 221 222 222 222 0 0 0;#P newex 230 210 80 196617 r /tape/nobuild;#B color 11;#P newex 318 289 41 196617 sel 0 1;#P newex 318 266 27 196617 i;#P window linecount 0;#N vpatcher 10 59 326 394;#P window setfont "Sans Serif" 9.;#P window linecount 1;#P newex 50 263 38 196617 del 10;#P newex 90 219 119 196617 s /tape/windows/write;#B color 11;#P newex 50 173 71 196617 t b b b b;#P newex 50 152 50 196617 deferlow;#P newex 90 108 118 196617 s /tape/windows/store;#B color 11;#P window linecount 0;#P newex 50 50 71 196617 t b b b b;#P inlet 50 30 15 0;#P outlet 50 284 15 0;#P connect 1 0 2 0;#P connect 2 0 4 0;#P connect 4 0 5 0;#P connect 5 0 7 0;#P connect 7 0 0 0;#P connect 2 2 3 0;#P connect 5 2 6 0;#P pop;#P newobj 318 163 117 196617 p windows-store/write;#B color 6;#P button 439 605 15 0;#P newex 439 582 73 196617 r /mtrx/built;#B color 11;#P button 439 522 15 0;#P newex 439 561 82 196617 s /mtrx/create;#B color 11;#P newex 407 238 54 196617 print tape;#P window linecount 2;#P message 407 208 125 196617 ---------- BUILDING tape - please wait ----------;#P window setfont "Sans Serif" 14.;#P window linecount 1;#P newex 561 383 177 196622 tm_initmodules /tape;#B color 6;#P window setfont "Sans Serif" 9.;#P window linecount 2;#P message 277 485 144 196617 \; /samples/samples/build bang;#P window linecount 4;#P message 368 256 168 196617 \; /tape/building 1 \; /samples/samplist/reload bang \; /samples/sampgroups/reload bang;#P number 728 414 42 9 0 0 0 3 0 0 0 221 221 221 222 222 222 0 0 0;#P button 561 414 24 0;#P window linecount 1;#P newex 43 171 41 196617 sel 1 0;#P button 43 103 15 0;#P window linecount 0;#P newex 43 150 64 196617 i;#P window linecount 1;#P newex 97 131 124 196617 r /tape/autoconfig/state;#B color 11;#N vpatcher 10 59 228 334;#P window setfont "Sans Serif" 9.;#P window linecount 1;#N coll t_config-old 1;#P newobj 29 220 93 196617 coll t_config-old 1;#B color 5;#P window linecount 0;#P newex 29 116 69 196617 route symbol;#P newex 29 52 154 196617 t b clear;#P newex 29 180 117 196617 substitute symbol store;#P newex 29 160 44 196617 zl rot 2;#P newex 29 139 38 196617 zl join;#P message 29 73 33 196617 dump;#N coll t_config 1;#P newobj 29 94 75 196617 coll t_config 1;#B color 5;#P inlet 29 32 15 0;#P connect 0 0 6 0;#P connect 6 0 2 0;#P connect 2 0 1 0;#P connect 1 0 7 0;#P connect 7 0 3 0;#P connect 7 1 3 0;#P connect 3 0 4 0;#P connect 4 0 5 0;#P connect 5 0 8 0;#P fasten 6 1 8 0 178 206 34 206;#P connect 1 1 3 1;#P pop;#P newobj 223 681 93 196617 p copy_config-coll;#B color 6;#P comment 239 468 67 196617 done building;#P newex 593 414 126 196617 s /tape/initmodules/done;#B color 11;#P window linecount 4;#P message 599 164 159 196617 \; /tape/autoconfig/state 0 \; /tape/windowsmenu/clear bang \; /tape/buildreset;#P window linecount 0;#P newex 561 292 47 196617 forward;#P newex 561 248 20 196617 t b;#P newex 576 271 145 196617 sprintf send /tape/%s/delete;#P newex 584 248 69 196617 route symbol;#P message 561 208 33 196617 dump;#N coll t_build 1;#P newobj 561 227 80 196617 coll t_build 1;#B color 5;#P window linecount 2;#P message 110 636 47 196617 \; dsp stop;#P message 56 636 51 196617 \; dsp start;#P window linecount 1;#P newex 56 613 41 196617 sel 1 0;#P newex 56 592 27 196617 i;#P newex 187 372 61 196617 t b b;#P newex 238 423 27 196617 i;#P toggle 255 393 15 0;#P newex 255 372 54 196617 dspstate~;#P newex 43 568 45 196617 onebang;#P button 43 549 15 0;#P newex 43 528 90 196617 r /tape/init/done;#B color 11;#P newex 43 668 94 196617 s /tape/buildreset;#B color 11;#P newex 116 35 94 196617 r /tape/buildreset;#B color 11;#P button 530 557 15 0;#P newex 530 532 136 196617 deletebuildeditors /tape;#B color 6;#P button 223 468 15 13;#P button 671 557 15 0;#P newex 671 532 122 196617 deletebuildmodules /tape;#B color 6;#P newex 439 670 50 196617 t resume;#P button 123 397 15 0;#P newex 123 377 54 196617 onebang;#P button 123 358 15 0;#P newex 123 294 54 196617 t b b;#P newex 123 317 82 196617 s /mtrx/create;#B color 11;#P newex 123 338 73 196617 r /mtrx/built;#B color 11;#P newex 123 272 44 196617 del 100;#P newex 65 418 44 196617 del 100;#P window linecount 2;#P message 65 443 90 196617 \; /tape/initall bang;#P window linecount 1;#P comment 503 85 216 196617 yes: run build routine for mtrx only \, then init;#P comment 485 72 158 196617 did order change?;#P comment 503 98 106 196617 no: go straight to init;#P comment 468 59 158 196617 no:;#P comment 468 46 364 196617 yes: run build routine \, checking t_config-status to only build what has changed;#P comment 446 33 288 196617 1) Compare old to new and new to old. Are there any changes?;#P button 318 192 15 0;#P button 123 245 15 0;#P button 43 245 15 0;#P window linecount 2;#P comment 58 245 41 196617 no changes;#P comment 138 245 54 196617 change in order only;#P window linecount 1;#P comment 332 192 45 196617 changes;#P newex 439 499 95 196617 route mtrx editors;#P button 43 198 15 0;#P comment 59 175 138 196617 compare old and new configs;#N vpatcher 136 44 1143 765;#P button 442 643 15 0;#P button 386 643 15 0;#P button 318 643 15 0;#P window setfont "Sans Serif" 9.;#P window linecount 2;#P comment 309 676 41 196617 no changes;#P window linecount 1;#P comment 374 677 63 196617 order only;#P comment 457 662 45 196617 changes;#P comment 322 603 217 196617 if no changes check to see of order changed ->;#P newex 660 607 41 196617 sel 0 1;#P toggle 660 559 15 0;#P comment 675 560 171 196617 are there any changes in the order?;#P newex 660 537 27 196617 i;#P newex 948 507 21 196617 t 0;#P window linecount 0;#P newex 789 507 21 196617 t 1;#N comlet bang if ONLY order changed in config;#P outlet 386 661 15 0;#P window linecount 1;#P newex 833 507 50 196617 t resume;#P newex 833 484 32 196617 del 1;#P newex 789 485 29 196617 gate;#P newex 759 396 40 196617 t b l 1;#P newex 843 392 62 196617 prepend set;#P newex 808 446 31 196617 t b 0;#P newex 808 425 37 196617 match;#P comment 547 80 216 196617 yes: run build routine for mtrx only \, then init;#P comment 529 67 158 196617 did order change?;#P comment 547 93 106 196617 no: go straight to init;#P newex 759 373 40 196617 atoi;#P newex 759 352 51 196617 tosymbol;#P newex 759 329 69 196617 route symbol;#P newex 843 372 40 196617 atoi;#P newex 843 351 51 196617 tosymbol;#P newex 843 328 69 196617 route symbol;#N coll t_config-old 1;#P newobj 816 301 93 196617 coll t_config-old 1;#B color 5;#P comment 651 143 141 196617 check to see if order changed;#P newex 636 258 65 196617 t next pause;#P button 636 143 15 0;#P newex 636 189 32 196617 del 1;#P newex 636 163 208 196617 t b length start b;#P newex 636 237 59 196617 uzi;#P number 702 211 35 9 0 0 0 3 0 0 0 221 221 221 222 222 222 0 0 0;#P newex 702 189 46 196617 grab;#N coll t_config 1;#P newobj 738 301 75 196617 coll t_config 1;#B color 5;#P window linecount 0;#P newex 425 577 122 196617 v t_config-has-changed?;#N comlet bang if there have been changes in config;#P outlet 442 661 15 0;#N comlet bang if there have been no changes in config;#P outlet 318 661 15 0;#P window linecount 1;#P comment 36 35 164 196617 compare old to new and new to old;#P inlet 20 34 15 0;#P comment 512 54 158 196617 no:;#P window linecount 0;#P newex 318 577 103 196617 sel 0 1;#P toggle 318 556 15 0;#P window linecount 1;#P newex 313 494 21 196617 t 0;#P newex 335 494 21 196617 t 1;#P window linecount 0;#P newex 318 535 27 196617 i;#P window linecount 1;#P comment 340 80 100 196617 compare new to old;#N coll t_config-status 1;#P newobj 504 547 108 196617 coll t_config-status 1;#B color 5;#P newex 322 420 50 196617 t resume;#P newex 322 399 32 196617 del 1;#P newex 322 378 20 196617 t b;#P newex 396 488 36 196617 zl reg;#P newex 495 407 69 196617 route symbol;#P newex 504 488 36 196617 zl reg;#P message 544 377 33 196617 set 0;#P newex 448 265 106 196617 t s s b;#P newex 504 509 94 196617 sprintf store %s 0;#P newex 396 509 94 196617 sprintf store %s 1;#P newex 396 453 29 196617 gate;#P newex 366 367 40 196617 t b l 1;#P newex 448 377 62 196617 prepend set;#P newex 366 309 40 196617 atoi;#P newex 448 311 69 196617 route symbol;#P newex 448 357 40 196617 atoi;#P newex 366 288 51 196617 tosymbol;#P newex 448 428 31 196617 t 0 b;#P newex 448 407 37 196617 match;#P newex 448 337 51 196617 tosymbol;#N coll t_config 1;#P newobj 448 288 75 196617 coll t_config 1;#B color 5;#P newex 366 265 69 196617 route symbol;#P newex 325 195 37 196617 t next;#P newex 373 195 42 196617 t pause;#P button 325 80 15 0;#P newex 325 126 32 196617 del 1;#P newex 325 100 142 196617 t b length start;#P newex 325 174 59 196617 uzi;#P number 391 148 35 9 0 0 0 3 0 0 0 221 221 221 222 222 222 0 0 0;#P newex 391 126 46 196617 grab;#N coll t_config-old 1;#P newobj 427 238 93 196617 coll t_config-old 1;#B color 5;#P comment 512 41 364 196617 yes: run build routine \, checking t_config-status to only build what has changed;#N coll t_config-status 1;#P newobj 199 547 108 196617 coll t_config-status 1;#B color 5;#P newex 17 420 50 196617 t resume;#P newex 17 399 32 196617 del 1;#P window linecount 0;#P newex 17 378 20 196617 t b;#P window linecount 1;#P newex 91 488 36 196617 zl reg;#P newex 190 407 69 196617 route symbol;#P window linecount 0;#P newex 199 488 36 196617 zl reg;#P message 239 377 33 196617 set 0;#P window linecount 1;#P newex 143 265 106 196617 t s s b;#P newex 199 509 94 196617 sprintf store %s 0;#P newex 91 509 94 196617 sprintf store %s 1;#P newex 91 453 29 196617 gate;#P window linecount 0;#P newex 61 367 40 196617 t b l 1;#P window linecount 1;#P newex 143 377 62 196617 prepend set;#P newex 61 309 40 196617 atoi;#P newex 143 311 69 196617 route symbol;#P newex 143 357 40 196617 atoi;#P newex 61 288 51 196617 tosymbol;#P newex 143 428 31 196617 t 0 b;#P newex 143 407 37 196617 match;#P newex 143 337 51 196617 tosymbol;#N coll t_config-old 1;#P newobj 143 288 93 196617 coll t_config-old 1;#B color 5;#P newex 61 265 69 196617 route symbol;#P newex 20 195 37 196617 t next;#P newex 68 195 42 196617 t pause;#P button 20 58 15 0;#P newex 20 126 32 196617 del 1;#P newex 20 100 275 196617 t b length start clear b;#P newex 20 174 59 196617 uzi;#P number 86 148 35 9 0 0 0 3 0 0 0 221 221 221 222 222 222 0 0 0;#P newex 86 126 46 196617 grab;#N coll t_config 1;#P newobj 122 238 75 196617 coll t_config 1;#B color 5;#P window linecount 0;#P comment 490 28 288 196617 1) Compare old to new and new to old. Are there any changes?;#P comment 36 58 100 196617 compare old to new;#P comment 333 557 115 196617 are there any changes?;#P connect 25 0 31 0;#P connect 24 0 31 0;#P connect 31 0 32 0;#P connect 32 0 33 0;#P connect 75 0 9 0;#P connect 9 0 7 0;#P connect 7 0 8 0;#P fasten 33 0 6 0 22 440 11 440 11 170 25 170;#P connect 8 0 6 0;#P fasten 10 0 6 0 73 215 113 215 113 167 25 167;#P connect 6 0 11 0;#P connect 3 0 12 0;#P connect 12 1 17 0;#P connect 12 0 17 0;#P connect 17 0 20 0;#P connect 20 0 22 0;#P connect 6 2 10 0;#P connect 5 0 6 1;#P connect 7 1 4 0;#P connect 4 0 5 0;#P connect 16 0 23 0;#P connect 22 2 23 0;#P connect 23 0 30 0;#P connect 30 0 24 0;#P connect 22 0 23 1;#P connect 29 0 30 1;#P connect 4 1 3 0;#P connect 11 0 3 0;#P connect 7 2 3 0;#P connect 3 1 26 0;#P connect 26 0 13 0;#P connect 13 0 19 0;#P connect 19 0 14 0;#P connect 19 1 14 0;#P connect 14 0 18 0;#P connect 18 0 21 0;#P connect 27 0 15 0;#P connect 22 1 15 0;#P connect 21 0 15 0;#P connect 15 0 16 0;#P connect 26 1 29 0;#P connect 16 1 28 0;#P connect 28 0 25 0;#P fasten 7 3 34 0 223 535 204 535;#P connect 24 0 34 0;#P connect 25 0 34 0;#P connect 29 0 28 1;#P connect 26 2 27 0;#P connect 7 4 71 0;#P connect 39 1 69 0;#P connect 69 0 72 0;#P connect 72 0 73 0;#P connect 112 0 117 0;#P connect 117 0 77 0;#P connect 58 0 64 0;#P connect 57 0 64 0;#P connect 64 0 65 0;#P connect 65 0 66 0;#P connect 6 1 42 0;#P connect 42 0 40 0;#P connect 40 0 41 0;#P fasten 43 0 39 0 378 215 418 215 418 167 330 167;#P connect 41 0 39 0;#P fasten 66 0 39 0 327 440 316 440 316 170 330 170;#P connect 39 0 44 0;#P connect 56 0 70 0;#P connect 23 0 70 0;#P connect 70 0 69 1;#P connect 71 0 69 1;#P connect 36 0 45 0;#P connect 45 0 50 0;#P connect 45 1 50 0;#P connect 50 0 53 0;#P connect 53 0 55 0;#P connect 39 2 43 0;#P connect 38 0 39 1;#P connect 112 1 118 0;#P connect 118 0 106 0;#P connect 40 1 37 0;#P connect 37 0 38 0;#P connect 55 2 56 0;#P connect 49 0 56 0;#P connect 56 0 63 0;#P connect 63 0 57 0;#P connect 55 0 56 1;#P connect 62 0 63 1;#P fasten 72 0 79 0 323 574 430 574;#P connect 37 1 36 0;#P connect 44 0 36 0;#P connect 40 2 36 0;#P connect 73 1 119 0;#P connect 119 0 78 0;#P connect 36 1 59 0;#P connect 59 0 46 0;#P connect 46 0 52 0;#P connect 52 1 47 0;#P connect 52 0 47 0;#P connect 47 0 51 0;#P connect 51 0 54 0;#P connect 54 0 48 0;#P connect 55 1 48 0;#P connect 60 0 48 0;#P connect 48 0 49 0;#P connect 59 1 62 0;#P connect 49 1 61 0;#P connect 61 0 58 0;#P connect 57 0 67 0;#P connect 58 0 67 0;#P connect 62 0 61 1;#P connect 59 2 60 0;#P fasten 73 0 86 0 323 615 619 615 619 136 641 136;#P connect 86 0 84 0;#P connect 84 0 85 0;#P connect 85 0 83 0;#P fasten 105 0 83 0 838 531 917 531 917 234 641 234;#P lcolor 7;#P fasten 87 1 83 0 696 277 709 277 709 231 641 231;#P connect 83 0 87 0;#P connect 83 1 109 0;#P connect 109 0 111 0;#P connect 111 0 112 0;#P connect 107 0 109 1;#P connect 108 0 109 1;#P connect 82 0 83 1;#P connect 84 1 81 0;#P connect 81 0 82 0;#P connect 87 0 80 0;#P connect 81 1 80 0;#P connect 84 2 80 0;#P connect 80 1 93 0;#P connect 93 0 94 0;#P connect 93 1 94 0;#P connect 94 0 95 0;#P connect 95 0 102 0;#P connect 102 2 103 0;#P connect 100 1 103 0;#P connect 103 0 107 0;#P connect 101 0 99 0;#P connect 102 1 99 0;#P connect 99 0 100 0;#P connect 102 0 103 1;#P connect 84 2 89 0;#P connect 87 0 89 0;#P connect 100 0 104 0;#P connect 103 0 104 0;#P connect 104 0 105 0;#P connect 89 1 90 0;#P connect 90 1 91 0;#P connect 90 0 91 0;#P connect 91 0 92 0;#P connect 92 0 101 0;#P fasten 84 3 108 0 839 187 953 187;#P pop;#P newobj 43 221 170 196617 p compare_config;#B color 6;#P button 223 661 15 0;#P newex 439 479 69 196617 route symbol;#P newex 318 421 65 196617 t next pause;#P newex 318 352 32 196617 del 1;#P newex 318 331 142 196617 t b length start;#P newex 318 400 59 196617 uzi;#P number 384 374 35 9 0 0 0 3 0 0 0 221 221 221 222 222 222 0 0 0;#P newex 384 352 46 196617 grab;#N coll t_build 1;#P newobj 420 454 69 196617 coll t_build 1;#B color 5;#P window setfont "Sans Serif" 18.;#P comment 220 35 210 196626 read configuration files;#P window setfont "Sans Serif" 9.;#P newex 223 487 50 196617 deferlow;#P window linecount 2;#P message 187 402 47 196617 \; dsp stop;#P button 116 56 15 0;#P window linecount 1;#P newex 43 82 54 196617 onebang 1;#P window linecount 10;#P message 223 523 164 196617 bang \; /tape/windows/recall bang \; /tape/sflist/preload bang \; /tape/building 0 \; /makeparam/reset bang \; /tape/windowsmenu/fill bang \; /tape/preferencesmenu/fill bang \; /tape/shortcuts/reset bang \; /dac/vol 1 \; /tape/autoconfig/state 1;#P window linecount 1;#P newex 43 35 70 196617 r /tape/build;#B color 11;#P newex 561 118 80 196617 r /tape/unbuild;#B color 11;#P newex 561 330 100 196617 r /tape/initmodules;#B color 11;#P button 561 351 24 0;#P button 561 139 24 0;#P button 43 55 24 0;#P comment 594 357 64 196617 init modules;#P window linecount 0;#P comment 739 388 23 196617 dsp;#P connect 7 0 2 0;#P connect 2 0 9 0;#P connect 9 0 79 0;#P connect 79 0 102 0;#P connect 102 0 78 0;#P connect 78 0 80 0;#P connect 80 0 25 0;#P connect 25 0 23 0;#P connect 23 0 30 0;#P connect 56 0 57 0;#P connect 57 0 58 0;#P connect 58 0 55 0;#P connect 58 0 63 0;#P connect 63 0 64 0;#P connect 64 0 65 0;#P connect 30 0 40 0;#P connect 22 0 40 0;#P connect 47 0 40 0;#P connect 40 0 39 0;#P connect 61 0 63 1;#P fasten 30 0 58 1 48 502 83 502;#P connect 22 0 58 1;#P connect 10 0 9 1;#P connect 58 0 100 0;#P connect 79 0 101 0;#P connect 77 0 78 1;#P fasten 64 1 66 0 76 633 115 633;#P connect 54 0 10 0;#P connect 23 1 31 0;#P connect 31 0 41 0;#P connect 41 0 44 0;#P connect 44 0 43 0;#P connect 42 0 45 0;#P connect 45 0 46 0;#P connect 46 0 47 0;#P connect 44 1 46 1;#P connect 32 0 62 0;#P connect 31 0 62 0;#P connect 62 0 11 0;#P fasten 17 1 51 0 347 463 228 463;#P lcolor 13;#P fasten 94 1 51 0 338 314 313 314 313 457 228 457;#P lcolor 15;#P connect 51 0 12 0;#P connect 12 0 8 0;#P connect 8 0 22 0;#P connect 22 0 76 0;#P connect 95 0 96 0;#P connect 62 1 61 0;#P connect 30 0 61 0;#P connect 59 0 60 0;#P connect 60 0 61 1;#P connect 17 1 84 0;#P fasten 80 1 104 0 63 192 235 192 235 110 289 110;#P connect 104 0 105 0;#P connect 23 2 92 0;#P connect 105 0 32 0;#P connect 92 0 32 0;#P connect 32 0 93 0;#P connect 93 0 94 0;#P connect 94 0 18 0;#P connect 18 0 19 0;#P connect 19 0 17 0;#P fasten 20 1 17 0 378 441 387 441 387 396 323 396;#P fasten 48 0 17 0 444 691 414 691 414 392 323 392;#P lcolor 15;#P connect 17 0 20 0;#P connect 96 0 93 1;#P connect 16 0 17 1;#P connect 32 0 83 0;#P connect 18 1 15 0;#P connect 15 0 16 0;#P connect 32 0 86 0;#P connect 86 0 87 0;#P connect 15 1 14 0;#P connect 18 2 14 0;#P fasten 20 0 14 0 323 447 425 447;#P connect 14 1 21 0;#P connect 21 0 26 0;#P connect 26 0 89 0;#P connect 89 0 98 0;#P connect 98 0 88 0;#P connect 90 0 91 0;#P connect 91 0 97 0;#P connect 97 0 103 0;#P fasten 53 0 103 0 535 646 444 646;#P fasten 50 0 103 0 676 646 444 646;#P connect 103 0 48 0;#P connect 98 1 97 1;#P connect 99 0 52 0;#P connect 26 1 52 0;#P connect 52 0 53 0;#P connect 6 0 3 0;#P connect 3 0 68 0;#P connect 68 0 67 0;#P connect 67 0 71 0;#P connect 70 0 72 0;#P connect 71 0 72 0;#P connect 5 0 4 0;#P connect 4 0 85 0;#P connect 85 0 81 0;#P connect 69 0 70 0;#P connect 67 1 69 0;#P connect 85 0 74 0;#P connect 3 0 73 0;#P connect 26 2 49 0;#P connect 49 0 50 0;#P connect 85 1 82 0;#P pop;#P newobj 41 101 133 1310738 p t_config-works;#B color 1;#P newex 41 141 104 1310738 t_dsp-builder;#B color 1;#P newex 41 192 140 1310738 t_iometers-builder;#B color 11;#P newex 41 220 141 1310738 t_fxmeters-builder;#B color 11;#N vpatcher 69 190 1309 910;#P origin 0 -109;#P window setfont "Sans Serif" 9.;#P message 345 189 168 196617 \; /samples/samplist/reload bang \; /samples/sampgroups/reload bang;#P window linecount 1;#P newex 38 565 36 196617 zl reg;#P newex 38 511 150 196617 r /samples/sampgroups/write;#B color 9;#P newex 38 609 73 196617 prepend write;#P newex 38 588 51 196617 tosymbol;#P newex 40 212 36 196617 zl reg;#P newex 40 158 135 196617 r /samples/samplist/write;#B color 9;#P newex 40 256 73 196617 prepend write;#P newex 40 235 51 196617 tosymbol;#P newex 921 43 81 196617 s /samples/init;#B color 11;#P newex 921 22 106 196617 r /tape/samples/init;#B color 11;#P newex 195 460 62 196617 projectpath;#B color 6;#P newex 195 554 68 196617 prepend read;#P newex 195 533 51 196617 tosymbol;#P newex 183 201 68 196617 prepend read;#P newex 183 180 51 196617 tosymbol;#P newex 965 280 81 196617 s /samples/init;#B color 11;#P newex 965 260 44 196617 del 100;#P window linecount 3;#P message 965 217 215 196617 bang \; /samples/samplist/file t_samplist.txt \; /samples/sampgroups/file t_sampgroups.txt;#P window linecount 1;#P newex 965 194 102 196617 r /samples/defaults;#B color 11;#P newex 713 22 99 196617 r /samples/buffers;#B color 9;#P newex 713 43 47 196617 pcontrol;#P newex 405 433 141 196617 v /samples/sampgroups/file;#B color 9;#P newex 375 64 126 196617 v /samples/samplist/file;#B color 9;#P newex 833 114 48 196617 loadbang;#P window linecount 3;#P message 833 139 215 196617 \; /samples/samplist/file t_samplist.txt \; /samples/sampgroups/file t_sampgroups.txt;#P window linecount 1;#P newex 18 483 140 196617 s /samples/sampgroups/file;#B color 9;#P newex 18 460 51 196617 strippath;#P newex 18 440 82 196617 opendialog TEXT;#P button 18 421 15 0;#P newex 18 401 166 196617 r /samples/sampgroups/filedialog;#B color 9;#P newex 20 115 125 196617 s /samples/samplist/file;#B color 9;#P newex 20 92 51 196617 strippath;#P window linecount 0;#P newex 20 72 82 196617 opendialog TEXT;#P button 20 53 15 0;#P window linecount 1;#P newex 20 33 151 196617 r /samples/samplist/filedialog;#B color 9;#N vpatcher 10 59 226 316;#P window setfont "Sans Serif" 9.;#P newex 29 116 69 196617 route symbol;#P newex 29 52 154 196617 t b clear;#P newex 29 180 72 196617 prepend store;#P newex 29 160 44 196617 zl rot 1;#P newex 29 139 38 196617 zl join;#P message 29 73 33 196617 dump;#N coll tape_sampgroups 1;#P newobj 29 94 116 196617 coll tape_sampgroups 1;#B color 5;#P inlet 29 32 15 0;#P outlet 29 206 15 0;#P connect 1 0 7 0;#P connect 7 0 3 0;#P connect 3 0 2 0;#P connect 2 0 8 0;#P connect 8 0 4 0;#P connect 8 1 4 0;#P connect 4 0 5 0;#P connect 5 0 6 0;#P fasten 7 1 0 0 178 200 34 200;#P connect 6 0 0 0;#P connect 2 1 4 1;#P pop;#P newobj 807 496 119 196617 p copy_sampgroups-coll;#B color 6;#N coll tape_sampgroups-old 1;#P newobj 807 519 134 196617 coll tape_sampgroups-old 1;#B color 5;#P newex 807 474 44 196617 del 100;#P newex 698 432 170 196617 r /samples/sampgroups/forcebuild;#B color 9;#P newex 587 393 146 196617 r /samples/sampgroups/build;#B color 9;#P window linecount 2;#P comment 601 454 41 196617 not changed;#P button 587 414 15 0;#P button 587 454 15 0;#P button 681 454 15 0;#P window linecount 1;#N vpatcher 322 44 799 770;#P window setfont "Sans Serif" 9.;#P newex 17 642 32 196617 del 1;#P window linecount 1;#P newex 252 487 41 196617 sel 0 1;#P newex 252 466 34 196617 == 1.;#P newex 252 445 27 196617 L==;#N comlet check to see if data changed;#P inlet 35 17 15 0;#P button 17 664 15 0;#N comlet build bang out;#P outlet 17 685 15 0;#P window linecount 2;#P comment 33 665 41 196617 no need to build;#P button 82 664 15 0;#N comlet build bang out;#P outlet 82 685 15 0;#P window linecount 1;#P newex 35 162 41 196617 sel 0 1;#P number 35 142 35 9 0 0 0 3 0 0 0 221 221 221 222 222 222 0 0 0;#P window linecount 0;#P newex 35 121 27 196617 ==;#P number 87 101 35 9 0 0 0 3 0 0 0 221 221 221 222 222 222 0 0 0;#P window linecount 1;#P newex 87 79 46 196617 grab;#N coll tape_sampgroups-old 1;#P newobj 206 141 134 196617 coll tape_sampgroups-old 1;#B color 5;#P comment 50 36 141 196617 check to see if data changed;#P button 35 36 15 0;#P newex 35 56 44 196617 t length;#P number 35 101 35 9 0 0 0 3 0 0 0 221 221 221 222 222 222 0 0 0;#P newex 35 79 46 196617 grab;#N coll tape_sampgroups 1;#P newobj 82 141 116 196617 coll tape_sampgroups 1;#B color 5;#P newex 117 606 41 196617 sel 0 1;#P toggle 117 585 15 0;#P comment 132 586 171 196617 are there any changes in the data?;#P newex 117 563 27 196617 i;#P newex 405 530 21 196617 t 0;#P newex 226 512 21 196617 t 1;#P newex 252 534 50 196617 t resume;#P newex 252 511 32 196617 del 1;#P newex 195 423 40 196617 atoi;#P newex 195 402 51 196617 tosymbol;#P newex 195 379 69 196617 route symbol;#P newex 319 422 40 196617 atoi;#P newex 319 401 51 196617 tosymbol;#P newex 319 378 69 196617 route symbol;#N coll tape_sampgroups-old 1;#P newobj 319 351 134 196617 coll tape_sampgroups-old 1;#B color 5;#P comment 108 193 141 196617 check to see if data changed;#P newex 93 308 65 196617 t next pause;#P button 93 193 15 0;#P newex 93 239 32 196617 del 1;#P newex 93 213 208 196617 t b length start b;#P newex 93 287 59 196617 uzi;#P number 159 261 35 9 0 0 0 3 0 0 0 221 221 221 222 222 222 0 0 0;#P newex 159 239 46 196617 grab;#N coll tape_sampgroups 1;#P newobj 195 351 116 196617 coll tape_sampgroups 1;#B color 5;#P window linecount 0;#P comment 98 665 31 196617 build;#P connect 24 0 46 0;#P connect 46 0 41 0;#P connect 41 0 40 0;#P connect 42 0 29 0;#P connect 29 0 28 0;#P connect 28 0 26 0;#P connect 26 0 27 0;#P connect 27 0 34 0;#P connect 34 0 35 0;#P connect 35 0 36 0;#P connect 33 0 34 1;#P connect 26 1 25 0;#P connect 36 0 38 0;#P connect 24 1 38 0;#P connect 38 0 37 0;#P fasten 28 0 32 0 40 76 92 76;#P connect 32 0 33 0;#P connect 36 1 7 0;#P connect 7 0 5 0;#P connect 5 0 6 0;#P connect 6 0 4 0;#P fasten 18 0 4 0 257 555 374 555 374 284 98 284;#P lcolor 7;#P fasten 8 1 4 0 153 327 166 327 166 281 98 281;#P connect 4 0 8 0;#P connect 4 1 21 0;#P connect 21 0 23 0;#P connect 23 0 24 0;#P connect 19 0 21 1;#P fasten 20 0 21 1 410 560 139 560;#P connect 3 0 4 1;#P connect 5 1 2 0;#P connect 2 0 3 0;#P connect 5 2 1 0;#P connect 2 1 1 0;#P connect 8 0 1 0;#P connect 1 0 14 0;#P connect 14 0 15 0;#P connect 14 1 15 0;#P connect 15 0 16 0;#P connect 32 1 31 0;#P connect 45 0 19 0;#P connect 16 0 43 0;#P connect 43 0 44 0;#P connect 44 0 45 0;#P connect 45 1 17 0;#P connect 45 0 17 0;#P connect 17 0 18 0;#P connect 13 0 43 1;#P connect 8 0 10 0;#P connect 5 2 10 0;#P connect 10 0 11 0;#P connect 11 1 12 0;#P connect 11 0 12 0;#P connect 12 0 13 0;#P fasten 5 3 20 0 296 237 410 237;#P pop;#P newobj 587 433 104 196617 p check_for_changes;#B color 6;#P comment 640 454 45 196617 changed;#P newex 573 124 153 196617 r /samples/samples/forcebuild;#B color 9;#P window setfont Times 18.;#P newex 713 63 69 1310738 t_samps;#B color 1;#P window setfont "Sans Serif" 9.;#P comment 566 97 62 196617 not changed;#N coll tape_samplist-r 1;#P newobj 714 217 111 196617 coll tape_samplist-r 1;#B color 5;#P window linecount 0;#N vpatcher 20 74 267 295;#P outlet 50 155 15 0;#P window setfont "Sans Serif" 9.;#P newex 50 112 54 196617 zl join;#P newex 50 91 44 196617 zl nth 1;#P newex 50 133 72 196617 prepend store;#P message 50 50 33 196617 dump;#N coll tape_samplist 1;#P newobj 50 69 101 196617 coll tape_samplist 1;#B color 5;#P inlet 50 30 15 0;#P connect 0 0 2 0;#P connect 2 0 1 0;#P connect 1 0 4 0;#P connect 4 0 5 0;#P connect 5 0 3 0;#P connect 3 0 6 0;#P fasten 1 1 5 1 85 88 99 88;#P pop;#P newobj 714 194 95 196617 p make_samplist-r;#B color 6;#P button 551 56 15 0;#P button 551 96 15 0;#P button 645 96 15 0;#N vpatcher 322 44 799 770;#P window setfont "Sans Serif" 9.;#P newex 17 642 32 196617 del 1;#P window linecount 1;#P newex 252 487 41 196617 sel 0 1;#P newex 252 466 34 196617 == 1.;#P newex 252 445 27 196617 L==;#N comlet check to see if data changed;#P inlet 35 17 15 0;#P button 17 664 15 0;#N comlet build bang out;#P outlet 17 685 15 0;#P window linecount 2;#P comment 33 665 41 196617 no need to build;#P button 82 664 15 0;#N comlet build bang out;#P outlet 82 685 15 0;#P window linecount 1;#P newex 35 162 41 196617 sel 0 1;#P number 35 142 35 9 0 0 0 3 0 0 0 221 221 221 222 222 222 0 0 0;#P window linecount 0;#P newex 35 121 27 196617 ==;#P number 87 101 35 9 0 0 0 3 0 0 0 221 221 221 222 222 222 0 0 0;#P window linecount 1;#P newex 87 79 46 196617 grab;#N coll tape_samplist-old 1;#P newobj 186 141 119 196617 coll tape_samplist-old 1;#B color 5;#P comment 50 36 141 196617 check to see if data changed;#P button 35 36 15 0;#P newex 35 56 44 196617 t length;#P number 35 101 35 9 0 0 0 3 0 0 0 221 221 221 222 222 222 0 0 0;#P newex 35 79 46 196617 grab;#N coll tape_samplist 1;#P newobj 82 141 101 196617 coll tape_samplist 1;#B color 5;#P newex 117 606 41 196617 sel 0 1;#P toggle 117 585 15 0;#P comment 132 586 171 196617 are there any changes in the data?;#P newex 117 563 27 196617 i;#P newex 405 530 21 196617 t 0;#P newex 226 512 21 196617 t 1;#P newex 252 534 50 196617 t resume;#P newex 252 511 32 196617 del 1;#P newex 195 423 40 196617 atoi;#P newex 195 402 51 196617 tosymbol;#P newex 195 379 69 196617 route symbol;#P newex 300 422 40 196617 atoi;#P newex 300 401 51 196617 tosymbol;#P newex 300 378 69 196617 route symbol;#N coll tape_samplist-old 1;#P newobj 300 351 119 196617 coll tape_samplist-old 1;#B color 5;#P comment 108 193 141 196617 check to see if data changed;#P newex 93 308 65 196617 t next pause;#P button 93 193 15 0;#P newex 93 239 32 196617 del 1;#P newex 93 213 208 196617 t b length start b;#P newex 93 287 59 196617 uzi;#P number 159 261 35 9 0 0 0 3 0 0 0 221 221 221 222 222 222 0 0 0;#P newex 159 239 46 196617 grab;#N coll tape_samplist 1;#P newobj 195 351 101 196617 coll tape_samplist 1;#B color 5;#P window linecount 0;#P comment 98 665 31 196617 build;#P connect 24 0 46 0;#P connect 46 0 41 0;#P connect 41 0 40 0;#P connect 42 0 29 0;#P connect 29 0 28 0;#P connect 28 0 26 0;#P connect 26 0 27 0;#P connect 27 0 34 0;#P connect 34 0 35 0;#P connect 35 0 36 0;#P connect 33 0 34 1;#P connect 26 1 25 0;#P connect 24 1 38 0;#P connect 36 0 38 0;#P connect 38 0 37 0;#P fasten 28 0 32 0 40 76 92 76;#P connect 32 0 33 0;#P connect 36 1 7 0;#P connect 7 0 5 0;#P connect 5 0 6 0;#P fasten 8 1 4 0 153 327 166 327 166 281 98 281;#P fasten 18 0 4 0 257 555 374 555 374 284 98 284;#P lcolor 7;#P connect 6 0 4 0;#P connect 4 0 8 0;#P connect 4 1 21 0;#P connect 21 0 23 0;#P connect 23 0 24 0;#P fasten 20 0 21 1 410 560 139 560;#P connect 19 0 21 1;#P connect 3 0 4 1;#P connect 5 1 2 0;#P connect 2 0 3 0;#P connect 32 1 31 0;#P connect 5 2 1 0;#P connect 2 1 1 0;#P connect 8 0 1 0;#P connect 1 0 14 0;#P connect 14 1 15 0;#P connect 14 0 15 0;#P connect 15 0 16 0;#P connect 45 0 19 0;#P connect 16 0 43 0;#P connect 43 0 44 0;#P connect 44 0 45 0;#P connect 45 0 17 0;#P connect 45 1 17 0;#P connect 17 0 18 0;#P connect 13 0 43 1;#P connect 8 0 10 0;#P connect 5 2 10 0;#P connect 10 0 11 0;#P connect 11 0 12 0;#P connect 11 1 12 0;#P connect 12 0 13 0;#P fasten 5 3 20 0 296 237 410 237;#P pop;#P newobj 551 75 104 196617 p check_for_changes;#B color 6;#P window linecount 1;#N vpatcher 10 59 226 316;#P window setfont "Sans Serif" 9.;#P newex 29 116 69 196617 route symbol;#P newex 29 52 154 196617 t b clear;#P newex 29 180 72 196617 prepend store;#P newex 29 160 44 196617 zl rot 1;#P newex 29 139 38 196617 zl join;#P message 29 73 33 196617 dump;#N coll tape_samplist 1;#P newobj 29 94 101 196617 coll tape_samplist 1;#B color 5;#P inlet 29 32 15 0;#P outlet 29 206 15 0;#P connect 1 0 7 0;#P connect 7 0 3 0;#P connect 3 0 2 0;#P connect 2 0 8 0;#P connect 8 1 4 0;#P connect 8 0 4 0;#P connect 4 0 5 0;#P connect 5 0 6 0;#P connect 6 0 0 0;#P fasten 7 1 0 0 178 200 34 200;#P connect 2 1 4 1;#P pop;#P newobj 828 194 104 196617 p copy_samplist-coll;#B color 6;#N coll tape_samplist-old 1;#P newobj 828 217 119 196617 coll tape_samplist-old 1;#B color 5;#P window linecount 3;#P message 833 69 161 196617 \; /samples/samples/build bang \; /samples/sampgroups/build bang;#P button 833 43 15 0;#P window setfont Times 9.;#P window linecount 1;#P newex 1042 45 92 1310729 s $1/init;#B color 11;#P newex 1042 22 51 1310729 r /tape/init;#B color 11;#P window setfont "Sans Serif" 9.;#P newex 833 22 81 196617 r /samples/init;#B color 11;#P newex 681 474 123 196617 s /tape/sampgroups/init;#B color 9;#P window setfont "Sans Serif" 12.;#P newex 587 516 128 196620 sampgroups-builder;#B color 6;#P button 714 150 15 0;#P window setfont "Sans Serif" 9.;#P newex 714 168 44 196617 del 100;#P newex 552 171 32 196617 del 1;#P newex 552 150 51 196617 t b b;#P button 552 128 15 0;#P newex 593 171 118 196617 s /tape/samples/delete;#B color 9;#P newex 552 194 112 196617 s /tape/samples/build;#B color 9;#P newex 551 35 129 196617 r /samples/samples/build;#B color 9;#P newex 223 618 37 196617 t open;#P newex 223 597 145 196617 r /samples/sampgroups/open;#B color 9;#P newex 211 283 37 196617 t open;#P newex 211 262 130 196617 r /samples/samplist/open;#B color 9;#P newex 363 470 153 196617 s /samples/sampgroups/reload;#B color 9;#P newex 363 449 30 196617 t b s;#P newex 363 401 140 196617 r /samples/sampgroups/file;#B color 9;#P button 195 423 15 0;#P newex 195 401 153 196617 r /samples/sampgroups/reload;#B color 9;#P newex 195 511 130 196617 sprintf %sconfig/data/%s;#B color 5;#N coll tape_sampgroups 1;#P newobj 195 662 116 196617 coll tape_sampgroups 1;#B color 5;#P newex 329 102 138 196617 s /samples/samplist/reload;#B color 9;#P newex 329 81 30 196617 t b s;#P newex 329 33 125 196617 r /samples/samplist/file;#B color 9;#P button 183 55 15 0;#P newex 183 117 62 196617 projectpath;#B color 6;#P newex 183 33 138 196617 r /samples/samplist/reload;#B color 9;#P newex 183 158 130 196617 sprintf %sconfig/data/%s;#B color 5;#N coll tape_samplist 1;#P newobj 183 314 101 196617 coll tape_samplist 1;#B color 5;#P window linecount 0;#P comment 660 97 45 196617 changed;#P connect 62 0 63 0;#P connect 63 0 64 0;#P connect 64 0 65 0;#P connect 65 0 66 0;#P connect 57 0 58 0;#P connect 58 0 59 0;#P connect 59 0 60 0;#P connect 60 0 61 0;#P connect 90 0 91 0;#P connect 91 0 88 0;#P connect 88 0 89 0;#P connect 86 0 87 0;#P connect 87 0 84 0;#P connect 84 0 85 0;#P connect 10 0 91 1;#P connect 2 0 87 1;#P connect 3 0 5 0;#P connect 5 0 4 0;#P connect 4 0 2 0;#P connect 2 0 77 0;#P connect 77 0 78 0;#P connect 78 0 1 0;#P connect 17 0 1 0;#P connect 85 0 1 0;#P connect 11 0 12 0;#P connect 12 0 81 0;#P connect 81 0 10 0;#P connect 10 0 79 0;#P connect 79 0 80 0;#P connect 80 0 9 0;#P connect 19 0 9 0;#P connect 89 0 9 0;#P connect 16 0 17 0;#P connect 18 0 19 0;#P connect 7 1 2 1;#P connect 14 1 10 1;#P connect 6 0 7 0;#P connect 7 0 8 0;#P connect 13 0 14 0;#P connect 14 0 15 0;#P connect 6 0 69 0;#P connect 13 0 70 0;#P connect 20 0 40 0;#P connect 40 0 37 0;#P connect 37 0 39 0;#P connect 45 0 23 0;#P fasten 38 0 23 0 650 119 557 119;#P connect 23 0 24 0;#P connect 24 0 25 0;#P connect 25 0 21 0;#P connect 52 0 50 0;#P connect 50 0 47 0;#P connect 47 0 49 0;#P connect 24 1 22 0;#P connect 37 1 38 0;#P connect 53 0 48 0;#P connect 47 1 48 0;#P connect 48 0 29 0;#P connect 72 0 71 0;#P connect 71 0 44 0;#P fasten 23 0 27 0 557 146 719 146;#P connect 27 0 26 0;#P connect 26 0 41 0;#P connect 41 0 42 0;#P fasten 48 0 54 0 686 471 812 471;#P connect 54 0 56 0;#P connect 56 0 55 0;#P fasten 26 0 36 0 719 189 833 189;#P connect 36 0 35 0;#P connect 30 0 33 0;#P connect 33 0 34 0;#P connect 68 0 67 0;#P connect 82 0 83 0;#P connect 73 0 74 0;#P connect 74 0 75 0;#P connect 75 0 76 0;#P connect 31 0 32 0;#P pop;#P newobj 41 263 162 1310738 p t_samples /samples;#B color 1;#N vpatcher 1025 44 1298 309;#P window setfont "Sans Serif" 9.;#P window linecount 1;#P comment 150 86 96 196617 /sampgroups/write;#B frgb 0 0 200;#P button 131 86 15 14;#P objectname sampgroupswrite;#P comment 26 86 79 196617 /samples/write;#B frgb 0 0 200;#P button 7 86 15 14;#P objectname samplistwrite;#P hidden newex 200 275 112 196617 pvar sampgroupswrite;#P hidden newex 200 295 150 196617 s /samples/sampgroups/write;#B color 9;#P hidden newex 17 274 97 196617 pvar samplistwrite;#P hidden newex 17 294 135 196617 s /samples/samplist/write;#B color 9;#P hidden button 157 622 15 0;#P hidden newex 157 641 102 196617 s /samples/defaults;#B color 9;#P hidden newex 157 601 70 196617 pvar defaults;#P window setfont Times 9.;#P comment 50 158 180 1310729 revert back to default saplist and sampgroups;#B frgb 150 150 200;#P button 37 158 13 10;#P objectname defaults;#P comment 73 175 127 1310729 <- open sample buffers window;#B frgb 150 150 200;#P window setfont "Sans Serif" 9.;#P hidden newex 30 622 37 196617 t open;#P hidden newex 30 642 99 196617 s /samples/buffers;#B color 9;#P hidden newex 30 602 67 196617 pvar buffers;#P window setfont Times 9.;#P message 37 174 36 1310729 buffers;#B color 11;#P objectname buffers;#P window setfont "Sans Serif" 9.;#P hidden newex 355 295 81 196617 r /samples/init;#B color 9;#P hidden newex 363 409 141 196617 v /samples/sampgroups/file;#B color 9;#P hidden newex 347 329 126 196617 v /samples/samplist/file;#B color 9;#P hidden newex 214 523 93 196617 fixedsize 273 265;#B color 6;#P hidden newex 214 503 144 196617 editorwindow /samples /tape;#B color 6;#N thispatcher;#Q end;#P hidden newobj 182 546 61 196617 thispatcher;#P hidden newex 17 546 128 196617 pvar sampgroupsfiledialog;#P hidden newex 17 568 166 196617 s /samples/sampgroups/filedialog;#B color 9;#P window setfont Times 9.;#P comment 144 139 99 1310729 /sampgroups/filedialog;#B frgb 150 150 200;#P button 131 139 13 8;#P objectname sampgroupsfiledialog;#P comment 20 139 86 1310729 /samplist/filedialog;#B frgb 150 150 200;#P window setfont "Sans Serif" 9.;#P hidden newex 17 503 113 196617 pvar samplistfiledialog;#P hidden newex 17 525 151 196617 s /samples/samplist/filedialog;#B color 9;#P button 7 139 13 8;#P objectname samplistfiledialog;#P hidden message 322 452 33 196617 clear;#P hidden newex 322 431 48 196617 loadbang;#P hidden newex 217 468 102 196617 pvar sampgroupsfile;#P hidden newex 217 430 62 196617 prepend set;#P hidden newex 217 409 140 196617 r /samples/sampgroups/file;#B color 9;#P comment 129 106 90 196617 /sampgroups/file;#B frgb 0 0 200;#P user textedit 131 118 251 138 32897 3 9 t_sampgroups.txt;#P objectname sampgroupsfile;#P window setfont Times 9.;#P hidden newex 290 63 18 1310729 t b;#P hidden newex 290 43 43 1310729 pvar init;#P message 2 2 19 1310729 init;#B color 12;#P objectname init;#P window setfont "Sans Serif" 9.;#P window linecount 2;#P hidden message 290 84 100 196617 \; /samples/init bang \;;#P window linecount 1;#P hidden message 310 372 33 196617 clear;#P hidden newex 310 351 48 196617 loadbang;#P hidden newex 217 388 87 196617 pvar samplistfile;#P comment 5 106 75 196617 /samplist/file;#B frgb 0 0 200;#P hidden newex 217 350 62 196617 prepend set;#P user textedit 7 118 127 138 32897 3 9 t_samplist.txt;#P objectname samplistfile;#P hidden newex 217 329 125 196617 r /samples/samplist/file;#B color 9;#P hidden newex 17 450 108 196617 pvar sampgroupsbuild;#P hidden newex 17 470 170 196617 s /samples/sampgroups/forcebuild;#B color 9;#P comment 150 66 96 196617 /sampgroups/build;#B frgb 0 0 200;#P button 131 63 19 7;#P objectname sampgroupsbuild;#P hidden newex 17 360 91 196617 pvar samplesbuild;#P hidden newex 17 380 153 196617 s /samples/samples/forcebuild;#B color 9;#P comment 26 66 79 196617 /samples/build;#B frgb 0 0 200;#P button 7 63 19 7;#P objectname samplesbuild;#P window setfont "Sans Serif" 12.;#P comment 128 24 83 196620 sampgroups;#P comment 4 24 61 196620 samplist;#P window setfont "Sans Serif" 9.;#P comment 150 45 95 196617 /sampgroups/open;#B frgb 0 0 200;#P hidden newex 17 404 107 196617 pvar sampgroupsopen;#P hidden newex 17 317 92 196617 pvar samplistopen;#P button 131 42 19 9;#P objectname sampgroupsopen;#P hidden newex 17 427 145 196617 s /samples/sampgroups/open;#B color 9;#P hidden newex 17 337 130 196617 s /samples/samplist/open;#B color 9;#P button 7 42 19 9;#P objectname samplistopen;#P comment 26 45 80 196617 /samplist/open;#B frgb 0 0 200;#P window linecount 4;#P comment 3 193 252 196617 When samplist and sampgroups are open \, <command-s> to save to disk \, close window + click "save" to just save to ram. Build after edit. If open new samplist or sampgroups \, must be in /project/config/data/;#B frgb 200 1 0;#P bpatcher 2 1 257 249 0 0 bkgnd4-.mxt 0 /samples;#P background;#P hidden connect 63 0 62 0;#P hidden connect 7 0 4 0;#P hidden connect 15 0 14 0;#P hidden connect 8 0 5 0;#P hidden connect 19 0 18 0;#P hidden connect 40 0 39 0;#P hidden connect 45 0 44 0;#P hidden connect 53 0 55 0;#P hidden connect 55 0 54 0;#P hidden connect 59 0 61 0;#P hidden connect 61 0 60 0;#P hidden connect 48 0 46 0;#P hidden connect 65 0 64 0;#P hidden connect 46 0 47 0;#P hidden connect 47 0 48 0;#P hidden fasten 49 0 22 0 352 348 222 348;#P hidden connect 20 0 22 0;#P hidden connect 26 0 24 0;#P hidden connect 22 0 24 0;#P hidden fasten 50 0 34 0 368 428 222 428;#P hidden connect 33 0 34 0;#P hidden connect 37 0 35 0;#P hidden connect 34 0 35 0;#P hidden connect 29 0 30 0;#P hidden connect 30 0 27 0;#P hidden connect 25 0 26 0;#P hidden connect 36 0 37 0;#P hidden connect 51 0 49 0;#P hidden connect 51 0 50 0;#P pop;#P newobj 41 290 130 1310738 p t_samplesedit_;#B color 1;#N vpatcher 650 415 1012 685;#P origin 24 -111;#P window setfont "Sans Serif" 9.;#P window linecount 0;#P newex 31 207 106 196617 s tape_sflist/preload;#B color 11;#P newex 31 186 112 196617 r /tape/sflist/preload;#B color 11;#P window linecount 2;#P message 166 141 131 196617 \; /tape/sflist/preload bang \;;#B color 4;#P button 32 57 15 0;#P window linecount 1;#P newex 32 36 106 196617 r /tape/sflist/editor;#B color 11;#P message 32 76 30 196617 open;#N vpatcher 477 117 890 387;#P window setfont "Sans Serif" 9.;#P window linecount 0;#P newex 57 178 68 196617 prepend read;#P newex 57 155 51 196617 tosymbol;#P inlet 27 183 15 0;#P newex 142 72 20 196617 t b;#P newex 226 125 48 196617 loadbang;#P message 344 66 22 196617 set;#P message 212 82 154 196617 t_sflist.txt;#P newex 212 61 62 196617 prepend set;#P window linecount 2;#P message 226 149 140 196617 \; /tape/sflist/file t_sflist.txt;#P window linecount 1;#P newex 177 35 94 196617 r /tape/sflist/file;#B color 9;#P button 35 49 15 0;#P newex 57 103 62 196617 projectpath;#B color 6;#P newex 57 35 94 196617 r /tape/sflist/init;#B color 9;#P newex 57 130 130 196617 sprintf %sconfig/data/%s;#B color 5;#N coll tape_sflist_data 1;#P newobj 57 212 112 196617 coll tape_sflist_data 1;#B color 5;#P connect 2 0 3 0;#P connect 11 0 3 0;#P connect 4 0 3 0;#P connect 3 0 1 0;#P connect 1 0 13 0;#P connect 13 0 14 0;#P connect 12 0 0 0;#P connect 14 0 0 0;#P connect 5 0 11 0;#P connect 5 0 1 1;#P connect 5 0 7 0;#P connect 9 0 8 0;#P connect 7 0 8 0;#P connect 10 0 6 0;#P pop;#P newobj 32 93 92 196617 p tape_sflist_data;#B color 5;#P newex 32 141 114 196617 t_sfpreload tape_sflist;#B color 4;#P connect 6 0 7 0;#P connect 3 0 4 0;#P connect 4 0 2 0;#P connect 2 0 1 0;#P pop;#P newobj 41 340 95 1310738 p sflist_data;#B color 1;#N vpatcher 582 182 1077 720;#P origin 24 -111;#P window setfont "Sans Serif" 9.;#P window linecount 0;#P newex 354 345 111 196617 r /tape/audiotest/init;#B color 12;#P window linecount 2;#P message 13 281 87 196617 \; t_loadinit/play 1;#P window linecount 1;#P newex 13 260 50 196617 deferlow;#P newex 13 238 32 196617 sel 3;#P number 13 220 35 9 0 0 0 3 0 0 0 221 221 221 222 222 222 0 0 0;#P newex 13 200 40 196617 accum;#P newex 13 180 31 196617 t b 1;#P button 47 159 15 0;#P newex 47 140 95 196617 r t_init/read/done;#B color 11;#P button 30 140 15 0;#P newex 30 121 101 196617 r t_init2/read/done;#B color 11;#P button 13 121 15 0;#P newex 13 102 113 196617 r t_loadinit/read/done;#B color 11;#P button 354 266 15 0;#P window linecount 0;#P newex 354 305 85 196617 s /tape/verbose;#B color 12;#P newex 354 285 86 196617 v /tape/verbose;#B color 12;#P newex 354 245 116 196617 r /tape/verbose/check;#B color 12;#P newex 13 488 69 196617 s /tape/built;#B color 11;#P newex 13 467 50 196617 deferlow;#P button 13 449 15 0;#P newex 13 428 87 196617 r t_loadinit/done;#B color 11;#P window linecount 3;#P message 334 426 88 196617 ---------- initing tape - please wait-----------;#P message 223 426 105 196617 ---------- tape initialisation is done ----------;#P window linecount 1;#P newex 223 481 54 196617 print tape;#B color 11;#P newex 113 437 44 196617 del 100;#P newex 354 134 113 196617 r /tape/t_init2/editor;#B color 12;#P newex 354 197 49 196617 s t_init2;#B color 12;#P message 354 175 30 196617 open;#P newex 354 155 46 196617 sel open;#B color 12;#P newex 168 131 30 196617 t b b;#P newex 168 322 45 196617 onebang;#P newex 113 417 75 196617 r t_init2/done;#B color 11;#P bpatcher 168 345 128 62 0 0 qlistinitshell2.edit.mxt 0 t_init2 1;#P button 168 292 15 0;#P newex 113 499 94 196617 s /tape/init/reset;#B color 11;#P newex 123 479 90 196617 s /tape/init/done;#B color 11;#P button 113 458 15 0;#P newex 212 52 94 196617 r /tape/init/reset;#B color 11;#P newex 168 272 126 196617 r /tape/initmodules/done;#B color 11;#P button 168 112 15 0;#P button 212 72 15 0;#P newex 168 91 54 196617 onebang 1;#P newex 168 29 75 196617 r /tape/initall;#B color 11;#P button 168 51 24 0;#P newex 354 37 107 196617 r /tape/t_init/editor;#B color 12;#P newex 354 100 43 196617 s t_init;#B color 12;#P message 354 78 30 196617 open;#P newex 354 58 46 196617 sel open;#B color 12;#P bpatcher 168 173 128 62 0 0 qlistinitshell2.edit.mxt 0 t_init 1;#P newex 13 390 87 196617 r /tape/fd/clear;#B color 11;#P bpatcher 13 29 128 62 0 0 qlistinitshell2.edit.mxt 0 t_loadinit 1;#P window linecount 3;#P message 13 346 106 196617 \; stop bang \; /tape/fd/clear bang \;;#P window linecount 1;#P newex 13 323 76 196617 r /tape/initctl;#B color 11;#P connect 40 0 41 0;#P connect 41 0 46 0;#P connect 43 0 46 0;#P connect 45 0 46 0;#P connect 46 0 47 0;#P connect 47 0 48 0;#P connect 48 0 49 0;#P connect 49 0 50 0;#P connect 50 0 51 0;#P connect 0 0 1 0;#P connect 32 0 33 0;#P connect 33 0 34 0;#P connect 34 0 35 0;#P connect 46 1 47 1;#P connect 42 0 43 0;#P connect 44 0 45 0;#P connect 21 0 28 0;#P connect 28 0 16 0;#P connect 16 0 18 0;#P connect 16 0 17 0;#P connect 10 0 9 0;#P connect 9 0 11 0;#P connect 11 0 13 0;#P connect 13 0 23 0;#P connect 23 0 4 0;#P connect 14 0 19 0;#P connect 19 0 22 0;#P connect 22 0 20 0;#P fasten 23 1 22 1 193 151 305 151 305 318 208 318;#P connect 15 0 12 0;#P connect 12 0 11 1;#P connect 16 0 30 0;#P connect 31 0 29 0;#P connect 30 0 29 0;#P fasten 23 1 31 0 193 151 339 151;#P connect 8 0 5 0;#P connect 5 0 6 0;#P connect 6 0 7 0;#P connect 27 0 24 0;#P connect 24 0 25 0;#P connect 25 0 26 0;#P connect 36 0 39 0;#P connect 39 0 37 0;#P connect 37 0 38 0;#P pop;#P newobj 41 22 67 1310738 p t_inits;#B color 1;#P fasten 16 0 17 0 285 242 470 242 470 196 285 196;#P connect 17 0 16 0;#P pop;#P newobj 11 126 92 1310738 p t_patches;#B color 4;#P user panel 104 77 96 18;#X brgb 255 255 255;#X frgb 0 0 0;#X border 0;#X rounded 0;#X shadow 0;#X done;#P background;#P user panel 12 72 488 28;#X brgb 220 210 240;#X frgb 62 41 109;#X border 1;#X rounded 4;#X shadow 2;#X done;#P background;#P user panel 380 12 120 56;#X brgb 220 210 240;#X frgb 62 41 109;#X border 1;#X rounded 4;#X shadow 2;#X done;#P background;#P user panel 12 12 188 56;#X brgb 220 210 240;#X frgb 62 41 109;#X border 1;#X rounded 4;#X shadow 2;#X done;#P background;#P user panel 6 6 500 100;#X brgb 244 244 244;#X frgb 90 90 110;#X border 1;#X rounded 0;#X shadow 0;#X done;#P background;#P objectname mainpanel;#P fasten 17 0 16 0 67 343 26 343;#P connect 14 0 15 0;#P connect 15 0 17 0;#P connect 10 0 11 0;#P connect 16 0 11 0;#P connect 17 1 18 0;#P fasten 12 0 10 0 151 342 103 342;#P connect 18 0 10 0;#P connect 21 0 10 0;#P connect 19 0 20 0;#P connect 20 0 21 0;#P connect 6 0 81 0;#P connect 81 0 12 0;#P connect 74 0 69 0;#P connect 75 0 70 0;#P connect 72 0 70 0;#P connect 70 0 71 0;#P connect 71 0 78 0;#P connect 78 0 77 0;#P connect 6 0 35 0;#P connect 35 0 23 0;#P connect 22 0 24 0;#P connect 23 0 24 0;#P connect 35 0 22 0;#P connect 74 1 75 0;#P connect 40 0 33 0;#P connect 35 0 33 0;#P connect 33 0 34 0;#P connect 69 0 72 0;#P connect 73 0 72 0;#P connect 74 3 76 0;#P connect 76 0 73 0;#P connect 31 0 9 0;#P connect 34 0 9 0;#P connect 36 0 9 0;#P connect 57 0 66 0;#P connect 54 0 66 0;#P connect 66 0 67 0;#P connect 67 0 68 0;#P hidden connect 44 0 42 0;#P connect 55 0 80 0;#P hidden connect 45 0 41 0;#P connect 39 0 32 0;#P connect 32 0 31 0;#P hidden connect 42 0 44 0;#P hidden connect 41 0 44 0;#P connect 62 0 52 0;#P connect 52 0 53 0;#P connect 63 0 54 0;#P connect 57 0 54 0;#P connect 54 0 55 0;#P connect 55 0 56 0;#P connect 9 0 30 0;#P connect 30 0 36 0;#P connect 55 0 59 0;#P connect 66 0 59 0;#P hidden connect 48 0 47 0;#P hidden connect 28 0 27 0;#P connect 62 1 63 0;#P hidden connect 47 1 48 0;#P hidden connect 27 1 28 0;#P connect 59 1 58 0;#P connect 52 0 57 0;#P connect 61 0 57 0;#P hidden connect 44 1 45 0;#P connect 62 3 64 0;#P connect 64 0 61 0;#P connect 59 0 51 0;#P connect 52 0 51 0;#P connect 51 0 60 0;#P connect 58 0 51 1;#P connect 63 0 51 1;#P connect 64 0 51 2;#P pop;