max v2;#N vpatcher 396 544 766 769;#P origin -18 0;#P window setfont "Sans Serif" 9.;#P window linecount 1;#P newex 6 161 71 196617 prepend name;#P message 6 115 106 196617 $1;#P newex 6 22 48 196617 loadbang;#B color 12;#P newex 6 65 52 196617 thispoly~;#P newex 6 87 123 196617 t b i;#P newex 6 139 123 196617 sprintf %s.%ld;#P newex 6 185 319 196617 jit.gl.texture $2 @dim 640 480 @defaultimage black;#B color 5;#P connect 4 0 3 0;#P connect 3 0 2 0;#P connect 2 0 5 0;#P connect 5 0 1 0;#P connect 1 0 6 0;#P connect 6 0 0 0;#P connect 2 1 1 1;#P pop;